<?xml version="1.0" encoding="UTF-8"?>
<!DOCTYPE svg PUBLIC "-//W3C//DTD SVG 1.1 Tiny//EN" "http://www.w3.org/Graphics/SVG/1.1/DTD/svg11-tiny.dtd">
<svg width="84" height="58" viewBox="0 0 84 58">
<linearGradient id="_22" gradientUnits="userSpaceOnUse" x1="38.17" y1="29" x2="50.75" y2="53.78">
<stop stop-color="#A2C2DD" offset="0.1"/>
<stop stop-color="#6C83BB" offset="0.71"/>
<stop stop-color="#003D6D" offset="0.99"/>
</linearGradient>
<path fill="url(#_22)" d="M39.394,3.266l-15.485,2.27c0,0,0.162,4.253,0.184,4.8c-0.594,0.09-15.508,2.338-15.508,2.338 l11.553,35.411c0,0,20.611-6.321,21.486-6.589c-0.006,0.869-0.066,10.221-0.066,10.221s1.455,1.537,1.643,1.46l18.637-5.216 L62.6,23.688l-1.676-0.56c0,0-3.805,0.913-4.682,1.123c0.229-0.985,2.27-9.804,2.27-9.804l-5.92-2.162 c0,0-6.223,1.068-6.783,1.165c-0.166-0.56-2.661-9.038-2.661-9.038L39.394,3.266z"/>
<linearGradient id="_23" gradientUnits="userSpaceOnUse" x1="52.53" y1="26.07" x2="12.36" y2="26.07">
<stop stop-color="#FFFFFF" offset="0.15"/>
<stop stop-color="#A2C2DD" offset="1"/>
</linearGradient>
<polygon fill="url(#_23)" points="52.53,37.747 42.829,4.805 27.048,7.335 27.161,12.224 12.356,14.706 20.423,47.345 "/>
<linearGradient id="_24" gradientUnits="userSpaceOnUse" x1="30.33" y1="37.04" x2="59.66" y2="12.2">
<stop stop-color="#CADCEC" offset="0"/>
<stop stop-color="#87A8CB" offset="1"/>
</linearGradient>
<polygon fill="url(#_24)" points="20.421,47.034 52.688,37.733 58.009,14.745 25.888,21.183 "/>
<linearGradient id="_25" gradientUnits="userSpaceOnUse" x1="42.43" y1="22.88" x2="37.14" y2="12.31">
<stop stop-color="#FFFFFF" offset="0.15"/>
<stop stop-color="#A2C2DD" offset="1"/>
</linearGradient>
<polygon fill="url(#_25)" points="20.454,18.226 52.487,12.729 58.009,14.745 25.804,21.308 "/>
<linearGradient id="_26" gradientUnits="userSpaceOnUse" x1="34.38" y1="7.63" x2="32.52" y2="2.58">
<stop stop-color="#FFFFFF" offset="0.05"/>
<stop stop-color="#A2C2DD" offset="1"/>
</linearGradient>
<polygon fill="url(#_26)" points="24.31,5.946 39.345,3.743 42.8,4.819 27.048,7.335 "/>
<linearGradient id="_27" gradientUnits="userSpaceOnUse" x1="19" y1="14.93" x2="17.1" y2="9.77">
<stop stop-color="#FFFFFF" offset="0.05"/>
<stop stop-color="#A2C2DD" offset="1"/>
</linearGradient>
<polygon fill="url(#_27)" points="9.144,13.04 24.493,10.724 27.161,12.224 12.356,14.706 "/>
<linearGradient id="_28" gradientUnits="userSpaceOnUse" x1="12.53" y1="30.17" x2="25.48" y2="34.66">
<stop stop-color="#A2C2DD" offset="0.1"/>
<stop stop-color="#6C83BB" offset="0.71"/>
<stop stop-color="#003D6D" offset="0.99"/>
</linearGradient>
<polygon fill="url(#_28)" points="20.454,18.226 20.419,47.595 25.886,21.351 "/>
<linearGradient id="_29" gradientUnits="userSpaceOnUse" x1="28.31" y1="17.3" x2="11" y2="33.82">
<stop stop-color="#A2C2DD" offset="0.1"/>
<stop stop-color="#6C83BB" offset="0.71"/>
<stop stop-color="#003D6D" offset="0.99"/>
</linearGradient>
<polygon fill="url(#_29)" points="9.144,13.04 20.409,47.395 12.356,14.706 "/>
<linearGradient id="_30" gradientUnits="userSpaceOnUse" x1="45.12" y1="-1.14" x2="7.07" y2="18.94">
<stop stop-color="#FFFFFF" offset="0"/>
<stop stop-color="#A2C2DD" offset="0.35"/>
<stop stop-color="#6C83BB" offset="0.7"/>
<stop stop-color="#003D6D" offset="1"/>
</linearGradient>
<polygon fill="url(#_30)" points="27.048,7.335 27.161,12.224 24.493,10.724 24.31,5.946 "/>
<linearGradient id="_31" gradientUnits="userSpaceOnUse" x1="59.44" y1="45.29" x2="29.18" y2="30.23">
<stop stop-color="#FFFFFF" offset="0.15"/>
<stop stop-color="#A2C2DD" offset="1"/>
</linearGradient>
<polygon fill="url(#_31)" points="52.53,37.747 46.456,17.108 25.841,21.345 20.419,47.595 "/>
<linearGradient id="_32" gradientUnits="userSpaceOnUse" x1="60.52" y1="30.23" x2="39.49" y2="55.84">
<stop stop-color="#D6E4F3" offset="0"/>
<stop stop-color="#337CE5" offset="1"/>
</linearGradient>
<path fill="url(#_32)" d="M61.474,47.721l0.748-23.822l-14.672,3.47c-1.487,1.854-3.059,4.127-4.479,6.174l-0.035,19.343 L61.474,47.721z"/>
<linearGradient id="_33" gradientUnits="userSpaceOnUse" x1="42.52" y1="30.02" x2="42.52" y2="56.18">
<stop stop-color="#E6EEF4" offset="0"/>
<stop stop-color="#337CE5" offset="0.44"/>
<stop stop-color="#003D6D" offset="0.94"/>
</linearGradient>
<polygon fill="url(#_33)" points="43.032,52.885 43.208,33.864 41.942,34.445 41.831,51.617 "/>
<linearGradient id="_34" gradientUnits="userSpaceOnUse" x1="62.26" y1="25.35" x2="48.03" y2="25.35">
<stop stop-color="#D6E4F3" offset="0"/>
<stop stop-color="#337CE5" offset="1"/>
</linearGradient>
<polygon fill="url(#_34)" points="62.259,23.884 60.884,23.452 48.032,26.535 49.04,27.243 "/>
<linearGradient id="_35" gradientUnits="userSpaceOnUse" x1="41.53" y1="31.31" x2="61.96" y2="31.31">
<stop stop-color="#E6EEF4" offset="0"/>
<stop stop-color="#337CE5" offset="0.44"/>
<stop stop-color="#003D6D" offset="0.94"/>
</linearGradient>
<polygon fill="url(#_35)" points="46.101,33.512 46.101,32.553 59.11,29.102 59.089,29.859 "/>
<linearGradient id="_36" gradientUnits="userSpaceOnUse" x1="41.53" y1="34.97" x2="61.96" y2="34.97">
<stop stop-color="#E6EEF4" offset="0"/>
<stop stop-color="#337CE5" offset="0.44"/>
<stop stop-color="#003D6D" offset="0.94"/>
</linearGradient>
<polygon fill="url(#_36)" points="46.099,36.33 59.009,32.666 58.989,33.374 46.099,37.281 "/>
<linearGradient id="_37" gradientUnits="userSpaceOnUse" x1="41.53" y1="38.67" x2="61.96" y2="38.67">
<stop stop-color="#E6EEF4" offset="0"/>
<stop stop-color="#337CE5" offset="0.44"/>
<stop stop-color="#003D6D" offset="0.94"/>
</linearGradient>
<polygon fill="url(#_37)" points="46.099,40.057 58.905,36.318 58.884,37.093 46.097,41.029 "/>
<linearGradient id="_38" gradientUnits="userSpaceOnUse" x1="48.76" y1="25.97" x2="48.76" y2="32.51">
<stop stop-color="#D6E4F3" offset="0"/>
<stop stop-color="#337CE5" offset="1"/>
</linearGradient>
<polygon fill="url(#_38)" points="49.04,27.243 49.497,33.135 48.032,26.535 "/>
<linearGradient id="_39" gradientUnits="userSpaceOnUse" x1="51.79" y1="34.46" x2="38.61" y2="33.5">
<stop stop-color="#E6EEF4" offset="0"/>
<stop stop-color="#337CE5" offset="0.44"/>
<stop stop-color="#003D6D" offset="0.94"/>
</linearGradient>
<polygon fill="url(#_39)" points="48.749,32.756 50.001,34.521 41.946,35.234 41.946,34.391 "/>
<linearGradient id="_40" gradientUnits="userSpaceOnUse" x1="49.78" y1="23.5" x2="43.11" y2="40.25">
<stop stop-color="#E6EEF4" offset="0"/>
<stop stop-color="#337CE5" offset="0.44"/>
<stop stop-color="#003D6D" offset="0.94"/>
</linearGradient>
<polygon fill="url(#_40)" points="41.929,34.391 48.032,26.546 49.483,33.08 "/>
<linearGradient id="_41" gradientUnits="userSpaceOnUse" x1="61.68" y1="17.17" x2="70.19" y2="20.76">
<stop stop-color="#E5EDF2" offset="0"/>
<stop stop-color="#ADCEB3" offset="0.14"/>
<stop stop-color="#78B277" offset="0.28"/>
<stop stop-color="#57A052" offset="0.39"/>
<stop stop-color="#4A9944" offset="0.44"/>
<stop stop-color="#418D47" offset="0.5"/>
<stop stop-color="#266B50" offset="0.69"/>
<stop stop-color="#165656" offset="0.84"/>
<stop stop-color="#104E58" offset="0.94"/>
</linearGradient>
<polygon fill="url(#_41)" points="60.785,20.757 64.254,22.149 66.953,15.435 63.486,14.04 "/>
<linearGradient id="_42" gradientUnits="userSpaceOnUse" x1="69.51" y1="22.18" x2="72.51" y2="30.18">
<stop stop-color="#E5EDF2" offset="0"/>
<stop stop-color="#ADCEB3" offset="0.14"/>
<stop stop-color="#78B277" offset="0.28"/>
<stop stop-color="#57A052" offset="0.39"/>
<stop stop-color="#4A9944" offset="0.44"/>
<stop stop-color="#418D47" offset="0.5"/>
<stop stop-color="#266B50" offset="0.69"/>
<stop stop-color="#165656" offset="0.84"/>
<stop stop-color="#104E58" offset="0.94"/>
</linearGradient>
<polygon fill="url(#_42)" points="66.18,23.718 67.572,27.188 74.291,24.493 72.896,21.022 "/>
</svg>