<?xml version="1.0" encoding="UTF-8"?>
<!DOCTYPE svg PUBLIC "-//W3C//DTD SVG 1.1 Tiny//EN" "http://www.w3.org/Graphics/SVG/1.1/DTD/svg11-tiny.dtd">
<svg width="17" height="43" viewBox="0 0 17 43">
<rect width="17" height="43"/>
<path fill="#FFFFFF" d="M11.925,25.417c-0.408-0.982-0.71-2.068-0.904-3.256c-0.249-1.501-0.372-3.351-0.372-5.549 c0-0.887,0.053-1.925,0.158-3.112c0.063-0.695,0.168-1.747,0.318-3.153c-0.766,0.262-1.246,0.42-1.444,0.475 c-0.892,0.262-1.691,0.393-2.402,0.393c-0.955,0-1.639-0.254-2.053-0.764C5.028,10.203,4.82,9.701,4.604,8.944L4.156,9.026 c0,0.467-0.014,1.153-0.041,2.059c-0.026,0.906-0.04,1.585-0.04,2.037c0,1.071,0.17,1.778,0.511,2.121 c0.43,0.439,1.344,0.658,2.742,0.658c0.421,0,0.963-0.096,1.626-0.288c0.206-0.055,0.524-0.144,0.954-0.267 c-0.188,2.484-0.287,3.842-0.296,4.073c-0.044,0.833-0.066,1.646-0.066,2.437c0,2.225,0.159,4.094,0.479,5.608 c0.258,1.242,0.636,2.279,1.133,3.111c0.294,0.506,0.729,1.053,1.307,1.639l0.511-4.688 C12.416,26.462,12.066,25.759,11.925,25.417z"/>
</svg>