<?xml version="1.0" encoding="UTF-8"?>
<!DOCTYPE svg PUBLIC "-//W3C//DTD SVG 1.1 Tiny//EN" "http://www.w3.org/Graphics/SVG/1.1/DTD/svg11-tiny.dtd">
<svg width="84" height="58.001" viewBox="63.369 15.058 84 58.001">
<linearGradient id="_6" gradientUnits="userSpaceOnUse" x1="105.73" y1="44.16" x2="116.7" y2="65.77">
<stop stop-color="#A2C2DD" offset="0.1"/>
<stop stop-color="#6C83BB" offset="0.71"/>
<stop stop-color="#003D6D" offset="0.99"/>
</linearGradient>
<path fill="url(#_6)" d="M98.055,20.708l-5.014,2.647c-8.231,3.264-13.265,11.653-12.78,21.356 c0.646,13.049,11.123,24.09,23.354,24.615c4.703,0.199,9.123-1.156,12.785-3.928c0.063-0.008,4.819-3.573,7.705-6.366 c1.984-1.92,3.367-3.628,4.998-7.153c0.956-2.084,1.407-4.824,1.407-7.738c0-4.86-1.265-10.196-3.566-13.749 c-4.079-6.301-8.208-9.514-14.256-11.087C106.508,17.699,99.411,20.192,98.055,20.708z M126.938,30.392L126.938,30.392 L126.938,30.392z"/>
<linearGradient id="_7" gradientUnits="userSpaceOnUse" x1="106.49" y1="21.79" x2="125.04" y2="60.26">
<stop stop-color="#FFFFFF" offset="0"/>
<stop stop-color="#A2C2DD" offset="0.35"/>
<stop stop-color="#6C83BB" offset="0.7"/>
<stop stop-color="#003D6D" offset="1"/>
</linearGradient>
<path fill="url(#_7)" d="M91.712,24.457l6.424-3.405c-0.041,0.025,7.773-3.148,14.458-1.407 c6.462,1.682,10.332,5.196,14.051,10.938c3.722,5.737,4.593,15.792,2.135,21.15c-1.586,3.438-2.9,5.096-4.922,7.052 c-2.897,2.81-7.654,6.365-7.654,6.365L91.712,24.457z"/>
<radialGradient id="_8" gradientUnits="userSpaceOnUse" cx="91.42" cy="28.95" r="32.16">
<stop stop-color="#FFFFFF" offset="0.1"/>
<stop stop-color="#D1E1EE" offset="0.7"/>
<stop stop-color="#A2C2DD" offset="1"/>
</radialGradient>
<path fill="url(#_8)" d="M124.32,46.606c0.641,12.879-8.627,22.892-20.693,22.372c-12.076-0.518-22.38-11.401-23.019-24.283 c-0.64-12.876,8.626-22.894,20.694-22.374C113.38,22.85,123.682,33.728,124.32,46.606z"/>
<linearGradient id="_9" gradientUnits="userSpaceOnUse" x1="85.14" y1="29.35" x2="103.71" y2="59.77">
<stop stop-color="#E6EEF4" offset="0"/>
<stop stop-color="#9646AC" offset="0.44"/>
<stop stop-color="#3D013F" offset="0.94"/>
</linearGradient>
<path fill="url(#_9)" d="M101.665,59.685c1.824,0.463,3.234-0.661,3.234-2.371c0-1.822-1.41-3.587-3.234-4.045 c-1.786-0.451-3.188,0.64-3.188,2.422C98.478,57.402,99.92,59.248,101.665,59.685z"/>
<path fill="url(#_9)" d="M104.233,50.934c0-3.231-1.593-5.489-3.801-8.103c-1.287-1.503-2.541-2.846-2.541-4.742 c0-2.164,1.782-3.609,3.952-3.063c2.502,0.63,4.134,2.978,4.173,5.415l4.898,1.241c0.077-5.104-3.916-10.288-9.116-11.604 c-4.775-1.21-8.876,1.819-8.876,6.643c0,6.302,5.73,7.482,6.528,12.997L104.233,50.934z"/>
</svg>