<?xml version="1.0" encoding="UTF-8"?>
<!DOCTYPE svg PUBLIC "-//W3C//DTD SVG 1.1 Tiny//EN" "http://www.w3.org/Graphics/SVG/1.1/DTD/svg11-tiny.dtd">
<svg width="44" height="32" viewBox="-1.479 0.993 44 32">
<path fill="#656B6B" fill-opacity="0.01" d="M0.521,32.993v-3.025c0-6.006,2.198-11.651,6.189-15.897 c3.994-4.249,9.299-6.085,14.941-6.077h20.869v25H0.521z"/>
<path fill="#656B6B" fill-opacity="0.02" d="M1.521,32.993v-3.025c0-5.721,2.094-11.099,5.896-15.145 c3.805-4.047,8.859-5.837,14.232-5.83h20.871v24H1.521z"/>
<path fill="#656B6B" fill-opacity="0.03" d="M2.521,32.993v-3.025c0-5.436,1.99-10.547,5.604-14.391 c3.615-3.847,8.418-5.59,13.524-5.584h20.872v23H2.521z"/>
<path fill="#656B6B" fill-opacity="0.06" d="M3.521,32.993v-3.025c0-5.149,1.887-9.994,5.311-13.637 c3.426-3.646,7.977-5.344,12.816-5.338h20.873v22H3.521z"/>
<path fill="#656B6B" fill-opacity="0.05" d="M4.521,32.993v-3.025c0-10.067,7.678-17.987,17.125-17.975h20.875v21H4.521z"/>
<path fill="#656B6B" fill-opacity="0.1" d="M5.521,32.993v-3.025c0-10.067,7.75-16.975,16.75-16.975h20.25v20H5.521z"/>
<path fill="#656B6B" fill-opacity="0.1" d="M6.521,32.993v-3.025c0-10.067,7.75-15.975,16.75-15.975h19.25v19H6.521z"/>
<path fill="#656B6B" fill-opacity="0.1" d="M7.521,32.993v-3.025c0-10.067,8-14.975,16.625-14.975h18.375v18H7.521z"/>
<path fill="#FFFFFF" fill-opacity="0.8" d="M8.521,32.993v-3.025c0-10.067,7.658-17.987,17.105-17.975h16.895v21H8.521z"/>
</svg>