<?xml version="1.0" encoding="UTF-8"?>
<!DOCTYPE svg PUBLIC "-//W3C//DTD SVG 1.1 Tiny//EN" "http://www.w3.org/Graphics/SVG/1.1/DTD/svg11-tiny.dtd">
<svg width="17" height="43" viewBox="0 0 17 43">
<rect width="17" height="43"/>
<path fill="#FFFFFF" d="M11.063,22.324c-0.585-1.499-1.092-3.259-1.523-5.278c-0.46-2.154-0.877-4.855-1.249-8.102H8.082 c-0.365,4.41-0.862,8.027-1.49,10.852c-0.65,2.907-1.502,5.269-2.554,7.085v5.875c0.804-1.861,1.436-3.639,1.896-5.336 c0.438-1.613,0.811-3.453,1.117-5.52c0.233-1.56,0.508-3.879,0.822-6.957H7.95c0.357,3.461,0.942,6.751,1.753,9.869 c0.812,3.119,1.758,5.725,2.84,7.818l0.396-6.5C12.171,24.822,11.546,23.553,11.063,22.324z"/>
</svg>