<?xml version="1.0" encoding="UTF-8"?>
<!DOCTYPE svg PUBLIC "-//W3C//DTD SVG 1.1 Tiny//EN" "http://www.w3.org/Graphics/SVG/1.1/DTD/svg11-tiny.dtd">
<svg width="332" height="82" viewBox="-0.605 -0.193 332 82">
<path fill-opacity="0.01" fill="#656B6B" d="M298.395-0.193L288.364,9.816H24.506 c-5.635-0.008-10.934,2.182-14.922,6.164c-3.992,3.989-6.188,9.291-6.188,14.936v27.776c0,12.746,10.364,23.115,23.104,23.115 l281.939-0.004c0,0,2.095-0.125,2.106-0.125c0.022-0.004,0.052-0.01,0.052-0.01h-0.004c10.719-1.168,18.801-10.187,18.801-20.978 V30.916c0-11.232-8.895-20.404-20-20.994c0-1.531,0-10.115,0-10.115H298.395z M310.449,81.695 c-0.034,0.007-0.069,0.013-0.069,0.013l0.056-0.01C310.436,81.698,310.448,81.695,310.449,81.695z"/>
<path fill-opacity="0.02" fill="#656B6B" d="M298.77,0.807l-9.992,10.009H24.504 c-5.367-0.006-10.414,2.078-14.213,5.873c-3.802,3.797-5.896,8.85-5.896,14.227v27.776c0,12.195,9.916,22.115,22.104,22.115 l281.889-0.002c1.468-0.076,1.866-0.096,2.03-0.119c-0.034,0.008-0.076,0.018-0.076,0.018c0.03-0.004,0.06-0.016,0.091-0.018 c0.021-0.004,0.037-0.008,0.053-0.012c10.217-1.113,17.908-9.67,17.908-19.982V30.917c0-11.053-8.963-20.041-20-20.1 c0-1.666,0-10.01,0-10.01H298.77z"/>
<path fill-opacity="0.04" fill="#656B6B" d="M307.395,1.806h-8.25l-9.953,10.01H24.506 c-5.102-0.006-9.898,1.976-13.506,5.58c-3.614,3.61-5.604,8.411-5.604,13.52v27.776c0,11.643,9.468,21.115,21.104,21.115 l281.837-0.002c0,0,1.902-0.096,1.904-0.098c9.778-0.996,17.152-9.17,17.152-19.017V30.916c0-10.537-8.571-19.111-19.106-19.111 c0,0-0.449,0-0.894,0C307.395,10.125,307.395,1.807,307.395,1.806L307.395,1.806z"/>
<path fill-opacity="0.07" fill="#656B6B" d="M299.645,2.807l-10.039,10.009H24.502 c-4.834-0.006-9.379,1.871-12.799,5.287c-3.424,3.42-5.309,7.971-5.309,12.813v27.775c0,11.093,9.019,20.115,20.104,20.115h281.788 c0,0,1.849-0.095,1.854-0.095c9.266-0.942,16.254-8.69,16.254-18.021V30.916c0-9.986-8.123-18.111-18.106-18.111 c0,0-1.038,0-1.894,0c0-1.68,0-9.998,0-9.998H299.645z"/>
<path fill-opacity="0.11" fill="#656B6B" d="M7.396,30.916V58.69c0,10.541,8.569,19.115,19.104,19.115 h281.788c0.591,0,1.175-0.033,1.751-0.088c8.625-0.879,15.355-8.168,15.355-17.027V30.915c0-9.451-7.659-17.111-17.106-17.111 h-2.894V3.806h-5.375l-10,10.01H24.5C15.053,13.805,7.395,21.465,7.396,30.916z"/>
<path fill-opacity="0.13" fill="#656B6B" d="M8.396,30.916v27.775c0,9.988,8.122,18.115,18.104,18.115 h280.788c0.591,0,1.175-0.033,1.751-0.089c8.625-0.879,15.355-8.168,15.355-17.026V30.916c0-9.451-7.659-17.111-17.106-17.111 h-1.894V4.807h-5l-10,10H25.5C16.053,14.795,8.395,21.465,8.396,30.916z"/>
<linearGradient id="_2" gradientUnits="userSpaceOnUse" x1="167.4" y1="67.58" x2="167.4" y2="19.1">
<stop stop-color="#D9F4E0" offset="0"/>
<stop stop-color="#FFFFFF" offset="1"/>
</linearGradient>
<path fill="url(#_2)" d="M9.396,30.906v27.785c0,9.451,7.657,17.115,17.104,17.115h281.788 c9.447,0,17.106-7.664,17.106-17.115V30.906c0-9.451-7.659-17.111-17.106-17.111h-2.894V1.807h-1.999l-12,12H26.5 C17.053,13.795,9.395,21.455,9.396,30.906z"/>
</svg>