<?xml version="1.0" encoding="UTF-8" standalone="no"?>
<!DOCTYPE svg PUBLIC "-//W3C//DTD SVG 1.1 Tiny//EN" "http://www.w3.org/Graphics/SVG/1.1/DTD/svg11-tiny.dtd">
<svg width="24" height="24" viewBox="-2.1 -1.01 24 24">
<path d="M-0.1,22.99v-12c0-6.617,5.383-12,12-12h10v24H-0.1z" fill="#656B6B" fill-opacity="0.01"/>
<path d="M0.9,22.99v-12c0-6.064,4.936-11,11-11h10v23H0.9z" fill="#656B6B" fill-opacity="0.03"/>
<path d="M1.9,22.99v-12c0-5.514,4.486-10,10-10h10v22H1.9z" fill="#656B6B" fill-opacity="0.04"/>
<path d="M2.9,22.99v-12c0-4.963,4.037-9,9-9h10v21H2.9z" fill="#656B6B" fill-opacity="0.09"/>
<path d="M3.9,22.99v-12c0-4.411,3.588-8,8-8h10v20H3.9z" fill="#656B6B" fill-opacity="0.08"/>
<path d="M4.9,22.99v-12c0-3.859,3.141-7,7-7h10v19H4.9z" fill="#656B6B" fill-opacity="0.1"/>
<path d="M5.9,22.99v-12c0-3.309,2.691-6,6-6h10v18H5.9z" fill="#656B6B" fill-opacity="0.11"/>
<path d="M6.9,22.99v-12c0-2.762,2.238-5,5-5h10v17H6.9z" fill="#656B6B" fill-opacity="0.1"/>
<polygon fill="#656B6B" fill-opacity="0.03" points="6.9,22.99 6.9,1.99 7.9,1.99 21.9,1.99 21.9,22.99 "/>
<linearGradient id="_3" gradientUnits="userSpaceOnUse" x1="14.9" y1="110.09" x2="14.9" y2="4.39">
<stop stop-color="#A8C4CC" offset="0"/>
<stop stop-color="#D9F4E0" offset="0.53"/>
<stop stop-color="#FFFFFF" offset="1"/>
</linearGradient>
<rect fill="url(#_3)" height="20" width="14" x="7.9" y="2.99"/>
<linearGradient id="_4" gradientUnits="userSpaceOnUse" x1="16.4" y1="106.79" x2="16.4" y2="7.09">
<stop stop-color="#C4D9D1" offset="0"/>
<stop stop-color="#D9F4E0" offset="0.23"/>
<stop stop-color="#FFFFFF" offset="1"/>
</linearGradient>
<rect fill="url(#_4)" height="17" width="11" x="10.9" y="5.99"/>
<rect fill="none" height="24" width="24" x="-2.1" y="-1.01"/>
</svg>