<?xml version="1.0" encoding="UTF-8"?>
<!DOCTYPE svg PUBLIC "-//W3C//DTD SVG 1.1 Tiny//EN" "http://www.w3.org/Graphics/SVG/1.1/DTD/svg11-tiny.dtd">
<svg width="17" height="43" viewBox="0 0 17 43">
<path fill="#FFFFFF" fill-opacity="0.16" d="M9.609,5.375L9.609,5.375L9.609,5.375z"/>
<path fill="#FFFFFF" fill-opacity="0.16" d="M9.947,5.743C9.788,5.879,9.166,6.484,5.893,9.667 c-1.446,1.536-2.554,2.919-3.309,4.127c-1.156,1.841-1.742,3.592-1.742,5.201c0,1.715,0.987,3.098,2.921,4.239 c-0.698,0.924-1.27,1.781-1.636,2.523c-0.606,1.232-0.914,2.484-0.914,3.725c0,1.35,0.5,3.254,2.882,4.668 c1.059,0.641,2.416,1.117,4.03,1.416c1.121,0.209,2.307,0.313,3.521,0.313h0.385c1.13,0,2.123-0.762,2.417-1.854l1.345-5.064 c0.008-0.035,0.075-0.516,0.075-0.516c0.007-0.049,0.016-0.078,0.008-0.129l-0.047-0.303l-0.269-0.854 c0,0.002-0.131-0.27-0.131-0.27c-0.412-0.6-1.066-0.988-1.797-1.063l-0.587-0.063c-0.839-0.086-1.575-0.217-2.262-0.369 c0.353-0.418,0.856-1.045,1.729-2.123c1.625-2.059,1.848-3.126,1.848-3.978c0-2.173-1.787-3.243-2.688-3.703 c0.077-0.037,0.241-0.114,0.241-0.114c0.73-0.346,1.253-1.027,1.396-1.823l0.049-0.271l0.748-5.476 c0.002-0.048,0.021-0.251,0.021-0.251c0-0.004,0-0.008,0-0.012c0-1.017-0.522-1.88-1.366-2.308 C11.83,4.874,10.712,5.042,9.947,5.743z M9.969,5.725C9.984,5.713,10,5.699,10.018,5.689 C10.007,5.694,9.991,5.706,9.969,5.725z"/>
<path fill-opacity="0.19" fill="#FFFFFF" d="M10.241,6.136c-0.001,0-4,3.889-4,3.889 c-1.412,1.501-2.495,2.853-3.233,4.034c-1.105,1.761-1.666,3.422-1.666,4.936c0,1.651,1.013,2.984,3.096,4.079 c0.001,0.002,0.036,0.018,0.044,0.021c-0.854,1.08-1.493,2.048-1.906,2.886c-0.572,1.164-0.862,2.343-0.862,3.502 c0,1.222,0.457,2.944,2.637,4.237c1.009,0.611,2.311,1.066,3.866,1.354c1.092,0.203,2.245,0.307,3.432,0.307h0.387 c0.902,0,1.697-0.607,1.934-1.482l1.348-5.063c0.013-0.064,0.063-0.449,0.063-0.449c0.003-0.021,0.004-0.043,0.004-0.063 c0-0.051-0.008-0.102-0.023-0.15l-0.269-0.854c-0.015-0.049-0.036-0.094-0.063-0.135c-0.329-0.479-0.854-0.789-1.437-0.852 L13,26.27c-1.169-0.119-2.195-0.305-3.061-0.543c0.053-0.088,0.127-0.215,0.127-0.215c-0.021,0.037-0.146,0.119-0.174,0.148 c0.278-0.271,0.771-0.883,2.233-2.695c1.53-1.938,1.737-2.902,1.737-3.663c0-2.096-2.045-3.09-2.717-3.417l0,0 c0,0-0.342-0.153-0.645-0.289c0.594-0.279,1.197-0.564,1.197-0.564c0.586-0.277,1.002-0.822,1.115-1.458l0.049-0.272 l0.746-5.455C13.596,7.916,13.63,7.61,13.63,7.61c0.001-0.793-0.42-1.477-1.097-1.819 C11.775,5.407,10.854,5.545,10.241,6.136z"/>
<path fill-opacity="0.22" fill="#FFFFFF" d="M10.588,6.497L6.59,10.383c-1.382,1.469-2.438,2.79-3.158,3.94 c-1.055,1.681-1.59,3.252-1.59,4.671c0,1.448,0.925,2.637,2.828,3.636c0.029,0.015,0.458,0.207,0.624,0.283 c-0.21,0.242-0.419,0.483-0.419,0.483C4.042,24.45,3.424,25.386,3.023,26.2c-0.538,1.094-0.811,2.196-0.811,3.278l0,0 c0,1.09,0.415,2.636,2.392,3.81c0.96,0.582,2.207,1.017,3.703,1.291c1.062,0.198,2.186,0.299,3.34,0.299h0.385 c0.678,0,1.273-0.457,1.449-1.112l1.346-5.063l0.05-0.387l-0.269-0.854c-0.246-0.356-0.643-0.59-1.076-0.637l-0.586-0.063 c-1.215-0.123-2.286-0.313-3.188-0.568c-0.001-0.002-0.287-0.106-0.564-0.211c0.209-0.346,0.439-0.729,0.439-0.729 c-0.021,0.035-0.064,0.021-0.094,0.047c0.261-0.252,0.797-0.916,2.214-2.674c1.414-1.791,1.606-2.656,1.606-3.326 c0-1.784-1.832-2.674-2.436-2.967c-0.003-0.001-0.91-0.408-1.621-0.727c0.619-0.292,2.182-1.027,2.182-1.027 c0.438-0.208,0.75-0.616,0.838-1.094l0.049-0.273l0.742-5.435c0.002-0.003,0.016-0.204,0.016-0.204 c0-0.569-0.313-1.082-0.82-1.339C11.738,5.949,11.048,6.053,10.588,6.497z"/>
<path fill-opacity="0.26" fill="#FFFFFF" d="M10.936,6.856l-3.997,3.886c-1.349,1.435-2.381,2.724-3.083,3.847 c-1.004,1.6-1.514,3.083-1.514,4.406c0,1.245,0.838,2.29,2.561,3.194c0.006,0.002,0.678,0.307,1.207,0.545 c-0.383,0.445-0.856,0.992-0.856,0.992c-0.799,1.012-1.395,1.914-1.781,2.695c-0.504,1.021-0.759,2.055-0.759,3.061 c0,0.961,0.372,2.324,2.146,3.379c0.912,0.551,2.104,0.965,3.539,1.229c1.033,0.193,2.127,0.291,3.248,0.291h0.388 c0.45,0,0.85-0.305,0.967-0.742l1.347-5.063c0.021-0.086,0.031-0.174,0.031-0.26c0-0.201-0.063-0.398-0.179-0.566 c-0.165-0.24-0.431-0.396-0.722-0.426l-0.584-0.063c-1.242-0.128-2.343-0.323-3.27-0.587 C8.992,26.5,8.652,26.348,8.462,26.24c0.147-0.344,0.392-0.771,0.772-1.285l2.132-2.645c1.315-1.667,1.497-2.434,1.497-3.013 c0-1.472-1.563-2.231-2.152-2.518c-0.018-0.008-2.469-1.105-2.469-1.105c0.001,0,0.001,0,0.001,0s-0.03-0.021-0.035-0.024 c0.112-0.082,0.2-0.153,0.396-0.267l2.674-1.26c0.291-0.138,0.5-0.411,0.557-0.729l0.049-0.273l0.74-5.415 c0.003-0.022,0.01-0.113,0.01-0.136c0-0.379-0.21-0.721-0.549-0.893C11.703,6.491,11.242,6.561,10.936,6.856z"/>
<path fill-opacity="0.28" fill="#FFFFFF" d="M11.283,7.216l-1.026,0.999l0,0L7.287,11.1 c-1.312,1.396-2.321,2.656-3.008,3.754c-0.954,1.52-1.438,2.914-1.438,4.141c0,1.042,0.75,1.941,2.293,2.751 c0.013,0.007,1.084,0.488,1.79,0.809c-0.488,0.565-1.293,1.5-1.293,1.5c-0.77,0.973-1.341,1.84-1.712,2.59 c-0.47,0.955-0.707,1.91-0.707,2.838c0,0.83,0.33,2.017,1.901,2.949c0.861,0.521,1.997,0.913,3.374,1.168 c1.004,0.188,2.066,0.28,3.158,0.28h0.385c0.229,0,0.428-0.151,0.484-0.371l1.344-5.063c0.037-0.141,0.015-0.293-0.069-0.409 c-0.083-0.121-0.218-0.199-0.36-0.216l-0.582-0.062c-1.271-0.131-2.398-0.334-3.354-0.604c-1.443-0.4-1.639-0.75-1.641-0.755 c0.014,0.022,0.041-0.471,0.985-1.745c0.022-0.029,0.302-0.373,2.146-2.658c1.224-1.548,1.388-2.232,1.388-2.698 c0-1.159-1.359-1.819-1.871-2.068c-0.007-0.002-2.454-1.099-2.454-1.099c-0.424-0.223-0.569-0.356-0.643-0.438 c0.088-0.125,0.319-0.37,0.956-0.74l2.711-1.28c0.146-0.069,0.25-0.205,0.276-0.364l0.05-0.274l0.736-5.395 c0.003-0.023,0.005-0.045,0.005-0.068c0-0.188-0.104-0.36-0.272-0.446C11.667,7.033,11.438,7.067,11.283,7.216z"/>
<path fill="#FFFFFF" fill-opacity="0.28" d="M10.605,8.574L7.634,11.46l0.007-0.006c-1.28,1.362-2.27,2.596-2.939,3.667 c-0.903,1.44-1.361,2.744-1.361,3.875c0,0.838,0.662,1.593,2.025,2.31c0.018,0.008,1.506,0.68,2.374,1.069 c-0.562,0.648-1.73,2.006-1.73,2.006c-0.733,0.93-1.286,1.766-1.643,2.486c-0.435,0.885-0.655,1.764-0.655,2.613l0,0 c0,1.021,0.558,1.867,1.656,2.52c0.812,0.492,1.893,0.865,3.21,1.105c0.973,0.184,2.005,0.271,3.066,0.271h0.385l1.346-5.063 l-0.583-0.062c-1.299-0.133-2.456-0.34-3.438-0.617c-1.85-0.516-1.993-1.018-1.993-1.159c0-0.252,0.139-0.862,1.071-2.121 c-0.014,0.017,2.154-2.673,2.154-2.673c1.135-1.434,1.275-2.026,1.275-2.385c0-0.758-0.906-1.287-1.59-1.618 c-0.021-0.009-2.438-1.092-2.438-1.092c-0.952-0.499-1.002-0.819-1.002-0.878c0-0.218,0.333-0.645,1.269-1.189l2.75-1.3 l0.049-0.274l0.732-5.375L10.605,8.574z"/>
<path fill="#235487" d="M9.218,28.121c-1.571-0.438-2.356-0.984-2.356-1.643c0-0.563,0.39-1.367,1.169-2.42 c0.722-0.891,1.443-1.785,2.167-2.688c0.776-0.984,1.168-1.675,1.168-2.071c0-0.355-0.438-0.745-1.312-1.168 c-0.813-0.355-1.625-0.718-2.431-1.087c-0.862-0.451-1.293-0.896-1.293-1.333c0-0.492,0.506-1.033,1.518-1.621 c0.424-0.246,1.276-0.649,2.551-1.21l0.539-3.938c-1.074,0.971-2.053,1.921-2.936,2.851c-1.261,1.341-2.222,2.537-2.88,3.59 c-0.857,1.367-1.285,2.571-1.285,3.61c0,0.628,0.586,1.25,1.758,1.866c0.984,0.451,1.971,0.896,2.958,1.333 C7.496,23.38,6.779,24.213,6.4,24.688c-0.713,0.901-1.242,1.701-1.586,2.396C4.412,27.902,4.21,28.701,4.21,29.48 c0,0.834,0.47,1.526,1.411,2.088c0.769,0.466,1.784,0.813,3.046,1.046c0.951,0.178,1.942,0.266,2.978,0.266l1.098-4.125 C11.412,28.619,10.236,28.408,9.218,28.121z"/>
</svg>