<?xml version="1.0" encoding="UTF-8"?>
<!DOCTYPE svg PUBLIC "-//W3C//DTD SVG 1.1 Tiny//EN" "http://www.w3.org/Graphics/SVG/1.1/DTD/svg11-tiny.dtd">
<svg width="84" height="58" viewBox="0 0 84 58">
<linearGradient id="_20" gradientUnits="userSpaceOnUse" x1="44.39" y1="29.22" x2="56.97" y2="54">
<stop stop-color="#A2C2DD" offset="0.1"/>
<stop stop-color="#6C83BB" offset="0.71"/>
<stop stop-color="#003D6D" offset="0.99"/>
</linearGradient>
<path fill="url(#_20)" d="M45.611,3.487L30.127,5.754c0,0,0.164,4.254,0.186,4.8 c-0.596,0.09-15.51,2.341-15.51,2.341l11.555,35.409c0,0,20.105-6.164,20.975-6.432c-0.004,0.861-0.029,9.557-0.029,9.557 l1.908,2.027l18.846-5.275l0.799-24.279l-2.016-0.736c0,0-3.451,0.797-4.307,0.994c0.225-0.973,2.195-9.494,2.195-9.494 l-5.92-2.16c0,0-6.223,1.067-6.783,1.164c-0.166-0.56-2.738-9.036-2.738-9.036L45.611,3.487z"/>
<linearGradient id="_21" gradientUnits="userSpaceOnUse" x1="58.71" y1="26.27" x2="18.53" y2="26.27">
<stop stop-color="#FFFFFF" offset="0.15"/>
<stop stop-color="#A2C2DD" offset="1"/>
</linearGradient>
<polygon fill="url(#_21)" points="58.707,37.938 49.006,4.996 33.225,7.526 33.338,12.415 18.533,14.897 26.6,47.536 "/>
<linearGradient id="_22" gradientUnits="userSpaceOnUse" x1="36.51" y1="37.24" x2="65.84" y2="12.4">
<stop stop-color="#CADCEC" offset="0"/>
<stop stop-color="#87A8CB" offset="1"/>
</linearGradient>
<polygon fill="url(#_22)" points="26.598,47.226 58.865,37.925 64.186,14.936 32.064,21.374 "/>
<linearGradient id="_23" gradientUnits="userSpaceOnUse" x1="48.6" y1="23.07" x2="43.32" y2="12.5">
<stop stop-color="#FFFFFF" offset="0.15"/>
<stop stop-color="#A2C2DD" offset="1"/>
</linearGradient>
<polygon fill="url(#_23)" points="26.631,18.417 58.664,12.919 64.186,14.936 31.979,21.499 "/>
<linearGradient id="_24" gradientUnits="userSpaceOnUse" x1="40.56" y1="7.82" x2="38.7" y2="2.77">
<stop stop-color="#FFFFFF" offset="0.05"/>
<stop stop-color="#A2C2DD" offset="1"/>
</linearGradient>
<polygon fill="url(#_24)" points="30.486,6.137 45.521,3.934 48.975,5.01 33.225,7.526 "/>
<linearGradient id="_25" gradientUnits="userSpaceOnUse" x1="25.18" y1="15.12" x2="23.27" y2="9.96">
<stop stop-color="#FFFFFF" offset="0.05"/>
<stop stop-color="#A2C2DD" offset="1"/>
</linearGradient>
<polygon fill="url(#_25)" points="15.32,13.231 30.67,10.915 33.338,12.415 18.533,14.897 "/>
<linearGradient id="_26" gradientUnits="userSpaceOnUse" x1="18.71" y1="30.36" x2="31.66" y2="34.85">
<stop stop-color="#A2C2DD" offset="0.1"/>
<stop stop-color="#6C83BB" offset="0.71"/>
<stop stop-color="#003D6D" offset="0.99"/>
</linearGradient>
<polygon fill="url(#_26)" points="26.631,18.417 26.596,47.786 32.063,21.542 "/>
<linearGradient id="_27" gradientUnits="userSpaceOnUse" x1="34.49" y1="17.49" x2="17.18" y2="34.01">
<stop stop-color="#A2C2DD" offset="0.1"/>
<stop stop-color="#6C83BB" offset="0.71"/>
<stop stop-color="#003D6D" offset="0.99"/>
</linearGradient>
<polygon fill="url(#_27)" points="15.32,13.231 26.584,47.585 18.533,14.897 "/>
<linearGradient id="_28" gradientUnits="userSpaceOnUse" x1="51.29" y1="-0.95" x2="13.25" y2="19.12">
<stop stop-color="#FFFFFF" offset="0"/>
<stop stop-color="#A2C2DD" offset="0.35"/>
<stop stop-color="#6C83BB" offset="0.7"/>
<stop stop-color="#003D6D" offset="1"/>
</linearGradient>
<polygon fill="url(#_28)" points="33.225,7.526 33.338,12.415 30.67,10.915 30.486,6.137 "/>
<linearGradient id="_29" gradientUnits="userSpaceOnUse" x1="65.61" y1="45.49" x2="35.35" y2="30.42">
<stop stop-color="#FFFFFF" offset="0.15"/>
<stop stop-color="#A2C2DD" offset="1"/>
</linearGradient>
<polygon fill="url(#_29)" points="58.707,37.938 52.633,17.3 32.018,21.536 26.596,47.786 "/>
<linearGradient id="_30" gradientUnits="userSpaceOnUse" x1="65.76" y1="29.65" x2="44.78" y2="55.18">
<stop stop-color="#D6E4F3" offset="0"/>
<stop stop-color="#337CE5" offset="1"/>
</linearGradient>
<polygon fill="url(#_30)" points="67.715,47.913 68.459,24.155 49.316,29.021 49.322,53.062 "/>
<linearGradient id="_31" gradientUnits="userSpaceOnUse" x1="48.58" y1="24.93" x2="48.58" y2="51.18">
<stop stop-color="#E6EEF4" offset="0"/>
<stop stop-color="#337CE5" offset="0.44"/>
<stop stop-color="#003D6D" offset="0.94"/>
</linearGradient>
<polygon fill="url(#_31)" points="49.322,53.062 49.498,28.999 47.723,27.925 47.654,51.29 "/>
<linearGradient id="_32" gradientUnits="userSpaceOnUse" x1="64.56" y1="25.4" x2="29.69" y2="30.15">
<stop stop-color="#D6E4F3" offset="0"/>
<stop stop-color="#337CE5" offset="1"/>
</linearGradient>
<polygon fill="url(#_32)" points="68.498,24.144 66.816,23.53 47.785,27.925 49.477,29.007 "/>
<linearGradient id="_33" gradientUnits="userSpaceOnUse" x1="44.95" y1="30.96" x2="83.45" y2="30.96">
<stop stop-color="#E6EEF4" offset="0"/>
<stop stop-color="#337CE5" offset="0.44"/>
<stop stop-color="#003D6D" offset="0.94"/>
</linearGradient>
<polygon fill="url(#_33)" points="51.793,35.187 51.727,30.556 66.125,26.731 66.008,31.093 "/>
<linearGradient id="_34" gradientUnits="userSpaceOnUse" x1="44.95" y1="47.56" x2="83.45" y2="47.56">
<stop stop-color="#E6EEF4" offset="0"/>
<stop stop-color="#337CE5" offset="0.44"/>
<stop stop-color="#003D6D" offset="0.94"/>
</linearGradient>
<polygon fill="url(#_34)" points="51.727,50.608 51.727,48.208 65.643,44.509 65.586,46.618 "/>
<linearGradient id="_35" gradientUnits="userSpaceOnUse" x1="50.7" y1="40.86" x2="57.45" y2="40.86">
<stop stop-color="#E2E6E4" offset="0"/>
<stop stop-color="#A3740A" offset="1"/>
</linearGradient>
<polygon fill="url(#_35)" points="51.723,36.72 51.789,46.761 57.959,44.989 58.154,34.948 "/>
<linearGradient id="_36" gradientUnits="userSpaceOnUse" x1="44.95" y1="34.9" x2="83.46" y2="34.9">
<stop stop-color="#E6EEF4" offset="0"/>
<stop stop-color="#337CE5" offset="0.44"/>
<stop stop-color="#003D6D" offset="0.94"/>
</linearGradient>
<polygon fill="url(#_36)" points="65.977,32.856 65.916,34.952 59.037,36.935 59.107,34.683 "/>
<linearGradient id="_37" gradientUnits="userSpaceOnUse" x1="44.96" y1="38.8" x2="83.45" y2="38.8">
<stop stop-color="#E6EEF4" offset="0"/>
<stop stop-color="#337CE5" offset="0.44"/>
<stop stop-color="#003D6D" offset="0.94"/>
</linearGradient>
<polygon fill="url(#_37)" points="65.881,36.755 65.826,38.854 58.922,40.845 58.99,38.587 "/>
<linearGradient id="_38" gradientUnits="userSpaceOnUse" x1="44.96" y1="42.71" x2="83.45" y2="42.71">
<stop stop-color="#E6EEF4" offset="0"/>
<stop stop-color="#337CE5" offset="0.44"/>
<stop stop-color="#003D6D" offset="0.94"/>
</linearGradient>
<polygon fill="url(#_38)" points="65.787,40.653 65.725,42.759 58.803,44.755 58.871,42.491 "/>
</svg>