<?xml version="1.0" encoding="UTF-8"?>
<!DOCTYPE svg PUBLIC "-//W3C//DTD SVG 1.1 Tiny//EN" "http://www.w3.org/Graphics/SVG/1.1/DTD/svg11-tiny.dtd">
<svg width="24" height="26" viewBox="0 0 24 26">
<path fill="#496DA2" d="M16.063,17.717l-3.432-3.861l1.787-1.663l3.538,3.647C17.873,16.412,16.958,17.654,16.063,17.717z"/>
<linearGradient id="_3" gradientUnits="userSpaceOnUse" x1="12.38" y1="6.73" x2="5.86" y2="9.5">
<stop stop-color="#A2C2DD" offset="0"/>
<stop stop-color="#FFFFFF" offset="1"/>
</linearGradient>
<path fill-opacity="0.51" fill="url(#_3)" d="M8.996,2.841c2.875,0.17,5.66,2.772,6.063,5.422 c0.403,2.648-1.602,4.66-4.478,4.488c-2.875-0.17-5.534-2.459-5.938-5.107C4.236,4.992,6.117,2.67,8.996,2.841z"/>
<linearGradient id="_4" gradientUnits="userSpaceOnUse" x1="10.54" y1="7.26" x2="11.8" y2="5.7">
<stop stop-color="#A2C2DD" offset="0"/>
<stop stop-color="#FFFFFF" offset="1"/>
</linearGradient>
<path fill-opacity="0.8" fill="url(#_4)" d="M7.66,3.521c3.585-0.812,7.855,3.145,5.689,7.563 C13.932,7.855,10.725,3.937,7.66,3.521z"/>
<path fill="#496DA2" d="M8.681,1.75c2.229-0.187,6.185,2.08,6.896,5.334c0.938,4.291-1.494,7.523-4.848,7.619 c-4.467,0.125-7.295-3.096-7.605-6.333C2.807,5.054,5.518,2.015,8.681,1.75z M4.641,7.584c0.406,2.648,3.063,4.935,5.938,5.104 c2.878,0.174,4.883-1.838,4.478-4.486c-0.402-2.648-3.123-5.533-6-5.703C6.18,2.328,4.236,4.931,4.641,7.584z"/>
<path fill="#87A8CB" d="M17.027,14.301l5.473,5.131c0.25,1.604-1.618,2.863-3.104,2.619l-5.016-5.664l0.195-0.332 c0.947-0.182,2.094-0.838,2.041-1.629L17.027,14.301z"/>
<path fill="#CADCEC" d="M14.381,16.391l0.035-0.52c1.082-0.061,1.921-0.854,2.047-1.576l0.563,0.006 C17.02,15.72,15.268,16.658,14.381,16.391z"/>
<path fill="#496DA2" d="M14.388,15.82l-0.007,0.57c0.589,0.178,1.453-0.232,1.527-0.313l-0.258-0.641 C15.371,15.613,14.822,15.869,14.388,15.82z"/>
<path fill="#235487" d="M14.38,16.387l5.036,5.691c0.674-0.01,1.342-0.119,1.691-0.363l-5.201-5.637 C15.41,16.336,14.79,16.451,14.38,16.387z"/>
<path fill="#496DA2" d="M19.398,22.076c2.705,0.722,3.779-0.805,3.101-2.646C22.431,21.615,20.377,22.076,19.398,22.076z"/>
<path fill="#235487" d="M15.65,15.439l-2.25-2.314c-0.516,0.312-0.515,1.029-0.515,1.029l1.504,1.686 C14.842,15.873,15.525,15.525,15.65,15.439z"/>
<path fill="#235487" d="M10.348,13.229c1.438-0.023,2.746-0.171,3.688-1.146c2.142-2.209,1.838-5.659-0.684-8.104 c-2.521-2.445-5.664-2.642-7.816-0.439c-1.77,1.814-2.082,5.35,0.439,7.793C7.292,12.612,8.637,13.256,10.348,13.229z M10.338,12.966c-1.451,0.023-2.93-0.591-4.061-1.689c-2.125-2.06-2.426-5.214-0.67-7.027c1.762-1.815,4.922-1.613,7.049,0.449 c2.125,2.062,2.425,5.216,0.666,7.029C12.566,12.508,11.506,12.948,10.338,12.966z"/>
<path fill="#87A8CB" d="M5.945,11.675c1.32,1.281,3.059,2,4.771,1.974c1.437-0.022,2.747-0.571,3.688-1.544 c2.142-2.208,1.834-5.992-0.688-8.441c-2.521-2.448-6.313-2.639-8.459-0.43C3.115,5.445,3.425,9.232,5.945,11.675z M5.975,3.934 c1.76-1.817,4.922-1.615,7.047,0.449c2.127,2.06,2.426,5.214,0.668,7.027c-0.758,0.779-1.817,1.218-2.988,1.238 c-1.448,0.024-2.928-0.589-4.057-1.688C4.518,8.898,4.218,5.744,5.975,3.934z"/>
</svg>