<?xml version="1.0" encoding="UTF-8"?>
<!DOCTYPE svg PUBLIC "-//W3C//DTD SVG 1.1 Tiny//EN" "http://www.w3.org/Graphics/SVG/1.1/DTD/svg11-tiny.dtd">
<svg width="17" height="43" viewBox="0 0 17 43">
<path fill="#FFFFFF" fill-opacity="0.16" d="M5.841,17.18c-0.957,0.275-1.712,0.994-2.022,1.923l-1.067,3.194L1.901,25.58 c-0.007,0.031-0.082,0.553-0.082,0.553c0,0.006,0,0.012,0,0.02c0,1.104,0.397,1.949,1.145,2.529l2.428,1.885l0.366,0.179 c-0.102-0.05,2.631,1.69,2.631,1.69c0.841,0.517,1.841,0.586,2.751,0.198c0.893-0.385,1.545-1.188,1.75-2.149l0.701-3.373 c-0.019,0.088,0.773-2.453,0.773-2.453c0.011-0.042,0.115-0.711,0.115-0.711c0.004-1.117-0.449-2.033-1.24-2.603l-2.489-1.794 l-2.174-1.793C7.813,17.123,6.789,16.906,5.841,17.18z"/>
<path fill="#FFFFFF" fill-opacity="0.17" d="M5.979,17.66c-0.798,0.229-1.429,0.828-1.687,1.601l-1.067,3.194l-0.841,3.25 c-0.011,0.061-0.07,0.494-0.07,0.494c0,0.006,0,0.012,0,0.017c0,0.888,0.341,1.593,0.956,2.07l2.428,1.886 c0.044,0.034,0.147,0.073,0.227,0.102c0.127,0.082,2.732,1.74,2.732,1.74c0.694,0.426,1.528,0.483,2.286,0.16 c0.744-0.32,1.287-0.99,1.459-1.793c0.584-2.747,0.675-3.174,0.695-3.332c0.043-0.139,0.791-2.54,0.791-2.54 c0.018-0.075,0.098-0.635,0.098-0.635c0-0.006,0-0.013,0-0.019c0-0.881-0.389-1.64-1.036-2.104l-2.49-1.795l-2.199-1.813 C7.621,17.613,6.768,17.433,5.979,17.66z"/>
<path fill="#FFFFFF" fill-opacity="0.19" d="M6.118,18.141c-0.64,0.184-1.145,0.661-1.35,1.278L3.7,22.613L2.869,25.83 c0,0.004-0.059,0.436-0.059,0.436c0,0.006,0,0.01,0,0.016c0,0.669,0.28,1.232,0.767,1.611l2.428,1.885 c0.045,0.035,0.102,0.035,0.153,0.055c0.37,0.277,1.079,0.719,2.762,1.757c0.555,0.341,1.221,0.386,1.828,0.126 c0.593-0.256,1.027-0.792,1.165-1.438c0.62-2.913,0.685-3.219,0.69-3.325c0.166-0.454,0.39-1.185,0.807-2.585 c0-0.002,0.082-0.564,0.082-0.564c0-0.654-0.313-1.27-0.834-1.645l-2.491-1.796L7.942,18.53 C7.43,18.104,6.747,17.959,6.118,18.141z M11.605,26.916L11.605,26.916L11.605,26.916L11.605,26.916z"/>
<path fill="#FFFFFF" fill-opacity="0.22" d="M6.256,18.621c-0.48,0.138-0.86,0.494-1.014,0.956l-1.068,3.194l-0.82,3.184 c0,0.002-0.047,0.373-0.047,0.373c0,0.458,0.21,0.884,0.578,1.169l2.428,1.886c-0.037-0.027-0.031-0.082-0.058-0.117 c0.252,0.243,0.961,0.684,2.929,1.896c0.414,0.253,0.912,0.287,1.369,0.092c0.444-0.191,0.77-0.595,0.872-1.08 c0.683-3.204,0.683-3.204,0.683-3.258c0,0.133-0.053,0.26-0.146,0.354c-0.016,0.018-0.043,0.013-0.061,0.025 c0.183-0.229,0.391-0.917,1.033-3.07c0.041-0.139,0.061-0.281,0.061-0.423c0-0.481-0.229-0.952-0.625-1.237l-2.492-1.797 l-2.25-1.852C7.239,18.596,6.727,18.485,6.256,18.621z"/>
<path fill="#FFFFFF" fill-opacity="0.26" d="M6.394,19.102c-0.322,0.092-0.575,0.328-0.677,0.634L4.648,22.93l-0.81,3.15 c-0.021,0.083-0.031,0.166-0.031,0.248c0,0.299,0.136,0.581,0.384,0.773l2.428,1.887c0,0,0,0,0,0.001 c0,0.003,0.093,0.061,2.828,1.747c0.271,0.166,0.603,0.188,0.91,0.058c0.293-0.127,0.509-0.396,0.578-0.724 c0,0,0.672-3.153,0.672-3.154c0,0.003,0.847-2.835,0.847-2.835c0.122-0.409-0.032-0.864-0.377-1.111l-2.493-1.798l-2.275-1.871 C7.047,19.086,6.706,19.012,6.394,19.102z"/>
<path fill="#FFFFFF" fill-opacity="0.28" d="M6.531,19.582c-0.158,0.045-0.288,0.155-0.34,0.312l-1.068,3.194l-0.8,3.116 c-0.049,0.192,0.017,0.382,0.175,0.503l2.428,1.887c0.002,0.002,2.783,1.717,2.783,1.717c0.139,0.086,0.303,0.088,0.452,0.023 s0.251-0.208,0.284-0.367l0.672-3.154c0-0.002,0.855-2.873,0.855-2.873c0.062-0.205-0.017-0.438-0.188-0.563L9.29,21.577 l-2.3-1.891C6.863,19.582,6.689,19.536,6.531,19.582z"/>
<path fill="#235487" d="M8.986,21.975c-0.782-0.604-1.558-1.24-2.325-1.912c-0.467,1.303-0.819,2.359-1.06,3.167 c-0.241,0.81-0.505,1.838-0.792,3.086c1.166,0.933,1.968,1.558,2.407,1.871c0.658,0.468,1.571,1.029,2.737,1.688 c0.26-1.385,0.486-2.449,0.679-3.188c0.191-0.74,0.479-1.707,0.864-2.9C10.346,22.977,9.508,22.373,8.986,21.975z"/>
</svg>