<?xml version="1.0" encoding="UTF-8"?>
<!DOCTYPE svg PUBLIC "-//W3C//DTD SVG 1.1 Tiny//EN" "http://www.w3.org/Graphics/SVG/1.1/DTD/svg11-tiny.dtd">
<svg width="17" height="43" viewBox="0 0 17 43">
<path fill="#FFFFFF" fill-opacity="0.16" d="M3.361,9.217L3.361,9.217c-0.78,1.252-1.393,2.851-1.823,4.752 c-0.33,1.449-0.498,2.724-0.498,3.791c0,1.96,0.599,3.558,1.78,4.749c1.055,1.069,2.418,1.642,4.029,1.753 c0.058,2.441,0.169,4.215,0.345,5.357c0.417,2.686,1.387,4.711,2.886,6.021c0.802,0.699,1.926,0.922,2.934,0.582 c1.01-0.341,1.769-1.201,1.98-2.242l0.888-4.377c0.002-0.015-0.098-1.369-0.098-1.369l-0.056-0.236l-0.125-0.344 c-0.592-1.041-0.723-1.452-0.75-1.555c-0.278-1.08-0.512-3.117-0.691-6.055l0,0c0-0.021-0.096-5.106-0.096-5.106 c-0.121-2.263-0.387-3.954-0.813-5.188c-1.131-3.313-3.379-3.808-4.618-3.808C6.492,5.943,4.716,7.045,3.361,9.217z"/>
<path fill="#FFFFFF" fill-opacity="0.17" d="M3.786,9.481L3.786,9.481c-0.75,1.205-1.342,2.752-1.76,4.598 C1.704,15.492,1.54,16.73,1.54,17.76l0,0c0,1.823,0.55,3.303,1.635,4.397c1.074,1.087,2.478,1.635,4.162,1.649 c0.053,2.629,0.167,4.53,0.352,5.735c0.398,2.565,1.313,4.49,2.721,5.722c0.668,0.582,1.605,0.769,2.443,0.484 c0.842-0.284,1.475-1,1.65-1.869l0.889-4.376c0.004-0.028-0.105-1.224-0.105-1.224c-0.004-0.043-0.012-0.071-0.025-0.111 l-0.125-0.346c-0.574-0.995-0.725-1.447-0.764-1.6c-0.287-1.111-0.525-3.182-0.708-6.148l0,0c0-0.02-0.097-5.127-0.097-5.127 c-0.118-2.206-0.375-3.847-0.784-5.034c-1.031-3.02-3.04-3.471-4.146-3.471C6.675,6.443,5.043,7.466,3.786,9.481z"/>
<path fill="#FFFFFF" fill-opacity="0.19" d="M4.21,9.746L4.21,9.746c-0.721,1.158-1.292,2.653-1.696,4.443 C2.2,15.565,2.04,16.768,2.04,17.76c0,1.688,0.501,3.048,1.49,4.045c0.991,1.003,2.293,1.513,3.87,1.513 c0.03-0.002,0.221-0.027,0.423-0.055c0.046,2.867,0.163,4.924,0.359,6.203c0.379,2.446,1.239,4.27,2.556,5.42 c0.535,0.467,1.283,0.615,1.955,0.389c0.674-0.228,1.18-0.801,1.32-1.494l0.887-4.376c0.008-0.052-0.111-1.065-0.111-1.065 l-0.125-0.346c-0.546-0.932-0.721-1.43-0.777-1.643c-0.295-1.145-0.537-3.246-0.723-6.246l0,0c0-0.02-0.098-5.147-0.098-5.147 c-0.115-2.147-0.363-3.738-0.758-4.881c-0.93-2.727-2.699-3.135-3.67-3.135C6.859,6.943,5.37,7.887,4.21,9.746z M7.548,15.234 c0,0.006,0.001,0.012,0.002,0.018c-0.001-0.001-0.01-0.003-0.012-0.004C7.541,15.243,7.545,15.238,7.548,15.234z"/>
<path fill="#FFFFFF" fill-opacity="0.22" d="M4.634,10.011L4.634,10.011c-0.691,1.11-1.241,2.554-1.633,4.289 c-0.306,1.341-0.461,2.506-0.461,3.46c0,1.55,0.453,2.793,1.345,3.693c0.895,0.906,2.078,1.365,3.515,1.365 c0,0,0.559-0.079,0.912-0.129c0.039,3.121,0.156,5.344,0.365,6.701c0.361,2.325,1.165,4.049,2.392,5.119 c0.4,0.35,0.963,0.461,1.466,0.291c0.505-0.171,0.885-0.601,0.991-1.121l0.887-4.375c0.01-0.101-0.115-0.889-0.115-0.889 c-0.01-0.063-0.029-0.116-0.063-0.17c-0.549-0.938-0.754-1.479-0.83-1.771c-0.303-1.174-0.551-3.307-0.737-6.341l0,0 c0-0.02-0.099-5.168-0.099-5.168c-0.112-2.09-0.352-3.63-0.729-4.728c-0.831-2.434-2.362-2.797-3.2-2.797 C7.043,7.443,5.696,8.308,4.634,10.011z M6.877,15.517c0.002-0.084,0.015-0.314,0.43-0.798c0.276-0.322,0.458-0.398,0.5-0.4 c-0.002-0.021,0.145,0.284,0.145,0.284c0.074,0.219,0.125,0.617,0.164,1.104c-0.24,0.028-0.483,0.058-0.483,0.058 c-0.247-0.007-0.518-0.081-0.719-0.218c-0.002-0.002-0.007-0.005-0.001-0.001L6.877,15.517z"/>
<path fill="#FFFFFF" fill-opacity="0.26" d="M5.059,10.275L5.059,10.275C4.397,11.338,3.87,12.728,3.49,14.41 c-0.298,1.305-0.449,2.432-0.449,3.35c0,1.413,0.404,2.538,1.2,3.342c0.798,0.808,1.862,1.216,3.16,1.216l1.164-0.168 c-0.006,0-0.009,0-0.009-0.002c0-0.01,0.136-0.058,0.247-0.097c0.028,3.407,0.147,5.817,0.369,7.263 c0.342,2.207,1.092,3.828,2.227,4.82c0.267,0.232,0.642,0.307,0.978,0.193c0.337-0.114,0.59-0.4,0.661-0.747l0.886-4.376 c0-0.001-0.118-0.705-0.118-0.705c-0.465-0.792-0.762-1.432-0.883-1.898c-0.311-1.203-0.564-3.369-0.753-6.436l0,0 c0-0.019-0.099-5.188-0.099-5.188c-0.11-2.029-0.34-3.521-0.703-4.574c-0.694-2.033-1.867-2.46-2.728-2.46 C7.228,7.943,6.023,8.728,5.059,10.275z M6.38,15.457L6.38,15.457c0-0.194,0.095-0.537,0.548-1.064 c0.322-0.376,0.626-0.574,0.879-0.574c0.173,0,0.41,0,0.619,0.625c0.122,0.361,0.191,0.96,0.227,1.697 c-0.017,0.003-0.069,0.014-0.069,0.014L7.692,16.26c-0.399-0.004-0.765-0.101-1.059-0.301C6.449,15.834,6.38,15.698,6.38,15.457z "/>
<path fill="#FFFFFF" fill-opacity="0.28" d="M5.483,10.54L5.483,10.54c-0.631,1.014-1.138,2.353-1.506,3.98 c-0.29,1.27-0.437,2.36-0.437,3.239c0,1.277,0.355,2.283,1.056,2.99c0.701,0.709,1.645,1.068,2.805,1.068l1.089-0.163 c0,0,0.408-0.18,0.803-0.354c0.016,3.755,0.134,6.388,0.373,7.937c0.324,2.088,1.018,3.607,2.061,4.521 c0.135,0.117,0.321,0.153,0.489,0.097c0.169-0.058,0.294-0.199,0.33-0.373l0.886-4.375c0.024-0.121,0.004-0.248-0.059-0.354 c-0.488-0.831-0.803-1.513-0.936-2.025c-0.319-1.233-0.578-3.432-0.769-6.531l0,0c0-0.019-0.101-5.209-0.101-5.209 c-0.106-1.964-0.327-3.41-0.676-4.421c-0.48-1.408-1.24-2.123-2.254-2.123C7.412,8.443,6.351,9.148,5.483,10.54z M5.88,15.457 L5.88,15.457c0-0.406,0.225-0.874,0.669-1.391c0.426-0.496,0.85-0.748,1.259-0.748c0.358,0,0.807,0.11,1.093,0.967 c0.173,0.514,0.257,1.299,0.281,2.259c-0.134,0.027-0.499,0.101-0.499,0.101l-0.931,0.111c-0.562,0-1.02-0.125-1.4-0.383 C6.03,16.154,5.88,15.862,5.88,15.457z"/>
<path fill="#235487" d="M11.952,26.852c-0.329-1.271-0.591-3.479-0.783-6.625c0-2.297-0.032-4.035-0.101-5.211 c-0.104-1.9-0.319-3.33-0.648-4.287c-0.406-1.189-1-1.785-1.782-1.785c-1.047,0-1.957,0.621-2.73,1.861 c-0.604,0.969-1.085,2.244-1.442,3.826c-0.283,1.24-0.425,2.283-0.425,3.129c0,1.146,0.304,2.025,0.911,2.639 c0.606,0.613,1.424,0.92,2.449,0.92c0.311,0,0.626-0.047,0.946-0.143c0.319-0.096,0.799-0.309,1.439-0.637 c0,4.131,0.124,7.004,0.373,8.623c0.307,1.977,0.938,3.383,1.896,4.219l0.887-4.375C12.427,28.131,12.098,27.414,11.952,26.852z M8.782,17.135c-0.405,0.082-0.748,0.121-1.03,0.121c-0.659,0-1.22-0.156-1.681-0.469c-0.462-0.314-0.691-0.758-0.691-1.33 c0-0.531,0.263-1.104,0.79-1.717c0.526-0.613,1.073-0.922,1.638-0.922c0.754,0,1.276,0.438,1.567,1.309 C9.591,14.768,9.7,15.709,9.7,16.949C9.493,16.99,9.188,17.053,8.782,17.135z"/>
</svg>