<?xml version="1.0" encoding="UTF-8"?>
<!DOCTYPE svg PUBLIC "-//W3C//DTD SVG 1.1 Tiny//EN" "http://www.w3.org/Graphics/SVG/1.1/DTD/svg11-tiny.dtd">
<svg width="24" height="24" viewBox="-0.618 0 24 24">
<g fill-opacity="0.7" stroke-opacity="0.7">
<path fill="#656B6B" fill-opacity="0.01" d="M4.382,24v-4c0-4.963,4.037-9,9-9h10v13H4.382z"/>
<path fill="#656B6B" fill-opacity="0.03" d="M5.382,24v-4c0-4.41,3.589-8,8-8h10v12H5.382z"/>
<path fill="#656B6B" fill-opacity="0.05" d="M6.382,24v-4c0-3.859,3.141-7,7-7h10v11H6.382z"/>
<path fill="#656B6B" fill-opacity="0.07" d="M7.382,24v-4c0-3.309,2.691-6,6-6h10v10H7.382z"/>
<path fill="#656B6B" fill-opacity="0.11" d="M8.382,24v-4c0-2.762,2.238-5,5-5h10v9H8.382z"/>
<rect x="9.382" y="14" fill="#FFFFFF" width="14" height="10"/>
</g>
</svg>