<?xml version="1.0" encoding="UTF-8"?>
<!DOCTYPE svg PUBLIC "-//W3C//DTD SVG 1.1 Tiny//EN" "http://www.w3.org/Graphics/SVG/1.1/DTD/svg11-tiny.dtd">
<svg width="17" height="43" viewBox="0 0 17 43">
<path fill="#FFFFFF" fill-opacity="0.16" d="M8.082,5.944c-1.547,0-2.86,1.208-2.989,2.751 c-0.354,4.255-0.834,7.771-1.431,10.451c-0.579,2.591-1.326,4.688-2.22,6.231c-0.009,0.018-0.069,0.217-0.118,0.383 c-0.001,0.004-0.005,0.002-0.006,0.004l-0.173,0.476c0,0.004,0.119-0.191,0.117-0.183L1.045,26.78l-0.007,5.977 c0,1.417,1.007,2.653,2.395,2.938c1.385,0.289,2.799-0.447,3.361-1.754c0.58-1.344,1.008-2.682,1.435-4.015 c0.568,1.646,1.109,3.037,1.648,4.081c0.618,1.194,1.971,1.835,3.286,1.559c1.315-0.28,2.292-1.412,2.374-2.754l0.396-6.5 c0-0.012-0.175-1.092-0.175-1.092l-0.163-0.465c-0.755-1.313-1.313-2.441-1.74-3.529c-0.519-1.328-0.982-2.946-1.383-4.808 c-0.438-2.059-0.843-4.689-1.201-7.817c-0.174-1.515-1.453-2.657-2.979-2.657L8.082,5.944L8.082,5.944z"/>
<path fill="#FFFFFF" fill-opacity="0.17" d="M8.082,6.444c-1.29,0-2.384,1.007-2.491,2.292c-0.355,4.276-0.839,7.815-1.44,10.518 c-0.591,2.642-1.356,4.786-2.275,6.374c0,0.001-0.126,0.462-0.126,0.462c0.003-0.013,0.035-0.142,0.04-0.154L1.618,26.41 c0,0.001-0.078,0.454-0.078,0.454v5.893c0,1.181,0.839,2.211,1.996,2.449c1.153,0.241,2.332-0.372,2.8-1.461 c0.793-1.839,1.422-3.619,1.9-5.313c0.668,2.09,1.351,3.924,2.087,5.349c0.516,0.995,1.642,1.528,2.737,1.299 c1.099-0.233,1.91-1.179,1.979-2.295l0.396-6.501c0.002-0.014-0.166-0.975-0.166-0.975l-0.142-0.375 c-0.729-1.254-1.301-2.416-1.735-3.522c-0.529-1.355-1.002-3-1.406-4.886c-0.441-2.074-0.848-4.72-1.209-7.865 C10.63,7.396,9.563,6.444,8.291,6.444H8.082z"/>
<path fill="#FFFFFF" fill-opacity="0.19" d="M8.082,6.944c-1.032,0-1.907,0.806-1.993,1.834 c-0.356,4.298-0.844,7.859-1.45,10.584c-0.602,2.691-1.386,4.884-2.331,6.517c-0.041,0.07-0.059,0.143-0.059,0.211 c0,0.008,0.009,0.01,0.009,0.018C2.18,26.32,2.085,26.58,2.085,26.58c-0.02,0.055-0.047,0.223-0.047,0.283v5.893 c0,0.944,0.671,1.77,1.597,1.959c0.922,0.193,1.865-0.297,2.24-1.168c0.839-1.943,1.508-3.83,1.988-5.604 c0,0,0.142-0.635,0.301-1.342c0.766,2.67,1.622,5.051,2.602,6.946c0.414,0.797,1.313,1.224,2.191,1.039 c0.878-0.188,1.527-0.942,1.582-1.836l0.396-6.5c0-0.015-0.16-0.853-0.16-0.853l-0.113-0.282 c-0.709-1.211-1.293-2.396-1.736-3.524c-0.539-1.383-1.021-3.054-1.43-4.965c-0.445-2.09-0.855-4.753-1.219-7.913 c-0.114-1.01-0.969-1.771-1.985-1.771L8.082,6.944L8.082,6.944z"/>
<path fill="#FFFFFF" fill-opacity="0.22" d="M8.082,7.444c-0.774,0-1.431,0.604-1.495,1.375 c-0.358,4.321-0.849,7.905-1.46,10.651c-0.613,2.742-1.417,4.982-2.387,6.658c-0.015,0.024,0.089-0.131,0.079-0.104L2.555,26.75 c-0.02,0.055-0.017,0.07-0.017,0.13v5.875c0,0.709,0.503,1.326,1.197,1.47c0.691,0.146,1.399-0.223,1.681-0.877 c0.829-1.92,1.49-3.783,1.965-5.535c0.269-0.988,0.507-2.094,0.729-3.252c0.046,0.205,0.142,0.629,0.142,0.629 c0.835,3.213,1.832,5.947,2.958,8.129c0.31,0.599,0.985,0.918,1.646,0.779c0.656-0.141,1.145-0.707,1.186-1.377l0.396-6.5 c0-0.029-0.149-0.715-0.149-0.715c-0.011-0.052-0.026-0.091-0.056-0.136c-0.723-1.233-1.317-2.443-1.771-3.595 c-0.551-1.411-1.039-3.108-1.453-5.043c-0.448-2.104-0.86-4.782-1.227-7.96C9.693,8.015,9.055,7.444,8.291,7.444H8.082z"/>
<path fill="#FFFFFF" fill-opacity="0.26" d="M8.082,7.944c-0.516,0-0.954,0.403-0.997,0.917 c-0.359,4.341-0.854,7.947-1.47,10.718c-0.625,2.792-1.446,5.079-2.442,6.8c0,0.001-0.135,0.502-0.135,0.502v5.875 c0,0.473,0.335,0.885,0.798,0.979c0.461,0.099,0.933-0.146,1.121-0.582c0.819-1.896,1.473-3.737,1.942-5.471 c0.446-1.64,0.83-3.535,1.142-5.635c0,0,0.004-0.033,0.005-0.042c0.217,1.099,0.444,2.11,0.69,3.06 c0.827,3.177,1.809,5.877,2.918,8.025c0.207,0.399,0.658,0.612,1.098,0.52c0.438-0.094,0.764-0.471,0.79-0.918l0.396-6.5 c0-0.002-0.137-0.566-0.137-0.566c-0.734-1.255-1.343-2.486-1.806-3.666c-0.56-1.436-1.058-3.159-1.478-5.122 c-0.451-2.118-0.865-4.812-1.232-8.007C9.227,8.325,8.8,7.944,8.291,7.944H8.082z"/>
<path fill="#FFFFFF" fill-opacity="0.28" d="M8.082,8.444c-0.26,0-0.477,0.2-0.499,0.458c-0.361,4.364-0.859,7.993-1.48,10.785 c-0.636,2.842-1.476,5.178-2.498,6.942c-0.044,0.076-0.067,0.163-0.067,0.251v5.875c0,0.237,0.167,0.44,0.399,0.489 s0.466-0.073,0.56-0.291c0.811-1.877,1.456-3.695,1.919-5.403c0.441-1.622,0.821-3.498,1.129-5.577c0,0,0.201-1.7,0.404-3.421 c0.339,2.194,0.739,4.347,1.27,6.386c0.816,3.142,1.785,5.807,2.879,7.922c0.104,0.201,0.328,0.308,0.549,0.261 c0.22-0.047,0.381-0.234,0.396-0.459l0.396-6.501c0.006-0.1-0.018-0.197-0.066-0.283c-0.75-1.277-1.369-2.535-1.842-3.736 c-0.569-1.458-1.074-3.208-1.5-5.199c-0.455-2.135-0.873-4.845-1.24-8.055c-0.03-0.253-0.244-0.443-0.498-0.443H8.082z"/>
<path fill="#235487" d="M11.063,22.324c-0.584-1.499-1.092-3.259-1.522-5.278c-0.46-2.154-0.877-4.855-1.249-8.102H8.082 c-0.365,4.41-0.862,8.027-1.49,10.852c-0.65,2.907-1.502,5.269-2.554,7.085v5.875c0.804-1.861,1.436-3.639,1.896-5.336 c0.438-1.613,0.811-3.453,1.117-5.52c0.233-1.56,0.508-3.879,0.822-6.957H7.95c0.357,3.461,0.942,6.751,1.753,9.87 c0.813,3.119,1.758,5.725,2.84,7.817l0.396-6.5C12.171,24.822,11.546,23.553,11.063,22.324z"/>
</svg>