<?xml version="1.0" encoding="UTF-8"?>
<!DOCTYPE svg PUBLIC "-//W3C//DTD SVG 1.1 Tiny//EN" "http://www.w3.org/Graphics/SVG/1.1/DTD/svg11-tiny.dtd">
<svg width="6" height="43" viewBox="0 0 6 43">
<polyline points="0,0 6,0 6,43 0,43 "/>
<path fill="#FFFFFF" d="M3,18.797c0.619,0,1.15-0.219,1.59-0.658s0.66-0.971,0.66-1.592c0-0.619-0.221-1.15-0.66-1.59 s-0.971-0.66-1.59-0.66c-0.621,0-1.15,0.221-1.592,0.66c-0.439,0.439-0.658,0.971-0.658,1.59c0,0.621,0.219,1.152,0.658,1.592 C1.85,18.578,2.379,18.797,3,18.797z"/>
<path fill="#FFFFFF" d="M3,23.484c-0.621,0-1.15,0.221-1.592,0.658c-0.439,0.439-0.658,0.973-0.658,1.604 c0,0.617,0.219,1.145,0.658,1.582C1.85,27.766,2.379,27.984,3,27.984c0.619,0,1.15-0.219,1.59-0.656s0.66-0.965,0.66-1.582 c0-0.631-0.221-1.164-0.66-1.604C4.15,23.705,3.619,23.484,3,23.484z"/>
</svg>