<?xml version="1.0" encoding="UTF-8"?>
<!DOCTYPE svg PUBLIC "-//W3C//DTD SVG 1.1 Tiny//EN" "http://www.w3.org/Graphics/SVG/1.1/DTD/svg11-tiny.dtd">
<svg width="84" height="58" viewBox="0 0 84 58">
<linearGradient id="_33" gradientUnits="userSpaceOnUse" x1="38.92" y1="29.82" x2="51.5" y2="54.6">
<stop stop-color="#A2C2DD" offset="0.1"/>
<stop stop-color="#6C83BB" offset="0.71"/>
<stop stop-color="#003D6D" offset="0.99"/>
</linearGradient>
<path fill="url(#_33)" d="M40.144,4.089L24.659,6.36c0,0,0.162,4.253,0.184,4.8 c-0.594,0.09-15.508,2.338-15.508,2.338l11.553,35.411c0,0,20.613-6.32,21.486-6.588c-0.006,0.869-0.064,10.221-0.064,10.221 S43.765,54.078,43.95,54l18.637-5.215l0.762-24.273l-1.676-0.561c0,0-3.803,0.914-4.68,1.123c0.227-0.984,2.27-9.803,2.27-9.803 l-5.922-2.162c0,0-6.223,1.068-6.783,1.165c-0.164-0.56-2.662-9.038-2.662-9.038L40.144,4.089z"/>
<linearGradient id="_34" gradientUnits="userSpaceOnUse" x1="53.28" y1="26.9" x2="13.11" y2="26.9">
<stop stop-color="#FFFFFF" offset="0.15"/>
<stop stop-color="#A2C2DD" offset="1"/>
</linearGradient>
<polygon fill="url(#_34)" points="53.282,38.57 43.581,5.628 27.798,8.159 27.911,13.047 13.106,15.53 21.173,48.168 "/>
<linearGradient id="_35" gradientUnits="userSpaceOnUse" x1="31.08" y1="37.87" x2="60.41" y2="13.03">
<stop stop-color="#CADCEC" offset="0"/>
<stop stop-color="#87A8CB" offset="1"/>
</linearGradient>
<polygon fill="url(#_35)" points="21.171,47.857 53.44,38.557 58.761,15.569 26.638,22.006 "/>
<linearGradient id="_36" gradientUnits="userSpaceOnUse" x1="43.18" y1="23.7" x2="37.89" y2="13.13">
<stop stop-color="#FFFFFF" offset="0.15"/>
<stop stop-color="#A2C2DD" offset="1"/>
</linearGradient>
<polygon fill="url(#_36)" points="21.204,19.049 53.239,13.552 58.761,15.569 26.554,22.131 "/>
<linearGradient id="_37" gradientUnits="userSpaceOnUse" x1="35.13" y1="8.45" x2="33.27" y2="3.41">
<stop stop-color="#FFFFFF" offset="0.05"/>
<stop stop-color="#A2C2DD" offset="1"/>
</linearGradient>
<polygon fill="url(#_37)" points="25.06,6.77 40.095,4.567 43.55,5.643 27.798,8.159 "/>
<linearGradient id="_38" gradientUnits="userSpaceOnUse" x1="19.75" y1="15.75" x2="17.85" y2="10.59">
<stop stop-color="#FFFFFF" offset="0.05"/>
<stop stop-color="#A2C2DD" offset="1"/>
</linearGradient>
<polygon fill="url(#_38)" points="9.894,13.864 25.243,11.547 27.911,13.047 13.106,15.53 "/>
<linearGradient id="_39" gradientUnits="userSpaceOnUse" x1="13.28" y1="30.99" x2="26.23" y2="35.48">
<stop stop-color="#A2C2DD" offset="0.1"/>
<stop stop-color="#6C83BB" offset="0.71"/>
<stop stop-color="#003D6D" offset="0.99"/>
</linearGradient>
<polygon fill="url(#_39)" points="21.204,19.049 21.169,48.418 26.636,22.174 "/>
<linearGradient id="_40" gradientUnits="userSpaceOnUse" x1="29.06" y1="18.12" x2="11.75" y2="34.65">
<stop stop-color="#A2C2DD" offset="0.1"/>
<stop stop-color="#6C83BB" offset="0.71"/>
<stop stop-color="#003D6D" offset="0.99"/>
</linearGradient>
<polygon fill="url(#_40)" points="9.894,13.864 21.159,48.217 13.106,15.53 "/>
<linearGradient id="_41" gradientUnits="userSpaceOnUse" x1="45.87" y1="-0.32" x2="7.82" y2="19.76">
<stop stop-color="#FFFFFF" offset="0"/>
<stop stop-color="#A2C2DD" offset="0.35"/>
<stop stop-color="#6C83BB" offset="0.7"/>
<stop stop-color="#003D6D" offset="1"/>
</linearGradient>
<polygon fill="url(#_41)" points="27.798,8.159 27.911,13.047 25.243,11.547 25.06,6.77 "/>
<linearGradient id="_42" gradientUnits="userSpaceOnUse" x1="60.19" y1="46.12" x2="29.93" y2="31.05">
<stop stop-color="#FFFFFF" offset="0.15"/>
<stop stop-color="#A2C2DD" offset="1"/>
</linearGradient>
<polygon fill="url(#_42)" points="53.282,38.57 47.208,17.932 26.591,22.168 21.169,48.418 "/>
<linearGradient id="_43" gradientUnits="userSpaceOnUse" x1="61.3" y1="31.05" x2="40.27" y2="56.66">
<stop stop-color="#D6E4F3" offset="0"/>
<stop stop-color="#337CE5" offset="1"/>
</linearGradient>
<path fill="url(#_43)" d="M62.254,48.542l0.747-23.822l-14.671,3.47c-1.489,1.854-3.06,4.127-4.48,6.174l-0.036,19.343 L62.254,48.542z"/>
<linearGradient id="_44" gradientUnits="userSpaceOnUse" x1="80" y1="-7.67" x2="29.25" y2="53.89">
<stop stop-color="#E6EEF4" offset="0"/>
<stop stop-color="#337CE5" offset="0.44"/>
<stop stop-color="#003D6D" offset="0.94"/>
</linearGradient>
<polygon fill="url(#_44)" points="48.597,30.193 48.593,28.379 51.155,27.727 51.071,29.457 "/>
<linearGradient id="_45" gradientUnits="userSpaceOnUse" x1="43.3" y1="30.84" x2="43.3" y2="57">
<stop stop-color="#E6EEF4" offset="0"/>
<stop stop-color="#337CE5" offset="0.44"/>
<stop stop-color="#003D6D" offset="0.94"/>
</linearGradient>
<polygon fill="url(#_45)" points="43.813,53.706 43.987,34.686 42.722,35.267 42.611,52.438 "/>
<linearGradient id="_46" gradientUnits="userSpaceOnUse" x1="63.04" y1="26.17" x2="48.81" y2="26.17">
<stop stop-color="#D6E4F3" offset="0"/>
<stop stop-color="#337CE5" offset="1"/>
</linearGradient>
<polygon fill="url(#_46)" points="63.039,24.705 61.663,24.273 48.813,27.356 49.82,28.064 "/>
<linearGradient id="_47" gradientUnits="userSpaceOnUse" x1="49.54" y1="26.79" x2="49.54" y2="33.33">
<stop stop-color="#D6E4F3" offset="0"/>
<stop stop-color="#337CE5" offset="1"/>
</linearGradient>
<polygon fill="url(#_47)" points="49.82,28.064 50.276,33.956 48.813,27.356 "/>
<linearGradient id="_48" gradientUnits="userSpaceOnUse" x1="52.57" y1="35.29" x2="39.39" y2="34.33">
<stop stop-color="#E6EEF4" offset="0"/>
<stop stop-color="#337CE5" offset="0.44"/>
<stop stop-color="#003D6D" offset="0.94"/>
</linearGradient>
<polygon fill="url(#_48)" points="49.528,33.577 50.78,35.342 42.726,36.056 42.726,35.212 "/>
<linearGradient id="_49" gradientUnits="userSpaceOnUse" x1="50.56" y1="24.32" x2="43.89" y2="41.07">
<stop stop-color="#E6EEF4" offset="0"/>
<stop stop-color="#337CE5" offset="0.44"/>
<stop stop-color="#003D6D" offset="0.94"/>
</linearGradient>
<polygon fill="url(#_49)" points="42.709,35.212 48.813,27.367 50.264,33.901 "/>
<linearGradient id="_50" gradientUnits="userSpaceOnUse" x1="91.05" y1="-3.96" x2="35.41" y2="63.53">
<stop stop-color="#E6EEF4" offset="0"/>
<stop stop-color="#337CE5" offset="0.44"/>
<stop stop-color="#003D6D" offset="0.94"/>
</linearGradient>
<polygon fill="url(#_50)" points="62.82,29.82 61.211,30.211 61.132,32.852 62.742,32.398 "/>
<linearGradient id="_51" gradientUnits="userSpaceOnUse" x1="93.35" y1="-3.02" x2="37.23" y2="65.04">
<stop stop-color="#E6EEF4" offset="0"/>
<stop stop-color="#337CE5" offset="0.44"/>
<stop stop-color="#003D6D" offset="0.94"/>
</linearGradient>
<polygon fill="url(#_51)" points="62.711,33.758 61.023,34.133 60.97,36.785 62.617,36.305 "/>
<linearGradient id="_52" gradientUnits="userSpaceOnUse" x1="96.12" y1="-2.54" x2="38.93" y2="66.84">
<stop stop-color="#E6EEF4" offset="0"/>
<stop stop-color="#337CE5" offset="0.44"/>
<stop stop-color="#003D6D" offset="0.94"/>
</linearGradient>
<polygon fill="url(#_52)" points="62.617,37.68 60.914,38.148 60.858,40.779 62.508,40.258 "/>
<linearGradient id="_53" gradientUnits="userSpaceOnUse" x1="99.56" y1="-2.69" x2="40.29" y2="69.21">
<stop stop-color="#E6EEF4" offset="0"/>
<stop stop-color="#337CE5" offset="0.44"/>
<stop stop-color="#003D6D" offset="0.94"/>
</linearGradient>
<polygon fill="url(#_53)" points="62.445,41.633 60.852,42.133 60.789,44.977 62.353,44.568 "/>
<polygon fill="url(#_44)" points="60.614,49 62.237,48.572 62.3,45.904 60.739,46.396 "/>
<linearGradient id="_55" gradientUnits="userSpaceOnUse" x1="85.39" y1="-10.54" x2="29.57" y2="57.17">
<stop stop-color="#E6EEF4" offset="0"/>
<stop stop-color="#337CE5" offset="0.44"/>
<stop stop-color="#003D6D" offset="0.94"/>
</linearGradient>
<polygon fill="url(#_55)" points="45.577,37.186 43.961,37.648 43.945,40.242 45.577,39.824 "/>
<linearGradient id="_56" gradientUnits="userSpaceOnUse" x1="88.95" y1="-10.92" x2="31.22" y2="59.11">
<stop stop-color="#E6EEF4" offset="0"/>
<stop stop-color="#337CE5" offset="0.44"/>
<stop stop-color="#003D6D" offset="0.94"/>
</linearGradient>
<polygon fill="url(#_56)" points="45.556,41.201 43.914,41.602 43.867,44.352 45.556,43.842 "/>
<linearGradient id="_57" gradientUnits="userSpaceOnUse" x1="90.23" y1="-8.52" x2="33.69" y2="60.07">
<stop stop-color="#E6EEF4" offset="0"/>
<stop stop-color="#337CE5" offset="0.44"/>
<stop stop-color="#003D6D" offset="0.94"/>
</linearGradient>
<polygon fill="url(#_57)" points="45.487,45.236 43.836,45.648 43.836,48.336 45.487,47.879 "/>
<polygon fill="url(#_44)" points="63.028,24.725 62.896,28.498 61.294,28.922 61.356,26.98 59.751,27.418 59.817,25.531 "/>
<polygon fill="url(#_44)" points="56.147,28.264 56.146,26.451 58.708,25.797 58.624,27.529 "/>
<polygon fill="url(#_44)" points="52.413,29.229 52.409,27.416 54.972,26.762 54.888,28.494 "/>
<polygon fill="url(#_44)" points="56.552,50.133 56.55,48.479 59.112,47.723 59.028,49.451 "/>
<polygon fill="url(#_44)" points="52.817,51.203 52.815,49.547 55.376,48.789 55.292,50.52 "/>
<polygon fill="url(#_44)" points="49.001,52.271 48.997,50.615 51.56,49.859 51.476,51.588 "/>
<polygon fill="url(#_44)" points="43.784,53.717 43.823,49.916 45.427,49.457 45.456,51.369 47.044,50.979 47.022,52.814 "/>
</svg>