<?xml version="1.0" encoding="UTF-8"?>
<!DOCTYPE svg PUBLIC "-//W3C//DTD SVG 1.1 Tiny//EN" "http://www.w3.org/Graphics/SVG/1.1/DTD/svg11-tiny.dtd">
<svg width="100" height="60" viewBox="8.521 0.993 100 60">
<rect x="8.521" y="31.993" fill="#656B6B" fill-opacity="0.01" width="100" height="29"/>
<rect x="8.521" y="32.993" fill="#656B6B" fill-opacity="0.02" width="100" height="28"/>
<rect x="8.521" y="33.993" fill="#656B6B" fill-opacity="0.03" width="100" height="27"/>
<rect x="8.521" y="34.993" fill="#656B6B" fill-opacity="0.05" width="100" height="26"/>
<path fill="#656B6B" fill-opacity="0.06" d="M8.521,60.993v-25c14.934,0,69.699,0,100,0v25H8.521z"/>
<path fill="#656B6B" fill-opacity="0.1" d="M8.521,60.993v-24c15.518,0,69.87,0,100,0v24H8.521z"/>
<path fill="#656B6B" fill-opacity="0.1" d="M8.521,60.993v-23c16.041,0,70.021,0,100,0v23H8.521z"/>
<path fill="#656B6B" fill-opacity="0.1" d="M8.521,60.993v-22c16.975,0,70.292,0,100,0v22H8.521z"/>
<rect x="8.521" y="35.993" fill="#CADCEC" width="100" height="1"/>
<linearGradient id="_2" gradientUnits="userSpaceOnUse" x1="58.52" y1="5" x2="58.52" y2="140">
<stop stop-color="#DEE9F3" offset="0"/>
<stop stop-color="#E6EFF6" offset="0.1"/>
<stop stop-color="#F9FBFD" offset="0.36"/>
<stop stop-color="#FFFFFF" offset="0.54"/>
<stop stop-color="#FBFCFE" offset="0.67"/>
<stop stop-color="#EFF4F9" offset="0.8"/>
<stop stop-color="#DAE7F2" offset="0.92"/>
<stop stop-color="#CADCEC" offset="1"/>
</linearGradient>
<rect x="8.521" y="36.993" fill="url(#_2)" width="100" height="24"/>
</svg>