<?xml version="1.0" encoding="UTF-8"?>
<!DOCTYPE svg PUBLIC "-//W3C//DTD SVG 1.1 Tiny//EN" "http://www.w3.org/Graphics/SVG/1.1/DTD/svg11-tiny.dtd">
<svg width="17" height="43" viewBox="0 0 17 43">
<rect width="17" height="43"/>
<path fill="#FFFFFF" d="M11.364,17.531c-0.479-1.748-1.184-3.408-2.113-4.98c-0.656-1.105-1.525-2.309-2.605-3.607l-1.969,4.438 c1.014,1.23,1.794,2.281,2.342,3.154c1.082,1.723,1.931,3.559,2.548,5.512c0.794,2.514,1.191,5.217,1.191,8.111 c-0.055,1.572-0.081,2.521-0.081,2.848h0.688c0.342-2.459,0.533-3.887,0.574-4.283c0.191-1.625,0.287-3.053,0.287-4.283 C12.226,21.912,11.938,19.609,11.364,17.531z"/>
</svg>