<?xml version="1.0" encoding="UTF-8"?>
<!DOCTYPE svg PUBLIC "-//W3C//DTD SVG 1.1 Tiny//EN" "http://www.w3.org/Graphics/SVG/1.1/DTD/svg11-tiny.dtd">
<svg width="17" height="43" viewBox="0 0 17 43">
<rect width="17" height="43"/>
<path fill="#FFFFFF" d="M11.391,16.493c-1.034-1.629-2.046-2.444-3.038-2.444c-0.773,0-1.521,0.821-2.244,2.464 c-0.589,1.341-1.093,3.053-1.513,5.133c-0.369,1.849-0.555,3.327-0.555,4.437c0,1.246,0.336,2.197,1.009,2.854 c0.588,0.576,1.391,0.863,2.408,0.863c1.807,0,3.201-0.883,4.185-2.65c0.866-1.547,1.299-3.504,1.299-5.872 C12.941,19.716,12.424,18.121,11.391,16.493z M11.031,25.301c-0.656,0.498-1.498,0.748-2.525,0.748 c-1.043,0-1.83-0.24-2.36-0.719c-0.581-0.52-0.871-1.34-0.871-2.461c0-0.985,0.15-1.977,0.454-2.976 c0.37-1.23,0.833-1.846,1.389-1.846c0.396,0,0.985,0.28,1.769,0.841c0.85,0.615,1.557,1.3,2.121,2.052 c0.673,0.902,1.01,1.743,1.01,2.522C12.017,24.189,11.688,24.801,11.031,25.301z"/>
</svg>