<?xml version="1.0" encoding="UTF-8"?>
<!DOCTYPE svg PUBLIC "-//W3C//DTD SVG 1.1 Tiny//EN" "http://www.w3.org/Graphics/SVG/1.1/DTD/svg11-tiny.dtd">
<svg width="352" height="276" viewBox="-0.603 -0.194 352 276">
<path fill-opacity="0.01" fill="#656B6B" d="M328.397-0.193l-9.95-0.001l-10.075,10H22.529 c-5.643-0.008-10.947,2.186-14.941,6.174c-3.992,3.987-6.189,9.287-6.189,14.926V244.69c0,13.849,11.262,25.115,25.105,25.115 c0,0,301.394,0,302.047,0c11.972,0,20.847-10.249,20.847-21.125V30.906c0-5.64-2.198-10.94-6.183-14.924 c-3.712-3.708-8.593-5.793-13.817-6.064c0-1.488,0-10.111,0-10.111H328.397L328.397-0.193z"/>
<path fill-opacity="0.02" fill="#656B6B" d="M328.397,0.807l-9.538-0.001l-10.077,10H22.528 c-5.373-0.007-10.428,2.082-14.232,5.881C4.495,20.486,2.4,25.535,2.4,30.906v213.785c0,13.297,10.812,24.115,24.104,24.115 c0,0,298.768,0,301.996,0c11.021,0,19.896-9.375,19.896-20.125V30.907c0-5.373-2.092-10.422-5.89-14.217 c-3.771-3.768-8.78-5.844-14.11-5.873C328.397,9.211,328.397,0.807,328.397,0.807L328.397,0.807z"/>
<path fill-opacity="0.03" fill="#656B6B" d="M327.397,1.807l-8.125-0.001l-10.077,10H22.53 c-5.105-0.006-9.908,1.979-13.523,5.589c-3.615,3.609-5.604,8.407-5.604,13.511v213.785c0,12.746,10.363,23.115,23.104,23.115 c0,0,301.393,0,301.943,0c10.699,0,18.949-9,18.949-19.125V30.907c0-5.106-1.988-9.903-5.597-13.51 c-3.61-3.605-8.407-5.59-13.511-5.59c0,0-0.449,0-0.895,0C327.397,10.155,327.397,1.807,327.397,1.807L327.397,1.807z"/>
<path fill-opacity="0.06" fill="#656B6B" d="M326.397,2.807l-6.75-0.001l-10.039,10H22.529 c-4.84-0.006-9.391,1.875-12.816,5.297c-3.426,3.42-5.311,7.967-5.311,12.803v213.785c0,12.193,9.916,22.115,22.104,22.115 c0,0,301.144-0.004,301.769-0.004c10.625,0.004,18.125-8.791,18.125-18.121V30.907c0-4.838-1.884-9.385-5.304-12.802 c-3.419-3.417-7.966-5.298-12.804-5.298c0,0-1.038,0-1.895,0C326.397,11.126,326.397,2.807,326.397,2.807L326.397,2.807z"/>
<path fill-opacity="0.05" fill="#656B6B" d="M5.402,30.906v213.785c0,11.643,9.465,21.115,21.104,21.115 H27.5h300.773c9.75,0,17.123-8.266,17.123-17.125l0.002-217.774c0-9.453-7.783-17.1-17.229-17.1h-2.771v-10h-5.375l-10,10h-287.5 C13.076,13.795,5.398,21.454,5.402,30.906z"/>
<path fill-opacity="0.1" fill="#656B6B" d="M6.4,30.906v213.785c0,11.092,9.019,20.115,20.104,20.115 l300.813-0.002c10.579,0.002,17.079-7.998,17.078-17.123l0.001-216.774c0-9.453-6.783-16.1-16.229-16.1h-3.771v-10h-4l-10,10 H23.148C14.148,14.807,6.398,21.454,6.4,30.906z"/>
<path fill-opacity="0.1" fill="#656B6B" d="M7.4,30.906v213.785c0,10.54,8.569,19.115,19.104,19.115 c0,0,299.268,0,299.787,0c11.98,0,17.105-8.125,17.104-17.125l0.001-215.774c0-9.453-5.783-15.1-15.229-15.1h-4.771v-10h-2.625 l-10,10H24.148C15.148,15.807,7.398,21.454,7.4,30.906z"/>
<path fill-opacity="0.1" fill="#656B6B" d="M8.398,30.906v213.785c0,9.988,8.121,18.115,18.105,18.115 h298.769c13.25,0,17.125-8.25,17.124-17.115l0.001-214.784c0-9.453-5.802-14.1-15.25-14.1h-4.75v-10h-1.125l-10,10H25.023 C16.398,16.807,8.398,21.454,8.398,30.906z"/>
<linearGradient id="_2" gradientUnits="userSpaceOnUse" x1="177.4" y1="232.92" x2="177.4" y2="62.57">
<stop stop-color="#D9F4E0" offset="0"/>
<stop stop-color="#FFFFFF" offset="1"/>
</linearGradient>
<path fill="url(#_2)" d="M9.4,30.906v213.785c0,9.45,7.657,17.115,17.104,17.115h301.788c9.446,0,17.104-7.665,17.104-17.115 V30.907c0-9.453-7.658-17.1-17.104-17.1h-2.896v-12h-1.999l-12.001,12H26.504C17.056,13.795,9.398,21.454,9.4,30.906z"/>
</svg>