<?xml version="1.0" encoding="UTF-8"?>
<!DOCTYPE svg PUBLIC "-//W3C//DTD SVG 1.1 Tiny//EN" "http://www.w3.org/Graphics/SVG/1.1/DTD/svg11-tiny.dtd">
<svg baseProfile="tiny" height="70px" version="1.1" viewBox="0 0 70 70" width="70px" x="0px" xmlns="http://www.w3.org/2000/svg" xmlns:xlink="http://www.w3.org/1999/xlink" y="0px">
<rect fill="none" height="70" width="70"/>
<g>
<path d="M37.521,64.438v-7.394v-0.999h-0.999H9.5c-2.389,0-4.334-1.943-4.334-4.332V13.606   c0-2.389,1.945-4.333,4.334-4.333h51.002c2.389,0,4.332,1.945,4.332,4.333v38.107c0,2.389-1.943,4.332-4.332,4.332H47.693h-0.37   l-0.28,0.239L37.521,64.438L37.521,64.438z" fill="url(#SVGID_1_)" fill-opacity="0.2" stroke-opacity="0.2"/>
<g>
<path d="M60.502,8.273c2.932,0,5.331,2.4,5.331,5.332v38.107c0,2.933-2.399,5.332-5.331,5.332h-12.81    l-11.172,9.565v-9.565H9.499c-2.934,0-5.332-2.399-5.332-5.332V13.605c0-2.932,2.398-5.332,5.332-5.332H60.502 M60.502,10.273    H9.499c-1.837,0-3.332,1.495-3.332,3.332v38.107c0,1.837,1.495,3.332,3.332,3.332h27.021h2v2v5.22l7.871-6.739l0.562-0.48h0.739    h12.81c1.837,0,3.331-1.495,3.331-3.332V13.605C63.833,11.768,62.339,10.273,60.502,10.273L60.502,10.273z" fill="#FFFFFF"/>
</g>
<defs>
<linearGradient gradientUnits="userSpaceOnUse" id="SVGID_1_" x1="34.9995" x2="34.9995" y1="9.3462" y2="60.4178">
<stop offset="0" style="stop-color:#FFFFFF"/>
<stop offset="0.2478" style="stop-color:#B9B9B9"/>
<stop offset="0.6189" style="stop-color:#575757"/>
<stop offset="0.8778" style="stop-color:#181818"/>
<stop offset="1" style="stop-color:#000000"/>
</linearGradient>
</defs>
</g>
<path d="M49.211,18.655c2.057,0,3.789,1.56,3.789,3.41v21.339c0,1.851-1.732,3.409-3.789,3.409c0,0-4.723,0-28.423,0  c-2.058,0-3.788-1.559-3.788-3.409c0,0,0,0,0-21.339c0-1.851,1.73-3.41,3.788-3.41C20.788,18.655,25.511,18.655,49.211,18.655   M20.788,44.866c0,0,4.723,0,28.423,0c0.867,0,1.624-0.684,1.624-1.462V22.065c0-0.78-0.757-1.46-1.624-1.46c0,0-4.723,0-28.423,0  c-0.866,0-1.624,0.68-1.624,1.46c0,0,0,0,0,21.339C19.164,44.183,19.922,44.866,20.788,44.866 M49.211,17.655H20.788  c-2.595,0-4.788,2.02-4.788,4.41v18.672v2.334v0.291c0,2.432,2.193,4.451,4.788,4.451h28.423c2.596,0,4.789-2.02,4.789-4.409V22.065  C54,19.675,51.807,17.655,49.211,17.655L49.211,17.655z M20.788,43.866c-0.356,0-0.624-0.28-0.624-0.462V24.732v-2.334v-0.292  c0-0.223,0.268-0.501,0.624-0.501h28.423c0.356,0,0.624,0.279,0.624,0.46v21.339c0,0.182-0.268,0.462-0.624,0.462H20.788  L20.788,43.866z" fill-opacity="0.5" stroke-opacity="0.5"/>
<path d="M46.722,25.769v1.948H23.277v-1.948H46.722 M47.722,24.769h-1H23.277h-1v1v1.948v1h1h23.445h1v-1v-1.948  V24.769L47.722,24.769z" fill-opacity="0.5" stroke-opacity="0.5"/>
<path d="M46.722,37.752V39.7H23.277v-1.948H46.722 M47.722,36.752h-1H23.277h-1v1V39.7v1h1h23.445h1v-1v-1.948V36.752  L47.722,36.752z" fill-opacity="0.5" stroke-opacity="0.5"/>
<path d="M46.722,31.71v1.95H23.277v-1.95H46.722 M47.722,30.71h-1H23.277h-1v1v1.95v1h1h23.445h1v-1v-1.95V30.71  L47.722,30.71z" fill-opacity="0.5" stroke-opacity="0.5"/>
<path d="M50.835,43.404c0,0.778-0.757,1.462-1.624,1.462c-23.7,0-28.423,0-28.423,0  c-0.866,0-1.624-0.684-1.624-1.462c0-21.339,0-21.339,0-21.339c0-0.78,0.758-1.46,1.624-1.46c23.7,0,28.423,0,28.423,0  c0.867,0,1.624,0.68,1.624,1.46V43.404z M53,22.065c0-1.85-1.732-3.41-3.789-3.41c-23.7,0-28.423,0-28.423,0  c-2.058,0-3.788,1.559-3.788,3.41c0,21.339,0,21.339,0,21.339c0,1.851,1.73,3.409,3.788,3.409c23.7,0,28.423,0,28.423,0  c2.057,0,3.789-1.559,3.789-3.409V22.065z" fill="#FFFFFF"/>
<polygon fill="#FFFFFF" points="23.277,25.769 46.722,25.769 46.722,27.716 23.277,27.716 "/>
<polygon fill="#FFFFFF" points="23.277,37.752 46.722,37.752 46.722,39.7 23.277,39.7 "/>
<polygon fill="#FFFFFF" points="23.277,31.71 46.722,31.71 46.722,33.66 23.277,33.66 "/>
</svg>
