<?xml version="1.0" encoding="UTF-8"?>
<!DOCTYPE svg PUBLIC "-//W3C//DTD SVG 1.1 Tiny//EN" "http://www.w3.org/Graphics/SVG/1.1/DTD/svg11-tiny.dtd">
<svg baseProfile="tiny" version="1.1" xmlns="http://www.w3.org/2000/svg" xmlns:xlink="http://www.w3.org/1999/xlink" width="84" height="72" viewBox="0 0 84 72">
<g>
<rect fill="none" width="84" height="72"/>
<linearGradient id="XMLID_13_" gradientUnits="userSpaceOnUse" x1="29.415" y1="12.4136" x2="54.5318" y2="61.8787">
<stop offset="0" style="stop-color:#AABBD7"/>
<stop offset="0.2634" style="stop-color:#92A5CC"/>
<stop offset="0.7135" style="stop-color:#6C83BB"/>
<stop offset="0.7571" style="stop-color:#637DB5"/>
<stop offset="0.8268" style="stop-color:#4C6EA4"/>
<stop offset="0.9134" style="stop-color:#265689"/>
<stop offset="0.9888" style="stop-color:#003D6D"/>
<stop offset="1" style="stop-color:#003D6D"/>
</linearGradient>
<path fill="url(#XMLID_13_)" d="M31.361,11.424c0,0-2.902,9.649-3.068,10.213c-0.567-0.098-7.689-1.32-7.689-1.32l-6.636,2.423   c0,0,4.47,19.316,4.585,19.816c-0.412,0.231-4.426,2.473-4.426,2.473l1.189,11.676l9.656,3.31l6.932-4.788   c0,0,0.103-1.706,0.139-2.311c0.816,0.241,25.112,7.631,25.112,7.631l13.079-39.8c0,0-16.902-2.549-17.5-2.639   c0.021-0.556,0.209-5.42,0.209-5.42l-17.436-2.556L31.361,11.424z"/>
<linearGradient id="XMLID_14_" gradientUnits="userSpaceOnUse" x1="20.4502" y1="820.8452" x2="65.9951" y2="820.8452" gradientTransform="matrix(1 0 0 1 0.1377 -785.0381)">
<stop offset="0" style="stop-color:#FFFFFF"/>
<stop offset="0.1894" style="stop-color:#F4F8FB"/>
<stop offset="0.5232" style="stop-color:#D6E4F0"/>
<stop offset="0.9595" style="stop-color:#A7C5DF"/>
<stop offset="1" style="stop-color:#A2C2DD"/>
</linearGradient>
<polygon fill="url(#XMLID_14_)" points="20.588,49.042 31.586,11.693 49.479,14.561 49.348,20.105 66.133,22.92 56.986,59.92  "/>
<linearGradient id="XMLID_15_" gradientUnits="userSpaceOnUse" x1="45.6182" y1="833.2817" x2="12.3655" y2="805.1217" gradientTransform="matrix(1 0 0 1 0.1377 -785.0381)">
<stop offset="0" style="stop-color:#BFD5E8"/>
<stop offset="0.4704" style="stop-color:#B4CEE4"/>
<stop offset="1" style="stop-color:#A2C2DD"/>
</linearGradient>
<polygon fill="url(#XMLID_15_)" points="56.988,59.569 20.41,49.024 14.379,22.963 50.791,30.262  "/>
<linearGradient id="XMLID_16_" gradientUnits="userSpaceOnUse" x1="31.9072" y1="817.2192" x2="37.8989" y2="805.236" gradientTransform="matrix(1 0 0 1 0.1377 -785.0381)">
<stop offset="0" style="stop-color:#FFFFFF"/>
<stop offset="0.1763" style="stop-color:#F9FBFD"/>
<stop offset="0.4132" style="stop-color:#E8F0F7"/>
<stop offset="0.6846" style="stop-color:#CCDDEC"/>
<stop offset="0.9797" style="stop-color:#A5C4DE"/>
<stop offset="1" style="stop-color:#A2C2DD"/>
</linearGradient>
<polygon fill="url(#XMLID_16_)" points="56.953,26.911 20.637,20.678 14.379,22.963 50.889,30.402  "/>
<linearGradient id="XMLID_17_" gradientUnits="userSpaceOnUse" x1="41.0254" y1="799.9312" x2="43.1317" y2="794.214" gradientTransform="matrix(1 0 0 1 0.1377 -785.0381)">
<stop offset="0" style="stop-color:#FFFFFF"/>
<stop offset="0.3106" style="stop-color:#E6EEF6"/>
<stop offset="0.9692" style="stop-color:#A5C4DE"/>
<stop offset="1" style="stop-color:#A2C2DD"/>
</linearGradient>
<polygon fill="url(#XMLID_17_)" points="52.582,12.988 35.535,10.489 31.619,11.71 49.479,14.561  "/>
<linearGradient id="XMLID_18_" gradientUnits="userSpaceOnUse" x1="58.4629" y1="808.2114" x2="60.6202" y2="802.3561" gradientTransform="matrix(1 0 0 1 0.1377 -785.0381)">
<stop offset="0" style="stop-color:#FFFFFF"/>
<stop offset="0.3106" style="stop-color:#E6EEF6"/>
<stop offset="0.9692" style="stop-color:#A5C4DE"/>
<stop offset="1" style="stop-color:#A2C2DD"/>
</linearGradient>
<polygon fill="url(#XMLID_18_)" points="69.773,21.03 52.373,18.406 49.348,20.105 66.133,22.92  "/>
<linearGradient id="XMLID_19_" gradientUnits="userSpaceOnUse" x1="65.8008" y1="825.4858" x2="51.1184" y2="830.5798" gradientTransform="matrix(1 0 0 1 0.1377 -785.0381)">
<stop offset="0" style="stop-color:#A2C2DD"/>
<stop offset="0.0056" style="stop-color:#A2C2DD"/>
<stop offset="0.2587" style="stop-color:#8CA9CF"/>
<stop offset="0.6742" style="stop-color:#6C83BB"/>
<stop offset="0.7196" style="stop-color:#637DB5"/>
<stop offset="0.7921" style="stop-color:#4C6EA4"/>
<stop offset="0.8823" style="stop-color:#265689"/>
<stop offset="0.9607" style="stop-color:#003D6D"/>
<stop offset="1" style="stop-color:#003D6D"/>
</linearGradient>
<polygon fill="url(#XMLID_19_)" points="56.953,26.911 56.992,60.205 50.793,30.454  "/>
<linearGradient id="XMLID_20_" gradientUnits="userSpaceOnUse" x1="47.9111" y1="810.8999" x2="67.5332" y2="829.63" gradientTransform="matrix(1 0 0 1 0.1377 -785.0381)">
<stop offset="0" style="stop-color:#A2C2DD"/>
<stop offset="0.0056" style="stop-color:#A2C2DD"/>
<stop offset="0.2587" style="stop-color:#8CA9CF"/>
<stop offset="0.6742" style="stop-color:#6C83BB"/>
<stop offset="0.7196" style="stop-color:#637DB5"/>
<stop offset="0.7921" style="stop-color:#4C6EA4"/>
<stop offset="0.8823" style="stop-color:#265689"/>
<stop offset="0.9607" style="stop-color:#003D6D"/>
<stop offset="1" style="stop-color:#003D6D"/>
</linearGradient>
<polygon fill="url(#XMLID_20_)" points="69.773,21.03 57.004,59.979 66.133,22.92  "/>
<linearGradient id="XMLID_21_" gradientUnits="userSpaceOnUse" x1="28.8594" y1="789.9907" x2="71.9826" y2="812.7502" gradientTransform="matrix(1 0 0 1 0.1377 -785.0381)">
<stop offset="0" style="stop-color:#FFFFFF"/>
<stop offset="0.0961" style="stop-color:#E4EDF5"/>
<stop offset="0.2832" style="stop-color:#B4CEE4"/>
<stop offset="0.3764" style="stop-color:#A2C2DD"/>
<stop offset="0.504" style="stop-color:#8CA9CF"/>
<stop offset="0.7135" style="stop-color:#6C83BB"/>
<stop offset="0.7571" style="stop-color:#637DB5"/>
<stop offset="0.8268" style="stop-color:#4C6EA4"/>
<stop offset="0.9134" style="stop-color:#265689"/>
<stop offset="0.9888" style="stop-color:#003D6D"/>
<stop offset="1" style="stop-color:#003D6D"/>
</linearGradient>
<polygon fill="url(#XMLID_21_)" points="49.479,14.561 49.348,20.105 52.373,18.406 52.582,12.988  "/>
<linearGradient id="XMLID_22_" gradientUnits="userSpaceOnUse" x1="12.6182" y1="842.6382" x2="46.9243" y2="825.56" gradientTransform="matrix(1 0 0 1 0.1377 -785.0381)">
<stop offset="0" style="stop-color:#FFFFFF"/>
<stop offset="0.1894" style="stop-color:#F4F8FB"/>
<stop offset="0.5232" style="stop-color:#D6E4F0"/>
<stop offset="0.9595" style="stop-color:#A7C5DF"/>
<stop offset="1" style="stop-color:#A2C2DD"/>
</linearGradient>
<polygon fill="url(#XMLID_22_)" points="20.588,49.042 27.475,25.644 50.846,30.446 56.992,60.205  "/>
<polygon fill="#A2C2DD" points="24.92,59.626 15.643,56.447 14.562,45.223 25.254,47.945  "/>
<polygon fill="#496DA2" points="24.92,59.626 31.565,55.036 32.26,43.45 24.92,47.945  "/>
<linearGradient id="XMLID_23_" gradientUnits="userSpaceOnUse" x1="14.3584" y1="260.2417" x2="32.0879" y2="260.2417" gradientTransform="matrix(1 0 0 -1 0.1377 304.835)">
<stop offset="0" style="stop-color:#CEE1EF"/>
<stop offset="1" style="stop-color:#A2C2DD"/>
</linearGradient>
<polygon fill="url(#XMLID_23_)" points="14.496,45.223 24.92,47.945 32.226,43.45 21.623,41.242  "/>
<linearGradient id="XMLID_24_" gradientUnits="userSpaceOnUse" x1="15.6426" y1="55.4194" x2="24.9199" y2="55.4194">
<stop offset="0" style="stop-color:#CEE1EF"/>
<stop offset="1" style="stop-color:#A2C2DD"/>
</linearGradient>
<polygon fill="url(#XMLID_24_)" points="24.896,53.532 24.92,59.626 15.643,56.447 23.398,51.212  "/>
</g>
</svg>
