<?xml version="1.0" encoding="UTF-8"?>
<!DOCTYPE svg PUBLIC "-//W3C//DTD SVG 1.1 Tiny//EN" "http://www.w3.org/Graphics/SVG/1.1/DTD/svg11-tiny.dtd">
<svg width="84" height="72" viewBox="-0.006 -0.065 84 72">
<linearGradient id="_12" gradientUnits="userSpaceOnUse" x1="41.75" y1="38.98" x2="53.08" y2="64.13">
<stop stop-color="#87A8CB" offset="0"/>
<stop stop-color="#235487" offset="1"/>
</linearGradient>
<path fill="url(#_12)" d="M21.267,6.56l1.516,48.375l37.354,10.119l2.858-2.912l-0.218-34.548 c0-0.076-12.329-15.992-12.329-15.992l-26.05-6.057L21.267,6.56z"/>
<linearGradient id="_13" gradientUnits="userSpaceOnUse" x1="51.01" y1="8.58" x2="39.73" y2="38.93">
<stop stop-color="#FFFFFF" offset="0"/>
<stop stop-color="#CEDFF2" offset="1"/>
</linearGradient>
<polygon fill="url(#_13)" points="23.288,54.523 21.803,7.096 48.346,13.178 59.764,28.26 60.016,64.418 "/>
<linearGradient id="_14" gradientUnits="userSpaceOnUse" x1="59.82" y1="22.64" x2="62.82" y2="77.39">
<stop stop-color="#FFFFFF" offset="0"/>
<stop stop-color="#A2C2DD" offset="0.35"/>
<stop stop-color="#6C83BB" offset="0.7"/>
<stop stop-color="#003D6D" offset="1"/>
</linearGradient>
<polygon fill="url(#_14)" points="60.016,64.418 59.596,28.594 62.191,27.67 62.406,61.873 "/>
<linearGradient id="_15" gradientUnits="userSpaceOnUse" x1="31.59" y1="17.59" x2="37.84" y2="5.92">
<stop stop-color="#FFFFFF" offset="0.05"/>
<stop stop-color="#A2C2DD" offset="1"/>
</linearGradient>
<polygon fill="url(#_15)" points="21.727,7.063 24.465,6.176 50.057,12.045 48.053,13.475 "/>
<linearGradient id="_16" gradientUnits="userSpaceOnUse" x1="41.71" y1="27.69" x2="54.81" y2="26.88">
<stop stop-color="#FFFFFF" offset="0.05"/>
<stop stop-color="#A2C2DD" offset="1"/>
</linearGradient>
<polygon fill="url(#_16)" points="48.631,24.451 46.141,27.992 62.055,29.24 62.014,27.594 "/>
<linearGradient id="_17" gradientUnits="userSpaceOnUse" x1="35.95" y1="15.89" x2="60.95" y2="46.39">
<stop stop-color="#E6EEF4" offset="0"/>
<stop stop-color="#9646AC" offset="0.44"/>
<stop stop-color="#3D013F" offset="0.94"/>
</linearGradient>
<path fill="url(#_17)" d="M45.016,27.547c-2.238,2.24-5.306,5.309-2.599,8.016c2.707,2.703,5.774-0.359,8.013-2.6 c2.24-2.24,5.307-5.311,2.604-8.016C50.725,22.643,47.076,25.486,45.016,27.547z M44.15,33.83 c-0.746-0.748-0.143-1.809,2.598-4.551c1.094-1.092,3.6-3.561,4.551-2.6c0.734,0.742,0.107,1.844-2.598,4.551 C45.994,33.936,44.889,34.566,44.15,33.83z"/>
<path fill="url(#_17)" d="M30.936,41.625c-2.236,2.24-5.305,5.309-2.592,8.021c2.713,2.715,5.908-0.479,8.021-2.592 c2.113-2.113,5.308-5.309,2.594-8.021l0,0C36.245,36.318,33.178,39.387,30.936,41.625z M30.078,47.916 c-0.753-0.752-0.146-1.818,2.592-4.559c2.74-2.738,3.806-3.344,4.558-2.592c0.83,0.992-0.576,2.535-2.594,4.557 C31.928,48.027,30.82,48.66,30.078,47.916z"/>
<path fill="url(#_17)" d="M33.529,30.152c-6.545,6.328-5.75,11.307-4.044,14.252l5.927-4.338 c-0.263-1.432,1.392-3.225,3.106-4.938c1.715-1.717,10.64-8.189,10.64-8.189S42.596,21.385,33.529,30.152z M30.766,40.121 c0-2.482,1.504-5.24,4.496-8.234c3.599-3.598,6.854-5.029,9.71-4.293c-0.066,0.072-1.201,1.313-1.787,1.953 c-2.304-0.035-4.347,1.793-6.4,3.85c-2.036,2.037-3.855,4.059-3.855,6.335c0,0.021,0.006,0.043,0.006,0.065 c-0.646,0.591-1.93,1.765-1.971,1.806C30.84,41.119,30.766,40.625,30.766,40.121z"/>
<path fill="url(#_17)" d="M45.441,36.436c-0.568,0.986-1.578,2.014-2.592,3.025c-1.716,1.713-3.509,3.367-4.933,3.109 l-4.354,5.949c2.933,1.713,7.787,2.398,14.261-4.07c3.992-3.998,7.934-8.738,4.074-14.414 C51.904,30.037,45.639,36.094,45.441,36.436z M50.586,32.805c1.178,3.332-1.475,6.895-4.492,9.912 c-3.623,3.621-6.882,5.063-9.72,4.33c0.035-0.037,1.158-1.271,1.823-1.998c2.295,0.025,4.333-1.801,6.385-3.855 c2.041-2.041,3.863-4.064,3.863-6.338C48.445,34.832,50.557,32.836,50.586,32.805z"/>
<linearGradient id="_21" gradientUnits="userSpaceOnUse" x1="53.5" y1="18.19" x2="46.02" y2="18.86">
<stop stop-color="#FFFFFF" offset="0.05"/>
<stop stop-color="#A2C2DD" offset="1"/>
</linearGradient>
<path fill="url(#_21)" d="M48.053,13.475c1.236,3.387-0.207,8.375-0.912,11.744c1.449-4.318,3.762-11.396,2.918-13.172 L48.053,13.475z"/>
<linearGradient id="_22" gradientUnits="userSpaceOnUse" x1="56.58" y1="18.88" x2="51.83" y2="29.13">
<stop stop-color="#87A8CB" offset="0"/>
<stop stop-color="#235487" offset="1"/>
</linearGradient>
<path fill="url(#_22)" d="M62.191,27.67c-1.492-2.006-8.104-11.23-12.135-15.625c0.197,3.184-2.646,12.322-2.918,13.174 C48.455,25.291,60.98,27.541,62.191,27.67z"/>
</svg>