<?xml version="1.0" encoding="UTF-8" standalone="no"?>
<!DOCTYPE svg PUBLIC "-//W3C//DTD SVG 1.1 Tiny//EN" "http://www.w3.org/Graphics/SVG/1.1/DTD/svg11-tiny.dtd">
<svg xmlns="http://www.w3.org/2000/svg" xmlns:xlink="http://www.w3.org/1999/xlink" width="44" height="44" viewBox="0 0 44 44">
<rect fill="none" height="44" width="44"/>
<linearGradient id="SVGID_1" gradientUnits="userSpaceOnUse" x1="18.79" y1="-13.12" x2="18.79" y2="34.99">
<stop stop-color="#B2B2B2" offset="0"/>
<stop stop-color="#000000" offset="1"/>
</linearGradient>
<path d="M31.579,20.428h-5.448L21.249,9.744c0.851-0.46,1.435-1.349,1.435-2.384 c0-1.503-1.22-2.723-2.724-2.723s-2.721,1.22-2.721,2.723c0,1.101,0.657,2.047,1.598,2.475L13.9,20.428h-2.636 c-0.387-1.03-1.375-1.768-2.542-1.768C7.219,18.661,6,19.879,6,21.384c0,1.502,1.219,2.72,2.722,2.72 c1.167,0,2.155-0.737,2.542-1.767h1.746L8.685,31.62h2.723c1.258-2.711,2.848-6.125,4.319-9.283h8.567l1.375,3.004h2.708 l-1.373-3.004h4.576V20.428z M16.616,20.428c1.912-4.103,3.434-7.364,3.434-7.364l3.371,7.364H16.616z" fill="url(#SVGID_1)"/>
<linearGradient id="SVGID_2" gradientUnits="userSpaceOnUse" x1="31.85" y1="14.08" x2="31.85" y2="36.07">
<stop stop-color="#B2B2B2" offset="0"/>
<stop stop-color="#000000" offset="1"/>
</linearGradient>
<path d="M25.697,27.061v12.303H38V27.061H25.697z M36.036,37.4h-8.375v-8.375h8.375V37.4z" fill="url(#SVGID_2)"/>
<polygon fill="url(#SVGID_2)" points="29.774,36.639 29.774,29.787 33.923,33.212 "/>
</svg>