<?xml version="1.0" encoding="UTF-8"?>
<!DOCTYPE svg PUBLIC "-//W3C//DTD SVG 1.1 Tiny//EN" "http://www.w3.org/Graphics/SVG/1.1/DTD/svg11-tiny.dtd">
<svg baseProfile="tiny" version="1.1" xmlns="http://www.w3.org/2000/svg" xmlns:xlink="http://www.w3.org/1999/xlink" x="0px" y="0px" width="32px" height="32px" viewBox="0 0 32 32">
<rect fill="none" width="32" height="32"/>
<path fill="#FFFFFF" d="M24.104,16.101h-1.67c0-1.661-0.386-2.91-1.157-3.75c-0.772-0.839-1.355-1.335-1.75-1.487h-0.256v9.653  c0,4.515-2.208,6.771-6.624,6.771c-1.427,0-2.576-0.365-3.446-1.098c-0.87-0.73-1.306-1.698-1.306-2.9  c0-1.311,0.42-2.331,1.259-3.063s1.964-1.098,3.372-1.098c2.352,0,3.967,0.683,4.847,2.046h0.147V4.711h1.549  c0.206,0.808,0.771,1.629,1.696,2.464c1.427,1.302,2.34,2.405,2.739,3.312s0.6,2.222,0.6,3.944V16.101z M12.984,21.594  c0-0.27-0.18-0.503-0.539-0.7c-0.358-0.197-0.776-0.296-1.251-0.296c-0.485,0-0.902,0.099-1.252,0.296  c-0.351,0.197-0.525,0.431-0.525,0.7s0.18,0.5,0.538,0.693c0.359,0.192,0.772,0.289,1.239,0.289s0.881-0.094,1.245-0.282  C12.803,22.105,12.984,21.872,12.984,21.594z"/>
</svg>
