<?xml version="1.0" encoding="UTF-8"?>
<!DOCTYPE svg PUBLIC "-//W3C//DTD SVG 1.1 Tiny//EN" "http://www.w3.org/Graphics/SVG/1.1/DTD/svg11-tiny.dtd">
<svg width="16" height="16" viewBox="0 0 16 16">
<path stroke="#FFFFFF" d="M8.577,4.009c0.367,0,0.718,0.057,1.06,0.14c-0.615-0.37-1.326-0.595-2.094-0.595 c-2.254,0-4.089,1.834-4.089,4.089c0,1.09,0.436,2.077,1.134,2.811C4.291,9.855,4.108,9.19,4.108,8.478 C4.108,6.01,6.109,4.009,8.577,4.009z"/>
<path fill="#A2C2DD" d="M11.633,7.643c0-1.487-0.806-2.778-1.996-3.494c-0.341-0.083-0.693-0.14-1.06-0.14 c-2.468,0-4.469,2.001-4.469,4.469c0,0.713,0.183,1.378,0.479,1.976c0.746,0.784,1.791,1.278,2.955,1.278 C9.798,11.731,11.633,9.897,11.633,7.643z M5.044,7.643c0-1.379,1.119-2.499,2.498-2.499c1.381,0,2.499,1.12,2.499,2.499 s-1.117,2.498-2.499,2.498C6.164,10.141,5.044,9.021,5.044,7.643z"/>
<path fill="#A2C2DD" d="M12.395,6.185c0.14,0.465,0.238,0.948,0.238,1.458c0,2.806-2.283,5.089-5.09,5.089 c-0.135,0-0.262-0.029-0.395-0.04c0.451,0.153,0.926,0.255,1.429,0.255c2.468,0,4.469-2.001,4.469-4.469 C13.046,7.636,12.799,6.857,12.395,6.185z"/>
<path fill="#496DA2" d="M12.633,7.643c0-0.51-0.098-0.993-0.238-1.458C11.763,4.092,9.84,2.554,7.543,2.554 c-2.806,0-5.089,2.283-5.089,5.089c0,2.671,2.075,4.844,4.694,5.049c0.132,0.011,0.259,0.04,0.395,0.04 C10.35,12.731,12.633,10.449,12.633,7.643z M4.588,10.453C3.89,9.72,3.454,8.733,3.454,7.643c0-2.254,1.834-4.089,4.089-4.089 c0.768,0,1.479,0.226,2.094,0.595c1.19,0.716,1.996,2.007,1.996,3.494c0,2.254-1.834,4.089-4.09,4.089 C6.379,11.731,5.333,11.237,4.588,10.453z"/>
<circle fill="#496DA2" cx="7.543" cy="7.643" r="2.498"/>
<circle fill="#FFFFFF" cx="6.874" cy="6.812" r="0.5"/>
</svg>