<?xml version="1.0" encoding="UTF-8"?>
<!DOCTYPE svg PUBLIC "-//W3C//DTD SVG 1.1 Tiny//EN" "http://www.w3.org/Graphics/SVG/1.1/DTD/svg11-tiny.dtd">
<svg width="100%" height="100%" viewBox="0 0 88 88">
<linearGradient id="_18" gradientUnits="userSpaceOnUse" x1="39.73" y1="54.27" x2="37.31" y2="71.46">
<stop stop-color="#A2C2DD" offset="0.1"/>
<stop stop-color="#6C83BB" offset="0.71"/>
<stop stop-color="#003D6D" offset="0.99"/>
</linearGradient>
<path fill="url(#_18)" d="M37.814,17.92c0,0.177,0.033,0.357,0.067,0.539c-0.02,1.166-0.048,10.158,0.177,14.205 c-2.287-4.422-6.472-10.602-6.472-10.602c-0.782,2.818-1.256,6.084-11.649,4.479C8.422,24.763,5.303,27.951,3.521,37.475 c-0.053,0.28-0.415,6.818,0.343,10.272c4.399,7.882,14.911,23.599,34.204,20.276c0,0,2.438-2.518,4.131-6.371 c2.802,8.684,6.302,10.684,9.034,11.299c21.353,0.531,31.082-29.043,31.029-53.704c0.024-0.942-0.726-0.677-5.339-0.494 c0,0-9.924,5.491-24.427,5.595c-1.922-0.836-3.591-1.646-5.009-2.417c-0.003-0.755-0.029-7.471-0.029-7.471l-1.604-1.003 C44.553,13.68,37.814,14.287,37.814,17.92z"/>
<linearGradient id="_19" gradientUnits="userSpaceOnUse" x1="51.91" y1="92.76" x2="-15.59" y2="8.26">
<stop stop-color="#E6EEF4" offset="0"/>
<stop stop-color="#A3740A" offset="0.44"/>
<stop stop-color="#474105" offset="0.94"/>
</linearGradient>
<path fill="url(#_19)" d="M4.22,37.526l34.707,23.599l-1.206,6.218C20.456,70.076,10.493,57.95,4.548,47.598 C3.803,44.199,4.22,37.526,4.22,37.526z"/>
<path fill="#B18E3B" d="M37.721,67.343c0,0,5.991-5.985,5.713-15.435l-4.691,9.885L37.721,67.343z"/>
<linearGradient id="_20" gradientUnits="userSpaceOnUse" x1="62.53" y1="36.9" x2="3.03" y2="48.9">
<stop stop-color="#E2E6E4" offset="0"/>
<stop stop-color="#A3740A" offset="1"/>
</linearGradient>
<path fill="url(#_20)" d="M7.858,28.908c5.812-5.939,21.375,3.578,23.978-5.221c18.75,27.891,9.966,35.55,6.861,38.136 C18.336,65.883,4.722,30.164,7.858,28.908z"/>
<linearGradient id="_21" gradientUnits="userSpaceOnUse" x1="55.02" y1="89.59" x2="-49.24" y2="-29.41">
<stop stop-color="#E6EEF4" offset="0"/>
<stop stop-color="#A3740A" offset="0.44"/>
<stop stop-color="#474105" offset="0.94"/>
</linearGradient>
<path fill="url(#_21)" d="M8.091,28.749c6.2,14.776,13.397,25.544,30.606,33.074C17.842,66.66,4.22,37.526,4.22,37.526 C4.506,33.645,6.684,29.768,8.091,28.749z"/>
<linearGradient id="_22" gradientUnits="userSpaceOnUse" x1="53.28" y1="28.4" x2="-4.47" y2="53.15">
<stop stop-color="#E6EEF4" offset="0"/>
<stop stop-color="#A3740A" offset="0.44"/>
<stop stop-color="#474105" offset="0.94"/>
</linearGradient>
<path fill="url(#_22)" d="M35.035,46.571L27.07,33.02c-5.036-1.809-11.338-0.201-16.621,5.227 c3.824-3.009,10.324-5.494,14.966-2.808l4.106,9.431C30.463,46.215,32.675,47.293,35.035,46.571z"/>
<path fill="url(#_22)" d="M24.656,35.729c-5.074-1.376-10.08,0.482-12.248,5.231 C15.544,38.141,20.362,35.996,24.656,35.729z"/>
<path fill="url(#_22)" d="M30.656,33.904c1.651-1.214,3.673-2.165,5.787-2.826c-0.241-0.416-0.504-0.855-0.759-1.288 C33.747,30.57,32.001,31.984,30.656,33.904z"/>
<path fill="url(#_22)" d="M26.532,51.949c-2.441,0.176,7.757,6.871,14.389,1.55l-0.895-5.731 C36.333,50.217,31.813,51.564,26.532,51.949z"/>
<polygon fill="#A2C2DD" points="40.737,26.975 46.79,22.669 46.786,14.844 41.185,15.896 "/>
<linearGradient id="_26" gradientUnits="userSpaceOnUse" x1="54.68" y1="45.59" x2="80.51" y2="21.46">
<stop stop-color="#A2C2DD" offset="0.1"/>
<stop stop-color="#6C83BB" offset="0.71"/>
<stop stop-color="#003D6D" offset="0.99"/>
</linearGradient>
<path fill="url(#_26)" d="M51.251,72.252C70.097,62.07,69.695,28.798,69.729,24.376l-20.153,1.456 C46.254,52.143,49.872,71.066,51.251,72.252z"/>
<linearGradient id="_27" gradientUnits="userSpaceOnUse" x1="21.59" y1="44.04" x2="52.86" y2="45.06">
<stop stop-color="#FFFFFF" offset="0.1"/>
<stop stop-color="#D1E1EE" offset="0.7"/>
<stop stop-color="#A2C2DD" offset="1"/>
</linearGradient>
<path fill="url(#_27)" d="M51.251,72.252c-2.972-16.245-2.514-29.938-1.657-46.827l-10.99-8.074l0,0 C38.318,30.089,38.655,69.676,51.251,72.252z"/>
<linearGradient id="_28" gradientUnits="userSpaceOnUse" x1="53.95" y1="65.16" x2="89.98" y2="13.94">
<stop stop-color="#A2C2DD" offset="0.1"/>
<stop stop-color="#6C83BB" offset="0.71"/>
<stop stop-color="#003D6D" offset="0.99"/>
</linearGradient>
<path fill="url(#_28)" d="M81.563,19.223l-12.021,3.887c0.064,2.691,1.051,37.972-18.29,49.143 C72.827,72.788,81.619,42.119,81.563,19.223z"/>
<linearGradient id="_29" gradientUnits="userSpaceOnUse" x1="42.91" y1="15.75" x2="51.52" y2="36.14">
<stop stop-color="#FFFFFF" offset="0.15"/>
<stop stop-color="#A2C2DD" offset="1"/>
</linearGradient>
<path fill="url(#_29)" d="M52.354,25.051c-16.656-7.215-10.063-9.789-5.484-10.134l-1.171-0.731 c-5.271,0.724-14.852,3.209,3.843,12.646L52.354,25.051z"/>
<linearGradient id="_30" gradientUnits="userSpaceOnUse" x1="38.68" y1="23.46" x2="85.13" y2="22.78">
<stop stop-color="#FFFFFF" offset="0.15"/>
<stop stop-color="#A2C2DD" offset="1"/>
</linearGradient>
<path fill="url(#_30)" d="M49.541,26.832c0,0,20.57,1.004,32.059-7.609l-4.478,0.222c0,0-9.807,5.538-24.769,5.606 L49.541,26.832z"/>
<linearGradient id="_31" gradientUnits="userSpaceOnUse" x1="6.16" y1="58.61" x2="67.16" y2="38.61">
<stop stop-color="#FFFFFF" offset="0"/>
<stop stop-color="#A2C2DD" offset="0.35"/>
<stop stop-color="#6C83BB" offset="0.7"/>
<stop stop-color="#003D6D" offset="1"/>
</linearGradient>
<path fill="url(#_31)" d="M49.147,36.287c5.2-4.461,14.611-7.676,23.4-3.592c-5.942-1.855-15.971-0.123-20.304,5.203 l-0.619,13.865l-5.82,3.839L49.147,36.287z"/>
<path fill="url(#_31)" d="M44.99,38.783c-0.169-2.999-3.155-6.227-6.248-7.01c0.042,1.146,0.096,2.316,0.159,3.511 C41.505,35.985,43.825,37.191,44.99,38.783z"/>
<path fill="url(#_31)" d="M60.407,57.064c-5.902,3.992-12.134,5.112-17.979,2.877c0.501,1.746,1.065,3.372,1.701,4.836 C50.265,67.924,58.084,63.041,60.407,57.064z"/>
<path fill="url(#_31)" d="M69.713,38.617c-4.38-1.916-12.594-0.877-15.414,2.406 C55.762,34.186,65.087,31.546,69.713,38.617z"/>
</svg>