<?xml version="1.0" encoding="UTF-8" standalone="no"?>
<!DOCTYPE svg PUBLIC "-//W3C//DTD SVG 1.1 Tiny//EN" "http://www.w3.org/Graphics/SVG/1.1/DTD/svg11-tiny.dtd">
<svg xmlns="http://www.w3.org/2000/svg" xmlns:xlink="http://www.w3.org/1999/xlink" width="42" height="29" viewBox="0 0 42 29">
<rect fill="none" height="29" width="42"/>
<linearGradient id="SVGID_1" gradientUnits="userSpaceOnUse" x1="17.52" y1="6" x2="28.1" y2="26.92">
<stop stop-color="#A2C2DD" offset="0.1"/>
<stop stop-color="#6C83BB" offset="0.71"/>
<stop stop-color="#003D6D" offset="0.99"/>
</linearGradient>
<path d="M29.734,26.787l-17.148-4.678c-0.142-0.039-0.243-0.164-0.249-0.311l0,0L11.419,5.011 c-0.009-0.154,0.086-0.292,0.23-0.342l0,0l1.634-0.545l0.166-0.013L31.175,7.17c0.162,0.028,0.281,0.17,0.28,0.337l0,0 l-0.069,17.834c0,0.094-0.04,0.184-0.109,0.248l0,0l-1.223,1.121c-0.063,0.059-0.146,0.09-0.229,0.09l0,0 C29.794,26.801,29.764,26.797,29.734,26.787L29.734,26.787z" fill="url(#SVGID_1)"/>
<linearGradient id="SVGID_2" gradientUnits="userSpaceOnUse" x1="7.9" y1="6.55" x2="35.82" y2="24.28">
<stop stop-color="#FFFFFF" offset="0.05"/>
<stop stop-color="#A2C2DD" offset="1"/>
</linearGradient>
<polygon fill="url(#SVGID_2)" points="12.674,21.85 11.756,5.06 30.021,8.33 29.821,26.529 "/>
<linearGradient id="SVGID_3" gradientUnits="userSpaceOnUse" x1="28.35" y1="6.87" x2="9.59" y2="29.05">
<stop stop-color="#FFFFFF" offset="0.05"/>
<stop stop-color="#A2C2DD" offset="1"/>
</linearGradient>
<polygon fill="url(#SVGID_3)" points="13.741,21.063 12.943,6.456 28.559,9.287 28.659,25.133 "/>
<linearGradient id="SVGID_4" gradientUnits="userSpaceOnUse" x1="30.43" y1="8.5" x2="30.43" y2="26.1">
<stop stop-color="#FFFFFF" offset="0"/>
<stop stop-color="#A2C2DD" offset="0.35"/>
<stop stop-color="#6C83BB" offset="0.7"/>
<stop stop-color="#003D6D" offset="1"/>
</linearGradient>
<polygon fill="url(#SVGID_4)" points="29.821,26.529 29.745,8.304 31.114,7.573 31.044,25.406 "/>
<linearGradient id="SVGID_5" gradientUnits="userSpaceOnUse" x1="27.41" y1="7.45" x2="12.86" y2="4.68">
<stop stop-color="#FFFFFF" offset="0.05"/>
<stop stop-color="#A2C2DD" offset="1"/>
</linearGradient>
<polygon fill="url(#SVGID_5)" points="29.745,8.304 31.114,7.573 13.39,4.515 11.784,5.06 "/>
<linearGradient id="SVGID_6" gradientUnits="userSpaceOnUse" x1="30.28" y1="11.84" x2="1.35" y2="11.99">
<stop stop-color="#FFFFFF" offset="0"/>
<stop stop-color="#A2C2DD" offset="0.35"/>
<stop stop-color="#6C83BB" offset="0.7"/>
<stop stop-color="#003D6D" offset="1"/>
</linearGradient>
<polygon fill="url(#SVGID_6)" points="15.114,10.105 25.466,12.317 25.481,13.674 15.166,11.397 "/>
<linearGradient id="SVGID_7" gradientUnits="userSpaceOnUse" x1="30.22" y1="15.86" x2="1.47" y2="16.02">
<stop stop-color="#FFFFFF" offset="0"/>
<stop stop-color="#A2C2DD" offset="0.35"/>
<stop stop-color="#6C83BB" offset="0.7"/>
<stop stop-color="#003D6D" offset="1"/>
</linearGradient>
<polygon fill="url(#SVGID_7)" points="15.539,14.439 21.788,16.018 21.827,17.414 15.566,15.898 "/>
<rect fill="#FFFFFF" height="11.428" width="11.428" x="4.933" y="15.373"/>
<linearGradient id="SVGID_8" gradientUnits="userSpaceOnUse" x1="4.88" y1="14.15" x2="16.17" y2="27.73">
<stop stop-color="#E6EEF4" offset="0"/>
<stop stop-color="#DAD9CB" offset="0.06"/>
<stop stop-color="#C3AE79" offset="0.2"/>
<stop stop-color="#B28F3D" offset="0.32"/>
<stop stop-color="#A77B18" offset="0.4"/>
<stop stop-color="#A3740A" offset="0.44"/>
<stop stop-color="#866408" offset="0.56"/>
<stop stop-color="#645107" offset="0.72"/>
<stop stop-color="#4F4505" offset="0.85"/>
<stop stop-color="#474105" offset="0.94"/>
</linearGradient>
<rect fill="url(#SVGID_8)" height="10.484" width="10.485" x="5.404" y="15.844"/>
<path d="M6.189,21.014c0,2.432,1.978,4.408,4.408,4.408s4.409-1.977,4.409-4.408c0-2.43-1.979-4.408-4.409-4.408 S6.189,18.584,6.189,21.014z M6.991,21.014c0-1.988,1.618-3.607,3.606-3.607c1.989,0,3.607,1.619,3.607,3.607 s-1.618,3.607-3.607,3.607C8.609,24.621,6.991,23.002,6.991,21.014z" fill="#F2F2F2"/>
<polygon fill="#F2F2F2" points="12.599,18.674 9.962,20.33 8.614,23.578 11.526,21.617 "/>
<linearGradient id="SVGID_9" gradientUnits="userSpaceOnUse" x1="22.48" y1="23.48" x2="20.15" y2="21.45">
<stop stop-color="#81C7C8" offset="0"/>
<stop stop-color="#FFFFFF" offset="1"/>
</linearGradient>
<polygon fill="url(#SVGID_9)" points="21.21,18.74 19.391,24.436 25.126,22.262 "/>
<linearGradient id="SVGID_10" gradientUnits="userSpaceOnUse" x1="29.67" y1="9.75" x2="32.5" y2="13.56">
<stop stop-color="#D6E6EC" offset="0"/>
<stop stop-color="#298595" offset="1"/>
</linearGradient>
<polygon fill="url(#SVGID_10)" points="30.268,8.949 32.247,9.414 34.249,11.406 34.358,13.202 29.409,13.89 "/>
<linearGradient id="SVGID_11" gradientUnits="userSpaceOnUse" x1="16.75" y1="20.76" x2="28.95" y2="15.47">
<stop stop-color="#D6E6EC" offset="0"/>
<stop stop-color="#298595" offset="1"/>
</linearGradient>
<polygon fill="url(#SVGID_11)" points="30.672,10.82 32.558,12.64 23.608,21.691 21.849,20.008 "/>
<linearGradient id="SVGID_12" gradientUnits="userSpaceOnUse" x1="19.24" y1="25.15" x2="36.77" y2="11.09">
<stop stop-color="#E6EEF4" offset="0"/>
<stop stop-color="#9EC8D1" offset="0.15"/>
<stop stop-color="#62A9B3" offset="0.29"/>
<stop stop-color="#3D95A1" offset="0.39"/>
<stop stop-color="#2F8E9A" offset="0.44"/>
<stop stop-color="#247C90" offset="0.53"/>
<stop stop-color="#115A7D" offset="0.73"/>
<stop stop-color="#044571" offset="0.89"/>
<stop stop-color="#003D6D" offset="1"/>
</linearGradient>
<polygon fill="url(#SVGID_12)" points="32.558,12.64 34.358,13.202 25.126,22.262 23.608,21.691 "/>
<linearGradient id="SVGID_13" gradientUnits="userSpaceOnUse" x1="21.75" y1="18.9" x2="37.09" y2="3.15">
<stop stop-color="#D6E6EC" offset="0"/>
<stop stop-color="#298595" offset="1"/>
</linearGradient>
<polygon fill="url(#SVGID_13)" points="30.672,10.82 30.268,8.949 21.21,18.74 21.849,20.008 "/>
<linearGradient id="SVGID_14" gradientUnits="userSpaceOnUse" x1="20.57" y1="23.89" x2="19.2" y2="22.51">
<stop stop-color="#013F6E" offset="0"/>
<stop stop-color="#1A6A86" offset="0.49"/>
<stop stop-color="#013F6E" offset="1"/>
</linearGradient>
<path d="M20.276,21.68l-1.014,2.811l2.76-1.07C21.512,23.277,20.596,22.365,20.276,21.68z" fill="url(#SVGID_14)"/>
</svg>