<?xml version="1.0" encoding="UTF-8"?>
<!DOCTYPE svg PUBLIC "-//W3C//DTD SVG 1.1 Tiny//EN" "http://www.w3.org/Graphics/SVG/1.1/DTD/svg11-tiny.dtd">
<svg width="332" height="82" viewBox="-1.461 -0.298 332 82">
<path fill-opacity="0.01" fill="#656B6B" d="M20.539,9.702c-11.105,0.59-20,9.877-20,21.109v29.775c0,10.789,8.082,19.809,18.801,20.977 h-0.004c0,0,0.029,0.006,0.051,0.01c0.012,0,2.107,0.125,2.107,0.125l281.939,0.004c12.74,0,23.105-10.369,23.105-23.115V30.811 c0-5.645-2.197-10.949-6.189-14.936c-3.988-3.982-9.287-6.172-14.922-6.164L20.539,9.702z M19.498,81.592l0.055,0.01 c0,0-0.035-0.006-0.068-0.012C19.487,81.59,19.498,81.592,19.498,81.592z"/>
<path fill-opacity="0.02" fill="#656B6B" d="M21.539,10.709c-11.037,0.061-20,9.049-20,20.102v29.775 c0,10.311,7.691,18.869,17.908,19.982c0.016,0.004,0.033,0.008,0.053,0.01c0.031,0.004,0.061,0.016,0.092,0.018 c0,0-0.043-0.008-0.078-0.016c0.164,0.021,0.563,0.043,2.031,0.117l281.889,0.004c12.189,0,22.105-9.922,22.105-22.115V30.811 c0-5.377-2.094-10.43-5.896-14.229c-3.799-3.793-8.846-5.879-14.213-5.871L21.539,10.709z"/>
<path fill-opacity="0.04" fill="#656B6B" d="M21.647,11.7c-10.535,0-19.107,8.572-19.107,19.111v29.775 c0,9.846,7.375,18.021,17.152,19.016c0.002,0,1.904,0.098,1.904,0.098l281.838,0.002c11.637,0,21.105-9.473,21.105-21.115V30.811 c0-5.109-1.99-9.912-5.604-13.52c-3.607-3.605-8.404-5.586-13.506-5.58L21.647,11.7z"/>
<path fill-opacity="0.07" fill="#656B6B" d="M21.647,12.7c-9.984,0-18.107,8.125-18.107,18.111v29.775 c0,9.33,6.988,17.078,16.254,18.021c0.006,0,1.854,0.094,1.854,0.094h281.787c11.086,0,20.105-9.023,20.105-20.115V30.811 c0-4.842-1.885-9.393-5.309-12.813c-3.42-3.416-7.965-5.293-12.799-5.287L21.647,12.7z"/>
<path fill-opacity="0.11" fill="#656B6B" d="M305.434,13.711l-283.787-0.01c-9.447,0-17.107,7.656-17.107,17.109v29.775 c0,8.859,6.73,16.148,15.355,17.025c0.576,0.057,1.16,0.09,1.752,0.09h281.787c10.535,0,19.105-8.576,19.105-19.115V30.811 C322.539,21.358,314.881,13.7,305.434,13.711z"/>
<path fill-opacity="0.13" fill="#656B6B" d="M304.434,14.702H22.647c-9.447,0-17.107,6.656-17.107,16.109v28.775 c0,8.859,6.73,16.148,15.355,17.025c0.576,0.057,1.16,0.09,1.752,0.09h280.787c9.982,0,18.105-8.127,18.105-18.115V30.811 C321.539,21.358,313.881,14.69,304.434,14.702z"/>
<linearGradient id="_2" gradientUnits="userSpaceOnUse" x1="162.54" y1="68.81" x2="162.54" y2="28.19">
<stop stop-color="#D9F4E0" offset="0"/>
<stop stop-color="#FFFFFF" offset="1"/>
</linearGradient>
<path fill="url(#_2)" d="M303.434,13.713L21.647,13.702c-9.447-0.012-17.107,7.646-17.107,17.1v27.785 c0,9.449,7.66,17.115,17.107,17.115h281.787c9.447,0,17.105-7.666,17.105-17.115V30.801 C320.539,21.348,312.881,13.69,303.434,13.713z"/>
</svg>