<?xml version="1.0" encoding="UTF-8"?>
<!DOCTYPE svg PUBLIC "-//W3C//DTD SVG 1.1 Tiny//EN" "http://www.w3.org/Graphics/SVG/1.1/DTD/svg11-tiny.dtd">
<svg baseProfile="tiny" height="32px" version="1.1" viewBox="0 0 32 32" width="32px" x="0px" xmlns="http://www.w3.org/2000/svg" xmlns:xlink="http://www.w3.org/1999/xlink" y="0px">
<rect fill="none" height="32" width="32"/>
<path d="M16.007,5.5c1.879,0,3.632,0.465,5.259,1.397c1.626,0.932,2.906,2.21,3.837,3.836  c0.931,1.627,1.396,3.38,1.396,5.26c0,1.897-0.465,3.657-1.396,5.279s-2.209,2.899-3.831,3.831  c-1.622,0.931-3.378,1.397-5.265,1.397c-1.905,0-3.668-0.469-5.291-1.403c-1.622-0.937-2.897-2.213-3.824-3.831  c-0.928-1.618-1.391-3.376-1.391-5.273c0-1.896,0.468-3.656,1.403-5.278s2.215-2.897,3.837-3.824C12.365,5.963,14.12,5.5,16.007,5.5  z M16.007,24.592c1.534,0,2.964-0.378,4.292-1.132c1.327-0.755,2.376-1.796,3.143-3.123s1.15-2.775,1.15-4.344  c0-2.376-0.837-4.402-2.51-6.075c-1.674-1.673-3.699-2.509-6.075-2.509c-1.567,0-3.015,0.384-4.343,1.15  c-1.327,0.767-2.369,1.814-3.122,3.142c-0.755,1.327-1.131,2.758-1.131,4.292c0,1.552,0.378,2.993,1.137,4.324  c0.759,1.332,1.803,2.377,3.135,3.136S14.457,24.592,16.007,24.592z M15.034,16.955V9.317h1.908v5.728h3.818v1.909H15.034z" fill="#FFFFFF"/>
</svg>
