<?xml version="1.0" encoding="UTF-8"?>
<!DOCTYPE svg PUBLIC "-//W3C//DTD SVG 1.1 Tiny//EN" "http://www.w3.org/Graphics/SVG/1.1/DTD/svg11-tiny.dtd">
<svg baseProfile="tiny" height="60" version="1.1" viewBox="0 0 60 60" width="60" xmlns="http://www.w3.org/2000/svg" xmlns:xlink="http://www.w3.org/1999/xlink">
<path d="M29.481,37.771c5.371,0,9.74-4.586,9.74-10.212v-9.745c0-5.629-4.369-10.216-9.74-10.216c-5.38,0-9.746,4.584-9.746,10.216  v9.745C19.729,33.186,24.102,37.771,29.481,37.771z M23.922,17.814c0-3.317,2.494-6.023,5.55-6.023c3.059,0,5.549,2.706,5.549,6.023  v9.745c0,3.317-2.49,6.017-5.549,6.017c-3.057,0-5.55-2.7-5.55-6.017V17.814z"/>
<path d="M42.251,21.175v6.503c0,7.583-5.726,13.759-12.759,13.759c-7.054,0-12.786-6.176-12.786-13.759v-6.503h-4.193v6.503  c0,9.134,6.51,16.615,14.863,17.731v7.821h4.188v-7.821c8.359-1.104,14.877-8.587,14.877-17.731v-6.503H42.251z"/>
<rect fill="none" height="60" width="60"/>
</svg>
