<?xml version="1.0" encoding="UTF-8"?>
<!DOCTYPE svg PUBLIC "-//W3C//DTD SVG 1.1 Tiny//EN" "http://www.w3.org/Graphics/SVG/1.1/DTD/svg11-tiny.dtd">
<svg width="60" height="80" viewBox="0 0 60 80">
<linearGradient id="_316" gradientUnits="userSpaceOnUse" x1="30.91" y1="41.29" x2="43.59" y2="66.25">
<stop stop-color="#A2C2DD" offset="0.1"/>
<stop stop-color="#6C83BB" offset="0.71"/>
<stop stop-color="#003D6D" offset="0.99"/>
</linearGradient>
<path fill="url(#_316)" d="M26.349,14.871c-7.842,0.564-13.384,2.997-13.384,5.895l2.177,42.265c0,0,4.92,10.781,24.032,5.072 c0,0,5.154-1.63,5.61-4.293c0.017-0.047,2.229-43.042,2.229-43.042c0-2.939-5.632-5.379-13.695-5.932 c-0.707-0.257-2.019-0.421-3.417-0.421C28.473,14.413,27.146,14.584,26.349,14.871z"/>
<linearGradient id="_317" gradientUnits="userSpaceOnUse" x1="23.84" y1="45.8" x2="47.13" y2="45.62">
<stop stop-color="#FFFFFF" offset="0.05"/>
<stop stop-color="#A2C2DD" offset="1"/>
</linearGradient>
<path fill="url(#_317)" d="M46.055,22.256l-1.529,40.854c0.107,6.061-24.445,10.353-28.757,0.043l-1.76-40.896L46.055,22.256 L46.055,22.256z"/>
<linearGradient id="_318" gradientUnits="userSpaceOnUse" x1="27.88" y1="44.61" x2="6.52" y2="44.61">
<stop stop-color="#FFFFFF" offset="0.05"/>
<stop stop-color="#A2C2DD" offset="1"/>
</linearGradient>
<path fill="url(#_318)" d="M23.401,25.307l0.355,43.087c0,0-3.521-1.039-5.378-2.371s-2.896-3.188-2.896-3.188l-2.156-42 C14.021,21.237,21.238,24.762,23.401,25.307z"/>
<linearGradient id="_319" gradientUnits="userSpaceOnUse" x1="35.67" y1="44.35" x2="46.79" y2="44.35">
<stop stop-color="#FFFFFF" offset="0.05"/>
<stop stop-color="#A2C2DD" offset="1"/>
</linearGradient>
<path fill="url(#_319)" d="M39.057,67.869l5.402-4.156l2.18-42.874c0,0-5.884,3.312-6.891,3.771L39.057,67.869z"/>
<linearGradient id="_320" gradientUnits="userSpaceOnUse" x1="25.93" y1="19.95" x2="63.31" y2="61.34">
<stop stop-color="#E6EEF4" offset="0"/>
<stop stop-color="#4A9900" offset="0.44"/>
<stop stop-color="#0E4E58" offset="0.94"/>
</linearGradient>
<path fill="url(#_320)" d="M46.566,21.504c-2.375,2.937-8.887,5.045-16.542,5.045c-7.84,0-14.474-2.21-16.703-5.255 l0.399,6.359c2.075,3.02,8.588,5.226,16.304,5.226c7.625,0,14.042-2.069,16.201-5.034L46.566,21.504z"/>
<linearGradient id="_321" gradientUnits="userSpaceOnUse" x1="19.22" y1="13.33" x2="16.99" y2="49.59">
<stop stop-color="#DCE8E4" offset="0"/>
<stop stop-color="#43910A" offset="1"/>
</linearGradient>
<path fill="url(#_321)" d="M23.382,26.079l-10.058-4.81l0.399,6.36c1.322,2.05,5.797,4.155,9.74,4.685L23.382,26.079z"/>
<linearGradient id="_322" gradientUnits="userSpaceOnUse" x1="39.65" y1="26.54" x2="46.57" y2="26.54">
<stop stop-color="#DCE8E4" offset="0"/>
<stop stop-color="#43910A" offset="1"/>
</linearGradient>
<path fill="url(#_322)" fill-opacity="0.5" d="M39.652,31.599c3.109-0.81,5.699-2.554,6.572-3.753l0.342-6.367l-6.781,3.729 L39.652,31.599z"/>
<radialGradient id="_323" gradientUnits="userSpaceOnUse" cx="29.99" cy="20.77" r="12.46">
<stop stop-color="#FFFFFF" offset="0.05"/>
<stop stop-color="#A2C2DD" offset="1"/>
</radialGradient>
<path fill="url(#_323)" d="M46.664,20.766c0,3.145-7.464,5.697-16.674,5.697c-9.209,0-16.675-2.552-16.675-5.697 c0-3.143,7.466-5.696,16.675-5.696C39.2,15.069,46.664,17.623,46.664,20.766z"/>
<linearGradient id="_324" gradientUnits="userSpaceOnUse" x1="15.14" y1="20.26" x2="45.19" y2="20.26">
<stop stop-color="#FFFFFF" offset="0.05"/>
<stop stop-color="#A2C2DD" offset="1"/>
</linearGradient>
<path fill="url(#_324)" d="M30.167,15.614c-8.297,0-15.024,2.082-15.024,4.646c0,2.568,6.727,4.65,15.024,4.65 c8.298,0,15.026-2.081,15.026-4.65C45.193,17.696,38.466,15.614,30.167,15.614z"/>
<radialGradient id="_325" gradientUnits="userSpaceOnUse" cx="29.93" cy="20.28" r="5.53">
<stop stop-color="#FFFFFF" offset="0.05"/>
<stop stop-color="#A2C2DD" offset="1"/>
</radialGradient>
<ellipse fill="url(#_325)" cx="29.931" cy="20.283" rx="7.381" ry="2.586"/>
<linearGradient id="_326" gradientUnits="userSpaceOnUse" x1="32.81" y1="17.75" x2="60.62" y2="32.66">
<stop stop-color="#DCE8E4" offset="0"/>
<stop stop-color="#43910A" offset="1"/>
</linearGradient>
<path fill="url(#_326)" d="M30.926,20.773l8.84,4.521c3.7-0.813,6.545-2.482,6.894-4.151L34.29,19.516 C34,19.915,31.82,20.465,30.926,20.773z"/>
<linearGradient id="_327" gradientUnits="userSpaceOnUse" x1="23.5" y1="18.92" x2="35.03" y2="18.65">
<stop stop-color="#FFFFFF" offset="0"/>
<stop stop-color="#A2C2DD" offset="0.35"/>
<stop stop-color="#6C83BB" offset="0.7"/>
<stop stop-color="#003D6D" offset="1"/>
</linearGradient>
<path fill="url(#_327)" d="M35.443,19.874c0,0.938-2.562,2.019-5.633,2.019c-3.08,0-5.526-1.082-5.526-2.019l1.495-4.134 h8.182L35.443,19.874z"/>
<linearGradient id="_328" gradientUnits="userSpaceOnUse" x1="27.1" y1="15.42" x2="33.76" y2="16.27">
<stop stop-color="#FFFFFF" offset="0.05"/>
<stop stop-color="#A2C2DD" offset="1"/>
</linearGradient>
<path fill="url(#_328)" d="M33.992,15.716c0,0.527-1.848,1.111-4.106,1.111c-2.257,0-4.077-0.583-4.077-1.111 c0-0.528,1.833-0.954,4.092-0.954C32.16,14.763,33.992,15.188,33.992,15.716z"/>
</svg>