<?xml version="1.0" encoding="UTF-8" standalone="no"?>
<!DOCTYPE svg PUBLIC "-//W3C//DTD SVG 1.1 Tiny//EN" "http://www.w3.org/Graphics/SVG/1.1/DTD/svg11-tiny.dtd">
<svg xmlns="http://www.w3.org/2000/svg" xmlns:xlink="http://www.w3.org/1999/xlink" width="84" height="58" viewBox="0 0 84 58">
<rect fill="none" height="58" width="84"/>
<linearGradient id="_15" gradientUnits="userSpaceOnUse" x1="46.02" y1="5.72" x2="46.92" y2="7.5">
<stop stop-color="#A2C2DD" offset="0.1"/>
<stop stop-color="#6C83BB" offset="0.71"/>
<stop stop-color="#003D6D" offset="0.99"/>
</linearGradient>
<path d="M40.36,7.038c0.076,0.156,0.33,0.194,0.863,0.025c0.393-0.034,1.421-0.927,1.957-0.747 c0.539,0.178,0.979-0.182,1.479-0.503c1.04,0.092,2.147-0.822,2.36-0.822c0.215,0,1.021,0.148,1.201-0.137 c0,0,1.951,0.459,3.733,0.076c-1.33-0.304-2.714-0.465-4.135-0.465c-1.83,0-3.599,0.268-5.269,0.762 C42.087,5.678,41.586,6.288,40.36,7.038z" fill="url(#_15)"/>
<radialGradient id="_16" gradientUnits="userSpaceOnUse" cx="49.07" cy="15.52" r="24.17">
<stop stop-color="#A2C2DD" offset="0.1"/>
<stop stop-color="#6C83BB" offset="0.71"/>
<stop stop-color="#003D6D" offset="0.99"/>
</radialGradient>
<path d="M35.86,9.528c0-0.333,0.546-0.498,0.546-0.498l0.071,0.261l0.498,0.214c0,0,0.594-0.641,0.713-0.808 c0.116-0.165,0.331-0.806,0.331-0.806l1.036-1.222c-2.325,1.254-4.352,2.99-5.945,5.076C33.749,11.24,35.86,9.861,35.86,9.528z" fill="url(#_16)"/>
<radialGradient id="_17" gradientUnits="userSpaceOnUse" cx="46.03" cy="8.04" r="4.07">
<stop stop-color="#A2C2DD" offset="0.1"/>
<stop stop-color="#6C83BB" offset="0.71"/>
<stop stop-color="#003D6D" offset="0.99"/>
</radialGradient>
<path d="M45.65,6.6c0.234-0.045,0.768-0.295,0.768-0.295s-0.267-0.113-0.568-0.068 c-0.299,0.046-0.731-0.181-0.967-0.068C45.081,6.418,45.416,6.645,45.65,6.6z" fill="url(#_17)"/>
<linearGradient id="_18" gradientUnits="userSpaceOnUse" x1="42.25" y1="5.04" x2="56.91" y2="52.17">
<stop stop-color="#A2C2DD" offset="0.1"/>
<stop stop-color="#6C83BB" offset="0.71"/>
<stop stop-color="#003D6D" offset="0.99"/>
</linearGradient>
<path d="M70.442,40.96l-0.011-4.05l-1.975-0.535l-0.154-0.908l1.553-0.646l-1.793-3.978L66.5,31.332 L66,30.874l1.077-1.812l-1.239-0.864c0.481-1.661,0.754-3.412,0.754-5.228c0-10.366-8.404-18.771-18.771-18.771 c-10.367,0-18.77,8.404-18.77,18.771c0,9.215,6.647,16.865,15.406,18.452l2.387,5.137l1.92-1.188l0.547,0.567l-1.162,2.121 l3.352,2.564l1.75-0.958l0.031,1.685l3.916,0.321l1.511-0.923l0.325,0.762l3.348-1.749l4.536-2.846l-0.167-0.292l1.104-0.443 l1.934-3.285l-0.869-1.188L70.442,40.96z M59.5,44.875c-1.688,0.932-5.154-2.383-6.545-3.863c2.915-0.828,5.533-2.341,7.686-4.355 C60.928,38.811,61.111,43.984,59.5,44.875z" fill="url(#_18)"/>
<radialGradient id="_19" gradientUnits="userSpaceOnUse" cx="51.47" cy="11.04" r="34.24">
<stop stop-color="#FFFFFF" offset="0"/>
<stop stop-color="#A2C2DD" offset="0.53"/>
<stop stop-color="#6C83BB" offset="0.87"/>
<stop stop-color="#003D6D" offset="1"/>
</radialGradient>
<circle cx="47.821" cy="22.971" fill="url(#_19)" r="18.504"/>
<path d="M62.656,28.855l-0.604,0.958c0,0-0.906,0.285-0.94,0.57c-0.017,0.121-0.698,1.635-0.698,1.635 s-0.268,0.844,0.499,0.594C62.508,32.09,63.549,28.677,62.656,28.855z" fill="url(#_16)"/>
<path d="M33.844,30.738c0.262,0,0.935,0.082,1.016-0.164c0.006-0.105,0.1-2.636,0.1-2.636l1.008-1.341V25.53 l-2.622-1.697l-1.138-1.232c0,0.004-0.441-1.331-0.854-1.708c-0.346-0.315-0.32-1.008-0.688-1.519 c-0.333-0.462-0.602-0.721-0.815-0.824c-1.691,6.849,0.931,12.671,3.387,15.812c0.352-0.504,0.63-1.063,0.846-1.561 C34.303,32.291,32.966,31.568,33.844,30.738z" fill="url(#_16)"/>
<radialGradient id="_22" gradientUnits="userSpaceOnUse" cx="51.8" cy="11.18" r="18.59">
<stop stop-color="#FFFFFF" offset="0"/>
<stop stop-color="#A2C2DD" offset="0.35"/>
<stop stop-color="#6C83BB" offset="0.7"/>
<stop stop-color="#003D6D" offset="1"/>
</radialGradient>
<path d="M56.342,6.542c-0.568,0.16-1.035,0.281-1.146,0.281c-0.322,0-0.235-0.272-0.522-0.309 C54.387,6.479,52,5.862,51.68,6.183c-0.321,0.322-1.58,0.651-1.867,0.688c-0.284,0.036,0.096,0.902,0.854,1.447 c-0.104,0.107-1.804,1.047-1.804,0.403c0-0.644-0.331-1.115-0.854-1.305c-0.476,0.118-1.021,0.616-0.262,1.305 c0.475,0.428,0.004,0.485-0.027,0.609c-0.143,0.518,1.135,1.021,0.524,1.401c-0.571,0.051-1.083-0.054-1.181-0.107 c-0.898-0.505-1.104,1.495-1.104,1.495l0.982,0.485l-1.641,1.598c0,0-2.406,1.67-2.442,1.886c-0.036,0.214-1.068,2.984-0.711,3.808 c0.359,0.824,2.211,3.041,3.068,3.111c1.119,0.091,4.357-0.556,4.357-0.556c0.07,0.18,0.4,0.896,1.99,1.192 c0.059,0.01-0.687,1.434-0.25,2.046c0.951,1.328,0.904,3.315,0.904,3.315l7.406-1.754l2.375-3l1.25-2.875l-1.875,0.25l-0.083-1.73 l-1.139-2.136l-1.14-1.731l0.143-0.356l2.467,3.357c0.227,0.652,0.38,0.953,0.559,1.72c1.408-0.341,2.625-2.178,2.057-3.672 c-0.025-0.027-0.377,0.043-0.895,0.007c-0.8-0.582-1.279-1.812-1.279-1.812l1.813,1.526l0.891,0.071l0.563,1.115 c0.159,0.104,0.268,0.174,0.268,0.174s0.037,0.005,0.099,0.007C64.338,13.11,60.895,8.908,56.342,6.542z M52.395,7.278 c-0.149-0.38,0.438-0.522,0.438-0.522s0.585,0.85,0.491,1.41c-0.094,0.556-0.711,0.216-0.896,0.049 C52.242,8.051,52.541,7.659,52.395,7.278z M57.719,14.404c-0.607,0-1.453-0.002-1.974-0.358c-0.519-0.357-0.703,0.153-1.049,0.512 c-0.224,0.232-2.554-0.92-2.554-0.92l-0.344-1.002l-2.125-0.143l-1.355,0.404l-1.32-0.208l1.465-0.522c0,0,1.053-0.988,1.432-1.311 c0.32-0.272,1.602-0.106,1.602-0.106l1.465,1.173c0,0-0.101,0.535-0.234,0.713c0.535-0.036,0.937-0.723,0.937-0.723 c-1.188-1.044-1.183-1.297-1.183-1.297l1.527,0.862l0.108,0.444c0,0,0.608,1.048,1.194,1.092c0.25,0.019,0.045-0.984,0.045-0.984 l0.313-0.044c0.613,1.421,2.778,1.279,3.176,1.611C58.864,15.07,57.973,14.476,57.719,14.404z M58.124,11.868 c-0.545-0.214-1.104-0.108-1.104-0.108c-0.123,0.241-1-0.007-0.823-0.541c0.175-0.534,0.75-0.113,1.014-0.403 c0.267-0.291,0.64-0.484,0.812-0.209c-0.198,0.263,0.176,0.47,0.437,0.61C59.188,11.611,59.668,12.179,58.124,11.868z M61.141,13.174c-0.273-0.244-0.098-0.533-0.512-0.922c-0.596-0.555-0.923-0.795-0.578-1.403c0.582-0.277,0.235,0.372,0.455,0.682 c0.116,0.165,0.641,0.688,1.139,1.359C62.059,13.448,61.416,13.419,61.141,13.174z" fill="url(#_22)"/>
<path d="M13.257,34.175c-2.879,0-6.823,0.685-7.823,6.593l-0.15,0.894c0,0,6.635,0,7.422,0 c0.238,0.428,0.592,1.065,0.818,1.475c-0.228,0.408-0.58,1.048-0.818,1.474c-0.787,0-7.422,0-7.422,0l0.15,0.894 c1,5.907,4.944,6.593,7.823,6.593c2.271,0,4.293-1.904,5.92-3.439c0.88-0.824,1.707-1.604,2.146-1.604H41.64l0.226-0.25 c0.438-0.479,1.452-1.791,1.476-3.631v-0.063c-0.021-1.842-1.035-3.15-1.476-3.633l-0.226-0.248H21.323 c-0.439,0-1.269-0.779-2.146-1.604C17.55,36.082,15.527,34.175,13.257,34.175z" fill="#FFFFFF"/>
<linearGradient id="_23" gradientUnits="userSpaceOnUse" x1="11.87" y1="29.37" x2="33.77" y2="55.72">
<stop stop-color="#E6EDF3" offset="0"/>
<stop stop-color="#CABAD7" offset="0.12"/>
<stop stop-color="#AB7EB8" offset="0.27"/>
<stop stop-color="#9759A4" offset="0.38"/>
<stop stop-color="#8F4B9C" offset="0.44"/>
<stop stop-color="#73357C" offset="0.57"/>
<stop stop-color="#551D5A" offset="0.72"/>
<stop stop-color="#430E45" offset="0.85"/>
<stop stop-color="#3C093D" offset="0.94"/>
</linearGradient>
<path d="M42.577,43.134c0-0.01,0.004-0.016,0.004-0.022h-0.006c-0.019-1.603-0.937-2.758-1.271-3.127 c-0.431,0-19.98,0-19.98,0c-0.744,0-1.551-0.762-2.672-1.813c-1.525-1.438-3.426-3.229-5.396-3.229 c-3.194,0-6.221,0.938-7.067,5.955c1.201,0,6.967,0,6.967,0l1.238,2.237l-1.238,2.236c0,0-5.766,0-6.967,0 c0.848,5.019,3.873,5.954,7.067,5.954c1.97,0,3.869-1.791,5.396-3.229c1.121-1.054,1.928-1.814,2.672-1.814c0,0,19.551,0,19.98,0 c0.336-0.368,1.254-1.524,1.271-3.127h0.006C42.581,43.148,42.577,43.143,42.577,43.134z" fill="url(#_23)"/>
<linearGradient id="_24" gradientUnits="userSpaceOnUse" x1="60.04" y1="44.95" x2="53.21" y2="38.72">
<stop stop-color="#E2E6E4" offset="0"/>
<stop stop-color="#A3740A" offset="1"/>
</linearGradient>
<path d="M54.133,33.221c-3.443,4.688,0.641,10.813,5.01,10.975C52.123,50.094,44.469,35.391,54.133,33.221z" fill="url(#_24)"/>
<linearGradient id="_25" gradientUnits="userSpaceOnUse" x1="62.84" y1="23.85" x2="43.12" y2="35.85">
<stop stop-color="#E2E6E4" offset="0"/>
<stop stop-color="#A3740A" offset="1"/>
</linearGradient>
<path d="M48.047,36.475l0.84-2.887l-4.447,2.348L48.047,36.475z M46.619,30.537l3.318,2.462l-0.868-3.747 L46.619,30.537z M55.09,25.662l-3.949,1.687l0.926,3.254l4.693-2.799L55.09,25.662z" fill="url(#_25)"/>
<linearGradient id="_26" gradientUnits="userSpaceOnUse" x1="66.67" y1="38.97" x2="43.57" y2="37.88">
<stop stop-color="#E2E6E4" offset="0"/>
<stop stop-color="#A3740A" offset="1"/>
</linearGradient>
<path d="M51.542,50.199l4.292-2.658l-3.205,0.605L51.542,50.199z M56.988,51.357l3.007-1.852l-3.003-1.331 L56.988,51.357z M69.43,42.926l-1.682-2.023l-2.749,1.545l-1.487-0.225l-2.758,4.295l1.426,2.906l4.266-2.588l-0.784-1.471 L69.43,42.926z M61.624,34.622l5.021-2.455l-1.17-1.293l1.063-1.723l-4.261,1.813l-1.611,2.628L61.624,34.622z M56.588,32.025 l4.748-4.021l-0.205-2.13l-4.281,1.752C56.85,27.626,56.456,31.941,56.588,32.025z M66.196,38.814l3.885-1.719L68.079,36.6l0,0 c0-0.021-0.159-1.223-0.219-1.354l-6.894,3.256L66.196,38.814z" fill="url(#_26)"/>
<linearGradient id="_27" gradientUnits="userSpaceOnUse" x1="57.18" y1="26.83" x2="79.43" y2="59.43">
<stop stop-color="#E2E6E4" offset="0"/>
<stop stop-color="#A3740A" offset="1"/>
</linearGradient>
<path d="M57.209,25.501l-3.921,1.529l3.55,0.592l4.313-1.761L57.209,25.501z M63.465,26.814l-4.299,1.779 l3.109,2.368l4.263-1.828L63.465,26.814z M66.196,38.807l-0.045,3.813l3.913-1.908l0.017-3.614L66.196,38.807z M63.749,47.865 l3.872-2.037l1.803-2.903l-3.889,1.964L63.749,47.865z M65.628,36.434l3.786-1.779l-1.541-3.414l-4.004,1.689L65.628,36.434z" fill="url(#_27)"/>
<linearGradient id="_28" gradientUnits="userSpaceOnUse" x1="48.33" y1="19.58" x2="58.16" y2="46.98">
<stop stop-color="#E2E6E4" offset="0"/>
<stop stop-color="#A3740A" offset="1"/>
</linearGradient>
<path d="M66.198,38.809l-0.047,3.824l-2.45-0.285l-0.266,0.977l2.098,1.55l-1.803,3.024l-2.024-1.506 l-0.676,0.698l1.147,2.347l-2.985,1.559l-1.121-2.297l-1.073,0.223l-0.012,2.448l-3.377-0.339l-0.035-2.463l-0.939-0.414 l-1.093,2.031l-2.962-2.217l1.072-2.05l-0.809-0.953l-1.832,1.032l-1.773-3.553l1.861-1.041l-0.256-1.188l-2.277-0.301l-0.127-3.986 l2.295,0.322l0.191-1.113l-1.961-1.602l1.655-3.01l1.922,1.439l0.792-0.756l-1.181-2.269l2.985-1.6l1.229,2.415l0.955-0.17 l-0.032-2.555l3.557,0.586l0.031,2.522l1.117,0.508l1.178-2.062l3.104,2.366l-1.225,2.086l0.701,0.895l2.118-1.012l1.789,3.494 l-2.153,1.042l0.219,1.035L66.198,38.809z M52.982,33.568c-2.766,0.935-3.98,4.385-2.732,7.664c1.234,3.252,4.43,5.02,7.158,3.992 c2.729-1.013,3.995-4.359,2.802-7.52C59.002,34.52,55.758,32.65,52.982,33.568z" fill="url(#_28)"/>
</svg>