<?xml version="1.0" encoding="utf-8"?>
<!-- Generator: Adobe Illustrator 12.0.0, SVG Export Plug-In . SVG Version: 6.00 Build 51448) -->
<!DOCTYPE svg PUBLIC "-//W3C//DTD SVG 1.1//EN" "http://www.w3.org/Graphics/SVG/1.1/DTD/svg11.dtd" [
<!ENTITY ns_svg "http://www.w3.org/2000/svg">
<!ENTITY ns_xlink "http://www.w3.org/1999/xlink">
]>
<svg version="1.1" id="Layer_1" xmlns="&ns_svg;" xmlns:xlink="&ns_xlink;" width="34" height="26" viewBox="-0.5 0.509 34 26"
 overflow="visible" enable-background="new -0.5 0.509 34 26" xml:space="preserve">
<g>
<g>
<g>
<linearGradient id="XMLID_6_" gradientUnits="userSpaceOnUse" x1="16.5005" y1="41.2588" x2="16.5005" y2="0.1346">
<stop offset="0" style="stop-color:#698AB5"/>
<stop offset="0.7131" style="stop-color:#41628E"/>
<stop offset="1" style="stop-color:#385985"/>
</linearGradient>
<path fill="url(#XMLID_6_)" d="M1.759,25.509H31.24c0.694,0,1.26-0.565,1.26-1.26V0.509h-32v23.74
C0.5,24.943,1.064,25.509,1.759,25.509z"/>
</g>
<linearGradient id="XMLID_7_" gradientUnits="userSpaceOnUse" x1="16.5" y1="30.2588" x2="16.5" y2="-14.6162">
<stop offset="0" style="stop-color:#698AB5"/>
<stop offset="0.7131" style="stop-color:#41628E"/>
<stop offset="1" style="stop-color:#385985"/>
</linearGradient>
<path fill="url(#XMLID_7_)" d="M32.5,24.249c0,0.694-0.565,1.26-1.26,1.26H1.759c-0.694,0-1.259-0.565-1.259-1.26V0.509h-1v23.74
c0,1.246,1.014,2.26,2.259,2.26H31.24c1.246,0,2.26-1.014,2.26-2.26V0.509h-1V24.249z"/>
<g opacity="0.9">
<linearGradient id="XMLID_8_" gradientUnits="userSpaceOnUse" x1="16.4995" y1="-2.6162" x2="16.4995" y2="42.2597">
<stop offset="0" style="stop-color:#6694BF"/>
<stop offset="0.0899" style="stop-color:#8CB3D2"/>
<stop offset="0.3652" style="stop-color:#B3D3E6"/>
<stop offset="0.691" style="stop-color:#BDDBEB"/>
</linearGradient>
<path fill="url(#XMLID_8_)" d="M1.759,25.509H31.24c0.694,0,1.26-0.565,1.26-1.26V0.509h-32v23.74
C0.5,24.943,1.064,25.509,1.759,25.509z"/>
</g>
<linearGradient id="XMLID_9_" gradientUnits="userSpaceOnUse" x1="16.6914" y1="31.7588" x2="16.6914" y2="-33.7412">
<stop offset="0" style="stop-color:#DBF5FF"/>
<stop offset="1" style="stop-color:#5985B0"/>
</linearGradient>
<path fill="url(#XMLID_9_)" d="M1.501,24.508l-0.619,0.623c0.243,0.252,0.529,0.377,0.878,0.377h29.481
c0.694,0,1.259-0.564,1.259-1.259V0.509h-1c0,11.805,0,23.612,0,23.999C30.762,24.508,1.501,24.508,1.501,24.508z"/>
<polygon fill="#496DA2" points="23.43,8.634 9.57,8.634 16.5,17.874 "/>
<linearGradient id="XMLID_10_" gradientUnits="userSpaceOnUse" x1="16.3086" y1="33.1338" x2="16.3086" y2="0.1338">
<stop offset="0" style="stop-color:#ADCCED"/>
<stop offset="1" style="stop-color:#6385AD"/>
</linearGradient>
<path fill="url(#XMLID_10_)" d="M0.872,25.132C0.875,25.145,1.5,24.504,1.5,24.504V1.509h29.999l0.619-0.623
c-0.243-0.252-0.529-0.377-0.878-0.377H1.5h-1v23.75C0.5,24.604,0.643,24.911,0.872,25.132z"/>
</g>
<rect x="-0.5" y="0.509" fill="none" width="34" height="26"/>
</g>
</svg>
