<?xml version="1.0" encoding="UTF-8" standalone="no"?>
<!DOCTYPE svg PUBLIC "-//W3C//DTD SVG 1.1 Tiny//EN" "http://www.w3.org/Graphics/SVG/1.1/DTD/svg11-tiny.dtd">
<svg xmlns="http://www.w3.org/2000/svg" xmlns:xlink="http://www.w3.org/1999/xlink" width="42" height="29" viewBox="0 0 42 29">
<rect fill="none" height="29" width="42"/>
<linearGradient id="SVGID_1" gradientUnits="userSpaceOnUse" x1="21.18" y1="13.16" x2="26.78" y2="24.18">
<stop stop-color="#A2C2DD" offset="0.1"/>
<stop stop-color="#6C83BB" offset="0.71"/>
<stop stop-color="#003D6D" offset="0.99"/>
</linearGradient>
<path d="M11.249,4.851C5.534,10.714,9.7,19.597,16.557,20.675c-0.278,0.745-0.62,1.61-0.766,2.907 l0.212,0.998c1.306,1.422,3.625,2.219,5.074,2.408c2.41-1.564,3.837-3.932,4.193-5.137c0.188-1.752-0.01-3.051-0.102-3.68 c0.145-0.138,2.561-2.428,2.807-2.663c0.651,0.466,1.769,1.046,2.858,1.317c0.777-0.252,2.279-2.016,2.472-2.679 c0.565-1.953-0.813-3.819-1.223-4.291c-0.875-0.433-1.454-0.584-2.549-0.716c-1.053,0.456-1.543,0.732-2.237,1.137 C26.398,2.381,16.701-0.744,11.249,4.851z" fill="url(#SVGID_1)"/>
<radialGradient id="SVGID_2" gradientUnits="userSpaceOnUse" cx="19.79" cy="5.52" r="16.95">
<stop stop-color="#FFFFFF" offset="0"/>
<stop stop-color="#A2C2DD" offset="0.53"/>
<stop stop-color="#6C83BB" offset="0.87"/>
<stop stop-color="#003D6D" offset="1"/>
</radialGradient>
<path d="M27.148,11.411l-9.166,9.167c-7.702,0-12.388-9.59-6.565-15.564 C17.02-0.734,27.148,3.06,27.148,11.411z" fill="url(#SVGID_2)"/>
<radialGradient id="SVGID_3" gradientUnits="userSpaceOnUse" cx="18.62" cy="7.7" r="11.92">
<stop stop-color="#A2C2DD" offset="0.1"/>
<stop stop-color="#6C83BB" offset="0.71"/>
<stop stop-color="#003D6D" offset="0.99"/>
</radialGradient>
<path d="M14.714,3.531c1.348-0.761,1.02-0.028,1.703-0.619c0.516,0.046,1.063-0.407,1.169-0.407 c0.106,0,0.506,0.074,0.595-0.068c0,0,0.967,0.228,1.85,0.038c-1.512-0.345-3.084-0.318-4.657,0.146 C15.214,2.983,13.671,3.773,14.714,3.531z" fill="url(#SVGID_3)"/>
<path d="M11.059,15.258c0.685,0.102,0.55-0.15,0.553-1.386c0.459-0.808,0.575-0.191,0.499-1.194 c-1.456-0.835-1.862-1.451-1.862-1.451c0,0.002-0.854-2.037-1.168-2.007c-0.838,3.393,0.461,6.275,1.678,7.832 c0.175-0.248,0.312-0.525,0.419-0.771C11.286,16.027,10.623,15.67,11.059,15.258z" fill="url(#SVGID_3)"/>
<path d="M12.057,4.752c0.014-0.455,0.51,0.024,0.553-0.012c0.56-0.466,1.03-1.404,1.03-1.404 c-1.151,0.621-2.155,1.482-2.944,2.515C11.011,5.6,12.053,4.916,12.057,4.752z" fill="url(#SVGID_3)"/>
<radialGradient id="SVGID_6" gradientUnits="userSpaceOnUse" cx="17.1" cy="4.07" r="2.12">
<stop stop-color="#A2C2DD" offset="0.1"/>
<stop stop-color="#6C83BB" offset="0.71"/>
<stop stop-color="#003D6D" offset="0.99"/>
</radialGradient>
<path d="M17.288,3.155c0,0-0.646-0.123-0.763-0.067C16.89,3.541,16.964,3.182,17.288,3.155z" fill="url(#SVGID_6)"/>
<radialGradient id="SVGID_7" gradientUnits="userSpaceOnUse" cx="19.95" cy="5.99" r="10.15">
<stop stop-color="#E6EEF4" offset="0"/>
<stop stop-color="#4A9900" offset="0.44"/>
<stop stop-color="#0E4E58" offset="0.94"/>
</radialGradient>
<path d="M25.566,11.754c0.27-0.481,0.587-1.462,0.054-1.267l-0.553,0.088 c-0.032-0.288-0.094-0.406-0.412-0.688c-0.265-0.658-1.127-1.915-1.127-1.915l0.07-0.176l1.223,1.663 c0.11,0.323,0.188,0.473,0.275,0.852c0.697-0.168,1.301-1.078,1.019-1.819c-0.014-0.014-0.442,0.004-0.442,0.004 c-0.396-0.289-0.635-0.898-0.635-0.898s0.721,0.764,1.339,0.792c0.229,0.628,0.43,0.642,0.459,0.642 c-0.672-2.506-2.377-4.586-4.632-5.758C21.498,3.6,21.519,3.277,21.377,3.26c-0.142-0.019-1.299-0.292-1.484-0.165 c-0.593,0.407-1.614,0.099-0.502,1.057c-0.053,0.054-0.854,0.517-0.893,0.2c-0.123-1.004-1.106-0.58-0.553,0 c0.219,0.228-0.026,0.239-0.015,0.301c0.058,0.333,0.927,0.913-0.323,0.642c-0.499-0.108-0.547,0.74-0.547,0.74 s0.356,0.193,0.486,0.24c-0.75,0.854-1.104,0.949-2.022,1.725c0,0-0.529,1.479-0.353,1.886 c1.39,1.463,0.563,1.912,3.679,1.267c0.036,0.088,0.393,0.505,0.987,0.59c-0.637,1.39,0.726,1.36,0.323,2.655 c-0.705,0.959,0.027,1.152,0.065,1.827L25.566,11.754z M24.266,5.744c0.058,0.082,1.146,1.191,0.315,0.814 c-0.137-0.121-0.048-0.265-0.254-0.457C23.657,5.643,24.217,4.93,24.266,5.744z M22.633,5.39 c0.131-0.145,0.316-0.241,0.402-0.104c-0.1,0.13,0.085,0.233,0.214,0.301c0.598,0.323,0.485,0.46-0.711,0.27 C22.424,5.971,21.595,5.546,22.633,5.39z M20.465,3.378c0.186,0.145,0.552,1.205-0.202,0.723 C20.322,3.889,20.053,3.484,20.465,3.378z M20.124,6.788l-0.172-0.497c0,0-0.892-0.09-1.052-0.07 c-0.621,0.328-1.326,0.097-1.326,0.097s0.705-0.097,1.435-0.908c1.084-0.22,0.757,0.041,1.52,0.528 c-0.219,0.252-0.241,0.665,0.346-0.005L20.29,5.291l0.755,0.427c0.286,0.907,0.852,0.95,0.67,0.273l0.153-0.021 c0.305,0.705,1.377,0.634,1.573,0.799c0.062,0.957-0.863,0.224-1.533,0.221c-0.257-0.177-0.348,0.076-0.52,0.254 C21.277,7.359,20.124,6.788,20.124,6.788z" fill="url(#SVGID_7)"/>
<linearGradient id="SVGID_8" gradientUnits="userSpaceOnUse" x1="36.63" y1="10.44" x2="25.78" y2="18.6">
<stop stop-color="#FFFFFF" offset="0"/>
<stop stop-color="#A2C2DD" offset="0.35"/>
<stop stop-color="#6C83BB" offset="0.7"/>
<stop stop-color="#003D6D" offset="1"/>
</linearGradient>
<path d="M33.192,12.882L28.271,14.9l-0.315,0.301c0.475,0.412,1.934,1.174,2.859,1.383 c0.792-0.338,2.141-1.982,2.271-2.5C33.229,13.505,33.238,13.175,33.192,12.882z" fill="url(#SVGID_8)"/>
<linearGradient id="SVGID_9" gradientUnits="userSpaceOnUse" x1="33.67" y1="14.57" x2="26.05" y2="13.95">
<stop stop-color="#FFFFFF" offset="0"/>
<stop stop-color="#A2C2DD" offset="0.35"/>
<stop stop-color="#6C83BB" offset="0.7"/>
<stop stop-color="#003D6D" offset="1"/>
</linearGradient>
<path d="M30.307,12.574l-2.165,2.233c0.864,0.604,1.902,1.058,2.614,1.252L30.307,12.574z" fill="url(#SVGID_9)"/>
<linearGradient id="SVGID_10" gradientUnits="userSpaceOnUse" x1="34.33" y1="20.56" x2="13.57" y2="26.31">
<stop stop-color="#FFFFFF" offset="0"/>
<stop stop-color="#A2C2DD" offset="0.35"/>
<stop stop-color="#6C83BB" offset="0.7"/>
<stop stop-color="#003D6D" offset="1"/>
</linearGradient>
<path d="M25.131,20.609l-9.092,2.962l0.181,0.903c0,0,1.505,1.715,4.808,2.271 c2.208-1.478,3.634-3.63,4.018-4.938L25.131,20.609z" fill="url(#SVGID_10)"/>
<linearGradient id="SVGID_11" gradientUnits="userSpaceOnUse" x1="24.9" y1="28.82" x2="13.31" y2="16.9">
<stop stop-color="#FFFFFF" offset="0"/>
<stop stop-color="#A2C2DD" offset="0.35"/>
<stop stop-color="#6C83BB" offset="0.7"/>
<stop stop-color="#003D6D" offset="1"/>
</linearGradient>
<path d="M16.028,23.571c0.229-2.136,1.336-4.081,1.336-4.081l3.354,1.143l0.095,5.249 C18.241,25.497,16.86,24.382,16.028,23.571z" fill="url(#SVGID_11)"/>
<linearGradient id="SVGID_12" gradientUnits="userSpaceOnUse" x1="34.65" y1="11.23" x2="12.28" y2="20.19">
<stop stop-color="#FFFFFF" offset="0.05"/>
<stop stop-color="#A2C2DD" offset="1"/>
</linearGradient>
<path d="M17.364,19.49c0.506,0.479,1.875,1.352,3.301,1.227l11.279-10.673 c-0.983-0.546-2.371-0.666-2.371-0.666C25.736,10.996,20.747,15.004,17.364,19.49z" fill="url(#SVGID_12)"/>
<linearGradient id="SVGID_13" gradientUnits="userSpaceOnUse" x1="37.22" y1="3.72" x2="24.1" y2="20.62">
<stop stop-color="#FFFFFF" offset="0.05"/>
<stop stop-color="#A2C2DD" offset="1"/>
</linearGradient>
<path d="M20.813,25.882c-0.292-1.084-0.413-3.976-0.145-5.198c3.089-4.521,7.537-8.559,11.256-10.66 c0,0,1.05,1.094,1.271,2.852c-0.26,1.11-1.548,2.52-2.441,3.178c-0.118-0.269-0.524-3.289-0.524-3.289 c-1.026,1.344-2.647,2.806-5.303,5.319c0.176,0.934,0.204,2.513,0.204,2.513C24.279,22.651,22.766,24.665,20.813,25.882z" fill="url(#SVGID_13)"/>
</svg>