<?xml version="1.0" encoding="utf-8"?>
<!DOCTYPE svg PUBLIC "-//W3C//DTD SVG 1.1 Tiny//EN" "http://www.w3.org/Graphics/SVG/1.1/DTD/svg11-tiny.dtd">
<svg width="100%" height="100%" viewBox="0 0 88 88">
<linearGradient id="_10" gradientUnits="userSpaceOnUse" x1="32.3" y1="29.94" x2="55.47" y2="57.79">
<stop stop-color="#DEE9F3" offset="0"/>
<stop stop-color="#235487" offset="1"/>
</linearGradient>
<circle fill="url(#_10)" cx="44" cy="44" r="30.996"/>
<radialGradient id="_11" gradientUnits="userSpaceOnUse" cx="49.9" cy="24.72" r="55.32">
<stop stop-color="#FFFFFF" offset="0"/>
<stop stop-color="#A2C2DD" offset="0.53"/>
<stop stop-color="#6C83BB" offset="0.87"/>
<stop stop-color="#003D6D" offset="1"/>
</radialGradient>
<circle fill="url(#_11)" cx="44" cy="43.998" r="29.9"/>
<radialGradient id="_12" gradientUnits="userSpaceOnUse" cx="50.31" cy="27.77" r="37.63">
<stop stop-color="#E6EEF4" offset="0"/>
<stop stop-color="#C6DCC1" offset="0.08"/>
<stop stop-color="#91C06F" offset="0.21"/>
<stop stop-color="#6BAB33" offset="0.32"/>
<stop stop-color="#539E0E" offset="0.4"/>
<stop stop-color="#4A9900" offset="0.44"/>
<stop stop-color="#398419" offset="0.55"/>
<stop stop-color="#22663B" offset="0.71"/>
<stop stop-color="#135550" offset="0.85"/>
<stop stop-color="#0E4E58" offset="0.94"/>
</radialGradient>
<path fill="url(#_12)" d="M65.932,32.063l-3.233-3.87l0.157-0.319c0,0,1.653,2.287,3.066,3.066c1.596,0.881,1.842,1.968,1.854,2.442c0.01,0.476,2.488,2.083,2.488,2.083s0.198-0.462,0.729,0.01c0.021,0.019,0.422,0.043,0.429,0.066c0.262,1.082,1.094,1.455,1.094,1.455c0.135,0.286,0.418,0.881,0.854,1.403c-0.009-0.045-0.017-0.09-0.022-0.135c-0.084-0.433-0.182-0.862-0.283-1.289c-0.027-0.114-0.051-0.23-0.08-0.344c-0.133-0.525-0.278-1.045-0.438-1.56c-0.006-0.018-0.012-0.034-0.019-0.051c-0.297,0.023-0.531,0.08-0.531,0.08c0.193-0.434-0.148-1.016-0.321-1.708c-0.307-1.227-0.797-0.773-0.758,0.16l-0.249,0.307c-0.816-0.701-1.37-1.847-1.783-3.173c-0.432-1.39-0.025-2.11,0.499-2.485c-0.044-0.071-0.091-0.141-0.136-0.212c-0.387-0.608-0.79-1.205-1.219-1.783c-0.022-0.031-0.043-0.063-0.065-0.093c-0.44-0.589-0.909-1.156-1.392-1.711c-0.092-0.105-0.182-0.213-0.274-0.317c-0.468-0.523-0.955-1.027-1.458-1.517c-0.115-0.112-0.232-0.224-0.352-0.334c-0.512-0.482-1.036-0.949-1.581-1.395c-0.103-0.083-0.207-0.162-0.312-0.244c-0.525-0.418-1.063-0.821-1.617-1.204c-0.078-0.053-0.152-0.111-0.23-0.164c-0.588-0.399-1.196-0.77-1.813-1.127c-0.145-0.083-0.287-0.167-0.432-0.248c-0.605-0.336-1.225-0.651-1.854-0.946c-0.157-0.073-0.315-0.144-0.476-0.214c-0.647-0.289-1.304-0.562-1.976-0.805c-0.043-0.016-0.088-0.029-0.133-0.044c-1.053-0.122-2.033-0.257-2.557-0.391c-2.509-0.64-2.683,0.153-1.688,0.076c0.418-0.032,1.074,0.46,1.074,0.46l-7.639-0.157l0.405-0.284c0,0,3.399,0.212,5.163-0.555c-0.663-0.276-1.479-0.59-1.887-0.745c-0.967-0.095-1.946-0.146-2.938-0.146c-1.027,0-2.042,0.052-3.042,0.153c-0.023,0.002-0.045,0.005-0.068,0.008c-0.46,0.048-0.917,0.106-1.372,0.174c-0.078,0.012-0.156,0.026-0.234,0.038c-0.396,0.063-0.791,0.133-1.182,0.211c-0.108,0.021-0.216,0.045-0.323,0.068c-0.36,0.076-0.717,0.158-1.072,0.248c-0.124,0.031-0.246,0.063-0.369,0.095c-0.339,0.09-0.676,0.186-1.01,0.287c-0.127,0.038-0.254,0.077-0.38,0.117c-0.333,0.106-0.663,0.218-0.991,0.335c-0.118,0.042-0.237,0.083-0.354,0.126c-0.095,0.035-0.188,0.075-0.283,0.112l-0.134,0.604l-1.832,0.229c-0.073,0.034-0.147,0.063-0.22,0.099c-0.167,0.08-0.331,0.166-0.497,0.249c-0.282,0.141-0.565,0.282-0.842,0.431c-0.122,0.066-0.241,0.138-0.362,0.206c-1.203,0.672-2.355,1.423-3.448,2.25c-2.461,2.047-4.576,4.422-6.295,6.465c-0.059,0.082-0.117,0.164-0.175,0.247c1.561-0.608,5.166-4.74,5.622-5.498c1.61-1.687,3.68-1.533,3.68-1.533c-0.921,0.662,2.413-1.322,1.61-0.613c-1.145,1.011-2.236,1.956-2.99,2.913l0.307,0.076c0,0,2.07-0.767,3.45-2.606c1.227-0.307,2.606-0.383,2.606-0.383s0.98-0.478,2.837-1.534c2.99-0.536,3.373-1.149-0.384-0.843l-1.993-0.153c1.15-0.613,8.025-0.722,8.025-0.722l-2.658,1.182l0.536,0.384l-0.46,1.149c0,0,0.767,0,2.65-0.286c0.892-0.136-1.384,1.218-1.384,1.218l0.475,0.088c0,0,0.468-0.079,2.409-1.354l1.906-0.201c2.799,0.082,4.233,0.285,5.215,0.996c2.416,1.773,4.682,2.192,5.014,3.033c0.394,1.438,1.043,2.334,2.576,3.637c0.793,1.003,2.14,1.438,2.895,1.714c0.93,1.964,2.764,3.164,3.461,3.721C65.699,32.401,65.932,32.063,65.932,32.063z"/>
</svg>