<?xml version="1.0" encoding="UTF-8"?>
<!DOCTYPE svg PUBLIC "-//W3C//DTD SVG 1.1 Tiny//EN" "http://www.w3.org/Graphics/SVG/1.1/DTD/svg11-tiny.dtd">
<svg width="43.939" height="43.945" viewBox="0 0 43.939 43.945">
<radialGradient id="_2" gradientUnits="userSpaceOnUse" cx="16.44" cy="-0.6" r="42.28">
<stop stop-color="#E6EEF4" offset="0"/>
<stop stop-color="#C6DCC1" offset="0.08"/>
<stop stop-color="#91C06F" offset="0.21"/>
<stop stop-color="#6BAB33" offset="0.32"/>
<stop stop-color="#539E0E" offset="0.4"/>
<stop stop-color="#4A9900" offset="0.44"/>
<stop stop-color="#398419" offset="0.56"/>
<stop stop-color="#22663B" offset="0.75"/>
<stop stop-color="#135550" offset="0.9"/>
<stop stop-color="#0E4E58" offset="1"/>
</radialGradient>
<path d="M35.772,11.706c-0.879-1.321-1.926-2.123-2.635-2.665C31.11,7.492,22.911,5.874,14.435,14.35 c-5.141,5.154-6.588,10.179-6.588,13.781c0,2.328,0.605,4.064,1.205,4.852c0.629,0.817,1.41,1.836,2.74,2.72 c0.393,0.262,1.074,0.496,1.809,0.628l0.168,0.009c1.332-0.085,2.801-1.109,4.764-3.324c0.646-0.73,2.752-3.25,2.752-5.017 c0,0-0.01-0.212-0.012-0.261c-0.016-0.042-0.031-0.086-0.031-0.086c-0.021-0.07-0.248-0.717-1.26-1.516 c-0.627-0.499-1.559-0.851-2.773-1.048l-0.576-0.092l0.004-0.584c0.025-2.921,4.936-7.832,7.844-7.846l0.58-0.002l0.096,0.575 c0.193,1.21,0.545,2.147,1.047,2.78c0.738,0.931,1.365,1.205,1.678,1.296c1.182,0.113,3.123-0.917,5.195-2.75 c2.215-1.956,3.24-3.43,3.326-4.783c0,0,0.004-0.042,0.006-0.084c-0.006-0.039-0.01-0.075-0.01-0.075 C36.325,13.093,36.118,12.227,35.772,11.706z" fill="url(#_2)"/>
</svg>