<?xml version="1.0" encoding="UTF-8" standalone="no"?>
<!DOCTYPE svg PUBLIC "-//W3C//DTD SVG 1.1 Tiny//EN" "http://www.w3.org/Graphics/SVG/1.1/DTD/svg11-tiny.dtd">
<svg xmlns="http://www.w3.org/2000/svg" xmlns:xlink="http://www.w3.org/1999/xlink" baseProfile="tiny" height="32px" version="1.1" viewBox="0 0 38 32" width="38px" x="0px" y="0px">
<g>
<rect fill="none" height="32" width="38" x="0"/>
<path d="M33.83,18.181h-1.194c-0.371,0-0.696,0.257-0.779,0.62l-0.287,1.252l-0.283-1.249   c-0.085-0.366-0.406-0.623-0.781-0.623l-3.402-0.001c-0.467-0.001-0.67,0.358-0.746,0.513c-0.033-0.17-0.283-0.514-0.746-0.513   l-6.291,0.001c-0.371-0.002-0.793,0.311-0.8,0.801v0.816c0.038,0.412,0.288,0.787,0.8,0.801h0.63v4.372   c-0.001,0.552,0.452,0.771,0.8,0.8H22.1c0.457,0.018,0.832-0.451,0.801-0.8v-4.372h0.553v2.497   c-0.006,1.974,1.229,2.739,2.924,2.74c1.602-0.001,2.867-0.782,2.881-2.717v-0.323l0.612,2.374   c0.091,0.352,0.411,0.601,0.774,0.601H32.2c0.363,0,0.678-0.242,0.772-0.591l1.629-5.989C34.729,18.585,34.26,18.163,33.83,18.181z   " fill-opacity="0.4" stroke-opacity="0.4"/>
<path d="M16.065,15.761c1.243-0.989,1.841-2.484,1.811-4.094c0.141-3.29-2.818-5.562-6.654-5.443   c-3.31-0.076-6.893,1.611-6.805,5.443c-0.032,1.617,0.564,3.096,1.811,4.091c-1.512,1.045-2.211,2.782-2.182,4.556   c-0.071,3.771,3.054,5.938,7.052,5.891c2.042-0.003,3.805-0.461,5.099-1.463C18.766,22.897,19.099,17.689,16.065,15.761z    M10.188,10.546c0.201-0.28,0.363-0.411,0.904-0.431c0.579,0.017,0.758,0.152,0.949,0.409c0.602,1.057,0.273,2.604-0.025,3.027   c-0.219,0.292-0.418,0.431-0.924,0.447c-0.482-0.017-0.665-0.15-0.881-0.447C9.893,13.128,9.596,11.597,10.188,10.546z    M12.196,21.813c-0.239,0.347-0.451,0.513-1.104,0.536c-0.605-0.021-0.819-0.189-1.071-0.558c-0.315-0.476-0.675-2.382,0.005-3.475   c0.237-0.316,0.471-0.478,1.066-0.494c0.964,0.015,1.406,0.655,1.473,2.163C12.569,20.796,12.426,21.453,12.196,21.813z" fill-opacity="0.4" stroke-opacity="0.4"/>
<path d="M23.502,19.818h-1.432v5.171h-1.35v-5.171H19.29V19h4.213V19.818z" fill="#FFFFFF"/>
<path d="M28.428,23.139c0,1.332-0.779,1.916-2.078,1.916c-1.369,0-2.125-0.532-2.125-1.939V19h1.355v4.206   c0,0.714,0.201,1.067,0.75,1.067c0.561,0,0.742-0.336,0.742-1.067V19h1.355V23.139z" fill="#FFFFFF"/>
<path d="M33.799,19l-1.627,5.989h-1.555L29.071,19h1.406l1.061,4.665L32.608,19H33.799z" fill="#FFFFFF"/>
<path d="M11.192,7.043c3.408,0,5.855,1.531,5.855,4.644c0,1.927-0.816,3.409-2.742,4.15   c2.174,0.667,3.088,2.421,3.088,4.496c0,3.335-2.471,5.089-6.324,5.089c-3.779,0-6.25-1.778-6.25-5.089   c0-2.05,0.914-3.804,3.088-4.496c-1.928-0.79-2.719-2.224-2.719-4.15C5.188,8.574,7.733,7.043,11.192,7.043z M11.092,17.022   c-1.605,0-2.248,1.261-2.248,2.965c0,1.705,0.568,3.162,2.248,3.162c1.73,0,2.273-1.384,2.273-3.162   C13.366,18.308,12.625,17.022,11.092,17.022z M11.092,9.315c-1.506,0-2.025,1.21-2.025,2.742c0,1.507,0.594,2.742,2.025,2.742   c1.459,0,2.076-1.211,2.076-2.742C13.168,10.427,12.625,9.315,11.092,9.315z" fill="#FFFFFF"/>
</g>
</svg>
