<?xml version="1.0" encoding="UTF-8"?>
<!DOCTYPE svg PUBLIC "-//W3C//DTD SVG 1.1 Tiny//EN" "http://www.w3.org/Graphics/SVG/1.1/DTD/svg11-tiny.dtd">
<svg width="43.999" height="44" viewBox="0 0 43.999 44">
<linearGradient id="_5" gradientUnits="userSpaceOnUse" x1="26.57" y1="19.85" x2="31.2" y2="19.85">
<stop stop-color="#FFFFFF" offset="0"/>
<stop stop-color="#E0EAF3" offset="0.11"/>
<stop stop-color="#A2C2DD" offset="0.35"/>
<stop stop-color="#8CA9CF" offset="0.48"/>
<stop stop-color="#6C83BB" offset="0.7"/>
<stop stop-color="#637DB5" offset="0.75"/>
<stop stop-color="#4C6EA4" offset="0.82"/>
<stop stop-color="#265689" offset="0.91"/>
<stop stop-color="#003D6D" offset="0.99"/>
</linearGradient>
<path d="M28.417,15.255l-1.822,1.822c1.735,1.733,2.15,3.57,2.001,5.188l2.178,2.182 C31.589,21.68,31.432,18.269,28.417,15.255z" fill="url(#_5)"/>
<linearGradient id="_6" gradientUnits="userSpaceOnUse" x1="31.68" y1="19.9" x2="38.5" y2="19.9">
<stop stop-color="#FFFFFF" offset="0"/>
<stop stop-color="#E0EAF3" offset="0.11"/>
<stop stop-color="#A2C2DD" offset="0.35"/>
<stop stop-color="#8CA9CF" offset="0.48"/>
<stop stop-color="#6C83BB" offset="0.7"/>
<stop stop-color="#637DB5" offset="0.75"/>
<stop stop-color="#4C6EA4" offset="0.82"/>
<stop stop-color="#265689" offset="0.91"/>
<stop stop-color="#003D6D" offset="0.99"/>
</linearGradient>
<path d="M33.505,9.851l-1.822,1.822c5.841,5.841,4.578,12.248,2.69,16.377l1.89,1.892 C38.635,25.188,40.765,17.112,33.505,9.851z" fill="url(#_6)"/>
<linearGradient id="_7" gradientUnits="userSpaceOnUse" x1="11.22" y1="3.41" x2="31.38" y2="20.81">
<stop stop-color="#FFFFFF" offset="0"/>
<stop stop-color="#E0EAF3" offset="0.11"/>
<stop stop-color="#A2C2DD" offset="0.35"/>
<stop stop-color="#8CA9CF" offset="0.48"/>
<stop stop-color="#6C83BB" offset="0.7"/>
<stop stop-color="#637DB5" offset="0.75"/>
<stop stop-color="#4C6EA4" offset="0.82"/>
<stop stop-color="#265689" offset="0.91"/>
<stop stop-color="#003D6D" offset="0.99"/>
</linearGradient>
<polygon fill="url(#_7)" points="19.722,11.67 19.722,13.381 21.943,15.605 21.943,9.724 16.024,9.679 17.999,11.656 "/>
<polygon fill="url(#_7)" points="19.722,32.371 16.439,32.371 12.073,25.103 7.722,25.103 7.722,18.688 11.929,18.688 12.094,18.421 9.981,16.306 5.5,16.306 5.5,27.497 10.714,27.497 14.821,34.331 21.943,34.331 21.943,28.282 19.722,26.058 "/>
<polygon fill="#496DA2" points="5.699,8.481 8.496,5.679 38.301,35.521 35.504,38.321 "/>
</svg>