<?xml version="1.0" encoding="UTF-8"?>
<!DOCTYPE svg PUBLIC "-//W3C//DTD SVG 1.1 Tiny//EN" "http://www.w3.org/Graphics/SVG/1.1/DTD/svg11-tiny.dtd">
<svg baseProfile="tiny" height="69.046" version="1.1" viewBox="-292.282 -53.624 100 69.046" width="100" xmlns="http://www.w3.org/2000/svg" xmlns:xlink="http://www.w3.org/1999/xlink">
<g>
<g>
<linearGradient gradientTransform="matrix(1 0 0 -1 102.52 -106.5967)" gradientUnits="userSpaceOnUse" id="XMLID_113_" x1="-358.3612" x2="-322.2777" y1="-60.9175" y2="-116.5845">
<stop offset="0" style="stop-color:#FFFFFF"/>
<stop offset="0.1142" style="stop-color:#E0EAF3"/>
<stop offset="0.35" style="stop-color:#A2C2DD"/>
<stop offset="0.4825" style="stop-color:#8CA9CF"/>
<stop offset="0.7" style="stop-color:#6C83BB"/>
<stop offset="0.7458" style="stop-color:#637DB5"/>
<stop offset="0.8189" style="stop-color:#4C6EA4"/>
<stop offset="0.9097" style="stop-color:#265689"/>
<stop offset="0.9888" style="stop-color:#003D6D"/>
<stop offset="1" style="stop-color:#003D6D"/>
</linearGradient>
<path d="M-214.37-27.423c0.474-1.568,0.729-3.044,0.729-4.282c0-0.456-0.033-0.881-0.101-1.268    c-0.737-3.8-2.943-5.959-5.077-8.047c-2.266-2.218-4.406-4.313-4.457-8.217l0.037-0.923l-1.878-0.393l-1.624,0.575    c0,0-0.281,11.757-0.301,12.555c-11.277-3.334-25.608,1.461-32.162,10.864l-0.087,0.125c0,0,0.765,3.546,0.963,4.466    c-0.922-0.301-5.057-1.648-5.057-1.648l-0.148,0.213c-2.851,4.091-3.923,8.623-3.018,12.762c0.53,4.113,3.79,12.203,12.579,16.207    l0.27,0.123c0,0,2.773-4.106,3.46-5.124c0.255,1.037,0.921,3.749,0.921,3.749l0.196,0.056c14.065,4.003,26.346-2.32,31.809-9.89    l0.076-0.106c0,0-0.074-0.827-0.12-1.34c0.334,0.11,0.936,0.311,0.936,0.311l0.148-0.222c2.69-4.036,4.027-7.925,4.027-11.851    C-212.249-21.583-212.963-24.458-214.37-27.423z M-242.411-12.441c-0.068-1.042-0.162-2.479-0.203-3.112    c0.557,0.199,1.427,0.51,1.922,0.687C-241.013-14.413-241.815-13.282-242.411-12.441z M-223.497-36.109    c0.004-0.22,0.011-0.553,0.018-0.972c2.825,1.218,4.684,2.732,5.62,4.59C-219.4-33.979-221.286-35.193-223.497-36.109z" fill="url(#XMLID_113_)"/>
</g>
</g>
<g>
<g>
<g>
<g>
<g>
<g>
<linearGradient gradientTransform="matrix(1.1364 0 0 -1.1364 373.6119 -1570.3224)" gradientUnits="userSpaceOnUse" id="XMLID_114_" x1="-561.806" x2="-540.7798" y1="-1380.0728" y2="-1352.3557">
<stop offset="0" style="stop-color:#FFFFFF"/>
<stop offset="0.1" style="stop-color:#FFFFFF"/>
<stop offset="0.7" style="stop-color:#D1E1EE"/>
<stop offset="1" style="stop-color:#A2C2DD"/>
</linearGradient>
<path d="M-226.652-37.018c-11.137-3.568-25.696,1.146-32.291,10.609l20.27,6.608        C-238.671-19.8-226.591-36.997-226.652-37.018z" fill="url(#XMLID_114_)"/>
<linearGradient gradientTransform="matrix(1.1364 0 0 -1.1364 373.6119 -1570.3224)" gradientUnits="userSpaceOnUse" id="XMLID_115_" x1="-531.2509" x2="-535.0732" y1="-1342.6074" y2="-1371.9939">
<stop offset="0" style="stop-color:#A2C2DD"/>
<stop offset="0.1" style="stop-color:#A2C2DD"/>
<stop offset="0.7135" style="stop-color:#6C83BB"/>
<stop offset="0.9888" style="stop-color:#003D6D"/>
<stop offset="1" style="stop-color:#003D6D"/>
</linearGradient>
<polygon fill="url(#XMLID_115_)" points="-238.387,-14.458 -226.21,-32.856 -226.699,-37.079 -238.736,-19.846       "/>
<linearGradient gradientTransform="matrix(1.1364 0 0 -1.1364 373.6119 -1570.3224)" gradientUnits="userSpaceOnUse" id="XMLID_116_" x1="-544.5966" x2="-548.4192" y1="-1340.8721" y2="-1370.2606">
<stop offset="0" style="stop-color:#A2C2DD"/>
<stop offset="0.1" style="stop-color:#A2C2DD"/>
<stop offset="0.7135" style="stop-color:#6C83BB"/>
<stop offset="0.9888" style="stop-color:#003D6D"/>
<stop offset="1" style="stop-color:#003D6D"/>
</linearGradient>
<polygon fill="url(#XMLID_116_)" points="-238.736,-19.846 -258.943,-26.409 -257.865,-21.414 -238.387,-14.458       "/>
</g>
<g>
<linearGradient gradientTransform="matrix(1.1364 0 0 -1.1364 373.6119 -1570.3224)" gradientUnits="userSpaceOnUse" id="XMLID_117_" x1="-563.7914" x2="-554.593" y1="-1370.8091" y2="-1383.8301">
<stop offset="0" style="stop-color:#E6EEF4"/>
<stop offset="0.4438" style="stop-color:#A3740A"/>
<stop offset="0.9382" style="stop-color:#474105"/>
<stop offset="1" style="stop-color:#474105"/>
</linearGradient>
<path d="M-255.048,0.34l-11.191-11.112c0.521,3.994,3.727,12.023,12.387,15.969L-255.048,0.34z" fill="url(#XMLID_117_)"/>
<linearGradient gradientTransform="matrix(1.1364 0 0 -1.1364 373.6119 -1570.3224)" gradientUnits="userSpaceOnUse" id="XMLID_118_" x1="-557.6415" x2="-547.9654" y1="-1362.478" y2="-1378.3656">
<stop offset="0" style="stop-color:#E2E6E4"/>
<stop offset="1" style="stop-color:#A3740A"/>
</linearGradient>
<path d="M-255.048,0.34c-11.138-3.569-14.817-14.134-8.223-23.594l20.274,6.61L-255.048,0.34z" fill="url(#XMLID_118_)"/>
<linearGradient gradientTransform="matrix(1.1364 0 0 -1.1364 373.6119 -1570.3224)" gradientUnits="userSpaceOnUse" id="XMLID_119_" x1="-556.726" x2="-542.9036" y1="-1362.3042" y2="-1383.7678">
<stop offset="0" style="stop-color:#E6EEF4"/>
<stop offset="0.4438" style="stop-color:#A3740A"/>
<stop offset="0.9382" style="stop-color:#474105"/>
<stop offset="1" style="stop-color:#474105"/>
</linearGradient>
<polygon fill="url(#XMLID_119_)" points="-242.711,-11.3 -253.853,5.196 -255.048,0.34 -243.061,-16.69       "/>
</g>
<g>
<linearGradient gradientTransform="matrix(1.1364 0 0 -1.1364 373.6119 -1570.3224)" gradientUnits="userSpaceOnUse" id="XMLID_120_" x1="-515.2499" x2="-534.1249" y1="-1360.2236" y2="-1394.3905">
<stop offset="0" style="stop-color:#FFFFFF"/>
<stop offset="0.5337" style="stop-color:#A2C2DD"/>
<stop offset="0.8652" style="stop-color:#6C83BB"/>
<stop offset="1" style="stop-color:#003D6D"/>
</linearGradient>
<path d="M-217.112-12.892l2.051-15.188c4.266,8.293,2.396,15.063-1.531,20.957L-217.112-12.892z" fill="url(#XMLID_120_)"/>
<linearGradient gradientTransform="matrix(1.1364 0 0 -1.1364 373.6119 -1570.3224)" gradientUnits="userSpaceOnUse" id="XMLID_121_" x1="-546.996" x2="-525.9716" y1="-1391.3032" y2="-1363.5887">
<stop offset="0" style="stop-color:#FFFFFF"/>
<stop offset="0.1" style="stop-color:#FFFFFF"/>
<stop offset="0.7" style="stop-color:#D1E1EE"/>
<stop offset="1" style="stop-color:#A2C2DD"/>
</linearGradient>
<path d="M-217.112-12.892c6.561-9.406,2.956-19.906-8.037-23.532l-12.018,17.218L-217.112-12.892z" fill="url(#XMLID_121_)"/>
<linearGradient gradientTransform="matrix(1.1364 0 0 -1.1364 373.6119 -1570.3224)" gradientUnits="userSpaceOnUse" id="XMLID_122_" x1="-524.9261" x2="-528.7487" y1="-1343.4292" y2="-1372.8158">
<stop offset="0" style="stop-color:#A2C2DD"/>
<stop offset="0.1" style="stop-color:#A2C2DD"/>
<stop offset="0.7135" style="stop-color:#6C83BB"/>
<stop offset="0.9888" style="stop-color:#003D6D"/>
<stop offset="1" style="stop-color:#003D6D"/>
</linearGradient>
<polygon fill="url(#XMLID_122_)" points="-217.112,-12.892 -237.167,-19.206 -236.882,-13.864 -216.593,-7.123       "/>
</g>
<g>
<linearGradient gradientTransform="matrix(1.1364 0 0 -1.1364 373.6119 -1570.3224)" gradientUnits="userSpaceOnUse" id="XMLID_123_" x1="-522.183" x2="-541.0591" y1="-1356.3887" y2="-1390.5571">
<stop offset="0" style="stop-color:#FFFFFF"/>
<stop offset="0.5337" style="stop-color:#A2C2DD"/>
<stop offset="0.8652" style="stop-color:#6C83BB"/>
<stop offset="1" style="stop-color:#003D6D"/>
</linearGradient>
<path d="M-249.055,3.981l-1.193-4.86l32.105-10.665l0.518,5.768        C-222.52,1.009-234.493,8.127-249.055,3.981z" fill="url(#XMLID_123_)"/>
<linearGradient gradientTransform="matrix(1.1364 0 0 -1.1364 373.6119 -1570.3224)" gradientUnits="userSpaceOnUse" id="XMLID_124_" x1="-546.7074" x2="-525.6823" y1="-1391.5273" y2="-1363.812">
<stop offset="0" style="stop-color:#FFFFFF"/>
<stop offset="0.1" style="stop-color:#FFFFFF"/>
<stop offset="0.7" style="stop-color:#D1E1EE"/>
<stop offset="1" style="stop-color:#A2C2DD"/>
</linearGradient>
<path d="M-250.249-0.879c11.136,3.571,25.512-1.204,32.105-10.665l-20.057-6.316L-250.249-0.879z" fill="url(#XMLID_124_)"/>
</g>
</g>
</g>
</g>
</g>
</g>
<g>
<rect fill="none" height="69.046" width="100" x="-292.282" y="-53.624"/>
<path d="M-276.499-12.94c-3.427,0-8.124,0.814-9.314,7.848l-0.176,1.064c0,0,7.899,0,8.836,0   c0.281,0.506,0.705,1.268,0.971,1.756c-0.27,0.484-0.69,1.246-0.971,1.754c-0.937,0-8.836,0-8.836,0l0.176,1.063   c1.19,7.028,5.887,7.847,9.314,7.847c2.703,0,5.111-2.267,7.047-4.093c1.047-0.983,2.033-1.911,2.556-1.911h24.188l0.268-0.3   c0.522-0.569,1.724-2.132,1.751-4.321v-0.074c-0.024-2.191-1.229-3.752-1.751-4.325l-0.268-0.296h-24.188   c-0.522,0-1.51-0.928-2.554-1.907C-271.39-10.671-273.796-12.94-276.499-12.94z" fill="#FFFFFF"/>
<linearGradient gradientTransform="matrix(1.1905 0 0 -1.1905 481.2997 -1537.0128)" gradientUnits="userSpaceOnUse" id="XMLID_125_" x1="-637.9315" x2="-616.0242" y1="-1275.3882" y2="-1301.743">
<stop offset="0" style="stop-color:#E6EDF3"/>
<stop offset="0.1196" style="stop-color:#CABAD7"/>
<stop offset="0.2719" style="stop-color:#AB7EB8"/>
<stop offset="0.3844" style="stop-color:#9759A4"/>
<stop offset="0.4438" style="stop-color:#8F4B9C"/>
<stop offset="0.5679" style="stop-color:#73357C"/>
<stop offset="0.7242" style="stop-color:#551D5A"/>
<stop offset="0.8533" style="stop-color:#430E45"/>
<stop offset="0.9382" style="stop-color:#3C093D"/>
<stop offset="1" style="stop-color:#3C093D"/>
</linearGradient>
<path d="M-241.594-2.276c0-0.01,0.008-0.02,0.008-0.025h-0.01c-0.021-1.904-1.112-3.28-1.515-3.723   c-0.512,0-23.784,0-23.784,0c-0.886,0-1.849-0.906-3.183-2.16c-1.813-1.711-4.079-3.844-6.423-3.844   c-3.803,0-7.406,1.117-8.414,7.09c1.43,0,8.294,0,8.294,0l1.474,2.662l-1.474,2.664c0,0-6.864,0-8.294,0   c1.012,5.975,4.611,7.086,8.414,7.086c2.344,0,4.606-2.129,6.423-3.841c1.334-1.256,2.297-2.159,3.183-2.159c0,0,23.275,0,23.784,0   c0.4-0.438,1.496-1.816,1.515-3.723h0.01C-241.589-2.258-241.594-2.265-241.594-2.276z" fill="url(#XMLID_125_)"/>
</g>
<linearGradient gradientTransform="matrix(1 0 0 -1 102.52 -106.5967)" gradientUnits="userSpaceOnUse" id="XMLID_126_" x1="-314.2045" x2="-335.2045" y1="-75.7065" y2="-94.1235">
<stop offset="0" style="stop-color:#FFFFFF"/>
<stop offset="0.1142" style="stop-color:#E0EAF3"/>
<stop offset="0.35" style="stop-color:#A2C2DD"/>
<stop offset="0.4825" style="stop-color:#8CA9CF"/>
<stop offset="0.7" style="stop-color:#6C83BB"/>
<stop offset="0.7458" style="stop-color:#637DB5"/>
<stop offset="0.8189" style="stop-color:#4C6EA4"/>
<stop offset="0.9097" style="stop-color:#265689"/>
<stop offset="0.9888" style="stop-color:#003D6D"/>
<stop offset="1" style="stop-color:#003D6D"/>
</linearGradient>
<path d="M-215.288-28.516l-5.212,7.898c-0.197-0.057-0.409-0.109-0.635-0.155  c-3.629-0.73-9.334,0.382-12.944,2.578c-3.605,2.19-3.756,4.641-0.135,5.371c2.87,0.578,6.229,0.027,9.26-0.871  c0.026-0.008-3.047-0.938-3.047-0.938l1.781-1.141c0,0,3.547,1.141,3.563,1.131c1.296-0.763,3.648-2.417,4.018-3.16  c0,0,4.005-6.197,4.591-7.018C-213.813-25.147-215.288-28.516-215.288-28.516z M-215.276-28.535l-0.003,0.004l0.013-0.001  L-215.276-28.535z" fill="url(#XMLID_126_)"/>
<g>
<g>
<polygon fill="#6D5607" points="-226.423,-49.804 -226.976,-22.688 -224.837,-20.736 -224.713,-25.635 -224.277,-49.326   "/>
<path d="M-215.024-32.55c-1.244-6.035-6.367-7.818-8.702-12.071l0.085-5.277l-1.256,0.429v0.17    c0.003-0.053-0.008-0.097-0.007-0.148l-0.204-0.004l-0.094,11.383c0.025,0.005,0.065,0.011,0.094,0.018l-0.399,21.098l1.338-2.205    l0.323-18.53c9.535,3.831,7.684,10.349,4.543,15.994l0.927,0.667C-215.972-24.637-214.481-29.638-215.024-32.55z" fill="#6D5607"/>
<linearGradient gradientTransform="matrix(1 0 0 -1 102.52 -106.5967)" gradientUnits="userSpaceOnUse" id="XMLID_127_" x1="-329.4261" x2="-318.3009" y1="-51.8096" y2="-80.5602">
<stop offset="0" style="stop-color:#E6EEF4"/>
<stop offset="0.4438" style="stop-color:#A3740A"/>
<stop offset="0.9382" style="stop-color:#474105"/>
<stop offset="1" style="stop-color:#474105"/>
</linearGradient>
<path d="M-217.629-21.482c2.47-3.582,4.025-8.563,3.517-11.481c-1.536-7.917-9.811-8.613-9.556-16.814    l-1.096,0.527c-0.156,8.352,8.025,8.887,9.64,16.693c0.539,2.912-0.836,7.919-3.263,11.528L-217.629-21.482z" fill="url(#XMLID_127_)"/>
<radialGradient cx="2937.5024" cy="3216.1968" gradientTransform="matrix(0.6719 0.111 -0.3707 0.6434 -1012.7523 -2415.4624)" gradientUnits="userSpaceOnUse" id="XMLID_128_" r="13.8469">
<stop offset="0" style="stop-color:#E6EEF4"/>
<stop offset="0.4438" style="stop-color:#A3740A"/>
<stop offset="0.9382" style="stop-color:#474105"/>
<stop offset="1" style="stop-color:#474105"/>
</radialGradient>
<path d="M-224.958-16.825c-1.756,3.038-5.752,5.083-8.932,4.557c-3.175-0.526-4.331-3.421-2.58-6.458    c1.753-3.044,5.752-5.088,8.934-4.563C-224.357-22.76-223.202-19.875-224.958-16.825z" fill="url(#XMLID_128_)"/>
</g>
<polygon fill="#D7D2BE" points="-226.454,-49.788 -224.83,-49.328 -223.626,-49.929 -225.119,-50.241  "/>
</g>
</svg>
