<?xml version="1.0" encoding="UTF-8" standalone="no"?>
<!DOCTYPE svg PUBLIC "-//W3C//DTD SVG 1.1 Tiny//EN" "http://www.w3.org/Graphics/SVG/1.1/DTD/svg11-tiny.dtd">
<svg xmlns="http://www.w3.org/2000/svg" xmlns:xlink="http://www.w3.org/1999/xlink" width="70" height="70" viewBox="-0.023 -0.007 70 70">
<rect fill="none" height="70" width="70" x="-0.023" y="-0.007"/>
<polygon fill="#FFFFFF" points="48.043,8.969 48.043,14.117 55.868,14.117 55.868,60.464 12.831,60.464 12.831,14.117 23.264,14.117 23.264,8.969 8.916,8.969 8.916,65.616 61.084,65.616 61.084,8.969 "/>
<polygon fill="#FFFFFF" points="25.873,33.429 18.048,33.429 35,55.315 51.958,33.429 42.827,33.429 42.827,28.419 25.873,28.419 "/>
<path d="M61.084,8.969v56.647H8.916V8.969h14.348v5.148H12.831v46.347h43.037V14.117h-7.824V8.969H61.084 M62.084,7.969h-1H48.043h-1v1v5.148v1h1h6.824v44.347H13.831V15.117h9.433h1v-1V8.969v-1h-1H8.916h-1v1v56.647v1h1h52.168h1v-1 V8.969V7.969L62.084,7.969z" fill-opacity="0.2" />
<path d="M42.827,28.419v5.01h9.131L35,55.315L18.048,33.429h7.825v-5.01H42.827 M43.827,27.419h-1H25.873h-1v1v4.01 h-6.825h-2.04l1.249,1.612l16.952,21.886L35,56.948l0.791-1.021l16.957-21.886l1.25-1.612h-2.04h-8.131v-4.01V27.419L43.827,27.419z " fill-opacity="0.2" />
</svg>