<?xml version="1.0" encoding="UTF-8"?>
<!DOCTYPE svg PUBLIC "-//W3C//DTD SVG 1.1 Tiny//EN" "http://www.w3.org/Graphics/SVG/1.1/DTD/svg11-tiny.dtd">
<svg width="84" height="72" viewBox="0 0 84 72">
<linearGradient id="_11" gradientUnits="userSpaceOnUse" x1="34.45" y1="38.8" x2="53.05" y2="75.45">
<stop stop-color="#A2C2DD" offset="0.1"/>
<stop stop-color="#6C83BB" offset="0.71"/>
<stop stop-color="#003D6D" offset="0.99"/>
</linearGradient>
<path fill="url(#_11)" d="M5.464,57.617c0,0,29.232,0.086,29.613,0.087c1.617,2.985,6.32,6.008,6.32,6.008 s9.417,2.371,12.746-2.124c0.087-0.279,1.63-4.653,2.149-6.137c0.492,1.596,2.419,7.846,2.419,7.846 c1.214,3.668,10.564,3.462,10.564,3.462s8.994-3.116,9.227-8.67c-0.147-0.536-4.807-17.894-4.807-17.894 s-9.175,4.429-13.778,4.842c0.072-0.207,0.296-0.849,0.296-0.849s-2.505-0.08-4.528-0.593c0.003-0.603,0.131-36.152,0.131-36.152 L5.342,7.226L5.464,57.617z"/>
<linearGradient id="_12" gradientUnits="userSpaceOnUse" x1="59.56" y1="11.52" x2="4.56" y2="46.35">
<stop stop-color="#FFFFFF" offset="0.15"/>
<stop stop-color="#A2C2DD" offset="1"/>
</linearGradient>
<polygon fill="url(#_12)" points="55.305,52.271 5.897,52.683 5.692,7.577 55.465,7.792 "/>
<linearGradient id="_13" gradientUnits="userSpaceOnUse" x1="88.49" y1="61.1" x2="-0.35" y2="46.94">
<stop stop-color="#FFFFFF" offset="0"/>
<stop stop-color="#A2C2DD" offset="0.35"/>
<stop stop-color="#6C83BB" offset="0.7"/>
<stop stop-color="#003D6D" offset="1"/>
</linearGradient>
<path fill="url(#_13)" d="M5.813,46.103c0,0,9.303,2.729,13.566,3.254c3.486,0.435,10.528,1.056,17.413-1.536 c10.914-4.107,18.442-1.104,18.442-1.104l-0.09,10.696L5.813,57.269V46.103z"/>
<path fill="#FFFFFF" d="M5.774,27.75c5.151,2.08,17.262,1.898,20.034,0.503c6.466,0.864,6.63-6.214,1.079-6.188 c-1.735-5.403-8.201-3.503-9.477-1.022c-3.641-2.839-7.334,0.666-6.731,2.07c-1.125-0.416-3.16-0.498-4.854-0.063L5.774,27.75 z"/>
<path fill="#115B7E" d="M40.882,41.497c-5.057-0.162-23.778,1.389-27.572,2.849l5.351,2.726 c2.795,0.215,8.619,0.438,12.616-0.395C35.273,45.85,38.854,44.588,40.882,41.497z"/>
<polygon fill="#2F8E9A" points="22.518,43.902 22.488,44.36 26.113,46.783 26.646,46.594 "/>
<polygon fill="#BFDAE1" points="22.513,43.891 25.29,43.495 30.173,46.512 27.214,46.957 "/>
<linearGradient id="_14" gradientUnits="userSpaceOnUse" x1="21.57" y1="36.51" x2="26.4" y2="43.18">
<stop stop-color="#D6E6EC" offset="0"/>
<stop stop-color="#298595" offset="1"/>
</linearGradient>
<path fill="url(#_14)" d="M31.146,46.675c-3.062,0.588-8.586,0.835-12.486,0.372 c-0.003,0.002-0.007,0.009-0.007,0.012c-0.362-0.239-5.313-2.727-5.313-2.727c-0.199,1.311,0.234,2.778,0.234,2.778 s0.865,1.697,2.678,2.359c0.021-0.003,0.039-0.01,0.06-0.013c2.118,0.764,7.106,1.214,11.285,1.091 c9.91-0.501,12.141-5.455,13.283-9.076C38.559,45.285,34.209,46.085,31.146,46.675z"/>
<path fill="#CFECFF" d="M13.312,44.321l5.34,2.818c3.177,0.429,8.595,0.433,12.616-0.281 c4.303-0.765,7.586-2.296,9.614-5.385C35.822,41.307,17.104,42.863,13.312,44.321z M30.63,46.165 c-3.921,0.654-9.184,0.451-11.505,0.259l-4.009-2.064c3.158-0.974,20.428-2.642,24.729-2.5 C37.847,44.318,34.513,45.515,30.63,46.165z"/>
<linearGradient id="_15" gradientUnits="userSpaceOnUse" x1="25.78" y1="31.24" x2="8.14" y2="33.8">
<stop stop-color="#2B98A0" offset="0"/>
<stop stop-color="#0A4A60" offset="1"/>
</linearGradient>
<polygon fill="url(#_15)" points="25.657,44.343 27.349,17.931 13.131,40.788 "/>
<polygon fill="#2F8E9A" points="27.392,45.534 27.404,23.053 35.419,43.302 "/>
<linearGradient id="_16" gradientUnits="userSpaceOnUse" x1="59.8" y1="62.3" x2="74.55" y2="38.73">
<stop stop-color="#D6E4F3" offset="0"/>
<stop stop-color="#337CE5" offset="1"/>
</linearGradient>
<path fill="url(#_16)" d="M69.195,66.421c0,0-9.016,0.238-10.161-3.223c-1.145-3.466-5.302-17.438-5.302-17.438 s9.124,0.893,19.732-5.03l4.687,17.436C78.151,58.165,78.19,62.862,69.195,66.421z"/>
<linearGradient id="_17" gradientUnits="userSpaceOnUse" x1="63.78" y1="50.32" x2="61.06" y2="52.85">
<stop stop-color="#E6EEF4" offset="0"/>
<stop stop-color="#575AC6" offset="0.44"/>
<stop stop-color="#003D6D" offset="0.94"/>
</linearGradient>
<path fill="url(#_17)" d="M59.184,53.381c0,0,1.261-4.403,5.01-1.421C64.195,51.96,61.402,51.207,59.184,53.381z"/>
<linearGradient id="_18" gradientUnits="userSpaceOnUse" x1="71.69" y1="47.46" x2="68.73" y2="51.5">
<stop stop-color="#E6EEF4" offset="0"/>
<stop stop-color="#575AC6" offset="0.44"/>
<stop stop-color="#003D6D" offset="0.94"/>
</linearGradient>
<path fill="url(#_18)" d="M67.208,51.08c0,0,1.262-4.403,5.011-1.425C72.219,49.655,69.427,48.906,67.208,51.08z"/>
<linearGradient id="_19" gradientUnits="userSpaceOnUse" x1="69.06" y1="63.93" x2="67.69" y2="58.49">
<stop stop-color="#E6EEF4" offset="0"/>
<stop stop-color="#575AC6" offset="0.44"/>
<stop stop-color="#003D6D" offset="0.94"/>
</linearGradient>
<path fill="url(#_19)" d="M62.452,60.005c0,0,8.398-1.132,10.276-3.809C72.729,56.196,71.158,65.805,62.452,60.005z"/>
<linearGradient id="_20" gradientUnits="userSpaceOnUse" x1="38.11" y1="38.12" x2="53.27" y2="58.97">
<stop stop-color="#E3DFE4" offset="0"/>
<stop stop-color="#C03A3A" offset="1"/>
</linearGradient>
<path fill="url(#_20)" d="M41.523,63.394c0,0-7.616-4.822-6.63-8.333c0.985-3.515,5.348-17.427,5.348-17.427 s7.37,5.881,19.481,6.877l-5.87,16.879C53.853,61.39,50.977,65.452,41.523,63.394z"/>
<path fill="#FFFFFF" d="M40.504,46.995c0,0,3.507-2.946,4.952,1.613C45.456,48.608,43.56,46.43,40.504,46.995z"/>
<path fill="#FFFFFF" d="M48.449,49.558c0,0,3.51-2.95,4.953,1.61C53.402,51.168,51.508,48.988,48.449,49.558z"/>
<path fill="#FFFFFF" d="M39.515,54.313c0,0,3.468,3.462,10.656,2.564C50.171,56.878,43.238,62.006,39.515,54.313z"/>
<path fill="#FFFFFF" d="M44.603,54.404l1.318-0.888l2.104-5.195c0,0,1.239-2.674,5.832,1.213c0,0-1.245-3.991-5.765-3.709 L44.603,54.404z"/>
</svg>