<?xml version="1.0" encoding="utf-8"?>
<!DOCTYPE svg PUBLIC "-//W3C//DTD SVG 1.1 Tiny//EN" "http://www.w3.org/Graphics/SVG/1.1/DTD/svg11-tiny.dtd">
<svg width="100%" height="100%" viewBox="0 0 88 88">
<linearGradient id="_58" gradientUnits="userSpaceOnUse" x1="32.3" y1="29.94" x2="55.47" y2="57.79">
<stop stop-color="#DEE9F3" offset="0"/>
<stop stop-color="#235487" offset="1"/>
</linearGradient>
<circle fill="url(#_58)" cx="44" cy="44" r="30.996"/>
<radialGradient id="_59" gradientUnits="userSpaceOnUse" cx="49.9" cy="24.72" r="55.32">
<stop stop-color="#FFFFFF" offset="0"/>
<stop stop-color="#A2C2DD" offset="0.53"/>
<stop stop-color="#6C83BB" offset="0.87"/>
<stop stop-color="#003D6D" offset="1"/>
</radialGradient>
<circle fill="url(#_59)" cx="44" cy="43.998" r="29.9"/>
<radialGradient id="_60" gradientUnits="userSpaceOnUse" cx="50.31" cy="27.77" r="37.63">
<stop stop-color="#E6EEF4" offset="0"/>
<stop stop-color="#C6DCC1" offset="0.08"/>
<stop stop-color="#91C06F" offset="0.21"/>
<stop stop-color="#6BAB33" offset="0.32"/>
<stop stop-color="#539E0E" offset="0.4"/>
<stop stop-color="#4A9900" offset="0.44"/>
<stop stop-color="#398419" offset="0.55"/>
<stop stop-color="#22663B" offset="0.71"/>
<stop stop-color="#135550" offset="0.85"/>
<stop stop-color="#0E4E58" offset="0.94"/>
</radialGradient>
<path fill="url(#_60)" d="M59.021,54.209l-1.916,1.916c0,0-1.154,0-1.211,0.463c-0.025,0.197-0.096,1.055-0.285,1.492c-0.383,0.268-0.844,1.15-0.844,1.15s-0.236,1.707,1.035,1.418s3.393-3.898,3.393-3.898S60.465,53.92,59.021,54.209z M14.861,44.051l-0.756-0.253c0,0.068-0.005,0.135-0.005,0.203c0,0.716,0.034,1.424,0.083,2.127c0.01,0.149,0.021,0.3,0.034,0.449c0.06,0.702,0.138,1.399,0.246,2.088c0.004,0.028,0.011,0.058,0.015,0.086c0.109,0.683,0.245,1.354,0.4,2.021c0.022,0.099,0.044,0.196,0.068,0.295c0.168,0.692,0.357,1.379,0.573,2.053c0.002,0.007,0.005,0.014,0.007,0.021c0.022-0.244,0.033-0.494,0.024-0.752c-0.058-1.781-0.345-1.552-0.345-1.552l0.46-0.346l1.553-2.357v-1.725L15.78,45.2L14.861,44.051z M34.133,17.271c0.379,0.26,0.95,0.441,1.286,0.297c0.336-0.143,1.056-0.664,1.056-0.664s-0.436-0.055-0.87,0.111C35.169,17.184,34.447,17.039,34.133,17.271z M73.323,38.154c-0.115-0.584-0.248-1.163-0.396-1.735c-0.028-0.108-0.063-0.214-0.092-0.321c-0.125-0.459-0.263-0.915-0.408-1.365c-0.058-0.175-0.116-0.35-0.178-0.524c-0.14-0.403-0.288-0.801-0.444-1.196c-0.061-0.154-0.119-0.311-0.183-0.463c-0.218-0.525-0.447-1.044-0.694-1.553c-0.05-0.103-0.105-0.203-0.156-0.305c-0.203-0.41-0.416-0.814-0.639-1.213c-0.098-0.176-0.199-0.351-0.302-0.525c-0.194-0.333-0.396-0.662-0.603-0.986c-0.105-0.167-0.211-0.334-0.319-0.499c-0.292-0.438-0.593-0.871-0.907-1.293c-0.078-0.105-0.159-0.207-0.238-0.31c-0.277-0.362-0.561-0.717-0.853-1.065c-0.14-0.165-0.281-0.326-0.423-0.488c-0.238-0.271-0.48-0.538-0.729-0.801c-0.15-0.159-0.299-0.318-0.451-0.474c-0.305-0.309-0.615-0.609-0.932-0.904c-0.131-0.122-0.26-0.245-0.393-0.364c-0.364-0.328-0.736-0.646-1.116-0.955c-0.173-0.14-0.349-0.275-0.522-0.412c-0.275-0.214-0.556-0.425-0.839-0.629c-0.188-0.136-0.376-0.272-0.565-0.403c-0.319-0.22-0.646-0.432-0.975-0.64c-0.15-0.096-0.298-0.196-0.449-0.289c-0.457-0.278-0.922-0.541-1.395-0.795c-0.196-0.105-0.396-0.204-0.596-0.305c-0.313-0.159-0.627-0.313-0.943-0.461c-0.219-0.101-0.438-0.201-0.657-0.297c-0.336-0.146-0.676-0.284-1.017-0.417c-0.154-0.06-0.307-0.124-0.461-0.182c-0.316,0.207-2.167,1.255-2.167,1.255s-1.903-0.33-2.425-0.33c-0.521,0-2.564-0.365-3.027-0.422c-0.465-0.059-2.176-0.289-2.694,0.23c-0.521,0.521-2.553,1.053-3.018,1.111c-0.46,0.059-1.418,0.307-0.269,1.725c-0.17,0.174-3.449,2.459-3.449,1.418c0-1.039,0.731-2.898-0.297-1.902c-0.738,0.715-1.911,0.289-1.275,1.098c0.636,0.811,0.096,0.586,0,0.768c-0.243,0.461-0.39,0.684-0.215,2.014c0.173,1.328-2.123,1.32-2.276,0.977c-0.41-0.922-1.386,0.459-1.617,0.809c-0.231,0.346-1.066,1.262-1.066,1.262l0.958,1.227l-2.798,2.453c0,0-3.891,2.699-3.948,3.047c-0.059,0.346-1.728,4.822-1.15,6.152c0.578,1.33,2.039,4.686,3.422,4.797c1.811,0.148,6.209-0.83,6.209-0.83c0.117,0.291,0.892,1.438,0.892,1.438s2.21,0.258,2.329,0.489c0.04,0.082-1.109,2.316-0.402,3.306c1.533,2.147,2.999,4.295,2.156,5.291c-2.013,3.021-0.087,3.938,0.402,5.521c0.175,0.463,0.747,1.916,1.629,3.411c0.882,2.568,1.447,1.418,2.606,1.841c1.428,0.125,2.63,0.649,3.843-0.91c0.351-0.287,0.949-0.058,0.949-0.461c0-0.228,1.035-0.892,1.3-1.511c0.281-0.129,1-0.616,1.489-0.848c0.442-0.029-0.423-1.218,0.46-2.474c0.947-0.373,3.507-2.098,3.507-2.098c0.115-2.529-1.246-5.654,1.294-7.447c1.639-1.666,3.786-2.617,4.828-5.16c0.288-0.75,0.934-2.287-0.918-1.826c-1.74,0.438-3.68,0.537-2.76-0.229c-0.104-0.938-1.266-1.381-2.301-2.301c-0.537-1.266-1.381-3.527-1.381-3.527l-1.84-2.797l0.23-0.576l2.186,3.221l2.186,2.645c0.805,2.645,1.494,2.875,1.494,2.875c1.211-0.426,4.082-1.609,4.082-1.609l2.817-2.703c0,0-0.286-0.861-1.437-1.955l-0.863-0.518c-0.188,0.529-1.188,0.729-1.188,0.729l-0.651-0.959l-0.862-0.977l-0.921-0.977l0.905-0.184l0.697,1.328l1.676,0.58c0,0,0.464-0.34,1.324,0.549c0.701-0.057,2.183,0.141,2.183,0.141s1.258-0.006,1.897,0.805c0.123,0.158,0.301,0.904,0.537,1.074c0.805,0.574,1.477,1.707,2.107,3.871c0.369,1.266,0.747,3.373,1.391,3.383c0.279,0.004,0.487,0.115,0.393-0.379c-0.114-0.23-0.287-2.658-0.287-2.658s0.287-2.697,0.46-3.795c0.438-0.933,0.51,0.002,1.553,1.781C73.333,38.213,73.329,38.184,73.323,38.154z M44.57,18.33c0.23-0.68,1.554-0.912,1.554-0.912s-0.38,0.701-0.292,1.064c0.089,0.365-0.604,0.598-0.684,1.455c-0.072,0.857-1.657,0.355-1.789,0.055C43.233,19.691,44.338,19.01,44.57,18.33z M50.242,29.904c-0.98,0-3.924,0.291-4.733-0.287c-0.809-0.576-1.438,0.059-2.021,0.637c-0.382,0.377-1.772-0.385-2.177-0.963s-1.763-0.535-1.763-0.535l0.307-1.648l-3.91-0.191l-2.224,0.65l-2.093,0.063l1.173-0.561l1.457-0.346c0,0,2.124-1.742,2.76-2.262c0.539-0.439,2.684-0.191,2.684-0.191l2.357,1.701c0,0-0.521,1.33-0.753,1.617c0.865-0.059,1.884-1.631,1.884-1.631c-1.84-1.688-1.764-2.262-1.764-2.262l2.423,1.699l0.022,0.016c0,0,0.98,2.311,1.388,2.311c0.404,0,0.919-1.592,0.919-1.592l0.691-0.172c0.307,0.729,0.882,2.377,1.57,1.992c0.396-0.219,1.053-0.02,1.803,0.27c0.753,0.287,1.266-0.154,1.879,0.383C52.044,30.979,50.648,30.02,50.242,29.904z M51.782,25.926c-1.015-0.385-2.29-0.229-2.29-0.229c-0.438,0.406-2.137-0.051-1.376-0.953c0.761-0.9,1.456-1.336,1.813-0.6c0.092,0.301,1.231,0.77,1.225,0.133c-0.01-0.639,1.141-0.977,1.31-0.502c-0.614,0.441,0.035,0.807,0.493,1.055C54.244,25.531,54.866,26.518,51.782,25.926z M58.218,27.869c-0.559-0.451,0.253-0.838-0.573-1.545c-1.186-1.014-2.106-1.451-0.492-2.271c1.986-0.25,0.32,0.633,0.65,1.164c0.176,0.283,1.184,1.229,1.967,2.389C60.42,28.57,58.775,28.318,58.218,27.869z M29.868,18.463c0.636-0.057,2.296-1.498,3.163-1.207c0.869,0.287,1.582-0.295,2.391-0.813c0.288-0.059,0.692,0.113,1.389-0.234c0.694-0.346,2.08-1.096,2.426-1.096c0.346,0,1.5-0.043,1.787-0.504c0,0,0.862,0.115,1.38,0.174c0.716,0.078,3.601,0.691,4.351,0.402c0.414-0.159,2.147-0.299,3.628-0.393c-0.068-0.015-0.138-0.033-0.207-0.048c-0.199-0.042-0.402-0.077-0.604-0.115c-0.313-0.059-0.627-0.119-0.943-0.168c-0.137-0.021-0.275-0.037-0.414-0.057c-0.383-0.054-0.766-0.107-1.152-0.146c-0.013-0.001-0.024-0.001-0.037-0.003c-0.994-0.1-2.004-0.152-3.023-0.152c-0.207,0-0.41,0.011-0.615,0.016c-0.38,0.008-0.76,0.018-1.137,0.04c-0.294,0.017-0.586,0.041-0.877,0.067c-0.329,0.028-0.655,0.063-0.981,0.103c-0.28,0.034-0.561,0.065-0.839,0.106c-0.534,0.08-1.063,0.171-1.587,0.279c-0.256,0.052-0.507,0.117-0.76,0.175c-0.332,0.077-0.662,0.157-0.989,0.245c-0.269,0.072-0.535,0.147-0.801,0.227c-0.332,0.1-0.661,0.207-0.988,0.318c-0.231,0.078-0.466,0.151-0.695,0.235c-0.5,0.183-0.994,0.381-1.481,0.59c-0.237,0.102-0.47,0.211-0.705,0.318c-0.304,0.14-0.605,0.283-0.903,0.433c-0.236,0.118-0.472,0.236-0.704,0.36c-0.345,0.184-0.684,0.378-1.02,0.575c-0.143,0.083-0.288,0.162-0.429,0.247C28.621,18.674,29.029,18.729,29.868,18.463z"/>
</svg>