<?xml version="1.0" encoding="UTF-8"?>
<!DOCTYPE svg PUBLIC "-//W3C//DTD SVG 1.1 Tiny//EN" "http://www.w3.org/Graphics/SVG/1.1/DTD/svg11-tiny.dtd">
<svg width="100%" height="100%" viewBox="0 0 88 88">
<linearGradient id="_32" gradientUnits="userSpaceOnUse" x1="28.31" y1="60.86" x2="41.21" y2="86.27">
<stop stop-color="#A2C2DD" offset="0.1"/>
<stop stop-color="#6C83BB" offset="0.71"/>
<stop stop-color="#003D6D" offset="0.99"/>
</linearGradient>
<path fill="url(#_32)" d="M25.333,42.456c-0.067,0.027-0.067,0.028-1.836,0.753L19.595,55.33 c-1.179-0.372-2.386-0.458-3.537-0.177c-1.267,0.226-6.164,3.09-6.164,3.09l4.977,4.59l0.115,0.529l-3.336-2.899L6.95,63.349 c-0.283,3.324,3.467,11.512,9.137,10.371c2.895-0.582,3.521-0.86,5.02-0.059c0.002,0.001,21.639,11.543,21.639,11.543 c1.359-0.281,5.314-3.375,5.314-3.375c2.795-3.969,0.118-6.894,0.118-6.894L27.352,63.749c-0.937-0.695-1.374-1.334-1.718-2.041 c2.304,0.992,8.853,3.813,8.853,3.813l10.175-7.2l-6.234-15.752c0,0-1.061-0.221-1.752-0.364c4.68-4.781,1.646-13.728-5.816-13.728 C22.989,28.477,20.392,38.008,25.333,42.456z"/>
<linearGradient id="_33" gradientUnits="userSpaceOnUse" x1="60.12" y1="41.05" x2="75.56" y2="71.47">
<stop stop-color="#A2C2DD" offset="0.1"/>
<stop stop-color="#6C83BB" offset="0.71"/>
<stop stop-color="#003D6D" offset="0.99"/>
</linearGradient>
<path fill="url(#_33)" d="M60.102,3.982l0.188,5.925c-8.597-1.188-16.538,1.453-19.411,2.447 c-0.648,18.068,0.477,26.443,2.172,40.831c0,0,4.492,3.862,9.644,5.651c-0.348,1.086-3.414,10.681-3.414,10.681l15.883,7.002 l10.178-7.203l-6.485-16.394c0.861-4.444,4.25-25.75,2.845-37.828c-2.073-1.95-3.574-2.872-6.029-3.818l0.987-6.871 C66.657,2.091,60.193,1.661,60.102,3.982z"/>
<linearGradient id="_34" gradientUnits="userSpaceOnUse" x1="53.81" y1="37.25" x2="17.37" y2="62.38">
<stop stop-color="#D6E6EC" offset="0"/>
<stop stop-color="#298595" offset="1"/>
</linearGradient>
<polygon fill="url(#_34)" points="34.39,64.702 32.391,46.392 24.051,43.713 19.375,58.235 "/>
<polygon fill="#BFDAE1" points="37.902,43.156 29.616,41.432 24.051,43.713 32.356,46.372 "/>
<radialGradient id="_35" gradientUnits="userSpaceOnUse" cx="28.37" cy="31.86" r="19.38">
<stop stop-color="#E6EEF4" offset="0"/>
<stop stop-color="#2F8E9A" offset="0.44"/>
<stop stop-color="#003D6D" offset="0.94"/>
</radialGradient>
<path fill="url(#_35)" d="M38.193,36.533c0,9.732-14.694,9.732-14.694,0C23.499,26.697,38.193,26.697,38.193,36.533z"/>
<linearGradient id="_36" gradientUnits="userSpaceOnUse" x1="45.04" y1="33.1" x2="30.78" y2="72.23">
<stop stop-color="#E6EEF4" offset="0"/>
<stop stop-color="#2F8E9A" offset="0.44"/>
<stop stop-color="#003D6D" offset="0.94"/>
</linearGradient>
<polygon fill="url(#_36)" points="34.39,64.702 32.356,46.372 37.902,43.156 43.796,58.046 "/>
<linearGradient id="_37" gradientUnits="userSpaceOnUse" x1="56.85" y1="4.14" x2="70.99" y2="24.28">
<stop stop-color="#A2C2DD" offset="0.1"/>
<stop stop-color="#6C83BB" offset="0.71"/>
<stop stop-color="#003D6D" offset="0.99"/>
</linearGradient>
<path fill="url(#_37)" d="M54.901,10.299c4.284-0.155,11.502,0.454,16.157,5.134l-2.754,1.273L54.901,10.299z"/>
<linearGradient id="_38" gradientUnits="userSpaceOnUse" x1="64.76" y1="6.07" x2="69.76" y2="45.49">
<stop stop-color="#FFFFFF" offset="0"/>
<stop stop-color="#A2C2DD" offset="0.35"/>
<stop stop-color="#6C83BB" offset="0.7"/>
<stop stop-color="#003D6D" offset="1"/>
</linearGradient>
<path fill="url(#_38)" d="M68.762,16.461l-2.907,38.546l2.216-1.876c1.736-7.653,4.1-26.533,2.976-37.757 L68.762,16.461z"/>
<linearGradient id="_39" gradientUnits="userSpaceOnUse" x1="48.54" y1="19.7" x2="61.48" y2="9.3">
<stop stop-color="#FFFFFF" offset="0.15"/>
<stop stop-color="#A2C2DD" offset="1"/>
</linearGradient>
<path fill="url(#_39)" d="M41.529,12.84c8.16-2.923,19.457-4.702,27.563,2.835l-6.608,3.145L41.529,12.84z"/>
<linearGradient id="_40" gradientUnits="userSpaceOnUse" x1="64.89" y1="8.79" x2="65.51" y2="70.59">
<stop stop-color="#FFFFFF" offset="0"/>
<stop stop-color="#A2C2DD" offset="0.35"/>
<stop stop-color="#6C83BB" offset="0.7"/>
<stop stop-color="#003D6D" offset="1"/>
</linearGradient>
<path fill="url(#_40)" d="M62.484,18.819L61.021,59.91c3.094-1.426,5.057-4.062,5.057-4.062 c1.831-8.071,4.199-28.334,3.015-40.174L62.484,18.819z"/>
<linearGradient id="_41" gradientUnits="userSpaceOnUse" x1="58.66" y1="12.76" x2="67.66" y2="16.69">
<stop stop-color="#FFFFFF" offset="0"/>
<stop stop-color="#A2C2DD" offset="0.35"/>
<stop stop-color="#6C83BB" offset="0.7"/>
<stop stop-color="#003D6D" offset="1"/>
</linearGradient>
<path fill="url(#_41)" d="M65.451,14.312c0.334,2.08-5.32,2.398-5.275,0.114 C60.209,12.854,65.205,12.763,65.451,14.312z"/>
<linearGradient id="_42" gradientUnits="userSpaceOnUse" x1="60.51" y1="9.55" x2="67.31" y2="10.02">
<stop stop-color="#FFFFFF" offset="0"/>
<stop stop-color="#A2C2DD" offset="0.35"/>
<stop stop-color="#6C83BB" offset="0.7"/>
<stop stop-color="#003D6D" offset="1"/>
</linearGradient>
<path fill="url(#_42)" d="M60.787,4.013c0,0,0.341,10.571,0.34,10.598c0.816,0.903,2.756,0.836,3.333,0.021 l1.466-10.105L60.787,4.013z"/>
<linearGradient id="_43" gradientUnits="userSpaceOnUse" x1="63.66" y1="11.01" x2="46.73" y2="45.69">
<stop stop-color="#FFFFFF" offset="0.05"/>
<stop stop-color="#A2C2DD" offset="1"/>
</linearGradient>
<path fill="url(#_43)" d="M41.529,12.84c4.537-1.484,14.15-0.249,20.955,5.979c0.797,11.17,0.152,30.569-1.463,41.091 c-5.49,0.136-13.239-3.552-17.328-7.103C42.347,43.417,40.681,24.071,41.529,12.84z"/>
<linearGradient id="_44" gradientUnits="userSpaceOnUse" x1="67.1" y1="37.91" x2="40.7" y2="23.31">
<stop stop-color="#FFFFFF" offset="0.05"/>
<stop stop-color="#A2C2DD" offset="1"/>
</linearGradient>
<polygon fill="url(#_44)" points="43.792,15.549 44.49,39.232 59.654,44.817 60.159,20.25 "/>
<linearGradient id="_45" gradientUnits="userSpaceOnUse" x1="45.81" y1="56.86" x2="44.41" y2="1.84">
<stop stop-color="#FFFFFF" offset="0"/>
<stop stop-color="#A2C2DD" offset="0.35"/>
<stop stop-color="#6C83BB" offset="0.7"/>
<stop stop-color="#003D6D" offset="1"/>
</linearGradient>
<polygon fill="url(#_45)" points="46.187,38.206 45.746,16.105 43.792,15.549 44.49,39.232 "/>
<linearGradient id="_46" gradientUnits="userSpaceOnUse" x1="60.81" y1="49.28" x2="39.47" y2="29.14">
<stop stop-color="#FFFFFF" offset="0.15"/>
<stop stop-color="#A2C2DD" offset="1"/>
</linearGradient>
<polygon fill="url(#_46)" points="44.49,39.232 46.187,38.206 59.713,42.889 59.654,44.817 "/>
<linearGradient id="_47" gradientUnits="userSpaceOnUse" x1="61.46" y1="4.85" x2="65.59" y2="3.51">
<stop stop-color="#FFFFFF" offset="0.05"/>
<stop stop-color="#A2C2DD" offset="1"/>
</linearGradient>
<path fill="url(#_47)" d="M65.926,4.525c-0.482,1.37-5.631,0.759-5.095-0.607C61.375,2.564,66.391,3.145,65.926,4.525z "/>
<linearGradient id="_48" gradientUnits="userSpaceOnUse" x1="41.39" y1="26.16" x2="58.56" y2="57.33">
<stop stop-color="#FFFFFF" offset="0"/>
<stop stop-color="#A2C2DD" offset="0.35"/>
<stop stop-color="#6C83BB" offset="0.7"/>
<stop stop-color="#003D6D" offset="1"/>
</linearGradient>
<polygon fill="url(#_48)" points="54.738,51.754 54.668,54.29 58.482,55.988 58.619,53.402 "/>
<polygon fill="url(#_48)" points="49.38,46.017 45.955,44.66 46.133,47.489 49.484,48.843 "/>
<polygon fill="url(#_48)" points="54.107,47.238 54.136,44.572 50.201,43.134 50.248,45.691 "/>
<polygon fill="url(#_48)" points="49.256,42.74 45.748,41.48 45.907,43.931 49.352,45.286 "/>
<polygon fill="url(#_48)" points="50.379,52.464 54.031,54.056 54.058,51.514 50.332,49.962 "/>
<polygon fill="url(#_48)" points="49.508,49.58 46.182,48.223 46.336,50.69 49.602,52.084 "/>
<polygon fill="url(#_48)" points="50.264,46.419 50.316,49.232 54.068,50.783 54.098,47.969 "/>
<polygon fill="url(#_48)" points="50.391,53.205 50.438,55.771 53.993,57.431 54.023,54.794 "/>
<polygon fill="#BFD5F1" points="7.626,63.714 12.705,67.993 16.343,65.46 11.565,61.308 "/>
<polygon fill="#337CE5" points="12.693,67.998 17.075,69.652 15.792,65.854 "/>
<linearGradient id="_56" gradientUnits="userSpaceOnUse" x1="19.06" y1="60.15" x2="44.42" y2="77.78">
<stop stop-color="#E6EEF4" offset="0"/>
<stop stop-color="#337CE5" offset="0.44"/>
<stop stop-color="#003D6D" offset="0.94"/>
</linearGradient>
<path fill="url(#_56)" d="M11.039,58.329l30.424,22.222L26.98,64.296c-1.313-0.966-1.918-2.001-2.25-2.892 c-1.537-4.188-5.873-7.124-9.813-5.119L11.039,58.329z"/>
<linearGradient id="_57" gradientUnits="userSpaceOnUse" x1="19.51" y1="60.3" x2="46.36" y2="78.97">
<stop stop-color="#E6EEF4" offset="0"/>
<stop stop-color="#337CE5" offset="0.44"/>
<stop stop-color="#003D6D" offset="0.94"/>
</linearGradient>
<path fill="url(#_57)" d="M18.761,55.845c-1.458-0.331-3.055-0.083-3.852,0.459l-3.878,2.047l3.637-0.617 L18.761,55.845z"/>
<linearGradient id="_58" gradientUnits="userSpaceOnUse" x1="48.06" y1="74.44" x2="45.54" y2="81.2">
<stop stop-color="#E6EEF4" offset="0"/>
<stop stop-color="#337CE5" offset="0.44"/>
<stop stop-color="#003D6D" offset="0.94"/>
</linearGradient>
<path fill="url(#_58)" d="M44.392,78.121l-0.116,5.564l3.215-2.302c1.213-1.636,1.72-3.579,0.195-5.924L44.392,78.121z "/>
<polygon fill="#BFD5F1" points="23.371,66.901 27.017,64.351 47.707,75.464 44.376,78.105 "/>
<linearGradient id="_59" gradientUnits="userSpaceOnUse" x1="9.64" y1="48.52" x2="26.47" y2="73.05">
<stop stop-color="#D6E4F3" offset="0"/>
<stop stop-color="#337CE5" offset="1"/>
</linearGradient>
<path fill="url(#_59)" d="M44.392,78.094c3.026,5.079-1.312,6.295-1.542,6.359 c-1.013-0.541-20.273-10.817-21.426-11.43c-1.146-0.612-2.557-0.917-5.556,0.007c-3.897,1.2-8.272-4.955-8.233-9.327 l5.074,4.3c3.041,0.141,3.916-2.979,2.767-5.572l-4.444-4.099c1.914-1.521,6.316-0.546,8.309,2.326 c1.229,1.763,2.215,5.013,4.047,6.23L44.392,78.094z"/>
<path fill="#0D4D8C" d="M41.539,81.941c0.863,0.461,1.735,0.14,1.945-0.723c0.205-0.854-0.328-1.93-1.189-2.393 c-0.859-0.455-1.734-0.132-1.941,0.724C40.144,80.416,40.678,81.481,41.539,81.941"/>
<linearGradient id="_60" gradientUnits="userSpaceOnUse" x1="74.23" y1="37.67" x2="60.23" y2="103">
<stop stop-color="#E6EEF4" offset="0"/>
<stop stop-color="#575AC6" offset="0.44"/>
<stop stop-color="#003D6D" offset="0.94"/>
</linearGradient>
<polygon fill="url(#_60)" points="65.068,75.698 63.034,57.368 68.581,54.151 74.474,69.042 "/>
<linearGradient id="_61" gradientUnits="userSpaceOnUse" x1="84.32" y1="48.37" x2="48.18" y2="73.29">
<stop stop-color="#DEE6F1" offset="0"/>
<stop stop-color="#7579D0" offset="1"/>
</linearGradient>
<polygon fill="url(#_61)" points="65.068,75.698 63.034,57.368 54.729,54.708 50.125,69.11 "/>
<polygon fill="#C0C6E8" points="68.581,54.151 60.293,52.429 54.729,54.708 63.034,57.368 "/>
<radialGradient id="_62" gradientUnits="userSpaceOnUse" cx="59.05" cy="42.88" r="19.38">
<stop stop-color="#E6EEF4" offset="0"/>
<stop stop-color="#575AC6" offset="0.44"/>
<stop stop-color="#003D6D" offset="0.94"/>
</radialGradient>
<path fill="url(#_62)" d="M68.87,47.528c0,9.761-14.693,9.761-14.693,0C54.177,37.719,68.87,37.719,68.87,47.528z"/>
</svg>