<?xml version="1.0" encoding="UTF-8"?>
<!DOCTYPE svg PUBLIC "-//W3C//DTD SVG 1.1 Tiny//EN" "http://www.w3.org/Graphics/SVG/1.1/DTD/svg11-tiny.dtd">
<svg width="84" height="58.001" viewBox="-0.006 -0.146 84 58.001">
<linearGradient id="_12" gradientUnits="userSpaceOnUse" x1="43.71" y1="27.99" x2="52.91" y2="46.11">
<stop stop-color="#A2C2DD" offset="0.1"/>
<stop stop-color="#6C83BB" offset="0.71"/>
<stop stop-color="#003D6D" offset="0.99"/>
</linearGradient>
<path fill="url(#_12)" d="M41.889,5.986c0,0,0.061,11.5,0.064,12.319c-0.567-0.128-1.933-0.438-1.933-0.438l-28.025,5.275 l1.353,24.593l4.54,3.015c0,0,8.401-2.697,8.672-2.784c0.251,0.132,8.257,4.315,8.257,4.315s-1.533-5.961-1.684-6.549 c0.616-0.18,11.905-3.457,11.905-3.457s0.061-11.293,0.065-12.151c0.78,0.228,8.235,2.393,8.814,2.561 c-0.151,0.589-1.686,6.55-1.686,6.55s8.008-4.184,8.259-4.315c0.271,0.087,8.675,2.8,8.675,2.8l4.888-3.047l0.956-24.577 L47.032,4.822L41.889,5.986z"/>
<linearGradient id="_13" gradientUnits="userSpaceOnUse" x1="14.97" y1="19.17" x2="15.35" y2="56.95">
<stop stop-color="#FFFFFF" offset="0"/>
<stop stop-color="#A2C2DD" offset="0.35"/>
<stop stop-color="#6C83BB" offset="0.7"/>
<stop stop-color="#003D6D" offset="1"/>
</linearGradient>
<polygon fill="url(#_13)" points="17.941,50.365 13.688,47.541 12.361,23.43 17.068,24.736 "/>
<linearGradient id="_14" gradientUnits="userSpaceOnUse" x1="43.55" y1="9.3" x2="23.76" y2="46.9">
<stop stop-color="#FFFFFF" offset="0.05"/>
<stop stop-color="#A2C2DD" offset="1"/>
</linearGradient>
<polygon fill="url(#_14)" points="32.709,45.49 44.689,42.012 44.811,19.313 17.068,24.736 17.941,50.365 26.592,47.588 34.281,51.607 "/>
<linearGradient id="_15" gradientUnits="userSpaceOnUse" x1="5.7" y1="25.84" x2="49.86" y2="17.26">
<stop stop-color="#FFFFFF" offset="0.05"/>
<stop stop-color="#A2C2DD" offset="1"/>
</linearGradient>
<polygon fill="url(#_15)" points="12.361,23.43 40.014,18.225 44.811,19.313 17.068,24.736 "/>
<linearGradient id="_16" gradientUnits="userSpaceOnUse" x1="13.78" y1="32.89" x2="50" y2="23.36">
<stop stop-color="#E6EEF4" offset="0"/>
<stop stop-color="#337CE5" offset="0.44"/>
<stop stop-color="#003D6D" offset="0.94"/>
</linearGradient>
<polygon fill="url(#_16)" points="41.641,25.482 41.668,26.641 19.061,32.053 19.336,30.34 "/>
<polygon fill="url(#_16)" points="41.514,30.719 41.586,31.875 19.189,38.105 19.4,36.385 "/>
<linearGradient id="_18" gradientUnits="userSpaceOnUse" x1="26.02" y1="18.49" x2="73.04" y2="27.07">
<stop stop-color="#DCE8E4" offset="0"/>
<stop stop-color="#43910A" offset="1"/>
</linearGradient>
<polygon fill="url(#_18)" points="54.342,32.443 42.359,28.963 42.24,6.266 69.98,11.689 69.119,37.336 60.459,34.541 52.768,38.561 "/>
<linearGradient id="_19" gradientUnits="userSpaceOnUse" x1="44.33" y1="6.46" x2="85.31" y2="12.17">
<stop stop-color="#DCE8E4" offset="0"/>
<stop stop-color="#43910A" offset="1"/>
</linearGradient>
<polygon fill="url(#_19)" points="74.648,10.383 47.039,5.18 42.24,6.266 69.98,11.689 "/>
<linearGradient id="_20" gradientUnits="userSpaceOnUse" x1="79.32" y1="22.06" x2="46.74" y2="12.58">
<stop stop-color="#E6EEF4" offset="0"/>
<stop stop-color="#4A9900" offset="0.44"/>
<stop stop-color="#0E4E58" offset="0.94"/>
</linearGradient>
<polygon fill="url(#_20)" points="45.408,12.436 45.381,13.594 67.682,18.893 67.604,17.244 "/>
<linearGradient id="_21" gradientUnits="userSpaceOnUse" x1="79.42" y1="27.73" x2="46.75" y2="18.23">
<stop stop-color="#E6EEF4" offset="0"/>
<stop stop-color="#4A9900" offset="0.44"/>
<stop stop-color="#0E4E58" offset="0.94"/>
</linearGradient>
<polygon fill="url(#_21)" points="45.535,17.67 45.463,18.828 67.631,24.977 67.586,23.32 "/>
<linearGradient id="_22" gradientUnits="userSpaceOnUse" x1="71.23" y1="1.02" x2="72.56" y2="47.52">
<stop stop-color="#E6EEF4" offset="0"/>
<stop stop-color="#4A9900" offset="0.44"/>
<stop stop-color="#0E4E58" offset="0.94"/>
</linearGradient>
<polyline fill="url(#_22)" points="69.119,37.336 73.711,34.473 74.648,10.383 69.98,11.689 "/>
</svg>