<?xml version="1.0" encoding="UTF-8" standalone="no"?>
<!DOCTYPE svg PUBLIC "-//W3C//DTD SVG 1.1 Tiny//EN" "http://www.w3.org/Graphics/SVG/1.1/DTD/svg11-tiny.dtd">
<svg xmlns="http://www.w3.org/2000/svg" xmlns:xlink="http://www.w3.org/1999/xlink" baseProfile="tiny" height="32px" version="1.1" viewBox="0 0 38 32" width="38px" x="0px" y="0px">
<rect fill="none" height="32" width="38" x="0"/>
<path d="M25.118,15.411c1.803-1.259,2.653-3.259,2.621-5.485c0.012-2.287-1.201-6.996-8.623-7.005  c-7.643,0.106-8.834,4.708-8.82,7.005c-0.035,2.237,0.809,4.21,2.619,5.481c-2.161,1.311-3.074,3.637-3.113,6.069  c-0.045,2.7,1.496,7.618,9.148,7.602c2.943,0.075,9.188-0.979,9.248-7.602C28.231,19.034,27.257,16.711,25.118,15.411z   M17.548,8.254c0.308-0.442,0.642-0.677,1.435-0.695c0.838,0.019,1.188,0.246,1.494,0.662c0.298,0.432,0.482,1.196,0.48,2.202  c0.002,0.916-0.197,1.683-0.519,2.146c-0.331,0.459-0.706,0.701-1.456,0.715c-0.725-0.017-1.076-0.251-1.403-0.717  c-0.315-0.469-0.505-1.24-0.502-2.145C17.073,9.485,17.249,8.709,17.548,8.254z M20.688,23.598c-0.357,0.537-0.76,0.819-1.705,0.843  c-0.888-0.021-1.293-0.313-1.659-0.876c-0.354-0.57-0.547-1.498-0.544-2.549c-0.003-1.042,0.208-1.88,0.559-2.382  c0.357-0.494,0.778-0.762,1.645-0.778c1.479,0.014,2.171,1.086,2.236,3.16C21.225,22.126,21.036,23.049,20.688,23.598z" fill-opacity="0.4" stroke-opacity="0.4"/>
<path d="M19.116,3.723c4.555,0,7.822,2.046,7.822,6.204c0,2.574-1.09,4.555-3.664,5.545  c2.904,0.892,4.125,3.234,4.125,6.007c0,4.456-3.299,6.799-8.449,6.799c-5.049,0-8.35-2.376-8.35-6.799  c0-2.739,1.221-5.082,4.125-6.007c-2.574-1.056-3.629-2.971-3.629-5.545C11.096,5.769,14.495,3.723,19.116,3.723z M18.983,17.056  c-2.145,0-3.002,1.684-3.002,3.961s0.758,4.225,3.002,4.225c2.311,0,3.037-1.849,3.037-4.225  C22.02,18.772,21.03,17.056,18.983,17.056z M18.983,6.759c-2.012,0-2.705,1.617-2.705,3.663c0,2.014,0.791,3.664,2.705,3.664  c1.947,0,2.773-1.617,2.773-3.664C21.756,8.244,21.03,6.759,18.983,6.759z" fill="#FFFFFF"/>
</svg>
