<?xml version="1.0" encoding="UTF-8"?>
<!DOCTYPE svg PUBLIC "-//W3C//DTD SVG 1.1 Tiny//EN" "http://www.w3.org/Graphics/SVG/1.1/DTD/svg11-tiny.dtd">
<svg baseProfile="tiny" height="26px" style="enable-background:new 0 0 26 26;" version="1.1" viewBox="0 0 26 26" width="26px" x="0px" xmlns="http://www.w3.org/2000/svg" xmlns:xlink="http://www.w3.org/1999/xlink" y="0px">
<rect height="26" style="fill:none;" width="26"/>
<path d="M26,22.664C26,24.507,24.506,26,22.664,26H3.336C1.494,26,0,24.507,0,22.664V3.336  C0,1.494,1.494,0,3.336,0h19.328C24.506,0,26,1.494,26,3.336V22.664z" style="opacity:0.5;"/>
<path d="M12.996,21.003c-2.048,0-4.095-0.78-5.658-2.344c-0.007-0.007-0.009-0.009-0.014-0.016l-1.683,1.683  l-0.001-5.371l5.374-0.002l-1.72,1.721c0.007,0.007,0.008,0.011,0.015,0.017c1.017,1.017,2.354,1.526,3.69,1.526  c1.337,0,2.673-0.509,3.691-1.527c1.17-1.17,1.665-2.764,1.485-4.295l2.799,0.001c0.169,2.247-0.601,4.544-2.318,6.262  C17.095,20.221,15.045,21.003,12.996,21.003 M5.023,13.563c-0.157-2.229,0.609-4.515,2.316-6.222  c1.562-1.563,3.61-2.343,5.657-2.343c2.048,0,4.098,0.782,5.663,2.346l1.708-1.709l-0.002,5.373l-5.371,0.001l1.695-1.699  c-1.019-1.018-2.355-1.527-3.692-1.527s-2.673,0.509-3.69,1.526c-1.163,1.163-1.657,2.736-1.493,4.254L5.023,13.563 M4.992,21.896  l1.109-1.109l1.237-1.238c1.571,1.362,3.557,2.105,5.657,2.105l0,0c2.312,0,4.485-0.901,6.12-2.535  c1.782-1.782,2.696-4.251,2.506-6.771l-0.045-0.602h-0.603l-2.799-0.001l-0.73,0l0.085,0.726c0.164,1.399-0.311,2.77-1.3,3.76  c-0.862,0.862-2.01,1.336-3.231,1.336c-1.01,0-1.968-0.323-2.757-0.922l1.232-1.231l1.11-1.11h-1.57l-5.374,0.002h-0.65v0.65  l0.001,5.371L4.992,21.896L4.992,21.896z M4.417,14.213h0.606h2.792h0.724l-0.078-0.72c-0.15-1.387,0.326-2.744,1.307-3.724  c0.861-0.861,2.008-1.336,3.23-1.336c1.003,0,1.955,0.319,2.741,0.91l-1.204,1.207l-1.106,1.109l1.566,0l5.371-0.001h0.65v-0.65  l0.002-5.373l0.001-1.57l-1.11,1.111l-1.267,1.266c-1.57-1.354-3.551-2.093-5.645-2.093c-2.311,0-4.483,0.899-6.117,2.534  c-1.768,1.768-2.682,4.22-2.505,6.728L4.417,14.213L4.417,14.213z" style="opacity:0.4;"/>
<g>
<path d="M16.689,9.31l-1.695,1.699l5.371-0.001l0.002-5.373l-1.708,1.709l0,0   c-3.128-3.127-8.194-3.129-11.32-0.003c-1.708,1.707-2.473,3.993-2.316,6.222l2.791,0c-0.164-1.518,0.331-3.091,1.493-4.254   C11.341,7.274,14.653,7.274,16.689,9.31L16.689,9.31L16.689,9.31z M5.642,20.326l1.683-1.683c0.005,0.007,0.007,0.009,0.014,0.016   c3.128,3.127,8.195,3.123,11.318-0.001c1.718-1.718,2.487-4.016,2.318-6.262l-2.799-0.001c0.18,1.531-0.315,3.125-1.485,4.295   c-2.037,2.037-5.348,2.035-7.382,0.001c-0.007-0.006-0.008-0.01-0.015-0.017l1.72-1.721l-5.374,0.002L5.642,20.326L5.642,20.326z" style="fill:#FFFFFF;"/>
</g>
</svg>
