<?xml version="1.0" encoding="UTF-8" standalone="no"?>
<!DOCTYPE svg PUBLIC "-//W3C//DTD SVG 1.1 Tiny//EN" "http://www.w3.org/Graphics/SVG/1.1/DTD/svg11-tiny.dtd">
<svg xmlns="http://www.w3.org/2000/svg" xmlns:xlink="http://www.w3.org/1999/xlink" baseProfile="tiny" height="32px" version="1.1" viewBox="0 0 38.001 32" width="38.001px" x="0px" y="0px">
<rect fill="none" height="32" width="38.001"/>
<path d="M26.427,7.118c-1.217-2.465-3.668-4.024-7.461-4.196c-5.01-0.227-8.885,3.19-8.885,9.382  c0,2.246,0.459,4.334,1.604,5.958c2.479,3.517,7.813,2.559,8.896,2.023c-0.541,3.493-2.43,4.001-4.223,4.021  c-1.093,0.003-2.297-0.125-3.269-0.371c-0.239-0.061-0.905,0.009-0.995,0.776v3.202c0,0.39,0.283,0.722,0.665,0.788  c1.396,0.239,2.355,0.444,4.192,0.375c2.379-0.09,6.481-0.699,8.781-4.431C28.04,20.903,28.956,12.237,26.427,7.118z M20.374,15.337  c-0.361,0.563-0.73,0.806-1.447,0.826c-0.791-0.034-1.051-0.277-1.389-0.951c-0.303-0.678-0.423-1.777-0.418-2.968  c-0.005-1.432,0.063-2.735,0.366-3.537c0.347-0.79,0.589-1.061,1.573-1.108c0.816,0.029,1.124,0.373,1.49,1.359  c0.314,0.962,0.387,2.387,0.383,3.748C20.937,13.835,20.724,14.771,20.374,15.337z" fill-opacity="0.4" stroke-opacity="0.4"/>
<path d="M12.895,24.713c1.057,0.265,2.311,0.396,3.465,0.396c3.929,0,4.919-2.674,5.216-6.37  c-1.055,0.892-2.344,1.32-4.226,1.32c-4.752,0-6.469-3.466-6.469-7.756c0-4.72,2.244-8.581,8.087-8.581  c7.129,0,8.152,6.139,8.152,11.684c0,6.337-2.111,12.871-10.167,12.871c-1.286,0-2.705-0.132-4.059-0.362V24.713z M19.001,6.792  c-2.542,0-2.739,2.541-2.739,5.445c0,2.476,0.428,4.72,2.607,4.72c1.948,0,2.806-1.815,2.806-4.258  C21.675,9.927,21.444,6.792,19.001,6.792z" fill="#FFFFFF"/>
</svg>
