<?xml version="1.0" encoding="UTF-8"?>
<!DOCTYPE svg PUBLIC "-//W3C//DTD SVG 1.1 Tiny//EN" "http://www.w3.org/Graphics/SVG/1.1/DTD/svg11-tiny.dtd">
<svg baseProfile="tiny" height="22px" version="1.1" viewBox="0 0 22 22" width="22px" x="0px" xmlns="http://www.w3.org/2000/svg" xmlns:xlink="http://www.w3.org/1999/xlink" y="0px">
<g>
<rect fill="none" height="22" width="22"/>
<path d="M21.031,15.653l-2.527-2.53c0.173-0.086,0.747-2.059,0.747-3.622c0-5.101-4.15-9.25-9.25-9.25   c-5.102,0-9.251,4.149-9.251,9.25c0,5.142,4.25,9.294,9.352,9.294h4.831V21c0,0.752,0.885,0.928,1.281,0.531l4.817-4.818   C21.324,16.421,21.324,15.945,21.031,15.653z M7.733,10.762c-0.152-0.153-0.562-0.749-1.313-0.749   c0.127-0.157,0.201-0.354,0.201-0.57V8.638c0,0,0.385-0.6,0.686-1.031c1.099,0,1.897-0.776,1.897-1.892   c0.561,0,1.186-0.635,1.186-1.074c0.109,0.268,0.415,0.453,0.415,0.453c-0.384,0.908,0.525,1.56,0.525,1.56v0.72   c0,0.604,0.35,1.006,0.781,1.175c-0.166,0.269-0.266,0.578-0.266,0.895v1.552c0,0.197,0.043,0.394,0.117,0.58H9.88   C9.178,10.746,8.827,10.762,7.733,10.762z" fill-opacity="0.4" stroke-opacity="0.4"/>
<polygon fill="#FFFFFF" points="10.101,18.044 10.101,14.319 15.683,14.319 15.683,11.361 20.501,16.183 15.683,21 15.683,18.044     "/>
<path d="M9.101,14.32c0-0.553,0.448-1.001,1-1.001h4.581v-1.958c0-0.404,0.242-0.769,0.617-0.924   c0.123-0.052,0.254-0.076,0.381-0.076c0.262,0,0.518,0.103,0.709,0.293l1.632,1.633c0.273-0.659,0.479-1.922,0.479-2.787   c0-4.686-3.813-8.5-8.5-8.5s-8.5,3.814-8.5,8.5c0,4.374,3.361,7.957,7.578,8.448c0.007,0.001,0.015,0,0.022,0.001V14.32z    M14.149,6.342c0,0,0.003-0.521,0.52-0.521h1.549c0,0,0.017,0.518,0.574,0.518c0.156,0.333,0.291,0.677,0.396,1.034h-0.971   l-0.858,0.859l-1.21-1.21V6.342z M5.871,15.754c-1.975-1.309-3.292-3.526-3.36-6.051c0.743,0.743,2.326,2.324,2.326,2.324   s-0.518,0.518,0,1.035c0.481,0.48,1.034,1.034,1.034,1.034V15.754z M8.458,11.511c-0.486,0-1.035,0-1.035,0s-0.2-0.202-0.517-0.517   c-0.314-0.315-0.734-0.301-1.035,0c-0.299,0.301-0.517,0.517-0.517,0.517l-1.035-1.035c0.257-0.255,0.276-0.747,0-1.023   C4.045,9.177,3.803,8.925,3.803,8.925C3.214,8.221,4.031,7.271,4.837,7.891l0.518,0.518v1.034c0,0.259,0.517,0.259,0.517,0V8.408   l1.035-1.552c0,0,0,0,0.517,0c1.551-0.186,1.14-2.068,0-2.068c-0.257,0-0.257,0-0.517,0c-0.259,0-0.259-0.518,0-0.518   c0.26,0,1.034,0,1.034,0s-0.002,0,0.518,0.518c0.621,0.619,1.679-0.302,1.035-1.035C9.47,3.726,8.616,2.877,8.015,2.275   c1.173-0.383,2.498-0.336,3.577-0.103L11.044,2.72v1.553l0.418,0.417c0.309,0.308,0.877-0.157,0.518-0.517L11.827,4.02   c-0.375-0.375,0.189-0.846,0.511-0.524c0.26,0.26,0.517,0.521,0.517,0.521s-1.053,1.053-1.292,1.291c-0.238,0.24,0,0.518,0,0.518   l0.518,0.518c0,0,0,0.515,0,1.031c0,0.518,0.517,0.518,0.517,0.518s0.518,0,1.035,0c0.014,0,0.018-0.007,0.03-0.008v0.525h-0.03   c-0.518,0-1.035,0.517-1.035,1.034v1.552c0,0.883,1.058,1.034,1.065,1.034v0.295H9.435C9.303,11.921,8.869,11.511,8.458,11.511z" fill="#FFFFFF"/>
</g>
</svg>
