<?xml version="1.0" encoding="UTF-8"?>
<!DOCTYPE svg PUBLIC "-//W3C//DTD SVG 1.1 Tiny//EN" "http://www.w3.org/Graphics/SVG/1.1/DTD/svg11-tiny.dtd">
<svg baseProfile="tiny" height="44px" version="1.1" viewBox="0 0 44 44" width="44px" x="0px" xmlns="http://www.w3.org/2000/svg" xmlns:xlink="http://www.w3.org/1999/xlink" y="0px">
<g>
<path d="M37.782,20.635l-2.478-3.183l-2.368,1.843c-1.223-0.791-2.635-1.315-4.153-1.486v-2.203h2.144v-2.14   h-6.426v2.138l2.14,0.021v2.185c-1.497,0.168-2.891,0.679-4.101,1.451l-2.326-1.808l-2.477,3.183l1.914,1.49   c-0.989,1.513-1.572,3.316-1.572,5.256c0,5.314,4.32,9.635,9.632,9.635c5.313,0,9.634-4.32,9.634-9.635   c0-1.92-0.568-3.706-1.541-5.209L37.782,20.635z M27.712,34.875c-4.131,0-7.492-3.36-7.492-7.497c0-4.131,3.361-7.492,7.492-7.492   c4.132,0,7.492,3.361,7.492,7.492C35.204,31.515,31.844,34.875,27.712,34.875z M26.608,28.611v-6.553h2.303v6.553H26.608   L26.608,28.611z M17.287,13.495c-0.358-0.053-0.722-0.089-1.095-0.089c-4.131,0-7.492,3.36-7.492,7.491   c0,1.734,0.596,3.327,1.586,4.599c0.058,1.325,0.406,2.575,0.998,3.681C8.46,27.496,6.56,24.421,6.56,20.9   c0-1.939,0.582-3.743,1.573-5.256l-1.915-1.489l2.476-3.184l2.325,1.809c1.211-0.773,2.604-1.283,4.102-1.452V9.145l-2.139-0.021   V6.985h4.306V13.495z M23.047,17.095c-0.358-0.053-0.722-0.089-1.095-0.089c-4.131,0-7.493,3.361-7.493,7.492   c0,1.734,0.597,3.326,1.587,4.599c0.059,1.325,0.406,2.575,0.997,3.681c-2.823-1.682-4.724-4.757-4.724-8.276   c0-1.94,0.582-3.744,1.572-5.256l-1.914-1.49l2.477-3.184l2.325,1.809c1.211-0.773,2.604-1.283,4.101-1.451v-2.185l-2.139-0.021   v-2.138h4.306V17.095z" fill="url(#SVGID_1_)"/>
<rect fill="none" height="44" width="44"/>
<defs>
<linearGradient gradientUnits="userSpaceOnUse" id="SVGID_1_" x1="6.2178" x2="37.7822" y1="22.0005" y2="22.0005">
<stop offset="0" style="stop-color:#B2B2B2"/>
<stop offset="1" style="stop-color:#000000"/>
</linearGradient>
</defs>
</g>
</svg>
