<?xml version="1.0" encoding="UTF-8" standalone="no"?>
<!DOCTYPE svg PUBLIC "-//W3C//DTD SVG 1.1 Tiny//EN" "http://www.w3.org/Graphics/SVG/1.1/DTD/svg11-tiny.dtd">
<svg xmlns="http://www.w3.org/2000/svg" xmlns:xlink="http://www.w3.org/1999/xlink" baseProfile="tiny" height="32px" version="1.1" viewBox="0 0 38 32" width="38px" x="0px" y="0px">
<g>
<rect fill="none" height="32" width="38"/>
<path d="M11.449,28.293c1.921,0.507,3.609,0.786,5.98,0.786c2.931-0.004,9.713-0.139,9.713-8.194   c0-2.522-1.198-4.635-3.334-5.724c1.871-1.173,2.931-3.091,2.938-5.463c0.021-7.187-7.156-7.674-14.561-5.958   c-0.357,0.083-0.605,0.408-0.605,0.776v3.201c0,0.925,0.771,0.84,1.01,0.771c6.838-1.96,7.201,0.602,7.207,1.539   c-0.037,1.359-0.229,2.962-6.03,2.962c-0.655,0-0.8,0.59-0.8,0.801v3.035c0,0.21,0.052,0.8,0.8,0.8c5.631,0,6.276,1.54,6.33,3.359   c0.037,1.252,0.012,4.832-8.261,2.554c-0.235-0.064-0.982-0.079-0.982,0.78v3.201C10.854,27.883,11.1,28.201,11.449,28.293z" fill-opacity="0.4" stroke-opacity="0.4"/>
<path d="M17.066,6.893c-1.518,0-3.102,0.396-4.686,0.825V4.517c1.715-0.43,3.729-0.792,5.775-0.792   c4.521,0,7.789,1.518,7.789,5.974c0,2.805-1.551,4.72-4.357,5.577c3.07,0.562,4.754,2.674,4.754,5.611   c0,5.28-3.234,7.393-8.912,7.393c-2.311,0-3.895-0.264-5.775-0.759v-3.201c1.98,0.462,3.531,0.792,5.018,0.792   c3.035,0,4.225-1.452,4.225-4.126c0-3.399-2.047-4.158-7.131-4.158v-3.036c4.951,0,6.832-0.76,6.832-3.763   C20.598,7.883,19.41,6.893,17.066,6.893z" fill="#FFFFFF"/>
</g>
</svg>
