<?xml version="1.0" encoding="UTF-8"?>
<!DOCTYPE svg PUBLIC "-//W3C//DTD SVG 1.1 Tiny//EN" "http://www.w3.org/Graphics/SVG/1.1/DTD/svg11-tiny.dtd">
<svg width="332" height="127.524" viewBox="1.9 2.562 332 127.524">
<path fill-opacity="0.01" fill="#656B6B" d="M15.9,14.086c-6.617,0-12,5.383-12,12v86c0,6.617,5.383,12,12,12h304 c6.617,0,12-5.383,12-12v-86c0-6.617-5.383-12-12-12H15.9z"/>
<path fill-opacity="0.03" fill="#656B6B" d="M15.9,15.086c-6.064,0-11,4.935-11,11v86c0,6.065,4.936,11,11,11h304 c6.066,0,11-4.935,11-11v-86c0-6.065-4.934-11-11-11H15.9z"/>
<path fill-opacity="0.04" fill="#656B6B" d="M15.9,16.086c-5.514,0-10,4.486-10,10v86c0,5.514,4.486,10,10,10h304 c5.514,0,10-4.486,10-10v-86c0-5.514-4.486-10-10-10H15.9z"/>
<path fill-opacity="0.06" fill="#656B6B" d="M15.9,17.086c-4.963,0-9,4.037-9,9v86c0,4.963,4.037,9,9,9h304c4.963,0,9-4.037,9-9v-86 c0-4.963-4.037-9-9-9H15.9z"/>
<path fill-opacity="0.08" fill="#656B6B" d="M15.9,18.086c-4.41,0-8,3.589-8,8v86c0,4.411,3.59,8,8,8h304c4.412,0,8-3.589,8-8v-86 c0-4.411-3.588-8-8-8H15.9z"/>
<path fill-opacity="0.1" fill="#656B6B" d="M15.9,19.086c-3.859,0-7,3.141-7,7v86c0,3.859,3.141,7,7,7h304c3.859,0,7-3.141,7-7v-86 c0-3.859-3.141-7-7-7H15.9z"/>
<path fill-opacity="0.11" fill="#656B6B" d="M15.9,20.086c-3.309,0-6,2.691-6,6v86c0,3.309,2.691,6,6,6h304c3.309,0,6-2.691,6-6v-86 c0-3.309-2.691-6-6-6H15.9z"/>
<path fill-opacity="0.1" fill="#656B6B" d="M324.9,112.086c0,2.762-2.238,5-5,5h-304c-2.762,0-5-2.238-5-5v-86c0-2.762,2.238-5,5-5h304 c2.762,0,5,2.238,5,5V112.086z"/>
<polygon fill-opacity="0.03" fill="#656B6B" points="323.9,17.086 6.9,17.086 6.9,117.086 324.9,117.086 324.9,17.086 "/>
<linearGradient id="_2" gradientUnits="userSpaceOnUse" x1="165.9" y1="105.2" x2="165.9" y2="40.99">
<stop stop-color="#D9F4E0" offset="0"/>
<stop stop-color="#FFFFFF" offset="1"/>
</linearGradient>
<rect x="7.9" y="18.086" fill="url(#_2)" width="316" height="98"/>
</svg>