<?xml version="1.0" encoding="UTF-8"?>
<!DOCTYPE svg PUBLIC "-//W3C//DTD SVG 1.1 Tiny//EN" "http://www.w3.org/Graphics/SVG/1.1/DTD/svg11-tiny.dtd">
<svg width="100%" height="100%" viewBox="-0.462 -0.159 88 88">
<linearGradient id="_19" gradientUnits="userSpaceOnUse" x1="52.72" y1="55.49" x2="63.47" y2="67.99">
<stop stop-color="#A2C2DD" offset="0.1"/>
<stop stop-color="#6C83BB" offset="0.71"/>
<stop stop-color="#003D6D" offset="0.99"/>
</linearGradient>
<path fill="url(#_19)" d="M34.978,14.08l-3.416,11.37l-8.453-1.451l-7.789,2.845l2.393,10.336 c-4.91-2.58-5.816-2.485-7.226-5.919l-2.171,0.891l4.953,12.638l-2.697,0.604l0.359,6.832c-1.716,2.515-1.566,5.028,0.316,6.126 l0.594,11.434l26.899,7.767l2.56-2.353l0.375-12.188l22.797,6.99l14.83-45.451l-19.748-2.979l0.234-6.089l-19.93-2.923 L34.978,14.08z M14.196,40.151c3.418,0.293,4.949,0.979,5.396,5.379l-3.589-0.691L14.196,40.151z"/>
<linearGradient id="_20" gradientUnits="userSpaceOnUse" x1="23.15" y1="41.71" x2="74.32" y2="41.71">
<stop stop-color="#FFFFFF" offset="0.15"/>
<stop stop-color="#A2C2DD" offset="1"/>
</linearGradient>
<polygon fill="url(#_20)" points="23.147,56.579 35.505,14.618 55.604,17.843 55.46,24.069 74.317,27.231 64.044,68.802 "/>
<linearGradient id="_21" gradientUnits="userSpaceOnUse" x1="51.42" y1="55.68" x2="14.06" y2="24.04">
<stop stop-color="#E2E6E4" offset="0"/>
<stop stop-color="#A3740A" offset="1"/>
</linearGradient>
<polygon fill="url(#_21)" points="64.046,68.407 22.946,56.56 16.169,27.28 57.083,35.479 "/>
<linearGradient id="_22" gradientUnits="userSpaceOnUse" x1="39.6" y1="30.59" x2="44.6" y2="19.26">
<stop stop-color="#E2E6E4" offset="0"/>
<stop stop-color="#A3740A" offset="1"/>
</linearGradient>
<polygon fill="url(#_22)" points="64.005,31.714 23.202,24.714 16.169,27.28 57.19,35.638 "/>
<linearGradient id="_23" gradientUnits="userSpaceOnUse" x1="46.26" y1="18.21" x2="48.63" y2="11.79">
<stop stop-color="#FFFFFF" offset="0.05"/>
<stop stop-color="#A2C2DD" offset="1"/>
</linearGradient>
<polygon fill="url(#_23)" points="59.095,16.073 39.942,13.267 35.542,14.638 55.604,17.843 "/>
<linearGradient id="_24" gradientUnits="userSpaceOnUse" x1="65.86" y1="27.51" x2="68.28" y2="20.94">
<stop stop-color="#FFFFFF" offset="0.05"/>
<stop stop-color="#A2C2DD" offset="1"/>
</linearGradient>
<polygon fill="url(#_24)" points="78.409,25.108 58.858,22.159 55.46,24.069 74.317,27.231 "/>
<linearGradient id="_25" gradientUnits="userSpaceOnUse" x1="74.1" y1="46.92" x2="57.6" y2="52.65">
<stop stop-color="#E6EEF4" offset="0"/>
<stop stop-color="#A3740A" offset="0.44"/>
<stop stop-color="#474105" offset="0.94"/>
</linearGradient>
<polygon fill="url(#_25)" points="64.005,31.714 64.048,69.12 57.085,35.694 "/>
<linearGradient id="_26" gradientUnits="userSpaceOnUse" x1="54" y1="30.54" x2="76.05" y2="51.58">
<stop stop-color="#A2C2DD" offset="0.1"/>
<stop stop-color="#6C83BB" offset="0.71"/>
<stop stop-color="#003D6D" offset="0.99"/>
</linearGradient>
<polygon fill="url(#_26)" points="78.409,25.108 64.062,68.866 74.317,27.231 "/>
<linearGradient id="_27" gradientUnits="userSpaceOnUse" x1="32.59" y1="7.04" x2="81.05" y2="32.62">
<stop stop-color="#FFFFFF" offset="0"/>
<stop stop-color="#A2C2DD" offset="0.35"/>
<stop stop-color="#6C83BB" offset="0.7"/>
<stop stop-color="#003D6D" offset="1"/>
</linearGradient>
<polygon fill="url(#_27)" points="55.604,17.843 55.46,24.069 58.858,22.159 59.095,16.073 "/>
<linearGradient id="_28" gradientUnits="userSpaceOnUse" x1="33.67" y1="63.92" x2="67.67" y2="28.59">
<stop stop-color="#E2E6E4" offset="0"/>
<stop stop-color="#A3740A" offset="1"/>
</linearGradient>
<polygon fill="url(#_28)" points="23.147,56.579 30.886,30.29 57.142,35.687 64.062,68.866 "/>
<linearGradient id="_29" gradientUnits="userSpaceOnUse" x1="49.28" y1="60.38" x2="34.06" y2="65.66">
<stop stop-color="#A2C2DD" offset="0.1"/>
<stop stop-color="#6C83BB" offset="0.71"/>
<stop stop-color="#003D6D" offset="0.99"/>
</linearGradient>
<polygon fill="url(#_29)" points="38.586,76.761 40.64,74.874 41.388,50.444 38.865,51.598 "/>
<linearGradient id="_30" gradientUnits="userSpaceOnUse" x1="25.64" y1="51.18" x2="26.76" y2="46.56">
<stop stop-color="#FFFFFF" offset="0.15"/>
<stop stop-color="#A2C2DD" offset="1"/>
</linearGradient>
<polygon fill="url(#_30)" points="41.41,50.425 14.454,45.237 11.329,45.938 38.959,51.608 "/>
<linearGradient id="_31" gradientUnits="userSpaceOnUse" x1="73" y1="62.13" x2="11" y2="61.13">
<stop stop-color="#FFFFFF" offset="0.15"/>
<stop stop-color="#A2C2DD" offset="1"/>
</linearGradient>
<polygon fill="url(#_31)" points="11.335,45.948 12.543,69.239 38.586,76.761 38.955,51.606 "/>
<linearGradient id="_32" gradientUnits="userSpaceOnUse" x1="23.19" y1="41.45" x2="28.3" y2="81.72">
<stop stop-color="#FFFFFF" offset="0.05"/>
<stop stop-color="#A2C2DD" offset="1"/>
</linearGradient>
<polygon fill="url(#_32)" points="36.599,74.194 14.229,67.655 13.05,48.487 36.986,53.323 "/>
<linearGradient id="_33" gradientUnits="userSpaceOnUse" x1="47.89" y1="86.81" x2="23.39" y2="67.31">
<stop stop-color="#FFFFFF" offset="0"/>
<stop stop-color="#A2C2DD" offset="0.35"/>
<stop stop-color="#6C83BB" offset="0.7"/>
<stop stop-color="#003D6D" offset="1"/>
</linearGradient>
<path fill="url(#_33)" d="M14.001,64.294l6.708,3.507l8.287,1.212c4.015-0.921,6.7,0.449,7.659,1.096l-0.057,4.219 l-22.369-6.541L14.001,64.294z"/>
<path fill="#298595" d="M20.903,67.093l10.556-0.782c-1.041,7.04-10.866,2.777-11.976,1.617L20.903,67.093z"/>
<linearGradient id="_34" gradientUnits="userSpaceOnUse" x1="18.02" y1="65.5" x2="20.1" y2="67.43">
<stop stop-color="#D6E6EC" offset="0"/>
<stop stop-color="#298595" offset="1"/>
</linearGradient>
<path fill="url(#_34)" d="M18.211,64.922l2.692,2.171l-1.088,1.105c-0.896-0.582-1.379-1.653-1.379-1.653 S18.166,65.651,18.211,64.922z"/>
<path fill="#BFDAE1" d="M18.211,64.936l2.69,2.21c3.084,1.057,8.763,2.461,10.558-0.835 C29.031,65.657,20.002,64.511,18.211,64.936z"/>
<path fill="#115B7E" d="M21.104,66.782l-2.018-1.629c1.5-0.218,9.813,0.713,11.879,1.267 C29.035,68.921,24.029,67.705,21.104,66.782z"/>
<linearGradient id="_35" gradientUnits="userSpaceOnUse" x1="23.79" y1="58.76" x2="15.5" y2="58.41">
<stop stop-color="#2B98A0" offset="0"/>
<stop stop-color="#0A4A60" offset="1"/>
</linearGradient>
<polygon fill="url(#_35)" points="24.188,66.301 24.349,51.356 17.976,62.882 "/>
<polygon fill="#2F8E9A" points="25.056,67.179 24.524,54.188 28.86,66.769 "/>
<polygon fill="#BFDAE1" points="22.591,65.71 24.624,67.698 26.147,67.893 23.925,65.788 "/>
<polygon fill="#2F8E9A" points="22.646,65.996 24.279,67.616 24.604,67.673 22.591,65.71 "/>
<path fill="#6D5607" d="M16.408,50.796l-7.16-18.268l0.888-0.363c1.072,2.574,2.643,3.275,4.242,4.05 c3.646,1.755,7.885,3.071,6.547,12.002l-0.705-0.149c0.795-6.906-2.127-8.711-7.041-8.693l4.713,12.223L16.408,50.796z"/>
<radialGradient id="_36" gradientUnits="userSpaceOnUse" cx="15.21" cy="52.15" fx="14.48" fy="52.49" r="3.65">
<stop stop-color="#E6EEF4" offset="0"/>
<stop stop-color="#A3740A" offset="0.44"/>
<stop stop-color="#474105" offset="0.94"/>
</radialGradient>
<path fill="url(#_36)" d="M17.989,53.171c-0.35,2.188-2.295,4.357-4.352,4.837c-2.056,0.485-3.441-0.896-3.095-3.088 c0.349-2.187,2.293-4.354,4.351-4.84C16.949,49.599,18.337,50.979,17.989,53.171z"/>
</svg>