<?xml version="1.0" encoding="UTF-8"?>
<!DOCTYPE svg PUBLIC "-//W3C//DTD SVG 1.1 Tiny//EN" "http://www.w3.org/Graphics/SVG/1.1/DTD/svg11-tiny.dtd">
<svg width="100%" height="100%" viewBox="0 0 88 88">
<linearGradient id="_12" gradientUnits="userSpaceOnUse" x1="46.08" y1="46.14" x2="59.15" y2="71.88">
<stop stop-color="#A2C2DD" offset="0.1"/>
<stop stop-color="#6C83BB" offset="0.71"/>
<stop stop-color="#003D6D" offset="0.99"/>
</linearGradient>
<path fill="url(#_12)" d="M59.691,11.164c0,0-2.27,3.113-2.654,3.641c-7.761-1.005-17.973,0.51-23.732,6.246L19.262,39.547 c0,0,0.975,9.085,1.027,9.577c-0.286,0.41-6.625,9.509-6.625,9.509l1.538,9.728l26.725,12.072c0,0,9.353-14.375,9.955-15.301 c0.891,0.383,5.811,2.505,5.811,2.505l12.959-22.818c1.734-4.185,1.109-4.602,1.935-15.274c0.378-2.806-0.293-6.468-3.694-9.624 c0.42-0.573,1.205-1.645,1.205-1.645c2.214-2.971,1.499-6.907-1.311-8.809C65.889,7.515,61.81,8.276,59.691,11.164z"/>
<linearGradient id="_13" gradientUnits="userSpaceOnUse" x1="56.97" y1="11.87" x2="69.72" y2="17.62">
<stop stop-color="#FFFFFF" offset="0"/>
<stop stop-color="#A2C2DD" offset="0.35"/>
<stop stop-color="#6C83BB" offset="0.7"/>
<stop stop-color="#003D6D" offset="1"/>
</linearGradient>
<path fill="url(#_13)" d="M60.267,11.578c1.898-2.589,5.556-3.271,8.138-1.532c2.564,1.737,3.063,5.233,1.139,7.815 l-3.268,4.458l-10.864-4.081L60.267,11.578z"/>
<linearGradient id="_14" gradientUnits="userSpaceOnUse" x1="64.5" y1="71.42" x2="15.16" y2="34.75">
<stop stop-color="#FFFFFF" offset="0"/>
<stop stop-color="#A2C2DD" offset="0.35"/>
<stop stop-color="#6C83BB" offset="0.7"/>
<stop stop-color="#003D6D" offset="1"/>
</linearGradient>
<polygon fill="url(#_14)" points="57.404,66.8 21.188,50.842 19.998,39.749 57.334,54.474 "/>
<linearGradient id="_15" gradientUnits="userSpaceOnUse" x1="75.66" y1="25.82" x2="52.41" y2="71.82">
<stop stop-color="#FFFFFF" offset="0"/>
<stop stop-color="#A2C2DD" offset="0.35"/>
<stop stop-color="#6C83BB" offset="0.7"/>
<stop stop-color="#003D6D" offset="1"/>
</linearGradient>
<path fill="url(#_15)" d="M57.351,54.474l14.588-25.628l-0.661,10.89c-0.098,1.62-0.567,3.228-1.223,4.737L57.373,66.8 L57.351,54.474z"/>
<linearGradient id="_16" gradientUnits="userSpaceOnUse" x1="51.03" y1="59.31" x2="45.09" y2="28.73">
<stop stop-color="#FFFFFF" offset="0.15"/>
<stop stop-color="#A2C2DD" offset="1"/>
</linearGradient>
<path fill="url(#_16)" d="M60.224,16.096c-6.941-1.856-19.764-1.178-26.414,5.451L19.998,39.749l37.336,14.725 l13.361-20.897C75.195,23.575,67.193,17.964,60.224,16.096z"/>
<linearGradient id="_17" gradientUnits="userSpaceOnUse" x1="61.24" y1="49.34" x2="8.58" y2="-12.65">
<stop stop-color="#E6EEF4" offset="0"/>
<stop stop-color="#337CE5" offset="0.44"/>
<stop stop-color="#003D6D" offset="0.94"/>
</linearGradient>
<polygon fill="url(#_17)" points="65.493,28.891 53.825,46.41 29.225,37.107 41.06,21.021 "/>
<linearGradient id="_18" gradientUnits="userSpaceOnUse" x1="73.89" y1="77.21" x2="28.23" y2="3.56">
<stop stop-color="#E6EEF4" offset="0"/>
<stop stop-color="#337CE5" offset="0.44"/>
<stop stop-color="#003D6D" offset="0.94"/>
</linearGradient>
<path fill="url(#_18)" d="M48.683,26.477l-1.074,1.415l6.535,2.141l-4.092,5.402l2.315,0.765l1.21-1.602l5.076,1.676 l-3.598,4.741l-5.042-1.669l1.196-1.604L39.389,33.85l-1.182,1.626c-0.838-1.28-1.771-2.572-2.636-3.714 c1.874-0.244,3.973-0.546,6.001-0.884l-1.048,1.423l7.868,2.586l2.906-3.861l-4.855-1.594l-1.065,1.419 c-0.826-1.275-1.749-2.565-2.608-3.705C44.663,26.903,46.8,26.604,48.683,26.477z"/>
<linearGradient id="_19" gradientUnits="userSpaceOnUse" x1="36.68" y1="74.02" x2="32.33" y2="51.62">
<stop stop-color="#FFFFFF" offset="0.15"/>
<stop stop-color="#A2C2DD" offset="1"/>
</linearGradient>
<polygon fill="url(#_19)" points="52.215,54.531 41.544,70.425 14.41,58.802 24.927,43.708 "/>
<polygon fill="#87A8CB" points="31.225,54.427 28.842,58.146 21.856,55.148 24.256,51.523 "/>
<polygon fill="#87A8CB" points="44.426,59.973 42.061,63.862 35.234,60.896 37.609,57.097 "/>
<linearGradient id="_20" gradientUnits="userSpaceOnUse" x1="52.93" y1="34.89" x2="42.59" y2="87.89">
<stop stop-color="#FFFFFF" offset="0"/>
<stop stop-color="#A2C2DD" offset="0.35"/>
<stop stop-color="#6C83BB" offset="0.7"/>
<stop stop-color="#003D6D" offset="1"/>
</linearGradient>
<polygon fill="url(#_20)" points="41.573,70.423 52.215,54.531 51.628,64.257 41.663,79.571 "/>
<linearGradient id="_21" gradientUnits="userSpaceOnUse" x1="44.5" y1="95.36" x2="8.24" y2="35.1">
<stop stop-color="#FFFFFF" offset="0"/>
<stop stop-color="#A2C2DD" offset="0.35"/>
<stop stop-color="#6C83BB" offset="0.7"/>
<stop stop-color="#003D6D" offset="1"/>
</linearGradient>
<polygon fill="url(#_21)" points="41.68,79.571 15.846,67.878 14.41,58.802 41.589,70.383 "/>
<linearGradient id="_22" gradientUnits="userSpaceOnUse" x1="40.53" y1="75.44" x2="12.17" y2="63.83">
<stop stop-color="#FFFFFF" offset="0.05"/>
<stop stop-color="#A2C2DD" offset="1"/>
</linearGradient>
<polygon fill="url(#_22)" points="39.948,76.945 17.258,66.688 16.751,63.967 39.817,74.112 "/>
</svg>