<?xml version="1.0" encoding="UTF-8"?>
<!DOCTYPE svg PUBLIC "-//W3C//DTD SVG 1.1 Tiny//EN" "http://www.w3.org/Graphics/SVG/1.1/DTD/svg11-tiny.dtd">
<svg width="416" height="416" viewBox="0 0 416 416">
<linearGradient id="_6" gradientUnits="userSpaceOnUse" x1="205.46" y1="355.58" x2="213.48" y2="-110.52">
<stop stop-color="#FFFFFF" offset="0"/>
<stop stop-color="#FAFBFB" offset="0.16"/>
<stop stop-color="#ECF0F0" offset="0.34"/>
<stop stop-color="#D5DDDE" offset="0.53"/>
<stop stop-color="#B5C3C5" offset="0.73"/>
<stop stop-color="#A1B3B5" offset="0.83"/>
</linearGradient>
<rect fill="url(#_6)" width="416" height="416"/>
<linearGradient id="_7" gradientUnits="userSpaceOnUse" x1="122.86" y1="260.61" x2="238.85" y2="199.15">
<stop stop-color="#FFFFFF" offset="0"/>
<stop stop-color="#F8FBFB" offset="0.12"/>
<stop stop-color="#E4F0F0" offset="0.29"/>
<stop stop-color="#C3DEDF" offset="0.5"/>
<stop stop-color="#95C5C6" offset="0.74"/>
<stop stop-color="#82BBBC" offset="0.83"/>
</linearGradient>
<path fill="url(#_7)" d="M0,31.5v93.521C48.438,215.943,145.364,355.9,240.48,416H384.84 C330.615,256.199,194.203,93.488,0,31.5z"/>
<linearGradient id="_8" gradientUnits="userSpaceOnUse" x1="208" y1="23.65" x2="208" y2="416">
<stop stop-color="#FFFFFF" offset="0"/>
<stop stop-color="#FAFDFA" offset="0.2"/>
<stop stop-color="#ECF9EC" offset="0.42"/>
<stop stop-color="#D5F1D5" offset="0.67"/>
<stop stop-color="#C1EAC1" offset="0.83"/>
</linearGradient>
<path fill-opacity="0.6" fill="url(#_8)" d="M416,390.287C356.914,250.4,220.213,83.974,0,23.65v10.529 C88.391,64.367,198.09,152.904,251.461,416H416V390.287z"/>
<linearGradient id="_9" gradientUnits="userSpaceOnUse" x1="306.74" y1="37.57" x2="357.42" y2="99.95">
<stop stop-color="#FFFFFF" offset="0"/>
<stop stop-color="#82BBBC" offset="0.83"/>
</linearGradient>
<path fill-opacity="0.3" fill="url(#_9)" d="M416,229.926V0H142.429C202.974,101.835,335.139,213.284,416,229.926z"/>
<path fill-opacity="0.3" fill="#FFFFFF" d="M416,203.869V0H142.429C190.375,72.596,348.766,179.133,416,203.869z"/>
<path fill-opacity="0.4" fill="#FFFFFF" d="M416,167.204V0H169.307C235.537,77.445,319.668,127.888,416,167.204z"/>
<linearGradient id="_10" gradientUnits="userSpaceOnUse" x1="0" y1="270.51" x2="162.49" y2="270.51">
<stop stop-color="#FFFFFF" offset="0"/>
<stop stop-color="#EBF6F1" offset="0.19"/>
<stop stop-color="#B9DECE" offset="0.56"/>
<stop stop-color="#92CCB3" offset="0.83"/>
</linearGradient>
<path fill-opacity="0.6" fill="url(#_10)" d="M0,125.021V416h162.495C69.118,333.742,25.792,222.563,0,125.021z"/>
<path fill="#EBF4FC" d="M186.567,137.81C134.791,93.569,72.083,58.687,0.186,34.133l-0.084,0.249v0.945 c71.638,24.502,134.122,59.277,185.718,103.363c82.794,70.743,136.481,164.018,159.591,277.234h1.178 C323.453,302.342,269.618,208.772,186.567,137.81z"/>
<rect fill-opacity="0.4" fill="#FFFFFF" width="416" height="416"/>
<path fill="#FFFFFF" d="M176.334,138.075C126.557,92.022,67.292,57.051,0.186,34.133l-0.084,0.249v0.945 c66.834,22.868,125.864,57.721,175.451,103.597c75.76,70.091,125.966,163.286,149.252,277h1.178 C302.668,301.862,252.327,208.381,176.334,138.075z"/>
<path fill-opacity="0.6" fill="#FFFFFF" d="M268.822,175.716C191.924,101.55,101.53,49.864,0.152,22.092L0,23.65 c101.19,27.719,191.266,78.868,268.023,152.898c80.184,77.335,124.439,158.497,147.445,212.963l0.473-0.2v-1.625 C392.734,333.134,348.482,252.546,268.822,175.716z"/>
</svg>