<?xml version="1.0" encoding="UTF-8"?>
<!DOCTYPE svg PUBLIC "-//W3C//DTD SVG 1.1 Tiny//EN" "http://www.w3.org/Graphics/SVG/1.1/DTD/svg11-tiny.dtd">
<svg width="60" height="52" viewBox="-0.283 0.524 60 52">
<linearGradient id="_5" gradientUnits="userSpaceOnUse" x1="29.72" y1="45.33" x2="29.72" y2="6.93">
<stop stop-color="#698AB5" offset="0"/>
<stop stop-color="#41628E" offset="0.71"/>
<stop stop-color="#385985" offset="1"/>
</linearGradient>
<path d="M7.976,6.525c-1.245,0-2.259,1.014-2.259,2.259v35.481c0,1.246,1.014,2.26,2.259,2.26h43.481 c1.246,0,2.26-1.014,2.26-2.26V8.784c0-1.245-1.014-2.259-2.26-2.259H7.976z" fill="url(#_5)"/>
<g fill-opacity="0.9" stroke-opacity="0.9">
<linearGradient id="_6" gradientUnits="userSpaceOnUse" x1="29.72" y1="1.98" x2="29.72" y2="47.11">
<stop stop-color="#6694BF" offset="0"/>
<stop stop-color="#8CB3D2" offset="0.09"/>
<stop stop-color="#B3D3E6" offset="0.37"/>
<stop stop-color="#BDDBEB" offset="0.69"/>
</linearGradient>
<path d="M6.717,44.266V8.784c0-0.694,0.564-1.259,1.259-1.259h43.481c0.694,0,1.26,0.564,1.26,1.259 v35.481c0,0.694-0.565,1.26-1.26,1.26H7.976C7.281,45.525,6.717,44.96,6.717,44.266z" fill="url(#_6)"/>
</g>
<linearGradient id="_7" gradientUnits="userSpaceOnUse" x1="29.53" y1="43.31" x2="29.53" y2="10.9">
<stop stop-color="#ADCCED" offset="0"/>
<stop stop-color="#6385AD" offset="1"/>
</linearGradient>
<path d="M52.335,7.902c-0.243-0.252-0.529-0.377-0.878-0.377H7.976c-0.694,0-1.259,0.564-1.259,1.259 v35.481c0,0.346,0.143,0.652,0.372,0.873c0.003,0.013,0.628-0.628,0.628-0.628V8.525h43.999L52.335,7.902z" fill="url(#_7)"/>
<linearGradient id="_8" gradientUnits="userSpaceOnUse" x1="29.91" y1="40.78" x2="29.91" y2="1.31">
<stop stop-color="#DBF5FF" offset="0"/>
<stop stop-color="#5985B0" offset="1"/>
</linearGradient>
<path d="M7.099,45.147c0.243,0.252,0.529,0.377,0.878,0.377h43.481c0.694,0,1.259-0.564,1.259-1.259V8.784 c0-0.346-0.143-0.652-0.372-0.873c-0.003-0.013-0.628,0.628-0.628,0.628s0,35.206,0,35.985c-0.738,0-43.999,0-43.999,0 L7.099,45.147z" fill="url(#_8)"/>
<polygon fill="#496DA2" points="24.704,29.112 23.163,29.112 20.745,24.717 20.745,35.238 17.604,35.238 17.604,17.799 19.198,17.799 23.933,26.344 28.668,17.799 30.261,17.799 30.261,35.238 27.104,35.238 27.104,24.811 "/>
<path d="M32.284,34.768v-1.844c8.039,2.496,6.478-3.255,5.806-3.959c-1.234-1.826-5.681-2.676-5.681-6.781 c0-5.391,6.358-4.71,8.75-4.042v1.845c-1.405-0.413-5.594-1.268-5.594,1.631c0.008,2.834,4.039,3.115,5.786,6.258 C42.26,29.509,43.011,37.576,32.284,34.768z" fill="#496DA2"/>
</svg>