<?xml version="1.0" encoding="UTF-8" standalone="no"?>
<!DOCTYPE svg PUBLIC "-//W3C//DTD SVG 1.1 Tiny//EN" "http://www.w3.org/Graphics/SVG/1.1/DTD/svg11-tiny.dtd">
<svg xmlns="http://www.w3.org/2000/svg" xmlns:xlink="http://www.w3.org/1999/xlink" width="54" height="54" viewBox="-6.22 -7.963 54 54">
<rect fill="none" height="54" width="54" x="-6.22" y="-7.963"/>
<path d="M20.563,4.993C12.61,4.993,7.055,9.848,7.055,16.8c0,3.394,2.114,7.259,3.974,10.673 c0.66,1.214,1.384,2.488,2.205,3.652v10.521h14.755V31.076c0.466-0.728,1.262-1.973,1.789-2.802 c2.341-3.71,4.733-7.974,4.733-11.475C34.511,9.958,28.646,4.993,20.563,4.993z" fill="#FFFFFF"/>
<path d="M20.416,9.109c-4.706,0-9.453,2.416-9.453,7.814c0,2.479,2.118,6.445,3.817,9.631c0.807,1.508,1.678,3.064,2.585,4.262 l0.644,0.852l-0.015,0.744h0.245h4.275h0.438v-0.426l0.334-0.67c0.004-0.004,0.115-0.209,0.328-0.547 c0.43-0.688,1.563-2.482,2.258-3.609c1.231-1.994,4.502-7.301,4.502-10.236C30.374,11.553,25.213,9.109,20.416,9.109L20.416,9.109z"/>
<path d="M20.449,7.092c-6.484,0-11.513,3.832-11.513,10.021c0,2.938,1.97,6.67,3.823,10.141c0.829,1.555,1.671,3.045,2.602,4.271 c-0.011,0-0.023,0-0.023,0v8.131h10.317v-8.131c0.002-0.008,1.424-2.264,2.227-3.559c2.211-3.584,4.538-7.76,4.538-10.854 C32.42,10.924,26.936,7.092,20.449,7.092z M18.464,36.404v-2.281h3.898v2.281H18.464z"/>
<path d="M20.449,9.99c-4.29,0-8.617,2.201-8.617,7.121c0,2.258,1.931,5.875,3.479,8.777 c0.735,1.375,2.93,5.34,2.93,5.34h4.518c0,0,2.028-3.76,2.662-4.787c1.122-1.816,4.104-6.654,4.104-9.33 C29.525,12.215,24.819,9.99,20.449,9.99L20.449,9.99z" fill="#FFFFFF"/>
<path d="M37.343,42.066l4.794-4.769L4.793,0L0,4.77L37.343,42.066z" fill="#FFFFFF"/>
<polygon points="37.348,39.085 2.992,4.771 4.788,2.983 39.144,37.296 "/>
</svg>