<?xml version="1.0" encoding="UTF-8" standalone="no"?>
<!DOCTYPE svg PUBLIC "-//W3C//DTD SVG 1.1 Tiny//EN" "http://www.w3.org/Graphics/SVG/1.1/DTD/svg11-tiny.dtd">
<svg xmlns="http://www.w3.org/2000/svg" xmlns:xlink="http://www.w3.org/1999/xlink" width="54" height="54" viewBox="0 0 54 54">
<rect fill="none" height="54" width="54"/>
<path d="M34.264,48.18l-1.972-2.074H9.793H7.81v-1v-0.982V6.349V4.367h0.999l0.984-0.002h19.725 c2.221-0.002,3.353,0.186,6.362,1.709c3.009,1.523,5.849,6.166,5.849,6.166l0,0c0.914,1.482,1.524,3.254,1.521,5.439l0,0v12.654 c2.629,0.323,5.181,0.64,5.696,0.709l0,0l-0.135,0.991l0.138-0.99c0.625,0.092,1.375,0.25,2.024,0.822l0,0 c0.658,0.578,1.004,1.51,0.991,2.625l0,0v2.945c0.013,1.123-0.334,2.059-0.997,2.639l0,0c-0.656,0.574-1.415,0.725-2.042,0.807l0,0 c-0.429,0.055-3.015,0.371-5.676,0.697l0,0v2.545v1.982h-1.001h-0.98l-2.541-0.002v0.176c-0.022,1.02-0.58,1.959-1.488,2.412l0,0 c-0.35,0.176-0.743,0.271-1.139,0.271l0,0c-0.002,0-0.004,0-0.007,0l0,0C35.409,48.963,34.758,48.678,34.264,48.18L34.264,48.18z" fill="#FFFFFF" fill-opacity="0.6"/>
<linearGradient id="_78" gradientUnits="userSpaceOnUse" x1="25.34" y1="-10.17" x2="25.34" y2="31.89">
<stop stop-color="#CCCCCC" offset="0"/>
<stop stop-color="#000000" offset="1"/>
</linearGradient>
<path d="M42.055,45.068h-0.981H9.598H8.615v-0.982V6.312V5.33h0.982H29.32 c3.972,0,6.467,1.945,8.568,4.047c2.276,2.279,4.164,4.475,4.164,8.266v26.443v0.982H42.055z" fill="url(#_78)" fill-opacity="0.7"/>
<path d="M41.04,15.338c0-4.959-4.034-8.992-8.991-8.992c-0.645,0-1.271,0.07-1.879,0.203l10.68,10.633 C40.973,16.586,41.04,15.969,41.04,15.338z" fill-opacity="0.02"/>
<path d="M40.87,15.338c0-4.865-3.958-8.824-8.821-8.824c-0.595,0-1.176,0.063-1.736,0.176l10.391,10.348 C40.811,16.486,40.87,15.918,40.87,15.338z" fill-opacity="0.02"/>
<path d="M40.705,15.338c0-4.773-3.887-8.654-8.656-8.654c-0.543,0-1.072,0.057-1.589,0.152l10.097,10.055 C40.648,16.386,40.705,15.867,40.705,15.338z" fill-opacity="0.02"/>
<path d="M40.537,15.338c0-4.682-3.811-8.488-8.488-8.488c-0.492,0-0.972,0.051-1.441,0.133l9.804,9.762 C40.486,16.287,40.537,15.816,40.537,15.338z" fill-opacity="0.02"/>
<path d="M40.369,15.338c0-4.588-3.734-8.32-8.32-8.32c-0.441,0-0.871,0.045-1.294,0.113l9.509,9.467 C40.326,16.185,40.369,15.767,40.369,15.338z" fill-opacity="0.02"/>
<path d="M40.201,15.336c0-4.494-3.658-8.148-8.152-8.148c-0.39,0-0.771,0.037-1.146,0.09l9.213,9.176 C40.166,16.086,40.201,15.715,40.201,15.336z" fill-opacity="0.02"/>
<path d="M40.033,15.336c0-4.402-3.581-7.982-7.984-7.982c-0.339,0-0.671,0.029-0.999,0.068l8.919,8.885 C40.007,15.988,40.033,15.664,40.033,15.336z" fill-opacity="0.02"/>
<path d="M39.865,15.336c0-4.311-3.508-7.813-7.816-7.813c-0.287,0-0.57,0.018-0.851,0.049l8.622,8.588 C39.85,15.888,39.865,15.613,39.865,15.336z" fill-opacity="0.02"/>
<path d="M39.7,15.336c0-4.217-3.435-7.645-7.651-7.645c-0.234,0-0.466,0.014-0.695,0.033l8.313,8.279 C39.686,15.783,39.7,15.56,39.7,15.336z" fill-opacity="0.02"/>
<path d="M39.529,15.336c0-4.123-3.355-7.479-7.48-7.479c-0.182,0-0.359,0.014-0.537,0.025l7.992,7.961 C39.516,15.676,39.529,15.508,39.529,15.336z" fill-opacity="0.02"/>
<path d="M39.361,15.336c0-4.033-3.28-7.314-7.313-7.314c-0.127,0-0.252,0.016-0.379,0.02l7.674,7.645 C39.352,15.568,39.361,15.453,39.361,15.336z" fill-opacity="0.02"/>
<linearGradient id="_79" gradientUnits="userSpaceOnUse" x1="38.05" y1="12.6" x2="39.09" y2="11.57">
<stop stop-color="#F2F2F2" offset="0"/>
<stop stop-color="#EDEDED" offset="0.19"/>
<stop stop-color="#DFDFDF" offset="0.42"/>
<stop stop-color="#C8C8C8" offset="0.66"/>
<stop stop-color="#A8A8A8" offset="0.9"/>
<stop stop-color="#999999" offset="1"/>
</linearGradient>
<path d="M41.07,17.644c0,3.09,0,26.441,0,26.441H9.598V6.312c0,0,17.647,0,19.724,0 c3.41,0,5.607,1.496,7.873,3.76C39.456,12.334,41.07,14.287,41.07,17.644z" fill="url(#_79)"/>
<linearGradient id="_80" gradientUnits="userSpaceOnUse" x1="30.44" y1="20.09" x2="38.94" y2="11.59">
<stop stop-color="#F2F2F2" offset="0"/>
<stop stop-color="#EDEDED" offset="0.19"/>
<stop stop-color="#DFDFDF" offset="0.42"/>
<stop stop-color="#C8C8C8" offset="0.66"/>
<stop stop-color="#A8A8A8" offset="0.9"/>
<stop stop-color="#999999" offset="1"/>
</linearGradient>
<path d="M41.07,17.644c0,3.09,0,26.441,0,26.441H9.598V6.312c0,0,17.647,0,19.724,0 c4.199,0,5.701,2.801,6.092,5.539C38.279,12.244,41.07,13.547,41.07,17.644z" fill="url(#_80)"/>
<linearGradient id="_81" gradientUnits="userSpaceOnUse" x1="25.33" y1="44.09" x2="25.33" y2="16.92">
<stop stop-color="#F2F2F2" offset="0"/>
<stop stop-color="#FFFFFF" offset="1"/>
</linearGradient>
<polygon fill="url(#_81)" fill-opacity="0.85" points="41.07,34.434 41.07,44.086 9.598,44.086 9.598,16.804 "/>
<linearGradient id="_82" gradientUnits="userSpaceOnUse" x1="25.34" y1="39.62" x2="25.34" y2="10.33">
<stop stop-color="#808080" offset="0"/>
<stop stop-color="#7B7B7B" offset="0.21"/>
<stop stop-color="#6D6D6D" offset="0.45"/>
<stop stop-color="#555555" offset="0.71"/>
<stop stop-color="#353535" offset="0.99"/>
<stop stop-color="#333333" offset="1"/>
</linearGradient>
<path d="M35.387,11.879c-0.391-2.74-1.865-5.566-6.064-5.566c-2.076,0-19.724,0-19.724,0 v37.773h31.474c0,0,0-23.352,0-26.441C41.07,13.547,38.254,12.269,35.387,11.879z M40.232,43.248H10.438V7.152H29.32 c3.285,0,5.445,0.836,6.055,4.738c3.771,0.662,4.857,1.719,4.857,5.754V43.248z" fill="url(#_82)" fill-opacity="0.4"/>
<linearGradient id="_83" gradientUnits="userSpaceOnUse" x1="25.13" y1="14.31" x2="25.13" y2="56.02">
<stop stop-color="#FB9E3A" offset="0.06"/>
<stop stop-color="#E6742B" offset="1"/>
</linearGradient>
<rect fill="url(#_83)" height="2.243" width="20.082" x="15.084" y="26.398"/>
<linearGradient id="_84" gradientUnits="userSpaceOnUse" x1="25.1" y1="8.14" x2="25.1" y2="37.27">
<stop stop-color="#FB9E3A" offset="0.06"/>
<stop stop-color="#E6742B" offset="1"/>
</linearGradient>
<rect fill="url(#_84)" height="10.779" width="20.041" x="15.084" y="12.648"/>
<rect fill="url(#_83)" height="2.244" width="20.126" x="15.04" y="36.768"/>
<rect fill="url(#_83)" height="2.244" width="20.126" x="15.04" y="31.572"/>
<path d="M20.841,18.451l1.992,3.961h-1.846l-1.693-3.709h-0.768v3.709h-1.611v-8.736h2.836 c1.083,0,2.189,0.338,2.519,1.484C22.651,16.488,22.204,17.955,20.841,18.451 M18.526,17.719h0.861c1.267,0,1.712-1.475,1.185-2.494 c-0.373-0.723-1.328-0.564-2.003-0.564C18.483,14.66,18.526,17.386,18.526,17.719" fill="#FFFFFF"/>
<path d="M25.282,22.506c-0.222,0-1.881-0.057-1.881-0.285c0-0.332,0-0.664,0-0.998 c1.126,0.307,3.688,0.688,3.359-1.281c-0.237-1.418-2.516-1.602-3.119-2.898c-0.642-1.383,0.032-2.896,1.48-3.313 c0.812-0.232,1.721-0.178,2.544-0.035c0.521,0.09,0.317,0.613,0.317,1.082c-0.859-0.195-2.678-0.543-2.929,0.707 c-0.263,1.307,1.492,1.779,2.292,2.385c0.989,0.746,1.325,1.988,0.864,3.154C27.742,22.207,26.432,22.506,25.282,22.506" fill="#FFFFFF"/>
<path d="M31.064,22.506c-0.222,0-1.881-0.057-1.881-0.285c0-0.332,0-0.664,0-0.998 c1.127,0.307,3.688,0.688,3.359-1.281c-0.236-1.418-2.516-1.602-3.119-2.898c-0.642-1.383,0.032-2.896,1.48-3.313 c0.812-0.232,1.721-0.178,2.544-0.035c0.52,0.09,0.317,0.613,0.317,1.082c-0.859-0.195-2.679-0.543-2.93,0.707 c-0.264,1.307,1.492,1.779,2.292,2.385c0.989,0.746,1.325,1.988,0.864,3.154C33.525,22.207,32.215,22.506,31.064,22.506" fill="#FFFFFF"/>
<polygon fill="url(#_81)" fill-opacity="0.3" points="41.07,34.434 41.07,44.086 9.598,44.086 9.598,16.804 "/>
<linearGradient id="_88" gradientUnits="userSpaceOnUse" x1="37.75" y1="14.3" x2="37.75" y2="39.91">
<stop stop-color="#CCCCCC" offset="0"/>
<stop stop-color="#000000" offset="1"/>
</linearGradient>
<path d="M35.904,47.928c-0.41,0-0.807-0.168-1.111-0.473l-9.579-10.082 c-0.313-0.309-0.499-0.768-0.491-1.248c0.006-0.477,0.198-0.93,0.525-1.244l9.43-10.623c0.359-0.352,0.785-0.52,1.219-0.52 c0.269,0,0.525,0.063,0.75,0.186c0.136,0.07,0.271,0.168,0.389,0.287c0.335,0.334,0.517,0.807,0.497,1.295l-0.021,5.123 c2.618,0.318,10.213,1.246,11.104,1.369c1.12,0.158,2.153,0.561,2.153,2.455V37.4c0,1.914-1.041,2.311-2.164,2.453 c-0.754,0.096-8.453,1.037-11.071,1.354v5.011c-0.019,0.684-0.378,1.262-0.937,1.543C36.376,47.871,36.145,47.928,35.904,47.928 L35.904,47.928z" fill="url(#_88)"/>
<linearGradient id="_89" gradientUnits="userSpaceOnUse" x1="33.35" y1="47.76" x2="41.93" y2="26.68">
<stop stop-color="#EBF7AB" offset="0"/>
<stop stop-color="#87B938" offset="0.49"/>
<stop stop-color="#006300" offset="1"/>
</linearGradient>
<path d="M25.929,35.588l9.481-10.68c0.197-0.188,0.535-0.246,0.77-0.121 c0.059,0.031,0.109,0.068,0.158,0.119c0.141,0.139,0.221,0.346,0.212,0.563l-0.026,6.027c0,0,10.896,1.33,11.957,1.473 c0.906,0.129,1.307,0.305,1.307,1.484c0,1.178,0,1.77,0,2.945c0,1.178-0.396,1.365-1.307,1.479 c-0.908,0.115-11.931,1.466-11.931,1.466v5.875c-0.007,0.286-0.155,0.545-0.392,0.663c-0.231,0.117-0.481,0.065-0.674-0.123 l-9.562-10.063c-0.002-0.002-0.002-0.006-0.006-0.008c-0.141-0.141-0.22-0.342-0.216-0.553 C25.705,35.924,25.788,35.721,25.929,35.588z" fill="url(#_89)"/>
<linearGradient id="_90" gradientUnits="userSpaceOnUse" x1="47.36" y1="34" x2="23.43" y2="29.71">
<stop stop-color="#61A10D" offset="0"/>
<stop stop-color="#E3F0B5" offset="0.91"/>
</linearGradient>
<polygon fill="url(#_90)" points="26.872,36.012 35.539,26.207 35.546,32.191 49.037,33.764 49.037,35.998 "/>
</svg>