<?xml version="1.0" encoding="UTF-8"?>
<!DOCTYPE svg PUBLIC "-//W3C//DTD SVG 1.1 Tiny//EN" "http://www.w3.org/Graphics/SVG/1.1/DTD/svg11-tiny.dtd">
<svg baseProfile="tiny" height="22px" version="1.1" viewBox="0 0 22 22" width="22px" x="0px" xmlns="http://www.w3.org/2000/svg" xmlns:xlink="http://www.w3.org/1999/xlink" y="0px">
<rect fill="none" height="22" width="22"/>
<path d="M19.899,3.24H18.42V1.759c0-0.382-0.329-0.801-0.8-0.801h-0.912c-0.43,0-0.8,0.372-0.8,0.801V3.24  c0,0-1.651,0.034-1.661,0.012c-0.036-0.098-0.188-0.516-0.732-0.546H4.709c-0.508,0-0.799,0.437-0.799,0.802v1.11H3.708  c-1.695,0.071-1.648,2.399,0,2.513L3.917,7.13C3.913,7.163,3.91,8.329,3.91,8.329H3.708c-1.695,0.079-1.617,2.438,0,2.516  l0.208-0.001c-0.004,0.033-0.006,1.199-0.006,1.199H3.708c-1.617,0.1-1.757,2.35,0,2.514l0.208-0.001  c-0.004,0.033-0.006,1.199-0.006,1.199l-0.202,0.003c-1.742,0.135-1.601,2.432,0,2.513l0.208-0.002  c-0.004,0.034-0.006,1.813-0.006,1.813c0,0.514,0.462,0.826,0.799,0.802h10.956c1.863-0.085,2.52-1.585,2.524-2.01  c0.026-0.169-0.014-10.73-0.014-10.73c-0.001-0.104-0.011-0.322,0.01-0.343c0.151-0.153,0.234-0.353,0.234-0.566V5.752h1.479  c0.504,0,0.801-0.469,0.801-0.8V4.041C20.7,3.564,20.263,3.24,19.899,3.24z M11.004,7.078c0.655,0,1.19,0.536,1.19,1.193  s-0.535,1.193-1.19,1.193S9.813,8.929,9.813,8.271S10.349,7.078,11.004,7.078z M13.646,16.039c-0.279,0.182-1.193,0.444-2.645,0.444  c-1.435,0-2.357-0.256-2.642-0.428v-1.707c0-1.575,1.623-2.165,2.645-2.165s2.642,0.59,2.642,2.165V16.039z" fill-opacity="0.4" stroke-opacity="0.4"/>
<path d="M17.376,8.146h-1.58V5.865h-2.281V3.509H4.709V5.42H3.708c-0.602,0-0.586,0.911,0,0.911l2.013-0.013  c0.604,0,0.62,0.912,0,0.912H4.709v1.901H3.708c-0.633,0-0.586,0.913,0,0.913l2.013-0.013c0.635,0,0.573,0.912,0,0.912H4.709v1.901  H3.708c-0.648,0-0.555,0.912,0,0.912l2.013-0.013c0.588,0,0.62,0.911,0,0.911H4.709v1.901H3.708c-0.602,0-0.586,0.913,0,0.913  l2.013-0.014c0.62,0,0.604,0.913,0,0.913H4.709v1.713h10.956c0.791,0,1.482-0.492,1.725-1.205L17.376,8.146z M11.003,6.329  c1.071,0,1.939,0.871,1.939,1.941c0,1.073-0.868,1.942-1.939,1.942c-1.07,0-1.938-0.869-1.938-1.942  C9.065,7.2,9.933,6.329,11.003,6.329z M14.395,16.289c-0.476,1.291-6.475,1.229-6.784,0v-1.94c0-1.903,1.788-2.914,3.393-2.914  c1.605,0,3.392,1.011,3.392,2.914V16.289z" fill="#FFFFFF"/>
<polygon fill="#FFFFFF" points="19.901,4.041 17.62,4.041 17.62,1.76 16.708,1.76 16.708,4.041 14.427,4.041 14.427,4.953   16.708,4.953 16.708,7.234 17.62,7.234 17.62,4.953 19.901,4.953 "/>
</svg>
