<?xml version="1.0" encoding="UTF-8"?>
<!DOCTYPE svg PUBLIC "-//W3C//DTD SVG 1.1 Tiny//EN" "http://www.w3.org/Graphics/SVG/1.1/DTD/svg11-tiny.dtd">
<svg baseProfile="tiny" version="1.1" xmlns="http://www.w3.org/2000/svg" xmlns:xlink="http://www.w3.org/1999/xlink" width="84" height="72" viewBox="0 0 84 72">
<g>
<polyline fill="none" points="83.833,71.932 -0.167,71.932 -0.167,-0.068 83.833,-0.068 "/>
<g>
<linearGradient id="XMLID_6_" gradientUnits="userSpaceOnUse" x1="47.2578" y1="28.123" x2="55.4063" y2="13.1563" gradientTransform="matrix(1 0 0 -1 0 71)">
<stop offset="0" style="stop-color:#87A8CB"/>
<stop offset="1" style="stop-color:#235487"/>
</linearGradient>
<path fill="url(#XMLID_6_)" d="M25.341,12.08l-3.625,0.953l1.219,38.891l36.399,9.312l3.145-2.937l1.098-39.172L25.341,12.08z"/>
</g>
<g>
<linearGradient id="XMLID_7_" gradientUnits="userSpaceOnUse" x1="59.2881" y1="51.5723" x2="63.0654" y2="6.7623" gradientTransform="matrix(1 0 0 -1 0 71)">
<stop offset="0" style="stop-color:#87A8CB"/>
<stop offset="1" style="stop-color:#235487"/>
</linearGradient>
<polygon fill="url(#XMLID_7_)" points="59.159,60.674 61.837,58.096 62.904,19.544 59.741,20.512 "/>
<linearGradient id="XMLID_8_" gradientUnits="userSpaceOnUse" x1="41.4141" y1="63.1445" x2="40.3838" y2="22.1121" gradientTransform="matrix(1 0 0 -1 0 71)">
<stop offset="0" style="stop-color:#FFFFFF"/>
<stop offset="0.05" style="stop-color:#FFFFFF"/>
<stop offset="1" style="stop-color:#A2C2DD"/>
</linearGradient>
<polygon fill="url(#XMLID_8_)" points="59.159,60.674 23.282,51.455 22.202,13.44 59.741,20.512 "/>
<linearGradient id="XMLID_9_" gradientUnits="userSpaceOnUse" x1="40.5981" y1="49.8457" x2="45.0616" y2="60.4892" gradientTransform="matrix(1 0 0 -1 0 71)">
<stop offset="0" style="stop-color:#FFFFFF"/>
<stop offset="0.05" style="stop-color:#FFFFFF"/>
<stop offset="1" style="stop-color:#A2C2DD"/>
</linearGradient>
<polygon fill="url(#XMLID_9_)" points="62.904,19.544 25.38,12.688 22.202,13.44 59.741,20.512 "/>
</g>
<linearGradient id="XMLID_10_" gradientUnits="userSpaceOnUse" x1="43.8691" y1="47.6807" x2="40.8061" y2="25.8282" gradientTransform="matrix(1 0 0 -1 0 71)">
<stop offset="0" style="stop-color:#E6EEF4"/>
<stop offset="0.4438" style="stop-color:#337CE5"/>
<stop offset="0.9382" style="stop-color:#003D6D"/>
<stop offset="1" style="stop-color:#003D6D"/>
</linearGradient>
<polygon fill="url(#XMLID_10_)" points="33.501,24.704 33.895,46.908 52.005,37.854 "/>
</g>
</svg>
