<?xml version="1.0" encoding="UTF-8"?>
<!DOCTYPE svg PUBLIC "-//W3C//DTD SVG 1.1 Tiny//EN" "http://www.w3.org/Graphics/SVG/1.1/DTD/svg11-tiny.dtd">
<svg width="84" height="58" viewBox="0 0 84 58">
<linearGradient id="_12" gradientUnits="userSpaceOnUse" x1="32.84" y1="24.31" x2="42.09" y2="42.54">
<stop stop-color="#A2C2DD" offset="0.1"/>
<stop stop-color="#6C83BB" offset="0.71"/>
<stop stop-color="#003D6D" offset="0.99"/>
</linearGradient>
<path fill="url(#_12)" d="M26.179,9.708c-8.486,3.176-16.747,9.207-16.747,15.681c0,0.665,0.087,1.336,0.271,2.008 c0.811,4.229,3.901,8.55,7.342,10.246l0.605,0.299l-0.569-3.63c0,0-0.05-0.029-0.093-0.056c-0.045-0.052-0.622-0.722-0.715-0.83 c-0.174-0.724-0.264-1.417-0.264-2.074c0-5.585,5.866-8.841,10.799-10.897c-0.403,1.106-0.66,2.332-0.691,3.707l0.404,13.271 l15.259,5.107l0.16-0.063l1.782-1.243c0,0-0.001-0.363-0.001-0.521c0.334-0.197,11.126-6.58,11.126-6.58l0.915-12.213 c0-0.04,0-0.08,0-0.12c0-2.738-1.166-5.242-3.209-6.886c-1.684-1.354-3.715-1.881-5.57-1.448c0,0-2.928,0.577-5.384,1.063 c0.789-0.36,1.845-0.843,1.845-0.843l0.53-3.534l-0.304-0.087L25.877,4.8C25.877,4.8,26.151,9.262,26.179,9.708z"/>
<linearGradient id="_13" gradientUnits="userSpaceOnUse" x1="14.98" y1="41.82" x2="23.22" y2="17.34">
<stop stop-color="#E6EEF4" offset="0"/>
<stop stop-color="#4A9900" offset="0.44"/>
<stop stop-color="#0E4E58" offset="0.94"/>
</linearGradient>
<path fill="url(#_13)" d="M16.487,34.97c-3.656-9.138,6.489-13.471,11.812-15.547c-0.668-1.618-0.442-1.836-1.11-3.455 C15.306,20.596,10.914,27.363,16.487,34.97"/>
<linearGradient id="_14" gradientUnits="userSpaceOnUse" x1="27.32" y1="15.9" x2="43.43" y2="15.9">
<stop stop-color="#E6EEF4" offset="0"/>
<stop stop-color="#4A9900" offset="0.44"/>
<stop stop-color="#0E4E58" offset="0.94"/>
</linearGradient>
<polygon fill="url(#_14)" points="43.435,10.437 42.98,13.458 27.563,21.36 27.325,20.666 "/>
<path fill="#17594C" d="M16.81,34.427c0,0-7.153-6.516-6.853-9.549C9.7,29.277,13.064,35.142,17.17,37.166L16.81,34.427z"/>
<linearGradient id="_15" gradientUnits="userSpaceOnUse" x1="17.39" y1="44.33" x2="25.98" y2="19.22">
<stop stop-color="#DCE8E4" offset="0"/>
<stop stop-color="#43910A" offset="1"/>
</linearGradient>
<path fill="url(#_15)" d="M16.81,34.427c-14.202-8.062-4.391-19.27,9.713-24.45l-0.285-4.623l17.183,5.083L27.302,20.688 l-0.239-4.491C16.284,20.401,10.318,27.649,16.81,34.427z"/>
<linearGradient id="_16" gradientUnits="userSpaceOnUse" x1="40.76" y1="13.09" x2="49.58" y2="31.76">
<stop stop-color="#FFFFFF" offset="0.05"/>
<stop stop-color="#A2C2DD" offset="1"/>
</linearGradient>
<path fill="url(#_16)" d="M42.48,41.038l12.029-7.114l0.899-12.009c0.065-5.288-4.417-9.026-8.35-8.109l-14.725,2.906 L42.48,41.038z"/>
<linearGradient id="_17" gradientUnits="userSpaceOnUse" x1="44.92" y1="18.5" x2="52.23" y2="34.73">
<stop stop-color="#E6EEF4" offset="0"/>
<stop stop-color="#C03A3A" offset="0.44"/>
<stop stop-color="#302D02" offset="0.94"/>
</linearGradient>
<path fill="url(#_17)" d="M52.388,29.006c-0.451,0.532-0.956,0.803-1.324,0.907c-0.431,0.121-0.736,0.14-1.091,0.038 l0,0c-1.404,1.199-3.433,0.693-3.3-1.489c0.071-1.166,0.749-2.275,1.693-2.959c0.757-0.55,2.049-0.911,2.837,0.077 l-0.189,3.208c0.07,0.06,0.807-0.36,1.007-0.686c0.169-0.275,0.46-0.601,0.535-1.826c0.073-1.23-1.179-2.849-3.27-2.261 c-1.904,0.533-3.465,2.605-3.59,4.789c-0.12,1.979,1.313,3.324,3.218,2.788c0.43-0.121,1.298-0.499,1.879-1.133 c-0.014,0.269-0.072,1.229-0.072,1.229c-0.514,0.48-1.275,0.823-1.875,0.994c-2.461,0.692-4.314-1.143-4.141-3.873 c0.188-2.821,2.049-5.203,4.723-5.956c2.428-0.68,4.097,1.421,3.996,3.151C53.331,27.504,52.91,28.39,52.388,29.006z M50.046,28.723c0.035-0.593,0.146-2.458,0.146-2.458c-0.809-0.646-2.445,0.417-2.536,1.918 C47.566,29.687,49.131,29.85,50.046,28.723z"/>
<linearGradient id="_18" gradientUnits="userSpaceOnUse" x1="37.37" y1="13.34" x2="37.37" y2="42.25">
<stop stop-color="#FFFFFF" offset="0"/>
<stop stop-color="#A2C2DD" offset="0.35"/>
<stop stop-color="#6C83BB" offset="0.7"/>
<stop stop-color="#003D6D" offset="1"/>
</linearGradient>
<path fill="url(#_18)" d="M43.328,26.753c-0.26-5.122-2.626-9.04-5.9-10.399c-1.017-0.422-2.036-0.658-3.39-0.531 c-0.58,0.056-2.663,0.458-2.663,0.458l10.363,25.909l1.631-1.139L43.328,26.753z"/>
<linearGradient id="_19" gradientUnits="userSpaceOnUse" x1="30.84" y1="19.65" x2="37.57" y2="41.81">
<stop stop-color="#FFFFFF" offset="0.05"/>
<stop stop-color="#A2C2DD" offset="1"/>
</linearGradient>
<path fill="url(#_19)" d="M26.862,37.177l-0.396-13.008c0.17-7.428,5.617-9.031,8.996-7.571 c2.997,1.299,6.23,5.101,6.412,10.205L41.75,42.161L26.862,37.177z"/>
<linearGradient id="_20" gradientUnits="userSpaceOnUse" x1="77.03" y1="29.87" x2="44.88" y2="51.77">
<stop stop-color="#E6EEF4" offset="0"/>
<stop stop-color="#2F8E9A" offset="0.44"/>
<stop stop-color="#003D6D" offset="0.94"/>
</linearGradient>
<path fill="url(#_20)" d="M73.656,24.637L57.855,44.7l0.692,4.338C59.014,48.904,79.404,40.949,73.656,24.637z"/>
<linearGradient id="_21" gradientUnits="userSpaceOnUse" x1="44.47" y1="38.62" x2="57.18" y2="61.47">
<stop stop-color="#E6EEF4" offset="0"/>
<stop stop-color="#2F8E9A" offset="0.44"/>
<stop stop-color="#003D6D" offset="0.94"/>
</linearGradient>
<polygon fill="url(#_21)" points="58.748,49.573 58.814,52.981 41.203,47.449 40.76,44.104 "/>
<linearGradient id="_22" gradientUnits="userSpaceOnUse" x1="51.51" y1="54.84" x2="59.15" y2="32.73">
<stop stop-color="#D6E6EC" offset="0"/>
<stop stop-color="#298595" offset="1"/>
</linearGradient>
<path fill="url(#_22)" d="M63.161,15.891c19.692,7.363,10.858,24.866-5.283,29.335l0.87,4.348L40.776,44.12l16.316-10.315 l0.238,4.525C69.77,34.157,75.05,23.714,63.161,15.891z"/>
</svg>