<?xml version="1.0" encoding="UTF-8"?>
<!DOCTYPE svg PUBLIC "-//W3C//DTD SVG 1.1 Tiny//EN" "http://www.w3.org/Graphics/SVG/1.1/DTD/svg11-tiny.dtd">
<svg width="12" height="200" viewBox="-0.5 -0.03 12 200">
<path fill-opacity="0.5" fill="#87A8CB" d="M-0.5,147.431v17.127c0,2.908,2.804,5.412,6,5.412s6-2.504,6-5.412v-17.127 c0-1.461-0.681-2.85-1.915-3.912c-1.146-0.984-2.634-1.549-4.085-1.549C2.304,141.97-0.5,144.522-0.5,147.431z"/>
<path fill="#DEE9F3" d="M5.5,168.97c-2.484,0-5-1.951-5-4.412v-17.127c0-2.463,2.516-4.461,5-4.461l0,0c2.487,0,5,1.998,5,4.461 v17.127C10.5,167.019,7.987,168.97,5.5,168.97L5.5,168.97z"/>
</svg>