<?xml version="1.0" encoding="UTF-8"?>
<!DOCTYPE svg PUBLIC "-//W3C//DTD SVG 1.1 Tiny//EN" "http://www.w3.org/Graphics/SVG/1.1/DTD/svg11-tiny.dtd">
<svg width="84" height="58" viewBox="-0.993 -0.1 84 58">
<linearGradient id="_24" gradientUnits="userSpaceOnUse" x1="47.96" y1="30.35" x2="58.21" y2="50.55">
<stop stop-color="#A2C2DD" offset="0.1"/>
<stop stop-color="#6C83BB" offset="0.71"/>
<stop stop-color="#003D6D" offset="0.99"/>
</linearGradient>
<path fill="url(#_24)" d="M50.421,4.621c0,0,0.137,4.284,0.17,5.273c-6.908-0.899-12.52,0.563-16.813,2.11 c-0.773,14.138,0.908,27.957,1.879,35.477c2.639,2.305,8.819,6.298,15.538,6.457c3.026-1.31,4.636-3.539,4.884-3.858 c0,0,0.162-0.767,0.217-1.028c0.236-0.201,1.49-1.268,1.49-1.268c1.893-7.616,3.525-25.986,2.635-33.327 c-0.432-0.429-1.686-1.955-5.279-3.418c-0.01-0.023,0.836-5.79,0.836-5.79C56.391,3.411,51.093,2.437,50.421,4.621z"/>
<linearGradient id="_25" gradientUnits="userSpaceOnUse" x1="47.59" y1="4.59" x2="60.02" y2="22.28">
<stop stop-color="#A2C2DD" offset="0.1"/>
<stop stop-color="#6C83BB" offset="0.71"/>
<stop stop-color="#003D6D" offset="0.99"/>
</linearGradient>
<path fill="url(#_25)" d="M45.88,10.002c3.766-0.136,10.106,0.398,14.196,4.51l-2.42,1.117L45.88,10.002z"/>
<linearGradient id="_26" gradientUnits="userSpaceOnUse" x1="54.54" y1="6.29" x2="58.93" y2="40.91">
<stop stop-color="#FFFFFF" offset="0"/>
<stop stop-color="#A2C2DD" offset="0.35"/>
<stop stop-color="#6C83BB" offset="0.7"/>
<stop stop-color="#003D6D" offset="1"/>
</linearGradient>
<path fill="url(#_26)" d="M58.057,15.415l-2.555,33.861l1.949-1.648c1.525-6.723,3.602-23.31,2.615-33.168L58.057,15.415z"/>
<linearGradient id="_27" gradientUnits="userSpaceOnUse" x1="40.29" y1="18.26" x2="51.66" y2="9.12">
<stop stop-color="#FFFFFF" offset="0.15"/>
<stop stop-color="#A2C2DD" offset="1"/>
</linearGradient>
<path fill="url(#_27)" d="M34.132,12.233c7.17-2.567,17.096-4.129,24.216,2.491l-5.805,2.763L34.132,12.233z"/>
<linearGradient id="_28" gradientUnits="userSpaceOnUse" x1="54.65" y1="8.67" x2="55.2" y2="62.97">
<stop stop-color="#FFFFFF" offset="0"/>
<stop stop-color="#A2C2DD" offset="0.35"/>
<stop stop-color="#6C83BB" offset="0.7"/>
<stop stop-color="#003D6D" offset="1"/>
</linearGradient>
<path fill="url(#_28)" d="M52.543,17.487l-1.286,36.097c2.72-1.253,4.444-3.568,4.444-3.568 c1.609-7.092,3.688-24.891,2.646-35.291L52.543,17.487z"/>
<linearGradient id="_29" gradientUnits="userSpaceOnUse" x1="49.18" y1="12.17" x2="57.09" y2="15.61">
<stop stop-color="#FFFFFF" offset="0"/>
<stop stop-color="#A2C2DD" offset="0.35"/>
<stop stop-color="#6C83BB" offset="0.7"/>
<stop stop-color="#003D6D" offset="1"/>
</linearGradient>
<path fill="url(#_29)" d="M55.151,13.526c0.293,1.828-4.677,2.107-4.636,0.101C50.544,12.246,54.932,12.166,55.151,13.526z"/>
<linearGradient id="_30" gradientUnits="userSpaceOnUse" x1="50.81" y1="9.35" x2="56.79" y2="9.75">
<stop stop-color="#E6EEF4" offset="0"/>
<stop stop-color="#337CE5" offset="0.44"/>
<stop stop-color="#003D6D" offset="0.94"/>
</linearGradient>
<path fill="url(#_30)" d="M51.05,4.479c0,0,0.301,9.286,0.299,9.309c0.721,0.793,2.423,0.734,2.931,0.018l1.287-8.876 L51.05,4.479z"/>
<linearGradient id="_31" gradientUnits="userSpaceOnUse" x1="53.58" y1="10.63" x2="38.7" y2="41.09">
<stop stop-color="#FFFFFF" offset="0.05"/>
<stop stop-color="#A2C2DD" offset="1"/>
</linearGradient>
<path fill="url(#_31)" d="M34.132,12.233c3.987-1.302,12.432-0.218,18.412,5.253c0.701,9.812,0.135,26.854-1.286,36.097 c-4.822,0.121-11.631-3.119-15.225-6.24C34.85,39.094,33.386,22.099,34.132,12.233z"/>
<linearGradient id="_32" gradientUnits="userSpaceOnUse" x1="56.6" y1="34.26" x2="33.4" y2="21.43">
<stop stop-color="#FFFFFF" offset="0.05"/>
<stop stop-color="#A2C2DD" offset="1"/>
</linearGradient>
<polygon fill="url(#_32)" points="36.12,14.613 36.736,35.417 50.056,40.325 50.499,18.743 "/>
<linearGradient id="_33" gradientUnits="userSpaceOnUse" x1="37.9" y1="50.9" x2="36.67" y2="2.57">
<stop stop-color="#FFFFFF" offset="0"/>
<stop stop-color="#A2C2DD" offset="0.35"/>
<stop stop-color="#6C83BB" offset="0.7"/>
<stop stop-color="#003D6D" offset="1"/>
</linearGradient>
<polygon fill="url(#_33)" points="38.222,34.517 37.837,15.102 36.12,14.613 36.736,35.417 "/>
<linearGradient id="_34" gradientUnits="userSpaceOnUse" x1="51.07" y1="44.24" x2="32.32" y2="26.55">
<stop stop-color="#FFFFFF" offset="0.15"/>
<stop stop-color="#A2C2DD" offset="1"/>
</linearGradient>
<polygon fill="url(#_34)" points="36.736,35.417 38.222,34.517 50.107,38.63 50.056,40.325 "/>
<linearGradient id="_35" gradientUnits="userSpaceOnUse" x1="51.64" y1="5.21" x2="55.28" y2="4.04">
<stop stop-color="#D6E4F3" offset="0"/>
<stop stop-color="#337CE5" offset="1"/>
</linearGradient>
<path fill="url(#_35)" d="M55.567,4.929c-0.424,1.205-4.948,0.668-4.476-0.533C51.57,3.207,55.975,3.716,55.567,4.929z"/>
<linearGradient id="_36" gradientUnits="userSpaceOnUse" x1="39.65" y1="32.15" x2="49.89" y2="49.18">
<stop stop-color="#E6EEF4" offset="0"/>
<stop stop-color="#337CE5" offset="0.44"/>
<stop stop-color="#003D6D" offset="0.94"/>
</linearGradient>
<polygon fill="url(#_36)" points="45.757,45.78 49.181,47.222 49.316,44.758 45.831,43.318 "/>
<polygon fill="url(#_36)" points="49.349,44.116 49.484,41.657 45.921,40.329 45.849,42.681 "/>
<polygon fill="url(#_36)" points="45.738,46.418 45.675,48.646 49.027,50.136 49.148,47.865 "/>
<polygon fill="url(#_36)" points="41.029,41.378 38.021,40.187 38.177,42.672 41.122,43.861 "/>
<polygon fill="url(#_36)" points="45.181,42.45 45.208,40.11 41.749,38.845 41.792,41.093 "/>
<polygon fill="url(#_36)" points="40.921,38.501 37.839,37.394 37.978,39.546 41.003,40.738 "/>
<polygon fill="url(#_36)" points="41.906,47.042 45.115,48.44 45.138,46.206 41.867,44.845 "/>
<polygon fill="url(#_36)" points="41.142,44.509 38.22,43.316 38.357,45.484 41.224,46.708 "/>
<polygon fill="url(#_36)" points="41.804,41.732 41.853,44.203 45.15,45.567 45.173,43.093 "/>
<polygon fill="url(#_36)" points="41.917,47.693 41.958,49.947 45.083,51.405 45.109,49.089 "/>
<path fill="#FFFFFF" d="M12.715,34.403c-2.773,0-6.576,0.658-7.539,6.352l-0.145,0.859c0,0,6.393,0,7.15,0 c0.23,0.41,0.57,1.027,0.787,1.42c-0.217,0.393-0.557,1.008-0.787,1.42c-0.758,0-7.15,0-7.15,0l0.145,0.859 c0.963,5.693,4.766,6.35,7.539,6.35c2.19,0,4.139-1.834,5.706-3.309c0.846-0.799,1.646-1.551,2.068-1.551h19.579l0.219-0.24 c0.422-0.461,1.396-1.725,1.42-3.498v-0.063c-0.021-1.773-0.998-3.037-1.42-3.5l-0.219-0.24H20.489 c-0.422,0-1.223-0.75-2.066-1.545C16.854,36.237,14.905,34.403,12.715,34.403z"/>
<linearGradient id="_46" gradientUnits="userSpaceOnUse" x1="11.38" y1="29.77" x2="32.49" y2="55.17">
<stop stop-color="#E6EDF3" offset="0"/>
<stop stop-color="#CABAD7" offset="0.12"/>
<stop stop-color="#AB7EB8" offset="0.27"/>
<stop stop-color="#9759A4" offset="0.38"/>
<stop stop-color="#8F4B9C" offset="0.44"/>
<stop stop-color="#73357C" offset="0.57"/>
<stop stop-color="#551D5A" offset="0.72"/>
<stop stop-color="#430E45" offset="0.85"/>
<stop stop-color="#3C093D" offset="0.94"/>
</linearGradient>
<path fill="url(#_46)" d="M40.974,43.033c0-0.008,0.002-0.016,0.002-0.023h-0.004c-0.02-1.543-0.904-2.654-1.23-3.012 c-0.412,0-19.253,0-19.253,0c-0.717,0-1.494-0.732-2.574-1.748c-1.471-1.387-3.301-3.109-5.2-3.109 c-3.078,0-5.994,0.902-6.811,5.736c1.156,0,6.713,0,6.713,0l1.193,2.156l-1.193,2.156c0,0-5.557,0-6.713,0 c0.814,4.834,3.73,5.738,6.811,5.738c1.898,0,3.729-1.725,5.2-3.111c1.08-1.016,1.857-1.75,2.574-1.75c0,0,18.841,0,19.253,0 c0.326-0.354,1.211-1.469,1.23-3.012h0.004C40.976,43.049,40.974,43.041,40.974,43.033z"/>
</svg>