<?xml version="1.0" encoding="UTF-8"?>
<!DOCTYPE svg PUBLIC "-//W3C//DTD SVG 1.1 Tiny//EN" "http://www.w3.org/Graphics/SVG/1.1/DTD/svg11-tiny.dtd">
<svg baseProfile="tiny" height="54px" version="1.1" viewBox="0 0 54 54" width="54px" x="0px" xmlns="http://www.w3.org/2000/svg" xmlns:xlink="http://www.w3.org/1999/xlink" y="0px">
<g>
<g>
<rect fill="none" height="54" width="54"/>
</g>
<g>
<polygon fill="#FFFFFF" points="49.46,32.592 40.2,26.412 40.2,9.17 4.54,9.17 4.54,44.832 34.903,44.832 34.903,42.49     40.2,38.773   "/>
<polygon points="45.79,32.592 35.106,39.725 35.106,25.461   "/>
<polygon points="9.634,39.738 9.634,14.266 35.106,14.266 35.106,21.785 38.163,23.822 38.163,11.209 6.578,11.209 6.578,42.795     32.05,42.795 32.05,39.738   "/>
<rect height="8.152" width="8.151" x="12.69" y="17.322"/>
<rect height="8.152" width="8.151" x="23.898" y="17.322"/>
<rect height="8.15" width="8.151" x="12.69" y="28.531"/>
<rect height="8.15" width="8.151" x="23.898" y="28.531"/>
</g>
</g>
</svg>
