<?xml version="1.0" encoding="UTF-8" standalone="no"?>
<!DOCTYPE svg PUBLIC "-//W3C//DTD SVG 1.1 Tiny//EN" "http://www.w3.org/Graphics/SVG/1.1/DTD/svg11-tiny.dtd">
<svg xmlns="http://www.w3.org/2000/svg" xmlns:xlink="http://www.w3.org/1999/xlink" width="70" height="70" viewBox="-0.014 0.018 70 70">
<rect fill="none" height="70" width="70" x="-0.014" y="0.018"/>
<polygon fill="#FFFFFF" points="48.042,8.969 48.042,14.116 55.867,14.116 55.867,60.463 12.83,60.463 12.83,14.116 23.264,14.116 23.264,8.969 8.916,8.969 8.916,65.616 61.085,65.616 61.085,8.969 "/>
<polygon fill="#FFFFFF" points="25.873,33.428 18.048,33.428 35,55.315 51.957,33.428 42.826,33.428 42.826,24.418 25.873,24.418 "/>
<polygon fill="#FFFFFF" points="25.873,14.116 42.826,14.116 42.826,19.269 25.873,19.269 "/>
<polygon fill="#FFFFFF" points="25.873,3.821 42.826,3.821 42.826,8.969 25.873,8.969 "/>
<path d="M61.085,8.969v56.646H8.916V8.969h14.348v5.147H12.83v46.347h43.037V14.116h-7.824V8.969H61.085 M62.085,7.969h-1H48.042h-1v1v5.147v1h1h6.824v44.347H13.83V15.116h9.434h1v-1V8.969v-1h-1H8.916h-1v1v56.646v1h1h52.169h1v-1 V8.969V7.969L62.085,7.969z" fill-opacity="0.2" />
<path d="M42.826,24.418v9.01h9.131L35,55.315L18.048,33.428h7.825v-9.01H42.826 M43.826,23.418h-1H25.873h-1v1v8.01 h-6.825h-2.04l1.249,1.612l16.952,21.887L35,56.948l0.791-1.021l16.957-21.887l1.249-1.612h-2.04h-8.131v-8.01V23.418L43.826,23.418 z" fill-opacity="0.2" />
<path d="M42.826,14.116v5.153H25.873v-5.153H42.826 M43.826,13.116h-1H25.873h-1v1v5.153v1h1h16.953h1v-1v-5.153 V13.116L43.826,13.116z" fill-opacity="0.2" />
<path d="M42.826,3.821v5.148H25.873V3.821H42.826 M43.826,2.821h-1H25.873h-1v1v5.148v1h1h16.953h1v-1V3.821V2.821 L43.826,2.821z" fill-opacity="0.2" />
</svg>