<?xml version="1.0" encoding="UTF-8" standalone="no"?>
<!DOCTYPE svg PUBLIC "-//W3C//DTD SVG 1.1 Tiny//EN" "http://www.w3.org/Graphics/SVG/1.1/DTD/svg11-tiny.dtd">
<svg xmlns="http://www.w3.org/2000/svg" xmlns:xlink="http://www.w3.org/1999/xlink" width="96" height="16" viewBox="0 0 96 16">
<rect fill="none" height="16" width="96"/>
<path d="M56,2.791c2.872,0,5.21,2.338,5.21,5.209s-2.338,5.209-5.21,5.209S50.79,10.871,50.79,8 S53.128,2.791,56,2.791 M56,1.791c-3.424,0-6.21,2.785-6.21,6.209s2.786,6.209,6.21,6.209S62.21,11.424,62.21,8 S59.424,1.791,56,1.791L56,1.791z" fill="#FFFFFF"/>
<path d="M56,13.209c-2.872,0-5.21-2.338-5.21-5.209S53.128,2.791,56,2.791 S61.21,5.129,61.21,8S58.872,13.209,56,13.209L56,13.209z" fill="#4B5879"/>
<path d="M40,2.791c2.872,0,5.21,2.338,5.21,5.209s-2.338,5.209-5.21,5.209S34.79,10.871,34.79,8 S37.128,2.791,40,2.791 M40,1.791c-3.424,0-6.21,2.785-6.21,6.209s2.786,6.209,6.21,6.209S46.21,11.424,46.21,8 S43.424,1.791,40,1.791L40,1.791z" fill="#FFFFFF"/>
<path d="M40,13.209c-2.872,0-5.21-2.338-5.21-5.209S37.128,2.791,40,2.791 S45.21,5.129,45.21,8S42.872,13.209,40,13.209L40,13.209z" fill="#4B5879"/>
<path d="M24,1.709c3.469,0,6.291,2.822,6.291,6.291c0,3.469-2.822,6.291-6.291,6.291 c-3.47,0-6.293-2.822-6.293-6.291C17.707,4.531,20.53,1.709,24,1.709 M24,0.5c-4.136,0-7.5,3.363-7.5,7.5c0,4.135,3.364,7.5,7.5,7.5 c4.135,0,7.5-3.365,7.5-7.5C31.5,3.863,28.135,0.5,24,0.5L24,0.5z" fill="#4B5879"/>
<path d="M24,14.291c-3.47,0-6.293-2.822-6.293-6.291c0-3.469,2.823-6.291,6.293-6.291 c3.469,0,6.291,2.822,6.291,6.291C30.291,11.469,27.469,14.291,24,14.291L24,14.291z" fill="#FFFFFF"/>
<path d="M72,2.791c2.872,0,5.21,2.338,5.21,5.209s-2.338,5.209-5.21,5.209S66.79,10.871,66.79,8 S69.128,2.791,72,2.791 M72,1.791c-3.424,0-6.21,2.785-6.21,6.209s2.786,6.209,6.21,6.209S78.21,11.424,78.21,8 S75.424,1.791,72,1.791L72,1.791z" fill="#FFFFFF"/>
<path d="M72,13.209c-2.872,0-5.21-2.338-5.21-5.209S69.128,2.791,72,2.791 S77.21,5.129,77.21,8S74.872,13.209,72,13.209L72,13.209z" fill="#4B5879"/>
</svg>