<?xml version="1.0" encoding="UTF-8"?>
<!DOCTYPE svg PUBLIC "-//W3C//DTD SVG 1.1 Tiny//EN" "http://www.w3.org/Graphics/SVG/1.1/DTD/svg11-tiny.dtd">
<svg width="8" height="8" viewBox="0 0 8 8">
<path d="M7.123,4c0,1.721-1.398,3.122-3.124,3.122C2.272,7.123,0.876,5.721,0.876,4 c0-1.721,1.396-3.123,3.123-3.123C5.725,0.877,7.123,2.279,7.123,4z" fill="#961B1E"/>
<path d="M6.623,4c0,1.445-1.178,2.622-2.624,2.622C2.553,6.623,1.376,5.445,1.376,4 c0-1.446,1.177-2.623,2.623-2.623c0.7,0,1.358,0.273,1.854,0.77C6.35,2.643,6.623,3.301,6.623,4z M4,0.377 C2.001,0.377,0.376,2.002,0.376,4c0,1.997,1.625,3.622,3.623,3.622c1.999,0,3.624-1.625,3.624-3.622 c0-0.966-0.377-1.875-1.063-2.561C5.874,0.753,4.967,0.377,4,0.377z" fill="#FFFFFF"/>
</svg>