<?xml version="1.0" encoding="UTF-8"?>
<!DOCTYPE svg PUBLIC "-//W3C//DTD SVG 1.1 Tiny//EN" "http://www.w3.org/Graphics/SVG/1.1/DTD/svg11-tiny.dtd">
<svg width="44" height="44" viewBox="0 0 44 44">
<linearGradient id="_3" gradientUnits="userSpaceOnUse" x1="16.89" y1="25.3" x2="31.77" y2="38.92">
<stop stop-color="#FFFFFF" offset="0"/>
<stop stop-color="#E0EAF3" offset="0.11"/>
<stop stop-color="#A2C2DD" offset="0.35"/>
<stop stop-color="#8CA9CF" offset="0.48"/>
<stop stop-color="#6C83BB" offset="0.7"/>
<stop stop-color="#637DB5" offset="0.75"/>
<stop stop-color="#4C6EA4" offset="0.82"/>
<stop stop-color="#265689" offset="0.91"/>
<stop stop-color="#003D6D" offset="0.99"/>
</linearGradient>
<polygon fill="url(#_3)" points="13.578,37.49 36.005,37.49 36.005,27.563 "/>
<linearGradient id="_4" gradientUnits="userSpaceOnUse" x1="10.87" y1="8.35" x2="26.52" y2="25.4">
<stop stop-color="#FFFFFF" offset="0"/>
<stop stop-color="#E0EAF3" offset="0.11"/>
<stop stop-color="#A2C2DD" offset="0.35"/>
<stop stop-color="#8CA9CF" offset="0.48"/>
<stop stop-color="#6C83BB" offset="0.7"/>
<stop stop-color="#637DB5" offset="0.75"/>
<stop stop-color="#4C6EA4" offset="0.82"/>
<stop stop-color="#265689" offset="0.91"/>
<stop stop-color="#003D6D" offset="0.99"/>
</linearGradient>
<path d="M34.896,10.274c-0.781-1.313-1.855-2.047-2.537-2.567c-1.953-1.494-9.854-3.052-18.019,5.113 c-4.952,4.967-6.345,9.807-6.345,13.276c0,2.244,0.583,3.916,1.159,4.674c0.607,0.788,1.317,1.839,2.641,2.619 c0.979,0.577,1.906,0.613,1.906,0.613c1.282-0.081,2.696-1.069,4.585-3.199c0.624-0.705,2.653-3.131,2.653-4.834 c0,0,0.288-0.472-1.256-1.793c-1.038-0.889-3.228-1.099-3.228-1.099l0.005-0.564c0.025-2.813,4.754-7.542,7.556-7.556l0.559-0.003 l0.092,0.553c0.186,1.167,0.524,2.069,1.01,2.68c0.711,0.896,1.314,1.16,1.615,1.247c1.139,0.111,3.008-0.885,5.005-2.649 c2.134-1.883,3.122-3.304,3.204-4.608C35.501,12.177,35.586,11.434,34.896,10.274z M31.021,15.344 c-1.675,1.479-2.868,2.027-3.365,2.13c-0.113-0.089-0.28-0.231-0.469-0.485c-0.585-0.789-0.711-2.351-0.711-2.351 c-0.405-1.891-2.469-1.61-2.469-1.61c-3.862,0.02-9.438,5.593-9.473,9.474c0,0-0.308,2.104,1.62,2.479l0.55,0.087 c1.757,0.273,2.168,0.961,2.263,1.071c-0.111,0.631-0.866,1.967-2.12,3.383c-1.758,1.983-2.701,2.479-3.146,2.531 c-0.44-0.094-0.761-0.211-0.841-0.269c-2.649-1.912-2.939-3.638-2.939-5.688c0-2.284,0.751-6.869,5.784-11.914 c7.757-7.756,14.557-5.656,15.482-4.946c2.415,1.854,2.29,2.57,2.366,2.92C33.474,12.675,32.968,13.622,31.021,15.344z" fill="url(#_4)"/>
</svg>