<?xml version="1.0" encoding="UTF-8"?>
<!DOCTYPE svg PUBLIC "-//W3C//DTD SVG 1.1 Tiny//EN" "http://www.w3.org/Graphics/SVG/1.1/DTD/svg11-tiny.dtd">
<svg width="352" height="238" viewBox="-0.603 -0.174 352 238">
<path fill-opacity="0.01" fill="#656B6B" d="M22.397-0.174h-1c0,0,0,8.623,0,10.111c-5.223,0.271-10.105,2.356-13.817,6.064 c-3.986,3.984-6.183,9.284-6.183,14.924v179.775c0,10.876,8.875,21.125,20.847,21.125c0.653,0,302.047,0,302.047,0 c13.844,0,25.105-11.267,25.105-25.115V30.926c0-5.639-2.197-10.939-6.189-14.926c-3.994-3.988-9.299-6.182-14.941-6.174H42.423 l-10.077-10H22.397z"/>
<path fill-opacity="0.02" fill="#656B6B" d="M22.397,0.826c0,0,0,8.404,0,10.01c-5.33,0.029-10.339,2.105-14.11,5.873 c-3.798,3.795-5.89,8.844-5.89,14.217v179.775c0,10.75,8.875,20.125,19.898,20.125c3.227,0,301.996,0,301.996,0 c13.293,0,24.105-10.818,24.105-24.115V30.926c0-5.371-2.094-10.42-5.896-14.219c-3.805-3.799-8.859-5.888-14.232-5.881H42.011 l-10.077-10H22.397z"/>
<path fill-opacity="0.03" fill="#656B6B" d="M23.397,1.826c0,0,0,8.348,0,10c-0.445,0-0.893,0-0.893,0c-5.105,0-9.902,1.985-13.511,5.59 c-3.608,3.607-5.597,8.404-5.597,13.51v179.775c0,10.125,8.25,19.125,18.949,19.125c0.551,0,301.945,0,301.945,0 c12.74,0,23.105-10.369,23.105-23.115V30.926c0-5.104-1.99-9.902-5.604-13.511c-3.615-3.61-8.418-5.595-13.523-5.589H41.599 l-10.077-10H23.397z"/>
<path fill-opacity="0.06" fill="#656B6B" d="M24.397,2.826c0,0,0,8.319,0,10c-0.856,0-1.893,0-1.893,0 c-4.838,0-9.385,1.881-12.804,5.298c-3.42,3.417-5.304,7.964-5.304,12.802v179.775c0,9.33,7.5,18.125,18.125,18.121 c0.625,0,301.769,0.004,301.769,0.004c12.189,0,22.105-9.921,22.105-22.115V30.926c0-4.836-1.885-9.383-5.311-12.803 c-3.426-3.422-7.977-5.303-12.816-5.297H41.186l-10.039-10H24.397z"/>
<path fill-opacity="0.05" fill="#656B6B" d="M328.271,13.826h-287.5l-10-10h-5.375v10h-2.769c-9.448,0-17.231,7.647-17.231,17.1 l0.002,179.775c0,8.859,7.373,17.125,17.123,17.125h300.775h0.994c11.639,0,21.105-9.473,21.105-21.115V30.926 C345.396,21.474,337.719,13.814,328.271,13.826z"/>
<path fill-opacity="0.1" fill="#656B6B" d="M327.646,14.826H40.397l-10-10h-4v10h-3.769c-9.448,0-16.231,6.647-16.231,16.1 l0.001,178.775c-0.001,9.125,6.499,17.125,17.078,17.123l300.815,0.002c11.086,0,20.105-9.023,20.105-20.115V30.926 C344.396,21.474,336.646,14.826,327.646,14.826z"/>
<path fill-opacity="0.1" fill="#656B6B" d="M326.646,15.826H40.022l-10-10h-2.625v10h-4.769c-9.448,0-15.231,5.647-15.231,15.1 l0.001,177.775c-0.001,9,5.124,17.125,17.106,17.125c0.518,0,299.787,0,299.787,0c10.535,0,19.105-8.575,19.105-19.115V30.926 C343.396,21.474,335.646,15.826,326.646,15.826z"/>
<path fill-opacity="0.1" fill="#656B6B" d="M325.771,16.826H39.522l-10-10h-1.125v10h-4.75c-9.448,0-15.25,4.647-15.25,14.1 l0.001,176.785c-0.001,8.865,3.874,17.115,17.124,17.115h298.769c9.984,0,18.105-8.127,18.105-18.115V30.926 C342.396,21.474,334.396,16.826,325.771,16.826z"/>
<linearGradient id="_2" gradientUnits="userSpaceOnUse" x1="173.4" y1="199.16" x2="173.4" y2="53.71">
<stop stop-color="#D9F4E0" offset="0"/>
<stop stop-color="#FFFFFF" offset="1"/>
</linearGradient>
<path fill="url(#_2)" d="M324.291,13.826H39.397l-12.001-12h-1.999v12h-2.894c-9.448,0-17.106,7.647-17.106,17.1v175.785 c0,9.45,7.658,17.115,17.106,17.115h301.788c9.447,0,17.105-7.665,17.105-17.115V30.926 C341.396,21.474,333.738,13.814,324.291,13.826z"/>
</svg>