<?xml version="1.0" encoding="UTF-8"?>
<!DOCTYPE svg PUBLIC "-//W3C//DTD SVG 1.1 Tiny//EN" "http://www.w3.org/Graphics/SVG/1.1/DTD/svg11-tiny.dtd">
<svg baseProfile="tiny" height="44px" version="1.1" viewBox="0 0 44 44" width="44px" x="0px" xmlns="http://www.w3.org/2000/svg" xmlns:xlink="http://www.w3.org/1999/xlink" y="0px">
<path d="M18.956,17.201c-2.421,0-4.924,1.816-4.924,4.854c0.002,3.049,2.505,4.868,4.928,4.868  c1.197,0,2.322-0.431,3.165-1.218l0.095-0.086v-0.127v-4.634v-2.231v-0.127l-0.095-0.086C21.278,17.631,20.15,17.201,18.956,17.201z  " fill="none"/>
<linearGradient gradientUnits="userSpaceOnUse" id="SVGID_1_" x1="18.7959" x2="18.7959" y1="8.3613" y2="35.3622">
<stop offset="0" style="stop-color:#B2B2B2"/>
<stop offset="1" style="stop-color:#000000"/>
</linearGradient>
<path d="M24.835,26.193l-0.088-0.085v-0.123l-0.016-8.385c-1.963-2.458-4.476-2.828-5.808-2.828  c-0.958,0-1.931,0.185-2.738,0.521c-2.823,1.177-4.577,3.771-4.577,6.768c0,2.145,0.838,4.124,2.361,5.577  c1.41,1.345,3.274,2.117,5.121,2.117c1.045,0,2.023-0.245,2.846-0.682l0.183-0.17l0.148-0.137l0.181,0.089  c1.366,0.434,2.528,0.543,3.536,0.445v-2.703C25.425,26.503,25.001,26.248,24.835,26.193z M22.22,18.628v2.231v4.634v0.127  l-0.095,0.086c-0.843,0.787-1.968,1.218-3.165,1.218c-2.423,0-4.926-1.819-4.928-4.868c0-3.038,2.503-4.854,4.924-4.854  c1.194,0,2.322,0.43,3.169,1.214l0.095,0.086V18.628z" fill="url(#SVGID_1_)"/>
<linearGradient gradientUnits="userSpaceOnUse" id="SVGID_2_" x1="18.8369" x2="18.8369" y1="8.3613" y2="35.3619">
<stop offset="0" style="stop-color:#B2B2B2"/>
<stop offset="1" style="stop-color:#000000"/>
</linearGradient>
<path d="M32.146,20.583c0-4.844-5.15-11.882-13.226-11.882c-7.506,0-13.387,5.865-13.392,13.354  C5.524,25.6,6.88,28.91,9.349,31.381c2.525,2.527,5.927,3.918,9.584,3.918h0.037c1.552-0.002,3.739-0.108,5.256-0.922l-1.216-1.318  l-0.465-0.507c-1.043,0.243-2.144,0.296-3.172,0.296h-0.266h-0.222c-6.261,0-10.807-4.451-10.807-10.582  c0-6.581,4.564-11.359,10.854-11.359c7.218,0,10.703,5.925,11.011,9.18l2.174,1.45C32.136,21.218,32.146,20.897,32.146,20.583z" fill="url(#SVGID_2_)"/>
<linearGradient gradientUnits="userSpaceOnUse" id="SVGID_3_" x1="33.229" x2="33.229" y1="8.3608" y2="35.3618">
<stop offset="0" style="stop-color:#B2B2B2"/>
<stop offset="1" style="stop-color:#000000"/>
</linearGradient>
<polygon fill="url(#SVGID_3_)" points="38.472,28.182 27.986,35.182 27.986,21.182 "/>
<rect fill="none" height="44" width="44"/>
</svg>
