<?xml version="1.0" encoding="UTF-8"?>
<!DOCTYPE svg PUBLIC "-//W3C//DTD SVG 1.1 Tiny//EN" "http://www.w3.org/Graphics/SVG/1.1/DTD/svg11-tiny.dtd">
<svg width="13" height="13" viewBox="0 0 13 13">
<polygon fill="#A2C2DD" points="11.396,2.912 0.167,0.863 0.824,9.852 11.29,12.77 11.281,12.76 11.306,12.768 11.311,12.77 11.311,12.768 11.33,12.773 "/>
<polygon fill="#496DA2" points="11.29,12.77 12.57,11.74 12.845,2 11.376,2.908 "/>
<polygon fill="#CEE1EF" points="12.845,2 1.685,0.33 0.172,0.859 11.414,2.908 "/>
<polygon fill="#496DA2" points="10.518,11.795 1.495,9.334 1.031,1.881 10.481,3.734 "/>
<polygon fill="#FFFFFF" points="10.518,11.795 1.286,9.383 0.794,1.689 10.503,3.557 "/>
<polygon fill="#CEE1EF" points="9.692,10.76 1.851,8.818 1.433,2.574 9.663,4.281 "/>
<defs>
<polygon points="2.075,8.94 1.469,2.921 9.307,4.726 9.913,10.745 "/>
</defs>
<path fill="#496DA2" d="M5.196,7.657L3.464,7.227l1.482-2.551L5.196,7.657 M7.457,8.225 L5.702,7.789L5.448,4.775L7.457,8.225 M4.863,3.702l0.013,0.2L3.01,7.114l-1.147-0.28l0.44,2.041l6.325,1.574l1.087-1.665 L7.902,8.335L5.385,4.004L5.368,3.834L4.863,3.702"/>
</svg>