<?xml version="1.0" encoding="UTF-8"?>
<!DOCTYPE svg PUBLIC "-//W3C//DTD SVG 1.1 Tiny//EN" "http://www.w3.org/Graphics/SVG/1.1/DTD/svg11-tiny.dtd">
<svg baseProfile="tiny" height="40px" version="1.1" viewBox="0 0 30 40" width="30px" x="0px" xmlns="http://www.w3.org/2000/svg" xmlns:xlink="http://www.w3.org/1999/xlink" y="0px">
<g>
<g>
<g>
<linearGradient gradientUnits="userSpaceOnUse" id="SVGID_1_" x1="15.4258" x2="33.2522" y1="7.5459" y2="25.3724">
<stop offset="0" style="stop-color:#A2C2DD"/>
<stop offset="0.1" style="stop-color:#A2C2DD"/>
<stop offset="0.7135" style="stop-color:#6C83BB"/>
<stop offset="0.9888" style="stop-color:#003D6D"/>
<stop offset="1" style="stop-color:#003D6D"/>
</linearGradient>
<polygon fill="url(#SVGID_1_)" points="27.514,24.102 27.353,24.06 16.828,21.375 16.606,21.316 16.604,21.086 16.494,6.668      16.493,6.478 16.665,6.395 17.196,6.14 17.282,6.102 17.37,6.116 27.938,7.688 28.194,7.725 28.193,7.984 28.135,23.377      28.135,23.503 28.042,23.591 27.633,23.985 27.514,24.102    "/>
<linearGradient gradientUnits="userSpaceOnUse" id="SVGID_2_" x1="22.3447" x2="22.3447" y1="8.1333" y2="23.6674">
<stop offset="0" style="stop-color:#FFFFFF"/>
<stop offset="0.35" style="stop-color:#A2C2DD"/>
<stop offset="0.7" style="stop-color:#6C83BB"/>
<stop offset="1" style="stop-color:#003D6D"/>
</linearGradient>
<polygon fill="url(#SVGID_2_)" points="27.837,23.387 27.427,23.78 16.794,6.678 17.328,6.422 27.896,7.994    "/>
<linearGradient gradientUnits="userSpaceOnUse" id="SVGID_3_" x1="27.3994" x2="17.2048" y1="23.7969" y2="6.1393">
<stop offset="0" style="stop-color:#FFFFFF"/>
<stop offset="0.05" style="stop-color:#FFFFFF"/>
<stop offset="1" style="stop-color:#A2C2DD"/>
</linearGradient>
<polygon fill="url(#SVGID_3_)" points="27.427,23.78 16.904,21.096 16.794,6.678 27.427,8.369    "/>
<g>
<linearGradient gradientUnits="userSpaceOnUse" id="SVGID_4_" x1="15.8008" x2="26.9271" y1="8.5352" y2="19.6614">
<stop offset="0" style="stop-color:#E6EDF3"/>
<stop offset="0.1196" style="stop-color:#CABAD7"/>
<stop offset="0.2719" style="stop-color:#AB7EB8"/>
<stop offset="0.3844" style="stop-color:#9759A4"/>
<stop offset="0.4438" style="stop-color:#8F4B9C"/>
<stop offset="0.5679" style="stop-color:#73357C"/>
<stop offset="0.7242" style="stop-color:#551D5A"/>
<stop offset="0.8533" style="stop-color:#430E45"/>
<stop offset="0.9382" style="stop-color:#3C093D"/>
<stop offset="1" style="stop-color:#3C093D"/>
</linearGradient>
<path d="M24.161,10.88l-4.011-0.748c-1.107-0.201-1.998,0.568-1.989,1.72l0.035,4.869      c0.006,0.847,0.487,1.503,1.336,1.703l2.342,0.563c-0.187-0.245-2.147-2.764-2.147-2.764c-0.166-0.212-0.21-0.352-0.211-0.604      c-0.002-0.252-0.021-3.507-0.021-3.507c-0.002-0.389,0.295-0.645,0.664-0.573l4.006,0.784c0.368,0.072,0.667,0.457,0.667,0.857      l0.006,4.353c0.001,0.564-0.367,0.639-0.662,0.568c-0.298-0.07-0.38-0.229-0.592-0.511c-0.213-0.279-0.688-0.864-0.688-0.864      c0.716-0.165,1.144-0.676,1.142-1.573c-0.002-1.196-0.767-2.169-1.873-2.393c-1.104-0.221-1.864,0.425-1.857,1.595      c0.003,0.531,0.195,1.142,0.673,1.751c0,0,1.816,2.384,2.066,2.71c0.249,0.331,0.738,0.633,1.132,0.729      c1.042,0.256,1.989-0.491,1.989-1.703v-4.389C26.166,12.243,25.268,11.091,24.161,10.88z M22.173,15.574      c-0.407-0.089-0.738-0.514-0.74-0.95c-0.002-0.434,0.327-0.717,0.735-0.633c0.409,0.086,0.74,0.512,0.741,0.95      C22.91,15.381,22.582,15.664,22.173,15.574z" fill="url(#SVGID_4_)"/>
</g>
</g>
<linearGradient gradientUnits="userSpaceOnUse" id="SVGID_5_" x1="9.2769" x2="21.4622" y1="22.5303" y2="14.2619">
<stop offset="0" style="stop-color:#FFFFFF"/>
<stop offset="0.5" style="stop-color:#58A015"/>
<stop offset="1" style="stop-color:#FFFFFF"/>
</linearGradient>
<path d="M15.458,12.771c-2.706-0.433-4.898,1.617-4.898,4.578s2.192,5.801,4.898,6.344    c2.706,0.544,4.898-1.506,4.898-4.578C20.356,16.043,18.164,13.203,15.458,12.771z M15.457,22.054    c-1.894-0.368-3.428-2.357-3.428-4.441c0-2.083,1.534-3.518,3.428-3.203c1.895,0.314,3.43,2.302,3.43,4.439    C18.887,20.987,17.352,22.423,15.457,22.054z M15.458,16.047c-1.081-0.186-1.96,0.634-1.96,1.832c0,1.195,0.879,2.333,1.96,2.537    s1.96-0.617,1.96-1.831C17.418,17.37,16.539,16.233,15.458,16.047z M15.458,18.777c-0.271-0.049-0.49-0.334-0.49-0.634    c0-0.302,0.22-0.506,0.49-0.458c0.27,0.048,0.49,0.332,0.49,0.634S15.728,18.827,15.458,18.777z M15.458,9.495    c-4.329-0.64-7.838,2.64-7.838,7.323s3.509,9.229,7.838,10.15c4.329,0.923,7.838-2.356,7.838-7.323    C23.296,14.678,19.787,10.133,15.458,9.495z M15.458,25.331c-3.517-0.729-6.368-4.421-6.368-8.248s2.852-6.491,6.368-5.95    c3.517,0.54,6.368,4.233,6.368,8.247C21.826,23.395,18.975,26.059,15.458,25.331z" fill="url(#SVGID_5_)" fill-opacity="0.5" stroke-opacity="0.5"/>
<g>
<linearGradient gradientTransform="matrix(1 0 0 -1 102.7456 -2499.6211)" gradientUnits="userSpaceOnUse" id="SVGID_6_" x1="-93.751" x2="-88.668" y1="-2521.8691" y2="-2531.8794">
<stop offset="0" style="stop-color:#A2C2DD"/>
<stop offset="0.1" style="stop-color:#A2C2DD"/>
<stop offset="0.7135" style="stop-color:#6C83BB"/>
<stop offset="0.9888" style="stop-color:#003D6D"/>
<stop offset="1" style="stop-color:#003D6D"/>
</linearGradient>
<path d="M10.123,9.691c0,0,0.063,1.994,0.082,2.604c-0.604-0.076-2.229-0.28-2.229-0.28     c0.021,0.017-1.24,0.008-1.24,0.008c-0.541-0.018-4.813,1.152-4.813,1.152l-0.02,0.246c-0.359,4.76,0.338,13.043,0.924,17.145     l0.119,0.215c1.822,1.581,5.178,3.18,7.637,3.117l0.119-0.003l2.342-1.888l0.08-0.373c0.158-0.12,0.828-0.631,0.828-0.631     l0.027-0.123c0.564-2.491,1.357-8.498,1.357-13.342c0-1.08-0.143-3.143-0.143-3.143s-0.852-0.963-2.621-1.512     c0.068-0.451,0.443-2.96,0.443-2.96s0.053-0.947-1.236-0.947C10.258,8.949,10.123,9.691,10.123,9.691z" fill="url(#SVGID_6_)"/>
<g>
<g>
<linearGradient gradientTransform="matrix(1 0 0 1 102.708 -2301.0332)" gradientUnits="userSpaceOnUse" id="SVGID_7_" x1="-85.7056" x2="-96.1304" y1="2318.1006" y2="2312.186">
<stop offset="0" style="stop-color:#A2C2DD"/>
<stop offset="0.1" style="stop-color:#A2C2DD"/>
<stop offset="0.7135" style="stop-color:#6C83BB"/>
<stop offset="0.9888" style="stop-color:#003D6D"/>
<stop offset="1" style="stop-color:#003D6D"/>
</linearGradient>
<path d="M7.961,12.364c0,0,4.91,0.193,6.896,2.191l-2.68,1.247L7.961,12.364z" fill="url(#SVGID_7_)"/>
<linearGradient gradientTransform="matrix(1 0 0 1 102.708 -2301.0332)" gradientUnits="userSpaceOnUse" id="SVGID_8_" x1="-86.5889" x2="-91.0977" y1="2310.9473" y2="2329.7434">
<stop offset="0" style="stop-color:#FFFFFF"/>
<stop offset="0.35" style="stop-color:#A2C2DD"/>
<stop offset="0.7" style="stop-color:#6C83BB"/>
<stop offset="1" style="stop-color:#003D6D"/>
</linearGradient>
<path d="M12.18,15.804l-0.766,16.689l2.221-1.688c0.742-3.269,1.699-11.479,1.219-16.271L12.18,15.804z" fill="url(#SVGID_8_)"/>
<linearGradient gradientTransform="matrix(1 0 0 1 102.708 -2301.0332)" gradientUnits="userSpaceOnUse" id="SVGID_9_" x1="-99.9067" x2="-87.4918" y1="2312.8896" y2="2317.1646">
<stop offset="0" style="stop-color:#FFFFFF"/>
<stop offset="0.15" style="stop-color:#FFFFFF"/>
<stop offset="1" style="stop-color:#A2C2DD"/>
</linearGradient>
<path d="M2.252,13.448c0,0,3.955-1.093,4.496-1.075c1.93-0.067,4.945,0.125,7.273,2.286l-2.822,1.343       L2.252,13.448z" fill="url(#SVGID_9_)"/>
<linearGradient gradientTransform="matrix(1 0 0 1 102.708 -2301.0332)" gradientUnits="userSpaceOnUse" id="SVGID_10_" x1="-89.585" x2="-91.9269" y1="2314.6572" y2="2339.3672">
<stop offset="0" style="stop-color:#FFFFFF"/>
<stop offset="0.35" style="stop-color:#A2C2DD"/>
<stop offset="0.7" style="stop-color:#6C83BB"/>
<stop offset="1" style="stop-color:#003D6D"/>
</linearGradient>
<path d="M11.197,16.002l-0.625,17.545l2.152-1.731c0.779-3.447,1.801-12.101,1.295-17.154       L11.197,16.002z" fill="url(#SVGID_10_)"/>
<linearGradient gradientTransform="matrix(1 0 0 1 102.708 -2301.0332)" gradientUnits="userSpaceOnUse" id="SVGID_11_" x1="-93.9956" x2="-89.4278" y1="2315.0977" y2="2315.3315">
<stop offset="0" style="stop-color:#FFFFFF"/>
<stop offset="0.35" style="stop-color:#A2C2DD"/>
<stop offset="0.7" style="stop-color:#6C83BB"/>
<stop offset="1" style="stop-color:#003D6D"/>
</linearGradient>
<path d="M12.465,14.078c0.063,0.38-0.436,0.667-1.1,0.695c-0.666,0.032-1.246-0.194-1.236-0.648       c0.008-0.29,1.102-0.518,1.102-0.518S12.42,13.793,12.465,14.078z" fill="url(#SVGID_11_)"/>
<linearGradient gradientTransform="matrix(1 0 0 1 102.708 -2301.0332)" gradientUnits="userSpaceOnUse" id="SVGID_12_" x1="-92.4346" x2="-90.1509" y1="2313.0771" y2="2313.1357">
<stop offset="0" style="stop-color:#E6EEF4"/>
<stop offset="0.4438" style="stop-color:#337CE5"/>
<stop offset="0.9382" style="stop-color:#003D6D"/>
<stop offset="1" style="stop-color:#003D6D"/>
</linearGradient>
<path d="M10.473,9.68l0.141,4.5c0.15,0.32,1.203,0.385,1.365-0.039l0.645-4.3L10.473,9.68z" fill="url(#SVGID_12_)"/>
<linearGradient gradientTransform="matrix(1 0 0 1 102.708 -2301.0332)" gradientUnits="userSpaceOnUse" id="SVGID_13_" x1="-93.2524" x2="-99.2837" y1="2313.4561" y2="2335.4131">
<stop offset="0" style="stop-color:#FFFFFF"/>
<stop offset="0.05" style="stop-color:#FFFFFF"/>
<stop offset="1" style="stop-color:#A2C2DD"/>
</linearGradient>
<path d="M2.252,13.448c1.936-0.632,6.041-0.107,8.947,2.554c0.34,4.771,0.064,13.055-0.625,17.547       c-2.344,0.06-5.652-1.518-7.4-3.031C2.6,26.506,1.887,18.243,2.252,13.448z" fill="url(#SVGID_13_)"/>
<linearGradient gradientTransform="matrix(1 0 0 1 102.708 -2301.0332)" gradientUnits="userSpaceOnUse" id="SVGID_14_" x1="-91.2622" x2="-99.2843" y1="2329.3984" y2="2315.9307">
<stop offset="0" style="stop-color:#FFFFFF"/>
<stop offset="0.05" style="stop-color:#FFFFFF"/>
<stop offset="1" style="stop-color:#A2C2DD"/>
</linearGradient>
<polygon fill="url(#SVGID_14_)" points="3.215,14.605 3.516,24.719 9.99,27.105 10.205,16.614      "/>
<linearGradient gradientTransform="matrix(1 0 0 1 102.708 -2301.0332)" gradientUnits="userSpaceOnUse" id="SVGID_15_" x1="-98.9814" x2="-98.9814" y1="2331.1914" y2="2311.2246">
<stop offset="0" style="stop-color:#FFFFFF"/>
<stop offset="0.35" style="stop-color:#A2C2DD"/>
<stop offset="0.7" style="stop-color:#6C83BB"/>
<stop offset="1" style="stop-color:#003D6D"/>
</linearGradient>
<polygon fill="url(#SVGID_15_)" points="4.238,24.281 4.051,14.843 3.215,14.605 3.516,24.719      "/>
<linearGradient gradientTransform="matrix(1 0 0 1 102.708 -2301.0332)" gradientUnits="userSpaceOnUse" id="SVGID_16_" x1="-91.9609" x2="-104.2574" y1="2328.3916" y2="2322.6533">
<stop offset="0" style="stop-color:#FFFFFF"/>
<stop offset="0.15" style="stop-color:#FFFFFF"/>
<stop offset="1" style="stop-color:#A2C2DD"/>
</linearGradient>
<polygon fill="url(#SVGID_16_)" points="3.516,24.719 4.238,24.281 10.014,26.28 9.99,27.105      "/>
<linearGradient gradientTransform="matrix(1 0 0 1 102.708 -2301.0332)" gradientUnits="userSpaceOnUse" id="SVGID_17_" x1="-92.2656" x2="-89.3955" y1="2310.6182" y2="2311.0864">
<stop offset="0" style="stop-color:#D6E4F3"/>
<stop offset="1" style="stop-color:#337CE5"/>
</linearGradient>
<path d="M12.668,9.898c-0.086,0.244-0.648,0.386-1.256,0.314c-0.605-0.07-1.016-0.329-0.918-0.573       c0.098-0.245,0.652-0.386,1.246-0.313C12.334,9.396,12.75,9.654,12.668,9.898z" fill="url(#SVGID_17_)"/>
</g>
</g>
<g>
<linearGradient gradientTransform="matrix(1 0 0 1 102.708 -2301.0332)" gradientUnits="userSpaceOnUse" id="SVGID_18_" x1="-98.022" x2="-92.8328" y1="2323.6943" y2="2332.3257">
<stop offset="0" style="stop-color:#E6EEF4"/>
<stop offset="0.4438" style="stop-color:#337CE5"/>
<stop offset="0.9382" style="stop-color:#003D6D"/>
<stop offset="1" style="stop-color:#003D6D"/>
</linearGradient>
<polygon fill="url(#SVGID_18_)" points="7.781,29.568 9.516,30.301 9.586,29.051 7.818,28.32     "/>
<linearGradient gradientTransform="matrix(1 0 0 1 102.708 -2301.0332)" gradientUnits="userSpaceOnUse" id="SVGID_19_" x1="-97.2803" x2="-92.0905" y1="2323.248" y2="2331.8806">
<stop offset="0" style="stop-color:#E6EEF4"/>
<stop offset="0.4438" style="stop-color:#337CE5"/>
<stop offset="0.9382" style="stop-color:#003D6D"/>
<stop offset="1" style="stop-color:#003D6D"/>
</linearGradient>
<polygon fill="url(#SVGID_19_)" points="9.602,28.726 9.67,27.479 7.863,26.805 7.828,27.998     "/>
<linearGradient gradientTransform="matrix(1 0 0 1 102.708 -2301.0332)" gradientUnits="userSpaceOnUse" id="SVGID_20_" x1="-98.7329" x2="-93.549" y1="2324.1318" y2="2332.7544">
<stop offset="0" style="stop-color:#E6EEF4"/>
<stop offset="0.4438" style="stop-color:#337CE5"/>
<stop offset="0.9382" style="stop-color:#003D6D"/>
<stop offset="1" style="stop-color:#003D6D"/>
</linearGradient>
<polygon fill="url(#SVGID_20_)" points="7.771,29.893 7.74,31.022 9.438,31.777 9.5,30.627     "/>
<linearGradient gradientTransform="matrix(1 0 0 1 102.708 -2301.0332)" gradientUnits="userSpaceOnUse" id="SVGID_21_" x1="-100.2505" x2="-95.0622" y1="2325.0342" y2="2333.6641">
<stop offset="0" style="stop-color:#E6EEF4"/>
<stop offset="0.4438" style="stop-color:#337CE5"/>
<stop offset="0.9382" style="stop-color:#003D6D"/>
<stop offset="1" style="stop-color:#003D6D"/>
</linearGradient>
<polygon fill="url(#SVGID_21_)" points="5.385,27.338 3.859,26.732 3.938,27.993 5.432,28.595     "/>
<linearGradient gradientTransform="matrix(1 0 0 1 102.708 -2301.0332)" gradientUnits="userSpaceOnUse" id="SVGID_22_" x1="-98.4834" x2="-93.2901" y1="2323.9658" y2="2332.604">
<stop offset="0" style="stop-color:#E6EEF4"/>
<stop offset="0.4438" style="stop-color:#337CE5"/>
<stop offset="0.9382" style="stop-color:#003D6D"/>
<stop offset="1" style="stop-color:#003D6D"/>
</linearGradient>
<polygon fill="url(#SVGID_22_)" points="7.49,27.881 7.502,26.693 5.75,26.053 5.77,27.191     "/>
<linearGradient gradientTransform="matrix(1 0 0 1 102.708 -2301.0332)" gradientUnits="userSpaceOnUse" id="SVGID_23_" x1="-99.6348" x2="-94.4484" y1="2324.6641" y2="2333.2913">
<stop offset="0" style="stop-color:#E6EEF4"/>
<stop offset="0.4438" style="stop-color:#337CE5"/>
<stop offset="0.9382" style="stop-color:#003D6D"/>
<stop offset="1" style="stop-color:#003D6D"/>
</linearGradient>
<polygon fill="url(#SVGID_23_)" points="5.33,25.879 3.766,25.316 3.838,26.407 5.371,27.012     "/>
<linearGradient gradientTransform="matrix(1 0 0 1 102.708 -2301.0332)" gradientUnits="userSpaceOnUse" id="SVGID_24_" x1="-99.8218" x2="-94.6319" y1="2324.7744" y2="2333.4072">
<stop offset="0" style="stop-color:#E6EEF4"/>
<stop offset="0.4438" style="stop-color:#337CE5"/>
<stop offset="0.9382" style="stop-color:#003D6D"/>
<stop offset="1" style="stop-color:#003D6D"/>
</linearGradient>
<polygon fill="url(#SVGID_24_)" points="5.828,30.209 7.455,30.918 7.467,29.784 5.807,29.095     "/>
<linearGradient gradientTransform="matrix(1 0 0 1 102.708 -2301.0332)" gradientUnits="userSpaceOnUse" id="SVGID_25_" x1="-100.8599" x2="-95.6722" y1="2325.4023" y2="2334.0313">
<stop offset="0" style="stop-color:#E6EEF4"/>
<stop offset="0.4438" style="stop-color:#337CE5"/>
<stop offset="0.9382" style="stop-color:#003D6D"/>
<stop offset="1" style="stop-color:#003D6D"/>
</linearGradient>
<polygon fill="url(#SVGID_25_)" points="5.441,28.924 3.961,28.319 4.029,29.418 5.482,30.039     "/>
<linearGradient gradientTransform="matrix(1 0 0 1 102.708 -2301.0332)" gradientUnits="userSpaceOnUse" id="SVGID_26_" x1="-99.1582" x2="-93.9686" y1="2324.377" y2="2333.0093">
<stop offset="0" style="stop-color:#E6EEF4"/>
<stop offset="0.4438" style="stop-color:#337CE5"/>
<stop offset="0.9382" style="stop-color:#003D6D"/>
<stop offset="1" style="stop-color:#003D6D"/>
</linearGradient>
<polygon fill="url(#SVGID_26_)" points="5.777,27.516 5.801,28.77 7.473,29.461 7.484,28.205     "/>
<linearGradient gradientTransform="matrix(1 0 0 1 102.708 -2301.0332)" gradientUnits="userSpaceOnUse" id="SVGID_27_" x1="-100.4609" x2="-95.2741" y1="2325.166" y2="2333.7937">
<stop offset="0" style="stop-color:#E6EEF4"/>
<stop offset="0.4438" style="stop-color:#337CE5"/>
<stop offset="0.9382" style="stop-color:#003D6D"/>
<stop offset="1" style="stop-color:#003D6D"/>
</linearGradient>
<polygon fill="url(#SVGID_27_)" points="5.836,30.539 5.855,31.681 7.439,32.42 7.453,31.246     "/>
</g>
</g>
</g>
</g>
</svg>
