<?xml version="1.0" encoding="UTF-8" standalone="no"?>
<!DOCTYPE svg PUBLIC "-//W3C//DTD SVG 1.1 Tiny//EN" "http://www.w3.org/Graphics/SVG/1.1/DTD/svg11-tiny.dtd">
<svg xmlns="http://www.w3.org/2000/svg" xmlns:xlink="http://www.w3.org/1999/xlink" width="30" height="40" viewBox="-0.134 -0.232 30 40">
<rect fill="none" height="40" width="30" x="-0.134" y="-0.232"/>
<linearGradient id="SVGID_1" gradientUnits="userSpaceOnUse" x1="12.9" y1="19.9" x2="25.09" y2="11.64">
<stop stop-color="#FFFFFF" offset="0"/>
<stop stop-color="#58A015" offset="0.5"/>
<stop stop-color="#FFFFFF" offset="1"/>
</linearGradient>
<path d="M19.083,10.146c-2.705-0.434-4.897,1.617-4.897,4.578s2.192,5.801,4.897,6.344 c2.707,0.543,4.898-1.506,4.898-4.578S21.79,10.578,19.083,10.146z M19.083,19.43c-1.895-0.369-3.429-2.357-3.429-4.441 s1.534-3.518,3.429-3.203s3.43,2.302,3.43,4.439C22.512,18.361,20.977,19.798,19.083,19.43z M19.083,13.422 c-1.08-0.186-1.959,0.635-1.959,1.832c0,1.195,0.879,2.333,1.959,2.537c1.082,0.204,1.961-0.617,1.961-1.831 C21.043,14.745,20.165,13.607,19.083,13.422z M19.083,16.152c-0.271-0.049-0.49-0.334-0.49-0.635c0-0.302,0.221-0.506,0.49-0.457 c0.271,0.047,0.49,0.332,0.49,0.633C19.573,15.996,19.354,16.202,19.083,16.152z M19.083,6.87c-4.328-0.64-7.838,2.64-7.838,7.323 c0,4.683,3.51,9.229,7.838,10.15c4.33,0.922,7.838-2.357,7.838-7.324S23.413,7.508,19.083,6.87z M19.083,22.706 c-3.517-0.729-6.367-4.421-6.367-8.248s2.852-6.491,6.367-5.95c3.518,0.54,6.369,4.233,6.369,8.247 C25.452,20.77,22.6,23.434,19.083,22.706z" fill="url(#SVGID_1)" fill-opacity="0.5"/>
<linearGradient id="SVGID_2" gradientUnits="userSpaceOnUse" x1="11.99" y1="21.75" x2="17.08" y2="31.76">
<stop stop-color="#A2C2DD" offset="0.1"/>
<stop stop-color="#6C83BB" offset="0.71"/>
<stop stop-color="#003D6D" offset="0.99"/>
</linearGradient>
<path d="M13.124,9.191c0,0,0.063,1.994,0.082,2.604c-0.604-0.076-2.229-0.279-2.229-0.279 c0.021,0.016-1.24,0.008-1.24,0.008c-0.541-0.019-4.813,1.151-4.813,1.151l-0.02,0.246c-0.359,4.761,0.338,13.043,0.924,17.146 l0.119,0.215c1.822,1.58,5.178,3.18,7.637,3.117l0.119-0.004l2.342-1.888l0.08-0.372c0.158-0.121,0.828-0.632,0.828-0.632 l0.027-0.123c0.564-2.491,1.357-8.498,1.357-13.342c0-1.08-0.144-3.144-0.144-3.144s-0.853-0.963-2.621-1.512 c0.068-0.451,0.443-2.96,0.443-2.96s0.053-0.946-1.236-0.946C13.258,8.449,13.124,9.191,13.124,9.191z" fill="url(#SVGID_2)"/>
<linearGradient id="SVGID_3" gradientUnits="userSpaceOnUse" x1="20" y1="16.57" x2="9.58" y2="10.65">
<stop stop-color="#A2C2DD" offset="0.1"/>
<stop stop-color="#6C83BB" offset="0.71"/>
<stop stop-color="#003D6D" offset="0.99"/>
</linearGradient>
<path d="M10.961,11.863c0,0,4.91,0.193,6.896,2.191l-2.68,1.248L10.961,11.863z" fill="url(#SVGID_3)"/>
<linearGradient id="SVGID_4" gradientUnits="userSpaceOnUse" x1="19.12" y1="9.41" x2="14.61" y2="28.21">
<stop stop-color="#FFFFFF" offset="0"/>
<stop stop-color="#A2C2DD" offset="0.35"/>
<stop stop-color="#6C83BB" offset="0.7"/>
<stop stop-color="#003D6D" offset="1"/>
</linearGradient>
<path d="M15.18,15.305l-0.766,16.688l2.221-1.688c0.742-3.269,1.699-11.479,1.219-16.271L15.18,15.305z" fill="url(#SVGID_4)"/>
<linearGradient id="SVGID_5" gradientUnits="userSpaceOnUse" x1="5.8" y1="11.36" x2="18.21" y2="15.63">
<stop stop-color="#FFFFFF" offset="0.15"/>
<stop stop-color="#A2C2DD" offset="1"/>
</linearGradient>
<path d="M5.252,12.947c0,0,3.955-1.092,4.496-1.074c1.93-0.066,4.944,0.125,7.272,2.286L14.2,15.502 L5.252,12.947z" fill="url(#SVGID_5)"/>
<linearGradient id="SVGID_6" gradientUnits="userSpaceOnUse" x1="16.12" y1="13.13" x2="13.78" y2="37.83">
<stop stop-color="#FFFFFF" offset="0"/>
<stop stop-color="#A2C2DD" offset="0.35"/>
<stop stop-color="#6C83BB" offset="0.7"/>
<stop stop-color="#003D6D" offset="1"/>
</linearGradient>
<path d="M14.197,15.502l-0.625,17.545l2.152-1.73c0.778-3.447,1.801-12.102,1.295-17.154L14.197,15.502z" fill="url(#SVGID_6)"/>
<linearGradient id="SVGID_7" gradientUnits="userSpaceOnUse" x1="11.71" y1="13.56" x2="16.28" y2="13.8">
<stop stop-color="#FFFFFF" offset="0"/>
<stop stop-color="#A2C2DD" offset="0.35"/>
<stop stop-color="#6C83BB" offset="0.7"/>
<stop stop-color="#003D6D" offset="1"/>
</linearGradient>
<path d="M15.465,13.578c0.063,0.38-0.437,0.667-1.1,0.695c-0.666,0.031-1.246-0.194-1.236-0.648 c0.008-0.29,1.102-0.518,1.102-0.518S15.42,13.293,15.465,13.578z" fill="url(#SVGID_7)"/>
<linearGradient id="SVGID_8" gradientUnits="userSpaceOnUse" x1="13.27" y1="11.54" x2="15.56" y2="11.6">
<stop stop-color="#E6EEF4" offset="0"/>
<stop stop-color="#337CE5" offset="0.44"/>
<stop stop-color="#003D6D" offset="0.94"/>
</linearGradient>
<path d="M13.473,9.18l0.141,4.5c0.15,0.32,1.203,0.385,1.365-0.039l0.645-4.3L13.473,9.18z" fill="url(#SVGID_8)"/>
<linearGradient id="SVGID_9" gradientUnits="userSpaceOnUse" x1="12.46" y1="11.92" x2="6.42" y2="33.88">
<stop stop-color="#FFFFFF" offset="0.05"/>
<stop stop-color="#A2C2DD" offset="1"/>
</linearGradient>
<path d="M5.252,12.947c1.936-0.631,6.041-0.106,8.947,2.555c0.34,4.771,0.063,13.055-0.625,17.547 c-2.345,0.061-5.652-1.518-7.4-3.031C5.6,26.006,4.887,17.743,5.252,12.947z" fill="url(#SVGID_9)"/>
<linearGradient id="SVGID_10" gradientUnits="userSpaceOnUse" x1="14.45" y1="27.87" x2="6.42" y2="14.4">
<stop stop-color="#FFFFFF" offset="0.05"/>
<stop stop-color="#A2C2DD" offset="1"/>
</linearGradient>
<polygon fill="url(#SVGID_10)" points="6.215,14.105 6.516,24.219 12.991,26.605 13.206,16.113 "/>
<linearGradient id="SVGID_11" gradientUnits="userSpaceOnUse" x1="6.73" y1="29.66" x2="6.73" y2="9.69">
<stop stop-color="#FFFFFF" offset="0"/>
<stop stop-color="#A2C2DD" offset="0.35"/>
<stop stop-color="#6C83BB" offset="0.7"/>
<stop stop-color="#003D6D" offset="1"/>
</linearGradient>
<polygon fill="url(#SVGID_11)" points="7.238,23.781 7.051,14.344 6.215,14.105 6.516,24.219 "/>
<linearGradient id="SVGID_12" gradientUnits="userSpaceOnUse" x1="13.75" y1="26.86" x2="1.45" y2="21.12">
<stop stop-color="#FFFFFF" offset="0.15"/>
<stop stop-color="#A2C2DD" offset="1"/>
</linearGradient>
<polygon fill="url(#SVGID_12)" points="6.516,24.219 7.238,23.781 13.014,25.779 12.991,26.605 "/>
<linearGradient id="SVGID_13" gradientUnits="userSpaceOnUse" x1="13.44" y1="9.08" x2="16.31" y2="9.55">
<stop stop-color="#D6E4F3" offset="0"/>
<stop stop-color="#337CE5" offset="1"/>
</linearGradient>
<path d="M15.668,9.398c-0.086,0.244-0.648,0.386-1.256,0.313c-0.605-0.069-1.017-0.329-0.918-0.573 c0.098-0.244,0.651-0.386,1.246-0.313C15.334,8.896,15.75,9.154,15.668,9.398z" fill="url(#SVGID_13)"/>
<linearGradient id="SVGID_14" gradientUnits="userSpaceOnUse" x1="7.69" y1="22.16" x2="12.88" y2="30.79">
<stop stop-color="#E6EEF4" offset="0"/>
<stop stop-color="#337CE5" offset="0.44"/>
<stop stop-color="#003D6D" offset="0.94"/>
</linearGradient>
<polygon fill="url(#SVGID_14)" points="10.781,29.068 12.516,29.801 12.586,28.551 10.818,27.82 "/>
<polygon fill="url(#SVGID_14)" points="12.602,28.227 12.67,26.979 10.863,26.305 10.829,27.498 "/>
<polygon fill="url(#SVGID_14)" points="10.771,29.393 10.741,30.521 12.438,31.277 12.5,30.127 "/>
<polygon fill="url(#SVGID_14)" points="8.385,26.838 6.859,26.232 6.938,27.493 8.432,28.096 "/>
<polygon fill="url(#SVGID_14)" points="10.491,27.381 10.502,26.193 8.75,25.553 8.77,26.691 "/>
<polygon fill="url(#SVGID_14)" points="8.331,25.379 6.766,24.816 6.838,25.906 8.372,26.512 "/>
<polygon fill="url(#SVGID_14)" points="8.829,29.709 10.456,30.418 10.467,29.284 8.807,28.596 "/>
<polygon fill="url(#SVGID_14)" points="8.441,28.424 6.961,27.818 7.029,28.918 8.482,29.539 "/>
<polygon fill="url(#SVGID_14)" points="8.777,27.016 8.801,28.27 10.473,28.961 10.484,27.705 "/>
<polygon fill="url(#SVGID_14)" points="8.836,30.039 8.855,31.182 10.439,31.92 10.454,30.746 "/>
</svg>