<?xml version="1.0" encoding="UTF-8"?>
<!DOCTYPE svg PUBLIC "-//W3C//DTD SVG 1.1 Tiny//EN" "http://www.w3.org/Graphics/SVG/1.1/DTD/svg11-tiny.dtd">
<svg width="40" height="40" viewBox="0 0 40 40">
<polygon fill="#496DA2" points="21.402,8.448 21.402,18.787 22.924,18.787 22.924,9.909 30.23,9.909 30.232,24.602 27.045,24.602 27.043,26.2 31.713,26.2 31.713,8.448 "/>
<path fill="#496DA2" d="M7.295,20.261v10.304h18.238V20.261H7.295z M8.852,21.751h15.242v7.288H8.852V21.751z"/>
<path fill="#6C8EB7" d="M12.934,14.876l-1.557-0.021c0.305-1.789,1.633-3.084,3.369-3.261l-0.006,1.431l2.664-2.304l-2.748-2.272 l0.004,1.41c-2.672,0.215-4.688,2.209-4.963,4.977l-1.402-0.003l2.312,2.777L12.934,14.876z"/>
</svg>