<?xml version="1.0" encoding="UTF-8"?>
<!DOCTYPE svg PUBLIC "-//W3C//DTD SVG 1.1 Tiny//EN" "http://www.w3.org/Graphics/SVG/1.1/DTD/svg11-tiny.dtd">
<svg width="50" height="50" viewBox="0 0 50 50">
<path d="M3.215,25.835c0,12.472,10.148,22.617,22.619,22.617 c12.473,0,22.619-10.146,22.619-22.617c0-12.473-10.146-22.621-22.619-22.621C13.363,3.214,3.215,13.362,3.215,25.835z" fill-opacity="0.01" />
<path d="M4.2,25.835c0,11.926,9.706,21.631,21.634,21.631 c11.929,0,21.632-9.705,21.632-21.631c0-11.93-9.703-21.631-21.632-21.631C13.906,4.204,4.2,13.905,4.2,25.835z" fill-opacity="0.02" />
<path d="M5.188,25.835c0,11.381,9.263,20.643,20.646,20.643 c11.386,0,20.643-9.262,20.643-20.643c0-11.387-9.257-20.646-20.643-20.646C14.45,5.189,5.188,14.448,5.188,25.835z" fill-opacity="0.04" />
<path d="M6.021,25.835c0,10.922,8.888,19.809,19.813,19.809 c10.923,0,19.81-8.887,19.81-19.809c0-10.924-8.887-19.813-19.81-19.813C14.909,6.022,6.021,14.911,6.021,25.835z" fill-opacity="0.07" />
<linearGradient id="_3" gradientUnits="userSpaceOnUse" x1="25" y1="5.62" x2="25" y2="44.34">
<stop stop-color="#CFECFF" offset="0"/>
<stop stop-color="#8CC2EA" offset="1"/>
</linearGradient>
<path d="M25,5.257c-10.889,0-19.746,8.856-19.746,19.744 c0,10.886,8.857,19.742,19.746,19.742s19.748-8.856,19.748-19.742C44.748,14.113,35.889,5.257,25,5.257z" fill="url(#_3)"/>
<linearGradient id="_4" gradientUnits="userSpaceOnUse" x1="25" y1="7.04" x2="25" y2="42.68">
<stop stop-color="#FFFFFF" offset="0"/>
<stop stop-color="#EAF7FF" offset="0.32"/>
<stop stop-color="#D6EFFF" offset="0.73"/>
<stop stop-color="#CFECFF" offset="1"/>
</linearGradient>
<circle cx="25.001" cy="25.001" fill="url(#_4)" r="18.669"/>
<ellipse cx="25.001" cy="25.021" fill="#FFFFFF" fill-opacity="0.2" rx="16.128" ry="13.164" />
<polygon fill="#B3DDFF" points="23.542,18.085 23.542,34.119 12.623,26.089 "/>
<rect fill="#B3DDFF" height="16.031" width="4.088" x="26.693" y="18.088"/>
</svg>