<?xml version="1.0" encoding="UTF-8"?>
<!DOCTYPE svg PUBLIC "-//W3C//DTD SVG 1.1 Tiny//EN" "http://www.w3.org/Graphics/SVG/1.1/DTD/svg11-tiny.dtd">
<svg width="20" height="20" viewBox="0 0 20 20">
<path d="M10.045,4.766c1.059,0,1.858,0.376,2.398,1.128c0.541,0.751,0.812,2.078,0.812,3.979 c0,2.085-0.274,3.5-0.821,4.245c-0.548,0.744-1.355,1.117-2.424,1.117c-0.935,0-1.641-0.248-2.117-0.743 c-0.477-0.494-0.787-1.12-0.931-1.876c-0.145-0.757-0.217-1.671-0.217-2.743c0-1.865,0.277-3.183,0.832-3.952 C8.131,5.15,8.954,4.766,10.045,4.766z M9.996,14.094c0.468,0,0.811-0.262,1.028-0.787c0.217-0.524,0.326-1.669,0.326-3.434 c0-1.695-0.112-2.78-0.337-3.255c-0.225-0.474-0.563-0.711-1.018-0.711c-0.412,0-0.716,0.165-0.91,0.495 C8.891,6.731,8.77,7.162,8.722,7.694C8.673,8.226,8.649,8.952,8.649,9.873c0,1.814,0.107,2.972,0.322,3.472 C9.188,13.844,9.529,14.094,9.996,14.094z" fill="#536376"/>
</svg>