<?xml version="1.0" encoding="UTF-8"?>
<!DOCTYPE svg PUBLIC "-//W3C//DTD SVG 1.1 Tiny//EN" "http://www.w3.org/Graphics/SVG/1.1/DTD/svg11-tiny.dtd">
<svg baseProfile="tiny" height="44px" version="1.1" viewBox="-8.464 -8.101 44 44" width="44px" x="0px" xmlns="http://www.w3.org/2000/svg" xmlns:xlink="http://www.w3.org/1999/xlink" y="0px">
<path d="M0.002,13.867c0.025-0.824,0.276-1.559,0.853-2.17L10.43,0.92l0.042-0.04  C11.07,0.311,11.853,0.002,12.677,0c0.501,0.002,0.991,0.111,1.455,0.361c0.273,0.146,0.53,0.325,0.784,0.597  c0.562,0.565,0.894,1.369,0.897,2.227c-0.003,0,0.006,0.043-0.002,0.148l-0.019,3.729c3.245,0.397,9,1.101,9.806,1.211  c0.659,0.101,1.517,0.265,2.293,0.948c0.785,0.69,1.171,1.801,1.152,2.997v2.946c0.019,1.202-0.367,2.319-1.16,3.011  c-0.785,0.686-1.65,0.842-2.316,0.93c-0.656,0.084-6.494,0.799-9.756,1.197v3.709c-0.033,1.212-0.679,2.318-1.771,2.858  c-0.401,0.204-0.881,0.323-1.356,0.321c-0.007,0-0.015,0-0.021,0c-0.822,0-1.609-0.365-2.166-0.926l-9.589-10.09  c-0.544-0.564-0.862-1.309-0.901-2.104L0,14.042L0.002,13.867z" fill="#FFFFFF" fill-opacity="0.6" stroke-opacity="0.6"/>
<linearGradient gradientUnits="userSpaceOnUse" id="SVGID_1_" x1="14.4932" x2="14.4932" y1="-8.0498" y2="17.5531">
<stop offset="0" style="stop-color:#CCCCCC"/>
<stop offset="1" style="stop-color:#000000"/>
</linearGradient>
<path d="M12.652,25.569c-0.411,0-0.807-0.168-1.112-0.473L1.961,15.014c-0.313-0.309-0.499-0.768-0.491-1.248  c0.006-0.477,0.198-0.93,0.525-1.244l9.43-10.623c0.359-0.352,0.785-0.52,1.219-0.52c0.268,0,0.525,0.063,0.75,0.186  c0.135,0.07,0.27,0.168,0.388,0.287c0.335,0.334,0.517,0.807,0.497,1.295L14.257,8.27c2.619,0.318,10.213,1.246,11.105,1.369  c1.12,0.158,2.154,0.561,2.154,2.455v2.947c0,1.914-1.042,2.311-2.165,2.453c-0.753,0.096-8.453,1.037-11.071,1.355v5.01  c-0.019,0.684-0.378,1.262-0.936,1.543C13.124,25.512,12.892,25.569,12.652,25.569L12.652,25.569z" fill="url(#SVGID_1_)"/>
<linearGradient gradientTransform="matrix(-1 0 0 1 -124.0674 0)" gradientUnits="userSpaceOnUse" id="SVGID_2_" x1="-134.1665" x2="-142.7491" y1="25.4009" y2="4.3115">
<stop offset="0" style="stop-color:#EBEFAD"/>
<stop offset="0.4945" style="stop-color:#88BA40"/>
<stop offset="1" style="stop-color:#196432"/>
</linearGradient>
<path d="M2.677,13.229l9.481-10.68c0.198-0.189,0.536-0.246,0.769-0.121c0.059,0.031,0.11,0.068,0.159,0.119  c0.14,0.139,0.22,0.346,0.212,0.563l-0.026,6.027c0,0,10.896,1.33,11.956,1.473c0.906,0.129,1.307,0.305,1.307,1.484  c0,1.178,0,1.77,0,2.945c0,1.178-0.396,1.365-1.307,1.48c-0.908,0.115-11.93,1.465-11.93,1.465v5.875  c-0.007,0.287-0.155,0.545-0.392,0.664c-0.231,0.117-0.481,0.066-0.673-0.123L2.672,14.338c-0.002-0.002-0.002-0.006-0.006-0.008  c-0.141-0.141-0.22-0.342-0.216-0.553S2.535,13.362,2.677,13.229z" fill="url(#SVGID_2_)"/>
<linearGradient gradientTransform="matrix(-1 0 0 1 -124.0674 0)" gradientUnits="userSpaceOnUse" id="SVGID_3_" x1="-148.1743" x2="-124.242" y1="11.6504" y2="7.3549">
<stop offset="0" style="stop-color:#62A243"/>
<stop offset="0.9121" style="stop-color:#E2ECB5"/>
<stop offset="1" style="stop-color:#E2ECB5"/>
</linearGradient>
<polygon fill="url(#SVGID_3_)" points="3.619,13.653 12.286,3.848 12.294,9.833 25.784,11.405 25.784,13.639 "/>
</svg>
