<?xml version="1.0" encoding="UTF-8" standalone="no"?>
<!DOCTYPE svg PUBLIC "-//W3C//DTD SVG 1.1 Tiny//EN" "http://www.w3.org/Graphics/SVG/1.1/DTD/svg11-tiny.dtd">
<svg xmlns="http://www.w3.org/2000/svg" xmlns:xlink="http://www.w3.org/1999/xlink" baseProfile="tiny" height="120" version="1.1" viewBox="0 0 120 120" width="120">
<linearGradient gradientTransform="matrix(1 0 0 -1 0.1377 118.834)" gradientUnits="userSpaceOnUse" id="XMLID_7_" x1="-0.1445" x2="63.4949" y1="105.959" y2="56.0573">
<stop offset="0" style="stop-color:#989898"/>
<stop offset="0.24" style="stop-color:#E8ECE8"/>
<stop offset="0.41" style="stop-color:#E8E8E8"/>
<stop offset="0.48" style="stop-color:#E0E4E0"/>
<stop offset="1" style="stop-color:#504C50"/>
</linearGradient>
<path d="M96.343,18.026L96.343,18.026l0.005-0.007c0,0-3.718-1.891-8.414-1.934l-60.492,5.072  c-5.355,0.301-7.522,2.255-7.436,4.727l0.691,71.478c-0.012,2.331,2.225,3.811,4.397,5.607L96.343,18.026z" fill="url(#XMLID_7_)"/>
<path d="M91.839,17.28c4.795-0.403,7.391,2.277,7.384,4.814c-0.007,2.493,0.729,58.508,0.77,60.9  c0.061,3.511-2.499,5.459-5.313,6.151c-1.684,0.414-60.916,14.162-62.682,14.489c-6.876,1.272-8.217-1.409-8.187-3.447  c0.039-2.608-0.579-70.599-0.597-72.854c-0.024-2.961,2.769-4.284,7.98-4.819C32.525,22.377,89.209,17.501,91.839,17.28z" fill="#FFFFFF"/>
<radialGradient cx="-336.7622" cy="2628.3496" gradientTransform="matrix(-0.5936 0 0 0.3989 -170.2732 -1019.2762)" gradientUnits="userSpaceOnUse" id="XMLID_8_" r="173.6889">
<stop offset="0" style="stop-color:#F0F4F0"/>
<stop offset="1" style="stop-color:#989C98"/>
</radialGradient>
<path d="M95.02,87.62c1.775-0.441,3.659-1.441,3.688-3.42c0.018-1.187-0.366-59.223-0.338-61.014  c0.025-1.58-1.419-2.71-4.997-2.389c-1.193,0.107-59.934,5.801-61.455,5.859c-3.886,0.148-5.103,2.117-5.083,3.247  c0,0,0.912,65.674,0.927,68.68c0.012,2.277,2.366,2.77,5.435,2.461C33.197,101.044,93.605,87.972,95.02,87.62z" fill="url(#XMLID_8_)"/>
<linearGradient gradientUnits="userSpaceOnUse" id="XMLID_9_" x1="23.7056" x2="94.1226" y1="35.5527" y2="69.8867">
<stop offset="0" style="stop-color:#A8A8A8"/>
<stop offset="0.34" style="stop-color:#A0A0A0"/>
<stop offset="0.9" style="stop-color:#707470"/>
<stop offset="1" style="stop-color:#707470"/>
</linearGradient>
<path d="M31.666,45.508c0.199-1.123,0.332-1.154,2.438-1.116c0.648,2.294,1.523,2.497,2.021,2.399  c1.804,1.759,1.146,6.585,2.517,8.075c1.234,1.343,1.852,2.672,2.326,3.648c4.021,2.319,3.375,1.12,5.642,4.203  c-0.319,1.318-0.342,2.525,1.118,6.75c0,0,0.437-3.201,1.154,0.871c0.715,4.076,0.717,0.904-0.048,2.543  c-0.764,1.637,1.045,0.881,0.078,2.691c-0.969,1.809-0.166,2.394-0.166,2.394c0.298,5.339,0.125,5.056,1.662,5.12  c-0.31-1.301,0.574-3.621,0.655-4.802c0.616-1.584,2.69-4.28,2.927-6.702c1.007-0.9,1.445-1.814,1.298-3.422  c1.007-2.045,1.282-2.762-2.073-4.776c-0.759-2.733-0.385,0.08-2.284-3.587c-2.44-0.301-4.308-0.527-4.229,0.989  c-1.813-1.943-0.201-2-0.929-3.841c-0.34-0.859-1.86,0.54-1.748,1.525c-1.847-0.461-0.549-2.979,0.951-3.71  c0.407,0.523,0.984,1.614,1.428,1.379c0.22-0.44-0.217-1.663,0.175-1.991c1.227-1.028,1.316-2.039,0.822-2.05  c0.583-0.43,1.458-1.532,1.321-1.722c-0.447-0.62,0.279-1.108,0.326-1.077c0.521,0.611,1.131,0.56,1.131,0.56  s-0.421-1.593-0.393-1.595c0.628,0.114,0.762,0.285,1.185,0.723c0.943-0.751-0.255-2.07-0.578-2.422  c0.846,0.118,0.304-1.52-1.174-1.169c0.308-1.073-0.108-2.296-1.425-2.031c0.565-1.408,2.313-2.649-0.912-5.55  c0.211-0.114,0.989-0.493,0.989-0.493c0.98,0.697,1.79,2.153,2.235,2.811c0.077,2.298,2.65,2.312,2.568,3.526  c2.108-4.846,2.256-2.255,3.285-4.138c0.23,0.137,1.703,0.147,2.019-2.463c-1.106-0.917,0.658-1.848,0.545-2.466  c-0.142-0.79-1.229-0.505-2.127-0.489c-4.557-0.09-5.613-0.17-6.068,0.727c-0.209-0.085-0.719-0.677-1.103-0.032  c-2.9,0.174-3.961,0.978-4.082,2.073c0.018-0.338,0.434-2.145-0.42-1.874c-0.963,0.717-1.661,0.889-1.956,0.094  c-0.245-0.659-1.987,0.468-1.15,1.283c-0.521,0.215-1.138,0.667-0.68,2.554c-1.192-1.856-1.752-2.117-3.085-1.026  c-0.1-0.543-0.478-0.767-1.591,0.107c1.108,0.293-0.966,0.622-1.047,1.763c-1.594-0.516-2.455,0.005-3.102-0.635  c-2.098-1.052-3.847,1.61-3.765,2.482c0.129,0.834-0.363,1.079-0.022,1.798c0.414,0.877,0.378,0.895,1.09,3.98  C29.695,46.096,29.748,46.093,31.666,45.508z M89.046,66.541c-0.332-0.891-1.382-0.962-1.382-0.962S87.1,66.133,86.6,66.275  c-2.502,2.416-2.838,2.515-1.468,8.045l1.037-0.809c0.106-1.306,1.573-0.722,2.133-1.13c1.74,1.451,1.12,1.611,2.625,2.492  c-0.093,0.253-0.315,1.078-0.288,1.076c0.68,1.147,1.674-1.071,1.053-2.063c-0.172-0.416,0.672-0.828,0.582-1.57  c-0.252-2.029,0.838-2.211-1.451-4.303c-0.356-0.324-0.188-1.842-1.441-3.076C89.675,65.473,89.25,65.887,89.046,66.541z   M63.854,43.733c-0.03,0.012-0.84-0.744-0.889-0.677c-0.879,1.281-1.273-1.06-1.21-1.719c0.79,0.684,0.617-1.56,2.741-4.627  c1.496,0.738,1.506-0.99-1.514-0.85c-1.916-2.633,5.957-1.488,2.531-0.277c0.272,2.353,6.426,3.172,7.629,0.749  c-2.869-1.13-0.816,0.462-2.227,0.468c-1.506-0.582-0.338-1.386,0.596-1.945c-2.384-0.551-2.287,0.348-3.113-0.844  c3.351,0.038,2.742-1.036,3.74-0.625c0.594,0.243,1.229,2.311,2.19,2.123c1.651-0.324,0.004,1.165,1.478,0.324  c1.195-0.675,0.73-1.357,2.965-1.368c-0.106-0.249-0.668-1.167-0.39-1.451c0.54-0.561,1.921,1.74,5.649,1.626  c0.669-2.049,0.324,0.287,2.076,0.595c0.988-1.573,1.521-2.044,1.804-0.111c2.401-1.946,0.368-0.882,3.294-0.024  c1.33,1.626,2.829,0.258,4.037,0.466c1.008,1.759-1.514,5.197-2.299,4.806c-0.06,0.932-0.973,0.702-0.973,0.702  s0.635,2.972-1.318,3.052c0.645-0.793-0.34-1.429,0.662-4.167c-1.231,0.747-1.371,2.226-2.385,1.323  c0.438,2.595-0.231,3.854,0.188,4.958c-0.724-0.769-2.461,0.199-2.462,3.341c0.66-1.373,1.06-1.145,1.599-1.722  c0.433-0.466-0.287-0.959,1.263-1.225c-0.302,0.685-1.111,3.759-1.365,4.18c1.438,2.524-0.906,2.123-1,0.638  c-0.531,0.724-0.887,0.007-1.231,0.814c-0.354-0.326-0.178-3.078-0.993-3.414c-1.273,0.337,1.387,3.354,0.123,6.021l-0.691-0.585  c-3.422,2.721-0.756,1.555-1.451,3.375c-0.534,1.823-1.334,2.226-1.059,3.665c0,0,0.877,1.335,0.951,2.254  c0.951-0.955,0.895-1.027,0.356-2.242l1.641-1.588l0.567,1.859c0,0,2.594-1.414,3.691,0.703c4.676-1.045,2.17-0.201,3.885,1.424  c1.435,0.546,4.023,2.472,2.076,3.771c0.213,1.418,0.68,3.547,0.68,3.547c-1.284-0.187-1.405-1.115-1.324-4.463  c-1.542-3.38,0.078,0.748-3.287-3.367c0,0-0.12,1.073,0.129,1.894c-0.291,0.253-1.23-0.976-1.23-0.976s-0.935,0.571-1.557-0.424  c-2.132-0.107-2.136-1.332-2.136-1.332l-1.498,1.071l2.422,0.659c0,0-0.043,0.725-1.628,0.744c0.208,0.699-4.105,1.791-4.553-3.699  c-0.684-0.486-0.719-0.428-0.6-3.446c0,0-0.988-1.915-1.172-2.249c-1.871,1.614-1.005,4.738-1.994,4.731  c-1.5-0.013-1.141-4.881-4.097-5.368c0.185,2.027-0.796,2.414-1.563,3.809c0,0,0.783,0.878,1.022,1.095  c-0.825,4.192-3.729,3.875-1.569,6.866c-0.848,1.176-2.045,8.578-3.254,8.894c-1.959,0.517-3.254-5.724-3.188-6.231  c-0.708-0.625-0.14-1.535-0.067-2.009c-0.406-0.856-0.396-2.127-1.066-3.839c1.018-1.486-0.283-0.691-1.061-1.727  c-0.047-0.002-1.58,0.729-1.553,0.74c1.378,0.854-2.485,1.285-1.88-0.927c-1.123-2.008-2.316-4.18-0.898-5.641  c-0.034,0.009,0.003-3.175,0.003-3.175c2.791-0.278,2.123-2.933,5.257-1.839c0.309,1.44,1.883,1.986,1.883,1.986  s2.383-1.094,2.459-1.29c-0.15-0.348-1.588-0.008-1.62-1.412c0.112,0.628,0.167,1.398-0.312,1.42  c-0.305-0.668-0.608-0.835-2.494-3.187c0.394,2.011,1.47,0.732,0.72,2.655c-1.188-3.06-3.154-0.989-3.459-0.604  c-0.456,2.339-1.443-0.325-1.756-0.524c0.046-1.181,1.517-1.745,1.667-2.303c-0.093-2.075-1.486-1.347-1.62-1.716  c-0.369-1.002,0.772-0.515,0.643-3.008c0.632-0.615,1.097-0.552,1.292,0.146c0.161,0.59,0.73,0.208,0.817,2.007  c0.194-0.163,1.094-0.437,2.479-0.479c1.484-2.275,2.784-2.701,2.188-3.72c-0.124,0.327-1.6,1.944-1.014-0.881  c-1.186,1.023-0.943,0.83-0.91,1.54C65.035,41.53,64.26,42.978,63.854,43.733z M71.891,67.076c-1.32,1.49-0.828,3.176-1.236,2.246  c-0.405-0.932,0.143,2.984,0.351,2.996c1.224-1.262,0.366-1.616,1.024-2.078C71.732,68.113,72.721,71.449,71.891,67.076z   M95.042,76.186c-0.187,0.324,0.301,1.451,0.301,1.451s0.894-1.744,1.194-2.723c1.744-0.03,0.236-1.635-0.575-2.079  C96.154,74.248,95.854,74.768,95.042,76.186z M85.241,55.599c-0.331-0.217-1.189,1.085-0.201,2.448  c-0.256,0.495-0.295,0.345,0.509,1.02c0.135,1.155,0.825,1.334,1.117,1.036c0.227-0.278-0.749-1.801-0.725-2.754  C85.229,57.447,85.566,55.816,85.241,55.599z M46.668,56.397c-0.242,0.371,0.482,0.272,0.41,0.014  C47.05,56.305,46.74,56.285,46.668,56.397z M46.446,56.726c-0.546-0.386-0.44,1.334-0.094,0.998  c0.108-0.106,0.195,1.198,0.341,1.174c0.146-0.025,0.141-0.499,0.185-0.622C47.131,58.411,47.285,57.318,46.446,56.726z   M47.524,57.699c0.073,0.849-0.251,1.229-0.055,1.291c0.195,0.066,0.635,0.132,0.647-0.517c0.5-0.023,0.517-0.229,0.534-0.25  c0.01-0.013,0.092,0.698,0.384,0.542c0.343-1.237-0.418-0.295-0.644-1.061C48.14,57.755,47.56,57.518,47.524,57.699z M49.979,58.437  c-0.72-0.096,0.231,1.54,0.486,0.505C50.151,58.821,49.974,59.033,49.979,58.437z M43.075,64.67  c0.211-0.766,1.149,0.914,0.061,0.879C42.912,65.313,42.589,64.559,43.075,64.67z M31.277,59.017  c-0.063-0.112-1.073-2.386-1.185-1.347c-0.103,0.995-0.014,0.703,0.652,1.544L31.277,59.017z M57.218,40.054  c-0.172,0.243-0.538,0.465-0.832,0.448c-0.293-0.016-0.209,1.41,0.924,0.776C58.306,40.72,57.391,39.812,57.218,40.054z   M76.133,63.087c0,0-0.781,1.326-0.117,1.437C76.999,64.576,76.133,63.087,76.133,63.087z M76.273,65.141  c0.149,0.489,1.531,1.151,1.347,0.539C77.48,65.209,76.132,64.667,76.273,65.141z M76.363,60.066l-0.109,1.586l0.555,0.121  L76.363,60.066z" fill="url(#XMLID_9_)"/>
<path d="M41.044,32.042c0,0,23.302-10.612,35.132,3.557  c9.112,10.922,8.021,28.051,22.711,32.918" fill="none" stroke="#FFFFFF" stroke-width="0.3671"/>
<path d="M36.957,33.544c0,0,23.306-10.61,35.135,3.564  c9.893,11.849,7.76,31.013,26.826,33.88" fill="none" stroke="#FFFFFF" stroke-width="0.3671"/>
<path d="M32.87,35.05c0,0,23.31-10.612,35.138,3.561  c10.521,12.611,7.436,33.5,30.762,34.227" fill="none" stroke="#FFFFFF" stroke-width="0.3671"/>
<path d="M28.787,36.557c0,0,23.304-10.611,35.135,3.561  c11.09,13.286,7.071,35.761,34.746,34.168" fill="none" stroke="#FFFFFF" stroke-width="0.3671"/>
<path d="M45.734,56.435c0,0,10.418,22.557,24.458,11.35  c10.524-8.405,17.393-27.874,28.563-28.153" fill="none" stroke="#FFFFFF" stroke-width="0.4444"/>
<path d="M43.752,52.896c0,0,10.417,22.551,24.455,11.342  c11.139-8.893,18.18-30.184,30.57-27.996" fill="none" stroke="#FFFFFF" stroke-width="0.4444"/>
<path d="M41.771,49.354c0,0,10.414,22.554,24.45,11.343  c11.68-9.323,18.856-32.275,32.411-27.51" fill="none" stroke="#FFFFFF" stroke-width="0.4444"/>
<path d="M39.784,45.812c0,0,10.415,22.556,24.452,11.346  c12.226-9.761,19.514-34.453,34.353-26.663" fill="none" stroke="#FFFFFF" stroke-width="0.4444"/>
<radialGradient cx="-444.3701" cy="-1435.6177" gradientTransform="matrix(0.7142 -0.1476 -0.0768 -0.3717 268.3595 -508.4398)" gradientUnits="userSpaceOnUse" id="XMLID_10_" r="8.4085">
<stop offset="0" style="stop-color:#504C50"/>
<stop offset="1" style="stop-color:#A0A4A0"/>
</radialGradient>
<path d="M67.206,89.563c0.356,1.729-2.046,3.682-5.358,4.367  c-3.313,0.688-6.297-0.156-6.651-1.883c-0.356-1.729,2.043-3.682,5.36-4.365C63.871,86.994,66.85,87.835,67.206,89.563z" fill="url(#XMLID_10_)" fill-opacity="0.99"/>
<radialGradient cx="-632.8433" cy="-2311.645" gradientTransform="matrix(0.5056 -0.1045 -0.0438 -0.2118 261.9195 -467.7385)" gradientUnits="userSpaceOnUse" id="XMLID_11_" r="8.4037">
<stop offset="0" style="stop-color:#504C50"/>
<stop offset="1" style="stop-color:#A0A4A0"/>
</radialGradient>
<path d="M47.519,87.186c0.202,0.982-1.537,2.174-3.884,2.66  c-2.346,0.484-4.416,0.08-4.618-0.902c-0.202-0.981,1.534-2.174,3.883-2.654C45.249,85.798,47.315,86.201,47.519,87.186z" fill="url(#XMLID_11_)" fill-opacity="0.99"/>
<radialGradient cx="-518.6694" cy="-1928.9873" gradientTransform="matrix(0.6652 -0.1375 -0.0518 -0.2505 282.2161 -474.4897)" gradientUnits="userSpaceOnUse" id="XMLID_12_" r="8.4065">
<stop offset="0" style="stop-color:#504C50"/>
<stop offset="1" style="stop-color:#A0A4A0"/>
</radialGradient>
<path d="M42.761,78.947c0.24,1.162-2.069,2.621-5.156,3.263  c-3.092,0.64-5.789,0.214-6.029-0.95c-0.242-1.162,2.069-2.623,5.157-3.261C39.821,77.359,42.52,77.784,42.761,78.947z" fill="url(#XMLID_12_)" fill-opacity="0.99"/>
<path d="M73.424,80.4c0,0-3.217,14.414-17.103,10.104  c-10.229-3.17-20.063-12.965-29.005-11.878" fill="none" stroke="#FFFFFF" stroke-width="0.3836"/>
<path d="M74.208,78.088c0,0-3.218,14.409-17.099,10.104  C46.582,84.93,36.471,74.65,27.322,76.438" fill="none" stroke="#FFFFFF" stroke-width="0.3836"/>
<path d="M74.993,75.768c0,0-3.216,14.416-17.099,10.105  c-10.686-3.313-20.939-13.85-30.197-11.664c-0.171,0.041-0.343,0.087-0.514,0.135" fill="none" stroke="#FFFFFF" stroke-width="0.3836"/>
<path d="M64.052,85.227l-0.225,0.121c0.004-0.005,0.007-0.012,0.011-0.017c-0.004,0.005-0.008,0.012-0.012,0.017  l-0.26-0.209c0.987-1.582,1.605-3.439-1.09-4.676l-0.348,5.344l-0.053,0.078c-0.046,0.149-0.107,0.301-0.205,0.454  c-0.548,0.854-1.731,1.392-2.645,1.196c-0.908-0.194-1.201-1.049-0.655-1.9c0.549-0.854,1.73-1.39,2.642-1.193  c0.063,0.014,0.116,0.037,0.174,0.057l0.5-7.594l0.336-0.108c0.125-0.008,0.354,0.024,0.484,0.122L62.69,77.17  c-0.039,2.183,2.206,2.55,2.532,4.788C65.328,82.811,64.813,84.229,64.052,85.227z M47.026,81.568  c0.023-2.107-1.995-2.772-1.644-4.781l0.051-0.229c-0.108-0.104-0.314-0.17-0.432-0.18l-0.324,0.051l-1.555,6.913  c-0.033-0.017-0.061-0.036-0.096-0.05c-0.813-0.311-1.979,0.01-2.608,0.721c-0.63,0.709-0.483,1.535,0.33,1.846  c0.812,0.314,1.976-0.012,2.607-0.721c0.29-0.325,0.407-0.675,0.378-0.989l0.975-4.352c2.31,1.526,1.47,3.148,0.333,4.47  l0.208,0.226c0,0,0,0.001-0.001,0.001l0.001-0.001l0,0.001c0,0,0-0.001,0.001-0.001l0.222-0.079  C46.32,83.604,46.999,82.37,47.026,81.568z M40.973,69.453c-1.058-2.419-3.7-2.14-4.327-4.614l-0.059-0.284  c-0.177-0.066-0.445-0.033-0.581,0.018l-0.346,0.221l1.772,8.678c-0.047-0.002-0.09-0.011-0.139-0.008  c-1.083,0.063-2.25,1.025-2.602,2.157c-0.357,1.132,0.237,2.001,1.321,1.938c1.085-0.059,2.249-1.024,2.604-2.156  c0.163-0.521,0.118-0.979-0.076-1.323l-1.12-5.46c3.417,0.559,3.289,2.838,2.671,4.924l0.35,0.15c0,0.001,0,0.001,0,0.002  l0.001-0.002l0.003,0.002c0.001-0.002,0.001-0.005,0.002-0.007l0.211-0.198C41.209,72.131,41.352,70.379,40.973,69.453z" fill="#484848"/>
<rect fill="none" height="120" width="120"/>
</svg>
