<?xml version="1.0" encoding="utf-8"?>
<!DOCTYPE svg PUBLIC "-//W3C//DTD SVG 1.1 Tiny//EN" "http://www.w3.org/Graphics/SVG/1.1/DTD/svg11-tiny.dtd">
<svg width="60" height="80" viewBox="0 0 60 80">
<linearGradient id="_370" gradientUnits="userSpaceOnUse" x1="20.69" y1="30.75" x2="38.19" y2="51.79">
<stop stop-color="#DEE9F3" offset="0"/>
<stop stop-color="#235487" offset="1"/>
</linearGradient>
<circle fill="url(#_370)" cx="29.527" cy="41.367" r="23.417"/>
<path fill="#235487" d="M30.915,57.197l-0.77,0.541c0,0-0.771,0-0.811,0.309c-0.04,0.307-0.192,1.041-0.192,1.041s-0.039,1.467,0.81,1.273c0.85-0.193,1.08-1.467,1.08-1.467S31.881,57.006,30.915,57.197z"/>
<radialGradient id="_371" gradientUnits="userSpaceOnUse" cx="34.05" cy="26.71" r="42.04">
<stop stop-color="#FFFFFF" offset="0"/>
<stop stop-color="#A2C2DD" offset="0.53"/>
<stop stop-color="#6C83BB" offset="0.87"/>
<stop stop-color="#003D6D" offset="1"/>
</radialGradient>
<path fill="url(#_371)" d="M52.285,41.367c0,12.551-10.174,22.725-22.718,22.725c-12.551,0-22.725-10.174-22.725-22.725c0-12.551,10.174-22.725,22.725-22.725C42.111,18.643,52.285,28.816,52.285,41.367z"/>
<radialGradient id="_372" gradientUnits="userSpaceOnUse" cx="34.36" cy="29.04" r="28.6">
<stop stop-color="#E6EEF4" offset="0"/>
<stop stop-color="#C6DCC1" offset="0.08"/>
<stop stop-color="#91C06F" offset="0.21"/>
<stop stop-color="#6BAB33" offset="0.32"/>
<stop stop-color="#539E0E" offset="0.4"/>
<stop stop-color="#4A9900" offset="0.44"/>
<stop stop-color="#398419" offset="0.55"/>
<stop stop-color="#22663B" offset="0.71"/>
<stop stop-color="#135550" offset="0.85"/>
<stop stop-color="#0E4E58" offset="0.94"/>
</radialGradient>
<path fill="url(#_372)" d="M7.421,41.407l-0.575-0.191c0,0.052-0.004,0.103-0.004,0.153c0,0.545,0.026,1.083,0.063,1.617c0.008,0.113,0.016,0.228,0.025,0.342c0.046,0.533,0.105,1.063,0.188,1.586c0.003,0.021,0.007,0.044,0.011,0.064c0.083,0.52,0.187,1.029,0.304,1.537c0.018,0.073,0.034,0.148,0.052,0.224c0.128,0.526,0.271,1.048,0.436,1.56c0.002,0.006,0.004,0.012,0.005,0.016c0.018-0.185,0.025-0.375,0.019-0.57c-0.043-1.354-0.262-1.18-0.262-1.18l0.35-0.263l1.18-1.792v-1.311L8.121,42.28L7.421,41.407z M22.068,21.055c0.288,0.197,0.722,0.335,0.978,0.226c0.255-0.108,0.802-0.505,0.802-0.505s-0.331-0.042-0.661,0.085C22.855,20.987,22.306,20.878,22.068,21.055z M18.827,21.96c0.483-0.043,1.745-1.139,2.403-0.917c0.661,0.218,1.203-0.225,1.817-0.618c0.219-0.044,0.526,0.086,1.056-0.178c0.527-0.263,1.58-0.833,1.843-0.833c0.263,0,1.141-0.032,1.358-0.383c0,0,0.655,0.088,1.049,0.132c0.544,0.06,2.731,0.525,3.301,0.306c0.313-0.12,1.632-0.227,2.757-0.298c-0.054-0.012-0.104-0.025-0.157-0.036c-0.152-0.032-0.306-0.059-0.458-0.088c-0.237-0.045-0.478-0.091-0.718-0.129c-0.104-0.015-0.21-0.027-0.314-0.042c-0.291-0.041-0.582-0.081-0.875-0.111c-0.011-0.001-0.02-0.001-0.029-0.003c-0.756-0.075-1.521-0.115-2.292-0.115c-0.157,0-0.312,0.009-0.468,0.012c-0.289,0.007-0.577,0.014-0.864,0.03c-0.223,0.014-0.445,0.032-0.667,0.051c-0.249,0.021-0.498,0.049-0.745,0.078c-0.213,0.026-0.427,0.05-0.638,0.081c-0.405,0.061-0.808,0.13-1.206,0.212c-0.194,0.04-0.385,0.089-0.578,0.133c-0.252,0.059-0.502,0.12-0.751,0.187c-0.204,0.055-0.406,0.112-0.608,0.173c-0.253,0.075-0.503,0.157-0.751,0.241c-0.176,0.061-0.354,0.115-0.528,0.179c-0.381,0.139-0.755,0.29-1.126,0.448c-0.181,0.077-0.358,0.161-0.535,0.242c-0.231,0.106-0.461,0.216-0.687,0.329c-0.18,0.09-0.359,0.18-0.536,0.273c-0.262,0.141-0.52,0.287-0.774,0.437c-0.108,0.064-0.22,0.123-0.326,0.188C17.877,22.12,18.189,22.162,18.827,21.96z M51.848,36.926c-0.088-0.444-0.188-0.885-0.302-1.318c-0.021-0.083-0.048-0.163-0.069-0.244c-0.096-0.35-0.199-0.695-0.311-1.038c-0.044-0.133-0.09-0.267-0.137-0.398c-0.104-0.307-0.219-0.609-0.338-0.909c-0.045-0.117-0.09-0.235-0.139-0.353c-0.164-0.398-0.34-0.792-0.527-1.18c-0.037-0.079-0.08-0.154-0.118-0.232c-0.154-0.312-0.315-0.619-0.485-0.922c-0.074-0.135-0.15-0.267-0.229-0.398c-0.147-0.254-0.301-0.503-0.457-0.75c-0.082-0.127-0.16-0.254-0.243-0.379c-0.222-0.333-0.45-0.662-0.688-0.983c-0.061-0.079-0.121-0.156-0.183-0.235c-0.21-0.274-0.427-0.546-0.647-0.81c-0.104-0.126-0.213-0.248-0.32-0.371c-0.182-0.206-0.365-0.409-0.553-0.608c-0.115-0.121-0.229-0.242-0.345-0.36c-0.229-0.234-0.467-0.463-0.707-0.688c-0.1-0.092-0.198-0.186-0.299-0.275c-0.276-0.249-0.56-0.491-0.849-0.727c-0.131-0.105-0.266-0.208-0.397-0.313c-0.209-0.163-0.422-0.322-0.637-0.479c-0.144-0.104-0.286-0.206-0.431-0.307c-0.242-0.167-0.49-0.328-0.74-0.486c-0.114-0.071-0.227-0.148-0.342-0.219c-0.348-0.211-0.701-0.411-1.06-0.604c-0.149-0.08-0.302-0.154-0.453-0.232c-0.235-0.12-0.476-0.237-0.717-0.35c-0.166-0.077-0.332-0.153-0.5-0.226c-0.255-0.111-0.515-0.216-0.772-0.318c-0.117-0.045-0.231-0.093-0.351-0.137c-0.239,0.157-1.646,0.953-1.646,0.953s-1.446-0.25-1.842-0.25c-0.396,0-1.951-0.278-2.303-0.321c-0.354-0.044-1.653-0.22-2.042,0.176c-0.396,0.396-1.94,0.8-2.293,0.844c-0.35,0.045-1.078,0.233-0.204,1.312c-0.13,0.132-2.622,1.868-2.622,1.077c0-0.789,0.557-2.203-0.226-1.445c-0.561,0.543-1.452,0.22-0.969,0.834c0.483,0.616,0.072,0.445,0,0.583c-0.185,0.351-0.296,0.52-0.163,1.53c0.131,1.01-1.614,1.004-1.73,0.742c-0.312-0.7-1.053,0.35-1.229,0.615c-0.176,0.263-0.81,0.959-0.81,0.959l0.728,0.932l-2.126,1.864c0,0-2.957,2.052-3.001,2.315c-0.045,0.264-1.313,3.665-0.874,4.676c0.438,1.012,1.55,3.563,2.601,3.647c1.376,0.112,4.719-0.631,4.719-0.631c0.089,0.221,0.678,1.092,0.678,1.092s1.68,0.196,1.77,0.373c0.031,0.063-0.843,1.761-0.306,2.512c1.165,1.634,2.279,3.265,1.639,4.021c-1.529,2.296-0.065,2.994,0.306,4.195c0.133,0.353,0.568,1.457,1.238,2.594c0.67,1.951,1.1,1.078,1.981,1.397c1.082,0.095,1.994,0.494,2.916-0.69c0.267-0.219,0.722-0.043,0.722-0.352c0-0.172,0.786-0.677,0.987-1.146c0.214-0.099,0.761-0.469,1.132-0.646c0.337-0.021-0.321-0.924,0.35-1.879c0.722-0.283,2.666-1.594,2.666-1.594c0.087-1.923-0.946-4.298,0.983-5.66c1.244-1.267,2.877-1.989,3.669-3.922c0.219-0.57,0.709-1.739-0.697-1.389c-1.323,0.333-2.797,0.409-2.098-0.174c-0.079-0.714-0.962-1.05-1.748-1.749c-0.408-0.961-1.05-2.681-1.05-2.681l-1.397-2.125l0.175-0.438l1.66,2.448l1.661,2.01c0.61,2.01,1.136,2.185,1.136,2.185c0.922-0.323,3.104-1.223,3.104-1.223l2.142-2.055c0,0-0.219-0.654-1.091-1.485l-0.657-0.394c-0.144,0.402-0.903,0.554-0.903,0.554l-0.494-0.729l-0.655-0.742l-0.7-0.742l0.688-0.139l0.531,1.009l1.272,0.441c0,0,0.353-0.259,1.006,0.417c0.533-0.043,1.659,0.106,1.659,0.106s0.956-0.004,1.441,0.611c0.094,0.121,0.229,0.688,0.408,0.816c0.611,0.437,1.122,1.298,1.602,2.942c0.281,0.962,0.568,2.564,1.058,2.572c0.213,0.003,0.371,0.087,0.298-0.288c-0.086-0.176-0.218-2.021-0.218-2.021s0.218-2.05,0.351-2.884c0.334-0.709,0.387,0.001,1.18,1.354C51.854,36.97,51.852,36.947,51.848,36.926z M29.996,21.859c0.175-0.517,1.18-0.693,1.18-0.693s-0.289,0.532-0.223,0.809c0.068,0.277-0.459,0.454-0.519,1.106c-0.056,0.651-1.254,0.27-1.354,0.041C28.984,22.894,29.822,22.376,29.996,21.859z M34.307,30.655c-0.746,0-2.981,0.222-3.599-0.218c-0.614-0.438-1.087,0.044-1.531,0.483c-0.29,0.287-1.348-0.292-1.654-0.731c-0.308-0.439-1.34-0.407-1.34-0.407l0.233-1.253l-2.973-0.145l-1.689,0.494l-1.591,0.047l0.892-0.426l1.107-0.263c0,0,1.614-1.324,2.098-1.719c0.409-0.334,2.039-0.146,2.039-0.146l1.792,1.293c0,0-0.396,1.011-0.572,1.229c0.657-0.044,1.432-1.239,1.432-1.239c-1.398-1.282-1.341-1.719-1.341-1.719l1.842,1.291l0.017,0.013c0,0,0.741,1.756,1.048,1.756c0.309,0,0.699-1.21,0.699-1.21l0.525-0.131c0.232,0.554,0.67,1.807,1.193,1.515c0.301-0.167,0.799-0.016,1.369,0.204c0.572,0.219,0.963-0.117,1.428,0.291C35.675,31.472,34.615,30.743,34.307,30.655z M35.477,27.632c-0.771-0.293-1.74-0.174-1.74-0.174c-0.334,0.309-1.625-0.038-1.047-0.725c0.578-0.684,1.106-1.015,1.379-0.455c0.07,0.229,0.938,0.585,0.931,0.101c-0.007-0.485,0.867-0.742,0.996-0.382c-0.468,0.336,0.026,0.613,0.374,0.802C37.348,27.332,37.818,28.081,35.477,27.632z M40.367,29.108c-0.426-0.343,0.191-0.637-0.438-1.174c-0.9-0.771-1.602-1.103-0.373-1.727c1.508-0.189,0.242,0.481,0.494,0.885c0.133,0.216,0.898,0.934,1.493,1.815C42.04,29.642,40.791,29.45,40.367,29.108z M40.977,49.128l-1.455,1.456c0,0-0.877,0-0.92,0.352c-0.021,0.15-0.072,0.803-0.217,1.135c-0.292,0.203-0.642,0.875-0.642,0.875s-0.181,1.297,0.786,1.076c0.967-0.22,2.578-2.961,2.578-2.961S42.074,48.908,40.977,49.128z"/>
</svg>