<?xml version="1.0" encoding="UTF-8"?>
<!DOCTYPE svg PUBLIC "-//W3C//DTD SVG 1.1 Tiny//EN" "http://www.w3.org/Graphics/SVG/1.1/DTD/svg11-tiny.dtd">
<svg width="29" height="25" viewBox="0 0 29 25">
<path d="M21.596,5.18c-0.014-0.003-0.066-0.017-0.066-0.017s-0.041,0.219-0.077,0.414c-0.048,0.125-0.099,0.264-0.099,0.264 l0.605,0.156l0.379-0.533c0,0-0.131-0.054-0.229-0.095c0.002-0.008,0.014-0.054,0.014-0.054s-0.199-0.05-0.373-0.095 c-0.047-0.02-0.146-0.061-0.146-0.061S21.596,5.179,21.596,5.18z"/>
<linearGradient id="_46" gradientUnits="userSpaceOnUse" x1="14.61" y1="12.43" x2="20.16" y2="23.36">
<stop stop-color="#A2C2DD" offset="0.1"/>
<stop stop-color="#6C83BB" offset="0.71"/>
<stop stop-color="#003D6D" offset="0.99"/>
</linearGradient>
<path fill="url(#_46)" d="M10.491,1.14C9.784,1.257,9.177,1.716,8.755,2.361C8.55,2.393,6.517,2.706,6.517,2.706 l-2.636,13.71l15.525,7.24l2.877-1.94c0,0,0.092-1.675,0.124-2.271c0.633,0.175,2.938,0.809,2.938,0.809l0.141-0.042l1.502-0.944 L23.992,5.797c0,0-1.15-0.296-1.46-0.375c-0.062-0.541-0.294-1.05-0.742-1.442c-0.601-0.524-1.444-0.77-2.203-0.643 c-0.603,0.1-1.147,0.441-1.591,0.917c-0.028-0.007-0.03-0.008-0.061-0.015C17.87,3.7,17.637,3.193,17.188,2.805 C16.589,2.288,15.75,2.046,15,2.172c-0.599,0.099-1.14,0.435-1.582,0.902c-0.103-0.026-0.147-0.038-0.263-0.067 c-0.061-0.481-0.268-0.935-0.667-1.285C11.943,1.248,11.179,1.024,10.491,1.14z"/>
<path d="M12.146,3.4c-0.003,0.011-0.02,0.065-0.02,0.065l0.175,0.045l0.188-0.674l-0.158-0.047L12.33,2.794 c-0.008-0.002-0.029-0.007-0.029-0.007S12.17,3.302,12.146,3.4z"/>
<linearGradient id="_47" gradientUnits="userSpaceOnUse" x1="13.69" y1="4.13" x2="27.29" y2="19.7">
<stop stop-color="#FFFFFF" offset="0"/>
<stop stop-color="#A2C2DD" offset="0.35"/>
<stop stop-color="#6C83BB" offset="0.7"/>
<stop stop-color="#003D6D" offset="1"/>
</linearGradient>
<polygon fill="url(#_47)" points="25.299,19.879 22.788,6.648 19.051,18.163 "/>
<linearGradient id="_48" gradientUnits="userSpaceOnUse" x1="4.17" y1="22.26" x2="16.27" y2="9.93">
<stop stop-color="#FFFFFF" offset="0.15"/>
<stop stop-color="#A2C2DD" offset="1"/>
</linearGradient>
<polygon fill="url(#_48)" points="19.381,23.313 4.276,16.215 6.814,3.014 20.936,7.487 "/>
<linearGradient id="_49" gradientUnits="userSpaceOnUse" x1="14.4" y1="7.73" x2="15.78" y2="2.6">
<stop stop-color="#FFFFFF" offset="0.15"/>
<stop stop-color="#A2C2DD" offset="1"/>
</linearGradient>
<polygon fill="url(#_49)" points="23.697,6.083 9.922,2.536 6.814,3.014 20.964,7.692 "/>
<linearGradient id="_50" gradientUnits="userSpaceOnUse" x1="17.61" y1="13.75" x2="29.44" y2="16.42">
<stop stop-color="#FFFFFF" offset="0"/>
<stop stop-color="#A2C2DD" offset="0.35"/>
<stop stop-color="#6C83BB" offset="0.7"/>
<stop stop-color="#003D6D" offset="1"/>
</linearGradient>
<polygon fill="url(#_50)" points="19.423,23.205 21.941,21.523 22.711,7.382 25.299,19.917 26.592,19.104 23.697,6.083 20.802,7.626 "/>
<linearGradient id="_51" gradientUnits="userSpaceOnUse" x1="10.16" y1="17.67" x2="17.66" y2="8.2">
<stop stop-color="#E6EEF4" offset="0"/>
<stop stop-color="#2F8E9A" offset="0.44"/>
<stop stop-color="#003D6D" offset="0.94"/>
</linearGradient>
<polygon fill="url(#_51)" points="14.963,9.149 13.888,15.966 15.014,16.361 14.718,18.008 9.915,16.188 10.204,14.927 11.439,15.311 12.045,11.16 10.579,11.048 "/>
<path fill="#3F5AA6" d="M18.609,7.405c-0.076-0.018-0.146-0.045-0.229-0.047c-0.591-0.017-1.108,0.374-1.166,0.879 c-0.053,0.506,0.38,0.928,0.97,0.944c0.59,0.021,1.111-0.373,1.164-0.877c0.032-0.293-0.113-0.547-0.346-0.722 c0.078-0.753,0.604-1.999,2.501-2.088l0.685,0.205C21.533,4.286,18.395,4.606,18.609,7.405z"/>
<path fill="#3F5AA6" d="M9.647,4.573c-0.068-0.015-0.131-0.04-0.206-0.042C8.888,4.515,8.4,4.881,8.348,5.355 c-0.05,0.474,0.358,0.871,0.909,0.886c0.554,0.019,1.044-0.351,1.092-0.825c0.028-0.266-0.097-0.498-0.301-0.662 c0.144-0.666,0.674-1.559,2.183-1.63l0.608,0.182C12.278,2.097,9.653,2.317,9.647,4.573z"/>
<path fill="#3F5AA6" d="M14.095,6.14c-0.072-0.017-0.139-0.042-0.218-0.045c-0.561-0.016-1.053,0.355-1.106,0.834 c-0.05,0.48,0.361,0.882,0.92,0.897c0.562,0.021,1.056-0.354,1.106-0.833c0.03-0.279-0.108-0.52-0.329-0.686 c0.074-0.715,0.573-1.898,2.375-1.983l0.649,0.195C16.871,3.179,13.891,3.483,14.095,6.14z"/>
<linearGradient id="_52" gradientUnits="userSpaceOnUse" x1="14.17" y1="6.25" x2="16.8" y2="2.01">
<stop stop-color="#87A8CB" offset="0"/>
<stop stop-color="#CADCEC" offset="0.5"/>
<stop stop-color="#87A8CB" offset="1"/>
</linearGradient>
<path fill="url(#_52)" d="M17.466,4.505l0.181,0.048c0.047-1.31-1.354-2.243-2.59-2.036 c-1.573,0.261-2.785,2.13-1.951,4.297c0.138,0.31,0.763,0.446,1.172,0.005C13.463,3.605,16.771,3.122,17.466,4.505z"/>
<linearGradient id="_53" gradientUnits="userSpaceOnUse" x1="9.76" y1="4.81" x2="12.1" y2="1.03">
<stop stop-color="#87A8CB" offset="0"/>
<stop stop-color="#CADCEC" offset="0.5"/>
<stop stop-color="#87A8CB" offset="1"/>
</linearGradient>
<path fill="url(#_53)" d="M12.697,3.257l0.16,0.042C12.9,2.132,11.651,1.3,10.549,1.485 c-1.402,0.233-2.481,1.899-1.738,3.83C8.934,5.591,9.49,5.713,9.855,5.32C9.129,2.455,12.078,2.023,12.697,3.257z"/>
<linearGradient id="_54" gradientUnits="userSpaceOnUse" x1="18.76" y1="7.41" x2="21.39" y2="3.17">
<stop stop-color="#87A8CB" offset="0"/>
<stop stop-color="#CADCEC" offset="0.5"/>
<stop stop-color="#87A8CB" offset="1"/>
</linearGradient>
<path fill="url(#_54)" d="M22.055,5.67l0.18,0.048c0.052-1.31-1.354-2.243-2.59-2.036c-1.568,0.261-2.783,2.13-1.949,4.297 c0.141,0.31,0.766,0.446,1.175,0.005C18.052,4.77,21.359,4.287,22.055,5.67z"/>
</svg>