<?xml version="1.0" encoding="UTF-8" standalone="no"?>
<!DOCTYPE svg PUBLIC "-//W3C//DTD SVG 1.1 Tiny//EN" "http://www.w3.org/Graphics/SVG/1.1/DTD/svg11-tiny.dtd">
<svg xmlns="http://www.w3.org/2000/svg" xmlns:xlink="http://www.w3.org/1999/xlink" width="70" height="70" viewBox="-0.014 -0.011 70 70">
<rect fill="none" height="70" width="70" x="-0.014" y="-0.011"/>
<polygon fill="#FFFFFF" points="48.042,8.969 48.042,14.116 55.867,14.116 55.867,60.463 12.83,60.463 12.83,14.116 23.263,14.116 23.263,8.969 8.916,8.969 8.916,65.616 61.085,65.616 61.085,8.969 "/>
<polygon fill="#FFFFFF" points="25.873,33.428 18.048,33.428 35,55.315 51.957,33.428 42.826,33.428 42.826,24.419 25.873,24.419 "/>
<path fill-opacity="0.2" d="M61.085,8.969v56.647H8.916V8.969h14.347v5.147H12.83v46.348h43.037V14.116h-7.824V8.969H61.085 M62.085,7.969h-1H48.042 h-1v1v5.147v1h1h6.824v44.348H13.83V15.116h9.433h1v-1V8.969v-1h-1H8.916h-1v1v56.647v1h1h52.169h1v-1V8.969V7.969L62.085,7.969z"/>
<path fill-opacity="0.2" d="M42.826,24.419v9.009h9.131L35,55.315L18.048,33.428h7.825v-9.009H42.826 M43.826,23.419h-1H25.873h-1v1v8.009h-6.825 h-2.04l1.249,1.612l16.952,21.887L35,56.948l0.791-1.021L52.748,34.04l1.249-1.612h-2.04h-8.131v-8.009V23.419L43.826,23.419z"/>
</svg>