<?xml version="1.0" encoding="UTF-8" standalone="no"?>
<!DOCTYPE svg PUBLIC "-//W3C//DTD SVG 1.1 Tiny//EN" "http://www.w3.org/Graphics/SVG/1.1/DTD/svg11-tiny.dtd">
<svg width="28" height="15" viewBox="-7.519 -1.911 28 15">
<path d="M9.557,0.801v3.355L4.682,0v3.992L0,0v11.178l4.682-4.025L4.68,11.178l4.877-4.195v3.386h3.406V0.801H9.557z M5.365,9.691l0.002-4.027L0.686,9.691V1.486l4.682,3.992V1.486l4.789,4.086L5.365,9.691z M12.275,9.691h-2.034V1.486h2.034V9.691z" fill-opacity="0.3" />
<rect fill="#FFFFFF" fill-opacity="0.3" height="8.205" width="2.034" x="10.241" y="1.486"/>
<polygon fill="#FFFFFF" fill-opacity="0.3" points="5.367,5.479 0.686,1.486 0.686,9.691 5.367,5.664 5.365,9.691 10.156,5.572 5.367,1.486 " />
<rect fill="none" height="15" width="28" x="-7.519" y="-1.911"/>
</svg>