<?xml version="1.0" encoding="UTF-8"?>
<!DOCTYPE svg PUBLIC "-//W3C//DTD SVG 1.1 Tiny//EN" "http://www.w3.org/Graphics/SVG/1.1/DTD/svg11-tiny.dtd">
<svg width="60" height="80" viewBox="0 0 60 80">
<linearGradient id="_9" gradientUnits="userSpaceOnUse" x1="23.5" y1="41.45" x2="34.08" y2="62.3">
<stop stop-color="#A2C2DD" offset="0.1"/>
<stop stop-color="#6C83BB" offset="0.71"/>
<stop stop-color="#003D6D" offset="0.99"/>
</linearGradient>
<path fill="url(#_9)" d="M23.356,15.149L8.668,30.6l4.567,6.908c0,0,2.668-1.026,3.37-1.296 c0.022,0.959,0.668,28.554,0.668,28.554l6.918,2.395l0.247-0.208L27.449,64l-0.148-50.633L23.356,15.149z"/>
<linearGradient id="_10" gradientUnits="userSpaceOnUse" x1="33.43" y1="40.65" x2="44.14" y2="61.74">
<stop stop-color="#A2C2DD" offset="0.1"/>
<stop stop-color="#6C83BB" offset="0.71"/>
<stop stop-color="#003D6D" offset="0.99"/>
</linearGradient>
<path fill="url(#_10)" d="M28.871,16.486l0.181,52.752l4.101-2.536l15.793-14.956l-5.104-6.947c0,0-4.146,1.605-4.161,1.613 c0.012-1.587,0.164-30.347,0.164-30.347l-7.609-1.47L28.871,16.486z"/>
<linearGradient id="_11" gradientUnits="userSpaceOnUse" x1="6.23" y1="28.31" x2="13.57" y2="33.64">
<stop stop-color="#FFFFFF" offset="0"/>
<stop stop-color="#A2C2DD" offset="0.35"/>
<stop stop-color="#6C83BB" offset="0.7"/>
<stop stop-color="#003D6D" offset="1"/>
</linearGradient>
<path fill="url(#_11)" d="M16.893,33.564c0,0,3.007,0.949,2.915,1.043l-6.436,2.472 C13.465,36.988,15.237,35.218,16.893,33.564"/>
<linearGradient id="_12" gradientUnits="userSpaceOnUse" x1="25.33" y1="10.33" x2="25.33" y2="58.5">
<stop stop-color="#E6EEF4" offset="0"/>
<stop stop-color="#9646AC" offset="0.44"/>
<stop stop-color="#3D013F" offset="0.94"/>
</linearGradient>
<polygon fill="url(#_12)" points="23.563,15.439 26.952,13.905 27.098,63.85 24.102,66.786 "/>
<linearGradient id="_13" gradientUnits="userSpaceOnUse" x1="16.65" y1="10.75" x2="16.65" y2="81.75">
<stop stop-color="#DEDEED" offset="0"/>
<stop stop-color="#9646AC" offset="1"/>
</linearGradient>
<path fill="url(#_13)" d="M23.563,15.439l0.631,51.347l-6.576-2.272l-0.725-30.95c0,0-3.428,3.424-3.521,3.516l-4.258-6.441 L23.563,15.439z"/>
<linearGradient id="_14" gradientUnits="userSpaceOnUse" x1="37.86" y1="11.17" x2="37.86" y2="44.33">
<stop stop-color="#E6EEF4" offset="0"/>
<stop stop-color="#9646AC" offset="0.44"/>
<stop stop-color="#3D013F" offset="0.94"/>
</linearGradient>
<polygon fill="url(#_14)" points="39.486,16.354 39.309,49.284 36.307,50.27 36.238,18.281 "/>
<polygon fill="#D7CEE6" points="39.846,46.721 43.713,45.223 48.479,51.704 44.643,53.443 "/>
<linearGradient id="_15" gradientUnits="userSpaceOnUse" x1="58.88" y1="40.21" x2="37.3" y2="61.8">
<stop stop-color="#E6EEF4" offset="0"/>
<stop stop-color="#9646AC" offset="0.44"/>
<stop stop-color="#3D013F" offset="0.94"/>
</linearGradient>
<polygon fill="url(#_15)" points="44.643,53.443 48.479,51.704 32.968,66.404 29.399,68.611 "/>
<linearGradient id="_16" gradientUnits="userSpaceOnUse" x1="36.93" y1="11.63" x2="36.93" y2="60.75">
<stop stop-color="#DEDEED" offset="0"/>
<stop stop-color="#9646AC" offset="1"/>
</linearGradient>
<polygon fill="url(#_16)" points="36.26,18.237 36.307,50.27 39.846,46.721 44.643,53.443 29.399,68.611 29.221,16.69 "/>
<polygon fill="#D7CEE6" points="29.221,16.69 32.285,14.964 39.404,16.356 36.26,18.237 "/>
</svg>