<?xml version="1.0" encoding="UTF-8"?>
<!DOCTYPE svg PUBLIC "-//W3C//DTD SVG 1.1 Tiny//EN" "http://www.w3.org/Graphics/SVG/1.1/DTD/svg11-tiny.dtd">
<svg width="100%" height="100%" viewBox="0 0 88 88">
<linearGradient id="_5" gradientUnits="userSpaceOnUse" x1="39.96" y1="55.86" x2="35.68" y2="73.17">
<stop stop-color="#A2C2DD" offset="0.1"/>
<stop stop-color="#6C83BB" offset="0.71"/>
<stop stop-color="#003D6D" offset="0.99"/>
</linearGradient>
<path fill="url(#_5)" d="M47.39,13.199c6.21,4.093,8.463,7.697,9.291,9.603c-17.509-8.778-42.611,1.805-46.757,17.801 c-2.63,10.164,2.291,22.719,12.378,29.411c15.766,10.46,42.527,2.597,50.189-12.007c6.938-13.226,4.176-42.211-24.624-46.086 C47.116,11.82,46.787,12.803,47.39,13.199z"/>
<linearGradient id="_6" gradientUnits="userSpaceOnUse" x1="78.74" y1="47.37" x2="13.52" y2="64.36">
<stop stop-color="#FFFFFF" offset="0"/>
<stop stop-color="#A2C2DD" offset="0.53"/>
<stop stop-color="#6C83BB" offset="0.87"/>
<stop stop-color="#003D6D" offset="1"/>
</linearGradient>
<path fill="url(#_6)" d="M10.065,47.771C9.746,57.024,21.235,81.49,52.589,72.01 c32.473-9.821,19.955-40.893,19.955-40.893L10.065,47.771z"/>
<linearGradient id="_7" gradientUnits="userSpaceOnUse" x1="15.75" y1="87.45" x2="49.72" y2="28.34">
<stop stop-color="#FFFFFF" offset="0.1"/>
<stop stop-color="#D1E1EE" offset="0.7"/>
<stop stop-color="#A2C2DD" offset="1"/>
</linearGradient>
<path fill="url(#_7)" d="M57.866,24.161c-16.104-9.485-42.871-0.336-47.265,16.618 C6.211,57.733,21.811,65.017,32.75,65.941c15.391,1.302,33.898-4.635,39.455-20.586c6.008-17.243-8.192-30.577-24.431-32.741 C57.296,18.89,57.866,24.161,57.866,24.161z"/>
<linearGradient id="_8" gradientUnits="userSpaceOnUse" x1="16.22" y1="48.89" x2="75.42" y2="34.53">
<stop stop-color="#E6EEF4" offset="0"/>
<stop stop-color="#C03A3A" offset="0.44"/>
<stop stop-color="#302D02" offset="0.94"/>
</linearGradient>
<path fill="url(#_8)" d="M55.813,39.607c-6.615-2.179-14.617,2.928-13.87,8.306l-7.231-2.381 c7.463-3.146,7.572-10.378,1.399-12.41c-4.32-1.421-9.987,0.328-12.626,3.898c-2.615,3.543-1.276,7.561,2.969,9.014 l-0.009,0.013l19.703,6.482l0.005-0.009c0.03,0.011,0.055,0.027,0.089,0.041c4.326,1.422,10.011-0.35,12.67-3.949 C61.905,44.555,59.528,40.83,55.813,39.607z M26.633,38.06c1.578-2.142,4.974-3.189,7.559-2.338 c2.595,0.854,3.411,3.287,1.832,5.428c-1.579,2.133-4.966,3.179-7.561,2.326C25.876,42.624,25.054,40.192,26.633,38.06z M48.165,49.96c-2.591-0.855-3.395-3.309-1.794-5.475c1.555-2.109,4.931-3.133,7.522-2.279c1.932,0.633,3.763,2.807,1.869,5.371 C54.164,49.744,50.753,50.811,48.165,49.96z"/>
</svg>