<?xml version="1.0" encoding="UTF-8"?>
<!DOCTYPE svg PUBLIC "-//W3C//DTD SVG 1.1 Tiny//EN" "http://www.w3.org/Graphics/SVG/1.1/DTD/svg11-tiny.dtd">
<svg width="84" height="72" viewBox="0 0 84 72">
<linearGradient id="_19" gradientUnits="userSpaceOnUse" x1="48.86" y1="29.68" x2="60.86" y2="53.31">
<stop stop-color="#A2C2DD" offset="0.1"/>
<stop stop-color="#6C83BB" offset="0.71"/>
<stop stop-color="#003D6D" offset="0.99"/>
</linearGradient>
<path fill="url(#_19)" d="M55.347,10.407c-5.126,4.168-8.853,8.651-11.882,12.325l-26.207-6.205l-2.388,0.512l1.621,22.326 l23.133,8.071l-0.063,0.79l-3.101,1.258l-4.591,6.003l0.479,5.302l1.271,2.981l1.854,1.639l6.683-2.781l13.538-18.002 l2.608,0.242c0,0,1.914-1.631,2.334-1.989c2.336,0.837,7.469,1.873,7.469,1.873c3.047-2.869,10.838-10.65,12.694-19.938 l-0.399-6.45C75.811,13.527,66.379,9.888,55.347,10.407z M66.896,19.531c-1.208,1.708-4.23,2.672-6.234,1.938 C61.746,19.938,64.746,18.692,66.896,19.531z"/>
<linearGradient id="_20" gradientUnits="userSpaceOnUse" x1="60.08" y1="29.37" x2="50.97" y2="40.24">
<stop stop-color="#FFFFFF" offset="0"/>
<stop stop-color="#496DA2" offset="0.71"/>
<stop stop-color="#235487" offset="0.99"/>
</linearGradient>
<path fill="url(#_20)" d="M67.623,38.055l-26.848-9.649l1.508,3.889c2.48,2.704,11.328,8.935,25.619,11.753L67.623,38.055 z"/>
<linearGradient id="_21" gradientUnits="userSpaceOnUse" x1="71.28" y1="29.36" x2="78.66" y2="35.09">
<stop stop-color="#DEE9F3" offset="0"/>
<stop stop-color="#235487" offset="1"/>
</linearGradient>
<path fill="url(#_21)" d="M67.514,38.055l0.389,5.992c7.224-6.838,11.076-13.444,12.258-19.36l-0.396-6.048L67.514,38.055 z"/>
<linearGradient id="_22" gradientUnits="userSpaceOnUse" x1="75.2" y1="40.58" x2="50.92" y2="12.84">
<stop stop-color="#FFFFFF" offset="0.05"/>
<stop stop-color="#A2C2DD" offset="1"/>
</linearGradient>
<path fill="url(#_22)" d="M67.514,38.055c-5.949-0.048-23.781-6.503-26.738-9.649 c0.105-2.576,10.342-13.939,14.807-17.357c9.339-0.481,19.447,2.518,24.183,7.591C79.93,19.952,73.412,34.311,67.514,38.055z M67.865,19.154l-5.678-3.059l-2.475,5.677C62.215,23.346,66.818,21.81,67.865,19.154z"/>
<linearGradient id="_23" gradientUnits="userSpaceOnUse" x1="56.9" y1="20.75" x2="66.7" y2="16.95">
<stop stop-color="#D6E6EC" offset="0"/>
<stop stop-color="#298595" offset="1"/>
</linearGradient>
<path fill="url(#_23)" d="M67.82,19.228c0.973-2.17-1.687-4.451-5.413-3.304c-4.249,1.308-4.735,4.585-2.694,5.82 C60.898,19.085,65.432,17.669,67.82,19.228z"/>
<linearGradient id="_24" gradientUnits="userSpaceOnUse" x1="6.76" y1="28.34" x2="19.8" y2="22.98">
<stop stop-color="#FFFFFF" offset="0"/>
<stop stop-color="#A2C2DD" offset="0.35"/>
<stop stop-color="#6C83BB" offset="0.7"/>
<stop stop-color="#003D6D" offset="1"/>
</linearGradient>
<polygon fill="url(#_24)" points="17.276,26.214 6.021,22.729 8.34,27.068 17.525,29.827 "/>
<polygon fill="url(#_24)" points="10.241,30.626 17.77,33.374 17.622,31.225 9.212,28.7 "/>
<polygon fill="url(#_24)" points="16.788,19.124 1.779,14.792 5.141,21.085 17.178,24.796 "/>
<linearGradient id="_27" gradientUnits="userSpaceOnUse" x1="13.19" y1="12.45" x2="60.94" y2="66.71">
<stop stop-color="#E6EEF4" offset="0"/>
<stop stop-color="#337CE5" offset="0.44"/>
<stop stop-color="#003D6D" offset="0.94"/>
</linearGradient>
<polygon fill="url(#_27)" points="43.334,24.715 27.338,36.788 15.562,17.558 17.111,38.891 43.086,47.954 "/>
<linearGradient id="_28" gradientUnits="userSpaceOnUse" x1="10.22" y1="24.23" x2="30.71" y2="45.42">
<stop stop-color="#E6EEF4" offset="0"/>
<stop stop-color="#337CE5" offset="0.44"/>
<stop stop-color="#003D6D" offset="0.94"/>
</linearGradient>
<polygon fill="url(#_28)" points="17.21,38.79 25.475,32.674 26.275,33.975 "/>
<polygon fill="url(#_28)" points="42.884,47.889 32.813,33.551 31.615,34.647 "/>
<polygon fill="url(#_28)" points="15.614,17.73 27.373,38.165 43.322,25.568 43.039,47.943 44.391,46.65 45.447,23.872 "/>
<linearGradient id="_31" gradientUnits="userSpaceOnUse" x1="19.32" y1="26.69" x2="35.16" y2="24.59">
<stop stop-color="#D6E4F3" offset="0"/>
<stop stop-color="#337CE5" offset="1"/>
</linearGradient>
<polygon fill="url(#_31)" points="15.569,17.553 26.874,35.323 43.428,24.721 "/>
<polygon fill="#CEDFF2" points="45.447,23.872 17.251,17.195 15.569,17.553 43.428,24.721 "/>
<linearGradient id="_32" gradientUnits="userSpaceOnUse" x1="46.97" y1="64.21" x2="48.57" y2="42">
<stop stop-color="#FFFFFF" offset="0.05"/>
<stop stop-color="#A2C2DD" offset="1"/>
</linearGradient>
<path fill="url(#_32)" d="M45.466,36.341l2.063,2.136L34.871,61.888l6.615-2.957l13.875-15.423l5.757-5.378 c-4.753-1.214-10.675-3.313-15.04-5.302L45.466,36.341z"/>
<linearGradient id="_33" gradientUnits="userSpaceOnUse" x1="27.28" y1="72.26" x2="62.28" y2="13.65">
<stop stop-color="#FFFFFF" offset="0"/>
<stop stop-color="#A2C2DD" offset="0.35"/>
<stop stop-color="#6C83BB" offset="0.7"/>
<stop stop-color="#003D6D" offset="1"/>
</linearGradient>
<polygon fill="url(#_33)" points="51.154,40.044 47.528,38.477 45.258,41.047 42.699,42.018 40.474,45.029 40.18,48.681 36.871,50.021 32.543,55.682 32.989,60.628 34.871,61.888 "/>
<linearGradient id="_34" gradientUnits="userSpaceOnUse" x1="42.75" y1="47.31" x2="51.55" y2="53.71">
<stop stop-color="#FFFFFF" offset="0"/>
<stop stop-color="#A2C2DD" offset="0.35"/>
<stop stop-color="#6C83BB" offset="0.7"/>
<stop stop-color="#003D6D" offset="1"/>
</linearGradient>
<polygon fill="url(#_34)" points="61.118,38.13 60.842,41.443 58.089,44.192 55.393,43.942 41.741,62.094 35.601,64.65 34.162,63.38 32.989,60.628 34.871,61.888 41.486,58.931 55.137,40.877 58.087,40.908 "/>
<polygon fill="#496DA2" points="58.089,44.192 58.087,40.908 61.118,38.13 61.139,41.596 "/>
<linearGradient id="_35" gradientUnits="userSpaceOnUse" x1="40.72" y1="41.28" x2="53.12" y2="57.68">
<stop stop-color="#DEE9F3" offset="0"/>
<stop stop-color="#235487" offset="1"/>
</linearGradient>
<polygon fill="url(#_35)" points="55.137,40.877 55.393,43.942 41.741,62.094 41.486,58.931 "/>
<linearGradient id="_36" gradientUnits="userSpaceOnUse" x1="50.18" y1="29.45" x2="38.53" y2="41.56">
<stop stop-color="#E6EEF4" offset="0"/>
<stop stop-color="#C03A3A" offset="0.44"/>
<stop stop-color="#302D02" offset="0.94"/>
</linearGradient>
<polygon fill="url(#_36)" points="13.397,8.391 71.588,66.358 75.335,62.597 17.146,4.629 "/>
</svg>