<?xml version="1.0" encoding="UTF-8"?>
<!DOCTYPE svg PUBLIC "-//W3C//DTD SVG 1.1 Tiny//EN" "http://www.w3.org/Graphics/SVG/1.1/DTD/svg11-tiny.dtd">
<svg baseProfile="tiny" height="32px" version="1.1" viewBox="0 0 32 32" width="32px" x="0px" xmlns="http://www.w3.org/2000/svg" xmlns:xlink="http://www.w3.org/1999/xlink" y="0px">
<rect fill="none" height="32" width="32"/>
<path d="M12.372,27.288c-1.427,0-2.576-0.365-3.446-1.098c-0.87-0.73-1.306-1.698-1.306-2.9  c0-1.311,0.419-2.331,1.259-3.063c0.839-0.731,1.963-1.098,3.372-1.098c1.813,0,3.365,0.588,4.658,1.764  c1.292,1.176,1.938,1.947,1.938,2.315s-0.584,1.14-1.75,2.315C15.93,26.7,14.355,27.288,12.372,27.288z M12.708,21.594  c0-0.27-0.18-0.503-0.539-0.7c-0.358-0.197-0.776-0.296-1.252-0.296c-0.484,0-0.901,0.099-1.252,0.296  c-0.35,0.197-0.524,0.431-0.524,0.7s0.179,0.5,0.538,0.693c0.359,0.192,0.771,0.289,1.238,0.289s0.882-0.094,1.245-0.282  C12.527,22.105,12.708,21.872,12.708,21.594z M24.38,24.058l-1.414,1.399l-12.789-12.79l1.4-1.413L24.38,24.058z M23.827,16.101  h-1.668c0-1.606-0.344-2.801-1.031-3.581c-0.686-0.781-1.357-1.333-2.012-1.656h-0.121V16.8l-1.75-1.763V4.711h1.549  c0.205,0.808,0.771,1.629,1.695,2.464c1.428,1.302,2.34,2.405,2.74,3.312c0.398,0.906,0.598,2.222,0.598,3.944V16.101z" fill="#FFFFFF"/>
</svg>
