<?xml version="1.0" encoding="UTF-8"?>
<!DOCTYPE svg PUBLIC "-//W3C//DTD SVG 1.1 Tiny//EN" "http://www.w3.org/Graphics/SVG/1.1/DTD/svg11-tiny.dtd">
<svg width="50" height="50" viewBox="0 0 50 50">
<path fill-opacity="0.01" d="M1.547,24.168c0,12.472,10.148,22.618,22.62,22.618c12.474,0,22.619-10.146,22.619-22.618 c0-12.473-10.146-22.62-22.619-22.62C11.696,1.548,1.547,11.695,1.547,24.168z"/>
<path fill-opacity="0.02" d="M2.535,24.168c0,11.927,9.704,21.631,21.632,21.631c11.93,0,21.634-9.704,21.634-21.631 c0-11.928-9.704-21.63-21.634-21.63C12.238,2.538,2.535,12.24,2.535,24.168z"/>
<path fill-opacity="0.04" d="M3.52,24.168c0,11.382,9.264,20.644,20.647,20.644c11.386,0,20.645-9.262,20.645-20.644 c0-11.387-9.259-20.644-20.645-20.644C12.784,3.524,3.52,12.781,3.52,24.168z"/>
<path fill-opacity="0.07" d="M4.354,24.168c0,10.924,8.887,19.808,19.813,19.808c10.922,0,19.81-8.884,19.81-19.808 c0-10.924-8.887-19.812-19.81-19.812C13.241,4.356,4.354,13.244,4.354,24.168z"/>
<path fill-opacity="0.11" d="M5.188,24.168c0,10.463,8.513,18.975,18.979,18.975c10.464,0,18.976-8.512,18.976-18.975 c0-10.465-8.511-18.978-18.976-18.978C13.701,5.19,5.188,13.703,5.188,24.168z"/>
<path fill-opacity="0.13" d="M6.022,24.168c0,10.003,8.138,18.142,18.145,18.142c10.005,0,18.144-8.139,18.144-18.142 c0-10.005-8.139-18.144-18.144-18.144C14.16,6.024,6.022,14.163,6.022,24.168z"/>
<linearGradient id="_6" gradientUnits="userSpaceOnUse" x1="34.5" y1="41.72" x2="16.24" y2="9.58">
<stop stop-color="#8CC2EA" offset="0"/>
<stop stop-color="#5AA7E0" offset="1"/>
</linearGradient>
<path fill="url(#_6)" d="M43.672,25.001c0,10.311-8.359,18.667-18.672,18.667c-10.314,0-18.668-8.355-18.668-18.667 C6.332,14.69,14.686,6.33,25,6.33C35.313,6.33,43.672,14.69,43.672,25.001z"/>
<linearGradient id="_7" gradientUnits="userSpaceOnUse" x1="25" y1="42.23" x2="25" y2="3.11">
<stop stop-color="#8CC2EA" offset="0"/>
<stop stop-color="#74A9E2" offset="0.15"/>
<stop stop-color="#588CD8" offset="0.37"/>
<stop stop-color="#4377D2" offset="0.59"/>
<stop stop-color="#376ACD" offset="0.8"/>
<stop stop-color="#3366CC" offset="1"/>
</linearGradient>
<path fill="url(#_7)" d="M25,7.555c-9.621,0-17.447,7.826-17.447,17.447c0,9.618,7.826,17.444,17.447,17.444 c9.622,0,17.449-7.826,17.449-17.444C42.449,15.381,34.622,7.555,25,7.555z M25,40.968c-9.112,0-15.968-6.855-15.968-15.967 C9.032,15.891,15.888,9.03,25,9.03c9.113,0,15.97,6.86,15.97,15.971C40.97,34.113,34.113,40.968,25,40.968z"/>
<linearGradient id="_8" gradientUnits="userSpaceOnUse" x1="25" y1="47.62" x2="25" y2="6.53">
<stop stop-color="#8CC2EA" offset="0"/>
<stop stop-color="#4583D0" offset="0.52"/>
<stop stop-color="#0046B7" offset="1"/>
</linearGradient>
<path fill="url(#_8)" d="M25,6.441c-10.237,0-18.562,8.328-18.562,18.561c0,10.232,8.325,18.558,18.562,18.558 c10.235,0,18.563-8.325,18.563-18.558C43.563,14.769,35.235,6.441,25,6.441z M25,41.989c-9.694,0-16.988-7.295-16.988-16.988 S15.306,8.009,25,8.009s16.991,7.3,16.991,16.992S34.694,41.989,25,41.989z"/>
<linearGradient id="_9" gradientUnits="userSpaceOnUse" x1="25" y1="25" x2="25" y2="5.26">
<stop stop-color="#3366CC" offset="0"/>
<stop stop-color="#1D58C3" offset="0.32"/>
<stop stop-color="#084BBA" offset="0.73"/>
<stop stop-color="#0046B7" offset="1"/>
</linearGradient>
<path fill="url(#_9)" d="M44.747,24.999C44.747,14.112,35.89,5.256,25,5.256c-10.887,0-19.747,8.856-19.747,19.743h1.911 C7.164,14.69,14.686,7.163,25,7.163c10.313,0,17.837,7.527,17.837,17.836H44.747z"/>
<linearGradient id="_10" gradientUnits="userSpaceOnUse" x1="25" y1="44.4" x2="25" y2="26.19">
<stop stop-color="#8CC2EA" offset="0"/>
<stop stop-color="#3366CC" offset="1"/>
</linearGradient>
<path fill="url(#_10)" d="M42.837,24.999c0,10.312-7.524,17.839-17.837,17.839c-10.314,0-17.836-7.527-17.836-17.839 H5.253c0,10.888,8.859,19.746,19.747,19.746c10.89,0,19.747-8.858,19.747-19.746H42.837z"/>
<polygon fill="#0046B7" points="25.555,18.085 25.555,34.122 36.474,26.089 "/>
<rect x="18.315" y="18.091" fill="#0046B7" width="4.092" height="16.029"/>
</svg>