<?xml version="1.0" encoding="UTF-8"?>
<!DOCTYPE svg PUBLIC "-//W3C//DTD SVG 1.1 Tiny//EN" "http://www.w3.org/Graphics/SVG/1.1/DTD/svg11-tiny.dtd">
<svg baseProfile="tiny" height="69.048" version="1.1" viewBox="0 0 100 69.048" width="100" xmlns="http://www.w3.org/2000/svg" xmlns:xlink="http://www.w3.org/1999/xlink">
<g>
<g>
<linearGradient gradientUnits="userSpaceOnUse" id="XMLID_11_" x1="16.0581" x2="66.683" y1="-14.4482" y2="68.6765">
<stop offset="0" style="stop-color:#FFFFFF"/>
<stop offset="0.1142" style="stop-color:#E0EAF3"/>
<stop offset="0.35" style="stop-color:#A2C2DD"/>
<stop offset="0.4825" style="stop-color:#8CA9CF"/>
<stop offset="0.7" style="stop-color:#6C83BB"/>
<stop offset="0.7458" style="stop-color:#637DB5"/>
<stop offset="0.8189" style="stop-color:#4C6EA4"/>
<stop offset="0.9097" style="stop-color:#265689"/>
<stop offset="0.9888" style="stop-color:#003D6D"/>
<stop offset="1" style="stop-color:#003D6D"/>
</linearGradient>
<path d="M84.106,56.133l-0.367-11.379l-0.213-0.067c0,0-4.934-0.431-5.496-0.48    c-0.008-0.547-0.066-4.256-0.066-4.261c0-0.132-0.023-1.35-0.857-2.653c-0.871-1.363-2.449-3.248-6.066-3.874    c-2.558-0.446-4.833,0.45-6.061,1.081c0.021-1.004,0.144-6.906,0.144-6.919c0-2.285-2.255-3.805-4.39-4.08    c0,0-0.632-0.107-0.982-0.167c0.012-0.568,0.205-9.907,0.205-9.92c0-2.285-2.255-3.805-4.39-4.08L19.438,3.197    c-1.315-0.125-2.574,0.512-3.873,1.945c-0.414,0.338-0.659,0.817-0.659,1.319c0,0.012,0,0.023,0,0.035l1.502,25.364    c0.035,1.255,1.498,2.684,3.129,3.048c0,0,1.037,0.248,1.399,0.334c0.029,0.494,0.639,10.785,0.639,10.785    c0.035,1.255,1.498,2.684,3.129,3.048c0,0,31.715,7.575,32.132,7.675c0.452,2.657,2.996,5.376,5.298,5.576l12.223,1.068    c0.732,0.064,1.502-0.102,2.225-0.481l4.713-1.935C84.336,59.165,84.129,56.369,84.106,56.133z M73.87,43.843    c-0.666-0.059-7.712-0.674-8.274-0.723c-0.007-0.551-0.05-4.309-0.05-4.309c0.013,0.013,0.566-2.144,3.318-2.03    c3.25,0.144,4.473,2.227,4.77,2.861c0.063,0.133,0.244,0.747,0.244,3.367C73.877,43.26,73.874,43.555,73.87,43.843z" fill="url(#XMLID_11_)"/>
</g>
<g>
<g>
<linearGradient gradientTransform="matrix(1 0 0 -1 264.5 500.3555)" gradientUnits="userSpaceOnUse" id="XMLID_12_" x1="-238.9126" x2="-206.1749" y1="490.9746" y2="451.1208">
<stop offset="0" style="stop-color:#FFFFFF"/>
<stop offset="1" style="stop-color:#A2C2DD"/>
</linearGradient>
<path d="M56.079,41.2c0.027,1.115-1.076,1.816-2.549,1.488l-33.891-8.095     c-1.473-0.328-2.824-1.609-2.855-2.727L15.282,6.516c-0.025-1.111,1.473-1.943,2.943-1.615l35.61,6.264     c1.471,0.328,2.689,1.686,2.717,2.797L56.079,41.2z" fill="url(#XMLID_12_)"/>
<linearGradient gradientTransform="matrix(1 0 0 -1 264.5 500.3555)" gradientUnits="userSpaceOnUse" id="XMLID_13_" x1="-226.8682" x2="-226.8682" y1="498.1328" y2="457.0697">
<stop offset="0" style="stop-color:#FFFFFF"/>
<stop offset="0.1142" style="stop-color:#E0EAF3"/>
<stop offset="0.35" style="stop-color:#A2C2DD"/>
<stop offset="0.4825" style="stop-color:#8CA9CF"/>
<stop offset="0.7" style="stop-color:#6C83BB"/>
<stop offset="0.7458" style="stop-color:#637DB5"/>
<stop offset="0.8189" style="stop-color:#4C6EA4"/>
<stop offset="0.9097" style="stop-color:#265689"/>
<stop offset="0.9888" style="stop-color:#003D6D"/>
<stop offset="1" style="stop-color:#003D6D"/>
</linearGradient>
<path d="M15.633,5.645c1.066-1.248,2.34-2.209,3.771-2.074l36.141,6.139     c2.111,0.271,4.107,1.748,4.084,3.766l-0.551,26.522c-0.104,2.318-3.529,3.039-5.182,2.779c0,0,2.191,0.309,2.16-1.74     l0.482-26.972c-0.029-1.328-1.189-2.592-2.877-2.91L18.055,4.871C16.317,4.695,15.633,5.645,15.633,5.645z" fill="url(#XMLID_13_)"/>
</g>
<polygon fill="#115B7E" points="15.832,9.644 16.04,14.607 56.019,22.085 56.245,16.754   "/>
</g>
<g>
<g>
<linearGradient gradientTransform="matrix(1 0 0 -1 264.5 500.3555)" gradientUnits="userSpaceOnUse" id="XMLID_14_" x1="-233.7456" x2="-201.0081" y1="476.8076" y2="436.954">
<stop offset="0" style="stop-color:#FFFFFF"/>
<stop offset="1" style="stop-color:#A2C2DD"/>
</linearGradient>
<path d="M61.246,55.367c0.027,1.115-1.076,1.816-2.549,1.488l-33.891-8.095     c-1.473-0.328-2.824-1.609-2.855-2.727l-1.502-25.352c-0.025-1.111,1.473-1.943,2.943-1.615l35.609,6.264     c1.471,0.328,2.689,1.686,2.717,2.797L61.246,55.367z" fill="url(#XMLID_14_)"/>
<linearGradient gradientTransform="matrix(1 0 0 -1 264.5 500.3555)" gradientUnits="userSpaceOnUse" id="XMLID_15_" x1="-221.7017" x2="-221.7017" y1="483.9658" y2="442.9027">
<stop offset="0" style="stop-color:#FFFFFF"/>
<stop offset="0.1142" style="stop-color:#E0EAF3"/>
<stop offset="0.35" style="stop-color:#A2C2DD"/>
<stop offset="0.4825" style="stop-color:#8CA9CF"/>
<stop offset="0.7" style="stop-color:#6C83BB"/>
<stop offset="0.7458" style="stop-color:#637DB5"/>
<stop offset="0.8189" style="stop-color:#4C6EA4"/>
<stop offset="0.9097" style="stop-color:#265689"/>
<stop offset="0.9888" style="stop-color:#003D6D"/>
<stop offset="1" style="stop-color:#003D6D"/>
</linearGradient>
<path d="M20.8,19.812c1.066-1.248,2.34-2.209,3.771-2.074l36.141,6.139     c2.111,0.271,4.107,1.748,4.084,3.766l-0.551,26.522c-0.104,2.318-3.529,3.039-5.182,2.779c0,0,2.191,0.309,2.16-1.74     l0.482-26.972c-0.029-1.328-1.189-2.592-2.877-2.91l-35.607-6.283C21.484,18.862,20.8,19.812,20.8,19.812z" fill="url(#XMLID_15_)"/>
</g>
<polygon fill="#115B7E" points="20.999,23.811 21.207,28.774 61.185,37.189 61.412,31.858   "/>
<polygon fill="#115B7E" points="54.486,45.179 59.837,42.397 54.606,38.386   "/>
</g>
<g>
<linearGradient gradientTransform="matrix(1.1905 0 0 1.1905 44.7322 -811.593)" gradientUnits="userSpaceOnUse" id="XMLID_16_" x1="10.6436" x2="36.0986" y1="717.8535" y2="722.0266">
<stop offset="0" style="stop-color:#E2E6E4"/>
<stop offset="1" style="stop-color:#A3740A"/>
</linearGradient>
<polygon fill="url(#XMLID_16_)" points="56.758,45.136 61.52,43.142 83.52,45.063 78.758,47.062   "/>
<path d="M69.192,54.083c0,0,0.883-0.342,1.199-1.828c0.203-0.459,0.117-3.482-2.856-3.742    c-1.107-0.098-2.342,1.115-2.342,2.598c0,1.713,1.396,2.713,1.396,2.713l0.166,4.484l2.565,0.225L69.192,54.083z" fill="#6D5607"/>
<linearGradient gradientTransform="matrix(1.1905 0 0 1.1905 44.7322 -811.593)" gradientUnits="userSpaceOnUse" id="XMLID_17_" x1="28.0957" x2="30.5305" y1="710.583" y2="737.7787">
<stop offset="0" style="stop-color:#E6EEF4"/>
<stop offset="0.4438" style="stop-color:#A3740A"/>
<stop offset="0.9382" style="stop-color:#474105"/>
<stop offset="1" style="stop-color:#474105"/>
</linearGradient>
<path d="M83.422,45.077l-4.689,1.99l0.355,11.008c0,0,0.332,2.83-2.66,4.566l4.76-1.959    c2.902-1.736,2.594-4.502,2.594-4.502L83.422,45.077z" fill="url(#XMLID_17_)"/>
<path d="M64.906,43.815c1.22,0.217,1.611,0.689,0.867,1.061s-2.334,0.492-3.562,0.273    c-1.223-0.217-1.612-0.688-0.868-1.059C62.086,43.724,63.682,43.601,64.906,43.815z" fill="#3366CC"/>
<linearGradient gradientTransform="matrix(1.1905 0 0 1.1905 44.7322 -811.593)" gradientUnits="userSpaceOnUse" id="XMLID_18_" x1="10.3193" x2="25.6218" y1="713.3555" y2="734.014">
<stop offset="0" style="stop-color:#E2E6E4"/>
<stop offset="1" style="stop-color:#A3740A"/>
</linearGradient>
<path d="M56.758,45.136l22,1.926c0.014,0.412,0.273,8.221,0.361,10.963    c0.09,2.736-2.262,5.264-4.707,5.049l-12.223-1.068c-2.291-0.199-4.979-3.166-5.069-5.906    C57.031,53.354,56.772,45.546,56.758,45.136z M69.17,54.097c0.783-0.422,1.295-1.332,1.262-2.428    c-0.055-1.604-1.26-3.006-2.692-3.129c-1.428-0.127-2.547,1.066-2.492,2.674c0.034,1.064,0.576,2.041,1.354,2.607l0.15,4.486    l2.567,0.225L69.17,54.097" fill="url(#XMLID_18_)"/>
<path d="M77.319,44.882c1.227,0.238,1.619,0.723,0.881,1.088c-0.74,0.371-2.33,0.475-3.553,0.242    c-1.225-0.234-1.623-0.719-0.883-1.086C74.502,44.761,76.092,44.651,77.319,44.882z" fill="#6D5607"/>
<path d="M64.804,43.815c1.223,0.217,1.612,0.689,0.869,1.061c-0.744,0.371-2.339,0.492-3.562,0.273    c-1.221-0.215-1.612-0.688-0.869-1.057C61.983,43.724,63.581,43.601,64.804,43.815z" fill="#6D5607"/>
<linearGradient gradientTransform="matrix(1.1905 0 0 1.1905 44.7322 -811.593)" gradientUnits="userSpaceOnUse" id="XMLID_19_" x1="10.7007" x2="20.8384" y1="714.209" y2="714.8736">
<stop offset="0" style="stop-color:#E2E6E4"/>
<stop offset="1" style="stop-color:#A3740A"/>
</linearGradient>
<path d="M65.279,44.116c-0.339,0.26-0.463,0.332-1.455,0.412c-1.498,0.117-2.023-0.303-2.023-0.303    l0.008-4.623c-0.119-1.709,0.992-3.23,2.142-4.049c1.505-1.07,4.273-2.248,7.054-1.762c3.629,0.627,5.094,2.563,5.832,3.717    c0.82,1.283,0.803,2.48,0.803,2.48l0.08,5.236c0,0-0.434,0.375-1.455,0.426c-1.9,0.094-2.049-0.324-2.049-0.324    s0.178-4.916-0.24-5.805c-0.373-0.797-1.711-2.914-5.07-3.063c-3.112-0.129-3.687,2.416-3.687,2.416    C65.233,38.382,65.279,44.116,65.279,44.116z" fill="url(#XMLID_19_)"/>
<path d="M63.825,44.526c0,0-0.11-4.748,0.075-5.289c0.839-2.455,3.741-2.703,3.741-2.703    c-1.927,0.598-2.198,1.787-2.315,2.283c-0.151,0.631-0.041,5.303-0.041,5.303C64.801,44.526,64.44,44.526,63.825,44.526z" fill="#6D5607"/>
<rect fill="none" height="69.048" width="100"/>
<path d="M15.783,40.685c-3.428,0-8.123,0.814-9.314,7.848l-0.178,1.063c0,0,7.9,0,8.836,0    c0.283,0.508,0.707,1.27,0.975,1.76c-0.271,0.482-0.691,1.246-0.975,1.754c-0.936,0-8.836,0-8.836,0l0.178,1.063    c1.191,7.031,5.887,7.846,9.314,7.846c2.703,0,5.111-2.266,7.048-4.092c1.046-0.984,2.032-1.912,2.555-1.912h24.187l0.27-0.299    c0.521-0.57,1.729-2.131,1.757-4.322v-0.078c-0.024-2.193-1.231-3.752-1.757-4.324l-0.27-0.297H25.385    c-0.521,0-1.511-0.926-2.555-1.908C20.895,42.956,18.484,40.685,15.783,40.685z" fill="#FFFFFF"/>
<linearGradient gradientTransform="matrix(1.1905 0 0 -1.1905 44.7322 238.2982)" gradientUnits="userSpaceOnUse" id="XMLID_20_" x1="-25.7051" x2="-3.7973" y1="170.7959" y2="144.4404">
<stop offset="0" style="stop-color:#E6EDF3"/>
<stop offset="0.1196" style="stop-color:#CABAD7"/>
<stop offset="0.2719" style="stop-color:#AB7EB8"/>
<stop offset="0.3844" style="stop-color:#9759A4"/>
<stop offset="0.4438" style="stop-color:#8F4B9C"/>
<stop offset="0.5679" style="stop-color:#73357C"/>
<stop offset="0.7242" style="stop-color:#551D5A"/>
<stop offset="0.8533" style="stop-color:#430E45"/>
<stop offset="0.9382" style="stop-color:#3C093D"/>
<stop offset="1" style="stop-color:#3C093D"/>
</linearGradient>
<path d="M50.688,51.349c0-0.01,0.004-0.02,0.004-0.025h-0.007c-0.022-1.908-1.116-3.283-1.513-3.723    c-0.515,0-23.786,0-23.786,0c-0.886,0-1.847-0.908-3.181-2.16c-1.816-1.711-4.079-3.844-6.424-3.844    c-3.801,0-7.406,1.117-8.412,7.09c1.43,0,8.294,0,8.294,0l1.474,2.662l-1.474,2.664c0,0-6.864,0-8.294,0    c1.01,5.973,4.611,7.086,8.412,7.086c2.346,0,4.605-2.129,6.424-3.842c1.334-1.258,2.295-2.158,3.181-2.158c0,0,23.274,0,23.786,0    c0.399-0.439,1.492-1.816,1.513-3.723h0.007C50.691,51.366,50.688,51.36,50.688,51.349z" fill="url(#XMLID_20_)"/>
</g>
</g>
</svg>
