<?xml version="1.0" encoding="UTF-8"?>
<!DOCTYPE svg PUBLIC "-//W3C//DTD SVG 1.1 Tiny//EN" "http://www.w3.org/Graphics/SVG/1.1/DTD/svg11-tiny.dtd">
<svg width="12" height="32" viewBox="-0.5 -0.101 12 32">
<path fill="#DEE9F3" d="M6,26.899c-2.484,0-4.5-1.998-4.5-4.461V9.409c0-2.463,2.016-4.51,4.5-4.51l0,0 c2.486,0,4.5,2.047,4.5,4.51v13.029C10.5,24.901,8.486,26.899,6,26.899L6,26.899z"/>
<path fill-opacity="0.5" fill="#87A8CB" d="M0.5,9.409v13.029c0,3.012,2.467,5.461,5.5,5.461c3.031,0,5.5-2.449,5.5-5.461V9.409 c0-3.012-2.469-5.51-5.5-5.51C2.967,3.899,0.5,6.397,0.5,9.409z M1.5,22.438V9.409c0-2.459,2.018-4.51,4.5-4.51 c2.48,0,4.5,2.051,4.5,4.51v13.029c0,2.459-2.02,4.461-4.5,4.461C3.518,26.899,1.5,24.897,1.5,22.438z"/>
</svg>