<?xml version="1.0" encoding="UTF-8" standalone="no"?>
<!DOCTYPE svg PUBLIC "-//W3C//DTD SVG 1.1 Tiny//EN" "http://www.w3.org/Graphics/SVG/1.1/DTD/svg11-tiny.dtd">
<svg xmlns="http://www.w3.org/2000/svg" xmlns:xlink="http://www.w3.org/1999/xlink" baseProfile="tiny" height="32px" version="1.1" viewBox="0 0 38 32" width="38px" x="0px" y="0px">
<g>
<rect fill="none" height="32" width="38"/>
<path d="M14.118,6.049c-7.351,0-6.998,7.637-7.003,9.768c0.008,2.339-0.443,10.212,6.902,10.212   c7.206,0,6.898-7.847,6.902-10.212C20.916,13.668,21.33,6.049,14.118,6.049z M14.018,22.155c-1.559,0-1.277-4.044-1.273-6.339   c-0.004-1.965-0.266-5.895,1.273-5.895s1.254,3.916,1.252,5.895C15.271,18.111,15.576,22.155,14.018,22.155z" fill-opacity="0.4" stroke-opacity="0.4"/>
<path d="M30.561,22.197h-1c-0.709,0-0.801,0.592-0.801,0.804v0.197h-5.377v-0.197c0-0.212-0.078-0.804-0.8-0.804   h-1.001c-0.652,0-0.801,0.592-0.801,0.804v1.998c0,0.21,0.133,0.801,0.801,0.801h8.979c0.682,0,0.799-0.587,0.799-0.801v-1.998   C31.359,22.789,31.227,22.197,30.561,22.197z" fill-opacity="0.4" stroke-opacity="0.4"/>
<path d="M14.018,25.229c-5.607,0-6.102-4.792-6.102-9.412c0-4.175,0.691-8.967,6.201-8.967   c5.436,0,6.004,4.742,6.004,8.967C20.121,20.486,19.576,25.229,14.018,25.229z M14.018,9.123c-1.951,0-2.074,2.742-2.074,6.694   c0,4.62,0.197,7.14,2.074,7.14c1.854,0,2.051-2.52,2.051-7.14C16.068,11.84,15.945,9.123,14.018,9.123z" fill="#FFFFFF"/>
<polygon fill="#FFFFFF" points="29.561,23 29.561,24 22.584,24 22.584,23 21.584,23 21.584,25 30.561,25 30.561,23  "/>
</g>
</svg>
