<?xml version="1.0" encoding="UTF-8"?>
<!DOCTYPE svg PUBLIC "-//W3C//DTD SVG 1.1 Tiny//EN" "http://www.w3.org/Graphics/SVG/1.1/DTD/svg11-tiny.dtd">
<svg width="16" height="16" viewBox="0 0 16 16">
<polygon fill="#CEE1EF" points="14.212,5.056 8.522,3.935 6.311,4.979 11.975,6.068 "/>
<polygon fill="#CEE1EF" points="7.64,2.106 3.692,1.565 1.787,2.186 5.68,2.969 "/>
<polygon fill="#496DA2" points="5.591,2.977 6.525,4.899 8.528,3.938 7.64,2.106 "/>
<polygon fill="#496DA2" points="2.302,2.806 2.57,11.516 4.602,10.516 4.258,3.203 "/>
<polygon fill="#A2C2DD" points="4.602,10.516 14.039,13.047 12.098,14.194 2.57,11.516 "/>
<polygon fill="#496DA2" points="12.026,14.436 14.054,13.224 14.212,5.056 11.983,6.068 "/>
<path d="M1.783,2.511l0.531,9.275l9.74,2.686l-0.031-8.457c0,0-5.193-1.095-5.439-1.147 C6.496,4.653,5.816,2.991,5.816,2.991L1.765,2.187L1.783,2.511z M2.302,2.806c0.507,0.104,2.933,0.577,3.153,0.623 c0.088,0.216,0.766,1.873,0.766,1.873s4.938,1.042,5.305,1.119c0.001,0.367,0.025,6.805,0.027,7.394 c-0.581-0.16-8.438-2.326-8.76-2.415C2.774,11.067,2.335,3.396,2.302,2.806z" fill="#496DA2"/>
</svg>