<?xml version="1.0" encoding="UTF-8"?>
<!DOCTYPE svg PUBLIC "-//W3C//DTD SVG 1.1 Tiny//EN" "http://www.w3.org/Graphics/SVG/1.1/DTD/svg11-tiny.dtd">
<svg baseProfile="tiny" height="29px" version="1.1" viewBox="0 0 42 29" width="42px" x="0px" xmlns="http://www.w3.org/2000/svg" xmlns:xlink="http://www.w3.org/1999/xlink" y="0px">
<g>
<g>
<rect fill="none" fill-opacity="0.4" height="28.999" stroke-opacity="0.4" width="42.002" x="0.036" y="0.044"/>
</g>
<g>
<g>
<linearGradient gradientTransform="matrix(1 0 0 -1 0 28)" gradientUnits="userSpaceOnUse" id="SVGID_1_" x1="29.0693" x2="29.9091" y1="14.8472" y2="12.0082">
<stop offset="0" style="stop-color:#AABBD7"/>
<stop offset="0.2634" style="stop-color:#92A5CC"/>
<stop offset="0.7135" style="stop-color:#6C83BB"/>
<stop offset="0.7571" style="stop-color:#637DB5"/>
<stop offset="0.8268" style="stop-color:#4C6EA4"/>
<stop offset="0.9134" style="stop-color:#265689"/>
<stop offset="0.9888" style="stop-color:#003D6D"/>
<stop offset="1" style="stop-color:#003D6D"/>
</linearGradient>
<path d="M27.105,5.172c-1.657,0.394-3.093,1.566-3.841,3.138c-0.628,1.225-0.759,2.687-0.367,4.111     c0.65,2.34,2.648,4.088,4.863,4.25c0.759,0.139,1.54,0.119,2.298-0.061c1.438-0.34,2.641-1.23,3.386-2.501     c0.508-0.867,0.767-1.842,0.767-2.843c0-0.552-0.077-1.111-0.235-1.665C33.054,6.362,30.101,4.457,27.105,5.172z" fill="url(#SVGID_1_)"/>
<linearGradient gradientTransform="matrix(1 0 0 -1 0 28)" gradientUnits="userSpaceOnUse" id="SVGID_2_" x1="29.0703" x2="29.9101" y1="14.8467" y2="12.0074">
<stop offset="0" style="stop-color:#AABBD7"/>
<stop offset="0.2634" style="stop-color:#92A5CC"/>
<stop offset="0.7135" style="stop-color:#6C83BB"/>
<stop offset="0.7571" style="stop-color:#637DB5"/>
<stop offset="0.8268" style="stop-color:#4C6EA4"/>
<stop offset="0.9134" style="stop-color:#265689"/>
<stop offset="0.9888" style="stop-color:#003D6D"/>
<stop offset="1" style="stop-color:#003D6D"/>
</linearGradient>
<path d="M27.105,5.172c-2.953,0.703-5.123,3.93-4.208,7.25c0.65,2.339,2.648,4.087,4.863,4.25     c3.945,0.725,7.42-2.854,6.215-7.07C33.054,6.362,30.101,4.457,27.105,5.172z" fill="url(#SVGID_2_)"/>
<g>
<g>
<linearGradient gradientTransform="matrix(1 0 0 -1 0 28)" gradientUnits="userSpaceOnUse" id="SVGID_3_" x1="28.4229" x2="28.4918" y1="23.0459" y2="11.5966">
<stop offset="0" style="stop-color:#FFFFFF"/>
<stop offset="0.0804" style="stop-color:#E4EDF5"/>
<stop offset="0.2367" style="stop-color:#B4CEE4"/>
<stop offset="0.3146" style="stop-color:#A2C2DD"/>
<stop offset="0.4547" style="stop-color:#8EABD1"/>
<stop offset="0.6573" style="stop-color:#6C83BB"/>
<stop offset="0.7116" style="stop-color:#637DB5"/>
<stop offset="0.7984" style="stop-color:#4C6EA4"/>
<stop offset="0.9062" style="stop-color:#265689"/>
<stop offset="1" style="stop-color:#003D6D"/>
</linearGradient>
<path d="M33.757,9.666c0.859,3.017-0.816,6.03-3.752,6.725c-2.932,0.701-6.004-1.18-6.863-4.19       c-0.859-3.017,1.084-6.109,4.017-6.807C30.092,4.692,32.899,6.653,33.757,9.666z" fill="url(#SVGID_3_)"/>
<linearGradient gradientTransform="matrix(1 0 0 -1 0 28)" gradientUnits="userSpaceOnUse" id="SVGID_4_" x1="23.5771" x2="28.3261" y1="25.1758" y2="15.4842">
<stop offset="0" style="stop-color:#FFFFFF"/>
<stop offset="0.1745" style="stop-color:#F8FBFD"/>
<stop offset="0.4209" style="stop-color:#E6EFF6"/>
<stop offset="0.7103" style="stop-color:#C8DBEB"/>
<stop offset="1" style="stop-color:#A2C2DD"/>
</linearGradient>
<path d="M32.286,10.125c0.782,2.811-0.641,5.596-3.172,6.215c-2.533,0.615-5.219-1.17-5.997-3.979       c-0.778-2.823,0.643-5.61,3.173-6.225C28.823,5.513,31.506,7.299,32.286,10.125z" fill="url(#SVGID_4_)"/>
<radialGradient cx="26.4697" cy="19.2207" gradientTransform="matrix(1 0 0 -1 0 28)" gradientUnits="userSpaceOnUse" id="SVGID_5_" r="7.5681">
<stop offset="0" style="stop-color:#FFFFFF"/>
<stop offset="0.4775" style="stop-color:#A2C2DD"/>
<stop offset="0.5873" style="stop-color:#97B5D6"/>
<stop offset="0.7889" style="stop-color:#7A94C4"/>
<stop offset="0.8764" style="stop-color:#6C83BB"/>
<stop offset="1" style="stop-color:#003D6D"/>
</radialGradient>
<path d="M31.597,10.291c0.666,2.39-0.543,4.758-2.695,5.284c-2.151,0.525-4.435-0.994-5.096-3.381       c-0.661-2.4,0.546-4.769,2.696-5.292C28.654,6.373,30.936,7.89,31.597,10.291z" fill="url(#SVGID_5_)"/>
</g>
<g>
<linearGradient gradientTransform="matrix(0.8872 0.2085 0.2138 -0.9101 63.2977 168.4312)" gradientUnits="userSpaceOnUse" id="SVGID_6_" x1="-96.8335" x2="-89.6185" y1="149.8701" y2="139.5179">
<stop offset="0" style="stop-color:#FFFFFF"/>
<stop offset="0.1124" style="stop-color:#FFFFFF"/>
<stop offset="0.2115" style="stop-color:#D8DBF1"/>
<stop offset="0.302" style="stop-color:#BCC1E7"/>
<stop offset="0.3539" style="stop-color:#B1B7E3"/>
<stop offset="0.5506" style="stop-color:#5F62C9"/>
<stop offset="0.736" style="stop-color:#B1B7E3"/>
<stop offset="1" style="stop-color:#FFFFFF"/>
</linearGradient>
<path d="M11.709,11.634l-3.479,0.48c-1.304,7.241,3.162,11.301,6.034,12.663l2.581-2.307       C13.105,20.195,11.149,16.182,11.709,11.634z" fill="url(#SVGID_6_)"/>
<linearGradient gradientTransform="matrix(0.8872 0.2085 0.2138 -0.9101 63.2977 168.4312)" gradientUnits="userSpaceOnUse" id="SVGID_7_" x1="-91.5332" x2="-85.654" y1="152.0391" y2="143.6034">
<stop offset="0" style="stop-color:#FFFFFF"/>
<stop offset="0.1124" style="stop-color:#FFFFFF"/>
<stop offset="0.2115" style="stop-color:#D8DBF1"/>
<stop offset="0.302" style="stop-color:#BCC1E7"/>
<stop offset="0.3539" style="stop-color:#B1B7E3"/>
<stop offset="0.5506" style="stop-color:#5F62C9"/>
<stop offset="0.736" style="stop-color:#B1B7E3"/>
<stop offset="1" style="stop-color:#FFFFFF"/>
</linearGradient>
<path d="M16.864,10.968l-3.552,0.711c-0.779,4.629,2.039,8.336,4.578,9.524l2.747-2.105       C18.491,17.986,16.354,14.509,16.864,10.968z" fill="url(#SVGID_7_)"/>
<linearGradient gradientTransform="matrix(0.8872 0.2085 0.2138 -0.9101 63.2977 168.4312)" gradientUnits="userSpaceOnUse" id="SVGID_8_" x1="-86.6045" x2="-81.8905" y1="154.1641" y2="147.4004">
<stop offset="0" style="stop-color:#FFFFFF"/>
<stop offset="0.1124" style="stop-color:#FFFFFF"/>
<stop offset="0.2115" style="stop-color:#D8DBF1"/>
<stop offset="0.302" style="stop-color:#BCC1E7"/>
<stop offset="0.3539" style="stop-color:#B1B7E3"/>
<stop offset="0.5506" style="stop-color:#5F62C9"/>
<stop offset="0.736" style="stop-color:#B1B7E3"/>
<stop offset="1" style="stop-color:#FFFFFF"/>
</linearGradient>
<path d="M21.348,10.078L18.3,10.947c-0.455,2.428,0.736,5.495,3.392,7.006c0,0,2.513-1.676,2.518-1.695       C21.846,14.776,21.034,11.664,21.348,10.078z" fill="url(#SVGID_8_)"/>
</g>
</g>
</g>
</g>
<g fill-opacity="0.6" stroke-opacity="0.6">
<path d="M11.628,11.545l-3.513,0.485c-1.317,7.313,3.193,11.413,6.094,12.788l2.606-2.328    C13.039,20.191,11.063,16.137,11.628,11.545z M16.834,10.873l-3.587,0.718c-0.787,4.675,2.059,8.419,4.624,9.619l2.774-2.127    C18.478,17.959,16.319,14.449,16.834,10.873z M21.362,9.973l-3.078,0.878c-0.459,2.451,0.744,5.549,3.425,7.075    c0,0,2.538-1.691,2.543-1.711C21.865,14.718,21.045,11.575,21.362,9.973z" fill="#FFFFFF"/>
<path d="M34.401,10.948c0,1.321-0.209,2.499-0.914,3.494c-1.08,1.525-2.293,2.474-5.012,2.496    c-3.287,0.027-6.108-2.737-6.108-6.081s2.665-6.031,5.952-6.057C31.12,4.782,34.401,7.604,34.401,10.948z" fill="#FFFFFF"/>
</g>
<g>
<path d="M7.181,17.426c-1.457,0-3.454,0.346-3.959,3.336l-0.076,0.451c0,0,3.356,0,3.755,0    c0.12,0.217,0.3,0.539,0.413,0.746c-0.113,0.205-0.293,0.527-0.413,0.744c-0.398,0-3.755,0-3.755,0l0.076,0.451    c0.505,2.988,2.502,3.336,3.959,3.336c1.148,0,2.173-0.965,2.995-1.74c0.444-0.418,0.864-0.813,1.086-0.813h10.281l0.113-0.127    c0.221-0.242,0.732-0.906,0.744-1.836v-0.033c-0.01-0.932-0.523-1.594-0.744-1.838l-0.113-0.125H11.262    c-0.222,0-0.642-0.395-1.085-0.813C9.354,18.391,8.331,17.426,7.181,17.426z" fill="#FFFFFF" fill-opacity="0.4" stroke-opacity="0.4"/>
<linearGradient gradientTransform="matrix(1.1905 0 0 -1.1905 54.5761 121.377)" gradientUnits="userSpaceOnUse" id="SVGID_9_" x1="-40.4019" x2="-31.0916" y1="89.3594" y2="78.159">
<stop offset="0" style="stop-color:#E6EEF4"/>
<stop offset="0.4438" style="stop-color:#9646AC"/>
<stop offset="0.9382" style="stop-color:#3D013F"/>
<stop offset="1" style="stop-color:#3D013F"/>
</linearGradient>
<path d="M22.016,21.959c0-0.006,0-0.01,0-0.012h-0.002c-0.01-0.811-0.473-1.395-0.644-1.582    c-0.217,0-10.107,0-10.107,0c-0.378,0-0.784-0.387-1.352-0.918c-0.772-0.729-1.733-1.635-2.729-1.635    c-1.618,0-3.148,0.475-3.577,3.014c0.607,0,3.524,0,3.524,0l0.627,1.133L7.128,23.09c0,0-2.917,0-3.524,0    c0.429,2.539,1.959,3.012,3.577,3.012c0.996,0,1.958-0.906,2.729-1.633c0.567-0.531,0.974-0.918,1.352-0.918c0,0,9.891,0,10.107,0    c0.171-0.186,0.634-0.771,0.644-1.582h0.002C22.016,21.965,22.016,21.963,22.016,21.959z" fill="url(#SVGID_9_)"/>
</g>
<g>
<path d="M33.122,18.912c-0.655-0.654-3.648-3.635-3.648-3.635l-2.03,2.039c0,0,2.98,2.971,3.64,3.627    c-0.659,0.656-3.64,3.627-3.64,3.627l2.031,2.039c0,0,2.991-2.98,3.647-3.635c0.657,0.654,3.648,3.635,3.648,3.635l2.031-2.039    c0,0-2.979-2.971-3.639-3.627c0.66-0.656,3.639-3.627,3.639-3.627l-2.031-2.039C36.771,15.277,33.778,18.258,33.122,18.912z" fill="#FFFFFF"/>
<linearGradient gradientTransform="matrix(0.5 0 0 -0.5 -276.73 -391.0195)" gradientUnits="userSpaceOnUse" id="SVGID_10_" x1="626.7666" x2="613.1203" y1="-802.4346" y2="-843.967">
<stop offset="0" style="stop-color:#E6EEF4"/>
<stop offset="0.4438" style="stop-color:#C03A3A"/>
<stop offset="0.9382" style="stop-color:#302D02"/>
<stop offset="1" style="stop-color:#302D02"/>
</linearGradient>
<polygon fill="url(#SVGID_10_)" points="37.963,17.314 36.77,16.117 33.122,19.75 29.476,16.117 28.282,17.314 31.924,20.943     28.282,24.572 29.476,25.77 33.122,22.139 36.769,25.77 37.963,24.572 34.321,20.943   "/>
</g>
</g>
</svg>
