<?xml version="1.0" encoding="UTF-8"?>
<!DOCTYPE svg PUBLIC "-//W3C//DTD SVG 1.1 Tiny//EN" "http://www.w3.org/Graphics/SVG/1.1/DTD/svg11-tiny.dtd">
<svg baseProfile="tiny" height="26px" style="enable-background:new 0 0 26 26;" version="1.1" viewBox="0 0 26 26" width="26px" x="0px" xmlns="http://www.w3.org/2000/svg" xmlns:xlink="http://www.w3.org/1999/xlink" y="0px">
<rect height="26" style="fill:none;" width="26"/>
<path d="M26,22.664C26,24.507,24.506,26,22.664,26H3.336C1.494,26,0,24.507,0,22.664V3.336  C0,1.494,1.494,0,3.336,0h19.328C24.506,0,26,1.494,26,3.336V22.664z" style="opacity:0.5;"/>
<path d="M13.019,21.002c-4.421,0-8.002-3.583-8.002-8.006H2.6L6.4,9.2l3.799,3.796l-2.4,0.003  c0,2.878,2.341,5.22,5.219,5.22c1.644,0,3.105-0.763,4.063-1.951l1.974,1.973C17.59,19.928,15.433,21.002,13.019,21.002   M19.603,16.82l-3.8-3.799h2.433c0-0.01,0.002-0.013,0.002-0.022c0-2.877-2.34-5.219-5.22-5.219c-1.655,0-3.131,0.777-4.088,1.987  l-1.978-1.98c1.469-1.708,3.638-2.789,6.067-2.789c4.417,0,8.004,3.58,8.004,8.003c0,0.009,0,0.013-0.001,0.021H23.4L19.603,16.82   M13.019,21.652c2.5,0,4.88-1.089,6.527-2.985l0.397-0.458l-0.429-0.428l-1.974-1.973l-0.512-0.513l-0.454,0.564  c-0.875,1.086-2.171,1.709-3.557,1.709c-2.299,0-4.208-1.708-4.523-3.921l1.705-0.002l1.568-0.002l-1.109-1.108L6.859,8.74L6.4,8.28  L5.941,8.74L2.14,12.536l-1.111,1.11H2.6h1.791C4.724,18.117,8.466,21.652,13.019,21.652L13.019,21.652z M19.603,17.739l0.46-0.46  l3.798-3.798l1.109-1.11H23.4h-1.751c-0.323-4.479-4.07-8.023-8.631-8.023c-2.521,0-4.911,1.099-6.56,3.015L6.066,7.82l0.426,0.426  l1.978,1.98l0.517,0.517l0.453-0.573c0.875-1.106,2.179-1.74,3.578-1.74c2.307,0,4.22,1.718,4.526,3.941h-1.741h-1.57l1.11,1.11  l3.8,3.798L19.603,17.739L19.603,17.739z" style="opacity:0.4;"/>
<path d="M7.799,12.999l2.4-0.003L6.4,9.2l-3.8,3.796h2.417l0,0c0,4.423,3.581,8.006,8.002,8.006  c2.414,0,4.571-1.074,6.037-2.762l-1.974-1.973c-0.958,1.188-2.42,1.951-4.063,1.951C10.141,18.219,7.799,15.877,7.799,12.999  L7.799,12.999L7.799,12.999z M23.4,13.021h-2.379c0.001-0.008,0.001-0.012,0.001-0.021c0-4.423-3.587-8.003-8.004-8.003  c-2.429,0-4.598,1.082-6.067,2.789l1.978,1.98c0.957-1.21,2.433-1.987,4.088-1.987c2.88,0,5.22,2.342,5.22,5.219  c0,0.009-0.002,0.012-0.002,0.022h-2.433l3.8,3.799L23.4,13.021L23.4,13.021z" style="fill:#FFFFFF;"/>
<polygon points="24.902,10.833 23.179,12.556 19.42,8.798 15.663,12.556 13.942,10.833 17.696,7.078   13.942,3.32 15.663,1.597 19.42,5.354 23.179,1.597 24.902,3.32 21.141,7.078 " style="fill:#FF0000;"/>
</svg>
