<?xml version="1.0" encoding="UTF-8"?>
<!DOCTYPE svg PUBLIC "-//W3C//DTD SVG 1.1 Tiny//EN" "http://www.w3.org/Graphics/SVG/1.1/DTD/svg11-tiny.dtd">
<svg baseProfile="tiny" height="22px" version="1.1" viewBox="0 0 22 22" width="22px" x="0px" xmlns="http://www.w3.org/2000/svg" xmlns:xlink="http://www.w3.org/1999/xlink" y="0px">
<path d="M22,5c0-0.414-0.336-0.75-0.75-0.75H4.108c-0.414,0-0.75,0.336-0.75,0.75v2.5  H0.75c-0.473,0-0.824,0.435-0.736,0.895l0.342,1.748c0.05,0.26,0.234,0.468,0.47,0.558c-0.043,0.04-0.302,0.296-0.226,0.692  l0.342,1.75c0.05,0.26,0.232,0.467,0.47,0.558c-0.142,0.128-0.284,0.391-0.226,0.692l0.34,1.752  c0.068,0.353,0.376,0.605,0.736,0.605h1.096V17c0,0.414,0.336,0.75,0.75,0.75H21.25c0.414,0,0.75-0.336,0.75-0.75V5z" fill-opacity="0.4" stroke-opacity="0.4"/>
<path d="M4.108,5v0.751c0.937,0.592,8.09,5.113,8.505,5.376c0.402-0.255,7.301-4.608,8.637-5.451V5H4.108" fill="#FFFFFF"/>
<path d="M12.379,11.982L4.108,6.758V17H21.25V6.682l-8.402,5.302C12.704,12.074,12.523,12.074,12.379,11.982" fill="#FFFFFF"/>
<rect fill="none" height="22" width="22"/>
<polygon fill="#FFFFFF" points="3.358,8.25 0.75,8.25 1.092,10 3.358,10 "/>
<polygon fill="#FFFFFF" points="3.358,11.25 1.336,11.25 1.677,13 3.358,13 "/>
<polygon fill="#FFFFFF" points="3.358,14.25 1.921,14.25 2.263,16 3.358,16 "/>
</svg>
