<?xml version="1.0" encoding="UTF-8"?>
<!DOCTYPE svg PUBLIC "-//W3C//DTD SVG 1.1 Tiny//EN" "http://www.w3.org/Graphics/SVG/1.1/DTD/svg11-tiny.dtd">
<svg width="36" height="36" viewBox="0 0 36 36">
<path d="M1.093,18.361c0,9.322,7.584,16.906,16.906,16.906 c9.322,0,16.907-7.583,16.907-16.906c0-9.323-7.584-16.908-16.907-16.908C8.718,1.454,1.093,9.214,1.093,18.361z" fill="#1FFFEA" fill-opacity="0.2" />
<path d="M1.714,18.361c0,8.98,7.306,16.285,16.285,16.285 c8.981,0,16.286-7.304,16.286-16.285c0-8.98-7.305-16.287-16.286-16.287C9.021,2.075,1.714,9.381,1.714,18.361z" fill="#1FFFEA" fill-opacity="0.3" />
<path d="M2.425,18.36c0,8.587,6.987,15.574,15.574,15.574 c8.589,0,15.575-6.987,15.575-15.574c0-8.588-6.986-15.574-15.575-15.574C9.412,2.786,2.425,9.772,2.425,18.36z" fill="#1FFFEA" fill-opacity="0.4" />
<radialGradient id="_4" gradientUnits="userSpaceOnUse" cx="18" cy="18.36" r="14.98">
<stop stop-color="#B3DDFF" offset="0"/>
<stop stop-color="#D3FFBF" offset="0.01"/>
<stop stop-color="#92F7DB" offset="0.41"/>
<stop stop-color="#56F0F5" offset="0.81"/>
<stop stop-color="#3FEDFF" offset="1"/>
</radialGradient>
<path d="M17.999,3.376c-8.262,0-14.983,6.722-14.983,14.984 c0,8.261,6.721,14.983,14.983,14.983c8.263,0,14.985-6.722,14.985-14.983C32.984,10.099,26.262,3.376,17.999,3.376z" fill="url(#_4)"/>
<linearGradient id="_5" gradientUnits="userSpaceOnUse" x1="18" y1="3.66" x2="18" y2="33.04">
<stop stop-color="#CFECFF" offset="0"/>
<stop stop-color="#8CC2EA" offset="1"/>
</linearGradient>
<path d="M18,3.376c-8.262,0-14.983,6.722-14.983,14.984 c0,8.261,6.721,14.983,14.983,14.983s14.984-6.722,14.984-14.983C32.984,10.099,26.262,3.376,18,3.376z M18,32.528 c-7.826,0-14.166-6.341-14.166-14.167c0-7.825,6.34-14.169,14.166-14.169c7.825,0,14.167,6.344,14.167,14.169 C32.167,26.188,25.824,32.528,18,32.528z" fill="url(#_5)" fill-opacity="0.5" />
<linearGradient id="_6" gradientUnits="userSpaceOnUse" x1="18" y1="1.48" x2="18" y2="39.93">
<stop stop-color="#FFFFFF" offset="0"/>
<stop stop-color="#B3DDFF" offset="1"/>
</linearGradient>
<circle cx="18" cy="18.361" fill="url(#_6)" fill-opacity="0.5" r="14.169" />
<g fill-opacity="0.6" stroke-opacity="0.6">
<path d="M27.77,21.423l-2.737,0.007l-0.017-8.532c-0.005-1.409-0.988-2.389-2.391-2.386 l-11.611,0.03c-2.878,0.012-2.38,3.367-2.379,4.101l2.732-0.01l0.021,8.535c0.005,1.408,0.988,2.39,2.395,2.383l11.607-0.027 C27.968,25.526,27.789,23.003,27.77,21.423z M9.994,13.273c0,0-0.139-1.109,0.715-1.313c0.736,0.189,0.654,1.313,0.654,1.313 L9.994,13.273z M14.468,24.183c0,0-1.713,0.294-1.713-1.014l-0.026-10.074c0-0.445-0.083-0.844-0.232-1.19l10.129-0.034 c0.655,0.004,1.029,0.375,1.029,1.032l0.021,8.532l-8.19,0.022C15.508,22.836,15.727,24.227,14.468,24.183z M25.391,24.159 l-8.754,0.024c0.246-0.332,0.218-1.163,0.218-1.37l9.55-0.021C26.404,23.273,26.407,24.159,25.391,24.159z" fill="#0046B7"/>
<rect fill="#0046B7" height="1.36" width="8.189" x="14.098" y="13.255"/>
<rect fill="#0046B7" height="1.367" width="8.186" x="14.105" y="15.984"/>
<polygon fill="#0046B7" points="14.107,18.724 14.113,20.091 22.307,20.073 22.295,18.704 "/>
</g>
<path d="M22.619,7.153l-11.613,0.03c-2.8,0.012-5.372,2.044-5.372,5.38 c-0.116,1.389-0.159,4.402,2.74,4.668l0.014,5.585c0.01,2.882,2.159,5.392,5.409,5.376l11.601-0.027 c3.063,0,5.375-2.32,5.375-5.396c0.247-2.723-0.519-4.461-2.746-4.655l-0.011-5.581C28.005,9.459,25.685,7.147,22.619,7.153z " fill="#1FFFEA" fill-opacity="0.1" />
<path d="M22.621,8.153h0.002l-11.614,0.03 c-2.234,0.01-4.386,1.762-4.374,4.402v1.698c0,1.462,1.197,2.169,2.737,1.998l0.017,6.533 c0.009,2.486,1.834,4.391,4.404,4.378l11.603-0.027c2.494,0,4.377-1.89,4.377-4.396L29.77,21.06 c-0.002-1.412-1.157-2.169-2.741-1.995l-0.013-6.53C27.007,10.031,25.118,8.148,22.621,8.153z" fill="#1FFFEA" fill-opacity="0.2" />
<path d="M22.623,9.153l-11.612,0.03c-1.965,0.008-3.385,1.437-3.376,3.398 v1.703c0,1.306,1.417,0.999,2.735,0.994l0.019,7.534c0.007,1.908,1.458,3.39,3.399,3.381l11.605-0.027 c1.957,0,3.379-1.428,3.379-3.396l-0.003-1.708c-0.002-1.088-1.056-0.999-2.739-0.994l-0.015-7.531 C26.009,10.571,24.582,9.149,22.623,9.153z" fill="#1FFFEA" fill-opacity="0.3" />
</svg>