<?xml version="1.0" encoding="UTF-8" standalone="no"?>
<!DOCTYPE svg PUBLIC "-//W3C//DTD SVG 1.1 Tiny//EN" "http://www.w3.org/Graphics/SVG/1.1/DTD/svg11-tiny.dtd">
<svg xmlns="http://www.w3.org/2000/svg" xmlns:xlink="http://www.w3.org/1999/xlink" width="42" height="36" viewBox="0 0 42 36">
<rect fill="none" height="36" width="42"/>
<linearGradient id="SVGID_1" gradientUnits="userSpaceOnUse" x1="4.34" y1="18" x2="37.66" y2="18">
<stop stop-color="#A1C1DC" offset="0.1"/>
<stop stop-color="#6C82B9" offset="0.71"/>
<stop stop-color="#173F6C" offset="0.99"/>
</linearGradient>
<path d="M12.842,34.012l-0.057-0.078l-6.937-9.3l-0.042-0.059l-1.405-1.881L4.37,22.653v-0.052l-0.027-0.858 L4.34,21.59l0.149-0.015c1.725-0.188,3.256-0.634,4.676-1.372c0.68-1.623,2.405-2.95,4.057-3.121 c0.235-0.238,0.481-0.492,0.747-0.774L11.079,2.388L11.044,2.23l0.157-0.033l0.762-0.172l0.159-0.036l0.037,0.159 c0.482,2.094,1.557,2.859,2.694,3.67l0.098,0.07c0.172,0.12,0.348,0.243,0.523,0.364c1.704,1.185,3.464,2.408,3.86,5.01 c1.691-1.087,3.54-1.699,5.645-1.868l0.047-0.002l0.042,0.024l1.62,0.889l0.319,0.174l0.527,0.289l1.251,0.686l8.768,4.814 l0.106,0.057l-0.018,0.131l-0.219,1.099l-0.022,0.118l-0.125,0.013c-5.685,0.518-8.448,3.993-11.377,7.671 c-3.057,3.844-6.22,7.818-12.963,8.643L12.842,34.012L12.842,34.012z M13.666,8.596L15,15.196c0.997-1.081,2.029-2.183,3.198-3.116 C17.83,10.181,16.425,9.099,13.666,8.596L13.666,8.596z" fill="url(#SVGID_1)"/>
<linearGradient id="SVGID_2" gradientUnits="userSpaceOnUse" x1="25.09" y1="3.25" x2="18.28" y2="29.64">
<stop stop-color="#FFFFFF" offset="0"/>
<stop stop-color="#486EA2" offset="0.71"/>
<stop stop-color="#225487" offset="0.99"/>
</linearGradient>
<path d="M4.504,21.748c10.374-1.113,10.566-11.391,20.483-12.18l12.506,6.863 c-12.585,1.681-11.545,14.341-24.322,16.136L4.504,21.748z" fill="url(#SVGID_2)"/>
<linearGradient id="SVGID_3" gradientUnits="userSpaceOnUse" x1="11.67" y1="27.2" x2="22.42" y2="12.96">
<stop stop-color="#DEE8F1" offset="0"/>
<stop stop-color="#225487" offset="1"/>
</linearGradient>
<path d="M6.254,23.966c1.579-0.102,5.475-0.806,8.816-4.604l6.127,5.619c-2.307,2.884-6.286,5.21-9.765,5.507 L6.254,23.966z" fill="url(#SVGID_3)"/>
<linearGradient id="SVGID_4" gradientUnits="userSpaceOnUse" x1="22.63" y1="18.3" x2="16.39" y2="28">
<stop stop-color="#DEE8F1" offset="0"/>
<stop stop-color="#225487" offset="1"/>
</linearGradient>
<path d="M15.837,18.577c1.691-1.97,3.833-4.857,7.662-6.644l7.04,4.334c-2.24,1.156-4.458,2.596-8.474,7.792 L15.837,18.577z" fill="url(#SVGID_4)"/>
<path d="M24.679,11.449c0,0,2.42-0.559,2.777-0.528l7.598,4.183c0,0-1.459-0.021-3.218,0.643L24.679,11.449z" fill="#D6E3F1"/>
<polygon fill="#FFFFFF" points="5.01,22.433 6.175,22.295 6.975,23.324 5.913,23.549 "/>
<polygon fill="#FFFFFF" points="7.375,21.997 8.266,23.043 9.482,22.64 8.574,21.615 "/>
<polygon fill="#FFFFFF" points="9.574,21.165 10.499,22.191 11.537,21.608 10.586,20.609 "/>
<polygon fill="#FFFFFF" points="11.421,20.037 12.384,21.011 13.269,20.314 12.271,19.342 "/>
<polygon fill="#FFFFFF" points="13.02,18.701 14.011,19.635 14.791,18.83 13.778,17.914 "/>
<polygon fill="#FFFFFF" points="14.442,17.202 15.475,18.118 16.197,17.266 15.179,16.398 "/>
<polygon fill="#FFFFFF" points="15.844,15.668 16.866,16.522 17.604,15.706 16.559,14.862 "/>
<polygon fill="#FFFFFF" points="17.244,14.166 18.299,14.983 19.106,14.222 18.006,13.415 "/>
<polygon fill="#FFFFFF" points="18.777,12.774 19.879,13.55 20.761,12.867 19.676,12.108 "/>
<polygon fill="#FFFFFF" points="20.562,11.561 21.648,12.29 22.73,11.758 21.609,11.037 "/>
<polygon fill="#FFFFFF" points="22.604,10.648 23.753,11.323 25.063,10.971 23.888,10.287 "/>
<polygon fill="#FFFFFF" points="25.024,10.068 26.227,10.754 26.93,10.631 25.677,9.949 "/>
<polygon fill="#FFFFFF" points="11.811,30.928 13.116,30.698 13.985,31.78 12.649,32.004 "/>
<polygon fill="#FFFFFF" points="14.498,30.351 15.391,31.409 16.816,30.875 15.881,29.832 "/>
<polygon fill="#FFFFFF" points="17.029,29.287 18.192,28.574 19.174,29.579 17.976,30.306 "/>
<polygon fill="#FFFFFF" points="19.158,27.871 20.135,28.861 21.14,27.983 20.148,27.013 "/>
<polygon fill="#FFFFFF" points="20.978,26.184 21.984,27.14 22.859,26.174 21.842,25.253 "/>
<polygon fill="#FFFFFF" points="22.612,24.36 23.645,25.271 24.468,24.251 23.416,23.373 "/>
<polygon fill="#FFFFFF" points="24.171,22.477 25.218,23.341 26.04,22.319 24.979,21.479 "/>
<polygon fill="#FFFFFF" points="25.762,20.613 26.828,21.433 27.736,20.487 26.656,19.675 "/>
<polygon fill="#FFFFFF" points="27.506,18.885 28.624,19.658 29.642,18.824 28.518,18.066 "/>
<polygon fill="#FFFFFF" points="29.538,17.391 30.671,18.123 31.874,17.434 30.726,16.714 "/>
<polygon fill="#FFFFFF" points="31.916,16.199 33.104,16.899 34.571,16.434 33.386,15.741 "/>
<polygon fill="#FFFFFF" points="34.844,15.44 36.06,16.109 36.745,16.033 35.5,15.349 "/>
<linearGradient id="SVGID_5" gradientUnits="userSpaceOnUse" x1="14.3" y1="2.22" x2="26.79" y2="28.48">
<stop stop-color="#FFFFFF" offset="0"/>
<stop stop-color="#486EA2" offset="0.71"/>
<stop stop-color="#225487" offset="0.99"/>
</linearGradient>
<path d="M13.232,32.458c12.06-1.605,12.525-15.277,24.25-16.038l-0.223,1.113 C25.511,18.605,26.003,32.25,12.916,33.847L13.232,32.458z" fill="url(#SVGID_5)"/>
<polygon fill="url(#SVGID_2)" points="13.232,32.458 4.504,21.748 4.532,22.606 12.916,33.847 "/>
<polygon fill="#7D96C5" points="12.839,31.979 12.556,33.363 11.799,32.325 11.973,30.891 "/>
<polygon fill="#7D96C5" points="5.063,22.42 5.147,23.398 5.977,24.548 5.953,23.545 "/>
<linearGradient id="SVGID_7" gradientUnits="userSpaceOnUse" x1="12.63" y1="30.81" x2="13.51" y2="19.84">
<stop stop-color="#FFFFFF" offset="0.05"/>
<stop stop-color="#A1C1DC" offset="1"/>
</linearGradient>
<path d="M16.126,24.422c-0.565,1.555-2.365,2.897-4.022,3.002c-1.654,0.103-2.539-1.072-1.975-2.624 c0.563-1.555,2.364-2.897,4.021-3.004C15.805,21.694,16.689,22.867,16.126,24.422z" fill="url(#SVGID_7)"/>
<path d="M14.487,18.025l-3.252-15.66l0.762-0.171c0.51,2.215,1.676,2.994,2.856,3.836 c2.69,1.907,5.913,3.547,3.617,10.54l-0.544-0.218c1.583-5.44-0.518-7.292-4.471-7.949l2.114,10.467L14.487,18.025z" fill="#6D5723"/>
<radialGradient id="SVGID_8" gradientUnits="userSpaceOnUse" cx="13.33" cy="18.95" fx="12.7" fy="19.13" r="2.87">
<stop stop-color="#E6EDF3" offset="0"/>
<stop stop-color="#A2762B" offset="0.44"/>
<stop stop-color="#474219" offset="0.94"/>
</radialGradient>
<path d="M15.434,20.15c-0.58,1.712-2.439,3.188-4.158,3.292c-1.717,0.11-2.644-1.193-2.063-2.906 c0.578-1.709,2.438-3.184,4.158-3.292C15.087,17.136,16.014,18.437,15.434,20.15z" fill="url(#SVGID_8)"/>
</svg>