<?xml version="1.0" encoding="UTF-8"?>
<!DOCTYPE svg PUBLIC "-//W3C//DTD SVG 1.1 Tiny//EN" "http://www.w3.org/Graphics/SVG/1.1/DTD/svg11-tiny.dtd">
<svg baseProfile="tiny" version="1.1" xmlns="http://www.w3.org/2000/svg" xmlns:xlink="http://www.w3.org/1999/xlink" width="84" height="58" viewBox="0 0 84 58">
<g>
<g>
<rect fill="none" width="84" height="58"/>
</g>
<g>
<linearGradient id="XMLID_14_" gradientUnits="userSpaceOnUse" x1="41.5244" y1="30.8076" x2="51.5297" y2="50.5154">
<stop offset="0" style="stop-color:#A2C2DD"/>
<stop offset="0.1" style="stop-color:#A2C2DD"/>
<stop offset="0.7135" style="stop-color:#6C83BB"/>
<stop offset="0.9888" style="stop-color:#003D6D"/>
</linearGradient>
<path fill="url(#XMLID_14_)" d="M33.248,10.083c0,0,0.66,7.772,0.751,8.586c-0.623-0.093-2.309-0.345-2.309-0.345l-3.053,0.944 c0,0,0.889,1.401,1.19,1.877c-0.794,0.281-19.972,7.081-19.972,7.081l3.096,11.219l32.841,13.834l25.156-14.758l2.461-9.825 c0,0-21.362-4.804-22.486-5.057c0.425-0.459,1.564-1.809,1.564-1.809s-6.587-1.2-7.191-1.311 c0.096-0.634,1.826-11.395,1.826-11.395l-8.844-1.136L33.248,10.083z"/>
<g>
<g>
<linearGradient id="XMLID_15_" gradientUnits="userSpaceOnUse" x1="19.5903" y1="41.542" x2="30.5901" y2="15.5426">
<stop offset="0" style="stop-color:#FFFFFF"/>
<stop offset="0.35" style="stop-color:#A2C2DD"/>
<stop offset="0.7" style="stop-color:#6C83BB"/>
<stop offset="1" style="stop-color:#003D6D"/>
</linearGradient>
<polygon fill="url(#XMLID_15_)" points="33.793,21.529 35.591,29.657 16.975,37.724 13.979,28.87 "/>
<linearGradient id="XMLID_16_" gradientUnits="userSpaceOnUse" x1="-8.0767" y1="56.4775" x2="57.6735" y2="22.7274">
<stop offset="0" style="stop-color:#FFFFFF"/>
<stop offset="0.35" style="stop-color:#A2C2DD"/>
<stop offset="0.7" style="stop-color:#6C83BB"/>
<stop offset="1" style="stop-color:#003D6D"/>
</linearGradient>
<polygon fill="url(#XMLID_16_)" points="69.196,29.89 33.793,21.529 35.591,29.655 16.975,37.724 39.4,45.563 "/>
<linearGradient id="XMLID_17_" gradientUnits="userSpaceOnUse" x1="62.9033" y1="24.0049" x2="59.3617" y2="39.9451">
<stop offset="0" style="stop-color:#FFFFFF"/>
<stop offset="0.05" style="stop-color:#FFFFFF"/>
<stop offset="1" style="stop-color:#A2C2DD"/>
</linearGradient>
<polygon fill="url(#XMLID_17_)" points="73.082,28.925 70.74,38.265 45.845,52.872 48.063,40.065 "/>
<linearGradient id="XMLID_18_" gradientUnits="userSpaceOnUse" x1="19.1543" y1="38.582" x2="24.9807" y2="21.5884">
<stop offset="0" style="stop-color:#FFFFFF"/>
<stop offset="0.05" style="stop-color:#FFFFFF"/>
<stop offset="1" style="stop-color:#A2C2DD"/>
</linearGradient>
<polygon fill="url(#XMLID_18_)" points="21.12,29.567 18.019,30.71 20.556,38.243 23.634,36.7 "/>
<linearGradient id="XMLID_19_" gradientUnits="userSpaceOnUse" x1="9.2261" y1="26.3604" x2="36.0898" y2="44.2422">
<stop offset="0" style="stop-color:#FFFFFF"/>
<stop offset="0.05" style="stop-color:#FFFFFF"/>
<stop offset="1" style="stop-color:#A2C2DD"/>
</linearGradient>
<polygon fill="url(#XMLID_19_)" points="23.634,36.7 20.556,38.243 39.4,45.563 41.146,43.267 "/>
<linearGradient id="XMLID_20_" gradientUnits="userSpaceOnUse" x1="19.6934" y1="39.0029" x2="93.3656" y2="4.4122">
<stop offset="0" style="stop-color:#FFFFFF"/>
<stop offset="0.05" style="stop-color:#FFFFFF"/>
<stop offset="1" style="stop-color:#A2C2DD"/>
</linearGradient>
<polygon fill="url(#XMLID_20_)" points="33.806,20.089 10.328,28.411 18.019,30.71 21.12,29.567 16.164,28.071 33.793,21.529 66.535,29.274 47.468,37.511 42.118,36.052 39.661,37.526 48.063,40.065 73.082,28.925 "/>
<linearGradient id="XMLID_21_" gradientUnits="userSpaceOnUse" x1="39.4258" y1="28.5796" x2="8.3824" y2="61.6018">
<stop offset="0" style="stop-color:#FFFFFF"/>
<stop offset="0.05" style="stop-color:#FFFFFF"/>
<stop offset="1" style="stop-color:#A2C2DD"/>
</linearGradient>
<polygon fill="url(#XMLID_21_)" points="10.328,28.411 13.293,39.161 45.845,52.872 48.063,40.065 39.661,37.526 34.983,43.79 20.556,38.243 18.019,30.71 "/>
</g>
<g>
<g>
<g>
<linearGradient id="XMLID_22_" gradientUnits="userSpaceOnUse" x1="33.103" y1="12.4668" x2="52.7288" y2="5.7165">
<stop offset="0" style="stop-color:#E2E6E4"/>
<stop offset="1" style="stop-color:#A3740A"/>
</linearGradient>
<polygon fill="url(#XMLID_22_)" points="46.45,9.519 38.318,8.424 33.824,10.22 41.878,11.697 "/>
<linearGradient id="XMLID_23_" gradientUnits="userSpaceOnUse" x1="25.5439" y1="21.75" x2="57.0445" y2="21">
<stop offset="0" style="stop-color:#E2E6E4"/>
<stop offset="1" style="stop-color:#A3740A"/>
</linearGradient>
<polygon fill="url(#XMLID_23_)" points="51.591,22.076 31.845,18.684 29.31,19.512 46.966,24.156 "/>
<linearGradient id="XMLID_24_" gradientUnits="userSpaceOnUse" x1="52.8838" y1="18.7173" x2="44.3838" y2="29.0923">
<stop offset="0" style="stop-color:#E6EEF4"/>
<stop offset="0.4438" style="stop-color:#A3740A"/>
<stop offset="0.9382" style="stop-color:#474105"/>
<stop offset="1" style="stop-color:#474105"/>
</linearGradient>
<polygon fill="url(#XMLID_24_)" points="41.952,32.578 38.842,34.539 47.138,23.949 51.591,22.076 "/>
<linearGradient id="XMLID_25_" gradientUnits="userSpaceOnUse" x1="47.5195" y1="3.0835" x2="41.0196" y2="23.5835">
<stop offset="0" style="stop-color:#E6EEF4"/>
<stop offset="0.4438" style="stop-color:#A3740A"/>
<stop offset="0.9382" style="stop-color:#474105"/>
<stop offset="1" style="stop-color:#474105"/>
</linearGradient>
<polygon fill="url(#XMLID_25_)" points="40.962,22.643 44.701,21.032 46.45,9.519 41.922,11.682 "/>
<linearGradient id="XMLID_26_" gradientUnits="userSpaceOnUse" x1="25.0464" y1="5.8438" x2="42.0463" y2="24.8437">
<stop offset="0" style="stop-color:#E2E6E4"/>
<stop offset="1" style="stop-color:#A3740A"/>
</linearGradient>
<polygon fill="url(#XMLID_26_)" points="34.648,20.957 33.824,10.22 42.045,11.565 40.962,22.643 47.138,23.949 38.842,34.539 29.31,19.512 "/>
</g>
</g>
</g>
</g>
</g>
</g>
</svg>
