<?xml version="1.0" encoding="UTF-8"?>
<!DOCTYPE svg PUBLIC "-//W3C//DTD SVG 1.1 Tiny//EN" "http://www.w3.org/Graphics/SVG/1.1/DTD/svg11-tiny.dtd">
<svg width="84" height="72" viewBox="0 0 84 72">
<linearGradient id="_7" gradientUnits="userSpaceOnUse" x1="30.63" y1="23.91" x2="54.4" y2="50.73">
<stop stop-color="#B3DDFF" offset="0"/>
<stop stop-color="#084296" offset="1"/>
</linearGradient>
<polygon fill="url(#_7)" points="40.726,56.427 60.604,62.542 74.271,19.167 56.646,16.417 56.771,11.292 38.021,8.667 32.183,10.511 29.482,19.638 23.217,18.489 14.521,21.542 16.874,31.178 14.147,30.75 9.73,32.166 11.147,55.917 37.063,63.333 40.563,60.501 "/>
<polygon fill="#5AA7E0" points="23.425,48.216 34.244,11.479 51.843,14.3 51.715,19.753 68.227,22.522 59.23,58.919 "/>
<polygon fill="#3366CC" points="59.232,58.573 23.25,48.198 17.316,22.562 53.136,29.74 "/>
<polygon fill="#B3DDFF" points="59.195,26.446 23.475,20.315 17.316,22.562 53.136,29.74 "/>
<polygon fill="#CFECFF" points="54.896,12.751 38.129,10.294 34.146,11.419 51.843,14.3 "/>
<polygon fill="#B3DDFF" points="71.809,20.663 54.691,18.081 51.715,19.753 68.227,22.522 "/>
<polygon fill="#0046B7" points="59.195,26.446 59.234,59.196 53.136,29.74 "/>
<polygon fill="#0046B7" points="71.809,20.663 59.234,59.196 68.227,22.522 "/>
<polygon fill="#0046B7" points="51.843,14.3 51.715,19.753 54.691,18.081 54.896,12.751 "/>
<linearGradient id="_8" gradientUnits="userSpaceOnUse" x1="34.23" y1="60" x2="50.05" y2="33.18">
<stop stop-color="#5AA7E0" offset="0"/>
<stop stop-color="#3366CC" offset="1"/>
</linearGradient>
<polygon fill="url(#_8)" points="23.425,48.216 30.102,25.411 53.146,29.961 59.234,59.196 "/>
<linearGradient id="_9" gradientUnits="userSpaceOnUse" x1="38.31" y1="38.81" x2="38.31" y2="61.08">
<stop stop-color="#0046B7" offset="0"/>
<stop stop-color="#3366CC" offset="1"/>
</linearGradient>
<polygon fill="url(#_9)" points="36.994,61.999 38.916,60.239 39.63,36.975 37.227,38.071 "/>
<polygon fill="#CFECFF" points="39.65,36.955 13.979,32.016 11.003,32.682 37.317,38.081 "/>
<polygon fill="#B3DDFF" points="35.42,60.216 13.621,53.829 12.415,34.785 35.837,39.522 "/>
<linearGradient id="_10" gradientUnits="userSpaceOnUse" x1="24.34" y1="56.77" x2="24.32" y2="53.21">
<stop stop-color="#5AA7E0" offset="0"/>
<stop stop-color="#3366CC" offset="1"/>
</linearGradient>
<path fill="url(#_10)" d="M13.333,50.052c2.275,1.297,4.619,2.645,6.604,3.451c1.616,0.664,4.841,1.854,7.892,1.154 c4.882-1.119,7.64,1.354,7.64,1.354l-0.344,3.957l-21.936-6.422L13.333,50.052z"/>
<path fill="#5AA7E0" d="M11.008,32.691l1.15,22.183l24.803,7.162l0.353-23.957L11.008,32.691z M35.068,59.593   l-21.302-6.229l-1.125-18.253l22.796,4.604L35.068,59.593z"/>
<path fill="#5AA7E0" d="M19.523,53.044c1.979,0.791,4.74,1.316,6.257,1.32c1.521-0.004,3.679,0.014,4.809-2.207  c-0.545,2.242-1.601,5.227-6.49,4.301c-2.388-0.512-5.354-1.656-6.063-2.467C18.38,54.099,19.494,53.429,19.523,53.044z"/>
<path fill="#3366CC" d="M30.59,52.175c-2.547-0.74-12.012-2.047-13.889-1.563l2.822,2.445  c1.414,0.488,4.343,1.369,6.322,1.324C27.829,54.335,29.601,53.956,30.59,52.175z"/>
<polygon fill="#B3DDFF" points="21.365,51.454 22.764,51.542 25.293,54.136 23.82,54.054 "/>
<linearGradient id="_11" gradientUnits="userSpaceOnUse" x1="16.44" y1="51.35" x2="18.8" y2="53.55">
<stop stop-color="#B3DDFF" offset="0"/>
<stop stop-color="#5AA7E0" offset="1"/>
</linearGradient>
<path fill="url(#_11)" d="M16.701,50.581c0,0,2.827,2.428,2.822,2.463c-0.082,0.441-0.454,1.342-1.14,1.254  c-0.939-0.658-1.446-1.875-1.446-1.875S16.655,51.409,16.701,50.581z"/>
<polygon fill="#5AA7E0" points="21.365,51.454 21.422,51.778 23.505,54.011 23.763,53.983 "/>
<path fill="#CFECFF" d="M16.701,50.597l2.821,2.506c1.613,0.678,4.331,1.359,6.322,1.396   c2.135,0.033,3.755-0.557,4.744-2.342C28.044,51.417,18.578,50.114,16.701,50.597z M25.512,53.962   c-1.947-0.063-4.597-0.852-5.777-1.27l-2.112-1.848c1.572-0.246,10.283,0.809,12.451,1.436   C29.096,53.649,27.443,54.022,25.512,53.962z"/>
<linearGradient id="_12" gradientUnits="userSpaceOnUse" x1="22.64" y1="43.65" x2="13.8" y2="43.27">
<stop stop-color="#5AA7E0" offset="0"/>
<stop stop-color="#3366CC" offset="1"/>
</linearGradient>
<polygon fill="url(#_12)" points="22.968,52.146 23.135,35.191 16.456,48.267 "/>
<polygon fill="#5AA7E0" points="23.875,53.142 23.319,38.403 27.864,52.677 "/>
</svg>