<?xml version="1.0" encoding="utf-8"?>
<!DOCTYPE svg PUBLIC "-//W3C//DTD SVG 1.1 Tiny//EN" "http://www.w3.org/Graphics/SVG/1.1/DTD/svg11-tiny.dtd">
<svg width="60" height="80" viewBox="0 0 60 80">
<linearGradient id="_358" gradientUnits="userSpaceOnUse" x1="20.69" y1="30.75" x2="38.19" y2="51.79">
<stop stop-color="#DEE9F3" offset="0"/>
<stop stop-color="#235487" offset="1"/>
</linearGradient>
<circle fill="url(#_358)" cx="29.527" cy="41.367" r="23.417"/>
<radialGradient id="_359" gradientUnits="userSpaceOnUse" cx="34.05" cy="26.71" r="42.04">
<stop stop-color="#FFFFFF" offset="0"/>
<stop stop-color="#A2C2DD" offset="0.53"/>
<stop stop-color="#6C83BB" offset="0.87"/>
<stop stop-color="#003D6D" offset="1"/>
</radialGradient>
<circle fill="url(#_359)" cx="29.566" cy="41.367" r="22.724"/>
<radialGradient id="_360" gradientUnits="userSpaceOnUse" cx="34.36" cy="29.04" r="28.6">
<stop stop-color="#E6EEF4" offset="0"/>
<stop stop-color="#C6DCC1" offset="0.08"/>
<stop stop-color="#91C06F" offset="0.21"/>
<stop stop-color="#6BAB33" offset="0.32"/>
<stop stop-color="#539E0E" offset="0.4"/>
<stop stop-color="#4A9900" offset="0.44"/>
<stop stop-color="#398419" offset="0.55"/>
<stop stop-color="#22663B" offset="0.71"/>
<stop stop-color="#135550" offset="0.85"/>
<stop stop-color="#0E4E58" offset="0.94"/>
</radialGradient>
<path fill="url(#_360)" d="M10.334,32.112c-0.466,0.175-0.35,0.379-0.35,0.379c0.291,0,0.554-0.087,0.641,0.612c0.088,0.699,0.729,0.378,0.758,0.174C11.412,33.073,10.8,31.938,10.334,32.112z M11.354,33.948c0.233,0.028,1.049,0.059,1.049,0.059s1.02-0.059,0.175-0.438C11.733,33.19,11.149,33.923,11.354,33.948z M18.899,42.425L17.5,40.91c0,0.006-0.123-0.936-0.32-1.165c-0.174-0.203-1.66-0.495-2.01-0.611c-0.32-0.107-0.83-1.209-1.281-1.836c-2.36-0.466-2.957-1.181-3.816-0.116c-0.121,0.149-0.205,0.312-0.266,0.483c-0.056-0.586-0.886-0.411-1.018-0.192c-0.306-0.83,0.132-1.442,0.569-2.272s-0.919-0.263-0.919-0.263c0.176-0.35,0.569-1.791,0.919-2.229c0.296-0.37-0.503,0.168-1.074,0.686c-0.012,0.031-0.025,0.061-0.037,0.092c-0.057,0.156-0.109,0.314-0.164,0.472c-0.055,0.16-0.111,0.319-0.163,0.48c-0.044,0.534-0.04,0.979,0.168,0.979c0,0,0.044,1.573,0.481,2.229s0.886,0.605,0.989,1.614c0.024,0.239-0.096,0.479-0.19,0.716c-0.559,1.396-0.974,0.991-0.974,2.346c0,0.844,0.619,2.989,1.529,4.852c2.316,1.791,1.412,3.284,2.574,4.774c2.641,7.023,3.514,6.094,3.515,6.092c1.341-3.264,2.087-3.273,2.738-4.777c0.272-0.628-0.408-0.699,0.204-1.516c0.321,0,2.378-0.37,2.477-0.67c0.007-0.13,0.646-1.117,0.641-1.253c-0.043-1.354-0.087-1.923-0.087-1.923l0.35-0.262l1.704-1.617v-1.313l-1.354-1.034L18.899,42.425z M51.091,38.463c-0.077-0.714-0.377-1.02-0.728-2.126c-0.407-0.962-0.495-1.457-0.495-1.457l-1.138-1.952l-0.086-0.611l1.66,2.447l0.582,1.544c0.277,0.801,0.438,1.107,0.496,1.923c0.129-0.046,0.362-0.098,0.666-0.155c-0.003-0.016-0.004-0.033-0.007-0.049c-0.067-0.459-0.149-0.915-0.244-1.365c-0.019-0.087-0.041-0.173-0.06-0.259c-0.08-0.356-0.168-0.71-0.264-1.06c-0.035-0.128-0.072-0.255-0.108-0.382c-0.099-0.333-0.204-0.664-0.316-0.99c-0.034-0.101-0.065-0.202-0.103-0.302c-0.147-0.412-0.307-0.818-0.479-1.218c-0.043-0.1-0.091-0.198-0.135-0.297c-0.134-0.302-0.273-0.602-0.421-0.896c-0.067-0.138-0.14-0.274-0.21-0.41c-0.141-0.268-0.286-0.531-0.438-0.792c-0.07-0.123-0.139-0.247-0.211-0.369c-0.215-0.357-0.438-0.708-0.671-1.052c-0.071-0.107-0.149-0.21-0.225-0.315c-0.173-0.247-0.351-0.491-0.532-0.73c-0.105-0.138-0.214-0.274-0.322-0.409c-0.166-0.209-0.338-0.414-0.513-0.617c-0.11-0.128-0.22-0.259-0.333-0.385c-0.27-0.299-0.544-0.592-0.828-0.876c-0.104-0.103-0.211-0.2-0.314-0.301c-0.203-0.195-0.408-0.389-0.618-0.577c-0.14-0.125-0.283-0.247-0.427-0.369c-0.188-0.161-0.381-0.317-0.573-0.472c-0.146-0.116-0.291-0.233-0.44-0.346c-0.257-0.194-0.52-0.382-0.783-0.565c-0.184-0.126-0.367-0.248-0.555-0.369c-0.232-0.154-0.47-0.304-0.711-0.449c-0.166-0.099-0.335-0.194-0.504-0.29c-0.212-0.12-0.426-0.236-0.643-0.349c-0.172-0.089-0.342-0.179-0.517-0.264c-0.265-0.13-0.534-0.252-0.805-0.372c-0.111-0.049-0.222-0.103-0.333-0.15c-0.174,0.015-0.297,0.042-0.34,0.086c-0.396,0.396-0.351,0.961-0.982,1.368c-0.297,0.191,1.012,0.671,1.943,1.341c-0.129,0.132-1.018,1.359-1.166,0.583c-0.115-0.612-2.738-1.573-2.504-1.312c-0.584,0.146-0.168,0.71,0.766,1.554c0.58,0.526,0.211,0.551,0.137,0.69c-0.186,0.35,1.152,0.072,1.285,1.083c0.07,0.537-0.061,0.14-0.266,0.395c-0.705,0.063-0.871-0.096-0.924-0.219c-0.313-0.7-0.967,0.372-1.144,0.637c-0.176,0.263-0.213,1.199-0.213,1.199l1.668,0.809l-1.397,2.098c-1.521,1.186-1.965,1.473-2.01,1.748c-0.046,0.263-1.183,3.402-0.744,4.413c0.438,1.012,2.438,3.925,3.489,4.011c1.377,0.111,5.119-0.296,5.119-0.296c0.09,0.22,0.91,0.706,0.91,0.706s1.68,0.195,1.771,0.371c0.03,0.063-1.105,1.586-0.568,2.339c1.166,1.631,1.225,3.43,0.584,4.188c-1.529,2.295-0.795,2.295-0.424,3.495c0,1.05-1.021,1.748-0.351,2.884c-0.348,0.699-0.437,1.313-0.174,1.574c0.961-0.088,2.01-0.525,2.358-1.377c0.269-0.219,0.724-0.043,0.724-0.35c0-0.174,0.785-0.678,0.985-1.147c0.216-0.098,0.484-0.622,0.855-0.797c0.742-1.552,0.262-0.882,0.932-1.836c0.722-0.284,1.748-2.797,1.748-2.797c0.088-1.923,0.06-3.495,0.847-4.457c0.35-1.138,0.29-1.573,0.553-2.447c0.176-0.585,0.248-0.564-0.058-1.603C51.675,38.871,51.354,38.784,51.091,38.463z M44.675,26.177c0.127-0.512,0.484,0.527,0.703,0.614c0,0,0.08-0.001,0.435-0.045c0.16-0.072,1.317,0.952,1.229,1.063c-0.195,0.239-0.701,0.023-0.922-0.152c-0.219-0.176-0.371-0.086-1.029-0.175C44.868,27.075,44.555,26.656,44.675,26.177z M40.398,22.614c0,0.266,0.642,0.438,0.582,1.05c-0.262,0.175-1.004-0.014-1.049-0.233l-0.289-0.874c-0.438-0.35-0.524-0.874-0.524-0.874S40.398,22.352,40.398,22.614z M46.779,30.772c-0.745,0-0.704-0.12-1.321-0.559c-0.612-0.438-0.362-0.035-0.81,0.403c-0.289,0.286-0.532-0.157-0.842-0.596c-0.307-0.44-1.332-0.546-1.332-0.546l-0.262-1.005l-2.602-0.175l-1.689,0.495l-0.611-0.292l0.176-0.196l0.925-0.27c0,0,0.448-0.863,0.932-1.257c0.41-0.335,1.214-0.345,1.214-0.345l1.928,1.233c0,0,0.135,0.6-0.041,0.818c0.658-0.045,0.84-0.914,0.84-0.914c-1.336-0.823-1.941-0.85-1.828-1.527l1.977,1.139l0.109,0.545l0.357,0.218c0,0,0.371,0.951,1.086,1.004c0.307,0.023-0.439-1.092-0.439-1.092L44.93,27.8c0.234,0.554,0.812,1.729,1.336,1.437c0.299-0.166-0.055,0.03,0.517,0.251c0.571,0.219,0.438-0.116,0.901,0.292C47.771,30.743,47.089,30.859,46.779,30.772z M31.764,20.559c-0.369,0.083-0.902-0.328-1.189-0.123c0.246,0.451,0.656,0.861,0.943,0.779s0.942-0.533,0.942-0.533S32.132,20.478,31.764,20.559z M32.255,18.907c0.163,0,0.606,0.068,0.976,0.037c-0.03-0.005-0.062-0.011-0.092-0.017c-0.49-0.077-0.984-0.136-1.484-0.182c-0.168-0.016-0.338-0.027-0.51-0.039c-0.438-0.03-0.881-0.049-1.328-0.054c-0.083-0.001-0.166-0.006-0.25-0.006c-0.089,0-0.178,0.006-0.267,0.007c-0.425,0.005-0.848,0.022-1.267,0.05c-0.177,0.012-0.355,0.025-0.531,0.041c-0.485,0.044-0.966,0.099-1.442,0.172c-0.424,0.066-0.843,0.146-1.258,0.234c-0.496,0.106-0.983,0.23-1.466,0.368c-0.139,0.04-0.28,0.077-0.418,0.119c-0.494,0.151-0.979,0.321-1.459,0.504c-0.094,0.036-0.187,0.073-0.28,0.11c-1.198,0.772-2.437,1.785-2.621,1.926c-0.342,0.263-1.885,1.329-1.885,1.329s0.441-0.826,0.496-1.176c-0.049,0.032-0.099,0.063-0.147,0.095c-0.337,0.224-0.67,0.455-0.995,0.696c-0.08,0.059-0.157,0.121-0.236,0.181c-0.289,0.221-0.573,0.448-0.851,0.683c-0.12,0.101-0.237,0.204-0.354,0.307c-0.232,0.204-0.459,0.412-0.683,0.625c-0.103,0.098-0.207,0.194-0.307,0.293c-0.304,0.3-0.6,0.607-0.886,0.924c-0.076,0.083-0.147,0.171-0.222,0.256c-0.22,0.25-0.435,0.504-0.643,0.764c-0.097,0.121-0.192,0.242-0.286,0.364c-0.199,0.258-0.393,0.522-0.581,0.789c-0.07,0.1-0.143,0.196-0.211,0.297c-0.241,0.354-0.472,0.716-0.693,1.084c-0.07,0.117-0.136,0.237-0.204,0.355c-0.157,0.273-0.31,0.55-0.457,0.831c-0.037,0.072-0.074,0.144-0.11,0.216c0.565-0.477,1.529-1.525,1.625-1.343c0.131,0.248-0.287,1.189,0.047,1.871c0.078,0.158,0.372-1.661,0.612-1.98c0.239-0.321,1.98-1.429,1.98-1.429l1.559-1.923c0,0,2.098-1.049,2.753-1.369c0.189-0.093,1.02-0.466,1.02-0.874c0-0.407,0.357-0.641,0.671-0.611c0.313,0.028-0.059,0.146,0.146,0.451c0.204,0.307,0.729,0.393,0.729,0.393s0.531-0.865,0.691-1.201c0.16-0.335-0.415-1.376-0.415-1.376l2.841-1.876c0.737-0.328,2.454-0.546,2.354-0.479c-0.652,0.442-1.089,1.219-1.839,2.078c0.092,0.191,0.404,0.239,1.059,0.032c0.483-0.043,1.745-1.138,2.403-0.918c0.66,0.219,1.525,0.026,2.141-0.367c0.218-0.045,0.525,0.087,1.054-0.178C31.262,19.728,31.991,18.907,32.255,18.907z"/>
</svg>