<?xml version="1.0" encoding="UTF-8"?>
<!DOCTYPE svg PUBLIC "-//W3C//DTD SVG 1.1 Tiny//EN" "http://www.w3.org/Graphics/SVG/1.1/DTD/svg11-tiny.dtd">
<svg width="32" height="22" viewBox="0 0 32 22">
<rect height="2" width="2" x="2" y="4"/>
<rect height="2" width="2" x="2" y="8"/>
<rect height="2" width="2" x="2" y="12"/>
<rect height="2" width="2" x="2" y="16"/>
<rect height="2" width="2" x="2" y="20"/>
<rect height="2" width="2" x="6" y="20"/>
<rect height="2" width="2" x="10" y="20"/>
<rect height="2" width="2" x="6" y="4"/>
<rect height="2" width="2" x="10" y="4"/>
<rect height="2" width="2" x="12"/>
<rect height="2" width="2" x="16"/>
<rect height="2" width="2" x="20"/>
<rect height="2" width="2" x="24"/>
<rect height="2" width="2" x="24" y="16"/>
<rect height="2" width="2" x="20" y="16"/>
<rect height="2" width="2" x="24" y="4"/>
<rect height="2" width="2" x="24" y="8"/>
<rect height="2" width="2" x="24" y="12"/>
<rect height="2" width="2" x="14" y="4"/>
<rect height="2" width="2" x="14" y="8"/>
<rect height="2" width="2" x="14" y="12"/>
<rect height="2" width="4" x="14" y="16"/>
<rect height="2" width="2" x="14" y="20"/>
</svg>