<?xml version="1.0" encoding="UTF-8"?>
<!DOCTYPE svg PUBLIC "-//W3C//DTD SVG 1.1 Tiny//EN" "http://www.w3.org/Graphics/SVG/1.1/DTD/svg11-tiny.dtd">
<svg baseProfile="tiny" height="60" version="1.1" viewBox="0 0 60 60" width="60" xmlns="http://www.w3.org/2000/svg" xmlns:xlink="http://www.w3.org/1999/xlink">
<path d="M49.945,50.503H17.512c-3.859,0-6.553-2.696-6.553-6.556V20.101v-0.125h-0.125H3.329V15.33c0-3.857,2.694-6.551,6.551-6.551  h32.435c3.858,0,6.554,2.694,6.554,6.551v23.852v0.125h0.126h7.504v4.641C56.498,47.807,53.803,50.503,49.945,50.503L49.945,50.503z   M25.972,42.871v0.126v0.95c0,0.97-0.196,1.916-0.586,2.813l-0.074,0.176h0.189h24.444c1.898,0,2.988-1.088,2.988-2.988v-0.95  v-0.126h-0.127H26.097H25.972L25.972,42.871z M13.812,12.343l0.074,0.175c0.423,0.99,0.637,2.098,0.637,3.29v28.139  c0,1.9,1.089,2.988,2.989,2.988h1.908c1.897,0,2.987-1.088,2.987-2.988v-4.641h22.77h0.126V39.18V15.33  c0-1.897-1.089-2.987-2.988-2.987H14.001H13.812L13.812,12.343z M8.985,12.479l-0.033,0.008c-1.329,0.332-2.061,1.341-2.061,2.842  v0.955v0.126h0.125h3.816h0.125v-0.126v-0.477c0-1.25-0.338-2.842-1.941-3.319L8.985,12.479L8.985,12.479z"/>
<path d="M25.026,25.093c0.196-0.241,0.396-0.466,0.61-0.652c-0.282-0.318-0.525-0.668-0.737-1.04h-2.046  c-1.208,0-2.401,2.828-3.222,5.206c-0.82,2.375-1.245,4.102-1.245,4.102h1.924c0-0.298,0.396-1.867,1.047-3.791  c0.708-1.896,1.233-3.034,1.817-3.825H25.026z M24.457,22.43c-0.217-0.615-0.34-1.274-0.346-1.962  c-0.713-0.45-1.192-1.239-1.192-2.143c0-1.398,1.14-2.538,2.538-2.538c0.242,0,0.472,0.045,0.694,0.108  c0.495-0.441,1.061-0.807,1.681-1.067c-0.678-0.462-1.496-0.732-2.375-0.732c-2.333,0-4.229,1.897-4.229,4.229  C21.227,20.312,22.606,21.979,24.457,22.43z M29.741,27.189c0.196-0.241,0.397-0.466,0.611-0.653  c-0.282-0.317-0.525-0.667-0.737-1.04h-2.046c-1.208,0-2.402,2.828-3.222,5.206c-0.82,2.376-1.245,4.103-1.245,4.103h1.924  c0-0.3,0.396-1.867,1.047-3.791c0.708-1.896,1.233-3.035,1.817-3.825H29.741L29.741,27.189z M25.942,20.42  c0,1.988,1.38,3.655,3.23,4.106c-0.217-0.616-0.341-1.275-0.346-1.963c-0.714-0.45-1.192-1.239-1.192-2.143  c0-1.398,1.139-2.538,2.538-2.538c0.242,0,0.473,0.045,0.693,0.108c0.496-0.44,1.062-0.807,1.682-1.067  c-0.677-0.461-1.495-0.732-2.375-0.732C27.839,16.191,25.942,18.088,25.942,20.42z M30.659,22.517c0,2.332,1.896,4.229,4.229,4.229  c2.33,0,4.229-1.897,4.229-4.229s-1.899-4.23-4.229-4.23C32.555,18.287,30.659,20.185,30.659,22.517z M34.889,19.979  c1.398,0,2.536,1.139,2.536,2.538s-1.138,2.537-2.536,2.537s-2.537-1.138-2.537-2.537S33.49,19.979,34.889,19.979z M40.648,32.798  c-0.82-2.377-2.016-5.204-3.224-5.204h-2.504h-2.637c-1.208,0-2.401,2.827-3.222,5.204s-1.244,4.104-1.244,4.104h1.923  c0-0.299,0.397-1.867,1.046-3.793c0.709-1.896,1.232-3.033,1.818-3.823h2.314h2.184c0.584,0.79,1.109,1.929,1.816,3.823  c0.65,1.926,1.048,3.494,1.048,3.793h1.925C41.893,36.9,41.469,35.175,40.648,32.798z"/>
<rect fill="none" height="60" width="60"/>
</svg>
