<?xml version="1.0" encoding="UTF-8" standalone="no"?>
<!DOCTYPE svg PUBLIC "-//W3C//DTD SVG 1.1 Tiny//EN" "http://www.w3.org/Graphics/SVG/1.1/DTD/svg11-tiny.dtd">
<svg xmlns="http://www.w3.org/2000/svg" xmlns:xlink="http://www.w3.org/1999/xlink" baseProfile="tiny" height="22" version="1.1" viewBox="0 0 22 22" width="22">
<g>
<rect fill="none" height="22" width="22"/>
<path d="M20.289,5.986c1.303-1.208,0.285-2.491,0.285-2.491c-2.628-2.904-6.295-2.44-6.764-2.347   C11.341,2.445,4.06,9.133,1.279,13.523c-0.828,3.016,0.922,5.922,2.081,6.934c1.482,1.145,2.629-0.17,2.629-0.17l2.746-3.658   c0.669-0.768,0.482-1.871,0.004-2.344c-0.065-0.076-0.549-0.579-1.027-1.443l5.132-5.133c0.248,0.152,0.826,0.486,1.329,0.944   s1.419,0.87,2.491,0.051C16.664,8.704,20.196,6.049,20.289,5.986z" fill-opacity="0.4" stroke-opacity="0.4"/>
<path d="M19.888,3.92c-1.406-1.396-3.4-2.349-5.844-2.01C10.482,4.258,4.716,9.898,1.99,13.853   c-0.836,3.344,1.904,6.011,1.93,6.034c0,0,0.73,0.611,1.429-0.078l2.746-3.658c0.133-0.166,0.545-0.727,0.028-1.354   c-0.025-0.031-0.805-0.846-1.388-2.109l5.954-5.953c1.264,0.584,2.008,1.314,2.016,1.322c0.029,0.029,0.652,0.709,1.445,0.037   l3.66-2.746C20.529,4.711,19.888,3.92,19.888,3.92z" fill="#FFFFFF"/>
</g>
</svg>
