<?xml version="1.0" encoding="UTF-8" standalone="no"?>
<!DOCTYPE svg PUBLIC "-//W3C//DTD SVG 1.1 Tiny//EN" "http://www.w3.org/Graphics/SVG/1.1/DTD/svg11-tiny.dtd">
<svg xmlns="http://www.w3.org/2000/svg" xmlns:xlink="http://www.w3.org/1999/xlink" width="30" height="40" viewBox="0 0 30 40">
<rect fill="none" height="40" width="30"/>
<ellipse cx="15.49" cy="20.432" fill="none" rx="13.259" ry="18.003" stroke="#39B54A" stroke-width="0.5282"/>
<path d="M16.646,18.13c-4.14,0-7.495,2.489-7.495,5.562c0,3.074,3.355,5.563,7.495,5.563 c4.139,0,7.494-2.488,7.494-5.563C24.141,20.619,20.784,18.13,16.646,18.13z" fill="#73BE1E" fill-opacity="0.6"/>
<path d="M16.908,20.703c-2.019,0-3.653,1.215-3.653,2.713s1.635,2.711,3.653,2.711 c2.017,0,3.652-1.213,3.652-2.711S18.925,20.703,16.908,20.703z" fill="#17594C" fill-opacity="0.9"/>
<linearGradient id="SVGID_1" gradientUnits="userSpaceOnUse" x1="14.99" y1="17.7" x2="17.68" y2="17.7">
<stop stop-color="#DEE6F1" offset="0"/>
<stop stop-color="#000000" offset="1"/>
</linearGradient>
<polygon fill="url(#SVGID_1)" points="16.271,11.296 16.271,11.296 16.389,24.025 17.208,24.167 17.493,11.238 "/>
<linearGradient id="SVGID_2" gradientUnits="userSpaceOnUse" x1="14.77" y1="16.08" x2="18.16" y2="18.04">
<stop stop-color="#DEE6F1" offset="0"/>
<stop stop-color="#000000" offset="1"/>
</linearGradient>
<polygon fill="url(#SVGID_2)" points="17.204,11.381 17.204,11.381 17.208,24.167 17.755,23.529 17.775,11.139 "/>
<linearGradient id="SVGID_3" gradientUnits="userSpaceOnUse" x1="16.75" y1="10.45" x2="18.52" y2="15.32">
<stop stop-color="#DEE6F1" offset="0"/>
<stop stop-color="#000000" offset="1"/>
</linearGradient>
<polygon fill="url(#SVGID_3)" points="16.283,11.294 16.283,11.294 16.939,11.071 17.775,11.139 17.204,11.381 "/>
<linearGradient id="SVGID_4" gradientUnits="userSpaceOnUse" x1="24.42" y1="10.63" x2="28.24" y2="20.41">
<stop stop-color="#DEE6F1" offset="0"/>
<stop stop-color="#000000" offset="1"/>
</linearGradient>
<path d="M26.604,13.593c0.008,2.415,0.018,4.83,0.024,7.244c0.181-0.276,0.362-0.568,0.544-0.876 c-0.018-2.326-0.035-4.652-0.053-6.979C26.947,13.2,26.775,13.403,26.604,13.593z" fill="url(#SVGID_4)"/>
<linearGradient id="SVGID_5" gradientUnits="userSpaceOnUse" x1="22.17" y1="12.52" x2="23.15" y2="19.72">
<stop stop-color="#DEE6F1" offset="0"/>
<stop stop-color="#000000" offset="1"/>
</linearGradient>
<path d="M17.178,11.735c3.135-1.184,6.27,2.49,9.403,1.883c0.181-0.197,0.358-0.408,0.539-0.636 c-3.123,1.157-6.246-2.451-9.369-1.798C17.561,11.352,17.368,11.534,17.178,11.735z" fill="url(#SVGID_5)"/>
<path d="M26.634,20.84c-3.146,0.594-6.291-3.172-9.437-2.071c-0.004-2.346-0.008-4.691-0.014-7.038 c3.135-1.173,6.27,2.498,9.402,1.886C26.604,16.024,26.618,18.433,26.634,20.84z"/>
<path d="M19.841,11.792c-0.442-0.117-0.887-0.189-1.329-0.191c0.004,0.434,0.008,0.867,0.012,1.301 c0.442,0.004,0.887,0.078,1.328,0.198C19.848,12.664,19.846,12.228,19.841,11.792z" fill="#FFFFFF"/>
<path d="M22.525,12.847c-0.448-0.197-0.897-0.402-1.348-0.588c0.004,0.438,0.008,0.876,0.01,1.313 c0.449,0.187,0.896,0.393,1.347,0.593C22.529,13.726,22.527,13.286,22.525,12.847z" fill="#FFFFFF"/>
<path d="M17.339,14.499c0.397-0.127,0.8-0.179,1.197-0.173c-0.004-0.475-0.009-0.949-0.015-1.424v-0.001 c-0.397-0.004-0.799,0.052-1.199,0.182C17.328,13.555,17.333,14.026,17.339,14.499z" fill="#FFFFFF"/>
<path d="M19.863,14.532c0.443,0.123,0.89,0.291,1.334,0.479c-0.004-0.479-0.006-0.958-0.01-1.438c0,0,0,0,0-0.001 c-0.445-0.186-0.892-0.352-1.336-0.473c0,0,0,0,0,0.001C19.855,13.578,19.859,14.056,19.863,14.532z" fill="#FFFFFF"/>
<path d="M22.541,15.606c0.45,0.201,0.9,0.395,1.354,0.556c-0.004-0.481-0.006-0.963-0.008-1.444c0,0,0-0.001,0-0.002 c-0.451-0.158-0.902-0.352-1.353-0.551l0,0C22.536,14.646,22.538,15.126,22.541,15.606z" fill="#FFFFFF"/>
<path d="M19.863,14.535c0-0.001,0-0.002,0-0.003c-0.442-0.121-0.885-0.199-1.327-0.206c0,0.001,0,0.003,0,0.003 c0.006,0.474,0.01,0.946,0.014,1.42c0.441,0.011,0.884,0.09,1.325,0.215C19.871,15.486,19.867,15.011,19.863,14.535z" fill="#FFFFFF"/>
<path d="M21.208,16.446c0.446,0.19,0.896,0.399,1.341,0.601c-0.003-0.479-0.005-0.959-0.008-1.438 c0-0.001,0-0.003,0-0.003c-0.448-0.2-0.896-0.407-1.344-0.596c0,0,0,0.001,0,0.002C21.201,15.491,21.204,15.968,21.208,16.446z" fill="#FFFFFF"/>
<path d="M17.354,15.912c0.006,0.47,0.01,0.94,0.016,1.41c0.398-0.12,0.797-0.165,1.195-0.153 c-0.004-0.473-0.01-0.946-0.015-1.42C18.15,15.74,17.752,15.788,17.354,15.912z" fill="#FFFFFF"/>
<path d="M19.875,15.964c0.003,0.476,0.007,0.951,0.012,1.426c0.444,0.128,0.889,0.299,1.331,0.489 c-0.004-0.478-0.007-0.955-0.01-1.433C20.764,16.258,20.318,16.088,19.875,15.964z" fill="#FFFFFF"/>
<path d="M22.549,17.047c0.004,0.479,0.006,0.957,0.008,1.436c0.45,0.205,0.899,0.401,1.35,0.563 c-0.002-0.48-0.004-0.96-0.006-1.439C23.447,17.445,22.999,17.25,22.549,17.047z" fill="#FFFFFF"/>
<path d="M25.245,13.74c-0.455-0.062-0.909-0.185-1.364-0.344c0.002,0.439,0.004,0.88,0.006,1.319 c0.454,0.16,0.908,0.285,1.362,0.347C25.248,14.623,25.246,14.182,25.245,13.74z" fill="#FFFFFF"/>
<path d="M25.253,16.512c0.416,0.059,0.832,0.063,1.248-0.004c-0.002-0.484-0.002-0.969-0.003-1.453 c-0.416,0.069-0.833,0.065-1.249,0.008c0,0,0,0.001,0,0.002C25.251,15.547,25.252,16.028,25.253,16.512z" fill="#FFFFFF"/>
<path d="M23.895,16.219c0,0.48,0.004,0.961,0.006,1.441c0.451,0.129,0.904,0.222,1.357,0.252 c-0.002-0.48-0.003-0.963-0.005-1.444c0,0,0-0.001,0-0.002c-0.453-0.029-0.905-0.122-1.36-0.249 C23.895,16.218,23.895,16.219,23.895,16.219z" fill="#FFFFFF"/>
<path d="M18.575,18.456c0.44,0.016,0.881,0.1,1.321,0.229c-0.004-0.432-0.008-0.863-0.01-1.295 c-0.441-0.126-0.883-0.208-1.324-0.221C18.566,17.598,18.57,18.027,18.575,18.456z" fill="#FFFFFF"/>
<path d="M21.227,19.179c0.446,0.192,0.893,0.404,1.338,0.608c-0.002-0.435-0.004-0.869-0.008-1.304 c-0.445-0.203-0.893-0.412-1.339-0.604C21.221,18.312,21.225,18.745,21.227,19.179z" fill="#FFFFFF"/>
<path d="M23.904,19.046c0.003,0.436,0.004,0.871,0.007,1.307c0.45,0.163,0.901,0.292,1.354,0.358 c-0.002-0.437-0.004-0.873-0.004-1.309C24.811,19.336,24.357,19.208,23.904,19.046L23.904,19.046z" fill="#FFFFFF"/>
<path d="M26.505,19.403c0-0.482-0.001-0.964-0.002-1.445c-0.415,0.066-0.83,0.06-1.245,0.001 c0.001,0.481,0.004,0.961,0.004,1.443C25.678,19.462,26.091,19.47,26.505,19.403z" fill="#FFFFFF"/>
<linearGradient id="SVGID_6" gradientUnits="userSpaceOnUse" x1="10.8" y1="19.5" x2="13.66" y2="25.14">
<stop stop-color="#A2C2DD" offset="0.1"/>
<stop stop-color="#6C83BB" offset="0.71"/>
<stop stop-color="#003D6D" offset="0.99"/>
</linearGradient>
<path d="M8.147,15.671c0,1.122,0.579,2.135,1.522,2.717c-0.361,0.11-1.224,0.374-1.224,0.374L6.984,23.98 l6.309,1.309l2.975-2.249l-1.781-4.693c0,0-0.811-0.063-1.235-0.097c0.813-0.6,1.308-1.556,1.308-2.577 c0-1.769-1.438-3.207-3.206-3.207C9.585,12.464,8.147,13.903,8.147,15.671z" fill="url(#SVGID_6)"/>
<linearGradient id="SVGID_7" gradientUnits="userSpaceOnUse" x1="15.17" y1="15.83" x2="13.44" y2="25.3">
<stop stop-color="#FFFFFF" offset="0"/>
<stop stop-color="#A2C2DD" offset="0.35"/>
<stop stop-color="#6C83BB" offset="0.7"/>
<stop stop-color="#003D6D" offset="1"/>
</linearGradient>
<polygon fill="url(#SVGID_7)" points="13.263,25.15 12.277,19.328 14.396,18.467 16.116,22.994 "/>
<linearGradient id="SVGID_8" gradientUnits="userSpaceOnUse" x1="7.52" y1="17.93" x2="14.01" y2="19.14">
<stop stop-color="#FFFFFF" offset="0.15"/>
<stop stop-color="#A2C2DD" offset="1"/>
</linearGradient>
<polygon fill="url(#SVGID_8)" points="14.396,18.467 10.827,18.183 8.549,18.863 12.277,19.328 "/>
<linearGradient id="SVGID_9" gradientUnits="userSpaceOnUse" x1="13.47" y1="18.48" x2="2.85" y2="33.11">
<stop stop-color="#FFFFFF" offset="0"/>
<stop stop-color="#A2C2DD" offset="0.35"/>
<stop stop-color="#6C83BB" offset="0.7"/>
<stop stop-color="#003D6D" offset="1"/>
</linearGradient>
<polygon fill="url(#SVGID_9)" points="13.263,25.15 12.277,19.328 8.549,18.863 7.145,23.882 "/>
<polygon fill="#A2C2DD" points="11.782,18.719 13.804,18.424 12.143,18.219 "/>
<radialGradient id="SVGID_10" gradientUnits="userSpaceOnUse" cx="10.72" cy="14.94" r="7.01">
<stop stop-color="#FFFFFF" offset="0"/>
<stop stop-color="#A2C2DD" offset="0.35"/>
<stop stop-color="#6C83BB" offset="0.7"/>
<stop stop-color="#003D6D" offset="1"/>
</radialGradient>
<circle cx="11.354" cy="15.671" fill="url(#SVGID_10)" r="3.079"/>
<linearGradient id="SVGID_11" gradientUnits="userSpaceOnUse" x1="7.6" y1="16.31" x2="15.37" y2="12.91">
<stop stop-color="#E6EEF4" offset="0"/>
<stop stop-color="#C6DCC1" offset="0.08"/>
<stop stop-color="#91C06F" offset="0.21"/>
<stop stop-color="#6BAB33" offset="0.32"/>
<stop stop-color="#539E0E" offset="0.4"/>
<stop stop-color="#4A9900" offset="0.44"/>
<stop stop-color="#398419" offset="0.55"/>
<stop stop-color="#22663B" offset="0.71"/>
<stop stop-color="#135550" offset="0.85"/>
<stop stop-color="#0E4E58" offset="0.94"/>
</linearGradient>
<path d="M13.228,13.563c-0.047,1.894-4.199,1.007-4.953,2.108c0-1.651,1.378-3.078,3.079-3.078 c1.7,0,3.079,1.43,3.079,3.078C13.823,15.531,13.181,14.671,13.228,13.563z" fill="url(#SVGID_11)"/>
</svg>