<?xml version="1.0" encoding="UTF-8"?>
<!DOCTYPE svg PUBLIC "-//W3C//DTD SVG 1.1 Tiny//EN" "http://www.w3.org/Graphics/SVG/1.1/DTD/svg11-tiny.dtd">
<svg width="16" height="16" viewBox="0 0 16 16">
<path fill="#FFFFFF" d="M8.609,3.942c0.208,0,0.406,0.034,0.606,0.061C8.695,3.763,8.121,3.619,7.511,3.619 c-2.254,0-4.089,1.834-4.089,4.089c0,1.223,0.551,2.31,1.405,3.06c-0.428-0.686-0.686-1.489-0.686-2.356 C4.141,5.943,6.141,3.942,8.609,3.942z"/>
<path fill="#A2C2DD" d="M9.216,4.003c-0.2-0.027-0.399-0.061-0.606-0.061c-2.468,0-4.469,2.001-4.469,4.469 c0,0.868,0.258,1.671,0.686,2.356c0.72,0.633,1.653,1.029,2.684,1.029c2.254,0,4.089-1.834,4.089-4.089 C11.6,6.064,10.619,4.652,9.216,4.003z"/>
<path fill="#A2C2DD" d="M12.221,5.799c0.24,0.59,0.379,1.233,0.379,1.909c0,2.749-2.194,4.98-4.92,5.072 c0.3,0.064,0.611,0.1,0.93,0.1c2.468,0,4.469-2.001,4.469-4.469C13.078,7.433,12.754,6.535,12.221,5.799z"/>
<path fill="#496DA2" d="M12.6,7.708c0-0.676-0.139-1.319-0.379-1.909c-0.757-1.861-2.58-3.18-4.71-3.18 c-2.806,0-5.089,2.283-5.089,5.089s2.283,5.089,5.089,5.089c0.058,0,0.111-0.015,0.168-0.017 C10.406,12.688,12.6,10.457,12.6,7.708z M7.511,11.797c-1.031,0-1.964-0.396-2.684-1.029c-0.854-0.75-1.405-1.836-1.405-3.06 c0-2.254,1.834-4.089,4.089-4.089c0.61,0,1.185,0.144,1.705,0.384C10.619,4.652,11.6,6.064,11.6,7.708 C11.6,9.962,9.765,11.797,7.511,11.797z"/>
</svg>