<?xml version="1.0" encoding="UTF-8"?>
<!DOCTYPE svg PUBLIC "-//W3C//DTD SVG 1.1 Tiny//EN" "http://www.w3.org/Graphics/SVG/1.1/DTD/svg11-tiny.dtd">
<svg width="32" height="22" viewBox="0 0 32 22">
<path d="M25.984,15.619c0-0.082,0.008-0.164,0-0.244V0.084l-15,2.308v12.897 c-1.155-0.217-2.632,0.097-3.875,0.911c-1.992,1.304-2.629,3.396-1.717,4.785c0.909,1.39,3.471,1.313,5.461,0.009 c1.306-0.854,2.028-2.022,2.123-3.119h0.008c0,0,0-0.094,0-0.256c0-0.082,0.008-0.164,0-0.244V8.108l11-1.692v6.874 c-1.155-0.217-2.632,0.097-3.875,0.911c-1.992,1.304-2.629,3.396-1.717,4.785c0.909,1.39,3.471,1.313,5.461,0.009 c1.306-0.854,2.028-2.022,2.123-3.119h0.008V15.619z M12.984,6.084V4.108c1.342-0.207,9.223-1.419,11-1.692v1.977L12.984,6.084z "/>
</svg>