<?xml version="1.0" encoding="UTF-8" standalone="no"?>
<!DOCTYPE svg PUBLIC "-//W3C//DTD SVG 1.1 Tiny//EN" "http://www.w3.org/Graphics/SVG/1.1/DTD/svg11-tiny.dtd">
<svg xmlns="http://www.w3.org/2000/svg" xmlns:xlink="http://www.w3.org/1999/xlink" width="16" height="16" viewBox="0 0 16 16">
<rect fill="none" height="16" width="16"/>
<path d="M7.979,2.738L2.684,5.617l9.785,1.511L7.979,2.738z M6.568,11.065L2.684,5.617l0.555,5.948l8.94,1.91 l0.038,0.02l0.252-6.366L6.568,11.065z" fill="#A2C2DD"/>
<polygon fill="#496DA2" points="13.352,6.676 12.469,7.128 12.469,7.128 12.469,7.128 12.469,7.128 12.217,13.448 8.783,9.555 8.063,10.026 11.421,13.303 12.198,13.459 12.217,13.461 12.217,13.475 12.217,13.477 12.219,13.477 13.171,12.915 "/>
<polygon fill="#496DA2" points="6.012,10.278 5.637,9.758 3.219,11.555 3.7,11.655 "/>
<polygon fill="#A2C2DD" points="6.574,11.086 12.469,7.128 2.684,5.617 2.684,5.617 "/>
<polygon fill="#496DA2" points="12.469,7.128 13.352,6.676 8.397,2.515 7.979,2.738 7.979,2.738 "/>
<polygon fill="#E1EBF4" points="6.568,11.065 7.094,10.743 3.07,5.673 2.684,5.617 2.684,5.617 2.684,5.617 "/>
</svg>