<?xml version="1.0" encoding="UTF-8"?>
<!DOCTYPE svg PUBLIC "-//W3C//DTD SVG 1.1 Tiny//EN" "http://www.w3.org/Graphics/SVG/1.1/DTD/svg11-tiny.dtd">
<svg width="96" height="96" viewBox="0 0 96 96">
<path d="M14.049,14.071l21.133,21.132c0.843-0.843,6.58-5.673,12.815-5.673c6.205,0,12.008,4.775,12.852,5.618 l21.073-21.101C72.865,4.988,60.82,0,48.008,0C35.181,0,23.12,4.998,14.049,14.071z" fill-opacity="0.01" />
<path d="M15.584,15.606l19.598,19.597c1.253-1.253,6.934-5.673,12.815-5.673c5.821,0,11.598,4.366,12.852,5.618 l19.536-19.566C71.74,6.933,60.241,2.171,48.008,2.171C35.761,2.171,24.246,6.943,15.584,15.606z" fill-opacity="0.02" />
<path d="M17.119,17.141l18.063,18.062c1.663-1.664,7.295-5.673,12.815-5.673c5.403,0,11.187,3.958,12.852,5.618 L78.85,17.116C70.614,8.878,59.66,4.342,48.008,4.342C36.341,4.343,25.371,8.888,17.119,17.141z" fill-opacity="0.04" />
<path d="M18.655,18.676l16.526,16.526c2.073-2.074,7.771-5.673,12.815-5.673c5.019,0,10.778,3.549,12.852,5.618 l16.466-16.496C69.489,10.824,59.08,6.514,48.008,6.514C36.921,6.514,26.497,10.833,18.655,18.676z" fill-opacity="0.07" />
<path d="M20.19,20.211l14.991,14.991c2.482-2.483,8.279-5.673,12.815-5.673c4.498,0,10.368,3.14,12.852,5.618 l14.932-14.96C68.363,12.77,58.5,8.685,48.008,8.685C37.501,8.685,27.622,12.778,20.19,20.211z" fill-opacity="0.11" />
<path d="M48.008,10.856c-9.927,0-19.261,3.868-26.283,10.891l13.457,13.456c2.893-2.894,8.724-5.673,12.815-5.673 c3.933,0,9.958,2.731,12.852,5.618l13.396-13.425C67.239,14.715,57.92,10.856,48.008,10.856z" fill-opacity="0.13" />
<path d="M48,30.508c4.823,0,9.191,1.953,12.355,5.111l12.357-12.381C59.064,9.588,36.925,9.599,23.264,23.262 L35.632,35.63C38.796,32.465,43.169,30.508,48,30.508z" fill="#87A8CB"/>
<linearGradient id="_3" gradientUnits="userSpaceOnUse" x1="47.95" y1="29.7" x2="47.95" y2="13.66">
<stop stop-color="#FFFFFF" offset="0.15"/>
<stop stop-color="#DEE9F3" offset="0.38"/>
<stop stop-color="#CADCEC" offset="0.66"/>
<stop stop-color="#A2C2DD" offset="0.97"/>
</linearGradient>
<path d="M47.837,13.894c-8.748,0-17.043,3.294-23.367,9.118c1.029,1.042,10.649,10.519,11.587,11.468 c3.341-3.098,7.106-4.778,11.666-4.778c4.554,0,8.822,1.714,12.162,4.806c0.938-0.951,10.522-10.449,11.55-11.491 C65.082,17.009,56.572,13.894,47.837,13.894z" fill="url(#_3)"/>
<path d="M71.534,23.016c-13.22-12.265-33.885-12.252-47.092,0h1.046c12.761-11.333,32.229-11.346,45.001,0 H71.534z" fill="#FFFFFF"/>
<linearGradient id="_4" gradientUnits="userSpaceOnUse" x1="47.99" y1="37.24" x2="47.99" y2="20.14">
<stop stop-color="#87A8CB" offset="0"/>
<stop stop-color="#FFFFFF" offset="1"/>
</linearGradient>
<path d="M70.464,22.994c-0.897,0.882-9.974,9.88-10.69,10.588c-3.435-2.605-7.592-4.072-11.821-4.072 c-4.225,0-8.378,1.463-11.808,4.062c-0.558-0.55-9.72-9.609-10.684-10.56H24.47c1.32,1.305,10.482,10.375,11.587,11.468 c3.36-2.725,7.521-4.27,11.896-4.27c4.38,0,8.57,1.564,11.933,4.297c1.107-1.093,10.301-10.208,11.624-11.513H70.464z" fill="url(#_4)"/>
<path d="M64.982,27.963c0,0-5.097-4.487-17.141-4.487c-10.979,0-17.073,4.487-17.073,4.487 c-9.488-6.681,7.314-12.962,17.028-12.962C57.508,15.001,74.723,21.22,64.982,27.963z" fill="#FFFFFF" fill-opacity="0.3" />
<polygon fill="#CADCEC" points="45.806,17.425 45.806,28.442 38.3,22.846 "/>
<polygon fill="#A2C2DD" points="45.806,17.425 45.384,18.262 38.68,23.139 38.3,22.846 "/>
<polygon fill="#A2C2DD" points="45.799,28.438 45.384,28.146 45.384,18.262 45.806,17.425 "/>
<rect fill="#CADCEC" height="11.017" width="2.81" x="49.594" y="17.427"/>
<rect fill="#A2C2DD" height="0.443" width="2.81" x="49.594" y="17.422"/>
<polygon fill="#A2C2DD" points="50.03,28.442 49.592,28.442 49.592,17.429 50.036,17.429 "/>
</svg>