<?xml version="1.0" encoding="UTF-8" standalone="no"?>
<!DOCTYPE svg PUBLIC "-//W3C//DTD SVG 1.1 Tiny//EN" "http://www.w3.org/Graphics/SVG/1.1/DTD/svg11-tiny.dtd">
<svg xmlns="http://www.w3.org/2000/svg" xmlns:xlink="http://www.w3.org/1999/xlink" baseProfile="tiny" height="32" version="1.1" viewBox="0 0 38 32" width="38">
<g>
<rect fill="none" height="32" width="38"/>
<path d="M13.768,18.613l7.85-7.848c1.419,0.743,1.507,0.953,2.23,1.54c0.723,0.587,1.691,1.118,3.157,0.078   l5.354-4.02c1.274-1.222,0.597-2.576,0.279-3.052l0.001-0.001l-0.023-0.035c-0.701-1.009-4.951-4.321-9.621-3.175   c-0.543,0.335-5.474,4.022-9.379,7.866c-3.607,3.55-7.701,8.581-8.419,9.737c-1.031,3.938,0.844,7.677,2.966,9.811   c0.857,0.679,2.211,0.846,3.177-0.13l4.076-5.416c0.656-0.952,0.75-1.983,0.017-2.958C15.362,20.92,14.524,20.054,13.768,18.613z" fill-opacity="0.4" stroke-opacity="0.4"/>
<path d="M32.09,16.653H21.907c-1.244,0.003-2.251,1.01-2.254,2.256v10.18c0,1.246,1.01,2.253,2.254,2.256H32.09   c1.244-0.003,2.254-1.01,2.254-2.256v-10.18C34.344,17.663,33.337,16.656,32.09,16.653z" fill-opacity="0.4" stroke-opacity="0.4"/>
<path d="M31.958,5.733c-0.008-0.013-0.014-0.028-0.022-0.037l-0.007,0.006c-0.034-0.037-3.008-3.574-8.5-2.924   c-0.102,0.012-5.334,3.844-9.247,7.756c-5.563,5.563-8.286,9.615-8.286,9.616c-1.08,5.355,2.77,8.742,2.807,8.775   c0,0,1.062,0.89,2.078-0.113l3.994-5.321c0.193-0.241,0.793-1.057,0.041-1.969c-0.037-0.045-1.17-1.229-2.019-3.067l8.66-8.659   c1.838,0.849,2.921,1.911,2.933,1.923c0.043,0.043,0.947,1.031,2.104,0.054l5.322-3.994C32.241,7.384,32.633,6.736,31.958,5.733z" fill="#FFFFFF"/>
<path d="M32.091,17.455H21.909c-0.803,0-1.455,0.653-1.455,1.454V29.09c0,0.803,0.652,1.454,1.455,1.454h10.183   c0.802,0,1.454-0.651,1.454-1.454V18.909C33.545,18.108,32.893,17.455,32.091,17.455z M30.186,26.293l-1.559-1.557   c0,0-1.932,1.935-2.744,2.745v0.002c-1.349,1.395-3.918,0.724-3.94-2.753c0.165,1.082,1.415,2.231,2.462,1.301l2.758-2.762   l-1.558-1.558l6.456-1.874L30.186,26.293z" fill="#FFFFFF"/>
</g>
</svg>
