<?xml version="1.0" encoding="UTF-8"?>
<!DOCTYPE svg PUBLIC "-//W3C//DTD SVG 1.1 Tiny//EN" "http://www.w3.org/Graphics/SVG/1.1/DTD/svg11-tiny.dtd">
<svg baseProfile="tiny" height="44px" version="1.1" viewBox="0 0 44 44" width="44px" x="0px" xmlns="http://www.w3.org/2000/svg" xmlns:xlink="http://www.w3.org/1999/xlink" y="0px">
<g>
<path d="M29.122,41.441c-2.855,0-5.55-1.028-7.667-2.911H5.932H3.332v-2.6V5.157v-2.6h2.601h16.073   c3.902,0,6.363,1.93,8.255,3.819c1.983,1.99,3.917,4.246,3.917,8.01V19.5c1.149,0.559,2.207,1.31,3.114,2.218   c4.503,4.504,4.503,11.835,0,16.34C35.11,40.239,32.21,41.441,29.122,41.441L29.122,41.441z" fill="#FFFFFF" fill-opacity="0.6" stroke-opacity="0.6"/>
<g>
<g>
<linearGradient gradientUnits="userSpaceOnUse" id="SVGID_1_" x1="18.7563" x2="18.7563" y1="-8.2627" y2="26.0038">
<stop offset="0" style="stop-color:#CCCCCC"/>
<stop offset="1" style="stop-color:#000000"/>
</linearGradient>
<path d="M32.38,36.732h-0.8H5.933H5.133v-0.8V5.157v-0.8h0.799h16.073     c3.238,0,5.269,1.584,6.98,3.296c1.857,1.86,3.395,3.649,3.395,6.733v21.545V36.732L32.38,36.732z" fill="url(#SVGID_1_)" fill-opacity="0.7" stroke-opacity="0.7"/>
</g>
</g>
<linearGradient gradientUnits="userSpaceOnUse" id="SVGID_2_" x1="29.0723" x2="29.916" y1="10.2295" y2="9.3858">
<stop offset="0" style="stop-color:#F2F2F2"/>
<stop offset="0.1924" style="stop-color:#EDEDED"/>
<stop offset="0.416" style="stop-color:#DFDFDF"/>
<stop offset="0.6553" style="stop-color:#C8C8C8"/>
<stop offset="0.9038" style="stop-color:#A8A8A8"/>
<stop offset="1" style="stop-color:#999999"/>
</linearGradient>
<path d="M31.579,14.387c0,2.518,0,21.545,0,21.545H5.933V5.156c0,0,14.381,0,16.072,0   c2.779,0,4.57,1.217,6.416,3.063C30.263,10.063,31.579,11.652,31.579,14.387z" fill="url(#SVGID_2_)"/>
<linearGradient gradientUnits="userSpaceOnUse" id="SVGID_3_" x1="22.9141" x2="29.8435" y1="16.3867" y2="9.4571">
<stop offset="0" style="stop-color:#F2F2F2"/>
<stop offset="0.1924" style="stop-color:#EDEDED"/>
<stop offset="0.416" style="stop-color:#DFDFDF"/>
<stop offset="0.6553" style="stop-color:#C8C8C8"/>
<stop offset="0.9038" style="stop-color:#A8A8A8"/>
<stop offset="1" style="stop-color:#999999"/>
</linearGradient>
<path d="M31.579,14.387c0,2.518,0,21.545,0,21.545H5.933V5.156c0,0,14.381,0,16.072,0   c3.422,0,4.645,2.28,4.963,4.512C29.304,9.986,31.579,11.051,31.579,14.387z" fill="url(#SVGID_3_)"/>
<polygon fill="url(#SVGID_4_)" fill-opacity="0.85" points="31.579,28.066 31.579,35.932 5.933,35.932 5.933,13.705  " stroke-opacity="0.85"/>
<g>
<g>
<rect fill="url(#SVGID_5_)" height="1.828" width="13.9" x="13.856" y="17.521"/>
<rect fill="url(#SVGID_5_)" height="1.828" width="13.9" x="13.856" y="13.289"/>
<linearGradient gradientUnits="userSpaceOnUse" id="SVGID_7_" x1="17.5327" x2="17.5327" y1="7.6367" y2="41.6859">
<stop offset="0" style="stop-color:#666666"/>
<stop offset="1" style="stop-color:#CCCCCC"/>
</linearGradient>
<polygon fill="url(#SVGID_7_)" points="13.856,27.799 20.483,27.802 21.209,25.981 13.856,25.971    "/>
<linearGradient gradientUnits="userSpaceOnUse" id="SVGID_8_" x1="19.689" x2="19.689" y1="7.5342" y2="41.8467">
<stop offset="0" style="stop-color:#666666"/>
<stop offset="1" style="stop-color:#CCCCCC"/>
</linearGradient>
<polygon fill="url(#SVGID_8_)" points="13.856,21.738 13.856,23.566 22.873,23.583 25.521,21.75    "/>
<defs>
<linearGradient gradientUnits="userSpaceOnUse" id="SVGID_5_" x1="20.8062" x2="20.8062" y1="7.666" y2="41.6607">
<stop offset="0" style="stop-color:#666666"/>
<stop offset="1" style="stop-color:#CCCCCC"/>
</linearGradient>
</defs>
</g>
<g>
<rect fill="#E6EAEF" fill-opacity="0.5" height="0.626" stroke-opacity="0.5" width="13.9" x="13.856" y="17.521"/>
<rect fill="#E6EAEF" fill-opacity="0.5" height="0.627" stroke-opacity="0.5" width="13.9" x="13.856" y="13.289"/>
<polygon fill="#E6EAEF" fill-opacity="0.5" points="13.856,26.598 20.865,26.604 21.184,25.968 13.856,25.971    " stroke-opacity="0.5"/>
<polygon fill="#E6EAEF" fill-opacity="0.5" points="13.856,21.738 13.856,22.365 24.4,22.378 25.605,21.733    " stroke-opacity="0.5"/>
</g>
<g>
<rect fill="url(#SVGID_9_)" height="1.828" width="2.3" x="9.856" y="17.521"/>
<rect fill="url(#SVGID_9_)" height="1.828" width="2.3" x="9.856" y="13.289"/>
<linearGradient gradientUnits="userSpaceOnUse" id="SVGID_11_" x1="11.0063" x2="11.0063" y1="7.666" y2="41.6607">
<stop offset="0" style="stop-color:#666666"/>
<stop offset="1" style="stop-color:#CCCCCC"/>
</linearGradient>
<rect fill="url(#SVGID_11_)" height="1.828" width="2.3" x="9.856" y="25.971"/>
<linearGradient gradientUnits="userSpaceOnUse" id="SVGID_12_" x1="11.0063" x2="11.0063" y1="7.6616" y2="41.6654">
<stop offset="0" style="stop-color:#666666"/>
<stop offset="1" style="stop-color:#CCCCCC"/>
</linearGradient>
<rect fill="url(#SVGID_12_)" height="1.828" width="2.3" x="9.856" y="21.738"/>
<defs>
<linearGradient gradientUnits="userSpaceOnUse" id="SVGID_9_" x1="11.0063" x2="11.0063" y1="7.666" y2="41.6607">
<stop offset="0" style="stop-color:#666666"/>
<stop offset="1" style="stop-color:#CCCCCC"/>
</linearGradient>
</defs>
</g>
<g>
<rect fill="#E6EAEF" fill-opacity="0.5" height="0.626" stroke-opacity="0.5" width="2.3" x="9.856" y="17.521"/>
<rect fill="#E6EAEF" fill-opacity="0.5" height="0.627" stroke-opacity="0.5" width="2.3" x="9.856" y="13.289"/>
<rect fill="#E6EAEF" fill-opacity="0.5" height="0.627" stroke-opacity="0.5" width="2.3" x="9.856" y="25.971"/>
<rect fill="#E6EAEF" fill-opacity="0.5" height="0.627" stroke-opacity="0.5" width="2.3" x="9.856" y="21.738"/>
</g>
</g>
<polygon fill="url(#SVGID_4_)" fill-opacity="0.3" points="31.579,28.066 31.579,35.932 5.933,35.932 5.933,13.705  " stroke-opacity="0.3"/>
<linearGradient gradientUnits="userSpaceOnUse" id="SVGID_14_" x1="18.7563" x2="18.7563" y1="32.2988" y2="8.4357">
<stop offset="0" style="stop-color:#808080"/>
<stop offset="0.2099" style="stop-color:#7B7B7B"/>
<stop offset="0.4539" style="stop-color:#6D6D6D"/>
<stop offset="0.7148" style="stop-color:#555555"/>
<stop offset="0.9861" style="stop-color:#353535"/>
<stop offset="1" style="stop-color:#333333"/>
</linearGradient>
<path d="M26.948,9.689c-0.318-2.233-1.521-4.533-4.943-4.533c-1.691,0-16.072,0-16.072,0   v30.775h25.646c0,0,0-19.027,0-21.545C31.579,11.051,29.284,10.008,26.948,9.689z M30.896,35.248H6.62V5.84h15.385   c2.676,0,4.436,0.68,4.932,3.859c3.074,0.539,3.959,1.4,3.959,4.688V35.248z" fill="url(#SVGID_14_)" fill-opacity="0.4" stroke-opacity="0.4"/>
<g>
<g>
<g>
<linearGradient gradientUnits="userSpaceOnUse" id="SVGID_15_" x1="29.124" x2="29.124" y1="12.5308" y2="33.176">
<stop offset="0" style="stop-color:#CCCCCC"/>
<stop offset="1" style="stop-color:#000000"/>
</linearGradient>
<path d="M29.123,39.64c-2.606,0-5.055-1.015-6.896-2.856      c-3.802-3.801-3.802-9.988,0-13.794c1.841-1.841,4.289-2.855,6.896-2.855c2.605,0,5.054,1.014,6.897,2.855      c3.801,3.806,3.801,9.993,0,13.794C34.177,38.625,31.729,39.64,29.123,39.64L29.123,39.64z" fill="url(#SVGID_15_)" fill-opacity="0.7" stroke-opacity="0.7"/>
</g>
</g>
<g>
<linearGradient gradientUnits="userSpaceOnUse" id="SVGID_16_" x1="29.123" x2="29.123" y1="35.7598" y2="18.3091">
<stop offset="0" style="stop-color:#004A6E"/>
<stop offset="1" style="stop-color:#000000"/>
</linearGradient>
<path d="M22.792,23.555c-3.496,3.498-3.496,9.166,0,12.664c3.497,3.496,9.167,3.496,12.663,0     c3.496-3.498,3.496-9.166,0-12.664C31.958,20.059,26.288,20.059,22.792,23.555z M22.792,23.555     c-3.496,3.498-3.496,9.166,0,12.664c3.497,3.496,9.167,3.496,12.663,0c3.496-3.498,3.496-9.166,0-12.664     C31.958,20.059,26.288,20.059,22.792,23.555z M33.812,34.575c-2.59,2.589-6.787,2.589-9.377,0.001     c-2.588-2.59-2.59-6.787,0-9.379c2.59-2.588,6.787-2.588,9.375,0C36.399,27.787,36.401,31.983,33.812,34.575z" fill="url(#SVGID_16_)"/>
<linearGradient gradientUnits="userSpaceOnUse" id="SVGID_17_" x1="29.167" x2="29.167" y1="18.2686" y2="26.1271">
<stop offset="0" style="stop-color:#FFFFFF"/>
<stop offset="1" style="stop-color:#004A6E"/>
</linearGradient>
<path d="M36.151,26.834c0.244,0.529,0.55-0.075,0.309-0.49c-3.69-6.326-11.432-5.918-14.602,0     c-0.197,0.494,0.044,0.94,0.279,0.547C25.334,21.546,32.209,21.308,36.151,26.834z" fill="url(#SVGID_17_)"/>
<linearGradient gradientUnits="userSpaceOnUse" id="SVGID_18_" x1="29.1016" x2="29.1016" y1="34.9258" y2="37.1761">
<stop offset="0" style="stop-color:#004A6E"/>
<stop offset="1" style="stop-color:#000000"/>
</linearGradient>
<path d="M34.202,34.508c-2.842,2.779-7.285,2.727-10.178,0.002c-1.141-1.076-1.506-0.707,0,0.801     c2.811,2.811,7.367,2.811,10.178-0.002C35.708,33.803,35.274,33.459,34.202,34.508z" fill="url(#SVGID_18_)"/>
<radialGradient cx="-49.6348" cy="-78.2598" gradientTransform="matrix(0.5762 -0.5762 0.5762 0.5762 102.8288 50.6969)" gradientUnits="userSpaceOnUse" id="SVGID_19_" r="14.4826">
<stop offset="0" style="stop-color:#FFFFFF"/>
<stop offset="0.5659" style="stop-color:#EBC400"/>
<stop offset="1" style="stop-color:#CC4B00"/>
</radialGradient>
<path d="M33.952,34.715c-2.668,2.666-6.992,2.666-9.658,0c-2.667-2.666-2.668-6.99,0-9.658     c2.666-2.666,6.99-2.664,9.656,0C36.616,27.723,36.618,32.049,33.952,34.715z" fill="url(#SVGID_19_)"/>
<linearGradient gradientTransform="matrix(0.8431 0 0 0.4624 1.4567 -49.1772)" gradientUnits="userSpaceOnUse" id="SVGID_20_" x1="32.6885" x2="32.6885" y1="157.9619" y2="169.3496">
<stop offset="0" style="stop-color:#FFFFFF"/>
<stop offset="1" style="stop-color:#FFCC14"/>
</linearGradient>
<path d="M32.878,26.545c-0.007,3.54-7.714,3.354-7.725,0C25.142,22.952,32.886,22.989,32.878,26.545z" fill="url(#SVGID_20_)"/>
<linearGradient gradientTransform="matrix(0.0017 -1 1 0.0017 1226.1163 307.4677)" gradientUnits="userSpaceOnUse" id="SVGID_21_" x1="276.9824" x2="276.9824" y1="-1202.665" y2="-1195.4111">
<stop offset="0" style="stop-color:#999999"/>
<stop offset="1" style="stop-color:#000000"/>
</linearGradient>
<polygon fill="url(#SVGID_21_)" points="28.708,25.134 28.601,30.343 26.117,30.35 26.114,31.76 30.006,31.755 30.115,25.136         "/>
</g>
</g>
<defs>
<linearGradient gradientUnits="userSpaceOnUse" id="SVGID_4_" x1="18.7563" x2="18.7563" y1="35.9316" y2="13.7977">
<stop offset="0" style="stop-color:#F2F2F2"/>
<stop offset="1" style="stop-color:#FFFFFF"/>
</linearGradient>
</defs>
</g>
</svg>
