<?xml version="1.0" encoding="UTF-8"?>
<!DOCTYPE svg PUBLIC "-//W3C//DTD SVG 1.1 Tiny//EN" "http://www.w3.org/Graphics/SVG/1.1/DTD/svg11-tiny.dtd">
<svg width="84" height="72" viewBox="-21.034 -18.157 84 72">
<linearGradient id="_8" gradientUnits="userSpaceOnUse" x1="22.27" y1="16.86" x2="35.85" y2="43.6">
<stop stop-color="#A2C2DD" offset="0.1"/>
<stop stop-color="#6C83BB" offset="0.71"/>
<stop stop-color="#003D6D" offset="0.99"/>
</linearGradient>
<path fill="url(#_8)" d="M41.295-5.607L9.54-9.63C6.113-9.928,2.928-7.142,2.331,1.925 c-0.514,7.84,0.664,20.657,0.267,23.071c-1.516-1.011-4.127-0.683-5.161,2.59c-0.541,1.712-0.242,4.085,1.691,5.238 c0,0,30.079,12.158,31.868,12.098c3.619-0.07,7.821-0.905,7.821-19.939c0-2.83-0.215-18.078-0.197-18.88l4.031,0.767 C45.746,2.027,44.993-5.05,41.295-5.607z"/>
<linearGradient id="_9" gradientUnits="userSpaceOnUse" x1="23.3" y1="-7.04" x2="21.03" y2="10.47">
<stop stop-color="#FFFFFF" offset="0.1"/>
<stop stop-color="#D1E1EE" offset="0.7"/>
<stop stop-color="#A2C2DD" offset="1"/>
</linearGradient>
<path fill="url(#_9)" d="M36.841,37.449c0,0-1.5,8.676-7.552,6.184c0,0-25.146-16.207-27.189-17.213 c4.016,0.638-4.76-36.485,7.508-35.428l31.441,3.969c-0.829,1.307-4.164,6.01-4.164,6.01L36.841,37.449z"/>
<linearGradient id="_10" gradientUnits="userSpaceOnUse" x1="42.34" y1="24.73" x2="40.23" y2="-4.86">
<stop stop-color="#FFFFFF" offset="0"/>
<stop stop-color="#A2C2DD" offset="0.35"/>
<stop stop-color="#6C83BB" offset="0.7"/>
<stop stop-color="#003D6D" offset="1"/>
</linearGradient>
<path fill="url(#_10)" d="M40.698-5.071c3.538,0.064,4.607,6.791,1.617,11.473l-4.837-0.956 C37.479,5.448,37.16-5.134,40.698-5.071z"/>
<path fill="#496DA2" d="M30.44,33.648c2.671,0.487,2.707,3.51,1.406,6.146l-5.438-1.538 C26.408,38.258,27.278,33.369,30.44,33.648z"/>
<linearGradient id="_11" gradientUnits="userSpaceOnUse" x1="16.15" y1="29.15" x2="12.43" y2="39.08">
<stop stop-color="#FFFFFF" offset="0"/>
<stop stop-color="#A2C2DD" offset="0.35"/>
<stop stop-color="#6C83BB" offset="0.7"/>
<stop stop-color="#003D6D" offset="1"/>
</linearGradient>
<path fill="url(#_11)" d="M30.44,33.648L1.47,25.007c-3.749-0.276-5.05,5.506-1.942,7.36l29.905,11.31 C25.898,42.294,25.366,33.973,30.44,33.648z"/>
<linearGradient id="_12" gradientUnits="userSpaceOnUse" x1="36.77" y1="-6.85" x2="35.52" y2="38.52">
<stop stop-color="#87A8CB" offset="0"/>
<stop stop-color="#235487" offset="1"/>
</linearGradient>
<path fill="url(#_12)" d="M40.825-5.071c-7.363,3.592,3.688,50.767-9.563,49.152 C41.463,42.135,29.552-5.049,40.825-5.071z"/>
<linearGradient id="_13" gradientUnits="userSpaceOnUse" x1="14.04" y1="-2.45" x2="22.45" y2="21.77">
<stop stop-color="#E6EEF4" offset="0"/>
<stop stop-color="#A3740A" offset="0.44"/>
<stop stop-color="#474105" offset="0.94"/>
</linearGradient>
<polygon fill="url(#_13)" points="31.333,17.273 8.618,12.021 13.909,22.373 16.248,21.164 13.889,16.542 13.903,16.546 13.901,16.546 31.472,20.61 "/>
<polygon fill="url(#_13)" points="25.894,3.382 23.556,4.593 25.908,9.213 8.337,5.146 8.473,8.483 31.186,13.733 "/>
</svg>