<?xml version="1.0" encoding="UTF-8"?>
<!DOCTYPE svg PUBLIC "-//W3C//DTD SVG 1.1 Tiny//EN" "http://www.w3.org/Graphics/SVG/1.1/DTD/svg11-tiny.dtd">
<svg width="12" height="32" viewBox="-0.5 -0.101 12 32">
<path fill="#DEE9F3" d="M6,26.899c-2.484,0-4.5-1.154-4.5-3.617V22.61c0-2.463,2.016-3.711,4.5-3.711l0,0 c2.486,0,4.5,1.248,4.5,3.711v0.672C10.5,25.745,8.486,26.899,6,26.899L6,26.899z"/>
<path fill-opacity="0.5" fill="#87A8CB" d="M0.5,22.61v0.672c0,3.012,2.467,4.617,5.5,4.617c3.031,0,5.5-1.605,5.5-4.617V22.61 c0-3.01-2.469-4.711-5.5-4.711C2.967,17.899,0.5,19.601,0.5,22.61z M1.5,23.282V22.61c0-2.459,2.018-3.711,4.5-3.711 c2.48,0,4.5,1.252,4.5,3.711v0.672c0,2.461-2.02,3.617-4.5,3.617C3.518,26.899,1.5,25.743,1.5,23.282z"/>
</svg>