<?xml version="1.0" encoding="UTF-8"?>
<!DOCTYPE svg PUBLIC "-//W3C//DTD SVG 1.1 Tiny//EN" "http://www.w3.org/Graphics/SVG/1.1/DTD/svg11-tiny.dtd">
<svg width="28" height="32" viewBox="-0.033 -0.017 28 32">
<linearGradient id="_4" gradientUnits="userSpaceOnUse" x1="5.07" y1="2.46" x2="5.07" y2="6.43">
<stop stop-color="#FFFFFF" offset="0"/>
<stop stop-color="#DEE9F3" offset="0.9"/>
</linearGradient>
<path fill="url(#_4)" d="M-0.033,2.985h3.25c3.758,0,5.566,1.518,6.951,3.741H-0.033V2.985z"/>
<linearGradient id="_5" gradientUnits="userSpaceOnUse" x1="11.46" y1="3.2" x2="11.46" y2="31.98">
<stop stop-color="#CADCEC" offset="0"/>
<stop stop-color="#9DB2C4" offset="1"/>
</linearGradient>
<path fill="url(#_5)" d="M-0.033,31.982h22.988c-0.631-0.896-1.283-2.221-2.08-3.77l-7.557-15.368l-1.977-3.95 c-0.525-1.071-1.047-2.061-1.674-2.912h-9.701V31.982z"/>
<linearGradient id="_6" gradientUnits="userSpaceOnUse" x1="8.36" y1="4.48" x2="8.36" y2="13.96">
<stop stop-color="#DEE9F3" offset="0.13"/>
<stop stop-color="#CFDDEA" offset="0.52"/>
<stop stop-color="#BACDDE" offset="0.94"/>
</linearGradient>
<path fill="url(#_6)" d="M11.342,8.895c-0.553-1.125-1.102-2.157-1.77-3.037H2.967v0.125c3.377,0,6.096,1.003,7.125,3.75 c0.375,1,0.752,2.125,1,4h2.664L11.342,8.895z"/>
<path fill-opacity="0.5" fill="#556E84" d="M21.764,27.756l-7.547-15.349L12.24,8.454c-1.738-3.539-3.57-6.469-9.023-6.469h-3.25 c0,0.5,0,0.75,0,1h3.25c4.887,0,6.48,2.562,8.125,5.91l1.977,3.95l7.557,15.368c0.797,1.549,1.449,2.873,2.08,3.77h1.262 C23.555,31.199,22.816,29.799,21.764,27.756z"/>
<path fill-opacity="0.5" fill="#556E84" d="M-0.033,30.984h23.625c0.22,0.367,0.355,0.629,0.625,0.998h-24.25V30.984z"/>
</svg>