<?xml version="1.0" encoding="UTF-8"?>
<!DOCTYPE svg PUBLIC "-//W3C//DTD SVG 1.1 Tiny//EN" "http://www.w3.org/Graphics/SVG/1.1/DTD/svg11-tiny.dtd">
<svg width="12" height="200" viewBox="-0.5 -0.03 12 200">
<path fill-opacity="0.7" fill="#003184" d="M-0.5,63.431v101.201c0,2.91,2.804,5.338,6,5.338s6-2.428,6-5.338V63.431 c0-1.461-0.681-2.852-1.915-3.912C8.439,58.534,6.951,57.97,5.5,57.97C2.304,57.97-0.5,60.521-0.5,63.431z"/>
<linearGradient id="_3" gradientUnits="userSpaceOnUse" x1="5.5" y1="58.97" x2="5.5" y2="168.97">
<stop stop-color="#DEDEED" offset="0"/>
<stop stop-color="#9646AC" offset="1"/>
</linearGradient>
<path fill="url(#_3)" d="M5.5,168.97c-2.484,0-5-1.875-5-4.338V63.431c0-2.463,2.516-4.461,5-4.461l0,0 c2.487,0,5,1.998,5,4.461v101.201C10.5,167.095,7.987,168.97,5.5,168.97L5.5,168.97z"/>
<linearGradient id="_4" gradientUnits="userSpaceOnUse" x1="5.5" y1="58.97" x2="5.5" y2="113.97">
<stop stop-color="#FFFFFF" offset="0"/>
<stop stop-color="#CEDFF2" offset="1"/>
</linearGradient>
<path fill="url(#_4)" d="M5.5,58.97c-2.484,0-5,1.998-5,4.461v50.539h1V63.845c0-1.916,2.067-3.422,4-3.422 c1.935,0,4,1.506,4,3.422v50.125h1V63.431C10.5,60.968,7.987,58.97,5.5,58.97z"/>
<path fill="#CADCEC" d="M9.5,164.624c0,1.916-2.065,3.346-4,3.346c-1.933,0-4-1.43-4-3.346V113.97h-1v50.662 c0,2.463,2.516,4.338,5,4.338c2.487,0,5-1.875,5-4.338V113.97h-1V164.624z"/>
</svg>