<?xml version="1.0" encoding="UTF-8"?>
<!DOCTYPE svg PUBLIC "-//W3C//DTD SVG 1.1 Tiny//EN" "http://www.w3.org/Graphics/SVG/1.1/DTD/svg11-tiny.dtd">
<svg width="84" height="58" viewBox="0 0 84 58">
<linearGradient id="_8" gradientUnits="userSpaceOnUse" x1="47.41" y1="2.7" x2="35.58" y2="55.36">
<stop stop-color="#A2C2DD" offset="0.1"/>
<stop stop-color="#6C83BB" offset="0.71"/>
<stop stop-color="#003D6D" offset="0.99"/>
</linearGradient>
<path fill="url(#_8)" d="M10.13,27.268l0.031,2.998l17.17,22.566c0,0,11.898-1.041,19.853-10.193 c6.649-7.654,9.735-13.14,14.078-16.034c6.627-4.418,13.508-4.293,13.508-4.293l-0.063-4.86L50.023,4.446 c0,0-9.374,0.411-15.843,6.881c-5.035,5.035-5.881,6.653-11.268,11.205C18.432,26.319,10.13,27.268,10.13,27.268z"/>
<linearGradient id="_9" gradientUnits="userSpaceOnUse" x1="64.75" y1="-4.77" x2="23.58" y2="46.56">
<stop stop-color="#FFFFFF" offset="0"/>
<stop stop-color="#496DA2" offset="0.71"/>
<stop stop-color="#235487" offset="0.99"/>
</linearGradient>
<path fill="url(#_9)" d="M11.583,28.266c6.886-1.022,11.424-2.437,19.233-11.546 C38.621,7.611,45.341,5.789,49.625,5.648l23.223,12.745c-8.01,0.412-16.263,6.333-21.343,13.503 c-5.075,7.172-12.973,15.295-23.827,16.471L11.583,28.266z"/>
<linearGradient id="_10" gradientUnits="userSpaceOnUse" x1="24.88" y1="38.4" x2="44.86" y2="11.95">
<stop stop-color="#DEE9F3" offset="0"/>
<stop stop-color="#235487" offset="1"/>
</linearGradient>
<path fill="url(#_10)" d="M14.83,32.393c2.937-0.189,10.169-1.502,16.372-8.556l11.384,10.438 c-4.283,5.354-11.675,9.68-18.135,10.229L14.83,32.393z"/>
<linearGradient id="_11" gradientUnits="userSpaceOnUse" x1="45.23" y1="21.87" x2="33.66" y2="39.88">
<stop stop-color="#DEE9F3" offset="0"/>
<stop stop-color="#235487" offset="1"/>
</linearGradient>
<path fill="url(#_11)" d="M32.631,22.378c3.143-3.653,7.119-9.021,14.227-12.339l13.076,8.055 c-4.16,2.145-8.277,4.822-15.732,14.47L32.631,22.378z"/>
<path fill="#D6E4F3" d="M49.047,9.143c0,0,4.496-1.039,5.063-0.98l13.992,7.749c0,0-2.494-0.021-5.763,1.216L49.047,9.143z"/>
<polygon fill="#FFFFFF" points="12.521,29.546 14.686,29.287 16.171,31.195 14.198,31.611 "/>
<path fill="#FFFFFF" d="M16.912,28.731l1.656,1.944c0,0,1.712-0.458,2.257-0.75l-1.682-1.904 C18.423,28.318,16.912,28.731,16.912,28.731z"/>
<path fill="#FFFFFF" d="M20.997,27.186l1.723,1.91c0,0,1.625-0.876,1.924-1.09l-1.766-1.853 C22.573,26.427,20.997,27.186,20.997,27.186z"/>
<path fill="#FFFFFF" d="M24.428,25.092l1.791,1.809c0,0,1.52-1.115,1.639-1.295l-1.852-1.8 C25.5,24.283,24.428,25.092,24.428,25.092z"/>
<path fill="#FFFFFF" d="M27.4,22.612l1.838,1.729c0,0,1.376-1.365,1.448-1.489l-1.881-1.7 C28.54,21.554,27.4,22.612,27.4,22.612z"/>
<path fill="#FFFFFF" d="M30.037,19.826l1.923,1.702c0,0,1.264-1.455,1.34-1.58l-1.894-1.615 C31.196,18.624,30.037,19.826,30.037,19.826z"/>
<polygon fill="#FFFFFF" points="32.641,16.978 34.538,18.564 35.909,17.045 33.972,15.485 "/>
<polygon fill="#FFFFFF" points="35.243,14.186 37.203,15.706 38.702,14.293 36.656,12.793 "/>
<path fill="#FFFFFF" d="M38.089,11.604l2.049,1.439l1.635-1.271l-2.012-1.408C39.761,10.363,38.206,11.453,38.089,11.604z"/>
<path fill="#FFFFFF" d="M41.402,9.35l2.022,1.354c0,0,1.813-0.966,2.012-0.987l-2.08-1.341 C43.128,8.467,41.662,9.162,41.402,9.35z"/>
<path fill="#FFFFFF" d="M45.197,7.653l2.131,1.257c0,0,2.139-0.598,2.438-0.656L47.58,6.979 C47.044,7.059,45.4,7.576,45.197,7.653z"/>
<polygon fill="#FFFFFF" points="49.693,6.578 51.923,7.852 53.152,7.671 50.828,6.408 "/>
<path fill="#FFFFFF" d="M25.153,45.318l4.039,1.584c0,0-2.379,0.426-2.487,0.414L25.153,45.318z"/>
<path fill="#FFFFFF" d="M38.797,39.641l1.813,1.846c0,0,1.699-1.448,1.868-1.635l-1.842-1.805 C40.214,38.471,38.915,39.564,38.797,39.641z"/>
<path fill="#FFFFFF" d="M42.178,36.514l1.872,1.768l1.623-1.791l-1.894-1.707C43.779,34.781,42.493,36.217,42.178,36.514z"/>
<path fill="#FFFFFF" d="M45.208,33.122l1.924,1.687c0,0,1.403-1.683,1.526-1.89l-1.95-1.632 C46.445,31.675,45.438,32.846,45.208,33.122z"/>
<path fill="#FFFFFF" d="M48.109,29.619l1.94,1.609l1.527-1.9l-1.972-1.558C49.607,27.771,48.46,29.216,48.109,29.619z"/>
<path fill="#FFFFFF" d="M51.061,26.162l1.979,1.521c0,0,1.563-1.627,1.688-1.757l-2.006-1.508 C52.725,24.419,51.191,26.068,51.061,26.162z"/>
<path fill="#FFFFFF" d="M54.305,22.951l2.068,1.437c0.193-0.212,1.74-1.476,1.896-1.549l-2.093-1.41 C55.88,21.632,54.596,22.663,54.305,22.951z"/>
<path fill="#FFFFFF" d="M58.072,20.176l2.109,1.363c0,0,1.545-0.925,2.229-1.281l-2.129-1.336 C59.686,19.169,58.225,20.041,58.072,20.176z"/>
<path fill="#FFFFFF" d="M62.491,17.964l2.204,1.303c0,0,2.326-0.782,2.73-0.867l-2.207-1.286 C64.594,17.21,62.491,17.964,62.491,17.964z"/>
<path fill="#FFFFFF" d="M67.93,16.558l2.26,1.24l1.148-0.14l-2.316-1.272C69.021,16.386,68.279,16.477,67.93,16.558z"/>
<linearGradient id="_12" gradientUnits="userSpaceOnUse" x1="35.44" y1="-6.66" x2="54.44" y2="46.01">
<stop stop-color="#FFFFFF" offset="0"/>
<stop stop-color="#496DA2" offset="0.71"/>
<stop stop-color="#235487" offset="0.99"/>
</linearGradient>
<path fill="url(#_12)" d="M27.79,48.16c7.954-1.07,15.153-5.823,21.151-13.656c7.106-9.284,14.129-15.572,23.9-16.077 v2.188c-7.383,0.705-14.021,3.826-20.226,12.233c-6.203,8.405-11.885,16.209-24.81,17.895L27.79,48.16z"/>
<linearGradient id="_13" gradientUnits="userSpaceOnUse" x1="28.82" y1="30.05" x2="19.65" y2="39.55">
<stop stop-color="#FFFFFF" offset="0"/>
<stop stop-color="#496DA2" offset="0.71"/>
<stop stop-color="#235487" offset="0.99"/>
</linearGradient>
<polygon fill="url(#_13)" points="27.79,48.16 11.583,28.266 11.63,29.863 27.807,50.738 "/>
<polygon fill="#7D97C6" points="27.061,47.273 27.071,49.811 25.618,47.9 25.455,45.25 "/>
<polygon fill="#7D97C6" points="12.619,29.52 12.808,31.334 14.36,33.391 14.271,31.609 "/>
<path fill="#FFFFFF" d="M13.702,34.505c-2.775,0-6.576,0.659-7.539,6.354l-0.145,0.857c0,0,6.393,0,7.151,0 c0.229,0.412,0.571,1.027,0.787,1.422c-0.216,0.393-0.558,1.008-0.787,1.418c-0.759,0-7.151,0-7.151,0l0.145,0.859 c0.963,5.693,4.764,6.352,7.539,6.352c2.188,0,4.138-1.834,5.704-3.311c0.847-0.799,1.646-1.549,2.069-1.549h19.581l0.219-0.241 c0.42-0.462,1.396-1.728,1.418-3.499v-0.063c-0.021-1.773-0.999-3.037-1.418-3.5l-0.219-0.239H21.475 c-0.423,0-1.223-0.751-2.067-1.546C17.839,36.342,15.89,34.505,13.702,34.505z"/>
<linearGradient id="_14" gradientUnits="userSpaceOnUse" x1="14.24" y1="32.25" x2="32.04" y2="53.46">
<stop stop-color="#E6EEF4" offset="0"/>
<stop stop-color="#9646AC" offset="0.44"/>
<stop stop-color="#3D013F" offset="0.94"/>
</linearGradient>
<path fill="url(#_14)" d="M41.958,43.139c0-0.009,0.002-0.017,0.002-0.022h-0.004c-0.018-1.544-0.902-2.657-1.227-3.013 c-0.414,0-19.254,0-19.254,0c-0.717,0-1.494-0.734-2.574-1.75c-1.471-1.385-3.302-3.11-5.199-3.11 c-3.08,0-5.995,0.903-6.812,5.737c1.158,0,6.714,0,6.714,0l1.194,2.158l-1.194,2.154c0,0-5.556,0-6.714,0 c0.817,4.835,3.732,5.738,6.812,5.738c1.897,0,3.729-1.725,5.199-3.11c1.08-1.015,1.857-1.749,2.574-1.749c0,0,18.84,0,19.254,0 c0.324-0.355,1.209-1.47,1.227-3.013h0.004C41.96,43.152,41.958,43.146,41.958,43.139z"/>
</svg>