<?xml version="1.0" encoding="UTF-8"?>
<!DOCTYPE svg PUBLIC "-//W3C//DTD SVG 1.1 Tiny//EN" "http://www.w3.org/Graphics/SVG/1.1/DTD/svg11-tiny.dtd">
<svg width="84" height="72" viewBox="0 0 84 72">
<linearGradient id="_31" gradientUnits="userSpaceOnUse" x1="45.49" y1="37.38" x2="53.01" y2="56.59">
<stop stop-color="#87A8CB" offset="0"/>
<stop stop-color="#235487" offset="1"/>
</linearGradient>
<path fill="url(#_31)" d="M80.371,21.957L53.48,14.693c-0.131-0.036-0.59,0.374-0.815,0.629 c-0.015-0.445-0.767-1.425-0.767-1.425c-10.627-4.282-21.61-2.641-21.72-2.624c-0.081,0.013-1.208,1.242-1.28,1.323 c-0.219,0.04-1.763,0.348-1.815,0.407L4.938,38.293l1.832,2.682c0,0,10.428,1.137,10.474,1.123 c-0.564,0.65-1.677,2.143-1.667,2.177l0.442,1.743l29.096,15.913l4.664-6.718l11.049,4.774c0.166,0.073,19.229-33.88,19.232-33.929 L80.371,21.957z"/>
<linearGradient id="_32" gradientUnits="userSpaceOnUse" x1="31.55" y1="32.88" x2="71.26" y2="36.52">
<stop stop-color="#FFFFFF" offset="0.05"/>
<stop stop-color="#A2C2DD" offset="1"/>
</linearGradient>
<polyline fill="url(#_32)" points="32.788,44.111 60.578,55.164 79.738,22.476 53.281,15.249 32.788,44.111 "/>
<linearGradient id="_33" gradientUnits="userSpaceOnUse" x1="88.78" y1="7.29" x2="59.65" y2="58.84">
<stop stop-color="#FFFFFF" offset="0"/>
<stop stop-color="#A2C2DD" offset="0.35"/>
<stop stop-color="#6C83BB" offset="0.7"/>
<stop stop-color="#003D6D" offset="1"/>
</linearGradient>
<polygon fill="url(#_33)" points="79.719,22.374 60.592,55.035 60.498,59.285 79.342,26.127 "/>
<linearGradient id="_34" gradientUnits="userSpaceOnUse" x1="55.56" y1="46.94" x2="55.9" y2="52.65">
<stop stop-color="#87A8CB" offset="0"/>
<stop stop-color="#235487" offset="1"/>
</linearGradient>
<polygon fill="url(#_34)" points="53.824,52.201 60.592,55.035 60.498,59.285 51.49,55.283 "/>
<linearGradient id="_35" gradientUnits="userSpaceOnUse" x1="58.41" y1="37.39" x2="53.19" y2="48.75">
<stop stop-color="#87A8CB" offset="0"/>
<stop stop-color="#235487" offset="1"/>
</linearGradient>
<polygon fill="url(#_35)" points="56.488,41.214 59.211,43.314 52.527,52.041 48.885,50.459 "/>
<linearGradient id="_36" gradientUnits="userSpaceOnUse" x1="28.7" y1="12.43" x2="38.95" y2="12.82">
<stop stop-color="#FFFFFF" offset="0.05"/>
<stop stop-color="#A2C2DD" offset="1"/>
</linearGradient>
<path fill="url(#_36)" d="M51.645,14.479l0.025-0.031c-10.55-4.25-21.316-2.574-21.316-2.574l-1.098,1.238L51.645,14.479z"/>
<linearGradient id="_37" gradientUnits="userSpaceOnUse" x1="54.44" y1="12.05" x2="41.95" y2="30.23">
<stop stop-color="#87A8CB" offset="0"/>
<stop stop-color="#235487" offset="1"/>
</linearGradient>
<polygon fill="url(#_37)" points="52.189,14.664 40.012,31.863 41.047,32.279 52.24,16.437 "/>
<path fill="#496DA2" d="M18.516,40.664c0,0-9.314-0.979-11.49-0.805l0.111,0.724c3.146,0.104,10.268,1.128,10.268,1.128 L18.516,40.664z"/>
<linearGradient id="_38" gradientUnits="userSpaceOnUse" x1="17.39" y1="7.19" x2="38.6" y2="42.82">
<stop stop-color="#87A8CB" offset="0"/>
<stop stop-color="#235487" offset="1"/>
</linearGradient>
<path fill="url(#_38)" d="M52.016,14.662l-12.262,17.07c0,0-17.2,6.301-19.013,7.053 c-7.684-1.487-15.119-0.668-15.119-0.668l21.875-24.646C27.497,13.473,41.465,10.414,52.016,14.662z"/>
<linearGradient id="_39" gradientUnits="userSpaceOnUse" x1="14.56" y1="31.62" x2="48.38" y2="15.81">
<stop stop-color="#FFFFFF" offset="0.05"/>
<stop stop-color="#A2C2DD" offset="1"/>
</linearGradient>
<path fill="url(#_39)" d="M39.274,31.701l12.371-17.223c-8.227-3.156-18.371-2.017-22.388-1.367L8.479,36.518 c0,0,9.388,0.205,13.082,1.791C23.553,37.533,39.274,31.701,39.274,31.701z"/>
<linearGradient id="_40" gradientUnits="userSpaceOnUse" x1="55.45" y1="43.61" x2="54.2" y2="55.61">
<stop stop-color="#87A8CB" offset="0"/>
<stop stop-color="#235487" offset="1"/>
</linearGradient>
<polygon fill="url(#_40)" points="50.07,50.576 60.586,54.992 60.494,59.242 47.736,53.658 "/>
<path fill="#496DA2" d="M53.184,20.802c0.576-0.763,0.519-1.683-0.133-2.052c-0.648-0.369-1.637-0.055-2.211,0.709 c-0.576,0.761-0.516,1.677,0.135,2.05C51.619,21.879,52.609,21.562,53.184,20.802z"/>
<path fill="#496DA2" d="M48.281,18.546c0.432-0.808,0.236-1.668-0.428-1.922c-0.67-0.255-1.563,0.192-1.99,1 c-0.432,0.807-0.238,1.663,0.432,1.92C46.963,19.8,47.854,19.351,48.281,18.546z"/>
<linearGradient id="_41" gradientUnits="userSpaceOnUse" x1="53.14" y1="18.84" x2="49.28" y2="18.77">
<stop stop-color="#D6E6EC" offset="0"/>
<stop stop-color="#298595" offset="1"/>
</linearGradient>
<path fill="url(#_41)" d="M52.98,19.932c-0.519-3.271-3.58-3.885-5.744-2.857c-0.82,0.449-1.105,1.236-0.82,1.871 c0.951-0.889,4.59-0.941,4.992,1.996C51.861,21.066,52.818,20.719,52.98,19.932z"/>
<path fill="#496DA2" d="M46.418,18.898c0.807-0.332,3.432-0.88,4.99,2.043C51.74,19.441,49.053,16.43,46.418,18.898z"/>
<path fill="#496DA2" d="M44.496,32.927c0.576-0.763,0.516-1.683-0.133-2.052c-0.649-0.369-1.637-0.055-2.21,0.709 c-0.576,0.761-0.516,1.677,0.135,2.05C42.932,34.004,43.922,33.687,44.496,32.927z"/>
<path fill="#496DA2" d="M39.594,30.671c0.432-0.808,0.236-1.668-0.428-1.922c-0.67-0.255-1.563,0.192-1.99,1 c-0.432,0.807-0.238,1.663,0.432,1.92C38.276,31.925,39.167,31.476,39.594,30.671z"/>
<linearGradient id="_42" gradientUnits="userSpaceOnUse" x1="44.45" y1="30.97" x2="40.59" y2="30.9">
<stop stop-color="#D6E6EC" offset="0"/>
<stop stop-color="#298595" offset="1"/>
</linearGradient>
<path fill="url(#_42)" d="M44.293,32.057c-0.518-3.271-3.58-3.885-5.744-2.857c-0.82,0.449-1.105,1.236-0.82,1.871 c0.951-0.889,4.59-0.941,4.992,1.996C43.174,33.191,44.131,32.844,44.293,32.057z"/>
<path fill="#496DA2" d="M37.731,31.023c0.807-0.332,3.432-0.88,4.99,2.043C43.053,31.566,40.366,28.555,37.731,31.023z"/>
<path fill="#496DA2" d="M49.027,26.677c0.576-0.763,0.516-1.683-0.133-2.052c-0.649-0.369-1.638-0.055-2.211,0.709 c-0.576,0.761-0.517,1.677,0.135,2.05C47.463,27.754,48.453,27.437,49.027,26.677z"/>
<path fill="#496DA2" d="M44.125,24.421c0.432-0.808,0.236-1.668-0.428-1.922c-0.67-0.255-1.563,0.192-1.99,1 c-0.432,0.807-0.238,1.663,0.432,1.92C42.807,25.675,43.697,25.226,44.125,24.421z"/>
<linearGradient id="_43" gradientUnits="userSpaceOnUse" x1="48.98" y1="24.72" x2="45.12" y2="24.65">
<stop stop-color="#D6E6EC" offset="0"/>
<stop stop-color="#298595" offset="1"/>
</linearGradient>
<path fill="url(#_43)" d="M48.824,25.807c-0.518-3.271-3.58-3.885-5.744-2.857c-0.82,0.449-1.105,1.236-0.82,1.871 c0.951-0.889,4.59-0.941,4.992,1.996C47.705,26.941,48.662,26.594,48.824,25.807z"/>
<path fill="#496DA2" d="M42.262,24.773c0.806-0.332,3.431-0.88,4.99,2.043C47.584,25.316,44.896,22.305,42.262,24.773z"/>
<linearGradient id="_44" gradientUnits="userSpaceOnUse" x1="32.81" y1="46.19" x2="29.41" y2="55.48">
<stop stop-color="#E6EEF4" offset="0"/>
<stop stop-color="#A3740A" offset="0.44"/>
<stop stop-color="#474105" offset="0.94"/>
</linearGradient>
<polygon fill="url(#_44)" points="44.551,59.313 16.034,44.211 16.344,45.527 44.867,61.076 "/>
<linearGradient id="_45" gradientUnits="userSpaceOnUse" x1="23.21" y1="35.14" x2="36.65" y2="44.07">
<stop stop-color="#E2E6E4" offset="0"/>
<stop stop-color="#A3740A" offset="1"/>
</linearGradient>
<path fill="url(#_45)" d="M28.341,30.66l-9.412,10.51l5.832,2.969c3.222-3.545,5.205-7.708,8.408-11.263L28.341,30.66z"/>
<linearGradient id="_46" gradientUnits="userSpaceOnUse" x1="23.92" y1="34.7" x2="48.53" y2="49.03">
<stop stop-color="#E2E6E4" offset="0"/>
<stop stop-color="#A3740A" offset="1"/>
</linearGradient>
<path fill="url(#_46)" d="M33.169,32.876c-3.203,3.554-5.187,7.718-8.408,11.263l13.642,6.943 c2.069-4.129,6.642-7.633,8.914-11.712L33.169,32.876z"/>
<linearGradient id="_47" gradientUnits="userSpaceOnUse" x1="58.88" y1="53.66" x2="38.8" y2="42.58">
<stop stop-color="#E2E6E4" offset="0"/>
<stop stop-color="#A3740A" offset="1"/>
</linearGradient>
<path fill="url(#_47)" d="M55.957,43.336l-8.641-3.966c-2.271,4.079-6.844,7.583-8.915,11.712l9.046,4.605L55.957,43.336 z"/>
<linearGradient id="_48" gradientUnits="userSpaceOnUse" x1="29.02" y1="5.96" x2="41.27" y2="59.33">
<stop stop-color="#E6EEF4" offset="0"/>
<stop stop-color="#A3740A" offset="0.44"/>
<stop stop-color="#474105" offset="0.94"/>
</linearGradient>
<path fill="url(#_48)" d="M44.664,59.398L16.034,44.21l15.405-17.038l27.028,12.254L44.664,59.398z M32.712,32.865 l-4.507-1.971l-9.015,10.04l4.735,2.336L32.712,32.865z M25.176,43.994l13.163,6.55l8.42-11.263L34.12,33.405L25.176,43.994z M56.305,43.521l-8.127-3.59l-8.653,11.279l8.387,4.191L56.305,43.521z"/>
<polygon fill="#6D5607" points="58.463,39.443 44.516,59.297 44.867,61.076 58.4,41.316 "/>
<polygon fill="#B18E3B" points="47.297,55.131 47.619,57.104 55.811,45.139 55.762,43.355 "/>
<polygon fill="#B18E3B" points="45.307,58.08 45.613,59.977 46.975,58.025 46.717,56.207 "/>
<polygon fill="#B18E3B" points="56.438,42.264 56.568,43.98 57.816,42.178 57.729,40.432 "/>
<polygon fill="#FFFFFF" points="20.187,45.361 18.914,44.673 20.575,42.996 21.873,43.639 "/>
<polygon fill="#FFFFFF" points="22.672,46.65 21.351,45.934 23.027,44.24 24.31,44.898 "/>
<polygon fill="#FFFFFF" points="25.157,47.909 23.836,47.24 25.481,45.516 26.795,46.188 "/>
<polygon fill="#FFFFFF" points="17.749,44.085 16.673,43.525 18.293,41.744 19.42,42.41 "/>
<polygon fill="#FFFFFF" points="27.721,49.211 26.39,48.508 28.03,46.803 29.375,47.475 "/>
<polygon fill="#FFFFFF" points="30.287,50.527 28.956,49.824 30.561,48.059 31.908,48.762 "/>
<polygon fill="#FFFFFF" points="32.931,51.857 31.537,51.156 33.158,49.375 34.552,50.09 "/>
<polygon fill="#FFFFFF" points="35.576,53.186 34.181,52.486 35.786,50.688 37.164,51.374 "/>
<polygon fill="#FFFFFF" points="38.269,54.561 36.859,53.859 38.429,52.002 39.856,52.732 "/>
<polygon fill="#FFFFFF" points="40.994,55.947 39.551,55.219 41.122,53.359 42.531,54.075 "/>
<polygon fill="#FFFFFF" points="43.75,57.334 42.307,56.589 43.83,54.717 45.303,55.43 "/>
<polygon fill="#FFFFFF" points="45.285,58.043 44.996,57.869 46.412,56.064 46.701,56.208 "/>
<polygon fill="#FFFFFF" points="32.328,31.327 31.022,30.701 32.604,28.947 33.93,29.527 "/>
<polygon fill="#FFFFFF" points="34.872,32.498 33.517,31.846 35.112,30.074 36.425,30.672 "/>
<polygon fill="#FFFFFF" points="37.412,33.639 36.062,33.031 37.625,31.232 38.968,31.844 "/>
<polygon fill="#FFFFFF" points="29.851,30.166 29.083,29.795 30.673,28.046 31.423,28.416 "/>
<polygon fill="#FFFFFF" points="39.863,34.7 38.499,34.061 40.057,32.281 41.432,32.889 "/>
<polygon fill="#FFFFFF" points="42.322,35.903 40.958,35.264 42.479,33.425 43.857,34.063 "/>
<polygon fill="#FFFFFF" points="44.895,36.986 43.469,36.354 45.004,34.498 46.43,35.146 "/>
<polygon fill="#FFFFFF" points="47.436,38.24 46.008,37.605 47.525,35.735 48.936,36.354 "/>
<polygon fill="#FFFFFF" points="49.934,39.372 48.492,38.74 49.973,36.811 51.434,37.471 "/>
<polygon fill="#FFFFFF" points="52.514,40.639 51.037,39.979 52.518,38.049 53.961,38.697 "/>
<polygon fill="#FFFFFF" points="55.035,41.782 53.557,41.107 54.99,39.166 56.494,39.809 "/>
<polygon fill="#FFFFFF" points="56.418,42.286 56.121,42.127 57.449,40.258 57.744,40.387 "/>
</svg>