<?xml version="1.0" encoding="UTF-8"?>
<!DOCTYPE svg PUBLIC "-//W3C//DTD SVG 1.1 Tiny//EN" "http://www.w3.org/Graphics/SVG/1.1/DTD/svg11-tiny.dtd">
<svg width="84" height="58" viewBox="4.521 -10.913 84 58">
<linearGradient id="_15" gradientUnits="userSpaceOnUse" x1="35.46" y1="-1.5" x2="64.96" y2="43.25">
<stop stop-color="#A2C2DD" offset="0.1"/>
<stop stop-color="#6C83BB" offset="0.71"/>
<stop stop-color="#003D6D" offset="0.99"/>
</linearGradient>
<path fill="url(#_15)" d="M75.245,36.256l-0.311-9.602c0,0-4.248-0.408-4.793-0.459c-0.008-0.529-0.055-3.529-0.055-3.535 c0-0.115-0.021-1.15-0.729-2.257c-0.738-1.153-2.072-2.748-5.133-3.277c-0.063-0.011-0.127-0.011-0.189-0.02 c0.189-1.065,0.305-2.155,0.305-3.274c0-10.353-8.422-18.776-18.775-18.776c-10.353,0-18.777,8.422-18.777,18.776 c0,10.354,8.425,18.775,18.777,18.775c2.262,0,4.421-0.422,6.429-1.158l0.156,4.721c0.082,2.439,2.434,5.162,4.58,5.35 l10.637,0.896c0.705,0.063,4.381-1.543,5.492-2.037C75.433,38.842,75.267,36.471,75.245,36.256z M66.534,25.915l-6.166-0.52 c0.438-0.609,1.922-2.453,2.859-5.36c1.547,0.234,2.824,1.567,3.158,2.475C66.663,22.881,66.534,25.915,66.534,25.915z"/>
<linearGradient id="_16" gradientUnits="userSpaceOnUse" x1="50.26" y1="21.3" x2="62.67" y2="45.74">
<stop stop-color="#A2C2DD" offset="0.1"/>
<stop stop-color="#6C83BB" offset="0.71"/>
<stop stop-color="#003D6D" offset="0.99"/>
</linearGradient>
<path fill="url(#_16)" d="M75.245,36.256l-0.311-9.602c0,0-4.248-0.408-4.793-0.459c-0.008-0.529-0.055-3.529-0.055-3.535 c0-0.115-0.021-1.15-0.729-2.257c-0.738-1.153-2.072-2.748-5.133-3.277c-0.063-0.011-0.127-0.011-0.189-0.02 c0.189-1.065,0.305-2.155,0.305-3.274c0-10.353-8.422-18.776-18.775-18.776c-10.353,0-18.777,8.422-18.777,18.776 c0,10.354,8.425,18.775,18.777,18.775c2.262,0,4.421-0.422,6.429-1.158l0.156,4.721c0.082,2.439,2.434,5.162,4.58,5.35 l10.637,0.896c0.705,0.063,4.381-1.543,5.492-2.037C75.433,38.842,75.267,36.471,75.245,36.256z M66.534,25.915l-6.166-0.52 c0.438-0.609,1.922-2.453,2.859-5.36c1.547,0.234,2.824,1.567,3.158,2.475C66.663,22.881,66.534,25.915,66.534,25.915z"/>
<radialGradient id="_17" gradientUnits="userSpaceOnUse" cx="49.22" cy="1.9" r="34.24">
<stop stop-color="#FFFFFF" offset="0"/>
<stop stop-color="#A2C2DD" offset="0.53"/>
<stop stop-color="#6C83BB" offset="0.87"/>
<stop stop-color="#003D6D" offset="1"/>
</radialGradient>
<circle fill="url(#_17)" cx="45.566" cy="13.833" r="18.504"/>
<radialGradient id="_18" gradientUnits="userSpaceOnUse" cx="46.82" cy="6.38" r="24.17">
<stop stop-color="#A2C2DD" offset="0.1"/>
<stop stop-color="#6C83BB" offset="0.71"/>
<stop stop-color="#003D6D" offset="0.99"/>
</radialGradient>
<path fill="url(#_18)" d="M38.106-2.1c0.076,0.156,0.33,0.194,0.863,0.025c0.394-0.034,1.421-0.927,1.957-0.747 c0.538,0.178,0.979-0.182,1.479-0.503c1.039,0.092,2.146-0.822,2.36-0.822s1.022,0.148,1.2-0.137c0,0,1.951,0.459,3.734,0.076 c-1.33-0.304-2.712-0.465-4.134-0.465c-1.83,0-3.598,0.268-5.268,0.762C39.832-3.46,39.332-2.85,38.106-2.1z"/>
<path fill="url(#_18)" d="M60.401,19.718l-0.604,0.955c0,0-0.904,0.285-0.939,0.572c-0.016,0.121-0.699,1.634-0.699,1.634 s-0.268,0.844,0.5,0.594C60.253,22.95,61.294,19.538,60.401,19.718z"/>
<path fill="url(#_18)" d="M31.589,21.599c0.262,0,0.936,0.082,1.016-0.162c0.006-0.105,0.1-2.639,0.1-2.639l1.009-1.34 v-1.067l-2.622-1.697l-1.139-1.232c0,0.004-0.44-1.331-0.854-1.708c-0.346-0.315-0.32-1.008-0.688-1.519 c-0.334-0.462-0.603-0.721-0.815-0.824c-1.69,6.849,0.931,12.67,3.388,15.813c0.352-0.504,0.629-1.064,0.846-1.561 C32.048,23.151,30.711,22.428,31.589,21.599z"/>
<path fill="url(#_18)" d="M33.606,0.39c0-0.333,0.546-0.498,0.546-0.498l0.071,0.261l0.498,0.214 c0,0,0.595-0.641,0.713-0.808c0.116-0.165,0.331-0.806,0.331-0.806l1.036-1.222c-2.325,1.254-4.353,2.99-5.945,5.076 C31.496,2.102,33.606,0.722,33.606,0.39z"/>
<radialGradient id="_22" gradientUnits="userSpaceOnUse" cx="43.78" cy="-1.09" r="4.09">
<stop stop-color="#A2C2DD" offset="0.1"/>
<stop stop-color="#6C83BB" offset="0.71"/>
<stop stop-color="#003D6D" offset="0.99"/>
</radialGradient>
<path fill="url(#_22)" d="M43.395-2.538c0.234-0.045,0.769-0.295,0.769-0.295s-0.268-0.113-0.568-0.068 c-0.299,0.046-0.732-0.181-0.968-0.068C42.828-2.721,43.162-2.494,43.395-2.538z"/>
<radialGradient id="_23" gradientUnits="userSpaceOnUse" cx="49.55" cy="3.5" r="22.04">
<stop stop-color="#FFFFFF" offset="0"/>
<stop stop-color="#A2C2DD" offset="0.35"/>
<stop stop-color="#6C83BB" offset="0.7"/>
<stop stop-color="#003D6D" offset="1"/>
</radialGradient>
<path fill="url(#_23)" d="M54.087-2.597c-0.568,0.16-1.035,0.281-1.146,0.281c-0.322,0-0.234-0.272-0.521-0.309 c-0.287-0.035-2.674-0.652-2.994-0.331c-0.322,0.322-1.581,0.651-1.868,0.688c-0.285,0.036,0.095,0.902,0.854,1.447 c-0.104,0.107-1.805,1.047-1.805,0.403s-0.33-1.115-0.854-1.305c-0.475,0.118-1.02,0.616-0.262,1.305 c0.474,0.428,0.004,0.485-0.028,0.609c-0.142,0.518,1.136,1.021,0.526,1.401c-0.574,0.051-1.084-0.054-1.18-0.107 c-0.9-0.505-1.104,1.495-1.104,1.495l0.981,0.485l-1.641,1.597c0,0-2.407,1.67-2.444,1.886c-0.035,0.214-1.068,2.984-0.711,3.808 c0.357,0.824,2.211,3.041,3.066,3.111c1.121,0.091,4.359-0.556,4.359-0.556c0.07,0.18,0.4,0.896,1.992,1.192 c0.057,0.01-0.687,1.434-0.25,2.046c0.949,1.328,1.424,2.697,0.902,3.314c-1.246,1.869-0.289,2.012,0.012,2.99 c0.107,0.285-0.631,2.842,1.826,3.533c0.883,0.076,1.346-0.063,2.096-1.029c0.217-0.178,1.479-1.469,2.313-1.742 c0.273-0.02-0.262-0.754,0.283-1.531c0.588-0.23,2.172-1.299,2.172-1.299c0.07-1.564-0.771-3.499,0.801-4.607 c1.014-1.032,1.156-0.908,1.803-2.481c0.178-0.464,0.791-2.126-0.285-1.731c-0.711,0.26-0.889,0.248-1.115,0.177 c-0.063-0.581-0.189-0.818-0.83-1.387c-0.332-0.783-1.139-2.136-1.139-2.136L56.759,6.89l0.143-0.356l2.467,3.357 c0.227,0.652,0.379,0.953,0.559,1.72c1.406-0.341,2.625-2.178,2.055-3.672c-0.025-0.027-0.377,0.043-0.893,0.007 c-0.801-0.582-1.279-1.812-1.279-1.812l1.813,1.526l0.891,0.071l0.563,1.115c0.158,0.104,0.268,0.174,0.268,0.174 s0.037,0.005,0.098,0.007C62.083,3.971,58.64-0.23,54.087-2.597z M50.14-1.86c-0.15-0.38,0.438-0.522,0.438-0.522 s0.584,0.85,0.49,1.41c-0.092,0.556-0.711,0.216-0.896,0.049C49.987-1.087,50.286-1.479,50.14-1.86z M55.464,5.266 c-0.609,0-1.453-0.002-1.975-0.358c-0.518-0.357-0.703,0.153-1.049,0.512c-0.223,0.232-2.553-0.92-2.553-0.92l-0.346-1.002 l-2.123-0.143l-1.356,0.404l-1.319-0.208l1.463-0.522c0,0,1.055-0.988,1.433-1.311c0.319-0.272,1.6-0.106,1.6-0.106l1.465,1.173 c0,0-0.1,0.535-0.234,0.713c0.535-0.036,0.936-0.723,0.936-0.723c-1.188-1.044-1.182-1.297-1.182-1.297l1.527,0.862l0.109,0.444 c0,0,0.609,1.048,1.195,1.092c0.25,0.019,0.045-0.984,0.045-0.984l0.311-0.044c0.613,1.421,2.779,1.279,3.176,1.611 C56.61,5.931,55.718,5.337,55.464,5.266z M55.87,2.73c-0.545-0.214-1.105-0.108-1.105-0.108c-0.123,0.241-1-0.007-0.824-0.541 s0.75-0.113,1.014-0.403c0.266-0.291,0.641-0.484,0.813-0.209c-0.199,0.263,0.174,0.47,0.436,0.61 C56.933,2.473,57.413,3.041,55.87,2.73z M58.886,4.036c-0.275-0.244-0.098-0.533-0.512-0.922c-0.596-0.555-0.924-0.795-0.578-1.403 c0.582-0.277,0.234,0.372,0.455,0.682c0.115,0.165,0.641,0.688,1.139,1.359C59.804,4.31,59.161,4.281,58.886,4.036z"/>
<linearGradient id="_24" gradientUnits="userSpaceOnUse" x1="52.74" y1="25.22" x2="78.2" y2="29.39">
<stop stop-color="#E2E6E4" offset="0"/>
<stop stop-color="#A3740A" offset="1"/>
</linearGradient>
<polygon fill="url(#_24)" points="52.198,27.001 56.198,25.325 74.677,26.94 70.677,28.618 "/>
<path fill="#6D5607" d="M62.642,34.516c0,0,0.742-0.287,1.008-1.535c0.17-0.385,0.098-2.926-2.4-3.143 c-0.93-0.082-1.967,0.936-1.967,2.182c0,1.439,1.174,2.279,1.174,2.279l0.139,3.766l2.154,0.188L62.642,34.516z"/>
<linearGradient id="_25" gradientUnits="userSpaceOnUse" x1="70.19" y1="17.95" x2="72.63" y2="45.14">
<stop stop-color="#E6EEF4" offset="0"/>
<stop stop-color="#A3740A" offset="0.44"/>
<stop stop-color="#474105" offset="0.94"/>
</linearGradient>
<path fill="url(#_25)" d="M74.595,26.952l-3.939,1.672l0.299,9.246c0,0,0.279,2.377-2.234,3.836l3.998-1.646 c2.438-1.459,2.178-3.781,2.178-3.781L74.595,26.952z"/>
<path fill="#3366CC" d="M59.042,25.891c1.025,0.182,1.354,0.58,0.729,0.891c-0.625,0.313-1.961,0.414-2.992,0.23 c-1.027-0.182-1.354-0.578-0.729-0.889C56.673,25.815,58.013,25.712,59.042,25.891z"/>
<linearGradient id="_26" gradientUnits="userSpaceOnUse" x1="52.42" y1="20.72" x2="67.72" y2="41.37">
<stop stop-color="#E2E6E4" offset="0"/>
<stop stop-color="#A3740A" offset="1"/>
</linearGradient>
<path fill="url(#_26)" d="M52.198,27.001l18.48,1.617c0.012,0.346,0.229,6.906,0.303,9.209 c0.076,2.299-1.9,4.422-3.953,4.242l-10.268-0.898c-1.924-0.168-4.182-2.66-4.258-4.961C52.427,33.905,52.21,27.346,52.198,27.001z M62.624,34.528c0.658-0.355,1.088-1.119,1.059-2.039c-0.045-1.348-1.057-2.525-2.26-2.629c-1.199-0.107-2.139,0.896-2.094,2.246 c0.029,0.895,0.484,1.715,1.137,2.191l0.127,3.768l2.156,0.188L62.624,34.528"/>
<path fill="#6D5607" d="M69.468,26.788c1.031,0.199,1.361,0.607,0.74,0.914c-0.621,0.311-1.957,0.398-2.984,0.203 c-1.029-0.197-1.363-0.604-0.742-0.912S68.439,26.594,69.468,26.788z"/>
<path fill="#6D5607" d="M58.956,25.891c1.027,0.182,1.354,0.58,0.73,0.891c-0.625,0.313-1.965,0.414-2.992,0.23 c-1.025-0.18-1.354-0.578-0.73-0.887C56.587,25.815,57.929,25.712,58.956,25.891z"/>
<linearGradient id="_27" gradientUnits="userSpaceOnUse" x1="52.8" y1="21.57" x2="62.93" y2="22.24">
<stop stop-color="#E2E6E4" offset="0"/>
<stop stop-color="#A3740A" offset="1"/>
</linearGradient>
<path fill="url(#_27)" d="M59.356,26.145c-0.285,0.217-0.389,0.279-1.223,0.346c-1.258,0.098-1.699-0.254-1.699-0.254 l0.006-3.884c-0.1-1.436,0.834-2.713,1.799-3.402c1.264-0.899,3.59-1.887,5.926-1.479c3.047,0.527,4.279,2.153,4.898,3.122 c0.689,1.078,0.674,2.083,0.674,2.083l0.068,4.4c0,0-0.365,0.314-1.223,0.357c-1.596,0.078-1.721-0.273-1.721-0.273 s0.15-4.129-0.201-4.876c-0.313-0.668-1.438-2.447-4.26-2.572c-2.613-0.109-3.096,2.029-3.096,2.029 C59.317,21.327,59.356,26.145,59.356,26.145z"/>
<path fill="#6D5607" d="M58.134,26.489c0,0-0.092-3.988,0.063-4.443c0.705-2.063,3.143-2.27,3.143-2.27 c-1.619,0.502-1.846,1.5-1.945,1.918c-0.127,0.529-0.035,4.453-0.035,4.453C58.954,26.489,58.651,26.489,58.134,26.489z"/>
<path fill="#FFFFFF" d="M17.779,23.262c-2.879,0-6.824,0.684-7.824,6.592l-0.149,0.893c0,0,6.636,0,7.422,0 c0.238,0.426,0.593,1.066,0.818,1.477c-0.228,0.406-0.58,1.047-0.818,1.473c-0.786,0-7.422,0-7.422,0l0.149,0.893 c1,5.906,4.945,6.59,7.824,6.59c2.271,0,4.293-1.902,5.92-3.436c0.879-0.828,1.707-1.607,2.146-1.607h20.317l0.226-0.25 c0.438-0.479,1.452-1.791,1.476-3.631V32.19c-0.021-1.842-1.035-3.152-1.476-3.633l-0.226-0.248H25.844 c-0.438,0-1.269-0.779-2.146-1.604C22.072,25.169,20.048,23.262,17.779,23.262z"/>
<linearGradient id="_28" gradientUnits="userSpaceOnUse" x1="16.39" y1="18.46" x2="38.3" y2="44.81">
<stop stop-color="#E6EDF3" offset="0"/>
<stop stop-color="#CABAD7" offset="0.12"/>
<stop stop-color="#AB7EB8" offset="0.27"/>
<stop stop-color="#9759A4" offset="0.38"/>
<stop stop-color="#8F4B9C" offset="0.44"/>
<stop stop-color="#73357C" offset="0.57"/>
<stop stop-color="#551D5A" offset="0.72"/>
<stop stop-color="#430E45" offset="0.85"/>
<stop stop-color="#3C093D" offset="0.94"/>
</linearGradient>
<path fill="url(#_28)" d="M47.098,32.219c0-0.008,0.004-0.016,0.004-0.021h-0.006c-0.019-1.602-0.937-2.758-1.271-3.127 c-0.432,0-19.98,0-19.98,0c-0.744,0-1.551-0.762-2.672-1.814c-1.525-1.438-3.426-3.229-5.396-3.229 c-3.193,0-6.221,0.939-7.066,5.955c1.201,0,6.967,0,6.967,0l1.238,2.236l-1.238,2.238c0,0-5.766,0-6.967,0 c0.848,5.018,3.873,5.953,7.066,5.953c1.971,0,3.869-1.789,5.396-3.227c1.121-1.057,1.928-1.814,2.672-1.814c0,0,19.551,0,19.98,0 c0.336-0.369,1.254-1.525,1.271-3.127h0.006C47.102,32.235,47.098,32.229,47.098,32.219z"/>
</svg>