<?xml version="1.0" encoding="UTF-8"?>
<!DOCTYPE svg PUBLIC "-//W3C//DTD SVG 1.1 Tiny//EN" "http://www.w3.org/Graphics/SVG/1.1/DTD/svg11-tiny.dtd">
<svg width="70" height="22" viewBox="0 0 70 22">
<path d="M30,16V3.5C30,1.439,28.561,0,26.5,0h-17C7.439,0,6,1.439,6,3.5V6h4v12.5c0,2.061,1.439,3.5,3.5,3.5h17 c2.061,0,3.5-1.439,3.5-3.5V16H30z M8,4c0-0.222,0-0.5,0-0.5c0-0.777,0.379-1.265,1.03-1.426C9.828,2.311,10,3.112,10,3.75V4 C9.377,4,8.588,4,8,4z M16,18.5c0,0.953-0.547,1.5-1.5,1.5h-1c-0.953,0-1.5-0.547-1.5-1.5V3.75c0-0.653-0.122-1.24-0.34-1.75 H26.5C27.453,2,28,2.547,28,3.5V16H16V18.5z M32,18.5c0,0.953-0.547,1.5-1.5,1.5c0,0-8.364,0-12.812,0 C17.881,19.552,18,19.055,18,18.5c0,0,0-0.277,0-0.5c1.641,0,12.359,0,14,0C32,18.223,32,18.5,32,18.5z"/>
<path d="M45,18.012h-2c0,0,0.234-0.014-0.605-0.012c-0.458,0.001-0.945,0-1.53,0 c-1.078,0-1.991-0.357-2.741-1.072C37.375,16.213,37,15.301,37,14.191c0-0.137,0-0.16,0-0.316c0-1.125,0.488-2.113,1.125-2.75 c0.75-0.75,1.625-1.125,2.75-1.125c0.375,0,1.75,0,2.125,0V9.683c0-0.466,0-0.933-0.375-1.308S41.519,8,41.115,8 C40.75,8,38,8,38,8V6c0.5,0,3.112,0,3.25,0c1.25,0,2.282,0.282,2.875,0.875C44.75,7.5,45,8.5,45,9.875V18.012z M43,16v-4 c-0.625,0-0.9,0-1.375,0c-0.875,0-1.478,0.076-1.875,0.375C39.25,12.75,39,13.328,39,14c0,0.688,0.3,1.256,0.713,1.604 C40.125,15.951,40.756,16,41.602,16C42.307,16,42.375,16,43,16z"/>
<path d="M55,9.875c0,1.004,0,3.523,0,4.25c0,1.125-0.375,2-1.125,2.75S52.25,18,51.125,18 c-0.683,0-1.914,0-2.375,0C48.216,18,47,18.012,47,18.012V2h2c0,0,0.021,4,0,4s1.328,0,2.125,0c1.125,0,2,0.375,2.75,1.125 S55,8.75,55,9.875z M53,14c0-0.457,0-2.648,0-4c0-0.625-0.229-1.278-0.75-1.625C51.875,8.125,51.283,8,50.5,8 c-0.589,0-0.781,0-1.5,0v8c0.594,0,0.976,0,1.5,0c0.75,0,1.326-0.057,1.75-0.375C52.75,15.25,53,14.625,53,14z"/>
<path d="M62.25,15.75C61.75,16,61.275,16,61.01,16c-0.26,0-0.836-0.068-1.26-0.387 c-0.5-0.375-0.75-1-0.75-1.625c0-0.457,0-2.648,0-4c0-0.625,0.229-1.278,0.75-1.625c0.375-0.25,1.031-0.367,1.25-0.365 C61.25,8,61.75,8,62.25,8.25s0.625,0.5,0.75,0.625l0.875-1.75C63.125,6.375,62.25,6,61.125,6c-0.016,0,0.109,0-0.25,0 c-1.125,0-2,0.363-2.75,1.113S57,8.738,57,9.863c0,1.004,0,3.523,0,4.25c0,1.125,0.375,2,1.125,2.75S59.75,18,60.875,18 c0.318,0,0,0.012,0.25,0c1.125,0,2-0.375,2.75-1.125L63,15.125C62.875,15.25,62.75,15.5,62.25,15.75z"/>
<rect height="2" width="12" x="14" y="4"/>
<rect height="2" width="12" x="14" y="8"/>
<rect height="2" width="12" x="14" y="12"/>
</svg>