<?xml version="1.0" encoding="UTF-8"?>
<!DOCTYPE svg PUBLIC "-//W3C//DTD SVG 1.1 Tiny//EN" "http://www.w3.org/Graphics/SVG/1.1/DTD/svg11-tiny.dtd">
<svg baseProfile="tiny" height="24px" version="1.1" viewBox="0 0 24 24" width="24px" x="0px" xmlns="http://www.w3.org/2000/svg" xmlns:xlink="http://www.w3.org/1999/xlink" y="0px">
<rect fill="none" height="24" width="24"/>
<path d="M12.002,21.497c-5.243,0-9.507-4.259-9.507-9.498c0-5.24,4.264-9.501,9.507-9.501  c5.24,0,9.502,4.261,9.502,9.501C21.504,17.238,17.242,21.497,12.002,21.497L12.002,21.497z" fill="#FFFFFF"/>
<path d="M12.002,1.999C6.478,1.999,2,6.476,2,12c0,5.522,4.478,9.998,10.002,9.998C17.522,21.998,22,17.522,22,12  C22,6.476,17.522,1.999,12.002,1.999z M12.002,20.998C7.031,20.998,3,16.97,3,12c0-4.972,4.031-9.001,9.002-9.001  C16.971,2.999,21,7.029,21,12C21,16.97,16.971,20.998,12.002,20.998z" fill="#364B60"/>
<path d="M10.872,8.907c0,1.032-0.835,1.873-1.874,1.873c-1.032,0-1.872-0.841-1.872-1.873  c0-1.039,0.84-1.874,1.872-1.874C10.037,7.033,10.872,7.868,10.872,8.907z" fill="#364B60"/>
<path d="M16.874,8.907c0,1.032-0.839,1.873-1.873,1.873s-1.879-0.841-1.879-1.873c0-1.039,0.845-1.874,1.879-1.874  S16.874,7.868,16.874,8.907z" fill="#364B60"/>
<path d="M6,13.018c0,0,0,0,0,0.002c0,3.31,2.687,5.997,6,5.997s6-2.688,6-5.997c0-0.002,0-0.002,0-0.002H6z" fill="#364B60"/>
</svg>
