<?xml version="1.0" encoding="UTF-8"?>
<!DOCTYPE svg PUBLIC "-//W3C//DTD SVG 1.1 Tiny//EN" "http://www.w3.org/Graphics/SVG/1.1/DTD/svg11-tiny.dtd">
<svg width="16" height="16" viewBox="0 0 16 16">
<linearGradient id="_2" gradientUnits="userSpaceOnUse" x1="7.67" y1="4" x2="12" y2="9.17">
<stop stop-color="#CEE1EF" offset="0"/>
<stop stop-color="#A2C2DD" offset="0.5"/>
<stop stop-color="#496DA2" offset="1"/>
</linearGradient>
<path d="M4.498,2.976l1.646-0.873C6.134,2.108,8.138,1.296,9.852,1.741 c1.656,0.432,2.648,1.333,3.602,2.805c0.953,1.47,1.178,4.048,0.547,5.421s-1.052,1.695-1.514,2.131l-2.151,1.555L4.498,2.976 z" fill="url(#_2)"/>
<path d="M12.857,8.652c0.164,3.301-2.211,5.867-5.305,5.734 c-3.096-0.133-5.737-2.921-5.9-6.224C1.488,4.861,3.863,2.294,6.958,2.426C10.053,2.563,12.693,5.352,12.857,8.652z" fill="#CEE1EF"/>
<path d="M11.399,6.577L6.688,2.364c0,0-0.006,3.515-0.008,4.845L4.011,4.814L3.446,5.525 c0,0,1.417,1.272,2.918,2.607C4.863,8.979,3.446,9.785,3.446,9.785l0.564,0.895L6.68,9.164 c0.002,1.543,0.008,4.846,0.008,4.846l4.711-2.662L8.037,8.408L11.399,6.577z M7.656,4.439C8.381,5.088,9.16,5.784,9.726,6.287 C9.417,6.455,8.634,6.88,7.651,7.419C7.653,6.499,7.654,5.377,7.656,4.439z M7.656,12.252c-0.002-0.937-0.003-2.06-0.005-2.979 c0.983,0.86,1.766,1.543,2.075,1.813C9.16,11.404,8.38,11.842,7.656,12.252z" fill="#496DA2"/>
</svg>