<?xml version="1.0" encoding="UTF-8"?>
<!DOCTYPE svg PUBLIC "-//W3C//DTD SVG 1.1 Tiny//EN" "http://www.w3.org/Graphics/SVG/1.1/DTD/svg11-tiny.dtd">
<svg width="100%" height="100%" viewBox="0 0 88 88">
<linearGradient id="_4" gradientUnits="userSpaceOnUse" x1="52.73" y1="53.07" x2="63.11" y2="65.14">
<stop stop-color="#A2C2DD" offset="0.1"/>
<stop stop-color="#6C83BB" offset="0.71"/>
<stop stop-color="#003D6D" offset="0.99"/>
</linearGradient>
<path fill="url(#_4)" d="M32.451,12.242c0.006-0.003,0.02,0.027,0.025,0.025c-6.858,2.751-11.016,9.621-11.122,18.377 l0.209,20.267c-0.164,13.576,8.27,25.414,18.801,26.374c2.433,0.221,4.843-0.008,7.163-0.681c7.803-1.9,18.27-6.198,18.738-21.425 l0.542-21.774c-0.188-9.069-3.797-16.292-10.16-20.37C49.963,8.752,41.144,8.463,32.451,12.242z"/>
<linearGradient id="_5" gradientUnits="userSpaceOnUse" x1="49.33" y1="8.55" x2="49.73" y2="75.53">
<stop stop-color="#FFFFFF" offset="0"/>
<stop stop-color="#A2C2DD" offset="0.35"/>
<stop stop-color="#6C83BB" offset="0.7"/>
<stop stop-color="#003D6D" offset="1"/>
</linearGradient>
<path fill="url(#_5)" d="M32.73,12.884C49.2,5.723,65.7,13.848,66.107,33.388l-0.541,21.771 c-0.438,14.207-9.656,19.031-20.063,21.188L32.73,12.884z"/>
<linearGradient id="_6" gradientUnits="userSpaceOnUse" x1="16.79" y1="-6.4" x2="45.16" y2="51.5">
<stop stop-color="#FFFFFF" offset="0.15"/>
<stop stop-color="#A2C2DD" offset="1"/>
</linearGradient>
<path fill="url(#_6)" d="M41.627,11.988c12.318,1.528,19.279,11.629,18.986,26.566L60,57.922 c-0.152,12.611-9.484,19.584-19.572,18.666c-10.65-0.971-18.316-13.072-18.164-25.684l-0.209-20.251 C22.207,18.05,31.014,10.305,41.627,11.988z"/>
<path fill="#FFFFFF" d="M53.424,36.007l-9.705,9.052l9.65,13.041L39.186,71.307l0.033-22.053l-6.871,6.4l-2.494-3.57 l8.686-8.093L29.902,32.33l2.508-2.538l6.832,9.222l0.078-22.042L53.424,36.007z M42.879,27.696 c-0.01,4.295-0.027,8.064-0.045,12.284c2.439-2.262,4.723-4.402,5.408-5.04C46.973,33.226,45.182,30.81,42.879,27.696 M48.188,57.033c-0.68-0.93-2.953-4-5.379-7.266c-0.002,4.225-0.004,7.996-0.014,12.283 C45.109,59.898,46.912,58.219,48.188,57.033"/>
</svg>