<?xml version="1.0" encoding="UTF-8"?>
<!DOCTYPE svg PUBLIC "-//W3C//DTD SVG 1.1 Tiny//EN" "http://www.w3.org/Graphics/SVG/1.1/DTD/svg11-tiny.dtd">
<svg width="84" height="72" viewBox="0 0 84 72">
<linearGradient id="_52" gradientUnits="userSpaceOnUse" x1="44.43" y1="32.41" x2="59.94" y2="62.95">
<stop stop-color="#A2C2DD" offset="0.1"/>
<stop stop-color="#6C83BB" offset="0.71"/>
<stop stop-color="#003D6D" offset="0.99"/>
</linearGradient>
<path fill="url(#_52)" d="M33.372,4.902c0,0-1.702,5.906-1.875,6.417c-0.56-0.087-14.835-2.287-14.835-2.287 c-1.914,0.036-3.658,0.703-3.658,0.703l1.257,33.909c0,0,22.96,6.332,23.433,6.462c0.231,4.483,1.179,13.191,1.179,13.191 s4.352,4.437,10.667,4.604c0.771,0.021,3.292-2.313,3.373-2.619c0.046-0.173,0.108-0.542,0.142-0.709 c0.145-0.129,1.069-0.984,1.069-0.984s2.082-11.021,1.976-18.651c-0.02-1.435-0.175-4.126-0.175-4.126s-1.677-1.619-3.719-2.327 c0.109-0.281,0.656-3.854,0.656-3.854s0.406,0.083,0.646,0.125c0.656-0.063,2.281-0.375,3.563-2.531 c0.146,5.245,1.094,15.427,1.094,15.427c3.474,3.734,8.831,4.128,9.104,4.084c1.189,0.166,3.297-2.1,3.338-2.158 c0,0,0.133-0.511,0.164-0.67c0.14-0.125,0.866-0.865,0.866-0.865c0.678-3.152,1.605-10.359,1.605-16.118 c0-1.242-0.141-3.73-0.141-3.73c-0.767-0.808-1.991-1.478-3.124-1.938c0.062-0.433,0.458-3.708,0.458-3.708 s-0.172-0.726-1.604-0.813c-1.434-0.087-1.604,0.666-1.604,0.666s0.168,2.49,0.188,3.125c-3.646-0.651-6.61,0.13-7.584,0.376 c0.328-0.995,2.5-7.75,2.5-7.75s0.313,0.063,2.416,0.042c0,0,4.105-7.699,2.834-10.833c-0.26-0.64-0.678-1.016-1.417-1.125 c0,0-28.622-1.956-29.625-2C34.664,4.153,33.372,4.902,33.372,4.902z"/>
<linearGradient id="_53" gradientUnits="userSpaceOnUse" x1="56.51" y1="-3.56" x2="40.77" y2="26.34">
<stop stop-color="#FFFFFF" offset="0.05"/>
<stop stop-color="#A2C2DD" offset="1"/>
</linearGradient>
<path fill="url(#_53)" d="M63.27,7.438L33.793,4.949l-5.896,19.81l25.447,9.528 C58.801,33.4,63.27,7.438,63.27,7.438z"/>
<linearGradient id="_54" gradientUnits="userSpaceOnUse" x1="74.82" y1="-3.62" x2="55.67" y2="26.68">
<stop stop-color="#FFFFFF" offset="0"/>
<stop stop-color="#496DA2" offset="0.71"/>
<stop stop-color="#235487" offset="0.99"/>
</linearGradient>
<path fill="url(#_54)" d="M63.281,7.506L57.81,24.618c-2.119,6.574-2.629,9.639-4.622,9.665 c1.923,0.334,4.38-2.273,5.667-6.887l3.136-9.757l2.565,0.051C69.963,6.788,66.811,5.106,63.281,7.506z"/>
<linearGradient id="_55" gradientUnits="userSpaceOnUse" x1="48.33" y1="9.83" x2="51.7" y2="0.69">
<stop stop-color="#FFFFFF" offset="0.05"/>
<stop stop-color="#A2C2DD" offset="1"/>
</linearGradient>
<path fill="url(#_55)" d="M63.27,7.496c0.793-0.515,1.428-0.826,2.588-0.979L36.507,4.442 c-1.257,0.106-1.869,0.154-2.714,0.569L63.27,7.496z"/>
<path fill="#FFFFFF" d="M36.355,6.113c-0.604-0.066-1.243,0.378-1.425,0.992c-0.184,0.613,0.154,1.168,0.754,1.233 c0.599,0.066,1.237-0.376,1.425-0.994C37.297,6.729,36.96,6.179,36.355,6.113z"/>
<path fill="#FFFFFF" d="M35.128,10.153c-0.594-0.067-1.23,0.375-1.412,0.989c-0.182,0.612,0.148,1.17,0.738,1.239 c0.595,0.063,1.224-0.38,1.41-0.995C36.054,10.771,35.724,10.217,35.128,10.153z"/>
<path fill="#FFFFFF" d="M58.768,10.181c-0.497,1.531,1.754,1.719,2.254,0.186C61.539,8.821,59.264,8.632,58.768,10.181z "/>
<path fill="#FFFFFF" d="M57.396,14.394c-0.494,1.524,1.726,1.711,2.226,0.188C60.13,13.047,57.896,12.858,57.396,14.394 z"/>
<path fill="#FFFFFF" d="M56.027,18.611c-0.492,1.538,1.688,1.726,2.191,0.188C58.726,17.27,56.524,17.078,56.027,18.611 z"/>
<path fill="#FFFFFF" d="M54.657,22.825c-0.497,1.529,1.658,1.722,2.155,0.192 C57.328,21.482,55.148,21.288,54.657,22.825z"/>
<path fill="#FFFFFF" d="M53.282,27.04c-0.499,1.548,1.618,1.744,2.129,0.194C55.926,25.683,53.789,25.485,53.282,27.04z "/>
<path fill="#FFFFFF" d="M52.483,30.466l0.09,2.049c0.58,0.06,1.216-0.416,1.43-1.057 C54.373,30.343,53.303,29.856,52.483,30.466z"/>
<linearGradient id="_56" gradientUnits="userSpaceOnUse" x1="58.98" y1="52.7" x2="47.83" y2="17.14">
<stop stop-color="#FFFFFF" offset="0"/>
<stop stop-color="#496DA2" offset="0.71"/>
<stop stop-color="#235487" offset="0.99"/>
</linearGradient>
<path fill="url(#_56)" d="M49.995,14.883c6.762-0.157,0.607,15.44,3.349,19.404l-5.703-1.46 C47.641,32.827,45.209,14.012,49.995,14.883z"/>
<linearGradient id="_57" gradientUnits="userSpaceOnUse" x1="54.16" y1="54.22" x2="43.01" y2="18.66">
<stop stop-color="#A2C2DD" offset="0.1"/>
<stop stop-color="#6C83BB" offset="0.71"/>
<stop stop-color="#003D6D" offset="0.99"/>
</linearGradient>
<polygon fill="url(#_57)" points="46.219,52.089 46.354,15.729 49.144,15.014 49.02,49.51 "/>
<linearGradient id="_58" gradientUnits="userSpaceOnUse" x1="43.22" y1="5.58" x2="24.08" y2="41.94">
<stop stop-color="#FFFFFF" offset="0.05"/>
<stop stop-color="#A2C2DD" offset="1"/>
</linearGradient>
<polygon fill="url(#_58)" points="46.213,52.091 14.556,43.246 13.436,9.974 46.831,16.52 "/>
<linearGradient id="_59" gradientUnits="userSpaceOnUse" x1="30.85" y1="15.97" x2="33.77" y2="8.06">
<stop stop-color="#FFFFFF" offset="0.05"/>
<stop stop-color="#A2C2DD" offset="1"/>
</linearGradient>
<path fill="url(#_59)" d="M46.831,16.52c0.459-0.971,2.726-1.824,4.056-1.622L16.706,9.431 c-1.266-0.01-2.579,0.188-3.296,0.573L46.831,16.52z"/>
<path fill="#FFFFFF" d="M15.42,13.194c0.067,1.586,2.458,2.09,2.402,0.503C17.762,12.109,15.35,11.604,15.42,13.194z"/>
<path fill="#FFFFFF" d="M15.601,17.544c0.07,1.579,2.429,2.082,2.369,0.501C17.911,16.467,15.528,15.965,15.601,17.544z "/>
<path fill="#FFFFFF" d="M15.78,21.896c0.072,1.586,2.393,2.088,2.338,0.501C18.063,20.794,15.714,20.293,15.78,21.896z"/>
<path fill="#FFFFFF" d="M15.957,26.245c0.069,1.581,2.364,2.085,2.308,0.502C18.208,25.166,15.889,24.665,15.957,26.245 z"/>
<path fill="#FFFFFF" d="M16.137,30.595c0.063,1.589,2.328,2.088,2.272,0.502C18.353,29.509,16.064,29.009,16.137,30.595 z"/>
<path fill="#FFFFFF" d="M16.309,34.942c0.065,1.581,2.293,2.084,2.243,0.502C18.492,33.849,16.245,33.347,16.309,34.942 z"/>
<path fill="#FFFFFF" d="M41.856,19.187c0.034,1.642,2.484,2.091,2.463,0.447C44.305,17.976,41.828,17.526,41.856,19.187 z"/>
<path fill="#FFFFFF" d="M41.938,23.712c0.029,1.645,2.449,2.094,2.43,0.448C44.343,22.52,41.903,22.071,41.938,23.712z"/>
<path fill="#FFFFFF" d="M42.016,28.243c0.03,1.638,2.418,2.084,2.396,0.445C44.39,27.033,41.987,26.587,42.016,28.243z"/>
<path fill="#FFFFFF" d="M42.093,32.77c0.027,1.654,2.383,2.104,2.362,0.449C44.438,31.573,42.058,31.126,42.093,32.77z"/>
<path fill="#FFFFFF" d="M42.167,37.302c0.03,1.646,2.352,2.095,2.33,0.443C44.479,36.094,42.137,35.646,42.167,37.302z"/>
<path fill="#FFFFFF" d="M17.377,38.562c-0.634-0.139-1.124,0.291-1.091,0.956c0.028,0.666,0.566,1.316,1.195,1.45 c0.632,0.135,1.118-0.292,1.092-0.956C18.544,39.343,18.011,38.693,17.377,38.562z"/>
<path fill="#FFFFFF" d="M17.558,42.807c-0.623-0.14-1.107,0.291-1.079,0.955c0,0.007,0.003,0.009,0.003,0.016l2.249,0.603 c0-0.041,0.009-0.082,0.007-0.123C18.71,43.591,18.184,42.94,17.558,42.807z"/>
<linearGradient id="_60" gradientUnits="userSpaceOnUse" x1="32.46" y1="13.75" x2="29.46" y2="35.08">
<stop stop-color="#FFFFFF" offset="0"/>
<stop stop-color="#496DA2" offset="0.71"/>
<stop stop-color="#235487" offset="0.99"/>
</linearGradient>
<polygon fill="url(#_60)" points="33.688,32.325 33.845,39.11 25.966,36.996 26.077,30.37 21.899,29.424 30.201,20.025 38.026,33.522 "/>
<linearGradient id="_61" gradientUnits="userSpaceOnUse" x1="47.15" y1="34.14" x2="55.62" y2="46.2">
<stop stop-color="#A2C2DD" offset="0.1"/>
<stop stop-color="#6C83BB" offset="0.71"/>
<stop stop-color="#003D6D" offset="0.99"/>
</linearGradient>
<path fill="url(#_61)" d="M45.983,37.834c2.565-0.094,6.887,0.269,9.676,3.074l-1.65,0.761L45.983,37.834z"/>
<linearGradient id="_62" gradientUnits="userSpaceOnUse" x1="51.88" y1="35.3" x2="54.88" y2="58.91">
<stop stop-color="#FFFFFF" offset="0"/>
<stop stop-color="#A2C2DD" offset="0.35"/>
<stop stop-color="#6C83BB" offset="0.7"/>
<stop stop-color="#003D6D" offset="1"/>
</linearGradient>
<path fill="url(#_62)" d="M54.281,41.522l-1.739,23.085l1.327-1.124c1.041-4.584,2.455-15.891,1.784-22.61 L54.281,41.522z"/>
<linearGradient id="_63" gradientUnits="userSpaceOnUse" x1="42.17" y1="43.46" x2="49.92" y2="37.23">
<stop stop-color="#FFFFFF" offset="0.15"/>
<stop stop-color="#A2C2DD" offset="1"/>
</linearGradient>
<path fill="url(#_63)" d="M37.975,39.354c4.885-1.75,11.651-2.817,16.505,1.697l-3.955,1.884L37.975,39.354z"/>
<linearGradient id="_64" gradientUnits="userSpaceOnUse" x1="51.96" y1="36.93" x2="52.34" y2="73.94">
<stop stop-color="#FFFFFF" offset="0"/>
<stop stop-color="#A2C2DD" offset="0.35"/>
<stop stop-color="#6C83BB" offset="0.7"/>
<stop stop-color="#003D6D" offset="1"/>
</linearGradient>
<path fill="url(#_64)" d="M50.524,42.936l-0.877,24.607c1.853-0.854,3.029-2.432,3.029-2.432 c1.096-4.832,2.515-16.969,1.803-24.06L50.524,42.936z"/>
<linearGradient id="_65" gradientUnits="userSpaceOnUse" x1="48.23" y1="39.31" x2="53.62" y2="41.66">
<stop stop-color="#FFFFFF" offset="0"/>
<stop stop-color="#A2C2DD" offset="0.35"/>
<stop stop-color="#6C83BB" offset="0.7"/>
<stop stop-color="#003D6D" offset="1"/>
</linearGradient>
<path fill="url(#_65)" d="M52.3,40.236c0.201,1.243-3.186,1.436-3.159,0.068C49.16,39.363,52.151,39.309,52.3,40.236z"/>
<linearGradient id="_66" gradientUnits="userSpaceOnUse" x1="49.34" y1="37.39" x2="53.42" y2="37.66">
<stop stop-color="#E6EEF4" offset="0"/>
<stop stop-color="#337CE5" offset="0.44"/>
<stop stop-color="#003D6D" offset="0.94"/>
</linearGradient>
<path fill="url(#_66)" d="M49.507,34.067c0,0,0.203,6.331,0.203,6.349c0.49,0.54,1.652,0.498,1.998,0.013l0.877-6.053 L49.507,34.067z"/>
<linearGradient id="_67" gradientUnits="userSpaceOnUse" x1="51.23" y1="38.26" x2="41.09" y2="59.03">
<stop stop-color="#FFFFFF" offset="0.05"/>
<stop stop-color="#A2C2DD" offset="1"/>
</linearGradient>
<path fill="url(#_67)" d="M37.975,39.354c2.718-0.887,8.474-0.148,12.55,3.581c0.476,6.688,0.089,18.306-0.877,24.607 c-3.287,0.081-7.928-2.126-10.378-4.253C38.464,57.666,37.466,46.081,37.975,39.354z"/>
<linearGradient id="_68" gradientUnits="userSpaceOnUse" x1="53.29" y1="54.37" x2="37.48" y2="45.62">
<stop stop-color="#FFFFFF" offset="0.05"/>
<stop stop-color="#A2C2DD" offset="1"/>
</linearGradient>
<polygon fill="url(#_68)" points="39.329,40.978 39.748,55.159 48.83,58.505 49.131,43.794 "/>
<linearGradient id="_69" gradientUnits="userSpaceOnUse" x1="40.54" y1="65.71" x2="39.7" y2="32.77">
<stop stop-color="#FFFFFF" offset="0"/>
<stop stop-color="#A2C2DD" offset="0.35"/>
<stop stop-color="#6C83BB" offset="0.7"/>
<stop stop-color="#003D6D" offset="1"/>
</linearGradient>
<polygon fill="url(#_69)" points="40.764,54.546 40.501,41.309 39.329,40.978 39.748,55.159 "/>
<linearGradient id="_70" gradientUnits="userSpaceOnUse" x1="49.52" y1="61.18" x2="36.74" y2="49.11">
<stop stop-color="#FFFFFF" offset="0.15"/>
<stop stop-color="#A2C2DD" offset="1"/>
</linearGradient>
<polygon fill="url(#_70)" points="39.748,55.159 40.764,54.546 48.862,57.35 48.83,58.505 "/>
<linearGradient id="_71" gradientUnits="userSpaceOnUse" x1="49.91" y1="34.57" x2="52.39" y2="33.77">
<stop stop-color="#D6E4F3" offset="0"/>
<stop stop-color="#337CE5" offset="1"/>
</linearGradient>
<path fill="url(#_71)" d="M52.585,34.376c-0.29,0.819-3.373,0.454-3.052-0.364 C49.86,33.201,52.863,33.549,52.585,34.376z"/>
<linearGradient id="_72" gradientUnits="userSpaceOnUse" x1="41.73" y1="52.93" x2="48.71" y2="64.54">
<stop stop-color="#E6EEF4" offset="0"/>
<stop stop-color="#337CE5" offset="0.44"/>
<stop stop-color="#003D6D" offset="0.94"/>
</linearGradient>
<polygon fill="url(#_72)" points="45.897,62.225 48.232,63.208 48.324,61.526 45.947,60.545 "/>
<polygon fill="url(#_72)" points="48.347,61.089 48.44,59.413 46.01,58.509 45.961,60.112 "/>
<polygon fill="url(#_72)" points="45.884,62.659 45.843,64.176 48.125,65.193 48.209,63.646 "/>
<polygon fill="url(#_72)" points="42.675,59.223 40.625,58.41 40.73,60.105 42.74,60.916 "/>
<polygon fill="url(#_72)" points="45.505,59.953 45.524,58.358 43.168,57.496 43.195,59.027 "/>
<polygon fill="url(#_72)" points="42.601,57.262 40.502,56.506 40.597,57.973 42.658,58.786 "/>
<polygon fill="url(#_72)" points="43.273,63.085 45.462,64.037 45.475,62.517 43.246,61.588 "/>
<polygon fill="url(#_72)" points="42.751,61.355 40.762,60.543 40.854,62.021 42.809,62.856 "/>
<polygon fill="url(#_72)" points="43.205,59.463 43.235,61.148 45.483,62.079 45.499,60.393 "/>
<polygon fill="url(#_72)" points="43.281,63.528 43.31,65.064 45.438,66.058 45.458,64.479 "/>
<linearGradient id="_82" gradientUnits="userSpaceOnUse" x1="65.46" y1="22.5" x2="72.79" y2="32.94">
<stop stop-color="#A2C2DD" offset="0.1"/>
<stop stop-color="#6C83BB" offset="0.71"/>
<stop stop-color="#003D6D" offset="0.99"/>
</linearGradient>
<path fill="url(#_82)" d="M64.448,25.695c2.221-0.081,5.96,0.232,8.373,2.66l-1.427,0.658L64.448,25.695z"/>
<linearGradient id="_83" gradientUnits="userSpaceOnUse" x1="69.56" y1="23.5" x2="72.15" y2="43.93">
<stop stop-color="#FFFFFF" offset="0"/>
<stop stop-color="#A2C2DD" offset="0.35"/>
<stop stop-color="#6C83BB" offset="0.7"/>
<stop stop-color="#003D6D" offset="1"/>
</linearGradient>
<path fill="url(#_83)" d="M71.63,28.886l-1.505,19.978l1.146-0.973c0.901-3.967,2.125-13.752,1.544-19.566 L71.63,28.886z"/>
<linearGradient id="_84" gradientUnits="userSpaceOnUse" x1="61.15" y1="30.57" x2="67.86" y2="25.17">
<stop stop-color="#FFFFFF" offset="0.15"/>
<stop stop-color="#A2C2DD" offset="1"/>
</linearGradient>
<path fill="url(#_84)" d="M57.519,27.011c4.227-1.515,10.083-2.438,14.282,1.469l-3.423,1.629L57.519,27.011z"/>
<linearGradient id="_85" gradientUnits="userSpaceOnUse" x1="69.62" y1="24.91" x2="69.95" y2="56.94">
<stop stop-color="#FFFFFF" offset="0"/>
<stop stop-color="#A2C2DD" offset="0.35"/>
<stop stop-color="#6C83BB" offset="0.7"/>
<stop stop-color="#003D6D" offset="1"/>
</linearGradient>
<path fill="url(#_85)" d="M68.378,30.108L67.62,51.402c1.603-0.739,2.621-2.104,2.621-2.104 c0.947-4.181,2.175-14.684,1.56-20.819L68.378,30.108z"/>
<linearGradient id="_86" gradientUnits="userSpaceOnUse" x1="66.39" y1="26.97" x2="71.06" y2="29">
<stop stop-color="#FFFFFF" offset="0"/>
<stop stop-color="#A2C2DD" offset="0.35"/>
<stop stop-color="#6C83BB" offset="0.7"/>
<stop stop-color="#003D6D" offset="1"/>
</linearGradient>
<path fill="url(#_86)" d="M69.915,27.773c0.174,1.075-2.757,1.242-2.735,0.06 C67.198,27.019,69.786,26.972,69.915,27.773z"/>
<linearGradient id="_87" gradientUnits="userSpaceOnUse" x1="67.35" y1="25.31" x2="70.88" y2="25.55">
<stop stop-color="#E6EEF4" offset="0"/>
<stop stop-color="#337CE5" offset="0.44"/>
<stop stop-color="#003D6D" offset="0.94"/>
</linearGradient>
<path fill="url(#_87)" d="M67.498,22.436c0,0,0.175,5.478,0.175,5.493c0.424,0.468,1.431,0.432,1.729,0.012 l0.759-5.238L67.498,22.436z"/>
<linearGradient id="_88" gradientUnits="userSpaceOnUse" x1="68.99" y1="26.06" x2="60.21" y2="44.04">
<stop stop-color="#FFFFFF" offset="0.05"/>
<stop stop-color="#A2C2DD" offset="1"/>
</linearGradient>
<path fill="url(#_88)" d="M57.519,27.011c2.352-0.768,7.332-0.129,10.859,3.098c0.411,5.788,0.077,15.842-0.758,21.294 c-2.846,0.07-6.862-1.839-8.981-3.68C57.941,42.856,57.078,32.831,57.519,27.011z"/>
<linearGradient id="_89" gradientUnits="userSpaceOnUse" x1="70.77" y1="40" x2="57.09" y2="32.44">
<stop stop-color="#FFFFFF" offset="0.05"/>
<stop stop-color="#A2C2DD" offset="1"/>
</linearGradient>
<polygon fill="url(#_89)" points="58.691,28.415 59.054,40.687 66.913,43.582 67.172,30.852 "/>
<linearGradient id="_90" gradientUnits="userSpaceOnUse" x1="59.74" y1="49.82" x2="59.01" y2="21.31">
<stop stop-color="#FFFFFF" offset="0"/>
<stop stop-color="#A2C2DD" offset="0.35"/>
<stop stop-color="#6C83BB" offset="0.7"/>
<stop stop-color="#003D6D" offset="1"/>
</linearGradient>
<polygon fill="url(#_90)" points="59.932,40.156 59.705,28.702 58.691,28.415 59.054,40.687 "/>
<linearGradient id="_91" gradientUnits="userSpaceOnUse" x1="67.51" y1="45.89" x2="56.45" y2="35.45">
<stop stop-color="#FFFFFF" offset="0.15"/>
<stop stop-color="#A2C2DD" offset="1"/>
</linearGradient>
<polygon fill="url(#_91)" points="59.054,40.687 59.932,40.156 66.94,42.582 66.913,43.582 "/>
<linearGradient id="_92" gradientUnits="userSpaceOnUse" x1="67.85" y1="22.87" x2="69.99" y2="22.18">
<stop stop-color="#D6E4F3" offset="0"/>
<stop stop-color="#337CE5" offset="1"/>
</linearGradient>
<path fill="url(#_92)" d="M70.161,22.702c-0.251,0.71-2.919,0.393-2.642-0.315 C67.804,21.686,70.401,21.987,70.161,22.702z"/>
<linearGradient id="_93" gradientUnits="userSpaceOnUse" x1="60.77" y1="38.76" x2="66.81" y2="48.81">
<stop stop-color="#E6EEF4" offset="0"/>
<stop stop-color="#337CE5" offset="0.44"/>
<stop stop-color="#003D6D" offset="0.94"/>
</linearGradient>
<polygon fill="url(#_93)" points="64.374,46.801 66.395,47.652 66.475,46.196 64.417,45.348 "/>
<polygon fill="url(#_93)" points="66.494,45.818 66.575,44.368 64.472,43.585 64.43,44.973 "/>
<polygon fill="url(#_93)" points="64.362,47.176 64.327,48.489 66.302,49.37 66.375,48.031 "/>
<polygon fill="url(#_93)" points="61.585,44.203 59.812,43.499 59.903,44.967 61.643,45.668 "/>
<polygon fill="url(#_93)" points="64.035,44.835 64.052,43.456 62.013,42.709 62.036,44.034 "/>
<polygon fill="url(#_93)" points="61.521,42.506 59.705,41.853 59.788,43.122 61.571,43.825 "/>
<polygon fill="url(#_93)" points="62.104,47.545 63.997,48.369 64.009,47.053 62.08,46.25 "/>
<polygon fill="url(#_93)" points="61.651,46.049 59.93,45.347 60.01,46.625 61.701,47.348 "/>
<polygon fill="url(#_93)" points="62.044,44.41 62.07,45.87 64.016,46.675 64.029,45.215 "/>
<polygon fill="url(#_93)" points="62.11,47.928 62.134,49.259 63.979,50.118 63.994,48.752 "/>
</svg>