<?xml version="1.0" encoding="UTF-8" standalone="no"?>
<!DOCTYPE svg PUBLIC "-//W3C//DTD SVG 1.1 Tiny//EN" "http://www.w3.org/Graphics/SVG/1.1/DTD/svg11-tiny.dtd">
<svg xmlns="http://www.w3.org/2000/svg" xmlns:xlink="http://www.w3.org/1999/xlink" width="84" height="58" viewBox="0 0 84 58">
<rect fill="none" height="58" width="84"/>
<linearGradient id="_22" gradientUnits="userSpaceOnUse" x1="32.78" y1="19.19" x2="55.19" y2="64.01">
<stop stop-color="#A2C2DD" offset="0.1"/>
<stop stop-color="#6C83BB" offset="0.71"/>
<stop stop-color="#003D6D" offset="0.99"/>
</linearGradient>
<path d="M70.801,29.545c-0.367-2.903-1.959-4.788-2.277-5.138l-0.012-0.013l0,0l-0.043-0.046l-0.002-0.002 l-0.377-0.204c-1.726-0.843-3.871-1.036-3.967-1.044l-0.238,0.037c-1.524,0.643-3.177,1.524-4.877,2.579 c0.02-0.376,0.033-0.753,0.033-1.133c0-11.027-8.939-19.965-19.965-19.965c-11.028,0-19.965,8.94-19.965,19.966 c0,11.027,8.939,19.966,19.965,19.966c0.458,0,0.913-0.022,1.365-0.051l-1.399,3.887c-0.207,0.513-0.824,1.824-0.875,1.897 c-0.061,0.092-0.262,0.221-0.629,0.316c-0.388,0.1-2.982,0.104-3.653,0.063c-0.619-0.045-1.203-0.082-1.726-0.082 c-0.415,0.001-0.854,0.016-1.3,0.158c-0.269,0.093-0.567,0.213-0.885,0.344c-0.321,0.131-0.653,0.266-1.005,0.393 c-0.798,0.285-1.467,0.43-2.001,0.43c-0.302-0.002-0.566-0.047-0.783-0.137c-0.237-0.104-0.42-0.244-0.593-0.461 c-0.114-0.144-0.169-0.367-0.171-0.683c-0.003-0.601,0.225-1.438,0.472-2.265c0.031-0.108,0.063-0.219,0.095-0.326 c0.227-0.766,0.462-1.563,0.48-2.332l0.001-0.053c0.001-0.836-0.279-1.647-0.811-2.345c-0.552-0.726-1.328-1.321-2.372-1.831 c-0.12-0.06-0.24-0.115-0.364-0.166c-0.002-0.109-0.009-0.219-0.018-0.326c-0.14-1.58-0.364-2.188-1.088-3.236l-0.577-0.653 l-5.058-1.235l-2.043,0.862l-1.007,0.423l-0.279-0.066l-0.143,0.062l-1.827,0.759l0.117,1.703l1.659,0.443L10.89,40.71l0.058,1.728 l2.875,0.785l0.032,1.491l5.295,1.778l2.634-1.899c0,0,0.496-0.585,0.697-1.005c0.197,0.102,0.381,0.207,0.548,0.32 c0.377,0.254,0.679,0.533,0.874,0.811c0.216,0.309,0.312,0.592,0.314,0.938l-0.001,0.027c0,0.436-0.279,1.358-0.485,2.039 l-0.004,0.016c-0.259,0.886-0.551,1.89-0.557,2.886c-0.001,0.829,0.22,1.526,0.655,2.081c0.399,0.503,0.913,0.896,1.484,1.136 c0.499,0.209,1.057,0.315,1.661,0.315h0.001c1.043-0.002,2.022-0.303,2.758-0.563c0.418-0.147,0.802-0.304,1.14-0.442 c0.287-0.117,0.532-0.217,0.712-0.276c0.046-0.013,0.247-0.042,0.543-0.042c0,0,3.031,0.174,3.792,0.174 c0.894,0,1.586-0.07,2.184-0.225c0.87-0.225,1.495-0.617,1.915-1.209c0.24-0.346,0.46-0.803,0.716-1.385 c0.036-0.08,0.077-0.176,0.116-0.267c0.433,0.461,3.109,3.086,8.486,3.993l0.365-0.081c3.87-2.589,6.394-6.353,7.097-8.753 l0.168-2.182c0,0-0.125-3.037-0.31-4.166c0.61-0.578,1.188-1.123,1.735-1.641c1.112-1.049,2.092-1.971,2.967-2.813 c1.121,0.791,3.324,1.869,4.746,2.188l0.158,0.036l0.152-0.063c1.527-0.653,3.926-3.584,4.188-4.635 C70.827,30.895,70.801,29.545,70.801,29.545z" fill="url(#_22)"/>
<linearGradient id="_23" gradientUnits="userSpaceOnUse" x1="20.35" y1="41.7" x2="25.88" y2="40.65">
<stop stop-color="#FFFFFF" offset="0"/>
<stop stop-color="#A2C2DD" offset="0.35"/>
<stop stop-color="#6C83BB" offset="0.7"/>
<stop stop-color="#003D6D" offset="1"/>
</linearGradient>
<path d="M22.43,41.02c-0.15-1.697-0.387-2.172-1.342-3.48l-1.946,0.982l-0.073,7.44l2.437-1.755 C21.881,43.789,22.587,42.779,22.43,41.02z" fill="url(#_23)"/>
<linearGradient id="_24" gradientUnits="userSpaceOnUse" x1="11.36" y1="39.2" x2="15.22" y2="39.24">
<stop stop-color="#FFFFFF" offset="0.05"/>
<stop stop-color="#A2C2DD" offset="1"/>
</linearGradient>
<polygon fill="url(#_24)" points="15.176,39.161 15.219,40.238 11.45,39.223 11.378,38.189 "/>
<linearGradient id="_25" gradientUnits="userSpaceOnUse" x1="10.84" y1="35.26" x2="17.92" y2="42.04">
<stop stop-color="#FFFFFF" offset="0"/>
<stop stop-color="#A2C2DD" offset="0.35"/>
<stop stop-color="#6C83BB" offset="0.7"/>
<stop stop-color="#003D6D" offset="1"/>
</linearGradient>
<polygon fill="url(#_25)" points="15.298,39.171 11.392,38.189 12.892,37.566 16.764,38.505 "/>
<linearGradient id="_26" gradientUnits="userSpaceOnUse" x1="11.36" y1="42.07" x2="15.23" y2="42.1">
<stop stop-color="#FFFFFF" offset="0.05"/>
<stop stop-color="#A2C2DD" offset="1"/>
</linearGradient>
<polygon fill="url(#_26)" points="15.201,42.055 15.222,43.111 11.412,42.068 11.377,41.051 "/>
<polygon fill="url(#_25)" points="15.281,42.064 11.351,41.051 12.873,40.466 16.748,41.396 "/>
<polygon fill="#CEDFF2" points="14.173,37.215 16.222,36.355 21.129,37.55 19.163,38.508 "/>
<linearGradient id="_28" gradientUnits="userSpaceOnUse" x1="14.42" y1="33.18" x2="19.06" y2="49">
<stop stop-color="#FFFFFF" offset="0"/>
<stop stop-color="#A2C2DD" offset="0.35"/>
<stop stop-color="#6C83BB" offset="0.7"/>
<stop stop-color="#003D6D" offset="1"/>
</linearGradient>
<path d="M14.323,44.37l-0.149-7.155l4.97,1.305c0,0,2.429,3.766-0.072,7.44L14.323,44.37z" fill="url(#_28)"/>
<linearGradient id="_29" gradientUnits="userSpaceOnUse" x1="31.48" y1="39.65" x2="36.04" y2="54.77">
<stop stop-color="#A2C2DD" offset="0.1"/>
<stop stop-color="#6C83BB" offset="0.71"/>
<stop stop-color="#003D6D" offset="0.99"/>
</linearGradient>
<path d="M25.493,53.4c-0.48-0.199-0.93-0.529-1.296-0.994l0,0c-0.419-0.529-0.554-1.17-0.552-1.784l0,0 c0.003-0.935,0.283-1.886,0.542-2.769l0,0c0.265-0.875,0.504-1.697,0.504-2.172l0,0c0-0.018,0-0.027,0-0.039l0,0 c-0.002-0.461-0.148-0.842-0.398-1.197l0,0c-0.251-0.356-0.611-0.674-1-0.932l0,0c-0.777-0.523-1.648-0.805-1.817-0.853l0,0 c-0.023-0.009-0.027-0.009-0.027-0.009l0,0c0,0-0.237-0.229-0.132-0.688c0.104-0.457,0.476-0.569,0.476-0.569 c0.025,0.008,0.582,0.16,1.289,0.502l0,0c0.706,0.344,1.571,0.867,2.2,1.691l0,0c0.415,0.544,0.715,1.246,0.714,2.055l0,0 c0,0.019,0,0.033-0.001,0.049l0,0c-0.019,0.806-0.303,1.656-0.557,2.531l0,0c-0.26,0.864-0.493,1.739-0.491,2.398l0,0 c0.002,0.439,0.092,0.746,0.272,0.975l0,0c0.238,0.299,0.493,0.48,0.78,0.602l0,0c0.286,0.119,0.61,0.177,0.969,0.179l0,0 c0.67,0.001,1.444-0.204,2.16-0.461l0,0c0.722-0.259,1.37-0.556,1.883-0.731l0,0c0.357-0.113,0.726-0.129,1.151-0.134l0,0 c1.065,0.002,2.482,0.175,3.754,0.175l0,0c0.657,0,1.271-0.051,1.739-0.17l0,0c0.473-0.121,0.765-0.306,0.902-0.508l0,0 c0.078-0.104,0.724-1.484,0.925-1.988l0,0l2.377-6.606l1.674,0.174l-3.237,7.868c-0.251,0.572-0.458,0.996-0.672,1.304l0,0 c-0.4,0.565-1.01,0.856-1.645,1.021l0,0c-0.64,0.162-1.345,0.207-2.062,0.211l0,0c-1.378-0.004-2.826-0.176-3.755-0.176l0,0 c-0.361-0.002-0.644,0.035-0.739,0.071l0,0c-0.394,0.13-1.078,0.438-1.856,0.718l0,0c-0.785,0.278-1.679,0.534-2.599,0.537l0,0 C26.476,53.68,25.973,53.604,25.493,53.4L25.493,53.4z" fill="url(#_29)"/>
<linearGradient id="_30" gradientUnits="userSpaceOnUse" x1="37.19" y1="6.61" x2="38.13" y2="8.46">
<stop stop-color="#A2C2DD" offset="0.1"/>
<stop stop-color="#6C83BB" offset="0.71"/>
<stop stop-color="#003D6D" offset="0.99"/>
</linearGradient>
<path d="M31.289,7.971c0.081,0.163,0.345,0.203,0.899,0.026c0.41-0.036,1.48-0.965,2.041-0.777 c0.559,0.185,1.019-0.19,1.54-0.525c1.082,0.096,2.238-0.856,2.458-0.856c0.224,0,1.066,0.154,1.251-0.142 c0,0,2.034,0.478,3.891,0.079c-1.387-0.316-2.827-0.485-4.307-0.485c-1.908,0-3.75,0.28-5.488,0.795 C33.089,6.555,32.567,7.19,31.289,7.971z" fill="url(#_30)"/>
<radialGradient id="_31" gradientUnits="userSpaceOnUse" cx="40.38" cy="16.81" r="25.2">
<stop stop-color="#A2C2DD" offset="0.1"/>
<stop stop-color="#6C83BB" offset="0.71"/>
<stop stop-color="#003D6D" offset="0.99"/>
</radialGradient>
<path d="M26.602,10.565c0-0.347,0.569-0.519,0.569-0.519l0.074,0.272l0.519,0.223 c0,0,0.619-0.667,0.743-0.842c0.12-0.171,0.345-0.839,0.345-0.839l1.08-1.274c-2.423,1.306-4.535,3.116-6.194,5.289 C24.404,12.349,26.602,10.912,26.602,10.565z" fill="url(#_31)"/>
<radialGradient id="_32" gradientUnits="userSpaceOnUse" cx="37.21" cy="9.07" r="4.35">
<stop stop-color="#A2C2DD" offset="0.1"/>
<stop stop-color="#6C83BB" offset="0.71"/>
<stop stop-color="#003D6D" offset="0.99"/>
</radialGradient>
<path d="M36.801,7.516C37.046,7.468,37.6,7.208,37.6,7.208s-0.277-0.118-0.592-0.07 C36.696,7.186,36.244,6.949,36,7.067C36.208,7.326,36.557,7.562,36.801,7.516z" fill="url(#_32)"/>
<radialGradient id="_33" gradientUnits="userSpaceOnUse" cx="42.87" cy="12.15" r="35.66">
<stop stop-color="#FFFFFF" offset="0"/>
<stop stop-color="#A2C2DD" offset="0.53"/>
<stop stop-color="#6C83BB" offset="0.87"/>
<stop stop-color="#003D6D" offset="1"/>
</radialGradient>
<circle cx="39.062" cy="24.568" fill="url(#_33)" r="19.275"/>
<path d="M54.518,30.697l-0.631,0.998c0,0-0.941,0.297-0.979,0.596c-0.018,0.124-0.729,1.701-0.729,1.701 s-0.278,0.881,0.52,0.619C54.361,34.068,55.447,30.514,54.518,30.697z" fill="url(#_31)"/>
<path d="M24.503,32.658c0.273,0,0.974,0.087,1.059-0.17c0.006-0.108,0.104-2.745,0.104-2.745l1.049-1.396 v-1.112l-2.731-1.769l-1.185-1.283c0,0.004-0.459-1.387-0.891-1.779c-0.36-0.328-0.333-1.05-0.718-1.583 c-0.346-0.481-0.626-0.751-0.848-0.858c-1.761,7.135,0.97,13.198,3.529,16.471c0.366-0.525,0.656-1.109,0.88-1.625 C24.981,34.275,23.588,33.521,24.503,32.658z" fill="url(#_31)"/>
<radialGradient id="_36" gradientUnits="userSpaceOnUse" cx="42.88" cy="12.02" r="23.35">
<stop stop-color="#FFFFFF" offset="0"/>
<stop stop-color="#A2C2DD" offset="0.35"/>
<stop stop-color="#6C83BB" offset="0.7"/>
<stop stop-color="#003D6D" offset="1"/>
</radialGradient>
<path d="M47.939,7.456c-0.592,0.166-1.079,0.292-1.194,0.292c-0.335,0-0.245-0.283-0.542-0.321 c-0.302-0.037-2.787-0.679-3.121-0.345c-0.336,0.335-1.648,0.678-1.946,0.717c-0.298,0.037,0.099,0.94,0.892,1.508 c-0.11,0.111-1.883,1.09-1.883,0.418c0-0.67-0.341-1.161-0.886-1.36c-0.497,0.124-1.063,0.643-0.272,1.36 c0.492,0.446,0.004,0.506-0.032,0.635c-0.145,0.54,1.184,1.063,0.549,1.459c-0.596,0.052-1.129-0.057-1.228-0.112 c-0.938-0.525-1.15,1.558-1.15,1.558l1.025,0.505l-1.71,1.665c0,0-2.507,1.739-2.545,1.963c-0.037,0.224-1.113,3.108-0.741,3.968 c0.371,0.858,2.304,3.167,3.196,3.24c1.167,0.094,4.538-0.579,4.538-0.579c0.075,0.188,0.42,0.933,2.074,1.241 c0.061,0.011-0.714,1.494-0.26,2.131c1.159,2.542,0.239,3.503,0.281,4.632c0.041,1.113,1.842,5.896,3.387,5.896 c2.676,0,5.227-5.771,5.854-6.479c0.627-0.711-0.377-3.679,0.711-4.766c1.088-1.087,3.22-2.592,3.262-5.017 c-1.255,0.752-2.676,0.794-2.676,0.794l-1.609-3.317l-1.188-1.804l0.147-0.371l2.572,3.497c0.233,0.679,0.142,0.319,0.327,1.117 c1.465-0.355,2.986-1.595,2.394-3.152c-0.026-0.027-0.392,0.046-0.931,0.009c-0.832-0.607-1.332-1.889-1.332-1.889l1.889,1.589 l0.926,0.074l0.588,1.162c0.162,0.107,0.276,0.179,0.276,0.179s0.039,0.006,0.103,0.008C56.27,14.297,52.682,9.919,47.939,7.456z M43.823,8.221c-0.154-0.396,0.459-0.543,0.459-0.543s0.608,0.885,0.515,1.469c-0.097,0.58-0.742,0.224-0.938,0.051 C43.667,9.027,43.979,8.617,43.823,8.221z M49.373,15.645c-0.634,0-1.518-0.002-2.056-0.374c-0.538-0.371-0.731,0.159-1.091,0.532 c-0.235,0.242-2.66-0.958-2.66-0.958l-0.36-1.043l-2.211-0.15l-1.413,0.421l-1.376-0.217l1.525-0.544c0,0,1.098-1.029,1.491-1.365 c0.333-0.283,1.667-0.111,1.667-0.111l1.527,1.223c0,0-0.105,0.558-0.242,0.744c0.557-0.039,0.973-0.753,0.973-0.753 c-1.237-1.088-1.229-1.352-1.229-1.352l1.589,0.898l0.113,0.462c0,0,0.634,1.092,1.245,1.138c0.261,0.02,0.046-1.025,0.046-1.025 l0.328-0.047c0.637,1.48,2.893,1.333,3.305,1.678C50.564,16.338,49.637,15.72,49.373,15.645z M49.799,13.002 c-0.57-0.222-1.152-0.112-1.152-0.112c-0.131,0.251-1.045-0.008-0.861-0.563c0.184-0.557,0.783-0.117,1.059-0.42 c0.275-0.303,0.666-0.504,0.846-0.217c-0.207,0.274,0.184,0.489,0.453,0.634C50.903,12.735,51.402,13.327,49.799,13.002z M52.938,14.363c-0.283-0.254-0.104-0.555-0.53-0.96c-0.621-0.579-0.964-0.828-0.604-1.461c0.606-0.288,0.246,0.388,0.475,0.71 c0.123,0.172,0.669,0.717,1.188,1.416C53.896,14.648,53.225,14.619,52.938,14.363z" fill="url(#_36)"/>
<path d="M68.936,45.577l-6.817-6.818l-2.358,2.362l4.455,4.456c-1.38,1.383-4.455,4.456-4.455,4.456l2.358,2.367 L68.936,45.577z M68.563,38.759l-2.357,2.362c0,0,3.073,3.074,4.451,4.456c-1.378,1.383-4.451,4.456-4.451,4.456l2.357,2.367 l6.818-6.823L68.563,38.759z" fill="#FFFFFF"/>
<path d="M68.563,39.406l-1.717,1.715c0,0,3.248,3.247,4.457,4.456c-1.209,1.211-4.457,4.456-4.457,4.456 l1.717,1.721l6.173-6.177L68.563,39.406z M62.117,39.406l-1.715,1.715c0,0,3.244,3.247,4.455,4.456 c-1.211,1.211-4.455,4.456-4.455,4.456l1.715,1.721l6.175-6.177L62.117,39.406z" fill="#235487"/>
<linearGradient id="_37" gradientUnits="userSpaceOnUse" x1="76.16" y1="25.46" x2="57.56" y2="39.44">
<stop stop-color="#E6EEF4" offset="0"/>
<stop stop-color="#4A9900" offset="0.44"/>
<stop stop-color="#0E4E58" offset="0.94"/>
</linearGradient>
<path d="M70.292,29.619l-8.446,3.463L61.303,33.6c0.816,0.705,3.318,2.016,4.91,2.373 c1.357-0.582,3.674-3.402,3.893-4.291C70.357,30.688,70.371,30.121,70.292,29.619z" fill="url(#_37)"/>
<linearGradient id="_38" gradientUnits="userSpaceOnUse" x1="71.09" y1="32.52" x2="58.02" y2="31.45">
<stop stop-color="#E6EEF4" offset="0"/>
<stop stop-color="#4A9900" offset="0.44"/>
<stop stop-color="#0E4E58" offset="0.94"/>
</linearGradient>
<path d="M65.34,29.09l-3.715,3.831c1.482,1.036,3.268,1.815,4.484,2.147L65.34,29.09z" fill="url(#_38)"/>
<linearGradient id="_39" gradientUnits="userSpaceOnUse" x1="72.22" y1="42.8" x2="36.6" y2="52.67">
<stop stop-color="#E6EEF4" offset="0"/>
<stop stop-color="#4A9900" offset="0.44"/>
<stop stop-color="#0E4E58" offset="0.94"/>
</linearGradient>
<path d="M56.457,42.876l-15.603,5.087l0.31,1.553c0,0,2.586,2.94,8.251,3.893 c3.791-2.534,6.237-6.227,6.896-8.471L56.457,42.876z" fill="url(#_39)"/>
<linearGradient id="_40" gradientUnits="userSpaceOnUse" x1="34.6" y1="41.09" x2="58.85" y2="52.48">
<stop stop-color="#E6EEF4" offset="0"/>
<stop stop-color="#4A9900" offset="0.44"/>
<stop stop-color="#0E4E58" offset="0.94"/>
</linearGradient>
<path d="M40.837,47.963c0.392-3.666,2.293-7.005,2.293-7.005l5.754,1.962l0.164,9.008 C44.637,51.266,42.266,49.354,40.837,47.963z" fill="url(#_40)"/>
<linearGradient id="_41" gradientUnits="userSpaceOnUse" x1="63.16" y1="26.55" x2="36.75" y2="48.76">
<stop stop-color="#DCE8E4" offset="0"/>
<stop stop-color="#43910A" offset="1"/>
</linearGradient>
<path d="M43.131,40.958c0.866,0.823,3.217,2.321,5.662,2.104l19.355-18.317 c-1.686-0.937-4.066-1.142-4.066-1.142C57.496,26.381,48.936,33.259,43.131,40.958z" fill="url(#_41)"/>
<linearGradient id="_42" gradientUnits="userSpaceOnUse" x1="75.09" y1="21.51" x2="42.58" y2="52.97">
<stop stop-color="#DCE8E4" offset="0"/>
<stop stop-color="#43910A" offset="1"/>
</linearGradient>
<path d="M49.047,51.93c-0.5-1.861-0.705-6.824-0.25-8.925c5.305-7.754,12.936-14.686,19.317-18.291 c0,0,1.803,1.878,2.181,4.894c-0.443,1.91-2.654,4.324-4.188,5.455c-0.205-0.461-0.896-5.645-0.896-5.645 c-1.766,2.307-4.545,4.813-9.104,9.13c0.302,1.603,0.351,4.313,0.351,4.313C54.996,46.382,52.398,49.838,49.047,51.93z" fill="url(#_42)"/>
</svg>