<?xml version="1.0" encoding="UTF-8"?>
<!DOCTYPE svg PUBLIC "-//W3C//DTD SVG 1.1 Tiny//EN" "http://www.w3.org/Graphics/SVG/1.1/DTD/svg11-tiny.dtd">
<svg width="84" height="58" viewBox="0 0 84 58">
<linearGradient id="_9" gradientUnits="userSpaceOnUse" x1="49.51" y1="23.43" x2="61.43" y2="46.91">
<stop stop-color="#A2C2DD" offset="0.1"/>
<stop stop-color="#6C83BB" offset="0.71"/>
<stop stop-color="#003D6D" offset="0.99"/>
</linearGradient>
<path fill="url(#_9)" d="M65.455,18.543L65.438,8.072c0.001-0.017,0.002-0.032,0.002-0.048 c0-0.264-0.279-0.295-5.389-0.876L32.578,4.026l-6.341,1.52l0.015,10.619c0,0,14.459,16.279,14.634,16.475 c0,0.263,0.024,20.694,0.024,20.694l3.343,0.378c0.081,0.002,0.081,0.002,6.132-1.447l0.269-0.064c0,0-0.025-20.31-0.025-20.622 C50.862,31.372,65.455,18.543,65.455,18.543z M35.995,13.113c0-0.191-0.002-1.738-0.003-2.229 c0.629,0.072,4.45,0.506,4.869,0.554c0.001,0.513,0.007,5.762,0.009,7.163C39.91,17.52,36.068,13.195,35.995,13.113z M50.605,12.545c0.597,0.068,4.61,0.524,5.096,0.579c0,0.529,0.003,4.209,0.003,4.486c-0.205,0.181-4.169,3.665-5.087,4.473 C50.616,20.806,50.606,13.22,50.605,12.545z"/>
<linearGradient id="_10" gradientUnits="userSpaceOnUse" x1="46.7" y1="35.06" x2="28.37" y2="2.73">
<stop stop-color="#FFFFFF" offset="0"/>
<stop stop-color="#A2C2DD" offset="0.35"/>
<stop stop-color="#6C83BB" offset="0.7"/>
<stop stop-color="#003D6D" offset="1"/>
</linearGradient>
<path fill="url(#_10)" d="M35.646,13.246c-0.001-0.969-0.004-3.091-0.007-4.879l-6.013,1.441 c0.004,1.789,0.006,3.91,0.006,4.878c0.773,0.87,8.167,9.195,11.599,13.058l6.012-1.442 C43.812,22.439,36.417,14.114,35.646,13.246z"/>
<linearGradient id="_11" gradientUnits="userSpaceOnUse" x1="47.29" y1="-3.89" x2="47.29" y2="54.86">
<stop stop-color="#FFFFFF" offset="0"/>
<stop stop-color="#A2C2DD" offset="0.35"/>
<stop stop-color="#6C83BB" offset="0.7"/>
<stop stop-color="#003D6D" offset="1"/>
</linearGradient>
<polygon fill="url(#_11)" points="44.267,32.862 50.277,31.42 50.303,51.924 44.293,53.364 "/>
<linearGradient id="_12" gradientUnits="userSpaceOnUse" x1="46.23" y1="40.12" x2="47.89" y2="6.13">
<stop stop-color="#FFFFFF" offset="0"/>
<stop stop-color="#A2C2DD" offset="0.35"/>
<stop stop-color="#6C83BB" offset="0.7"/>
<stop stop-color="#003D6D" offset="1"/>
</linearGradient>
<polygon fill="url(#_12)" points="44.242,11.469 50.252,10.027 50.273,26.697 44.26,28.139 "/>
<linearGradient id="_13" gradientUnits="userSpaceOnUse" x1="45.56" y1="8.21" x2="48.06" y2="-3.04">
<stop stop-color="#FFFFFF" offset="0.05"/>
<stop stop-color="#A2C2DD" offset="1"/>
</linearGradient>
<polygon fill="url(#_13)" points="26.588,5.822 32.6,4.381 65.091,8.073 59.079,9.513 "/>
<polygon fill="url(#_11)" points="65.089,8.073 59.079,9.513 59.091,19.825 44.267,32.862 50.277,31.42 65.104,18.385 "/>
<linearGradient id="_15" gradientUnits="userSpaceOnUse" x1="27.61" y1="-1.08" x2="65.61" y2="53.42">
<stop stop-color="#FFFFFF" offset="0.05"/>
<stop stop-color="#A2C2DD" offset="1"/>
</linearGradient>
<path fill="url(#_15)" d="M59.079,9.513l0.013,10.313L44.267,32.862l0.025,20.502l-3.032-0.343l-0.024-20.515 L26.602,16.032l-0.014-10.21L59.079,9.513z M56.055,17.769c0-0.988-0.002-3.155-0.004-4.957 c-1.189-0.135-6.344-0.721-11.809-1.343l0.019,16.67C47.715,25.101,55.265,18.463,56.055,17.769 M41.23,27.743l-0.02-16.618 c-5.381-0.611-10.41-1.183-11.585-1.316c0.004,1.789,0.006,3.91,0.006,4.878C30.405,15.557,37.799,23.881,41.23,27.743"/>
<path fill="#FFFFFF" d="M12.673,34.764c-2.913,0-6.905,0.692-7.916,6.672l-0.151,0.902c0,0,6.712,0,7.508,0 c0.241,0.432,0.601,1.077,0.826,1.49c-0.226,0.414-0.585,1.059-0.826,1.491c-0.796,0-7.508,0-7.508,0l0.151,0.901 c1.011,5.978,5.003,6.67,7.916,6.67c2.298,0,4.346-1.928,5.99-3.477c0.889-0.839,1.728-1.627,2.172-1.627h20.561l0.229-0.253 c0.44-0.485,1.465-1.813,1.488-3.674v-0.064c-0.021-1.863-1.048-3.189-1.488-3.675l-0.229-0.253h-20.56 c-0.443,0-1.284-0.788-2.171-1.623C17.019,36.694,14.972,34.764,12.673,34.764z"/>
<linearGradient id="_16" gradientUnits="userSpaceOnUse" x1="11.27" y1="29.9" x2="33.43" y2="56.57">
<stop stop-color="#E6EEF4" offset="0"/>
<stop stop-color="#9646AC" offset="0.44"/>
<stop stop-color="#3D013F" offset="0.94"/>
</linearGradient>
<path fill="url(#_16)" d="M42.342,43.828c0-0.008,0.002-0.016,0.002-0.022H42.34c-0.019-1.62-0.946-2.79-1.288-3.164 c-0.435,0-20.217,0-20.217,0c-0.753,0-1.568-0.771-2.703-1.835c-1.544-1.456-3.467-3.268-5.459-3.268 c-3.234,0-6.294,0.95-7.152,6.025c1.216,0,7.05,0,7.05,0l1.253,2.264l-1.253,2.264c0,0-5.834,0-7.05,0 c0.858,5.076,3.918,6.025,7.152,6.025c1.992,0,3.916-1.813,5.459-3.267c1.135-1.065,1.95-1.836,2.703-1.836 c0,0,19.782,0,20.217,0c0.341-0.372,1.27-1.543,1.288-3.163h0.004C42.344,43.844,42.342,43.837,42.342,43.828z"/>
</svg>