<?xml version="1.0" encoding="UTF-8"?>
<!DOCTYPE svg PUBLIC "-//W3C//DTD SVG 1.1 Tiny//EN" "http://www.w3.org/Graphics/SVG/1.1/DTD/svg11-tiny.dtd">
<svg baseProfile="tiny" height="72" version="1.1" viewBox="0 0 84 72" width="84" xmlns="http://www.w3.org/2000/svg" xmlns:xlink="http://www.w3.org/1999/xlink">
<g>
<g>
<rect fill="none" height="71.935" width="84"/>
</g>
<rect fill="none" height="71.934" width="84" y="0.065"/>
<g>
<linearGradient gradientTransform="matrix(6.8182 0 0 -6.8182 2288.4805 1902.3523)" gradientUnits="userSpaceOnUse" id="XMLID_15_" x1="-329.9448" x2="-330.4514" y1="272.0483" y2="269.9977">
<stop offset="0" style="stop-color:#A2C2DD"/>
<stop offset="0.1" style="stop-color:#A2C2DD"/>
<stop offset="0.71" style="stop-color:#6C83BB"/>
<stop offset="0.99" style="stop-color:#003D6D"/>
<stop offset="1" style="stop-color:#003D6D"/>
</linearGradient>
<path d="M20.137,26.099c0,0,0.676,3.128,0.963,4.461c-1.368-0.446-5.165-1.684-5.165-1.684    c-9.208,12.27-0.09,27.265,10.492,31.798l3.502-5.186l0.887,3.611c10.786,3.486,26.012,0.849,34.62-10.713    c0,0-0.061-0.691-0.104-1.158c0.166,0.053,0.828,0.275,0.828,0.275c10.666-15.827,0.479-30.012-9.614-32.648l-0.696,0.997    l-0.184-1.414C43.248,10.086,26.522,16.262,20.137,26.099z M38.417,38.083c0.58,0.207,0.891,0.317,1.421,0.508    c-0.359,0.506-0.684,0.963-1.272,1.791C38.497,39.342,38.461,38.783,38.417,38.083z" fill="url(#XMLID_15_)"/>
<linearGradient gradientTransform="matrix(6.8182 0 0 -6.8182 2288.4805 1902.3523)" gradientUnits="userSpaceOnUse" id="XMLID_16_" x1="-333.5151" x2="-329.7819" y1="271.3472" y2="276.2692">
<stop offset="0" style="stop-color:#FFFFFF"/>
<stop offset="0.1" style="stop-color:#FFFFFF"/>
<stop offset="0.7" style="stop-color:#D1E1EE"/>
<stop offset="1" style="stop-color:#A2C2DD"/>
</linearGradient>
<path d="M55.194,14.926c-11.866-3.802-27.38,1.222-34.408,11.303l21.601,7.042    C42.388,33.272,55.26,14.947,55.194,14.926z" fill="url(#XMLID_16_)"/>
<linearGradient gradientTransform="matrix(6.8182 0 0 -6.8182 2288.4805 1902.3523)" gradientUnits="userSpaceOnUse" id="XMLID_17_" x1="-328.0874" x2="-328.7658" y1="277.9985" y2="272.7797">
<stop offset="0" style="stop-color:#A2C2DD"/>
<stop offset="0.1" style="stop-color:#A2C2DD"/>
<stop offset="0.71" style="stop-color:#6C83BB"/>
<stop offset="0.99" style="stop-color:#003D6D"/>
<stop offset="1" style="stop-color:#003D6D"/>
</linearGradient>
<polygon fill="url(#XMLID_17_)" points="42.689,38.965 55.664,19.36 55.145,14.86 42.318,33.223   "/>
<linearGradient gradientTransform="matrix(6.8182 0 0 -6.8182 2288.4805 1902.3523)" gradientUnits="userSpaceOnUse" id="XMLID_18_" x1="-330.4565" x2="-331.1352" y1="278.3081" y2="273.0874">
<stop offset="0" style="stop-color:#A2C2DD"/>
<stop offset="0.1" style="stop-color:#A2C2DD"/>
<stop offset="0.71" style="stop-color:#6C83BB"/>
<stop offset="0.99" style="stop-color:#003D6D"/>
<stop offset="1" style="stop-color:#003D6D"/>
</linearGradient>
<polygon fill="url(#XMLID_18_)" points="42.318,33.223 20.787,26.23 21.935,31.551 42.689,38.965   "/>
<linearGradient gradientTransform="matrix(6.8182 0 0 -6.8182 2288.4805 1902.3523)" gradientUnits="userSpaceOnUse" id="XMLID_19_" x1="-333.8628" x2="-332.2296" y1="272.9927" y2="270.6797">
<stop offset="0" style="stop-color:#E6EEF4"/>
<stop offset="0.44" style="stop-color:#A3740A"/>
<stop offset="0.94" style="stop-color:#474105"/>
<stop offset="1" style="stop-color:#474105"/>
</linearGradient>
<path d="M24.937,54.731L13.012,42.89c0.556,4.256,3.971,12.813,13.198,17.016L24.937,54.731z" fill="url(#XMLID_19_)"/>
<linearGradient gradientTransform="matrix(6.8182 0 0 -6.8182 2288.4805 1902.3523)" gradientUnits="userSpaceOnUse" id="XMLID_20_" x1="-332.7725" x2="-331.0541" y1="274.4712" y2="271.6505">
<stop offset="0" style="stop-color:#E2E6E4"/>
<stop offset="1" style="stop-color:#A3740A"/>
</linearGradient>
<path d="M24.937,54.731c-11.868-3.804-15.789-15.059-8.761-25.139l21.603,7.044L24.937,54.731z" fill="url(#XMLID_20_)"/>
<linearGradient gradientTransform="matrix(6.8182 0 0 -6.8182 2288.4805 1902.3523)" gradientUnits="userSpaceOnUse" id="XMLID_21_" x1="-332.6094" x2="-330.1556" y1="274.5015" y2="270.691">
<stop offset="0" style="stop-color:#E6EEF4"/>
<stop offset="0.44" style="stop-color:#A3740A"/>
<stop offset="0.94" style="stop-color:#474105"/>
<stop offset="1" style="stop-color:#474105"/>
</linearGradient>
<polygon fill="url(#XMLID_21_)" points="38.083,42.329 26.21,59.906 24.937,54.731 37.71,36.585   "/>
<linearGradient gradientTransform="matrix(6.8182 0 0 -6.8182 2288.4805 1902.3523)" gradientUnits="userSpaceOnUse" id="XMLID_22_" x1="-325.2476" x2="-328.6" y1="274.8716" y2="268.8021">
<stop offset="0" style="stop-color:#FFFFFF"/>
<stop offset="0.53" style="stop-color:#A2C2DD"/>
<stop offset="0.87" style="stop-color:#6C83BB"/>
<stop offset="1" style="stop-color:#003D6D"/>
</linearGradient>
<path d="M65.359,40.632l2.186-16.183c4.543,8.837,2.553,16.05-1.633,22.332L65.359,40.632z" fill="url(#XMLID_22_)"/>
<linearGradient gradientTransform="matrix(6.8182 0 0 -6.8182 2288.4805 1902.3523)" gradientUnits="userSpaceOnUse" id="XMLID_23_" x1="-330.8862" x2="-327.152" y1="269.3511" y2="274.2745">
<stop offset="0" style="stop-color:#FFFFFF"/>
<stop offset="0.1" style="stop-color:#FFFFFF"/>
<stop offset="0.7" style="stop-color:#D1E1EE"/>
<stop offset="1" style="stop-color:#A2C2DD"/>
</linearGradient>
<path d="M65.359,40.632c6.99-10.023,3.15-21.21-8.564-25.074L43.989,33.904L65.359,40.632z" fill="url(#XMLID_23_)"/>
<linearGradient gradientTransform="matrix(6.8182 0 0 -6.8182 2288.4805 1902.3523)" gradientUnits="userSpaceOnUse" id="XMLID_24_" x1="-326.9639" x2="-327.6423" y1="277.8521" y2="272.6335">
<stop offset="0" style="stop-color:#A2C2DD"/>
<stop offset="0.1" style="stop-color:#A2C2DD"/>
<stop offset="0.71" style="stop-color:#6C83BB"/>
<stop offset="0.99" style="stop-color:#003D6D"/>
<stop offset="1" style="stop-color:#003D6D"/>
</linearGradient>
<polygon fill="url(#XMLID_24_)" points="65.359,40.632 43.989,33.904 44.294,39.597 65.912,46.781   "/>
<linearGradient gradientTransform="matrix(6.8182 0 0 -6.8182 2288.4805 1902.3523)" gradientUnits="userSpaceOnUse" id="XMLID_25_" x1="-326.48" x2="-329.832" y1="275.5522" y2="269.4836">
<stop offset="0" style="stop-color:#FFFFFF"/>
<stop offset="0.53" style="stop-color:#A2C2DD"/>
<stop offset="0.87" style="stop-color:#6C83BB"/>
<stop offset="1" style="stop-color:#003D6D"/>
</linearGradient>
<path d="M31.322,58.611l-1.272-5.178L64.262,42.07l0.551,6.145C59.596,55.445,46.84,63.031,31.322,58.611z    " fill="url(#XMLID_25_)"/>
<linearGradient gradientTransform="matrix(6.8182 0 0 -6.8182 2288.4805 1902.3523)" gradientUnits="userSpaceOnUse" id="XMLID_26_" x1="-330.834" x2="-327.1003" y1="269.312" y2="274.2346">
<stop offset="0" style="stop-color:#FFFFFF"/>
<stop offset="0.1" style="stop-color:#FFFFFF"/>
<stop offset="0.7" style="stop-color:#D1E1EE"/>
<stop offset="1" style="stop-color:#A2C2DD"/>
</linearGradient>
<path d="M30.05,53.433c11.867,3.805,27.184-1.284,34.212-11.363L42.89,35.337L30.05,53.433z" fill="url(#XMLID_26_)"/>
<linearGradient gradientUnits="userSpaceOnUse" id="XMLID_27_" x1="13.0635" x2="46.4411" y1="60.4165" y2="12.3299">
<stop offset="0" style="stop-color:#E6EEF4"/>
<stop offset="0.0644" style="stop-color:#DAD9CB"/>
<stop offset="0.2029" style="stop-color:#C3AE79"/>
<stop offset="0.3167" style="stop-color:#B28F3D"/>
<stop offset="0.3999" style="stop-color:#A77B18"/>
<stop offset="0.4438" style="stop-color:#A3740A"/>
<stop offset="0.5594" style="stop-color:#866408"/>
<stop offset="0.7193" style="stop-color:#645107"/>
<stop offset="0.8514" style="stop-color:#4F4505"/>
<stop offset="0.9382" style="stop-color:#474105"/>
<stop offset="1" style="stop-color:#474105"/>
</linearGradient>
<path d="M30.641,41.425c-0.866,2.377-3.624,4.436-6.161,4.594c-2.535,0.158-3.894-1.641-3.028-4.018    c0.866-2.381,3.623-4.44,6.159-4.602C30.148,37.245,31.503,39.042,30.641,41.425z" fill="url(#XMLID_27_)"/>
<path d="M28.132,31.624L23.147,7.637l1.169-0.262c0.78,3.394,2.565,4.587,4.374,5.875    c4.119,2.923,9.057,5.436,5.539,16.146l-0.834-0.334c2.426-8.333-0.791-11.168-6.845-12.175l3.237,16.032L28.132,31.624z" fill="#5E1B67"/>
<radialGradient cx="-331.999" cy="274.2983" gradientTransform="matrix(6.8182 0 0 -6.8182 2288.4805 1902.3523)" gradientUnits="userSpaceOnUse" id="XMLID_28_" r="0.7886">
<stop offset="0" style="stop-color:#DEDEED"/>
<stop offset="0.5" style="stop-color:#A15EB6"/>
<stop offset="1" style="stop-color:#5E1B67"/>
</radialGradient>
<path d="M29.579,34.878c-0.888,2.62-3.737,4.881-6.37,5.042c-2.631,0.169-4.05-1.824-3.161-4.451    c0.886-2.616,3.737-4.876,6.369-5.043C29.047,30.263,30.466,32.255,29.579,34.878z" fill="url(#XMLID_28_)"/>
</g>
</g>
</svg>
