<?xml version="1.0" encoding="UTF-8"?>
<!DOCTYPE svg PUBLIC "-//W3C//DTD SVG 1.1 Tiny//EN" "http://www.w3.org/Graphics/SVG/1.1/DTD/svg11-tiny.dtd">
<svg width="16" height="16" viewBox="0 0 16 16">
<polygon fill="#496DA2" points="10.273,14.322 11.721,13.359 11.824,12.009 13.251,12.572 14.445,11.852 12.729,4.503 11.066,5.39 "/>
<polygon fill="#A2C2DD" points="10.254,14.344 1.588,10.271 3.042,2.698 11.145,5.267 "/>
<polygon fill="#CEE1EF" points="12.729,4.459 4.826,2.425 3.042,2.698 11.157,5.385 "/>
<polygon fill="#496DA2" points="6.741,11.229 7.542,6.195 4.829,7.461 5.761,7.62 5.271,10.65 "/>
<path fill="#496DA2" d="M10.398,3.003C9.485,3.156,8.785,4.191,9.133,5.427c-0.051,0.09-0.088,0.188-0.088,0.298 c0,0.338,0.274,0.613,0.613,0.613c0.338,0,0.613-0.274,0.613-0.613c0-0.19-0.093-0.353-0.229-0.465 c0.003-0.453,0.246-1.171,1.356-1.157l0.597,0.156C12.027,3.451,11.161,2.875,10.398,3.003z"/>
<path fill="#496DA2" d="M7.732,2.38C6.904,2.518,6.259,3.443,6.536,4.561c-0.06,0.091-0.103,0.193-0.103,0.31 c0,0.319,0.258,0.577,0.577,0.577c0.319,0,0.577-0.258,0.577-0.577c0-0.165-0.07-0.311-0.181-0.416 c0.009-0.422,0.245-1.067,1.261-1.056l0.554,0.149C9.249,2.795,8.443,2.262,7.732,2.38z"/>
<path fill="#496DA2" d="M5.056,1.739C4.281,1.87,3.682,2.724,3.926,3.761C3.878,3.826,3.842,3.897,3.833,3.978 C3.808,4.24,4.032,4.466,4.346,4.475c0.312,0.011,0.586-0.198,0.613-0.463c0.018-0.166-0.07-0.307-0.207-0.398 C4.784,3.22,5.03,2.686,5.928,2.695l0.518,0.139C6.469,2.13,5.718,1.63,5.056,1.739z"/>
</svg>