<?xml version="1.0" encoding="UTF-8"?>
<!DOCTYPE svg PUBLIC "-//W3C//DTD SVG 1.1 Tiny//EN" "http://www.w3.org/Graphics/SVG/1.1/DTD/svg11-tiny.dtd">
<svg baseProfile="tiny" height="60px" viewBox="0 0 60 60" width="60px" xmlns="http://www.w3.org/2000/svg" xmlns:xlink="http://www.w3.org/1999/xlink">
<path d="M20.362,29.171c0.373-0.46,0.755-0.89,1.165-1.246c-0.538-0.606-1.003-1.274-1.406-1.983h-3.905 c-2.306,0-4.583,5.397-6.149,9.935c-1.566,4.535-2.376,7.83-2.376,7.83h3.672c0-0.57,0.756-3.564,1.999-7.236 c1.35-3.619,2.353-5.791,3.467-7.299H20.362z M19.276,24.089c-0.415-1.175-0.65-2.433-0.66-3.745 c-1.361-0.858-2.275-2.365-2.275-4.09c0-2.669,2.173-4.844,4.843-4.844c0.462,0,0.9,0.086,1.324,0.208 c0.946-0.842,2.024-1.54,3.209-2.037c-1.294-0.881-2.854-1.398-4.534-1.398c-4.452,0-8.073,3.621-8.073,8.072 C13.111,20.047,15.744,23.229,19.276,24.089z M29.362,33.172c0.373-0.461,0.756-0.891,1.165-1.246 c-0.538-0.605-1.003-1.273-1.406-1.983h-3.905c-2.306,0-4.583,5.397-6.149,9.934c-1.566,4.535-2.376,7.83-2.376,7.83h3.672 c0-0.57,0.756-3.564,1.999-7.236c1.35-3.619,2.353-5.791,3.467-7.299H29.362z M22.111,20.254c0,3.793,2.632,6.975,6.165,7.835 c-0.415-1.175-0.65-2.433-0.66-3.745c-1.361-0.858-2.275-2.365-2.275-4.09c0-2.669,2.173-4.844,4.843-4.844 c0.462,0,0.9,0.086,1.324,0.208c0.946-0.842,2.024-1.54,3.209-2.037c-1.293-0.881-2.854-1.398-4.533-1.398 C25.732,12.182,22.111,15.803,22.111,20.254z M31.112,24.254c0,4.451,3.62,8.072,8.072,8.072c4.449,0,8.073-3.621,8.073-8.072 c0-4.451-3.624-8.072-8.073-8.072C34.732,16.182,31.112,19.803,31.112,24.254z M39.184,19.41c2.67,0,4.843,2.174,4.843,4.844 c0,2.67-2.173,4.843-4.843,4.843s-4.844-2.173-4.844-4.843C34.34,21.584,36.514,19.41,39.184,19.41z M50.176,43.877 c-1.565-4.537-3.844-9.934-6.149-9.934h-4.781h-5.03c-2.306,0-4.584,5.396-6.149,9.934c-1.566,4.535-2.376,7.83-2.376,7.83h3.672 c0-0.57,0.756-3.564,1.999-7.236c1.351-3.619,2.353-5.791,3.468-7.299h4.417h4.169c1.114,1.508,2.117,3.68,3.467,7.299 c1.243,3.672,1.999,6.666,1.999,7.236h3.672C52.552,51.707,51.743,48.412,50.176,43.877z" fill="#47C30E"/>
<rect fill="none" height="60" width="60"/>
</svg>
