<?xml version="1.0" encoding="UTF-8" standalone="no"?>
<!DOCTYPE svg PUBLIC "-//W3C//DTD SVG 1.1 Tiny//EN" "http://www.w3.org/Graphics/SVG/1.1/DTD/svg11-tiny.dtd">
<svg xmlns="http://www.w3.org/2000/svg" xmlns:xlink="http://www.w3.org/1999/xlink" baseProfile="tiny" height="32" version="1.1" viewBox="0 0 38 32" width="38">
<g>
<rect fill="none" height="32" width="38"/>
<path d="M28,15.198h-2c-0.272,0.007-0.819,0.241-0.799,0.801v2.197L23,18.199c-0.211,0-0.789,0.178-0.801,0.801v2   c0.027,0.268,0.184,0.721,0.801,0.8h2.2v2.199c0,0.212,0.167,0.737,0.799,0.799h2c0.618-0.03,0.802-0.585,0.802-0.799V21.8H31   c0.633-0.048,0.799-0.588,0.799-0.8v-2c-0.041-0.607-0.59-0.801-0.799-0.801h-2.199v-2.2C28.758,15.361,28.211,15.198,28,15.198z" fill-opacity="0.4" stroke-opacity="0.4"/>
<path d="M7.307,14.01l1.235,2.124c0.111,0.19,0.56,0.582,1.125,0.269l2.041-1.318l-0.135,2.407   c-0.011,0.219,0.196,0.808,0.799,0.845h2.472c0.218,0,0.8-0.162,0.798-0.845l-0.135-2.407l2.038,1.318   c0.184,0.121,0.744,0.271,1.126-0.269l1.235-2.124c0.109-0.19,0.195-0.856-0.327-1.114l-2.173-1.116l2.173-1.117   c0.194-0.1,0.627-0.53,0.327-1.114l-1.235-2.124c-0.32-0.542-0.942-0.39-1.126-0.269l-2.041,1.318l0.137-2.431   c0.012-0.218-0.166-0.849-0.798-0.845h-2.472c-0.218,0-0.853,0.226-0.799,0.845l0.137,2.433l-2.043-1.32   C9.484,7.034,8.79,6.903,8.542,7.424L7.307,9.548c-0.109,0.19-0.226,0.73,0.327,1.114l2.173,1.117l-2.173,1.116   C7.439,12.995,6.998,13.444,7.307,14.01z" fill-opacity="0.4" stroke-opacity="0.4"/>
<polygon fill="#FFFFFF" points="31,19 28,19 28,16 26,16 26,19 23,19 23,21 26,21 26,24 28,24 28,21 31,21  "/>
<path d="M19.215,13.608l-1.235,2.125l-3.359-2.175l0.223,3.978h-2.471l0.223-3.978l-3.361,2.175L8,13.608   l3.557-1.828L8,9.952l1.234-2.125l3.361,2.175L12.373,6h2.471l-0.223,4.002l3.359-2.175l1.235,2.125l-3.557,1.828L19.215,13.608z" fill="#FFFFFF"/>
</g>
</svg>
