<?xml version="1.0" encoding="UTF-8" standalone="no"?>
<!DOCTYPE svg PUBLIC "-//W3C//DTD SVG 1.1 Tiny//EN" "http://www.w3.org/Graphics/SVG/1.1/DTD/svg11-tiny.dtd">
<svg xmlns="http://www.w3.org/2000/svg" xmlns:xlink="http://www.w3.org/1999/xlink" width="42" height="36" viewBox="0 0 42 36">
<rect fill="none" height="36" width="42"/>
<linearGradient id="SVGID_1" gradientUnits="userSpaceOnUse" x1="20.11" y1="18.82" x2="27.09" y2="32.57">
<stop stop-color="#AABBD7" offset="0"/>
<stop stop-color="#92A5CC" offset="0.26"/>
<stop stop-color="#6C83BB" offset="0.71"/>
<stop stop-color="#637DB5" offset="0.76"/>
<stop stop-color="#4C6EA4" offset="0.83"/>
<stop stop-color="#265689" offset="0.91"/>
<stop stop-color="#003D6D" offset="0.99"/>
</linearGradient>
<path d="M6.726,28.459l0.005-12.532l-1.335-0.02l7.935-9.851l2.701-0.35l0.049-2.231l1.808-0.241 l1.862,0.12l-0.029,1.875l9.63-1.248l7.388,11.592l-0.962,0.222l-0.03,12.277l-16.351,4.693L6.726,28.459L6.726,28.459z" fill="url(#SVGID_1)"/>
<linearGradient id="SVGID_2" gradientUnits="userSpaceOnUse" x1="18.66" y1="2.59" x2="18.66" y2="7.44">
<stop stop-color="#E6EEF4" offset="0"/>
<stop stop-color="#D7A6A9" offset="0.15"/>
<stop stop-color="#CA6C6D" offset="0.29"/>
<stop stop-color="#C34848" offset="0.39"/>
<stop stop-color="#C03A3A" offset="0.44"/>
<stop stop-color="#9E372D" offset="0.53"/>
<stop stop-color="#6F331B" offset="0.66"/>
<stop stop-color="#4D300D" offset="0.78"/>
<stop stop-color="#382E05" offset="0.87"/>
<stop stop-color="#302D02" offset="0.94"/>
</linearGradient>
<polygon fill="url(#SVGID_2)" points="19.531,6.228 17.75,6.643 17.75,3.765 19.573,3.519 "/>
<linearGradient id="SVGID_3" gradientUnits="userSpaceOnUse" x1="16.97" y1="2.54" x2="16.97" y2="5.64">
<stop stop-color="#E3DFE4" offset="0"/>
<stop stop-color="#C03A3A" offset="1"/>
</linearGradient>
<polygon fill="url(#SVGID_3)" points="16.251,3.629 17.75,3.758 17.75,6.643 16.198,6.103 "/>
<polygon fill="#7B341F" points="17.893,3.411 19.573,3.519 17.75,3.758 16.251,3.629 "/>
<linearGradient id="SVGID_4" gradientUnits="userSpaceOnUse" x1="43.93" y1="2.36" x2="15.97" y2="38.29">
<stop stop-color="#FFFFFF" offset="0"/>
<stop stop-color="#E0EAF3" offset="0.11"/>
<stop stop-color="#A2C2DD" offset="0.35"/>
<stop stop-color="#8CA9CF" offset="0.48"/>
<stop stop-color="#6C83BB" offset="0.7"/>
<stop stop-color="#637DB5" offset="0.75"/>
<stop stop-color="#4C6EA4" offset="0.82"/>
<stop stop-color="#265689" offset="0.91"/>
<stop stop-color="#003D6D" offset="0.99"/>
</linearGradient>
<polygon fill="url(#SVGID_4)" points="35.573,27.939 19.402,32.583 19.385,19.058 35.604,15.367 "/>
<polygon fill="#496DA2" points="35.573,27.939 19.402,32.583 19.402,31.683 35.573,27.04 "/>
<linearGradient id="SVGID_5" gradientUnits="userSpaceOnUse" x1="13.06" y1="3.37" x2="13.17" y2="29.25">
<stop stop-color="#FFFFFF" offset="0"/>
<stop stop-color="#A2C2DD" offset="1"/>
</linearGradient>
<polygon fill="url(#SVGID_5)" points="19.402,32.583 6.902,28.333 6.907,15.254 13.385,7.249 19.385,19.058 "/>
<polygon fill="#7899BA" points="19.402,32.583 6.902,28.333 6.908,27.468 19.402,31.683 "/>
<linearGradient id="SVGID_6" gradientUnits="userSpaceOnUse" x1="19.58" y1="-4.39" x2="33.63" y2="35.5">
<stop stop-color="#E6EEF4" offset="0"/>
<stop stop-color="#D7A6A9" offset="0.15"/>
<stop stop-color="#CA6C6D" offset="0.29"/>
<stop stop-color="#C34848" offset="0.39"/>
<stop stop-color="#C03A3A" offset="0.44"/>
<stop stop-color="#9E372D" offset="0.53"/>
<stop stop-color="#6F331B" offset="0.66"/>
<stop stop-color="#4D300D" offset="0.78"/>
<stop stop-color="#382E05" offset="0.87"/>
<stop stop-color="#302D02" offset="0.94"/>
</linearGradient>
<polygon fill="url(#SVGID_6)" points="36.458,15.458 20.034,19.235 13.423,6.221 29.265,4.169 "/>
<polygon fill="#7B341F" points="20.034,19.235 19.385,19.058 13.385,7.249 6.52,15.759 5.757,15.738 13.423,6.221 "/>
<linearGradient id="SVGID_7" gradientUnits="userSpaceOnUse" x1="37.18" y1="23.03" x2="26.85" y2="26.28">
<stop stop-color="#FFFFFF" offset="0"/>
<stop stop-color="#E0EAF3" offset="0.11"/>
<stop stop-color="#A2C2DD" offset="0.35"/>
<stop stop-color="#8CA9CF" offset="0.48"/>
<stop stop-color="#6C83BB" offset="0.7"/>
<stop stop-color="#637DB5" offset="0.75"/>
<stop stop-color="#4C6EA4" offset="0.82"/>
<stop stop-color="#265689" offset="0.91"/>
<stop stop-color="#003D6D" offset="0.99"/>
</linearGradient>
<polygon fill="url(#SVGID_7)" points="33.71,27.636 30.116,28.636 30.096,21.739 33.721,20.906 "/>
<path d="M29.845,21.54l4.126-0.947l-0.012,7.232l-4.092,1.138L29.845,21.54L29.845,21.54z M30.346,21.938 l0.02,6.367l3.095-0.861l0.01-6.225L30.346,21.938L30.346,21.938z" fill="#6D5607"/>
<polygon fill="#7B341F" points="6.907,15.254 6.52,15.759 6.907,15.754 "/>
<linearGradient id="SVGID_8" gradientUnits="userSpaceOnUse" x1="5.69" y1="19.5" x2="20.89" y2="26.42">
<stop stop-color="#FFFFFF" offset="0"/>
<stop stop-color="#A2C2DD" offset="1"/>
</linearGradient>
<polygon fill="url(#SVGID_8)" points="15.246,25.896 10.303,24.405 10.345,19.739 15.206,21.027 "/>
<path d="M10.052,24.591l0.046-5.176l5.355,1.419l0.045,5.399L10.052,24.591L10.052,24.591z M10.554,24.22 l4.438,1.338l-0.035-4.338l-4.366-1.156L10.554,24.22L10.554,24.22z" fill="#6D5607"/>
<linearGradient id="SVGID_9" gradientUnits="userSpaceOnUse" x1="31.94" y1="20.11" x2="17.1" y2="26.87">
<stop stop-color="#FFFFFF" offset="0"/>
<stop stop-color="#A2C2DD" offset="1"/>
</linearGradient>
<polygon fill="url(#SVGID_9)" points="22.554,26.229 27.304,25.156 27.387,20.323 22.554,21.448 "/>
<path d="M22.304,21.249l5.339-1.242l-0.092,5.35l-5.248,1.185L22.304,21.249L22.304,21.249z M22.804,21.646 v4.271l4.253-0.962l0.075-4.316L22.804,21.646L22.804,21.646z" fill="#6D5607"/>
<polygon fill="#6D5607" points="12.684,25.396 12.684,20.364 12.934,20.364 12.934,25.396 12.684,25.396 "/>
<polygon fill="#6D5607" points="10.353,22.401 10.42,22.161 15.17,23.495 15.103,23.734 10.353,22.401 "/>
<polygon fill="#6D5607" points="15.819,27.009 9.705,25.077 9.705,24.327 15.819,26.259 "/>
<polygon fill="#6D5607" points="27.929,25.906 21.837,27.413 21.837,26.663 27.929,25.156 "/>
<polygon fill="#6D5607" points="22.649,23.7 27.316,22.575 27.374,22.819 22.708,23.944 22.649,23.7 "/>
<radialGradient id="SVGID_10" gradientUnits="userSpaceOnUse" cx="30.93" cy="25.57" r="0.44">
<stop stop-color="#E2E6E4" offset="0"/>
<stop stop-color="#A3740A" offset="1"/>
</radialGradient>
<circle cx="30.929" cy="25.573" fill="url(#SVGID_10)" r="0.438"/>
<polygon fill="#6D5607" points="24.937,25.772 24.937,20.868 25.187,20.868 25.187,25.772 24.937,25.772 "/>
</svg>