<?xml version="1.0" encoding="UTF-8"?>
<!DOCTYPE svg PUBLIC "-//W3C//DTD SVG 1.1 Tiny//EN" "http://www.w3.org/Graphics/SVG/1.1/DTD/svg11-tiny.dtd">
<svg baseProfile="tiny" height="44px" version="1.1" viewBox="0 0 44 44" width="44px" x="0px" xmlns="http://www.w3.org/2000/svg" xmlns:xlink="http://www.w3.org/1999/xlink" y="0px">
<g>
<rect fill="none" height="44" width="44"/>
<path d="M34.817,12.138l-4.869,2.149l1.241,2.803l4.865-2.152L34.817,12.138z M27.722,7.175l-2.023,4.933   l2.834,1.167l2.025-4.937L27.722,7.175z M8.702,11.321c1.634-1.499,3.313,0.214,3.313,0.214L22.5,22.939   c0,0,1.559,1.659-0.148,3.223c-1.705,1.572-3.28-0.075-3.28-0.075L8.584,14.688C8.584,14.688,7.07,12.821,8.702,11.321z    M32.392,24.69c0,6.701-5.434,12.136-12.133,12.136c-6.705,0-12.139-5.437-12.139-12.136c0-1.758,0.388-3.41,1.061-4.912   l1.735,1.729c-0.346,1-0.543,2.065-0.543,3.181c0.009,5.458,4.424,9.874,9.886,9.882c5.459-0.008,9.869-4.424,9.881-9.882   c-0.012-5.462-4.422-9.879-9.881-9.886c-0.708,0-1.389,0.103-2.056,0.249l-1.848-1.848c1.227-0.422,2.535-0.658,3.904-0.658   C26.957,12.548,32.392,17.983,32.392,24.69z" fill="url(#SVGID_1_)"/>
<defs>
<linearGradient gradientUnits="userSpaceOnUse" id="SVGID_1_" x1="21.9463" x2="22.1713" y1="6.1016" y2="38.9513">
<stop offset="0" style="stop-color:#B2B2B2"/>
<stop offset="1" style="stop-color:#000000"/>
</linearGradient>
</defs>
</g>
</svg>
