<?xml version="1.0" encoding="UTF-8" standalone="no"?>
<!DOCTYPE svg PUBLIC "-//W3C//DTD SVG 1.1 Tiny//EN" "http://www.w3.org/Graphics/SVG/1.1/DTD/svg11-tiny.dtd">
<svg xmlns="http://www.w3.org/2000/svg" xmlns:xlink="http://www.w3.org/1999/xlink" width="48" height="41" viewBox="0 0 48 41">
<rect fill="none" height="41" width="48"/>
<path d="M41.727,20.501c0,9.79-7.936,17.724-17.728,17.724c-9.789,0-17.725-7.934-17.725-17.724 c0-9.792,7.936-17.724,17.725-17.724C33.791,2.777,41.727,10.709,41.727,20.501z"/>
<path d="M23.954,4.877c-8.555,0-15.51,6.958-15.51,15.508c0,2.499,0.608,4.851,1.66,6.945l27.712-13.854 C35.271,8.388,30.021,4.877,23.954,4.877z" fill="#2882C8"/>
<path d="M23.971,35.913c8.554,0,15.509-6.956,15.509-15.508c0-2.497-0.608-4.851-1.658-6.944L10.107,27.314 C12.653,32.404,17.904,35.913,23.971,35.913z" fill="#005F9B"/>
<path d="M28.661,5.683l-2.13,3.9l1.352,1.35c0.232,0.023,1.092-1.099,1.092-1.099 C28.229,9.186,29.32,7.94,30.07,8.711C30.281,8.923,28.661,5.683,28.661,5.683z" fill="#4F4A44"/>
<path d="M32.921,25.766c0,0-0.78-0.086-2.097-0.203c0.381,0.771,1.236,1.424,2.014,1.424 C32.841,26.993,32.921,25.766,32.921,25.766z" fill="#4F4A44"/>
<path d="M19.413,35.55l2.35,0.919v-0.621c1.108,0,2.216-1.107,2.216-2.216v-5.538 c0-0.936-1.065-2.102-2.068-2.21C21.86,25.881,19.413,35.55,19.413,35.55z" fill="#4F4A44"/>
<path d="M22.992,8.277c-1.684,0.208-6.517,0.867-6.517,0.867L8.469,19.231l4.431,4.431 c0.547-0.549,0.59-1.604,0-2.193c-0.591-0.591-1.107-1.129-1.107-1.129c-1.254-1.567,0.546-3.54,2.215-2.216l1.107,1.108 v2.215c0,0.555,1.108,0.555,1.108,0v-2.215l2.215-3.323c0,0,0,0,1.107,0c1.621,0.043,3.594-2.588,0.885-4.206 c-0.279-0.143-2.546-1.333-1.992-1.333s2.216,0,2.216,0s-0.003-0.003,1.107,1.107c1.534,1.221,3.542-0.493,2.215-2.215 C23.95,9.236,23.504,8.739,22.992,8.277z" fill="#4F4A44"/>
<path d="M32.841,18.124c1.106,0,1.106-1.107,1.106-1.107v-2.212c0,0,0.007-1.112,1.111-1.112 c0,0,1.617-0.008,3.319,0c0.116,1.255,1.21,1.108,1.21,1.108c-0.126-0.407-0.212-0.617-0.472-1.134 c-0.731-1.019-1.878-2.142-2.771-3.393l-6.83,5.187v1.556c0,1.107,1.108,1.107,1.108,1.107S31.732,18.124,32.841,18.124z" fill="#4F4A44"/>
<path d="M19.187,4.471c-4.51,1.581-11.434,9.427-11.846,15.842c0.007,0.006,0.011,0.015,0.021,0.024 c1.107,1.108,5.538,5.539,5.538,5.539s-1.107,1.106,0,2.215c1.03,1.03,2.216,2.216,2.216,2.216v3.299l5.539,2.31v-1.177 c1.107,0,2.216-1.107,2.216-2.215v-5.539c0-0.979-1.175-2.215-2.216-2.215c-1.042,0-2.215,0-2.215,0s-0.435-0.434-1.108-1.108 s-1.573-0.644-2.216,0c-0.643,0.646-1.106,1.108-1.106,1.108l-2.217-2.217c0.546-0.547,0.591-1.603,0-2.193 c-0.591-0.591-1.107-1.13-1.107-1.13c-0.573-0.573-0.573-1.644,0-2.216c0.568-0.573,1.644-0.573,2.215,0l1.109,1.108v2.216 c0,0.554,1.106,0.554,1.106,0v-2.216l2.216-3.323c0,0,0,0,1.108,0c1.107,0,2.215-1.107,2.215-2.215s-1.107-2.216-2.215-2.216 c-1.036,0-0.555,0-1.108,0c-0.553,0-0.554-1.107,0-1.107s2.216,0,2.216,0s-0.003-0.002,1.107,1.107 c0.554,0.556,1.662,0.554,2.216,0c0.554-0.554,0.551-1.664,0-2.215C22.805,8.089,20.433,5.717,19.187,4.471z" fill="#82FF64"/>
<path d="M39.943,15.907h-2.672l-2.215,2.215c0,0-2.217,0-3.324,0c-1.106,0-2.215,1.107-2.215,2.215v3.323 c0,1.061,1.178,2.216,2.215,2.216c0,0.015,1.107,0,1.107,0s0,1.106,0,2.215c0,1.106,1.107,1.106,1.107,1.106v4.441 C40.202,27.908,39.879,18.468,39.943,15.907z" fill="#82FF64"/>
<path d="M31.732,17.015c1.107,0,1.107-1.107,1.107-1.107v-2.213c0,0,0.006-1.112,1.109-1.112h3.32 c0,0,0,1.108,1.107,1.108c0.264,0,0.527,0,0.777,0c-0.986-2.101-8.74-8.4-11.28-9.438l-1.685,1.684v3.327l0.894,0.894 c0.287,0.286,0.821,0.286,1.108,0c0.285-0.284,0.285-0.822,0-1.108l-0.328-0.327c-0.58-0.581,0-1.123,0-1.123 s0.541-0.558,1.097,0c0.554,0.556,1.104,1.114,1.104,1.114s-2.254,2.254-2.768,2.765c-0.513,0.513,0,1.107,0,1.107 l1.107,1.108c0,0,0,1.104,0,2.211c0,1.108,1.107,1.108,1.107,1.108S30.626,17.015,31.732,17.015z" fill="#82FF64"/>
<path d="M39.973,15.956l-1.164-0.03c0,0-0.401-1.324-0.889-2.274c1.081,0.015,0.85,0.039,1.266,0.039 C39.532,14.291,39.973,15.956,39.973,15.956z" fill="#00395D"/>
<path d="M39.652,14.787c0,0-1.178-0.017-1.159-1.108h0.69C39.186,13.679,39.445,14.249,39.652,14.787z" fill="#2F2C29"/>
<path d="M33.934,33.672l-0.037-1.393c0,0,7.944-6.266,4.914-16.353c0,0,0.291,0.009,1.166,0.03 c0.252,0.619,3.088,10.899-6.144,17.744" fill="#4E993C"/>
<path d="M33.923,33.659c0,0-5.313,4.552-13.243,3.021l-0.039-1.14c0,0,7.018,1.946,13.255-3.256 C33.923,33.605,33.923,33.659,33.923,33.659z" fill="#00395D"/>
<path d="M20.68,36.68l-0.039-1.143c0,0-2.92-0.626-5.549-2.432l0.022,1.352 C15.114,34.457,18.005,36.242,20.68,36.68z" fill="#4E993C"/>
<path d="M8.482,21.51l-1.146-1.125c0,0-0.347,8.929,7.777,14.072c-0.022-1.359,0.023-1.01-0.022-1.354 C15.185,32.938,9.398,30.229,8.482,21.51z" fill="#00395D"/>
<path d="M7.337,20.385l1.146,1.126c0,0-1.215-12.367,11.639-16.156c0,0-0.275-0.273-0.912-0.899 C18.399,4.616,7.58,8.162,7.337,20.385z" fill="#4E993C"/>
<path d="M27.912,4.243c0,0-4.173-1.197-8.703,0.213l0.912,0.899c0,0,2.176-0.995,6.79-0.197 C28.016,4.159,27.912,4.243,27.912,4.243z" fill="#00395D"/>
<path d="M26.911,5.159l1.001-0.916c0,0,7.834,1.52,11.271,9.448l-1.265-0.039 C37.922,13.651,35.262,6.906,26.911,5.159z" fill="#4E993C"/>
<polygon fill="#2F2C29" points="21.716,36.838 21.703,35.736 20.655,35.568 20.655,36.723 "/>
</svg>