<?xml version="1.0" encoding="UTF-8" standalone="no"?>
<!DOCTYPE svg PUBLIC "-//W3C//DTD SVG 1.1 Tiny//EN" "http://www.w3.org/Graphics/SVG/1.1/DTD/svg11-tiny.dtd">
<svg xmlns="http://www.w3.org/2000/svg" xmlns:xlink="http://www.w3.org/1999/xlink" width="44" height="44" viewBox="0 0 44 44">
<rect fill="none" height="44" width="44"/>
<rect fill="#FFFFFF" height="14.574" width="29.226" x="7.294" y="26.375"/>
<rect height="12.451" width="26.794" x="8.509" y="27.436"/>
<rect fill="#FFFFFF" height="8.813" width="23.638" x="10.087" y="29.256"/>
<polygon fill="#050505" points="11.466,36.891 11.466,30.645 12.775,30.645 12.775,36.891 "/>
<path d="M8.4,25.396c0,0,0,0,11.387-0.668c0,0,0,0,13.223-11.11c0,0,0,0-0.67-5.664c0,0,0,0-4.471-4.148 c0,0,0,0-5.409-0.67c0,0,0,0-13.054,11.83C9.407,14.966,9.407,14.966,8.4,25.396" fill="#FFFFFF"/>
<text font-family="'TimesNewRomanPSMT'" font-size="7.4391" transform="matrix(-0.9869 -0.1473 -0.1476 0.989 31.8672 12.5742)"/>
<path d="M10.287,23.707c0,0,0,0,9.774-0.572c0,0,0,0,11.349-9.536c0,0,0,0-0.574-4.863c0,0,0,0-3.84-3.562c0,0,0,0-4.641-0.574 c0,0,0,0-11.205,10.154C11.15,14.754,11.15,14.754,10.287,23.707 M12.204,19.572l0.61-4.09c0,0,0,0,3.255,0.365 c0,0,0,0,2.771,2.804c0,0,0,0,0.009,3.107c0,0,0,0-4.186,0.331c0,0,0,0,0.018-0.117C14.74,20.788,13.509,19.529,12.204,19.572 L12.204,19.572z M18.074,15.072c0,0,0,0,9.008-8.093c0,0,0,0,1.623,1.795c0,0,0,0-9.088,7.844L18.074,15.072z M22.84,6.107 c0,0,0,0,2.658,0.397c0,0,0,0-8.723,7.776c0,0,0,0-2.543-0.379L22.84,6.107z M20.542,20.698c0,0,0,0-0.061-2.758 c0,0,0,0,8.971-7.859c0,0,0,0,0.346,2.441L20.542,20.698z"/>
</svg>