<?xml version="1.0" encoding="UTF-8"?>
<!DOCTYPE svg PUBLIC "-//W3C//DTD SVG 1.1 Tiny//EN" "http://www.w3.org/Graphics/SVG/1.1/DTD/svg11-tiny.dtd">
<svg width="12" height="32" viewBox="-0.5 -0.101 12 32">
<path fill="#DEE9F3" d="M6,26.899c-2.484,0-4.5-1.951-4.5-4.412V11.36c0-2.463,2.016-4.461,4.5-4.461l0,0 c2.486,0,4.5,1.998,4.5,4.461v11.127C10.5,24.948,8.486,26.899,6,26.899L6,26.899z"/>
<path fill-opacity="0.5" fill="#87A8CB" d="M0.5,11.36v11.127c0,3.01,2.467,5.412,5.5,5.412c3.031,0,5.5-2.402,5.5-5.412V11.36 c0-3.01-2.469-5.461-5.5-5.461C2.967,5.899,0.5,8.351,0.5,11.36z M1.5,22.487V11.36c0-2.459,2.018-4.461,4.5-4.461 c2.48,0,4.5,2.002,4.5,4.461v11.127c0,2.459-2.02,4.412-4.5,4.412C3.518,26.899,1.5,24.946,1.5,22.487z"/>
</svg>