<?xml version="1.0" encoding="UTF-8"?>
<!DOCTYPE svg PUBLIC "-//W3C//DTD SVG 1.1 Tiny//EN" "http://www.w3.org/Graphics/SVG/1.1/DTD/svg11-tiny.dtd">
<svg baseProfile="tiny" height="50.351" viewBox="0 0 50.353 50.351" width="50.353" xmlns="http://www.w3.org/2000/svg" xmlns:xlink="http://www.w3.org/1999/xlink">
<rect fill="none" height="50.351" width="50.353"/>
<polygon fill="#FFFFFF" points="29.584,19.981 29.584,10.743 17.47,19.944 17.47,12.695 8.493,12.695 8.493,37.269 17.47,37.269 17.47,30.464 29.584,39.514 29.584,30.425 41.859,39.465 41.859,10.782 "/>
<polygon points="27.834,36.017 27.834,35.019 27.834,26.961 39.314,35.423 40.109,36.007 40.109,35.019 40.109,15.283 40.109,14.28 39.307,14.882 27.834,23.479 27.834,15.283 27.834,14.271 27.027,14.884 15.72,23.47 15.72,14.946 15.72,14.445 15.22,14.445 10.741,14.445 10.243,14.445 10.243,14.946 10.243,35.019 10.243,35.519 10.741,35.519 15.22,35.519 15.72,35.519 15.72,35.019 15.72,26.974 27.033,35.418 27.834,36.017 "/>
</svg>
