<?xml version="1.0" encoding="UTF-8"?>
<!DOCTYPE svg PUBLIC "-//W3C//DTD SVG 1.1 Tiny//EN" "http://www.w3.org/Graphics/SVG/1.1/DTD/svg11-tiny.dtd">
<svg baseProfile="tiny" height="60" version="1.1" viewBox="0 0 60 60" width="60" xmlns="http://www.w3.org/2000/svg" xmlns:xlink="http://www.w3.org/1999/xlink">
<path d="M49.293,39.87v-1.874h-1.645c1.416-0.756,2.395-2.23,2.395-3.947c0-2.479-2.018-4.495-4.494-4.495  c-1.896,0-3.516,1.187-4.174,2.852c-0.198-1.006-0.693-1.933-1.436-2.673c-0.99-0.993-2.308-1.536-3.707-1.536  c-1.4,0-2.719,0.543-3.707,1.536c-0.987,0.988-1.534,2.306-1.534,3.707c0,0.11,0.013,0.215,0.022,0.322  c0.791-0.173,1.535-0.242,2.23-0.238c0-0.027-0.008-0.055-0.008-0.084c0-0.801,0.31-1.553,0.877-2.119  c0.566-0.565,1.318-0.876,2.119-0.876c0.799,0,1.553,0.311,2.119,0.876c0.565,0.566,0.875,1.318,0.875,2.119  c0,0.802-0.31,1.553-0.875,2.119c-0.012,0.01-0.022,0.017-0.035,0.025c0.271,0.275,0.543,0.589,0.805,0.982  c0.195,0.289,0.33,0.605,0.432,0.906c0.133-0.104,0.266-0.207,0.387-0.326c0.586-0.588,0.996-1.293,1.246-2.061  c0.306,1.266,1.142,2.313,2.262,2.908h-3.741c0.038,0.145,0.06,0.273,0.078,0.376l0.011,0.086l0.025,0.276l-0.01,0.193  c-0.031,0.465-0.153,0.9-0.334,1.314h7.569v6.227h-11.7v-2.104c-0.801,0.437-1.553,0.646-2.248,0.634v3.716h16.195v-2.402h3.934  v-7.58L49.293,39.87z M45.549,36.296c-1.238,0-2.247-1.009-2.247-2.247s1.009-2.246,2.247-2.246c1.24,0,2.248,1.008,2.248,2.246  S46.79,36.296,45.549,36.296 M50.98,44.064h-1.688v-1.855c0.473-0.141,1.1-0.316,1.688-0.486V44.064z"/>
<polygon points="29.118,26.712 24.936,22.521 27.153,22.523 27.153,19.88 20.313,19.88 20.313,26.58 22.946,26.58 22.954,24.3   27.239,28.596 "/>
<path d="M25.575,7.516c-0.851-0.654-6.566-2.549-13.27,4.09l-0.083,0.082c-6.639,6.704-4.744,12.42-4.092,13.271  c0.474,0.622,1.01,1.321,1.919,1.933c0.224,0.137,0.648,0.309,1.106,0.299c0.457-0.011,1.5-0.689,2.809-2.12  c1.311-1.433,1.863-2.584,1.985-3.125l0.07-0.31l-0.206-0.24c-0.129-0.156-0.284-0.301-0.465-0.443  c-0.772-0.618-2.387-0.714-2.406-0.712l-0.248-0.016l-0.121-0.22c-0.05-0.092-1.229-2.362,2.163-5.884  c3.521-3.393,5.79-2.212,5.88-2.161l0.221,0.12l0.016,0.249c0,0.018,0.094,1.632,0.712,2.405c0.143,0.184,0.289,0.334,0.442,0.465  l0.242,0.206l0.31-0.072c0.541-0.122,1.695-0.674,3.125-1.984c1.431-1.309,2.11-2.353,2.121-2.808  c0.009-0.457-0.163-0.882-0.3-1.106C26.895,8.525,26.195,7.988,25.575,7.516z" fill="#47C30E"/>
<path d="M35.938,36.668c-0.67-0.516-5.176-2.008-10.459,3.225l-0.065,0.064c-5.232,5.283-3.739,9.789-3.225,10.46  c0.374,0.489,0.796,1.04,1.513,1.521c0.177,0.108,0.511,0.244,0.872,0.236c0.36-0.008,1.182-0.543,2.213-1.67  c1.034-1.129,1.469-2.037,1.566-2.464l0.055-0.243l-0.163-0.189c-0.102-0.123-0.224-0.236-0.366-0.35  c-0.608-0.486-1.882-0.563-1.896-0.563l-0.195-0.012l-0.096-0.175c-0.039-0.071-0.968-1.86,1.707-4.636  c2.774-2.676,4.563-1.744,4.634-1.704l0.174,0.095l0.012,0.196c0,0.015,0.075,1.285,0.562,1.896  c0.113,0.145,0.229,0.264,0.351,0.367l0.19,0.161l0.242-0.058c0.428-0.096,1.336-0.53,2.463-1.563  c1.129-1.033,1.664-1.855,1.674-2.215c0.006-0.361-0.129-0.695-0.238-0.871C36.977,37.464,36.427,37.041,35.938,36.668z" fill="#47C30E"/>
<rect fill="none" height="60" width="60"/>
</svg>
