<?xml version="1.0" encoding="UTF-8" standalone="no"?>
<!DOCTYPE svg PUBLIC "-//W3C//DTD SVG 1.1 Tiny//EN" "http://www.w3.org/Graphics/SVG/1.1/DTD/svg11-tiny.dtd">
<svg xmlns="http://www.w3.org/2000/svg" xmlns:xlink="http://www.w3.org/1999/xlink" width="30" height="40" viewBox="-0.011 -0.083 30 40">
<rect fill="none" height="40" width="30" x="-0.011" y="-0.083"/>
<ellipse cx="15.49" cy="20.432" fill="none" rx="13.259" ry="18.003" stroke="#FF0000" stroke-width="0.5282"/>
<path d="M17.447,30.156c-2.087,0-3.777,1.255-3.777,2.803c0,1.549,1.69,2.804,3.777,2.804 c2.086,0,3.776-1.255,3.776-2.804C21.224,31.411,19.533,30.156,17.447,30.156z" fill="#FF9900" fill-opacity="0.5" />
<path d="M17.579,31.453c-1.018,0-1.842,0.611-1.842,1.366c0,0.756,0.824,1.367,1.842,1.367 c1.017,0,1.842-0.611,1.842-1.367C19.421,32.064,18.596,31.453,17.579,31.453z" fill="#FF1A00" fill-opacity="0.6" />
<linearGradient id="SVGID_1" gradientUnits="userSpaceOnUse" x1="15.61" y1="27.06" x2="18.3" y2="27.06">
<stop stop-color="#DEE6F1" offset="0"/>
<stop stop-color="#000000" offset="1"/>
</linearGradient>
<polygon fill="url(#SVGID_1)" points="16.894,20.655 16.894,20.655 17.011,33.385 17.83,33.526 18.116,20.598 "/>
<linearGradient id="SVGID_2" gradientUnits="userSpaceOnUse" x1="15.4" y1="25.43" x2="18.79" y2="27.4">
<stop stop-color="#DEE6F1" offset="0"/>
<stop stop-color="#000000" offset="1"/>
</linearGradient>
<polygon fill="url(#SVGID_2)" points="17.827,20.74 17.827,20.74 17.83,33.526 18.378,32.89 18.399,20.498 "/>
<linearGradient id="SVGID_3" gradientUnits="userSpaceOnUse" x1="17.37" y1="19.81" x2="19.14" y2="24.68">
<stop stop-color="#DEE6F1" offset="0"/>
<stop stop-color="#000000" offset="1"/>
</linearGradient>
<polygon fill="url(#SVGID_3)" points="16.906,20.653 16.906,20.653 17.563,20.432 18.399,20.498 17.827,20.74 "/>
<linearGradient id="SVGID_4" gradientUnits="userSpaceOnUse" x1="25.04" y1="19.99" x2="28.87" y2="29.77">
<stop stop-color="#DEE6F1" offset="0"/>
<stop stop-color="#000000" offset="1"/>
</linearGradient>
<path d="M27.228,22.952c0.008,2.415,0.016,4.83,0.023,7.244c0.182-0.276,0.363-0.568,0.545-0.876 c-0.018-2.325-0.035-4.651-0.054-6.978C27.571,22.56,27.399,22.763,27.228,22.952z" fill="url(#SVGID_4)"/>
<linearGradient id="SVGID_5" gradientUnits="userSpaceOnUse" x1="22.79" y1="21.88" x2="23.77" y2="29.08">
<stop stop-color="#DEE6F1" offset="0"/>
<stop stop-color="#000000" offset="1"/>
</linearGradient>
<path d="M17.8,21.095c3.135-1.183,6.27,2.49,9.404,1.884c0.18-0.198,0.359-0.409,0.538-0.636 c-3.122,1.156-6.245-2.452-9.368-1.799C18.183,20.712,17.991,20.894,17.8,21.095z" fill="url(#SVGID_5)"/>
<path d="M27.256,30.2c-3.145,0.593-6.29-3.173-9.435-2.072c-0.005-2.346-0.009-4.691-0.014-7.037 c3.134-1.173,6.269,2.498,9.402,1.885C27.226,25.384,27.241,27.792,27.256,30.2z"/>
<path d="M20.464,21.151c-0.443-0.117-0.887-0.189-1.33-0.191c0.005,0.434,0.008,0.867,0.012,1.302 c0.443,0.003,0.887,0.077,1.328,0.198C20.471,22.024,20.468,21.588,20.464,21.151z" fill="#FFFFFF"/>
<path d="M23.148,22.206c-0.448-0.197-0.897-0.402-1.347-0.588c0.004,0.438,0.007,0.876,0.01,1.313 c0.447,0.187,0.896,0.393,1.345,0.593C23.153,23.085,23.151,22.646,23.148,22.206z" fill="#FFFFFF"/>
<path d="M17.961,23.858c0.399-0.127,0.8-0.179,1.198-0.173c-0.004-0.474-0.009-0.948-0.014-1.423 c0-0.001,0-0.001,0-0.001c-0.399-0.005-0.799,0.051-1.199,0.181C17.951,22.914,17.956,23.386,17.961,23.858z" fill="#FFFFFF"/>
<path d="M20.486,23.892c0.444,0.123,0.89,0.291,1.334,0.479c-0.003-0.479-0.006-0.958-0.009-1.438c0,0,0,0,0-0.001 c-0.446-0.186-0.892-0.352-1.338-0.472l0,0C20.479,22.938,20.482,23.415,20.486,23.892z" fill="#FFFFFF"/>
<path d="M23.164,24.966c0.45,0.201,0.901,0.395,1.352,0.556c-0.002-0.481-0.004-0.963-0.007-1.444c0,0,0,0,0-0.001 c-0.451-0.159-0.901-0.353-1.353-0.552c0,0.001,0,0.001,0,0.001C23.159,24.005,23.161,24.486,23.164,24.966z" fill="#FFFFFF"/>
<path d="M20.486,23.895c0-0.001,0-0.002,0-0.003c-0.442-0.121-0.885-0.198-1.327-0.206c0,0.001,0,0.003,0,0.003 c0.005,0.474,0.01,0.947,0.014,1.421c0.441,0.01,0.883,0.089,1.325,0.214C20.493,24.846,20.49,24.37,20.486,23.895z" fill="#FFFFFF"/>
<path d="M21.831,25.807c0.447,0.189,0.894,0.398,1.34,0.6c-0.002-0.479-0.005-0.959-0.007-1.438 c0-0.001,0-0.002,0-0.003c-0.448-0.2-0.896-0.407-1.343-0.596c0,0,0,0.001,0,0.002C21.824,24.851,21.827,25.327,21.831,25.807z" fill="#FFFFFF"/>
<path d="M17.976,25.272c0.006,0.47,0.01,0.939,0.016,1.41c0.398-0.121,0.797-0.166,1.195-0.154 c-0.005-0.473-0.01-0.946-0.014-1.419C18.774,25.101,18.375,25.148,17.976,25.272z" fill="#FFFFFF"/>
<path d="M20.498,25.323c0.003,0.476,0.007,0.951,0.011,1.427c0.444,0.127,0.889,0.298,1.332,0.488 c-0.004-0.477-0.008-0.954-0.01-1.433C21.387,25.617,20.941,25.448,20.498,25.323z" fill="#FFFFFF"/>
<path d="M23.171,26.406c0.004,0.479,0.006,0.958,0.009,1.436c0.449,0.205,0.898,0.401,1.349,0.564 c-0.002-0.481-0.005-0.961-0.007-1.44C24.071,26.805,23.622,26.609,23.171,26.406z" fill="#FFFFFF"/>
<path d="M25.868,23.1c-0.455-0.061-0.91-0.185-1.365-0.344c0.003,0.44,0.004,0.88,0.006,1.32 c0.455,0.159,0.909,0.285,1.363,0.347C25.87,23.982,25.868,23.542,25.868,23.1z" fill="#FFFFFF"/>
<path d="M25.876,25.871c0.416,0.059,0.832,0.064,1.247-0.004c-0.001-0.484-0.001-0.969-0.003-1.452 c-0.416,0.068-0.832,0.064-1.248,0.008c0,0,0,0,0,0.001C25.874,24.906,25.875,25.389,25.876,25.871z" fill="#FFFFFF"/>
<path d="M24.516,25.579c0.002,0.48,0.005,0.961,0.006,1.44c0.453,0.129,0.905,0.222,1.359,0.253 c-0.002-0.481-0.003-0.963-0.005-1.444c0-0.001,0-0.002,0-0.002c-0.453-0.03-0.907-0.122-1.36-0.249 C24.516,25.578,24.516,25.578,24.516,25.579z" fill="#FFFFFF"/>
<path d="M19.198,27.815c0.44,0.016,0.881,0.101,1.321,0.229c-0.003-0.432-0.007-0.862-0.011-1.294 c-0.44-0.127-0.881-0.209-1.322-0.222C19.19,26.958,19.194,27.387,19.198,27.815z" fill="#FFFFFF"/>
<path d="M21.85,28.538c0.445,0.192,0.892,0.404,1.337,0.608c-0.002-0.435-0.004-0.869-0.007-1.304 c-0.446-0.202-0.894-0.412-1.339-0.604C21.844,27.671,21.847,28.104,21.85,28.538z" fill="#FFFFFF"/>
<path d="M24.528,28.406c0.002,0.435,0.003,0.87,0.006,1.306c0.451,0.163,0.902,0.292,1.354,0.358 c-0.001-0.436-0.003-0.873-0.004-1.309C25.433,28.695,24.98,28.567,24.528,28.406L24.528,28.406z" fill="#FFFFFF"/>
<path d="M27.128,28.764c0-0.482-0.002-0.964-0.002-1.446c-0.416,0.066-0.83,0.06-1.245,0.002 c0.001,0.48,0.002,0.961,0.004,1.442C26.3,28.822,26.714,28.829,27.128,28.764z" fill="#FFFFFF"/>
<linearGradient id="SVGID_6" gradientUnits="userSpaceOnUse" x1="9.44" y1="9.19" x2="12.31" y2="14.83">
<stop stop-color="#A2C2DD" offset="0.1"/>
<stop stop-color="#6C83BB" offset="0.71"/>
<stop stop-color="#003D6D" offset="0.99"/>
</linearGradient>
<path d="M6.79,5.366c0,1.121,0.579,2.134,1.521,2.717c-0.36,0.109-1.223,0.373-1.223,0.373l-1.461,5.218 l6.309,1.309l2.975-2.249L13.13,8.04c0,0-0.811-0.063-1.235-0.096c0.813-0.601,1.309-1.556,1.309-2.578 c0-1.769-1.438-3.207-3.206-3.207C8.228,2.159,6.79,3.598,6.79,5.366z" fill="url(#SVGID_6)"/>
<linearGradient id="SVGID_7" gradientUnits="userSpaceOnUse" x1="13.81" y1="5.52" x2="12.08" y2="14.99">
<stop stop-color="#FFFFFF" offset="0"/>
<stop stop-color="#A2C2DD" offset="0.35"/>
<stop stop-color="#6C83BB" offset="0.7"/>
<stop stop-color="#003D6D" offset="1"/>
</linearGradient>
<polygon fill="url(#SVGID_7)" points="11.905,14.846 10.92,9.022 13.039,8.161 14.759,12.689 "/>
<linearGradient id="SVGID_8" gradientUnits="userSpaceOnUse" x1="6.17" y1="7.62" x2="12.65" y2="8.83">
<stop stop-color="#FFFFFF" offset="0.15"/>
<stop stop-color="#A2C2DD" offset="1"/>
</linearGradient>
<polygon fill="url(#SVGID_8)" points="13.039,8.161 9.47,7.877 7.192,8.558 10.92,9.022 "/>
<linearGradient id="SVGID_9" gradientUnits="userSpaceOnUse" x1="12.12" y1="8.17" x2="1.48" y2="22.82">
<stop stop-color="#FFFFFF" offset="0"/>
<stop stop-color="#A2C2DD" offset="0.35"/>
<stop stop-color="#6C83BB" offset="0.7"/>
<stop stop-color="#003D6D" offset="1"/>
</linearGradient>
<polygon fill="url(#SVGID_9)" points="11.905,14.846 10.92,9.022 7.192,8.558 5.787,13.577 "/>
<polygon fill="#A2C2DD" points="10.425,8.413 12.446,8.118 10.785,7.913 "/>
<radialGradient id="SVGID_10" gradientUnits="userSpaceOnUse" cx="9.36" cy="4.64" r="7">
<stop stop-color="#FFFFFF" offset="0"/>
<stop stop-color="#A2C2DD" offset="0.35"/>
<stop stop-color="#6C83BB" offset="0.7"/>
<stop stop-color="#003D6D" offset="1"/>
</radialGradient>
<circle cx="9.997" cy="5.366" fill="url(#SVGID_10)" r="3.079"/>
<linearGradient id="SVGID_11" gradientUnits="userSpaceOnUse" x1="6.24" y1="6.01" x2="14.01" y2="2.61">
<stop stop-color="#E6EEF4" offset="0"/>
<stop stop-color="#C6DCC1" offset="0.08"/>
<stop stop-color="#91C06F" offset="0.21"/>
<stop stop-color="#6BAB33" offset="0.32"/>
<stop stop-color="#539E0E" offset="0.4"/>
<stop stop-color="#4A9900" offset="0.44"/>
<stop stop-color="#398419" offset="0.55"/>
<stop stop-color="#22663B" offset="0.71"/>
<stop stop-color="#135550" offset="0.85"/>
<stop stop-color="#0E4E58" offset="0.94"/>
</linearGradient>
<path d="M11.87,3.257C11.823,5.15,7.671,4.265,6.917,5.366c0-1.651,1.379-3.079,3.079-3.079 s3.079,1.43,3.079,3.079C12.466,5.227,11.823,4.365,11.87,3.257z" fill="url(#SVGID_11)"/>
</svg>