<?xml version="1.0" encoding="UTF-8"?>
<!DOCTYPE svg PUBLIC "-//W3C//DTD SVG 1.1 Tiny//EN" "http://www.w3.org/Graphics/SVG/1.1/DTD/svg11-tiny.dtd">
<svg baseProfile="tiny" height="54px" version="1.1" viewBox="-5.17 -13.62 54 54" width="54px" x="0px" xmlns="http://www.w3.org/2000/svg" xmlns:xlink="http://www.w3.org/1999/xlink" y="0px">
<path d="M40.092,0c2.448,0.004,4.427,1.986,4.429,4.432l0,0V17.79  c-0.004,2.443-1.98,4.426-4.429,4.428l0,0h-18.02l-0.025,3.996c-0.004,2.443-1.979,4.425-4.425,4.43l0,0H4.425l0,0  C1.977,30.638,0.002,28.657,0,26.205l0,0l0.083-13.541C0.085,10.22,2.064,8.242,4.508,8.24l0,0h3.926V4.432  C8.436,1.986,10.414,0.004,12.86,0l0,0H40.092" fill="#FFFFFF" fill-opacity="0.6" stroke-opacity="0.6"/>
<g>
<path d="M19.538,26.625c-0.004,0.825-0.683,1.5-1.507,1.5H4.016c-0.825,0-1.496-0.675-1.492-1.5l0.068-14.37   c0.004-0.825,0.683-1.5,1.508-1.5h14.016c0.824,0,1.496,0.675,1.492,1.5L19.538,26.625z" fill="url(#SVGID_1_)"/>
<defs>
<linearGradient gradientUnits="userSpaceOnUse" id="SVGID_1_" x1="11.0654" x2="11.0654" y1="11.9326" y2="30.3204">
<stop offset="0" style="stop-color:#666666"/>
<stop offset="1" style="stop-color:#CCCCCC"/>
</linearGradient>
</defs>
</g>
<linearGradient gradientTransform="matrix(1 0 0 1 56.125 0)" gradientUnits="userSpaceOnUse" id="SVGID_2_" x1="-45.0596" x2="-45.0596" y1="2.1768" y2="22.7119">
<stop offset="0" style="stop-color:#CCCCCC"/>
<stop offset="1" style="stop-color:#000000"/>
</linearGradient>
<path d="M17.622,29.141H4.424c-1.613,0-2.924-1.313-2.924-2.928l0.084-13.55c0-1.613,1.311-2.924,2.925-2.924  h13.197c1.614,0,2.925,1.311,2.925,2.924l-0.084,13.55C20.547,27.828,19.236,29.141,17.622,29.141L17.622,29.141z" fill="url(#SVGID_2_)"/>
<path d="M19.531,26.215c0,1.051-0.859,1.909-1.91,1.909H4.426c-1.051,0-1.91-0.858-1.91-1.909L2.6,12.666  c0-1.052,0.859-1.911,1.91-1.911h13.195c1.051,0,1.91,0.859,1.91,1.911L19.531,26.215z" fill="url(#SVGID_1_)"/>
<linearGradient gradientUnits="userSpaceOnUse" id="SVGID_4_" x1="11.0654" x2="11.0654" y1="11.9326" y2="30.3204">
<stop offset="0" style="stop-color:#666666"/>
<stop offset="1" style="stop-color:#CCCCCC"/>
</linearGradient>
<path d="M19.531,26.215c0,1.051-0.859,1.909-1.91,1.909H4.426c-1.051,0-1.91-0.858-1.91-1.909L2.6,12.666  c0-1.052,0.859-1.911,1.91-1.911h13.195c1.051,0,1.91,0.859,1.91,1.911L19.531,26.215z" fill="url(#SVGID_4_)"/>
<linearGradient gradientUnits="userSpaceOnUse" id="SVGID_5_" x1="6.8179" x2="6.8685" y1="19.2612" y2="29.0316">
<stop offset="0" style="stop-color:#CCCCCC"/>
<stop offset="1" style="stop-color:#000000"/>
</linearGradient>
<rect fill="url(#SVGID_5_)" height="1.234" width="6.118" x="3.797" y="25.979"/>
<linearGradient gradientUnits="userSpaceOnUse" id="SVGID_6_" x1="15.0444" x2="15.0951" y1="19.2192" y2="28.9896">
<stop offset="0" style="stop-color:#CCCCCC"/>
<stop offset="1" style="stop-color:#000000"/>
</linearGradient>
<rect fill="url(#SVGID_6_)" height="1.234" width="6.118" x="12.023" y="26.03"/>
<linearGradient gradientUnits="userSpaceOnUse" id="SVGID_7_" x1="11.1484" x2="11.1484" y1="5.646" y2="17.3171">
<stop offset="0" style="stop-color:#CCCCCC"/>
<stop offset="1" style="stop-color:#000000"/>
</linearGradient>
<rect fill="url(#SVGID_7_)" height="3.112" width="14.266" x="4.016" y="11.936"/>
<linearGradient gradientTransform="matrix(1 0 0 1 56.125 0)" gradientUnits="userSpaceOnUse" id="SVGID_8_" x1="-29.6479" x2="-29.6479" y1="-5.9907" y2="14.3485">
<stop offset="0" style="stop-color:#CCCCCC"/>
<stop offset="1" style="stop-color:#000000"/>
</linearGradient>
<path d="M40.093,20.717H12.861c-1.614,0-2.928-1.314-2.928-2.928V4.432c0-1.617,1.313-2.931,2.928-2.931  h27.231c1.615,0,2.928,1.314,2.928,2.931V17.79C43.021,19.403,41.708,20.717,40.093,20.717L40.093,20.717z" fill="url(#SVGID_8_)"/>
<path d="M42.002,17.79c0,1.051-0.859,1.91-1.909,1.91h-27.23c-1.051,0-1.91-0.859-1.91-1.91V4.43  c0-1.051,0.859-1.91,1.91-1.91h27.23c1.05,0,1.909,0.859,1.909,1.91V17.79z" fill="url(#SVGID_9_)"/>
<path d="M42.002,17.79c0,1.051-0.859,1.91-1.909,1.91h-27.23c-1.051,0-1.91-0.859-1.91-1.91V4.43  c0-1.051,0.859-1.91,1.91-1.91h27.23c1.05,0,1.909,0.859,1.909,1.91V17.79z" fill="url(#SVGID_9_)"/>
<linearGradient gradientUnits="userSpaceOnUse" id="SVGID_11_" x1="26.4063" x2="26.4063" y1="-2.5645" y2="9.849">
<stop offset="0" style="stop-color:#FFFFFF"/>
<stop offset="0.1545" style="stop-color:#FAFAFA"/>
<stop offset="0.3388" style="stop-color:#EBEBEB"/>
<stop offset="0.5383" style="stop-color:#D3D3D3"/>
<stop offset="0.7486" style="stop-color:#B2B2B2"/>
<stop offset="0.9653" style="stop-color:#878787"/>
<stop offset="1" style="stop-color:#808080"/>
</linearGradient>
<rect fill="url(#SVGID_11_)" height="5.525" width="28.573" x="12.119" y="3.881"/>
<linearGradient gradientTransform="matrix(1 0 0 1 56.125 0)" gradientUnits="userSpaceOnUse" id="SVGID_12_" x1="-40.3052" x2="-40.3052" y1="5.8008" y2="16.4081">
<stop offset="0" style="stop-color:#CCCCCC"/>
<stop offset="1" style="stop-color:#000000"/>
</linearGradient>
<path d="M10.947,17.381l0.022-7.618l6.753-0.056c1.613,0,2.925,1.311,2.925,2.924l0.059,7.068h-7.521  c0,0-0.681,0.195-1.508-0.421C10.775,18.607,10.947,17.381,10.947,17.381z" fill="url(#SVGID_12_)"/>
<linearGradient gradientUnits="userSpaceOnUse" id="SVGID_13_" x1="15.2773" x2="15.2773" y1="11.3613" y2="20.8328">
<stop offset="0" style="stop-color:#666666"/>
<stop offset="1" style="stop-color:#CCCCCC"/>
</linearGradient>
<path d="M19.62,19.684h-6.241c0,0-1.221,0.186-1.994-0.633c-0.567-0.6-0.438-2.025-0.438-2.025l0.006-6.236  l6.752-0.035c1.051,0,1.91,0.859,1.91,1.911L19.62,19.684z" fill="url(#SVGID_13_)"/>
<linearGradient gradientUnits="userSpaceOnUse" id="SVGID_14_" x1="14.6172" x2="14.6172" y1="5.5811" y2="17.3328">
<stop offset="0" style="stop-color:#CCCCCC"/>
<stop offset="1" style="stop-color:#000000"/>
</linearGradient>
<polygon fill="url(#SVGID_14_)" points="18.281,15.047 10.953,15.026 10.953,11.914 18.281,11.936 "/>
<linearGradient gradientTransform="matrix(0.709 0.7051 -0.7051 0.709 72.9122 -88.707)" gradientUnits="userSpaceOnUse" id="SVGID_15_" x1="36.9824" x2="44.025" y1="109.6851" y2="87.203">
<stop offset="0" style="stop-color:#014B6E"/>
<stop offset="1" style="stop-color:#010101"/>
</linearGradient>
<path d="M33.996,14.441c-0.035,0.007-0.064,0.006-0.103,0.003c-0.097-0.01-0.187-0.064-0.238-0.146  l-1.37-2.167c0,0-10.131,4.398-10.764,4.668c-0.632,0.271-0.811-0.286-0.389-0.648c0.422-0.361,8.688-7.629,8.688-7.629  l-1.446-2.168c-0.071-0.111-0.077-0.254-0.01-0.37c0.069-0.112,0.193-0.173,0.326-0.161l6.661,1.219  c0,0.001,0.001,0.002,0.003,0.002c0.098,0.011,0.182,0.062,0.239,0.144c0.056,0.078,0.075,0.181,0.052,0.272L34.26,14.19  C34.23,14.323,34.123,14.419,33.996,14.441z" fill="url(#SVGID_15_)"/>
<linearGradient gradientTransform="matrix(0.709 0.7051 -0.7051 0.709 72.9122 -88.707)" gradientUnits="userSpaceOnUse" id="SVGID_16_" x1="41.2666" x2="36.9674" y1="85.3413" y2="104.8312">
<stop offset="0" style="stop-color:#FFFFFF"/>
<stop offset="1" style="stop-color:#014B6E"/>
</linearGradient>
<path d="M22.396,15.578c0,0,7.754-3.826,12.516-7.939l-5.745-1.132c0,0,1.594,2.269,1.604,2.251  C27.891,11.041,22.396,15.578,22.396,15.578z" fill="url(#SVGID_16_)"/>
<defs>
<linearGradient gradientUnits="userSpaceOnUse" id="SVGID_9_" x1="26.4775" x2="26.4775" y1="3.6851" y2="21.8718">
<stop offset="0" style="stop-color:#666666"/>
<stop offset="1" style="stop-color:#CCCCCC"/>
</linearGradient>
</defs>
</svg>
