<?xml version="1.0" encoding="UTF-8" standalone="no"?>
<!DOCTYPE svg PUBLIC "-//W3C//DTD SVG 1.1 Tiny//EN" "http://www.w3.org/Graphics/SVG/1.1/DTD/svg11-tiny.dtd">
<svg xmlns="http://www.w3.org/2000/svg" xmlns:xlink="http://www.w3.org/1999/xlink" width="42" height="36" viewBox="0 0 42 36">
<rect fill="none" height="36" width="42"/>
<linearGradient id="SVGID_1" gradientUnits="userSpaceOnUse" x1="15" y1="6.03" x2="30.9" y2="25.11">
<stop stop-color="#FFFFFF" offset="0"/>
<stop stop-color="#57A045" offset="0.5"/>
<stop stop-color="#FFFFFF" offset="1"/>
</linearGradient>
<path d="M32.945,16.886c1.339-3.892-1.914-7.65-7.271-8.4 c-5.355-0.748-10.947,1.772-12.488,5.636c-1.543,3.859,1.713,7.62,7.268,8.398C26.01,23.298,31.599,20.775,32.945,16.886z M16.147,14.534c1.058-2.703,4.974-4.468,8.743-3.941c3.769,0.528,6.048,3.159,5.084,5.877c-0.959,2.719-4.871,4.482-8.738,3.943 C17.369,19.876,15.09,17.241,16.147,14.534z M27.018,16.055c0.56-1.553-0.743-3.055-2.913-3.358 c-2.161-0.301-4.399,0.707-4.995,2.254c-0.591,1.545,0.715,3.053,2.912,3.359C24.214,18.617,26.453,17.608,27.018,16.055z M22.076,15.366c0.145-0.39,0.706-0.642,1.252-0.567c0.547,0.078,0.868,0.453,0.724,0.84c-0.143,0.389-0.7,0.643-1.245,0.566 C22.259,16.129,21.932,15.751,22.076,15.366z M38.865,17.716c2.06-6.238-3.154-12.253-11.623-13.437 C18.768,3.095,9.825,7.13,7.261,13.295c-2.564,6.164,2.643,12.178,11.627,13.434C27.869,27.985,36.818,23.952,38.865,17.716z M10.221,13.707c2.043-5.009,9.313-8.291,16.237-7.325c6.925,0.97,11.153,5.859,9.447,10.919c-1.703,5.062-8.975,8.34-16.236,7.326 C12.407,23.607,8.178,18.718,10.221,13.707z" fill="url(#SVGID_1)" fill-opacity="0.5"/>
<linearGradient id="SVGID_2" gradientUnits="userSpaceOnUse" x1="10.02" y1="18.01" x2="19.3" y2="27.29">
<stop stop-color="#A1C1DC" offset="0.1"/>
<stop stop-color="#6C82B9" offset="0.71"/>
<stop stop-color="#173F6C" offset="0.99"/>
</linearGradient>
<path d="M6.035,30.743c-1.741-0.854-2.797-2.232-2.812-2.245l-0.036-0.051l-0.501-2.953 c0.216-0.295,2.291-3.111,5.797-6.473c3.617-3.469,5.144-4.474,5.208-4.512l0.298-0.093c0.027,0,2.95,0.027,5.147,0.576 c1.027,0.267,1.982,0.681,2.654,1.008l1.017-1.324c0,0,0.911-0.114,1.718,0.519c0.748,0.584,0.547,1.37,0.467,1.53l-0.024,0.044 l-1.604,1.528l-0.121,1.68l-0.226,0.383l0.012,0.392c0,0-2.134,3.144-5.232,6.14c-2.898,2.805-6.191,4.693-6.775,5.023 c0,0-0.258-0.047-0.508-0.095l-0.268,0.108C10.245,31.927,7.727,31.584,6.035,30.743z" fill="url(#SVGID_2)"/>
<linearGradient id="SVGID_3" gradientUnits="userSpaceOnUse" x1="21.74" y1="16.58" x2="23.3" y2="17.91">
<stop stop-color="#E6EDF3" offset="0"/>
<stop stop-color="#4977BA" offset="0.44"/>
<stop stop-color="#173F6C" offset="0.94"/>
</linearGradient>
<path d="M24.161,15.598c-0.503-0.457-1.081-0.408-1.081-0.408l-2.434,3.23 c-0.073,0.308,0.626,0.946,0.979,0.735l2.869-2.642C24.494,16.514,24.662,16.048,24.161,15.598z" fill="url(#SVGID_3)"/>
<linearGradient id="SVGID_4" gradientUnits="userSpaceOnUse" x1="25.7" y1="14.02" x2="10.52" y2="30.08">
<stop stop-color="#FFFFFF" offset="0"/>
<stop stop-color="#A1C1DC" offset="0.35"/>
<stop stop-color="#6C82B9" offset="0.7"/>
<stop stop-color="#173F6C" offset="1"/>
</linearGradient>
<path d="M22.666,18.24l-0.179,2.396c0,0-2.022,2.885-5.07,5.865c-3.134,3.068-6.437,4.847-6.437,4.847 S8.714,31.035,7.222,30.3C5.736,29.57,22.666,18.24,22.666,18.24z" fill="url(#SVGID_4)"/>
<linearGradient id="SVGID_5" gradientUnits="userSpaceOnUse" x1="20.71" y1="17.16" x2="8.03" y2="27.86">
<stop stop-color="#FFFFFF" offset="0.15"/>
<stop stop-color="#A1C1DC" offset="1"/>
</linearGradient>
<path d="M3.246,25.701l19.642-8.418l-0.184,2.583c0,0-2.186,3.1-5.463,6.309 c-3.369,3.299-6.924,5.212-6.924,5.212s-2.442-0.339-4.042-1.127c-1.603-0.791-2.621-2.091-2.621-2.091L3.246,25.701z" fill="url(#SVGID_5)"/>
<linearGradient id="SVGID_6" gradientUnits="userSpaceOnUse" x1="4.08" y1="25.35" x2="10.95" y2="32.21">
<stop stop-color="#FFFFFF" offset="0"/>
<stop stop-color="#A1C1DC" offset="0.35"/>
<stop stop-color="#6C82B9" offset="0.7"/>
<stop stop-color="#173F6C" offset="1"/>
</linearGradient>
<path d="M3.246,25.701l6.996,2.507l0.075,3.178c0,0-2.442-0.339-4.042-1.127 c-1.603-0.791-2.621-2.091-2.621-2.091L3.246,25.701z" fill="url(#SVGID_6)"/>
<linearGradient id="SVGID_7" gradientUnits="userSpaceOnUse" x1="11.87" y1="15.4" x2="14.09" y2="26.83">
<stop stop-color="#FFFFFF" offset="0.05"/>
<stop stop-color="#A1C1DC" offset="1"/>
</linearGradient>
<path d="M8.861,19.416c3.591-3.454,5.122-4.453,5.122-4.453s2.917,0.031,5.012,0.561 c2.099,0.529,3.896,1.713,3.896,1.713s-2.041,2.686-5.466,6.035c-3.517,3.441-7.185,5.91-7.185,5.91s-2.594-0.821-4.264-1.646 c-1.672-0.823-2.772-1.833-2.772-1.833S5.154,22.966,8.861,19.416z" fill="url(#SVGID_7)"/>
<linearGradient id="SVGID_8" gradientUnits="userSpaceOnUse" x1="16.86" y1="22.74" x2="10.98" y2="16.86">
<stop stop-color="#FFFFFF" offset="0.05"/>
<stop stop-color="#A1C1DC" offset="1"/>
</linearGradient>
<polygon fill="url(#SVGID_8)" points="14.527,16.526 20.591,18.074 14.208,24.58 8.019,22.287 "/>
<linearGradient id="SVGID_9" gradientUnits="userSpaceOnUse" x1="3.32" y1="25.99" x2="16.49" y2="14.49">
<stop stop-color="#FFFFFF" offset="0"/>
<stop stop-color="#A1C1DC" offset="0.35"/>
<stop stop-color="#6C82B9" offset="0.7"/>
<stop stop-color="#173F6C" offset="1"/>
</linearGradient>
<polygon fill="url(#SVGID_9)" points="8.019,22.287 7.399,22.072 14.508,15.822 14.508,16.526 "/>
<linearGradient id="SVGID_10" gradientUnits="userSpaceOnUse" x1="24.31" y1="18.86" x2="8.89" y2="14.47">
<stop stop-color="#FFFFFF" offset="0"/>
<stop stop-color="#A1C1DC" offset="0.35"/>
<stop stop-color="#6C82B9" offset="0.7"/>
<stop stop-color="#173F6C" offset="1"/>
</linearGradient>
<polygon fill="url(#SVGID_10)" points="14.508,16.526 14.508,15.822 21.131,17.506 20.604,18.074 "/>
<linearGradient id="SVGID_11" gradientUnits="userSpaceOnUse" x1="9.23" y1="20.52" x2="10.87" y2="26.69">
<stop stop-color="#E6EDF3" offset="0"/>
<stop stop-color="#4977BA" offset="0.44"/>
<stop stop-color="#173F6C" offset="0.94"/>
</linearGradient>
<polygon fill="url(#SVGID_11)" points="9.39,25.626 10.939,26.271 11.769,25.603 10.196,24.959 "/>
<polygon fill="url(#SVGID_11)" points="11.982,25.424 12.804,24.762 11.173,24.15 10.403,24.787 "/>
<polygon fill="url(#SVGID_11)" points="9.175,25.801 8.446,26.408 9.954,27.058 10.723,26.445 "/>
<polygon fill="url(#SVGID_11)" points="8.051,24.094 6.714,23.562 5.994,24.243 7.309,24.775 "/>
<polygon fill="url(#SVGID_11)" points="10.091,24.677 10.837,24.043 9.267,23.458 8.573,24.07 "/>
<polygon fill="url(#SVGID_11)" points="8.908,23.311 7.519,22.798 6.899,23.386 8.24,23.919 "/>
<polygon fill="url(#SVGID_11)" points="6.738,25.695 8.18,26.308 8.894,25.697 7.42,25.094 "/>
<polygon fill="url(#SVGID_11)" points="7.113,24.949 5.814,24.417 5.18,25.013 6.452,25.552 "/>
<polygon fill="url(#SVGID_11)" points="8.38,24.244 7.618,24.92 9.097,25.529 9.884,24.851 "/>
<polygon fill="url(#SVGID_11)" points="6.541,25.875 5.844,26.49 7.23,27.119 7.972,26.486 "/>
</svg>