<?xml version="1.0" encoding="UTF-8"?>
<!DOCTYPE svg PUBLIC "-//W3C//DTD SVG 1.1 Tiny//EN" "http://www.w3.org/Graphics/SVG/1.1/DTD/svg11-tiny.dtd">
<svg width="84" height="58" viewBox="21.853 4.789 84 58">
<linearGradient id="_19" gradientUnits="userSpaceOnUse" x1="64.96" y1="41.38" x2="63.05" y2="54.94">
<stop stop-color="#A2C2DD" offset="0.1"/>
<stop stop-color="#6C83BB" offset="0.71"/>
<stop stop-color="#003D6D" offset="0.99"/>
</linearGradient>
<path fill="url(#_19)" d="M63.444,12.717c0,0.14,0.026,0.282,0.054,0.426c-0.016,0.919-0.038,8.012,0.14,11.203 c-1.808-3.487-5.115-8.361-5.115-8.361c-0.619,2.223-0.993,4.798-9.21,3.532c-9.102-1.402-11.567,1.112-12.976,8.622 c-0.042,0.222-0.328,5.378,0.271,8.102c3.479,6.217,11.787,18.611,27.038,15.992c0,0,1.928-1.986,3.266-5.025 c2.214,6.848,4.98,8.426,7.141,8.91c16.879,0.42,24.57-22.905,24.529-42.354c0.019-0.743-0.574-0.533-4.221-0.39 c0,0-7.845,4.331-19.309,4.413c-1.52-0.66-2.84-1.299-3.961-1.906c-0.002-0.596-0.022-5.893-0.022-5.893L69.8,9.197 C68.77,9.373,63.444,9.852,63.444,12.717z"/>
<linearGradient id="_20" gradientUnits="userSpaceOnUse" x1="10.56" y1="-11.13" x2="80" y2="80.79">
<stop stop-color="#E6EEF4" offset="0"/>
<stop stop-color="#A3740A" offset="0.44"/>
<stop stop-color="#474105" offset="0.94"/>
</linearGradient>
<path fill="url(#_20)" d="M36.677,28.136l27.621,18.782l-0.959,4.949c-13.741,2.176-21.67-7.477-26.401-15.715 C36.345,33.448,36.677,28.136,36.677,28.136z"/>
<path fill="#6D5607" d="M63.339,51.867c0,0,4.768-4.764,4.546-12.285l-3.733,7.867L63.339,51.867z"/>
<linearGradient id="_21" gradientUnits="userSpaceOnUse" x1="64.7" y1="23.61" x2="46.93" y2="38.47">
<stop stop-color="#E2E6E4" offset="0"/>
<stop stop-color="#A3740A" offset="1"/>
</linearGradient>
<path fill="url(#_21)" d="M39.572,21.278c4.625-4.728,17.012,2.848,19.083-4.155c14.922,22.198,7.932,28.293,5.461,30.352 C47.91,50.705,37.076,22.278,39.572,21.278z"/>
<linearGradient id="_22" gradientUnits="userSpaceOnUse" x1="112.88" y1="83.61" x2="-42.32" y2="-32.33">
<stop stop-color="#E6EEF4" offset="0"/>
<stop stop-color="#A3740A" offset="0.44"/>
<stop stop-color="#474105" offset="0.94"/>
</linearGradient>
<path fill="url(#_22)" d="M39.757,21.151c4.935,11.76,10.662,20.33,24.359,26.324c-16.599,3.85-27.439-19.338-27.439-19.338 C36.904,25.048,38.637,21.962,39.757,21.151z"/>
<linearGradient id="_23" gradientUnits="userSpaceOnUse" x1="71.02" y1="20.22" x2="43.7" y2="36.13">
<stop stop-color="#E6EEF4" offset="0"/>
<stop stop-color="#A3740A" offset="0.44"/>
<stop stop-color="#474105" offset="0.94"/>
</linearGradient>
<path fill="url(#_23)" d="M61.201,35.336l-6.339-10.786c-4.009-1.439-9.023-0.16-13.229,4.159 c3.044-2.395,8.217-4.372,11.91-2.234l3.27,7.505C57.562,35.051,59.323,35.91,61.201,35.336z"/>
<path fill="url(#_23)" d="M52.94,26.707c-4.038-1.096-8.022,0.384-9.747,4.163C45.688,28.626,49.523,26.919,52.94,26.707z"/>
<path fill="url(#_23)" d="M57.717,25.254c1.313-0.965,2.923-1.723,4.605-2.249c-0.192-0.331-0.401-0.681-0.604-1.024 C60.176,22.601,58.786,23.726,57.717,25.254z"/>
<path fill="url(#_23)" d="M54.434,39.615c-1.943,0.141,6.173,5.469,11.451,1.234l-0.712-4.563 C62.234,38.237,58.638,39.309,54.434,39.615z"/>
<polygon fill="#A2C2DD" points="65.739,19.739 70.556,16.312 70.553,10.085 66.095,10.923 "/>
<linearGradient id="_27" gradientUnits="userSpaceOnUse" x1="76.83" y1="34.56" x2="97.39" y2="15.35">
<stop stop-color="#A2C2DD" offset="0.1"/>
<stop stop-color="#6C83BB" offset="0.71"/>
<stop stop-color="#003D6D" offset="0.99"/>
</linearGradient>
<path fill="url(#_27)" d="M74.106,55.774c14.999-8.104,14.68-34.583,14.707-38.103l-16.04,1.159 C70.13,39.77,73.009,54.83,74.106,55.774z"/>
<linearGradient id="_28" gradientUnits="userSpaceOnUse" x1="50.5" y1="33.32" x2="75.39" y2="34.13">
<stop stop-color="#FFFFFF" offset="0.1"/>
<stop stop-color="#D1E1EE" offset="0.7"/>
<stop stop-color="#A2C2DD" offset="1"/>
</linearGradient>
<path fill="url(#_28)" d="M74.106,55.774c-2.365-12.928-2-23.827-1.319-37.268l-8.746-6.426l0,0 C63.814,22.218,64.082,53.725,74.106,55.774z"/>
<linearGradient id="_29" gradientUnits="userSpaceOnUse" x1="76.26" y1="50.13" x2="104.93" y2="9.37">
<stop stop-color="#A2C2DD" offset="0.1"/>
<stop stop-color="#6C83BB" offset="0.71"/>
<stop stop-color="#003D6D" offset="0.99"/>
</linearGradient>
<path fill="url(#_29)" d="M98.231,13.569l-9.568,3.094c0.052,2.142,0.836,30.22-14.557,39.111 C91.278,56.201,98.276,31.792,98.231,13.569z"/>
<linearGradient id="_30" gradientUnits="userSpaceOnUse" x1="67.47" y1="10.8" x2="74.32" y2="27.03">
<stop stop-color="#FFFFFF" offset="0.15"/>
<stop stop-color="#A2C2DD" offset="1"/>
</linearGradient>
<path fill="url(#_30)" d="M74.983,18.208c-13.255-5.742-8.008-7.791-4.364-8.065L69.687,9.56 c-4.194,0.576-11.819,2.554,3.058,10.065L74.983,18.208z"/>
<linearGradient id="_31" gradientUnits="userSpaceOnUse" x1="64.1" y1="16.94" x2="101.07" y2="16.4">
<stop stop-color="#FFFFFF" offset="0.15"/>
<stop stop-color="#A2C2DD" offset="1"/>
</linearGradient>
<path fill="url(#_31)" d="M72.745,19.626c0,0,16.372,0.799,25.516-6.057l-3.564,0.177c0,0-7.805,4.408-19.713,4.462 L72.745,19.626z"/>
<linearGradient id="_32" gradientUnits="userSpaceOnUse" x1="38.22" y1="44.92" x2="86.77" y2="29">
<stop stop-color="#FFFFFF" offset="0"/>
<stop stop-color="#A2C2DD" offset="0.35"/>
<stop stop-color="#6C83BB" offset="0.7"/>
<stop stop-color="#003D6D" offset="1"/>
</linearGradient>
<path fill="url(#_32)" d="M72.433,27.15c4.14-3.55,11.629-6.108,18.624-2.858c-4.729-1.477-12.711-0.098-16.159,4.141 l-0.492,11.035l-4.633,3.057L72.433,27.15z"/>
<path fill="url(#_32)" d="M69.124,29.137c-0.135-2.388-2.512-4.956-4.973-5.579c0.033,0.913,0.076,1.843,0.127,2.794 C66.35,26.91,68.196,27.87,69.124,29.137z"/>
<path fill="url(#_32)" d="M81.394,43.688c-4.697,3.176-9.658,4.068-14.31,2.289c0.398,1.389,0.848,2.684,1.354,3.85 C73.321,52.33,79.545,48.444,81.394,43.688z"/>
<path fill="url(#_32)" d="M88.8,29.005c-3.485-1.524-10.022-0.698-12.267,1.915C77.697,25.477,85.118,23.378,88.8,29.005z"/>
<path fill="#FFFFFF" d="M35.561,39.291c-2.773,0-6.577,0.658-7.54,6.352l-0.145,0.859c0,0,6.394,0,7.151,0 c0.23,0.41,0.57,1.027,0.787,1.42c-0.217,0.393-0.557,1.008-0.787,1.42c-0.758,0-7.151,0-7.151,0l0.145,0.859 c0.963,5.691,4.767,6.35,7.54,6.35c2.189,0,4.139-1.834,5.705-3.309c0.846-0.801,1.646-1.551,2.068-1.551h19.58l0.219-0.24 c0.42-0.461,1.396-1.727,1.418-3.498v-0.064c-0.021-1.771-0.998-3.037-1.418-3.498l-0.219-0.24h-19.58 c-0.422,0-1.223-0.752-2.066-1.547C39.7,41.125,37.751,39.291,35.561,39.291z"/>
<linearGradient id="_36" gradientUnits="userSpaceOnUse" x1="34.22" y1="34.66" x2="55.33" y2="60.06">
<stop stop-color="#E6EDF3" offset="0"/>
<stop stop-color="#CABAD7" offset="0.12"/>
<stop stop-color="#AB7EB8" offset="0.27"/>
<stop stop-color="#9759A4" offset="0.38"/>
<stop stop-color="#8F4B9C" offset="0.44"/>
<stop stop-color="#73357C" offset="0.57"/>
<stop stop-color="#551D5A" offset="0.72"/>
<stop stop-color="#430E45" offset="0.85"/>
<stop stop-color="#3C093D" offset="0.94"/>
</linearGradient>
<path fill="url(#_36)" d="M63.819,47.922c0-0.008,0.002-0.016,0.002-0.023h-0.004c-0.018-1.543-0.902-2.656-1.229-3.012 c-0.412,0-19.254,0-19.254,0c-0.717,0-1.494-0.732-2.574-1.748c-1.471-1.387-3.301-3.111-5.199-3.111 c-3.078,0-5.995,0.904-6.812,5.738c1.156,0,6.714,0,6.714,0l1.193,2.156l-1.193,2.156c0,0-5.558,0-6.714,0 c0.814,4.834,3.731,5.736,6.812,5.736c1.898,0,3.729-1.725,5.199-3.109c1.08-1.016,1.857-1.75,2.574-1.75c0,0,18.842,0,19.254,0 c0.325-0.354,1.211-1.469,1.229-3.012h0.004C63.821,47.936,63.819,47.93,63.819,47.922z"/>
</svg>