<?xml version="1.0" encoding="UTF-8"?>
<!DOCTYPE svg PUBLIC "-//W3C//DTD SVG 1.1 Tiny//EN" "http://www.w3.org/Graphics/SVG/1.1/DTD/svg11-tiny.dtd">
<svg width="72" height="66" viewBox="-0.082 0.392 72 66">
<path fill-opacity="0.01" fill="#656B6B" d="M46.223,0.392c0,0-5.471,5.47-6,6c-0.799,0-22.304,0-22.304,0 c-9.869,0-16,6.131-16,16v26c0,16.246,11.189,18,16,18h34c11.104,0,18-6.896,18-18V24.267c0-8.449-4.485-14.677-12-16.881 c-0.004-4.053-2.944-6.994-7-6.994H46.223z"/>
<path fill-opacity="0.02" fill="#656B6B" d="M46.637,1.392c0,0-5.469,5.47-6,6c-0.799,0-22.718,0-22.718,0 c-9.252,0-15,5.748-15,15v26c0,14.791,9.398,17,15,17h34c10.485,0,17-6.514,17-17V24.267c0-8.338-4.485-14.294-12-16.163 c0-0.355,0-0.712,0-0.712c0-3.477-2.522-6-6-6H46.637z"/>
<path fill-opacity="0.04" fill="#656B6B" d="M47.051,2.392c0,0-5.471,5.47-6,6c-0.799,0-23.132,0-23.132,0 c-8.636,0-14,5.364-14,14v26c0,13.225,7.613,16,14,16h34c9.869,0,16-6.131,16-16V24.267c0-8.218-4.485-13.891-12-15.412 c0-0.665,0-1.463,0-1.463c0-2.897-2.104-5-5-5H47.051z"/>
<path fill-opacity="0.07" fill="#656B6B" d="M47.465,3.392c0,0-5.469,5.47-6,6c-0.801,0-23.546,0-23.546,0 c-8.141,0-13,4.859-13,13v26c0,9.953,4.374,15,13,15h34c9.252,0,15-5.748,15-15V24.267c0-8.089-4.485-13.464-12-14.624 c0-0.161,0-2.251,0-2.251c0-2.355-1.646-4-4-4H47.465z"/>
<path fill-opacity="0.11" fill="#656B6B" d="M48.293,4.392h-0.414c0,0-5.471,5.47-6,6 c-0.801,0-23.96,0-23.96,0c-7.625,0-12,4.375-12,12v26c0,9.421,3.926,14,12,14h34c8.638,0,14-5.364,14-14V24.267 c0-7.946-4.483-13.01-12-13.796c0-0.587,0-3.079,0-3.079c0-1.794-1.205-3-3-3H48.293z"/>
<path fill-opacity="0.13" fill="#656B6B" d="M50.918,5.392c-1,0-2.625,0-2.625,0l-6,6H17.918 c-7,0-11,4-11,11v26c0,8.141,2.859,13,11,13h34c8.141,0,13-4.859,13-13V24.267c0-7.789-4.484-12.523-12-12.923 c0-0.582,0-3.233,0-3.952C52.918,6.142,52.168,5.392,50.918,5.392z"/>
<linearGradient id="_6" gradientUnits="userSpaceOnUse" x1="34.92" y1="53.95" x2="34.92" y2="15.95">
<stop stop-color="#D9F4E0" offset="0"/>
<stop stop-color="#FFFFFF" offset="1"/>
</linearGradient>
<path fill="url(#_6)" d="M17.918,10.4h24l8-8.009h2v8c7.629,0,12,6.243,12,13.875v24.125c0,7.631-4.371,12-12,12h-34 c-7.629,0-12-4.369-12-12v-26C5.918,14.76,10.29,10.392,17.918,10.4z"/>
</svg>