<?xml version="1.0" encoding="UTF-8"?>
<!DOCTYPE svg PUBLIC "-//W3C//DTD SVG 1.1 Tiny//EN" "http://www.w3.org/Graphics/SVG/1.1/DTD/svg11-tiny.dtd">
<svg width="32" height="22.001" viewBox="0 0 32 22.001">
<path d="M9.977,4.964c-6.473,6.486-5.201,12.793-4.006,14.359c0.463,0.606,1.086,1.422,2.139,2.123 c0.52,0.346,1.303,0.498,1.531,0.535l0.115,0.02l0.115-0.008c1.129-0.071,2.314-0.879,3.85-2.614 c0.662-0.749,2.152-2.596,2.152-4.021c0-0.062-0.004-0.121-0.01-0.18l-0.01-0.115l-0.037-0.109 c-0.051-0.156-0.283-0.715-1.092-1.357c-0.674-0.536-1.6-0.764-2.27-0.873c0.004-0.603,0.275-1.775,1.869-3.422l-0.021,0.01 c1.645-1.593,2.818-1.859,3.418-1.861c0.109,0.669,0.338,1.6,0.875,2.275c0.643,0.809,1.201,1.041,1.357,1.092l0.109,0.037 l0.113,0.011c1.447,0.137,3.42-1.454,4.201-2.144c1.736-1.534,2.543-2.725,2.615-3.863L27,4.743l-0.02-0.114 c-0.037-0.229-0.189-1.013-0.535-1.532c-0.697-1.048-1.512-1.67-2.051-2.081C22.756-0.237,16.449-1.508,9.977,4.964z M9.23,19.764c-0.771-0.513-1.232-1.118-1.604-1.602c-0.23-0.304-0.619-1.306-0.619-2.776c0-2.199,0.865-5.445,4.398-8.979 c5.898-5.912,10.996-4.372,11.689-3.843c0.555,0.425,1.156,0.885,1.668,1.652c0.055,0.085,0.133,0.351,0.188,0.601 c-0.057,0.338-0.389,1.042-1.912,2.389c-1.189,1.051-2.137,1.52-2.529,1.609c-0.084-0.071-0.195-0.177-0.33-0.348 c-0.354-0.443-0.516-1.479-0.541-1.912l-0.031-0.561l-0.49-0.271c-0.264-0.145-2.666-1.308-6.221,2.135l-0.012,0.012 l-0.014,0.025c-1.994,2.063-2.447,3.736-2.447,4.828c0,0.793,0.236,1.278,0.297,1.389l0.268,0.496l0.566,0.031 c0.434,0.023,1.469,0.188,1.912,0.54c0.17,0.136,0.277,0.247,0.346,0.331c-0.088,0.393-0.557,1.34-1.607,2.529 c-1.348,1.524-2.043,1.855-2.375,1.912C9.58,19.898,9.314,19.82,9.23,19.764z"/>
</svg>