<?xml version="1.0" encoding="UTF-8"?>
<!DOCTYPE svg PUBLIC "-//W3C//DTD SVG 1.1 Tiny//EN" "http://www.w3.org/Graphics/SVG/1.1/DTD/svg11-tiny.dtd">
<svg baseProfile="tiny" version="1.1" xmlns="http://www.w3.org/2000/svg" xmlns:xlink="http://www.w3.org/1999/xlink" width="100%" height="100%" viewBox="0 0 6 6">
<g>
<g>
<rect fill="none" width="6" height="6"/>
<path fill-opacity="0.03" stroke-opacity="0.03" d="M0,6c3.313,0,6-2.687,6-6H0V6z"/>
<path fill-opacity="0.04" stroke-opacity="0.04" d="M5,0H0v5C2.761,5,5,2.762,5,0z"/>
<path fill-opacity="0.06" stroke-opacity="0.06" d="M4,0H0v4C2.209,4,4,2.209,4,0z"/>
<path fill-opacity="0.09" stroke-opacity="0.09" d="M3,0H0v3C1.657,3,3,1.657,3,0z"/>
<path fill-opacity="0.1" stroke-opacity="0.1" d="M2,0H0v2C1.104,2,2,1.104,2,0z"/>
<path fill-opacity="0.11" stroke-opacity="0.11" d="M1,0H0v1C0.552,1,1,0.553,1,0z"/>
</g>
</g>
<g/>
</svg>
