<?xml version="1.0" encoding="UTF-8" standalone="no"?>
<!DOCTYPE svg PUBLIC "-//W3C//DTD SVG 1.1 Tiny//EN" "http://www.w3.org/Graphics/SVG/1.1/DTD/svg11-tiny.dtd">
<svg xmlns="http://www.w3.org/2000/svg" xmlns:xlink="http://www.w3.org/1999/xlink" width="96" height="16" viewBox="0 0 96 16">
<rect fill="none" height="16" width="96"/>
<path d="M48,2.791c2.872,0,5.21,2.338,5.21,5.209s-2.338,5.209-5.21,5.209S42.79,10.871,42.79,8 S45.128,2.791,48,2.791 M48,1.791c-3.424,0-6.21,2.785-6.21,6.209s2.786,6.209,6.21,6.209S54.21,11.424,54.21,8 S51.424,1.791,48,1.791L48,1.791z" fill="#FFFFFF"/>
<path d="M48,13.209c-2.872,0-5.21-2.338-5.21-5.209S45.128,2.791,48,2.791 S53.21,5.129,53.21,8S50.872,13.209,48,13.209L48,13.209z" fill="#4B5879"/>
<path d="M32,2.791c2.872,0,5.21,2.338,5.21,5.209s-2.338,5.209-5.21,5.209S26.79,10.871,26.79,8 S29.128,2.791,32,2.791 M32,1.791c-3.424,0-6.21,2.785-6.21,6.209s2.786,6.209,6.21,6.209S38.21,11.424,38.21,8 S35.424,1.791,32,1.791L32,1.791z" fill="#FFFFFF"/>
<path d="M32,13.209c-2.872,0-5.21-2.338-5.21-5.209S29.128,2.791,32,2.791 S37.21,5.129,37.21,8S34.872,13.209,32,13.209L32,13.209z" fill="#4B5879"/>
<path d="M64,1.709c3.469,0,6.291,2.822,6.291,6.291c0,3.469-2.822,6.291-6.291,6.291 c-3.471,0-6.293-2.822-6.293-6.291C57.707,4.531,60.529,1.709,64,1.709 M64,0.5c-4.137,0-7.5,3.363-7.5,7.5 c0,4.135,3.363,7.5,7.5,7.5c4.135,0,7.5-3.365,7.5-7.5C71.5,3.863,68.135,0.5,64,0.5L64,0.5z" fill="#4B5879"/>
<path d="M64,14.291c-3.471,0-6.293-2.822-6.293-6.291c0-3.469,2.822-6.291,6.293-6.291 c3.469,0,6.291,2.822,6.291,6.291C70.291,11.469,67.469,14.291,64,14.291L64,14.291z" fill="#FFFFFF"/>
</svg>