<?xml version="1.0" encoding="UTF-8" standalone="no"?>
<!DOCTYPE svg PUBLIC "-//W3C//DTD SVG 1.1 Tiny//EN" "http://www.w3.org/Graphics/SVG/1.1/DTD/svg11-tiny.dtd">
<svg xmlns="http://www.w3.org/2000/svg" xmlns:xlink="http://www.w3.org/1999/xlink" width="54" height="54" viewBox="0 0 54 54">
<rect fill="none" height="54" width="54"/>
<path d="M41.04,15.338c0-4.959-4.034-8.992-8.991-8.992c-0.645,0-1.271,0.07-1.879,0.203l10.678,10.633 C40.973,16.586,41.04,15.969,41.04,15.338z" fill-opacity="0.02"/>
<path d="M40.87,15.338c0-4.865-3.958-8.824-8.821-8.824c-0.595,0-1.176,0.063-1.736,0.176l10.391,10.348 C40.811,16.486,40.87,15.918,40.87,15.338z" fill-opacity="0.02"/>
<path d="M40.705,15.338c0-4.773-3.887-8.654-8.656-8.654c-0.543,0-1.072,0.057-1.589,0.152l10.097,10.055 C40.648,16.387,40.705,15.867,40.705,15.338z" fill-opacity="0.02"/>
<path d="M40.537,15.338c0-4.682-3.811-8.488-8.488-8.488c-0.492,0-0.972,0.051-1.441,0.133l9.804,9.762 C40.486,16.287,40.537,15.816,40.537,15.338z" fill-opacity="0.02"/>
<path d="M40.369,15.338c0-4.588-3.734-8.32-8.32-8.32c-0.441,0-0.871,0.045-1.294,0.113l9.509,9.467 C40.326,16.185,40.369,15.768,40.369,15.338z" fill-opacity="0.02"/>
<path d="M40.201,15.336c0-4.494-3.658-8.148-8.152-8.148c-0.39,0-0.771,0.037-1.146,0.09l9.213,9.176 C40.166,16.086,40.201,15.715,40.201,15.336z" fill-opacity="0.02"/>
<path d="M40.033,15.336c0-4.402-3.581-7.982-7.984-7.982c-0.339,0-0.671,0.029-0.999,0.068l8.919,8.885 C40.006,15.988,40.033,15.664,40.033,15.336z" fill-opacity="0.02"/>
<path d="M39.865,15.336c0-4.311-3.508-7.813-7.816-7.813c-0.287,0-0.57,0.018-0.851,0.049l8.622,8.588 C39.85,15.889,39.865,15.613,39.865,15.336z" fill-opacity="0.02"/>
<path d="M39.7,15.336c0-4.217-3.435-7.645-7.651-7.645c-0.234,0-0.466,0.014-0.695,0.033l8.313,8.279 C39.686,15.783,39.7,15.56,39.7,15.336z" fill-opacity="0.02"/>
<path d="M39.529,15.336c0-4.123-3.355-7.479-7.48-7.479c-0.182,0-0.359,0.014-0.537,0.025l7.992,7.961 C39.516,15.676,39.529,15.508,39.529,15.336z" fill-opacity="0.02"/>
<path d="M39.361,15.336c0-4.033-3.28-7.314-7.313-7.314c-0.127,0-0.252,0.016-0.379,0.02l7.674,7.645 C39.35,15.568,39.361,15.453,39.361,15.336z" fill-opacity="0.02"/>
<path d="M39.512,49.111c-0.398,0-0.796-0.098-1.138-0.273l0,0 c-0.915-0.449-1.463-1.381-1.491-2.408l0,0v-0.152H7.378V6.521V4.539h21.707c2.22-0.004,5.599,1.443,5.599,1.443 c3.116,0.939,6.613,6.43,6.613,6.43c0.916,1.482,1.526,3.254,1.52,5.439l0,0v7.428l8.133,9.151c0.49,0.498,0.725,1.146,0.744,1.864 l0,0v0.072v0.004c-0.01,0.707-0.286,1.379-0.769,1.881l0,0l-9.577,10.078c-0.481,0.479-1.14,0.78-1.828,0.78l0,0 C39.518,49.111,39.516,49.111,39.512,49.111L39.512,49.111z" fill="#FFFFFF" fill-opacity="0.6"/>
<linearGradient id="_992" gradientUnits="userSpaceOnUse" x1="25.33" y1="-10.16" x2="25.33" y2="31.9">
<stop stop-color="#CCCCCC" offset="0"/>
<stop stop-color="#000000" offset="1"/>
</linearGradient>
<path d="M42.053,45.068h-0.98H9.597H8.615v-0.982V6.312V5.33h0.982H29.32 c3.972,0,6.467,1.945,8.568,4.047c2.276,2.279,4.164,4.475,4.164,8.266v26.443V45.068L42.053,45.068z" fill="url(#_992)" fill-opacity="0.7"/>
<linearGradient id="_993" gradientUnits="userSpaceOnUse" x1="38" y1="12.54" x2="39.03" y2="11.51">
<stop stop-color="#F2F2F2" offset="0"/>
<stop stop-color="#EDEDED" offset="0.19"/>
<stop stop-color="#DFDFDF" offset="0.42"/>
<stop stop-color="#C8C8C8" offset="0.66"/>
<stop stop-color="#A8A8A8" offset="0.9"/>
<stop stop-color="#999999" offset="1"/>
</linearGradient>
<path d="M41.07,17.644c0,3.09,0,26.441,0,26.441H9.597V6.312c0,0,17.647,0,19.723,0 c3.412,0,5.609,1.496,7.875,3.76C39.456,12.334,41.07,14.287,41.07,17.644z" fill="url(#_993)"/>
<linearGradient id="_994" gradientUnits="userSpaceOnUse" x1="30.43" y1="20.09" x2="38.93" y2="11.58">
<stop stop-color="#F2F2F2" offset="0"/>
<stop stop-color="#EDEDED" offset="0.19"/>
<stop stop-color="#DFDFDF" offset="0.42"/>
<stop stop-color="#C8C8C8" offset="0.66"/>
<stop stop-color="#A8A8A8" offset="0.9"/>
<stop stop-color="#999999" offset="1"/>
</linearGradient>
<path d="M41.07,17.644c0,3.09,0,26.441,0,26.441H9.597V6.312c0,0,17.647,0,19.723,0 c4.199,0,5.701,2.801,6.093,5.539C38.279,12.244,41.07,13.547,41.07,17.644z" fill="url(#_994)"/>
<linearGradient id="_995" gradientUnits="userSpaceOnUse" x1="25.33" y1="44.09" x2="25.33" y2="16.92">
<stop stop-color="#F2F2F2" offset="0"/>
<stop stop-color="#FFFFFF" offset="1"/>
</linearGradient>
<polygon fill="url(#_995)" fill-opacity="0.85" points="41.07,34.434 41.07,44.086 9.597,44.086 9.597,16.805 "/>
<linearGradient id="_996" gradientUnits="userSpaceOnUse" x1="25.33" y1="39.63" x2="25.33" y2="10.34">
<stop stop-color="#808080" offset="0"/>
<stop stop-color="#7B7B7B" offset="0.21"/>
<stop stop-color="#6D6D6D" offset="0.45"/>
<stop stop-color="#555555" offset="0.71"/>
<stop stop-color="#353535" offset="0.99"/>
<stop stop-color="#333333" offset="1"/>
</linearGradient>
<path d="M35.387,11.879c-0.392-2.74-1.867-5.566-6.066-5.566 c-2.075,0-19.723,0-19.723,0v37.773H41.07c0,0,0-23.352,0-26.441C41.07,13.547,38.253,12.269,35.387,11.879z M40.232,43.248H10.438 V7.152H29.32c3.285,0,5.445,0.836,6.055,4.738c3.771,0.662,4.857,1.719,4.857,5.754V43.248z" fill="url(#_996)" fill-opacity="0.4"/>
<linearGradient id="_997" gradientUnits="userSpaceOnUse" x1="24.77" y1="14.17" x2="24.77" y2="55.87">
<stop stop-color="#FB9E3A" offset="0.06"/>
<stop stop-color="#E6742B" offset="1"/>
</linearGradient>
<rect fill="url(#_997)" height="2.242" width="20.083" x="14.734" y="26.258"/>
<linearGradient id="_998" gradientUnits="userSpaceOnUse" x1="24.75" y1="8.01" x2="24.75" y2="37.13">
<stop stop-color="#FB9E3A" offset="0.06"/>
<stop stop-color="#E6742B" offset="1"/>
</linearGradient>
<rect fill="url(#_998)" height="10.779" width="20.042" x="14.734" y="12.508"/>
<rect fill="url(#_997)" height="2.244" width="20.125" x="14.691" y="36.627"/>
<rect fill="url(#_997)" height="2.244" width="20.125" x="14.691" y="31.432"/>
<path d="M20.491,18.31l1.992,3.961h-1.846l-1.693-3.709h-0.768v3.709h-1.611v-8.736h2.836 c1.083,0,2.189,0.338,2.519,1.484C22.301,16.348,21.854,17.814,20.491,18.31 M18.176,17.578h0.861c1.267,0,1.712-1.475,1.185-2.494 c-0.373-0.723-1.328-0.564-2.003-0.564C18.133,14.519,18.176,17.246,18.176,17.578" fill="#FFFFFF"/>
<path d="M24.932,22.365c-0.222,0-1.881-0.057-1.881-0.285c0-0.332,0-0.664,0-0.998 c1.126,0.307,3.688,0.688,3.359-1.281c-0.237-1.418-2.516-1.603-3.119-2.898c-0.642-1.383,0.032-2.896,1.48-3.313 c0.812-0.232,1.721-0.178,2.544-0.035c0.52,0.09,0.317,0.613,0.317,1.082c-0.859-0.195-2.678-0.543-2.929,0.707 c-0.263,1.307,1.492,1.779,2.292,2.385c0.989,0.746,1.325,1.988,0.864,3.154C27.392,22.066,26.082,22.365,24.932,22.365" fill="#FFFFFF"/>
<path d="M30.715,22.365c-0.222,0-1.881-0.057-1.881-0.285c0-0.332,0-0.664,0-0.998 c1.126,0.307,3.688,0.688,3.359-1.281c-0.237-1.418-2.517-1.603-3.119-2.898c-0.643-1.383,0.031-2.896,1.48-3.313 c0.812-0.232,1.721-0.178,2.543-0.035c0.521,0.09,0.317,0.613,0.317,1.082c-0.858-0.195-2.679-0.543-2.929,0.707 c-0.264,1.307,1.492,1.779,2.291,2.385c0.99,0.746,1.326,1.988,0.865,3.154C33.175,22.066,31.865,22.365,30.715,22.365" fill="#FFFFFF"/>
<polygon fill="url(#_995)" fill-opacity="0.3" points="41.07,34.434 41.07,44.086 9.597,44.086 9.597,16.805 "/>
<linearGradient id="_1002" gradientUnits="userSpaceOnUse" x1="37.91" y1="14.28" x2="37.91" y2="39.88">
<stop stop-color="#CCCCCC" offset="0"/>
<stop stop-color="#000000" offset="1"/>
</linearGradient>
<path d="M39.747,47.9c-0.24,0-0.476-0.057-0.696-0.17c-0.555-0.271-0.912-0.854-0.932-1.512v-5.035 c-2.611-0.318-10.32-1.263-11.07-1.357c-1.126-0.141-2.163-0.537-2.163-2.453v-2.945c0-1.896,1.031-2.301,2.152-2.457 c0.892-0.123,8.491-1.051,11.104-1.371l-0.023-5.152c-0.016-0.463,0.169-0.93,0.5-1.262c0.102-0.109,0.242-0.215,0.396-0.295 c0.215-0.117,0.476-0.18,0.737-0.18c0.437,0,0.86,0.17,1.169,0.465l9.535,10.732c0.273,0.254,0.467,0.707,0.473,1.188 c0.008,0.471-0.175,0.928-0.494,1.256l-9.558,10.057C40.553,47.73,40.159,47.9,39.747,47.9L39.747,47.9z" fill="url(#_1002)"/>
<linearGradient id="_1003" gradientUnits="userSpaceOnUse" x1="42.3" y1="47.73" x2="33.72" y2="26.64">
<stop stop-color="#EBF7AB" offset="0"/>
<stop stop-color="#87B938" offset="0.49"/>
<stop stop-color="#006300" offset="1"/>
</linearGradient>
<path d="M49.723,35.561l-9.481-10.679c-0.197-0.189-0.535-0.248-0.769-0.123 c-0.059,0.031-0.109,0.07-0.16,0.119c-0.14,0.139-0.219,0.346-0.211,0.564l0.025,6.025c0,0-10.896,1.33-11.956,1.475 c-0.906,0.127-1.307,0.306-1.307,1.484c0,1.176,0,1.768,0,2.945c0,1.176,0.397,1.363,1.307,1.479 c0.908,0.115,11.931,1.465,11.931,1.465v5.875c0.008,0.287,0.155,0.547,0.393,0.664c0.23,0.117,0.48,0.066,0.672-0.123l9.563-10.063 c0.002-0.002,0.002-0.004,0.006-0.006c0.141-0.143,0.22-0.344,0.216-0.555C49.945,35.898,49.863,35.695,49.723,35.561z" fill="url(#_1003)"/>
<linearGradient id="_1004" gradientUnits="userSpaceOnUse" x1="28.29" y1="33.98" x2="52.23" y2="29.69">
<stop stop-color="#61A10D" offset="0"/>
<stop stop-color="#E3F0B5" offset="0.91"/>
</linearGradient>
<polygon fill="url(#_1004)" points="48.779,35.984 40.111,26.182 40.105,32.164 26.615,33.736 26.615,35.971 "/>
</svg>