<?xml version="1.0" encoding="UTF-8" standalone="no"?>
<!DOCTYPE svg PUBLIC "-//W3C//DTD SVG 1.1 Tiny//EN" "http://www.w3.org/Graphics/SVG/1.1/DTD/svg11-tiny.dtd">
<svg xmlns="http://www.w3.org/2000/svg" xmlns:xlink="http://www.w3.org/1999/xlink" baseProfile="tiny" height="120" version="1.1" viewBox="0 0 120 120" width="120">
<linearGradient gradientTransform="matrix(1 0 0 -1 0.1377 118.834)" gradientUnits="userSpaceOnUse" id="XMLID_40_" x1="-0.1445" x2="63.4949" y1="105.959" y2="56.0573">
<stop offset="0" style="stop-color:#999999"/>
<stop offset="0.24" style="stop-color:#EBEBEB"/>
<stop offset="0.41" style="stop-color:#E9E9E9"/>
<stop offset="0.48" style="stop-color:#E2E2E2"/>
<stop offset="1" style="stop-color:#4D4D4D"/>
</linearGradient>
<path d="M96.343,18.026L96.343,18.026l0.005-0.007c0,0-3.718-1.891-8.414-1.934l-60.492,5.072  c-5.355,0.301-7.522,2.255-7.436,4.727l0.691,71.478c-0.012,2.331,2.225,3.811,4.397,5.607L96.343,18.026z" fill="url(#XMLID_40_)"/>
<path d="M91.839,17.28c4.795-0.403,7.391,2.277,7.384,4.814c-0.007,2.493,0.729,58.508,0.77,60.9  c0.061,3.511-2.499,5.459-5.313,6.151c-1.684,0.414-60.916,14.162-62.682,14.489c-6.876,1.272-8.217-1.409-8.187-3.447  c0.039-2.608-0.579-70.599-0.597-72.854c-0.024-2.961,2.769-4.284,7.98-4.819C32.525,22.377,89.209,17.501,91.839,17.28z" fill="#FFFFFF"/>
<radialGradient cx="-336.7622" cy="2628.3496" gradientTransform="matrix(-0.5936 0 0 0.3989 -170.2732 -1019.2762)" gradientUnits="userSpaceOnUse" id="XMLID_41_" r="173.6889">
<stop offset="0" style="stop-color:#F3F3F3"/>
<stop offset="1" style="stop-color:#9A9A9A"/>
</radialGradient>
<path d="M95.02,87.62c1.775-0.441,3.659-1.441,3.688-3.42c0.018-1.187-0.366-59.223-0.338-61.014  c0.025-1.58-1.419-2.71-4.997-2.389c-1.193,0.107-59.934,5.801-61.455,5.859c-3.886,0.148-5.103,2.117-5.083,3.247  c0,0,0.912,65.674,0.927,68.68c0.012,2.277,2.366,2.77,5.435,2.461C33.197,101.044,93.605,87.972,95.02,87.62z" fill="url(#XMLID_41_)"/>
<linearGradient gradientTransform="matrix(0.9989 0.0465 0.0465 -0.9989 -2.7008 115.7865)" gradientUnits="userSpaceOnUse" id="XMLID_42_" x1="35.2705" x2="92.8115" y1="49.3955" y2="77.4514">
<stop offset="0" style="stop-color:#A7A7A7"/>
<stop offset="0.34" style="stop-color:#A0A0A0"/>
<stop offset="0.9" style="stop-color:#727272"/>
<stop offset="1" style="stop-color:#727272"/>
</linearGradient>
<path d="M36.652,42.248c0.229-1.015,0.352-1.038,2.271-0.914c0.493,2.12,1.282,2.342,1.741,2.273  c1.571,1.68,0.766,6.053,1.953,7.469c1.068,1.278,1.575,2.516,1.965,3.426c3.568,2.285,3.03,1.165,4.966,4.071  c-0.346,1.188-0.418,2.289,0.733,6.203c0,0,0.535-2.9,1.016,0.843c0.479,3.748,0.616,0.856-0.152,2.317  c-0.766,1.459,0.916,0.848-0.043,2.458c-0.96,1.607-0.252,2.175-0.252,2.175c0.044,4.881-0.101,4.615,1.298,4.739  c-0.228-1.199,0.677-3.277,0.8-4.351c0.629-1.419,2.635-3.788,2.954-5.987c0.957-0.777,1.395-1.593,1.329-3.064  c1.006-1.822,1.287-2.464-1.688-4.443c-0.576-2.525-0.354,0.056-1.93-3.368c-2.212-0.378-3.905-0.664-3.898,0.723  c-1.571-1.849-0.099-1.833-0.685-3.542c-0.273-0.797-1.719,0.414-1.658,1.317c-1.665-0.499-0.375-2.74,1.024-3.342  c0.349,0.494,0.829,1.513,1.244,1.317c0.219-0.393-0.127-1.525,0.244-1.808c1.163-0.886,1.287-1.804,0.837-1.834  c0.549-0.368,1.395-1.335,1.277-1.514c-0.381-0.584,0.302-0.999,0.343-0.969c0.449,0.58,1.008,0.559,1.008,0.559  s-0.316-1.47-0.291-1.471c0.568,0.13,0.683,0.292,1.05,0.709c0.892-0.644-0.145-1.897-0.424-2.232  c0.767,0.144,0.342-1.373-1.021-1.116c0.326-0.965-0.001-2.098-1.213-1.913c0.575-1.26,2.221-2.317-0.597-5.099  c0.197-0.095,0.923-0.408,0.923-0.408c0.864,0.677,1.541,2.04,1.918,2.658c-0.027,2.099,2.318,2.22,2.192,3.325  c2.128-4.33,2.153-1.961,3.172-3.634c0.203,0.135,1.547,0.206,1.945-2.16c-0.971-0.883,0.678-1.658,0.601-2.226  c-0.095-0.727-1.099-0.513-1.918-0.536c-4.152-0.276-5.111-0.394-5.564,0.405c-0.187-0.086-0.627-0.648-1.004-0.076  c-2.652,0.036-3.653,0.724-3.811,1.717c0.031-0.308,0.487-1.938-0.303-1.727c-0.909,0.613-1.552,0.74-1.788,0.002  c-0.196-0.611-1.832,0.343-1.103,1.121c-0.484,0.174-1.066,0.56-0.729,2.3c-1.008-1.743-1.507-2.004-2.77-1.066  c-0.067-0.499-0.403-0.719-1.455,0.031c0.998,0.314-0.908,0.526-1.03,1.563c-1.432-0.539-2.238-0.1-2.802-0.711  c-1.868-1.048-3.576,1.305-3.538,2.104c0.082,0.766-0.377,0.968-0.097,1.638c0.34,0.817,0.307,0.833,0.825,3.675  C34.83,42.701,34.879,42.701,36.652,42.248z M88.081,63.862c-0.266-0.826-1.219-0.936-1.219-0.936s-0.539,0.48-1,0.59  c-2.384,2.096-2.694,2.172-1.682,7.273l0.981-0.694c0.153-1.186,1.466-0.591,1.991-0.939c1.526,1.397,0.954,1.518,2.289,2.384  c-0.094,0.228-0.332,0.97-0.308,0.97c0.571,1.074,1.572-0.905,1.048-1.837c-0.14-0.387,0.647-0.728,0.597-1.408  c-0.144-1.86,0.857-1.979-1.141-3.984c-0.313-0.311-0.095-1.688-1.184-2.866C88.699,62.915,88.296,63.274,88.081,63.862z   M66.078,41.996c-0.029,0.01-0.735-0.714-0.782-0.655c-0.854,1.131-1.115-1.021-1.03-1.619c0.692,0.657,0.629-1.396,2.696-4.103  c1.333,0.737,1.415-0.838-1.344-0.84c-1.636-2.482,5.495-1.104,2.32-0.145c0.147,2.157,5.724,3.165,6.923,1.007  c-2.567-1.152-0.763,0.386-2.049,0.332c-1.349-0.594-0.25-1.278,0.626-1.749c-2.152-0.603-2.101,0.221-2.803-0.901  c3.053,0.177,2.544-0.828,3.437-0.411c0.53,0.246,1.021,2.159,1.906,2.029c1.521-0.226-0.046,1.062,1.334,0.358  c1.118-0.565,0.724-1.207,2.762-1.122c-0.087-0.232-0.56-1.093-0.295-1.339c0.517-0.489,1.679,1.668,5.084,1.722  c0.696-1.84,0.283,0.276,1.867,0.63c0.969-1.392,1.475-1.799,1.648-0.024c2.273-1.672,0.375-0.789,3.006,0.119  c1.145,1.539,2.568,0.355,3.661,0.596c0.846,1.647-1.601,4.675-2.3,4.285c-0.095,0.848-0.917,0.598-0.917,0.598  s0.453,2.737-1.331,2.728c0.621-0.696-0.25-1.318,0.78-3.772c-1.156,0.629-1.345,1.972-2.23,1.105  c0.288,2.384-0.375,3.504-0.039,4.529c-0.627-0.731-2.253,0.077-2.386,2.942c0.66-1.224,1.013-0.999,1.529-1.502  c0.415-0.406-0.221-0.887,1.205-1.063c-0.306,0.611-1.175,3.38-1.423,3.753c1.203,2.362-0.916,1.897-0.939,0.54  c-0.515,0.637-0.809-0.032-1.158,0.69c-0.309-0.313-0.031-2.814-0.76-3.155c-1.176,0.253,1.122,3.117-0.144,5.496l-0.605-0.563  c-3.236,2.336-0.755,1.386-1.466,3.016c-0.565,1.64-1.311,1.973-1.121,3.297c0,0,0.743,1.254,0.771,2.095  c0.907-0.83,0.859-0.898,0.42-2.028l1.563-1.378l0.439,1.719c0,0,2.425-1.179,3.335,0.797c4.309-0.754,1.989-0.091,3.482,1.463  c1.285,0.559,3.564,2.425,1.733,3.527c0.134,1.302,0.47,3.264,0.47,3.264c-1.164-0.226-1.234-1.077-1.019-4.126  c-1.263-3.148,0.04,0.686-2.854-3.21c0,0-0.157,0.973,0.036,1.732c-0.275,0.218-1.08-0.942-1.08-0.942s-0.877,0.481-1.402-0.453  c-1.939-0.188-1.891-1.304-1.891-1.304l-1.412,0.912l2.181,0.705c0,0-0.07,0.659-1.515,0.609c0.159,0.646-3.819,1.459-3.995-3.566  c-0.603-0.472-0.637-0.42-0.4-3.167c0,0-0.819-1.788-0.973-2.101c-1.774,1.392-1.119,4.277-2.019,4.229  c-1.368-0.076-0.833-4.499-3.51-5.069c0.083,1.856-0.827,2.168-1.587,3.407c0,0,0.677,0.834,0.887,1.042  c-0.931,3.787-3.565,3.375-1.723,6.194c-0.823,1.036-2.229,7.735-3.344,7.971c-1.809,0.389-2.725-5.356-2.645-5.817  c-0.617-0.6-0.061-1.405,0.025-1.835c-0.335-0.797-0.271-1.954-0.811-3.545c0.991-1.312-0.228-0.642-0.894-1.619  c-0.042-0.004-1.471,0.597-1.447,0.609c1.22,0.838-2.32,1.067-1.676-0.924c-0.938-1.879-1.934-3.91-0.579-5.182  c-0.031,0.007,0.138-2.895,0.138-2.895c2.557-0.135,2.06-2.585,4.873-1.454c0.22,1.326,1.633,1.891,1.633,1.891  s2.219-0.897,2.297-1.072c-0.123-0.324-1.447-0.074-1.419-1.356c0.077,0.578,0.095,1.282-0.343,1.282  c-0.25-0.623-0.521-0.788-2.14-3.011c0.272,1.851,1.31,0.73,0.543,2.452c-0.953-2.841-2.834-1.036-3.129-0.698  c-0.515,2.114-1.302-0.358-1.578-0.552c0.092-1.076,1.457-1.527,1.617-2.03c0.005-1.896-1.297-1.291-1.404-1.633  c-0.294-0.929,0.726-0.437,0.714-2.716c0.603-0.534,1.024-0.456,1.174,0.188c0.12,0.545,0.656,0.221,0.658,1.865  c0.185-0.141,1.016-0.352,2.283-0.332c1.449-2.011,2.651-2.345,2.151-3.299c-0.128,0.293-1.541,1.705-0.887-0.846  c-1.125,0.882-0.896,0.717-0.896,1.366C67.248,40.037,66.481,41.325,66.078,41.996z M72.417,63.623  c-1.268,1.302-0.891,2.859-1.223,1.995c-0.332-0.867,0.003,2.727,0.19,2.746c1.17-1.098,0.403-1.457,1.023-1.852  C72.228,64.561,72.987,67.645,72.417,63.623z M93.139,72.911c-0.183,0.287,0.214,1.336,0.214,1.336s0.889-1.552,1.205-2.432  c1.592,0.047,0.284-1.481-0.438-1.921C94.236,71.191,93.939,71.652,93.139,72.911z M85.076,53.724  c-0.292-0.213-1.132,0.938-0.288,2.223c-0.254,0.44-0.282,0.302,0.422,0.952c0.073,1.059,0.695,1.251,0.976,0.992  c0.217-0.244-0.607-1.674-0.545-2.542C84.987,55.408,85.363,53.935,85.076,53.724z M49.87,52.814  c-0.236,0.328,0.428,0.268,0.374,0.03C50.222,52.746,49.94,52.715,49.87,52.814z M49.653,53.104  c-0.481-0.375-0.458,1.198-0.128,0.906c0.104-0.092,0.127,1.101,0.261,1.085c0.134-0.017,0.15-0.449,0.195-0.56  C50.206,54.67,50.394,53.68,49.653,53.104z M50.595,54.037c0.031,0.777-0.281,1.109-0.104,1.175  c0.175,0.068,0.573,0.147,0.611-0.444c0.457,0,0.481-0.186,0.497-0.205c0.01-0.012,0.055,0.641,0.328,0.511  c0.365-1.115-0.368-0.287-0.542-0.996C51.154,54.114,50.635,53.874,50.595,54.037z M52.803,54.814  c-0.653-0.118,0.145,1.414,0.421,0.481C52.943,55.172,52.772,55.358,52.803,54.814z M46.243,60.205  c0.225-0.688,1.009,0.882,0.018,0.804C46.067,60.784,45.804,60.083,46.243,60.205z M35.725,54.55  c-0.053-0.105-0.877-2.221-1.023-1.278c-0.136,0.902-0.042,0.641,0.529,1.435L35.725,54.55z M60.183,38.359  c-0.167,0.214-0.51,0.401-0.777,0.374c-0.268-0.028-0.252,1.276,0.809,0.747C61.147,39.013,60.352,38.146,60.183,38.359z   M76.453,60.164c0,0-0.769,1.177-0.167,1.306C77.179,61.559,76.453,60.164,76.453,60.164z M76.495,62.043  c0.113,0.452,1.348,1.114,1.204,0.549C77.592,62.157,76.385,61.605,76.495,62.043z M76.792,57.42l-0.167,1.442l0.5,0.133  L76.792,57.42z" fill="url(#XMLID_42_)"/>
<circle cx="46.47" cy="33.955" fill="none" r="5.179" stroke="#FFFFFF" stroke-width="0.1813"/>
<circle cx="46.469" cy="33.954" fill="none" r="3.966" stroke="#FFFFFF" stroke-width="0.1389"/>
<circle cx="46.47" cy="33.954" fill="none" r="2.379" stroke="#FFFFFF" stroke-width="0.0833"/>
<circle cx="46.47" cy="33.954" fill="none" r="0.952" stroke="#FFFFFF" stroke-width="0.3556"/>
<circle cx="91.313" cy="37.313" fill="none" r="5.179" stroke="#FFFFFF" stroke-width="0.1813"/>
<circle cx="91.313" cy="37.313" fill="none" r="3.965" stroke="#FFFFFF" stroke-width="0.1389"/>
<circle cx="91.313" cy="37.313" fill="none" r="2.379" stroke="#FFFFFF" stroke-width="0.0833"/>
<circle cx="91.313" cy="37.313" fill="none" r="0.953" stroke="#FFFFFF" stroke-width="0.3556"/>
<circle cx="49.775" cy="59.927" fill="none" r="5.179" stroke="#FFFFFF" stroke-width="0.1813"/>
<circle cx="49.774" cy="59.926" fill="none" r="3.966" stroke="#FFFFFF" stroke-width="0.1389"/>
<circle cx="49.776" cy="59.926" fill="none" r="2.379" stroke="#FFFFFF" stroke-width="0.0833"/>
<circle cx="49.775" cy="59.926" fill="none" r="0.951" stroke="#FFFFFF" stroke-width="0.3556"/>
<circle cx="63.032" cy="45.424" fill="none" r="5.178" stroke="#FFFFFF" stroke-width="0.1813"/>
<circle cx="63.031" cy="45.422" fill="none" r="3.966" stroke="#FFFFFF" stroke-width="0.1389"/>
<circle cx="63.032" cy="45.422" fill="none" r="2.378" stroke="#FFFFFF" stroke-width="0.0833"/>
<circle cx="63.033" cy="45.422" fill="none" r="0.952" stroke="#FFFFFF" stroke-width="0.3556"/>
<circle cx="40.84" cy="45.257" fill="none" r="5.179" stroke="#FFFFFF" stroke-width="0.1813"/>
<circle cx="40.84" cy="45.257" fill="none" r="3.966" stroke="#FFFFFF" stroke-width="0.1389"/>
<circle cx="40.84" cy="45.257" fill="none" r="2.38" stroke="#FFFFFF" stroke-width="0.0833"/>
<circle cx="40.84" cy="45.257" fill="none" r="0.953" stroke="#FFFFFF" stroke-width="0.3556"/>
<circle cx="67.137" cy="32.996" fill="none" r="5.178" stroke="#FFFFFF" stroke-width="0.1813"/>
<circle cx="67.135" cy="32.996" fill="none" r="3.965" stroke="#FFFFFF" stroke-width="0.1389"/>
<circle cx="67.135" cy="32.996" fill="none" r="2.379" stroke="#FFFFFF" stroke-width="0.0833"/>
<circle cx="67.135" cy="32.996" fill="none" r="0.952" stroke="#FFFFFF" stroke-width="0.3556"/>
<circle cx="85.234" cy="48.85" fill="none" r="5.179" stroke="#FFFFFF" stroke-width="0.1813"/>
<circle cx="85.234" cy="48.849" fill="none" r="3.965" stroke="#FFFFFF" stroke-width="0.1389"/>
<circle cx="85.234" cy="48.849" fill="none" r="2.379" stroke="#FFFFFF" stroke-width="0.0833"/>
<circle cx="85.234" cy="48.849" fill="none" r="0.952" stroke="#FFFFFF" stroke-width="0.3556"/>
<circle cx="80.667" cy="32.988" fill="none" r="5.179" stroke="#FFFFFF" stroke-width="0.1813"/>
<circle cx="80.666" cy="32.988" fill="none" r="3.966" stroke="#FFFFFF" stroke-width="0.1389"/>
<circle cx="80.667" cy="32.988" fill="none" r="2.379" stroke="#FFFFFF" stroke-width="0.0833"/>
<circle cx="80.668" cy="32.988" fill="none" r="0.952" stroke="#FFFFFF" stroke-width="0.3556"/>
<circle cx="60.341" cy="56.659" fill="none" r="5.179" stroke="#FFFFFF" stroke-width="0.1813"/>
<path d="M64.309,56.659c0,2.188-1.776,3.963-3.969,3.963  c-2.189,0-3.966-1.774-3.966-3.963c0-2.191,1.776-3.968,3.966-3.968C62.531,52.691,64.309,54.468,64.309,56.659z" fill="none" stroke="#FFFFFF" stroke-width="0.1389"/>
<circle cx="60.341" cy="56.659" fill="none" r="2.379" stroke="#FFFFFF" stroke-width="0.0833"/>
<path d="M61.293,56.659c0,0.524-0.426,0.948-0.953,0.948  c-0.522,0-0.95-0.424-0.95-0.948c0-0.527,0.428-0.952,0.95-0.952C60.867,55.707,61.293,56.132,61.293,56.659z" fill="none" stroke="#FFFFFF" stroke-width="0.3556"/>
<circle cx="52.479" cy="43.212" fill="none" r="5.179" stroke="#FFFFFF" stroke-width="0.1813"/>
<circle cx="52.478" cy="43.211" fill="none" r="3.965" stroke="#FFFFFF" stroke-width="0.1389"/>
<circle cx="52.479" cy="43.211" fill="none" r="2.38" stroke="#FFFFFF" stroke-width="0.0833"/>
<circle cx="52.479" cy="43.211" fill="none" r="0.952" stroke="#FFFFFF" stroke-width="0.3556"/>
<circle cx="89.409" cy="72.876" fill="none" r="5.179" stroke="#FFFFFF" stroke-width="0.1813"/>
<circle cx="89.408" cy="72.875" fill="none" r="3.965" stroke="#FFFFFF" stroke-width="0.1389"/>
<path d="M91.786,72.875c0,1.316-1.063,2.379-2.376,2.379  c-1.316,0-2.381-1.063-2.381-2.379c0-1.313,1.063-2.38,2.381-2.38C90.723,70.495,91.786,71.563,91.786,72.875z" fill="none" stroke="#FFFFFF" stroke-width="0.0833"/>
<path d="M90.359,72.875c0,0.525-0.426,0.954-0.949,0.954  c-0.527,0-0.953-0.429-0.953-0.954c0-0.523,0.426-0.95,0.953-0.95C89.936,71.925,90.359,72.352,90.359,72.875z" fill="none" stroke="#FFFFFF" stroke-width="0.3556"/>
<circle cx="50.94" cy="76.24" fill="none" r="5.178" stroke="#FFFFFF" stroke-width="0.1813"/>
<circle cx="50.94" cy="76.24" fill="none" r="3.966" stroke="#FFFFFF" stroke-width="0.1389"/>
<circle cx="50.941" cy="76.24" fill="none" r="2.379" stroke="#FFFFFF" stroke-width="0.0833"/>
<circle cx="50.941" cy="76.24" fill="none" r="0.952" stroke="#FFFFFF" stroke-width="0.3556"/>
<circle cx="81.746" cy="59.726" fill="none" r="5.179" stroke="#FFFFFF" stroke-width="0.1813"/>
<circle cx="81.745" cy="59.726" fill="none" r="3.966" stroke="#FFFFFF" stroke-width="0.1389"/>
<circle cx="81.745" cy="59.726" fill="none" r="2.378" stroke="#FFFFFF" stroke-width="0.0833"/>
<circle cx="81.746" cy="59.726" fill="none" r="0.952" stroke="#FFFFFF" stroke-width="0.3556"/>
<path d="M72.866,70.854c0,2.86-2.318,5.182-5.179,5.182  c-2.861,0-5.179-2.32-5.179-5.182c0-2.857,2.317-5.178,5.179-5.178C70.548,65.676,72.866,67.996,72.866,70.854z" fill="none" stroke="#FFFFFF" stroke-width="0.1813"/>
<circle cx="67.688" cy="70.854" fill="none" r="3.966" stroke="#FFFFFF" stroke-width="0.1389"/>
<circle cx="67.688" cy="70.854" fill="none" r="2.378" stroke="#FFFFFF" stroke-width="0.0833"/>
<circle cx="67.689" cy="70.854" fill="none" r="0.952" stroke="#FFFFFF" stroke-width="0.3556"/>
<circle cx="74.857" cy="43.911" fill="none" r="5.179" stroke="#FFFFFF" stroke-width="0.1813"/>
<circle cx="74.857" cy="43.909" fill="none" r="3.965" stroke="#FFFFFF" stroke-width="0.1389"/>
<circle cx="74.859" cy="43.909" fill="none" r="2.379" stroke="#FFFFFF" stroke-width="0.0833"/>
<circle cx="74.857" cy="43.909" fill="none" r="0.951" stroke="#FFFFFF" stroke-width="0.3556"/>
<circle cx="69.602" cy="62.445" fill="none" r="5.179" stroke="#FFFFFF" stroke-width="0.1813"/>
<circle cx="69.6" cy="62.443" fill="none" r="3.965" stroke="#FFFFFF" stroke-width="0.1389"/>
<circle cx="69.6" cy="62.443" fill="none" r="2.378" stroke="#FFFFFF" stroke-width="0.0833"/>
<circle cx="69.6" cy="62.443" fill="none" r="0.951" stroke="#FFFFFF" stroke-width="0.3556"/>
<circle cx="35.774" cy="54.348" fill="none" r="5.179" stroke="#FFFFFF" stroke-width="0.1813"/>
<path d="M39.739,54.347c0,2.19-1.774,3.964-3.969,3.964  c-2.188,0-3.964-1.773-3.964-3.964c0-2.191,1.776-3.966,3.964-3.966C37.965,50.381,39.739,52.155,39.739,54.347z" fill="none" stroke="#FFFFFF" stroke-width="0.1389"/>
<circle cx="35.774" cy="54.347" fill="none" r="2.379" stroke="#FFFFFF" stroke-width="0.0833"/>
<circle cx="35.774" cy="54.347" fill="none" r="0.952" stroke="#FFFFFF" stroke-width="0.3556"/>
<radialGradient cx="406.8779" cy="446.7236" gradientTransform="matrix(1.8047 -0.373 -0.0867 -0.4197 -647.287 428.0448)" gradientUnits="userSpaceOnUse" id="XMLID_43_" r="8.4104">
<stop offset="0" style="stop-color:#4C4C4C"/>
<stop offset="1" style="stop-color:#A2A2A2"/>
</radialGradient>
<path d="M63.398,85.663c0.402,1.948-6.065,4.933-14.445,6.665  c-8.381,1.732-15.499,1.557-15.902-0.395c-0.402-1.949,6.064-4.93,14.443-6.662C55.876,83.539,62.995,83.713,63.398,85.663z" fill="url(#XMLID_43_)" fill-opacity="0.99"/>
<polygon fill="#191E1C" points="42.536,91.387 44.373,90.469 44.318,88.334 42.468,88.848 "/>
<linearGradient gradientTransform="matrix(1 0 0 1 346.6377 -516.1982)" gradientUnits="userSpaceOnUse" id="XMLID_44_" x1="-300.3101" x2="-307.3937" y1="608.3682" y2="605.128">
<stop offset="0" style="stop-color:#999999"/>
<stop offset="0.2458" style="stop-color:#FFFFFF"/>
<stop offset="0.2682" style="stop-color:#FFFFFF"/>
<stop offset="1" style="stop-color:#333333"/>
</linearGradient>
<path d="M39.43,88.459l0.188,2.521c0.377,0.274,2.048,0.527,2.939,0.393l-0.052-2.846  C41.726,88.727,40.241,88.732,39.43,88.459z" fill="url(#XMLID_44_)"/>
<linearGradient gradientTransform="matrix(1 0 0 1 346.6377 -516.1982)" gradientUnits="userSpaceOnUse" id="XMLID_45_" x1="-307.6357" x2="-309.5502" y1="585.5195" y2="591.6378">
<stop offset="0" style="stop-color:#999999"/>
<stop offset="0.2458" style="stop-color:#FFFFFF"/>
<stop offset="0.2682" style="stop-color:#FFFFFF"/>
<stop offset="1" style="stop-color:#333333"/>
</linearGradient>
<path d="M38.796,74.102c0.052-0.765-0.438-1.377-1.122-1.381c-0.707-0.011-1.356,0.641-1.447,1.446  c-0.091,0.808,0.407,1.462,1.116,1.472c0.119,0,0.235-0.021,0.352-0.055C37.21,75.557,38.807,73.463,38.796,74.102z" fill="url(#XMLID_45_)"/>
<circle cx="37.893" cy="74.298" fill="#737373" r="0.998"/>
<linearGradient gradientTransform="matrix(1 0 0 1 346.6377 -516.1982)" gradientUnits="userSpaceOnUse" id="XMLID_46_" x1="-308.689" x2="-300.5834" y1="582.7129" y2="587.2582">
<stop offset="0" style="stop-color:#999999"/>
<stop offset="0.2458" style="stop-color:#FFFFFF"/>
<stop offset="0.2682" style="stop-color:#FFFFFF"/>
<stop offset="1" style="stop-color:#333333"/>
</linearGradient>
<path d="M46.116,77.896l3.396-5.312c1.944-3.028,1.159-5.804-0.942-7.151  c-1.914-1.223-4.775-0.836-6.744,2.237l-3.795,5.933C40.101,73.635,44.805,75.863,46.116,77.896z" fill="url(#XMLID_46_)"/>
<linearGradient gradientTransform="matrix(1 0 0 1 346.6377 -516.1982)" gradientUnits="userSpaceOnUse" id="XMLID_47_" x1="-314.832" x2="-303.6192" y1="592.3613" y2="599.786">
<stop offset="0" style="stop-color:#FFFFFF"/>
<stop offset="0.0056" style="stop-color:#FFFFFF"/>
<stop offset="0.24" style="stop-color:#FFFFFF"/>
<stop offset="1" style="stop-color:#4D4D4D"/>
</linearGradient>
<path d="M46.179,78.305l-3.622,5.823c-2.043,3.194-5.039,3.668-7.258,2.251  c-2.012-1.285-2.908-4.189-0.837-7.434l3.207-5.164C40.535,73.917,44.392,76.175,46.179,78.305z" fill="url(#XMLID_47_)"/>
<linearGradient gradientTransform="matrix(1 0 0 1 346.6377 -516.1982)" gradientUnits="userSpaceOnUse" id="XMLID_48_" x1="-310.813" x2="-293.8561" y1="589.9434" y2="595.4449">
<stop offset="0" style="stop-color:#999999"/>
<stop offset="0.2458" style="stop-color:#FFFFFF"/>
<stop offset="0.2682" style="stop-color:#FFFFFF"/>
<stop offset="1" style="stop-color:#333333"/>
</linearGradient>
<path d="M37.672,73.775c2.762,0.39,6.542,2.004,8.417,4.818l0.419-0.732  c-1.368-1.971-4.808-4.34-8.312-4.547L37.672,73.775z" fill="url(#XMLID_48_)"/>
<path d="M41.154,82.667c-1.94,3.03-4.632,3.784-6.804,2.87c0.272,0.313,0.58,0.584,0.926,0.807  c2.252,1.438,5.293,0.955,7.374-2.295l3.436-5.52c-0.589-0.645-0.973-1.155-1.383-1.473L41.154,82.667z" fill="#323232"/>
<path d="M48.563,65.482L48.563,65.482c1.235,1.305,1.462,3.513-0.097,5.935l-3.478,5.323  c0.019,0.015,0.043,0.031,0.059,0.051c0.463,0.256,0.922,0.461,1.355,0.609l2.551-3.902l0.555-0.866  C51.446,69.604,50.669,66.825,48.563,65.482z" fill="#191E1C"/>
<path d="M45.185,76.936l1.388-0.705c0,0,0,4.847,0,7.539s-0.812,4.754-4.495,5.543  c2.49-1.031,3.068-3.269,3.009-5.776L45.185,76.936z" fill="#323232"/>
<linearGradient gradientTransform="matrix(1.1364 0 0 -1.1364 825.1721 186.6682)" gradientUnits="userSpaceOnUse" id="XMLID_49_" x1="-689.1807" x2="-691.8293" y1="86.2539" y2="87.6273">
<stop offset="0" style="stop-color:#999999"/>
<stop offset="0.2458" style="stop-color:#FFFFFF"/>
<stop offset="0.2682" style="stop-color:#FFFFFF"/>
<stop offset="1" style="stop-color:#333333"/>
</linearGradient>
<path d="M37.342,87.125c1.766,2.303,4.355,1.952,6.336,1.012c-2.509,0.375-3.688-0.508-4.324-1.228  C39.049,86.977,38.196,87.109,37.342,87.125z" fill="url(#XMLID_49_)"/>
<linearGradient gradientTransform="matrix(1 0 0 1 346.6377 -516.1982)" gradientUnits="userSpaceOnUse" id="XMLID_50_" x1="-307.8721" x2="-297.8495" y1="606.2676" y2="591.6479">
<stop offset="0" style="stop-color:#999999"/>
<stop offset="0.2458" style="stop-color:#FFFFFF"/>
<stop offset="0.2682" style="stop-color:#FFFFFF"/>
<stop offset="1" style="stop-color:#333333"/>
</linearGradient>
<path d="M37.522,87.109c0.72,0.82,2.127,1.603,3.471,1.643c3.428,0.115,3.753-2.748,3.753-5.09  c0-2.344,0-6.837,0-6.837l0.438,0.106c0,0-0.019,3.409-0.019,6.693s-0.705,6.074-4.637,5.684c-1.579-0.15-2.979-1.287-3.701-2.295  C37.166,87.135,37.522,87.109,37.522,87.109z" fill="url(#XMLID_50_)"/>
<linearGradient gradientTransform="matrix(1.1031 0.0083 0.1333 -1.1697 763.2256 201.6518)" gradientUnits="userSpaceOnUse" id="XMLID_51_" x1="-662.6626" x2="-662.4974" y1="102.9775" y2="100.6467">
<stop offset="0" style="stop-color:#999999"/>
<stop offset="0.2458" style="stop-color:#FFFFFF"/>
<stop offset="0.2682" style="stop-color:#FFFFFF"/>
<stop offset="1" style="stop-color:#333333"/>
</linearGradient>
<path d="M47.409,77.079c0.059-0.938-0.515-1.685-1.313-1.69c-0.83-0.009-1.592,0.786-1.697,1.775  c-0.108,0.984,0.478,1.792,1.306,1.795c0.141,0,0.28-0.023,0.413-0.063C46.118,78.896,47.422,76.298,47.409,77.079z" fill="url(#XMLID_51_)"/>
<linearGradient gradientTransform="matrix(1 0 0 1 346.6377 -516.1982)" gradientUnits="userSpaceOnUse" id="XMLID_52_" x1="-301.0044" x2="-299.9639" y1="590.2471" y2="594.9077">
<stop offset="0" style="stop-color:#999999"/>
<stop offset="0.2458" style="stop-color:#FFFFFF"/>
<stop offset="0.2682" style="stop-color:#FFFFFF"/>
<stop offset="1" style="stop-color:#333333"/>
</linearGradient>
<path d="M46.349,75.607c0.618,0,1.119,0.738,1.119,1.652c0,0.907-0.501,1.646-1.119,1.646  c-0.618,0-1.117-0.739-1.117-1.646C45.229,76.348,45.73,75.607,46.349,75.607z" fill="url(#XMLID_52_)"/>
<rect fill="none" height="120" width="120"/>
</svg>
