<?xml version="1.0" encoding="UTF-8" standalone="no"?>
<!DOCTYPE svg PUBLIC "-//W3C//DTD SVG 1.1 Tiny//EN" "http://www.w3.org/Graphics/SVG/1.1/DTD/svg11-tiny.dtd">
<svg xmlns="http://www.w3.org/2000/svg" xmlns:xlink="http://www.w3.org/1999/xlink" width="42" height="29" viewBox="0 0 42 29">
<rect fill="none" height="29" width="42"/>
<linearGradient id="SVGID_1" gradientUnits="userSpaceOnUse" x1="25.81" y1="19.74" x2="28.29" y2="24.02">
<stop stop-color="#A2C2DD" offset="0.1"/>
<stop stop-color="#6C83BB" offset="0.71"/>
<stop stop-color="#003D6D" offset="0.99"/>
</linearGradient>
<path d="M35.701,5.734c-0.954,1.131-2.484,2.221-4.574,3.17c-0.187-0.455-2.443-5.991-2.443-5.991 l-7.236,3.216L19.25,5.465c0,0-1.663,2.311-1.736,2.412c-0.104,0.049-0.916,0.426-0.916,0.426l-2.523,2.918l-1.205-1.139 l-7.011,6.963l9.214,8.711l3.443-3.42l8.075,3.752l6.36-11.002l0.155-1.328c0,0-0.16-0.393-0.224-0.547 c0.133-0.203,1.967-3.027,1.967-3.027s-0.879-0.264-0.884-0.266c0.848-1.248,2.058-3.459,2.166-3.945 C36.203,5.676,35.843,5.553,35.701,5.734z" fill="url(#SVGID_1)"/>
<linearGradient id="SVGID_2" gradientUnits="userSpaceOnUse" x1="24.87" y1="13.32" x2="22.97" y2="7.45">
<stop stop-color="#496DA2" offset="0"/>
<stop stop-color="#CADCEC" offset="1"/>
</linearGradient>
<polygon fill="url(#SVGID_2)" points="28.551,3.25 16.828,8.457 15.972,9.994 32.261,14.68 32.852,13.797 "/>
<linearGradient id="SVGID_3" gradientUnits="userSpaceOnUse" x1="25.22" y1="10.29" x2="30.67" y2="2.06">
<stop stop-color="#FFFFFF" offset="0.15"/>
<stop stop-color="#A2C2DD" offset="1"/>
</linearGradient>
<polygon fill="url(#SVGID_3)" points="19.351,5.758 12.608,15.129 27.199,21.506 34.458,10.33 "/>
<linearGradient id="SVGID_4" gradientUnits="userSpaceOnUse" x1="28.14" y1="27.22" x2="24.83" y2="11.47">
<stop stop-color="#FFFFFF" offset="0"/>
<stop stop-color="#A2C2DD" offset="0.53"/>
<stop stop-color="#6C83BB" offset="0.87"/>
<stop stop-color="#003D6D" offset="1"/>
</linearGradient>
<polygon fill="url(#SVGID_4)" points="16.724,8.51 20.053,14.197 22.564,14.943 32.843,13.795 18.892,19.006 "/>
<linearGradient id="SVGID_5" gradientUnits="userSpaceOnUse" x1="28.36" y1="26.91" x2="22.86" y2="18.19">
<stop stop-color="#FFFFFF" offset="0.15"/>
<stop stop-color="#A2C2DD" offset="1"/>
</linearGradient>
<polygon fill="url(#SVGID_5)" points="9.362,17.059 16.754,8.51 19.864,14.699 22.632,15.631 32.874,13.795 26.443,24.557     "/>
<polygon fill="url(#SVGID_4)" points="9.362,17.059 19.453,13.898 19.864,14.699 "/>
<polygon fill="url(#SVGID_4)" points="26.44,24.576 23.927,15.408 22.632,15.631 "/>
<linearGradient id="SVGID_8" gradientUnits="userSpaceOnUse" x1="28.72" y1="19.04" x2="31.2" y2="20.97">
<stop stop-color="#DEE9F3" offset="0"/>
<stop stop-color="#235487" offset="1"/>
</linearGradient>
<polygon fill="url(#SVGID_8)" points="32.852,13.797 26.429,24.541 26.49,25.766 32.709,15.006 "/>
<linearGradient id="SVGID_9" gradientUnits="userSpaceOnUse" x1="18.28" y1="20.61" x2="17.56" y2="22.26">
<stop stop-color="#FFFFFF" offset="0"/>
<stop stop-color="#496DA2" offset="0.71"/>
<stop stop-color="#235487" offset="0.99"/>
</linearGradient>
<polygon fill="url(#SVGID_9)" points="26.429,24.541 9.371,17.057 9.687,17.963 26.502,25.75 "/>
<linearGradient id="SVGID_10" gradientUnits="userSpaceOnUse" x1="19.05" y1="17.66" x2="-5.28" y2="18.91">
<stop stop-color="#DEDEED" offset="0"/>
<stop stop-color="#9646AC" offset="1"/>
</linearGradient>
<polygon fill="url(#SVGID_10)" points="12.875,10.434 6.221,17.043 15.069,25.41 21.726,18.799 "/>
<linearGradient id="SVGID_11" gradientUnits="userSpaceOnUse" x1="19.99" y1="19.85" x2="6.54" y2="15.46">
<stop stop-color="#E6EEF4" offset="0"/>
<stop stop-color="#9646AC" offset="0.44"/>
<stop stop-color="#3D013F" offset="0.94"/>
</linearGradient>
<path d="M13.105,19.828L13.105,19.828c-1.291-0.371-1.983-2.26-0.781-3.479 c1.361-1.379,3.902-0.381,3.646,1.793l-1.768,1.791c0.979,1.465,4.231-1.402,1.751-4.213 c-1.098-1.244-3.074-1.152-4.276,0.066c-1.771,1.793-0.326,4.84,1.547,4.986c-0.147,0.15-0.677,0.688-0.677,0.688 c-1.872-0.418-3.945-3.98-1.44-6.311c3.772-3.51,8.705,1.674,5.748,5.07C15.452,21.83,13.574,21.201,13.105,19.828z M13.782,19.143c0.325-0.332,1.353-1.373,1.353-1.373c-0.044-1.021-1.374-1.656-2.2-0.818 C12.107,17.789,12.759,19.111,13.782,19.143z" fill="url(#SVGID_11)"/>
<linearGradient id="SVGID_12" gradientUnits="userSpaceOnUse" x1="35.67" y1="9.75" x2="19.07" y2="18.88">
<stop stop-color="#E6EEF4" offset="0"/>
<stop stop-color="#C03A3A" offset="0.44"/>
<stop stop-color="#302D02" offset="0.94"/>
</linearGradient>
<path d="M22.564,14.943l9.211-1.029c0,0,0.619-0.566,0.924-0.877l1.759-2.707 L32.87,9.85L22.564,14.943z" fill="url(#SVGID_12)" fill-opacity="0.4"/>
<path d="M23.927,15.408l-1.014,0.176l-0.028-0.1c0,0-6.602,2.307-6.66,2.607 c0.782,0.133,3.405-0.785,4.131-1.066c0.91,0.482,2.28,0.754,3.178,0.719c0.325-0.01,0.662-0.045,1.007-0.098 c2.041-0.318,5.068-1.783,7.159-3.648L23.927,15.408z" fill="url(#SVGID_12)" fill-opacity="0.4"/>
<linearGradient id="SVGID_14" gradientUnits="userSpaceOnUse" x1="28.84" y1="3.01" x2="26.85" y2="19.13">
<stop stop-color="#E6EEF4" offset="0"/>
<stop stop-color="#C03A3A" offset="0.44"/>
<stop stop-color="#302D02" offset="0.94"/>
</linearGradient>
<path d="M23.129,12.775l0.013-0.455l-1.533,1.588l0.027-0.441l-1.861,2.979 c3.402,2.299,11.695-0.717,16.101-10.447C34.091,9.012,23.129,12.775,23.129,12.775z" fill="url(#SVGID_14)"/>
<linearGradient id="SVGID_15" gradientUnits="userSpaceOnUse" x1="21.74" y1="18.88" x2="27.95" y2="11.06">
<stop stop-color="#E3DFE4" offset="0"/>
<stop stop-color="#C03A3A" offset="1"/>
</linearGradient>
<path d="M35.895,5.898c-3.277,3.893-10.553,4.947-12.155,6.107c-1.311,1.26-2.154,2.729-2.154,2.729 c0.223-0.801,1.108-1.863,1.561-2.436c-0.298,0.195-0.571,0.398-0.827,0.613c-0.786,0.947-1.361,2.09-1.361,2.09 c0.166-0.539,0.46-1.133,0.686-1.549c-1.161,1.121-1.814,2.521-1.802,2.533C22.137,18.02,30.695,15.932,35.895,5.898z" fill="url(#SVGID_15)"/>
<linearGradient id="SVGID_16" gradientUnits="userSpaceOnUse" x1="34.88" y1="5.19" x2="17.88" y2="18.61">
<stop stop-color="#E6EEF4" offset="0"/>
<stop stop-color="#C03A3A" offset="0.44"/>
<stop stop-color="#302D02" offset="0.94"/>
</linearGradient>
<path d="M18.292,17.254l-2.471,0.635c0,0,13.943-6.113,18.301-9.939 C28.794,13.1,22.033,15.605,18.292,17.254z" fill="url(#SVGID_16)"/>
<linearGradient id="SVGID_17" gradientUnits="userSpaceOnUse" x1="25.27" y1="13.38" x2="25.45" y2="13.75">
<stop stop-color="#E3DFE4" offset="0"/>
<stop stop-color="#C03A3A" offset="1"/>
</linearGradient>
<path d="M17.857,17.129c-0.68,0.258-1.343,0.477-1.964,0.592c4.776-2.533,13.044-5.49,18.229-9.771 C29.352,12.293,22.075,15.248,17.857,17.129z" fill="url(#SVGID_17)"/>
<path d="M17.396,16.924c0.463-0.215,0.896,0.33,0.896,0.33s-2.46,0.945-2.604,0.58 C15.688,17.834,16.44,17.365,17.396,16.924z" fill="#334EA2"/>
</svg>