<?xml version="1.0" encoding="UTF-8"?>
<!DOCTYPE svg PUBLIC "-//W3C//DTD SVG 1.1 Tiny//EN" "http://www.w3.org/Graphics/SVG/1.1/DTD/svg11-tiny.dtd">
<svg baseProfile="tiny" height="69.047" version="1.1" viewBox="0 0 100 69.047" width="100" xmlns="http://www.w3.org/2000/svg" xmlns:xlink="http://www.w3.org/1999/xlink">
<g>
<g>
<rect fill="none" fill-opacity="0.4" height="69.047" stroke-opacity="0.4" width="100"/>
</g>
<g>
<g>
<linearGradient gradientTransform="matrix(1 0 0 -1 0 68.0938)" gradientUnits="userSpaceOnUse" id="XMLID_10_" x1="69.125" x2="71.1244" y1="36.8838" y2="30.1242">
<stop offset="0" style="stop-color:#AABBD7"/>
<stop offset="0.2634" style="stop-color:#92A5CC"/>
<stop offset="0.7135" style="stop-color:#6C83BB"/>
<stop offset="0.7571" style="stop-color:#637DB5"/>
<stop offset="0.8268" style="stop-color:#4C6EA4"/>
<stop offset="0.9134" style="stop-color:#265689"/>
<stop offset="0.9888" style="stop-color:#003D6D"/>
<stop offset="1" style="stop-color:#003D6D"/>
</linearGradient>
<path d="M64.448,12.209c-3.945,0.939-7.363,3.731-9.145,7.473c-1.495,2.914-1.807,6.395-0.874,9.787     c1.548,5.573,6.306,9.735,11.579,10.121c1.807,0.333,3.667,0.286,5.471-0.145c3.425-0.811,6.287-2.927,8.062-5.954     c1.209-2.064,1.825-4.386,1.825-6.771c0-1.312-0.184-2.645-0.561-3.963C78.611,15.041,71.58,10.505,64.448,12.209z" fill="url(#XMLID_10_)"/>
<linearGradient gradientTransform="matrix(1 0 0 -1 0 68.0938)" gradientUnits="userSpaceOnUse" id="XMLID_11_" x1="69.125" x2="71.1246" y1="36.8809" y2="30.1203">
<stop offset="0" style="stop-color:#AABBD7"/>
<stop offset="0.2634" style="stop-color:#92A5CC"/>
<stop offset="0.7135" style="stop-color:#6C83BB"/>
<stop offset="0.7571" style="stop-color:#637DB5"/>
<stop offset="0.8268" style="stop-color:#4C6EA4"/>
<stop offset="0.9134" style="stop-color:#265689"/>
<stop offset="0.9888" style="stop-color:#003D6D"/>
<stop offset="1" style="stop-color:#003D6D"/>
</linearGradient>
<path d="M64.448,12.209c-7.031,1.674-12.197,9.358-10.019,17.262c1.548,5.571,6.306,9.735,11.579,10.119     c9.394,1.728,17.664-6.794,14.797-16.832C78.611,15.041,71.58,10.505,64.448,12.209z" fill="url(#XMLID_11_)"/>
<g>
<g>
<linearGradient gradientTransform="matrix(1 0 0 -1 0 68.0938)" gradientUnits="userSpaceOnUse" id="XMLID_12_" x1="67.585" x2="67.749" y1="56.4053" y2="29.1445">
<stop offset="0" style="stop-color:#FFFFFF"/>
<stop offset="0.0804" style="stop-color:#E4EDF5"/>
<stop offset="0.2367" style="stop-color:#B4CEE4"/>
<stop offset="0.3146" style="stop-color:#A2C2DD"/>
<stop offset="0.4547" style="stop-color:#8EABD1"/>
<stop offset="0.6573" style="stop-color:#6C83BB"/>
<stop offset="0.7116" style="stop-color:#637DB5"/>
<stop offset="0.7984" style="stop-color:#4C6EA4"/>
<stop offset="0.9062" style="stop-color:#265689"/>
<stop offset="1" style="stop-color:#003D6D"/>
</linearGradient>
<path d="M80.285,22.907c2.046,7.183-1.944,14.355-8.934,16.013c-6.979,1.668-14.295-2.809-16.341-9.977       c-2.046-7.181,2.581-14.547,9.563-16.207C71.559,11.067,78.243,15.736,80.285,22.907z" fill="url(#XMLID_12_)"/>
<linearGradient gradientTransform="matrix(1 0 0 -1 0 68.0938)" gradientUnits="userSpaceOnUse" id="XMLID_13_" x1="56.0498" x2="67.3564" y1="61.4746" y2="38.4001">
<stop offset="0" style="stop-color:#FFFFFF"/>
<stop offset="0.1745" style="stop-color:#F8FBFD"/>
<stop offset="0.4209" style="stop-color:#E6EFF6"/>
<stop offset="0.7103" style="stop-color:#C8DBEB"/>
<stop offset="1" style="stop-color:#A2C2DD"/>
</linearGradient>
<path d="M76.783,24c1.862,6.691-1.525,13.327-7.552,14.797c-6.031,1.47-12.426-2.783-14.279-9.47       c-1.853-6.723,1.53-13.36,7.555-14.821C68.538,13.022,74.926,17.273,76.783,24z" fill="url(#XMLID_13_)"/>
<radialGradient cx="62.9346" cy="47.2959" gradientTransform="matrix(1 0 0 -1 0 68.0938)" gradientUnits="userSpaceOnUse" id="XMLID_14_" r="18.0203">
<stop offset="0" style="stop-color:#FFFFFF"/>
<stop offset="0.4775" style="stop-color:#A2C2DD"/>
<stop offset="0.5873" style="stop-color:#97B5D6"/>
<stop offset="0.7889" style="stop-color:#7A94C4"/>
<stop offset="0.8764" style="stop-color:#6C83BB"/>
<stop offset="1" style="stop-color:#003D6D"/>
</radialGradient>
<path d="M75.142,24.397c1.586,5.688-1.293,11.328-6.417,12.579c-5.122,1.248-10.559-2.367-12.133-8.05       c-1.574-5.715,1.3-11.356,6.42-12.603C68.136,15.069,73.567,18.68,75.142,24.397z" fill="url(#XMLID_14_)"/>
</g>
<g>
<linearGradient gradientTransform="matrix(0.8872 0.2085 0.2138 -0.9101 62.3392 200.572)" gradientUnits="userSpaceOnUse" id="XMLID_15_" x1="-85.981" x2="-68.8042" y1="169.8135" y2="145.1681">
<stop offset="0" style="stop-color:#FFFFFF"/>
<stop offset="0.1124" style="stop-color:#FFFFFF"/>
<stop offset="0.2115" style="stop-color:#D8DBF1"/>
<stop offset="0.302" style="stop-color:#BCC1E7"/>
<stop offset="0.3539" style="stop-color:#B1B7E3"/>
<stop offset="0.5506" style="stop-color:#5F62C9"/>
<stop offset="0.736" style="stop-color:#B1B7E3"/>
<stop offset="1" style="stop-color:#FFFFFF"/>
</linearGradient>
<path d="M27.79,27.597l-8.282,1.145c-3.102,17.24,7.529,26.908,14.367,30.146l6.146-5.49       C31.115,47.981,26.458,38.423,27.79,27.597z" fill="url(#XMLID_15_)"/>
<linearGradient gradientTransform="matrix(0.8872 0.2085 0.2138 -0.9101 62.3392 200.572)" gradientUnits="userSpaceOnUse" id="XMLID_16_" x1="-73.3628" x2="-59.3652" y1="174.9766" y2="154.8925">
<stop offset="0" style="stop-color:#FFFFFF"/>
<stop offset="0.1124" style="stop-color:#FFFFFF"/>
<stop offset="0.2028" style="stop-color:#E8DEEF"/>
<stop offset="0.2987" style="stop-color:#D4C2E1"/>
<stop offset="0.3539" style="stop-color:#CCB7DC"/>
<stop offset="0.5506" style="stop-color:#9F58B4"/>
<stop offset="0.736" style="stop-color:#CCB7DC"/>
<stop offset="1" style="stop-color:#FFFFFF"/>
</linearGradient>
<path d="M40.064,26.011l-8.456,1.693c-1.855,11.021,4.854,19.847,10.9,22.675l6.54-5.016       C43.938,42.72,38.851,34.442,40.064,26.011z" fill="url(#XMLID_16_)"/>
<linearGradient gradientTransform="matrix(0.8872 0.2085 0.2138 -0.9101 62.3392 200.572)" gradientUnits="userSpaceOnUse" id="XMLID_17_" x1="-61.6299" x2="-50.4078" y1="180.0342" y2="163.9326">
<stop offset="0" style="stop-color:#FFFFFF"/>
<stop offset="0.1124" style="stop-color:#FFFFFF"/>
<stop offset="0.1884" style="stop-color:#F0E6F0"/>
<stop offset="0.2935" style="stop-color:#DFCADF"/>
<stop offset="0.3539" style="stop-color:#D9BFD9"/>
<stop offset="0.5506" style="stop-color:#BF60A2"/>
<stop offset="0.736" style="stop-color:#D9BFD9"/>
<stop offset="1" style="stop-color:#FFFFFF"/>
</linearGradient>
<path d="M50.739,23.889l-7.257,2.071c-1.083,5.778,1.753,13.081,8.075,16.679       c0,0,5.982-3.99,5.994-4.034C51.925,35.077,49.993,27.667,50.739,23.889z" fill="url(#XMLID_17_)"/>
</g>
</g>
</g>
</g>
<g>
<path d="M15.088,41.385c-3.467,0-8.222,0.825-9.424,7.943l-0.182,1.074c0,0,7.992,0,8.94,0    c0.286,0.514,0.714,1.283,0.983,1.773c-0.27,0.493-0.697,1.261-0.983,1.776c-0.948,0-8.94,0-8.94,0l0.182,1.072    c1.202,7.117,5.957,7.94,9.424,7.94c2.734,0,5.174-2.295,7.131-4.142c1.059-0.997,2.059-1.935,2.586-1.935h24.477l0.272-0.305    c0.523-0.574,1.744-2.155,1.771-4.371v-0.076c-0.025-2.219-1.248-3.797-1.771-4.376l-0.272-0.3H24.805    c-0.527,0-1.527-0.938-2.583-1.933C20.262,43.685,17.824,41.385,15.088,41.385z" fill="#FFFFFF"/>
<linearGradient gradientTransform="matrix(1.1905 0 0 -1.1905 48.9564 165.2897)" gradientUnits="userSpaceOnUse" id="XMLID_18_" x1="-29.8545" x2="-7.6887" y1="108.9385" y2="82.2727">
<stop offset="0" style="stop-color:#E6EEF4"/>
<stop offset="0.4438" style="stop-color:#9646AC"/>
<stop offset="0.9382" style="stop-color:#3D013F"/>
<stop offset="1" style="stop-color:#3D013F"/>
</linearGradient>
<path d="M50.407,52.176c0-0.009,0.002-0.021,0.002-0.025h-0.005c-0.022-1.93-1.125-3.322-1.534-3.767    c-0.517,0-24.065,0-24.065,0c-0.899,0-1.867-0.919-3.218-2.186c-1.84-1.732-4.127-3.891-6.499-3.891    c-3.851,0-7.494,1.131-8.515,7.174c1.446,0,8.392,0,8.392,0l1.492,2.694l-1.492,2.695c0,0-6.945,0-8.392,0    c1.021,6.043,4.664,7.173,8.515,7.173c2.372,0,4.662-2.158,6.499-3.89c1.351-1.268,2.318-2.186,3.218-2.186c0,0,23.549,0,24.065,0    c0.407-0.444,1.512-1.837,1.534-3.768h0.005C50.409,52.194,50.407,52.186,50.407,52.176z" fill="url(#XMLID_18_)"/>
</g>
</g>
</svg>
