<?xml version="1.0" encoding="UTF-8"?>
<!DOCTYPE svg PUBLIC "-//W3C//DTD SVG 1.1 Tiny//EN" "http://www.w3.org/Graphics/SVG/1.1/DTD/svg11-tiny.dtd">
<svg baseProfile="tiny" height="44" version="1.1" viewBox="-11.328 -11.148 44 44" width="44" xmlns="http://www.w3.org/2000/svg" xmlns:xlink="http://www.w3.org/1999/xlink">
<g>
<rect fill="none" height="44" width="44" x="-11.328" y="-11.148"/>
<g>
<linearGradient gradientUnits="userSpaceOnUse" id="XMLID_5_" x1="18.8115" x2="18.8115" y1="-1.126" y2="22.3741">
<stop offset="0" style="stop-color:#B2B2B2"/>
<stop offset="1" style="stop-color:#000000"/>
</linearGradient>
<path d="M12.104-3.998c7.096,0.676,12.74,6.32,13.416,13.416H12.104V-3.998z" fill="url(#XMLID_5_)"/>
<linearGradient gradientUnits="userSpaceOnUse" id="XMLID_6_" x1="2.5332" x2="2.5332" y1="-1.126" y2="22.3741">
<stop offset="0" style="stop-color:#B2B2B2"/>
<stop offset="1" style="stop-color:#000000"/>
</linearGradient>
<path d="M-4.176,9.418C-3.5,2.322,2.145-3.322,9.242-3.998V9.418H-4.176z" fill="url(#XMLID_6_)"/>
<linearGradient gradientUnits="userSpaceOnUse" id="XMLID_7_" x1="18.8115" x2="18.8115" y1="-1.1348" y2="22.3653">
<stop offset="0" style="stop-color:#B2B2B2"/>
<stop offset="1" style="stop-color:#000000"/>
</linearGradient>
<path d="M25.52,12.281c-0.676,7.098-6.32,12.74-13.416,13.416V12.281H25.52z" fill="url(#XMLID_7_)"/>
<g>
<linearGradient gradientUnits="userSpaceOnUse" id="XMLID_8_" x1="2.5332" x2="2.5332" y1="-1.1343" y2="22.3658">
<stop offset="0" style="stop-color:#B2B2B2"/>
<stop offset="1" style="stop-color:#000000"/>
</linearGradient>
<path d="M9.242,12.281v13.416C2.145,25.021-3.5,19.379-4.176,12.281H9.242 M6.787,14.734h-7.963     c1.23,3.762,4.203,6.732,7.963,7.963V14.734L6.787,14.734z" fill="url(#XMLID_8_)"/>
</g>
</g>
</g>
</svg>
