<?xml version="1.0" encoding="UTF-8"?>
<!DOCTYPE svg PUBLIC "-//W3C//DTD SVG 1.1 Tiny//EN" "http://www.w3.org/Graphics/SVG/1.1/DTD/svg11-tiny.dtd">
<svg width="84" height="58" viewBox="-0.632 0.299 84 58">
<g fill-opacity="0.8" stroke-opacity="0.8">
<linearGradient id="_13" gradientUnits="userSpaceOnUse" x1="34.55" y1="6.47" x2="14.88" y2="35.29">
<stop stop-color="#A2C2DD" offset="0.1"/>
<stop stop-color="#6C83BB" offset="0.71"/>
<stop stop-color="#003D6D" offset="0.99"/>
</linearGradient>
<path fill="url(#_13)" d="M27.094,9.416c-8.629,3.227-17.035,9.366-17.035,15.963 c0.215,4.914,3.531,10.465,8.252,12.719l-0.48-3.623c0,0-0.723-0.627-0.809-0.884c-0.188-0.76-0.285-1.485-0.285-2.174 c0-5.745,6.098-9.069,11.15-11.157c0.01,0.182,0.051,0.971,0.051,0.971L45.604,9.998L26.788,4.429 C26.788,4.429,27.067,8.968,27.094,9.416z"/>
<linearGradient id="_14" gradientUnits="userSpaceOnUse" x1="15.63" y1="42.25" x2="24.08" y2="17.19">
<stop stop-color="#FFFFFF" offset="0"/>
<stop stop-color="#A2C2DD" offset="0.35"/>
<stop stop-color="#6C83BB" offset="0.7"/>
<stop stop-color="#003D6D" offset="1"/>
</linearGradient>
<path fill="url(#_14)" d="M17.178,35.243c-3.744-9.36,6.648-13.8,12.1-15.925 c-0.684-1.657-0.453-1.881-1.139-3.539C15.969,20.521,11.467,27.451,17.178,35.243"/>
<path fill-opacity="0.8" fill="#496DA2" d="M17.508,34.687c-4.707-2.646-7.328-6.672-7.021-9.78 c-0.262,4.508,3.186,10.516,7.393,12.587L17.508,34.687z"/>
<linearGradient id="_15" gradientUnits="userSpaceOnUse" x1="34.56" y1="-3.32" x2="25.77" y2="22.4">
<stop stop-color="#FFFFFF" offset="0.05"/>
<stop stop-color="#A2C2DD" offset="1"/>
</linearGradient>
<path fill="url(#_15)" d="M17.508,34.687C2.96,26.431,13.01,14.949,27.46,9.644l-0.291-4.737 l17.6,5.209l-16.51,10.499l-0.242-4.602C16.969,20.32,10.856,27.746,17.508,34.687z"/>
<linearGradient id="_16" gradientUnits="userSpaceOnUse" x1="43.68" y1="9.45" x2="56.4" y2="35.83">
<stop stop-color="#FFFFFF" offset="0"/>
<stop stop-color="#A2C2DD" offset="0.35"/>
<stop stop-color="#6C83BB" offset="0.7"/>
<stop stop-color="#003D6D" offset="1"/>
</linearGradient>
<path fill="url(#_16)" d="M33.288,11.435l4.541-2.408c-0.029,0.019,5.494-2.223,10.221-0.994 c4.566,1.189,7.303,3.673,9.93,7.732c2.629,4.055,3.246,11.162,1.51,14.947c-1.738,3.786-3.346,5.118-4.619,6.318L33.288,11.435z"/>
<radialGradient id="_17" gradientUnits="userSpaceOnUse" cx="33.09" cy="14.58" r="22.73">
<stop stop-color="#FFFFFF" offset="0.05"/>
<stop stop-color="#A2C2DD" offset="1"/>
</radialGradient>
<path fill="url(#_17)" d="M56.337,27.089c0.451,9.103-6.098,16.179-14.625,15.812 c-8.535-0.366-15.818-8.057-16.27-17.162c-0.453-9.1,6.096-16.182,14.627-15.814C48.604,10.299,55.885,17.988,56.337,27.089z"/>
<linearGradient id="_18" gradientUnits="userSpaceOnUse" x1="17.22" y1="22.27" x2="49.24" y2="27.84">
<stop stop-color="#FFFFFF" offset="0"/>
<stop stop-color="#A2C2DD" offset="0.35"/>
<stop stop-color="#6C83BB" offset="0.7"/>
<stop stop-color="#003D6D" offset="1"/>
</linearGradient>
<rect x="43.786" y="24.125" fill="url(#_18)" width="2.828" height="6.021"/>
<rect x="48.868" y="24.933" fill="url(#_18)" width="2.826" height="6.024"/>
<path fill="url(#_18)" d="M41.813,25.98c0-3.689-2.994-7.112-6.678-7.646V16.06l-3.992-0.562 v17.628l3.992,0.563v-1.942C38.819,32.249,41.813,29.668,41.813,25.98z M35.135,29.086v-8.089 c2.219,0.323,4.018,2.388,4.018,4.608C39.153,27.828,37.354,29.382,35.135,29.086z"/>
<linearGradient id="_21" gradientUnits="userSpaceOnUse" x1="54.96" y1="36.53" x2="62.35" y2="51.08">
<stop stop-color="#A2C2DD" offset="0.1"/>
<stop stop-color="#6C83BB" offset="0.71"/>
<stop stop-color="#003D6D" offset="0.99"/>
</linearGradient>
<path fill="url(#_21)" d="M60.198,15.549c-0.096,0.239,0.227,0.463,0.227,0.463 c4.404,2.811,7.193,6.906,6.557,10.752c-0.598,4.594-5.178,8.877-11.973,11.271c-0.039-0.771-0.246-4.722-0.246-4.722 L37.542,44.365l0.428,3.71l18.586,5.839l-0.076-3.952c0,0-0.035-0.178-0.068-0.353c2.115-0.857,16.266-7.051,16.266-19.207 c0-6.525-2.871-11.621-11.939-15.012C60.739,15.39,60.327,15.228,60.198,15.549z M72.407,27.47l-0.004-0.033 C72.403,27.441,72.407,27.463,72.407,27.47z"/>
<linearGradient id="_22" gradientUnits="userSpaceOnUse" x1="74.72" y1="29.93" x2="42.02" y2="52.2">
<stop stop-color="#FFFFFF" offset="0"/>
<stop stop-color="#A2C2DD" offset="0.35"/>
<stop stop-color="#6C83BB" offset="0.7"/>
<stop stop-color="#003D6D" offset="1"/>
</linearGradient>
<path fill="url(#_22)" d="M71.29,24.609c0,0-16.184,20.425-16.186,20.425 c0.002,0,0.82,4.389,0.82,4.389C56.399,49.287,77.135,41.199,71.29,24.609z"/>
<linearGradient id="_23" gradientUnits="userSpaceOnUse" x1="41.7" y1="38.99" x2="54.51" y2="62.01">
<stop stop-color="#FFFFFF" offset="0"/>
<stop stop-color="#A2C2DD" offset="0.35"/>
<stop stop-color="#6C83BB" offset="0.7"/>
<stop stop-color="#003D6D" offset="1"/>
</linearGradient>
<polygon fill="url(#_23)" points="56.129,49.968 56.196,53.433 38.292,47.808 37.913,44.542 "/>
<linearGradient id="_24" gradientUnits="userSpaceOnUse" x1="48.78" y1="55.45" x2="56.57" y2="32.9">
<stop stop-color="#FFFFFF" offset="0.05"/>
<stop stop-color="#A2C2DD" offset="1"/>
</linearGradient>
<path fill="url(#_24)" d="M60.616,15.718c20.027,7.487,11.043,25.285-5.373,29.829l0.887,4.421 l-18.217-5.427l16.531-10.608l0.24,4.602C67.337,34.292,72.706,23.673,60.616,15.718z"/>
<path fill-opacity="0.4" fill="#FFFFFF" d="M72.676,30.402c0-6.525-2.871-11.621-11.939-15.012 c0,0-0.412-0.162-0.539,0.158c-0.096,0.239,0.225,0.463,0.225,0.463c4.404,2.811,7.193,6.906,6.559,10.752 c-0.598,4.594-5.178,8.877-11.973,11.271c-0.012-0.195-0.031-0.595-0.059-1.08c1.262-1.183,2.834-2.535,4.537-6.241 c1.736-3.785,1.119-10.893-1.51-14.947c-2.627-4.06-5.363-6.543-9.93-7.732c-2.857-0.743-5.996-0.219-8.035,0.311L26.788,4.429 c0,0,0.279,4.539,0.307,4.986c-8.629,3.227-17.035,9.366-17.035,15.963c0.215,4.914,3.531,10.465,8.252,12.719l-0.48-3.623 c0,0-0.723-0.627-0.809-0.884c-0.188-0.76-0.285-1.485-0.285-2.174c0-4.981,4.584-8.142,9.098-10.255 c-0.326,1.445-0.475,2.977-0.395,4.576c0.422,8.518,6.824,15.795,14.637,16.998l-2.537,1.627l0.428,3.711l18.586,5.839 l-0.076-3.952c0,0-0.033-0.178-0.066-0.352C58.526,48.752,72.676,42.558,72.676,30.402z"/>
</g>
</svg>