<?xml version="1.0" encoding="UTF-8" standalone="no"?>
<!DOCTYPE svg PUBLIC "-//W3C//DTD SVG 1.1 Tiny//EN" "http://www.w3.org/Graphics/SVG/1.1/DTD/svg11-tiny.dtd">
<svg xmlns="http://www.w3.org/2000/svg" xmlns:xlink="http://www.w3.org/1999/xlink" width="24" height="24" viewBox="0 0 24 24">
<rect fill="none" height="24" width="24"/>
<path d="M23.999,16.666c-0.041-2.67-2.766-3.23-2.766-3.23c3.783-1.752,1.852-5.7,1.852-5.7c-0.994-1.654-3.436-1.698-3.436-1.698 h-5.072v15.767l4.428,0.026c1.566,0.005,2.955-0.313,3.686-0.971C23.42,20.2,24.04,19.504,23.999,16.666z M16.856,7.625h1.961 c0.502,0.025,2.336,0.035,2.354,2.216c0.012,1.062-0.025,2.635-2.189,3.002l-2.125-0.055V7.625z M21.659,17.381 c0.064,2.914-2.23,2.876-2.23,2.876l-2.543,0.015v-5.894l2.064,0.027C21.368,14.354,21.641,16.516,21.659,17.381z"/>
<path d="M3.17,14.278l5.234-0.018l0.999,3.512h2.355L7.22,2.169H4.708L0.041,17.772h2.123L3.17,14.278z M5.796,4.559l2.175,8.234 l-4.5-0.019L5.796,4.559z"/>
</svg>