<?xml version="1.0" encoding="UTF-8"?>
<!DOCTYPE svg PUBLIC "-//W3C//DTD SVG 1.1 Tiny//EN" "http://www.w3.org/Graphics/SVG/1.1/DTD/svg11-tiny.dtd">
<svg width="58" height="58" viewBox="0 0 58 58">
<path d="M1.762,29.002c0,15.019,12.219,27.236,27.237,27.236 c15.02,0,27.239-12.218,27.239-27.236c0-15.021-12.22-27.24-27.239-27.24C12.217,1.762,1.762,15.663,1.762,29.002z" fill="#1FFFEA" fill-opacity="0.2" />
<path d="M2.762,29.002c0,14.468,11.771,26.236,26.237,26.236 c14.47,0,26.239-11.769,26.239-26.236s-11.77-26.24-26.239-26.24C14.533,2.762,2.762,14.534,2.762,29.002z" fill="#1FFFEA" fill-opacity="0.3" />
<path d="M3.907,29c0,13.835,11.257,25.092,25.092,25.092 c13.838,0,25.094-11.257,25.094-25.092c0-13.836-11.256-25.092-25.094-25.092C15.164,3.908,3.907,15.164,3.907,29z" fill="#1FFFEA" fill-opacity="0.4" />
<radialGradient id="_4" gradientUnits="userSpaceOnUse" cx="29" cy="29" r="22.9">
<stop stop-color="#B3DDFF" offset="0"/>
<stop stop-color="#D3FFBF" offset="0.01"/>
<stop stop-color="#92F7DB" offset="0.41"/>
<stop stop-color="#56F0F5" offset="0.81"/>
<stop stop-color="#3FEDFF" offset="1"/>
</radialGradient>
<path d="M28.999,6.098c-12.628,0-22.901,10.274-22.901,22.903 c0,12.627,10.273,22.901,22.901,22.901c12.629,0,22.904-10.274,22.904-22.901C51.902,16.372,41.627,6.098,28.999,6.098z" fill="url(#_4)"/>
<linearGradient id="_5" gradientUnits="userSpaceOnUse" x1="29" y1="6.52" x2="29" y2="51.44">
<stop stop-color="#CFECFF" offset="0"/>
<stop stop-color="#8CC2EA" offset="1"/>
</linearGradient>
<path d="M28.999,6.098c-12.628,0-22.901,10.274-22.901,22.903 c0,12.627,10.273,22.901,22.901,22.901c12.629,0,22.903-10.274,22.903-22.901C51.902,16.372,41.628,6.098,28.999,6.098z M28.999,50.656c-11.961,0-21.651-9.692-21.651-21.655c0-11.961,9.69-21.657,21.651-21.657 c11.96,0,21.654,9.696,21.654,21.657C50.653,40.963,40.959,50.656,28.999,50.656z" fill="url(#_5)" fill-opacity="0.5" />
<linearGradient id="_6" gradientUnits="userSpaceOnUse" x1="29" y1="3.2" x2="29" y2="61.97">
<stop stop-color="#FFFFFF" offset="0"/>
<stop stop-color="#B3DDFF" offset="1"/>
</linearGradient>
<path d="M50.656,29c0,11.963-9.695,21.656-21.658,21.656 C17.034,50.657,7.343,40.963,7.343,29c0-11.96,9.691-21.657,21.655-21.657C40.961,7.343,50.656,17.041,50.656,29z" fill="url(#_6)" fill-opacity="0.5" />
<path d="M47.708,29.023c0,20.119-37.417,20.119-37.417,0 C10.292,8.694,47.708,8.694,47.708,29.023z" fill="#FFFFFF" fill-opacity="0.15" />
<polygon fill="#0046B7" fill-opacity="0.6" points="21.296,20.219 20.871,20.695 20.871,39.073 21.296,39.548 26.129,39.548 26.555,39.073 26.555,20.695 26.129,20.219 " />
<polygon fill="#0046B7" fill-opacity="0.6" points="32.822,20.219 32.396,20.695 32.396,39.073 32.822,39.548 37.655,39.548 38.081,39.073 38.081,20.695 37.655,20.219 " />
<path d="M21.296,17.219c-1.889,0-3.425,1.559-3.425,3.476v18.378 c0,1.917,1.537,3.476,3.425,3.476h4.833c1.889,0,3.425-1.559,3.425-3.476V20.695c0-1.917-1.537-3.476-3.425-3.476H21.296z" fill="#1FFFEA" fill-opacity="0.1" />
<path d="M21.296,18.219c-1.337,0-2.425,1.11-2.425,2.476v18.378 c0,1.365,1.088,2.476,2.425,2.476h4.833c1.337,0,2.425-1.11,2.425-2.476V20.695c0-1.365-1.088-2.476-2.425-2.476H21.296z" fill="#1FFFEA" fill-opacity="0.2" />
<path d="M21.296,19.219c-0.786,0-1.425,0.662-1.425,1.476v18.378 c0,0.813,0.639,1.476,1.425,1.476h4.833c0.786,0,1.425-0.662,1.425-1.476V20.695c0-0.813-0.639-1.476-1.425-1.476H21.296z" fill="#1FFFEA" fill-opacity="0.3" />
<path d="M32.822,17.219c-1.889,0-3.425,1.559-3.425,3.476v18.378 c0,1.917,1.537,3.476,3.425,3.476h4.833c1.889,0,3.425-1.559,3.425-3.476V20.695c0-1.917-1.537-3.476-3.425-3.476H32.822z" fill="#1FFFEA" fill-opacity="0.1" />
<path d="M32.822,18.219c-1.337,0-2.425,1.11-2.425,2.476v18.378 c0,1.365,1.088,2.476,2.425,2.476h4.833c1.337,0,2.425-1.11,2.425-2.476V20.695c0-1.365-1.088-2.476-2.425-2.476H32.822z" fill="#1FFFEA" fill-opacity="0.2" />
<path d="M32.822,19.219c-0.786,0-1.425,0.662-1.425,1.476v18.378 c0,0.813,0.639,1.476,1.425,1.476h4.833c0.786,0,1.425-0.662,1.425-1.476V20.695c0-0.813-0.639-1.476-1.425-1.476H32.822z" fill="#1FFFEA" fill-opacity="0.3" />
</svg>