<?xml version="1.0" encoding="UTF-8"?>
<!DOCTYPE svg PUBLIC "-//W3C//DTD SVG 1.1 Tiny//EN" "http://www.w3.org/Graphics/SVG/1.1/DTD/svg11-tiny.dtd">
<svg baseProfile="tiny" height="69" version="1.1" viewBox="0 0 100 69" width="100" xmlns="http://www.w3.org/2000/svg" xmlns:xlink="http://www.w3.org/1999/xlink">
<g>
<g fill-opacity="0.2" stroke-opacity="0.2">
<rect fill="none" height="69" width="100"/>
</g>
<g>
<linearGradient gradientUnits="userSpaceOnUse" id="XMLID_17_" x1="46.6807" x2="51.4729" y1="24.229" y2="52.6789">
<stop offset="0" style="stop-color:#A2C2DD"/>
<stop offset="0.1" style="stop-color:#A2C2DD"/>
<stop offset="0.7135" style="stop-color:#6C83BB"/>
<stop offset="0.9888" style="stop-color:#003D6D"/>
<stop offset="1" style="stop-color:#003D6D"/>
</linearGradient>
<path d="M61.892,10.091l-6.963,1.485l-6.738,5.35l2.846,3.938l-14.631-4.204    c-2.703-0.759-10.821-3.046-10.821-3.046l-7.529,2.148l-0.251,10.463c0,0,1.899,0.541,2.66,0.758    c-1.117,0.278-4.068,1.013-4.068,1.013l21.851,30.15l6.857-5.188l1.856-3.434c0,0-1.395-2.129-2.389-3.652    c4.854,1.314,30.578,8.285,30.578,8.285l4.836-4.225l0.126-9.348c0,0-1.729-0.475-2.573-0.705c0.772-0.595,2.198-1.63,2.397-1.781    L61.892,10.091z" fill="url(#XMLID_17_)"/>
<g>
<g>
<g>
<g>
<g>
<g>
<linearGradient gradientUnits="userSpaceOnUse" id="XMLID_18_" x1="21.6084" x2="46.1209" y1="18.6055" y2="53.0044">
<stop offset="0" style="stop-color:#FFFFFF"/>
<stop offset="0.1142" style="stop-color:#E0EAF3"/>
<stop offset="0.35" style="stop-color:#A2C2DD"/>
<stop offset="0.4825" style="stop-color:#8CA9CF"/>
<stop offset="0.7" style="stop-color:#6C83BB"/>
<stop offset="0.7458" style="stop-color:#637DB5"/>
<stop offset="0.8189" style="stop-color:#4C6EA4"/>
<stop offset="0.9097" style="stop-color:#265689"/>
<stop offset="0.9888" style="stop-color:#003D6D"/>
<stop offset="1" style="stop-color:#003D6D"/>
</linearGradient>
<polygon fill="url(#XMLID_18_)" points="35.467,41.369 44.025,52.099 45.445,49.477 39.416,40.279         "/>
<linearGradient gradientTransform="matrix(1 0 0 1 0 -705)" gradientUnits="userSpaceOnUse" id="XMLID_19_" x1="8.5049" x2="131.917" y1="700.4434" y2="840.8349">
<stop offset="0" style="stop-color:#FFFFFF"/>
<stop offset="0.1142" style="stop-color:#E0EAF3"/>
<stop offset="0.35" style="stop-color:#A2C2DD"/>
<stop offset="0.4825" style="stop-color:#8CA9CF"/>
<stop offset="0.7" style="stop-color:#6C83BB"/>
<stop offset="0.7458" style="stop-color:#637DB5"/>
<stop offset="0.8189" style="stop-color:#4C6EA4"/>
<stop offset="0.9097" style="stop-color:#265689"/>
<stop offset="0.9888" style="stop-color:#003D6D"/>
<stop offset="1" style="stop-color:#003D6D"/>
</linearGradient>
<polygon fill="url(#XMLID_19_)" points="44.025,52.099 36.873,42.518 74.882,52.81 75.101,44.049 17.953,28.488           38.264,56.449         "/>
<linearGradient gradientTransform="matrix(1 0 0 1 0 -705)" gradientUnits="userSpaceOnUse" id="XMLID_20_" x1="44.8047" x2="50.9231" y1="747.3154" y2="735.0789">
<stop offset="0" style="stop-color:#FFFFFF"/>
<stop offset="1" style="stop-color:#A2C2DD"/>
</linearGradient>
<polygon fill="url(#XMLID_20_)" points="79.035,41.33 25.357,26.685 17.969,28.505 75.027,44.378         "/>
<linearGradient gradientUnits="userSpaceOnUse" id="XMLID_21_" x1="21.5527" x2="76.7617" y1="34.5659" y2="34.5659">
<stop offset="0" style="stop-color:#E6EEF4"/>
<stop offset="0.0644" style="stop-color:#DAD9CB"/>
<stop offset="0.2029" style="stop-color:#C3AE79"/>
<stop offset="0.3167" style="stop-color:#B28F3D"/>
<stop offset="0.3999" style="stop-color:#A77B18"/>
<stop offset="0.4438" style="stop-color:#A3740A"/>
<stop offset="0.5594" style="stop-color:#866408"/>
<stop offset="0.7193" style="stop-color:#645107"/>
<stop offset="0.8514" style="stop-color:#4F4505"/>
<stop offset="0.9382" style="stop-color:#474105"/>
<stop offset="1" style="stop-color:#474105"/>
</linearGradient>
<polygon fill="url(#XMLID_21_)" points="76.762,40.777 25.357,26.685 21.553,27.541 74.623,42.447         "/>
<linearGradient gradientUnits="userSpaceOnUse" id="XMLID_22_" x1="64.6523" x2="80.4082" y1="25.6567" y2="53.0504">
<stop offset="0" style="stop-color:#FFFFFF"/>
<stop offset="0.1142" style="stop-color:#E0EAF3"/>
<stop offset="0.35" style="stop-color:#A2C2DD"/>
<stop offset="0.4825" style="stop-color:#8CA9CF"/>
<stop offset="0.7" style="stop-color:#6C83BB"/>
<stop offset="0.7458" style="stop-color:#637DB5"/>
<stop offset="0.8189" style="stop-color:#4C6EA4"/>
<stop offset="0.9097" style="stop-color:#265689"/>
<stop offset="0.9888" style="stop-color:#003D6D"/>
<stop offset="1" style="stop-color:#003D6D"/>
</linearGradient>
<polygon fill="url(#XMLID_22_)" points="75.105,44.362 79.045,41.295 78.902,49.301 74.872,52.809         "/>
<linearGradient gradientUnits="userSpaceOnUse" id="XMLID_23_" x1="30.8105" x2="89.121" y1="26.2759" y2="-5.6138">
<stop offset="0" style="stop-color:#E2E6E4"/>
<stop offset="1" style="stop-color:#A3740A"/>
</linearGradient>
<polygon fill="url(#XMLID_23_)" points="54.938,22.878 25.271,14.553 18.825,16.385 58.29,27.693         "/>
<linearGradient gradientTransform="matrix(1 0 0 1 0 -705)" gradientUnits="userSpaceOnUse" id="XMLID_24_" x1="52.4668" x2="86.6939" y1="691.1914" y2="780.6213">
<stop offset="0" style="stop-color:#E6EEF4"/>
<stop offset="0.0644" style="stop-color:#DAD9CB"/>
<stop offset="0.2029" style="stop-color:#C3AE79"/>
<stop offset="0.3167" style="stop-color:#B28F3D"/>
<stop offset="0.3999" style="stop-color:#A77B18"/>
<stop offset="0.4438" style="stop-color:#A3740A"/>
<stop offset="0.5594" style="stop-color:#866408"/>
<stop offset="0.7193" style="stop-color:#645107"/>
<stop offset="0.8514" style="stop-color:#4F4505"/>
<stop offset="0.9382" style="stop-color:#474105"/>
<stop offset="1" style="stop-color:#474105"/>
</linearGradient>
<polygon fill="url(#XMLID_24_)" points="61.465,10.912 56.118,12.201 74.119,40.948 78.448,37.609         "/>
<linearGradient gradientTransform="matrix(1 0 0 1 0 -705)" gradientUnits="userSpaceOnUse" id="XMLID_25_" x1="13.2642" x2="136.6857" y1="696.2568" y2="836.6591">
<stop offset="0" style="stop-color:#E6EEF4"/>
<stop offset="0.0644" style="stop-color:#DAD9CB"/>
<stop offset="0.2029" style="stop-color:#C3AE79"/>
<stop offset="0.3167" style="stop-color:#B28F3D"/>
<stop offset="0.3999" style="stop-color:#A77B18"/>
<stop offset="0.4438" style="stop-color:#A3740A"/>
<stop offset="0.5594" style="stop-color:#866408"/>
<stop offset="0.7193" style="stop-color:#645107"/>
<stop offset="0.8514" style="stop-color:#4F4505"/>
<stop offset="0.9382" style="stop-color:#474105"/>
<stop offset="1" style="stop-color:#474105"/>
</linearGradient>
<polygon fill="url(#XMLID_25_)" points="49.685,17.096 56.836,26.676 18.825,16.385 18.609,25.143 74.101,40.922           56.118,12.201         "/>
</g>
</g>
</g>
</g>
</g>
</g>
</g>
<g>
<linearGradient gradientTransform="matrix(1 0 0 -1 0 68)" gradientUnits="userSpaceOnUse" id="XMLID_26_" x1="27.3071" x2="36.7918" y1="15.6982" y2="-2.984">
<stop offset="0" style="stop-color:#AABBD7"/>
<stop offset="0.2634" style="stop-color:#92A5CC"/>
<stop offset="0.7135" style="stop-color:#6C83BB"/>
<stop offset="0.7571" style="stop-color:#637DB5"/>
<stop offset="0.8268" style="stop-color:#4C6EA4"/>
<stop offset="0.9134" style="stop-color:#265689"/>
<stop offset="0.9888" style="stop-color:#003D6D"/>
<stop offset="1" style="stop-color:#003D6D"/>
</linearGradient>
<path d="M24.849,42.355c0.37,0.758,0.837,1.44,1.842,2.186l22.303,11.971c0,0,2.869,3.129-0.125,7.379    c0,0-4.234,3.312-5.69,3.612c0,0-23.172-12.354-23.177-12.354c-1.606-0.858-2.276-0.56-5.376,0.063    c-6.073,1.222-10.089-7.541-9.786-11.1l5.034-3.09l3.571,3.104l-0.121-0.564l-5.329-4.914c0,0,5.24-3.065,6.601-3.309    c1.23-0.299,2.523-0.207,3.788,0.191C18.383,35.529,23.486,36.298,24.849,42.355z" fill="url(#XMLID_26_)"/>
<g>
<g>
<g>
<g>
<g>
<linearGradient gradientUnits="userSpaceOnUse" id="XMLID_27_" x1="5.5615" x2="14.8994" y1="45.5049" y2="45.5049">
<stop offset="0" style="stop-color:#E6EEF4"/>
<stop offset="0.0772" style="stop-color:#C6DCC1"/>
<stop offset="0.211" style="stop-color:#91C06F"/>
<stop offset="0.321" style="stop-color:#6BAB33"/>
<stop offset="0.4014" style="stop-color:#539E0E"/>
<stop offset="0.4438" style="stop-color:#4A9900"/>
<stop offset="0.5475" style="stop-color:#398419"/>
<stop offset="0.7125" style="stop-color:#22663B"/>
<stop offset="0.8486" style="stop-color:#135550"/>
<stop offset="0.9382" style="stop-color:#0E4E58"/>
<stop offset="1" style="stop-color:#0E4E58"/>
</linearGradient>
<polygon fill="url(#XMLID_27_)" points="5.562,44.502 11.003,49.083 14.899,46.371 9.779,41.927        "/>
<polygon fill="#17594C" points="10.988,49.086 15.684,50.857 14.309,46.792        "/>
<linearGradient gradientTransform="matrix(1 0 0 -1 0 68)" gradientUnits="userSpaceOnUse" id="XMLID_28_" x1="17.8145" x2="44.9661" y1="27.3135" y2="8.4356">
<stop offset="0" style="stop-color:#DCE8E4"/>
<stop offset="1" style="stop-color:#43910A"/>
</linearGradient>
<path d="M9.22,38.738l32.582,23.783L26.293,45.126c-1.407-1.034-2.054-2.144-2.409-3.096         c-1.648-4.482-6.292-7.624-10.512-5.479L9.22,38.738z" fill="url(#XMLID_28_)"/>
<linearGradient gradientTransform="matrix(1 0 0 -1 0 68)" gradientUnits="userSpaceOnUse" id="XMLID_29_" x1="18.2886" x2="47.0552" y1="27.1445" y2="7.1438">
<stop offset="0" style="stop-color:#E6EEF4"/>
<stop offset="0.5056" style="stop-color:#337CE5"/>
<stop offset="1" style="stop-color:#0D4D8C"/>
</linearGradient>
<path d="M17.49,36.08c-1.565-0.355-3.274-0.09-4.128,0.492l-4.15,2.189l3.895-0.66L17.49,36.08z" fill="url(#XMLID_29_)"/>
<linearGradient gradientTransform="matrix(1 0 0 -1 0 68)" gradientUnits="userSpaceOnUse" id="XMLID_30_" x1="48.8682" x2="46.1744" y1="12.0156" y2="4.7763">
<stop offset="0" style="stop-color:#E6EEF4"/>
<stop offset="0.0772" style="stop-color:#C6DCC1"/>
<stop offset="0.211" style="stop-color:#91C06F"/>
<stop offset="0.321" style="stop-color:#6BAB33"/>
<stop offset="0.4014" style="stop-color:#539E0E"/>
<stop offset="0.4438" style="stop-color:#4A9900"/>
<stop offset="0.5475" style="stop-color:#398419"/>
<stop offset="0.7125" style="stop-color:#22663B"/>
<stop offset="0.8486" style="stop-color:#135550"/>
<stop offset="0.9382" style="stop-color:#0E4E58"/>
<stop offset="1" style="stop-color:#0E4E58"/>
</linearGradient>
<path d="M44.94,59.922l-0.125,5.955l3.443-2.465c1.3-1.75,1.844-3.828,0.207-6.34L44.94,59.922z" fill="url(#XMLID_30_)"/>
<linearGradient gradientUnits="userSpaceOnUse" id="XMLID_31_" x1="22.4287" x2="48.4912" y1="52.5439" y2="52.5439">
<stop offset="0" style="stop-color:#DCE8E4"/>
<stop offset="1" style="stop-color:#43910A"/>
</linearGradient>
<polygon fill="url(#XMLID_31_)" points="22.429,47.912 26.33,45.184 48.491,57.078 44.922,59.904        "/>
<linearGradient gradientTransform="matrix(1 0 0 -1 0 68)" gradientUnits="userSpaceOnUse" id="XMLID_32_" x1="7.7319" x2="25.748" y1="39.7686" y2="13.5019">
<stop offset="0" style="stop-color:#DCE8E4"/>
<stop offset="1" style="stop-color:#43910A"/>
</linearGradient>
<path d="M44.94,59.893c3.241,5.438-1.406,6.736-1.653,6.805         c-1.083-0.578-21.712-11.575-22.946-12.231c-1.229-0.654-2.737-0.983-5.95,0.008c-4.176,1.284-8.861-5.304-8.819-9.983         l5.434,4.602c3.26,0.152,4.197-3.188,2.967-5.963l-4.76-4.388c2.049-1.628,6.765-0.583,8.898,2.489         c1.316,1.889,2.372,5.367,4.334,6.669L44.94,59.893z" fill="url(#XMLID_32_)"/>
<path d="M41.886,64.01c0.925,0.494,1.857,0.15,2.083-0.773c0.219-0.914-0.352-2.064-1.276-2.561         c-0.919-0.487-1.858-0.143-2.079,0.773C40.393,62.377,40.96,63.518,41.886,64.01" fill="#17594C"/>
</g>
</g>
</g>
</g>
</g>
</g>
</g>
</svg>
