<?xml version="1.0" encoding="utf-8"?>
<!DOCTYPE svg PUBLIC "-//W3C//DTD SVG 1.1 Tiny//EN" "http://www.w3.org/Graphics/SVG/1.1/DTD/svg11-tiny.dtd">
<svg width="100%" height="100%" viewBox="0 0 88 88">
<linearGradient id="_4" gradientUnits="userSpaceOnUse" x1="32.3" y1="29.94" x2="55.47" y2="57.79">
<stop stop-color="#DEE9F3" offset="0"/>
<stop stop-color="#235487" offset="1"/>
</linearGradient>
<circle fill="url(#_4)" cx="44" cy="44" r="30.996"/>
<radialGradient id="_5" gradientUnits="userSpaceOnUse" cx="49.9" cy="24.72" r="55.32">
<stop stop-color="#FFFFFF" offset="0"/>
<stop stop-color="#A2C2DD" offset="0.53"/>
<stop stop-color="#6C83BB" offset="0.87"/>
<stop stop-color="#003D6D" offset="1"/>
</radialGradient>
<circle fill="url(#_5)" cx="44" cy="43.998" r="29.9"/>
<radialGradient id="_6" gradientUnits="userSpaceOnUse" cx="50.31" cy="27.77" r="37.63">
<stop stop-color="#E6EEF4" offset="0"/>
<stop stop-color="#C6DCC1" offset="0.08"/>
<stop stop-color="#91C06F" offset="0.21"/>
<stop stop-color="#6BAB33" offset="0.32"/>
<stop stop-color="#539E0E" offset="0.4"/>
<stop stop-color="#4A9900" offset="0.44"/>
<stop stop-color="#398419" offset="0.55"/>
<stop stop-color="#22663B" offset="0.71"/>
<stop stop-color="#135550" offset="0.85"/>
<stop stop-color="#0E4E58" offset="0.94"/>
</radialGradient>
<path fill="url(#_6)" d="M49.797,38.253c-1.126-0.803-0.357,0.163-1.107,1.345l1.043,2.521l0.629,1.204l0.521-0.944c0.075-0.394-1.465-1.074-1.208-1.951C49.932,39.55,50.924,39.056,49.797,38.253z M52.241,53.456c2.144-1.183,0.251-0.789,0.251-0.789c-1.055,0.153-1.357,0.274-1.163,0.813C51.521,54.021,50.398,54.47,52.241,53.456z M52.109,42.86c-0.672,0.229-1.525,0.939-1.525,0.939c0.826,0.142,0.111,1.158,1.156,1.26c1.115,0.109,0.578,0.233,0.73-0.555C52.621,43.717,52.784,42.633,52.109,42.86z M48.868,48.133l2.491,0.057c0,0,1.182-0.531,0.486-0.616S48.868,48.133,48.868,48.133z M63.245,58.928c-0.353-0.938-0.144-1.295-0.75-1.596l-0.325-2.199c0,0-0.169,0.075-0.434-0.074c-0.264-0.151-0.479-1.578-0.479-1.578s-0.43,0.205-0.509,0.793c-0.209,1.563-1.172,2.55-1.172,2.55s-0.592-0.558-1.451-0.771c-0.836-0.209-0.486-0.022-0.104-0.946c0.463-1.117,0.109-0.906-0.988-0.877c-1.176,0.029-1.896-0.115-2.817,1.608c-0.167,0.312-0.944-0.469-1.606-0.294l-2.508,1.53c0,0-0.314,1.479-0.656,1.538c-3.566,0.617-4.603,1.884-4.603,1.884c-0.005,1.183,0.694,2.192,0.862,2.989c0,1.609,0.518,2.013,0.518,2.013s2.775-0.415,3.969-0.978c1.922-0.906,4.715-0.633,4.715-0.633c0.432,0.424,0.268,0.688,0.689,0.979c0.275,0.188,0.768-0.771,1.034-0.633c0.035,0.478,0.481,1.34,0.748,1.438c3.104,0.229,3.91-1.609,3.91-1.609c0.632-1.266,2.481-2.076,2.759-3.349C64.323,59.439,63.764,59.546,63.245,58.928z M35.183,39.277l0.551,2.712l-0.165,1.517c1.109,1.924,2.145,4.512,3.524,4.569c-0.213-0.509-0.33-2.2-0.33-2.2c-0.577-1.518-1.656-1.037-2.287-2.217c-0.631-1.181,0.966-3.199,1.779-1.552c0.322,0.652,0.675,0.912,1.528,1.828c4.427-2.473,2.76-3.795,0.928-5.203c-1.153-1.82,1.327-1.896,1.327-1.896c0.079,0.259,1.813-0.437,3.069-0.91c4.041-1.024,3.013-2.168,3.013-2.168c2.76-1.726,0.633-3.45-0.402-4.658l1.362-0.408l0.227-0.646l-2.113,0.171l-0.739-0.497l2.267-1.077c0,0-0.207,0.456-0.146,0.777c0.073,0.382,1.616-0.275,1.616-0.275l0.115,1.093l0.805-0.173c-0.059,0.863,0.173,1.783,0.173,1.783c0.842-0.415,1.265-0.633,1.265-0.633c0.139-0.991-1.15-1.955-1.15-1.955c0.269-0.134,0.914-1.014,1.381-1.667c3.221,0.747,1.841-4.198,1.841-4.198l1.552,2.703c1.094-0.402-1.092-2.817-1.092-2.817l-2.934-0.288l1.609-1.438c2.537-0.001,2.354,0.462,2.703-0.689c0.941,0.344,1.495-0.173,1.667,0.46c-0.952,0.738-0.574,0.805-0.483,1.359l1.863,1.573c0,0-0.029-0.637,0.115-1.438c0.047-0.257-1.705-1.237-1.506-1.429c0.242-0.231,1.188-0.133,1.379-0.142c-0.045-0.615-3.094-2.264-3.553-2.226l-1.976-0.131c-0.864-0.309-4.178-0.616-4.178-0.616l-1.974,0.292c-0.689-0.589-2.147-0.394-2.147-0.394l-2.043-0.308c-0.03,0.006-0.06,0.011-0.09,0.019l-0.108-0.049l-0.136-0.021l-1.495-0.287c-0.242-0.012-0.589,0.007-0.997,0.048l-0.325,0.066l-0.174-0.01c-1.722,0.216-4.111,0.707-4.828,1.045c0,0,0.229-0.92-0.46-0.287c-0.69,0.632-1.266,0.805-2.243,0.805c-0.51,0-1.644,0.156-2.614,0.306c-0.087,0.045-0.176,0.088-0.263,0.134c-0.18,0.097-0.356,0.198-0.534,0.298c-0.251,0.142-0.504,0.283-0.751,0.432c-0.175,0.104-0.345,0.216-0.518,0.325c-0.245,0.154-0.49,0.307-0.73,0.468c-0.165,0.111-0.325,0.228-0.488,0.342c-0.24,0.168-0.482,0.334-0.717,0.509c-0.15,0.112-0.296,0.231-0.444,0.346c-0.24,0.186-0.482,0.37-0.716,0.563c-0.108,0.089-0.21,0.183-0.317,0.273c-0.56,0.475-1.103,0.968-1.626,1.482c-0.064,0.063-0.132,0.123-0.196,0.187c-0.2,0.2-0.391,0.408-0.585,0.614c-0.145,0.153-0.292,0.302-0.433,0.458c-0.178,0.196-0.348,0.4-0.521,0.601c-0.148,0.173-0.299,0.343-0.444,0.519c-0.163,0.199-0.319,0.404-0.477,0.607c-0.145,0.187-0.292,0.371-0.433,0.561c-0.15,0.203-0.294,0.411-0.439,0.618c-0.139,0.198-0.279,0.395-0.413,0.596c-0.138,0.207-0.27,0.417-0.402,0.627c-0.132,0.209-0.265,0.419-0.392,0.632c-0.125,0.209-0.245,0.421-0.364,0.634c-0.125,0.221-0.249,0.443-0.368,0.667c-0.113,0.212-0.221,0.427-0.329,0.642c-0.116,0.231-0.23,0.464-0.34,0.699c-0.101,0.214-0.198,0.431-0.293,0.647c-0.107,0.243-0.211,0.488-0.312,0.734c-0.087,0.214-0.172,0.43-0.255,0.646c-0.098,0.257-0.191,0.516-0.283,0.776c-0.074,0.212-0.146,0.424-0.216,0.638c-0.088,0.271-0.17,0.545-0.251,0.82c-0.039,0.134-0.077,0.268-0.114,0.402c0.291,0.751-0.358,3.078-0.191,4.081c0.058,0.346,0.92-0.978,2.013-1.782c1.093-0.804,2.952-2.741,2.377-3.373c-0.575-0.633-0.422-1.284-0.422-1.284l-0.689,0.229c0,0-0.403-1.84,0.46-2.645c0,0-0.403,1.495-0.058,1.84c0.345,0.345,0.287-0.058,0.67,0.02l0.115,0.306c-0.132,0.45,0.269,1.074,1.073,0.882c1.758-0.418,1.534,0.23,1.534,0.518c0,0.15,0.284,1.752,0.284,1.752l1.096-0.199l-0.173,0.862c-0.124,0.541,0.748,5.808,0.748,5.808l0.632,0.748c1.668-1.438,1.575-4.226,1.575-4.226l0.84-0.202c0,0,3.083-2.445,3.393-2.588c0.31-0.142,3.009-0.53,3.162,1.783C33.745,40.255,34.666,39.074,35.183,39.277z M22.36,25.593c-0.173,0.229-0.367,0.781-0.92,1.955c-0.46,0.977-1.265,1.034-1.15,0.574c0.115-0.46,0.95-0.945,1.15-1.667c0.287-1.035,0.345-1.035,1.782-2.3C24.431,23.465,22.533,25.362,22.36,25.593z M15.173,40.83c-0.312-0.117-0.571-0.975-0.705-1.514c-0.001,0.009-0.003,0.019-0.005,0.028c-0.107,0.684-0.185,1.376-0.245,2.075c-0.013,0.15-0.023,0.302-0.034,0.453c-0.05,0.7-0.083,1.405-0.083,2.118c0,0.004,0,0.007,0,0.011c0,0.711,0.033,1.415,0.083,2.114c0.01,0.15,0.021,0.301,0.034,0.451c0.06,0.697,0.137,1.393,0.243,2.076c0,0.004,0.001,0.006,0.002,0.01c0.093-0.699,0.358-2.568,0.769-4.257c0.518-2.127,1.207-2.012,1.035-3.564C16.093,39.277,15.633,41.002,15.173,40.83z M58.105,66.294c-0.563,1.118,0.816,0.39,1.229,0.063C59.641,66.115,58.105,66.294,58.105,66.294z M42.204,15.289l1.222,0.549l0.198,0.03c2.241-0.503,3.876,0.116,3.876,0.116l0.115,0.318l2.173-0.025l4.313-0.058c0,0,2.146,0.653,2.026,0.454c-0.104-0.046-0.207-0.096-0.312-0.141c-0.176-0.076-0.354-0.147-0.532-0.22c-0.282-0.115-0.565-0.229-0.853-0.336c-0.172-0.064-0.346-0.123-0.519-0.184c-0.3-0.105-0.599-0.209-0.901-0.305c-0.16-0.051-0.322-0.096-0.482-0.144c-0.322-0.096-0.646-0.19-0.973-0.276c-0.137-0.036-0.273-0.066-0.41-0.099c-0.356-0.087-0.713-0.173-1.072-0.248c-0.098-0.021-0.197-0.036-0.297-0.055c-0.401-0.079-0.807-0.155-1.215-0.217c-0.026-0.004-0.056-0.007-0.082-0.011c-1.463-0.219-2.959-0.335-4.48-0.335c-0.144,0-0.286,0.009-0.429,0.011c-0.479,0.007-0.956,0.023-1.43,0.053c-0.256,0.016-0.511,0.036-0.766,0.058c-0.441,0.039-0.879,0.087-1.314,0.145c-0.192,0.025-0.387,0.044-0.578,0.073c-0.588,0.089-1.169,0.199-1.746,0.322c-0.211,0.045-0.421,0.096-0.631,0.146c-0.434,0.103-0.864,0.214-1.29,0.335c-0.121,0.034-0.243,0.067-0.363,0.103l4.847,0.286c0.174-0.021,0.341-0.041,0.499-0.057L42.204,15.289z M53.576,47.475c-0.051,0.271-0.131,1.366-0.131,1.366c0.455-0.288,0.902-0.519,0.955-0.789c0.051-0.271-0.473-0.362-0.021-0.805S53.627,47.203,53.576,47.475z M42.873,38.104c0.404-0.525,0.303-1.3,0.303-1.3s-0.88,0.237-1.011,0.326s0.042,0.252-0.14,0.536C41.696,38.181,42.594,38.467,42.873,38.104z M26.507,43.421c-0.154-0.069-0.216-1.218-0.526-0.712c-0.271,0.438-0.496,1.01-0.063,1.698c0.435,0.688,0.466,0.666,0.745-0.16C26.941,43.421,26.662,43.489,26.507,43.421z M40.641,51.955l0.005-2.098l-0.442-0.27c0,0-0.181,0.623-0.622-0.074c-0.769-1.213-4.06-3.238-5.105-4.152c-0.565-0.493-0.213,0.669-0.213,0.669c1.066,1.288,2.37,2.538,3.158,3.88c0.701,1.193,2.86,1.951,2.86,1.951l0.04,0.531c1.657,0.949,4.79,0.652,4.79,0.652C46.165,51.984,40.641,51.955,40.641,51.955z M47.342,53.422c0.7-0.05,1.456-0.52,0.928-0.54c-0.531-0.022-2.324-0.086-3.158,0.164C44.596,53.202,46.641,53.473,47.342,53.422z M63.833,51.247c1.069-0.322-0.622-0.879-0.622-0.879l-0.094-0.53c0,0-1.377,0.016-1.344-0.271c0.033-0.286-2.828-1.164-2.959-0.801s-1.071,1.396-1.487,0.348s-0.916-1.327-1.817-0.497l0.805,0.638c0,0,0.18,0.775,0.604,0.969c0.424,0.192,1.691,0.271,2.239,0.172c0,0-0.304,1.291,0.089,1.771c0,0,0.908-0.438,1.122,0.05c0.212,0.488,1.394,0.423,1.84-0.401c0.231-0.429,0.953-0.407,1.312,0.358c0.359,0.767,0.156,0.403,1.334,0.272C64.854,52.445,63.29,51.41,63.833,51.247z M65.488,49.686c-0.274,0.305-1.234,0.801-1.234,0.801s1.035,0.025,1.348-0.455c0.312-0.482,0.373-1.156,0.373-1.156S65.766,49.383,65.488,49.686z M56.516,24.787c0,0,0.239,0.576-0.354,0.986c-0.595,0.409,1.048,0.068,1.597-0.221C58.307,25.263,57.438,24.805,56.516,24.787z M48.313,53.473l0.824,0.416l0.043-0.598c0,0,1.496,0.014,1.814-0.426l-2.28,0.104L48.313,53.473z M51.504,51.018c-1.001-0.762-1.792-1.768-0.539-1.971c1.563-0.254-1.979-0.57-2.242-0.327c-0.742,0.683-0.14,2.372-0.14,2.372s0.299,0.164,0.687,0.357c0.207,0.104-0.078-1.612,0.18-1.52C49.87,50.773,50.948,51.678,51.504,51.018z M46.973,44.934c-1.425,1.36-5.12,3.026-5.12,3.026l0.978,1.955c0,0,4.497,1.312,4.201,0.172c-0.282-1.082,1.751-2.399,0.796-3.006c-0.34-0.215-0.348-0.694-0.088-0.858C48.811,45.545,47.501,44.427,46.973,44.934z M55.4,50.061c-0.588-0.396-1.652-0.444-1.818-0.168C53.245,50.451,56.004,50.468,55.4,50.061z M48.589,36.069c0.869,0.077,0.718-0.664,0.765-1.414C49.354,34.655,48.23,35.164,48.589,36.069z M55.813,29.203c0.474,0.127,1.42-0.042,1.623-0.679c0.203-0.636,0.121-0.935,0.248-1.258c0.127-0.322-0.896-1.342-0.938-0.696c-0.059,0.92,0.322,1.499-0.346,1.667C55.836,28.38,55.355,29,55.355,29l-1.09,0.125l-1.188,1.202l0.553,0.75l0.448-0.257l-0.079-0.626l1.13-0.253l-0.004-0.601C55.125,29.341,55.508,29.121,55.813,29.203z"/>
</svg>