<?xml version="1.0" encoding="UTF-8"?>
<!DOCTYPE svg PUBLIC "-//W3C//DTD SVG 1.1 Tiny//EN" "http://www.w3.org/Graphics/SVG/1.1/DTD/svg11-tiny.dtd">
<svg width="60" height="52" viewBox="-0.671 0.429 60 52">
<linearGradient id="_4" gradientUnits="userSpaceOnUse" x1="29.33" y1="7.63" x2="29.33" y2="46.03">
<stop stop-color="#7D9CAD" offset="0"/>
<stop stop-color="#576F96" offset="0.73"/>
<stop stop-color="#4F6691" offset="1"/>
</linearGradient>
<path d="M51.069,6.429H7.588c-1.245,0-2.259,1.014-2.259,2.259v35.481c0,1.246,1.014,2.26,2.259,2.26 h43.481c1.246,0,2.26-1.014,2.26-2.26V8.688C53.329,7.442,52.315,6.429,51.069,6.429z M52.329,44.169 c0,0.694-0.565,1.26-1.26,1.26H7.588c-0.694,0-1.259-0.565-1.259-1.26V8.688c0-0.694,0.564-1.259,1.259-1.259h43.481 c0.694,0,1.26,0.564,1.26,1.259V44.169z" fill="url(#_4)"/>
<g fill-opacity="0.7" stroke-opacity="0.7">
<linearGradient id="_5" gradientUnits="userSpaceOnUse" x1="29.33" y1="50.97" x2="29.33" y2="5.85">
<stop stop-color="#ADB5A8" offset="0.03"/>
<stop stop-color="#C7D9D9" offset="0.26"/>
<stop stop-color="#FFFFFF" offset="0.72"/>
</linearGradient>
<path d="M51.069,7.429H7.588c-0.694,0-1.259,0.564-1.259,1.259v35.481c0,0.694,0.564,1.26,1.259,1.26 h43.481c0.694,0,1.26-0.565,1.26-1.26V8.688C52.329,7.993,51.764,7.429,51.069,7.429z" fill="url(#_5)"/>
</g>
<path d="M51.947,7.806c-0.243-0.252-0.529-0.377-0.878-0.377H7.588c-0.694,0-1.259,0.564-1.259,1.259v35.481 c0,0.346,0.143,0.652,0.372,0.873c0.003,0.013,0.628-0.628,0.628-0.628V8.429h43.999L51.947,7.806z" fill="#FFFFFF"/>
<linearGradient id="_6" gradientUnits="userSpaceOnUse" x1="29.52" y1="12.56" x2="29.52" y2="52.03">
<stop stop-color="#CADCEC" offset="0"/>
<stop stop-color="#809CB3" offset="1"/>
</linearGradient>
<path d="M6.711,45.051c0.243,0.252,0.529,0.377,0.878,0.377H51.07c0.694,0,1.259-0.564,1.259-1.259V8.688 c0-0.346-0.143-0.652-0.372-0.873c-0.003-0.013-0.628,0.628-0.628,0.628s0,35.206,0,35.985c-0.738,0-43.999,0-43.999,0 L6.711,45.051z" fill="url(#_6)"/>
<polygon fill="#496DA2" points="39.329,24.543 31.215,24.543 31.215,16.428 27.443,16.428 27.443,24.543 19.329,24.543 19.329,28.314 27.443,28.314 27.443,36.43 31.215,36.43 31.215,28.314 39.329,28.314 "/>
</svg>