<?xml version="1.0" encoding="UTF-8"?>
<!DOCTYPE svg PUBLIC "-//W3C//DTD SVG 1.1 Tiny//EN" "http://www.w3.org/Graphics/SVG/1.1/DTD/svg11-tiny.dtd">
<svg baseProfile="tiny" version="1.1" xmlns="http://www.w3.org/2000/svg" xmlns:xlink="http://www.w3.org/1999/xlink" width="84" height="72" viewBox="0 0 84 72">
<g>
<rect fill="none" width="84" height="72"/>
<g>
<g>
<linearGradient id="XMLID_37_" gradientUnits="userSpaceOnUse" x1="41.0215" y1="41.8164" x2="53.896" y2="67.1757">
<stop offset="0" style="stop-color:#A2C2DD"/>
<stop offset="0.1" style="stop-color:#A2C2DD"/>
<stop offset="0.7135" style="stop-color:#6C83BB"/>
<stop offset="0.9888" style="stop-color:#003D6D"/>
<stop offset="1" style="stop-color:#003D6D"/>
</linearGradient>
<path fill="url(#XMLID_37_)" d="M57.33,5.815C39.715,3.53,23.91,23.565,34.045,36.367c0.009,0.021-5.068,5.069-5.068,5.069 l-1.766-0.008l-17.07,15.152c-2.982,7.974,3.121,12.411,10.637,9.604l15.717-17.027l-0.004-1.759c0,0,3.294-3.473,3.863-4.073 c0.812,0.429,1.685,0.783,2.613,1.057c0.232,4.246,0.701,8.871,1.446,14.121c2.974,2.75,9.599,6.063,14.525,5.921l4.352-3.496 l0.214-1l1.352-1.144c1.219-5.906,2.594-15.813,2.617-23.229C76.887,24.472,69.137,7.347,57.33,5.815z M40.074,39.784 c-15.625-21.438,15.5-35.125,25.25-25.813l3.858,10.088L40.074,39.784z"/>
</g>
<g>
<g>
<g>
<g>
<g>
<linearGradient id="XMLID_38_" gradientUnits="userSpaceOnUse" x1="63.7031" y1="16.1484" x2="64.9531" y2="54.732">
<stop offset="0" style="stop-color:#FFFFFF"/>
<stop offset="0.35" style="stop-color:#A2C2DD"/>
<stop offset="0.7" style="stop-color:#6C83BB"/>
<stop offset="1" style="stop-color:#003D6D"/>
</linearGradient>
<path fill="url(#XMLID_38_)" d="M64.445,33.936L62.54,59.854l1.743-1.474c1.132-4.993,2.604-16.067,2.565-24.73 C66.849,33.622,64.445,33.936,64.445,33.936z"/>
<linearGradient id="XMLID_39_" gradientUnits="userSpaceOnUse" x1="62.5957" y1="20.877" x2="61.6797" y2="68.2944">
<stop offset="0" style="stop-color:#FFFFFF"/>
<stop offset="0.35" style="stop-color:#A2C2DD"/>
<stop offset="0.7" style="stop-color:#6C83BB"/>
<stop offset="1" style="stop-color:#003D6D"/>
</linearGradient>
<path fill="url(#XMLID_39_)" d="M65.33,33.813c0.105,9.252-1.402,21.366-2.614,26.704l-3.973,3.192l0.999-28.016 L65.33,33.813z"/>
<linearGradient id="XMLID_40_" gradientUnits="userSpaceOnUse" x1="42.1426" y1="22.1689" x2="56.2678" y2="55.5444">
<stop offset="0" style="stop-color:#FFFFFF"/>
<stop offset="0.05" style="stop-color:#FFFFFF"/>
<stop offset="1" style="stop-color:#A2C2DD"/>
</linearGradient>
<path fill="url(#XMLID_40_)" d="M60.098,35.694c0.254,8.857-0.273,20.969-1.354,28.016 c-4.313,0.105-10.403-2.789-13.615-5.584c-0.576-4.007-1.226-10.319-1.591-16.666L60.098,35.694z"/>
<linearGradient id="XMLID_41_" gradientUnits="userSpaceOnUse" x1="59.5801" y1="54.123" x2="44.3293" y2="30.2467">
<stop offset="0" style="stop-color:#FFFFFF"/>
<stop offset="0.05" style="stop-color:#FFFFFF"/>
<stop offset="1" style="stop-color:#A2C2DD"/>
</linearGradient>
<polygon fill="url(#XMLID_41_)" points="57.981,36.635 57.669,51.851 45.753,47.461 45.554,40.685 "/>
<linearGradient id="XMLID_42_" gradientUnits="userSpaceOnUse" x1="48.7266" y1="60.9883" x2="42.7266" y2="17.6136">
<stop offset="0" style="stop-color:#FFFFFF"/>
<stop offset="0.35" style="stop-color:#A2C2DD"/>
<stop offset="0.7" style="stop-color:#6C83BB"/>
<stop offset="1" style="stop-color:#003D6D"/>
</linearGradient>
<polygon fill="url(#XMLID_42_)" points="45.753,47.461 47.086,46.655 46.958,40.234 45.561,40.903 "/>
<linearGradient id="XMLID_43_" gradientUnits="userSpaceOnUse" x1="66.4248" y1="62.1885" x2="31.0498" y2="30.1884">
<stop offset="0" style="stop-color:#FFFFFF"/>
<stop offset="0.15" style="stop-color:#FFFFFF"/>
<stop offset="1" style="stop-color:#A2C2DD"/>
</linearGradient>
<polygon fill="url(#XMLID_43_)" points="45.753,47.461 47.086,46.655 57.714,50.336 57.669,51.851 "/>
</g>
</g>
<g>
<linearGradient id="XMLID_44_" gradientUnits="userSpaceOnUse" x1="-213.9385" y1="-327.2373" x2="-204.7661" y2="-342.4944" gradientTransform="matrix(1 0 0 -1 262.2793 -282.7852)">
<stop offset="0" style="stop-color:#E6EEF4"/>
<stop offset="0.4438" style="stop-color:#337CE5"/>
<stop offset="0.9382" style="stop-color:#003D6D"/>
<stop offset="1" style="stop-color:#003D6D"/>
</linearGradient>
<polygon fill="url(#XMLID_44_)" points="53.815,56.665 56.879,57.955 56.999,55.748 53.877,54.457 "/>
<linearGradient id="XMLID_45_" gradientUnits="userSpaceOnUse" x1="-212.626" y1="-326.4502" x2="-203.4535" y2="-341.7075" gradientTransform="matrix(1 0 0 -1 262.2793 -282.7852)">
<stop offset="0" style="stop-color:#E6EEF4"/>
<stop offset="0.4438" style="stop-color:#337CE5"/>
<stop offset="0.9382" style="stop-color:#003D6D"/>
<stop offset="1" style="stop-color:#003D6D"/>
</linearGradient>
<polygon fill="url(#XMLID_45_)" points="57.03,55.175 57.151,52.973 53.957,51.78 53.896,53.888 "/>
<linearGradient id="XMLID_46_" gradientUnits="userSpaceOnUse" x1="-215.1992" y1="-328.0049" x2="-206.0318" y2="-343.2538" gradientTransform="matrix(1 0 0 -1 262.2793 -282.7852)">
<stop offset="0" style="stop-color:#E6EEF4"/>
<stop offset="0.4438" style="stop-color:#337CE5"/>
<stop offset="0.9382" style="stop-color:#003D6D"/>
<stop offset="1" style="stop-color:#003D6D"/>
</linearGradient>
<polygon fill="url(#XMLID_46_)" points="53.796,57.236 53.737,59.231 56.74,60.567 56.85,58.533 "/>
<linearGradient id="XMLID_47_" gradientUnits="userSpaceOnUse" x1="-217.8721" y1="-329.6123" x2="-208.7066" y2="-344.8579" gradientTransform="matrix(1 0 0 -1 262.2793 -282.7852)">
<stop offset="0" style="stop-color:#E6EEF4"/>
<stop offset="0.4438" style="stop-color:#337CE5"/>
<stop offset="0.9382" style="stop-color:#003D6D"/>
<stop offset="1" style="stop-color:#003D6D"/>
</linearGradient>
<polygon fill="url(#XMLID_47_)" points="49.578,52.721 46.885,51.654 47.022,53.881 49.661,54.945 "/>
<linearGradient id="XMLID_48_" gradientUnits="userSpaceOnUse" x1="-214.7432" y1="-327.7314" x2="-205.577" y2="-342.9786" gradientTransform="matrix(1 0 0 -1 262.2793 -282.7852)">
<stop offset="0" style="stop-color:#E6EEF4"/>
<stop offset="0.4438" style="stop-color:#337CE5"/>
<stop offset="0.9382" style="stop-color:#003D6D"/>
<stop offset="1" style="stop-color:#003D6D"/>
</linearGradient>
<polygon fill="url(#XMLID_48_)" points="53.296,53.682 53.319,51.584 50.225,50.452 50.262,52.463 "/>
<linearGradient id="XMLID_49_" gradientUnits="userSpaceOnUse" x1="-216.7891" y1="-328.9531" x2="-207.6115" y2="-344.2188" gradientTransform="matrix(1 0 0 -1 262.2793 -282.7852)">
<stop offset="0" style="stop-color:#E6EEF4"/>
<stop offset="0.4438" style="stop-color:#337CE5"/>
<stop offset="0.9382" style="stop-color:#003D6D"/>
<stop offset="1" style="stop-color:#003D6D"/>
</linearGradient>
<polygon fill="url(#XMLID_49_)" points="49.48,50.144 46.72,49.151 46.845,51.081 49.557,52.148 "/>
<linearGradient id="XMLID_50_" gradientUnits="userSpaceOnUse" x1="-217.1162" y1="-329.1494" x2="-207.9438" y2="-344.4066" gradientTransform="matrix(1 0 0 -1 262.2793 -282.7852)">
<stop offset="0" style="stop-color:#E6EEF4"/>
<stop offset="0.4438" style="stop-color:#337CE5"/>
<stop offset="0.9382" style="stop-color:#003D6D"/>
<stop offset="1" style="stop-color:#003D6D"/>
</linearGradient>
<polygon fill="url(#XMLID_50_)" points="50.362,57.795 53.237,59.049 53.258,57.047 50.328,55.824 "/>
<linearGradient id="XMLID_51_" gradientUnits="userSpaceOnUse" x1="-218.9541" y1="-330.2529" x2="-209.779" y2="-345.5149" gradientTransform="matrix(1 0 0 -1 262.2793 -282.7852)">
<stop offset="0" style="stop-color:#E6EEF4"/>
<stop offset="0.4438" style="stop-color:#337CE5"/>
<stop offset="0.9382" style="stop-color:#003D6D"/>
<stop offset="1" style="stop-color:#003D6D"/>
</linearGradient>
<polygon fill="url(#XMLID_51_)" points="49.679,55.524 47.063,54.457 47.184,56.398 49.752,57.497 "/>
<linearGradient id="XMLID_52_" gradientUnits="userSpaceOnUse" x1="-215.9443" y1="-328.4463" x2="-206.7734" y2="-343.701" gradientTransform="matrix(1 0 0 -1 262.2793 -282.7852)">
<stop offset="0" style="stop-color:#E6EEF4"/>
<stop offset="0.4438" style="stop-color:#337CE5"/>
<stop offset="0.9382" style="stop-color:#003D6D"/>
<stop offset="1" style="stop-color:#003D6D"/>
</linearGradient>
<polygon fill="url(#XMLID_52_)" points="50.272,53.038 50.313,55.252 53.268,56.473 53.29,54.257 "/>
<linearGradient id="XMLID_53_" gradientUnits="userSpaceOnUse" x1="-218.249" y1="-329.8369" x2="-209.08" y2="-345.0886" gradientTransform="matrix(1 0 0 -1 262.2793 -282.7852)">
<stop offset="0" style="stop-color:#E6EEF4"/>
<stop offset="0.4438" style="stop-color:#337CE5"/>
<stop offset="0.9382" style="stop-color:#003D6D"/>
<stop offset="1" style="stop-color:#003D6D"/>
</linearGradient>
<polygon fill="url(#XMLID_53_)" points="50.374,58.378 50.411,60.396 53.208,61.703 53.231,59.629 "/>
</g>
</g>
<g>
<g>
<g>
<linearGradient id="XMLID_54_" gradientUnits="userSpaceOnUse" x1="58.7715" y1="26.666" x2="63.7233" y2="19.6117">
<stop offset="0" style="stop-color:#A2C2DD"/>
<stop offset="0.1" style="stop-color:#A2C2DD"/>
<stop offset="0.7135" style="stop-color:#6C83BB"/>
<stop offset="0.9888" style="stop-color:#003D6D"/>
<stop offset="1" style="stop-color:#003D6D"/>
</linearGradient>
<path fill="url(#XMLID_54_)" d="M53.664,21.401c3.817-0.138,10.245,0.404,14.394,4.571l-2.454,1.135L53.664,21.401z"/>
<linearGradient id="XMLID_55_" gradientUnits="userSpaceOnUse" x1="66.2988" y1="11.5967" x2="67.7142" y2="55.2854">
<stop offset="0" style="stop-color:#FFFFFF"/>
<stop offset="0.35" style="stop-color:#A2C2DD"/>
<stop offset="0.7" style="stop-color:#6C83BB"/>
<stop offset="1" style="stop-color:#003D6D"/>
</linearGradient>
<path fill="url(#XMLID_55_)" d="M65.586,32.531l0.425-5.643l2.036-0.967c0.168,1.689,0.249,3.572,0.259,5.569L65.586,32.531z "/>
<linearGradient id="XMLID_56_" gradientUnits="userSpaceOnUse" x1="41.6582" y1="18.1943" x2="60.625" y2="27.9608">
<stop offset="0" style="stop-color:#FFFFFF"/>
<stop offset="0.15" style="stop-color:#FFFFFF"/>
<stop offset="1" style="stop-color:#A2C2DD"/>
</linearGradient>
<path fill="url(#XMLID_56_)" d="M41.753,23.662c3.529-1.544,16.084-5.345,24.554,2.527l-5.886,2.802L41.753,23.662z"/>
<linearGradient id="XMLID_57_" gradientUnits="userSpaceOnUse" x1="63.7354" y1="17.0117" x2="62.6982" y2="70.6994">
<stop offset="0" style="stop-color:#FFFFFF"/>
<stop offset="0.35" style="stop-color:#A2C2DD"/>
<stop offset="0.7" style="stop-color:#6C83BB"/>
<stop offset="1" style="stop-color:#003D6D"/>
</linearGradient>
<path fill="url(#XMLID_57_)" d="M60.249,34.773l0.172-5.782l5.886-2.802c0.179,1.788,0.266,3.792,0.278,5.921L60.249,34.773z "/>
<linearGradient id="XMLID_58_" gradientUnits="userSpaceOnUse" x1="43.6475" y1="17.0215" x2="59.6406" y2="54.8106">
<stop offset="0" style="stop-color:#FFFFFF"/>
<stop offset="0.05" style="stop-color:#FFFFFF"/>
<stop offset="1" style="stop-color:#A2C2DD"/>
</linearGradient>
<path fill="url(#XMLID_58_)" d="M60.657,34.091c-0.049-1.838-0.127-3.557-0.236-5.1c-6.064-5.549-14.625-6.649-18.668-5.329 c-0.348,4.613-0.22,10.76,0.135,16.866L60.657,34.091z"/>
<linearGradient id="XMLID_59_" gradientUnits="userSpaceOnUse" x1="62.7295" y1="52.8916" x2="45.464" y2="25.8611">
<stop offset="0" style="stop-color:#FFFFFF"/>
<stop offset="0.05" style="stop-color:#FFFFFF"/>
<stop offset="1" style="stop-color:#A2C2DD"/>
</linearGradient>
<polygon fill="url(#XMLID_59_)" points="58.248,35.144 58.348,30.265 43.771,26.077 44.406,39.97 "/>
<linearGradient id="XMLID_60_" gradientUnits="userSpaceOnUse" x1="48.8604" y1="62.2559" x2="42.0679" y2="13.1521">
<stop offset="0" style="stop-color:#FFFFFF"/>
<stop offset="0.35" style="stop-color:#A2C2DD"/>
<stop offset="0.7" style="stop-color:#6C83BB"/>
<stop offset="1" style="stop-color:#003D6D"/>
</linearGradient>
<polygon fill="url(#XMLID_60_)" points="44.175,39.846 43.771,26.077 45.51,26.573 45.765,39.352 "/>
</g>
</g>
<linearGradient id="XMLID_61_" gradientUnits="userSpaceOnUse" x1="-205.21" y1="-306.3486" x2="-197.1938" y2="-309.8426" gradientTransform="matrix(1 0 0 -1 262.2793 -282.7852)">
<stop offset="0" style="stop-color:#FFFFFF"/>
<stop offset="0.35" style="stop-color:#A2C2DD"/>
<stop offset="0.7" style="stop-color:#6C83BB"/>
<stop offset="1" style="stop-color:#003D6D"/>
</linearGradient>
<path fill="url(#XMLID_61_)" d="M63.118,24.942c0.297,1.854-4.739,2.139-4.698,0.101 C58.447,23.643,62.899,23.561,63.118,24.942z"/>
<linearGradient id="XMLID_62_" gradientUnits="userSpaceOnUse" x1="-203.5625" y1="-303.4873" x2="-197.4985" y2="-303.8988" gradientTransform="matrix(1 0 0 -1 262.2793 -282.7852)">
<stop offset="0" style="stop-color:#E6EEF4"/>
<stop offset="0.4438" style="stop-color:#337CE5"/>
<stop offset="0.9382" style="stop-color:#003D6D"/>
<stop offset="1" style="stop-color:#003D6D"/>
</linearGradient>
<path fill="url(#XMLID_62_)" d="M58.962,15.768c0,0,0.305,9.416,0.303,9.441c0.729,0.803,2.457,0.741,2.971,0.017l1.306-9.004 L58.962,15.768z"/>
<linearGradient id="XMLID_63_" gradientUnits="userSpaceOnUse" x1="-202.7197" y1="-299.293" x2="-199.034" y2="-298.1038" gradientTransform="matrix(1 0 0 -1 262.2793 -282.7852)">
<stop offset="0" style="stop-color:#D6E4F3"/>
<stop offset="1" style="stop-color:#337CE5"/>
</linearGradient>
<path fill="url(#XMLID_63_)" d="M63.542,16.222c-0.434,1.222-5.018,0.679-4.539-0.541 C59.486,14.476,63.956,14.991,63.542,16.222z"/>
</g>
</g>
<g>
<linearGradient id="XMLID_64_" gradientUnits="userSpaceOnUse" x1="26.9082" y1="37.5322" x2="38.7937" y2="49.9663">
<stop offset="0" style="stop-color:#E6EEF4"/>
<stop offset="0.4438" style="stop-color:#A3740A"/>
<stop offset="0.9382" style="stop-color:#474105"/>
<stop offset="1" style="stop-color:#474105"/>
</linearGradient>
<polygon fill="url(#XMLID_64_)" points="24.506,46.962 35.924,35.516 41.529,40.885 30.444,53.015 "/>
<linearGradient id="XMLID_65_" gradientUnits="userSpaceOnUse" x1="16.4365" y1="40.0186" x2="23.9338" y2="59.5847">
<stop offset="0" style="stop-color:#D6E6EC"/>
<stop offset="1" style="stop-color:#298595"/>
</linearGradient>
<path fill="url(#XMLID_65_)" d="M32.748,48.568L20.541,65.442c-4.739,0.711-10.617-3.378-9.749-8.472l16.742-14.86 L32.748,48.568z"/>
<linearGradient id="XMLID_66_" gradientUnits="userSpaceOnUse" x1="20.6338" y1="31.874" x2="28.0362" y2="72.7803">
<stop offset="0" style="stop-color:#E6EEF4"/>
<stop offset="0.4438" style="stop-color:#2F8E9A"/>
<stop offset="0.9382" style="stop-color:#003D6D"/>
<stop offset="1" style="stop-color:#003D6D"/>
</linearGradient>
<polygon fill="url(#XMLID_66_)" points="31.003,47.813 14.491,65.026 20.528,65.532 35.851,48.863 "/>
<linearGradient id="XMLID_67_" gradientUnits="userSpaceOnUse" x1="-16.4995" y1="67.8896" x2="-18.4498" y2="59.6023" gradientTransform="matrix(1.1364 0 0 -1.1364 36.4657 129.4337)">
<stop offset="0" style="stop-color:#E6EEF4"/>
<stop offset="0.4438" style="stop-color:#2F8E9A"/>
<stop offset="0.9382" style="stop-color:#003D6D"/>
<stop offset="1" style="stop-color:#003D6D"/>
</linearGradient>
<path fill="url(#XMLID_67_)" d="M10.792,56.971c-2.24,5.823,1.362,11.354,9.736,8.562 C17.927,65.486,10.919,64.532,10.792,56.971z"/>
<linearGradient id="XMLID_68_" gradientUnits="userSpaceOnUse" x1="38.5869" y1="62.3906" x2="35.5298" y2="35.0949">
<stop offset="0" style="stop-color:#E6EEF4"/>
<stop offset="0.4438" style="stop-color:#A3740A"/>
<stop offset="0.9382" style="stop-color:#474105"/>
<stop offset="1" style="stop-color:#474105"/>
</linearGradient>
<polygon fill="url(#XMLID_68_)" points="35.208,47.742 41.126,41.54 38.199,39.386 31.853,45.787 "/>
<path fill="#BFDAE1" d="M27.534,42.11l1.789,0.008c0.372,2.298,3.001,4.853,6.438,5.106l0.09,1.639 C33.017,49.686,27.483,46.625,27.534,42.11z"/>
<path fill="#5DA6B1" d="M31.853,45.787l-0.849,2.025c0.233,0.253,2.962,1.602,4.849,1.051l-0.004-1.811 C34.462,47.2,32.735,46.354,31.853,45.787z"/>
<linearGradient id="XMLID_69_" gradientUnits="userSpaceOnUse" x1="34.8193" y1="97.9531" x2="-2.8002" y2="88.0536" gradientTransform="matrix(1.1364 0 0 -1.1364 36.4657 129.4337)">
<stop offset="0" style="stop-color:#FFFFFF"/>
<stop offset="1" style="stop-color:#D7D2BE"/>
</linearGradient>
<path fill-opacity="0.51" stroke-opacity="0.8" fill="url(#XMLID_69_)" d="M65.23,15.238C54.523,4.623,31.284,17.404,36.943,34.209 C49.406,45.533,71.665,29.322,65.23,15.238z"/>
<linearGradient id="XMLID_70_" gradientUnits="userSpaceOnUse" x1="60.1221" y1="-1.877" x2="47.0323" y2="52.3522">
<stop offset="0" style="stop-color:#E6EEF4"/>
<stop offset="0.4438" style="stop-color:#A3740A"/>
<stop offset="0.9382" style="stop-color:#474105"/>
<stop offset="1" style="stop-color:#474105"/>
</linearGradient>
<path fill="url(#XMLID_70_)" d="M34.104,32.489c3.744,25.808,51.684,5.223,32.49-20.635 C73.45,33.658,44.182,50.181,34.104,32.489z"/>
<linearGradient id="XMLID_71_" gradientUnits="userSpaceOnUse" x1="32.3203" y1="114.6191" x2="3.0653" y2="91.7637" gradientTransform="matrix(1.1364 0 0 -1.1364 36.4657 129.4337)">
<stop offset="0" style="stop-color:#E6EEF4"/>
<stop offset="0.4438" style="stop-color:#A3740A"/>
<stop offset="0.9382" style="stop-color:#474105"/>
<stop offset="1" style="stop-color:#474105"/>
</linearGradient>
<path fill="url(#XMLID_71_)" d="M65.497,15.584C54.771-2.345,24.819,19.522,37.338,34.185 C31.51,18.025,54.341,5.018,65.497,15.584z"/>
<linearGradient id="XMLID_72_" gradientUnits="userSpaceOnUse" x1="47.6748" y1="-4.4971" x2="59.6511" y2="115.6725">
<stop offset="0" style="stop-color:#E2E6E4"/>
<stop offset="1" style="stop-color:#A3740A"/>
</linearGradient>
<path fill="url(#XMLID_72_)" d="M68.118,26.525c-3.917,9.477-15.354,15.828-25.276,14.229 c-9.027-1.447-13.749-11.223-9.872-19.862c4.059-9.448,14.826-15.919,24.308-14.404C66.88,8.032,71.852,17.022,68.118,26.525z  M56.237,9.235c-7.996-1.278-17.085,4.15-20.482,12.087c-3.227,7.264,0.48,15.066,8.047,16.28 c8.299,1.332,17.851-4.009,21.15-11.969C68.119,17.659,64.318,10.534,56.237,9.235z"/>
</g>
</g>
</g>
</g>
</svg>
