<?xml version="1.0" encoding="UTF-8"?>
<!DOCTYPE svg PUBLIC "-//W3C//DTD SVG 1.1 Tiny//EN" "http://www.w3.org/Graphics/SVG/1.1/DTD/svg11-tiny.dtd">
<svg width="60" height="80" viewBox="0 0 60 80">
<linearGradient id="_410" gradientUnits="userSpaceOnUse" x1="30.83" y1="40.79" x2="42.41" y2="63.6">
<stop stop-color="#A2C2DD" offset="0.1"/>
<stop stop-color="#6C83BB" offset="0.71"/>
<stop stop-color="#003D6D" offset="0.99"/>
</linearGradient>
<path fill="url(#_410)" d="M12.263,21.376l0.188,9.584c0,0,0.652,0.19,1.058,0.308c-0.429,0.243-1.047,0.593-1.047,0.593 l0.194,9.56c0,0,0.65,0.205,1.06,0.335c-0.427,0.237-1.046,0.582-1.046,0.582l0.194,9.553l8.805,2.994c0,0,0.675-0.54,1.13-0.904 c0.001,0.396,0.002,1.035,0.002,1.035s0.713,0.252,1.179,0.416c-0.478,0.264-1.169,0.647-1.169,0.647l0.027,9.702l8.557,3.238 l4.51-4.121c0,0,0.084-4.584,0.101-5.403c0.771,0.28,5.075,1.847,5.075,1.847l4.623-3.982l0.343-9.479c0,0-0.69-0.207-1.106-0.332 c0.42-0.331,1.023-0.81,1.023-0.81l0.479-9.886c0,0-0.654-0.186-1.043-0.295c0.422-0.319,1.021-0.772,1.021-0.772l0.471-9.838 l-9.142-2.334c0,0-0.515,0.328-0.886,0.563c0.014-0.316,0.039-0.921,0.039-0.921l-9.278-2.2c0,0-0.665,0.401-1.123,0.677 c0.01-0.343,0.029-0.967,0.029-0.967l-8.466-2.134L12.263,21.376z"/>
<linearGradient id="_411" gradientUnits="userSpaceOnUse" x1="59.49" y1="25.67" x2="37.76" y2="56.03">
<stop stop-color="#FFFFFF" offset="0"/>
<stop stop-color="#A2C2DD" offset="0.35"/>
<stop stop-color="#6C83BB" offset="0.7"/>
<stop stop-color="#003D6D" offset="1"/>
</linearGradient>
<polygon fill="url(#_411)" points="31.449,59.202 35.709,56.352 35.555,64.741 31.314,68.617 "/>
<linearGradient id="_412" gradientUnits="userSpaceOnUse" x1="8.15" y1="41.28" x2="25.94" y2="53.85">
<stop stop-color="#FFFFFF" offset="0.05"/>
<stop stop-color="#A2C2DD" offset="1"/>
</linearGradient>
<polygon fill="url(#_412)" points="23.161,56.285 27.906,53.652 35.709,56.352 31.449,59.202 "/>
<linearGradient id="_413" gradientUnits="userSpaceOnUse" x1="54.1" y1="44.62" x2="19.27" y2="67.74">
<stop stop-color="#FFFFFF" offset="0.05"/>
<stop stop-color="#A2C2DD" offset="1"/>
</linearGradient>
<polygon fill="url(#_413)" points="31.449,59.202 31.314,68.617 23.186,65.539 23.161,56.285 "/>
<polygon fill="url(#_411)" points="21.573,45.236 25.89,42.345 25.837,51.102 21.6,54.491 "/>
<polygon fill="url(#_412)" points="13.024,42.541 17.844,39.857 25.89,42.345 21.573,45.236 "/>
<polygon fill="url(#_413)" points="21.573,45.236 21.6,54.491 13.208,51.639 13.024,42.541 "/>
<polygon fill="url(#_411)" points="31.582,48.268 35.93,45.332 35.721,54.239 31.441,57.688 "/>
<polygon fill="url(#_412)" points="23.127,45.511 27.97,42.785 35.93,45.332 31.582,48.268 "/>
<polygon fill="url(#_413)" points="31.582,48.268 31.441,57.688 23.15,54.768 23.127,45.511 "/>
<polygon fill="url(#_411)" points="41.313,51.361 45.684,48.139 45.355,57.193 41.003,60.941 "/>
<polygon fill="url(#_412)" points="32.963,48.548 37.829,45.783 45.684,48.139 41.313,51.361 "/>
<polygon fill="url(#_413)" points="41.313,51.361 41.003,60.941 32.823,57.967 32.963,48.548 "/>
<polygon fill="url(#_411)" points="21.524,34.595 25.931,31.622 25.871,40.38 21.548,43.855 "/>
<polygon fill="url(#_412)" points="12.816,32.063 17.73,29.283 25.931,31.622 21.524,34.595 "/>
<polygon fill="url(#_413)" points="21.524,34.595 21.548,43.855 13.001,41.163 12.816,32.063 "/>
<polygon fill="url(#_411)" points="31.719,37.447 36.152,34.43 35.938,43.339 31.576,46.868 "/>
<polygon fill="url(#_412)" points="23.098,34.856 28.035,32.036 36.152,34.43 31.719,37.447 "/>
<polygon fill="url(#_413)" points="31.719,37.447 31.576,46.868 23.12,44.114 23.098,34.856 "/>
<polygon fill="url(#_411)" points="41.639,40.357 46.076,37.113 45.617,46.563 41.329,49.939 "/>
<polygon fill="url(#_412)" points="33.119,37.707 38.082,34.847 46.076,37.113 41.639,40.357 "/>
<polygon fill="url(#_413)" points="41.639,40.357 41.329,49.939 32.977,47.129 33.119,37.707 "/>
<polygon fill="url(#_411)" points="21.483,23.968 26.17,21.036 25.91,29.67 21.504,33.231 "/>
<polygon fill="url(#_412)" points="12.618,21.595 18.099,19.001 26.17,21.036 21.483,23.968 "/>
<polygon fill="url(#_413)" points="21.483,23.968 21.504,33.231 12.796,30.696 12.618,21.595 "/>
<polygon fill="url(#_411)" points="31.859,26.638 36.539,23.529 36.161,32.45 31.713,36.061 "/>
<polygon fill="url(#_412)" points="23.076,24.206 27.68,21.429 36.539,23.529 31.859,26.638 "/>
<polygon fill="url(#_413)" points="31.859,26.638 31.713,36.061 23.093,33.469 23.076,24.206 "/>
<polygon fill="url(#_411)" points="41.971,29.363 46.525,26.215 46.076,35.604 41.654,38.953 "/>
<polygon fill="url(#_412)" points="33.279,26.874 37.809,23.988 46.525,26.215 41.971,29.363 "/>
<polygon fill="url(#_413)" points="41.971,29.363 41.654,38.953 33.137,36.302 33.279,26.874 "/>
</svg>