<?xml version="1.0" encoding="UTF-8" standalone="no"?>
<!DOCTYPE svg PUBLIC "-//W3C//DTD SVG 1.1 Tiny//EN" "http://www.w3.org/Graphics/SVG/1.1/DTD/svg11-tiny.dtd">
<svg xmlns="http://www.w3.org/2000/svg" xmlns:xlink="http://www.w3.org/1999/xlink" width="44" height="44" viewBox="0 0 44 44">
<rect fill="none" height="44" width="44"/>
<path d="M33,5.999H10.999 C8.795,5.999,7,7.794,7,10v23.001C7,35.204,8.795,37,10.999,37H33c2.207,0,4.002-1.796,4.002-3.999V10 C37.002,7.794,35.207,5.999,33,5.999z" fill-opacity="0.2" />
<path d="M36,31.225H8V33c0,1.65,1.35,3,3,3h22 c1.65,0,3-1.35,3-3V31.225z" fill-opacity="0.5" />
<linearGradient id="_4" gradientUnits="userSpaceOnUse" x1="22" y1="7" x2="22" y2="62">
<stop stop-color="#FFFFFF" offset="0"/>
<stop stop-color="#B2B2C9" offset="1"/>
</linearGradient>
<path d="M36,10c0-1.65-1.35-3-3-3H11c-1.65,0-3,1.35-3,3v22c0,1.65,1.35,3,3,3h22c1.65,0,3-1.35,3-3V10z" fill="url(#_4)"/>
<path d="M35.113,7.878l-0.706,0.706 c0.364,0.363,0.592,0.865,0.592,1.416v22c0,1.102-0.899,2-2,2H11.001c-0.552,0-1.054-0.227-1.417-0.592l-0.707,0.707 C9.422,34.66,10.173,35,11,35h22c1.65,0,3-1.35,3-3V10C36,9.174,35.66,8.422,35.113,7.878z" fill-opacity="0.25" />
<path d="M8.887,34.123 l0.706-0.707C9.229,33.055,9.001,32.553,9.001,32V10c0-1.1,0.899-2,2-2h21.998c0.552,0,1.054,0.229,1.417,0.594l0.707-0.707 C34.578,7.34,33.827,7,33,7H11c-1.65,0-3,1.351-3,3v22C8,32.828,8.34,33.579,8.887,34.123z" fill="#FFFFFF" fill-opacity="0.25" />
<linearGradient id="_5" gradientUnits="userSpaceOnUse" x1="22.06" y1="35.32" x2="22.06" y2="7.75">
<stop stop-color="#FFFFFF" offset="0"/>
<stop stop-color="#B2B2C9" offset="1"/>
</linearGradient>
<path d="M22.518,11.055c-5.128,0-10.305,3.177-10.305,10.273c0,3.294,0.959,5.888,2.854,7.712 c4.928,4.718,12.701,1.95,13.087,1.562v-3.244c2.353-0.754,3.752-3.111,3.752-6.524C31.906,14.71,28.398,11.055,22.518,11.055z M22.629,18.927l-0.248,2.162c-0.33,2.679-0.933,2.896-0.938,2.896c-0.167,0-0.48,0-0.48-1.623 C20.962,21.181,21.325,19.252,22.629,18.927z M23.383,15.248c-3.056,0-6.626,1.914-6.626,7.313c0,1.89,0.641,3.39,1.721,4.252 c-1.392-1.084-2.06-2.926-2.06-5.584c0-3.953,2.362-6.407,6.163-6.407c0.903,0,1.694,0.145,2.373,0.427H23.383z M23.665,26.38 c0.535,0.624,1.262,1.039,2.101,1.183c-1.898,0.533-4.472,0.717-6.44-0.246C20.173,27.675,22.121,28.025,23.665,26.38z M26.628,23.98c-0.265-0.475-0.024-3.291,0.499-6.715c0.497,0.954,0.751,2.181,0.751,3.668 C27.878,24.165,26.631,23.979,26.628,23.98z" fill="url(#_5)"/>
<linearGradient id="_6" gradientUnits="userSpaceOnUse" x1="22.06" y1="12.05" x2="22.06" y2="30.76">
<stop stop-color="#60A5DA" offset="0"/>
<stop stop-color="#464CFF" offset="1"/>
</linearGradient>
<path d="M23.383,16.248h2.891c-0.498,3.141-0.75,5.309-0.75,6.503c0,1.136-0.002,2.233,1.232,2.233 c0.596,0,2.121-0.487,2.121-4.051c0-4.769-2.484-7.113-6.296-7.113c-4.109,0-7.163,2.629-7.163,7.407 c0,4.835,2.129,7.772,7.344,7.772c1.409,0,2.875-0.278,4.395-0.839v1.766c-2.762,1.104-8.062,1.584-11.396-1.607 c-1.699-1.633-2.548-3.963-2.548-6.991c0-6.217,4.335-9.272,9.306-9.272c5.396,0,8.391,3.239,8.391,8.779 c0,3.038-1.297,5.783-4.484,5.783c-1.126,0-2.295-0.646-2.642-2.217c-0.688,1.478-1.664,2.217-2.93,2.217 c-2.13,0-3.094-1.971-3.094-4.059C17.757,17.844,20.737,16.248,23.383,16.248 M23.373,21.211l0.383-3.332h-0.73 c-2.076,0-3.062,2.176-3.062,4.482c0,1.616,0.295,2.622,1.479,2.622C22.421,24.984,23.063,23.729,23.373,21.211" fill="url(#_6)"/>
</svg>