<?xml version="1.0" encoding="UTF-8" standalone="no"?>
<!DOCTYPE svg PUBLIC "-//W3C//DTD SVG 1.1 Tiny//EN" "http://www.w3.org/Graphics/SVG/1.1/DTD/svg11-tiny.dtd">
<svg xmlns="http://www.w3.org/2000/svg" xmlns:xlink="http://www.w3.org/1999/xlink" baseProfile="tiny" height="32" version="1.1" viewBox="0 0 38.001 32" width="38.001">
<g>
<rect fill="none" height="32" width="38.001"/>
<path d="M14.593,28.814h5.646c0.434,0,0.787-0.346,0.799-0.78c0.232-8.212,2.481-14.577,6.262-21.038   c0.072-0.123,0.109-0.259,0.109-0.403V3.986c-0.016-0.656-0.59-0.801-0.801-0.801H11.395c-0.212,0-0.798,0.191-0.801,0.801v3.267   c0.003,0.608,0.588,0.802,0.801,0.802h8.2c-3.182,5.578-5.609,12.644-5.8,19.938C13.788,28.207,13.909,28.736,14.593,28.814z" fill-opacity="0.4" stroke-opacity="0.4"/>
<path d="M26.61,6.594c-3.83,6.535-6.141,13.069-6.371,21.42h-5.645c0.198-7.657,2.938-15.116,6.404-20.76h-9.605   V3.986H26.61V6.594z" fill="#FFFFFF"/>
</g>
</svg>
