<?xml version="1.0" encoding="UTF-8"?>
<!DOCTYPE svg PUBLIC "-//W3C//DTD SVG 1.1 Tiny//EN" "http://www.w3.org/Graphics/SVG/1.1/DTD/svg11-tiny.dtd">
<svg width="96" height="96" viewBox="0 0 96 96">
<path d="M14.049,14.071l21.133,21.132c0.842-0.843,6.58-5.673,12.815-5.673c6.205,0,12.007,4.775,12.851,5.618 L81.92,14.046C72.865,4.988,60.82,0,48.006,0C35.18,0,23.121,4.998,14.049,14.071z" fill-opacity="0.01" />
<path d="M15.584,15.606l19.598,19.597c1.252-1.253,6.933-5.673,12.815-5.673c5.821,0,11.596,4.366,12.851,5.618 l19.537-19.566C71.739,6.933,60.24,2.171,48.006,2.171C35.762,2.171,24.246,6.943,15.584,15.606z" fill-opacity="0.02" />
<path d="M17.119,17.141l18.063,18.062c1.662-1.664,7.295-5.673,12.815-5.673c5.403,0,11.187,3.958,12.851,5.618 L78.85,17.116C70.614,8.878,59.66,4.342,48.006,4.342C36.341,4.343,25.371,8.888,17.119,17.141z" fill-opacity="0.04" />
<path d="M18.654,18.676l16.527,16.526c2.073-2.074,7.771-5.673,12.815-5.673c5.019,0,10.776,3.549,12.851,5.618 l16.467-16.496C69.488,10.824,59.08,6.514,48.006,6.514C36.921,6.514,26.496,10.833,18.654,18.676z" fill-opacity="0.07" />
<path d="M20.19,20.211l14.991,14.991c2.482-2.483,8.279-5.673,12.815-5.673c4.497,0,10.368,3.14,12.851,5.618 l14.932-14.96C68.363,12.77,58.5,8.685,48.006,8.685C37.5,8.685,27.621,12.778,20.19,20.211z" fill-opacity="0.11" />
<path d="M48.006,10.856c-9.926,0-19.259,3.868-26.28,10.891l13.456,13.456c2.893-2.894,8.723-5.673,12.815-5.673 c3.933,0,9.958,2.731,12.851,5.618l13.397-13.425C67.238,14.715,57.92,10.856,48.006,10.856z" fill-opacity="0.13" />
<path d="M47.999,30.508c4.824,0,9.192,1.953,12.356,5.111l12.356-12.381 c-13.649-13.65-35.788-13.639-49.45,0.024L35.631,35.63C38.796,32.465,43.169,30.508,47.999,30.508z" fill="#496DA2"/>
<linearGradient id="_3" gradientUnits="userSpaceOnUse" x1="47.95" y1="29.7" x2="47.95" y2="13.66">
<stop stop-color="#FFFFFF" offset="0.15"/>
<stop stop-color="#DEE9F3" offset="0.38"/>
<stop stop-color="#CADCEC" offset="0.66"/>
<stop stop-color="#A2C2DD" offset="0.97"/>
</linearGradient>
<path d="M47.837,13.894c-8.748,0-17.043,3.294-23.367,9.118c1.028,1.042,10.648,10.519,11.587,11.468 c3.341-3.098,7.106-4.778,11.665-4.778c4.554,0,8.823,1.714,12.162,4.806c0.937-0.951,10.522-10.449,11.551-11.491 C65.08,17.009,56.57,13.894,47.837,13.894z" fill="url(#_3)"/>
<path d="M71.534,23.016c-13.22-12.265-33.885-12.252-47.092,0h1.046c12.761-11.333,32.229-11.346,45,0H71.534z " fill="#FFFFFF"/>
<linearGradient id="_4" gradientUnits="userSpaceOnUse" x1="47.99" y1="37.24" x2="47.99" y2="20.14">
<stop stop-color="#87A8CB" offset="0"/>
<stop stop-color="#FFFFFF" offset="1"/>
</linearGradient>
<path d="M70.463,22.994c-0.896,0.882-9.973,9.88-10.69,10.588c-3.434-2.605-7.592-4.072-11.82-4.072 c-4.224,0-8.378,1.463-11.808,4.062c-0.558-0.55-9.72-9.609-10.684-10.56H24.47c1.319,1.305,10.482,10.375,11.587,11.468 c3.359-2.725,7.521-4.27,11.896-4.27c4.378,0,8.57,1.564,11.932,4.297c1.106-1.093,10.301-10.208,11.625-11.513H70.463z" fill="url(#_4)"/>
<path d="M64.981,27.963c0,0-5.096-4.487-17.14-4.487c-10.979,0-17.074,4.487-17.074,4.487 c-9.486-6.681,7.315-12.962,17.029-12.962C57.508,15.001,74.723,21.22,64.981,27.963z" fill="#FFFFFF" fill-opacity="0.3" />
<polygon fill="#496DA2" points="45.805,17.425 45.805,28.442 38.3,22.846 "/>
<polygon fill="#235487" points="45.805,17.425 45.384,18.262 38.678,23.14 38.3,22.846 "/>
<polygon fill="#235487" points="45.799,28.438 45.384,28.146 45.384,18.262 45.805,17.425 "/>
<rect fill="#496DA2" height="11.017" width="2.81" x="49.594" y="17.427"/>
<rect fill="#235487" height="0.443" width="2.81" x="49.594" y="17.423"/>
<polygon fill="#235487" points="50.03,28.442 49.592,28.442 49.592,17.429 50.036,17.429 "/>
</svg>