<?xml version="1.0" encoding="UTF-8"?>
<!DOCTYPE svg PUBLIC "-//W3C//DTD SVG 1.1 Tiny//EN" "http://www.w3.org/Graphics/SVG/1.1/DTD/svg11-tiny.dtd">
<svg width="50" height="50" viewBox="0 0 50 50">
<path d="M1.381,25.002c0,13.022,10.596,23.617,23.619,23.617s23.619-10.595,23.619-23.617 C48.619,11.977,38.023,1.381,25,1.381S1.381,11.977,1.381,25.002z" fill="#1FFFEA" fill-opacity="0.2" />
<path d="M2.381,25.002c0,12.472,10.148,22.617,22.619,22.617c12.473,0,22.619-10.146,22.619-22.617 C47.619,12.529,37.473,2.381,25,2.381C12.529,2.381,2.381,12.529,2.381,25.002z" fill="#1FFFEA" fill-opacity="0.3" />
<path d="M3.367,25.002c0,11.927,9.706,21.631,21.633,21.631c11.929,0,21.632-9.704,21.632-21.631 c0-11.929-9.703-21.631-21.632-21.631C13.072,3.371,3.367,13.073,3.367,25.002z" fill="#1FFFEA" fill-opacity="0.4" />
<path d="M4.354,25.002c0,11.381,9.263,20.643,20.646,20.643c11.386,0,20.643-9.262,20.643-20.643 c0-11.387-9.257-20.645-20.643-20.645C13.617,4.357,4.354,13.615,4.354,25.002z" fill="#1FFFEA" fill-opacity="0.5" />
<radialGradient id="_4" gradientUnits="userSpaceOnUse" cx="25" cy="25" r="19.75">
<stop stop-color="#B3DDFF" offset="0"/>
<stop stop-color="#D3FFBF" offset="0.01"/>
<stop stop-color="#92F7DB" offset="0.41"/>
<stop stop-color="#56F0F5" offset="0.81"/>
<stop stop-color="#3FEDFF" offset="1"/>
</radialGradient>
<path d="M5.254,25c0,10.887,8.859,19.746,19.749,19.746c10.888,0,19.746-8.859,19.746-19.746 c0-10.889-8.858-19.748-19.746-19.748C14.114,5.252,5.254,14.111,5.254,25z" fill="url(#_4)"/>
<linearGradient id="_5" gradientUnits="userSpaceOnUse" x1="25" y1="5.62" x2="25" y2="44.35">
<stop stop-color="#CFECFF" offset="0"/>
<stop stop-color="#8CC2EA" offset="1"/>
</linearGradient>
<path d="M5.254,25c0,10.887,8.859,19.746,19.748,19.746c10.888,0,19.746-8.859,19.746-19.746 c0-10.889-8.858-19.748-19.746-19.748C14.113,5.252,5.254,14.111,5.254,25z M6.332,25c0-10.313,8.358-18.674,18.671-18.674 S43.671,14.688,43.671,25c0,10.314-8.355,18.671-18.668,18.671S6.332,35.314,6.332,25z" fill="url(#_5)" fill-opacity="0.5" />
<linearGradient id="_6" gradientUnits="userSpaceOnUse" x1="25" y1="6.33" x2="25" y2="44.68">
<stop stop-color="#FFFFFF" offset="0"/>
<stop stop-color="#B3DDFF" offset="1"/>
</linearGradient>
<path d="M6.329,25c0,10.314,8.36,18.672,18.674,18.672c10.316,0,18.672-8.358,18.672-18.672 c0-10.313-8.356-18.673-18.672-18.673C14.688,6.327,6.329,14.688,6.329,25z" fill="url(#_6)" fill-opacity="0.5" />
<path d="M8.871,25.02c0,7.271,7.224,13.167,16.132,13.167c8.91,0,16.129-5.896,16.129-13.167 c0-7.269-7.22-13.163-16.129-13.163C16.095,11.856,8.871,17.75,8.871,25.02z" fill="#FFFFFF" fill-opacity="0.15" />
<g fill-opacity="0.6" stroke-opacity="0.6">
<path d="M18.988,18.072c-0.372,0-0.671,0.399-0.671,0.892v14.283c0,0.492,0.3,0.891,0.671,0.891 h2.747c0.371,0,0.672-0.399,0.672-0.891V18.964c0-0.493-0.301-0.892-0.672-0.892H18.988z" fill="#0046B7" fill-opacity="0.6" />
<path d="M25.999,18.847c-0.272,0.139-0.443,0.418-0.443,0.724v13.004 c0,0.305,0.171,0.585,0.444,0.724c0.273,0.138,0.599,0.111,0.844-0.071l8.831-6.513c0.208-0.153,0.329-0.396,0.329-0.653 c0-0.259-0.123-0.502-0.33-0.654l-8.832-6.491C26.598,18.735,26.271,18.708,25.999,18.847z" fill="#0046B7" fill-opacity="0.6" />
</g>
<path d="M37.453,22.991l-8.834-6.492c-1.161-0.859-2.688-0.985-3.981-0.326l0,0 c-0.082,0.042-0.156,0.093-0.234,0.141c-0.69-0.782-1.639-1.242-2.669-1.242h-2.747c-2.059,0-3.671,1.709-3.671,3.892v14.283 c0,2.182,1.613,3.891,3.671,3.891h2.747c1.034,0,1.988-0.434,2.686-1.223c0.014-0.016,0.024-0.035,0.038-0.052 c0.061,0.036,0.118,0.077,0.182,0.109c1.298,0.656,2.825,0.528,3.988-0.332l8.829-6.512c0.969-0.713,1.548-1.86,1.548-3.067 C39.002,24.852,38.422,23.705,37.453,22.991z" fill="#1FFFEA" fill-opacity="0.1" />
<path d="M36.86,23.796l-8.833-6.491c-0.855-0.633-1.981-0.726-2.935-0.24c0,0,0,0,0,0 c-0.4,0.204-0.718,0.506-0.973,0.852l-0.159-0.493c-0.034-0.106-0.086-0.205-0.153-0.294c-0.506-0.672-1.261-1.058-2.072-1.058 h-2.747c-1.498,0-2.671,1.27-2.671,2.892v14.283c0,1.621,1.173,2.891,2.671,2.891h2.747c0.744,0,1.432-0.314,1.937-0.885 c0.235-0.266,0.417-0.575,0.541-0.911c0.242,0.295,0.526,0.559,0.881,0.739c0.957,0.483,2.083,0.389,2.94-0.245l8.83-6.512 c0.715-0.526,1.142-1.373,1.142-2.263C38.002,25.169,37.575,24.323,36.86,23.796z" fill="#1FFFEA" fill-opacity="0.2" />
<path d="M25.545,17.956C25.545,17.956,25.545,17.956,25.545,17.956 c-0.611,0.312-0.99,0.93-0.99,1.615v13.004c0,0.686,0.379,1.305,0.99,1.615c0.617,0.312,1.341,0.25,1.893-0.158l8.83-6.513 c0.46-0.339,0.735-0.884,0.735-1.458c-0.001-0.576-0.277-1.121-0.737-1.46l-8.832-6.491 C26.884,17.703,26.159,17.643,25.545,17.956z" fill="#1FFFEA" fill-opacity="0.3" />
<path d="M18.988,17.072c-0.937,0-1.671,0.831-1.671,1.892v14.283c0,1.061,0.734,1.891,1.671,1.891 h2.747c0.938,0,1.672-0.831,1.672-1.891V18.964l-0.398-1.232c-0.315-0.419-0.78-0.659-1.273-0.659H18.988z" fill="#1FFFEA" fill-opacity="0.3" />
</svg>