<?xml version="1.0" encoding="UTF-8"?>
<!DOCTYPE svg PUBLIC "-//W3C//DTD SVG 1.1 Tiny//EN" "http://www.w3.org/Graphics/SVG/1.1/DTD/svg11-tiny.dtd">
<svg width="84" height="72" viewBox="0 0 84 72">
<linearGradient id="_16" gradientUnits="userSpaceOnUse" x1="43.98" y1="31.19" x2="58.91" y2="60.59">
<stop stop-color="#A2C2DD" offset="0.1"/>
<stop stop-color="#6C83BB" offset="0.71"/>
<stop stop-color="#003D6D" offset="0.99"/>
</linearGradient>
<path fill="url(#_16)" d="M33.291,5.153c-0.172,0.442-1.803,5.653-1.979,6.165c-0.558-0.087-14.762-2.246-14.762-2.246 c-1.417-0.008-3.658,0.703-3.658,0.703l1.257,33.909c0,0,20.564,5.67,21.529,5.936l-0.001,0.002 c-0.31,0.549-2.748,5.053-3.272,9.963l0.453,2.363l0.063,0.07c0.149,0.17,3.759,4.182,11.634,5.537l0.139,0.025l0.215-0.102 c5.172-3.488,8.869-8.678,9.848-12l0.188-2.971c-0.004-0.18-0.074-3.666-0.463-5.92c0.242-0.229,6.531-6.195,6.92-6.564 c1.289,1.033,4.012,2.59,6.709,3.189l0.121,0.027l0.111-0.055c1.896-0.941,5.092-4.75,5.469-6.072 c0.168-0.59,0.369-1.236,0.359-2.594c-0.02-2.289-1.643-6.445-3.094-7.556s-5.584-1.604-6.02-1.72 c-2.121,0.666-5.809,2.979-5.809,2.979l3.344-9.875l2.406,0.063c1.291-2.364,3.379-6.859,3.379-9.604 c0-0.685-0.379-2.283-1.445-2.512L36.641,4.087C36.641,4.087,34.281,4.011,33.291,5.153z"/>
<linearGradient id="_17" gradientUnits="userSpaceOnUse" x1="56.68" y1="-3.42" x2="40.94" y2="26.48">
<stop stop-color="#FFFFFF" offset="0.05"/>
<stop stop-color="#A2C2DD" offset="1"/>
</linearGradient>
<path fill="url(#_17)" d="M63.438,7.578L33.961,5.089L28.064,24.9l25.448,9.527 C58.969,33.541,63.438,7.578,63.438,7.578z"/>
<linearGradient id="_18" gradientUnits="userSpaceOnUse" x1="74.98" y1="-3.48" x2="55.84" y2="26.81">
<stop stop-color="#FFFFFF" offset="0"/>
<stop stop-color="#496DA2" offset="0.71"/>
<stop stop-color="#235487" offset="0.99"/>
</linearGradient>
<path fill="url(#_18)" d="M63.45,7.646l-5.473,17.113c-2.119,6.574-2.629,9.639-4.621,9.664 c1.922,0.334,4.379-2.273,5.666-6.887l3.137-9.756l2.564,0.051C70.131,6.929,66.979,5.248,63.45,7.646z"/>
<linearGradient id="_19" gradientUnits="userSpaceOnUse" x1="48.5" y1="9.97" x2="51.86" y2="0.83">
<stop stop-color="#FFFFFF" offset="0.05"/>
<stop stop-color="#A2C2DD" offset="1"/>
</linearGradient>
<path fill="url(#_19)" d="M63.438,7.636c0.793-0.514,1.428-0.826,2.588-0.979L36.675,4.583 c-1.257,0.105-1.869,0.154-2.714,0.568L63.438,7.636z"/>
<path fill="#FFFFFF" d="M36.523,6.253c-0.604-0.066-1.243,0.379-1.425,0.992c-0.184,0.613,0.154,1.168,0.754,1.234 c0.599,0.066,1.237-0.377,1.425-0.994C37.465,6.871,37.128,6.32,36.523,6.253z"/>
<path fill="#FFFFFF" d="M35.296,10.294c-0.594-0.068-1.23,0.375-1.412,0.988s0.148,1.17,0.738,1.24 c0.595,0.063,1.224-0.381,1.41-0.996C36.222,10.912,35.892,10.357,35.296,10.294z"/>
<path fill="#FFFFFF" d="M58.936,10.322c-0.498,1.531,1.754,1.719,2.254,0.186C61.708,8.962,59.432,8.773,58.936,10.322z "/>
<path fill="#FFFFFF" d="M57.565,14.535c-0.494,1.523,1.725,1.711,2.225,0.188C60.297,13.187,58.063,13,57.565,14.535z"/>
<path fill="#FFFFFF" d="M56.196,18.751c-0.492,1.539,1.688,1.727,2.191,0.188C58.893,17.41,56.692,17.218,56.196,18.751 z"/>
<path fill="#FFFFFF" d="M54.825,22.966c-0.496,1.529,1.658,1.721,2.156,0.191 C57.497,21.623,55.317,21.429,54.825,22.966z"/>
<path fill="#FFFFFF" d="M53.45,27.181c-0.498,1.547,1.619,1.744,2.129,0.193C56.094,25.824,53.958,25.626,53.45,27.181z "/>
<path fill="#FFFFFF" d="M52.651,30.607l0.09,2.049c0.58,0.059,1.217-0.416,1.43-1.057 C54.542,30.484,53.471,29.998,52.651,30.607z"/>
<linearGradient id="_20" gradientUnits="userSpaceOnUse" x1="59.15" y1="52.84" x2="48" y2="17.28">
<stop stop-color="#FFFFFF" offset="0"/>
<stop stop-color="#496DA2" offset="0.71"/>
<stop stop-color="#235487" offset="0.99"/>
</linearGradient>
<path fill="url(#_20)" d="M50.163,15.023c6.762-0.156,0.607,15.441,3.35,19.404l-5.703-1.459 C47.809,32.968,45.377,14.152,50.163,15.023z"/>
<linearGradient id="_21" gradientUnits="userSpaceOnUse" x1="54.33" y1="54.36" x2="43.18" y2="18.8">
<stop stop-color="#A2C2DD" offset="0.1"/>
<stop stop-color="#6C83BB" offset="0.71"/>
<stop stop-color="#003D6D" offset="0.99"/>
</linearGradient>
<polygon fill="url(#_21)" points="46.387,52.23 46.522,15.871 49.311,15.154 49.188,49.65 "/>
<linearGradient id="_22" gradientUnits="userSpaceOnUse" x1="43.39" y1="5.72" x2="24.25" y2="42.08">
<stop stop-color="#FFFFFF" offset="0.05"/>
<stop stop-color="#A2C2DD" offset="1"/>
</linearGradient>
<polygon fill="url(#_22)" points="46.381,52.232 14.724,43.387 13.604,10.115 46.999,16.66 "/>
<linearGradient id="_23" gradientUnits="userSpaceOnUse" x1="31.02" y1="16.11" x2="33.93" y2="8.2">
<stop stop-color="#FFFFFF" offset="0.05"/>
<stop stop-color="#A2C2DD" offset="1"/>
</linearGradient>
<path fill="url(#_23)" d="M46.999,16.66c0.459-0.971,2.727-1.824,4.057-1.621L16.874,9.572 c-1.266-0.01-2.579,0.188-3.296,0.572L46.999,16.66z"/>
<path fill="#FFFFFF" d="M15.588,13.335c0.067,1.586,2.458,2.09,2.402,0.502C17.93,12.25,15.518,11.746,15.588,13.335z"/>
<path fill="#FFFFFF" d="M15.769,17.685c0.07,1.578,2.429,2.082,2.369,0.5C18.079,16.607,15.696,16.105,15.769,17.685z"/>
<path fill="#FFFFFF" d="M15.948,22.037c0.072,1.586,2.393,2.088,2.338,0.5C18.23,20.935,15.882,20.433,15.948,22.037z"/>
<path fill="#FFFFFF" d="M16.125,26.386c0.069,1.58,2.364,2.084,2.308,0.502S16.057,24.806,16.125,26.386z"/>
<path fill="#FFFFFF" d="M16.305,30.736c0.063,1.588,2.328,2.088,2.272,0.502C18.521,29.65,16.232,29.15,16.305,30.736z"/>
<path fill="#FFFFFF" d="M16.477,35.083c0.065,1.581,2.293,2.084,2.243,0.502C18.66,33.99,16.413,33.488,16.477,35.083z"/>
<path fill="#FFFFFF" d="M42.024,19.328c0.035,1.641,2.484,2.09,2.463,0.447C44.473,18.117,41.997,17.667,42.024,19.328z "/>
<path fill="#FFFFFF" d="M42.106,23.853c0.029,1.645,2.449,2.094,2.43,0.447C44.51,22.66,42.071,22.212,42.106,23.853z"/>
<path fill="#FFFFFF" d="M42.184,28.384c0.029,1.637,2.418,2.084,2.395,0.445C44.557,27.173,42.155,26.728,42.184,28.384 z"/>
<path fill="#FFFFFF" d="M42.26,32.91c0.027,1.654,2.383,2.105,2.363,0.449C44.606,31.714,42.225,31.267,42.26,32.91z"/>
<path fill="#FFFFFF" d="M42.334,37.443c0.031,1.645,2.352,2.094,2.33,0.443C44.647,36.234,42.305,35.787,42.334,37.443z "/>
<path fill="#FFFFFF" d="M17.545,38.703c-0.634-0.139-1.124,0.291-1.091,0.955c0.028,0.666,0.566,1.316,1.195,1.451 c0.632,0.135,1.118-0.293,1.092-0.957C18.712,39.484,18.179,38.834,17.545,38.703z"/>
<path fill="#FFFFFF" d="M17.726,42.947c-0.623-0.139-1.107,0.291-1.079,0.955c0,0.008,0.003,0.01,0.003,0.016l2.249,0.604 c0-0.041,0.009-0.082,0.007-0.123C18.878,43.732,18.352,43.082,17.726,42.947z"/>
<linearGradient id="_24" gradientUnits="userSpaceOnUse" x1="29.62" y1="19.33" x2="29.62" y2="46.83">
<stop stop-color="#E6EEF4" offset="0"/>
<stop stop-color="#C03A3A" offset="0.44"/>
<stop stop-color="#302D02" offset="0.94"/>
</linearGradient>
<path fill="url(#_24)" d="M26.935,21.371l5.271,10.271l-2.867-0.746l0.006,1.16c0.021,1.024,0.649,2.286,1.575,2.528 c0.9,0.234,1.758-0.604,1.783-1.592l-0.227-8.357l5.369,1.018l0.027,8.758c-0.048,4.262-4.167,6.135-7.028,5.577 c-3.932-0.764-6.531-3.639-6.527-8.899l0.012-1.508l-2.965-0.771L26.935,21.371z"/>
<linearGradient id="_25" gradientUnits="userSpaceOnUse" x1="81.96" y1="28.19" x2="56.16" y2="47.58">
<stop stop-color="#E6EEF4" offset="0"/>
<stop stop-color="#4A9900" offset="0.44"/>
<stop stop-color="#0E4E58" offset="0.94"/>
</linearGradient>
<path fill="url(#_25)" d="M73.78,33.991l-11.701,4.798l-0.752,0.717c1.131,0.979,4.598,2.792,6.803,3.288 c1.881-0.807,5.09-4.713,5.396-5.944C73.872,35.471,73.891,34.688,73.78,33.991z"/>
<linearGradient id="_26" gradientUnits="userSpaceOnUse" x1="74.91" y1="38.01" x2="56.79" y2="36.53">
<stop stop-color="#E6EEF4" offset="0"/>
<stop stop-color="#4A9900" offset="0.44"/>
<stop stop-color="#0E4E58" offset="0.94"/>
</linearGradient>
<path fill="url(#_26)" d="M66.918,33.259l-5.148,5.309c2.059,1.434,4.527,2.514,6.217,2.977L66.918,33.259z"/>
<linearGradient id="_27" gradientUnits="userSpaceOnUse" x1="76.49" y1="52.25" x2="27.14" y2="65.92">
<stop stop-color="#E6EEF4" offset="0"/>
<stop stop-color="#4A9900" offset="0.44"/>
<stop stop-color="#0E4E58" offset="0.94"/>
</linearGradient>
<path fill="url(#_27)" d="M54.614,52.363l-21.617,7.045l0.429,2.146c0,0,3.579,4.076,11.432,5.396 c5.25-3.512,8.639-8.631,9.551-11.738L54.614,52.363z"/>
<linearGradient id="_28" gradientUnits="userSpaceOnUse" x1="54.08" y1="71.89" x2="26.52" y2="43.53">
<stop stop-color="#DCE8E4" offset="0"/>
<stop stop-color="#43910A" offset="1"/>
</linearGradient>
<path fill="url(#_28)" d="M32.971,59.408c0.543-5.082,3.177-9.705,3.177-9.705l7.974,2.715L44.348,64.9 C38.233,63.984,34.949,61.332,32.971,59.408z"/>
<linearGradient id="_29" gradientUnits="userSpaceOnUse" x1="77.25" y1="30.06" x2="24.06" y2="51.37">
<stop stop-color="#DCE8E4" offset="0"/>
<stop stop-color="#43910A" offset="1"/>
</linearGradient>
<path fill="url(#_29)" d="M36.147,49.703c1.203,1.139,4.459,3.215,7.847,2.916l26.818-25.377 c-2.338-1.298-5.635-1.583-5.635-1.583C56.053,29.509,44.192,39.035,36.147,49.703z"/>
<linearGradient id="_30" gradientUnits="userSpaceOnUse" x1="83.37" y1="12.22" x2="52.17" y2="52.38">
<stop stop-color="#DCE8E4" offset="0"/>
<stop stop-color="#43910A" offset="1"/>
</linearGradient>
<path fill="url(#_30)" d="M44.348,64.9c-0.695-2.58-0.982-9.455-0.346-12.359c7.346-10.748,17.922-20.35,26.764-25.345 c0,0,2.494,2.603,3.02,6.781c-0.615,2.641-3.678,5.993-5.805,7.556c-0.281-0.639-1.244-7.822-1.244-7.822 c-2.439,3.196-6.295,6.669-12.607,12.651c0.418,2.218,0.482,5.974,0.482,5.974C52.588,57.221,48.991,62.008,44.348,64.9z"/>
</svg>