<?xml version="1.0" encoding="UTF-8"?>
<!DOCTYPE svg PUBLIC "-//W3C//DTD SVG 1.1 Tiny//EN" "http://www.w3.org/Graphics/SVG/1.1/DTD/svg11-tiny.dtd">
<svg width="96" height="96" viewBox="0 0 96 96">
<linearGradient id="_8" gradientUnits="userSpaceOnUse" x1="60.03" y1="59.88" x2="35.55" y2="35.7">
<stop stop-color="#D6E6EC" offset="0"/>
<stop stop-color="#298595" offset="1"/>
</linearGradient>
<circle fill="url(#_8)" cx="47.999" cy="48.001" r="17.491"/>
<linearGradient id="_9" gradientUnits="userSpaceOnUse" x1="57.47" y1="57.69" x2="45.96" y2="46.58">
<stop stop-color="#FFFFFF" offset="0.05"/>
<stop stop-color="#A2C2DD" offset="1"/>
</linearGradient>
<path fill="url(#_9)" fill-opacity="0.3" d="M53.504,61.896c1.977-0.166,7.653-5.517,8.023-8.024 c0.084-5.062-4.691-7.695-7.57-7.778c-5.761-0.123-8.889,5.391-8.065,9.301C46.427,59.426,50.611,62.023,53.504,61.896z"/>
<linearGradient id="_10" gradientUnits="userSpaceOnUse" x1="56.67" y1="62.32" x2="39.61" y2="34.15">
<stop stop-color="#FFFFFF" offset="0.05"/>
<stop stop-color="#A2C2DD" offset="1"/>
</linearGradient>
<path fill="url(#_10)" d="M31.717,47.999c0,8.981,7.304,16.285,16.277,16.285c8.979,0,16.289-7.304,16.289-16.285 c0-8.978-7.311-16.282-16.289-16.282C39.021,31.717,31.717,39.021,31.717,47.999z"/>
<linearGradient id="_11" gradientUnits="userSpaceOnUse" x1="54.99" y1="62.13" x2="48.1" y2="48.19">
<stop stop-color="#FFFFFF" offset="0"/>
<stop stop-color="#235487" offset="1"/>
</linearGradient>
<path fill="url(#_11)" d="M41.334,33.708c7.883-3.675,17.285-0.254,20.954,7.626l0.469-0.22 c-3.792-8.137-13.501-11.667-21.642-7.874c-8.136,3.795-11.669,13.501-7.873,21.641l0.469-0.223 C30.033,46.783,33.455,37.382,41.334,33.708z"/>
<path fill="url(#_11)" d="M62.759,41.117l-0.468,0.217c3.677,7.88,0.252,17.284-7.624,20.955 c-7.882,3.675-17.284,0.254-20.956-7.626l-0.469,0.219c3.795,8.138,13.502,11.673,21.641,7.879 C63.02,58.963,66.552,49.255,62.759,41.117z"/>
<polygon fill="#009966" points="41.766,40.312 41.766,55.689 59.113,47.878 "/>
<polygon fill="#1F493B" points="41.766,40.312 42.542,41.387 58.191,48.291 59.113,47.878 "/>
<polygon fill="#1F493B" points="41.779,55.686 42.542,55.339 42.542,41.387 41.766,40.312 "/>
<linearGradient id="_13" gradientUnits="userSpaceOnUse" x1="36.38" y1="40.33" x2="50.47" y2="32.59">
<stop stop-color="#FFFFFF" offset="0.05"/>
<stop stop-color="#A2C2DD" offset="1"/>
</linearGradient>
<path fill="url(#_13)" fill-opacity="0.78" d="M49.453,34.583c-0.33-0.987-2.182-1.893-2.182-1.893 c-7.199-0.165-11.315,5.473-11.315,5.473c-0.781,1.399-0.247,3.745-0.247,3.745l1.029,1.934 C36.738,43.842,42.539,35.859,49.453,34.583z"/>
<linearGradient id="_14" gradientUnits="userSpaceOnUse" x1="34.59" y1="42.33" x2="33.48" y2="50.62">
<stop stop-color="#FFFFFF" offset="0.05"/>
<stop stop-color="#A2C2DD" offset="1"/>
</linearGradient>
<path fill="url(#_14)" fill-opacity="0.78" d="M34.229,42.279L33.61,43.02c-0.657,1.646-1.109,4.856-0.492,5.144 c1.233,1.029,1.811-2.222,1.811-2.222l0.453-0.535L34.229,42.279z"/>
</svg>