<?xml version="1.0" encoding="UTF-8"?>
<!DOCTYPE svg PUBLIC "-//W3C//DTD SVG 1.1 Tiny//EN" "http://www.w3.org/Graphics/SVG/1.1/DTD/svg11-tiny.dtd">
<svg width="13" height="13" viewBox="0 0 13 13">
<path d="M12.434,5.697c-0.239-0.563-0.579-1.065-1.01-1.497C10.993,3.77,10.49,3.43,9.928,3.191L9.537,4.112 c0.443,0.188,0.84,0.456,1.179,0.796c0.341,0.34,0.608,0.737,0.796,1.179c0.192,0.457,0.29,0.943,0.29,1.442 s-0.098,0.985-0.291,1.444c-0.187,0.44-0.455,0.837-0.795,1.178c-0.339,0.34-0.736,0.608-1.179,0.795 c-0.457,0.193-0.942,0.291-1.441,0.291c-0.5,0-0.985-0.098-1.443-0.291C6.21,10.758,5.813,10.49,5.474,10.15 C5.133,9.81,4.866,9.413,4.678,8.971c-0.192-0.457-0.29-0.943-0.29-1.442s0.098-0.985,0.291-1.444 c0.187-0.44,0.455-0.837,0.795-1.177c0.203-0.203,0.432-0.371,0.672-0.521L5.938,5.553l0.984,0.176l0.421-2.355l0.088-0.492 L6.938,2.794l-2.354-0.42L4.408,3.358l1.164,0.208C5.283,3.75,5.01,3.957,4.766,4.201C4.335,4.632,3.996,5.135,3.758,5.696 c-0.246,0.583-0.37,1.2-0.37,1.833s0.124,1.25,0.369,1.832c0.239,0.562,0.578,1.065,1.009,1.497 c0.432,0.431,0.935,0.771,1.497,1.009c0.583,0.246,1.199,0.37,1.833,0.37c0.633,0,1.249-0.124,1.831-0.369 c0.563-0.239,1.066-0.579,1.497-1.01c0.432-0.432,0.771-0.935,1.009-1.496c0.246-0.583,0.37-1.2,0.37-1.833 S12.679,6.279,12.434,5.697z"/>
</svg>