<?xml version="1.0" encoding="utf-8"?>
<!DOCTYPE svg PUBLIC "-//W3C//DTD SVG 1.1 Tiny//EN" "http://www.w3.org/Graphics/SVG/1.1/DTD/svg11-tiny.dtd">
<svg width="60" height="80" viewBox="0 0 60 80">
<linearGradient id="_316" gradientUnits="userSpaceOnUse" x1="20.69" y1="30.75" x2="38.19" y2="51.79">
<stop stop-color="#DEE9F3" offset="0"/>
<stop stop-color="#235487" offset="1"/>
</linearGradient>
<circle fill="url(#_316)" cx="29.527" cy="41.367" r="23.417"/>
<radialGradient id="_317" gradientUnits="userSpaceOnUse" cx="34.05" cy="26.71" r="42.04">
<stop stop-color="#FFFFFF" offset="0"/>
<stop stop-color="#A2C2DD" offset="0.53"/>
<stop stop-color="#6C83BB" offset="0.87"/>
<stop stop-color="#003D6D" offset="1"/>
</radialGradient>
<circle fill="url(#_317)" cx="29.567" cy="41.366" r="22.725"/>
<radialGradient id="_318" gradientUnits="userSpaceOnUse" cx="34.36" cy="29.04" r="28.6">
<stop stop-color="#E6EEF4" offset="0"/>
<stop stop-color="#C6DCC1" offset="0.08"/>
<stop stop-color="#91C06F" offset="0.21"/>
<stop stop-color="#6BAB33" offset="0.32"/>
<stop stop-color="#539E0E" offset="0.4"/>
<stop stop-color="#4A9900" offset="0.44"/>
<stop stop-color="#398419" offset="0.55"/>
<stop stop-color="#22663B" offset="0.71"/>
<stop stop-color="#135550" offset="0.85"/>
<stop stop-color="#0E4E58" offset="0.94"/>
</radialGradient>
<path fill="url(#_318)" d="M16.743,46.3c0,0,0.641,0.408,0.932,0.177c0.293-0.233,0.469-0.699,0.469-0.699s-0.234,0.291-0.469,0.406C17.442,46.3,16.743,46.3,16.743,46.3z M17.399,26.664c0,0-0.438,0.568-0.961,0.83c-0.525,0.263,0.611,0.176,1.092,0C18.01,27.32,18.186,26.752,17.399,26.664z M10.481,44.844c-0.088,0.203,0.662,0.36,0.465,0.146C10.655,44.669,10.569,44.641,10.481,44.844z M10.042,47.146c0.061,0.406-0.32,0.785,0.352,0.027c0.67-0.757-0.117-0.523-0.117-0.523C9.868,46.708,9.985,46.736,10.042,47.146z M12.766,30.903l-0.131,0.655l0.395-0.131l0.393-0.524l0.83-0.175l0.045-0.437c0,0,0.393-0.219,0.654-0.176c0.262,0.044,0.83-0.218,1.049-0.655c0.219-0.437,0.395-0.524,0.523-0.742c0.131-0.22,0.043-0.962-0.129-0.525c-0.176,0.438-1.051,1.268-1.531,1.312c-0.48,0.044-0.35,0.568-0.35,0.568l-0.785,0.087L12.766,30.903z M20.006,57.313c-0.408-0.35,0.35-1.224,0.291-2.155c-0.057-0.933-0.756-1.456-1.281-1.923c-0.467-0.699-1.574-1.398-2.098-1.631l-0.816-1.864c0,0-0.35-0.06-0.582-0.175c-0.232-0.116-0.408-0.991-0.408-0.991s-0.875,0.059-0.523,0.407c0.35,0.351,0.232,1.748,0.232,1.748s-0.291-0.523-0.99-0.698c-0.682-0.171-0.621-0.261-0.525-0.933c0.117-0.815-0.307-0.273-1.166-0.642c-0.814-0.351-0.639,0.524-0.699,0.758c-0.057,0.233-0.291-0.292-0.756-0.175l-0.291,0.932c0,0-0.117,0.524-0.352,0.35c-0.169-0.127-0.554,0.795-0.751,1.306c0.023,0.047,0.047,0.093,0.071,0.14c0.194,0.377,0.397,0.748,0.612,1.112c0.023,0.039,0.045,0.08,0.068,0.118c0.249,0.416,0.509,0.822,0.783,1.222c0.019,0.027,0.038,0.054,0.057,0.08c0.25,0.36,0.511,0.713,0.781,1.058c0.047,0.062,0.094,0.121,0.141,0.181c0.292,0.366,0.594,0.726,0.908,1.073c0.621-0.024,1.621-0.127,1.934-0.52c0.467-0.583,1.398,0.176,1.398,0.176C19.133,58.711,20.006,57.313,20.006,57.313z M8.237,41.813c0.117-0.814,0.232-0.989-0.059-0.641c-0.291,0.35-1.049,1.225-1.049,1.225L7.02,44.172c0.008,0.067,0.017,0.135,0.025,0.201c0.118,0.197,0.56,0.877,0.957,0.877c0.467,0,0.816-1.107,0.408-1.689C8.002,42.979,8.12,42.629,8.237,41.813z M9.198,39.221l0.232,0.758l0.176-0.758c0.059-0.291-0.523-0.641-0.35-1.281c0.174-0.642,0.699-0.933,0.174-1.632c-0.523-0.699,0.352,0.117-0.523,1.34L9.198,39.221z M12.491,44.494c-0.059,0.291-0.352,1.049-0.699,0.175c-0.352-0.875-0.525-1.106-1.051-0.467l0.467,0.233c0,0,0.176,0.642,0.467,0.814c0.291,0.176,1.225,0.816,1.572,0.758c0,0-0.232,0.758,0.059,1.165c0,0,0.584-0.116,0.758,0.291c0.174,0.408,0.764,0.019,1.137-0.262c0.232-0.175,0.611-0.378,0.902,0.262c0.293,0.642,0.729,0.699,1.486,0.642c0,0-1.719-1.194-1.369-1.252c0.35-0.059,0.232-0.32,0.232-0.32l-0.641-0.407c0,0-1.166-0.438-1.166-0.671S12.547,44.202,12.491,44.494z M28.981,57.604c-0.525,0-0.174,0.375-0.117,0.699c0.117,0.699,1.165,0,0.697-0.059C29.096,58.188,29.504,57.604,28.981,57.604z M19.481,58.361c0.875,1.281,1.051,0.35,0.934,0.059C20.297,58.128,19.481,58.361,19.481,58.361z M27.583,59.234l-1.225,0.468c-0.291,0.407,0.943,0.272,1.457-0.177c0.467-0.406,0.873-0.756,0.873-0.756l-0.699-0.352L27.583,59.234z M50.607,32.782c-0.078-0.188-0.157-0.375-0.238-0.561c-0.045-0.102-0.092-0.202-0.139-0.303l-0.967-1.327l0.131-0.229c0,0,0.072,0.101,0.195,0.258c-0.004-0.007-0.007-0.014-0.011-0.021c-0.289-0.535-0.603-1.055-0.933-1.563c-0.045-0.07-0.09-0.142-0.135-0.211c-0.324-0.486-0.666-0.958-1.025-1.417c-0.063-0.081-0.125-0.162-0.189-0.242c-0.357-0.447-0.732-0.88-1.124-1.298c-0.073-0.079-0.147-0.155-0.222-0.232c-0.396-0.414-0.809-0.813-1.235-1.197c-0.073-0.065-0.147-0.128-0.223-0.192c-0.442-0.386-0.896-0.759-1.368-1.11c-0.055-0.041-0.111-0.079-0.167-0.119c-0.461-0.336-0.935-0.656-1.42-0.958c-0.058-0.036-0.113-0.075-0.171-0.11c-0.495-0.302-1.006-0.579-1.525-0.843c-0.102-0.052-0.203-0.106-0.306-0.157c-0.501-0.245-1.015-0.468-1.534-0.677c-0.081-0.032-0.162-0.064-0.244-0.096l-4.738-0.329l-0.137-0.057c0,0,1.512-0.073,3.01-0.244c-0.092-0.026-0.185-0.053-0.275-0.079c-0.294-0.081-0.592-0.155-0.891-0.225c-0.162-0.038-0.324-0.079-0.49-0.113c-0.422-0.088-0.848-0.165-1.277-0.229c-0.176-0.026-0.354-0.045-0.531-0.067c-0.291-0.037-0.584-0.069-0.879-0.094c-0.201-0.018-0.404-0.034-0.607-0.046c-0.33-0.02-0.664-0.03-0.999-0.035c-0.125-0.002-0.25-0.01-0.376-0.01c-0.098,0-0.193,0.006-0.291,0.007c-0.401,0.005-0.799,0.021-1.195,0.046c-0.188,0.012-0.376,0.026-0.563,0.043c-0.447,0.04-0.891,0.089-1.33,0.155c-0.139,0.021-0.276,0.046-0.415,0.07c-0.388,0.065-0.773,0.141-1.155,0.226c-0.163,0.036-0.325,0.072-0.486,0.112c-0.456,0.112-0.908,0.233-1.352,0.373c-0.036,0.011-0.071,0.025-0.107,0.036c-0.88,0.492-1.385,0.788-1.385,0.788l0.568,0.176l-1.18,0.306c0.323-0.423,0.217-0.535,0.009-0.535c-0.186,0.079-0.368,0.166-0.552,0.25c-0.167,0.076-0.335,0.151-0.501,0.231c-0.204,0.099-0.404,0.204-0.604,0.31c-0.167,0.087-0.332,0.175-0.496,0.266c-0.195,0.109-0.388,0.219-0.58,0.333c-0.165,0.098-0.327,0.2-0.488,0.302c-0.185,0.117-0.371,0.232-0.552,0.354c-0.179,0.121-0.354,0.248-0.529,0.373c-0.287,0.205-0.569,0.417-0.846,0.634c-0.167,0.131-0.335,0.262-0.5,0.398c-0.16,0.133-0.315,0.271-0.471,0.408c-0.154,0.135-0.307,0.272-0.457,0.411c-0.152,0.141-0.301,0.283-0.449,0.428c-0.15,0.147-0.297,0.298-0.444,0.45c-0.138,0.143-0.277,0.285-0.411,0.431c-0.179,0.196-0.352,0.396-0.524,0.599c-0.169,0.199-0.335,0.4-0.498,0.604c-0.166,0.208-0.331,0.417-0.49,0.632c-0.11,0.148-0.215,0.301-0.321,0.452c-0.133,0.189-0.265,0.38-0.393,0.574c-0.103,0.156-0.204,0.314-0.303,0.473c-0.127,0.204-0.25,0.41-0.371,0.619c-0.087,0.15-0.176,0.3-0.26,0.452c-0.156,0.284-0.305,0.571-0.448,0.862c-0.064,0.129-0.127,0.258-0.189,0.388c-0.149,0.317-0.292,0.637-0.428,0.961c-0.06,0.144-0.115,0.29-0.172,0.436c-0.098,0.251-0.194,0.503-0.283,0.758c-0.055,0.156-0.107,0.312-0.159,0.469c-0.086,0.264-0.167,0.53-0.244,0.798c-0.041,0.143-0.083,0.285-0.122,0.429c-0.098,0.369-0.187,0.742-0.267,1.119c-0.008,0.037-0.018,0.073-0.025,0.11l1.159-1.649c1.457-0.583,1.863-2.156,1.863-2.156c1.051-0.35,0.934-2.797,0.934-2.797l0.641-0.35l-0.406-0.35l0.99-1.049c-0.234,0.699,0.291,0.467,0.291,0.467l-0.58,1.685c1.514-0.466,0.99-1.806,0.99-1.806l1.455-1.107c1.691,0.233,3.672-3.029,3.672-3.029l-0.699,1.748c0.83-0.233,1.398-2.098,1.398-2.098l-1.166-0.059l2.391-1.281c2.621,0.015,2.752-0.642,2.752-0.642c0.305,0.059,2.131-0.45,1.484,0.044c-0.92,0.704-1.354,0.678-1.965,1.355l-0.234,1.048c0,0,1.133-0.491,2.156-1.515c0.133-0.132-0.021-0.334,0.117-0.466c0.168-0.161,0.625-0.251,0.736-0.381c0.971-0.184,0.982-0.261,0.982-0.261s0.787,0.525,2.068-0.758c2.213-0.466,2.448-0.932,0.053-1.014l-3.375,0.257l-1.047-0.232c2.445-0.059,8.284-0.466,8.284-0.466l-1.531,0.633l0.414,0.299l0.758,0.757c0,0,0.351,0.498,1.836,0.35c0.703-0.069-0.756,0.769-0.756,0.769l0.371,0.08c0,0,0.369-0.043,1.922-0.914l1.502-0.084c1.824,0.441,2.701,0.527,3.457,1.082c1.861,1.382,2.898,1.806,3.496,2.505c0.625,1.166,1.117,1.431,2.295,2.438c0.604,0.762,1.9,1.815,2.248,2.281c0.691,1.473,1.832,2.366,2.367,2.799c0.018,0.026,0.034,0.049,0.051,0.073C50.657,32.91,50.634,32.845,50.607,32.782z M10.014,42.893c-0.029,0.203,0.174,0.873,0.174,0.873c0.232-0.203,0.205-0.203,0.232-0.406c0.029-0.204-0.232-0.293,0-0.612C10.655,42.426,10.042,42.688,10.014,42.893z M9.985,39.979c-0.352,0.116-0.816,0.582-0.816,0.582c0.408,0.176,0.117,0.293,0.408,0.875s0.057,0.116,0.176-0.467C9.868,40.387,10.333,39.861,9.985,39.979z M8.995,43.328l0.32,0.176c0,0,0.611-0.204,0.262-0.292C9.227,43.125,8.995,43.328,8.995,43.328z M9.752,45.718c-0.816-0.641-0.525-1.166-0.176-1.516c0.502-0.501-0.641-0.408-0.699-0.175C8.819,44.26,8.762,44.96,8.762,44.96S9.344,45.834,9.752,45.718z"/>
</svg>