<?xml version="1.0" encoding="UTF-8"?>
<!DOCTYPE svg PUBLIC "-//W3C//DTD SVG 1.1 Tiny//EN" "http://www.w3.org/Graphics/SVG/1.1/DTD/svg11-tiny.dtd">
<svg baseProfile="tiny" height="32px" version="1.1" viewBox="0 0 32 32" width="32px" x="0px" xmlns="http://www.w3.org/2000/svg" xmlns:xlink="http://www.w3.org/1999/xlink" y="0px">
<rect fill="none" height="32" width="32"/>
<g>
<path d="M18.421,17.192l-1.375,2.796l-7.608,0.046L19.76,31.227L32,21.233v-1.357   c-1.871,0.023-4.68,0.057-5.082,0.061c1.281-2.707,4.352-9.194,4.352-9.194s-7.5-0.021-10.572-0.029   c1.264-2.654,4.311-9.057,4.311-9.057H14.984l-7.105,15.49L18.421,17.192z" fill="#FFFFFF"/>
</g>
<polygon points="28.309,12.609 17.73,12.58 22.037,3.533 16.178,3.533 10.734,15.17 21.332,15.191 18.195,21.848 13.688,21.848   19.943,28.653 28.342,21.797 23.938,21.848 "/>
<polygon fill="#FFFFFF" points="9.791,13.115 9.705,13.115 7.334,13.115 0.835,29.331 6.006,29.331 6.974,26.557 9.797,26.557   10.701,29.331 15.82,29.331 "/>
<path d="M11.75,27.889l-0.906-2.774H5.951l-0.97,2.774H2.97l5.342-13.331h0.476l4.956,13.331H11.75z M8.465,18.006l-2.039,5.789  h3.906L8.465,18.006z"/>
</svg>
