<?xml version="1.0" encoding="UTF-8" standalone="no"?>
<!DOCTYPE svg PUBLIC "-//W3C//DTD SVG 1.1 Tiny//EN" "http://www.w3.org/Graphics/SVG/1.1/DTD/svg11-tiny.dtd">
<svg xmlns="http://www.w3.org/2000/svg" xmlns:xlink="http://www.w3.org/1999/xlink" width="44" height="44" viewBox="0 0 44 44">
<rect fill="none" height="44" width="44"/>
<linearGradient id="SVGID_1" gradientUnits="userSpaceOnUse" x1="28.88" y1="15.26" x2="28.88" y2="28.68">
<stop stop-color="#B2B2B2" offset="0"/>
<stop stop-color="#000000" offset="1"/>
</linearGradient>
<path d="M26.596,17.077c4.502,4.498,0.155,9.708-0.028,9.927l1.959,1.672 c2.12-2.484,4.825-8.489-0.106-13.42L26.596,17.077z" fill="url(#SVGID_1)"/>
<linearGradient id="SVGID_2" gradientUnits="userSpaceOnUse" x1="35.09" y1="9.85" x2="35.09" y2="34.08">
<stop stop-color="#B2B2B2" offset="0"/>
<stop stop-color="#000000" offset="1"/>
</linearGradient>
<path d="M33.506,9.852l-1.82,1.822c9.402,9.404,0.396,20.282,0.009,20.739l1.961,1.67 C33.764,33.954,44.602,20.947,33.506,9.852z" fill="url(#SVGID_2)"/>
<linearGradient id="SVGID_3" gradientUnits="userSpaceOnUse" x1="15.07" y1="5.01" x2="15.07" y2="37.08">
<stop stop-color="#B2B2B2" offset="0"/>
<stop stop-color="#000000" offset="1"/>
</linearGradient>
<path d="M23.664,16.241l-7.072,5.351l7.028,7.686l-10.343,7.798l0.025-13.017L8.29,27.84L6.474,25.73 l6.336-4.773l-6.298-6.88l1.823-1.498l4.985,5.438l0.062-13.005L23.664,16.241z M15.974,11.344 c-0.006,2.532-0.019,4.756-0.032,7.248c1.775-1.331,3.437-2.599,3.947-2.975C18.964,14.605,17.657,13.182,15.974,11.344 M19.846,28.656c-0.493-0.549-2.155-2.362-3.921-4.292c-0.004,2.493-0.004,4.724-0.017,7.243 C17.601,30.344,18.916,29.35,19.846,28.656" fill="url(#SVGID_3)"/>
</svg>