<?xml version="1.0" encoding="UTF-8" standalone="no"?>
<!DOCTYPE svg PUBLIC "-//W3C//DTD SVG 1.1 Tiny//EN" "http://www.w3.org/Graphics/SVG/1.1/DTD/svg11-tiny.dtd">
<svg xmlns="http://www.w3.org/2000/svg" xmlns:xlink="http://www.w3.org/1999/xlink" width="26" height="26" viewBox="0 0 26 26">
<rect fill="none" height="26" width="26"/>
<path d="M4.813,5.482v4.121H0l4.332,7.533h0.48v3.347h18.958V5.482H4.813z M18.034,8.588l-1.653,1.653h-4.183l-1.651-1.653H18.034z M20.665,17.377H7.918v-0.24h0.678V11.15l2.29,2.283l0.239,0.236h0.335l5.669-0.003h0.337l0.237-0.237l2.962-2.955V17.377z"/>
<path d="M5.625,6.295v2.938h1.48V8.517l4.354,4.341l5.669-0.002l4.349-4.339v9.674H7.105v-0.684h-1.48v2.165h17.333 V6.295H5.625z M16.719,11.054h-4.856L8.585,7.776h11.411L16.719,11.054z" fill="#3C977B"/>
<path d="M4.802,16.325h2.981v-2.452h-4.39L4.802,16.325z M1.405,10.416l1.409,2.451h4.969v-2.451H1.405z" fill="#3C977B"/>
</svg>