<?xml version="1.0" encoding="UTF-8" standalone="no"?>
<!DOCTYPE svg PUBLIC "-//W3C//DTD SVG 1.1 Tiny//EN" "http://www.w3.org/Graphics/SVG/1.1/DTD/svg11-tiny.dtd">
<svg xmlns="http://www.w3.org/2000/svg" xmlns:xlink="http://www.w3.org/1999/xlink" width="33" height="33" viewBox="0 0 33 33">
<rect fill="none" height="33" width="33"/>
<path d="M27.984,0.621H0.523L0.467,23.682l27.561,0.027L27.984,0.621z" fill="#FFFFFF"/>
<polygon points="2.217,2.357 2.217,21.932 18.18,21.932 18.18,20.168 3.932,20.168 3.932,4.137 24.641,4.137 24.641,16.35 26.357,16.35 26.357,2.371 "/>
<path d="M14.9,8.225V6.584h-1.932V8.52l-5.781,5.799H5.076l3.92,3.883v-0.019h5.145V8.225H14.9z M12.969,14.318H9.107l3.861-3.867 v3.867H12.969z"/>
<path d="M20.762,14.348l-5.803-5.805V6.607h-1.934v1.936l-5.791,5.805l0.322,1.896l1.521,1.971h9.75l3.87-3.867H20.762z M13.025,10.48v3.867H9.156L13.025,10.48z M14.959,14.348V10.48l3.869,3.867L14.959,14.348L14.959,14.348z"/>
<path d="M15.701,15.586v15.631h15.504V15.586H15.701z" fill="#FFFFFF"/>
<rect height="12.451" width="12.793" x="17.057" y="17.176"/>
<rect fill="#FFFFFF" height="8.813" width="9.637" x="18.635" y="18.996"/>
<path d="M21.424,20.166v6.385l5.113-3.1L21.424,20.166z"/>
</svg>