<?xml version="1.0" encoding="UTF-8"?>
<!DOCTYPE svg PUBLIC "-//W3C//DTD SVG 1.1 Tiny//EN" "http://www.w3.org/Graphics/SVG/1.1/DTD/svg11-tiny.dtd">
<svg width="60" height="52" viewBox="-0.285 0.161 60 52">
<path d="M51.456,6.162H7.975c-1.245,0-2.259,1.014-2.259,2.259v35.481c0,1.246,1.014,2.26,2.259,2.26h43.481 c1.246,0,2.26-1.014,2.26-2.26V8.421C53.716,7.176,52.702,6.162,51.456,6.162z M52.716,43.902c0,0.694-0.565,1.26-1.26,1.26 H7.975c-0.694,0-1.259-0.565-1.259-1.26V8.421c0-0.694,0.564-1.259,1.259-1.259h43.481c0.694,0,1.26,0.564,1.26,1.259V43.902z" fill="#BACACC"/>
<g fill-opacity="0.5" stroke-opacity="0.5">
<linearGradient id="_2" gradientUnits="userSpaceOnUse" x1="29.72" y1="50.7" x2="29.72" y2="5.58">
<stop stop-color="#C7D9D9" offset="0.26"/>
<stop stop-color="#FFFFFF" offset="0.72"/>
</linearGradient>
<path d="M51.456,7.162H7.975c-0.694,0-1.259,0.564-1.259,1.259v35.481c0,0.694,0.564,1.26,1.259,1.26 h43.481c0.694,0,1.26-0.565,1.26-1.26V8.421C52.716,7.727,52.15,7.162,51.456,7.162z" fill="url(#_2)"/>
</g>
<path fill-opacity="0.3" d="M51.456,7.162H7.975c-0.694,0-1.259,0.564-1.259,1.259v35.481c0,0.694,0.564,1.26,1.259,1.26h43.481 c0.694,0,1.26-0.565,1.26-1.26V8.421C52.716,7.727,52.15,7.162,51.456,7.162z" fill="#FFFFFF"/>
<rect fill-opacity="0.3" fill="#496DA2" height="20" transform="matrix(0.7072 0.707 -0.707 0.7072 27.196 -13.3498)" width="3.771" x="27.831" y="16.162"/>
<circle cx="24.165" cy="20.611" fill="#496DA2" fill-opacity="0.3" r="3.15" />
<circle cx="35.266" cy="31.712" fill="#496DA2" fill-opacity="0.3" r="3.15" />
</svg>