<?xml version="1.0" encoding="UTF-8"?>
<!DOCTYPE svg PUBLIC "-//W3C//DTD SVG 1.1 Tiny//EN" "http://www.w3.org/Graphics/SVG/1.1/DTD/svg11-tiny.dtd">
<svg width="306" height="20" viewBox="0 0 306 20">
<linearGradient id="_39" gradientUnits="userSpaceOnUse" x1="137" y1="1" x2="137" y2="18.3">
<stop stop-color="#FFFFFF" offset="0"/>
<stop stop-color="#A2C2DD" offset="0.5"/>
<stop stop-color="#CADCEC" offset="0.98"/>
</linearGradient>
<rect x="131" y="1" fill-opacity="0.8" fill="url(#_39)" width="12" height="18"/>
<rect x="115" y="1" fill-opacity="0.8" fill="url(#_39)" width="12" height="18"/>
<rect x="99" y="1" fill-opacity="0.8" fill="url(#_39)" width="12" height="18"/>
<rect x="179" y="1" fill-opacity="0.8" fill="url(#_39)" width="12" height="18"/>
<rect x="163" y="1" fill-opacity="0.8" fill="url(#_39)" width="12" height="18"/>
<rect x="147" y="1" fill-opacity="0.8" fill="url(#_39)" width="12" height="18"/>
<rect x="67" y="1" fill-opacity="0.8" fill="url(#_39)" width="12" height="18"/>
<rect x="35" y="1" fill-opacity="0.8" fill="url(#_39)" width="12" height="18"/>
<rect x="4" y="1" fill-opacity="0.8" fill="url(#_39)" width="11" height="18"/>
<rect x="19" y="1" fill-opacity="0.8" fill="url(#_39)" width="12" height="18"/>
<rect x="195" y="1" fill-opacity="0.8" fill="url(#_39)" width="12" height="18"/>
<rect x="51" y="1" fill-opacity="0.8" fill="url(#_39)" width="12" height="18"/>
<rect x="83" y="1" fill-opacity="0.8" fill="url(#_39)" width="12" height="18"/>
<rect x="275" y="1" fill-opacity="0.8" fill="url(#_39)" width="12" height="18"/>
<rect x="227" y="1" fill-opacity="0.8" fill="url(#_39)" width="12" height="18"/>
<rect x="259" y="1" fill-opacity="0.8" fill="url(#_39)" width="12" height="18"/>
<rect x="211" y="1" fill-opacity="0.8" fill="url(#_39)" width="12" height="18"/>
<rect x="291" y="1" fill-opacity="0.8" fill="url(#_39)" width="11" height="18"/>
<rect x="243" y="1" fill-opacity="0.8" fill="url(#_39)" width="12" height="18"/>
<linearGradient id="_58" gradientUnits="userSpaceOnUse" x1="57" y1="-1.25" x2="57" y2="10">
<stop stop-color="#FFFFFF" offset="0"/>
<stop stop-color="#DEE9F3" offset="1"/>
</linearGradient>
<rect x="51" y="1" fill-opacity="0.2" fill="url(#_58)" width="12" height="9"/>
<rect x="83" y="1" fill-opacity="0.2" fill="url(#_58)" width="12" height="9"/>
<rect x="67" y="1" fill-opacity="0.2" fill="url(#_58)" width="12" height="9"/>
<rect x="35" y="1" fill-opacity="0.2" fill="url(#_58)" width="12" height="9"/>
<rect x="19" y="1" fill-opacity="0.2" fill="url(#_58)" width="12" height="9"/>
<rect x="4" y="1" fill-opacity="0.2" fill="url(#_58)" width="11" height="9"/>
<rect x="179" y="1" fill-opacity="0.2" fill="url(#_58)" width="12" height="9"/>
<rect x="243" y="1" fill-opacity="0.2" fill="url(#_58)" width="12" height="9"/>
<rect x="227" y="1" fill-opacity="0.2" fill="url(#_58)" width="12" height="9"/>
<rect x="259" y="1" fill-opacity="0.2" fill="url(#_58)" width="12" height="9"/>
<rect x="291" y="1" fill-opacity="0.2" fill="url(#_58)" width="11" height="9"/>
<rect x="211" y="1" fill-opacity="0.2" fill="url(#_58)" width="12" height="9"/>
<rect x="275" y="1" fill-opacity="0.2" fill="url(#_58)" width="12" height="9"/>
<rect x="163" y="1" fill-opacity="0.2" fill="url(#_58)" width="12" height="9"/>
<rect x="99" y="1" fill-opacity="0.2" fill="url(#_58)" width="12" height="9"/>
<rect x="147" y="1" fill-opacity="0.2" fill="url(#_58)" width="12" height="9"/>
<rect x="131" y="1" fill-opacity="0.2" fill="url(#_58)" width="12" height="9"/>
<rect x="195" y="1" fill-opacity="0.2" fill="url(#_58)" width="12" height="9"/>
<rect x="115" y="1" fill-opacity="0.2" fill="url(#_58)" width="12" height="9"/>
</svg>