<?xml version="1.0" encoding="UTF-8"?>
<!DOCTYPE svg PUBLIC "-//W3C//DTD SVG 1.1 Tiny//EN" "http://www.w3.org/Graphics/SVG/1.1/DTD/svg11-tiny.dtd">
<svg width="332" height="126" viewBox="-1.461 -0.386 332 126">
<path fill-opacity="0.01" fill="#656B6B" d="M20.539,9.614c-5.223,0.271-10.105,2.468-13.816,6.176 c-3.986,3.984-6.184,9.284-6.184,14.924v67.775c0,10.877,8.875,21.125,20.848,21.125c0.652,0,282.047,0,282.047,0 c13.844,0,25.105-11.266,25.105-25.115V30.713c0-5.639-2.197-10.939-6.189-14.926c-3.994-3.988-9.299-6.182-14.941-6.174H20.539z"/>
<path fill-opacity="0.02" fill="#656B6B" d="M21.539,10.623c-5.33,0.029-10.338,2.105-14.109,5.873 c-3.799,3.795-5.891,8.844-5.891,14.217v67.775c0,10.75,8.875,20.125,19.898,20.125c3.227,0,281.996,0,281.996,0 c13.293,0,24.105-10.818,24.105-24.115V30.713c0-5.371-2.094-10.42-5.896-14.219c-3.805-3.799-8.859-5.888-14.232-5.881 L21.539,10.623z"/>
<path fill-opacity="0.03" fill="#656B6B" d="M21.647,11.614c-5.105,0-9.902,1.985-13.51,5.59c-3.609,3.607-5.598,8.404-5.598,13.51 v67.775c0,10.125,8.25,19.125,18.949,19.125c0.551,0,281.945,0,281.945,0c12.74,0,23.105-10.369,23.105-23.115V30.713 c0-5.104-1.99-9.902-5.604-13.511c-3.615-3.61-8.418-5.595-13.523-5.589H21.647z"/>
<path fill-opacity="0.06" fill="#656B6B" d="M21.647,12.614c-4.838,0-9.385,1.881-12.803,5.298c-3.42,3.417-5.305,7.964-5.305,12.802 v67.775c0,9.33,7.5,18.125,18.125,18.121c0.625,0,281.77,0.004,281.77,0.004c12.189,0,22.105-9.92,22.105-22.115V30.713 c0-4.836-1.885-9.383-5.311-12.803c-3.426-3.422-7.977-5.303-12.816-5.297H21.647z"/>
<path fill-opacity="0.05" fill="#656B6B" d="M307.414,13.614h-267.5H21.772c-9.449,0-17.232,7.647-17.232,17.1l0.002,67.775 c0,8.859,7.373,17.125,17.123,17.125H302.44h0.994c11.639,0,21.105-9.473,21.105-21.115V30.713 C324.539,21.261,316.862,13.602,307.414,13.614z"/>
<path fill-opacity="0.1" fill="#656B6B" d="M306.789,14.614H21.772c-9.449,0-16.232,6.647-16.232,16.1l0.002,66.775 c-0.002,9.125,6.498,17.125,17.078,17.123l280.814,0.002c11.086,0,20.105-9.023,20.105-20.115V30.713 C323.539,21.261,315.789,14.614,306.789,14.614z"/>
<path fill-opacity="0.1" fill="#656B6B" d="M305.789,15.614H21.772c-9.449,0-15.232,5.647-15.232,15.1l0.002,65.775 c-0.002,9,5.123,17.125,17.105,17.125c0.518,0,279.787,0,279.787,0c10.535,0,19.105-8.574,19.105-19.115V30.713 C322.539,21.261,314.789,15.614,305.789,15.614z"/>
<path fill-opacity="0.1" fill="#656B6B" d="M304.914,16.614H22.789c-9.447,0-15.25,4.647-15.25,14.1l0.002,64.785 c-0.002,8.865,3.873,17.115,17.123,17.115h278.77c9.984,0,18.105-8.127,18.105-18.115V30.713 C321.539,21.261,313.539,16.614,304.914,16.614z"/>
<linearGradient id="_2" gradientUnits="userSpaceOnUse" x1="162.54" y1="100.72" x2="162.54" y2="36.52">
<stop stop-color="#D9F4E0" offset="0"/>
<stop stop-color="#FFFFFF" offset="1"/>
</linearGradient>
<path fill="url(#_2)" d="M303.434,13.614H21.647c-9.449,0-17.107,7.647-17.107,17.1v63.785 c0,9.451,7.658,17.115,17.107,17.115h281.787c9.447,0,17.105-7.664,17.105-17.115V30.713 C320.539,21.261,312.881,13.602,303.434,13.614z"/>
</svg>