<?xml version="1.0" encoding="UTF-8"?>
<!DOCTYPE svg PUBLIC "-//W3C//DTD SVG 1.1 Tiny//EN" "http://www.w3.org/Graphics/SVG/1.1/DTD/svg11-tiny.dtd">
<svg width="84" height="72" viewBox="0 0 84 72">
<linearGradient id="_38" gradientUnits="userSpaceOnUse" x1="44.43" y1="37.92" x2="54.34" y2="59.7">
<stop stop-color="#A2C2DD" offset="0.1"/>
<stop stop-color="#6C83BB" offset="0.71"/>
<stop stop-color="#003D6D" offset="0.99"/>
</linearGradient>
<path fill="url(#_38)" d="M34.956,11.656c0,0-1.986,6.055-2.158,6.577c-0.571-0.089-15.596-2.423-15.596-2.423 c-1.469-0.01-3.143,0.285-3.906,0.676c-0.119,0.062,1.478,35.172,1.478,35.172c0.006,0.152,22.338,6.16,22.557,6.217 c2.328,3.814,6.09,6.111,11.207,6.805c3.973,0.514,6.893-1.291,6.893-1.291c1.447-0.828,3.166-1.959,6.545-4.637 c3.119-2.471,3.426-13.887,3.426-13.887s-3.064-4.328-3.836-5.396c-0.623-0.795-1.43-1.354-1.471-1.385 c1.357-2.872,4.654-11.898,4.654-11.898s2.031,0.375,2.188,0.281c0.281,0,4.078-8.784,3.111-11.146 c-0.27-0.652-0.73-1.081-1.377-1.276l-32.808-3.303C35.25,10.624,34.956,11.656,34.956,11.656z"/>
<linearGradient id="_39" gradientUnits="userSpaceOnUse" x1="59.77" y1="31.97" x2="71.31" y2="14.07">
<stop stop-color="#FFFFFF" offset="0"/>
<stop stop-color="#A2C2DD" offset="0.35"/>
<stop stop-color="#6C83BB" offset="0.7"/>
<stop stop-color="#003D6D" offset="1"/>
</linearGradient>
<path fill="url(#_39)" d="M68.039,14.542c3.211,0.651,0.855,7.251-1.463,11.493l-2.951-0.342 C63.625,25.695,67.875,14.445,68.039,14.542z"/>
<linearGradient id="_40" gradientUnits="userSpaceOnUse" x1="49.9" y1="14.35" x2="45.78" y2="55.68">
<stop stop-color="#FFFFFF" offset="0"/>
<stop stop-color="#BFDAE1" offset="1"/>
</linearGradient>
<polygon fill="url(#_40)" points="56.75,39.32 32.875,19.695 35.802,11.347 66.34,14.835 "/>
<linearGradient id="_41" gradientUnits="userSpaceOnUse" x1="49.52" y1="10.08" x2="49.97" y2="28.24">
<stop stop-color="#FFFFFF" offset="0.15"/>
<stop stop-color="#A2C2DD" offset="1"/>
</linearGradient>
<path fill="url(#_41)" d="M56.25,41.07L32.875,19.32l2.578-7.782l31.074,3.953L56.25,41.07z M37.798,13.484 c-0.621-0.088-1.293,0.354-1.498,0.98c-0.209,0.626,0.125,1.207,0.738,1.293c0.615,0.088,1.287-0.354,1.5-0.98 C38.75,14.148,38.417,13.57,37.798,13.484z M36.412,17.609c-0.609-0.084-1.277,0.353-1.48,0.98 c-0.209,0.627,0.115,1.209,0.723,1.295c0.609,0.086,1.271-0.353,1.48-0.98C37.349,18.275,37.025,17.695,36.412,17.609z M62.354,17.284c-0.645-0.072-1.354,0.403-1.586,1.057c-0.231,0.654,0.099,1.244,0.736,1.313c0.637,0.072,1.346-0.4,1.58-1.057 C63.326,17.941,62.996,17.351,62.354,17.284z M60.801,21.584c-0.631-0.069-1.336,0.401-1.568,1.058 c-0.233,0.655,0.091,1.244,0.718,1.314c0.631,0.072,1.334-0.4,1.569-1.059C61.758,22.247,61.436,21.657,60.801,21.584z M59.25,25.888c-0.625-0.07-1.322,0.402-1.555,1.057c-0.23,0.656,0.082,1.244,0.703,1.318c0.615,0.07,1.313-0.404,1.551-1.059 C60.186,26.55,59.873,25.961,59.25,25.888z M57.695,30.191c-0.617-0.069-1.309,0.402-1.537,1.058 c-0.234,0.653,0.072,1.242,0.686,1.313c0.609,0.074,1.295-0.396,1.529-1.053C58.615,30.853,58.311,30.265,57.695,30.191z M56.143,34.496c-0.61-0.073-1.291,0.4-1.522,1.055c-0.233,0.653,0.063,1.247,0.668,1.321c0.601,0.069,1.278-0.399,1.519-1.057 C57.045,35.158,56.746,34.57,56.143,34.496z"/>
<linearGradient id="_42" gradientUnits="userSpaceOnUse" x1="64.12" y1="16.72" x2="59" y2="38.52">
<stop stop-color="#87A8CB" offset="0"/>
<stop stop-color="#235487" offset="1"/>
</linearGradient>
<path fill="url(#_42)" d="M65.555,15.495c0,0-9.129,27.335-11.186,27.302C57.875,48.695,67.465,15.4,68.25,14.564 C67.092,14.609,66.359,14.945,65.555,15.495z"/>
<linearGradient id="_43" gradientUnits="userSpaceOnUse" x1="51.39" y1="15.06" x2="52.15" y2="11.36">
<stop stop-color="#FFFFFF" offset="0.05"/>
<stop stop-color="#A2C2DD" offset="1"/>
</linearGradient>
<path fill="url(#_43)" d="M65.555,15.495c0.83-0.509,1.494-0.812,2.695-0.933l-30.182-3.008 c-1.295,0.071-1.929,0.104-2.813,0.504L65.555,15.495z"/>
<linearGradient id="_44" gradientUnits="userSpaceOnUse" x1="43.37" y1="50.82" x2="57.06" y2="23.53">
<stop stop-color="#FFFFFF" offset="0"/>
<stop stop-color="#A2C2DD" offset="0.35"/>
<stop stop-color="#6C83BB" offset="0.7"/>
<stop stop-color="#003D6D" offset="1"/>
</linearGradient>
<path fill="url(#_44)" d="M50.875,21.945c8.625-2,1.281,15.874,3.494,20.852l-4.619-7.352 C49.75,35.445,50.85,22.185,50.875,21.945z"/>
<linearGradient id="_45" gradientUnits="userSpaceOnUse" x1="50.35" y1="23.51" x2="49.33" y2="41.52">
<stop stop-color="#87A8CB" offset="0"/>
<stop stop-color="#235487" offset="1"/>
</linearGradient>
<path fill="url(#_45)" d="M48.096,35.195l0.07-10.405c-0.029-2.371,2.031-2.901,4.402-2.948 c-1.605,1.104-2.109,1.641-1.908,5.975l0.039,8.004L48.096,35.195z"/>
<linearGradient id="_46" gradientUnits="userSpaceOnUse" x1="30.85" y1="17.23" x2="33.01" y2="79.33">
<stop stop-color="#FFFFFF" offset="0.05"/>
<stop stop-color="#A2C2DD" offset="1"/>
</linearGradient>
<polygon fill="url(#_46)" points="47.57,60.148 15.5,51.279 14.191,16.986 47.697,23.041 "/>
<linearGradient id="_47" gradientUnits="userSpaceOnUse" x1="35.51" y1="10.8" x2="29.86" y2="45.11">
<stop stop-color="#FFFFFF" offset="0.05"/>
<stop stop-color="#A2C2DD" offset="1"/>
</linearGradient>
<path fill="url(#_47)" d="M47.924,60.199l-32.672-8.971l-1.309-34.292l34.258,6.609L47.924,60.199z M17.187,19.267 c-0.688-0.14-1.217,0.299-1.186,0.981c0.033,0.683,0.611,1.351,1.295,1.489c0.682,0.141,1.211-0.299,1.184-0.983 C18.453,20.075,17.871,19.408,17.187,19.267z M17.376,23.75c-0.678-0.141-1.201,0.299-1.168,0.98 c0.033,0.683,0.605,1.352,1.277,1.492c0.676,0.139,1.196-0.304,1.168-0.986C18.626,24.556,18.054,23.888,17.376,23.75z M17.566,28.232c-0.668-0.141-1.186,0.302-1.151,0.982c0.034,0.684,0.598,1.352,1.262,1.488c0.664,0.141,1.179-0.301,1.149-0.982 C18.798,29.038,18.236,28.374,17.566,28.232z M17.755,32.716c-0.66-0.143-1.17,0.299-1.139,0.98 c0.033,0.684,0.592,1.351,1.246,1.49c0.654,0.139,1.162-0.299,1.135-0.982S18.412,32.853,17.755,32.716z M17.941,37.201 c-0.649-0.143-1.153,0.301-1.121,0.98c0.031,0.684,0.584,1.35,1.228,1.487c0.646,0.14,1.147-0.301,1.121-0.981 C19.143,38.006,18.589,37.336,17.941,37.201z M18.125,41.682c-0.641-0.141-1.135,0.299-1.104,0.98 c0.028,0.684,0.573,1.354,1.209,1.49c0.637,0.141,1.129-0.301,1.104-0.982C19.306,42.486,18.765,41.818,18.125,41.682z M18.097,46.291c-0.648-0.141-1.152,0.301-1.119,0.98c0.031,0.686,0.582,1.352,1.228,1.487c0.646,0.142,1.147-0.299,1.118-0.979 C19.296,47.094,18.75,46.428,18.097,46.291z M44.525,25.238c-0.705-0.123-1.262,0.353-1.246,1.063 c0.018,0.709,0.602,1.387,1.301,1.51c0.697,0.125,1.252-0.35,1.242-1.059C45.811,26.041,45.23,25.363,44.525,25.238z M44.611,29.908c-0.695-0.129-1.244,0.349-1.229,1.061c0.017,0.711,0.591,1.389,1.279,1.512c0.688,0.125,1.239-0.352,1.228-1.063 C45.879,30.707,45.307,30.031,44.611,29.908z M44.697,34.572c-0.688-0.122-1.229,0.354-1.211,1.063 c0.016,0.711,0.58,1.388,1.262,1.513s1.223-0.354,1.211-1.063C45.947,35.375,45.383,34.697,44.697,34.572z M18.283,50.773 c-0.641-0.144-1.135,0.299-1.104,0.979c0,0.006,0,0.011,0,0.017l2.306,0.619c0.004-0.044,0.01-0.084,0.008-0.128 C19.466,51.58,18.923,50.912,18.283,50.773z"/>
<linearGradient id="_48" gradientUnits="userSpaceOnUse" x1="32.59" y1="21.87" x2="33.55" y2="18.23">
<stop stop-color="#FFFFFF" offset="0.05"/>
<stop stop-color="#A2C2DD" offset="1"/>
</linearGradient>
<path fill="url(#_48)" d="M48.396,23.529c0.467-1.002,2.801-1.893,4.172-1.688l-35.26-5.479 c-1.303-0.004-2.656,0.205-3.393,0.607L48.396,23.529z"/>
<linearGradient id="_49" gradientUnits="userSpaceOnUse" x1="52.31" y1="29.28" x2="19.13" y2="25.16">
<stop stop-color="#E6EEF4" offset="0"/>
<stop stop-color="#575AC6" offset="0.44"/>
<stop stop-color="#003D6D" offset="0.94"/>
</linearGradient>
<polygon fill="url(#_49)" points="41.637,29.045 41.635,27.449 33.822,25.904 33.836,27.359 "/>
<polygon fill="url(#_49)" points="32.605,27.09 32.586,25.66 25.208,24.201 25.23,25.494 "/>
<linearGradient id="_51" gradientUnits="userSpaceOnUse" x1="52.46" y1="28" x2="19.29" y2="23.89">
<stop stop-color="#E6EEF4" offset="0"/>
<stop stop-color="#575AC6" offset="0.44"/>
<stop stop-color="#003D6D" offset="0.94"/>
</linearGradient>
<polygon fill="url(#_51)" points="20.586,23.29 20.625,24.499 23.998,25.23 23.976,23.959 "/>
<polygon fill="url(#_49)" points="32.66,31.695 25.303,30.018 25.324,31.249 32.676,33.088 "/>
<polygon fill="url(#_49)" points="20.751,28.98 20.783,30.113 24.092,30.941 24.074,29.738 "/>
<polygon fill="url(#_49)" points="41.646,35.334 41.644,33.744 33.892,31.977 33.908,33.398 "/>
<polygon fill="url(#_49)" points="20.92,34.816 20.955,36.049 24.193,36.914 24.17,35.622 "/>
<polygon fill="url(#_49)" points="32.732,37.746 25.402,35.926 25.422,37.244 32.75,39.201 "/>
<polygon fill="url(#_49)" points="38.742,40.73 39.803,39.605 33.961,38.051 33.98,39.529 "/>
<polygon fill="url(#_49)" points="32.806,44.039 25.502,42.086 25.525,43.34 32.824,45.455 "/>
<polygon fill="url(#_49)" points="35.492,46.166 35.492,44.73 34.037,44.367 34.053,45.814 "/>
<polygon fill="url(#_49)" points="21.094,40.906 21.126,42.066 24.294,42.984 24.275,41.756 "/>
<linearGradient id="_61" gradientUnits="userSpaceOnUse" x1="50.05" y1="30.72" x2="45.11" y2="64.55">
<stop stop-color="#FFFFFF" offset="0.05"/>
<stop stop-color="#A2C2DD" offset="1"/>
</linearGradient>
<path fill="url(#_61)" d="M35.322,43.213l6.756-6.078l10.6,1.082l7.209,9.223c0,0,1.49,18.365-11.451,16.617 C31.875,61.82,35.322,43.213,35.322,43.213z"/>
<linearGradient id="_62" gradientUnits="userSpaceOnUse" x1="42.04" y1="36.74" x2="57.85" y2="36.74">
<stop stop-color="#FFFFFF" offset="0.05"/>
<stop stop-color="#A2C2DD" offset="1"/>
</linearGradient>
<polygon fill="url(#_62)" points="42.041,37.1 47.125,35.267 57.854,36.212 52.611,38.221 "/>
<linearGradient id="_63" gradientUnits="userSpaceOnUse" x1="52.61" y1="41.79" x2="64.64" y2="41.79">
<stop stop-color="#FFFFFF" offset="0.05"/>
<stop stop-color="#A2C2DD" offset="1"/>
</linearGradient>
<polygon fill="url(#_63)" points="52.611,38.221 57.854,36.212 64.637,44.891 59.832,47.365 "/>
<linearGradient id="_64" gradientUnits="userSpaceOnUse" x1="55.36" y1="36.38" x2="43.07" y2="60.83">
<stop stop-color="#FFFFFF" offset="0.15"/>
<stop stop-color="#A2C2DD" offset="1"/>
</linearGradient>
<path fill="url(#_64)" d="M57.088,49.932c1.424,5.447-1.602,10.57-6.754,11.443 c-5.154,0.871-10.485-2.838-11.909-8.281c-1.424-5.447,1.602-10.568,6.755-11.441C50.334,40.783,55.664,44.486,57.088,49.932 z"/>
<linearGradient id="_65" gradientUnits="userSpaceOnUse" x1="48.31" y1="45.19" x2="43.32" y2="64.49">
<stop stop-color="#87A8CB" offset="0"/>
<stop stop-color="#235487" offset="1"/>
</linearGradient>
<path fill="url(#_65)" d="M47.484,41.523c-17.717-0.267-7.818,27.506,6.475,18.381 C38,62.529,36.642,42.383,47.484,41.523z"/>
<linearGradient id="_66" gradientUnits="userSpaceOnUse" x1="57.95" y1="41.62" x2="61.2" y2="62.23">
<stop stop-color="#FFFFFF" offset="0"/>
<stop stop-color="#A2C2DD" offset="0.35"/>
<stop stop-color="#6C83BB" offset="0.7"/>
<stop stop-color="#003D6D" offset="1"/>
</linearGradient>
<path fill="url(#_66)" d="M64.637,44.891l-4.805,2.476L59.83,47.37l0.057,0.069c0,0,0.623,10.556-4.762,15.381 c1.295-0.786,2.953-1.866,6.352-4.559C64.875,55.568,64.637,44.891,64.637,44.891z"/>
<linearGradient id="_67" gradientUnits="userSpaceOnUse" x1="57.88" y1="37.28" x2="60.81" y2="42.9">
<stop stop-color="#E6EEF4" offset="0"/>
<stop stop-color="#C03A3A" offset="0.44"/>
<stop stop-color="#302D02" offset="0.94"/>
</linearGradient>
<path fill="url(#_67)" d="M61.357,40.066c0.776,1.271,0.664,2.617-0.252,3.004c-0.918,0.393-2.291-0.324-3.07-1.6 c-0.777-1.269-0.664-2.615,0.254-3.003C59.205,38.078,60.578,38.795,61.357,40.066z"/>
<linearGradient id="_68" gradientUnits="userSpaceOnUse" x1="57.58" y1="38.64" x2="60.68" y2="41">
<stop stop-color="#E3DFE4" offset="0"/>
<stop stop-color="#C03A3A" offset="1"/>
</linearGradient>
<path fill="url(#_68)" d="M61.33,39.957c0.758,1.166,0.783,2.35,0.061,2.646c-0.725,0.297-1.928-0.402-2.684-1.564 c-0.756-1.166-0.783-2.352-0.061-2.65C59.371,38.09,60.57,38.791,61.33,39.957z"/>
<linearGradient id="_69" gradientUnits="userSpaceOnUse" x1="43.33" y1="32.19" x2="57.18" y2="39.39">
<stop stop-color="#E6EEF4" offset="0"/>
<stop stop-color="#C03A3A" offset="0.44"/>
<stop stop-color="#302D02" offset="0.94"/>
</linearGradient>
<path fill="url(#_69)" d="M50.777,34.341c2.068,0.137,3.438,0.914,3.063,1.719c-0.375,0.797-2.354,1.252-4.428,1.034 c-2.064-0.199-3.438-0.926-3.063-1.639C46.727,34.73,48.711,34.224,50.777,34.341z"/>
<linearGradient id="_70" gradientUnits="userSpaceOnUse" x1="47.11" y1="36.34" x2="51.55" y2="34.57">
<stop stop-color="#E3DFE4" offset="0"/>
<stop stop-color="#C03A3A" offset="1"/>
</linearGradient>
<path fill="url(#_70)" d="M50.607,34.39c1.768,0.105,2.988,0.535,2.725,0.946c-0.262,0.41-1.781,0.729-3.549,0.581 c-1.77-0.137-3.109-0.654-2.848-1.025C47.201,34.523,48.844,34.292,50.607,34.39z"/>
<linearGradient id="_71" gradientUnits="userSpaceOnUse" x1="49" y1="39.73" x2="46.79" y2="60.94">
<stop stop-color="#E6EEF4" offset="0"/>
<stop stop-color="#C03A3A" offset="0.44"/>
<stop stop-color="#302D02" offset="0.94"/>
</linearGradient>
<path fill="url(#_71)" d="M48.615,52.795l0.061,1.332l-1.582-0.381l0.029-1.104c-1.461-0.588-1.145-2.552,0.104-2.843 l0.258-7.262l0.584,0.103l0.394,7.284C49.4,50.387,49.99,51.949,48.615,52.795z M47.652,50.566 c-0.437,0.074-0.688,0.504-0.566,0.961c0.119,0.457,0.566,0.768,1,0.692c0.432-0.069,0.686-0.502,0.566-0.954 C48.533,50.805,48.086,50.494,47.652,50.566z"/>
<polygon fill="url(#_51)" points="25.614,47.707 25.634,48.955 32.889,51.115 32.873,49.705 "/>
<polygon fill="url(#_49)" points="35.626,51.854 35.335,50.4 34.1,50.043 34.116,51.48 "/>
<polygon fill="url(#_49)" points="21.289,46.516 21.322,47.672 24.409,48.59 24.389,47.367 "/>
</svg>