<?xml version="1.0" encoding="UTF-8"?>
<!DOCTYPE svg PUBLIC "-//W3C//DTD SVG 1.1 Tiny//EN" "http://www.w3.org/Graphics/SVG/1.1/DTD/svg11-tiny.dtd">
<svg width="84" height="72" viewBox="0 0 84 72">
<linearGradient id="_37" gradientUnits="userSpaceOnUse" x1="44.39" y1="37.96" x2="54.3" y2="59.74">
<stop stop-color="#A2C2DD" offset="0.1"/>
<stop stop-color="#6C83BB" offset="0.71"/>
<stop stop-color="#003D6D" offset="0.99"/>
</linearGradient>
<path fill="url(#_37)" d="M34.913,11.695c0,0-1.986,6.055-2.158,6.577c-0.571-0.089-15.596-2.423-15.596-2.423 c-1.469-0.01-3.143,0.285-3.906,0.676c-0.119,0.062,1.478,35.17,1.478,35.17c0.006,0.154,22.338,6.16,22.557,6.22 c2.328,3.813,6.09,6.11,11.208,6.803c3.973,0.517,6.893-1.291,6.893-1.291c1.447-0.827,3.166-1.959,6.545-4.635 c3.119-2.472,3.426-13.89,3.426-13.89s-3.064-4.327-3.836-5.395c-0.623-0.797-1.43-1.355-1.471-1.385 c1.357-2.873,4.654-11.899,4.654-11.899s2.031,0.375,2.188,0.281c0.281,0,4.078-8.784,3.11-11.146 c-0.269-0.652-0.729-1.081-1.377-1.276L35.82,10.781C35.206,10.663,34.913,11.695,34.913,11.695z"/>
<linearGradient id="_38" gradientUnits="userSpaceOnUse" x1="59.8" y1="31.93" x2="71.35" y2="14.03">
<stop stop-color="#FFFFFF" offset="0"/>
<stop stop-color="#A2C2DD" offset="0.35"/>
<stop stop-color="#6C83BB" offset="0.7"/>
<stop stop-color="#003D6D" offset="1"/>
</linearGradient>
<path fill="url(#_38)" d="M68.074,14.501c3.211,0.651,0.855,7.251-1.463,11.493l-2.951-0.342 C63.66,25.654,67.91,14.404,68.074,14.501z"/>
<linearGradient id="_39" gradientUnits="userSpaceOnUse" x1="49.93" y1="14.31" x2="45.81" y2="55.64">
<stop stop-color="#FFFFFF" offset="0"/>
<stop stop-color="#BFDAE1" offset="1"/>
</linearGradient>
<polygon fill="url(#_39)" points="56.785,39.279 32.91,19.654 35.837,11.307 66.375,14.795 "/>
<linearGradient id="_40" gradientUnits="userSpaceOnUse" x1="49.56" y1="10.04" x2="50" y2="28.2">
<stop stop-color="#FFFFFF" offset="0.15"/>
<stop stop-color="#A2C2DD" offset="1"/>
</linearGradient>
<path fill="url(#_40)" d="M56.285,41.029L32.91,19.279l2.578-7.782l31.075,3.953L56.285,41.029z M37.833,13.443 c-0.621-0.088-1.293,0.354-1.498,0.98c-0.209,0.626,0.125,1.207,0.738,1.293c0.615,0.088,1.287-0.354,1.5-0.98 C38.785,14.107,38.453,13.529,37.833,13.443z M36.446,17.568c-0.609-0.084-1.277,0.353-1.48,0.98 c-0.209,0.627,0.115,1.209,0.723,1.295c0.609,0.086,1.27-0.353,1.48-0.98C37.385,18.234,37.061,17.654,36.446,17.568z M62.389,17.243c-0.645-0.072-1.354,0.403-1.586,1.057c-0.232,0.654,0.098,1.244,0.736,1.313c0.637,0.072,1.346-0.4,1.58-1.057 C63.361,17.9,63.031,17.311,62.389,17.243z M60.836,21.544c-0.631-0.069-1.336,0.401-1.568,1.058 c-0.232,0.655,0.09,1.244,0.717,1.314c0.633,0.072,1.334-0.4,1.57-1.059C61.793,22.206,61.471,21.616,60.836,21.544z M59.285,25.848c-0.625-0.07-1.322,0.402-1.555,1.057c-0.23,0.656,0.082,1.244,0.703,1.318c0.613,0.07,1.313-0.404,1.551-1.059 C60.221,26.51,59.908,25.921,59.285,25.848z M57.73,30.15c-0.617-0.069-1.311,0.402-1.537,1.058 c-0.234,0.653,0.072,1.242,0.686,1.313c0.609,0.074,1.295-0.396,1.529-1.053C58.65,30.813,58.346,30.225,57.73,30.15z M56.178,34.455c-0.611-0.073-1.291,0.4-1.523,1.055c-0.232,0.653,0.064,1.246,0.67,1.32c0.6,0.07,1.277-0.398,1.518-1.057 C57.08,35.117,56.781,34.529,56.178,34.455z"/>
<linearGradient id="_41" gradientUnits="userSpaceOnUse" x1="64.15" y1="16.68" x2="59.04" y2="38.48">
<stop stop-color="#87A8CB" offset="0"/>
<stop stop-color="#235487" offset="1"/>
</linearGradient>
<path fill="url(#_41)" d="M65.59,15.454c0,0-9.129,27.335-11.186,27.302C57.91,48.654,67.5,15.359,68.285,14.523 C67.127,14.568,66.395,14.904,65.59,15.454z"/>
<linearGradient id="_42" gradientUnits="userSpaceOnUse" x1="51.43" y1="15.02" x2="52.19" y2="11.32">
<stop stop-color="#FFFFFF" offset="0.05"/>
<stop stop-color="#A2C2DD" offset="1"/>
</linearGradient>
<path fill="url(#_42)" d="M65.59,15.454c0.83-0.509,1.494-0.812,2.695-0.933l-30.183-3.008 c-1.295,0.071-1.928,0.104-2.813,0.504L65.59,15.454z"/>
<linearGradient id="_43" gradientUnits="userSpaceOnUse" x1="43.41" y1="50.78" x2="57.09" y2="23.49">
<stop stop-color="#FFFFFF" offset="0"/>
<stop stop-color="#A2C2DD" offset="0.35"/>
<stop stop-color="#6C83BB" offset="0.7"/>
<stop stop-color="#003D6D" offset="1"/>
</linearGradient>
<path fill="url(#_43)" d="M50.91,21.904c8.625-2,1.281,15.874,3.494,20.852l-4.619-7.352 C49.785,35.404,50.885,22.145,50.91,21.904z"/>
<linearGradient id="_44" gradientUnits="userSpaceOnUse" x1="50.39" y1="23.47" x2="49.36" y2="41.48">
<stop stop-color="#87A8CB" offset="0"/>
<stop stop-color="#235487" offset="1"/>
</linearGradient>
<path fill="url(#_44)" d="M48.131,35.154l0.07-10.405c-0.029-2.371,2.031-2.901,4.402-2.948 c-1.605,1.104-2.109,1.641-1.908,5.975l0.039,8.004L48.131,35.154z"/>
<linearGradient id="_45" gradientUnits="userSpaceOnUse" x1="30.88" y1="17.19" x2="33.05" y2="79.29">
<stop stop-color="#FFFFFF" offset="0.05"/>
<stop stop-color="#A2C2DD" offset="1"/>
</linearGradient>
<polygon fill="url(#_45)" points="47.605,60.107 15.535,51.238 14.227,16.945 47.732,23 "/>
<linearGradient id="_46" gradientUnits="userSpaceOnUse" x1="35.55" y1="10.76" x2="29.89" y2="45.07">
<stop stop-color="#FFFFFF" offset="0.05"/>
<stop stop-color="#A2C2DD" offset="1"/>
</linearGradient>
<path fill="url(#_46)" d="M47.959,60.158l-32.672-8.971l-1.308-34.292l34.257,6.609L47.959,60.158z M17.223,19.227 c-0.689-0.14-1.217,0.299-1.186,0.981c0.033,0.683,0.611,1.351,1.295,1.489c0.682,0.141,1.211-0.299,1.184-0.983 C18.487,20.034,17.906,19.367,17.223,19.227z M17.412,23.709c-0.678-0.141-1.201,0.299-1.168,0.98 c0.033,0.683,0.605,1.352,1.277,1.492c0.676,0.139,1.197-0.304,1.168-0.986C18.662,24.516,18.089,23.848,17.412,23.709z M17.602,28.191c-0.668-0.141-1.186,0.302-1.152,0.982c0.035,0.684,0.598,1.352,1.262,1.488c0.664,0.141,1.178-0.301,1.15-0.982 C18.833,28.997,18.271,28.333,17.602,28.191z M17.791,32.676c-0.66-0.143-1.17,0.299-1.139,0.98 c0.033,0.684,0.592,1.351,1.246,1.49s1.162-0.299,1.135-0.982C19.005,33.48,18.446,32.813,17.791,32.676z M17.977,37.16 c-0.65-0.143-1.154,0.301-1.121,0.98c0.031,0.684,0.584,1.35,1.227,1.486c0.646,0.141,1.148-0.301,1.121-0.98 C19.177,37.965,18.625,37.295,17.977,37.16z M18.16,41.641c-0.641-0.141-1.135,0.299-1.104,0.98 c0.029,0.684,0.574,1.354,1.209,1.49c0.637,0.141,1.129-0.301,1.104-0.982C19.341,42.445,18.8,41.777,18.16,41.641z M18.132,46.25 c-0.648-0.141-1.152,0.301-1.119,0.98c0.031,0.686,0.582,1.352,1.227,1.486c0.646,0.143,1.148-0.299,1.119-0.979 C19.332,47.053,18.785,46.387,18.132,46.25z M44.561,25.197c-0.705-0.123-1.262,0.353-1.246,1.063 c0.02,0.709,0.604,1.387,1.303,1.51c0.695,0.125,1.252-0.35,1.24-1.059C45.846,26,45.266,25.322,44.561,25.197z M44.646,29.867 c-0.695-0.129-1.244,0.349-1.229,1.061c0.017,0.711,0.59,1.389,1.278,1.512c0.688,0.125,1.24-0.352,1.228-1.063 C45.914,30.666,45.342,29.99,44.646,29.867z M44.732,34.531c-0.688-0.122-1.229,0.354-1.211,1.063 c0.016,0.711,0.58,1.389,1.262,1.514s1.223-0.354,1.211-1.063C45.982,35.334,45.418,34.656,44.732,34.531z M18.317,50.732 c-0.641-0.145-1.135,0.299-1.104,0.979c0,0.006,0,0.012,0,0.018l2.305,0.619c0.004-0.043,0.01-0.084,0.008-0.129 C19.501,51.539,18.958,50.871,18.317,50.732z"/>
<linearGradient id="_47" gradientUnits="userSpaceOnUse" x1="32.63" y1="21.83" x2="33.59" y2="18.19">
<stop stop-color="#FFFFFF" offset="0.05"/>
<stop stop-color="#A2C2DD" offset="1"/>
</linearGradient>
<path fill="url(#_47)" d="M48.432,23.488c0.467-1.002,2.801-1.893,4.172-1.688l-35.258-5.479 c-1.303-0.004-2.656,0.205-3.393,0.607L48.432,23.488z"/>
<linearGradient id="_48" gradientUnits="userSpaceOnUse" x1="41.97" y1="52.48" x2="20.43" y2="48.01">
<stop stop-color="#E6EEF4" offset="0"/>
<stop stop-color="#9646AC" offset="0.44"/>
<stop stop-color="#3D013F" offset="0.94"/>
</linearGradient>
<polygon fill="url(#_48)" points="25.632,47.671 25.667,49.863 32.937,52.029 32.91,49.675 "/>
<polygon fill="url(#_48)" points="21.252,46.466 21.371,48.583 24.438,49.496 24.404,47.333 "/>
<linearGradient id="_50" gradientUnits="userSpaceOnUse" x1="50.92" y1="32.27" x2="21.27" y2="21.21">
<stop stop-color="#D6E6EC" offset="0"/>
<stop stop-color="#298595" offset="1"/>
</linearGradient>
<polygon fill="url(#_50)" points="41.672,29.005 41.67,27.408 33.856,25.863 33.872,27.318 "/>
<polygon fill="url(#_50)" points="32.64,27.05 32.622,25.619 25.244,24.16 25.265,25.453 "/>
<polygon fill="url(#_50)" points="20.622,23.249 20.66,24.458 24.033,25.189 24.011,23.919 "/>
<polygon fill="url(#_50)" points="32.695,31.654 25.338,29.978 25.358,31.208 32.711,33.048 "/>
<polygon fill="url(#_50)" points="20.787,28.939 20.817,30.072 24.127,30.9 24.108,29.697 "/>
<polygon fill="url(#_50)" points="41.681,35.294 41.679,33.703 33.927,31.937 33.942,33.357 "/>
<polygon fill="url(#_50)" points="20.956,34.775 20.99,36.009 24.228,36.874 24.206,35.581 "/>
<polygon fill="url(#_50)" points="32.767,37.706 25.437,35.886 25.458,37.203 32.785,39.16 "/>
<polygon fill="url(#_50)" points="38.776,40.689 39.838,39.564 33.997,38.011 34.015,39.488 "/>
<polygon fill="url(#_50)" points="32.841,43.999 25.538,42.046 25.56,43.3 32.858,45.415 "/>
<polygon fill="url(#_50)" points="35.526,46.126 35.526,44.689 34.072,44.326 34.088,45.773 "/>
<polygon fill="url(#_50)" points="21.129,40.865 21.162,42.025 24.33,42.943 24.31,41.716 "/>
<linearGradient id="_62" gradientUnits="userSpaceOnUse" x1="50.08" y1="30.68" x2="45.14" y2="64.51">
<stop stop-color="#FFFFFF" offset="0.05"/>
<stop stop-color="#A2C2DD" offset="1"/>
</linearGradient>
<path fill="url(#_62)" d="M35.356,43.172l6.756-6.078l10.601,1.082l7.209,9.223c0,0,1.49,18.365-11.451,16.617 C31.91,61.779,35.356,43.172,35.356,43.172z"/>
<linearGradient id="_63" gradientUnits="userSpaceOnUse" x1="42.08" y1="36.7" x2="57.89" y2="36.7">
<stop stop-color="#FFFFFF" offset="0.05"/>
<stop stop-color="#A2C2DD" offset="1"/>
</linearGradient>
<polygon fill="url(#_63)" points="42.076,37.059 47.16,35.227 57.889,36.172 52.646,38.18 "/>
<linearGradient id="_64" gradientUnits="userSpaceOnUse" x1="52.65" y1="41.75" x2="64.67" y2="41.75">
<stop stop-color="#FFFFFF" offset="0.05"/>
<stop stop-color="#A2C2DD" offset="1"/>
</linearGradient>
<polygon fill="url(#_64)" points="52.646,38.18 57.889,36.172 64.672,44.85 59.867,47.324 "/>
<linearGradient id="_65" gradientUnits="userSpaceOnUse" x1="55.4" y1="36.34" x2="43.11" y2="60.79">
<stop stop-color="#FFFFFF" offset="0.15"/>
<stop stop-color="#A2C2DD" offset="1"/>
</linearGradient>
<path fill="url(#_65)" d="M57.123,49.891c1.424,5.447-1.602,10.57-6.754,11.443 c-5.154,0.871-10.484-2.838-11.909-8.281c-1.424-5.447,1.602-10.568,6.754-11.441C50.369,40.742,55.699,44.445,57.123,49.891 z"/>
<linearGradient id="_66" gradientUnits="userSpaceOnUse" x1="48.35" y1="45.15" x2="43.36" y2="64.45">
<stop stop-color="#87A8CB" offset="0"/>
<stop stop-color="#235487" offset="1"/>
</linearGradient>
<path fill="url(#_66)" d="M47.52,41.482c-17.715-0.268-7.816,27.506,6.477,18.381 C38.035,62.488,36.678,42.342,47.52,41.482z"/>
<linearGradient id="_67" gradientUnits="userSpaceOnUse" x1="57.99" y1="41.59" x2="61.24" y2="62.19">
<stop stop-color="#FFFFFF" offset="0"/>
<stop stop-color="#A2C2DD" offset="0.35"/>
<stop stop-color="#6C83BB" offset="0.7"/>
<stop stop-color="#003D6D" offset="1"/>
</linearGradient>
<path fill="url(#_67)" d="M64.672,44.85l-4.805,2.477l-0.002,0.004l0.057,0.068c0,0,0.623,10.557-4.762,15.383 c1.295-0.787,2.953-1.867,6.352-4.561S64.672,44.85,64.672,44.85z"/>
<linearGradient id="_68" gradientUnits="userSpaceOnUse" x1="57.91" y1="37.24" x2="60.84" y2="42.86">
<stop stop-color="#E6EEF4" offset="0"/>
<stop stop-color="#C03A3A" offset="0.44"/>
<stop stop-color="#302D02" offset="0.94"/>
</linearGradient>
<path fill="url(#_68)" d="M61.393,40.025c0.777,1.271,0.664,2.617-0.252,3.004c-0.918,0.393-2.291-0.324-3.07-1.6 c-0.775-1.27-0.662-2.615,0.256-3.004C59.24,38.037,60.613,38.754,61.393,40.025z"/>
<linearGradient id="_69" gradientUnits="userSpaceOnUse" x1="57.61" y1="38.6" x2="60.71" y2="40.96">
<stop stop-color="#E3DFE4" offset="0"/>
<stop stop-color="#C03A3A" offset="1"/>
</linearGradient>
<path fill="url(#_69)" d="M61.365,39.916c0.758,1.166,0.783,2.35,0.061,2.646c-0.725,0.297-1.928-0.402-2.684-1.564 c-0.756-1.166-0.783-2.352-0.061-2.65C59.406,38.049,60.605,38.75,61.365,39.916z"/>
<linearGradient id="_70" gradientUnits="userSpaceOnUse" x1="43.36" y1="32.15" x2="57.22" y2="39.35">
<stop stop-color="#E6EEF4" offset="0"/>
<stop stop-color="#C03A3A" offset="0.44"/>
<stop stop-color="#302D02" offset="0.94"/>
</linearGradient>
<path fill="url(#_70)" d="M50.813,34.301c2.068,0.137,3.438,0.914,3.063,1.719c-0.375,0.796-2.354,1.251-4.428,1.033 c-2.064-0.199-3.438-0.926-3.063-1.639C46.762,34.689,48.746,34.184,50.813,34.301z"/>
<linearGradient id="_71" gradientUnits="userSpaceOnUse" x1="47.15" y1="36.3" x2="51.58" y2="34.53">
<stop stop-color="#E3DFE4" offset="0"/>
<stop stop-color="#C03A3A" offset="1"/>
</linearGradient>
<path fill="url(#_71)" d="M50.643,34.35c1.77,0.105,2.988,0.535,2.727,0.946c-0.264,0.41-1.781,0.729-3.551,0.581 c-1.77-0.137-3.107-0.654-2.848-1.025C47.236,34.482,48.879,34.252,50.643,34.35z"/>
<linearGradient id="_72" gradientUnits="userSpaceOnUse" x1="49.03" y1="39.69" x2="46.83" y2="60.9">
<stop stop-color="#E6EEF4" offset="0"/>
<stop stop-color="#C03A3A" offset="0.44"/>
<stop stop-color="#302D02" offset="0.94"/>
</linearGradient>
<path fill="url(#_72)" d="M48.65,52.754l0.061,1.332l-1.582-0.381l0.029-1.104c-1.461-0.588-1.145-2.553,0.104-2.844 l0.258-7.262l0.584,0.104l0.395,7.283C49.436,50.346,50.025,51.908,48.65,52.754z M47.688,50.525 C47.252,50.6,47,51.029,47.121,51.486c0.119,0.457,0.566,0.768,1,0.693c0.432-0.07,0.686-0.504,0.566-0.955 C48.568,50.764,48.121,50.453,47.688,50.525z"/>
</svg>