<?xml version="1.0" encoding="UTF-8"?>
<!DOCTYPE svg PUBLIC "-//W3C//DTD SVG 1.1 Tiny//EN" "http://www.w3.org/Graphics/SVG/1.1/DTD/svg11-tiny.dtd">
<svg baseProfile="tiny" height="44px" version="1.1" viewBox="0 0 44 44" width="44px" x="0px" xmlns="http://www.w3.org/2000/svg" xmlns:xlink="http://www.w3.org/1999/xlink" y="0px">
<g>
<g>
<g>
<linearGradient gradientUnits="userSpaceOnUse" id="SVGID_1_" x1="21.9995" x2="21.9995" y1="-10.1426" y2="43.6209">
<stop offset="0" style="stop-color:#B2B2B2"/>
<stop offset="1" style="stop-color:#000000"/>
</linearGradient>
<path d="M8.779,21.996c0,7.295,5.928,13.223,13.217,13.223c7.291,0,13.224-5.928,13.224-13.223     c0-7.287-5.933-13.217-13.224-13.217C14.707,8.779,8.779,14.709,8.779,21.996z M12.1,21.996c0-5.492,4.471-9.961,9.963-9.961     c5.496,0,9.966,4.469,9.966,9.961c0,5.498-4.47,9.965-9.966,9.965C16.57,31.961,12.1,27.494,12.1,21.996z" fill="url(#SVGID_1_)"/>
</g>
<linearGradient gradientUnits="userSpaceOnUse" id="SVGID_2_" x1="24.8301" x2="24.8301" y1="-15.5552" y2="49.2827">
<stop offset="0" style="stop-color:#B2B2B2"/>
<stop offset="1" style="stop-color:#000000"/>
</linearGradient>
<polygon fill="url(#SVGID_2_)" points="20.482,24.654 20.482,13.063 23.378,13.063 23.378,21.758 29.178,21.758 29.178,24.654       "/>
</g>
<rect fill="none" fill-opacity="0.48" height="44" stroke-opacity="0.48" width="44"/>
</g>
</svg>
