<?xml version="1.0" encoding="UTF-8"?>
<!DOCTYPE svg PUBLIC "-//W3C//DTD SVG 1.1 Tiny//EN" "http://www.w3.org/Graphics/SVG/1.1/DTD/svg11-tiny.dtd">
<svg width="84" height="58" viewBox="0 0 84 58">
<linearGradient id="_16" gradientUnits="userSpaceOnUse" x1="41.52" y1="30.81" x2="51.53" y2="50.52">
<stop stop-color="#A2C2DD" offset="0.1"/>
<stop stop-color="#6C83BB" offset="0.71"/>
<stop stop-color="#003D6D" offset="0.99"/>
</linearGradient>
<path fill="url(#_16)" d="M33.248,10.083c0,0,0.66,7.772,0.751,8.586c-0.623-0.093-2.309-0.345-2.309-0.345l-3.053,0.944 c0,0,0.889,1.401,1.19,1.877c-0.794,0.281-19.972,7.081-19.972,7.081l3.096,11.219l32.841,13.834l25.156-14.758l2.461-9.825 c0,0-21.362-4.804-22.486-5.057c0.425-0.459,1.564-1.809,1.564-1.809s-6.587-1.2-7.191-1.311 c0.096-0.634,1.826-11.395,1.826-11.395l-8.844-1.136L33.248,10.083z"/>
<linearGradient id="_17" gradientUnits="userSpaceOnUse" x1="19.53" y1="41.58" x2="30.53" y2="15.58">
<stop stop-color="#FFFFFF" offset="0"/>
<stop stop-color="#A2C2DD" offset="0.35"/>
<stop stop-color="#6C83BB" offset="0.7"/>
<stop stop-color="#003D6D" offset="1"/>
</linearGradient>
<polygon fill="url(#_17)" points="33.734,21.565 35.532,29.692 16.916,37.76 13.921,28.905 "/>
<linearGradient id="_18" gradientUnits="userSpaceOnUse" x1="-8.13" y1="56.51" x2="57.62" y2="22.76">
<stop stop-color="#FFFFFF" offset="0"/>
<stop stop-color="#A2C2DD" offset="0.35"/>
<stop stop-color="#6C83BB" offset="0.7"/>
<stop stop-color="#003D6D" offset="1"/>
</linearGradient>
<polygon fill="url(#_18)" points="69.138,29.926 33.734,21.565 35.532,29.691 16.916,37.76 39.342,45.6 "/>
<linearGradient id="_19" gradientUnits="userSpaceOnUse" x1="62.85" y1="24.04" x2="59.3" y2="39.98">
<stop stop-color="#FFFFFF" offset="0.05"/>
<stop stop-color="#A2C2DD" offset="1"/>
</linearGradient>
<polygon fill="url(#_19)" points="73.023,28.96 70.682,38.3 45.786,52.907 48.005,40.101 "/>
<linearGradient id="_20" gradientUnits="userSpaceOnUse" x1="19.1" y1="38.62" x2="24.92" y2="21.63">
<stop stop-color="#FFFFFF" offset="0.05"/>
<stop stop-color="#A2C2DD" offset="1"/>
</linearGradient>
<polygon fill="url(#_20)" points="21.062,29.604 17.96,30.745 20.497,38.278 23.575,36.736 "/>
<linearGradient id="_21" gradientUnits="userSpaceOnUse" x1="9.17" y1="26.4" x2="36.03" y2="44.28">
<stop stop-color="#FFFFFF" offset="0.05"/>
<stop stop-color="#A2C2DD" offset="1"/>
</linearGradient>
<polygon fill="url(#_21)" points="23.575,36.736 20.497,38.278 39.342,45.6 41.087,43.303 "/>
<linearGradient id="_22" gradientUnits="userSpaceOnUse" x1="19.63" y1="39.04" x2="93.31" y2="4.45">
<stop stop-color="#FFFFFF" offset="0.05"/>
<stop stop-color="#A2C2DD" offset="1"/>
</linearGradient>
<polygon fill="url(#_22)" points="33.747,20.125 10.27,28.447 17.96,30.745 21.062,29.604 16.105,28.106 33.734,21.565 66.477,29.311 47.409,37.547 42.06,36.088 39.603,37.563 48.005,40.101 73.023,28.96 "/>
<linearGradient id="_23" gradientUnits="userSpaceOnUse" x1="39.37" y1="28.61" x2="8.32" y2="61.64">
<stop stop-color="#FFFFFF" offset="0.05"/>
<stop stop-color="#A2C2DD" offset="1"/>
</linearGradient>
<polygon fill="url(#_23)" points="10.27,28.447 13.234,39.197 45.786,52.907 48.005,40.101 39.603,37.563 34.925,43.826 20.497,38.278 17.96,30.745 "/>
<linearGradient id="_24" gradientUnits="userSpaceOnUse" x1="33.1" y1="12.47" x2="52.73" y2="5.72">
<stop stop-color="#E2E6E4" offset="0"/>
<stop stop-color="#A3740A" offset="1"/>
</linearGradient>
<polygon fill="url(#_24)" points="46.45,9.519 38.318,8.424 33.824,10.22 41.878,11.697 "/>
<linearGradient id="_25" gradientUnits="userSpaceOnUse" x1="25.54" y1="21.75" x2="57.04" y2="21">
<stop stop-color="#E2E6E4" offset="0"/>
<stop stop-color="#A3740A" offset="1"/>
</linearGradient>
<polygon fill="url(#_25)" points="51.591,22.076 31.845,18.684 29.31,19.512 46.966,24.156 "/>
<linearGradient id="_26" gradientUnits="userSpaceOnUse" x1="52.88" y1="18.72" x2="44.38" y2="29.09">
<stop stop-color="#E6EEF4" offset="0"/>
<stop stop-color="#A3740A" offset="0.44"/>
<stop stop-color="#474105" offset="0.94"/>
</linearGradient>
<polygon fill="url(#_26)" points="41.952,32.578 38.842,34.539 47.138,23.949 51.591,22.076 "/>
<linearGradient id="_27" gradientUnits="userSpaceOnUse" x1="47.52" y1="3.08" x2="41.02" y2="23.58">
<stop stop-color="#E6EEF4" offset="0"/>
<stop stop-color="#A3740A" offset="0.44"/>
<stop stop-color="#474105" offset="0.94"/>
</linearGradient>
<polygon fill="url(#_27)" points="40.962,22.643 44.701,21.032 46.45,9.519 41.922,11.682 "/>
<linearGradient id="_28" gradientUnits="userSpaceOnUse" x1="25.05" y1="5.84" x2="42.05" y2="24.84">
<stop stop-color="#E2E6E4" offset="0"/>
<stop stop-color="#A3740A" offset="1"/>
</linearGradient>
<polygon fill="url(#_28)" points="34.648,20.957 33.824,10.22 42.045,11.565 40.962,22.643 47.138,23.949 38.842,34.539 29.31,19.512 "/>
<linearGradient id="_29" gradientUnits="userSpaceOnUse" x1="34.25" y1="3.44" x2="27.95" y2="6.49">
<stop stop-color="#E6EEF4" offset="0"/>
<stop stop-color="#4A9900" offset="0.44"/>
<stop stop-color="#0E4E58" offset="0.94"/>
</linearGradient>
<polygon fill="url(#_29)" points="35.075,6.116 32.499,7.31 30.188,2.325 32.761,1.13 "/>
<linearGradient id="_30" gradientUnits="userSpaceOnUse" x1="28.63" y1="7.57" x2="26.58" y2="13.96">
<stop stop-color="#E6EEF4" offset="0"/>
<stop stop-color="#4A9900" offset="0.44"/>
<stop stop-color="#0E4E58" offset="0.94"/>
</linearGradient>
<polygon fill="url(#_30)" points="31.297,8.656 30.337,11.429 24.971,9.57 25.932,6.797 "/>
</svg>