<?xml version="1.0" encoding="UTF-8"?>
<!DOCTYPE svg PUBLIC "-//W3C//DTD SVG 1.1 Tiny//EN" "http://www.w3.org/Graphics/SVG/1.1/DTD/svg11-tiny.dtd">
<svg width="60" height="52" viewBox="-0.893 0.104 60 52">
<path d="M50.849,6.105H7.367c-1.245,0-2.259,1.014-2.259,2.259v35.481c0,1.246,1.014,2.26,2.259,2.26h43.481 c1.246,0,2.26-1.014,2.26-2.26V8.364C53.108,7.119,52.095,6.105,50.849,6.105z M52.108,43.846c0,0.694-0.565,1.26-1.26,1.26 H7.367c-0.694,0-1.259-0.565-1.259-1.26V8.364c0-0.694,0.564-1.259,1.259-1.259h43.481c0.694,0,1.26,0.564,1.26,1.259V43.846z" fill="#BACACC"/>
<g fill-opacity="0.5" stroke-opacity="0.5">
<linearGradient id="_2" gradientUnits="userSpaceOnUse" x1="29.11" y1="50.65" x2="29.11" y2="5.52">
<stop stop-color="#C7D9D9" offset="0.26"/>
<stop stop-color="#FFFFFF" offset="0.72"/>
</linearGradient>
<path d="M50.849,7.105H7.367c-0.694,0-1.259,0.564-1.259,1.259v35.481c0,0.694,0.564,1.26,1.259,1.26 h43.481c0.694,0,1.26-0.565,1.26-1.26V8.364C52.108,7.67,51.543,7.105,50.849,7.105z" fill="url(#_2)"/>
</g>
<path fill-opacity="0.3" d="M50.849,7.105H7.367c-0.694,0-1.259,0.564-1.259,1.259v35.481c0,0.694,0.564,1.26,1.259,1.26h43.481 c0.694,0,1.26-0.565,1.26-1.26V8.364C52.108,7.67,51.543,7.105,50.849,7.105z" fill="#FFFFFF"/>
<path fill-opacity="0.3" d="M19.524,23.564l2.667,2.666c0,0,5.041-5.041,6.916-6.916c1.875,1.875,6.917,6.916,6.917,6.916 l2.667-2.666l-9.584-9.584L19.524,23.564z" fill="#496DA2"/>
<path fill-opacity="0.3" d="M19.524,33.564l2.667,2.666c0,0,5.041-5.041,6.916-6.916c1.875,1.875,6.917,6.916,6.917,6.916 l2.667-2.666l-9.584-9.584L19.524,33.564z" fill="#496DA2"/>
</svg>