<?xml version="1.0" encoding="UTF-8"?>
<!DOCTYPE svg PUBLIC "-//W3C//DTD SVG 1.1 Tiny//EN" "http://www.w3.org/Graphics/SVG/1.1/DTD/svg11-tiny.dtd">
<svg baseProfile="tiny" height="88" version="1.1" viewBox="0 0 88 88" width="88" xmlns="http://www.w3.org/2000/svg" xmlns:xlink="http://www.w3.org/1999/xlink">
<g>
<rect fill="none" height="88" width="88"/>
<g>
<linearGradient gradientTransform="matrix(6.8182 0 0 -6.8182 2276.844 1964.3826)" gradientUnits="userSpaceOnUse" id="XMLID_15_" x1="-328.0049" x2="-328.5921" y1="279.6904" y2="277.3134">
<stop offset="0" style="stop-color:#A2C2DD"/>
<stop offset="0.1" style="stop-color:#A2C2DD"/>
<stop offset="0.71" style="stop-color:#6C83BB"/>
<stop offset="0.99" style="stop-color:#003D6D"/>
<stop offset="1" style="stop-color:#003D6D"/>
</linearGradient>
<path d="M18.75,32.624c0,0,0.783,3.626,1.116,5.171c-1.585-0.518-5.987-1.952-5.987-1.952    c-10.674,14.223-0.104,31.605,12.163,36.86l4.06-6.012l1.028,4.187c12.503,4.042,30.153,0.983,40.132-12.418    c0,0-0.071-0.803-0.121-1.344c0.192,0.063,0.96,0.319,0.96,0.319c12.364-18.346,0.555-34.789-11.145-37.845l-0.807,1.156    l-0.213-1.639C45.541,14.063,26.152,21.221,18.75,32.624z M39.939,46.517c0.673,0.239,1.033,0.368,1.648,0.589    c-0.417,0.586-0.792,1.115-1.475,2.076C40.033,47.976,39.991,47.327,39.939,46.517z" fill="url(#XMLID_15_)"/>
<linearGradient gradientTransform="matrix(6.8182 0 0 -6.8182 2276.844 1964.3826)" gradientUnits="userSpaceOnUse" id="XMLID_16_" x1="-332.1436" x2="-327.8155" y1="278.877" y2="284.5832">
<stop offset="0" style="stop-color:#FFFFFF"/>
<stop offset="0.1" style="stop-color:#FFFFFF"/>
<stop offset="0.7" style="stop-color:#D1E1EE"/>
<stop offset="1" style="stop-color:#A2C2DD"/>
</linearGradient>
<path d="M59.389,19.672c-13.756-4.407-31.739,1.417-39.885,13.102l25.04,8.163    C44.543,40.939,59.465,19.697,59.389,19.672z" fill="url(#XMLID_16_)"/>
<linearGradient gradientTransform="matrix(6.8182 0 0 -6.8182 2276.844 1964.3826)" gradientUnits="userSpaceOnUse" id="XMLID_17_" x1="-325.8516" x2="-326.638" y1="286.5879" y2="280.5381">
<stop offset="0" style="stop-color:#A2C2DD"/>
<stop offset="0.1" style="stop-color:#A2C2DD"/>
<stop offset="0.71" style="stop-color:#6C83BB"/>
<stop offset="0.99" style="stop-color:#003D6D"/>
<stop offset="1" style="stop-color:#003D6D"/>
</linearGradient>
<polygon fill="url(#XMLID_17_)" points="44.894,47.539 59.934,24.813 59.33,19.596 44.463,40.883   "/>
<linearGradient gradientTransform="matrix(6.8182 0 0 -6.8182 2276.844 1964.3826)" gradientUnits="userSpaceOnUse" id="XMLID_18_" x1="-328.5986" x2="-329.3851" y1="286.9453" y2="280.8953">
<stop offset="0" style="stop-color:#A2C2DD"/>
<stop offset="0.1" style="stop-color:#A2C2DD"/>
<stop offset="0.71" style="stop-color:#6C83BB"/>
<stop offset="0.99" style="stop-color:#003D6D"/>
<stop offset="1" style="stop-color:#003D6D"/>
</linearGradient>
<polygon fill="url(#XMLID_18_)" points="44.463,40.883 19.503,32.776 20.834,38.944 44.894,47.539   "/>
<linearGradient gradientTransform="matrix(6.8182 0 0 -6.8182 2276.844 1964.3826)" gradientUnits="userSpaceOnUse" id="XMLID_19_" x1="-332.5469" x2="-330.6537" y1="280.7852" y2="278.104">
<stop offset="0" style="stop-color:#E6EEF4"/>
<stop offset="0.44" style="stop-color:#A3740A"/>
<stop offset="0.94" style="stop-color:#474105"/>
<stop offset="1" style="stop-color:#474105"/>
</linearGradient>
<path d="M24.314,65.814L10.491,52.089c0.645,4.934,4.603,14.853,15.299,19.725L24.314,65.814z" fill="url(#XMLID_19_)"/>
<linearGradient gradientTransform="matrix(6.8182 0 0 -6.8182 2276.844 1964.3826)" gradientUnits="userSpaceOnUse" id="XMLID_20_" x1="-331.2822" x2="-329.2903" y1="282.499" y2="279.2293">
<stop offset="0" style="stop-color:#E2E6E4"/>
<stop offset="1" style="stop-color:#A3740A"/>
</linearGradient>
<path d="M24.314,65.814C10.558,61.405,6.012,48.358,14.158,36.674L39.2,44.839L24.314,65.814z" fill="url(#XMLID_20_)"/>
<linearGradient gradientTransform="matrix(6.8182 0 0 -6.8182 2276.844 1964.3826)" gradientUnits="userSpaceOnUse" id="XMLID_21_" x1="-331.0933" x2="-328.2484" y1="282.5342" y2="278.1164">
<stop offset="0" style="stop-color:#E6EEF4"/>
<stop offset="0.44" style="stop-color:#A3740A"/>
<stop offset="0.94" style="stop-color:#474105"/>
<stop offset="1" style="stop-color:#474105"/>
</linearGradient>
<polygon fill="url(#XMLID_21_)" points="39.552,51.438 25.791,71.813 24.314,65.814 39.121,44.779   "/>
<linearGradient gradientTransform="matrix(6.8182 0 0 -6.8182 2276.844 1964.3826)" gradientUnits="userSpaceOnUse" id="XMLID_22_" x1="-322.5601" x2="-326.4458" y1="282.9619" y2="275.9268">
<stop offset="0" style="stop-color:#FFFFFF"/>
<stop offset="0.53" style="stop-color:#A2C2DD"/>
<stop offset="0.87" style="stop-color:#6C83BB"/>
<stop offset="1" style="stop-color:#003D6D"/>
</linearGradient>
<path d="M71.172,49.471l2.533-18.759c5.266,10.244,2.959,18.605-1.893,25.886L71.172,49.471z" fill="url(#XMLID_22_)"/>
<linearGradient gradientTransform="matrix(6.8182 0 0 -6.8182 2276.844 1964.3826)" gradientUnits="userSpaceOnUse" id="XMLID_23_" x1="-329.0938" x2="-324.7667" y1="276.5664" y2="282.2714">
<stop offset="0" style="stop-color:#FFFFFF"/>
<stop offset="0.1" style="stop-color:#FFFFFF"/>
<stop offset="0.7" style="stop-color:#D1E1EE"/>
<stop offset="1" style="stop-color:#A2C2DD"/>
</linearGradient>
<path d="M71.172,49.471c8.104-11.618,3.652-24.586-9.928-29.065L46.399,41.672L71.172,49.471z" fill="url(#XMLID_23_)"/>
<linearGradient gradientTransform="matrix(6.8182 0 0 -6.8182 2276.844 1964.3826)" gradientUnits="userSpaceOnUse" id="XMLID_24_" x1="-324.5498" x2="-325.3364" y1="286.4189" y2="280.3686">
<stop offset="0" style="stop-color:#A2C2DD"/>
<stop offset="0.1" style="stop-color:#A2C2DD"/>
<stop offset="0.71" style="stop-color:#6C83BB"/>
<stop offset="0.99" style="stop-color:#003D6D"/>
<stop offset="1" style="stop-color:#003D6D"/>
</linearGradient>
<polygon fill="url(#XMLID_24_)" points="71.172,49.471 46.399,41.672 46.753,48.271 71.813,56.598   "/>
<linearGradient gradientTransform="matrix(6.8182 0 0 -6.8182 2276.844 1964.3826)" gradientUnits="userSpaceOnUse" id="XMLID_25_" x1="-323.9883" x2="-327.8738" y1="283.751" y2="276.7162">
<stop offset="0" style="stop-color:#FFFFFF"/>
<stop offset="0.53" style="stop-color:#A2C2DD"/>
<stop offset="0.87" style="stop-color:#6C83BB"/>
<stop offset="1" style="stop-color:#003D6D"/>
</linearGradient>
<path d="M31.716,70.313l-1.475-6.003l39.657-13.173l0.639,7.124    C64.491,66.642,49.703,75.435,31.716,70.313z" fill="url(#XMLID_25_)"/>
<linearGradient gradientTransform="matrix(6.8182 0 0 -6.8182 2276.844 1964.3826)" gradientUnits="userSpaceOnUse" id="XMLID_26_" x1="-329.0352" x2="-324.7069" y1="276.5186" y2="282.2251">
<stop offset="0" style="stop-color:#FFFFFF"/>
<stop offset="0.1" style="stop-color:#FFFFFF"/>
<stop offset="0.7" style="stop-color:#D1E1EE"/>
<stop offset="1" style="stop-color:#A2C2DD"/>
</linearGradient>
<path d="M30.241,64.31c13.755,4.411,31.511-1.488,39.657-13.173l-24.773-7.804L30.241,64.31z" fill="url(#XMLID_26_)"/>
<linearGradient gradientUnits="userSpaceOnUse" id="XMLID_27_" x1="10.5508" x2="49.2415" y1="72.4043" y2="16.6632">
<stop offset="0" style="stop-color:#E6EEF4"/>
<stop offset="0.0644" style="stop-color:#DAD9CB"/>
<stop offset="0.2029" style="stop-color:#C3AE79"/>
<stop offset="0.3167" style="stop-color:#B28F3D"/>
<stop offset="0.3999" style="stop-color:#A77B18"/>
<stop offset="0.4438" style="stop-color:#A3740A"/>
<stop offset="0.5594" style="stop-color:#866408"/>
<stop offset="0.7193" style="stop-color:#645107"/>
<stop offset="0.8514" style="stop-color:#4F4505"/>
<stop offset="0.9382" style="stop-color:#474105"/>
<stop offset="1" style="stop-color:#474105"/>
</linearGradient>
<path d="M30.926,50.39c-1.004,2.757-4.201,5.143-7.142,5.326c-2.938,0.183-4.514-1.902-3.51-4.658    c1.004-2.759,4.2-5.146,7.14-5.333C30.354,45.544,31.925,47.628,30.926,50.39z" fill="url(#XMLID_27_)"/>
<path d="M28.018,39.028L22.24,11.223l1.355-0.304c0.904,3.934,2.974,5.317,5.07,6.811    c4.774,3.389,10.499,6.301,6.42,18.716l-0.967-0.388c2.813-9.659-0.917-12.946-7.934-14.113l3.752,18.584L28.018,39.028z" fill="#5E1B67"/>
<radialGradient cx="-330.3853" cy="282.2998" gradientTransform="matrix(6.8182 0 0 -6.8182 2276.844 1964.3826)" gradientUnits="userSpaceOnUse" id="XMLID_28_" r="0.9133">
<stop offset="0" style="stop-color:#DEDEED"/>
<stop offset="0.5" style="stop-color:#A15EB6"/>
<stop offset="1" style="stop-color:#5E1B67"/>
</radialGradient>
<path d="M29.695,42.801c-1.03,3.037-4.332,5.658-7.384,5.845c-3.05,0.195-4.694-2.115-3.664-5.16    c1.026-3.033,4.332-5.653,7.383-5.847C29.078,37.451,30.723,39.761,29.695,42.801z" fill="url(#XMLID_28_)"/>
</g>
</g>
</svg>
