<?xml version="1.0" encoding="UTF-8"?>
<!DOCTYPE svg PUBLIC "-//W3C//DTD SVG 1.1 Tiny//EN" "http://www.w3.org/Graphics/SVG/1.1/DTD/svg11-tiny.dtd">
<svg baseProfile="tiny" height="32px" version="1.1" viewBox="0 0 26 32" width="26px" x="0px" xmlns="http://www.w3.org/2000/svg" xmlns:xlink="http://www.w3.org/1999/xlink" y="0px">
<rect fill="none" height="32" width="26"/>
<path d="M4.875,19.411c0.413,0,0.749-0.335,0.749-0.748v-6.035c0-0.414-0.336-0.749-0.749-0.749H1  c-0.413,0-0.749,0.335-0.749,0.749v6.035c0,0.413,0.336,0.748,0.749,0.748H4.875z M22.529,6.554l-0.907-0.907  c-0.296-0.299-0.774-0.286-1.06-0.002l-6.121,6.102V6.596c0-0.667-0.754-0.955-1.219-0.585l-6.938,5.55  c-0.178,0.142-0.279,0.358-0.279,0.585v6.997c0,0.395,0.25,0.521,0.361,0.652l-5.395,5.377c-0.293,0.288-0.293,0.77-0.002,1.061  l0.906,0.908c0.236,0.236,0.719,0.345,1.062,0.002l5.62-5.602l4.666,3.738c0.508,0.41,1.217,0.007,1.217-0.586v-9.016l8.088-8.063  C22.868,7.276,22.773,6.794,22.529,6.554z" fill-opacity="0.4" stroke-opacity="0.4"/>
<rect fill="#FFFFFF" height="6.035" width="3.874" x="1" y="12.628"/>
<polygon fill="#FFFFFF" points="21.093,6.176 1.501,25.704 2.408,26.612 22,7.083 "/>
<polygon fill="#FFFFFF" points="13.691,12.494 13.691,6.596 6.755,12.146 6.755,19.144 6.902,19.262 "/>
<polygon fill="#FFFFFF" points="9.09,21.012 13.691,24.694 13.691,16.424 "/>
</svg>
