<?xml version="1.0" encoding="UTF-8"?>
<!DOCTYPE svg PUBLIC "-//W3C//DTD SVG 1.1 Tiny//EN" "http://www.w3.org/Graphics/SVG/1.1/DTD/svg11-tiny.dtd">
<svg width="84" height="58" viewBox="0 0 84 58">
<linearGradient id="_20" gradientUnits="userSpaceOnUse" x1="40.94" y1="29.45" x2="52.1" y2="51.44">
<stop stop-color="#A2C2DD" offset="0.1"/>
<stop stop-color="#6C83BB" offset="0.71"/>
<stop stop-color="#003D6D" offset="0.99"/>
</linearGradient>
<path fill="url(#_20)" d="M33.917,5.193c0,0-2.573,8.477-2.738,9.036c-0.562-0.097-6.784-1.164-6.784-1.164l-5.921,2.16 c0,0,1.972,8.521,2.197,9.494c-0.855-0.197-4.307-0.994-4.307-0.994l-2.017,0.735l0.8,24.28l18.845,5.274l1.908-2.027 c0,0-0.025-8.694-0.028-9.556c0.869,0.267,20.974,6.432,20.974,6.432L68.4,13.455c0,0-14.914-2.251-15.509-2.341 c0.021-0.546,0.185-4.8,0.185-4.8L37.592,4.047L33.917,5.193z"/>
<linearGradient id="_21" gradientUnits="userSpaceOnUse" x1="24.5" y1="26.83" x2="64.67" y2="26.83">
<stop stop-color="#FFFFFF" offset="0.15"/>
<stop stop-color="#A2C2DD" offset="1"/>
</linearGradient>
<polygon fill="url(#_21)" points="24.497,38.498 34.198,5.556 49.979,8.086 49.866,12.975 64.671,15.457 56.604,48.096 "/>
<linearGradient id="_22" gradientUnits="userSpaceOnUse" x1="46.7" y1="37.79" x2="17.37" y2="12.96">
<stop stop-color="#CADCEC" offset="0"/>
<stop stop-color="#87A8CB" offset="1"/>
</linearGradient>
<polygon fill="url(#_22)" points="56.606,47.785 24.339,38.484 19.019,15.496 51.14,21.934 "/>
<linearGradient id="_23" gradientUnits="userSpaceOnUse" x1="34.6" y1="23.63" x2="39.89" y2="13.05">
<stop stop-color="#FFFFFF" offset="0.15"/>
<stop stop-color="#A2C2DD" offset="1"/>
</linearGradient>
<polygon fill="url(#_23)" points="56.573,18.977 24.54,13.479 19.019,15.496 51.225,22.059 "/>
<linearGradient id="_24" gradientUnits="userSpaceOnUse" x1="42.65" y1="8.38" x2="44.5" y2="3.33">
<stop stop-color="#FFFFFF" offset="0.05"/>
<stop stop-color="#A2C2DD" offset="1"/>
</linearGradient>
<polygon fill="url(#_24)" points="52.718,6.697 37.683,4.494 34.229,5.57 49.979,8.086 "/>
<linearGradient id="_25" gradientUnits="userSpaceOnUse" x1="58.03" y1="15.68" x2="59.93" y2="10.52">
<stop stop-color="#FFFFFF" offset="0.05"/>
<stop stop-color="#A2C2DD" offset="1"/>
</linearGradient>
<polygon fill="url(#_25)" points="67.884,13.791 52.534,11.475 49.866,12.975 64.671,15.457 "/>
<linearGradient id="_26" gradientUnits="userSpaceOnUse" x1="64.5" y1="30.92" x2="51.55" y2="35.41">
<stop stop-color="#A2C2DD" offset="0.1"/>
<stop stop-color="#6C83BB" offset="0.71"/>
<stop stop-color="#003D6D" offset="0.99"/>
</linearGradient>
<polygon fill="url(#_26)" points="56.573,18.977 56.608,48.346 51.142,22.102 "/>
<linearGradient id="_27" gradientUnits="userSpaceOnUse" x1="48.72" y1="18.05" x2="66.03" y2="34.57">
<stop stop-color="#A2C2DD" offset="0.1"/>
<stop stop-color="#6C83BB" offset="0.71"/>
<stop stop-color="#003D6D" offset="0.99"/>
</linearGradient>
<polygon fill="url(#_27)" points="67.884,13.791 56.619,48.145 64.671,15.457 "/>
<linearGradient id="_28" gradientUnits="userSpaceOnUse" x1="31.91" y1="-0.39" x2="69.95" y2="19.68">
<stop stop-color="#FFFFFF" offset="0"/>
<stop stop-color="#A2C2DD" offset="0.35"/>
<stop stop-color="#6C83BB" offset="0.7"/>
<stop stop-color="#003D6D" offset="1"/>
</linearGradient>
<polygon fill="url(#_28)" points="49.979,8.086 49.866,12.975 52.534,11.475 52.718,6.697 "/>
<linearGradient id="_29" gradientUnits="userSpaceOnUse" x1="17.59" y1="46.05" x2="47.85" y2="30.98">
<stop stop-color="#FFFFFF" offset="0.15"/>
<stop stop-color="#A2C2DD" offset="1"/>
</linearGradient>
<polygon fill="url(#_29)" points="24.497,38.498 30.571,17.859 51.187,22.096 56.608,48.346 "/>
<linearGradient id="_30" gradientUnits="userSpaceOnUse" x1="17.44" y1="30.21" x2="38.42" y2="55.74">
<stop stop-color="#D6E4F3" offset="0"/>
<stop stop-color="#337CE5" offset="1"/>
</linearGradient>
<polygon fill="url(#_30)" points="15.489,48.474 14.744,24.715 33.886,29.58 33.882,53.621 "/>
<linearGradient id="_31" gradientUnits="userSpaceOnUse" x1="34.63" y1="25.49" x2="34.63" y2="51.74">
<stop stop-color="#E6EEF4" offset="0"/>
<stop stop-color="#337CE5" offset="0.44"/>
<stop stop-color="#003D6D" offset="0.94"/>
</linearGradient>
<polygon fill="url(#_31)" points="33.882,53.621 33.706,29.56 35.481,28.484 35.549,51.85 "/>
<linearGradient id="_32" gradientUnits="userSpaceOnUse" x1="18.64" y1="25.95" x2="53.52" y2="30.7">
<stop stop-color="#D6E4F3" offset="0"/>
<stop stop-color="#337CE5" offset="1"/>
</linearGradient>
<polygon fill="url(#_32)" points="14.705,24.703 16.387,24.09 35.418,28.484 33.726,29.567 "/>
<linearGradient id="_33" gradientUnits="userSpaceOnUse" x1="38.25" y1="31.52" x2="-0.25" y2="31.52">
<stop stop-color="#E6EEF4" offset="0"/>
<stop stop-color="#337CE5" offset="0.44"/>
<stop stop-color="#003D6D" offset="0.94"/>
</linearGradient>
<polygon fill="url(#_33)" points="31.411,35.746 31.477,31.116 17.078,27.291 17.195,31.653 "/>
<linearGradient id="_34" gradientUnits="userSpaceOnUse" x1="38.25" y1="48.12" x2="-0.25" y2="48.12">
<stop stop-color="#E6EEF4" offset="0"/>
<stop stop-color="#337CE5" offset="0.44"/>
<stop stop-color="#003D6D" offset="0.94"/>
</linearGradient>
<polygon fill="url(#_34)" points="31.477,51.168 31.477,48.769 17.56,45.069 17.617,47.178 "/>
<linearGradient id="_35" gradientUnits="userSpaceOnUse" x1="32.5" y1="41.41" x2="25.75" y2="41.41">
<stop stop-color="#E2E6E4" offset="0"/>
<stop stop-color="#A3740A" offset="1"/>
</linearGradient>
<polygon fill="url(#_35)" points="31.48,37.28 31.415,47.321 25.244,45.549 25.049,35.509 "/>
<linearGradient id="_36" gradientUnits="userSpaceOnUse" x1="38.25" y1="35.46" x2="-0.25" y2="35.46">
<stop stop-color="#E6EEF4" offset="0"/>
<stop stop-color="#337CE5" offset="0.44"/>
<stop stop-color="#003D6D" offset="0.94"/>
</linearGradient>
<polygon fill="url(#_36)" points="17.228,33.417 17.287,35.513 24.166,37.494 24.096,35.242 "/>
<linearGradient id="_37" gradientUnits="userSpaceOnUse" x1="38.25" y1="39.36" x2="-0.25" y2="39.36">
<stop stop-color="#E6EEF4" offset="0"/>
<stop stop-color="#337CE5" offset="0.44"/>
<stop stop-color="#003D6D" offset="0.94"/>
</linearGradient>
<polygon fill="url(#_37)" points="17.322,37.315 17.377,39.415 24.282,41.404 24.212,39.146 "/>
<linearGradient id="_38" gradientUnits="userSpaceOnUse" x1="38.25" y1="43.26" x2="-0.25" y2="43.26">
<stop stop-color="#E6EEF4" offset="0"/>
<stop stop-color="#337CE5" offset="0.44"/>
<stop stop-color="#003D6D" offset="0.94"/>
</linearGradient>
<polygon fill="url(#_38)" points="17.417,41.214 17.478,43.318 24.401,45.315 24.332,43.052 "/>
</svg>