<?xml version="1.0" encoding="UTF-8"?>
<!DOCTYPE svg PUBLIC "-//W3C//DTD SVG 1.1 Tiny//EN" "http://www.w3.org/Graphics/SVG/1.1/DTD/svg11-tiny.dtd">
<svg baseProfile="tiny" height="44px" version="1.1" viewBox="0 0 44 44" width="44px" x="0px" xmlns="http://www.w3.org/2000/svg" xmlns:xlink="http://www.w3.org/1999/xlink" y="0px">
<linearGradient gradientUnits="userSpaceOnUse" id="SVGID_1_" x1="26.9316" x2="26.9316" y1="6.5566" y2="38.2224">
<stop offset="0" style="stop-color:#B2B2B2"/>
<stop offset="1" style="stop-color:#000000"/>
</linearGradient>
<path d="M15.925,10.746l1.201-1.375h6.779l1.752,2c0,0,10.567,0,12.268,0c0,1.111-0.003,12.546-0.003,13.658  c-0.199,0-0.654,0-1.287,0c0.335,0.545,0.66,1.248,0.873,2.092h2.43l-0.013-17.75c0,0-12.518,0-13.361,0  c-0.41-0.469-1.752-2-1.752-2h-8.594l-2.293,2.625v9.722c0.718,0.344,1.389,0.817,2.012,1.328L15.925,10.746z" fill="url(#SVGID_1_)"/>
<linearGradient gradientUnits="userSpaceOnUse" id="SVGID_2_" x1="20.0435" x2="20.0435" y1="6.5566" y2="38.2232">
<stop offset="0" style="stop-color:#B2B2B2"/>
<stop offset="1" style="stop-color:#000000"/>
</linearGradient>
<path d="M36.025,28.63c-0.107-2.389-1.525-3.699-1.59-3.75l-0.273-0.246H17.687  c-0.236-0.047-1.073-0.844-1.628-1.35c-1.362-1.244-2.906-2.654-4.497-2.654c-3.201,0-6.75,1-7.5,6c0,0,5.266,0,6.375,0  c0.233,0.705,0.595,1.623,0.721,2c-0.126,0.377-0.485,1.422-0.721,2.125c-1.109,0-6.375,0-6.375,0c0.75,5,4.299,5.875,7.5,5.875  c1.591,0,3.135-1.41,4.497-2.652c0.555-0.508,1.392-1.271,1.691-1.354l16.412,0.006l0.273-0.219  C34.5,32.361,35.918,31.019,36.025,28.63 M17.687,30.753c-0.931,0-1.833,0.699-2.976,1.742c-0.986,0.9-2.336,2.258-3.149,2.258  c-2.272,0-3.474-0.244-4.687-2.125c1.715,0,4.906,0,4.906,0l1.279-4l-1.279-3.875c0,0-3.191,0-4.906,0  c1.213-1.881,2.414-2.25,4.687-2.25c0.813,0,2.163,1.356,3.149,2.256c1.143,1.045,2.045,1.869,2.976,1.869c0,0,14.993,0,15.815,0  c0.25,0.309,0.649,0.961,0.685,2c-0.034,1.039-0.435,1.814-0.685,2.125C32.68,30.753,17.687,30.753,17.687,30.753z" fill="url(#SVGID_2_)"/>
<rect fill="none" height="44.001" width="44"/>
</svg>
