<?xml version="1.0" encoding="UTF-8" standalone="no"?>
<!DOCTYPE svg PUBLIC "-//W3C//DTD SVG 1.1 Tiny//EN" "http://www.w3.org/Graphics/SVG/1.1/DTD/svg11-tiny.dtd">
<svg xmlns="http://www.w3.org/2000/svg" xmlns:xlink="http://www.w3.org/1999/xlink" width="36" height="36" viewBox="0 0 36 36">
<rect fill="none" height="36" width="36"/>
<path d="M10.798,18.002L10.798,18.002c0-3.985,3.242-7.229,7.227-7.229c2.275,0,4.301,1.057,5.626,2.702l2.733-2.732 c-2.029-2.335-5.017-3.822-8.359-3.822c-6.121,0-11.078,4.96-11.078,11.084l0,0H3.6l5.261,5.257l5.261-5.257L10.798,18.002 L10.798,18.002z M32.398,17.97l-5.259-5.259l-5.26,5.259h3.369c0,0.015,0.001,0.019,0.001,0.031c0,3.984-3.238,7.226-7.227,7.226 c-2.292,0-4.336-1.076-5.66-2.75l-2.739,2.742c2.034,2.363,5.037,3.861,8.4,3.861c6.116,0,11.082-4.957,11.082-11.082 c0-0.013,0-0.017-0.002-0.029H32.398L32.398,17.97z" fill="#FFFFFF"/>
<polygon fill="#FF0000" points="30.19,26.204 30.546,15.265 26.356,15.265 26.714,26.204 "/>
<path d="M30.029,29.356c-0.437-0.395-0.953-0.594-1.568-0.594c-0.614,0-1.133,0.199-1.578,0.594 c-0.433,0.391-0.656,0.865-0.656,1.416c0,0.553,0.224,1.018,0.656,1.406c0.445,0.389,0.964,0.57,1.578,0.57 c0.615,0,1.138-0.184,1.57-0.57c0.432-0.391,0.649-0.857,0.649-1.406C30.681,30.221,30.463,29.747,30.029,29.356z" fill="#FF0000"/>
</svg>