<?xml version="1.0" encoding="UTF-8" standalone="no"?>
<!DOCTYPE svg PUBLIC "-//W3C//DTD SVG 1.1 Tiny//EN" "http://www.w3.org/Graphics/SVG/1.1/DTD/svg11-tiny.dtd">
<svg xmlns="http://www.w3.org/2000/svg" xmlns:xlink="http://www.w3.org/1999/xlink" width="44" height="44" viewBox="-0.007 -0.037 44 44">
<rect fill="none" height="44" width="44" x="-0.007" y="-0.037"/>
<linearGradient id="SVGID_1" gradientUnits="userSpaceOnUse" x1="28.92" y1="23.56" x2="35.43" y2="36.4">
<stop stop-color="#A2C2DD" offset="0.1"/>
<stop stop-color="#6C83BB" offset="0.71"/>
<stop stop-color="#003D6D" offset="0.99"/>
</linearGradient>
<path d="M16.377,20.463c-0.903,1.249-4.542,6.289-4.542,6.289s0.55,0.679,0.639,0.791 c0.032,0.163,0.703,3.707,0.703,3.707l17.082,7.677l10.713-18.796l-0.066-4.523c0,0-0.613-0.194-0.947-0.299 c0.26-0.403,0.699-1.082,0.699-1.082l0.088-1.452c0,0-0.508-0.083-0.689-0.114c0.406-0.594,1.703-2.489,1.703-2.489 s-5.025,0.16-9.822,0.134L23.715,9.97L16.377,20.463z M14.787,22.124" fill="url(#SVGID_1)"/>
<polygon fill="#FFFFFF" points="24.102,10.573 40.532,15.788 29.706,34.087 13.109,27.558 "/>
<polygon fill="#FFFFFF" points="12.248,26.663 24.075,10.285 40.348,12.991 28.774,30.471 "/>
<linearGradient id="SVGID_2" gradientUnits="userSpaceOnUse" x1="33.01" y1="25.31" x2="39" y2="29.97">
<stop stop-color="#DEE9F3" offset="0"/>
<stop stop-color="#235487" offset="1"/>
</linearGradient>
<polygon fill="url(#SVGID_2)" points="40.532,15.788 29.706,34.087 30.084,38.399 40.59,19.965 "/>
<linearGradient id="SVGID_3" gradientUnits="userSpaceOnUse" x1="22.74" y1="29.85" x2="20.26" y2="35.54">
<stop stop-color="#FFFFFF" offset="0"/>
<stop stop-color="#496DA2" offset="0.71"/>
<stop stop-color="#235487" offset="0.99"/>
</linearGradient>
<polygon fill="url(#SVGID_3)" points="29.706,34.087 12.774,27.313 13.46,30.928 30.084,38.399 "/>
<linearGradient id="SVGID_4" gradientUnits="userSpaceOnUse" x1="33.65" y1="21.53" x2="36.22" y2="23.53">
<stop stop-color="#DEE9F3" offset="0"/>
<stop stop-color="#235487" offset="1"/>
</linearGradient>
<polygon fill="url(#SVGID_4)" points="40.348,12.991 28.774,30.471 28.926,31.607 40.286,14.036 "/>
<linearGradient id="SVGID_5" gradientUnits="userSpaceOnUse" x1="21.82" y1="26.32" x2="19.51" y2="31.59">
<stop stop-color="#FFFFFF" offset="0"/>
<stop stop-color="#496DA2" offset="0.71"/>
<stop stop-color="#235487" offset="0.99"/>
</linearGradient>
<polygon fill="url(#SVGID_5)" points="28.774,30.471 12.248,26.663 12.774,27.313 28.926,31.607 "/>
<linearGradient id="SVGID_6" gradientUnits="userSpaceOnUse" x1="40.74" y1="16.87" x2="30.79" y2="18.26">
<stop stop-color="#CADCEC" offset="0"/>
<stop stop-color="#87A8CB" offset="1"/>
</linearGradient>
<path d="M24.075,10.334c6.771,0.47,16.979,0.129,16.979,0.129C38.907,13.547,29.76,27.255,29.76,27.255 C29.76,27.205,24.075,10.334,24.075,10.334z" fill="url(#SVGID_6)"/>
<linearGradient id="SVGID_7" gradientUnits="userSpaceOnUse" x1="40.1" y1="18.92" x2="24.3" y2="19.22">
<stop stop-color="#FFFFFF" offset="0.15"/>
<stop stop-color="#A2C2DD" offset="1"/>
</linearGradient>
<path d="M39.434,12.83c-3.1,4.694-9.674,14.375-9.674,14.375c-4.955,2.32-15.837-0.341-17.513-0.542 l11.827-16.378L39.434,12.83z" fill="url(#SVGID_7)"/>
<linearGradient id="SVGID_8" gradientUnits="userSpaceOnUse" x1="32.9" y1="11.19" x2="23.2" y2="17.12">
<stop stop-color="#E6EEF4" offset="0"/>
<stop stop-color="#C6DCC1" offset="0.08"/>
<stop stop-color="#91C06F" offset="0.21"/>
<stop stop-color="#6BAB33" offset="0.32"/>
<stop stop-color="#539E0E" offset="0.4"/>
<stop stop-color="#4A9900" offset="0.44"/>
<stop stop-color="#398419" offset="0.55"/>
<stop stop-color="#22663B" offset="0.71"/>
<stop stop-color="#135550" offset="0.85"/>
<stop stop-color="#0E4E58" offset="0.94"/>
</linearGradient>
<path d="M20.576,17.923l3.395-4.404l2.68,0.005l1.178-1.526l1.01,0.004l-1.154,1.498l2.732,0.005l-3.4,4.413 l-0.977-0.003l0.201-0.262l-1.791-0.006l-1.805,2.343l-0.948-0.002l1.817-2.359l-1.744-0.004l-0.229,0.298L20.576,17.923z M26.022,14.365l-1.654-0.005l-1.719,2.229l1.654,0.005L26.022,14.365z M28.698,14.371l-1.658-0.004l-1.717,2.229l1.654,0.006 L28.698,14.371z" fill="url(#SVGID_8)"/>
<linearGradient id="SVGID_9" gradientUnits="userSpaceOnUse" x1="34.47" y1="20.07" x2="21.47" y2="29.33">
<stop stop-color="#E6EEF4" offset="0"/>
<stop stop-color="#C6DCC1" offset="0.08"/>
<stop stop-color="#91C06F" offset="0.21"/>
<stop stop-color="#6BAB33" offset="0.32"/>
<stop stop-color="#539E0E" offset="0.4"/>
<stop stop-color="#4A9900" offset="0.44"/>
<stop stop-color="#398419" offset="0.55"/>
<stop stop-color="#22663B" offset="0.71"/>
<stop stop-color="#135550" offset="0.85"/>
<stop stop-color="#0E4E58" offset="0.94"/>
</linearGradient>
<path d="M28.096,26.544l0.641-1.459l-2.625-0.006l-1.615,1.456l-1.141-0.002l7.195-6.355l1.313,0.002 l-2.727,6.367L28.096,26.544z M29.012,24.462l1.453-3.314l-3.666,3.31L29.012,24.462z" fill="url(#SVGID_9)"/>
<linearGradient id="SVGID_10" gradientUnits="userSpaceOnUse" x1="13.19" y1="5.74" x2="15.9" y2="21.54">
<stop stop-color="#A2C2DD" offset="0.1"/>
<stop stop-color="#6C83BB" offset="0.71"/>
<stop stop-color="#003D6D" offset="0.99"/>
</linearGradient>
<path d="M14.832,23.749c-4.835-0.002-9.439-3.892-9.452-9.188l0,0c0-0.557,0.05-1.127,0.16-1.701l0,0 c0.976-5.372,5.045-7.905,9.054-7.885l0,0c4.632,0.01,9.324,3.325,9.335,9.137l0,0c0,0.948-0.125,1.957-0.393,3.023l0,0 l-0.107,0.437l-4.197-0.646c0.649,1.115,1.278,2.729,1.377,4.178l0,0l-0.105,0.584c-0.074,0.101-0.169,0.158-0.249,0.19l0,0 c-1.662,1.291-3.56,1.872-5.414,1.872l0,0C14.839,23.749,14.835,23.749,14.832,23.749L14.832,23.749z M18.103,16.752l0.075-0.485 L18.103,16.752L18.103,16.752z" fill="url(#SVGID_10)"/>
<radialGradient id="SVGID_11" gradientUnits="userSpaceOnUse" cx="15.75" cy="8.11" r="12.15">
<stop stop-color="#FFFFFF" offset="0"/>
<stop stop-color="#D6E6EC" offset="0.21"/>
<stop stop-color="#6AA9B6" offset="1"/>
</radialGradient>
<path d="M20.277,21.442c-6.235,5.094-15.834-0.541-14.356-8.549c2.271-12.301,20.578-8.805,17.335,4.139 c-3.655-0.43-8.388-1.475-8.388-1.475L20.277,21.442" fill="url(#SVGID_11)"/>
<linearGradient id="SVGID_12" gradientUnits="userSpaceOnUse" x1="19.55" y1="7.02" x2="17.25" y2="13.13">
<stop stop-color="#E6EEF4" offset="0"/>
<stop stop-color="#9EC8D1" offset="0.15"/>
<stop stop-color="#62A9B3" offset="0.29"/>
<stop stop-color="#3D95A1" offset="0.39"/>
<stop stop-color="#2F8E9A" offset="0.44"/>
<stop stop-color="#247C90" offset="0.52"/>
<stop stop-color="#115A7D" offset="0.7"/>
<stop stop-color="#044571" offset="0.84"/>
<stop stop-color="#003D6D" offset="0.94"/>
</linearGradient>
<path d="M16.788,11.196c-0.269,0.858-0.012,1.703,0.575,1.886c0.588,0.184,1.283-0.364,1.549-1.222 c0.269-0.859,0.01-1.704-0.578-1.887C17.749,9.791,17.054,10.337,16.788,11.196z" fill="url(#SVGID_12)"/>
<linearGradient id="SVGID_13" gradientUnits="userSpaceOnUse" x1="21.55" y1="22.17" x2="14.74" y2="15.06">
<stop stop-color="#E6EEF4" offset="0"/>
<stop stop-color="#9EC8D1" offset="0.15"/>
<stop stop-color="#62A9B3" offset="0.29"/>
<stop stop-color="#3D95A1" offset="0.39"/>
<stop stop-color="#2F8E9A" offset="0.44"/>
<stop stop-color="#247C90" offset="0.52"/>
<stop stop-color="#115A7D" offset="0.7"/>
<stop stop-color="#044571" offset="0.84"/>
<stop stop-color="#003D6D" offset="0.94"/>
</linearGradient>
<path d="M13.857,15.368l4.429,0.9c0.747,0.803,1.964,3.311,1.989,5.174 C20.282,21.946,15.938,20.501,13.857,15.368z" fill="url(#SVGID_13)"/>
</svg>