<?xml version="1.0" encoding="UTF-8" standalone="no"?>
<!DOCTYPE svg PUBLIC "-//W3C//DTD SVG 1.1 Tiny//EN" "http://www.w3.org/Graphics/SVG/1.1/DTD/svg11-tiny.dtd">
<svg xmlns="http://www.w3.org/2000/svg" xmlns:xlink="http://www.w3.org/1999/xlink" width="42" height="29" viewBox="0 0 42 29">
<rect fill="none" height="29" width="42"/>
<linearGradient id="SVGID_1" gradientUnits="userSpaceOnUse" x1="20.23" y1="14.92" x2="26.89" y2="28.04">
<stop stop-color="#A2C2DD" offset="0.1"/>
<stop stop-color="#6C83BB" offset="0.71"/>
<stop stop-color="#003D6D" offset="0.99"/>
</linearGradient>
<path d="M12.249,2.373l0.636,20.282l15.729,4.406l1.139-1.2l-0.094-14.563l-5.194-6.744L13.555,1.938 L12.249,2.373z" fill="url(#SVGID_1)"/>
<linearGradient id="SVGID_2" gradientUnits="userSpaceOnUse" x1="27.22" y1="1.9" x2="17.04" y2="21.25">
<stop stop-color="#FFFFFF" offset="0.05"/>
<stop stop-color="#A2C2DD" offset="1"/>
</linearGradient>
<path d="M13.066,22.513L12.44,2.506l12.32,2.914c1.249,1.558,2.569,3.466,3.763,5.185l0.032,16.245 L13.066,22.513z" fill="url(#SVGID_2)"/>
<linearGradient id="SVGID_3" gradientUnits="userSpaceOnUse" x1="24.38" y1="6.73" x2="14.29" y2="27.74">
<stop stop-color="#FFFFFF" offset="0"/>
<stop stop-color="#A2C2DD" offset="1"/>
</linearGradient>
<path d="M19.553,7.911c3.606-0.074,6.952,2.959,7.47,6.775c0.519,3.815-1.984,6.969-5.592,7.042 c-3.606,0.075-6.951-2.959-7.471-6.775C13.442,11.138,15.945,7.986,19.553,7.911z" fill="url(#SVGID_3)"/>
<linearGradient id="SVGID_4" gradientUnits="userSpaceOnUse" x1="15.26" y1="6.08" x2="22.26" y2="15.4">
<stop stop-color="#DCE8E4" offset="0"/>
<stop stop-color="#43910A" offset="1"/>
</linearGradient>
<path d="M16.58,9.09c-0.271,0.192-0.984,0.804-0.964,1.037c0.021,0.232,0.19-0.279,0.428-0.196 c0.043-0.002,0.262-0.413,0.735-0.682c0.19-0.228,0.605-0.106,0.605-0.106s1.116-0.491,1.066-0.373 c0.284-0.666-1.971,1.02-1.19,0.597c-0.134,0.073-0.853,0.65-0.222,0.415c0.121-0.015,0.461-0.032,0.635,0.022 s0.401-0.257,0.736-0.191c0.123-0.074,0.367-0.23,0.434-0.231c0.065-0.001,0.306-0.03,0.252-0.332c0,0,0.122-0.431,0.151-0.6 c0.144-0.047,0.28-0.298,0.28-0.298c-0.472-0.06-1.543,0.278-1.702,0.326C17.795,8.513,16.921,8.989,16.58,9.09z" fill="url(#SVGID_4)"/>
<linearGradient id="SVGID_5" gradientUnits="userSpaceOnUse" x1="14.64" y1="6.21" x2="21.62" y2="15.51">
<stop stop-color="#DCE8E4" offset="0"/>
<stop stop-color="#43910A" offset="1"/>
</linearGradient>
<path d="M23.011,8.921l0.448,0.774l0.834,0.286c0,0,0.233,0.252,0.308,0.312 c0.162,0.463,0.451,0.96,0.498,0.982c0.047,0.021,0.255,0.087,0.32,0.075c0.078,0.256,0.013,0.257,0.013,0.257L25.09,11.45 l0.209,0.57l0.769,1.095c-0.054,0.176-0.211,1.221-0.211,1.221s0.438,0.365,0.438,0.774c-0.509,0.118-0.516,0.28-0.516,0.28 s-0.467-0.271-0.517-0.388c-0.286-0.392-0.576-0.258-0.638-0.058c-0.296,0.973-0.333,0.876-0.185,1.491 c0.281,0.356,0.16,0.451,0.076,0.396c-0.085-0.057-0.213-0.102-0.322-0.099c-0.111,0.003-0.281-0.357-0.414-0.602 c-0.132-0.242-0.659-0.617-0.773-0.802c-0.113-0.185-0.433-0.177-0.433-0.177s-0.907,0.075-0.832,0.143 c0.485,0.319,0.341,0.557,0.341,0.557l-0.605,0.667c0,0-0.547,0.293-0.716,0.342c-0.293,0.218,0.071,0.291,0.412,0.191 c0.34-0.102,0.327,0.051,0.292,0.204c-0.128,0.517-0.436,0.851-0.655,0.949c-0.435,0.373-0.473,0.91-0.212,1.126 c0,0,0.094,0.525-0.07,0.541c-0.163,0.015-0.37,0.206-0.359,0.287c0.013,0.083-0.118,0.424-0.177,0.483 c-0.188,0.32-0.491,0.291-0.634,0.224c-0.59,0.139-1.237-0.887-1.283-0.979c-0.045-0.093-0.519-0.316-0.431-0.739 c0.085-0.423-0.729-1.451-1.205-2.351c-0.051-0.039-0.54-0.152-0.805-0.229c-0.265-0.077-0.463-0.715-0.609-0.981 c-0.146-0.267,0.011-1.311,0.013-1.38c0.002-0.071,1.109-1.04,1.109-1.04l-0.102-0.409c0,0,0.32-0.579,0.421-0.394 c0.103,0.185,0.484,0.142,0.415-0.125c-0.07-0.268,0.001-0.399,0.099-0.411c0.099-0.015-0.02-0.234-0.164-0.396 c-0.143-0.161,0.159-0.215,0.331-0.417c0.173-0.201,0.114,0.431,0.143,0.642c0.028,0.21,0.625-0.363,0.653-0.399 c-0.133-0.407,0.162-0.519,0.248-0.533c0.088-0.013,0.45-0.265,0.535-0.373c0.084-0.106,0.36-0.111,0.45-0.103 c0.091,0.009,0.532,0.339,0.632,0.338c0.1-0.004,0.853-0.241,0.854-0.392c0.001-0.152,0.066-0.236,0.202-0.297 c0.135-0.061,0.091-0.553,0.091-0.553s0.64-0.176,0.733-0.213c0.095-0.037-0.021-0.245-0.067-0.338 c0.083-0.281-0.583-0.544-0.35-0.53C22.187,8.317,22.889,8.76,23.011,8.921z M16.25,13.2l0.104,0.114 c0,0,0.463,0.04,0.938,0.217c0.079,0.071,0.043,0.419,0.043,0.419s0.581,0.689,0.662,0.559c0.082-0.13,0.198-0.251,0.369-0.136 c0.17,0.113,0.563,0.246,0.751,0.242c0.081,0.021,0.483,0.142,0.388-0.477c-0.182-0.219-0.565-0.176-0.639-0.232 c-0.074-0.058-0.264-0.475-0.264-0.475l-0.127,0.038c0,0,0.018,0.293-0.061,0.294c-0.075,0.001-0.302-0.438-0.302-0.438 l-0.009-0.234l-0.297-0.32c0,0-0.156,0.084,0.223,0.509c0,0-0.188,0.249-0.351,0.265c0.036-0.061,0.1-0.33,0.1-0.33 s-0.595-0.648-0.686-0.559c-0.105,0.107-0.433,0.313-0.433,0.313l-0.204,0.216L16.25,13.2z M18.624,10.976 c-0.183,0.409-0.513,0.531-0.462,0.676c0.02,0.058,0.361,0.133,0.394-0.03c0.034-0.165,0.228-0.204,0.218-0.274 C18.764,11.277,18.647,10.922,18.624,10.976z M19.346,12.961c-0.057-0.021-0.197-0.23-0.308-0.076 c-0.111,0.153-0.231,0.497-0.062,0.516c0.168,0.021,0.396-0.078,0.458-0.031c0.063,0.045,0.51,0.221,0.542-0.012 C20.031,12.964,19.346,12.961,19.346,12.961z M19.413,15.076c0.005,0.071,0.381,0.765,0.381,0.765s0.009,0.233,0.075,0.315 c0.065,0.079,0.323,0.507,0.554,0.572c0.265-0.395-0.42-0.892-0.42-0.892l-0.05-0.197C19.953,15.639,19.39,14.75,19.413,15.076 z M20.861,14.835l0.038,0.2l0.461,0.456c0,0,0.359-0.041,0.255-0.319l-0.336-0.11L20.861,14.835z" fill="url(#SVGID_5)"/>
<linearGradient id="SVGID_6" gradientUnits="userSpaceOnUse" x1="28.99" y1="7.24" x2="28.99" y2="27.13">
<stop stop-color="#FFFFFF" offset="0"/>
<stop stop-color="#A2C2DD" offset="0.35"/>
<stop stop-color="#6C83BB" offset="0.7"/>
<stop stop-color="#003D6D" offset="1"/>
</linearGradient>
<polygon fill="url(#SVGID_6)" points="28.556,26.85 28.408,10.875 29.471,11.364 29.563,25.785 "/>
<linearGradient id="SVGID_7" gradientUnits="userSpaceOnUse" x1="18.07" y1="4.47" x2="18.78" y2="2.54">
<stop stop-color="#FFFFFF" offset="0.05"/>
<stop stop-color="#A2C2DD" offset="1"/>
</linearGradient>
<polygon fill="url(#SVGID_7)" points="12.408,2.495 13.563,2.132 24.355,4.721 23.51,5.314 "/>
<linearGradient id="SVGID_8" gradientUnits="userSpaceOnUse" x1="25.73" y1="-0.22" x2="21.89" y2="12.55">
<stop stop-color="#FFFFFF" offset="0"/>
<stop stop-color="#A2C2DD" offset="0.35"/>
<stop stop-color="#6C83BB" offset="0.7"/>
<stop stop-color="#003D6D" offset="1"/>
</linearGradient>
<polygon fill="url(#SVGID_8)" points="23.51,5.314 23.126,10.263 24.355,4.721 "/>
<linearGradient id="SVGID_9" gradientUnits="userSpaceOnUse" x1="26.86" y1="6.63" x2="25.42" y2="16.15">
<stop stop-color="#FFFFFF" offset="0"/>
<stop stop-color="#A2C2DD" offset="0.35"/>
<stop stop-color="#6C83BB" offset="0.7"/>
<stop stop-color="#003D6D" offset="1"/>
</linearGradient>
<polygon fill="url(#SVGID_9)" points="23.754,9.944 22.703,11.428 29.468,12.025 29.468,11.319 "/>
<linearGradient id="SVGID_10" gradientUnits="userSpaceOnUse" x1="28.33" y1="2.26" x2="26.11" y2="11.31">
<stop stop-color="#FFFFFF" offset="0.05"/>
<stop stop-color="#A2C2DD" offset="1"/>
</linearGradient>
<polygon fill="url(#SVGID_10)" points="29.471,11.364 24.355,4.721 23.126,10.263 "/>
</svg>