<?xml version="1.0" encoding="UTF-8"?>
<!DOCTYPE svg PUBLIC "-//W3C//DTD SVG 1.1 Tiny//EN" "http://www.w3.org/Graphics/SVG/1.1/DTD/svg11-tiny.dtd">
<svg baseProfile="tiny" height="60px" viewBox="0 0 60 60" width="60px" xmlns="http://www.w3.org/2000/svg" xmlns:xlink="http://www.w3.org/1999/xlink">
<path d="M30.372,41.37c17.396-0.017,22.544-10.343,22.887-12.899c0.176-1.338,0.419-3.131-0.017-5.313 c-0.217-1.078-1.007-2.242-1.245-2.574l-0.119-0.168l-0.151-0.135c-1.494-1.316-3.982-1.793-8.058-1.539 c-1.756,0.109-5.918,0.555-7.693,2.328c-0.077,0.076-0.145,0.154-0.215,0.236l-0.128,0.158l-0.091,0.182 c-0.13,0.256-0.537,1.24-0.329,3.045c0.172,1.514,1.043,2.953,1.737,3.922c-0.754,0.746-2.553,1.869-6.59,1.933l0.039,0.018 c-4.033-0.064-5.834-1.197-6.584-1.941c0.701-0.973,1.576-2.416,1.75-3.932c0.201-1.805-0.201-2.789-0.334-3.045l-0.088-0.184 l-0.131-0.156c-1.631-1.971-6.072-2.449-7.908-2.564c-4.074-0.25-6.564,0.229-8.072,1.557l-0.152,0.135L8.762,20.6 c-0.238,0.332-1.027,1.498-1.242,2.574c-0.438,2.188-0.197,3.98-0.037,5.168C7.961,31.928,14.239,41.37,30.372,41.37 M49.747,23.86 c0.318,1.598,0.141,2.92,0,3.988c-0.089,0.668-0.856,2.402-2.69,4.235c-2.74,2.741-7.862,5.709-16.669,5.709 c-14.717,0.015-19.15-8.256-19.354-9.78c-0.16-1.209-0.342-2.533-0.023-4.137c0.041-0.174,0.271-0.605,0.516-0.982 c0.492-0.35,1.783-0.813,5.359-0.594c2.791,0.176,4.559,0.768,5.158,1.146c0.016,0.193,0.023,0.463-0.021,0.846 c-0.115,0.992-1.201,2.486-1.711,3.057l-0.654,0.736l0.268,0.951c0.148,0.508,1.693,4.949,10.414,5.091h0.029l0.049-0.017 c5.057-0.083,7.708-1.604,9.068-2.966c0.984-0.986,1.297-1.886,1.36-2.097l0.285-0.957l-0.669-0.742 c-0.51-0.568-1.594-2.063-1.707-3.057c-0.044-0.381-0.038-0.652-0.021-0.846c0.6-0.379,2.362-0.973,5.158-1.146 c3.576-0.219,4.856,0.232,5.341,0.576C49.476,23.254,49.708,23.682,49.747,23.86" fill="#F0B11D"/>
<rect fill="none" height="60" width="60"/>
</svg>
