<?xml version="1.0" encoding="UTF-8"?>
<!DOCTYPE svg PUBLIC "-//W3C//DTD SVG 1.1 Tiny//EN" "http://www.w3.org/Graphics/SVG/1.1/DTD/svg11-tiny.dtd">
<svg width="84" height="72" viewBox="0 0 84 72">
<linearGradient id="_16" gradientUnits="userSpaceOnUse" x1="42.82" y1="34.14" x2="55.46" y2="59.03">
<stop stop-color="#A2C2DD" offset="0.1"/>
<stop stop-color="#6C83BB" offset="0.71"/>
<stop stop-color="#003D6D" offset="0.99"/>
</linearGradient>
<path fill="url(#_16)" d="M78.638,10.648c-0.53-0.88-1.497-1.028-1.497-1.028L46.271,7.438 c-1.322,0.107-2.021,0.167-2.903,0.575L43.057,8.22c0,0-1.906,6.406-2.067,6.948c-0.583-0.093-15.511-2.481-15.511-2.481 c-1.486-0.016-2.854,0.22-3.624,0.611l-0.199,0.101l-0.021,0.254c0,0,0.86,25.546,0.873,25.903 c-0.263,0.199-3.334,2.539-3.334,2.539s1.146,1.537,1.783,2.391c-1.732-0.486-14.44-4.055-14.44-4.055l-3.814,1.084l-0.126,5.252 l2.445,0.67l-2.835,0.723l11.292,15.584l3.375-2.521l0.933-1.628c0,0-1.037-1.585-1.6-2.443c1.604,0.435,17.128,4.64,17.128,4.64 l2.428-2.111l0.083-4.742l-1.888-0.443l1.604-1.229c0,0-0.611-0.98-0.625-1c1.627,0.454,21.638,6.026,21.638,6.026l3.204-2.951 c0,0,0.052-14.427,0.061-16.857l3.834,1.021c2.396,0.422,5.054-2.729,6.37-7.482c0,0,3.042-9.526,3.193-10 c0.426,0.009,2.674,0.028,2.674,0.028C78.639,16.469,79.683,12.383,78.638,10.648z"/>
<linearGradient id="_17" gradientUnits="userSpaceOnUse" x1="67.28" y1="-0.63" x2="50.73" y2="30.82">
<stop stop-color="#FFFFFF" offset="0.05"/>
<stop stop-color="#A2C2DD" offset="1"/>
</linearGradient>
<path fill="url(#_17)" d="M74.395,10.937L43.393,8.32l-6.201,20.834l26.764,10.021 C69.694,38.242,74.395,10.937,74.395,10.937z"/>
<linearGradient id="_18" gradientUnits="userSpaceOnUse" x1="86.54" y1="-0.7" x2="66.4" y2="31.17">
<stop stop-color="#FFFFFF" offset="0"/>
<stop stop-color="#496DA2" offset="0.71"/>
<stop stop-color="#235487" offset="0.99"/>
</linearGradient>
<path fill="url(#_18)" d="M74.406,11.008l-5.755,17.998c-2.229,6.915-2.765,10.138-4.86,10.165 c2.021,0.352,4.606-2.391,5.96-7.243l3.298-10.261l2.698,0.053C81.434,10.253,78.118,8.485,74.406,11.008z"/>
<linearGradient id="_19" gradientUnits="userSpaceOnUse" x1="58.68" y1="13.45" x2="62.22" y2="3.84">
<stop stop-color="#FFFFFF" offset="0.05"/>
<stop stop-color="#A2C2DD" offset="1"/>
</linearGradient>
<path fill="url(#_19)" d="M74.395,10.999c0.834-0.542,1.501-0.869,2.722-1.029L46.247,7.787 c-1.321,0.112-1.966,0.162-2.854,0.599L74.395,10.999z"/>
<path fill="#FFFFFF" d="M46.088,9.544c-0.635-0.07-1.308,0.397-1.498,1.043c-0.193,0.645,0.162,1.229,0.793,1.297 c0.629,0.07,1.301-0.396,1.498-1.045C47.078,10.192,46.724,9.613,46.088,9.544z"/>
<path fill="#FFFFFF" d="M44.797,13.793c-0.624-0.071-1.294,0.395-1.485,1.041c-0.19,0.644,0.156,1.23,0.776,1.303 c0.626,0.067,1.287-0.399,1.483-1.046C45.771,14.442,45.424,13.86,44.797,13.793z"/>
<path fill="#FFFFFF" d="M69.659,13.822c-0.522,1.61,1.845,1.808,2.371,0.195 C72.574,12.392,70.181,12.193,69.659,13.822z"/>
<path fill="#FFFFFF" d="M68.218,18.252c-0.521,1.604,1.814,1.799,2.34,0.198 C71.092,16.836,68.742,16.638,68.218,18.252z"/>
<path fill="#FFFFFF" d="M66.777,22.688c-0.518,1.618,1.774,1.815,2.305,0.197 C69.615,21.277,67.3,21.076,66.777,22.688z"/>
<path fill="#FFFFFF" d="M65.336,27.12c-0.522,1.608,1.744,1.811,2.268,0.203 C68.146,25.708,65.854,25.503,65.336,27.12z"/>
<path fill="#FFFFFF" d="M63.891,31.553c-0.525,1.628,1.701,1.834,2.238,0.204 C66.671,30.125,64.424,29.918,63.891,31.553z"/>
<path fill="#FFFFFF" d="M63.05,35.156l0.095,2.156c0.61,0.063,1.279-0.438,1.504-1.111 C65.037,35.027,63.912,34.515,63.05,35.156z"/>
<linearGradient id="_20" gradientUnits="userSpaceOnUse" x1="69.89" y1="58.54" x2="58.16" y2="21.14">
<stop stop-color="#FFFFFF" offset="0"/>
<stop stop-color="#496DA2" offset="0.71"/>
<stop stop-color="#235487" offset="0.99"/>
</linearGradient>
<path fill="url(#_20)" d="M60.434,18.767c7.111-0.166,0.639,16.239,3.521,20.408l-5.998-1.535 C57.957,37.64,55.399,17.851,60.434,18.767z"/>
<linearGradient id="_21" gradientUnits="userSpaceOnUse" x1="64.82" y1="60.14" x2="53.09" y2="22.74">
<stop stop-color="#A2C2DD" offset="0.1"/>
<stop stop-color="#6C83BB" offset="0.71"/>
<stop stop-color="#003D6D" offset="0.99"/>
</linearGradient>
<polygon fill="url(#_21)" points="56.462,57.897 56.604,19.658 59.537,18.905 59.407,55.185 "/>
<linearGradient id="_22" gradientUnits="userSpaceOnUse" x1="53.31" y1="8.98" x2="33.18" y2="47.23">
<stop stop-color="#FFFFFF" offset="0.05"/>
<stop stop-color="#A2C2DD" offset="1"/>
</linearGradient>
<polygon fill="url(#_22)" points="56.455,57.899 23.161,48.597 21.982,13.604 57.105,20.488 "/>
<linearGradient id="_23" gradientUnits="userSpaceOnUse" x1="40.3" y1="19.91" x2="43.36" y2="11.59">
<stop stop-color="#FFFFFF" offset="0.05"/>
<stop stop-color="#A2C2DD" offset="1"/>
</linearGradient>
<path fill="url(#_23)" d="M57.105,20.488c0.482-1.021,2.866-1.918,4.266-1.706l-35.948-5.75 c-1.331-0.01-2.713,0.197-3.467,0.603L57.105,20.488z"/>
<path fill="#FFFFFF" d="M24.069,16.991c0.071,1.668,2.586,2.198,2.527,0.529 C26.532,15.85,23.996,15.319,24.069,16.991z"/>
<path fill="#FFFFFF" d="M24.26,21.566c0.074,1.661,2.555,2.189,2.492,0.527 C26.689,20.433,24.184,19.905,24.26,21.566z"/>
<path fill="#FFFFFF" d="M24.449,26.143c0.075,1.668,2.516,2.196,2.458,0.527 C26.849,24.984,24.379,24.457,24.449,26.143z"/>
<path fill="#FFFFFF" d="M24.635,30.717c0.073,1.663,2.486,2.193,2.427,0.528 C27.002,29.582,24.563,29.055,24.635,30.717z"/>
<path fill="#FFFFFF" d="M24.823,35.292c0.066,1.67,2.449,2.196,2.391,0.528 C27.154,34.149,24.748,33.624,24.823,35.292z"/>
<path fill="#FFFFFF" d="M51.874,23.293c0.035,1.727,2.612,2.199,2.59,0.47C54.448,22.02,51.844,21.547,51.874,23.293 z"/>
<path fill="#FFFFFF" d="M51.959,28.053c0.03,1.729,2.576,2.202,2.556,0.472 C54.488,26.799,51.923,26.327,51.959,28.053z"/>
<path fill="#FFFFFF" d="M52.041,32.818c0.032,1.722,2.543,2.192,2.52,0.468 C54.538,31.546,52.011,31.077,52.041,32.818z"/>
<path fill="#FFFFFF" d="M52.122,37.579c0.028,1.74,2.506,2.213,2.484,0.473 C54.588,36.321,52.085,35.851,52.122,37.579z"/>
<path fill="#FFFFFF" d="M52.2,42.346c0.032,1.73,2.474,2.202,2.45,0.466C54.632,41.075,52.168,40.604,52.2,42.346z"/>
<path fill="#FFFFFF" d="M53.627,46.022c-0.674-0.127-1.21,0.36-1.193,1.088c0.021,0.728,0.572,1.423,1.245,1.553 c0.671,0.131,1.199-0.356,1.189-1.089C54.86,46.845,54.302,46.153,53.627,46.022z"/>
<path fill="#FFFFFF" d="M53.709,50.665c-0.685-0.127-1.226,0.361-1.207,1.087c0.016,0.733,0.58,1.423,1.261,1.554 c0.677,0.128,1.216-0.358,1.206-1.09C54.958,51.489,54.395,50.794,53.709,50.665z"/>
<path fill="#FFFFFF" d="M55.042,56.64c-0.01-0.729-0.567-1.426-1.246-1.555c-0.673-0.128-1.206,0.36-1.188,1.088 c0.004,0.25,0.078,0.494,0.194,0.715l1.969,0.53C54.939,57.226,55.047,56.956,55.042,56.64z"/>
<polygon fill="#334EA2" points="12.074,55.207 16.664,60.967 17.425,59.561 14.192,54.622 "/>
<linearGradient id="_24" gradientUnits="userSpaceOnUse" x1="-2.4" y1="30.56" x2="63.84" y2="105.91">
<stop stop-color="#E6EEF4" offset="0"/>
<stop stop-color="#575AC6" offset="0.44"/>
<stop stop-color="#003D6D" offset="0.94"/>
</linearGradient>
<polygon fill="url(#_24)" points="16.664,60.967 12.828,55.823 33.223,61.349 33.335,56.646 2.676,48.29 13.574,63.303 "/>
<linearGradient id="_25" gradientUnits="userSpaceOnUse" x1="17.08" y1="55.71" x2="20.36" y2="49.15">
<stop stop-color="#FFFFFF" offset="0"/>
<stop stop-color="#C0C6E8" offset="1"/>
</linearGradient>
<polygon fill="url(#_25)" points="35.45,55.187 6.65,47.321 2.684,48.3 33.301,56.822 "/>
<polygon fill-opacity="0.4" fill="#7B7FD1" points="34.228,54.89 6.65,47.321 4.608,47.782 33.079,55.786 "/>
<linearGradient id="_26" gradientUnits="userSpaceOnUse" x1="21.75" y1="25.36" x2="40.12" y2="73.38">
<stop stop-color="#E6EEF4" offset="0"/>
<stop stop-color="#575AC6" offset="0.44"/>
<stop stop-color="#003D6D" offset="0.94"/>
</linearGradient>
<polygon fill="url(#_26)" points="33.338,56.813 35.455,55.167 35.377,59.465 33.216,61.347 "/>
<linearGradient id="_27" gradientUnits="userSpaceOnUse" x1="12.77" y1="46.74" x2="14.92" y2="42.46">
<stop stop-color="#FFFFFF" offset="0"/>
<stop stop-color="#C0C6E8" offset="1"/>
</linearGradient>
<polygon fill="url(#_27)" points="22.519,45.28 6.604,40.808 3.145,41.792 24.32,47.865 "/>
<polygon fill="url(#_26)" points="26.021,38.854 23.152,39.546 32.811,54.979 35.135,53.189 "/>
<polygon fill="url(#_24)" points="19.701,42.175 23.537,47.318 3.145,41.792 3.031,46.495 32.8,54.968 23.152,39.546 "/>
<linearGradient id="_30" gradientUnits="userSpaceOnUse" x1="41.99" y1="17.58" x2="38.83" y2="40.01">
<stop stop-color="#FFFFFF" offset="0"/>
<stop stop-color="#496DA2" offset="0.71"/>
<stop stop-color="#235487" offset="0.99"/>
</linearGradient>
<polygon fill="url(#_30)" points="43.282,37.112 43.447,44.247 35.161,42.024 35.278,35.055 30.885,34.06 39.615,24.176 47.846,38.37 "/>
</svg>