<?xml version="1.0" encoding="UTF-8"?>
<!DOCTYPE svg PUBLIC "-//W3C//DTD SVG 1.1 Tiny//EN" "http://www.w3.org/Graphics/SVG/1.1/DTD/svg11-tiny.dtd">
<svg width="44" height="43.999" viewBox="0 0 44 43.999">
<path d="M13.07,4.865v8.856c-1.074-0.135-2.389,0.17-3.512,0.902c-1.92,1.258-2.535,3.277-1.654,4.619 c0.877,1.338,3.191,1.24,5.111-0.02c1.121-0.799,1.912-1.996,1.754-3.596l-0.004-8.13l3.836,1.915l0.668-1.448L13.07,4.865z" fill="#496DA2"/>
<path d="M23.285,19.267v-2.006h-2.363v2.365l-7.078,7.092h-2.586l4.801,4.744v-0.018h6.299V19.267H23.285z M20.922,26.718h-4.73l4.73-4.729V26.718z" fill="#496DA2"/>
<linearGradient id="_3" gradientUnits="userSpaceOnUse" x1="-10" y1="4.84" x2="22.95" y2="44.79">
<stop stop-color="#FFFFFF" offset="0"/>
<stop stop-color="#E0EAF3" offset="0.11"/>
<stop stop-color="#A2C2DD" offset="0.35"/>
<stop stop-color="#8CA9CF" offset="0.48"/>
<stop stop-color="#6C83BB" offset="0.7"/>
<stop stop-color="#637DB5" offset="0.75"/>
<stop stop-color="#4C6EA4" offset="0.82"/>
<stop stop-color="#265689" offset="0.91"/>
<stop stop-color="#003D6D" offset="0.99"/>
</linearGradient>
<path d="M9.398,33.868V22.04c-0.156-0.018-0.322-0.008-0.473-0.039c-0.617-0.127-1.158-0.371-1.625-0.705 v14.73h15.057v-2.158H9.398z" fill="url(#_3)"/>
<path d="M16.666,12.11c0,0.813,0,1.566-0.002,2.158h17.938v4.998h2.102V12.11H16.666z" fill="url(#_3)"/>
<path d="M33.43,23.366h-5.773v-2.1h-3.299V36.06h3.299v-2.094h5.773v2.094h3.273V21.267H33.43V23.366z M25.256,22.128h1.357v1.039h-1.357V22.128z M26.656,35.167h-1.357v-1.039h1.357V35.167z M26.656,32.706h-1.357v-1.039h1.357 V32.706z M26.656,30.267h-1.357v-1.039h1.357V30.267z M26.656,27.866h-1.357v-1.039h1.357V27.866z M26.656,25.466h-1.357v-1.039 h1.357V25.466z M35.758,35.167H34.4v-1.039h1.357V35.167z M35.758,32.706H34.4v-1.039h1.357V32.706z M35.758,30.267H34.4v-1.039 h1.357V30.267z M35.758,27.866H34.4v-1.039h1.357V27.866z M35.758,25.466H34.4v-1.039h1.357V25.466z M34.357,22.128h1.357v1.039 h-1.357V22.128z M33.457,31.866h-5.801v-6.4h5.801V31.866z" fill="#496DA2"/>
</svg>