<?xml version="1.0" encoding="UTF-8"?>
<!DOCTYPE svg PUBLIC "-//W3C//DTD SVG 1.1 Tiny//EN" "http://www.w3.org/Graphics/SVG/1.1/DTD/svg11-tiny.dtd">
<svg width="84" height="58" viewBox="-8.144 -32.411 84 58">
<linearGradient id="_5" gradientUnits="userSpaceOnUse" x1="37.4" y1="-4.22" x2="48.35" y2="17.34">
<stop stop-color="#A2C2DD" offset="0.1"/>
<stop stop-color="#6C83BB" offset="0.71"/>
<stop stop-color="#003D6D" offset="0.99"/>
</linearGradient>
<path fill="url(#_5)" d="M28.665-27.018l0.014,0.021c-5.037,2.024-8.092,7.09-8.17,13.55l0.156,15.112 c-0.121,10.042,6.086,18.795,13.838,19.504c1.775,0.161,3.539-0.005,5.236-0.493c5.775-1.405,13.512-4.578,13.857-15.83 l0.402-16.239c-0.139-6.707-2.801-12.047-7.498-15.056C41.576-29.603,35.076-29.811,28.665-27.018z"/>
<linearGradient id="_6" gradientUnits="userSpaceOnUse" x1="41.16" y1="-29.93" x2="41.46" y2="20.03">
<stop stop-color="#FFFFFF" offset="0"/>
<stop stop-color="#A2C2DD" offset="0.35"/>
<stop stop-color="#6C83BB" offset="0.7"/>
<stop stop-color="#003D6D" offset="1"/>
</linearGradient>
<path fill="url(#_6)" d="M28.806-26.697c12.26-5.341,24.541,0.719,24.844,15.295L53.247,4.836 c-0.326,10.598-7.188,14.196-14.934,15.804L28.806-26.697z"/>
<linearGradient id="_7" gradientUnits="userSpaceOnUse" x1="16.91" y1="-41.07" x2="38.07" y2="2.11">
<stop stop-color="#FFFFFF" offset="0.15"/>
<stop stop-color="#A2C2DD" offset="1"/>
</linearGradient>
<path fill="url(#_7)" d="M35.427-27.365c9.17,1.141,14.352,8.674,14.133,19.815L49.103,6.896 c-0.113,9.407-7.059,14.608-14.568,13.923c-7.926-0.725-13.633-9.751-13.52-19.157L20.86-13.444 C20.973-22.845,27.529-28.622,35.427-27.365z"/>
<path fill="#FFFFFF" d="M44.208-9.45l-7.223,6.752l7.182,9.727l-10.559,9.853L33.634,0.43l-5.113,4.775l-1.857-2.664l6.467-6.036 l-6.43-8.698l1.867-1.893l5.086,6.879l0.057-16.441L44.208-9.45z M36.361-15.648c-0.008,3.204-0.021,6.014-0.035,9.163 c1.816-1.688,3.516-3.284,4.025-3.759C39.408-11.523,38.074-13.325,36.361-15.648 M40.312,6.234 c-0.506-0.693-2.199-2.984-4.004-5.42c-0.002,3.152-0.004,5.965-0.01,9.16C38.021,8.371,39.363,7.117,40.312,6.234"/>
<path fill="#FFFFFF" d="M5.563,2.088c-2.774,0-6.577,0.658-7.54,6.354l-0.145,0.857c0,0,6.393,0,7.151,0 c0.23,0.412,0.57,1.027,0.787,1.422C5.6,11.113,5.261,11.728,5.03,12.139c-0.758,0-7.151,0-7.151,0l0.145,0.859 c0.963,5.694,4.766,6.353,7.54,6.353c2.189,0,4.139-1.834,5.705-3.312c0.846-0.799,1.646-1.549,2.068-1.549h19.581l0.219-0.24 c0.42-0.463,1.395-1.727,1.418-3.5v-0.063c-0.021-1.773-0.998-3.037-1.418-3.498l-0.219-0.24H13.337 c-0.422,0-1.223-0.752-2.066-1.547C9.702,3.924,7.753,2.088,5.563,2.088z"/>
<linearGradient id="_8" gradientUnits="userSpaceOnUse" x1="4.23" y1="-2.54" x2="25.34" y2="22.85">
<stop stop-color="#E6EDF3" offset="0"/>
<stop stop-color="#CABAD7" offset="0.12"/>
<stop stop-color="#AB7EB8" offset="0.27"/>
<stop stop-color="#9759A4" offset="0.38"/>
<stop stop-color="#8F4B9C" offset="0.44"/>
<stop stop-color="#73357C" offset="0.57"/>
<stop stop-color="#551D5A" offset="0.72"/>
<stop stop-color="#430E45" offset="0.85"/>
<stop stop-color="#3C093D" offset="0.94"/>
</linearGradient>
<path fill="url(#_8)" d="M33.822,10.721c0-0.008,0.002-0.018,0.002-0.023H33.82c-0.018-1.543-0.902-2.656-1.229-3.012 c-0.412,0-19.254,0-19.254,0c-0.717,0-1.494-0.734-2.574-1.748C9.292,4.551,7.462,2.826,5.563,2.826 c-3.079,0-5.995,0.904-6.811,5.738c1.156,0,6.713,0,6.713,0l1.193,2.156l-1.193,2.154c0,0-5.557,0-6.713,0 c0.814,4.835,3.73,5.739,6.811,5.739c1.898,0,3.729-1.725,5.199-3.112c1.08-1.014,1.857-1.748,2.574-1.748c0,0,18.842,0,19.254,0 c0.324-0.354,1.211-1.469,1.229-3.012h0.004C33.824,10.734,33.822,10.728,33.822,10.721z"/>
</svg>