<?xml version="1.0" encoding="UTF-8"?>
<!DOCTYPE svg PUBLIC "-//W3C//DTD SVG 1.1 Tiny//EN" "http://www.w3.org/Graphics/SVG/1.1/DTD/svg11-tiny.dtd">
<svg baseProfile="tiny" height="22px" version="1.1" viewBox="0 0 22 22" width="22px" x="0px" xmlns="http://www.w3.org/2000/svg" xmlns:xlink="http://www.w3.org/1999/xlink" y="0px">
<g>
<rect fill="none" height="22" width="22"/>
<path d="M20.072,2.719h-3.719c-0.957,0.004-1.721,0.939-1.725,1.896h-2.311V3.691c0-0.209-0.086-0.408-0.237-0.549   c-0.075-0.07-1.866-1.702-5.023-1.83C6.625,1.312,6.277,1.624,6.277,2.062v2.515H2.412C0.158,4.803,0.771,6.851,0.771,6.851   l1.857,5.579c0.236,0.705,0.893,1.184,1.641,1.184l10.354,0.01v1.179H2.412c-2.037-0.021-2.657,3.357,0.211,3.459   c-0.403,1.439,0.7,2.787,2.113,2.787c1.514,0,2.486-1.446,2.111-2.787h5.068c-0.383,1.366,0.627,2.787,2.115,2.787   c1.514,0,2.494-1.459,2.109-2.787c0,0,1.93,0.14,1.941-1.729V6.178h1.99C22.396,6.017,22.341,2.844,20.072,2.719z" fill-opacity="0.4" stroke-opacity="0.4"/>
<path d="M12.637,18.855c0,0.77,0.623,1.394,1.395,1.394c0.768,0,1.393-0.624,1.393-1.394   c0-0.771-0.625-1.395-1.393-1.395C13.26,17.461,12.637,18.085,12.637,18.855z M3.342,18.855c0,0.77,0.625,1.394,1.395,1.394   s1.395-0.624,1.395-1.394c0-0.771-0.625-1.395-1.395-1.395S3.342,18.085,3.342,18.855z M20.072,3.52h-3.719   c-0.51,0-0.93,0.419-0.93,0.93v11.152H2.412c-1.266,0.093-1.224,1.77,0,1.859h2.324h9.295h2.322c0.512,0,0.93-0.419,0.93-0.93   V5.379h2.789C21.318,5.299,21.295,3.576,20.072,3.52z M8.914,5.378v2.325c0.242-0.096,0.501-0.159,0.769-0.188V5.378H8.914z    M3.389,12.178c0.129,0.379,0.482,0.637,0.883,0.637h10.223V5.379H12.57v4.273c-0.015,1.256-1.154,2.41-2.776,2.41   c-1.125,0-2.082-0.643-2.384-1.545c-1.605,0.71-3.508-0.09-3.74-1.643C3.496,7.684,4.491,6.377,6.025,6.221V5.378L2.412,5.377   C1.891,5.381,1.309,5.903,1.531,6.601L3.389,12.178z M4.661,8.729C4.763,9.424,5.57,9.883,6.465,9.752   c1.387-0.198,1.448-1.383,1.448-1.383V3.923c0.716,0.131,1.767,0.426,2.77,1.092v3.579C9.28,8.188,8.217,9.119,8.317,10.01   c0.078,0.699,0.913,1.175,1.805,1.025c1.434-0.244,1.448-1.383,1.448-1.383V3.691c0,0-1.625-1.513-4.544-1.629v5.25   C5.491,6.855,4.547,7.963,4.661,8.729z" fill="#FFFFFF"/>
</g>
</svg>
