<?xml version="1.0" encoding="UTF-8"?>
<!DOCTYPE svg PUBLIC "-//W3C//DTD SVG 1.1 Tiny//EN" "http://www.w3.org/Graphics/SVG/1.1/DTD/svg11-tiny.dtd">
<svg width="96" height="96" viewBox="0 0 96 96">
<path d="M81.95,81.929L60.817,60.798c-0.843,0.843-6.58,5.673-12.815,5.673c-6.206,0-12.008-4.775-12.852-5.617 L14.077,81.954C23.134,91.012,35.178,96,47.991,96C60.818,96,72.879,91.003,81.95,81.929z" fill-opacity="0.01" />
<path d="M80.415,80.394L60.817,60.798c-1.253,1.253-6.934,5.673-12.815,5.673c-5.821,0-11.598-4.366-12.852-5.617 L15.613,80.419c8.646,8.647,20.145,13.41,32.378,13.41C60.238,93.829,71.753,89.058,80.415,80.394z" fill-opacity="0.02" />
<path d="M78.88,78.858L60.817,60.798c-1.663,1.663-7.295,5.673-12.815,5.673c-5.403,0-11.187-3.958-12.852-5.617 l-18.002,18.03c8.236,8.237,19.19,12.773,30.843,12.773C59.658,91.657,70.628,87.112,78.88,78.858z" fill-opacity="0.04" />
<path d="M77.344,77.323L60.817,60.798c-2.073,2.072-7.771,5.673-12.815,5.673c-5.019,0-10.778-3.549-12.852-5.617 L18.684,77.349c7.826,7.826,18.235,12.138,29.308,12.138C59.078,89.486,69.502,85.167,77.344,77.323z" fill-opacity="0.07" />
<path d="M75.809,75.788l-14.991-14.99c-2.482,2.482-8.279,5.673-12.815,5.673c-4.498,0-10.368-3.141-12.852-5.617 L20.219,75.813c7.416,7.417,17.279,11.502,27.772,11.502C58.498,87.314,68.377,83.222,75.809,75.788z" fill-opacity="0.11" />
<path d="M47.991,85.144c9.927,0,19.261-3.867,26.282-10.891L60.817,60.798c-2.893,2.893-8.724,5.673-12.815,5.673 c-3.933,0-9.959-2.73-12.852-5.617L21.754,74.277C28.76,81.285,38.078,85.144,47.991,85.144z" fill-opacity="0.13" />
<path d="M48,65.492c4.823,0,9.191-1.953,12.355-5.111l12.357,12.382c-13.648,13.649-35.788,13.639-49.449-0.024 l12.368-12.369C38.796,63.535,43.169,65.492,48,65.492z" fill="#87A8CB"/>
<linearGradient id="_3" gradientUnits="userSpaceOnUse" x1="47.95" y1="66.07" x2="47.95" y2="82.61">
<stop stop-color="#FFFFFF" offset="0.15"/>
<stop stop-color="#DEE9F3" offset="0.38"/>
<stop stop-color="#CADCEC" offset="0.66"/>
<stop stop-color="#A2C2DD" offset="0.97"/>
</linearGradient>
<path d="M47.837,82.106c-8.748,0-17.043-3.295-23.367-9.118c1.029-1.041,10.649-10.519,11.587-11.469 c3.341,3.1,7.106,4.778,11.666,4.778c4.554,0,8.822-1.714,12.162-4.805c0.938,0.95,10.522,10.449,11.55,11.49 C65.082,78.991,56.572,82.106,47.837,82.106z" fill="url(#_3)"/>
<path d="M70.489,72.984c-12.772,11.346-32.24,11.332-45.001,0h-1.046c13.207,12.253,33.872,12.265,47.092,0 H70.489z" fill="#FFFFFF"/>
<linearGradient id="_4" gradientUnits="userSpaceOnUse" x1="47.99" y1="54.05" x2="47.99" y2="78.36">
<stop stop-color="#87A8CB" offset="0"/>
<stop stop-color="#FFFFFF" offset="1"/>
</linearGradient>
<path d="M71.509,73.006c-1.323-1.305-10.517-10.42-11.624-11.513c-3.362,2.732-7.553,4.297-11.933,4.297 c-4.374,0-8.535-1.546-11.896-4.271C34.952,62.613,25.79,71.683,24.47,72.988h0.991c0.964-0.951,10.126-10.009,10.684-10.56 c3.43,2.599,7.583,4.062,11.808,4.062c4.229,0,8.387-1.467,11.821-4.072c0.717,0.709,9.793,9.707,10.69,10.588H71.509z" fill="url(#_4)"/>
<path d="M64.982,67.944c0,0-5.097,4.487-17.141,4.487c-10.979,0-17.073-4.487-17.073-4.487 c-9.488,6.681,7.314,12.963,17.028,12.963C57.508,80.907,74.723,74.688,64.982,67.944z" fill="#FFFFFF" fill-opacity="0.3" />
<polygon fill="#CADCEC" points="49.459,67.733 49.459,78.75 56.965,73.154 "/>
<polygon fill="#A2C2DD" points="49.459,67.733 49.881,68.57 56.586,73.447 56.965,73.154 "/>
<polygon fill="#A2C2DD" points="49.466,78.746 49.881,78.454 49.881,68.57 49.459,67.733 "/>
<rect fill="#CADCEC" height="11.017" width="2.809" x="42.862" y="67.735"/>
<rect fill="#A2C2DD" height="0.443" width="2.809" x="42.862" y="67.731"/>
<polygon fill="#A2C2DD" points="45.235,78.75 45.673,78.75 45.673,67.737 45.229,67.737 "/>
</svg>