<?xml version="1.0" encoding="UTF-8"?>
<!DOCTYPE svg PUBLIC "-//W3C//DTD SVG 1.1 Tiny//EN" "http://www.w3.org/Graphics/SVG/1.1/DTD/svg11-tiny.dtd">
<svg baseProfile="tiny" height="32px" version="1.1" viewBox="0 0 32 32" width="32px" x="0px" xmlns="http://www.w3.org/2000/svg" xmlns:xlink="http://www.w3.org/1999/xlink" y="0px">
<rect fill="none" height="32" width="32"/>
<path d="M26.208,27.014c3.194,0,5.792-2.477,5.792-5.525v-1.953c0-3.043-2.596-5.521-5.792-5.521H0v13H26.208z"/>
<path d="M26.208,25.014c2.092,0,3.792-1.598,3.792-3.525v-1.953c0-1.922-1.734-3.523-3.792-3.523  H0v9h26.208V25.014z" fill="#FFFFFF" fill-opacity="0.7"/>
<path d="M26.208,17.514c1.25,0,2.292,0.943,2.292,2.025v1.949c0,1.084-1.042,2.025-2.292,2.025H0v1.5h26.208  c2.092,0,3.792-1.598,3.792-3.525v-1.953c0-1.922-1.7-3.523-3.792-3.523H0v1.502H26.208z" fill="#FFFFFF"/>
</svg>
