<?xml version="1.0" encoding="UTF-8"?>
<!DOCTYPE svg PUBLIC "-//W3C//DTD SVG 1.1 Tiny//EN" "http://www.w3.org/Graphics/SVG/1.1/DTD/svg11-tiny.dtd">
<svg baseProfile="tiny" height="88px" version="1.1" viewBox="0 0 88 88" width="88px" x="0px" xmlns="http://www.w3.org/2000/svg" xmlns:xlink="http://www.w3.org/1999/xlink" y="0px">
<g>
<rect fill="none" height="88" width="88"/>
<g>
<linearGradient gradientTransform="matrix(1 0 0 1 2405.04 -755.0391)" gradientUnits="userSpaceOnUse" id="SVGID_1_" x1="-2369.5142" x2="-2321.8501" y1="754.7549" y2="828.9221">
<stop offset="0" style="stop-color:#E8FFFF"/>
<stop offset="1" style="stop-color:#747F7F"/>
</linearGradient>
<path d="M43.999,1.408c11.744,0,22.392,4.776,30.104,12.489    l0.996-0.995C67.131,4.935,56.131,0,44,0S20.869,4.935,12.901,12.902l0.996,0.995C21.608,6.185,32.256,1.408,43.999,1.408z" fill="url(#SVGID_1_)" fill-opacity="0.13" stroke-opacity="0.13"/>
<linearGradient gradientTransform="matrix(1 0 0 1 2405.04 -755.0391)" gradientUnits="userSpaceOnUse" id="SVGID_2_" x1="-2382.7695" x2="-2306.679" y1="747.207" y2="823.2975">
<stop offset="0" style="stop-color:#E8FFFF"/>
<stop offset="1" style="stop-color:#747F7F"/>
</linearGradient>
<path d="M13.897,13.897l0.996,0.995    C22.35,7.436,32.646,2.816,44,2.816c11.355,0,21.65,4.619,29.107,12.076l0.996-0.995C66.391,6.185,55.743,1.408,43.999,1.408    C32.256,1.408,21.608,6.185,13.897,13.897z" fill="url(#SVGID_2_)" fill-opacity="0.33" stroke-opacity="0.33"/>
<linearGradient gradientTransform="matrix(1 0 0 1 2405.04 -755.0391)" gradientUnits="userSpaceOnUse" id="SVGID_3_" x1="-2385.2354" x2="-2315.3589" y1="743.9727" y2="818.9421">
<stop offset="0" style="stop-color:#E8FFFF"/>
<stop offset="1" style="stop-color:#747F7F"/>
</linearGradient>
<path d="M44,7.04c10.207,0,19.445,4.137,26.135,10.825    l2.973-2.972C65.65,7.436,55.355,2.816,44,2.816c-11.354,0-21.65,4.619-29.107,12.076l2.973,2.972    C24.554,11.177,33.793,7.04,44,7.04z" fill="url(#SVGID_3_)" fill-opacity="0.33" stroke-opacity="0.33"/>
<linearGradient gradientTransform="matrix(1 0 0 1 2405.04 -755.0391)" gradientUnits="userSpaceOnUse" id="SVGID_4_" x1="-2388.8794" x2="-2331.7971" y1="745.0654" y2="802.1476">
<stop offset="0" style="stop-color:#E8FFFF"/>
<stop offset="1" style="stop-color:#747F7F"/>
</linearGradient>
<path d="M43.999,25.617c5.077,0,9.673,2.057,12.999,5.385l13.137-13.137C63.445,11.177,54.207,7.04,44,7.04    s-19.446,4.137-26.135,10.825L31,31C34.327,27.674,38.922,25.617,43.999,25.617z" fill="url(#SVGID_4_)"/>
</g>
<linearGradient gradientTransform="matrix(1 0 0 1 2405.04 -755.0391)" gradientUnits="userSpaceOnUse" id="SVGID_5_" x1="-2392.6475" x2="-2311.8713" y1="738.0342" y2="818.8101">
<stop offset="0" style="stop-color:#E8FFFF"/>
<stop offset="1" style="stop-color:#747F7F"/>
</linearGradient>
<path d="M56.512,30.537L72.447,14.6C65.16,7.312,55.098,2.797,44,2.797c-11.098,0-21.162,4.515-28.45,11.804   l15.938,15.937c3.281-3.052,7.677-4.92,12.512-4.92S53.229,27.485,56.512,30.537z" fill="url(#SVGID_5_)"/>
<linearGradient gradientTransform="matrix(1 0 0 1 2405.04 -755.0391)" gradientUnits="userSpaceOnUse" id="SVGID_6_" x1="-2381.5806" x2="-2248.9937" y1="751.3281" y2="873.4475">
<stop offset="0" style="stop-color:#E8FFFF"/>
<stop offset="1" style="stop-color:#747F7F"/>
</linearGradient>
<path d="M56.038,30.113l15.511-15.51C64.111,7.394,54.354,3.43,43.999,3.43   c-10.355,0-20.111,3.964-27.55,11.174l15.511,15.51c3.226-2.799,7.433-4.497,12.039-4.497   C48.605,25.617,52.813,27.314,56.038,30.113z" display="none" fill="url(#SVGID_6_)"/>
<polygon fill="#D1FFFF" points="37.72,11.792 50.277,11.792 44,5.513  "/>
</g>
</svg>
