<?xml version="1.0" encoding="UTF-8"?>
<!DOCTYPE svg PUBLIC "-//W3C//DTD SVG 1.1 Tiny//EN" "http://www.w3.org/Graphics/SVG/1.1/DTD/svg11-tiny.dtd">
<svg width="12" height="200" viewBox="-0.5 -0.03 12 200">
<path fill-opacity="0.5" fill="#87A8CB" d="M-0.5,35.435v129.07c0,2.912,2.804,5.465,6,5.465s6-2.553,6-5.465V35.435 c0-1.463-0.681-2.853-1.915-3.914C8.439,30.535,6.951,29.97,5.5,29.97C2.304,29.97-0.5,32.523-0.5,35.435z"/>
<path fill="#DEE9F3" d="M5.5,168.97c-2.484,0-5-2-5-4.465V35.435c0-2.465,2.516-4.464,5-4.464l0,0c2.487,0,5,1.999,5,4.464v129.07 C10.5,166.97,7.987,168.97,5.5,168.97L5.5,168.97z"/>
</svg>