<?xml version="1.0" encoding="UTF-8"?>
<!DOCTYPE svg PUBLIC "-//W3C//DTD SVG 1.1 Tiny//EN" "http://www.w3.org/Graphics/SVG/1.1/DTD/svg11-tiny.dtd">
<svg baseProfile="tiny" height="192" viewBox="0 0 192 192" width="192" xmlns="http://www.w3.org/2000/svg" xmlns:xlink="http://www.w3.org/1999/xlink">
<rect fill="none" height="192" width="192"/>
<path d="M170.787,68.082V59.88h-29.461L30.146,26.91l-2.904,10.317l73.137,22.652H31.348v86.485c0,4.333,3.572,7.842,7.959,7.842 h123.52c5.174,0,7.961-4.037,7.961-7.842V96.791c4.525,0,8.201-3.677,8.201-8.203V76.285 C178.988,71.759,175.313,68.082,170.787,68.082z" fill="#2D4C6C"/>
<polygon fill="#B0C7DE" points="126.908,59.88 32.971,32.021 32.277,34.483 114.26,59.88 "/>
<polygon fill="#7AA0C7" points="128.582,64.366 142.383,64.431 125.777,59.56 113.314,59.592 128.541,64.357 "/>
<path d="M162.584,88.588c0,2.268,1.844,4.102,4.102,4.102h4.102c2.273,0,4.102-1.834,4.102-4.102H162.584z" fill="#7AA0C7"/>
<path d="M174.889,76.285c0-2.267-1.828-4.102-4.102-4.102h-4.102v-8.202H35.447v82.384 c0,2.06,1.742,3.741,3.859,3.741h123.52c3.859,0,3.859-3.741,3.859-3.741V88.588h8.203V76.285z" fill="#B0C7DE"/>
<polygon fill="#EBF1F7" points="162.584,72.184 39.549,72.184 39.549,146.005 48.352,146.005 162.584,88.881 "/>
<path d="M162.602,63.981l-0.018,82.023H35.447c0,2.25,1.844,4.094,4.09,4.102h123.064 c2.242-0.008,4.102-1.852,4.102-4.102V63.981H162.602z" fill="#7AA0C7"/>
<rect fill="#FFFFFF" height="4.102" width="123.035" x="39.549" y="68.082"/>
<rect fill="#2D4C6C" height="24.606" width="114.832" x="43.65" y="76.285"/>
<polygon fill="#5B8BBA" points="43.65,76.285 43.65,100.892 94.146,100.892 143.359,76.285 "/>
<rect fill="#7AA0C7" height="4.101" width="114.832" x="43.65" y="84.487"/>
<rect fill="#81A6CA" height="24.606" width="7.959" x="68.258" y="76.285"/>
<path d="M157.107,138.123c0,2.091-1.684,3.78-3.781,3.78H47.428c-2.096,0-3.781-1.689-3.781-3.78v-26.474 c0-2.094,1.686-3.785,3.781-3.785h105.898c2.098,0,3.781,1.691,3.781,3.785V138.123z" fill="#5B8BBA"/>
<path d="M47.428,107.864c-2.096,0-3.781,1.691-3.781,3.785v26.474c0,2.091,1.686,3.78,3.781,3.78h9.121 l68.084-34.039H47.428z" fill="#7AA0C7"/>
<path d="M66.611,127.443c-3.998-1.673-8.598-2.774-15.021-2.493c-0.004,0.238,0.021,21.543,0.021,24.703 c-2.84-0.473-4.484,0.068-4.805,0.152l0.018-29.387c-0.072-3.575-3.906-3.95-5.479-3.028l-21.652,10.823c0,0,0,19.217,0.004,23.32 c-0.684-0.019-1.365,0.013-2.041,0.128c-4.771,0.844-8.105,4.706-7.436,8.604c0.281,1.693,2.525,6.6,9.932,5.553 c4.227-0.741,7.377-3.844,7.486-7.377c0,0,0.023-20.869,0.027-22.685c1.287-0.642,8.172-4.087,11.186-5.593v14.179 c-0.682-0.019-1.363,0.007-2.037,0.124c-4.773,0.844-8.107,4.706-7.436,8.607c0.289,1.639,1.264,3.115,2.746,4.148 c1.842,1.283,4.287,1.804,6.768,1.458c0.006,0.339,0.031,0.676,0.09,1.015c0.814,4.591,6.076,7.502,11.725,6.5 c5.16-0.903,8.885-4.675,8.885-8.885c-0.063-0.34-0.033-17.455-0.012-20.694c4.137,0.573,9.566,3.429,9.566,3.429v-8.754 C69.15,129.524,68.225,128.119,66.611,127.443z" fill="#2D4C6C"/>
<path d="M45.23,120.423c0-0.599-0.244-1.06-0.627-1.363c-0.635-0.511-22.408,10.511-22.408,10.511l-0.631,23.802 c-1.07-0.274-2.457-0.34-3.633-0.135c-3.928,0.698-6.664,3.725-6.139,6.768c0.535,3.037,4.158,4.948,8.082,4.254 c3.533-0.619,6.084-3.143,6.172-5.857h0.025v-24.527l14.697-7.326l-0.047,19.621c-1.047-0.222-2.457-0.327-3.633-0.121 c-3.928,0.697-6.664,3.721-6.141,6.767c0.471,2.656,3.303,4.453,6.633,4.397c0.473-0.01,7.625-5.852,7.629-5.896h0.021 L45.23,120.423z" fill="#7AA0C7"/>
<path d="M37.373,147.616c-3.049,0.539-5.223,2.754-4.85,4.921c0.105,0.599,0.393,1.062,0.719,1.433l9.643-4.82 C41.781,147.891,39.613,147.225,37.373,147.616z" fill="#A1BCD8"/>
<path d="M18.213,154.804c-3.047,0.539-5.221,2.75-4.85,4.921c0.105,0.599,0.393,1.062,0.721,1.43l9.643-4.817 C22.623,155.078,20.457,154.411,18.213,154.804z" fill="#A1BCD8"/>
<path d="M26.074,132.845v1.939l14.373-7.178v18.506c0.566,0.122,1.102,0.293,1.594,0.521V124.81L26.074,132.845z" fill="#5E8DBB"/>
<path d="M22.885,153.82v-23.649l21.949-10.883c-0.592-0.746-1.764-0.975-2.773-0.471 c-1.346,0.674-20.77,10.387-20.77,10.387v24.1C21.855,153.421,22.391,153.593,22.885,153.82z" fill="#A1BCD8"/>
<path d="M37.51,157.206c4.971-0.145,7.779-3.364,7.723-6.129C41.055,151.6,38.193,154.327,37.51,157.206z" fill="#5E8DBB"/>
<path d="M45.215,151.456c-3.148,0.929-5.482,3.111-6.15,5.605C42.48,156.452,44.986,154.072,45.215,151.456z" fill="#2D4C6C"/>
<path d="M66.809,136.677c0,0-0.436-7.355-0.963-7.574c-3.693-1.547-7.633-2.473-12.391-2.359l0.049,24.856 c-1.594-0.676-3.609-0.763-5.445-0.438c-4.799,0.854-8.145,4.553-7.506,8.273c0.66,3.709,5.084,6.051,9.881,5.201 c4.553-0.801,7.801-4.18,7.553-7.701v-22.45C60.727,134.845,63.348,134.978,66.809,136.677z" fill="#8EAECF"/>
<path d="M67.555,131.298c0,1.596,0,6.212,0,6.212c-3.418-1.66-7.184-2.708-11.16-3.009v-1.59 c3.189,0.106,6.998,1.146,9.566,2.162v-4.722C65.961,130.352,67.531,130.352,67.555,131.298z" fill="#5586B7"/>
<path d="M48.338,152.733c-3.918,0.694-6.705,3.578-6.215,6.422c0.139,0.766,0.496,1.369,0.898,1.855l12.447-6.225 C54.07,153.098,51.297,152.214,48.338,152.733z" fill="#C9D8E8"/>
<path d="M65.994,128.916c-3.67-1.58-9.002-2.651-12.789-2.388V151.5c0.574,0.19,1.1,0.442,1.594,0.729v-24.097 c5.707-0.173,12.756,3.165,12.756,3.165C67.555,129.704,66.521,129.136,65.994,128.916z" fill="#C9D8E8"/>
</svg>
