<?xml version="1.0" encoding="UTF-8"?>
<!DOCTYPE svg PUBLIC "-//W3C//DTD SVG 1.1 Tiny//EN" "http://www.w3.org/Graphics/SVG/1.1/DTD/svg11-tiny.dtd">
<svg width="12" height="200" viewBox="-0.5 -0.03 12 200">
<path fill-opacity="0.5" fill="#87A8CB" d="M-0.5,63.431v101.203c0,2.908,2.804,5.336,6,5.336s6-2.428,6-5.336V63.431 c0-1.461-0.681-2.85-1.915-3.912C8.439,58.534,6.951,57.97,5.5,57.97C2.304,57.97-0.5,60.522-0.5,63.431z"/>
<path fill="#DEE9F3" d="M5.5,168.97c-2.484,0-5-1.875-5-4.336V63.431c0-2.463,2.516-4.461,5-4.461l0,0c2.487,0,5,1.998,5,4.461 v101.203C10.5,167.095,7.987,168.97,5.5,168.97L5.5,168.97z"/>
</svg>