<?xml version="1.0" encoding="UTF-8" standalone="no"?>
<!DOCTYPE svg PUBLIC "-//W3C//DTD SVG 1.1 Tiny//EN" "http://www.w3.org/Graphics/SVG/1.1/DTD/svg11-tiny.dtd">
<svg xmlns="http://www.w3.org/2000/svg" xmlns:xlink="http://www.w3.org/1999/xlink" baseProfile="tiny" height="32px" version="1.1" viewBox="0 0 38.003 32" width="38.003px" x="0px" y="0px">
<rect fill="none" height="32" width="38.003"/>
<path d="M37.116,19.62v-0.621c-0.008-0.632-0.59-0.799-0.799-0.799h-5.169c-0.341,0-0.644,0.214-0.756,0.536  l-0.169,0.486l-0.155-0.473c-0.107-0.329-0.413-0.55-0.759-0.55h-2.943c-0.309,0-0.585,0.171-0.72,0.447l-0.171,0.347L25.3,18.641  c-0.137-0.271-0.411-0.44-0.715-0.44H21.62c-0.383,0-0.71,0.27-0.785,0.644l-0.158,0.79l-0.169-0.802  c-0.079-0.369-0.406-0.632-0.783-0.632h-1.411c-0.375,0-0.699,0.258-0.781,0.621l-0.188,0.813l-0.142-0.778  c-0.068-0.382-0.399-0.655-0.786-0.655h-1.418c-0.15,0-0.287,0.055-0.413,0.132c0.139-0.919,0.581-6.543-0.942-9.08  c-1.201-2.004-2.451-3.171-5.762-3.25C2.773,5.88,0.899,10.29,1.03,13.226c0.076,1.704,0.331,3.321,1.24,4.577  c0.904,1.264,2.432,2.042,4.4,2.026c0.801,0.005,1.518-0.099,2.153-0.314c-0.466,2.108-1.596,2.475-2.896,2.495  c-0.801,0-1.691-0.096-2.397-0.274c-0.239-0.059-1.007,0.18-0.996,0.777v2.397c0,0.389,0.283,0.722,0.665,0.788  c1.057,0.179,2.643,0.256,3.658,0.258c0,0,4.459-0.125,6.258-3.387c0.51-0.924,0.943-1.892,1.204-2.936l1.226,5.538  c0.079,0.366,0.404,0.629,0.78,0.629h1.556c0.369,0,0.691-0.256,0.779-0.614l0.197-0.829l0.174,0.808  c0.078,0.37,0.404,0.636,0.781,0.636h1.535c0.367,0,0.689-0.256,0.776-0.614l0.04-0.165c0.004,0.134,0.039,0.267,0.111,0.386  c0.143,0.245,0.404,0.394,0.688,0.394h1.226c0.306,0,0.583-0.174,0.718-0.448l0.301-0.614l0.311,0.619  c0.135,0.271,0.411,0.443,0.715,0.443h1.544c0.769-0.074,0.925-0.777,0.706-1.181l-1.512-2.81l0.673-1.235l0.955,2.503v1.921  c0,0.21,0.118,0.696,0.802,0.802h1.352c0.621-0.074,0.809-0.543,0.8-0.802v-1.916l1.005-2.52c0.047,0.008,0.925,0.027,0.925,0.027  l-1.64,3.446l-0.078,0.345v0.617c0,0.21,0.188,0.759,0.8,0.802h3.718c0.326,0.004,0.764-0.246,0.8-0.802v-0.79  c-0.052-0.607-0.589-0.8-0.8-0.8h-0.884l1.64-3.446L37.116,19.62z M8.77,15.366c-0.249,0.372-0.44,0.502-0.911,0.521  c-0.519-0.034-0.615-0.137-0.854-0.592c-0.208-0.456-0.302-1.261-0.297-2.14c-0.007-1.066,0.05-2.03,0.261-2.578  c0.256-0.539,0.324-0.651,0.988-0.699c0.51,0.029,0.648,0.178,0.923,0.877c0.224,0.681,0.281,1.733,0.278,2.745  C9.16,14.322,9,14.989,8.77,15.366z" fill-opacity="0.4" stroke-opacity="0.4"/>
<path d="M22.798,19l-1.449,6h-1.533l-0.909-4.252L17.883,25h-1.557L15,19h1.418l0.842,4.608L18.313,19h1.413  l0.979,4.608L21.62,19H22.798z" fill="#FFFFFF"/>
<path d="M27.778,25h-1.543l-1.031-2.061L24.19,25h-1.227l1.672-3.066L23.044,19h1.541l0.9,1.797L26.366,19h1.229  l-1.531,2.811L27.778,25z" fill="#FFFFFF"/>
<path d="M32.319,19l-1.566,3.932V25h-1.352v-2.068L27.899,19h1.41l0.891,2.729L31.149,19H32.319z" fill="#FFFFFF"/>
<path d="M36.317,19.62l-2.186,4.59h2.15V25h-3.717v-0.618l2.186-4.59h-2.053V19h3.619V19.62z" fill="#FFFFFF"/>
<path d="M3.336,22.514c0.791,0.198,1.73,0.297,2.594,0.297c2.941,0,3.682-2.001,3.904-4.768  C9.043,18.71,8.08,19.03,6.672,19.03c-3.557,0-4.842-2.594-4.842-5.805c0-3.533,1.68-6.423,6.053-6.423  c5.336,0,6.102,4.595,6.102,8.745c0,4.743-1.582,9.634-7.609,9.634c-0.963,0-2.025-0.099-3.039-0.271V22.514z M7.906,9.1  c-1.902,0-2.049,1.902-2.049,4.076c0,1.853,0.32,3.533,1.951,3.533c1.457,0,2.1-1.359,2.1-3.188C9.908,11.446,9.734,9.1,7.906,9.1z" fill="#FFFFFF"/>
</svg>
