<?xml version="1.0" encoding="UTF-8"?>
<!DOCTYPE svg PUBLIC "-//W3C//DTD SVG 1.1 Tiny//EN" "http://www.w3.org/Graphics/SVG/1.1/DTD/svg11-tiny.dtd">
<svg width="84" height="58" viewBox="1.674 5.299 84 58">
<g fill-opacity="0.8" stroke-opacity="0.8">
<linearGradient id="_11" gradientUnits="userSpaceOnUse" x1="36.86" y1="11.47" x2="17.18" y2="40.29">
<stop stop-color="#A2C2DD" offset="0.1"/>
<stop stop-color="#6C83BB" offset="0.71"/>
<stop stop-color="#003D6D" offset="0.99"/>
</linearGradient>
<path fill="url(#_11)" d="M29.401,14.416c-8.629,3.226-17.035,9.366-17.035,15.963 c0.215,4.914,3.531,10.465,8.252,12.719l-0.479-3.623c0,0-0.725-0.627-0.811-0.884c-0.188-0.76-0.283-1.485-0.283-2.174 c0-5.745,6.096-9.068,11.148-11.158c0.01,0.184,0.053,0.973,0.053,0.973l17.662-11.233L29.096,9.428 C29.096,9.428,29.376,13.967,29.401,14.416z"/>
<linearGradient id="_12" gradientUnits="userSpaceOnUse" x1="57.27" y1="41.53" x2="64.66" y2="56.08">
<stop stop-color="#A2C2DD" offset="0.1"/>
<stop stop-color="#6C83BB" offset="0.71"/>
<stop stop-color="#003D6D" offset="0.99"/>
</linearGradient>
<path fill="url(#_12)" d="M62.506,20.549c-0.098,0.239,0.225,0.462,0.225,0.462 c4.404,2.811,7.193,6.907,6.559,10.752c-0.6,4.595-5.18,8.878-11.975,11.271c-0.039-0.771-0.246-4.722-0.246-4.722L39.848,49.365 l0.428,3.71l18.586,5.839l-0.076-3.952c0,0-0.033-0.178-0.066-0.353c2.115-0.857,16.264-7.051,16.264-19.207 c0-6.525-2.871-11.622-11.938-15.011C63.046,20.389,62.633,20.227,62.506,20.549z M74.713,32.469l-0.004-0.033 C74.712,32.44,74.713,32.463,74.713,32.469z"/>
<linearGradient id="_13" gradientUnits="userSpaceOnUse" x1="17.94" y1="47.25" x2="26.38" y2="22.19">
<stop stop-color="#FFFFFF" offset="0"/>
<stop stop-color="#A2C2DD" offset="0.35"/>
<stop stop-color="#6C83BB" offset="0.7"/>
<stop stop-color="#003D6D" offset="1"/>
</linearGradient>
<path fill="url(#_13)" d="M19.485,40.243c-3.744-9.36,6.65-13.801,12.1-15.924 c-0.684-1.658-0.453-1.881-1.139-3.541C18.276,25.52,13.774,32.451,19.485,40.243"/>
<path fill="#496DA2" d="M19.815,39.687c-4.707-2.646-7.328-6.673-7.02-9.78 c-0.264,4.508,3.184,10.516,7.391,12.587L19.815,39.687z"/>
<linearGradient id="_14" gradientUnits="userSpaceOnUse" x1="36.87" y1="1.69" x2="28.08" y2="27.4">
<stop stop-color="#FFFFFF" offset="0.05"/>
<stop stop-color="#A2C2DD" offset="1"/>
</linearGradient>
<path fill="url(#_14)" d="M19.815,39.687c-14.549-8.257-4.498-19.738,9.951-25.044 l-0.291-4.736l17.6,5.209l-16.51,10.498l-0.242-4.6C19.276,25.319,13.165,32.746,19.815,39.687z"/>
<linearGradient id="_15" gradientUnits="userSpaceOnUse" x1="45.99" y1="14.45" x2="58.71" y2="40.83">
<stop stop-color="#FFFFFF" offset="0"/>
<stop stop-color="#A2C2DD" offset="0.35"/>
<stop stop-color="#6C83BB" offset="0.7"/>
<stop stop-color="#003D6D" offset="1"/>
</linearGradient>
<path fill="url(#_15)" d="M35.596,16.434l4.539-2.406c-0.029,0.018,5.496-2.225,10.221-0.995 c4.566,1.188,7.303,3.673,9.932,7.731c2.629,4.055,3.244,11.162,1.51,14.948c-1.74,3.786-3.348,5.118-4.619,6.318L35.596,16.434z"/>
<radialGradient id="_16" gradientUnits="userSpaceOnUse" cx="35.39" cy="19.58" r="22.73">
<stop stop-color="#FFFFFF" offset="0.05"/>
<stop stop-color="#A2C2DD" offset="1"/>
</radialGradient>
<path fill="url(#_16)" d="M58.643,32.089c0.453,9.103-6.096,16.179-14.625,15.812 c-8.535-0.366-15.818-8.057-16.27-17.161c-0.453-9.102,6.098-16.182,14.629-15.815C50.911,15.299,58.192,22.989,58.643,32.089z"/>
<linearGradient id="_17" gradientUnits="userSpaceOnUse" x1="22.13" y1="17.53" x2="49.03" y2="35.66">
<stop stop-color="#FFFFFF" offset="0"/>
<stop stop-color="#A2C2DD" offset="0.35"/>
<stop stop-color="#6C83BB" offset="0.7"/>
<stop stop-color="#003D6D" offset="1"/>
</linearGradient>
<polygon fill="url(#_17)" points="48.684,31.163 48.628,33.594 45.762,33.02 45.983,23.358 38.608,21.887 38.665,19.453 33.76,22.198 38.491,27.067 38.546,24.637 43.18,25.561 43.022,32.473 34.338,30.739 34.397,28.309 29.491,31.049 34.225,35.923 34.274,33.504 34.274,33.489 48.565,36.345 48.51,38.777 54.297,39.933 54.469,32.319 "/>
<linearGradient id="_18" gradientUnits="userSpaceOnUse" x1="77.03" y1="34.93" x2="44.33" y2="57.2">
<stop stop-color="#FFFFFF" offset="0"/>
<stop stop-color="#A2C2DD" offset="0.35"/>
<stop stop-color="#6C83BB" offset="0.7"/>
<stop stop-color="#003D6D" offset="1"/>
</linearGradient>
<path fill="url(#_18)" d="M73.596,29.608c0,0-16.184,20.426-16.186,20.426 c0.002,0,0.82,4.389,0.82,4.389C58.706,54.287,79.442,46.199,73.596,29.608z"/>
<linearGradient id="_19" gradientUnits="userSpaceOnUse" x1="44.01" y1="43.99" x2="56.81" y2="67.01">
<stop stop-color="#FFFFFF" offset="0"/>
<stop stop-color="#A2C2DD" offset="0.35"/>
<stop stop-color="#6C83BB" offset="0.7"/>
<stop stop-color="#003D6D" offset="1"/>
</linearGradient>
<polygon fill="url(#_19)" points="58.436,54.968 58.503,58.433 40.598,52.808 40.221,49.542 "/>
<linearGradient id="_20" gradientUnits="userSpaceOnUse" x1="51.09" y1="60.45" x2="58.88" y2="37.9">
<stop stop-color="#FFFFFF" offset="0.05"/>
<stop stop-color="#A2C2DD" offset="1"/>
</linearGradient>
<path fill="url(#_20)" d="M62.922,20.717c20.027,7.488,11.043,25.286-5.373,29.83l0.887,4.421 l-18.215-5.427l16.529-10.608l0.24,4.602C69.643,39.292,75.012,28.673,62.922,20.717z"/>
<path fill-opacity="0.4" fill="#FFFFFF" d="M74.983,35.402c0-6.525-2.871-11.622-11.938-15.011 c0,0-0.412-0.162-0.541,0.157c-0.096,0.239,0.225,0.462,0.225,0.462c4.406,2.811,7.195,6.907,6.559,10.752 c-0.598,4.595-5.178,8.878-11.973,11.271c-0.01-0.195-0.031-0.595-0.057-1.08c1.26-1.183,2.834-2.535,4.537-6.241 c1.734-3.786,1.119-10.894-1.512-14.948c-2.627-4.059-5.361-6.543-9.93-7.731c-2.855-0.743-5.996-0.218-8.035,0.312L29.096,9.428 c0,0,0.279,4.539,0.305,4.987c-8.629,3.226-17.035,9.366-17.035,15.963c0.215,4.914,3.531,10.465,8.252,12.719l-0.479-3.623 c0,0-0.725-0.627-0.811-0.884c-0.188-0.76-0.283-1.485-0.283-2.174c0-4.98,4.582-8.141,9.096-10.255 c-0.326,1.444-0.473,2.978-0.393,4.575c0.422,8.519,6.822,15.796,14.635,16.999l-2.537,1.627l0.428,3.711l18.586,5.839 l-0.074-3.952c0,0-0.035-0.178-0.068-0.352C60.835,53.752,74.983,47.558,74.983,35.402z"/>
</g>
</svg>