<?xml version="1.0" encoding="UTF-8"?>
<!DOCTYPE svg PUBLIC "-//W3C//DTD SVG 1.1 Tiny//EN" "http://www.w3.org/Graphics/SVG/1.1/DTD/svg11-tiny.dtd">
<svg width="60" height="52" viewBox="-0.928 0.265 60 52">
<linearGradient id="_4" gradientUnits="userSpaceOnUse" x1="29.07" y1="7.46" x2="29.07" y2="45.86">
<stop stop-color="#7D9CAD" offset="0"/>
<stop stop-color="#576F96" offset="0.73"/>
<stop stop-color="#4F6691" offset="1"/>
</linearGradient>
<path d="M50.813,6.264H7.331c-1.245,0-2.259,1.014-2.259,2.259v35.481c0,1.246,1.014,2.26,2.259,2.26 h43.481c1.246,0,2.26-1.014,2.26-2.26V8.522C53.072,7.277,52.059,6.264,50.813,6.264z M52.072,44.004 c0,0.694-0.565,1.26-1.26,1.26H7.331c-0.694,0-1.259-0.565-1.259-1.26V8.522c0-0.694,0.564-1.259,1.259-1.259h43.481 c0.694,0,1.26,0.564,1.26,1.259V44.004z" fill="url(#_4)"/>
<g fill-opacity="0.7" stroke-opacity="0.7">
<linearGradient id="_5" gradientUnits="userSpaceOnUse" x1="29.07" y1="50.81" x2="29.07" y2="5.68">
<stop stop-color="#ADB5A8" offset="0.03"/>
<stop stop-color="#C7D9D9" offset="0.26"/>
<stop stop-color="#FFFFFF" offset="0.72"/>
</linearGradient>
<path d="M50.813,7.264H7.331c-0.694,0-1.259,0.564-1.259,1.259v35.481c0,0.694,0.564,1.26,1.259,1.26 h43.481c0.694,0,1.26-0.565,1.26-1.26V8.522C52.072,7.828,51.507,7.264,50.813,7.264z" fill="url(#_5)"/>
</g>
<path d="M51.69,7.641c-0.243-0.252-0.529-0.377-0.878-0.377H7.331c-0.694,0-1.259,0.564-1.259,1.259v35.481 c0,0.346,0.143,0.652,0.372,0.873c0.003,0.013,0.628-0.628,0.628-0.628V8.264h43.999L51.69,7.641z" fill="#FFFFFF"/>
<linearGradient id="_6" gradientUnits="userSpaceOnUse" x1="29.26" y1="12.4" x2="29.26" y2="51.87">
<stop stop-color="#CADCEC" offset="0"/>
<stop stop-color="#809CB3" offset="1"/>
</linearGradient>
<path d="M6.454,44.886c0.243,0.252,0.529,0.377,0.878,0.377h43.481c0.694,0,1.259-0.564,1.259-1.259 V8.522c0-0.346-0.143-0.652-0.372-0.873c-0.003-0.013-0.628,0.628-0.628,0.628s0,35.206,0,35.985c-0.738,0-43.999,0-43.999,0 L6.454,44.886z" fill="url(#_6)"/>
<path d="M26.277,18.198l-5.373,11.641l-3.838-3.838L14.4,28.668l7.662,7.662c0,0,5.778-12.523,6.627-14.359 c2.113,0,15.055,0,15.055,0v-3.771L26.277,18.198L26.277,18.198z" fill="#496DA2"/>
</svg>