<?xml version="1.0" encoding="UTF-8"?>
<!DOCTYPE svg PUBLIC "-//W3C//DTD SVG 1.1 Tiny//EN" "http://www.w3.org/Graphics/SVG/1.1/DTD/svg11-tiny.dtd">
<svg width="12" height="32" viewBox="-0.5 -0.101 12 32">
<path fill="#DEE9F3" d="M6,26.899c-2.484,0-4.5-1.662-4.5-4.125v-1.625c0-2.463,2.016-4.25,4.5-4.25l0,0 c2.486,0,4.5,1.787,4.5,4.25v1.625C10.5,25.237,8.486,26.899,6,26.899L6,26.899z"/>
<path fill-opacity="0.5" fill="#87A8CB" d="M0.5,21.149v1.625c0,3.012,2.467,5.125,5.5,5.125c3.031,0,5.5-2.113,5.5-5.125v-1.625 c0-3.012-2.469-5.25-5.5-5.25C2.967,15.899,0.5,18.138,0.5,21.149z M1.5,22.774v-1.625c0-2.459,2.018-4.25,4.5-4.25 c2.48,0,4.5,1.791,4.5,4.25v1.625c0,2.461-2.02,4.125-4.5,4.125C3.518,26.899,1.5,25.235,1.5,22.774z"/>
</svg>