<?xml version="1.0" encoding="UTF-8"?>
<!DOCTYPE svg PUBLIC "-//W3C//DTD SVG 1.1 Tiny//EN" "http://www.w3.org/Graphics/SVG/1.1/DTD/svg11-tiny.dtd">
<svg width="20" height="20" viewBox="0 0 20 20">
<path d="M6.68,4.807c0.738,0,1.295,0.229,1.67,0.685c0.377,0.456,0.564,1.218,0.564,2.285 c0,1.169-0.191,1.98-0.574,2.434c-0.383,0.454-0.945,0.681-1.688,0.681s-1.307-0.225-1.691-0.674s-0.576-1.263-0.576-2.44 c0-1.04,0.191-1.795,0.576-2.265S5.92,4.807,6.68,4.807z M6.652,10.031c0.299,0,0.51-0.14,0.637-0.419 c0.125-0.28,0.189-0.892,0.189-1.836c0-0.902-0.068-1.479-0.201-1.732c-0.133-0.252-0.34-0.378-0.625-0.378 c-0.283,0-0.494,0.121-0.629,0.361S5.82,6.851,5.82,7.776c0,0.944,0.064,1.556,0.189,1.836C6.137,9.892,6.35,10.031,6.652,10.031 z M12.229,4.876h1.346L7.773,15.125H6.426L12.229,4.876z M13.375,9.117c0.738,0,1.297,0.227,1.674,0.681 c0.379,0.453,0.568,1.217,0.568,2.289c0,1.178-0.191,1.99-0.57,2.437c-0.381,0.447-0.943,0.67-1.686,0.67 s-1.305-0.223-1.688-0.67c-0.383-0.446-0.574-1.259-0.574-2.437c0-1.05,0.191-1.807,0.574-2.272 C12.057,9.35,12.623,9.117,13.375,9.117z M13.361,14.334c0.303,0,0.518-0.14,0.643-0.419c0.127-0.279,0.189-0.889,0.189-1.828 c0-0.903-0.066-1.481-0.199-1.736c-0.133-0.254-0.344-0.381-0.633-0.381c-0.279,0-0.486,0.121-0.621,0.364 c-0.137,0.243-0.203,0.827-0.203,1.753c0,0.939,0.063,1.549,0.189,1.828C12.852,14.194,13.064,14.334,13.361,14.334z" fill="#536376"/>
</svg>