<?xml version="1.0" encoding="UTF-8"?>
<!DOCTYPE svg PUBLIC "-//W3C//DTD SVG 1.1 Tiny//EN" "http://www.w3.org/Graphics/SVG/1.1/DTD/svg11-tiny.dtd">
<svg baseProfile="tiny" height="88.002px" version="1.1" viewBox="0 0 88 88.002" width="88px" x="0px" xmlns="http://www.w3.org/2000/svg" xmlns:xlink="http://www.w3.org/1999/xlink" y="0px">
<g>
<g>
<linearGradient gradientUnits="userSpaceOnUse" id="SVGID_1_" x1="13.9521" x2="62.2848" y1="3.0796" y2="90.078">
<stop offset="0" style="stop-color:#FFFFFF"/>
<stop offset="0.1142" style="stop-color:#E0EAF3"/>
<stop offset="0.35" style="stop-color:#A2C2DD"/>
<stop offset="0.4825" style="stop-color:#8CA9CF"/>
<stop offset="0.7" style="stop-color:#6C83BB"/>
<stop offset="0.7458" style="stop-color:#637DB5"/>
<stop offset="0.8189" style="stop-color:#4C6EA4"/>
<stop offset="0.9097" style="stop-color:#265689"/>
<stop offset="0.9888" style="stop-color:#003D6D"/>
<stop offset="1" style="stop-color:#003D6D"/>
</linearGradient>
<path d="M3.378,59.965l-0.042-0.027c-0.044-0.028-1.676-1.126-1.679-3.534l0,0    c-0.002-1.087,0.335-2.409,1.261-3.982l0,0l0.066-0.112l15.591-6.155H2.647V32.845h49.896V44.71l14.82,2.092l0.627-17.747    l0.113-0.002c0.23-0.496,0.844-0.656,1.439-0.674l0,0c0.709,0.021,1.443,0.243,1.523,0.987l0,0l0.469,18.024l1.623,0.228    l-0.867,13.563L72.1,61.278c-0.004,0.003-24.33,12.348-24.33,12.348L3.378,59.965L3.378,59.965z" fill="url(#SVGID_1_)"/>
</g>
<g>
<linearGradient gradientTransform="matrix(1 0 0 -1 102.52 -34.127)" gradientUnits="userSpaceOnUse" id="SVGID_2_" x1="-34.5088" x2="-30.529" y1="-77.6138" y2="-77.7711">
<stop offset="0" style="stop-color:#E6EEF4"/>
<stop offset="0.1492" style="stop-color:#9EC8D1"/>
<stop offset="0.2883" style="stop-color:#62A9B3"/>
<stop offset="0.3901" style="stop-color:#3D95A1"/>
<stop offset="0.4438" style="stop-color:#2F8E9A"/>
<stop offset="0.5242" style="stop-color:#247C90"/>
<stop offset="0.699" style="stop-color:#115A7D"/>
<stop offset="0.8433" style="stop-color:#044571"/>
<stop offset="0.9382" style="stop-color:#003D6D"/>
<stop offset="1" style="stop-color:#003D6D"/>
</linearGradient>
<path d="M68.354,29.424l-0.967,27.342c0.75,0.906,2.5,1.906,4.002-0.594l-0.695-26.795L68.354,29.424z" fill="url(#SVGID_2_)"/>
<linearGradient gradientTransform="matrix(1 0 0 -1 102.52 -34.127)" gradientUnits="userSpaceOnUse" id="SVGID_3_" x1="-58.2134" x2="-55.547" y1="-112.4185" y2="-58.2549">
<stop offset="0" style="stop-color:#FFFFFF"/>
<stop offset="0.15" style="stop-color:#FFFFFF"/>
<stop offset="1" style="stop-color:#A2C2DD"/>
</linearGradient>
<polygon fill="url(#SVGID_3_)" points="28.498,41.695 72.764,47.944 63.377,54.338 18.912,46.416   "/>
<linearGradient gradientTransform="matrix(1 0 0 -1 102.52 -34.127)" gradientUnits="userSpaceOnUse" id="SVGID_4_" x1="-26.0391" x2="-58.3728" y1="-73.7319" y2="-116.7321">
<stop offset="0" style="stop-color:#FFFFFF"/>
<stop offset="0.35" style="stop-color:#A2C2DD"/>
<stop offset="0.7" style="stop-color:#6C83BB"/>
<stop offset="1" style="stop-color:#003D6D"/>
</linearGradient>
<path d="M47.624,73.223c0,0-4.012-5.483,0.135-10.7l15.484-8.201l9.521-6.377l-0.832,13L47.624,73.223z" fill="url(#SVGID_4_)"/>
<linearGradient gradientTransform="matrix(6.7645 0.0012 0.0012 -6.7645 6024.6299 2108.627)" gradientUnits="userSpaceOnUse" id="SVGID_5_" x1="-892.1611" x2="-882.0115" y1="302.6514" y2="303.9998">
<stop offset="0" style="stop-color:#FFFFFF"/>
<stop offset="0.05" style="stop-color:#FFFFFF"/>
<stop offset="1" style="stop-color:#A2C2DD"/>
</linearGradient>
<polygon fill="url(#SVGID_5_)" points="63.377,54.338 18.937,46.416 3.566,52.561 47.709,62.612   "/>
<linearGradient gradientTransform="matrix(1 0 0 -1 102.52 -34.127)" gradientUnits="userSpaceOnUse" id="SVGID_6_" x1="-73.894" x2="-80.3938" y1="-86.2827" y2="-107.2817">
<stop offset="0" style="stop-color:#FFFFFF"/>
<stop offset="0.0918" style="stop-color:#E4EDF5"/>
<stop offset="0.2705" style="stop-color:#B4CEE4"/>
<stop offset="0.3596" style="stop-color:#A2C2DD"/>
<stop offset="0.4786" style="stop-color:#8CA9CF"/>
<stop offset="0.6742" style="stop-color:#6C83BB"/>
<stop offset="0.7196" style="stop-color:#637DB5"/>
<stop offset="0.7921" style="stop-color:#4C6EA4"/>
<stop offset="0.8823" style="stop-color:#265689"/>
<stop offset="0.9607" style="stop-color:#003D6D"/>
<stop offset="1" style="stop-color:#003D6D"/>
</linearGradient>
<path d="M47.922,62.389l-44.68-9.775c-2.888,4.902,0.301,7.012,0.301,7.012l44.118,13.541    C47.661,73.166,43.385,67.467,47.922,62.389z" fill="url(#SVGID_6_)"/>
<linearGradient gradientTransform="matrix(5.3277 0 0 2.8896 5015.3828 -1369.5541)" gradientUnits="userSpaceOnUse" id="SVGID_7_" x1="-928.543" x2="-928.1108" y1="484.126" y2="484.126">
<stop offset="0" style="stop-color:#D6E6EC"/>
<stop offset="1" style="stop-color:#298595"/>
</linearGradient>
<ellipse cx="69.543" cy="29.378" fill="url(#SVGID_7_)" rx="1.15" ry="0.624"/>
</g>
<linearGradient gradientTransform="matrix(0 -1 -1 0 -301.8306 -496.9966)" gradientUnits="userSpaceOnUse" id="SVGID_8_" x1="-531.5762" x2="-520.0762" y1="-363.1289" y2="-363.1289">
<stop offset="0" style="stop-color:#FFFFFF"/>
<stop offset="0.5506" style="stop-color:#58A015"/>
<stop offset="1" style="stop-color:#FFFFFF"/>
</linearGradient>
<path d="M61.995,28.484c0.006-2.316,0.965-4.407,2.504-5.905l-2.92-2.752   c-2.213,2.218-3.584,5.277-3.584,8.657c0,3.457,1.438,6.572,3.74,8.8l2.867-2.799C63.004,32.981,62,30.854,61.995,28.484z" fill="url(#SVGID_8_)"/>
<linearGradient gradientTransform="matrix(0 -1 -1 0 -301.8306 -496.9966)" gradientUnits="userSpaceOnUse" id="SVGID_9_" x1="-535.9517" x2="-516.077" y1="-357.8506" y2="-357.8506">
<stop offset="0" style="stop-color:#FFFFFF"/>
<stop offset="0.5506" style="stop-color:#58A015"/>
<stop offset="1" style="stop-color:#FFFFFF"/>
</linearGradient>
<path d="M55.844,28.485c0.006-3.952,1.602-7.526,4.178-10.127l-2.912-2.746   c-3.254,3.317-5.266,7.858-5.268,12.873c0.002,5.127,2.104,9.76,5.486,13.097l2.869-2.8C57.52,36.168,55.85,32.525,55.844,28.485z" fill="url(#SVGID_9_)"/>
<linearGradient gradientTransform="matrix(0 -1 1 0 -522.3501 -496.9966)" gradientUnits="userSpaceOnUse" id="SVGID_10_" x1="-531.5762" x2="-520.0762" y1="599.499" y2="599.499">
<stop offset="0" style="stop-color:#FFFFFF"/>
<stop offset="0.5506" style="stop-color:#58A015"/>
<stop offset="1" style="stop-color:#FFFFFF"/>
</linearGradient>
<path d="M76.452,28.484c-0.004-2.316-0.963-4.407-2.502-5.905l2.918-2.752   c2.215,2.218,3.584,5.277,3.586,8.657c-0.002,3.457-1.439,6.572-3.74,8.8l-2.869-2.799C75.444,32.981,76.448,30.854,76.452,28.484z   " fill="url(#SVGID_10_)"/>
<linearGradient gradientTransform="matrix(0 -1 1 0 -522.3501 -496.9966)" gradientUnits="userSpaceOnUse" id="SVGID_11_" x1="-535.9517" x2="-516.077" y1="604.7764" y2="604.7764">
<stop offset="0" style="stop-color:#FFFFFF"/>
<stop offset="0.5506" style="stop-color:#58A015"/>
<stop offset="1" style="stop-color:#FFFFFF"/>
</linearGradient>
<path d="M82.602,28.485c-0.006-3.952-1.602-7.526-4.178-10.127l2.914-2.746   c3.252,3.317,5.264,7.858,5.266,12.873c-0.002,5.127-2.104,9.76-5.486,13.097l-2.869-2.8   C80.926,36.168,82.596,32.525,82.602,28.485z" fill="url(#SVGID_11_)"/>
<g>
<rect fill="#496DA2" height="12.56" width="49.147" x="3.023" y="33.221"/>
<linearGradient gradientUnits="userSpaceOnUse" id="SVGID_12_" x1="27.6484" x2="27.6484" y1="37.5977" y2="43.2649">
<stop offset="0" style="stop-color:#FFFFFF"/>
<stop offset="1" style="stop-color:#A2C2DD"/>
</linearGradient>
<rect fill="url(#SVGID_12_)" height="10.773" width="47.559" x="3.869" y="34.119"/>
<linearGradient gradientUnits="userSpaceOnUse" id="SVGID_13_" x1="36.2993" x2="-16.5358" y1="49.3398" y2="-10.828">
<stop offset="0" style="stop-color:#FFFFFF"/>
<stop offset="0.1142" style="stop-color:#E0EAF3"/>
<stop offset="0.35" style="stop-color:#A2C2DD"/>
<stop offset="0.4825" style="stop-color:#8CA9CF"/>
<stop offset="0.7" style="stop-color:#6C83BB"/>
<stop offset="0.7458" style="stop-color:#637DB5"/>
<stop offset="0.8189" style="stop-color:#4C6EA4"/>
<stop offset="0.9097" style="stop-color:#265689"/>
<stop offset="0.9888" style="stop-color:#003D6D"/>
<stop offset="1" style="stop-color:#003D6D"/>
</linearGradient>
<polygon fill="url(#SVGID_13_)" points="51.43,34.042 3.857,34.056 3.836,44.899 4.754,44.899 4.852,35.11 51.43,35.087   "/>
<path d="M8.838,43.575c-0.533-0.414-1.066-0.826-1.6-1.24c0.635-0.716,1.326-1.369,2.002-2.045    c-0.895-0.143-1.852-0.363-2.701-0.677c0.209-0.622,0.418-1.243,0.627-1.865c0.855,0.347,1.691,0.751,2.477,1.24    c-0.137-0.933-0.254-1.876-0.254-2.819c0.629,0,1.258,0,1.885,0c0,0.948-0.154,1.904-0.285,2.841    c0.898-0.364,1.762-0.81,2.67-1.156c0.188,0.64,0.375,1.278,0.563,1.917c-0.902,0.204-1.813,0.371-2.723,0.52    c0.629,0.71,1.277,1.404,1.875,2.141c-0.541,0.355-1.082,0.713-1.623,1.07c-0.477-0.788-0.951-1.575-1.43-2.363    C9.854,41.966,9.355,42.777,8.838,43.575" fill="#496DA2"/>
<path d="M18.648,43.575c-0.533-0.414-1.068-0.826-1.6-1.24c0.635-0.716,1.324-1.369,2.002-2.045    c-0.895-0.143-1.852-0.363-2.701-0.677c0.209-0.622,0.416-1.243,0.625-1.865c0.857,0.347,1.693,0.751,2.479,1.24    c-0.137-0.933-0.254-1.876-0.254-2.819c0.627,0,1.256,0,1.885,0c0,0.948-0.156,1.904-0.285,2.841    c0.898-0.364,1.762-0.81,2.67-1.156c0.188,0.64,0.375,1.278,0.561,1.917c-0.902,0.204-1.811,0.371-2.723,0.52    c0.629,0.71,1.279,1.404,1.875,2.141c-0.539,0.355-1.08,0.713-1.621,1.07c-0.477-0.788-0.953-1.575-1.43-2.363    C19.662,41.966,19.166,42.777,18.648,43.575" fill="#496DA2"/>
<path d="M28.459,43.575c-0.535-0.414-1.068-0.826-1.602-1.24c0.637-0.716,1.326-1.369,2.002-2.045    c-0.895-0.143-1.852-0.363-2.701-0.677c0.211-0.622,0.418-1.243,0.627-1.865c0.855,0.347,1.691,0.751,2.479,1.24    c-0.139-0.933-0.256-1.876-0.256-2.819c0.629,0,1.258,0,1.887,0c0,0.948-0.156,1.904-0.285,2.841    c0.896-0.364,1.762-0.81,2.668-1.156c0.189,0.64,0.375,1.278,0.563,1.917c-0.902,0.204-1.811,0.371-2.723,0.52    c0.629,0.71,1.279,1.404,1.875,2.141c-0.541,0.355-1.08,0.713-1.621,1.07c-0.477-0.788-0.953-1.575-1.43-2.363    C29.473,41.966,28.975,42.777,28.459,43.575" fill="#496DA2"/>
</g>
<linearGradient gradientUnits="userSpaceOnUse" id="SVGID_14_" x1="23.4302" x2="50.7632" y1="33.9878" y2="85.9879">
<stop offset="0" style="stop-color:#FFFFFF"/>
<stop offset="0.1142" style="stop-color:#E0EAF3"/>
<stop offset="0.35" style="stop-color:#A2C2DD"/>
<stop offset="0.4825" style="stop-color:#8CA9CF"/>
<stop offset="0.7" style="stop-color:#6C83BB"/>
<stop offset="0.7458" style="stop-color:#637DB5"/>
<stop offset="0.8189" style="stop-color:#4C6EA4"/>
<stop offset="0.9097" style="stop-color:#265689"/>
<stop offset="0.9888" style="stop-color:#003D6D"/>
<stop offset="1" style="stop-color:#003D6D"/>
</linearGradient>
<polygon fill="url(#SVGID_14_)" points="14.825,55.28 63.825,54.447 42.825,50.28 3.492,52.446  "/>
</g>
</svg>
