<?xml version="1.0" encoding="UTF-8"?>
<!DOCTYPE svg PUBLIC "-//W3C//DTD SVG 1.1 Tiny//EN" "http://www.w3.org/Graphics/SVG/1.1/DTD/svg11-tiny.dtd">
<svg width="84" height="72" viewBox="0 0 84 72">
<linearGradient id="_12" gradientUnits="userSpaceOnUse" x1="34.54" y1="38.91" x2="53.07" y2="75.4">
<stop stop-color="#A2C2DD" offset="0.1"/>
<stop stop-color="#6C83BB" offset="0.71"/>
<stop stop-color="#003D6D" offset="0.99"/>
</linearGradient>
<path fill="url(#_12)" d="M5.515,7.483v50.089c0,0,29.098,0,29.487,0c1.558,3.03,6.137,5.973,6.336,6.1l0.052,0.033 l0.061,0.013c6.989,1.523,10.384-0.366,11.949-1.404c0.475-0.314,0.787-0.825,0.787-0.825s1.586-4.562,2.102-6.043 c0.493,1.601,2.418,7.845,2.418,7.845c1.211,3.669,10.124,3.474,10.503,3.463l0.062-0.001l0.059-0.023 c9.309-3.684,9.178-8.6,9.169-8.646L73.69,40.188l-0.392,0.219c-5.242,2.926-10.066,4.119-13.388,4.623 c0.071-0.206,0.295-0.848,0.295-0.848s-2.784-0.121-4.537-0.595c0-0.6,0-36.104,0-36.104H5.515z"/>
<linearGradient id="_13" gradientUnits="userSpaceOnUse" x1="70.88" y1="19.61" x2="39.72" y2="29.6">
<stop stop-color="#FFFFFF" offset="0.05"/>
<stop stop-color="#A2C2DD" offset="1"/>
</linearGradient>
<rect x="5.865" y="7.833" fill="url(#_13)" width="49.453" height="49.39"/>
<linearGradient id="_14" gradientUnits="userSpaceOnUse" x1="5.24" y1="4.87" x2="68.48" y2="73.87">
<stop stop-color="#FFFFFF" offset="0.05"/>
<stop stop-color="#A2C2DD" offset="1"/>
</linearGradient>
<rect x="5.865" y="7.833" fill="url(#_14)" width="49.453" height="49.39"/>
<polygon fill="#5E1B67" points="14.958,14.402 14.725,26.711 17.972,21.165 "/>
<polygon fill="#D7CEE6" points="15.844,19.935 17.079,19.144 20.873,20.746 "/>
<linearGradient id="_15" gradientUnits="userSpaceOnUse" x1="12.76" y1="14.81" x2="16.13" y2="23.02">
<stop stop-color="#DEDEED" offset="0"/>
<stop stop-color="#9646AC" offset="1"/>
</linearGradient>
<polygon fill="url(#_15)" points="14.958,14.402 15.844,19.935 20.873,20.746 16.047,22.365 14.703,26.778 13.211,22.091 9.516,20.729 13.032,19.678 "/>
<polygon fill="#8B2E74" points="24.088,23.987 23.77,40.811 28.207,33.229 "/>
<polygon fill="#E0D6E6" points="25.3,31.553 26.989,30.467 32.172,32.658 "/>
<linearGradient id="_16" gradientUnits="userSpaceOnUse" x1="19.26" y1="23.14" x2="27.03" y2="37.48">
<stop stop-color="#E4E6EF" offset="0"/>
<stop stop-color="#BA4C96" offset="1"/>
</linearGradient>
<polygon fill="url(#_16)" points="24.088,23.987 25.3,31.553 32.172,32.658 25.577,34.87 23.74,40.902 21.703,34.499 16.652,32.636 21.459,31.201 "/>
<polygon fill="#3D013F" points="39.295,9.612 38.792,36.343 45.845,24.298 "/>
<polygon fill="#D7CEE6" points="41.223,21.63 43.906,19.908 52.142,23.391 "/>
<linearGradient id="_17" gradientUnits="userSpaceOnUse" x1="34.53" y1="10.5" x2="41.84" y2="28.33">
<stop stop-color="#DEDEED" offset="0"/>
<stop stop-color="#9646AC" offset="1"/>
</linearGradient>
<polygon fill="url(#_17)" points="39.295,9.612 41.223,21.63 52.142,23.391 41.661,26.906 38.743,36.492 35.505,26.313 27.476,23.355 35.115,21.071 "/>
<linearGradient id="_18" gradientUnits="userSpaceOnUse" x1="59.84" y1="62.26" x2="74.59" y2="38.7">
<stop stop-color="#D6E4F3" offset="0"/>
<stop stop-color="#337CE5" offset="1"/>
</linearGradient>
<path fill="url(#_18)" d="M69.238,66.39c0,0-9.016,0.238-10.16-3.223c-1.145-3.466-5.303-17.438-5.303-17.438 s9.125,0.893,19.732-5.03l4.688,17.436C78.195,58.134,78.234,62.831,69.238,66.39z"/>
<linearGradient id="_19" gradientUnits="userSpaceOnUse" x1="63.83" y1="50.29" x2="61.1" y2="52.82">
<stop stop-color="#E6EEF4" offset="0"/>
<stop stop-color="#575AC6" offset="0.44"/>
<stop stop-color="#003D6D" offset="0.94"/>
</linearGradient>
<path fill="url(#_19)" d="M59.226,53.35c0,0,1.262-4.403,5.01-1.421C64.238,51.929,61.445,51.176,59.226,53.35z"/>
<linearGradient id="_20" gradientUnits="userSpaceOnUse" x1="71.73" y1="47.43" x2="68.77" y2="51.47">
<stop stop-color="#E6EEF4" offset="0"/>
<stop stop-color="#575AC6" offset="0.44"/>
<stop stop-color="#003D6D" offset="0.94"/>
</linearGradient>
<path fill="url(#_20)" d="M67.251,51.049c0,0,1.262-4.403,5.01-1.425C72.261,49.624,69.47,48.875,67.251,51.049z"/>
<linearGradient id="_21" gradientUnits="userSpaceOnUse" x1="69.11" y1="63.9" x2="67.73" y2="58.46">
<stop stop-color="#E6EEF4" offset="0"/>
<stop stop-color="#575AC6" offset="0.44"/>
<stop stop-color="#003D6D" offset="0.94"/>
</linearGradient>
<path fill="url(#_21)" d="M62.496,59.974c0,0,8.398-1.132,10.275-3.809C72.771,56.165,71.201,65.773,62.496,59.974z"/>
<linearGradient id="_22" gradientUnits="userSpaceOnUse" x1="38.15" y1="38.09" x2="53.31" y2="58.94">
<stop stop-color="#E3DFE4" offset="0"/>
<stop stop-color="#C03A3A" offset="1"/>
</linearGradient>
<path fill="url(#_22)" d="M41.566,63.362c0,0-7.616-4.822-6.63-8.333c0.985-3.515,5.348-17.427,5.348-17.427 s7.37,5.881,19.481,6.877l-5.869,16.879C53.896,61.358,51.019,65.421,41.566,63.362z"/>
<path fill="#FFFFFF" d="M40.547,46.964c0,0,3.507-2.946,4.953,1.613C45.5,48.577,43.603,46.398,40.547,46.964z"/>
<path fill="#FFFFFF" d="M48.492,49.526c0,0,3.51-2.95,4.953,1.61C53.445,51.137,51.55,48.957,48.492,49.526z"/>
<path fill="#FFFFFF" d="M39.558,54.282c0,0,3.467,3.462,10.657,2.564C50.214,56.847,43.281,61.975,39.558,54.282z"/>
<path fill="#FFFFFF" d="M44.646,54.373l1.318-0.888l2.104-5.195c0,0,1.24-2.674,5.832,1.213c0,0-1.244-3.991-5.764-3.709 L44.646,54.373z"/>
</svg>