<?xml version="1.0" encoding="UTF-8" standalone="no"?>
<!DOCTYPE svg PUBLIC "-//W3C//DTD SVG 1.1 Tiny//EN" "http://www.w3.org/Graphics/SVG/1.1/DTD/svg11-tiny.dtd">
<svg xmlns="http://www.w3.org/2000/svg" xmlns:xlink="http://www.w3.org/1999/xlink" baseProfile="tiny" height="32px" version="1.1" viewBox="0 0 38 32" width="38px" x="0px" y="0px">
<g>
<rect fill="none" height="32" width="38"/>
<path d="M10.199,26.019v2.115c0,0.21,0.078,0.799,0.801,0.799h15.248c0.72,0,0.798-0.586,0.798-0.799v-3.201   c0-0.21-0.001-0.801-0.798-0.801h-9.18c1.894-5.106,9.781-6.743,9.781-13.887c0-2.398-0.925-9.87-15.253-6.182   c-0.344,0.089-0.572,0.411-0.572,0.767v3.269c0,0.876,0.825,0.843,1.068,0.754c7.467-2.739,7.712,0.604,7.712,1.59   C19.805,14.554,10.199,16.96,10.199,26.019z" fill-opacity="0.4" stroke-opacity="0.4"/>
<path d="M26.248,28.134H11v-2.113c0-4.852,3.17-7.953,6.238-10.527c2.08-1.75,3.367-3.004,3.367-5.051   c0-2.211-1.09-3.432-3.697-3.432c-1.848,0-3.498,0.527-5.082,1.088V4.831c2.111-0.627,4.258-0.988,6.436-0.988   c4.818,0,7.789,1.947,7.789,6.402c0,3.564-1.98,5.445-4.785,7.822c-2.971,2.508-4.918,4.258-5.148,6.865h10.131V28.134z" fill="#FFFFFF"/>
</g>
</svg>
