<?xml version="1.0" encoding="UTF-8"?>
<!DOCTYPE svg PUBLIC "-//W3C//DTD SVG 1.1 Tiny//EN" "http://www.w3.org/Graphics/SVG/1.1/DTD/svg11-tiny.dtd">
<svg width="60" height="52" viewBox="-0.934 0.017 60 52">
<linearGradient id="_4" gradientUnits="userSpaceOnUse" x1="29.07" y1="7.22" x2="29.07" y2="45.62">
<stop stop-color="#7D9CAD" offset="0"/>
<stop stop-color="#576F96" offset="0.73"/>
<stop stop-color="#4F6691" offset="1"/>
</linearGradient>
<path d="M50.807,6.017H7.325c-1.245,0-2.259,1.014-2.259,2.259v35.481c0,1.246,1.014,2.26,2.259,2.26 h43.481c1.246,0,2.26-1.014,2.26-2.26V8.275C53.066,7.03,52.053,6.017,50.807,6.017z M52.066,43.757 c0,0.694-0.565,1.26-1.26,1.26H7.325c-0.694,0-1.259-0.565-1.259-1.26V8.275c0-0.694,0.564-1.259,1.259-1.259h43.481 c0.694,0,1.26,0.564,1.26,1.259V43.757z" fill="url(#_4)"/>
<g fill-opacity="0.7" stroke-opacity="0.7">
<linearGradient id="_5" gradientUnits="userSpaceOnUse" x1="29.07" y1="50.56" x2="29.07" y2="5.43">
<stop stop-color="#ADB5A8" offset="0.03"/>
<stop stop-color="#C7D9D9" offset="0.26"/>
<stop stop-color="#FFFFFF" offset="0.72"/>
</linearGradient>
<path d="M50.807,7.017H7.325c-0.694,0-1.259,0.564-1.259,1.259v35.481c0,0.694,0.564,1.26,1.259,1.26 h43.481c0.694,0,1.26-0.565,1.26-1.26V8.275C52.066,7.581,51.501,7.017,50.807,7.017z" fill="url(#_5)"/>
</g>
<path d="M51.685,7.394c-0.243-0.252-0.529-0.377-0.878-0.377H7.325c-0.694,0-1.259,0.564-1.259,1.259v35.481 c0,0.346,0.143,0.652,0.372,0.873c0.003,0.013,0.628-0.628,0.628-0.628V8.017h43.999L51.685,7.394z" fill="#FFFFFF"/>
<linearGradient id="_6" gradientUnits="userSpaceOnUse" x1="29.26" y1="12.15" x2="29.26" y2="51.62">
<stop stop-color="#CADCEC" offset="0"/>
<stop stop-color="#809CB3" offset="1"/>
</linearGradient>
<path d="M6.448,44.639c0.243,0.252,0.529,0.377,0.878,0.377h43.481c0.694,0,1.259-0.564,1.259-1.259 V8.275c0-0.346-0.143-0.652-0.372-0.873C51.691,7.39,51.066,8.03,51.066,8.03s0,35.206,0,35.985c-0.738,0-43.999,0-43.999,0 L6.448,44.639z" fill="url(#_6)"/>
<rect fill="#496DA2" height="3.771" width="15.5" x="21.316" y="32.938"/>
<polygon fill="#496DA2" points="36.816,19.438 30.703,19.438 30.703,13.324 26.932,13.324 26.932,19.438 21.316,19.438 21.316,23.21 26.932,23.21 26.932,29.323 30.703,29.323 30.703,23.21 36.816,23.21 "/>
</svg>