<?xml version="1.0" encoding="UTF-8" standalone="no"?>
<!DOCTYPE svg PUBLIC "-//W3C//DTD SVG 1.1 Tiny//EN" "http://www.w3.org/Graphics/SVG/1.1/DTD/svg11-tiny.dtd">
<svg xmlns="http://www.w3.org/2000/svg" xmlns:xlink="http://www.w3.org/1999/xlink" baseProfile="tiny" height="32px" version="1.1" viewBox="0 0 38 32" width="38px" x="0px" y="0px">
<g>
<rect fill="none" height="32" width="38"/>
<path d="M32.521,20.63c0.24,0.062,1.004,0.019,1.004-0.774v-0.802c0-0.366-0.246-0.707-0.607-0.774   c-2.332-0.432-3.358,0.361-3.844,1.153c0,0.001,0,0.003-0.002,0.004c-0.201-0.43-0.685-1.248-2.52-1.248h-2.104   c-0.687,0-0.799,0.588-0.799,0.799v2.318l-0.662-2.52c-0.092-0.353-0.324-0.598-0.775-0.598h-1.65c-0.356,0-0.673,0.24-0.77,0.584   l-1.682,6.006c-0.067,0.242-0.166,1.017,0.77,1.017h1.229c0.368,0,0.688-0.253,0.777-0.61l0.154-0.636h0.375l0.152,0.632   c0.086,0.358,0.409,0.614,0.779,0.614h4.205c2.08,0,2.386-0.944,2.535-1.209c0.812,1.625,3.449,1.213,3.824,1.123   c0.359-0.086,0.613-0.409,0.613-0.777v-0.786c0-0.874-0.762-0.84-1.002-0.774c-0.312,0.079-1.037,0.604-1.037-1.478   C31.486,19.962,32.164,20.538,32.521,20.63z" fill-opacity="0.4" stroke-opacity="0.4"/>
<path d="M17.765,24.996V22.6c0-0.211-0.062-0.801-0.802-0.801H10.37c0.909-3.069,7.247-4.756,7.247-10.191   c0-7.864-10.037-5.306-11.678-4.82C5.598,6.888,5.367,7.2,5.367,7.555v2.447c0,0.921,0.823,0.84,1.068,0.754   c1.17-0.417,5.503-1.909,5.503,1c0,3.081-7.189,4.833-7.189,11.659v1.581c0,0.211,0.172,0.801,0.802,0.801h11.412   C17.724,25.797,17.765,25.209,17.765,24.996z" fill-opacity="0.4" stroke-opacity="0.4"/>
<path d="M23.793,24.995h-1.445l-0.299-1.246h-1.635l-0.305,1.246h-1.227l1.682-6.006h1.65L23.793,24.995z    M21.883,22.957l-0.643-2.821l-0.66,2.821H21.883z" fill="#FFFFFF"/>
<path d="M24.451,24.995v-6.006h2.104c0.58,0,0.949,0.059,1.24,0.196c0.952,0.468,1.03,2.178-0.348,2.643   c1.669,0.165,1.755,3.326-0.893,3.167H24.451z M26.191,21.499c0.363,0,0.562-0.059,0.701-0.183c0.367-0.326,0.28-1.194-0.008-1.411   c-0.123-0.09-0.271-0.14-0.576-0.14h-0.494v1.733H26.191z M26.227,24.221c0.354,0,0.553-0.05,0.693-0.149   c0.399-0.285,0.42-1.375-0.035-1.665c-0.146-0.1-0.32-0.15-0.676-0.15h-0.395v1.965H26.227z" fill="#FFFFFF"/>
<path d="M32.727,24.932c-0.344,0.082-0.643,0.131-1.029,0.131c-2.121,0-2.42-1.609-2.42-3.135   c0-1.494,0.445-3.004,2.443-3.004c0.381,0,0.645,0.041,1.006,0.131v0.802c-0.344-0.091-0.533-0.14-0.848-0.14   c-1,0-1.191,1.022-1.191,2.177c0,1.271,0.166,2.376,1.215,2.376c0.309,0,0.506-0.041,0.824-0.124V24.932z" fill="#FFFFFF"/>
<path d="M16.965,24.997H5.551v-1.581c0-3.632,2.371-5.954,4.668-7.881c1.557-1.309,2.52-2.248,2.52-3.779   c0-1.655-0.814-2.569-2.766-2.569c-1.385,0-2.619,0.396-3.805,0.815V7.556c1.58-0.469,3.186-0.74,4.816-0.74   c3.607,0,5.832,1.457,5.832,4.792c0,2.668-1.484,4.076-3.584,5.854c-2.223,1.878-3.68,3.188-3.854,5.139h7.586V24.997z" fill="#FFFFFF"/>
</g>
</svg>
