<?xml version="1.0" encoding="UTF-8"?>
<!DOCTYPE svg PUBLIC "-//W3C//DTD SVG 1.1 Tiny//EN" "http://www.w3.org/Graphics/SVG/1.1/DTD/svg11-tiny.dtd">
<svg width="332" height="82" viewBox="-1.164 -0.488 332 82">
<path fill-opacity="0.01" fill="#656B6B" d="M21.961,0.512c-5.635,0-10.938,2.199-14.932,6.193s-6.193,9.297-6.193,14.932v28.775 c0,12.17,9.898,22.084,22.063,22.098l280.832,0.002c12.74,0,23.105-10.361,23.105-23.1V22.627l-0.098-2.045 c-1.158-11.465-10.619-20.07-22.008-20.07H21.961z"/>
<path fill-opacity="0.02" fill="#656B6B" d="M21.961,1.512c-5.367,0-10.42,2.096-14.225,5.9s-5.9,8.857-5.9,14.225v28.775 c0,11.621,9.449,21.084,21.064,21.098l280.83,0.002c12.189,0,22.105-9.914,22.105-22.1V22.627l-0.096-1.996 c-1.105-10.922-10.137-19.119-21.01-19.119H21.961z"/>
<path fill-opacity="0.04" fill="#656B6B" d="M21.961,2.512c-5.1,0-9.9,1.992-13.518,5.607c-3.615,3.617-5.607,8.418-5.607,13.518v28.775 c0,11.07,9.002,20.086,20.064,20.098l280.83,0.002c11.637,0,21.105-9.465,21.105-21.1V22.627l-0.096-1.947 c-1.051-10.379-9.652-18.168-20.01-18.168H21.961z"/>
<path fill-opacity="0.07" fill="#656B6B" d="M21.961,3.512c-9.994,0-18.125,8.131-18.125,18.125v28.775 c0,10.52,8.553,19.086,19.066,19.098l280.828,0.002c11.086,0,20.105-9.016,20.105-20.1V22.627l-0.094-1.898 c-0.998-9.836-9.17-17.217-19.012-17.217H21.961z"/>
<path fill-opacity="0.11" fill="#656B6B" d="M21.961,4.512c-9.875,0-17.125,8.125-17.125,17.125v28.775 c0,9.969,8.105,18.088,18.066,18.098l280.828,0.002c10.535,0,19.105-8.568,19.105-19.1V22.627l-0.094-1.848 c-0.941-9.275-8.686-16.268-18.012-16.268H21.961z"/>
<path fill-opacity="0.13" fill="#656B6B" d="M321.748,20.875c-0.877-8.627-8.162-15.363-17.018-15.363H22.943 c-9.449,0-17.107,7.666-17.107,17.115v27.785c0,9.439,7.637,17.088,17.066,17.098c0.014,0,0.027,0.002,0.041,0.002H303.73 c9.984,0,18.105-8.113,18.105-18.1V22.627C321.836,22.035,321.803,21.453,321.748,20.875z"/>
<linearGradient id="_2" gradientUnits="userSpaceOnUse" x1="162.84" y1="59.62" x2="162.84" y2="19">
<stop stop-color="#D9F4E0" offset="0"/>
<stop stop-color="#FFFFFF" offset="1"/>
</linearGradient>
<path fill="url(#_2)" d="M21.943,66.512H303.73c9.447,0,17.105-7.646,17.105-17.1V21.627c0-9.449-7.658-17.115-17.105-17.115 H21.943c-9.449,0-17.107,7.666-17.107,17.115v27.785C4.836,58.865,12.494,66.524,21.943,66.512z"/>
</svg>