<?xml version="1.0" encoding="UTF-8" standalone="no"?>
<!DOCTYPE svg PUBLIC "-//W3C//DTD SVG 1.1 Tiny//EN" "http://www.w3.org/Graphics/SVG/1.1/DTD/svg11-tiny.dtd">
<svg xmlns="http://www.w3.org/2000/svg" xmlns:xlink="http://www.w3.org/1999/xlink" width="44" height="44" viewBox="0 0 44 44">
<rect fill="none" height="44" width="44"/>
<polygon fill="#FFFFFF" points="25.758,17.389 25.758,9.316 15.173,17.356 15.173,11.021 7.328,11.021 7.328,32.496 15.173,32.496 15.173,26.549 25.758,34.458 25.758,26.516 36.484,34.415 36.484,9.35 "/>
<polygon fill="#231F20" points="24.229,31.402 24.229,30.529 24.229,23.488 34.262,30.883 34.955,31.395 34.955,30.529 34.955,13.283 34.955,12.407 34.254,12.933 24.229,20.445 24.229,13.283 24.229,12.399 23.523,12.935 13.643,20.438 13.643,12.989 13.643,12.551 13.207,12.551 9.291,12.551 8.856,12.551 8.856,12.989 8.856,30.529 8.856,30.967 9.291,30.967 13.207,30.967 13.643,30.967 13.643,30.529 13.643,23.499 23.529,30.879 "/>
</svg>