<?xml version="1.0" encoding="utf-8"?>
<!DOCTYPE svg PUBLIC "-//W3C//DTD SVG 1.1 Tiny//EN" "http://www.w3.org/Graphics/SVG/1.1/DTD/svg11-tiny.dtd">
<svg width="100%" height="100%" viewBox="0 0 88 88">
<linearGradient id="_82" gradientUnits="userSpaceOnUse" x1="32.3" y1="29.94" x2="55.47" y2="57.79">
<stop stop-color="#DEE9F3" offset="0"/>
<stop stop-color="#235487" offset="1"/>
</linearGradient>
<circle fill="url(#_82)" cx="44" cy="44" r="30.997"/>
<radialGradient id="_83" gradientUnits="userSpaceOnUse" cx="49.9" cy="24.72" r="55.32">
<stop stop-color="#FFFFFF" offset="0"/>
<stop stop-color="#A2C2DD" offset="0.53"/>
<stop stop-color="#6C83BB" offset="0.87"/>
<stop stop-color="#003D6D" offset="1"/>
</radialGradient>
<circle fill="url(#_83)" cx="44" cy="43.998" r="29.901"/>
<radialGradient id="_84" gradientUnits="userSpaceOnUse" cx="50.31" cy="27.77" r="37.63">
<stop stop-color="#E6EEF4" offset="0"/>
<stop stop-color="#C6DCC1" offset="0.08"/>
<stop stop-color="#91C06F" offset="0.21"/>
<stop stop-color="#6BAB33" offset="0.32"/>
<stop stop-color="#539E0E" offset="0.4"/>
<stop stop-color="#4A9900" offset="0.44"/>
<stop stop-color="#398419" offset="0.55"/>
<stop stop-color="#22663B" offset="0.71"/>
<stop stop-color="#135550" offset="0.85"/>
<stop stop-color="#0E4E58" offset="0.94"/>
</radialGradient>
<path fill="url(#_84)" d="M27.99,24.652c0,0-0.575,0.748-1.265,1.093c-0.69,0.345,0.805,0.23,1.438,0C28.795,25.516,29.025,24.768,27.99,24.652z M27.128,50.489c0,0,0.844,0.536,1.227,0.229c0.384-0.307,0.614-0.92,0.614-0.92s-0.308,0.383-0.614,0.536S27.128,50.489,27.128,50.489z M18.887,48.573c-0.115,0.268,0.871,0.475,0.613,0.19C19.116,48.343,19.002,48.305,18.887,48.573z M18.312,51.602c0.077,0.537-0.422,1.034,0.46,0.039c0.882-0.998-0.153-0.69-0.153-0.69C18.081,51.025,18.234,51.064,18.312,51.602z M21.531,48.113c-0.076,0.383-0.46,1.38-0.92,0.229c-0.46-1.15-0.689-1.457-1.38-0.613l0.613,0.308c0,0,0.23,0.844,0.613,1.073c0.384,0.229,1.61,1.072,2.07,0.996c0,0-0.307,0.996,0.076,1.533c0,0,0.767-0.152,0.997,0.383c0.229,0.537,1.004,0.023,1.495-0.345c0.307-0.229,0.805-0.497,1.188,0.345c0.384,0.845,0.959,0.92,1.955,0.845c0,0-2.261-1.572-1.801-1.648c0.46-0.075,0.307-0.422,0.307-0.422L25.9,50.26c0,0-1.533-0.574-1.533-0.882S21.607,47.729,21.531,48.113z M31.422,64.979c-0.537-0.459,0.46-1.609,0.383-2.836c-0.076-1.228-0.996-1.916-1.687-2.529c-0.613-0.922-2.07-1.842-2.76-2.147l-1.074-2.452c0,0-0.46-0.076-0.766-0.229c-0.307-0.153-0.537-1.304-0.537-1.304s-1.15,0.076-0.69,0.537c0.461,0.459,0.308,2.299,0.308,2.299s-0.384-0.689-1.304-0.92c-0.896-0.225-0.816-0.342-0.69-1.228c0.153-1.073-0.403-0.358-1.533-0.843c-1.073-0.46-0.843,0.689-0.92,0.997c-0.077,0.307-0.383-0.384-0.997-0.23l-0.383,1.228c0,0-0.153,0.689-0.46,0.46c-0.224-0.167-0.731,1.047-0.991,1.719c0.026,0.051,0.052,0.103,0.078,0.151c0.267,0.519,0.546,1.029,0.842,1.529c0.021,0.035,0.041,0.071,0.062,0.106c0.331,0.555,0.679,1.099,1.043,1.629c0.017,0.024,0.035,0.049,0.052,0.074c0.337,0.487,0.69,0.963,1.055,1.428c0.055,0.071,0.11,0.142,0.166,0.211c0.388,0.486,0.788,0.963,1.205,1.424c0.816-0.032,2.132-0.166,2.545-0.683c0.613-0.768,1.84,0.23,1.84,0.23C30.271,66.818,31.422,64.979,31.422,64.979z M17.199,41.175l0.308,0.996l0.229-0.996c0.077-0.384-0.689-0.844-0.46-1.687c0.23-0.844,0.92-1.227,0.23-2.147s0.46,0.154-0.69,1.764L17.199,41.175z M15.935,44.586c0.153-1.073,0.307-1.303-0.076-0.843c-0.383,0.46-1.38,1.608-1.38,1.608l-0.143,2.351c0.011,0.084,0.021,0.168,0.032,0.253c0.156,0.258,0.735,1.154,1.26,1.154c0.613,0,1.073-1.457,0.537-2.225C15.628,46.119,15.781,45.659,15.935,44.586z M21.896,30.23l-0.173,0.862l0.518-0.173l0.518-0.689L23.851,30l0.058-0.574c0,0,0.518-0.288,0.862-0.23c0.344,0.058,1.093-0.287,1.38-0.862s0.518-0.69,0.69-0.978c0.172-0.288,0.057-1.266-0.173-0.69c-0.23,0.575-1.38,1.668-2.013,1.726c-0.633,0.058-0.46,0.747-0.46,0.747l-1.035,0.115L21.896,30.23z M41.389,67.51l-1.61,0.613c-0.384,0.536,1.241,0.359,1.917-0.23c0.613-0.535,1.149-0.996,1.149-0.996l-0.92-0.461L41.389,67.51z M43.229,65.363c-0.69,0-0.226,0.492-0.154,0.92c0.154,0.92,1.534,0,0.921-0.077C43.382,66.13,43.918,65.363,43.229,65.363z M18.273,46.005c-0.039,0.269,0.229,1.149,0.229,1.149c0.307-0.269,0.269-0.269,0.307-0.536c0.039-0.269-0.307-0.384,0-0.806C19.116,45.393,18.312,45.736,18.273,46.005z M71.67,32.668c-0.096-0.233-0.193-0.465-0.296-0.695c-0.062-0.136-0.122-0.271-0.185-0.406l-1.271-1.747l0.172-0.302c0,0,0.096,0.131,0.254,0.334c-0.007-0.012-0.013-0.024-0.019-0.037c-0.373-0.69-0.777-1.359-1.201-2.016c-0.069-0.107-0.138-0.216-0.207-0.323c-0.417-0.627-0.86-1.236-1.321-1.829c-0.093-0.118-0.185-0.237-0.277-0.354c-0.465-0.579-0.95-1.14-1.457-1.682c-0.104-0.111-0.209-0.22-0.313-0.329c-0.519-0.538-1.052-1.059-1.606-1.557c-0.103-0.091-0.207-0.178-0.309-0.267c-0.578-0.504-1.172-0.992-1.787-1.451c-0.076-0.056-0.154-0.107-0.229-0.163c-0.604-0.442-1.228-0.862-1.865-1.258c-0.074-0.046-0.146-0.096-0.222-0.142c-0.654-0.399-1.33-0.767-2.018-1.115c-0.13-0.066-0.257-0.135-0.387-0.198c-0.666-0.326-1.35-0.624-2.041-0.9c-0.102-0.04-0.201-0.08-0.302-0.119l-6.239-0.434l-0.18-0.074c0,0,1.992-0.096,3.963-0.32c-0.113-0.033-0.227-0.065-0.34-0.096c-0.403-0.112-0.812-0.214-1.221-0.309c-0.205-0.047-0.406-0.098-0.613-0.142c-0.56-0.117-1.125-0.219-1.695-0.305c-0.225-0.033-0.451-0.058-0.678-0.086c-0.391-0.049-0.784-0.092-1.18-0.126c-0.263-0.021-0.522-0.044-0.787-0.06c-0.444-0.026-0.894-0.041-1.343-0.048c-0.157-0.002-0.313-0.012-0.47-0.012c-0.122,0-0.242,0.008-0.363,0.009c-0.537,0.006-1.069,0.027-1.598,0.062c-0.244,0.016-0.487,0.034-0.729,0.055c-0.595,0.053-1.187,0.119-1.772,0.207c-0.174,0.026-0.345,0.059-0.518,0.088c-0.517,0.087-1.029,0.187-1.536,0.3c-0.211,0.046-0.421,0.094-0.63,0.145c-0.604,0.148-1.201,0.309-1.79,0.493c-0.045,0.014-0.089,0.031-0.134,0.045c-1.161,0.648-1.824,1.038-1.824,1.038l0.748,0.23L32.3,17.174c0.426-0.558,0.285-0.706,0.01-0.704c-0.2,0.085-0.395,0.179-0.593,0.268c-0.273,0.124-0.547,0.246-0.816,0.377c-0.243,0.119-0.482,0.245-0.722,0.37c-0.246,0.128-0.491,0.259-0.732,0.394c-0.236,0.132-0.47,0.266-0.702,0.404c-0.244,0.145-0.484,0.295-0.723,0.447c-0.219,0.139-0.44,0.275-0.655,0.42c-0.298,0.2-0.588,0.409-0.878,0.619c-0.289,0.209-0.573,0.423-0.854,0.642c-0.259,0.202-0.517,0.403-0.769,0.613c-0.194,0.162-0.383,0.33-0.573,0.497c-0.219,0.192-0.437,0.387-0.65,0.585c-0.187,0.174-0.373,0.351-0.555,0.529c-0.214,0.209-0.423,0.423-0.63,0.639c-0.168,0.174-0.337,0.347-0.501,0.525c-0.265,0.289-0.521,0.585-0.774,0.884c-0.18,0.212-0.356,0.428-0.531,0.645c-0.239,0.299-0.476,0.599-0.703,0.907c-0.137,0.186-0.268,0.375-0.401,0.564c-0.183,0.26-0.364,0.522-0.539,0.788c-0.13,0.198-0.258,0.397-0.384,0.599c-0.173,0.277-0.34,0.558-0.504,0.841c-0.11,0.191-0.223,0.38-0.33,0.574c-0.215,0.39-0.419,0.785-0.616,1.185c-0.069,0.14-0.139,0.28-0.206,0.422c-0.205,0.432-0.4,0.869-0.584,1.312c-0.077,0.186-0.148,0.374-0.221,0.561c-0.131,0.335-0.259,0.671-0.378,1.012c-0.071,0.201-0.139,0.404-0.206,0.607c-0.115,0.351-0.222,0.705-0.324,1.062c-0.053,0.185-0.108,0.369-0.158,0.556c-0.13,0.493-0.25,0.99-0.356,1.493c-0.009,0.043-0.021,0.085-0.029,0.128l1.526-2.172c1.917-0.767,2.453-2.837,2.453-2.837c1.38-0.46,1.228-3.68,1.228-3.68l0.843-0.46l-0.536-0.46l1.303-1.38c-0.306,0.92,0.384,0.613,0.384,0.613l-0.767,2.223c1.993-0.613,1.303-2.376,1.303-2.376l1.917-1.457c2.224,0.307,4.83-3.986,4.83-3.986l-0.92,2.3c1.092-0.307,1.84-2.76,1.84-2.76l-1.533-0.077l3.144-1.687c3.449,0.02,3.622-0.844,3.622-0.844c0.402,0.077,2.804-0.592,1.955,0.058c-1.211,0.927-1.782,0.892-2.587,1.783l-0.308,1.38c0,0,1.489-0.646,2.837-1.993c0.174-0.174-0.029-0.439,0.153-0.613c0.221-0.212,0.822-0.33,0.97-0.501c1.277-0.242,1.292-0.343,1.292-0.343s1.035,0.69,2.722-0.997c2.913-0.613,3.22-1.227,0.068-1.335l-4.438,0.339l-1.38-0.307c3.22-0.077,10.899-0.612,10.899-0.612L45.52,16.59l0.545,0.394l0.996,0.996c0,0,0.461,0.655,2.416,0.46c0.926-0.092-0.994,1.011-0.994,1.011l0.488,0.106c0,0,0.485-0.057,2.528-1.203l1.978-0.111c2.399,0.581,3.553,0.694,4.547,1.424c2.451,1.819,3.813,2.377,4.602,3.297c0.822,1.533,1.469,1.882,3.02,3.208c0.793,1.002,2.5,2.389,2.959,3.002c0.908,1.938,2.408,3.113,3.113,3.683c0.023,0.033,0.045,0.062,0.064,0.091C71.745,32.856,71.709,32.761,71.67,32.668z M30.731,66.359c1.15,1.687,1.38,0.459,1.227,0.076S30.731,66.359,30.731,66.359z M18.234,42.171c-0.46,0.153-1.073,0.767-1.073,0.767c0.537,0.23,0.153,0.384,0.537,1.15c0.383,0.768,0.076,0.153,0.229-0.613C18.08,42.709,18.694,42.018,18.234,42.171z M17.929,49.723c-1.074-0.843-0.69-1.533-0.23-1.992c0.659-0.66-0.843-0.537-0.92-0.23c-0.077,0.307-0.153,1.227-0.153,1.227S17.392,49.876,17.929,49.723z M16.932,46.579l0.422,0.229c0,0,0.805-0.269,0.345-0.384C17.238,46.313,16.932,46.579,16.932,46.579z"/>
</svg>