<?xml version="1.0" encoding="UTF-8"?>
<!DOCTYPE svg PUBLIC "-//W3C//DTD SVG 1.1 Tiny//EN" "http://www.w3.org/Graphics/SVG/1.1/DTD/svg11-tiny.dtd">
<svg baseProfile="tiny" height="32px" version="1.1" viewBox="0 0 26 32" width="26px" x="0px" xmlns="http://www.w3.org/2000/svg" xmlns:xlink="http://www.w3.org/1999/xlink" y="0px">
<rect fill="none" height="32" width="26"/>
<path d="M4.816,11.877H0.999c-0.413,0-0.749,0.336-0.749,0.75v5.949c0,0.413,0.336,0.749,0.749,0.749h3.817  c0.414,0,0.75-0.336,0.75-0.749v-5.949C5.566,12.213,5.23,11.877,4.816,11.877z M13.039,6.099l-6.837,5.469  C6.024,11.71,5.92,11.926,5.92,12.153v6.896c0,0.229,0.104,0.443,0.282,0.586l6.837,5.469c0.493,0.398,1.217,0.036,1.217-0.586  V6.685C14.256,5.946,13.436,5.778,13.039,6.099z M21.632,4.656c-0.282-0.325-0.788-0.336-1.091-0.032l-0.895,0.896  c-0.277,0.28-0.291,0.729-0.029,1.025c5.273,5.992,3.654,12.832-0.047,18.117c-0.209,0.297-0.174,0.701,0.082,0.959l0.908,0.91  c0.41,0.412,0.949,0.174,1.141-0.095C25.944,20.504,28.166,12.007,21.632,4.656z M18.275,8.917  c-0.311-0.366-0.821-0.324-1.102-0.044l-0.893,0.893c-0.276,0.276-0.288,0.722-0.037,1.02c2.594,3.069,1.88,6.816-0.049,9.607  c-0.207,0.297-0.168,0.699,0.086,0.955l0.907,0.909c0.327,0.327,0.87,0.284,1.14-0.09C21.24,18.126,21.737,12.995,18.275,8.917z" fill-opacity="0.4" stroke-opacity="0.4"/>
<polygon fill="#FFFFFF" points="6.67,19.05 13.507,24.519 13.507,6.685 6.67,12.153 "/>
<rect fill="#FFFFFF" height="5.947" width="3.817" x="1" y="12.628"/>
<path d="M21.072,5.153l-0.895,0.895c5.119,5.809,4.357,12.833,0.006,19.042L21.092,26  C25.689,19.565,26.891,11.702,21.072,5.153z" fill="#FFFFFF"/>
<path d="M16.81,10.297l0.007,0.006c2.729,3.22,2.234,7.269-0.003,10.517l0.907,0.908  c2.637-3.65,3.275-8.449-0.018-12.325L16.81,10.297z" fill="#FFFFFF"/>
</svg>
