<?xml version="1.0" encoding="utf-8"?>
<!DOCTYPE svg PUBLIC "-//W3C//DTD SVG 1.1 Tiny//EN" "http://www.w3.org/Graphics/SVG/1.1/DTD/svg11-tiny.dtd">
<svg width="60" height="80" viewBox="0 0 60 80">
<linearGradient id="_334" gradientUnits="userSpaceOnUse" x1="20.69" y1="30.75" x2="38.19" y2="51.79">
<stop stop-color="#DEE9F3" offset="0"/>
<stop stop-color="#235487" offset="1"/>
</linearGradient>
<circle fill="url(#_334)" cx="29.527" cy="41.367" r="23.417"/>
<radialGradient id="_335" gradientUnits="userSpaceOnUse" cx="34.05" cy="26.71" r="42.04">
<stop stop-color="#FFFFFF" offset="0"/>
<stop stop-color="#A2C2DD" offset="0.53"/>
<stop stop-color="#6C83BB" offset="0.87"/>
<stop stop-color="#003D6D" offset="1"/>
</radialGradient>
<circle fill="url(#_335)" cx="29.566" cy="41.366" r="22.724"/>
<radialGradient id="_336" gradientUnits="userSpaceOnUse" cx="34.36" cy="29.04" r="28.6">
<stop stop-color="#E6EEF4" offset="0"/>
<stop stop-color="#C6DCC1" offset="0.08"/>
<stop stop-color="#91C06F" offset="0.21"/>
<stop stop-color="#6BAB33" offset="0.32"/>
<stop stop-color="#539E0E" offset="0.4"/>
<stop stop-color="#4A9900" offset="0.44"/>
<stop stop-color="#398419" offset="0.55"/>
<stop stop-color="#22663B" offset="0.71"/>
<stop stop-color="#135550" offset="0.85"/>
<stop stop-color="#0E4E58" offset="0.94"/>
</radialGradient>
<path fill="url(#_336)" d="M52.055,42.223l-0.697-0.863c0,0.007-0.271-1.097-0.469-1.816c-0.175-0.642-0.642-0.583-0.966-0.72c-1.01-0.426-0.215-2.338-2.688-1.697c-1.836-0.435-1.729-1.033-2.986,0.608c-0.107,0.144-1.076-0.164-1.117,0.006c-0.418-0.288-0.633-0.237-0.979-0.402c-0.471-0.593-0.629-0.766-0.289-1.586c0.34-0.821-2.291-0.717-2.291-0.717c0.133-0.345,0.145-1.498,0.119-2.059c-0.027-0.602-1.318,0.181-1.271,0.913l-1.078,0.126c-1.311-0.126-1.861-0.951-1.953-2.106c-0.201-2.59,2.437-2.096,2.437-2.096s1.368-0.383,2.323,0.111c0.263,0.137,0.479,0.898,1.527,1.38c0.563,0.258-0.912-1.77-0.707-2.086c0.203-0.316,0.977-1.272,0.977-1.272l-0.485-1.3c0,0,0.408-0.373,0.722-0.948c0.614-0.073,0.356-0.551,0.309-0.953c-0.051-0.403-1.412-0.966-1.098-0.877c0.834,0.237,0.934-0.116,1.34,0.117c0.307,0.175,0.701,0.793,0.701,0.793s0.834-0.082,0.522-0.327c-0.654-0.518-0.802-1.153-1.924-1.282c-0.521-0.06-1.82-1.179-1.82-1.179c-0.512-0.266-1.313,0.301-1.354-0.044c-0.551-0.391-0.971-0.47-1.528-0.699c-0.396-0.002-0.599,0.233-0.599,0.233s1.295,0.771,1.427,1.295c-0.144,0.432-0.394,0.469-0.394,0.469s-0.51-0.527-0.717-0.776c-0.381-0.46-3.766-0.984-3.766-0.984s0.674-0.953,1.061-0.694c0.385,0.259,1.105,0.151,1.105,0.151s-0.799-0.483-0.305-0.786c0.491-0.303,1.153,0.309,1.44,0.479c0.438,0.263,1.574,0.523,1.967,0.48c0.228-0.024-0.172-0.142-0.25-0.177c-0.123-0.056-0.51-0.449-0.969-0.578c-0.459-0.129-2.188-0.774-2.188-0.774s0.319-0.031,0.725-0.046c-0.084-0.025-0.17-0.049-0.256-0.073c-0.297-0.082-0.6-0.157-0.901-0.228c-0.161-0.038-0.321-0.078-0.483-0.112c-0.42-0.087-0.844-0.163-1.271-0.227c-0.183-0.027-0.366-0.047-0.55-0.07c-0.284-0.035-0.568-0.066-0.855-0.091c-0.205-0.018-0.41-0.035-0.617-0.047c-0.324-0.019-0.654-0.029-0.983-0.035c-0.128-0.002-0.254-0.01-0.383-0.01s-0.255,0.007-0.383,0.01c-0.33,0.005-0.658,0.016-0.984,0.035c-0.208,0.013-0.415,0.029-0.622,0.047c-0.282,0.024-0.563,0.055-0.841,0.09c-0.189,0.023-0.38,0.044-0.568,0.072c-0.421,0.063-0.839,0.138-1.252,0.224c-0.179,0.037-0.354,0.082-0.531,0.123c-0.282,0.066-0.562,0.136-0.839,0.212c-0.181,0.05-0.361,0.1-0.541,0.153c-0.346,0.104-0.689,0.217-1.028,0.337c-0.158,0.056-0.314,0.114-0.47,0.173c-0.336,0.127-0.668,0.262-0.996,0.404c-0.155,0.067-0.308,0.138-0.461,0.208c-0.291,0.135-0.579,0.275-0.863,0.422c-0.123,0.063-0.247,0.123-0.368,0.188c-0.385,0.207-0.763,0.425-1.134,0.653c-0.035,0.021-0.068,0.044-0.102,0.065c-0.191,0.576,0.347,1.013,2.526-0.076c2.054,0,2.71-0.22,3.442,0.318c0.126,0.622,1.323,1.256,1.583,1.909c0.316,1.122-0.71,0.453-0.251,2.727c0.601,0.771,1.708,1.586,2.267,1.786c0.72,1.524,1.672,2.257,2.017,2.884c0.597,0.897,0.759,0.626,0.759,0.626l-1.458-2.867l0.108-0.255c0,0,1.429,2.137,2.481,2.718c1.188,0.656,1.389,1.506,1.405,1.88s3.902,1.515,3.902,1.515s0.696-0.446,1.096-0.088c0.017,0.015,0.312,0.024,0.313,0.043c0.213,0.845,1.882,0.842,1.882,0.842c0.143,0.302,1.645,1.334,2.2,1.767c0.523,0.408,0.933,0.699,1.607,0.188c0.504,0.488,1.016,0.875,0.945,1.553c-0.025,0.231-0.504,1.054-0.572,1.29c-0.395,1.379-1.111,1.413-0.756,2.739c0.42,1.57,1.365,3.664,1.863,4.354c1.807,1.414-0.234,3.24-0.488,5.087c0.098,1.049-1.52,1.688-2.018,3.028c-0.06,0.949-1.164,1.746-1.681,2.119c-0.758,1.037-1.047,2.019-0.709,1.899c1.166-0.407,2.781-2.106,3.382-2.913c0.448-0.607,1.545-1.106,2.504-1.863c1.106-0.875,3.338-3.465,4.619-5.672c0.196-0.621,0.141-0.586,0.659-1.393c0.009,0,0.019-0.003,0.028-0.004c0.002-0.008,0.005-0.016,0.007-0.021c0.14-0.441,0.263-0.89,0.373-1.342c0.026-0.104,0.049-0.21,0.071-0.314c0.086-0.363,0.162-0.73,0.229-1.103c0.02-0.108,0.041-0.219,0.059-0.329c0.156-0.938,0.252-1.896,0.289-2.871c0-0.039,0.002-0.078,0.002-0.117L52.055,42.223z M45.604,34.062c0,0,0.84,0.045,0.154-0.417c-0.688-0.461-1.184,0.207-1.016,0.253C44.936,33.95,45.604,34.062,45.604,34.062z M42.016,32.252c-0.351,0.313-0.158,0.472-0.158,0.472c0.264-0.09,0.582-0.248,0.955,0.396c0.375,0.644,1.258,0.37,1.196,0.165C43.95,33.08,42.361,31.939,42.016,32.252z"/>
</svg>