<?xml version="1.0" encoding="UTF-8"?>
<!DOCTYPE svg PUBLIC "-//W3C//DTD SVG 1.1 Tiny//EN" "http://www.w3.org/Graphics/SVG/1.1/DTD/svg11-tiny.dtd">
<svg width="50" height="50" viewBox="0 0 50 50">
<path d="M1.381,25.002c0,13.022,10.596,23.617,23.619,23.617 s23.619-10.595,23.619-23.617C48.619,11.977,38.023,1.381,25,1.381S1.381,11.977,1.381,25.002z" fill="#1FFFEA" fill-opacity="0.2" />
<path d="M2.381,25.002c0,12.472,10.148,22.617,22.619,22.617 c12.473,0,22.619-10.146,22.619-22.617C47.619,12.529,37.473,2.381,25,2.381C12.529,2.381,2.381,12.529,2.381,25.002z" fill="#1FFFEA" fill-opacity="0.3" />
<path d="M3.367,25.002c0,11.927,9.706,21.631,21.633,21.631 c11.929,0,21.632-9.704,21.632-21.631c0-11.929-9.703-21.631-21.632-21.631C13.072,3.371,3.367,13.073,3.367,25.002z" fill="#1FFFEA" fill-opacity="0.4" />
<radialGradient id="_4" gradientUnits="userSpaceOnUse" cx="25" cy="25" r="19.75">
<stop stop-color="#B3DDFF" offset="0"/>
<stop stop-color="#D3FFBF" offset="0.01"/>
<stop stop-color="#92F7DB" offset="0.41"/>
<stop stop-color="#56F0F5" offset="0.81"/>
<stop stop-color="#3FEDFF" offset="1"/>
</radialGradient>
<path d="M25,5.252C14.112,5.252,5.254,14.111,5.254,25 c0,10.887,8.858,19.746,19.746,19.746c10.889,0,19.749-8.859,19.749-19.746C44.749,14.111,35.889,5.252,25,5.252z" fill="url(#_4)"/>
<linearGradient id="_5" gradientUnits="userSpaceOnUse" x1="25" y1="5.62" x2="25" y2="44.35">
<stop stop-color="#CFECFF" offset="0"/>
<stop stop-color="#8CC2EA" offset="1"/>
</linearGradient>
<path d="M25,5.252C14.112,5.252,5.254,14.111,5.254,25 c0,10.887,8.858,19.746,19.746,19.746c10.889,0,19.748-8.859,19.748-19.746C44.749,14.111,35.89,5.252,25,5.252z M25,43.672 C14.688,43.672,6.332,35.314,6.332,25C6.332,14.688,14.688,6.327,25,6.327S43.671,14.688,43.671,25 C43.671,35.314,35.313,43.672,25,43.672z" fill="url(#_5)" fill-opacity="0.5" />
<linearGradient id="_6" gradientUnits="userSpaceOnUse" x1="25" y1="2.75" x2="25" y2="53.43">
<stop stop-color="#FFFFFF" offset="0"/>
<stop stop-color="#B3DDFF" offset="1"/>
</linearGradient>
<path d="M43.674,25c0,10.314-8.36,18.672-18.674,18.672 C14.684,43.672,6.328,35.314,6.328,25C6.328,14.688,14.684,6.327,25,6.327C35.314,6.327,43.674,14.688,43.674,25z" fill="url(#_6)" fill-opacity="0.5" />
<path d="M41.132,25.02c0,17.49-32.262,17.49-32.262,0 C8.871,7.475,41.132,7.475,41.132,25.02z" fill="#FFFFFF" fill-opacity="0.15" />
<path d="M19.329,18.968c-0.255,0-0.462,0.208-0.462,0.467v13.214 c0,0.258,0.207,0.467,0.462,0.467h11.345c0.255,0,0.462-0.208,0.462-0.467V19.435c0-0.258-0.207-0.467-0.462-0.467H19.329z" fill-opacity="0.6" />
<path d="M19.329,15.968c-1.909,0-3.462,1.555-3.462,3.467v13.214 c0,1.912,1.553,3.467,3.462,3.467h11.345c1.909,0,3.462-1.555,3.462-3.467V19.435c0-1.912-1.553-3.467-3.462-3.467H19.329z" fill="#1FFFEA" fill-opacity="0.1" />
<path d="M19.329,16.968c-1.357,0-2.462,1.106-2.462,2.467v13.214 c0,1.36,1.104,2.467,2.462,2.467h11.345c1.358,0,2.462-1.106,2.462-2.467V19.435c0-1.36-1.104-2.467-2.462-2.467H19.329z" fill="#1FFFEA" fill-opacity="0.2" />
<path d="M19.329,17.968c-0.806,0-1.462,0.658-1.462,1.467v13.214 c0,0.809,0.656,1.467,1.462,1.467h11.345c0.806,0,1.462-0.658,1.462-1.467V19.435c0-0.809-0.656-1.467-1.462-1.467H19.329z" fill="#1FFFEA" fill-opacity="0.3" />
</svg>