<?xml version="1.0" encoding="UTF-8"?>
<!DOCTYPE svg PUBLIC "-//W3C//DTD SVG 1.1 Tiny//EN" "http://www.w3.org/Graphics/SVG/1.1/DTD/svg11-tiny.dtd">
<svg baseProfile="tiny" height="20" version="1.1" viewBox="-0.239 -0.204 306 20" width="306" xmlns="http://www.w3.org/2000/svg" xmlns:xlink="http://www.w3.org/1999/xlink">
<g>
<g>
<g>
<g>
<linearGradient gradientTransform="matrix(1 0 0 -1 0.1577 18.8145)" gradientUnits="userSpaceOnUse" id="XMLID_26_" x1="21.6021" x2="21.6021" y1="18.0186" y2="0.0186">
<stop offset="0" style="stop-color:#FFFFFF"/>
<stop offset="0.1" style="stop-color:#FFFFFF"/>
<stop offset="0.5" style="stop-color:#D3D8DD"/>
<stop offset="1" style="stop-color:#9BA1A8"/>
</linearGradient>
<polygon fill="url(#XMLID_26_)" points="5.761,0.796 23.761,18.796 37.761,18.796 19.761,0.796 "/>
<linearGradient gradientTransform="matrix(1 0 0 -1 0.1577 18.8145)" gradientUnits="userSpaceOnUse" id="XMLID_27_" x1="49.6021" x2="49.6021" y1="18.0186" y2="0.0186">
<stop offset="0" style="stop-color:#FFFFFF"/>
<stop offset="0.1" style="stop-color:#FFFFFF"/>
<stop offset="0.5" style="stop-color:#D3D8DD"/>
<stop offset="1" style="stop-color:#9BA1A8"/>
</linearGradient>
<polygon fill="url(#XMLID_27_)" points="33.761,0.796 51.761,18.796 65.761,18.796 47.761,0.796 "/>
<linearGradient gradientTransform="matrix(1 0 0 -1 0.1577 18.8145)" gradientUnits="userSpaceOnUse" id="XMLID_28_" x1="77.6021" x2="77.6021" y1="18.0186" y2="0.0186">
<stop offset="0" style="stop-color:#FFFFFF"/>
<stop offset="0.1" style="stop-color:#FFFFFF"/>
<stop offset="0.5" style="stop-color:#D3D8DD"/>
<stop offset="1" style="stop-color:#9BA1A8"/>
</linearGradient>
<polygon fill="url(#XMLID_28_)" points="61.761,0.796 79.761,18.796 93.761,18.796 75.761,0.796 "/>
<linearGradient gradientTransform="matrix(1 0 0 -1 0.1577 18.8145)" gradientUnits="userSpaceOnUse" id="XMLID_29_" x1="105.6021" x2="105.6021" y1="18.0186" y2="0.0186">
<stop offset="0" style="stop-color:#FFFFFF"/>
<stop offset="0.1" style="stop-color:#FFFFFF"/>
<stop offset="0.5" style="stop-color:#D3D8DD"/>
<stop offset="1" style="stop-color:#9BA1A8"/>
</linearGradient>
<polygon fill="url(#XMLID_29_)" points="89.761,0.796 107.761,18.796 121.761,18.796 103.761,0.796 "/>
<linearGradient gradientTransform="matrix(1 0 0 -1 0.1577 18.8145)" gradientUnits="userSpaceOnUse" id="XMLID_30_" x1="133.6021" x2="133.6021" y1="18.0186" y2="0.0186">
<stop offset="0" style="stop-color:#FFFFFF"/>
<stop offset="0.1" style="stop-color:#FFFFFF"/>
<stop offset="0.5" style="stop-color:#D3D8DD"/>
<stop offset="1" style="stop-color:#9BA1A8"/>
</linearGradient>
<polygon fill="url(#XMLID_30_)" points="117.761,0.796 135.761,18.796 149.761,18.796 131.761,0.796 "/>
<linearGradient gradientTransform="matrix(1 0 0 -1 0.1577 18.8145)" gradientUnits="userSpaceOnUse" id="XMLID_31_" x1="161.6025" x2="161.6025" y1="18.0186" y2="0.0186">
<stop offset="0" style="stop-color:#FFFFFF"/>
<stop offset="0.1" style="stop-color:#FFFFFF"/>
<stop offset="0.5" style="stop-color:#D3D8DD"/>
<stop offset="1" style="stop-color:#9BA1A8"/>
</linearGradient>
<polygon fill="url(#XMLID_31_)" points="145.761,0.796 163.761,18.796 177.761,18.796 159.761,0.796 "/>
<linearGradient gradientTransform="matrix(1 0 0 -1 0.1577 18.8145)" gradientUnits="userSpaceOnUse" id="XMLID_32_" x1="189.6025" x2="189.6025" y1="18.0186" y2="0.0186">
<stop offset="0" style="stop-color:#FFFFFF"/>
<stop offset="0.1" style="stop-color:#FFFFFF"/>
<stop offset="0.5" style="stop-color:#D3D8DD"/>
<stop offset="1" style="stop-color:#9BA1A8"/>
</linearGradient>
<polygon fill="url(#XMLID_32_)" points="173.761,0.796 191.761,18.796 205.761,18.796 187.761,0.796 "/>
<linearGradient gradientTransform="matrix(1 0 0 -1 0.1577 18.8145)" gradientUnits="userSpaceOnUse" id="XMLID_33_" x1="217.6025" x2="217.6025" y1="18.0186" y2="0.0186">
<stop offset="0" style="stop-color:#FFFFFF"/>
<stop offset="0.1" style="stop-color:#FFFFFF"/>
<stop offset="0.5" style="stop-color:#D3D8DD"/>
<stop offset="1" style="stop-color:#9BA1A8"/>
</linearGradient>
<polygon fill="url(#XMLID_33_)" points="201.761,0.796 219.761,18.796 233.761,18.796 215.761,0.796 "/>
<linearGradient gradientTransform="matrix(1 0 0 -1 0.1577 18.8145)" gradientUnits="userSpaceOnUse" id="XMLID_34_" x1="245.6025" x2="245.6025" y1="18.0186" y2="0.0186">
<stop offset="0" style="stop-color:#FFFFFF"/>
<stop offset="0.1" style="stop-color:#FFFFFF"/>
<stop offset="0.5" style="stop-color:#D3D8DD"/>
<stop offset="1" style="stop-color:#9BA1A8"/>
</linearGradient>
<polygon fill="url(#XMLID_34_)" points="229.761,0.796 247.761,18.796 261.761,18.796 243.761,0.796 "/>
<linearGradient gradientTransform="matrix(1 0 0 -1 0.1577 18.8145)" gradientUnits="userSpaceOnUse" id="XMLID_35_" x1="273.6025" x2="273.6025" y1="18.0186" y2="0.0186">
<stop offset="0" style="stop-color:#FFFFFF"/>
<stop offset="0.1" style="stop-color:#FFFFFF"/>
<stop offset="0.5" style="stop-color:#D3D8DD"/>
<stop offset="1" style="stop-color:#9BA1A8"/>
</linearGradient>
<polygon fill="url(#XMLID_35_)" points="257.761,0.796 275.761,18.796 289.761,18.796 271.761,0.796 "/>
</g>
<g>
<linearGradient gradientTransform="matrix(1 0 0 -1 0.1577 18.8145)" gradientUnits="userSpaceOnUse" id="XMLID_36_" x1="35.6021" x2="35.6021" y1="18.0186" y2="0.7218">
<stop offset="0" style="stop-color:#CFECFF"/>
<stop offset="0.1" style="stop-color:#CFECFF"/>
<stop offset="0.5" style="stop-color:#87A8CB"/>
<stop offset="0.882" style="stop-color:#496DA2"/>
<stop offset="1" style="stop-color:#2B5473"/>
</linearGradient>
<polygon fill="url(#XMLID_36_)" points="19.761,0.796 37.761,18.796 51.761,18.796 33.761,0.796 "/>
<linearGradient gradientTransform="matrix(1 0 0 -1 0.1577 18.8145)" gradientUnits="userSpaceOnUse" id="XMLID_37_" x1="63.6021" x2="63.6021" y1="18.0186" y2="0.7218">
<stop offset="0" style="stop-color:#CFECFF"/>
<stop offset="0.1" style="stop-color:#CFECFF"/>
<stop offset="0.5" style="stop-color:#87A8CB"/>
<stop offset="0.882" style="stop-color:#496DA2"/>
<stop offset="1" style="stop-color:#2B5473"/>
</linearGradient>
<polygon fill="url(#XMLID_37_)" points="47.761,0.796 65.761,18.796 79.761,18.796 61.761,0.796 "/>
<linearGradient gradientTransform="matrix(1 0 0 -1 0.1577 18.8145)" gradientUnits="userSpaceOnUse" id="XMLID_38_" x1="91.6021" x2="91.6021" y1="18.0186" y2="0.7218">
<stop offset="0" style="stop-color:#CFECFF"/>
<stop offset="0.1" style="stop-color:#CFECFF"/>
<stop offset="0.5" style="stop-color:#87A8CB"/>
<stop offset="0.882" style="stop-color:#496DA2"/>
<stop offset="1" style="stop-color:#2B5473"/>
</linearGradient>
<polygon fill="url(#XMLID_38_)" points="75.761,0.796 93.761,18.796 107.761,18.796 89.761,0.796 "/>
<linearGradient gradientTransform="matrix(1 0 0 -1 0.1577 18.8145)" gradientUnits="userSpaceOnUse" id="XMLID_39_" x1="119.6021" x2="119.6021" y1="18.0186" y2="0.7218">
<stop offset="0" style="stop-color:#CFECFF"/>
<stop offset="0.1" style="stop-color:#CFECFF"/>
<stop offset="0.5" style="stop-color:#87A8CB"/>
<stop offset="0.882" style="stop-color:#496DA2"/>
<stop offset="1" style="stop-color:#2B5473"/>
</linearGradient>
<polygon fill="url(#XMLID_39_)" points="103.761,0.796 121.761,18.796 135.761,18.796 117.761,0.796 "/>
<linearGradient gradientTransform="matrix(1 0 0 -1 0.1577 18.8145)" gradientUnits="userSpaceOnUse" id="XMLID_40_" x1="147.6021" x2="147.6021" y1="18.0186" y2="0.7218">
<stop offset="0" style="stop-color:#CFECFF"/>
<stop offset="0.1" style="stop-color:#CFECFF"/>
<stop offset="0.5" style="stop-color:#87A8CB"/>
<stop offset="0.882" style="stop-color:#496DA2"/>
<stop offset="1" style="stop-color:#2B5473"/>
</linearGradient>
<polygon fill="url(#XMLID_40_)" points="131.761,0.796 149.761,18.796 163.761,18.796 145.761,0.796 "/>
<linearGradient gradientTransform="matrix(1 0 0 -1 0.1577 18.8145)" gradientUnits="userSpaceOnUse" id="XMLID_41_" x1="175.6025" x2="175.6025" y1="18.0186" y2="0.7218">
<stop offset="0" style="stop-color:#CFECFF"/>
<stop offset="0.1" style="stop-color:#CFECFF"/>
<stop offset="0.5" style="stop-color:#87A8CB"/>
<stop offset="0.882" style="stop-color:#496DA2"/>
<stop offset="1" style="stop-color:#2B5473"/>
</linearGradient>
<polygon fill="url(#XMLID_41_)" points="159.761,0.796 177.761,18.796 191.761,18.796 173.761,0.796 "/>
<linearGradient gradientTransform="matrix(1 0 0 -1 0.1577 18.8145)" gradientUnits="userSpaceOnUse" id="XMLID_42_" x1="203.6025" x2="203.6025" y1="18.0186" y2="0.7218">
<stop offset="0" style="stop-color:#CFECFF"/>
<stop offset="0.1" style="stop-color:#CFECFF"/>
<stop offset="0.5" style="stop-color:#87A8CB"/>
<stop offset="0.882" style="stop-color:#496DA2"/>
<stop offset="1" style="stop-color:#2B5473"/>
</linearGradient>
<polygon fill="url(#XMLID_42_)" points="187.761,0.796 205.761,18.796 219.761,18.796 201.761,0.796 "/>
<linearGradient gradientTransform="matrix(1 0 0 -1 0.1577 18.8145)" gradientUnits="userSpaceOnUse" id="XMLID_43_" x1="231.6025" x2="231.6025" y1="18.0186" y2="0.7218">
<stop offset="0" style="stop-color:#CFECFF"/>
<stop offset="0.1" style="stop-color:#CFECFF"/>
<stop offset="0.5" style="stop-color:#87A8CB"/>
<stop offset="0.882" style="stop-color:#496DA2"/>
<stop offset="1" style="stop-color:#2B5473"/>
</linearGradient>
<polygon fill="url(#XMLID_43_)" points="215.761,0.796 233.761,18.796 247.761,18.796 229.761,0.796 "/>
<linearGradient gradientTransform="matrix(1 0 0 -1 0.1577 18.8145)" gradientUnits="userSpaceOnUse" id="XMLID_44_" x1="259.6025" x2="259.6025" y1="18.0186" y2="0.7218">
<stop offset="0" style="stop-color:#CFECFF"/>
<stop offset="0.1" style="stop-color:#CFECFF"/>
<stop offset="0.5" style="stop-color:#87A8CB"/>
<stop offset="0.882" style="stop-color:#496DA2"/>
<stop offset="1" style="stop-color:#2B5473"/>
</linearGradient>
<polygon fill="url(#XMLID_44_)" points="243.761,0.796 261.761,18.796 275.761,18.796 257.761,0.796 "/>
<g>
<path d="M303.273,0.796h-17.513l17.938,17.939c0.611-0.16,1.062-0.646,1.062-1.229V2.085 C304.761,1.374,304.093,0.796,303.273,0.796z" fill="none"/>
<path d="M2.248,0.796c-0.819,0-1.487,0.578-1.487,1.289v15.422c0,0.711,0.668,1.289,1.487,1.289h287.513l-18-18 H2.248z" fill="none"/>
<linearGradient gradientTransform="matrix(1 0 0 -1 0.1577 18.8145)" gradientUnits="userSpaceOnUse" id="XMLID_45_" x1="287.5723" x2="287.5723" y1="18.0186" y2="0.7218">
<stop offset="0" style="stop-color:#CFECFF"/>
<stop offset="0.1" style="stop-color:#CFECFF"/>
<stop offset="0.5" style="stop-color:#87A8CB"/>
<stop offset="0.882" style="stop-color:#496DA2"/>
<stop offset="1" style="stop-color:#2B5473"/>
</linearGradient>
<path d="M271.761,0.796l18,18h13.513c0.148,0,0.291-0.025,0.427-0.061L285.761,0.796H271.761z" fill="url(#XMLID_45_)"/>
</g>
<g>
<path d="M5.761,0.796l18,18h279.513c0.148,0,0.291-0.025,0.427-0.061L285.761,0.796H5.761z" fill="none"/>
<linearGradient gradientTransform="matrix(1 0 0 -1 0.1577 18.8145)" gradientUnits="userSpaceOnUse" id="XMLID_46_" x1="5.1021" x2="5.102" y1="18.9287" y2="0.0195">
<stop offset="0" style="stop-color:#FFFFFF"/>
<stop offset="0.1" style="stop-color:#FFFFFF"/>
<stop offset="0.5" style="stop-color:#D3D8DD"/>
<stop offset="1" style="stop-color:#9BA1A8"/>
</linearGradient>
<path d="M0.761,17.507c0,0.711,0.668,1.289,1.487,1.289h7.513l-9-9V17.507z" fill="url(#XMLID_46_)"/>
<linearGradient gradientTransform="matrix(1 0 0 -1 0.1577 18.8145)" gradientUnits="userSpaceOnUse" id="XMLID_47_" x1="12.1021" x2="12.102" y1="18.0186" y2="0.7218">
<stop offset="0" style="stop-color:#CFECFF"/>
<stop offset="0.1" style="stop-color:#CFECFF"/>
<stop offset="0.5" style="stop-color:#87A8CB"/>
<stop offset="0.882" style="stop-color:#496DA2"/>
<stop offset="1" style="stop-color:#2B5473"/>
</linearGradient>
<path d="M2.248,0.796c-0.819,0-1.487,0.578-1.487,1.289v7.711l9,9h14l-18-18H2.248z" fill="url(#XMLID_47_)"/>
<linearGradient gradientTransform="matrix(1 0 0 -1 0.1577 18.8145)" gradientUnits="userSpaceOnUse" id="XMLID_48_" x1="295.1025" x2="295.1025" y1="18.0186" y2="0.0167">
<stop offset="0" style="stop-color:#FFFFFF"/>
<stop offset="0.1" style="stop-color:#FFFFFF"/>
<stop offset="0.5" style="stop-color:#D3D8DD"/>
<stop offset="1" style="stop-color:#9BA1A8"/>
</linearGradient>
<path d="M285.761,0.796l17.938,17.939c0.611-0.16,1.062-0.646,1.062-1.229V5.796l-5-5H285.761z" fill="url(#XMLID_48_)"/>
<linearGradient gradientTransform="matrix(1 0 0 -1 0.1577 18.8145)" gradientUnits="userSpaceOnUse" id="XMLID_49_" x1="302.1025" x2="302.1025" y1="18.0186" y2="0.7226">
<stop offset="0" style="stop-color:#CFECFF"/>
<stop offset="0.1" style="stop-color:#CFECFF"/>
<stop offset="0.5" style="stop-color:#87A8CB"/>
<stop offset="0.882" style="stop-color:#496DA2"/>
<stop offset="1" style="stop-color:#2B5473"/>
</linearGradient>
<path d="M303.273,0.796h-3.513l5,5V2.085C304.761,1.374,304.093,0.796,303.273,0.796z" fill="url(#XMLID_49_)"/>
</g>
</g>
</g>
<linearGradient gradientTransform="matrix(1 0 0 -1 0.1577 18.8145)" gradientUnits="userSpaceOnUse" id="XMLID_50_" x1="152.6021" x2="152.6021" y1="20.2686" y2="9.0186">
<stop offset="0" style="stop-color:#FFFFFF"/>
<stop offset="1" style="stop-color:#DEE9F3"/>
</linearGradient>
<path d="M303.273,0.796H2.248c-0.819,0-1.487,0.578-1.487,1.289v7.711h304V2.085 C304.761,1.374,304.093,0.796,303.273,0.796z" fill="url(#XMLID_50_)" fill-opacity="0.2"/>
</g>
<rect fill="none" height="20" width="306" x="-0.239" y="-0.204"/>
</g>
</svg>
