<?xml version="1.0" encoding="UTF-8"?>
<!DOCTYPE svg PUBLIC "-//W3C//DTD SVG 1.1 Tiny//EN" "http://www.w3.org/Graphics/SVG/1.1/DTD/svg11-tiny.dtd">
<svg baseProfile="tiny" height="54px" version="1.1" viewBox="0 0 54 54" width="54px" x="0px" xmlns="http://www.w3.org/2000/svg" xmlns:xlink="http://www.w3.org/1999/xlink" y="0px">
<rect fill="#FFFFFF" height="6.746" width="9.613" x="4.063" y="31.297"/>
<rect fill="#FFFFFF" height="6.746" width="9.613" x="4.063" y="22.111"/>
<rect fill="#FFFFFF" height="6.746" width="9.613" x="4.063" y="12.822"/>
<rect fill="none" height="54" width="54"/>
<polygon fill="#FFFFFF" points="45.976,8.962 44.976,8.962 10.082,8.962 9.082,8.962 8.332,8.962 8.332,9.712 8.332,10.712   8.332,40.704 8.332,41.704 8.332,42.454 9.082,42.454 10.082,42.454 44.976,42.454 45.976,42.454 46.726,42.454 46.726,41.704   46.726,40.704 46.726,10.712 46.726,9.712 46.726,8.962 "/>
<rect height="29.992" width="34.895" x="10.082" y="10.712"/>
<rect fill="#FFFFFF" height="19.022" width="22.756" x="16.267" y="15.847"/>
<path d="M35.593,27.307l-6.934-6.938v-2.313h-0.07v-0.027H26.28v2.312l-6.91,6.933h-2.523l4.686,4.64v-0.021H21.6l0.029,0.038  h11.655l4.625-4.623H35.593z M26.28,22.751v4.521h-4.523L26.28,22.751z M28.66,27.307v-4.622l4.625,4.622H28.66z"/>
<rect height="3.16" width="5.797" x="6.061" y="14.609"/>
<rect height="3.16" width="5.797" x="5.893" y="23.898"/>
<rect height="3.16" width="5.797" x="6.061" y="33.084"/>
<polygon fill="#FFFFFF" points="46.304,34.48 46.304,30.512 38.7,30.512 38.7,34.48 34.738,34.48 34.738,42.08 38.7,42.08   38.7,46.049 46.304,46.049 46.304,42.08 50.269,42.08 50.269,34.48 "/>
<polygon points="36.488,40.33 40.45,40.33 40.45,44.299 44.554,44.299 44.554,40.33 48.519,40.33 48.519,36.23 44.554,36.23   44.554,32.262 40.45,32.262 40.45,36.23 36.488,36.23 "/>
</svg>
