<?xml version="1.0" encoding="UTF-8"?>
<!DOCTYPE svg PUBLIC "-//W3C//DTD SVG 1.1 Tiny//EN" "http://www.w3.org/Graphics/SVG/1.1/DTD/svg11-tiny.dtd">
<svg baseProfile="tiny" height="100%" version="1.1" viewBox="0 0 44 43.999" width="100%" xmlns="http://www.w3.org/2000/svg" xmlns:xlink="http://www.w3.org/1999/xlink">
<g>
<rect fill="none" height="43.999" width="44"/>
<g>
<g>
<g>
<linearGradient gradientUnits="userSpaceOnUse" id="XMLID_15_" x1="4.0127" x2="43.4803" y1="-7.918" y2="59.3323">
<stop offset="0" style="stop-color:#87A8CB"/>
<stop offset="1" style="stop-color:#235487"/>
</linearGradient>
<path d="M5.387,3.004l1.225,26.434c0,0,0.471,0.131,0.703,0.193C7.16,30.1,4.705,37.616,4.705,37.616      l12.443,4.43c0,0,4.76-3.369,4.965-3.512c0.236,0.084,8.066,2.869,8.066,2.869l5.627-3.986l2.612-2.295L39.297,7.85L8.879,1.953      L5.387,3.004z" fill="url(#XMLID_15_)"/>
</g>
</g>
<g>
<polygon fill="#FFFFFF" points="5.637,3.165 35.951,9.261 35.634,37.182 6.84,29.086    "/>
<linearGradient gradientTransform="matrix(1.1905 0 0 1.1905 54.2904 -779.7572)" gradientUnits="userSpaceOnUse" id="XMLID_16_" x1="-37.6489" x2="-13.3874" y1="668.27" y2="677.1005">
<stop offset="0" style="stop-color:#E2E6E4"/>
<stop offset="1" style="stop-color:#A3740A"/>
</linearGradient>
<path d="M9.771,8.531c0,6.08,0,11.368,0,17.56l17.042,4.469c0-6.195,0-12.393,0-18.591L9.771,8.531z" fill="url(#XMLID_16_)"/>
<linearGradient gradientTransform="matrix(1.1905 0 0 1.1905 54.2904 -779.7572)" gradientUnits="userSpaceOnUse" id="XMLID_17_" x1="-11.9873" x2="-28.9737" y1="671.1343" y2="677.3168">
<stop offset="0" style="stop-color:#E2E6E4"/>
<stop offset="1" style="stop-color:#A3740A"/>
</linearGradient>
<path d="M35.884,13.796l-9.07-1.828c0,6.198,0,12.396,0,18.591l8.847,2.322L35.884,13.796z" fill="url(#XMLID_17_)"/>
<linearGradient gradientTransform="matrix(1.1905 0 0 1.1905 54.2904 -779.7572)" gradientUnits="userSpaceOnUse" id="XMLID_18_" x1="-38.9653" x2="-17.7417" y1="669.2026" y2="671.7401">
<stop offset="0" style="stop-color:#E2E6E4"/>
<stop offset="1" style="stop-color:#A3740A"/>
</linearGradient>
<path d="M5.92,7.754l0.764,17.529L9.77,26.09c0-6.191,0-11.481,0-17.56L5.92,7.754z" fill="url(#XMLID_18_)"/>
<linearGradient gradientTransform="matrix(1.1905 0 0 1.1905 54.2904 -779.7572)" gradientUnits="userSpaceOnUse" id="XMLID_19_" x1="-42.7559" x2="10.3928" y1="659.853" y2="659.853">
<stop offset="0" style="stop-color:#E2E6E4"/>
<stop offset="1" style="stop-color:#A3740A"/>
</linearGradient>
<polygon fill="url(#XMLID_19_)" points="39.03,8.032 8.881,2.188 5.686,3.142 36.02,9.407    "/>
<linearGradient gradientTransform="matrix(1.1905 0 0 1.1905 54.2904 -779.7572)" gradientUnits="userSpaceOnUse" id="XMLID_20_" x1="-32.9546" x2="-25.1549" y1="652.9878" y2="679.6379">
<stop offset="0" style="stop-color:#E6EEF4"/>
<stop offset="0.4438" style="stop-color:#A3740A"/>
<stop offset="0.9382" style="stop-color:#474105"/>
<stop offset="1" style="stop-color:#474105"/>
</linearGradient>
<path d="M5.656,3.14l30.295,6.209l-0.317,27.827l-28.79-7.955L5.656,3.14z M33.906,12.884l2.046,0.442     l0.01-2.457l-2.057-0.432L33.906,12.884z M30.708,12.139l1.689,0.394l-0.012-2.439l-1.696-0.381L30.708,12.139z M27.495,11.411     l1.693,0.388l-0.023-2.425l-1.704-0.377L27.495,11.411z M24.271,10.69l1.703,0.381l-0.042-2.405l-1.711-0.368L24.271,10.69z      M21.039,9.98l1.707,0.371l-0.061-2.387l-1.715-0.361L21.039,9.98z M17.797,9.287l1.715,0.363l-0.078-2.37l-1.721-0.358     L17.797,9.287z M14.545,8.599l1.717,0.356l-0.09-2.348l-1.727-0.355L14.545,8.599z M11.281,7.918l1.727,0.354L12.9,5.935     l-1.732-0.346L11.281,7.918z M5.811,6.806l0.807,0.163l-0.139-2.3L5.73,4.525L5.811,6.806z M8.014,7.251L9.74,7.6L9.617,5.284     L7.879,4.941L8.014,7.251z M33.892,35.153l1.776,0.492l0.008-2.455l-1.787-0.484L33.892,35.153z M30.822,34.278l1.622,0.461     l-0.014-2.441l-1.626-0.451L30.822,34.278z M27.741,33.411l1.628,0.455l-0.023-2.424l-1.635-0.451L27.741,33.411z M24.656,32.555     l1.633,0.449l-0.043-2.402l-1.639-0.445L24.656,32.555z M21.557,31.708l1.637,0.447l-0.059-2.391l-1.645-0.436L21.557,31.708z      M18.447,30.874l1.645,0.443l-0.074-2.375l-1.648-0.43L18.447,30.874z M15.328,30.051l1.648,0.432l-0.09-2.35l-1.656-0.428     L15.328,30.051z M12.197,29.239l1.656,0.428l-0.107-2.342l-1.662-0.42L12.197,29.239z M9.059,28.428l1.654,0.426l-0.121-2.322     L8.928,26.12L9.059,28.428z M6.76,27.846l0.813,0.209l-0.137-2.303l-0.738-0.166L6.76,27.846z M28.396,29.583l7.36,1.902     l0.147-16.343l-7.659-1.734L28.396,29.583z M11.547,25.354l14.799,3.811l-0.165-16.195L10.883,9.648L11.547,25.354z      M6.662,24.133l2.807,0.73L8.721,9.203L5.92,8.636L6.662,24.133z" fill="url(#XMLID_20_)"/>
<polygon fill="#6D5607" points="35.616,37.206 38.163,34.981 39.023,7.967 35.951,9.349    "/>
<polygon fill="#B18E3B" points="35.929,10.881 38.972,9.276 38.887,11.631 35.907,13.32    "/>
<polygon fill="#B18E3B" points="35.673,33.208 35.641,35.645 38.193,33.641 38.273,31.432    "/>
<polygon fill="#B18E3B" points="35.903,15.142 35.701,31.504 38.316,29.784 38.821,13.416    "/>
</g>
<g>
<linearGradient gradientTransform="matrix(1.1905 0 0 -1.1905 49.3246 135.6361)" gradientUnits="userSpaceOnUse" id="XMLID_21_" x1="-18.7061" x2="-28.921" y1="100.3403" y2="77.5437">
<stop offset="0" style="stop-color:#E6EEF4"/>
<stop offset="0.4438" style="stop-color:#2F8E9A"/>
<stop offset="0.9382" style="stop-color:#003D6D"/>
<stop offset="1" style="stop-color:#003D6D"/>
</linearGradient>
<polygon fill="url(#XMLID_21_)" points="17.1,41.743 15.506,27.352 19.861,24.829 24.485,36.518    "/>
<linearGradient gradientTransform="matrix(1.1905 0 0 1.1905 49.3246 -791.641)" gradientUnits="userSpaceOnUse" id="XMLID_22_" x1="-36.6895" x2="-30.4159" y1="682.4937" y2="698.1777">
<stop offset="0" style="stop-color:#D6E6EC"/>
<stop offset="1" style="stop-color:#298595"/>
</linearGradient>
<polygon fill="url(#XMLID_22_)" points="17.1,41.743 15.506,27.352 8.986,25.268 5.008,37.438    "/>
<linearGradient gradientTransform="matrix(1.1905 0 0 1.1905 49.3246 -791.641)" gradientUnits="userSpaceOnUse" id="XMLID_23_" x1="-32.3652" x2="-24.16" y1="685.5034" y2="687.4571">
<stop offset="0" style="stop-color:#D6E6EC"/>
<stop offset="1" style="stop-color:#298595"/>
</linearGradient>
<polygon fill="url(#XMLID_23_)" points="19.861,24.829 13.355,23.481 8.986,25.268 15.506,27.352    "/>
<path d="M12.406,25.122c0,0,0.604,0.721,2.4,0.791c1.111,0.043,4.965-1.104,4.965-1.104l-4.32-0.865     L12.406,25.122z" fill="#115B7E"/>
<radialGradient cx="-33.2163" cy="-387.5518" gradientTransform="matrix(1.1679 0 0 -1.1715 49.6168 -438.2501)" gradientUnits="userSpaceOnUse" id="XMLID_24_" r="7.093">
<stop offset="0" style="stop-color:#D6E6EC"/>
<stop offset="1" style="stop-color:#298595"/>
</radialGradient>
<ellipse cx="14.318" cy="19.632" fill="url(#XMLID_24_)" rx="5.768" ry="5.784"/>
</g>
<g>
<linearGradient gradientTransform="matrix(1.1905 0 0 -1.1905 49.3246 135.6361)" gradientUnits="userSpaceOnUse" id="XMLID_25_" x1="-17.3652" x2="-12.1806" y1="90.4448" y2="76.7821">
<stop offset="0" style="stop-color:#E6EEF4"/>
<stop offset="0.4438" style="stop-color:#575AC6"/>
<stop offset="0.9382" style="stop-color:#003D6D"/>
<stop offset="1" style="stop-color:#003D6D"/>
</linearGradient>
<polygon fill="url(#XMLID_25_)" points="30.132,41.1 28.938,30.338 32.196,28.45 35.653,37.188    "/>
<linearGradient gradientTransform="matrix(1.1905 0 0 -1.1905 49.3246 135.6361)" gradientUnits="userSpaceOnUse" id="XMLID_26_" x1="-18.481" x2="-20.9666" y1="89.6694" y2="74.2943">
<stop offset="0" style="stop-color:#E6EEF4"/>
<stop offset="0.4438" style="stop-color:#575AC6"/>
<stop offset="0.9382" style="stop-color:#003D6D"/>
<stop offset="1" style="stop-color:#003D6D"/>
</linearGradient>
<polygon fill="url(#XMLID_26_)" points="30.132,41.1 28.938,30.338 24.059,28.776 21.086,37.881    "/>
<linearGradient gradientTransform="matrix(1.1905 0 0 -1.1905 49.3246 135.6361)" gradientUnits="userSpaceOnUse" id="XMLID_27_" x1="-20.3018" x2="-15.0034" y1="89.5542" y2="89.7915">
<stop offset="0" style="stop-color:#DEE6F1"/>
<stop offset="1" style="stop-color:#7579D0"/>
</linearGradient>
<polygon fill="url(#XMLID_27_)" points="32.196,28.45 27.329,27.438 24.059,28.776 28.938,30.338    "/>
<path d="M26.65,28.667c0,0,0.449,0.539,1.793,0.592c0.831,0.035,3.714-0.824,3.714-0.824l-3.232-0.646     L26.65,28.667z" fill="#334EA2"/>
<radialGradient cx="-19.9229" cy="-393.0464" gradientTransform="matrix(1.1679 0 0 -1.1715 49.6168 -438.2501)" gradientUnits="userSpaceOnUse" id="XMLID_28_" r="8.2637">
<stop offset="0" style="stop-color:#E6EEF4"/>
<stop offset="0.4438" style="stop-color:#575AC6"/>
<stop offset="0.9382" style="stop-color:#003D6D"/>
<stop offset="1" style="stop-color:#003D6D"/>
</radialGradient>
<ellipse cx="28.051" cy="24.56" fill="url(#XMLID_28_)" rx="4.312" ry="4.326"/>
</g>
</g>
</g>
</svg>
