<?xml version="1.0" encoding="UTF-8"?>
<!DOCTYPE svg PUBLIC "-//W3C//DTD SVG 1.1 Tiny//EN" "http://www.w3.org/Graphics/SVG/1.1/DTD/svg11-tiny.dtd">
<svg width="84" height="58" viewBox="0 0 84 58">
<linearGradient id="_9" gradientUnits="userSpaceOnUse" x1="49.27" y1="29.44" x2="56.96" y2="44.59">
<stop stop-color="#A2C2DD" offset="0.1"/>
<stop stop-color="#6C83BB" offset="0.71"/>
<stop stop-color="#003D6D" offset="0.99"/>
</linearGradient>
<path fill="url(#_9)" d="M28.016,32.466c-0.059,0.096-3.234,5.724-3.885,11.824l0.581,2.733 c5.026,5.271,14.211,6.61,14.211,6.61c6.145-4.146,10.532-10.305,11.691-14.247l0.222-3.519 c-0.001-0.212-0.084-4.384-0.552-7.057c0.257-0.242,7.871-7.464,8.28-7.854c1.516,1.225,4.777,3.092,7.998,3.809l0.126,0.028 l0.115-0.058c2.244-1.111,6.331-5.773,6.726-7.353c0.336-1.352,0.443-2.307,0.357-3.194l0.018-0.059 c-0.496-5.002-3.89-8.759-3.89-8.759c-2.838-1.543-6.667-1.89-6.829-1.904l-0.091-0.007C63.095,3.462,45.149,9.982,28.016,32.466 z"/>
<linearGradient id="_10" gradientUnits="userSpaceOnUse" x1="82.89" y1="7.03" x2="52.25" y2="30.05">
<stop stop-color="#FFFFFF" offset="0"/>
<stop stop-color="#A2C2DD" offset="0.35"/>
<stop stop-color="#6C83BB" offset="0.7"/>
<stop stop-color="#003D6D" offset="1"/>
</linearGradient>
<path fill="url(#_10)" d="M73.177,13.914l-13.897,5.697l-0.892,0.854c1.341,1.162,5.46,3.314,8.076,3.903 c2.234-0.959,6.045-5.597,6.41-7.058C73.282,15.673,73.308,14.742,73.177,13.914z"/>
<linearGradient id="_11" gradientUnits="userSpaceOnUse" x1="74.52" y1="18.69" x2="53" y2="16.93">
<stop stop-color="#FFFFFF" offset="0"/>
<stop stop-color="#A2C2DD" offset="0.35"/>
<stop stop-color="#6C83BB" offset="0.7"/>
<stop stop-color="#003D6D" offset="1"/>
</linearGradient>
<path fill="url(#_11)" d="M65.029,13.046l-6.114,6.305c2.443,1.703,5.375,2.984,7.382,3.534L65.029,13.046z"/>
<linearGradient id="_12" gradientUnits="userSpaceOnUse" x1="76.39" y1="35.59" x2="17.79" y2="51.83">
<stop stop-color="#FFFFFF" offset="0"/>
<stop stop-color="#A2C2DD" offset="0.35"/>
<stop stop-color="#6C83BB" offset="0.7"/>
<stop stop-color="#003D6D" offset="1"/>
</linearGradient>
<path fill="url(#_12)" d="M50.414,35.733l-25.671,8.364l0.51,2.551c0,0,4.251,4.843,13.575,6.41 c6.236-4.171,10.26-10.251,11.345-13.942L50.414,35.733z"/>
<linearGradient id="_13" gradientUnits="userSpaceOnUse" x1="49.78" y1="58.93" x2="17.04" y2="25.24">
<stop stop-color="#FFFFFF" offset="0"/>
<stop stop-color="#A2C2DD" offset="0.35"/>
<stop stop-color="#6C83BB" offset="0.7"/>
<stop stop-color="#003D6D" offset="1"/>
</linearGradient>
<path fill="url(#_13)" d="M24.712,44.098c0.646-6.032,3.771-11.525,3.771-11.525l9.471,3.228l0.27,14.822 C30.961,49.535,27.062,46.387,24.712,44.098z"/>
<linearGradient id="_14" gradientUnits="userSpaceOnUse" x1="77.3" y1="9.25" x2="14.13" y2="34.55">
<stop stop-color="#FFFFFF" offset="0.05"/>
<stop stop-color="#A2C2DD" offset="1"/>
</linearGradient>
<path fill="url(#_14)" d="M28.483,32.572c1.431,1.355,5.297,3.82,9.32,3.466l31.848-30.14 C66.877,4.356,62.96,4.02,62.96,4.02C52.124,8.591,38.037,19.904,28.483,32.572z"/>
<linearGradient id="_15" gradientUnits="userSpaceOnUse" x1="84.56" y1="-11.94" x2="47.52" y2="35.76">
<stop stop-color="#FFFFFF" offset="0.05"/>
<stop stop-color="#A2C2DD" offset="1"/>
</linearGradient>
<path fill="url(#_15)" d="M38.224,50.622c-0.827-3.062-1.168-11.229-0.413-14.679 C46.536,23.18,59.097,11.778,69.595,5.845c0,0,2.966,3.092,3.588,8.053c-0.73,3.138-4.368,7.117-6.892,8.975 c-0.337-0.76-1.479-9.291-1.479-9.291c-2.9,3.797-7.479,7.922-14.974,15.025c0.495,2.633,0.575,7.093,0.575,7.093 C48.011,41.502,43.735,47.188,38.224,50.622z"/>
<path fill="#FFFFFF" d="M12.673,34.764c-2.913,0-6.905,0.692-7.916,6.672l-0.151,0.902c0,0,6.712,0,7.508,0 c0.241,0.432,0.601,1.077,0.826,1.49c-0.226,0.414-0.585,1.059-0.826,1.491c-0.796,0-7.508,0-7.508,0l0.151,0.901 c1.011,5.978,5.003,6.67,7.916,6.67c2.298,0,4.346-1.928,5.99-3.477c0.889-0.839,1.728-1.627,2.172-1.627h20.561l0.229-0.253 c0.44-0.485,1.465-1.813,1.488-3.674v-0.064c-0.021-1.863-1.048-3.189-1.488-3.675l-0.229-0.253h-20.56 c-0.443,0-1.284-0.788-2.171-1.623C17.019,36.694,14.972,34.764,12.673,34.764z"/>
<linearGradient id="_16" gradientUnits="userSpaceOnUse" x1="11.27" y1="29.9" x2="33.43" y2="56.57">
<stop stop-color="#E6EEF4" offset="0"/>
<stop stop-color="#9646AC" offset="0.44"/>
<stop stop-color="#3D013F" offset="0.94"/>
</linearGradient>
<path fill="url(#_16)" d="M42.342,43.828c0-0.008,0.002-0.016,0.002-0.022H42.34c-0.019-1.62-0.946-2.79-1.288-3.164 c-0.435,0-20.217,0-20.217,0c-0.753,0-1.568-0.771-2.703-1.835c-1.544-1.456-3.467-3.268-5.459-3.268 c-3.234,0-6.294,0.95-7.152,6.025c1.216,0,7.05,0,7.05,0l1.253,2.264l-1.253,2.264c0,0-5.834,0-7.05,0 c0.858,5.076,3.918,6.025,7.152,6.025c1.992,0,3.916-1.813,5.459-3.267c1.135-1.065,1.95-1.836,2.703-1.836 c0,0,19.782,0,20.217,0c0.341-0.372,1.27-1.543,1.288-3.163h0.004C42.344,43.844,42.342,43.837,42.342,43.828z"/>
</svg>