<?xml version="1.0" encoding="UTF-8" standalone="no"?>
<!DOCTYPE svg PUBLIC "-//W3C//DTD SVG 1.1 Tiny//EN" "http://www.w3.org/Graphics/SVG/1.1/DTD/svg11-tiny.dtd">
<svg xmlns="http://www.w3.org/2000/svg" xmlns:xlink="http://www.w3.org/1999/xlink" width="16" height="16" viewBox="0 0 16 16">
<rect fill="none" height="16" width="16"/>
<polygon fill="#A2C2DD" points="12.103,6.483 2.715,4.825 3.215,11.228 12.023,13.428 12.035,13.431 12.035,13.415 12.04,13.415 "/>
<polygon fill="#496DA2" points="12.136,5.913 6.63,9.393 2.676,4.363 2.676,4.363 2.715,4.825 5.567,9.15 3.215,11.212 3.686,11.334 5.949,9.728 6.596,10.706 8.063,9.58 11.24,13.228 12.035,13.439 12.023,13.428 8.729,9.071 12.103,6.483 12.035,13.431 12.035,13.439 12.04,13.434 12.05,13.428 13.108,12.652 13.34,5.219 "/>
<polygon fill="#CEE1EF" points="13.34,5.219 3.94,3.945 2.676,4.363 12.136,5.913 "/>
<polygon fill="#A2C2DD" points="12.136,5.913 2.676,4.363 2.676,4.363 6.63,9.393 "/>
<path d="M11.873,3.711L10.29,4.98l0.731,0.914l1.583-1.271L11.873,3.711z M8.536,4.701l1.16,0.151l0.262-2.019 l-1.162-0.15L8.536,4.701z" fill="#496DA2"/>
</svg>