<?xml version="1.0" encoding="UTF-8"?>
<!DOCTYPE svg PUBLIC "-//W3C//DTD SVG 1.1 Tiny//EN" "http://www.w3.org/Graphics/SVG/1.1/DTD/svg11-tiny.dtd">
<svg width="352" height="416" viewBox="-7 0 352 416">
<rect x="-7" fill="#CFECFF" width="351.999" height="416"/>
<linearGradient id="_42" gradientUnits="userSpaceOnUse" x1="122.52" y1="235.24" x2="333.57" y2="111.53">
<stop stop-color="#DEE8EC" offset="0"/>
<stop stop-color="#707A87" offset="1"/>
</linearGradient>
<rect x="-7" fill-opacity="0.5" fill="url(#_42)" width="352" height="416"/>
<linearGradient id="_43" gradientUnits="userSpaceOnUse" x1="-6.52" y1="352.56" x2="344.51" y2="352.56">
<stop stop-color="#CADCEC" offset="0"/>
<stop stop-color="#87A8CB" offset="1"/>
</linearGradient>
<path fill="url(#_43)" d="M344.512,416H-6.516v-85.639c163.029,0,177.656,74.816,351.027-41.242V416z"/>
<path fill="#FFFFFF" fill-opacity="0.5" d="M344.999,416H-7v-61.657C312.924,354.343,198.521,0,344.999,0V416z"/>
<radialGradient id="_44" gradientUnits="userSpaceOnUse" cx="273.46" cy="297.67" r="12.89">
<stop stop-color="#CADCEC" offset="0"/>
<stop stop-color="#87A8CB" offset="1"/>
</radialGradient>
<ellipse fill="url(#_44)" fill-opacity="0.3" cx="273.463" cy="297.671" rx="10.277" ry="12.722"/>
<radialGradient id="_45" gradientUnits="userSpaceOnUse" cx="294.02" cy="263.32" r="12.89">
<stop stop-color="#CADCEC" offset="0"/>
<stop stop-color="#87A8CB" offset="1"/>
</radialGradient>
<ellipse fill="url(#_45)" fill-opacity="0.3" cx="294.018" cy="263.318" rx="10.275" ry="12.723"/>
<radialGradient id="_46" gradientUnits="userSpaceOnUse" cx="308.4" cy="222.61" r="12.89">
<stop stop-color="#CADCEC" offset="0"/>
<stop stop-color="#87A8CB" offset="1"/>
</radialGradient>
<ellipse fill="url(#_46)" fill-opacity="0.3" cx="308.403" cy="222.606" rx="10.276" ry="12.724"/>
<radialGradient id="_47" gradientUnits="userSpaceOnUse" cx="310.46" cy="180.62" r="12.89">
<stop stop-color="#CADCEC" offset="0"/>
<stop stop-color="#87A8CB" offset="1"/>
</radialGradient>
<ellipse fill="url(#_47)" fill-opacity="0.3" cx="310.459" cy="180.621" rx="10.277" ry="12.723"/>
<radialGradient id="_48" gradientUnits="userSpaceOnUse" cx="305.32" cy="138.64" r="12.89">
<stop stop-color="#CADCEC" offset="0"/>
<stop stop-color="#87A8CB" offset="1"/>
</radialGradient>
<path fill="url(#_48)" fill-opacity="0.3" d="M315.598,138.635c0-7.026-4.602-12.721-10.274-12.721 c-5.679,0-10.279,5.692-10.279,12.721s4.603,12.724,10.279,12.724C310.997,151.356,315.598,145.663,315.598,138.635z"/>
<radialGradient id="_49" gradientUnits="userSpaceOnUse" cx="260.11" cy="262.05" r="12.9">
<stop stop-color="#CADCEC" offset="0"/>
<stop stop-color="#87A8CB" offset="1"/>
</radialGradient>
<ellipse fill="url(#_49)" fill-opacity="0.3" cx="260.105" cy="262.049" rx="10.277" ry="12.727"/>
<radialGradient id="_50" gradientUnits="userSpaceOnUse" cx="275.52" cy="226.43" r="12.89">
<stop stop-color="#CADCEC" offset="0"/>
<stop stop-color="#87A8CB" offset="1"/>
</radialGradient>
<ellipse fill="url(#_50)" fill-opacity="0.3" cx="275.52" cy="226.424" rx="10.274" ry="12.725"/>
<radialGradient id="_51" gradientUnits="userSpaceOnUse" cx="282.71" cy="185.71" r="12.9">
<stop stop-color="#CADCEC" offset="0"/>
<stop stop-color="#87A8CB" offset="1"/>
</radialGradient>
<ellipse fill="url(#_51)" fill-opacity="0.3" cx="282.713" cy="185.711" rx="10.277" ry="12.726"/>
<radialGradient id="_52" gradientUnits="userSpaceOnUse" cx="273.46" cy="147.54" r="12.89">
<stop stop-color="#CADCEC" offset="0"/>
<stop stop-color="#87A8CB" offset="1"/>
</radialGradient>
<ellipse fill="url(#_52)" fill-opacity="0.3" cx="273.463" cy="147.542" rx="10.277" ry="12.725"/>
<radialGradient id="_53" gradientUnits="userSpaceOnUse" cx="253.94" cy="120.82" r="12.89">
<stop stop-color="#CADCEC" offset="0"/>
<stop stop-color="#87A8CB" offset="1"/>
</radialGradient>
<path fill="url(#_53)" fill-opacity="0.3" d="M264.215,120.822c0-7.028-4.6-12.722-10.277-12.722 c-5.674,0-10.274,5.692-10.274,12.722c0,7.026,4.601,12.723,10.274,12.723C259.616,133.545,264.215,127.851,264.215,120.822z"/>
<radialGradient id="_54" gradientUnits="userSpaceOnUse" cx="241.61" cy="226.43" r="12.89">
<stop stop-color="#CADCEC" offset="0"/>
<stop stop-color="#87A8CB" offset="1"/>
</radialGradient>
<ellipse fill="url(#_54)" fill-opacity="0.3" cx="241.607" cy="226.424" rx="10.275" ry="12.725"/>
<radialGradient id="_55" gradientUnits="userSpaceOnUse" cx="254.97" cy="189.53" r="12.89">
<stop stop-color="#CADCEC" offset="0"/>
<stop stop-color="#87A8CB" offset="1"/>
</radialGradient>
<ellipse fill="url(#_55)" fill-opacity="0.3" cx="254.967" cy="189.527" rx="10.276" ry="12.725"/>
<radialGradient id="_56" gradientUnits="userSpaceOnUse" cx="242.64" cy="158.99" r="12.89">
<stop stop-color="#CADCEC" offset="0"/>
<stop stop-color="#87A8CB" offset="1"/>
</radialGradient>
<ellipse fill="url(#_56)" fill-opacity="0.3" cx="242.637" cy="158.993" rx="10.276" ry="12.723"/>
<radialGradient id="_57" gradientUnits="userSpaceOnUse" cx="283.74" cy="106.83" r="12.89">
<stop stop-color="#CADCEC" offset="0"/>
<stop stop-color="#87A8CB" offset="1"/>
</radialGradient>
<path fill="url(#_57)" fill-opacity="0.3" d="M294.016,106.829c0-7.025-4.598-12.725-10.274-12.725 s-10.275,5.699-10.275,12.725c0,7.027,4.601,12.722,10.275,12.722C289.418,119.551,294.016,113.854,294.016,106.829z"/>
<radialGradient id="_58" gradientUnits="userSpaceOnUse" cx="254.97" cy="86.47" r="12.89">
<stop stop-color="#CADCEC" offset="0"/>
<stop stop-color="#87A8CB" offset="1"/>
</radialGradient>
<path fill="url(#_58)" fill-opacity="0.3" d="M265.244,86.474c0-7.031-4.602-12.724-10.277-12.724 c-5.675,0-10.275,5.692-10.275,12.724c0,7.025,4.602,12.721,10.275,12.721C260.643,99.194,265.244,93.499,265.244,86.474z"/>
<radialGradient id="_59" gradientUnits="userSpaceOnUse" cx="224.14" cy="75.02" r="12.89">
<stop stop-color="#CADCEC" offset="0"/>
<stop stop-color="#87A8CB" offset="1"/>
</radialGradient>
<ellipse fill="url(#_59)" fill-opacity="0.3" cx="224.139" cy="75.02" rx="10.277" ry="12.721"/>
<radialGradient id="_60" gradientUnits="userSpaceOnUse" cx="157.5" cy="300.56" r="12.9">
<stop stop-color="#CADCEC" offset="0"/>
<stop stop-color="#87A8CB" offset="1"/>
</radialGradient>
<path fill="url(#_60)" fill-opacity="0.3" d="M147.896,305.093c-2.021-6.569,0.637-13.922,5.938-16.422 c5.302-2.505,11.244,0.786,13.267,7.349c2.021,6.565-0.635,13.92-5.938,16.424C155.859,314.949,149.922,311.658,147.896,305.093z"/>
<radialGradient id="_61" gradientUnits="userSpaceOnUse" cx="150.21" cy="259.06" r="12.9">
<stop stop-color="#CADCEC" offset="0"/>
<stop stop-color="#87A8CB" offset="1"/>
</radialGradient>
<path fill="url(#_61)" fill-opacity="0.3" d="M140.609,263.6c-2.022-6.569,0.636-13.92,5.938-16.424 c5.303-2.505,11.241,0.782,13.264,7.354c2.024,6.561-0.631,13.913-5.937,16.419C148.573,273.453,142.632,270.162,140.609,263.6z"/>
<radialGradient id="_62" gradientUnits="userSpaceOnUse" cx="203.33" cy="327.93" r="12.9">
<stop stop-color="#CADCEC" offset="0"/>
<stop stop-color="#87A8CB" offset="1"/>
</radialGradient>
<path fill="url(#_62)" fill-opacity="0.3" d="M193.73,332.461c-2.022-6.561,0.636-13.914,5.94-16.419 c5.302-2.503,11.237,0.786,13.263,7.353c2.022,6.565-0.636,13.916-5.938,16.422C201.693,342.316,195.755,339.029,193.73,332.461z"/>
<radialGradient id="_63" gradientUnits="userSpaceOnUse" cx="184.89" cy="293.06" r="12.9">
<stop stop-color="#CADCEC" offset="0"/>
<stop stop-color="#87A8CB" offset="1"/>
</radialGradient>
<path fill="url(#_63)" fill-opacity="0.3" d="M175.288,297.604c-2.024-6.57,0.633-13.918,5.938-16.427 c5.301-2.505,11.24,0.787,13.267,7.355c2.021,6.562-0.638,13.913-5.938,16.419C183.251,307.456,177.313,304.168,175.288,297.604z"/>
<radialGradient id="_64" gradientUnits="userSpaceOnUse" cx="182.54" cy="253.33" r="12.9">
<stop stop-color="#CADCEC" offset="0"/>
<stop stop-color="#87A8CB" offset="1"/>
</radialGradient>
<path fill="url(#_64)" fill-opacity="0.3" d="M172.939,257.859c-2.025-6.566,0.633-13.92,5.938-16.422 c5.303-2.508,11.24,0.785,13.264,7.35c2.024,6.564-0.634,13.914-5.937,16.423C180.898,267.717,174.964,264.423,172.939,257.859z"/>
<radialGradient id="_65" gradientUnits="userSpaceOnUse" cx="193.09" cy="219.74" r="12.9">
<stop stop-color="#CADCEC" offset="0"/>
<stop stop-color="#87A8CB" offset="1"/>
</radialGradient>
<path fill="url(#_65)" fill-opacity="0.3" d="M183.488,224.277c-2.024-6.564,0.634-13.916,5.937-16.423 c5.306-2.506,11.244,0.786,13.267,7.352c2.022,6.567-0.635,13.919-5.938,16.423C191.45,234.135,185.512,230.845,183.488,224.277z"/>
<radialGradient id="_66" gradientUnits="userSpaceOnUse" cx="235.02" cy="312.96" r="12.9">
<stop stop-color="#CADCEC" offset="0"/>
<stop stop-color="#87A8CB" offset="1"/>
</radialGradient>
<path fill="url(#_66)" fill-opacity="0.3" d="M225.415,317.496c-2.021-6.563,0.637-13.916,5.938-16.421 c5.306-2.507,11.242,0.786,13.267,7.35c2.021,6.567-0.638,13.919-5.938,16.425C233.375,327.354,227.438,324.063,225.415,317.496z"/>
<radialGradient id="_67" gradientUnits="userSpaceOnUse" cx="211.91" cy="284.39" r="12.9">
<stop stop-color="#CADCEC" offset="0"/>
<stop stop-color="#87A8CB" offset="1"/>
</radialGradient>
<path fill="url(#_67)" fill-opacity="0.3" d="M202.309,288.921c-2.021-6.567,0.633-13.915,5.941-16.424 c5.303-2.505,11.238,0.782,13.26,7.354c2.025,6.563-0.633,13.916-5.936,16.42C210.27,298.779,204.333,295.489,202.309,288.921z"/>
<radialGradient id="_68" gradientUnits="userSpaceOnUse" cx="214.64" cy="250.42" r="12.9">
<stop stop-color="#CADCEC" offset="0"/>
<stop stop-color="#87A8CB" offset="1"/>
</radialGradient>
<path fill="url(#_68)" fill-opacity="0.3" d="M205.04,254.95c-2.022-6.565,0.636-13.919,5.938-16.421 c5.303-2.508,11.244,0.781,13.267,7.354c2.021,6.563-0.636,13.912-5.938,16.421C213,264.807,207.061,261.518,205.04,254.95z"/>
<radialGradient id="_69" gradientUnits="userSpaceOnUse" cx="161.22" cy="219.82" r="12.9">
<stop stop-color="#CADCEC" offset="0"/>
<stop stop-color="#87A8CB" offset="1"/>
</radialGradient>
<path fill="url(#_69)" fill-opacity="0.3" d="M151.615,224.355c-2.025-6.564,0.636-13.918,5.938-16.425 c5.303-2.503,11.24,0.786,13.264,7.354c2.024,6.566-0.637,13.916-5.938,16.423C159.576,234.211,153.637,230.921,151.615,224.355z"/>
<radialGradient id="_70" gradientUnits="userSpaceOnUse" cx="182.24" cy="188.1" r="12.9">
<stop stop-color="#CADCEC" offset="0"/>
<stop stop-color="#87A8CB" offset="1"/>
</radialGradient>
<path fill="url(#_70)" fill-opacity="0.3" d="M172.639,192.642c-2.025-6.57,0.633-13.924,5.938-16.427 c5.303-2.508,11.236,0.787,13.263,7.353c2.024,6.564-0.633,13.914-5.938,16.422C180.596,202.494,174.661,199.203,172.639,192.642z"/>
<radialGradient id="_71" gradientUnits="userSpaceOnUse" cx="207.75" cy="163.8" r="12.9">
<stop stop-color="#CADCEC" offset="0"/>
<stop stop-color="#87A8CB" offset="1"/>
</radialGradient>
<path fill="url(#_71)" fill-opacity="0.3" d="M198.145,168.333c-2.024-6.566,0.633-13.919,5.938-16.424 c5.304-2.503,11.24,0.785,13.265,7.353c2.024,6.563-0.635,13.916-5.937,16.425C206.105,178.188,200.167,174.897,198.145,168.333z"/>
<linearGradient id="_72" gradientUnits="userSpaceOnUse" x1="213.18" y1="275.75" x2="323.68" y2="275.75">
<stop stop-color="#CADCEC" offset="0"/>
<stop stop-color="#87A8CB" offset="1"/>
</linearGradient>
<path fill="url(#_72)" fill-opacity="0.6" d="M268.432,219.199c-30.461,0-55.248,25.367-55.248,56.547 s24.787,56.546,55.248,56.546c30.465,0,55.252-25.366,55.252-56.546S298.896,219.199,268.432,219.199z"/>
<linearGradient id="_73" gradientUnits="userSpaceOnUse" x1="268.43" y1="246.43" x2="268.43" y2="313.67">
<stop stop-color="#CADCEC" offset="0"/>
<stop stop-color="#87A8CB" offset="1"/>
</linearGradient>
<path fill="url(#_73)" fill-opacity="0.6" d="M268.432,241.707c-18.339,0-33.258,15.27-33.258,34.039 s14.919,34.04,33.258,34.04c18.34,0,33.265-15.271,33.265-34.04S286.771,241.707,268.432,241.707z"/>
<linearGradient id="_74" gradientUnits="userSpaceOnUse" x1="159.22" y1="356.38" x2="239.31" y2="356.38">
<stop stop-color="#87A8CB" offset="0"/>
<stop stop-color="#235487" offset="1"/>
</linearGradient>
<path fill="url(#_74)" fill-opacity="0.6" d="M199.268,315.398c-22.08,0-40.045,18.383-40.045,40.983 c0,22.599,17.965,40.985,40.045,40.985s40.047-18.387,40.047-40.985C239.314,333.781,221.348,315.398,199.268,315.398z"/>
<linearGradient id="_75" gradientUnits="userSpaceOnUse" x1="199.27" y1="335.14" x2="199.27" y2="383.87">
<stop stop-color="#87A8CB" offset="0"/>
<stop stop-color="#235487" offset="1"/>
</linearGradient>
<path fill="url(#_75)" fill-opacity="0.6" d="M199.268,331.712c-13.293,0-24.105,11.065-24.105,24.671 s10.813,24.676,24.105,24.676c13.291,0,24.107-11.07,24.107-24.676S212.559,331.712,199.268,331.712z"/>
<linearGradient id="_76" gradientUnits="userSpaceOnUse" x1="14.45" y1="336.11" x2="124.95" y2="336.11">
<stop stop-color="#CADCEC" offset="0"/>
<stop stop-color="#87A8CB" offset="1"/>
</linearGradient>
<path fill="url(#_76)" fill-opacity="0.6" d="M69.697,279.561c-30.463,0-55.249,25.365-55.249,56.545 c0,31.181,24.786,56.55,55.249,56.55c30.464,0,55.251-25.369,55.251-56.55C124.948,304.926,100.162,279.561,69.697,279.561z"/>
<linearGradient id="_77" gradientUnits="userSpaceOnUse" x1="69.7" y1="306.79" x2="69.7" y2="374.03">
<stop stop-color="#CADCEC" offset="0"/>
<stop stop-color="#87A8CB" offset="1"/>
</linearGradient>
<path fill="url(#_77)" fill-opacity="0.6" d="M69.697,302.064c-18.34,0-33.26,15.271-33.26,34.041 c0,18.771,14.92,34.043,33.26,34.043c18.341,0,33.26-15.272,33.26-34.043C102.958,317.337,88.039,302.064,69.697,302.064z"/>
<linearGradient id="_78" gradientUnits="userSpaceOnUse" x1="353.46" y1="408.5" x2="177.32" y2="230.36">
<stop stop-color="#DEE6F1" offset="0"/>
<stop stop-color="#7579D0" offset="1"/>
</linearGradient>
<path fill="url(#_78)" fill-opacity="0.5" d="M159.639,383.307c60.202,33.172,135.276,10.178,167.735-51.369 c32.432-61.557,9.943-138.319-50.263-171.491c-60.2-33.172-135.295-10.17-167.74,51.372 C76.925,273.376,99.432,350.154,159.639,383.307z M183.279,338.453c-35.959-19.809-49.401-65.682-30.022-102.447 c19.386-36.778,64.241-50.532,100.216-30.705c35.954,19.809,49.401,65.688,30.022,102.452 C264.126,344.521,219.232,358.266,183.279,338.453z"/>
<path fill="#C0C6E8" fill-opacity="0.5" d="M183.279,338.453c35.953,19.813,80.848,6.068,100.216-30.7 c19.379-36.764,5.932-82.646-30.022-102.452c-35.975-19.827-80.83-6.073-100.216,30.705 C133.877,272.771,147.32,318.646,183.279,338.453z M189.122,327.354c-29.976-16.518-41.173-54.729-25.006-85.381 c16.149-30.641,53.521-42.083,83.493-25.57c29.976,16.512,41.189,54.732,25.033,85.371 C256.491,332.415,219.104,343.875,189.122,327.354z"/>
<linearGradient id="_79" gradientUnits="userSpaceOnUse" x1="-3.46" y1="262.1" x2="124.35" y2="262.1">
<stop stop-color="#D6E6EC" offset="0"/>
<stop stop-color="#298595" offset="1"/>
</linearGradient>
<path fill="url(#_79)" fill-opacity="0.6" d="M15.256,309.131c24.957,29.077,65.415,29.077,90.371,0.001 c24.958-29.083,24.958-76.229,0.003-105.308c-3.522-4.108-7.368-7.613-11.424-10.562c-24.302,19.911-53.597,33.591-93.009,35.257 C-8.13,255.396-3.447,287.336,15.256,309.131z M55.043,232.084c13.584-15.827,35.605-15.827,49.188,0 c13.588,15.83,13.588,41.493,0.004,57.322c-13.584,15.826-35.606,15.828-49.191-0.004 C41.461,273.575,41.461,247.914,55.043,232.084z"/>
<linearGradient id="_80" gradientUnits="userSpaceOnUse" x1="169" y1="10.63" x2="169" y2="511.61">
<stop stop-color="#FFFFFF" offset="0"/>
<stop stop-color="#B3DDFF" offset="1"/>
</linearGradient>
<path fill="url(#_80)" d="M-7,0v228.691c2.779,0,5.514-0.06,8.197-0.172c39.414-1.666,68.707-15.346,93.009-35.257 C172.575,129.047,198.975,0,344.999,0H-7z"/>
<linearGradient id="_81" gradientUnits="userSpaceOnUse" x1="246.09" y1="137.72" x2="246.09" y2="249.27">
<stop stop-color="#87A8CB" offset="0"/>
<stop stop-color="#235487" offset="1"/>
</linearGradient>
<path fill="url(#_81)" fill-opacity="0.4" d="M246.098,133.074c-30.813,0-55.877,26.698-55.877,59.518 s25.064,59.52,55.877,59.52c30.808,0,55.869-26.699,55.869-59.52C301.967,159.772,276.904,133.074,246.098,133.074z M246.098,240.268c-24.68,0-44.754-21.387-44.754-47.676c0-26.286,20.074-47.672,44.754-47.672 c24.674,0,44.752,21.386,44.752,47.672C290.85,218.881,270.771,240.268,246.098,240.268z"/>
<path fill="url(#_81)" fill-opacity="0.4" d="M246.098,156.762c-18.549,0-33.637,16.074-33.637,35.83 c0,19.758,15.088,35.83,33.637,35.83c18.545,0,33.635-16.072,33.635-35.83C279.732,172.836,264.643,156.762,246.098,156.762z M246.098,210.654c-9.367,0-16.959-8.087-16.959-18.063c0-9.976,7.592-18.063,16.959-18.063c9.363,0,16.954,8.087,16.954,18.063 C263.052,202.567,255.461,210.654,246.098,210.654z"/>
</svg>