<?xml version="1.0" encoding="UTF-8"?>
<!DOCTYPE svg PUBLIC "-//W3C//DTD SVG 1.1 Tiny//EN" "http://www.w3.org/Graphics/SVG/1.1/DTD/svg11-tiny.dtd">
<svg width="44" height="44" viewBox="0 0 44 44">
<linearGradient id="_4" gradientUnits="userSpaceOnUse" x1="6.21" y1="10.58" x2="17.5" y2="34.87">
<stop stop-color="#FFFFFF" offset="0"/>
<stop stop-color="#E0EAF3" offset="0.11"/>
<stop stop-color="#A2C2DD" offset="0.35"/>
<stop stop-color="#8CA9CF" offset="0.48"/>
<stop stop-color="#6C83BB" offset="0.7"/>
<stop stop-color="#637DB5" offset="0.75"/>
<stop stop-color="#4C6EA4" offset="0.82"/>
<stop stop-color="#265689" offset="0.91"/>
<stop stop-color="#003D6D" offset="0.99"/>
</linearGradient>
<path d="M13.401,14.297l0.521,1.009c-1.138,0.883-2.343,2.281-2.091,3.531 c0.277,1.387,1.282,2.271,3.428,4.54c2.559,2.709,3.811,3.665,4.122,6.179c0.379,3.026-1.13,5.296-6.553,6.936l-0.559-1.008 c2.316-1.011,3.695-2.658,3.548-4.036c-0.188-1.766-1.583-2.751-4.094-5.549c-2.715-3.026-3.299-4.035-3.391-6.052 C8.212,17.198,10.393,15.559,13.401,14.297z" fill="url(#_4)"/>
<linearGradient id="_5" gradientUnits="userSpaceOnUse" x1="15.49" y1="12.02" x2="25.68" y2="33.93">
<stop stop-color="#FFFFFF" offset="0"/>
<stop stop-color="#E0EAF3" offset="0.11"/>
<stop stop-color="#A2C2DD" offset="0.35"/>
<stop stop-color="#8CA9CF" offset="0.48"/>
<stop stop-color="#6C83BB" offset="0.7"/>
<stop stop-color="#637DB5" offset="0.75"/>
<stop stop-color="#4C6EA4" offset="0.82"/>
<stop stop-color="#265689" offset="0.91"/>
<stop stop-color="#003D6D" offset="0.99"/>
</linearGradient>
<path d="M22.127,15.306l0.497,1.01c-1.072,0.883-1.793,2.144-1.608,3.404 c0.146,1.009,1.425,1.995,3.205,3.783c2.015,2.018,2.991,3.536,3.156,5.044c0.358,3.278-0.963,5.296-6.045,6.937l-0.53-1.011 c2.179-1.008,3.371-2.657,3.23-4.034c-0.143-1.388-1.328-2.522-3.139-4.54c-2.467-2.751-3.188-3.404-3.263-5.044 C17.51,18.207,19.3,16.567,22.127,15.306z" fill="url(#_5)"/>
<linearGradient id="_6" gradientUnits="userSpaceOnUse" x1="24.35" y1="13.46" x2="33.49" y2="33.12">
<stop stop-color="#FFFFFF" offset="0"/>
<stop stop-color="#E0EAF3" offset="0.11"/>
<stop stop-color="#A2C2DD" offset="0.35"/>
<stop stop-color="#8CA9CF" offset="0.48"/>
<stop stop-color="#6C83BB" offset="0.7"/>
<stop stop-color="#637DB5" offset="0.75"/>
<stop stop-color="#4C6EA4" offset="0.82"/>
<stop stop-color="#265689" offset="0.91"/>
<stop stop-color="#003D6D" offset="0.99"/>
</linearGradient>
<path d="M32.286,23.377c-1.271-1.323-2.276-2.282-2.441-2.9c-0.115-0.443-0.081-1.013,0.11-1.583 l-0.799,0.353l-0.744-1.68c-1.288,1.003-1.922,2.229-1.687,4.044c0.148,1.135,1.569,2.774,2.887,4.287 c1.319,1.514,2.248,2.267,2.368,3.404c0.172,1.64-0.508,3.153-2.576,4.162l0.505,1.008c4.811-2.017,5.488-4.034,5.186-6.43 C34.841,26.031,33.497,24.638,32.286,23.377z" fill="url(#_6)"/>
<rect fill="#496DA2" height="3.406" transform="matrix(0.3794 -0.9252 0.9252 0.3794 7.5356 30.5224)" width="5.925" x="23.559" y="7.941"/>
<path d="M33.952,11.768l-5.409,2.39l1.144,2.583c0.265-0.144,0.539-0.286,0.835-0.424l0.269,0.57l4.538-2.006 L33.952,11.768z" fill="#496DA2"/>
<path d="M29.687,16.74l0.234,0.53l0.869-0.384l-0.269-0.57C30.226,16.454,29.951,16.596,29.687,16.74z" fill="#496DA2"/>
</svg>