<?xml version="1.0" encoding="UTF-8"?>
<!DOCTYPE svg PUBLIC "-//W3C//DTD SVG 1.1 Tiny//EN" "http://www.w3.org/Graphics/SVG/1.1/DTD/svg11-tiny.dtd">
<svg baseProfile="tiny" height="36px" version="1.1" viewBox="-3.301 -7.665 42 36" width="42px" x="0px" xmlns="http://www.w3.org/2000/svg" xmlns:xlink="http://www.w3.org/1999/xlink" y="0px">
<linearGradient gradientTransform="matrix(1 0 0 -1 0 19.6699)" gradientUnits="userSpaceOnUse" id="SVGID_1_" x1="17.9126" x2="17.9126" y1="1.4004" y2="-4.9256">
<stop offset="0" style="stop-color:#AABBD7"/>
<stop offset="0.2634" style="stop-color:#92A5CC"/>
<stop offset="0.7135" style="stop-color:#6C83BB"/>
<stop offset="0.7571" style="stop-color:#637DB5"/>
<stop offset="0.8268" style="stop-color:#4C6EA4"/>
<stop offset="0.9134" style="stop-color:#265689"/>
<stop offset="0.9888" style="stop-color:#003D6D"/>
<stop offset="1" style="stop-color:#003D6D"/>
</linearGradient>
<path d="M10.586,0L0,11.746L0.269,13.1c0,0,13.63,6.072,13.771,6.135c0.092,0.123,4.55,6.101,4.55,6.101  c2.941-0.297,5.611-1.436,9.14-5.985c3.343-4.313,5.299-4.883,7.85-5.183l0.247-1.169L30.357,9.98l0.725-1.117l0.438-2.439L10.586,0  z" fill="url(#SVGID_1_)"/>
<linearGradient gradientTransform="matrix(1 0 0 -1 0 19.6699)" gradientUnits="userSpaceOnUse" id="SVGID_2_" x1="24.8926" x2="27.0684" y1="6.4673" y2="4.6542">
<stop offset="0" style="stop-color:#FFFFFF"/>
<stop offset="0.0527" style="stop-color:#ECF0F6"/>
<stop offset="0.1975" style="stop-color:#BCCAE0"/>
<stop offset="0.2697" style="stop-color:#AABBD7"/>
<stop offset="0.4226" style="stop-color:#95A8CE"/>
<stop offset="0.6685" style="stop-color:#6C83BB"/>
<stop offset="0.9551" style="stop-color:#003D6D"/>
<stop offset="1" style="stop-color:#003D6D"/>
</linearGradient>
<polygon fill="url(#SVGID_2_)" points="31.148,6.649 21.789,20.62 21.91,22.485 30.8,8.769 "/>
<linearGradient gradientTransform="matrix(1 0 0 -1 0 19.6699)" gradientUnits="userSpaceOnUse" id="SVGID_3_" x1="11.7593" x2="10.684" y1="3.9849" y2="1.5272">
<stop offset="0" style="stop-color:#FFFFFF"/>
<stop offset="0.0527" style="stop-color:#ECF0F6"/>
<stop offset="0.1975" style="stop-color:#BCCAE0"/>
<stop offset="0.2697" style="stop-color:#AABBD7"/>
<stop offset="0.4226" style="stop-color:#95A8CE"/>
<stop offset="0.6685" style="stop-color:#6C83BB"/>
<stop offset="0.9551" style="stop-color:#003D6D"/>
<stop offset="1" style="stop-color:#003D6D"/>
</linearGradient>
<polygon fill="url(#SVGID_3_)" points="21.82,20.601 0.32,11.84 0.532,12.907 21.926,22.438 "/>
<linearGradient gradientTransform="matrix(1 0 0 -1 0 19.6699)" gradientUnits="userSpaceOnUse" id="SVGID_4_" x1="-3.8149" x2="20.276" y1="25.623" y2="6.9017">
<stop offset="0" style="stop-color:#FFFFFF"/>
<stop offset="0.1894" style="stop-color:#F4F8FB"/>
<stop offset="0.5232" style="stop-color:#D6E4F0"/>
<stop offset="0.9595" style="stop-color:#A7C5DF"/>
<stop offset="1" style="stop-color:#A2C2DD"/>
</linearGradient>
<polygon fill="url(#SVGID_4_)" points="10.681,0.359 0.317,11.85 21.817,20.603 31.181,6.649 "/>
<linearGradient gradientTransform="matrix(1 0 0 -1 0 19.6699)" gradientUnits="userSpaceOnUse" id="SVGID_5_" x1="19.5703" x2="11.5887" y1="1.7368" y2="19.5866">
<stop offset="0" style="stop-color:#FFFFFF"/>
<stop offset="0.1894" style="stop-color:#F4F8FB"/>
<stop offset="0.5232" style="stop-color:#D6E4F0"/>
<stop offset="0.9595" style="stop-color:#A7C5DF"/>
<stop offset="1" style="stop-color:#A2C2DD"/>
</linearGradient>
<polygon fill="url(#SVGID_5_)" points="21.396,19.313 1.989,11.525 10.995,1.398 29.514,7.262 "/>
<linearGradient gradientTransform="matrix(0.9649 0.139 0.243 -1.0014 -36.1402 76.7146)" gradientUnits="userSpaceOnUse" id="SVGID_6_" x1="39.0479" x2="31.9728" y1="55.4658" y2="67.5007">
<stop offset="0" style="stop-color:#FFFFFF"/>
<stop offset="0.0746" style="stop-color:#E4EDF5"/>
<stop offset="0.2198" style="stop-color:#B4CEE4"/>
<stop offset="0.2921" style="stop-color:#A2C2DD"/>
<stop offset="0.4282" style="stop-color:#8CA9CF"/>
<stop offset="0.6517" style="stop-color:#6C83BB"/>
<stop offset="0.7051" style="stop-color:#637DB5"/>
<stop offset="0.7905" style="stop-color:#4C6EA4"/>
<stop offset="0.8965" style="stop-color:#265689"/>
<stop offset="0.9888" style="stop-color:#003D6D"/>
<stop offset="1" style="stop-color:#003D6D"/>
</linearGradient>
<polygon fill="url(#SVGID_6_)" points="3.403,9.989 19.448,17.386 21.379,19.339 1.971,11.547 "/>
<path d="M8.148,4.593c2.262,1.877,7.641,2.691,7.641,2.691l1.991-1.91c0.667-2.007-2.346-2.171-3.479-1.526  c-0.699-1.355-3.044-0.709-3.175-0.195c-0.299-0.243-0.882-0.507-1.577-0.612L8.148,4.593z" fill="#FFFFFF"/>
<path d="M8.622,12.498l10.267,1.532c-4.244,3.917-11.756-0.792-12.035-1.377L8.622,12.498z" fill="#298595"/>
<linearGradient gradientTransform="matrix(0.9527 0.1848 0.2869 -0.9939 35.7005 60.7135)" gradientUnits="userSpaceOnUse" id="SVGID_7_" x1="-42.8896" x2="-41.3014" y1="41.5547" y2="40.5863">
<stop offset="0" style="stop-color:#D6E6EC"/>
<stop offset="1" style="stop-color:#298595"/>
</linearGradient>
<path d="M7.223,10.845l1.399,1.653c-0.27,0.19-1.011,0.54-1.593,0.365c-0.544-0.483-0.442-1.137-0.442-1.137  S6.8,11.214,7.223,10.845z" fill="url(#SVGID_7_)"/>
<path d="M7.214,10.851l1.378,1.677c0.926,0.416,6.542,3.35,10.296,1.504C16.909,13.229,9.089,10.963,7.214,10.851z" fill="#BFDAE1"/>
<path d="M8.966,12.376l-1.05-1.243c1.5,0.167,8.779,2.19,10.462,2.874C15.439,15.103,10.981,13.331,8.966,12.376z" fill="#115B7E"/>
<polygon fill="#BFDAE1" points="10.97,12.081 11.934,13.578 13.261,13.953 12.174,12.37 "/>
<polygon fill="#2F8E9A" points="10.881,12.242 11.634,13.466 11.934,13.578 10.971,12.079 "/>
<linearGradient gradientTransform="matrix(0.9649 0.139 0.243 -1.0014 -36.1402 76.7146)" gradientUnits="userSpaceOnUse" id="SVGID_8_" x1="36.4248" x2="25.3936" y1="73.1387" y2="71.4577">
<stop offset="0" style="stop-color:#2B98A0"/>
<stop offset="1" style="stop-color:#0A4A60"/>
</linearGradient>
<polygon fill="url(#SVGID_8_)" points="12.096,12.706 19.313,4.397 8.065,9.743 "/>
<polygon fill="#2F8E9A" points="12.484,13.349 18.088,6.072 16.25,13.83 "/>
<linearGradient gradientTransform="matrix(1 0 0 -1 0 19.6699)" gradientUnits="userSpaceOnUse" id="SVGID_9_" x1="27.0264" x2="22.3822" y1="15.4961" y2="-2.4999">
<stop offset="0" style="stop-color:#FFFFFF"/>
<stop offset="0.0527" style="stop-color:#ECF0F6"/>
<stop offset="0.1975" style="stop-color:#BCCAE0"/>
<stop offset="0.2697" style="stop-color:#AABBD7"/>
<stop offset="0.4226" style="stop-color:#95A8CE"/>
<stop offset="0.6685" style="stop-color:#6C83BB"/>
<stop offset="0.9551" style="stop-color:#003D6D"/>
<stop offset="1" style="stop-color:#003D6D"/>
</linearGradient>
<path d="M12.99,16.781c7.076-0.759,7.206-7.768,13.971-8.307l8.53,4.683  c-8.585,1.146-7.875,9.779-16.59,11.005L12.99,16.781z" fill="url(#SVGID_9_)"/>
<linearGradient gradientTransform="matrix(1 0 0 -1 0 19.6699)" gradientUnits="userSpaceOnUse" id="SVGID_10_" x1="17.8721" x2="25.2083" y1="-0.834" y2="8.8802">
<stop offset="0" style="stop-color:#D6E4F3"/>
<stop offset="1" style="stop-color:#0D4D8C"/>
</linearGradient>
<path d="M14.183,18.295c1.078-0.068,3.733-0.55,6.012-3.14l4.18,3.833c-1.573,1.967-4.286,3.554-6.66,3.756  L14.183,18.295z" fill="url(#SVGID_10_)"/>
<linearGradient gradientTransform="matrix(1 0 0 -1 0 19.6699)" gradientUnits="userSpaceOnUse" id="SVGID_11_" x1="25.3467" x2="21.0954" y1="5.2383" y2="-1.375">
<stop offset="0" style="stop-color:#D6E4F3"/>
<stop offset="1" style="stop-color:#0D4D8C"/>
</linearGradient>
<path d="M20.72,14.619c1.154-1.344,2.614-3.313,5.226-4.531l4.801,2.956  c-1.528,0.79-3.039,1.771-5.779,5.314L20.72,14.619z" fill="url(#SVGID_11_)"/>
<path d="M26.75,9.758c0,0,1.648-0.381,1.895-0.36l5.182,2.853c0,0-0.996-0.014-2.196,0.44L26.75,9.758z" fill="#D6E4F3"/>
<polygon fill="#FFFFFF" points="13.334,17.25 14.128,17.155 14.675,17.856 13.949,18.01 "/>
<polygon fill="#FFFFFF" points="14.945,16.952 15.554,17.667 16.383,17.391 15.765,16.691 "/>
<polygon fill="#FFFFFF" points="16.447,16.386 17.079,17.085 17.787,16.687 17.138,16.006 "/>
<polygon fill="#FFFFFF" points="17.707,15.615 18.364,16.28 18.967,15.804 18.287,15.143 "/>
<polygon fill="#FFFFFF" points="18.797,14.704 19.473,15.341 20.006,14.792 19.314,14.168 "/>
<polygon fill="#FFFFFF" points="19.767,13.682 20.473,14.307 20.965,13.726 20.27,13.133 "/>
<polygon fill="#FFFFFF" points="20.725,12.636 21.42,13.218 21.924,12.66 21.211,12.086 "/>
<polygon fill="#FFFFFF" points="21.679,11.61 22.4,12.168 22.948,11.648 22.197,11.099 "/>
<polygon fill="#FFFFFF" points="22.724,10.662 23.478,11.19 24.076,10.726 23.339,10.207 "/>
<polygon fill="#FFFFFF" points="23.941,9.834 24.684,10.331 25.423,9.968 24.656,9.477 "/>
<polygon fill="#FFFFFF" points="25.334,9.211 26.118,9.672 27.011,9.433 26.21,8.964 "/>
<polygon fill="#FFFFFF" points="26.985,8.815 27.805,9.284 28.284,9.2 27.43,8.735 "/>
<polygon fill="#FFFFFF" points="17.974,23.044 18.862,22.888 19.457,23.625 18.544,23.777 "/>
<polygon fill="#FFFFFF" points="19.804,22.649 20.414,23.373 21.387,23.007 20.75,22.296 "/>
<polygon fill="#FFFFFF" points="21.532,21.925 22.324,21.438 22.996,22.123 22.178,22.62 "/>
<polygon fill="#FFFFFF" points="22.983,20.958 23.65,21.636 24.337,21.035 23.66,20.373 "/>
<polygon fill="#FFFFFF" points="24.227,19.809 24.914,20.46 25.51,19.801 24.815,19.173 "/>
<polygon fill="#FFFFFF" points="25.34,18.563 26.045,19.185 26.605,18.489 25.891,17.891 "/>
<polygon fill="#FFFFFF" points="26.404,17.278 27.116,17.869 27.679,17.172 26.954,16.599 "/>
<polygon fill="#FFFFFF" points="27.488,16.009 28.216,16.567 28.835,15.922 28.099,15.369 "/>
<polygon fill="#FFFFFF" points="28.68,14.829 29.44,15.356 30.136,14.788 29.367,14.271 "/>
<polygon fill="#FFFFFF" points="30.063,13.81 30.837,14.31 31.657,13.84 30.873,13.35 "/>
<polygon fill="#FFFFFF" points="31.686,12.998 32.495,13.476 33.497,13.158 32.688,12.686 "/>
<polygon fill="#FFFFFF" points="33.683,12.48 34.514,12.936 34.98,12.884 34.13,12.418 "/>
<linearGradient gradientTransform="matrix(1 0 0 -1 0 19.6699)" gradientUnits="userSpaceOnUse" id="SVGID_12_" x1="19.6719" x2="28.1873" y1="16.207" y2="-1.6959">
<stop offset="0" style="stop-color:#FFFFFF"/>
<stop offset="0.0527" style="stop-color:#ECF0F6"/>
<stop offset="0.1975" style="stop-color:#BCCAE0"/>
<stop offset="0.2697" style="stop-color:#AABBD7"/>
<stop offset="0.4226" style="stop-color:#95A8CE"/>
<stop offset="0.6685" style="stop-color:#6C83BB"/>
<stop offset="0.9551" style="stop-color:#003D6D"/>
<stop offset="1" style="stop-color:#003D6D"/>
</linearGradient>
<path d="M18.941,24.086c8.227-1.094,8.543-10.42,16.542-10.938l-0.152,0.761  c-8.015,0.73-7.678,10.038-16.605,11.127L18.941,24.086z" fill="url(#SVGID_12_)"/>
<linearGradient gradientTransform="matrix(1 0 0 -1 0 19.6699)" gradientUnits="userSpaceOnUse" id="SVGID_13_" x1="20.6045" x2="15.9598" y1="17.1563" y2="-0.8417">
<stop offset="0" style="stop-color:#FFFFFF"/>
<stop offset="0.0527" style="stop-color:#ECF0F6"/>
<stop offset="0.1975" style="stop-color:#BCCAE0"/>
<stop offset="0.2697" style="stop-color:#AABBD7"/>
<stop offset="0.4226" style="stop-color:#95A8CE"/>
<stop offset="0.6685" style="stop-color:#6C83BB"/>
<stop offset="0.9551" style="stop-color:#003D6D"/>
<stop offset="1" style="stop-color:#003D6D"/>
</linearGradient>
<polygon fill="url(#SVGID_13_)" points="18.941,24.086 12.99,16.781 13.007,17.367 18.726,25.035 "/>
<polygon fill="#7D97C6" points="18.674,23.761 18.482,24.705 17.965,23.996 18.084,23.019 "/>
<polygon fill="#7D97C6" points="13.369,17.241 13.429,17.907 13.994,18.692 13.976,18.01 "/>
</svg>
