<?xml version="1.0" encoding="UTF-8" standalone="no"?>
<!DOCTYPE svg PUBLIC "-//W3C//DTD SVG 1.1 Tiny//EN" "http://www.w3.org/Graphics/SVG/1.1/DTD/svg11-tiny.dtd">
<svg xmlns="http://www.w3.org/2000/svg" xmlns:xlink="http://www.w3.org/1999/xlink" baseProfile="tiny" height="32px" version="1.1" viewBox="0 0 38.001 32" width="38.001px" x="0px" y="0px">
<g>
<rect fill="none" height="32" width="38.001"/>
<path d="M28.002,10.168h-2.295l0.686-5.063c0.016-0.729-0.562-0.908-0.793-0.908h-3.148   c-0.397,0-0.736,0.295-0.793,0.69l-0.741,5.28H18.57l0.713-5.058c0.047-0.702-0.562-0.913-0.793-0.913h-3.18   c-0.4,0-0.739,0.297-0.793,0.694l-0.717,5.276h-3.168c-0.212,0-0.818,0.209-0.803,0.803v2.698c0,0.209,0.172,0.771,0.803,0.8h2.561   l-0.41,2.96H9.853c-0.212,0-0.804,0.183-0.8,0.8v2.729c0,0.209,0.137,0.763,0.8,0.801h2.321l-0.686,4.97   c-0.031,0.229,0.076,0.836,0.793,0.91h3.15c0.398,0,0.734-0.294,0.791-0.688l0.742-5.192h2.348l-0.686,4.97   c-0.031,0.229,0.031,0.836,0.793,0.91h3.15c0.4,0,0.737-0.297,0.793-0.692l0.715-5.188h3.145c0.213,0,0.779-0.163,0.799-0.801   v-2.729c-0.082-0.695-0.59-0.8-0.799-0.8h-2.533l0.409-2.962l2.903,0.002c0.25,0.018,0.813-0.217,0.797-0.8v-2.698   C28.783,10.314,28.211,10.168,28.002,10.168z M19.914,17.447h-2.375l0.409-2.96h2.375L19.914,17.447z" fill-opacity="0.4" stroke-opacity="0.4"/>
<path d="M28.001,13.669h-3.6l-0.629,4.561h3.449v2.729h-3.84l-0.811,5.88h-3.15l0.811-5.88h-3.96l-0.84,5.88h-3.15   l0.811-5.88h-3.24v-2.729h3.629l0.631-4.561h-3.48V10.97H14.5L15.311,5h3.18l-0.84,5.97h3.962L22.452,5h3.148l-0.809,5.97h3.209   V13.669z M21.251,13.669h-3.989l-0.631,4.561h3.991L21.251,13.669z" fill="#FFFFFF"/>
</g>
</svg>
