<?xml version="1.0" encoding="UTF-8"?>
<!DOCTYPE svg PUBLIC "-//W3C//DTD SVG 1.1 Tiny//EN" "http://www.w3.org/Graphics/SVG/1.1/DTD/svg11-tiny.dtd">
<svg width="84" height="58" viewBox="-1.021 -0.305 84 58">
<linearGradient id="_10" gradientUnits="userSpaceOnUse" x1="41.04" y1="28.84" x2="52.28" y2="50.97">
<stop stop-color="#A2C2DD" offset="0.1"/>
<stop stop-color="#6C83BB" offset="0.71"/>
<stop stop-color="#003D6D" offset="0.99"/>
</linearGradient>
<path fill="url(#_10)" d="M16.163,28.708c0,13.685,11.133,24.819,24.817,24.819c13.682,0,24.815-11.134,24.815-24.819 c0-13.686-11.134-24.82-24.815-24.82C27.296,3.888,16.163,15.022,16.163,28.708z"/>
<radialGradient id="_11" gradientUnits="userSpaceOnUse" cx="45.81" cy="12.93" r="45.27">
<stop stop-color="#FFFFFF" offset="0"/>
<stop stop-color="#A2C2DD" offset="0.53"/>
<stop stop-color="#6C83BB" offset="0.87"/>
<stop stop-color="#003D6D" offset="1"/>
</radialGradient>
<circle fill="url(#_11)" cx="40.983" cy="28.708" r="24.463"/>
<radialGradient id="_12" gradientUnits="userSpaceOnUse" cx="42.64" cy="18.86" r="31.97">
<stop stop-color="#A2C2DD" offset="0.1"/>
<stop stop-color="#6C83BB" offset="0.71"/>
<stop stop-color="#003D6D" offset="0.99"/>
</radialGradient>
<path fill="url(#_12)" d="M31.121,7.641c0.102,0.207,0.436,0.257,1.141,0.034c0.52-0.046,1.879-1.225,2.588-0.988 c0.711,0.235,1.295-0.24,1.955-0.664c1.375,0.121,2.838-1.088,3.121-1.088s1.352,0.196,1.586-0.18c0,0,2.58,0.607,4.938,0.101 c-1.758-0.401-3.588-0.614-5.465-0.614c-2.42,0-4.758,0.354-6.963,1.007C33.402,5.843,32.742,6.65,31.121,7.641z"/>
<path fill="url(#_12)" d="M60.595,36.488l-0.799,1.265c0,0-1.195,0.377-1.242,0.755c-0.021,0.16-0.922,2.162-0.922,2.162 s-0.355,1.115,0.658,0.783C60.398,40.763,61.775,36.251,60.595,36.488z"/>
<path fill="url(#_12)" d="M22.505,38.976c0.346,0,1.236,0.108,1.344-0.215c0.006-0.141,0.131-3.486,0.131-3.486l1.332-1.772 v-1.411l-3.467-2.244l-1.504-1.63c0,0.006-0.582-1.759-1.129-2.258c-0.455-0.417-0.424-1.333-0.908-2.008 c-0.441-0.61-0.797-0.952-1.08-1.089c-2.234,9.056,1.232,16.752,4.479,20.904c0.465-0.663,0.834-1.405,1.117-2.062 C23.113,41.029,21.345,40.074,22.505,38.976z"/>
<path fill="url(#_12)" d="M25.171,10.934c0-0.439,0.723-0.659,0.723-0.659l0.094,0.346l0.658,0.282 c0,0,0.785-0.847,0.941-1.067c0.154-0.219,0.438-1.066,0.438-1.066l1.371-1.614c-3.074,1.657-5.754,3.953-7.861,6.711 C22.38,13.198,25.171,11.373,25.171,10.934z"/>
<radialGradient id="_16" gradientUnits="userSpaceOnUse" cx="38.62" cy="8.98" r="5.41">
<stop stop-color="#A2C2DD" offset="0.1"/>
<stop stop-color="#6C83BB" offset="0.71"/>
<stop stop-color="#003D6D" offset="0.99"/>
</radialGradient>
<path fill="url(#_16)" d="M38.113,7.062c0.309-0.06,1.014-0.391,1.014-0.391s-0.352-0.149-0.75-0.09 c-0.396,0.061-0.971-0.239-1.279-0.09C37.361,6.822,37.804,7.122,38.113,7.062z"/>
<radialGradient id="_17" gradientUnits="userSpaceOnUse" cx="46.24" cy="15.04" r="29.13">
<stop stop-color="#E6EEF4" offset="0"/>
<stop stop-color="#4A9900" offset="0.44"/>
<stop stop-color="#0E4E58" offset="0.94"/>
</radialGradient>
<path fill="url(#_17)" d="M52.248,6.986c-0.752,0.211-1.371,0.372-1.516,0.372c-0.426,0-0.313-0.36-0.689-0.408 c-0.381-0.047-3.537-0.863-3.961-0.438c-0.426,0.427-2.09,0.861-2.469,0.91c-0.377,0.047,0.125,1.192,1.129,1.913 c-0.139,0.143-2.385,1.385-2.385,0.534c0-0.851-0.438-1.475-1.127-1.726c-0.629,0.156-1.35,0.815-0.346,1.726 c0.625,0.565,0.004,0.642-0.039,0.805c-0.186,0.685,1.502,1.35,0.697,1.854c-0.76,0.067-1.434-0.072-1.559-0.143 c-1.191-0.667-1.461,1.978-1.461,1.978l1.299,0.642l-2.168,2.11c0,0-3.182,2.208-3.23,2.493c-0.049,0.283-1.414,3.947-0.939,5.035 c0.471,1.088,2.922,4.021,4.053,4.113c1.482,0.121,5.764-0.735,5.764-0.735c0.094,0.238,0.529,1.186,2.633,1.577 c0.074,0.014-0.908,1.896-0.33,2.705c1.256,1.756,1.883,3.568,1.193,4.383c-1.646,2.471-0.383,2.66,0.016,3.953 c0.143,0.378-0.836,3.758,2.414,4.674c1.168,0.101,1.777-0.084,2.77-1.361c0.287-0.236,1.955-1.941,3.059-2.306 c0.361-0.024-0.346-0.997,0.375-2.024c0.777-0.305,2.871-1.717,2.871-1.717c0.094-2.068-1.02-4.625,1.057-6.092 c1.342-1.364,1.531-1.201,2.383-3.281c0.236-0.614,1.048-2.811-0.375-2.29c-0.941,0.344-1.176,0.329-1.477,0.235 c-0.084-0.769-0.25-1.083-1.096-1.834c-0.439-1.035-1.504-2.824-1.504-2.824l-1.508-2.289l0.188-0.471l3.262,4.438 c0.299,0.862,0.502,1.261,0.738,2.273c1.861-0.45,3.472-2.879,2.717-4.854c-0.035-0.037-0.498,0.058-1.182,0.009 c-1.057-0.77-1.691-2.395-1.691-2.395l2.398,2.019l1.177,0.094l0.744,1.475c0.211,0.137,0.354,0.229,0.354,0.229 s0.047,0.006,0.127,0.009C62.819,15.669,58.265,10.114,52.248,6.986z M47.027,7.959c-0.197-0.502,0.582-0.691,0.582-0.691 s0.773,1.124,0.648,1.865c-0.121,0.735-0.941,0.285-1.188,0.065C46.828,8.98,47.224,8.463,47.027,7.959z M54.066,17.382 c-0.803,0-1.92-0.002-2.607-0.474c-0.684-0.473-0.93,0.203-1.387,0.677c-0.295,0.307-3.373-1.216-3.373-1.216l-0.457-1.325 l-2.809-0.188l-1.793,0.534l-1.746-0.274l1.938-0.691c0,0,1.391-1.307,1.893-1.733c0.422-0.36,2.115-0.141,2.115-0.141l1.936,1.551 c0,0-0.133,0.708-0.311,0.943c0.707-0.048,1.236-0.955,1.236-0.955c-1.572-1.381-1.563-1.716-1.563-1.716l2.02,1.141l0.146,0.587 c0,0,0.805,1.386,1.578,1.444c0.332,0.025,0.061-1.302,0.061-1.302l0.412-0.058c0.811,1.88,3.672,1.692,4.195,2.131 C55.582,18.261,54.402,17.476,54.066,17.382z M54.603,14.028c-0.721-0.282-1.461-0.144-1.461-0.144 c-0.162,0.32-1.322-0.009-1.09-0.715c0.232-0.707,0.992-0.149,1.34-0.533c0.35-0.385,0.844-0.641,1.072-0.277 c-0.264,0.348,0.23,0.622,0.576,0.807C56.01,13.688,56.646,14.44,54.603,14.028z M58.592,15.755 c-0.363-0.323-0.129-0.706-0.676-1.219c-0.789-0.734-1.221-1.052-0.766-1.855c0.77-0.368,0.313,0.491,0.602,0.9 c0.154,0.218,0.848,0.911,1.506,1.798C59.804,16.117,58.955,16.078,58.592,15.755z"/>
<path fill="#FFFFFF" d="M12.638,34.195c-2.774,0-6.577,0.658-7.54,6.354l-0.146,0.857c0,0,6.395,0,7.153,0 c0.229,0.412,0.57,1.027,0.787,1.422c-0.217,0.393-0.559,1.008-0.787,1.418c-0.758,0-7.153,0-7.153,0l0.146,0.859 c0.963,5.693,4.766,6.352,7.54,6.352c2.188,0,4.139-1.834,5.705-3.311c0.846-0.799,1.645-1.549,2.066-1.549H39.99l0.219-0.24 c0.422-0.463,1.396-1.727,1.42-3.5v-0.063c-0.021-1.773-0.998-3.037-1.42-3.498l-0.219-0.24H20.409 c-0.422,0-1.221-0.752-2.064-1.547C16.777,36.031,14.825,34.195,12.638,34.195z"/>
<linearGradient id="_18" gradientUnits="userSpaceOnUse" x1="11.23" y1="29.56" x2="32.34" y2="54.96">
<stop stop-color="#E6EDF3" offset="0"/>
<stop stop-color="#CABAD7" offset="0.12"/>
<stop stop-color="#AB7EB8" offset="0.27"/>
<stop stop-color="#9759A4" offset="0.38"/>
<stop stop-color="#8F4B9C" offset="0.44"/>
<stop stop-color="#73357C" offset="0.57"/>
<stop stop-color="#551D5A" offset="0.72"/>
<stop stop-color="#430E45" offset="0.85"/>
<stop stop-color="#3C093D" offset="0.94"/>
</linearGradient>
<path fill="url(#_18)" d="M40.824,42.827c0-0.008,0.002-0.018,0.002-0.023h-0.004c-0.018-1.543-0.902-2.656-1.229-3.012 c-0.412,0-19.254,0-19.254,0c-0.717,0-1.492-0.734-2.574-1.748c-1.471-1.387-3.301-3.111-5.197-3.111 c-3.081,0-5.997,0.904-6.813,5.738c1.158,0,6.713,0,6.713,0l1.195,2.156l-1.195,2.154c0,0-5.555,0-6.713,0 c0.816,4.834,3.732,5.738,6.813,5.738c1.896,0,3.729-1.725,5.197-3.111c1.082-1.014,1.857-1.748,2.574-1.748c0,0,18.842,0,19.254,0 c0.326-0.354,1.211-1.469,1.229-3.012h0.004C40.826,42.841,40.824,42.835,40.824,42.827z"/>
</svg>