<?xml version="1.0" encoding="UTF-8"?>
<!DOCTYPE svg PUBLIC "-//W3C//DTD SVG 1.1 Tiny//EN" "http://www.w3.org/Graphics/SVG/1.1/DTD/svg11-tiny.dtd">
<svg width="20" height="20" viewBox="0 0 20 20">
<path d="M9.107,6.002v2.551C9.23,8.544,9.453,8.539,9.773,8.539c1.021,0,1.807,0.271,2.355,0.811 c0.547,0.541,0.82,1.327,0.82,2.359c0,1.172-0.299,2.045-0.896,2.615s-1.514,0.855-2.746,0.855c-0.701,0-1.453-0.104-2.256-0.309 V13.66h0.014c0.85,0.225,1.502,0.338,1.961,0.338c0.686,0,1.193-0.178,1.521-0.533s0.492-0.918,0.492-1.688 c0-0.678-0.182-1.188-0.543-1.53C10.133,9.906,9.59,9.735,8.867,9.735c-0.5,0-1.002,0.022-1.506,0.068V4.82h5.293v1.182H9.107z" fill="#536376"/>
</svg>