<?xml version="1.0" encoding="UTF-8"?>
<!DOCTYPE svg PUBLIC "-//W3C//DTD SVG 1.1 Tiny//EN" "http://www.w3.org/Graphics/SVG/1.1/DTD/svg11-tiny.dtd">
<svg width="20" height="20" viewBox="0 0 20 20">
<path d="M16.429,15.469c0,0.414-0.337,0.75-0.75,0.75H4.741c-0.413,0-0.75-0.336-0.75-0.75V4.531c0-0.413,0.337-0.75,0.75-0.75 h10.938c0.413,0,0.75,0.336,0.75,0.75V15.469z M17.429,4.531c0-0.965-0.785-1.75-1.75-1.75H4.741c-0.965,0-1.75,0.785-1.75,1.75 v10.938c0,0.965,0.785,1.75,1.75,1.75h10.938c0.965,0,1.75-0.785,1.75-1.75V4.531z"/>
<rect x="5.887" y="6.406" width="8.646" height="1"/>
<rect x="5.887" y="12.563" width="8.646" height="1"/>
<rect x="5.887" y="9.484" width="8.646" height="1"/>
</svg>