<?xml version="1.0" encoding="UTF-8"?>
<!DOCTYPE svg PUBLIC "-//W3C//DTD SVG 1.1 Tiny//EN" "http://www.w3.org/Graphics/SVG/1.1/DTD/svg11-tiny.dtd">
<svg baseProfile="tiny" height="45px" version="1.1" viewBox="0 0 45 45" width="45px" x="0px" xmlns="http://www.w3.org/2000/svg" xmlns:xlink="http://www.w3.org/1999/xlink" y="0px">
<path d="M20.576,18.831c-8.711,8.728-6.109,16.482-5.004,17.937c0.58,0.76,1.357,1.779,2.67,2.654  c0.65,0.43,1.633,0.619,1.916,0.666l0.146,0.021l0.145-0.004c1.406-0.092,2.893-1.098,4.811-3.271  c0.822-0.933,2.688-3.242,2.688-5.023c0.002-0.072-0.002-0.145-0.012-0.225l-0.016-0.144l-0.047-0.135  c-0.061-0.193-0.35-0.895-1.357-1.691c-0.848-0.674-2.004-0.963-2.838-1.1c0.004-0.748,0.344-2.213,2.334-4.268l-0.029,0.008  c2.055-1.99,3.523-2.322,4.273-2.326c0.137,0.842,0.422,2,1.094,2.846c0.803,1.008,1.498,1.297,1.691,1.359l0.139,0.049l0.145,0.014  c1.807,0.168,4.27-1.813,5.25-2.678c2.166-1.915,3.172-3.403,3.266-4.825l0.01-0.146l-0.025-0.142  c-0.047-0.282-0.232-1.267-0.668-1.911c-0.877-1.316-1.895-2.095-2.572-2.607C36.543,12.331,28.664,10.74,20.576,18.831   M19.64,37.315c-0.959-0.641-1.535-1.393-1.998-1.998c-0.289-0.381-0.773-1.631-0.773-3.469c0-2.748,1.08-6.807,5.492-11.217  c7.372-7.385,13.737-5.463,14.604-4.799c0.686,0.524,1.438,1.098,2.086,2.062c0.064,0.104,0.168,0.438,0.232,0.747  c-0.072,0.423-0.486,1.304-2.391,2.986c-1.486,1.311-2.67,1.899-3.158,2.008c-0.104-0.088-0.246-0.217-0.416-0.434  c-0.438-0.556-0.643-1.849-0.676-2.393l-0.041-0.694l-0.611-0.344c-0.322-0.179-3.322-1.634-7.77,2.67l-0.014,0.017l-0.02,0.032  c-2.494,2.574-3.058,4.666-3.058,6.031c0,0.984,0.295,1.597,0.371,1.73l0.336,0.621l0.707,0.039  c0.542,0.028,1.835,0.231,2.388,0.676c0.213,0.17,0.348,0.311,0.438,0.414c-0.113,0.487-0.697,1.67-2.012,3.158  c-1.683,1.901-2.55,2.315-2.966,2.389C20.08,37.485,19.753,37.389,19.64,37.315 M6.011,14.439h-2.86v-1.91l7.634-7.638l7.641,7.638  v1.91h-2.864v5.729H6.012L6.011,14.439L6.011,14.439z" fill="#FFFFFF"/>
<rect fill="none" height="45" width="45"/>
</svg>
