<?xml version="1.0" encoding="UTF-8" standalone="no"?>
<!DOCTYPE svg PUBLIC "-//W3C//DTD SVG 1.1 Tiny//EN" "http://www.w3.org/Graphics/SVG/1.1/DTD/svg11-tiny.dtd">
<svg xmlns="http://www.w3.org/2000/svg" xmlns:xlink="http://www.w3.org/1999/xlink" width="96" height="16" viewBox="0 0 96 16">
<rect fill="none" height="16" width="96"/>
<path d="M64,2.791c2.872,0,5.21,2.338,5.21,5.209s-2.338,5.209-5.21,5.209S58.79,10.871,58.79,8 S61.128,2.791,64,2.791 M64,1.791c-3.424,0-6.21,2.785-6.21,6.209s2.786,6.209,6.21,6.209S70.21,11.424,70.21,8 S67.424,1.791,64,1.791L64,1.791z" fill="#FFFFFF"/>
<path d="M64,13.209c-2.872,0-5.21-2.338-5.21-5.209S61.128,2.791,64,2.791 S69.21,5.129,69.21,8S66.872,13.209,64,13.209L64,13.209z" fill="#4B5879"/>
<path d="M16,2.791c2.872,0,5.21,2.338,5.21,5.209s-2.338,5.209-5.21,5.209S10.79,10.871,10.79,8 S13.128,2.791,16,2.791 M16,1.791c-3.424,0-6.21,2.785-6.21,6.209s2.786,6.209,6.21,6.209S22.21,11.424,22.21,8 S19.424,1.791,16,1.791L16,1.791z" fill="#FFFFFF"/>
<path d="M16,13.209c-2.872,0-5.21-2.338-5.21-5.209S13.128,2.791,16,2.791 S21.21,5.129,21.21,8S18.872,13.209,16,13.209L16,13.209z" fill="#4B5879"/>
<path d="M48,2.791c2.872,0,5.21,2.338,5.21,5.209s-2.338,5.209-5.21,5.209S42.79,10.871,42.79,8 S45.128,2.791,48,2.791 M48,1.791c-3.424,0-6.21,2.785-6.21,6.209s2.786,6.209,6.21,6.209S54.21,11.424,54.21,8 S51.424,1.791,48,1.791L48,1.791z" fill="#FFFFFF"/>
<path d="M48,13.209c-2.872,0-5.21-2.338-5.21-5.209S45.128,2.791,48,2.791 S53.21,5.129,53.21,8S50.872,13.209,48,13.209L48,13.209z" fill="#4B5879"/>
<path d="M32,1.709c3.469,0,6.291,2.822,6.291,6.291c0,3.469-2.822,6.291-6.291,6.291 c-3.47,0-6.293-2.822-6.293-6.291C25.707,4.531,28.53,1.709,32,1.709 M32,0.5c-4.136,0-7.5,3.363-7.5,7.5c0,4.135,3.364,7.5,7.5,7.5 c4.135,0,7.5-3.365,7.5-7.5C39.5,3.863,36.135,0.5,32,0.5L32,0.5z" fill="#4B5879"/>
<path d="M32,14.291c-3.47,0-6.293-2.822-6.293-6.291c0-3.469,2.823-6.291,6.293-6.291 c3.469,0,6.291,2.822,6.291,6.291C38.291,11.469,35.469,14.291,32,14.291L32,14.291z" fill="#FFFFFF"/>
<path d="M80,2.791c2.872,0,5.21,2.338,5.21,5.209s-2.338,5.209-5.21,5.209S74.79,10.871,74.79,8 S77.128,2.791,80,2.791 M80,1.791c-3.424,0-6.21,2.785-6.21,6.209s2.786,6.209,6.21,6.209S86.21,11.424,86.21,8 S83.424,1.791,80,1.791L80,1.791z" fill="#FFFFFF"/>
<path d="M80,13.209c-2.872,0-5.21-2.338-5.21-5.209S77.128,2.791,80,2.791 S85.21,5.129,85.21,8S82.872,13.209,80,13.209L80,13.209z" fill="#4B5879"/>
</svg>