<?xml version="1.0" encoding="utf-8"?>
<!DOCTYPE svg PUBLIC "-//W3C//DTD SVG 1.1 Tiny//EN" "http://www.w3.org/Graphics/SVG/1.1/DTD/svg11-tiny.dtd">
<svg width="60.168" height="80" viewBox="-0.169 0 60.168 80">
<linearGradient id="_40" gradientUnits="userSpaceOnUse" x1="21.05" y1="40.93" x2="40.62" y2="40.93">
<stop stop-color="#496DA2" offset="0"/>
<stop stop-color="#235487" offset="1"/>
</linearGradient>
<path fill="url(#_40)" d="M46.653,20.935H15.708l-0.005-0.004v39.995l0.004-0.004v0.004h30.95V20.931L46.653,20.935z M18.725,57.904V23.982l-0.025-0.025h24.938v33.934l0.016,0.016L18.725,57.904L18.725,57.904z"/>
<linearGradient id="_41" gradientUnits="userSpaceOnUse" x1="44.93" y1="58.74" x2="53.54" y2="75.72">
<stop stop-color="#AABBD7" offset="0"/>
<stop stop-color="#92A5CC" offset="0.26"/>
<stop stop-color="#6C83BB" offset="0.71"/>
<stop stop-color="#637DB5" offset="0.76"/>
<stop stop-color="#4C6EA4" offset="0.83"/>
<stop stop-color="#265689" offset="0.91"/>
<stop stop-color="#003D6D" offset="0.99"/>
</linearGradient>
<path fill="url(#_41)" d="M55.393,45.383l-0.127-0.246c-1.172-1.167-2.666-2.063-4.408-2.715c0.07-0.465,0.769-5.121,0.769-5.121c-0.028-0.741-0.987-1.156-1.924-1.269c-0.402-0.047-1.706-0.093-2.622,0.677c0,0.052,0.125,4.708,0.125,4.708s-4.271-0.584-6.333-0.167c-3.345,0.676-7.994,1.968-7.999,2.165C32.52,58.104,34.058,69.9,34.51,73.04c0,0,5.242,5.325,13.142,5.54c0,0,5.232-3.987,5.654-4.973c0.34-0.789,2.313-14.688,2.313-23.027C55.617,48.718,55.548,46.956,55.393,45.383z"/>
<linearGradient id="_42" gradientUnits="userSpaceOnUse" x1="23.18" y1="22.39" x2="30.43" y2="36.68">
<stop stop-color="#AABBD7" offset="0"/>
<stop stop-color="#92A5CC" offset="0.26"/>
<stop stop-color="#6C83BB" offset="0.71"/>
<stop stop-color="#637DB5" offset="0.76"/>
<stop stop-color="#4C6EA4" offset="0.83"/>
<stop stop-color="#265689" offset="0.91"/>
<stop stop-color="#003D6D" offset="0.99"/>
</linearGradient>
<path fill="url(#_42)" d="M22.524,37.813l3.422,1.031c0,0,14.676-7.506,14.422-7.469c0-0.751,0.703-10.406,0.703-10.406l-1.594-0.203l4.186-12.017l-0.172-1.965l-10.018-0.87l-9.229-2.125c0,0-5.404,13.243-5.595,13.712c-0.127-0.013-0.341-0.035-0.341-0.035l-5.346,2.152c0,0-0.151,0.101-0.267,0.178c-0.238-0.044-1.861-0.341-1.861-0.341l-9.456,5.589l0.766,4.572c0,0,0.378,0.104,0.535,0.147c0.014,0.202,0.025,0.361,0.038,0.56c-0.374,0.171-2.893,1.323-2.893,1.323l0.418,1.197l19.22,6.345L22.524,37.813z"/>
<linearGradient id="_43" gradientUnits="userSpaceOnUse" x1="53.92" y1="47.36" x2="25.32" y2="35.82">
<stop stop-color="#A2C2DD" offset="0.01"/>
<stop stop-color="#8CA9CF" offset="0.26"/>
<stop stop-color="#6C83BB" offset="0.67"/>
<stop stop-color="#637DB5" offset="0.72"/>
<stop stop-color="#4C6EA4" offset="0.79"/>
<stop stop-color="#265689" offset="0.88"/>
<stop stop-color="#003D6D" offset="0.96"/>
</linearGradient>
<path fill="url(#_43)" d="M35.768,43.391c0,0,6.478-1.787,7.355-1.762c3.162-0.113,8.479,0.333,11.918,3.785l-4.627,2.158L35.768,43.391z"/>
<linearGradient id="_44" gradientUnits="userSpaceOnUse" x1="52.82" y1="47.92" x2="54.24" y2="104.58">
<stop stop-color="#FFFFFF" offset="0"/>
<stop stop-color="#E4EDF5" offset="0.07"/>
<stop stop-color="#B4CEE4" offset="0.22"/>
<stop stop-color="#A2C2DD" offset="0.29"/>
<stop stop-color="#8CA9CF" offset="0.45"/>
<stop stop-color="#6C83BB" offset="0.71"/>
<stop stop-color="#637DB5" offset="0.76"/>
<stop stop-color="#4C6EA4" offset="0.83"/>
<stop stop-color="#265689" offset="0.91"/>
<stop stop-color="#003D6D" offset="0.99"/>
</linearGradient>
<path fill="url(#_44)" d="M50.421,47.572l0.941,27.662c0.961-0.775,1.57-1.748,1.57-1.748c1.272-5.646,2.938-19.834,2.104-28.113L50.421,47.572z"/>
<linearGradient id="_45" gradientUnits="userSpaceOnUse" x1="36.18" y1="40.96" x2="61.11" y2="51.86">
<stop stop-color="#FFFFFF" offset="0.15"/>
<stop stop-color="#A2C2DD" offset="1"/>
</linearGradient>
<path fill="url(#_45)" d="M33.267,43.504c0,0,6.834-1.887,7.771-1.859c3.338-0.106,8.547,0.215,12.564,3.953l-4.877,2.319L33.267,43.504z"/>
<linearGradient id="_46" gradientUnits="userSpaceOnUse" x1="50.74" y1="41.35" x2="50.74" y2="86.38">
<stop stop-color="#FFFFFF" offset="0.05"/>
<stop stop-color="#A2C2DD" offset="1"/>
</linearGradient>
<path fill="url(#_46)" d="M48.727,47.915l-1.08,30.313l3.72-2.996c1.346-5.955,3.108-20.902,2.237-29.646L48.727,47.915z"/>
<linearGradient id="_47" gradientUnits="userSpaceOnUse" x1="46.88" y1="44.79" x2="50.92" y2="44.79">
<stop stop-color="#FFFFFF" offset="0"/>
<stop stop-color="#E4EDF5" offset="0.07"/>
<stop stop-color="#B4CEE4" offset="0.22"/>
<stop stop-color="#A2C2DD" offset="0.29"/>
<stop stop-color="#8CA9CF" offset="0.45"/>
<stop stop-color="#6C83BB" offset="0.71"/>
<stop stop-color="#637DB5" offset="0.76"/>
<stop stop-color="#4C6EA4" offset="0.83"/>
<stop stop-color="#265689" offset="0.91"/>
<stop stop-color="#003D6D" offset="0.99"/>
</linearGradient>
<path fill="url(#_47)" d="M50.915,44.589c0.104,0.658-0.754,1.152-1.9,1.203c-1.146,0.054-2.146-0.338-2.133-1.121c0.01-0.501,0.756-0.844,1.9-0.894C49.933,43.729,50.835,44.098,50.915,44.589z"/>
<linearGradient id="_48" gradientUnits="userSpaceOnUse" x1="44.37" y1="40.88" x2="68.33" y2="42.3">
<stop stop-color="#FFFFFF" offset="0"/>
<stop stop-color="#E0EAF3" offset="0.11"/>
<stop stop-color="#A2C2DD" offset="0.35"/>
<stop stop-color="#8CA9CF" offset="0.48"/>
<stop stop-color="#6C83BB" offset="0.7"/>
<stop stop-color="#637DB5" offset="0.75"/>
<stop stop-color="#4C6EA4" offset="0.82"/>
<stop stop-color="#265689" offset="0.91"/>
<stop stop-color="#003D6D" offset="0.99"/>
</linearGradient>
<path fill="url(#_48)" d="M47.474,36.99l0.24,7.771c0.26,0.556,2.078,0.669,2.355-0.063l1.115-7.428L47.474,36.99z"/>
<linearGradient id="_49" gradientUnits="userSpaceOnUse" x1="35.61" y1="54.43" x2="61.45" y2="79.6">
<stop stop-color="#FFFFFF" offset="0.05"/>
<stop stop-color="#A2C2DD" offset="1"/>
</linearGradient>
<path fill="url(#_49)" d="M33.267,43.504c3.346-1.094,10.439-0.186,15.461,4.411c0.588,8.24,0.109,22.553-1.08,30.313c-4.051,0.102-9.768-2.619-12.785-5.239C33.871,66.063,32.64,51.789,33.267,43.504z"/>
<linearGradient id="_50" gradientUnits="userSpaceOnUse" x1="42.53" y1="62.87" x2="35.83" y2="27.13">
<stop stop-color="#FFFFFF" offset="0.05"/>
<stop stop-color="#A2C2DD" offset="1"/>
</linearGradient>
<polygon fill="url(#_50)" points="34.936,45.501 35.451,62.975 46.638,67.096 47.013,48.971 "/>
<linearGradient id="_51" gradientUnits="userSpaceOnUse" x1="37.45" y1="66.73" x2="32.37" y2="26.11">
<stop stop-color="#FFFFFF" offset="0"/>
<stop stop-color="#E4EDF5" offset="0.1"/>
<stop stop-color="#B4CEE4" offset="0.28"/>
<stop stop-color="#A2C2DD" offset="0.38"/>
<stop stop-color="#8CA9CF" offset="0.5"/>
<stop stop-color="#6C83BB" offset="0.71"/>
<stop stop-color="#637DB5" offset="0.76"/>
<stop stop-color="#4C6EA4" offset="0.83"/>
<stop stop-color="#265689" offset="0.91"/>
<stop stop-color="#003D6D" offset="0.99"/>
</linearGradient>
<polygon fill="url(#_51)" points="36.703,62.219 36.378,45.913 34.936,45.501 35.451,62.975 "/>
<linearGradient id="_52" gradientUnits="userSpaceOnUse" x1="29.73" y1="58.41" x2="54.83" y2="71.51">
<stop stop-color="#FFFFFF" offset="0.15"/>
<stop stop-color="#A2C2DD" offset="1"/>
</linearGradient>
<polygon fill="url(#_52)" points="35.451,62.975 36.703,62.219 46.683,65.673 46.638,67.096 "/>
<linearGradient id="_53" gradientUnits="userSpaceOnUse" x1="47.66" y1="37.02" x2="52.17" y2="37.35">
<stop stop-color="#D6E4F3" offset="0"/>
<stop stop-color="#337CE5" offset="1"/>
</linearGradient>
<path fill="url(#_53)" d="M51.267,37.37c-0.146,0.422-1.125,0.667-2.174,0.544c-1.047-0.123-1.754-0.565-1.586-0.99c0.168-0.422,1.127-0.665,2.152-0.544C50.688,36.503,51.408,36.947,51.267,37.37z"/>
<linearGradient id="_54" gradientUnits="userSpaceOnUse" x1="28.79" y1="17.85" x2="40.46" y2="-1.15">
<stop stop-color="#FFFFFF" offset="0.15"/>
<stop stop-color="#A2C2DD" offset="1"/>
</linearGradient>
<polygon fill="url(#_54)" points="24.8,5.47 43.171,7.153 37.83,22.024 19.583,19.142 "/>
<linearGradient id="_55" gradientUnits="userSpaceOnUse" x1="45.66" y1="2.37" x2="37.44" y2="23.51">
<stop stop-color="#DEE9F3" offset="0"/>
<stop stop-color="#235487" offset="1"/>
</linearGradient>
<polygon fill="url(#_55)" points="43.171,7.105 38.026,21.506 38.649,22.057 43.311,8.704 "/>
<polygon fill="#8CC2EA" points="19.227,18.798 15.771,20.338 35.153,23.647 37.992,21.844 "/>
<linearGradient id="_56" gradientUnits="userSpaceOnUse" x1="4.78" y1="23.01" x2="4.78" y2="28.89">
<stop stop-color="#A2C2DD" offset="0.01"/>
<stop stop-color="#8CA9CF" offset="0.26"/>
<stop stop-color="#6C83BB" offset="0.67"/>
<stop stop-color="#637DB5" offset="0.72"/>
<stop stop-color="#4C6EA4" offset="0.79"/>
<stop stop-color="#265689" offset="0.88"/>
<stop stop-color="#003D6D" offset="0.96"/>
</linearGradient>
<polygon fill="url(#_56)" points="7.796,26.238 5.137,30.071 2.459,29.336 1.77,25.222 "/>
<linearGradient id="_57" gradientUnits="userSpaceOnUse" x1="39.49" y1="16.39" x2="27.35" y2="45.66">
<stop stop-color="#FFFFFF" offset="0"/>
<stop stop-color="#E4EDF5" offset="0.1"/>
<stop stop-color="#B4CEE4" offset="0.28"/>
<stop stop-color="#A2C2DD" offset="0.38"/>
<stop stop-color="#8CA9CF" offset="0.5"/>
<stop stop-color="#6C83BB" offset="0.71"/>
<stop stop-color="#637DB5" offset="0.76"/>
<stop stop-color="#4C6EA4" offset="0.83"/>
<stop stop-color="#265689" offset="0.91"/>
<stop stop-color="#003D6D" offset="0.99"/>
</linearGradient>
<polygon fill="url(#_57)" points="25.909,38.506 25.934,33.063 35.583,24.056 40.66,21.232 40.022,31.12 "/>
<linearGradient id="_58" gradientUnits="userSpaceOnUse" x1="-0.73" y1="26.55" x2="22.57" y2="18.72">
<stop stop-color="#FFFFFF" offset="0"/>
<stop stop-color="#E4EDF5" offset="0.09"/>
<stop stop-color="#B4CEE4" offset="0.27"/>
<stop stop-color="#A2C2DD" offset="0.36"/>
<stop stop-color="#8CA9CF" offset="0.48"/>
<stop stop-color="#6C83BB" offset="0.67"/>
<stop stop-color="#637DB5" offset="0.72"/>
<stop stop-color="#4C6EA4" offset="0.79"/>
<stop stop-color="#265689" offset="0.88"/>
<stop stop-color="#003D6D" offset="0.96"/>
</linearGradient>
<polygon fill="url(#_58)" points="16.175,20.787 10.906,19.821 1.77,25.222 7.567,26.58 "/>
<linearGradient id="_59" gradientUnits="userSpaceOnUse" x1="-1.46" y1="22.43" x2="40.24" y2="30.36">
<stop stop-color="#FFFFFF" offset="0.05"/>
<stop stop-color="#A2C2DD" offset="1"/>
</linearGradient>
<polygon fill="url(#_59)" points="35.583,24.056 13.1,19.942 2.852,27.046 25.934,33.063 "/>
<linearGradient id="_60" gradientUnits="userSpaceOnUse" x1="1.95" y1="19.55" x2="35.82" y2="26.7">
<stop stop-color="#FFFFFF" offset="0"/>
<stop stop-color="#E4EDF5" offset="0.09"/>
<stop stop-color="#B4CEE4" offset="0.27"/>
<stop stop-color="#A2C2DD" offset="0.36"/>
<stop stop-color="#8CA9CF" offset="0.48"/>
<stop stop-color="#6C83BB" offset="0.67"/>
<stop stop-color="#637DB5" offset="0.72"/>
<stop stop-color="#4C6EA4" offset="0.79"/>
<stop stop-color="#265689" offset="0.88"/>
<stop stop-color="#003D6D" offset="0.96"/>
</linearGradient>
<polygon fill="url(#_60)" points="14.04,21.349 11.976,22.724 29.931,26.474 31.776,24.788 "/>
<linearGradient id="_61" gradientUnits="userSpaceOnUse" x1="36.57" y1="36.8" x2="-4.76" y2="29.3">
<stop stop-color="#FFFFFF" offset="0"/>
<stop stop-color="#E4EDF5" offset="0.09"/>
<stop stop-color="#B4CEE4" offset="0.27"/>
<stop stop-color="#A2C2DD" offset="0.36"/>
<stop stop-color="#8CA9CF" offset="0.48"/>
<stop stop-color="#6C83BB" offset="0.67"/>
<stop stop-color="#637DB5" offset="0.72"/>
<stop stop-color="#4C6EA4" offset="0.79"/>
<stop stop-color="#265689" offset="0.88"/>
<stop stop-color="#003D6D" offset="0.96"/>
</linearGradient>
<polygon fill="url(#_61)" points="25.934,33.063 2.852,27.046 3.156,31.522 25.909,38.506 "/>
<linearGradient id="_62" gradientUnits="userSpaceOnUse" x1="24.14" y1="40.2" x2="-6" y2="29.14">
<stop stop-color="#FFFFFF" offset="0"/>
<stop stop-color="#496DA2" offset="0.71"/>
<stop stop-color="#235487" offset="0.99"/>
</linearGradient>
<polygon fill="url(#_62)" points="0.267,31.83 19.486,37.462 19.486,38.824 0.522,32.563 "/>
<linearGradient id="_63" gradientUnits="userSpaceOnUse" x1="29.99" y1="39.07" x2="1.21" y2="29.77">
<stop stop-color="#FFFFFF" offset="0.15"/>
<stop stop-color="#A2C2DD" offset="1"/>
</linearGradient>
<polygon fill="url(#_63)" points="4.883,29.719 0.267,31.83 19.486,37.462 24.822,35.04 "/>
<linearGradient id="_64" gradientUnits="userSpaceOnUse" x1="19.49" y1="36.94" x2="24.82" y2="36.94">
<stop stop-color="#DEE9F3" offset="0"/>
<stop stop-color="#235487" offset="1"/>
</linearGradient>
<polygon fill="url(#_64)" points="19.486,37.462 24.822,35.04 24.822,36.365 19.491,38.844 "/>
<polygon fill="#375082" points="20.079,18.001 19.958,18.896 17.51,19.884 16.036,19.574 "/>
<linearGradient id="_65" gradientUnits="userSpaceOnUse" x1="46.08" y1="19" x2="5.65" y2="23.11">
<stop stop-color="#FFFFFF" offset="0.15"/>
<stop stop-color="#A2C2DD" offset="1"/>
</linearGradient>
<polygon fill="url(#_65)" points="18.365,17.822 20.079,18.001 16.205,19.536 35.509,22.698 38.994,21.045 40.66,21.232 35.583,24.056 13.1,19.942 "/>
<polygon fill="#5DA6B1" points="18.078,19.845 24.463,4.196 37.46,7.185 39.831,12.407 36.199,22.36 35.456,22.703 "/>
<polygon fill="#115B7E" points="36.151,22.378 39.755,12.254 40.632,13.172 37.464,21.788 "/>
<linearGradient id="_66" gradientUnits="userSpaceOnUse" x1="26.17" y1="2.1" x2="30.68" y2="19.53">
<stop stop-color="#D6E6EC" offset="0"/>
<stop stop-color="#5DA6B1" offset="1"/>
</linearGradient>
<path fill="url(#_66)" d="M37.501,7.187l-4-0.919L24.84,5.474l-5.22,13.673l16.613,2.62l3.519-9.514C39.03,10.522,38.352,8.753,37.501,7.187z"/>
<linearGradient id="_67" gradientUnits="userSpaceOnUse" x1="33.49" y1="12.76" x2="40.69" y2="12.86">
<stop stop-color="#5DA6B1" offset="0"/>
<stop stop-color="#4A90A3" offset="0.25"/>
<stop stop-color="#18587F" offset="0.77"/>
<stop stop-color="#003D6D" offset="1"/>
</linearGradient>
<polygon fill="url(#_67)" points="34.951,11.79 33.313,13.229 40.324,13.837 40.386,12.91 "/>
<linearGradient id="_68" gradientUnits="userSpaceOnUse" x1="40.15" y1="7.18" x2="37.44" y2="12.88">
<stop stop-color="#E6EEF4" offset="0"/>
<stop stop-color="#2F8E9A" offset="0.44"/>
<stop stop-color="#003D6D" offset="0.94"/>
</linearGradient>
<polygon fill="url(#_68)" points="40.632,13.172 37.46,7.185 34.501,12.061 "/>
<linearGradient id="_69" gradientUnits="userSpaceOnUse" x1="38.11" y1="61.97" x2="52.5" y2="83.3">
<stop stop-color="#FFFFFF" offset="0"/>
<stop stop-color="#E0EAF3" offset="0.11"/>
<stop stop-color="#A2C2DD" offset="0.35"/>
<stop stop-color="#8CA9CF" offset="0.48"/>
<stop stop-color="#6C83BB" offset="0.7"/>
<stop stop-color="#637DB5" offset="0.75"/>
<stop stop-color="#4C6EA4" offset="0.82"/>
<stop stop-color="#265689" offset="0.91"/>
<stop stop-color="#003D6D" offset="0.99"/>
</linearGradient>
<polygon fill="url(#_69)" points="42.569,71.171 45.39,72.361 45.502,70.33 42.629,69.143 "/>
<polygon fill="url(#_69)" points="45.53,69.801 45.64,67.775 42.704,66.682 42.645,68.618 "/>
<polygon fill="url(#_69)" points="42.554,71.698 42.501,73.534 45.263,74.761 45.362,72.891 "/>
<polygon fill="url(#_69)" points="38.674,67.545 36.194,66.563 36.323,68.611 38.751,69.591 "/>
<polygon fill="url(#_69)" points="42.095,68.428 42.116,66.498 39.268,65.457 39.301,67.309 "/>
<polygon fill="url(#_69)" points="38.584,65.174 36.043,64.26 36.161,66.034 38.653,67.016 "/>
<polygon fill="url(#_69)" points="39.395,72.212 42.039,73.364 42.06,71.523 39.36,70.402 "/>
<polygon fill="url(#_69)" points="38.767,70.123 36.36,69.141 36.472,70.926 38.834,71.936 "/>
<polygon fill="url(#_69)" points="39.313,67.836 39.351,69.873 42.069,70.996 42.088,68.955 "/>
<polygon fill="url(#_69)" points="39.408,72.748 39.44,74.605 42.015,75.807 42.036,73.896 "/>
</svg>