<?xml version="1.0" encoding="UTF-8" standalone="no"?>
<!DOCTYPE svg PUBLIC "-//W3C//DTD SVG 1.1 Tiny//EN" "http://www.w3.org/Graphics/SVG/1.1/DTD/svg11-tiny.dtd">
<svg xmlns="http://www.w3.org/2000/svg" xmlns:xlink="http://www.w3.org/1999/xlink" width="45" height="45" viewBox="0 0 45 45">
<rect fill="none" height="45" width="45"/>
<path d="M13.781,36.872l-0.322-0.068c-0.963-0.205-1.307-0.432-1.42-0.504c-1.33-0.889-2.105-1.9-2.672-2.641 c-0.57-0.754-1.225-2.49-1.225-4.947c0-3.27,1.16-8.326,6.691-13.855c5.553-5.563,10.625-6.729,13.904-6.729 c2.268,0,4.047,0.587,4.805,1.168c0.834,0.64,1.852,1.415,2.729,2.724c0.266,0.418,0.426,1.008,0.518,1.437l0.068,0.324 l-0.061,0.325c-0.211,1.188-1.24,2.568-3.242,4.342c-1.584,1.397-3.24,2.414-4.322,2.652l-0.803,0.176l-0.635-0.521 c-0.258-0.214-0.496-0.462-0.727-0.755c-0.838-1.064-1.063-2.918-1.109-3.486c-0.539-0.199-2.943-0.724-6.525,2.685l-0.119,0.133 c-2.459,2.539-2.977,4.463-2.977,5.629c0,0.504,0.102,0.854,0.162,1.022c0.564,0.05,2.434,0.271,3.494,1.117 c0.281,0.226,0.52,0.451,0.725,0.691l0.553,0.65l-0.191,0.828c-0.197,0.852-0.996,2.43-2.648,4.303 c-1.775,2.01-3.148,3.039-4.324,3.246L13.781,36.872L13.781,36.872z" fill="#FFFFFF"/>
</svg>