<?xml version="1.0" encoding="UTF-8"?>
<!DOCTYPE svg PUBLIC "-//W3C//DTD SVG 1.1 Tiny//EN" "http://www.w3.org/Graphics/SVG/1.1/DTD/svg11-tiny.dtd">
<svg baseProfile="tiny" height="60" version="1.1" viewBox="0 0 60 60" width="60" xmlns="http://www.w3.org/2000/svg" xmlns:xlink="http://www.w3.org/1999/xlink">
<path d="M31.305,14.226V8.627h-3.158v5.444H15.572c-2.629,0-4.766,2.246-4.766,5.008v23.737c0,2.764,2.137,5.011,4.766,5.011h14.619  c2.629,0,4.764-2.247,4.764-5.011V19.08C34.952,16.722,33.391,14.757,31.305,14.226z M31.792,42.816  c0,1.021-0.722,1.851-1.604,1.851H15.569c-0.885,0-1.606-0.83-1.606-1.851V19.08c0-1.021,0.721-1.848,1.606-1.848h14.619  c0.882,0,1.604,0.827,1.604,1.848V42.816z"/>
<rect height="14.794" width="12.36" x="16.782" y="20.666"/>
<path d="M40.247,22.236l-2.233,2.234c5.152,5.146,1.182,9.99-0.043,11.447l2.406,2.042C43.766,34.46,46.025,28.015,40.247,22.236z"/>
<path d="M45.458,16.987l-2.233,2.234c9.68,9.678,0.645,20.284-0.016,21.286l2.407,2.05C46.577,41.301,57.176,28.706,45.458,16.987z"/>
<rect fill="none" height="60" width="60"/>
</svg>
