<?xml version="1.0" encoding="UTF-8"?>
<!DOCTYPE svg PUBLIC "-//W3C//DTD SVG 1.1 Tiny//EN" "http://www.w3.org/Graphics/SVG/1.1/DTD/svg11-tiny.dtd">
<svg baseProfile="tiny" height="44" version="1.1" viewBox="0.383 -0.384 44 44" width="44" xmlns="http://www.w3.org/2000/svg" xmlns:xlink="http://www.w3.org/1999/xlink">
<g>
<rect fill="none" height="44" width="44" x="0.383" y="-0.384"/>
<linearGradient gradientUnits="userSpaceOnUse" id="XMLID_7_" x1="22.2856" x2="22.2856" y1="7.874" y2="35.7495">
<stop offset="0" style="stop-color:#B2B2B2"/>
<stop offset="1" style="stop-color:#000000"/>
</linearGradient>
<path d="M8.896,6.925v29.121h26.778V6.925H8.896z M11.148,9.177h22.273v24.617H11.148V9.177L11.148,9.177z" fill="url(#XMLID_7_)"/>
<linearGradient gradientUnits="userSpaceOnUse" id="XMLID_8_" x1="22.3008" x2="22.3008" y1="7.874" y2="35.749">
<stop offset="0" style="stop-color:#B2B2B2"/>
<stop offset="1" style="stop-color:#000000"/>
</linearGradient>
<rect fill="url(#XMLID_8_)" height="2.003" width="15.657" x="14.473" y="28.451"/>
<rect fill="url(#XMLID_9_)" height="2.004" width="9.248" x="20.882" y="20.716"/>
<rect fill="url(#XMLID_9_)" height="2.002" width="9.248" x="20.882" y="12.981"/>
<linearGradient gradientUnits="userSpaceOnUse" id="XMLID_11_" x1="16.4463" x2="16.4463" y1="7.874" y2="35.749">
<stop offset="0" style="stop-color:#B2B2B2"/>
<stop offset="1" style="stop-color:#000000"/>
</linearGradient>
<polygon fill="url(#XMLID_11_)" points="18.51,10.347 15.638,13.22 14.383,11.966 12.969,13.38 15.638,16.048 19.924,11.761  "/>
<polygon fill="url(#XMLID_11_)" points="18.51,18.134 15.638,21.007 14.383,19.753 12.969,21.167 15.638,23.835 19.924,19.548  "/>
<defs>
<linearGradient gradientUnits="userSpaceOnUse" id="XMLID_9_" x1="25.5059" x2="25.5059" y1="7.874" y2="35.749">
<stop offset="0" style="stop-color:#B2B2B2"/>
<stop offset="1" style="stop-color:#000000"/>
</linearGradient>
</defs>
</g>
</svg>
