<?xml version="1.0" encoding="UTF-8"?>
<!DOCTYPE svg PUBLIC "-//W3C//DTD SVG 1.1 Tiny//EN" "http://www.w3.org/Graphics/SVG/1.1/DTD/svg11-tiny.dtd">
<svg width="12" height="200" viewBox="-0.5 -0.03 12 200">
<path fill-opacity="0.5" fill="#87A8CB" d="M-0.5,119.427v45.086c0,2.906,2.804,5.457,6,5.457s6-2.551,6-5.457v-45.086 c0-1.46-0.681-2.849-1.915-3.909c-1.146-0.983-2.634-1.548-4.085-1.548C2.304,113.97-0.5,116.521-0.5,119.427z"/>
<path fill="#DEE9F3" d="M5.5,168.972c-2.484,0-5-1.998-5-4.459v-45.086c0-2.461,2.516-4.457,5-4.457l0,0c2.487,0,5,1.996,5,4.457 v45.086C10.5,166.974,7.987,168.972,5.5,168.972L5.5,168.972z"/>
</svg>