<?xml version="1.0" encoding="UTF-8" standalone="no"?>
<!DOCTYPE svg PUBLIC "-//W3C//DTD SVG 1.1 Tiny//EN" "http://www.w3.org/Graphics/SVG/1.1/DTD/svg11-tiny.dtd">
<svg xmlns="http://www.w3.org/2000/svg" xmlns:xlink="http://www.w3.org/1999/xlink" baseProfile="tiny" height="32" version="1.1" viewBox="0 0 38.001 32" width="38.001">
<g>
<rect fill="none" height="32" width="38.001"/>
<path d="M19.113,24.65c-0.237-0.054-0.894-0.013-0.976,0.78v0.79c0,0.381,0.263,0.75,0.643,0.785   c0.408,0.038,1.861,0.351,2.699-0.483c0.297-0.295,0.486-0.66,0.579-1.067c0.023,0.031,0.146,0.292,0.63,0.332h1.357   c0.213,0,0.414-0.084,0.565-0.235c0.089-0.089,0.155-0.196,0.192-0.313c0,0,0.166,0.493,0.77,0.549h5.4   c0.543,0.007,0.793-0.493,0.801-0.801v-0.784c0.008-0.299-0.211-0.768-0.801-0.803h-1.062V19c-0.004-0.519-0.473-0.784-0.801-0.801   h-3.406c-0.281,0-0.541,0.146-0.685,0.388l-0.183,0.305c-0.039-0.52-0.58-0.692-0.791-0.692h-1.357   c-0.152,0-0.295,0.059-0.424,0.141c-0.127-0.082-0.27-0.141-0.424-0.141h-2.346c-0.211,0-0.744,0.126-0.799,0.8v0.79   c-0.008,0.489,0.396,0.698,0.492,0.738v4.14C19.163,24.662,19.139,24.656,19.113,24.65z" fill-opacity="0.4" stroke-opacity="0.4"/>
<path d="M6.291,25.424c1.377,0.338,2.896,0.504,4.415,0.518c2.764,0.024,7.483-0.71,7.47-6.901   c-0.006-2.887-1.331-6.496-6.384-6.481c-0.093,0-0.188,0.001-0.286,0.001v-2.429h5.205c0.619,0.007,0.798-0.586,0.798-0.799V6.959   c-0.023-0.431-0.289-0.759-0.798-0.8H7.049c-0.579-0.021-0.801,0.59-0.801,0.8v8.97c0.05,0.365,0.222,0.771,0.874,0.797   c0.79,0.03,3.77-0.525,4.765,0.552c0.378,0.409,0.639,0.967,0.636,1.887c-0.007,2.317-0.944,2.786-2.534,2.806   c-1.005,0.013-2.103-0.204-3.306-0.517c-0.242-0.062-0.901-0.05-1.002,0.773v2.422C5.681,25.014,5.934,25.336,6.291,25.424z" fill-opacity="0.4" stroke-opacity="0.4"/>
<path d="M21.841,19.79h-0.502v5.003c0,1.044-0.576,1.514-1.529,1.514c-0.289,0-0.617-0.035-0.872-0.086v-0.789   c0.181,0.041,0.368,0.074,0.532,0.074c0.404,0,0.52-0.205,0.52-0.656v-5.06h-0.494V19h2.346V19.79z" fill="#FFFFFF"/>
<path d="M27.128,24.987h-1.553l-1.529-3.027v3.027H22.69V19h1.355v2.765L25.706,19h1.342l-1.701,2.657   L27.128,24.987z" fill="#FFFFFF"/>
<path d="M30.974,24.987h-3.217V19h1.355v5.201h1.861V24.987z" fill="#FFFFFF"/>
<path d="M10.706,13.408c0.32-0.049,0.717-0.049,1.086-0.049c3.484,0,5.584,1.902,5.584,5.682   c0,4.101-2.074,6.102-6.67,6.102c-1.457,0-2.916-0.173-4.225-0.494v-2.421c1.236,0.321,2.396,0.544,3.508,0.544   c2.371,0,3.336-1.186,3.336-3.606c0-2.101-1.111-3.36-3.756-3.36c-0.691,0-1.705,0.05-2.52,0.124V6.961h9.66v2.371h-6.004V13.408z" fill="#FFFFFF"/>
</g>
</svg>
