<?xml version="1.0" encoding="UTF-8"?>
<!DOCTYPE svg PUBLIC "-//W3C//DTD SVG 1.1 Tiny//EN" "http://www.w3.org/Graphics/SVG/1.1/DTD/svg11-tiny.dtd">
<svg baseProfile="tiny" version="1.1" xmlns="http://www.w3.org/2000/svg" xmlns:xlink="http://www.w3.org/1999/xlink" width="100%" height="100%" viewBox="0 0 88 88">
<g>
<rect fill="none" width="88" height="88"/>
<linearGradient id="XMLID_12_" gradientUnits="userSpaceOnUse" x1="27.3774" y1="39.7139" x2="18.0004" y2="29.5487">
<stop offset="0" style="stop-color:#A2C2DD"/>
<stop offset="1" style="stop-color:#6C8EB7"/>
</linearGradient>
<path fill="url(#XMLID_12_)" d="M15.476,35.912c1.428-4.867,10.379-5.61,15.5-0.659c-2.156-4.444-5.428-5.3-9.037-5.3   C17.24,29.618,14.638,33.059,15.476,35.912z"/>
<linearGradient id="XMLID_13_" gradientUnits="userSpaceOnUse" x1="15.0063" y1="-0.8345" x2="58.4117" y2="65.3067">
<stop offset="0" style="stop-color:#FFFFFF"/>
<stop offset="0.5337" style="stop-color:#A2C2DD"/>
<stop offset="0.8652" style="stop-color:#6C83BB"/>
<stop offset="1" style="stop-color:#003D6D"/>
</linearGradient>
<path fill="url(#XMLID_13_)" d="M76.804,42.646L76.5,39.431c0.361-9.58-5.779-18.639-16.023-23.549   c-8.725-4.182-13.826-3.498-16.906-2.62l-0.043,0.014c-3.359,1.204-4.605,3.659-5.703,5.826c-0.449,0.884-0.873,1.718-1.406,2.407   c-1.826,2.352-6.219,4.099-12.594,1.282c-3.227-1.427-8.371,0.231-10.162,2.541c-3.992,5.142-5.756,11.005-5.1,16.956l0.975,7.164   l0.018,0.057c6.027,19.011,25.947,24.217,41.906,21.01C65.076,67.78,78.193,58.1,76.804,42.646z M70.74,52.856   c-9.773,12.588-30.35,16.729-45.957,9.246C9.173,54.621,4.441,38.35,14.214,25.761c1.592-2.051,6.354-3.645,9.326-2.33   c6.219,2.748,11.184,1.401,13.43-1.493c1.918-2.471,2.367-6.417,6.793-8.003c3.168-0.904,8.088-1.41,16.41,2.578   C75.781,23.995,80.511,40.265,70.74,52.856z"/>
<linearGradient id="XMLID_14_" gradientUnits="userSpaceOnUse" x1="8.4282" y1="39.5654" x2="76.9046" y2="39.5654">
<stop offset="0" style="stop-color:#E1EBF4"/>
<stop offset="1" style="stop-color:#496DA2"/>
</linearGradient>
<path fill="url(#XMLID_14_)" d="M60.173,16.514c-8.322-3.988-13.242-3.482-16.41-2.578c-4.426,1.585-4.875,5.532-6.793,8.003   c-2.246,2.894-7.211,4.24-13.43,1.493c-2.973-1.314-7.734,0.279-9.326,2.33C4.441,38.35,9.173,54.621,24.783,62.102   c15.607,7.482,36.184,3.342,45.957-9.246C80.511,40.265,75.781,23.995,60.173,16.514z M30.804,37.179   c-0.631,2.982-4.605,4.667-8.877,3.763s-7.225-4.052-6.594-7.034c0.631-2.981,4.605-4.666,8.877-3.763S31.433,34.198,30.804,37.179   z"/>
<linearGradient id="XMLID_15_" gradientUnits="userSpaceOnUse" x1="85.6626" y1="32.1289" x2="16.8186" y2="62.4968">
<stop offset="0" style="stop-color:#FFFFFF"/>
<stop offset="0.5337" style="stop-color:#A2C2DD"/>
<stop offset="0.8652" style="stop-color:#6C83BB"/>
<stop offset="1" style="stop-color:#003D6D"/>
</linearGradient>
<path fill="url(#XMLID_15_)" d="M37.933,42.078L9.234,42.214l0.988,7.083c10.705,33.766,68.684,24.541,65.885-6.589l-0.824-8.73   L37.933,42.078z"/>
<linearGradient id="XMLID_16_" gradientUnits="userSpaceOnUse" x1="9.1274" y1="39.5654" x2="75.8257" y2="39.5654">
<stop offset="0" style="stop-color:#FFFFFF"/>
<stop offset="0.1" style="stop-color:#FFFFFF"/>
<stop offset="0.7" style="stop-color:#D1E1EE"/>
<stop offset="1" style="stop-color:#A2C2DD"/>
</linearGradient>
<path fill="url(#XMLID_16_)" d="M60.173,16.514c-8.322-3.988-13.242-3.482-16.41-2.578c-4.426,1.585-4.875,5.532-6.793,8.003   c-2.246,2.894-7.211,4.24-13.43,1.493c-2.973-1.314-7.734,0.279-9.326,2.33C4.441,38.35,9.173,54.621,24.783,62.102   c15.607,7.482,36.184,3.342,45.957-9.246C80.511,40.265,75.781,23.995,60.173,16.514z M30.804,37.179   c-0.631,2.982-4.605,4.667-8.877,3.763s-7.225-4.052-6.594-7.034c0.631-2.981,4.605-4.666,8.877-3.763S31.433,34.198,30.804,37.179   z"/>
<linearGradient id="XMLID_17_" gradientUnits="userSpaceOnUse" x1="12.2085" y1="242.9648" x2="-5.4823" y2="240.4885" gradientTransform="matrix(1.1364 0 0 -1.1364 49.6606 300.9875)">
<stop offset="0" style="stop-color:#E6EEF4"/>
<stop offset="0.0644" style="stop-color:#DAD9CB"/>
<stop offset="0.2029" style="stop-color:#C3AE79"/>
<stop offset="0.3167" style="stop-color:#B28F3D"/>
<stop offset="0.3999" style="stop-color:#A77B18"/>
<stop offset="0.4438" style="stop-color:#A3740A"/>
<stop offset="0.5594" style="stop-color:#866408"/>
<stop offset="0.7193" style="stop-color:#645107"/>
<stop offset="0.8514" style="stop-color:#4F4505"/>
<stop offset="0.9382" style="stop-color:#474105"/>
<stop offset="1" style="stop-color:#474105"/>
</linearGradient>
<path fill="url(#XMLID_17_)" d="M41.626,25.006c0.453,2.696,3.176,6.352,7.234,5.419c4.309-0.992,5.115-4.036,3.895-7.542   C52.808,23.085,41.626,25.006,41.626,25.006z"/>
<path fill="#B18E3B" d="M47.304,27.884c-3.256,0.145-5.811-1.533-5.904-3.861c-0.105-2.481,2.287-4.733,5.545-4.877   c3.193-0.141,5.791,1.714,5.889,4.144C52.929,25.617,50.429,27.746,47.304,27.884z"/>
<g>
<linearGradient id="XMLID_18_" gradientUnits="userSpaceOnUse" x1="23.6128" y1="235.833" x2="5.1716" y2="233.2516" gradientTransform="matrix(1.1364 0 0 -1.1364 49.6606 300.9875)">
<stop offset="0" style="stop-color:#E6EEF4"/>
<stop offset="0.1291" style="stop-color:#CBB5DB"/>
<stop offset="0.277" style="stop-color:#AE79C2"/>
<stop offset="0.3862" style="stop-color:#9D54B2"/>
<stop offset="0.4438" style="stop-color:#9646AC"/>
<stop offset="0.6009" style="stop-color:#70297E"/>
<stop offset="0.7438" style="stop-color:#54135C"/>
<stop offset="0.861" style="stop-color:#430647"/>
<stop offset="0.9382" style="stop-color:#3D013F"/>
<stop offset="1" style="stop-color:#3D013F"/>
</linearGradient>
<path fill="url(#XMLID_18_)" d="M53.656,33.115c0.473,2.811,3.311,6.622,7.541,5.649c4.492-1.034,5.332-4.208,4.061-7.863    C65.312,31.113,53.656,33.115,53.656,33.115z"/>
<path fill="#A15EB6" d="M59.574,36.116c-3.395,0.15-6.057-1.598-6.156-4.026c-0.107-2.586,2.385-4.935,5.783-5.084    c3.328-0.147,6.035,1.787,6.139,4.32C65.439,33.752,62.833,35.972,59.574,36.116z"/>
</g>
<g>
<linearGradient id="XMLID_19_" gradientUnits="userSpaceOnUse" x1="8.9048" y1="228.9873" x2="-10.4694" y2="226.2753" gradientTransform="matrix(1.1364 0 0 -1.1364 49.6606 300.9875)">
<stop offset="0" style="stop-color:#E6EEF4"/>
<stop offset="0.0772" style="stop-color:#C6DCC1"/>
<stop offset="0.211" style="stop-color:#91C06F"/>
<stop offset="0.321" style="stop-color:#6BAB33"/>
<stop offset="0.4014" style="stop-color:#539E0E"/>
<stop offset="0.4438" style="stop-color:#4A9900"/>
<stop offset="0.5475" style="stop-color:#398419"/>
<stop offset="0.7125" style="stop-color:#22663B"/>
<stop offset="0.8486" style="stop-color:#135550"/>
<stop offset="0.9382" style="stop-color:#0E4E58"/>
<stop offset="1" style="stop-color:#0E4E58"/>
</linearGradient>
<path fill="url(#XMLID_19_)" d="M35.787,40.899c0.498,2.954,3.48,6.958,7.924,5.936c4.717-1.085,5.602-4.421,4.266-8.26    C48.033,38.797,35.787,40.899,35.787,40.899z"/>
<path fill="#58A015" d="M42.007,44.053c-3.566,0.157-6.365-1.679-6.469-4.229c-0.113-2.717,2.504-5.184,6.076-5.341    c3.494-0.155,6.338,1.877,6.445,4.539C48.166,41.57,45.427,43.902,42.007,44.053z"/>
</g>
<linearGradient id="XMLID_20_" gradientUnits="userSpaceOnUse" x1="7.4263" y1="79.4077" x2="28.9279" y2="68.6354">
<stop offset="0" style="stop-color:#E6EEF4"/>
<stop offset="0.4438" style="stop-color:#C03A3A"/>
<stop offset="1" style="stop-color:#302D02"/>
</linearGradient>
<path fill="url(#XMLID_20_)" fill-opacity="0.4" d="M79.056,40.157L15.955,72.639c0.104,4.553,5.793,2.896,5.793,2.896   s6-3.207,6.826-4.965l1.967,0.621l47.896-28.035C79.677,42.226,79.056,40.157,79.056,40.157z"/>
<g>
<linearGradient id="XMLID_21_" gradientUnits="userSpaceOnUse" x1="5208.9663" y1="829.624" x2="5199.6377" y2="839.5488" gradientTransform="matrix(-0.9503 -0.3112 -0.3112 0.9503 5259.895 877.9302)">
<stop offset="0" style="stop-color:#E6EEF4"/>
<stop offset="0.0644" style="stop-color:#DAD9CB"/>
<stop offset="0.2029" style="stop-color:#C3AE79"/>
<stop offset="0.3167" style="stop-color:#B28F3D"/>
<stop offset="0.3999" style="stop-color:#A77B18"/>
<stop offset="0.4438" style="stop-color:#A3740A"/>
<stop offset="0.5594" style="stop-color:#866408"/>
<stop offset="0.7193" style="stop-color:#645107"/>
<stop offset="0.8514" style="stop-color:#4F4505"/>
<stop offset="0.9382" style="stop-color:#474105"/>
<stop offset="1" style="stop-color:#474105"/>
</linearGradient>
<path fill="url(#XMLID_21_)" d="M26.437,61.521L78.13,37.909c2.471-1.541,4.861,1.264,1.67,3.125L30.359,69.399L26.437,61.521z"/>
<path fill="#D7D2BE" d="M30.359,69.399c1.117-0.555,1.143-2.791,0.049-4.992c-1.096-2.204-2.887-3.539-4.008-2.984    c-1.115,0.557-1.141,2.789-0.043,4.992C27.447,68.618,29.244,69.952,30.359,69.399z"/>
<linearGradient id="XMLID_22_" gradientUnits="userSpaceOnUse" x1="5224.4517" y1="856.4014" x2="5240.6831" y2="870.1143" gradientTransform="matrix(-0.9503 -0.3112 -0.3112 0.9503 5259.895 877.9302)">
<stop offset="0" style="stop-color:#E6EEF4"/>
<stop offset="0.1531" style="stop-color:#D7A6A9"/>
<stop offset="0.2903" style="stop-color:#CA6C6D"/>
<stop offset="0.3908" style="stop-color:#C34848"/>
<stop offset="0.4438" style="stop-color:#C03A3A"/>
<stop offset="0.5273" style="stop-color:#9E372D"/>
<stop offset="0.6603" style="stop-color:#6F331B"/>
<stop offset="0.778" style="stop-color:#4D300D"/>
<stop offset="0.8747" style="stop-color:#382E05"/>
<stop offset="0.9382" style="stop-color:#302D02"/>
<stop offset="1" style="stop-color:#302D02"/>
</linearGradient>
<path fill="url(#XMLID_22_)" d="M27.308,63.536c1.514,0.282,3.07,2.832,1.986,4.266c-1.08,1.434-6.51,5.5-8.564,6.224    c-4.178,1.472-8.537,0.238-8.537,0.238s0.68-6.253,4.381-8.347C18.691,64.717,25.613,63.223,27.308,63.536z"/>
<path fill="#6D5607" d="M29.294,67.801c0.881-0.977,0.221-3.094-1.525-4.182l-0.578-0.125c2.006,2.135,2.447,3.62,1.604,4.874    L29.294,67.801z"/>
</g>
</g>
</svg>
