<?xml version="1.0" encoding="UTF-8" standalone="no"?>
<!DOCTYPE svg PUBLIC "-//W3C//DTD SVG 1.1 Tiny//EN" "http://www.w3.org/Graphics/SVG/1.1/DTD/svg11-tiny.dtd">
<svg xmlns="http://www.w3.org/2000/svg" xmlns:xlink="http://www.w3.org/1999/xlink" baseProfile="tiny" height="32px" version="1.1" viewBox="0 0 38.001 32" width="38.001px" x="0px" y="0px">
<g>
<rect fill="none" height="32" width="38.001"/>
<path d="M31.735,18.199h-7.309c-0.69,0-0.803,0.59-0.803,0.8v0.395c-0.164-0.233-0.685-1.194-2.766-1.194h-1.699   c-0.209,0-0.799,0.124-0.799,0.801v5.999c0,0.715,0.59,0.801,0.799,0.801l1.648,0.001c2.163,0,2.641-1.035,2.816-1.294v0.492   c0,0.211,0.112,0.802,0.803,0.802h5.423c0.684,0,0.8-0.588,0.8-0.802v-1.87h0.666c0.671,0,0.799-0.586,0.799-0.8v-0.792   c0-0.21-0.097-0.8-0.799-0.8h-0.666v-0.149l1.086-0.015c0.61,0,0.8-0.57,0.8-0.784v-0.79   C32.535,18.789,32.564,18.199,31.735,18.199z" fill-opacity="0.4" stroke-opacity="0.4"/>
<path d="M5.913,25.399c1.438,0.381,11.902,2.908,11.999-5.74c0.021-1.831-0.829-3.41-2.31-4.301   c1.282-0.926,2.04-2.356,2.012-4.072c0.02-1.857-0.461-6.877-11.146-4.654C6.11,6.706,5.862,7.04,5.862,7.407v2.396   c0,0.879,0.768,0.837,1.009,0.772c1.175-0.32,5.142-1.56,5.142,0.958c0,2.073-2.501,2.023-4.313,2.015   c-0.212,0-0.802,0.116-0.802,0.802v2.273c0,0.586,0.59,0.799,0.802,0.799c1.864-0.009,4.536-0.349,4.536,2.313   c0,3.575-4.458,2.062-5.937,1.715c-0.235-0.056-0.981-0.038-0.981,0.779v2.397C5.317,24.987,5.563,25.306,5.913,25.399z" fill-opacity="0.4" stroke-opacity="0.4"/>
<path d="M20.857,19c0.857,0,1.316,0.148,1.68,0.41c1.14,0.813,1.366,4.136-0.059,5.152   C22.102,24.833,21.641,25,20.75,25h-1.59v-6H20.857z M20.881,24.2c0.402,0,0.65-0.141,0.801-0.33   c0.508-0.616,0.616-3.521-0.281-3.98c-0.141-0.065-0.281-0.107-0.576-0.107H20.52V24.2H20.881z" fill="#FFFFFF"/>
<path d="M27.705,25h-3.279v-6h3.246v0.79h-1.887v1.567h1.508v0.79h-1.508v2.061h1.92V25z" fill="#FFFFFF"/>
<path d="M31.735,19.79h-1.885v1.748h1.465v0.792h-1.465V25h-1.359v-6h3.244V19.79z" fill="#FFFFFF"/>
<path d="M10.17,9.187c-1.137,0-2.322,0.297-3.508,0.617V7.408c1.284-0.321,2.791-0.593,4.323-0.593   c3.385,0,5.83,1.136,5.83,4.471c0,2.1-1.161,3.533-3.261,4.175c2.297,0.42,3.558,2.001,3.558,4.2c0,3.952-2.422,5.533-6.671,5.533   c-1.729,0-2.915-0.197-4.323-0.567V22.23c1.482,0.346,2.644,0.593,3.756,0.593c2.272,0,3.162-1.087,3.162-3.088   c0-2.545-1.532-3.113-5.337-3.113V14.35c3.706,0,5.114-0.568,5.114-2.816C12.813,9.928,11.924,9.187,10.17,9.187z" fill="#FFFFFF"/>
</g>
</svg>
