<?xml version="1.0" encoding="UTF-8"?>
<!DOCTYPE svg PUBLIC "-//W3C//DTD SVG 1.1 Tiny//EN" "http://www.w3.org/Graphics/SVG/1.1/DTD/svg11-tiny.dtd">
<svg width="84" height="58" viewBox="-0.684 0.033 84 58">
<linearGradient id="_28" gradientUnits="userSpaceOnUse" x1="41.35" y1="25.76" x2="54.11" y2="50.91">
<stop stop-color="#A2C2DD" offset="0.1"/>
<stop stop-color="#6C83BB" offset="0.71"/>
<stop stop-color="#003D6D" offset="0.99"/>
</linearGradient>
<path fill="url(#_28)" d="M17.84,5.893l2.643,9.743c0,0,3.709,2.061,4.021,2.234c0.019,0.355,0.36,6.962,0.386,7.465 c-0.455,0.131-3.514,1.014-3.514,1.014s0.545,9.155,0.564,9.483c-1.842,1.255-2.856,3.416-2.856,6.184 c0.095,3.854,2.217,7.24,5.023,8.895c2.214,1.305,4.762,1.563,6.814,0.688c0,0,3.637-1.958,3.893-2.096 c0.284,0.1,12.518,4.367,12.518,4.367l9.995-4.783c0,0,0.156-5.095,0.169-5.486c0.362-0.176,7.924-3.848,7.924-3.848 s0.182-4.661,0.198-5.105c3.019-0.725,5.935-4.49,5.935-9.903c0-0.185-0.004-0.372-0.011-0.56l-0.002-0.031 c-0.458-3.646-2.271-5.888-4.849-5.994c0,0-2.448-0.492-2.627-0.528c-0.137-0.125-2.984-2.727-2.984-2.727 s-25.483-5.159-25.637-5.19c-0.124-0.092-6.413-4.794-6.413-4.794l-3.767-1.09L17.84,5.893z"/>
<linearGradient id="_29" gradientUnits="userSpaceOnUse" x1="36.29" y1="14.29" x2="111.56" y2="20.73">
<stop stop-color="#D6E6EC" offset="0"/>
<stop stop-color="#298595" offset="1"/>
</linearGradient>
<polygon fill="url(#_29)" points="60.915,15.227 35.459,9.992 24.592,13.282 50.024,19.7 "/>
<linearGradient id="_30" gradientUnits="userSpaceOnUse" x1="27.93" y1="7.8" x2="48.73" y2="25.01">
<stop stop-color="#D6E6EC" offset="0"/>
<stop stop-color="#298595" offset="1"/>
</linearGradient>
<polygon fill="url(#_30)" points="22.331,7.135 28.871,5.238 36.718,11.104 30.509,13.272 "/>
<linearGradient id="_31" gradientUnits="userSpaceOnUse" x1="19.95" y1="0.27" x2="42.76" y2="30.52">
<stop stop-color="#D6E6EC" offset="0"/>
<stop stop-color="#298595" offset="1"/>
</linearGradient>
<polygon fill="url(#_31)" points="24.667,13.309 27.38,12.531 30.509,13.272 22.331,7.135 24.836,17.521 25.702,34.299 54.988,44.428 55.492,20.998 "/>
<linearGradient id="_32" gradientUnits="userSpaceOnUse" x1="18.27" y1="5.66" x2="28.87" y2="5.66">
<stop stop-color="#D6E6EC" offset="0"/>
<stop stop-color="#298595" offset="1"/>
</linearGradient>
<polygon fill="url(#_32)" points="25.261,4.193 18.269,6.137 22.331,7.135 28.871,5.238 "/>
<linearGradient id="_33" gradientUnits="userSpaceOnUse" x1="15.5" y1="-4.87" x2="22.87" y2="14.78">
<stop stop-color="#D6E6EC" offset="0"/>
<stop stop-color="#298595" offset="1"/>
</linearGradient>
<polygon fill="url(#_33)" points="18.269,6.137 20.781,15.401 24.873,17.674 22.331,7.135 "/>
<linearGradient id="_34" gradientUnits="userSpaceOnUse" x1="70.12" y1="35.96" x2="58.52" y2="30.79">
<stop stop-color="#E6EEF4" offset="0"/>
<stop stop-color="#2F8E9A" offset="0.44"/>
<stop stop-color="#003D6D" offset="0.94"/>
</linearGradient>
<polygon fill="url(#_34)" points="54.988,44.428 55.407,24.45 65.881,18.858 65.077,39.529 "/>
<polygon fill="#FFFFFF" points="56.736,14.992 50.547,17.326 45.213,16.226 51.931,14.021 "/>
<polygon fill="#5DA6B1" points="50.5,18.105 45.185,16.792 45.213,16.226 50.547,17.326 "/>
<polygon fill="#115B7E" points="50.547,17.326 50.5,18.105 56.97,15.428 56.761,14.973 "/>
<linearGradient id="_35" gradientUnits="userSpaceOnUse" x1="28.05" y1="16.11" x2="28.53" y2="18.4">
<stop stop-color="#E6EEF4" offset="0"/>
<stop stop-color="#2F8E9A" offset="0.44"/>
<stop stop-color="#003D6D" offset="0.94"/>
</linearGradient>
<path fill="url(#_35)" d="M30.187,17.694c0.684,2.405-2.874,2.613-3.556,0.21C25.949,15.497,29.507,15.291,30.187,17.694z"/>
<linearGradient id="_36" gradientUnits="userSpaceOnUse" x1="27.78" y1="16.45" x2="28.21" y2="19.1">
<stop stop-color="#D6E6EC" offset="0"/>
<stop stop-color="#298595" offset="1"/>
</linearGradient>
<path fill="url(#_36)" d="M29.401,18.004c0.548,1.979-2.163,2.149-2.711,0.173C26.187,16.345,28.899,16.17,29.401,18.004z"/>
<linearGradient id="_37" gradientUnits="userSpaceOnUse" x1="33.59" y1="17.81" x2="34.13" y2="20.51">
<stop stop-color="#E6EEF4" offset="0"/>
<stop stop-color="#2F8E9A" offset="0.44"/>
<stop stop-color="#003D6D" offset="0.94"/>
</linearGradient>
<path fill="url(#_37)" d="M36.103,19.678c0.804,2.851-3.41,3.092-4.224,0.249C31.069,17.067,35.292,16.822,36.103,19.678z"/>
<linearGradient id="_38" gradientUnits="userSpaceOnUse" x1="33.24" y1="18.14" x2="33.77" y2="21.34">
<stop stop-color="#D6E6EC" offset="0"/>
<stop stop-color="#298595" offset="1"/>
</linearGradient>
<path fill="url(#_38)" d="M35.197,20.02c0.657,2.373-2.598,2.58-3.253,0.206C31.334,18.009,34.588,17.802,35.197,20.02z"/>
<polygon fill="#BFDAE1" points="55.328,27.065 49.729,19.576 60.915,15.227 63.92,17.973 "/>
<linearGradient id="_39" gradientUnits="userSpaceOnUse" x1="62.37" y1="20.66" x2="59.22" y2="31.49">
<stop stop-color="#E6EEF4" offset="0"/>
<stop stop-color="#2F8E9A" offset="0.44"/>
<stop stop-color="#003D6D" offset="0.94"/>
</linearGradient>
<path fill="url(#_39)" d="M66.746,18.521l-3.858-0.77c-6.999-0.291-9.502,11.209-4.033,14.889l4.821,1.747L66.746,18.521z"/>
<path fill="#115B7E" d="M59.736,28.724c1.761,10.138,11.831,5.741,11.455-4.528C69.921,14.057,58.957,18.62,59.736,28.724z"/>
<linearGradient id="_40" gradientUnits="userSpaceOnUse" x1="61.49" y1="36.78" x2="69.81" y2="20.02">
<stop stop-color="#E6EEF4" offset="0"/>
<stop stop-color="#2F8E9A" offset="0.44"/>
<stop stop-color="#003D6D" offset="0.94"/>
</linearGradient>
<path fill="url(#_40)" d="M63.205,32.717c6.651,3.221,10.382-13.776,2.542-12.698L63.205,32.717z"/>
<linearGradient id="_41" gradientUnits="userSpaceOnUse" x1="67.01" y1="25.04" x2="61.97" y2="27.69">
<stop stop-color="#D6E6EC" offset="0"/>
<stop stop-color="#298595" offset="1"/>
</linearGradient>
<path fill="url(#_41)" d="M65.766,20.02c-4.269,0.881-6.681,9.782-2.513,12.716C67.665,31.6,69.759,22.412,65.766,20.02z"/>
<linearGradient id="_42" gradientUnits="userSpaceOnUse" x1="14.69" y1="23.83" x2="55.47" y2="31.43">
<stop stop-color="#FFFFFF" offset="0.15"/>
<stop stop-color="#A2C2DD" offset="1"/>
</linearGradient>
<polygon fill="url(#_42)" points="57.535,29.37 30.313,24.134 21.741,26.608 47.778,32.598 "/>
<linearGradient id="_43" gradientUnits="userSpaceOnUse" x1="42.64" y1="24.6" x2="31.44" y2="45.89">
<stop stop-color="#FFFFFF" offset="0.05"/>
<stop stop-color="#A2C2DD" offset="1"/>
</linearGradient>
<polygon fill="url(#_43)" points="22.84,45.059 21.741,26.608 47.778,32.598 47.338,53.391 "/>
<linearGradient id="_44" gradientUnits="userSpaceOnUse" x1="52.29" y1="25.68" x2="52.63" y2="59.27">
<stop stop-color="#FFFFFF" offset="0"/>
<stop stop-color="#A2C2DD" offset="0.35"/>
<stop stop-color="#6C83BB" offset="0.7"/>
<stop stop-color="#003D6D" offset="1"/>
</linearGradient>
<polygon fill="url(#_44)" points="47.311,53.491 56.982,48.862 57.583,29.392 47.595,32.539 "/>
<linearGradient id="_45" gradientUnits="userSpaceOnUse" x1="30.72" y1="26.88" x2="46.41" y2="26.88">
<stop stop-color="#FFFFFF" offset="0.05"/>
<stop stop-color="#A2C2DD" offset="1"/>
</linearGradient>
<polygon fill="url(#_45)" points="37.691,28.718 30.721,26.997 39.013,25.032 46.409,26.082 "/>
<linearGradient id="_46" gradientUnits="userSpaceOnUse" x1="31.21" y1="33.39" x2="33.86" y2="51.06">
<stop stop-color="#FFFFFF" offset="0"/>
<stop stop-color="#A2C2DD" offset="0.35"/>
<stop stop-color="#6C83BB" offset="0.7"/>
<stop stop-color="#003D6D" offset="1"/>
</linearGradient>
<path fill="url(#_46)" d="M30.111,32.642c-3.287,1.261-7.006,2.958-7.006,2.958l7.688,15.693l7.421-4.04 C44.321,42.445,38.741,30.294,30.111,32.642z"/>
<linearGradient id="_47" gradientUnits="userSpaceOnUse" x1="27.66" y1="31.7" x2="37.75" y2="31.7">
<stop stop-color="#FFFFFF" offset="0.05"/>
<stop stop-color="#A2C2DD" offset="1"/>
</linearGradient>
<path fill="url(#_47)" d="M34.86,36.359l2.887-7.752l-6.869-1.569l-3.222,6.541C30.391,33.334,33.222,34.749,34.86,36.359z"/>
<linearGradient id="_48" gradientUnits="userSpaceOnUse" x1="43.79" y1="28.79" x2="51.27" y2="30.54">
<stop stop-color="#FFFFFF" offset="0"/>
<stop stop-color="#A2C2DD" offset="0.35"/>
<stop stop-color="#6C83BB" offset="0.7"/>
<stop stop-color="#003D6D" offset="1"/>
</linearGradient>
<path fill="url(#_48)" d="M51.685,30.167c-0.766,1.624-7.31,0.892-6.51-0.526C46.048,28.093,52.442,28.564,51.685,30.167z"/>
<linearGradient id="_49" gradientUnits="userSpaceOnUse" x1="47.04" y1="28.39" x2="49.73" y2="30.21">
<stop stop-color="#FFFFFF" offset="0.05"/>
<stop stop-color="#A2C2DD" offset="1"/>
</linearGradient>
<path fill="url(#_49)" d="M51.242,29.539c-0.682,1.11-6.235,0.506-5.559-0.387C46.578,27.969,51.792,28.643,51.242,29.539z"/>
<linearGradient id="_50" gradientUnits="userSpaceOnUse" x1="53.38" y1="36.11" x2="24.75" y2="25.13">
<stop stop-color="#FFFFFF" offset="0"/>
<stop stop-color="#A2C2DD" offset="0.35"/>
<stop stop-color="#6C83BB" offset="0.7"/>
<stop stop-color="#003D6D" offset="1"/>
</linearGradient>
<polygon fill="url(#_50)" points="34.86,36.359 37.747,28.607 46.409,26.082 50.211,27.938 47.703,27.455 38.303,30.451 38.107,35.111 "/>
<linearGradient id="_51" gradientUnits="userSpaceOnUse" x1="16" y1="58.49" x2="30.62" y2="38.33">
<stop stop-color="#FFFFFF" offset="0.05"/>
<stop stop-color="#A2C2DD" offset="1"/>
</linearGradient>
<path fill="url(#_51)" d="M34.438,44.308c0.339,10.973-13.842,9.366-14.994-1.776C18.958,31.536,33.688,33.121,34.438,44.308 z"/>
<linearGradient id="_52" gradientUnits="userSpaceOnUse" x1="40.12" y1="50.84" x2="13.77" y2="37.47">
<stop stop-color="#FFFFFF" offset="0"/>
<stop stop-color="#A2C2DD" offset="0.35"/>
<stop stop-color="#6C83BB" offset="0.7"/>
<stop stop-color="#003D6D" offset="1"/>
</linearGradient>
<path fill="url(#_52)" d="M31.414,49.205c-7.727,5.514-15.736-10.086-6.738-12.543L31.414,49.205z"/>
<polygon fill="#87A8CB" points="40.939,33.119 40.813,36.503 45.894,37.982 46.021,34.34 "/>
<polygon fill="#FFFFFF" points="41.647,34.114 41.5,36.705 45.894,37.982 45.959,35.106 "/>
<linearGradient id="_53" gradientUnits="userSpaceOnUse" x1="24.57" y1="34.69" x2="30.71" y2="49.91">
<stop stop-color="#FFFFFF" offset="0.05"/>
<stop stop-color="#A2C2DD" offset="1"/>
</linearGradient>
<path fill="url(#_53)" d="M24.652,36.646c7.472-1.286,10.9,9.64,6.704,12.579C25.568,50.743,19.274,41.297,24.652,36.646z"/>
<path fill="#FFFFFF" d="M13.023,34.532c-2.773,0-6.576,0.658-7.539,6.354L5.34,41.745c0,0,6.393,0,7.15,0 c0.23,0.41,0.57,1.025,0.787,1.42c-0.217,0.393-0.557,1.008-0.787,1.42c-0.758,0-7.15,0-7.15,0l0.145,0.857 c0.963,5.693,4.766,6.352,7.539,6.352c2.189,0,4.139-1.834,5.705-3.311c0.846-0.799,1.646-1.549,2.068-1.549h19.58l0.219-0.24 c0.42-0.463,1.395-1.727,1.418-3.5v-0.063c-0.021-1.771-0.998-3.037-1.418-3.498l-0.219-0.24h-19.58 c-0.422,0-1.223-0.75-2.066-1.545C17.162,36.368,15.213,34.532,13.023,34.532z"/>
<linearGradient id="_54" gradientUnits="userSpaceOnUse" x1="11.69" y1="29.9" x2="32.8" y2="55.3">
<stop stop-color="#E6EDF3" offset="0"/>
<stop stop-color="#CABAD7" offset="0.12"/>
<stop stop-color="#AB7EB8" offset="0.27"/>
<stop stop-color="#9759A4" offset="0.38"/>
<stop stop-color="#8F4B9C" offset="0.44"/>
<stop stop-color="#73357C" offset="0.57"/>
<stop stop-color="#551D5A" offset="0.72"/>
<stop stop-color="#430E45" offset="0.85"/>
<stop stop-color="#3C093D" offset="0.94"/>
</linearGradient>
<path fill="url(#_54)" d="M41.281,43.165c0-0.008,0.002-0.018,0.002-0.021h-0.004c-0.018-1.543-0.902-2.658-1.229-3.014 c-0.412,0-19.254,0-19.254,0c-0.717,0-1.494-0.732-2.574-1.748c-1.471-1.387-3.301-3.111-5.199-3.111 c-3.078,0-5.994,0.904-6.811,5.738c1.156,0,6.713,0,6.713,0l1.193,2.156l-1.193,2.154c0,0-5.557,0-6.713,0 c0.814,4.834,3.73,5.738,6.811,5.738c1.898,0,3.729-1.727,5.199-3.111c1.08-1.014,1.857-1.748,2.574-1.748c0,0,18.842,0,19.254,0 c0.324-0.354,1.211-1.469,1.229-3.012h0.004C41.283,43.179,41.281,43.171,41.281,43.165z"/>
</svg>