<?xml version="1.0" encoding="UTF-8"?>
<!DOCTYPE svg PUBLIC "-//W3C//DTD SVG 1.1 Tiny//EN" "http://www.w3.org/Graphics/SVG/1.1/DTD/svg11-tiny.dtd">
<svg baseProfile="tiny" height="26px" style="enable-background:new 0 0 26 26;" version="1.1" viewBox="0 0 26 26" width="26px" x="0px" xmlns="http://www.w3.org/2000/svg" xmlns:xlink="http://www.w3.org/1999/xlink" y="0px">
<rect height="26" style="fill:none;" width="26"/>
<path d="M26,22.664C26,24.507,24.506,26,22.664,26H3.336C1.494,26,0,24.507,0,22.664V3.336  C0,1.494,1.494,0,3.336,0h19.328C24.506,0,26,1.494,26,3.336V22.664z" style="opacity:0.5;"/>
<path d="M12.979,23.4l-3.799-3.798l3.798-3.801v2.434c0.01,0,0.013,0.001,0.022,0.001  c2.877,0,5.219-2.339,5.219-5.219c0-1.656-0.776-3.132-1.986-4.088l1.98-1.978c1.707,1.469,2.788,3.639,2.788,6.067  c0.001,4.417-3.579,8.004-8.002,8.004c-0.01,0-0.012,0-0.021-0.002L12.979,23.4 M7.76,19.056c-1.688-1.466-2.762-3.623-2.762-6.038  c0-4.42,3.583-8.001,8.006-8.001V2.6L16.801,6.4l-3.796,3.798l-0.003-2.399c-2.878,0-5.221,2.341-5.221,5.219  c0,1.644,0.763,3.106,1.952,4.064L7.76,19.056 M13.63,24.969V23.4l-0.001-1.75c2.075-0.148,4.006-1.028,5.49-2.514  c1.634-1.635,2.533-3.809,2.533-6.119c0-2.52-1.099-4.912-3.015-6.559l-0.457-0.394l-0.427,0.426L15.774,8.47l-0.518,0.516  l0.574,0.453c1.104,0.874,1.739,2.179,1.739,3.579c0,2.307-1.718,4.219-3.941,4.526v-1.742v-1.569l-1.109,1.109l-3.799,3.802  l-0.459,0.459l0.459,0.46l3.799,3.797L13.63,24.969L13.63,24.969z M7.791,19.943l0.428-0.428l1.973-1.975l0.512-0.512l-0.564-0.454  c-1.086-0.875-1.709-2.171-1.709-3.557c0-1.218,0.476-2.365,1.34-3.229c0.709-0.709,1.608-1.157,2.581-1.294l0.002,1.704  l0.002,1.567l1.107-1.108l3.797-3.798l0.46-0.459l-0.46-0.459L13.464,2.14l-1.11-1.111V2.6l0,1.791  C10.286,4.543,8.363,5.42,6.882,6.9c-1.634,1.634-2.535,3.807-2.535,6.118c0,2.5,1.088,4.879,2.986,6.528L7.791,19.943L7.791,19.943  z" style="opacity:0.4;"/>
<path d="M13.001,7.799l0.003,2.399L16.801,6.4L13.004,2.6v2.417l0,0c-4.423,0-8.006,3.581-8.006,8.001  c0,2.415,1.075,4.572,2.762,6.038l1.973-1.974c-1.189-0.958-1.952-2.42-1.952-4.064C7.78,10.141,10.123,7.799,13.001,7.799  L13.001,7.799L13.001,7.799z M12.979,23.4l0-2.38c0.009,0.002,0.011,0.002,0.021,0.002c4.423,0,8.003-3.587,8.002-8.004  c0-2.428-1.081-4.598-2.788-6.067l-1.98,1.978c1.21,0.956,1.986,2.433,1.986,4.088c0,2.88-2.342,5.219-5.219,5.219  c-0.009,0-0.012-0.001-0.022-0.001v-2.434l-3.798,3.801L12.979,23.4L12.979,23.4z" style="fill:#FFFFFF;"/>
</svg>
