<?xml version="1.0" encoding="UTF-8"?>
<!DOCTYPE svg PUBLIC "-//W3C//DTD SVG 1.1 Tiny//EN" "http://www.w3.org/Graphics/SVG/1.1/DTD/svg11-tiny.dtd">
<svg width="84" height="72" viewBox="0 0 84 72">
<linearGradient id="_4" gradientUnits="userSpaceOnUse" x1="31.13" y1="23.06" x2="52.26" y2="48.46">
<stop stop-color="#B3DDFF" offset="0"/>
<stop stop-color="#084296" offset="1"/>
</linearGradient>
<circle cx="41.793" cy="35.881" fill="url(#_4)" r="28.272"/>
<radialGradient id="_5" gradientUnits="userSpaceOnUse" cx="47.02" cy="18.97" r="48.7">
<stop stop-color="#B3DDFF" offset="0"/>
<stop stop-color="#5AA7E0" offset="0.53"/>
<stop stop-color="#0046B7" offset="1"/>
</radialGradient>
<circle cx="41.823" cy="35.94" fill="url(#_5)" r="26.322"/>
<path d="M28.593,13.146c-1.198,0.711-4.397,2.976-4.442,3.865c-0.043,0.888,0.918-1.043,1.823-0.712 c0.177,0,1.282-1.55,3.331-2.532c0.891-0.846,2.492-0.357,2.492-0.357s4.752-1.775,4.486-1.331 c-0.724,1.212-4.533,1.909-5.111,2.177c-0.578,0.266-3.777,2.399-1.111,1.555c0.49-0.045,1.865-0.088,2.533,0.136 c0.669,0.221,1.756-0.946,3.066-0.669c0.535-0.268,1.602-0.844,1.867-0.844s1.246-0.09,1.199-1.244c0,0,0.717-1.627,0.935-2.267 c0.597-0.164,1.287-1.11,1.287-1.11c-1.864-0.266-6.354,0.935-7.019,1.11C33.793,11.055,30.016,12.791,28.593,13.146z" fill="#5AA7E0"/>
<path d="M43.394,54.116l-0.891,0.623c0,0-0.819,0.015-0.932,0.356c-0.402,1.235-0.267,2.885,0.709,2.664 c0.979-0.224,1.245-1.689,1.245-1.689S44.504,53.895,43.394,54.116z" fill="#0046B7"/>
<path d="M63.213,40.252c0,0,0.887,1.731,0.267,1.821c-0.623,0.089-1.066,0-0.357,0.933 c0.71,0.934,1.688,1.733,1.688,1.733s0.979,0,1.421-0.8c-0.354,0-1.064,0.311-1.288-0.443c-0.221-0.756-0.664-1.111-0.664-1.111 v-1.378L63.213,40.252z" fill="#0046B7"/>
<path d="M66.81,37.852c0,0-0.31,1.335-0.754,2.489c-0.445,1.155,0.488,1.821,0.488,1.821s0.934-0.845,1.065-3.11 C67.745,36.784,66.81,37.852,66.81,37.852z" fill="#0046B7"/>
<path d="M66.676,32.921l0.579,1.42l0.179,1.066l0.222-1.332C67.655,34.075,66.676,32.298,66.676,32.921z" fill="#0046B7"/>
<radialGradient id="_6" gradientUnits="userSpaceOnUse" cx="47.09" cy="22.05" r="29.88">
<stop stop-color="#5AA7E0" offset="0"/>
<stop stop-color="#0046B7" offset="1"/>
</radialGradient>
<path d="M55.17,13.723l1.376,2.979l3.199,1.154c0,0,0.802,0.975,1.068,1.2 c0.399,1.778,1.288,3.688,1.464,3.776c0.178,0.088,0.98,0.355,1.246,0.311c0.177,0.979-0.089,0.979-0.089,0.979l-1.288-0.623 l0.53,2.18l2.49,4.221c-0.311,0.666-1.512,4.62-1.512,4.62s1.559,1.422,1.336,2.979c-2.11,0.409-2.227,1.021-2.227,1.021 s-1.729-1.065-1.863-1.513c-0.935-1.51-2.178-1.02-2.535-0.266c-1.72,3.671-1.813,3.301-1.554,5.645 c0.935,1.379,0.398,1.732,0.09,1.509c-0.311-0.22-0.802-0.397-1.244-0.397c-0.446,0-0.936-1.379-1.333-2.312 c-0.4-0.933-2.312-2.4-2.669-3.11c-0.354-0.71-1.645-0.71-1.645-0.71s-3.687,0.22-3.421,0.487 c1.779,1.245,1.068,2.133,1.068,2.133l-2.801,2.488c0,0-2.355,1.068-3.065,1.245c-1.288,0.8,0.133,1.112,1.555,0.755 c1.422-0.355,1.288,0.223,1.065,0.801c-0.8,1.954-2.219,3.197-3.153,3.554c-1.953,1.379-2.4,3.423-1.467,4.267 c0,0,0.091,2.002-0.578,2.045c-0.666,0.045-1.6,0.756-1.6,1.065c0,0.313-0.709,1.6-0.977,1.821c-0.934,1.2-2.134,1.067-2.667,0.8 c-2.448,0.479-4.487-3.464-4.622-3.821c-0.131-0.354-1.91-1.243-1.332-2.842c0.575-1.601-2.137-5.568-3.557-9.022 c-0.182-0.156-2.088-0.622-3.109-0.934c-1.021-0.31-1.467-2.752-1.911-3.776c-0.444-1.022,0.755-4.976,0.8-5.243 c0.044-0.266,5.023-3.866,5.023-3.866l-0.181-1.557c0,0,1.603-2.176,1.909-1.464c0.313,0.709,1.871,0.575,1.734-0.445 c-0.134-1.021,0.225-1.514,0.623-1.556c0.4-0.045,0.045-0.887-0.443-1.512c-0.489-0.621,0.754-0.801,1.557-1.555 c0.801-0.756,0.221,1.645,0.221,2.445c0,0.8,2.711-1.334,2.843-1.467c-0.309-1.555,0.935-1.955,1.288-2 c0.357-0.045,1.957-0.979,2.357-1.381c0.398-0.397,1.51-0.397,1.867-0.353c0.355,0.043,1.953,1.333,2.353,1.333 c0.401,0,3.555-0.844,3.645-1.422c0.088-0.577,0.399-0.889,0.979-1.11c0.576-0.222,0.666-2.091,0.666-2.091 s2.666-0.621,3.065-0.754c0.4-0.135,0.045-0.932-0.087-1.287c0.487-1.067-2.046-2.113-1.112-2.046 C52.19,11.368,54.768,13.1,55.17,13.723z M25.661,29.453l0.357,0.445c0,0,1.835,0.187,3.655,0.896 c0.276,0.277-0.057,1.593-0.057,1.593s1.955,2.665,2.355,2.178c0.399-0.489,0.931-0.934,1.554-0.489 c0.624,0.443,2.134,0.977,2.89,0.977c0.313,0.088,1.865,0.578,1.82-1.777c-0.611-0.847-2.177-0.71-2.444-0.931 c-0.265-0.226-0.798-1.824-0.798-1.824l-0.533,0.133c0,0-0.088,1.112-0.4,1.112c-0.311,0-0.979-1.688-0.979-1.688l0.092-0.889 l-1.022-1.242c0,0-0.668,0.309,0.621,1.953c0,0-0.891,0.932-1.555,0.975c0.178-0.221,0.58-1.242,0.58-1.242 s-2.033-2.514-2.447-2.176c-0.486,0.398-1.91,1.152-1.91,1.152l-0.933,0.801L25.661,29.453z M36.416,21.188 c-0.955,1.541-2.345,1.979-2.224,2.531c0.049,0.225,1.381,0.535,1.6-0.087c0.225-0.622,1.024-0.755,1.024-1.022 C36.816,22.344,36.54,20.987,36.416,21.188z M38.236,28.787c-0.221-0.09-0.666-0.889-1.199-0.313 c-0.531,0.578-1.2,1.867-0.531,1.957c0.666,0.088,1.643-0.268,1.863-0.09c0.225,0.178,1.926,0.879,2.182,0 C40.984,28.853,38.236,28.787,38.236,28.787z M37.348,36.83c-0.02,0.27,1.113,2.934,1.113,2.934s-0.092,0.889,0.133,1.2 c0.225,0.311,1.02,1.953,1.911,2.221c1.282-1.479-1.198-3.421-1.198-3.421l-0.092-0.757C39.215,39.007,37.438,35.586,37.348,36.83 z M43.303,36.031l0.045,0.753l1.599,1.778c0,0,1.468-0.133,1.201-1.198l-1.289-0.444L43.303,36.031z" fill="url(#_6)"/>
</svg>