<?xml version="1.0" encoding="UTF-8"?>
<!DOCTYPE svg PUBLIC "-//W3C//DTD SVG 1.1 Tiny//EN" "http://www.w3.org/Graphics/SVG/1.1/DTD/svg11-tiny.dtd">
<svg baseProfile="tiny" height="26px" version="1.1" viewBox="0 0 26 26" width="26px" x="0px" xmlns="http://www.w3.org/2000/svg" xmlns:xlink="http://www.w3.org/1999/xlink" y="0px">
<g>
<path d="M17.466,15.336c0.711-1.092,1.129-2.382,1.129-3.781c0-3.834-3.12-6.953-6.958-6.953   c-3.836,0-6.958,3.119-6.958,6.953s3.122,6.953,6.958,6.953c1.287,0,2.488-0.357,3.523-0.971l3.527,3.5l2.303-2.211L17.466,15.336z    M11.636,16.775c-2.881,0-5.227-2.342-5.227-5.221s2.346-5.221,5.227-5.221c2.88,0,5.228,2.342,5.228,5.221   S14.517,16.775,11.636,16.775z M12.47,7.67h-1.644v3.059H7.768v1.646h3.058v3.058h1.644v-3.058h3.059v-1.646H12.47V7.67z" fill="#FFFFFF" fill-opacity="0.3" stroke-opacity="0.3"/>
<rect fill="none" height="26" width="26"/>
<path d="M11.636,6.334c-2.881,0-5.227,2.342-5.227,5.221s2.346,5.221,5.227,5.221c2.88,0,5.228-2.342,5.228-5.221   S14.517,6.334,11.636,6.334z M10.009,7.461v2.45H7.545C7.996,8.797,8.89,7.907,10.009,7.461z M10.009,15.647   c-1.121-0.446-2.017-1.339-2.466-2.457h2.466V15.647z M12.47,15.432h-1.644v-3.058H7.768v-1.646h3.058V7.67h1.644v3.059h3.059   v1.646H12.47V15.432z M13.287,15.638V13.19h2.444C15.284,14.302,14.397,15.189,13.287,15.638z M13.287,9.911V7.472   c1.108,0.448,1.993,1.333,2.442,2.439H13.287z M18.493,15.204c0.604-1.126,0.919-2.375,0.919-3.65c0-4.283-3.488-7.77-7.777-7.77   c-4.286,0-7.772,3.486-7.772,7.77c0,4.285,3.486,7.771,7.772,7.771c1.168,0,2.325-0.269,3.377-0.78l3.664,3.636l3.483-3.344   L18.493,15.204z M15.159,17.537c-1.035,0.613-2.236,0.971-3.523,0.971c-3.836,0-6.958-3.119-6.958-6.953S7.8,4.602,11.636,4.602   c3.838,0,6.958,3.119,6.958,6.953c0,1.399-0.418,2.689-1.129,3.781l3.523,3.49l-2.303,2.211L15.159,17.537z" fill-opacity="0.3" stroke-opacity="0.3"/>
</g>
</svg>
