<?xml version="1.0" encoding="UTF-8"?>
<!DOCTYPE svg PUBLIC "-//W3C//DTD SVG 1.1 Tiny//EN" "http://www.w3.org/Graphics/SVG/1.1/DTD/svg11-tiny.dtd">
<svg width="60" height="52" viewBox="-0.428 0.265 60 52">
<path d="M51.313,6.264H7.831c-1.245,0-2.259,1.014-2.259,2.259v35.481c0,1.246,1.014,2.26,2.259,2.26h43.481 c1.246,0,2.26-1.014,2.26-2.26V8.522C53.572,7.277,52.559,6.264,51.313,6.264z M52.572,44.004c0,0.694-0.565,1.26-1.26,1.26 H7.831c-0.694,0-1.259-0.565-1.259-1.26V8.522c0-0.694,0.564-1.259,1.259-1.259h43.481c0.694,0,1.26,0.564,1.26,1.259V44.004z" fill="#BACACC"/>
<g fill-opacity="0.5" stroke-opacity="0.5">
<linearGradient id="_2" gradientUnits="userSpaceOnUse" x1="29.57" y1="50.81" x2="29.57" y2="5.68">
<stop stop-color="#C7D9D9" offset="0.26"/>
<stop stop-color="#FFFFFF" offset="0.72"/>
</linearGradient>
<path d="M51.313,7.264H7.831c-0.694,0-1.259,0.564-1.259,1.259v35.481c0,0.694,0.564,1.26,1.259,1.26 h43.481c0.694,0,1.26-0.565,1.26-1.26V8.522C52.572,7.828,52.007,7.264,51.313,7.264z" fill="url(#_2)"/>
</g>
<path fill-opacity="0.3" d="M51.313,7.264H7.831c-0.694,0-1.259,0.564-1.259,1.259v35.481c0,0.694,0.564,1.26,1.259,1.26h43.481 c0.694,0,1.26-0.565,1.26-1.26V8.522C52.572,7.828,52.007,7.264,51.313,7.264z" fill="#FFFFFF"/>
<path fill-opacity="0.3" d="M26.777,18.198l-5.373,11.641l-3.838-3.838L14.9,28.668l7.662,7.662c0,0,5.778-12.523,6.627-14.359 c2.113,0,15.055,0,15.055,0v-3.771L26.777,18.198L26.777,18.198z" fill="#496DA2"/>
</svg>