<?xml version="1.0" encoding="UTF-8" standalone="no"?>
<!DOCTYPE svg PUBLIC "-//W3C//DTD SVG 1.1 Tiny//EN" "http://www.w3.org/Graphics/SVG/1.1/DTD/svg11-tiny.dtd">
<svg xmlns="http://www.w3.org/2000/svg" xmlns:xlink="http://www.w3.org/1999/xlink" width="24" height="24" viewBox="0 0 24 24">
<rect fill="none" height="24" width="24"/>
<path d="M6.389,3.127l2.326,1.336l-2.73,3.26l3.951-0.816v2.648L5.914,8.898L8.691,12L6.32,13.359L4.855,9.442l-1.447,3.917 L1.172,12l2.711-3.214L0,9.555V6.906l3.883,0.748L1.172,4.486L3.545,3.15l1.443,3.894L6.389,3.127z"/>
<path d="M15.963,20.872h-2.279l0.654-4.864h-2.012v-2.264h2.348l0.432-3.079h-2.102V8.401h2.395l0.654-4.73h2.236l-0.633,4.73h2.1 l0.633-4.73h2.258l-0.633,4.73H24v2.264h-2.303l-0.43,3.079h2.076v2.264h-2.391l-0.656,4.864h-2.279l0.678-4.864h-2.1 L15.963,20.872z M16.934,13.744h2.098l0.408-3.079h-2.102L16.934,13.744z"/>
</svg>