<?xml version="1.0" encoding="UTF-8"?>
<!DOCTYPE svg PUBLIC "-//W3C//DTD SVG 1.1 Tiny//EN" "http://www.w3.org/Graphics/SVG/1.1/DTD/svg11-tiny.dtd">
<svg width="36" height="36" viewBox="0 0 36 36">
<path d="M1.093,18.001c0,9.322,7.584,16.906,16.906,16.906 c9.322,0,16.907-7.583,16.907-16.906c0-9.323-7.584-16.908-16.907-16.908C8.545,1.093,1.093,8.939,1.093,18.001z" fill="#1FFFEA" fill-opacity="0.2" />
<path d="M1.714,18.001c0,8.98,7.306,16.285,16.285,16.285 c8.981,0,16.286-7.304,16.286-16.285c0-8.98-7.305-16.287-16.286-16.287C9.021,1.714,1.714,9.021,1.714,18.001z" fill="#1FFFEA" fill-opacity="0.3" />
<path d="M2.425,18c0,8.587,6.987,15.574,15.574,15.574 c8.589,0,15.575-6.987,15.575-15.574c0-8.588-6.986-15.574-15.575-15.574C9.412,2.426,2.425,9.412,2.425,18z" fill="#1FFFEA" fill-opacity="0.4" />
<radialGradient id="_4" gradientUnits="userSpaceOnUse" cx="18" cy="18" r="14.98">
<stop stop-color="#B3DDFF" offset="0"/>
<stop stop-color="#D3FFBF" offset="0.01"/>
<stop stop-color="#92F7DB" offset="0.41"/>
<stop stop-color="#56F0F5" offset="0.81"/>
<stop stop-color="#3FEDFF" offset="1"/>
</radialGradient>
<path d="M17.999,3.016C9.737,3.016,3.016,9.738,3.016,18 c0,8.261,6.721,14.983,14.983,14.983c8.263,0,14.985-6.722,14.985-14.983C32.984,9.738,26.262,3.016,17.999,3.016z" fill="url(#_4)"/>
<linearGradient id="_5" gradientUnits="userSpaceOnUse" x1="18" y1="3.29" x2="18" y2="32.68">
<stop stop-color="#CFECFF" offset="0"/>
<stop stop-color="#8CC2EA" offset="1"/>
</linearGradient>
<path d="M18,3.016C9.737,3.016,3.016,9.738,3.016,18 c0,8.261,6.721,14.983,14.983,14.983S32.984,26.262,32.984,18C32.984,9.738,26.262,3.016,18,3.016z M18,32.168 c-7.826,0-14.166-6.341-14.166-14.167c0-7.825,6.34-14.169,14.166-14.169c7.825,0,14.167,6.344,14.167,14.169 C32.167,25.827,25.824,32.168,18,32.168z" fill="url(#_5)" fill-opacity="0.5" />
<linearGradient id="_6" gradientUnits="userSpaceOnUse" x1="18" y1="1.12" x2="18" y2="39.57">
<stop stop-color="#FFFFFF" offset="0"/>
<stop stop-color="#B3DDFF" offset="1"/>
</linearGradient>
<circle cx="18" cy="18" fill="url(#_6)" fill-opacity="0.5" r="14.169" />
<path d="M17.496,7.805c-4.991,0-9.368,4.065-9.368,9.365 c0,5.167,4.203,9.372,9.368,9.372c5.167,0,9.37-4.205,9.37-9.372C26.865,11.944,22.686,7.805,17.496,7.805z M10.234,14.03 c7.438-2.281,6.875-3.438,6.316-4.731c0.956-0.112,1.666-0.083,2.575,0.108c-0.045,0.667,1.241,2.018,0.953,2.436 c-1.625-0.125-3.379,0.609-4.424,2.519c-0.119,0.221-0.014,1.7-0.17,1.7c-0.657,0-1.688,1.281-0.15,1.542 c1.389-1.32,0.994-1.542,3.352,0c0.488,0.11,0.475-1.215,1.401-0.863c1.835,0.697,0.116,2.322-1.724,1.727 c-4.101-2.437-5.879,1.689-4.963,3.143c0.757,1.407,2.488,0.975,3.461,1.293c0.641,0.215,0.915,1.398,1.027,2.187 C12.046,25.687,7.89,19.124,10.234,14.03z M21.744,23.865c0.057-0.144,1.804-3.227,1.929-4.528 c0.109-1.083-0.896-2.388,0.758-1.841c0.3,0.098,0.581,0.875,0.888,0.958C24.947,20.726,23.613,22.674,21.744,23.865z" fill="#0046B7" fill-opacity="0.6" />
<path d="M5.152,17.163c0,6.822,5.548,12.372,12.368,12.372 c6.916,0,12.37-5.852,12.37-12.372c0-7.203-6.095-12.365-12.37-12.365C11.158,4.798,5.152,10.054,5.152,17.163z" fill="#1FFFEA" fill-opacity="0.1" />
<path d="M6.152,17.163c0,6.271,5.1,11.372,11.368,11.372 c5.946,0,11.37-4.881,11.37-11.372c0-6.321-5.319-11.365-11.37-11.365C11.842,5.798,6.152,10.379,6.152,17.163z" fill="#1FFFEA" fill-opacity="0.2" />
<path d="M7.152,17.163c0,5.719,4.651,10.372,10.368,10.372 c4.415,0,10.37-3.602,10.37-10.372c0-5.951-5.031-10.365-10.37-10.365C12.555,6.798,7.152,10.822,7.152,17.163z" fill="#1FFFEA" fill-opacity="0.3" />
</svg>