<?xml version="1.0" encoding="UTF-8"?>
<!DOCTYPE svg PUBLIC "-//W3C//DTD SVG 1.1 Tiny//EN" "http://www.w3.org/Graphics/SVG/1.1/DTD/svg11-tiny.dtd">
<svg width="352" height="126" viewBox="-0.605 0.131 352 126">
<path fill-opacity="0.01" fill="#656B6B" d="M22.395,0.132h-1c0,0,0,8.623,0,10.111 c-5.223,0.271-10.104,2.355-13.816,6.064c-3.986,3.984-6.184,9.283-6.184,14.924v67.774c0,10.877,8.875,21.125,20.848,21.125 c0.652,0,302.047,0,302.047,0c13.844,0,25.104-11.266,25.104-25.114V31.231c0-5.639-2.196-10.939-6.188-14.926 c-3.994-3.988-9.299-6.182-14.941-6.174H42.421l-10.077-10L22.395,0.132L22.395,0.132z"/>
<path fill-opacity="0.02" fill="#656B6B" d="M22.395,1.132c0,0,0,8.404,0,10.01 c-5.33,0.029-10.339,2.105-14.109,5.873c-3.799,3.795-5.891,8.844-5.891,14.217v67.774c0,10.75,8.875,20.125,19.898,20.125 c3.227,0,301.996,0,301.996,0c13.293,0,24.104-10.818,24.104-24.115V31.231c0-5.371-2.094-10.42-5.896-14.219 c-3.805-3.799-8.859-5.889-14.232-5.881H42.009l-10.077-10L22.395,1.132L22.395,1.132z"/>
<path fill-opacity="0.03" fill="#656B6B" d="M23.395,2.132c0,0,0,8.348,0,10c-0.444,0-0.893,0-0.893,0 c-5.105,0-9.902,1.984-13.511,5.59c-3.608,3.607-5.598,8.404-5.598,13.51v67.774c0,10.125,8.25,19.125,18.949,19.125 c0.551,0,301.945,0,301.945,0c12.74,0,23.104-10.369,23.104-23.115V31.231c0-5.104-1.989-9.902-5.604-13.512 c-3.615-3.609-8.418-5.594-13.523-5.588H41.597l-10.077-10L23.395,2.132L23.395,2.132z"/>
<path fill-opacity="0.06" fill="#656B6B" d="M24.395,3.132c0,0,0,8.318,0,10c-0.855,0-1.893,0-1.893,0 c-4.838,0-9.385,1.881-12.804,5.297c-3.421,3.418-5.305,7.965-5.305,12.803v67.774c0,9.33,7.5,18.125,18.125,18.121 c0.625,0,301.77,0.004,301.77,0.004c12.188,0,22.104-9.92,22.104-22.115V31.231c0-4.836-1.885-9.383-5.311-12.803 c-3.426-3.422-7.977-5.303-12.816-5.297H41.184l-10.039-10L24.395,3.132L24.395,3.132z"/>
<path fill-opacity="0.05" fill="#656B6B" d="M328.27,14.132H40.77l-10-10h-5.375v10h-2.769 c-9.448,0-17.231,7.646-17.231,17.1l0.002,67.774c0,8.859,7.373,17.125,17.123,17.125h300.775h0.994 c11.639,0,21.104-9.473,21.104-21.115V31.231C345.395,21.778,337.717,14.12,328.27,14.132z"/>
<path fill-opacity="0.1" fill="#656B6B" d="M327.645,15.132H40.395l-10-10h-4v10h-3.769 c-9.448,0-16.231,6.646-16.231,16.1l0.001,66.774c-0.001,9.125,6.499,17.125,17.078,17.123l300.815,0.002 c11.086,0,20.104-9.023,20.104-20.115V31.231C344.395,21.778,336.645,15.132,327.645,15.132z"/>
<path fill-opacity="0.1" fill="#656B6B" d="M326.645,16.132H40.02l-10-10h-2.625v10h-4.769 c-9.448,0-15.231,5.646-15.231,15.1l0.001,65.774c-0.001,9,5.124,17.125,17.106,17.125c0.518,0,299.787,0,299.787,0 c10.535,0,19.104-8.574,19.104-19.115V31.231C343.395,21.778,335.645,16.132,326.645,16.132z"/>
<path fill-opacity="0.1" fill="#656B6B" d="M325.77,17.132H39.52l-10-10h-1.125v10h-4.75 c-9.448,0-15.25,4.646-15.25,14.1l0.001,64.784c-0.001,8.865,3.874,17.115,17.124,17.115h298.77 c9.984,0,18.104-8.127,18.104-18.115V31.231C342.395,21.778,334.395,17.132,325.77,17.132z"/>
<linearGradient id="_8" gradientUnits="userSpaceOnUse" x1="173.39" y1="99.91" x2="173.39" y2="27.84">
<stop stop-color="#D9F4E0" offset="0"/>
<stop stop-color="#FFFFFF" offset="1"/>
</linearGradient>
<path fill="url(#_8)" d="M324.289,14.132H39.395l-12.001-12h-1.999v12h-2.894c-9.448,0-17.106,7.646-17.106,17.1v63.784 c0,9.451,7.658,17.115,17.106,17.115h301.788c9.447,0,17.104-7.664,17.104-17.115V31.231 C341.395,21.778,333.737,14.12,324.289,14.132z"/>
</svg>