<?xml version="1.0" encoding="UTF-8"?>
<!DOCTYPE svg PUBLIC "-//W3C//DTD SVG 1.1 Tiny//EN" "http://www.w3.org/Graphics/SVG/1.1/DTD/svg11-tiny.dtd">
<svg width="100%" height="100%" viewBox="-17.667 -34 88 88">
<linearGradient id="_9" gradientUnits="userSpaceOnUse" x1="30.23" y1="6.45" x2="46.15" y2="37.81">
<stop stop-color="#A2C2DD" offset="0.1"/>
<stop stop-color="#6C83BB" offset="0.71"/>
<stop stop-color="#003D6D" offset="0.99"/>
</linearGradient>
<path fill="url(#_9)" d="M0.858-18.298l0.211,40.257c0,0,19.309,5.604,20.531,5.96c-0.227,0.879-1.808,7.027-2.551,9.922 c-0.195,0.762,0.359,1.108,0.92,0.816c3.473-1.814,12.695-6.637,13.1-6.848c0.537,0.172,14.99,4.793,14.99,4.793l7.896-5.235 l2.344-42.577l-48.467-9.12L0.858-18.298z"/>
<linearGradient id="_10" gradientUnits="userSpaceOnUse" x1="52.46" y1="-17.87" x2="53.11" y2="47.07">
<stop stop-color="#FFFFFF" offset="0"/>
<stop stop-color="#A2C2DD" offset="0.35"/>
<stop stop-color="#6C83BB" offset="0.7"/>
<stop stop-color="#003D6D" offset="1"/>
</linearGradient>
<polygon fill="url(#_10)" points="47.947,35.846 55.29,30.977 57.581,-10.638 49.131,-8.433 "/>
<linearGradient id="_11" gradientUnits="userSpaceOnUse" x1="42.61" y1="-24.82" x2="15.46" y2="26.77">
<stop stop-color="#FFFFFF" offset="0.05"/>
<stop stop-color="#A2C2DD" offset="1"/>
</linearGradient>
<polygon fill="url(#_11)" points="22.463,27.434 1.784,21.432 1.579,-17.741 49.457,-8.381 47.967,35.875 33.022,31.053 19.75,37.99 "/>
<linearGradient id="_12" gradientUnits="userSpaceOnUse" x1="27.58" y1="-8.86" x2="31.99" y2="-20.84">
<stop stop-color="#FFFFFF" offset="0.05"/>
<stop stop-color="#A2C2DD" offset="1"/>
</linearGradient>
<polygon fill="url(#_12)" points="57.511,-10.638 9.86,-19.617 1.579,-17.741 49.457,-8.381 "/>
<linearGradient id="_13" gradientUnits="userSpaceOnUse" x1="52.09" y1="-2.82" x2="-15.28" y2="0.85">
<stop stop-color="#E6EEF4" offset="0"/>
<stop stop-color="#337CE5" offset="0.44"/>
<stop stop-color="#003D6D" offset="0.94"/>
</linearGradient>
<polygon fill="url(#_13)" points="7.048,-7.093 6.997,-5.093 46.018,4.242 45.543,1.289 "/>
<linearGradient id="_14" gradientUnits="userSpaceOnUse" x1="52.62" y1="6.89" x2="-14.76" y2="10.57">
<stop stop-color="#E6EEF4" offset="0"/>
<stop stop-color="#337CE5" offset="0.44"/>
<stop stop-color="#003D6D" offset="0.94"/>
</linearGradient>
<polygon fill="url(#_14)" points="7.266,1.942 7.143,3.938 45.797,14.69 45.432,11.719 "/>
<linearGradient id="_15" gradientUnits="userSpaceOnUse" x1="-15.27" y1="12.94" x2="9.48" y2="38.44">
<stop stop-color="#E6EEF4" offset="0"/>
<stop stop-color="#B94994" offset="0.44"/>
<stop stop-color="#3D013F" offset="0.94"/>
</linearGradient>
<polygon fill="url(#_15)" points="10.151,30.506 -2.543,8.522 -15.236,30.506 "/>
<radialGradient id="_16" gradientUnits="userSpaceOnUse" cx="-4.75" cy="18.13" r="27.99">
<stop stop-color="#E4E6EF" offset="0"/>
<stop stop-color="#BA4C96" offset="1"/>
</radialGradient>
<polygon fill="url(#_16)" points="-10.075,27.536 -2.554,14.512 4.995,27.55 "/>
</svg>