<?xml version="1.0" encoding="utf-8"?>
<!DOCTYPE svg PUBLIC "-//W3C//DTD SVG 1.1 Tiny//EN" "http://www.w3.org/Graphics/SVG/1.1/DTD/svg11-tiny.dtd">
<svg width="60" height="80" viewBox="0 0 60 80">
<linearGradient id="_292" gradientUnits="userSpaceOnUse" x1="20.69" y1="30.75" x2="38.19" y2="51.79">
<stop stop-color="#DEE9F3" offset="0"/>
<stop stop-color="#235487" offset="1"/>
</linearGradient>
<circle fill="url(#_292)" cx="29.527" cy="41.367" r="23.417"/>
<radialGradient id="_293" gradientUnits="userSpaceOnUse" cx="34.05" cy="26.71" r="42.04">
<stop stop-color="#FFFFFF" offset="0"/>
<stop stop-color="#A2C2DD" offset="0.53"/>
<stop stop-color="#6C83BB" offset="0.87"/>
<stop stop-color="#003D6D" offset="1"/>
</radialGradient>
<circle fill="url(#_293)" cx="29.566" cy="41.366" r="22.724"/>
<radialGradient id="_294" gradientUnits="userSpaceOnUse" cx="34.36" cy="29.04" r="28.6">
<stop stop-color="#E6EEF4" offset="0"/>
<stop stop-color="#C6DCC1" offset="0.08"/>
<stop stop-color="#91C06F" offset="0.21"/>
<stop stop-color="#6BAB33" offset="0.32"/>
<stop stop-color="#539E0E" offset="0.4"/>
<stop stop-color="#4A9900" offset="0.44"/>
<stop stop-color="#398419" offset="0.55"/>
<stop stop-color="#22663B" offset="0.71"/>
<stop stop-color="#135550" offset="0.85"/>
<stop stop-color="#0E4E58" offset="0.94"/>
</radialGradient>
<path fill="url(#_294)" d="M51.46,43.646c0.019-0.144-0.17-0.191-0.006-0.427c0.162-0.233-0.272-0.022-0.291,0.12c-0.021,0.145-0.05,0.725-0.05,0.725C51.279,43.912,51.441,43.791,51.46,43.646z M47.669,47.248c0.179,0.091,0.894,0.16,1.183,0.117c0.369-0.057,0.768-0.407,0.487-0.407c-0.271,0-1.153,0.009-1.612,0.187c-0.013,0.033-0.029,0.066-0.056,0.104L47.669,47.248L47.669,47.248z M51.456,44.486c-0.201-0.226-0.563-0.254-0.621-0.098C50.721,44.706,51.663,44.716,51.456,44.486z M43.23,39.425l-0.291,1.358c0.931,1.381,1.047,2.662,2.271,3.188c-0.166-0.381-0.258-1.646-0.258-1.646c-0.529-0.801-0.412,0.045-1.311-1.428c-0.525-0.861,0.119-2.587,0.752-1.354c0.25,0.487,0.465,0.757,0.873,1.396c2.098-1.515,1.321-3.106-0.076-3.718c-0.683-1.642,0.602-1.408,0.602-1.408c0.061,0.193,0.184-0.269,1.16-0.623c1.607-0.629,0.938-1.766,0.938-1.766c0.467-1.516-0.692-2.386-1.498-3.29l0.332-0.382l-0.164-0.322l-0.574,0.043l-0.575-0.372l0.411-0.747c0,0,0.039,0.167,0.087,0.408c0.059,0.286,0.875,0.059,0.875,0.059l0.291,0.641l0.379,0.088c0.088,0.641,0.351,1.165,0.351,1.165c0.438-0.175,0.204-0.786,0.204-0.786c0.104-0.742-1.106-1.398-1.106-1.398c0.207-0.101-0.029-0.292,0.059-0.875c0.303,0.067,0.488-0.006,0.594-0.164c-0.068-0.087-0.137-0.174-0.205-0.261c-0.141-0.176-0.283-0.35-0.428-0.522c-0.117-0.138-0.234-0.275-0.355-0.411c-0.142-0.16-0.285-0.316-0.433-0.472c-0.128-0.136-0.255-0.272-0.387-0.406c-0.147-0.15-0.3-0.295-0.45-0.44c-0.136-0.13-0.27-0.261-0.406-0.388c-0.164-0.149-0.332-0.292-0.5-0.437c-0.26-0.224-0.523-0.441-0.793-0.653c-0.156-0.123-0.313-0.249-0.472-0.367c-0.171-0.127-0.347-0.248-0.521-0.371c-0.147-0.103-0.295-0.208-0.444-0.308c-0.183-0.121-0.366-0.237-0.552-0.354c-0.146-0.092-0.295-0.184-0.445-0.273c-0.191-0.114-0.385-0.225-0.58-0.333c-0.146-0.082-0.296-0.161-0.445-0.24c-0.203-0.107-0.406-0.213-0.611-0.313c-0.143-0.069-0.285-0.134-0.43-0.2c-0.219-0.102-0.437-0.204-0.658-0.298c-0.102-0.043-0.205-0.082-0.309-0.123c-0.509-0.208-1.027-0.397-1.554-0.568c-0.093-0.03-0.183-0.063-0.274-0.092c-0.242-0.075-0.486-0.141-0.732-0.208c-0.144-0.039-0.285-0.08-0.432-0.117c-0.238-0.06-0.479-0.114-0.723-0.167c-0.152-0.033-0.307-0.066-0.461-0.096c-0.243-0.047-0.487-0.091-0.732-0.131c-0.154-0.025-0.311-0.047-0.466-0.069c-0.251-0.036-0.502-0.069-0.755-0.096c-0.146-0.016-0.296-0.026-0.443-0.04c-0.267-0.023-0.531-0.047-0.799-0.061c-0.09-0.005-0.181-0.004-0.271-0.008c-0.306-0.012-0.612-0.023-0.92-0.023c-1.12,0-2.221,0.084-3.297,0.241c-0.063,0.009-0.125,0.016-0.188,0.025c-0.288,0.044-0.572,0.098-0.855,0.153c-0.096,0.019-0.193,0.034-0.29,0.054c-0.048,0.01-0.095,0.023-0.144,0.033l7.833,0.461l1.138,0.306l0.582-0.116c0.174-0.059-0.351-0.32-0.351-0.32l0.61,0.087l0.916,0.239c-0.981-0.044-3.836,0.353-4.594,0.696c0,0,0.211-0.618-0.458-0.367c-1.042,0.39-1.974,0.683-2.727,0.778c-0.396,0.051-1.352-0.079-3.158,0.271c0.116-0.699-1.224-0.758-1.224-0.758s-1.981,0.175-6.06,2.506c-1.301,1.812-1.748,1.049-1.807,1.049c-0.037,0,0.36-0.547,0.663-0.957c-0.036,0.026-0.073,0.051-0.108,0.077c-0.143,0.106-0.283,0.217-0.423,0.327c-0.159,0.123-0.319,0.245-0.474,0.372c-0.145,0.119-0.284,0.243-0.425,0.365c-0.145,0.125-0.292,0.248-0.434,0.376c-0.271,0.247-0.537,0.5-0.796,0.758c-0.119,0.12-0.232,0.245-0.349,0.366c-0.147,0.154-0.295,0.306-0.438,0.463c-0.117,0.129-0.228,0.263-0.342,0.395c-0.135,0.157-0.272,0.313-0.403,0.474c-0.11,0.135-0.216,0.273-0.323,0.411c-0.128,0.164-0.256,0.328-0.38,0.496c-0.103,0.139-0.202,0.281-0.301,0.423c-0.121,0.172-0.241,0.345-0.357,0.521c-0.094,0.143-0.186,0.287-0.277,0.432c-0.114,0.181-0.226,0.363-0.335,0.548c-0.085,0.145-0.169,0.291-0.251,0.438c-0.107,0.191-0.212,0.384-0.313,0.579c-0.076,0.145-0.151,0.291-0.224,0.437c-0.101,0.204-0.198,0.411-0.293,0.619c-0.065,0.142-0.13,0.283-0.193,0.426c-0.096,0.222-0.187,0.447-0.276,0.673c-0.053,0.133-0.107,0.266-0.158,0.4c-0.093,0.25-0.18,0.503-0.265,0.757c-0.038,0.114-0.08,0.228-0.116,0.343c-0.099,0.313-0.189,0.63-0.275,0.949c-0.016,0.059-0.034,0.117-0.05,0.176C7.374,36.404,7.212,37.195,7.093,38c-0.01,0.063-0.016,0.127-0.024,0.191c-0.047,0.334-0.088,0.67-0.12,1.008c-0.002,0.024-0.003,0.048-0.006,0.072l0.336,0.562c0.292-0.117,0.7,0.116,0.874,0.582c0.467-0.174,0.525,0.583,0.525,0.583s-0.117,1.398,0,1.98c0.116,0.584,0.873,3.088,0.932,4.604c-0.116,2.945,0.695,5.477,1.458,6.979c0.015,0.021,0.03,0.043,0.046,0.063c0.35,0.487,0.718,0.961,1.106,1.418c0.003,0.004,0.007,0.008,0.011,0.013c0.835,0.284,2.777-0.336,3.259-0.613c0-0.174,0.445-0.979,0.646-1.448c0.214-0.099,0.116-0.117,0.517-0.97c0.337-0.022-0.962-0.926-0.291-1.879C17.083,50.859,18,50.264,18,50.264c0.088-1.924-1.756-4.406,0.175-5.77c1.245-1.268,3.021-1.833,3.813-3.766c0.219-0.569,0.708-1.739-0.698-1.389c-1.322,0.331-2.008,0.492-2.241-0.498c-0.079-0.715-0.886-1.004-1.398-1.923c-0.068-1.042-0.232-2.331-0.232-2.331l-0.525-1.807l0.445-0.482l0.762,2.857l0.904,2.446c0.161,0.89,0.366,1.271,0.366,1.271c1.019-0.091,3.116-0.79,3.116-0.79l3.555-2.098c0,0,0.791-0.716-0.435-1.783l-0.498-0.432c-0.641,0.292-1.689,0.35-1.689,0.35l-0.269-0.521l-0.723-0.818l-0.341-0.938l0.659,0.043l0.528,1.01l1.019,0.467c0,0,0.815-0.175,1.224,0.233c0.35,0.466,0.874,0.582,0.874,0.582s2.506-0.059,3.146-0.116c0,0,1.268,1.835,1.863,1.923l0.642-0.524l0.233,1.457c-0.059,1.165,1.548,3.983,1.548,3.983l0.491,0.561c1.689-0.933,1.224-3.379,1.224-3.379l0.971-0.322c0,0,1.468-1.845,2.353-2.009c0.787-0.146,2.215,0.176,2.301,1.282c-0.145,1.312,0.555,0.962,1.41,0.705L43.23,39.425z M18.095,23.439c0.181-0.212,1.138-0.661,1.751-1.128c0.613-0.468,1.089-0.648,1.089-0.648s-0.375,0.549-0.619,0.803c-0.245,0.257-0.788,0.383-1.478,0.978C18.151,24.038,17.915,23.652,18.095,23.439z M16.908,30.747c-0.477-0.026-2.182,0.206-2.402-0.229c-0.22-0.434-0.714,0.003-1.17,0.4c-0.298,0.258-0.553-0.426-0.576-0.849c-0.022-0.426-0.636-0.373-0.636-0.373l0.642-1.17l-1.699,0.352c0,0,1.553-1.188,2.016-1.542c0.393-0.3,0.957-0.848,0.957-0.848l0.077,1.228c0,0-0.65,0.937-0.85,1.135c0.438-0.018,1.401-1.113,1.401-1.113c-0.047-1.249,0.419-1.599,0.419-1.599l0.069,1.214l0.006,0.013c0,0-0.214,1.676-0.018,1.687c0.196,0.011,0.759-1.105,0.759-1.105l0.55-0.109c-0.069,0.528-0.284,1.721,0.166,1.466c0.257-0.146,0.808-0.104,1.084,0.124c0.279,0.225,0.66-0.076,0.797,0.323C17.751,31.446,17.071,30.84,16.908,30.747z M19.645,27.614c-0.506-0.247-1.359-0.093-1.359-0.093c-0.412,0.311-1.322,0.031-0.542-0.651c0.781-0.682,1.363-1.021,1.341-0.496c-0.044,0.217,0.513,0.523,0.722,0.058c0.21-0.466,1.046-0.75,0.991-0.408c-0.534,0.342-0.25,0.587-0.046,0.754C21.322,27.247,21.379,27.946,19.645,27.614z M24.405,27.039c0.007,0.229,0.387,0.999,0.469,1.938c0.067,0.782-1.394,0.581-1.642,0.214c-0.247-0.367,0.638-0.671,0.291-1.248c-0.496-0.825-0.872-1.201,0.915-1.848C26.254,25.911,24.392,26.607,24.405,27.039z M20.878,49.238l-0.793,1.461c0,0-0.802,0.064-0.711,0.395c0.037,0.141,0.229,0.75,0.221,1.07c-0.191,0.21-0.263,0.859-0.263,0.859s0.314,1.22,1.116,0.943c0.801-0.273,1.263-2.941,1.263-2.941S21.8,48.955,20.878,49.238z M29.797,19.83c0.264-0.002,0.158-0.261-0.99-0.18c-0.968,0.068-2.123,0.988-0.338,1.078C27.556,20.47,28.341,19.644,29.797,19.83z M50.95,47.886c-0.343,0.017-0.382-0.056-1.031,1.232c-0.117,0.231-0.164-0.358-0.394-0.229l-1.059,1.133c0,0-0.422,1.106-0.533,1.148c-1.156,0.444-1.93,1.28-1.93,1.28c-0.268,0.888-0.539,1.669-0.67,2.269c-0.385,1.023-0.592,1.665-0.592,1.665s0.93-0.127,1.639-0.862c0.752-0.78,1.334-0.633,1.334-0.633c-0.006,0.062-0.01,0.118-0.016,0.174c0.313-0.414,0.609-0.84,0.895-1.275c0.037-0.057,0.073-0.114,0.109-0.172c0.554-0.863,1.051-1.768,1.486-2.704c0.033-0.071,0.063-0.144,0.097-0.216c0.205-0.452,0.397-0.911,0.571-1.381c0.006-0.012,0.011-0.022,0.015-0.034c-0.007-0.007-0.013-0.013-0.021-0.02c-0.191-0.161-0.136-0.021,0.184-0.71C51.419,47.715,51.271,47.87,50.95,47.886z M49.232,36.679c-0.594-0.546-0.174,0.08-0.502,0.757l0.617,1.581l0.359,0.763l0.168-0.518c0.023-0.234-0.717-0.755-0.621-1.272C49.35,37.472,49.823,37.224,49.232,36.679z M49.493,43.503l0.981,0.039c0,0,0.467-0.369,0.193-0.428C50.395,43.055,49.493,43.503,49.493,43.503z M49.691,47.645l0.013-0.42c0,0,0.594-0.024,0.717-0.341l-0.901,0.125l-0.156,0.362L49.691,47.645z M49.044,31.261l-0.246-0.381l0.152-0.282l-0.07-0.296c0,0,0.054-0.152,0.185-0.116c0.074,0.02,0.164-0.007,0.242-0.067c-0.113-0.196-0.224-0.394-0.342-0.586c-0.068,0.197-0.126,0.55-0.126,0.55l-0.332,0.07l-0.073,0.808l0.446,0.437L49.044,31.261z M49.458,44.941c0.147,0.49,0.526,1.015,0.724,0.632c-0.353-0.442-0.632-1.026-0.189-1.146c0.549-0.146-0.695-0.33-0.789-0.189c-0.262,0.396-0.049,1.378-0.049,1.378s0.104,0.096,0.24,0.207C49.468,45.884,49.366,44.887,49.458,44.941z M36.038,41.346c-0.119-0.052-0.168-0.911-0.408-0.531c-0.211,0.328-0.385,0.754-0.049,1.271c0.338,0.517,0.36,0.498,0.578-0.12C36.376,41.348,36.159,41.396,36.038,41.346z M50.198,41.052c0.399,0.099,0.202,0.132,0.274-0.225c0.07-0.356,0.154-0.849-0.094-0.771c-0.248,0.078-0.57,0.367-0.57,0.367C50.104,40.521,49.823,40.961,50.198,41.052z M48.509,41.497c-0.85,1.374-2.133,2.065-2.133,2.065l0.524,1.631c0,0,1.683,0.623,1.523-0.168c-0.15-0.754,0.934-1.67,0.426-2.092c-0.182-0.149-0.186-0.483-0.047-0.599C49.374,41.864,48.753,41.104,48.509,41.497z M45.313,46.93c0.873,0.616,2.347,0.321,2.355,0.318c-0.051-0.025-0.059-0.055,0.002-0.081c0.018-0.008,0.035-0.015,0.055-0.022c0.246-0.66-2.244-0.53-2.244-0.53v-1.474l-0.233-0.176c0,0-0.174,0.48-0.328-0.033c-0.407-1.369-1.875-2.244-2.567-2.66c-0.363-0.219-0.111,0.476-0.111,0.476c1.074,0.942,1.121,1.606,1.539,2.524c0.371,0.817,1.514,1.287,1.514,1.287L45.313,46.93z M46.534,36.499c0.213-0.372,0.123-0.951,0.123-0.951s-0.498,0.139-0.568,0.2c-0.071,0.061,0.033,0.188-0.06,0.392C45.861,36.507,46.391,36.757,46.534,36.499z M48.579,34.12c0,0-0.449,0.168-0.272,0.775C48.796,35.003,48.645,34.582,48.579,34.12z"/>
</svg>