<?xml version="1.0" encoding="UTF-8"?>
<!DOCTYPE svg PUBLIC "-//W3C//DTD SVG 1.1 Tiny//EN" "http://www.w3.org/Graphics/SVG/1.1/DTD/svg11-tiny.dtd">
<svg baseProfile="tiny" height="60px" viewBox="0 0 60 60" width="60px" xmlns="http://www.w3.org/2000/svg" xmlns:xlink="http://www.w3.org/1999/xlink">
<path d="M21.129,19.994C8.84,32.306,12.503,43.249,14.067,45.298c0.821,1.07,1.917,2.51,3.769,3.744 c0.916,0.609,2.297,0.875,2.701,0.941l0.203,0.033l0.203-0.012c1.987-0.125,4.083-1.547,6.785-4.609 c1.165-1.318,3.793-4.576,3.794-7.086c0.001-0.107-0.007-0.211-0.016-0.318l-0.021-0.203l-0.064-0.191 c-0.089-0.273-0.497-1.258-1.92-2.387c-1.192-0.949-2.826-1.352-4.002-1.545c0.006-1.061,0.484-3.125,3.293-6.026l-0.04,0.015 c2.897-2.806,4.971-3.279,6.027-3.283c0.192,1.184,0.594,2.823,1.543,4.017c1.134,1.419,2.114,1.83,2.389,1.917l0.192,0.069 l0.203,0.018c2.547,0.24,6.025-2.563,7.405-3.779c3.058-2.704,4.48-4.803,4.607-6.809l0.012-0.203l-0.034-0.2 c-0.066-0.403-0.333-1.786-0.941-2.699c-1.238-1.856-2.676-2.954-3.629-3.68C43.653,10.824,32.538,8.586,21.129,19.994 M19.811,46.075c-1.355-0.904-2.164-1.965-2.82-2.82c-0.409-0.535-1.093-2.303-1.092-4.896c0-3.875,1.522-9.596,7.75-15.823 c10.396-10.417,19.379-7.703,20.6-6.77c0.969,0.742,2.033,1.549,2.942,2.908c0.094,0.152,0.236,0.62,0.33,1.06 c-0.102,0.595-0.687,1.835-3.37,4.209c-2.098,1.849-3.767,2.681-4.458,2.836c-0.147-0.125-0.344-0.311-0.583-0.613 c-0.62-0.783-0.908-2.607-0.951-3.372L38.1,21.812l-0.861-0.483c-0.464-0.254-4.696-2.302-10.964,3.764l-0.021,0.021l-0.022,0.046 c-3.517,3.634-4.316,6.584-4.314,8.51c0,1.393,0.416,2.25,0.521,2.443l0.475,0.879l0.998,0.053c0.762,0.041,2.585,0.332,3.368,0.953 c0.301,0.238,0.489,0.436,0.614,0.584c-0.157,0.691-0.983,2.357-2.837,4.457c-2.374,2.684-3.598,3.27-4.184,3.369 C20.43,46.313,19.964,46.175,19.811,46.075" fill="#47C30E"/>
<rect fill="none" height="60" width="60"/>
</svg>
