<?xml version="1.0" encoding="UTF-8" standalone="no"?>
<!DOCTYPE svg PUBLIC "-//W3C//DTD SVG 1.1 Tiny//EN" "http://www.w3.org/Graphics/SVG/1.1/DTD/svg11-tiny.dtd">
<svg xmlns="http://www.w3.org/2000/svg" xmlns:xlink="http://www.w3.org/1999/xlink" baseProfile="tiny" height="32px" version="1.1" viewBox="0 0 38 32" width="38px" x="0px" y="0px">
<rect fill="none" height="32" width="38"/>
<path d="M15.998,10.199H8.999c-0.21,0-0.832,0.197-0.8,0.8v5.199h-4.2c-0.915,0.011-0.937,1.031-0.548,1.384l8.501,8  c0.153,0.144,0.694,0.419,1.096,0l8.501-8c0.66-0.956-0.22-1.384-0.549-1.384h-4.202l0.003-5.199  C16.688,10.292,16.209,10.199,15.998,10.199z" fill-opacity="0.4" stroke-opacity="0.4"/>
<path d="M35.548,14.417l-8.499-8.001c-0.311-0.29-0.79-0.29-1.098,0l-8.5,8.001c-0.598,0.708,0.07,1.374,0.549,1.383  h4.2v5.199c0.009,0.354,0.341,0.813,0.8,0.801h7c0.584-0.05,0.799-0.588,0.799-0.801v-5.201L35,15.8  C35.922,15.672,35.969,14.797,35.548,14.417z M29,13.197c-0.211,0-0.416,0.086-0.566,0.235c-0.148,0.149-0.232,0.354-0.232,0.565  v5.197h-3.399v-5.197c0-0.211-0.087-0.416-0.235-0.565c-0.147-0.149-0.355-0.235-0.566-0.235h-1.457l3.959-3.726l3.956,3.726H29z" fill-opacity="0.4" stroke-opacity="0.4"/>
<polygon fill="#FFFFFF" points="12.5,25 21,17 16,17 16,11 9,11 9,17 4,17 "/>
<path d="M26.5,7L18,15h5v6h7v-6h5L26.5,7z M29,13.998v6h-4.999v-6h-3.476L26.5,8.374l5.977,5.624H29z" fill="#FFFFFF"/>
</svg>
