<?xml version="1.0" encoding="UTF-8" standalone="no"?>
<!DOCTYPE svg PUBLIC "-//W3C//DTD SVG 1.1 Tiny//EN" "http://www.w3.org/Graphics/SVG/1.1/DTD/svg11-tiny.dtd">
<svg xmlns="http://www.w3.org/2000/svg" xmlns:xlink="http://www.w3.org/1999/xlink" baseProfile="tiny" height="32px" version="1.1" viewBox="0 0 38.001 32" width="38.001px" x="0px" y="0px">
<rect fill="none" height="32" width="38.001"/>
<path d="M18.936,10.18h-1.727l0.543-4.008c0.096-0.654-0.562-0.907-0.794-0.907h-2.593  c-0.399,0-0.736,0.291-0.792,0.688l-0.596,4.227h-1.646l0.564-4.003c0.061-0.675-0.563-0.912-0.792-0.912H8.486  c-0.401,0-0.737,0.294-0.791,0.69L7.119,10.18H4.631c-0.211,0-0.783,0.182-0.8,0.802v2.223c0,0.21,0.126,0.767,0.8,0.801H6.58  l-0.298,2.152h-2.29c-0.213,0-0.801,0.173-0.802,0.802v2.247c0,0.213,0.173,0.733,0.802,0.802H5.74L5.197,23.94  c-0.032,0.229,0.025,0.812,0.793,0.91h2.594c0.399,0,0.735-0.296,0.792-0.688l0.593-4.157h1.65l-0.542,3.936  c-0.031,0.229,0.083,0.843,0.792,0.91h2.594c0.4,0,0.737-0.296,0.794-0.693l0.571-4.152l2.466,0.003  c0.212,0,0.788-0.178,0.799-0.802v-2.247c-0.073-0.676-0.589-0.802-0.799-0.802h-1.925l0.298-2.154l2.269,0.002  c0.214,0,0.818-0.237,0.801-0.801v-2.223C19.707,10.33,19.146,10.18,18.936,10.18z M12.16,16.157h-1.67l0.298-2.154l1.67,0.001  L12.16,16.157z" fill-opacity="0.4" stroke-opacity="0.4"/>
<path d="M35.565,18.435l-7-7c-0.312-0.314-0.819-0.314-1.13,0l-7,7c-0.23,0.228-0.531,1.219,0.566,1.365h3.199v4.199  c0,0.21,0.184,0.758,0.799,0.801h6c0.551-0.063,0.822-0.521,0.802-0.801V19.8h3.2C35.947,19.653,35.904,18.757,35.565,18.435z   M30,17.2c-0.212,0-0.417,0.085-0.566,0.232c-0.148,0.15-0.234,0.356-0.234,0.566v4.199h-2.4l0.002-4.199  c0-0.21-0.086-0.416-0.234-0.564C26.417,17.285,26.209,17.2,26,17.2h-0.657l2.655-2.656l2.656,2.656H30z" fill-opacity="0.4" stroke-opacity="0.4"/>
<path d="M28.001,12l-7,7h4v5h6v-5h4L28.001,12z M30,18v5h-4v-5h-2.587L28,13.413L32.588,18H30z" fill="#FFFFFF"/>
<path d="M18.936,13.205h-2.965l-0.52,3.755h2.842v2.248h-3.162l-0.668,4.842h-2.594l0.668-4.842H9.275L8.584,24.05  H5.99l0.668-4.842H3.99V16.96h2.988l0.52-3.755H4.631v-2.224h3.188l0.668-4.916h2.617l-0.691,4.916h3.262l0.691-4.916h2.594  l-0.668,4.916h2.645V13.205z M13.377,13.205h-3.285l-0.52,3.755h3.285L13.377,13.205z" fill="#FFFFFF"/>
</svg>
