<?xml version="1.0" encoding="UTF-8"?>
<!DOCTYPE svg PUBLIC "-//W3C//DTD SVG 1.1 Tiny//EN" "http://www.w3.org/Graphics/SVG/1.1/DTD/svg11-tiny.dtd">
<svg width="60" height="80" viewBox="0 0 60 80">
<linearGradient id="_536" gradientUnits="userSpaceOnUse" x1="29.13" y1="39.51" x2="41.91" y2="64.69">
<stop stop-color="#A2C2DD" offset="0.1"/>
<stop stop-color="#6C83BB" offset="0.71"/>
<stop stop-color="#003D6D" offset="0.99"/>
</linearGradient>
<path fill="url(#_536)" d="M20.273,16.903l-1.681,0.724c-2.681,1.178-5.215,2.289-8.421,2.094 c-0.893-0.535-2.69-1.058-2.69-1.058l-4.972,3.034c-0.527,0.695-0.792,1.604-0.792,2.739c0,2.399,1.188,5.804,3.57,10.286 c-0.109,0.423-0.174,0.85-0.174,1.273c0,1.439,0.618,2.823,1.774,3.759c0.68,0.551,1.803,0.896,2.115,0.986 c0.562,0.83,6.582,9.566,10.308,8.085l0,0c0-0.002,4.504-3.166,4.555-3.228c0.434,1.575,0.991,3.178,1.567,4.743 c1.091,2.966,2.125,5.778,2.125,8.257c0,0.191-0.008,0.381-0.021,0.569c-0.199,0.451-0.749,2.335-0.749,2.335l2.553,4.15 c1.108,1.197,5.254,2.229,13.02-2.465c-0.022,0.017,0.351-0.258,0.351-0.258c1.796,0.326,3.597-0.313,4.697-1.675 c0.44-0.545,0.772-1.587,0.772-1.587c6.426-4.648,8.729-8.324,8.746-10.214c0.006-0.677-2.963-4.623-2.963-4.623 c-0.531-0.78-1.689-1.076-3.422-0.892c-2.439-1.561-4.479-3.583-6.438-5.542c-3.233-3.237-6.303-6.303-10.543-6.3 c1.219-1.661,2.424-3.951,2.424-6.669c0-0.379-0.021-0.766-0.071-1.159c-0.001,0-0.073-2.189-2.037-4.804 C30.346,14.889,24.534,15.138,20.273,16.903z M19.309,48.825L19.309,48.825L19.309,48.825z"/>
<linearGradient id="_537" gradientUnits="userSpaceOnUse" x1="23.33" y1="56.02" x2="10.88" y2="29.76">
<stop stop-color="#FFFFFF" offset="0"/>
<stop stop-color="#A2C2DD" offset="0.35"/>
<stop stop-color="#6C83BB" offset="0.7"/>
<stop stop-color="#003D6D" offset="1"/>
</linearGradient>
<path fill="url(#_537)" d="M3.552,24.076l16.441,23.07l2.905-1.799L8.81,20.009l0.021,0.013 C8.81,20.009,3.552,24.076,3.552,24.076z"/>
<linearGradient id="_538" gradientUnits="userSpaceOnUse" x1="10.93" y1="17.19" x2="31.65" y2="33.97">
<stop stop-color="#FFFFFF" offset="0.05"/>
<stop stop-color="#A2C2DD" offset="1"/>
</linearGradient>
<path fill="url(#_538)" d="M23.635,43.691c1.289-4.604,4.567-6.752,7.53-9.42c2.868-2.587,6.597-8.028,2.992-13.805 c-3.667-5.743-10.182-4.719-13.75-3.24c-3.685,1.525-6.97,3.5-11.677,2.687C8.729,19.913,23.602,43.814,23.635,43.691z"/>
<linearGradient id="_539" gradientUnits="userSpaceOnUse" x1="21.44" y1="18.28" x2="33.71" y2="51.32">
<stop stop-color="#FFFFFF" offset="0"/>
<stop stop-color="#A2C2DD" offset="0.35"/>
<stop stop-color="#6C83BB" offset="0.7"/>
<stop stop-color="#003D6D" offset="1"/>
</linearGradient>
<path fill="url(#_539)" d="M34.123,20.406c0,0-3.631-6.528-14.494-2.293c0,0-5.472,2.917-9.006,3.07l9.914,12.992 C20.537,34.176,34.454,25.298,34.123,20.406z"/>
<linearGradient id="_540" gradientUnits="userSpaceOnUse" x1="25.55" y1="29.25" x2="34.92" y2="38.93">
<stop stop-color="#FFFFFF" offset="0"/>
<stop stop-color="#A2C2DD" offset="0.35"/>
<stop stop-color="#6C83BB" offset="0.7"/>
<stop stop-color="#003D6D" offset="1"/>
</linearGradient>
<path fill="url(#_540)" d="M35.199,22.634c0.566,6.197-11.198,13.902-12.74,15.76l1.142,5.42 C28.826,34.188,37.686,30.743,35.199,22.634z"/>
<linearGradient id="_541" gradientUnits="userSpaceOnUse" x1="14.46" y1="51.04" x2="10.65" y2="14.7">
<stop stop-color="#FFFFFF" offset="0"/>
<stop stop-color="#A2C2DD" offset="0.35"/>
<stop stop-color="#6C83BB" offset="0.7"/>
<stop stop-color="#003D6D" offset="1"/>
</linearGradient>
<path fill="url(#_541)" d="M6.298,20.161c3.208,18.918,14.97,25.416,16.942,25.507l-3.888,2.673 C7.686,44.844,2.27,23.9,2.27,23.9L6.298,20.161z"/>
<radialGradient id="_542" gradientUnits="userSpaceOnUse" cx="9.56" cy="37.67" r="6">
<stop stop-color="#FFFFFF" offset="0"/>
<stop stop-color="#A2C2DD" offset="0.35"/>
<stop stop-color="#6C83BB" offset="0.7"/>
<stop stop-color="#003D6D" offset="1"/>
</radialGradient>
<path fill="url(#_542)" d="M13.642,38.663c-1.651,2.039-4.578,2.403-6.535,0.82c-1.958-1.585-2.205-4.522-0.554-6.563 c1.651-2.038,4.577-2.408,6.534-0.821C15.045,33.683,15.293,36.622,13.642,38.663z"/>
<linearGradient id="_543" gradientUnits="userSpaceOnUse" x1="14.8" y1="46.04" x2="10.68" y2="26.58">
<stop stop-color="#FFFFFF" offset="0.05"/>
<stop stop-color="#A2C2DD" offset="1"/>
</linearGradient>
<path fill="url(#_543)" d="M22.681,43.854L7.125,20.425c0,0-4.367,1.501-4.311,1.438 c-2.11,2.645,0.693,8.781,2.812,12.757l0.395-0.935c-1.361-2.863-3.82-10.027-2.476-10.597 c4.01-1.702,17.979,22.686,14.589,24.26c-1.848,0.859-6.573-5.253-7.973-6.878l-0.942-0.03c0,0,6.353,9.496,9.96,8.061 C19.779,48.264,22.681,43.854,22.681,43.854z"/>
<linearGradient id="_544" gradientUnits="userSpaceOnUse" x1="5.08" y1="15.22" x2="19.6" y2="42.81">
<stop stop-color="#FFFFFF" offset="0.05"/>
<stop stop-color="#A2C2DD" offset="1"/>
</linearGradient>
<path fill="url(#_544)" d="M2.757,21.926l4.791-2.896c8.341,1.506,18.768,23.979,15.971,26.473l-4.316,2.957 C23.52,45.504,9.211,19.666,2.757,21.926z"/>
<linearGradient id="_545" gradientUnits="userSpaceOnUse" x1="62.79" y1="54.56" x2="36.33" y2="54.93">
<stop stop-color="#E6EEF4" offset="0"/>
<stop stop-color="#A3740A" offset="0.44"/>
<stop stop-color="#474105" offset="0.94"/>
</linearGradient>
<polygon fill="url(#_545)" points="30.316,65.086 55.648,49.391 52.688,44.626 27.36,60.327 "/>
<linearGradient id="_546" gradientUnits="userSpaceOnUse" x1="25.48" y1="29.24" x2="44.95" y2="61.58">
<stop stop-color="#E2E6E4" offset="0"/>
<stop stop-color="#A3740A" offset="1"/>
</linearGradient>
<path fill="url(#_546)" d="M51.318,44.844c-8.906-4.957-12.389-16.563-23.201-10.858c-11.01,6.133,1.39,18.458-0.38,26.3 L51.318,44.844z"/>
<linearGradient id="_547" gradientUnits="userSpaceOnUse" x1="26.04" y1="33.75" x2="49.64" y2="81.54">
<stop stop-color="#E6EEF4" offset="0"/>
<stop stop-color="#A3740A" offset="0.44"/>
<stop stop-color="#474105" offset="0.94"/>
</linearGradient>
<path fill="url(#_547)" d="M28.193,34.13c-9.398,6.64,2.224,18.371,0.64,23.392l12.993-9.914 C40.641,46.134,35.044,35.894,28.193,34.13z"/>
<linearGradient id="_548" gradientUnits="userSpaceOnUse" x1="31.56" y1="31.24" x2="87.03" y2="76.44">
<stop stop-color="#E6EEF4" offset="0"/>
<stop stop-color="#A3740A" offset="0.44"/>
<stop stop-color="#474105" offset="0.94"/>
</linearGradient>
<path fill="url(#_548)" d="M30.637,33.316c5.782-0.099,14.141,11.439,15.996,12.978l5.184-1.381 C47.021,45.367,38.816,29.503,30.637,33.316z"/>
<linearGradient id="_549" gradientUnits="userSpaceOnUse" x1="47.74" y1="64.52" x2="41.83" y2="55.08">
<stop stop-color="#E2E6E4" offset="0"/>
<stop stop-color="#A3740A" offset="1"/>
</linearGradient>
<path fill="url(#_549)" d="M29.989,64.908l-1.923-2.912c15.502-0.975,25.808-14.283,25.252-17.091l2.674,3.887 C56.795,53.477,40.563,68.083,29.989,64.908z"/>
<radialGradient id="_550" gradientUnits="userSpaceOnUse" cx="46.32" cy="59.28" r="6.85">
<stop stop-color="#E2E6E4" offset="0"/>
<stop stop-color="#A3740A" offset="1"/>
</radialGradient>
<path fill="url(#_550)" d="M46.313,54.505c2.037,1.651,2.406,4.575,0.821,6.532c-1.586,1.958-4.522,2.206-6.562,0.558 c-2.041-1.653-2.408-4.579-0.823-6.536S44.271,52.854,46.313,54.505z"/>
<linearGradient id="_551" gradientUnits="userSpaceOnUse" x1="39.46" y1="52.5" x2="48.55" y2="64.31">
<stop stop-color="#E2E6E4" offset="0"/>
<stop stop-color="#A3740A" offset="1"/>
</linearGradient>
<path fill="url(#_551)" d="M52.121,44.632L28.433,61.174l1.08,4.157c0.836,1.101,5.042,2.338,13.168-2.737l-1.06-0.373 c-3.396,2.695-10.162,3.594-10.229,2.305c-0.222-4.348,18.762-16.932,23.398-14.725c1.238,0.59-0.979,4.475-6.67,8.379 l-0.157,1.209c7.776-5.628,9.494-9.91,8.224-10.863C56.156,48.496,52.121,44.632,52.121,44.632z"/>
<linearGradient id="_552" gradientUnits="userSpaceOnUse" x1="35.5" y1="48.38" x2="48.36" y2="62.9">
<stop stop-color="#E2E6E4" offset="0"/>
<stop stop-color="#A3740A" offset="1"/>
</linearGradient>
<path fill="url(#_552)" d="M29.578,65.555c-0.062-0.056-2.495-4.162-2.436-4.068c1.453-9.28,23.852-20.36,26.533-16.443 c0,0,2.738,3.777,2.697,3.755C53.279,44.154,29.934,58.025,29.578,65.555z"/>
</svg>