<?xml version="1.0" encoding="UTF-8"?>
<!DOCTYPE svg PUBLIC "-//W3C//DTD SVG 1.1 Tiny//EN" "http://www.w3.org/Graphics/SVG/1.1/DTD/svg11-tiny.dtd">
<svg baseProfile="tiny" height="50.351" viewBox="0 0 50.353 50.351" width="50.353" xmlns="http://www.w3.org/2000/svg" xmlns:xlink="http://www.w3.org/1999/xlink">
<rect fill="none" height="50.351" width="50.353"/>
<path d="M23.18,37.109c-5.973-0.833-10.378-5.817-10.474-11.85l-0.028-1.722H6.183l0.021,1.771 c0.112,9.384,7.222,17.256,16.537,18.31l1.947,0.219V37.32L23.18,37.109z M23.412,30.225c-2.255-0.635-3.817-2.64-3.887-4.99 l-0.05-1.699h-6.491l0.034,1.784c0.108,5.552,4.141,10.343,9.589,11.392l2.081,0.362v-6.491L23.412,30.225z M43.504,23.982 c-0.113-9.386-7.223-17.257-16.537-18.309l-1.111-0.126l-0.835-0.095v6.518l0.646,0.09l0.862,0.12 c5.972,0.833,10.377,5.817,10.473,11.852l0.029,1.722h6.494L43.504,23.982z M36.689,23.969c-0.111-5.552-4.145-10.342-9.588-11.391 l-2.081-0.281v6.411l0.547,0.154l0.729,0.205c2.253,0.633,3.814,2.638,3.885,4.99l0.052,1.697h6.491L36.689,23.969z" fill="#FFFFFF"/>
<path d="M27.093,10.447V7.412c8.368,0.945,14.88,7.993,14.983,16.592h-3.002C38.963,17.066,33.797,11.381,27.093,10.447z"/>
<path d="M23.26,41.878v-3.036c-6.706-0.936-11.871-6.619-11.982-13.556H8.277C8.38,33.884,14.89,40.931,23.26,41.878z"/>
<path d="M27.093,17.381v-3.085c4.593,0.885,8.072,4.878,8.169,9.707h-3.008C32.158,20.839,30.014,18.203,27.093,17.381z"/>
<path d="M23.26,34.994V31.91c-2.921-0.822-5.068-3.459-5.162-6.623h-3.008C15.185,30.117,18.665,34.109,23.26,34.994z"/>
</svg>
