<?xml version="1.0" encoding="UTF-8"?>
<!DOCTYPE svg PUBLIC "-//W3C//DTD SVG 1.1 Tiny//EN" "http://www.w3.org/Graphics/SVG/1.1/DTD/svg11-tiny.dtd">
<svg width="84" height="72" viewBox="0 0 84 72">
<linearGradient id="_9" gradientUnits="userSpaceOnUse" x1="69.51" y1="44.79" x2="69.51" y2="44.79">
<stop stop-color="#A2C2DD" offset="0.1"/>
<stop stop-color="#6C83BB" offset="0.71"/>
<stop stop-color="#003D6D" offset="0.99"/>
</linearGradient>
<path fill="url(#_9)" d="M69.514,44.775v0.029C69.514,44.795,69.514,44.775,69.514,44.775z"/>
<linearGradient id="_10" gradientUnits="userSpaceOnUse" x1="69.51" y1="44.79" x2="69.52" y2="44.8">
<stop stop-color="#A2C2DD" offset="0.1"/>
<stop stop-color="#6C83BB" offset="0.71"/>
<stop stop-color="#003D6D" offset="0.99"/>
</linearGradient>
<path fill="url(#_10)" d="M69.514,44.775v0.029C69.514,44.795,69.514,44.775,69.514,44.775z"/>
<polygon fill="#6D5607" points="21.574,7.288 21.574,37.873 24.02,40.023 24.057,34.512 24.057,7.874 "/>
<path fill="#B18E3B" d="M21.574,7.288c0.212,0.242,1.004,0.455,1.777,0.447l1.414-0.612c-0.533-0.332-1.433-0.405-1.91-0.332 L21.574,7.288z"/>
<path fill="#6D5607" d="M34.807,26.541c-1.525-6.759-7.318-8.657-10.033-13.39l-0.006-6.027l-1.408,0.604v0.192 c0-0.06-0.012-0.109-0.012-0.168L23.121,7.75l0.13,12.798c0.028,0.005,0.071,0.011,0.104,0.018l-0.01,23.722l1.456-2.508 l-0.021-20.833c10.799,4.106,8.851,11.473,5.438,17.884l1.057,0.73C33.902,35.452,35.475,29.801,34.807,26.541z"/>
<linearGradient id="_11" gradientUnits="userSpaceOnUse" x1="41.68" y1="47.93" x2="21.16" y2="8.53">
<stop stop-color="#E6EEF4" offset="0"/>
<stop stop-color="#A3740A" offset="0.44"/>
<stop stop-color="#474105" offset="0.94"/>
</linearGradient>
<path fill="url(#_11)" d="M32.107,39.035c2.701-4.079,4.342-9.708,3.713-12.98c-1.893-8.865-11.205-9.479-11.09-18.699 L23.514,7.97c-0.003,9.392,9.206,9.822,11.18,18.563c0.668,3.262-0.774,8.918-3.428,13.027L32.107,39.035z"/>
<radialGradient id="_12" gradientUnits="userSpaceOnUse" cx="18.76" cy="40.44" fx="18.96" fy="40.5" r="6.74">
<stop stop-color="#E6EEF4" offset="0"/>
<stop stop-color="#A3740A" offset="0.44"/>
<stop stop-color="#474105" offset="0.94"/>
</radialGradient>
<path fill="url(#_12)" d="M23.964,44.42c-1.909,3.459-6.358,5.834-9.944,5.307c-3.58-0.52-4.94-3.748-3.033-7.203 c1.906-3.461,6.361-5.84,9.945-5.314S25.874,40.959,23.964,44.42z"/>
<polygon fill="#6D5607" points="44.439,20.845 44.439,50.844 47.564,53.602 47.615,46.541 47.625,20.343 "/>
<linearGradient id="_13" gradientUnits="userSpaceOnUse" x1="39.04" y1="40.91" x2="46.41" y2="41.7">
<stop stop-color="#E6EEF4" offset="0"/>
<stop stop-color="#A3740A" offset="0.44"/>
<stop stop-color="#474105" offset="0.94"/>
</linearGradient>
<polygon fill="url(#_13)" points="46.719,28.315 46.707,52.186 48.568,55.848 48.568,28.026 "/>
<radialGradient id="_14" gradientUnits="userSpaceOnUse" cx="41.77" cy="53.82" r="7.86">
<stop stop-color="#E6EEF4" offset="0"/>
<stop stop-color="#A3740A" offset="0.44"/>
<stop stop-color="#474105" offset="0.94"/>
</radialGradient>
<path fill="url(#_14)" d="M47.701,58.541c-2.223,4.021-7.405,6.797-11.58,6.182c-4.17-0.609-5.753-4.367-3.53-8.393 c2.22-4.027,7.403-6.795,11.581-6.189C48.342,50.756,49.924,54.514,47.701,58.541z"/>
<polygon fill="#6D5607" points="69.697,15.401 69.697,45.402 72.822,48.158 72.873,41.096 72.873,14.964 "/>
<polygon fill="#6D5607" points="72.781,15.667 46.598,19.797 46.572,29.251 71.977,24.991 71.965,47.141 73.828,50.404 73.828,14.577 "/>
<linearGradient id="_15" gradientUnits="userSpaceOnUse" x1="52.61" y1="5.26" x2="67.54" y2="33.79">
<stop stop-color="#E6EEF4" offset="0"/>
<stop stop-color="#A3740A" offset="0.44"/>
<stop stop-color="#474105" offset="0.94"/>
</linearGradient>
<polygon fill="url(#_15)" points="44.404,20.875 46.797,19.059 73.85,14.571 71.953,16.401 "/>
<radialGradient id="_16" gradientUnits="userSpaceOnUse" cx="67.2" cy="48.25" r="8.72">
<stop stop-color="#E6EEF4" offset="0"/>
<stop stop-color="#A3740A" offset="0.44"/>
<stop stop-color="#474105" offset="0.94"/>
</radialGradient>
<path fill="url(#_16)" d="M72.959,53.1c-2.221,4.021-7.402,6.793-11.58,6.176c-4.17-0.605-5.752-4.363-3.529-8.387 c2.219-4.027,7.404-6.799,11.578-6.189C73.6,45.309,75.184,49.07,72.959,53.1z"/>
</svg>