<?xml version="1.0" encoding="UTF-8" standalone="no"?>
<!DOCTYPE svg PUBLIC "-//W3C//DTD SVG 1.1 Tiny//EN" "http://www.w3.org/Graphics/SVG/1.1/DTD/svg11-tiny.dtd">
<svg xmlns="http://www.w3.org/2000/svg" xmlns:xlink="http://www.w3.org/1999/xlink" width="54" height="54" viewBox="0 0 54 54">
<rect fill="none" height="54" width="54"/>
<path d="M48.203,53.669c-1.535-0.043-2.701-1.312-2.786-2.78l0,0 c-0.08-1.814-0.749-3.943-1.862-5.894l0,0v1.573h-1.5h-0.981H9.597H7.116v-1.5l-0.002-0.979L7.116,6.313V3.832h1.5l0.981-0.003 l19.725,0.003c2.289-0.007,4.219,0.599,5.809,1.486l0,0c3.225,0.994,5.783,3.486,6.861,6.677l0,0c0.938,1.535,1.568,3.4,1.563,5.648 l0,0v11.688c4.901,4.188,7.813,10.804,7.832,17.421l0,0c0,1.568-0.169,3.137-0.51,4.623l0,0c-0.23,1.188-1.159,2.254-2.65,2.295l0,0 L48.203,53.669L48.203,53.669z" fill="#FFFFFF" fill-opacity="0.6"/>
<linearGradient id="_965" gradientUnits="userSpaceOnUse" x1="25.33" y1="-10.16" x2="25.33" y2="31.9">
<stop stop-color="#CCCCCC" offset="0"/>
<stop stop-color="#000000" offset="1"/>
</linearGradient>
<path d="M42.053,45.068h-0.98H9.597H8.615v-0.982V6.312V5.33h0.982H29.32 c3.972,0,6.467,1.945,8.568,4.047c2.276,2.28,4.164,4.476,4.164,8.266v26.443V45.068L42.053,45.068z" fill="url(#_965)" fill-opacity="0.7"/>
<path d="M41.04,15.338c0-4.959-4.034-8.991-8.991-8.991c-0.645,0-1.271,0.069-1.879,0.202l10.68,10.633 C40.973,16.587,41.04,15.969,41.04,15.338z" fill-opacity="0.02"/>
<path d="M40.87,15.338c0-4.865-3.958-8.823-8.821-8.823c-0.595,0-1.176,0.063-1.736,0.175l10.391,10.348 C40.811,16.486,40.87,15.918,40.87,15.338z" fill-opacity="0.02"/>
<path d="M40.705,15.338c0-4.772-3.887-8.653-8.656-8.653c-0.543,0-1.072,0.056-1.589,0.151l10.097,10.055 C40.648,16.388,40.705,15.867,40.705,15.338z" fill-opacity="0.02"/>
<path d="M40.537,15.338c0-4.682-3.811-8.488-8.488-8.488c-0.492,0-0.972,0.051-1.441,0.133l9.804,9.763 C40.486,16.287,40.537,15.817,40.537,15.338z" fill-opacity="0.02"/>
<path d="M40.369,15.338c0-4.588-3.734-8.32-8.32-8.32c-0.441,0-0.871,0.046-1.294,0.113l9.509,9.468 C40.326,16.186,40.369,15.767,40.369,15.338z" fill-opacity="0.02"/>
<path d="M40.201,15.336c0-4.494-3.658-8.148-8.152-8.148c-0.39,0-0.771,0.037-1.146,0.09l9.213,9.176 C40.166,16.086,40.201,15.715,40.201,15.336z" fill-opacity="0.02"/>
<path d="M40.033,15.336c0-4.401-3.581-7.982-7.984-7.982c-0.339,0-0.671,0.029-0.999,0.069l8.919,8.884 C40.007,15.988,40.033,15.664,40.033,15.336z" fill-opacity="0.02"/>
<path d="M39.865,15.336c0-4.311-3.508-7.813-7.816-7.813c-0.287,0-0.57,0.018-0.851,0.049l8.622,8.588 C39.85,15.889,39.865,15.613,39.865,15.336z" fill-opacity="0.02"/>
<path d="M39.7,15.336c0-4.217-3.435-7.645-7.651-7.645c-0.234,0-0.466,0.015-0.695,0.033l8.313,8.279 C39.686,15.783,39.7,15.56,39.7,15.336z" fill-opacity="0.02"/>
<path d="M39.529,15.336c0-4.123-3.355-7.479-7.48-7.479c-0.182,0-0.359,0.014-0.537,0.025l7.992,7.961 C39.516,15.676,39.529,15.508,39.529,15.336z" fill-opacity="0.02"/>
<path d="M39.361,15.336c0-4.032-3.28-7.313-7.313-7.313c-0.127,0-0.252,0.015-0.379,0.019l7.674,7.645 C39.35,15.568,39.361,15.453,39.361,15.336z" fill-opacity="0.02"/>
<linearGradient id="_966" gradientUnits="userSpaceOnUse" x1="38.05" y1="12.6" x2="39.09" y2="11.57">
<stop stop-color="#F2F2F2" offset="0"/>
<stop stop-color="#EDEDED" offset="0.19"/>
<stop stop-color="#DFDFDF" offset="0.42"/>
<stop stop-color="#C8C8C8" offset="0.66"/>
<stop stop-color="#A8A8A8" offset="0.9"/>
<stop stop-color="#999999" offset="1"/>
</linearGradient>
<path d="M41.07,17.644c0,3.09,0,26.441,0,26.441H9.597V6.313c0,0,17.647,0,19.723,0 c3.412,0,5.609,1.495,7.875,3.759C39.456,12.334,41.07,14.288,41.07,17.644z" fill="url(#_966)"/>
<linearGradient id="_967" gradientUnits="userSpaceOnUse" x1="30.43" y1="20.1" x2="38.94" y2="11.59">
<stop stop-color="#F2F2F2" offset="0"/>
<stop stop-color="#EDEDED" offset="0.19"/>
<stop stop-color="#DFDFDF" offset="0.42"/>
<stop stop-color="#C8C8C8" offset="0.66"/>
<stop stop-color="#A8A8A8" offset="0.9"/>
<stop stop-color="#999999" offset="1"/>
</linearGradient>
<path d="M41.07,17.644c0,3.09,0,26.441,0,26.441H9.597V6.313c0,0,17.647,0,19.723,0 c4.199,0,5.701,2.8,6.093,5.539C38.279,12.244,41.07,13.547,41.07,17.644z" fill="url(#_967)"/>
<linearGradient id="_968" gradientUnits="userSpaceOnUse" x1="25.33" y1="44.09" x2="25.33" y2="16.92">
<stop stop-color="#F2F2F2" offset="0"/>
<stop stop-color="#FFFFFF" offset="1"/>
</linearGradient>
<polygon fill="url(#_968)" fill-opacity="0.85" points="41.07,34.434 41.07,44.086 9.597,44.086 9.597,16.805 "/>
<linearGradient id="_969" gradientUnits="userSpaceOnUse" x1="30.99" y1="9.4" x2="30.99" y2="51.11">
<stop stop-color="#666666" offset="0"/>
<stop stop-color="#CCCCCC" offset="1"/>
</linearGradient>
<rect fill="url(#_969)" height="2.243" width="8.809" x="26.59" y="21.49"/>
<rect fill="url(#_969)" height="2.242" width="8.809" x="26.59" y="16.295"/>
<linearGradient id="_971" gradientUnits="userSpaceOnUse" x1="20.06" y1="13.19" x2="20.06" y2="33.29">
<stop stop-color="#666666" offset="0"/>
<stop stop-color="#CCCCCC" offset="1"/>
</linearGradient>
<rect fill="url(#_971)" height="7.438" width="9.5" x="15.312" y="16.295"/>
<rect fill="url(#_969)" height="2.244" width="20.125" x="15.271" y="31.859"/>
<rect fill="url(#_969)" height="2.243" width="20.125" x="15.271" y="26.665"/>
<polygon fill="url(#_968)" fill-opacity="0.3" points="41.07,34.434 41.07,44.086 9.597,44.086 9.597,16.805 "/>
<rect fill="#E6EAEF" fill-opacity="0.5" height="0.771" width="8.809" x="26.59" y="21.49"/>
<rect fill="#E6EAEF" fill-opacity="0.5" height="0.77" width="8.809" x="26.59" y="16.295"/>
<rect fill="#E6EAEF" fill-opacity="0.5" height="0.77" width="20.125" x="15.271" y="31.859"/>
<rect fill="#E6EAEF" fill-opacity="0.5" height="0.77" width="20.125" x="15.271" y="26.665"/>
<linearGradient id="_975" gradientUnits="userSpaceOnUse" x1="25.33" y1="39.63" x2="25.33" y2="10.34">
<stop stop-color="#808080" offset="0"/>
<stop stop-color="#7B7B7B" offset="0.21"/>
<stop stop-color="#6D6D6D" offset="0.45"/>
<stop stop-color="#555555" offset="0.71"/>
<stop stop-color="#353535" offset="0.99"/>
<stop stop-color="#333333" offset="1"/>
</linearGradient>
<path d="M35.387,11.879c-0.392-2.74-1.867-5.565-6.066-5.565 c-2.075,0-19.723,0-19.723,0v37.772H41.07c0,0,0-23.352,0-26.441C41.07,13.547,38.254,12.269,35.387,11.879z M40.232,43.248H10.438 V7.152H29.32c3.285,0,5.445,0.836,6.055,4.738c3.771,0.662,4.857,1.719,4.857,5.754V43.248z" fill="url(#_975)" fill-opacity="0.4"/>
<linearGradient id="_976" gradientUnits="userSpaceOnUse" x1="35.78" y1="15.15" x2="36.78" y2="45.31">
<stop stop-color="#CCCCCC" offset="0"/>
<stop stop-color="#000000" offset="1"/>
</linearGradient>
<path d="M48.249,52.169c-0.717-0.022-1.278-0.601-1.335-1.358l0,0c-0.291-5.804-5.34-13.433-12.441-13.596 l0,0l-0.095,3.803c-0.013,0.428-0.265,0.823-0.675,1.014l0,0c-0.139,0.06-0.295,0.096-0.454,0.096l0,0 c-0.269,0.002-0.532-0.098-0.763-0.303l0,0L23.581,32.9l-0.002-0.004c-0.185-0.197-0.3-0.467-0.302-0.744l0,0 c-0.001-0.021,0-0.034,0-0.034l0,0c0.002-0.332,0.146-0.628,0.363-0.818l0,0l9.203-8.785c0.212-0.199,0.483-0.295,0.75-0.293l0,0 c0.166,0,0.325,0.037,0.448,0.096l0,0c0.131,0.054,0.223,0.127,0.299,0.188l0,0c0.227,0.204,0.374,0.492,0.376,0.822l0,0 c0,0.009,0,0.017,0,0.036l0,0l-0.048,3.424c9.03,1.323,15.208,10.733,15.216,19.963l0,0c0,1.462-0.155,2.919-0.481,4.347l0,0 c-0.115,0.613-0.596,1.073-1.125,1.073l0,0C48.268,52.17,48.258,52.17,48.249,52.169L48.249,52.169z" fill="url(#_976)"/>
<linearGradient id="_977" gradientUnits="userSpaceOnUse" x1="36.58" y1="64.2" x2="36.58" y2="8.95">
<stop stop-color="#EBF7AB" offset="0"/>
<stop stop-color="#87B938" offset="0.49"/>
<stop stop-color="#006300" offset="1"/>
</linearGradient>
<path d="M33.85,22.777c0.063,0.025,0.105,0.059,0.158,0.1c0.135,0.121,0.217,0.297,0.208,0.478 l-0.054,3.869c10.33,1.168,17.107,13.458,14.754,23.756c-0.273,1.187-1.461,0.656-1.506-0.197 c-0.322-6.151-5.684-14.201-13.428-14.065L33.877,41c-0.008,0.246-0.148,0.468-0.374,0.57c-0.222,0.104-0.478,0.064-0.664-0.1 l-8.848-8.865c0-0.002,0-0.006-0.004-0.008c-0.138-0.121-0.212-0.283-0.211-0.468c-0.004-0.183,0.077-0.356,0.208-0.47l9.198-8.782 C33.367,22.712,33.633,22.676,33.85,22.777z" fill="url(#_977)"/>
<linearGradient id="_978" gradientUnits="userSpaceOnUse" x1="39.27" y1="55.93" x2="34.27" y2="16.43">
<stop stop-color="#61A10D" offset="0"/>
<stop stop-color="#E3F0B5" offset="0.91"/>
</linearGradient>
<path d="M43.359,33.688c3.992,4.611,6.037,12.09,5.301,10.877c-6.678-11.016-11.794-13.649-23.37-12.406 l7.675-7.145c0,0,0.102,3.771,0.068,3.786C36.881,28.773,40.787,30.73,43.359,33.688z" fill="url(#_978)"/>
</svg>