<?xml version="1.0" encoding="UTF-8" standalone="no"?>
<!DOCTYPE svg PUBLIC "-//W3C//DTD SVG 1.1 Tiny//EN" "http://www.w3.org/Graphics/SVG/1.1/DTD/svg11-tiny.dtd">
<svg xmlns="http://www.w3.org/2000/svg" xmlns:xlink="http://www.w3.org/1999/xlink" baseProfile="tiny" height="32" version="1.1" viewBox="0 0 38 32" width="38">
<g>
<rect fill="none" height="32" width="38"/>
<path d="M29.302,25.707c0.461,0.099,0.942,0.149,1.422,0.161c2.328,0.056,3.094-1.585,3.033-2.653   c0.03-1.234-0.844-2.066-1.718-2.484c-0.146-0.075-0.265-0.142-0.354-0.196c0.272,0.009,0.473,0.044,0.794,0.112   c0.236,0.052,0.932-0.035,0.971-0.78v-0.799c0-0.385-0.285-0.666-0.65-0.788c-0.498-0.167-2.582-0.292-3.357,0.441   c-0.158,0.149-0.319,0.295-0.447,0.475c-0.187-0.275-0.834-1.068-2.383-0.986H24.56c-0.477,0.012-0.836,0.418-0.799,0.799v0.321   c-0.477-0.707-1.369-1.21-2.467-1.186c-1.137-0.025-2.05,0.511-2.518,1.256c-0.178-0.413-0.881-1.257-2.579-1.19h-1.8   c-0.534,0.027-0.815,0.512-0.801,0.799v5.994c-0.029,0.297,0.283,0.781,0.801,0.8h1.357c0.281,0.028,0.797-0.253,0.799-0.8v-1.284   c0.654-0.045,1.241-0.249,1.699-0.643c0.055,0.348,0.142,0.699,0.287,1.042c0.245,0.607,0.737,1.193,1.449,1.503   c0.131,0.358,0.322,0.703,0.644,0.986c0.451,0.394,1.086,0.507,1.698,0.537c0.705,0.03,1.205-0.157,1.218-0.799v-0.708   c0-0.188-0.069-0.373-0.188-0.517c0.154-0.146,0.287-0.306,0.4-0.474v0.355c-0.006,0.203,0.166,0.734,0.799,0.8h1.359   c0.461-0.034,0.664-0.3,0.736-0.485c0.125,0.294,0.417,0.485,0.737,0.485h1.54C29.064,25.802,29.19,25.766,29.302,25.707z" fill-opacity="0.4" stroke-opacity="0.4"/>
<path d="M4.164,6.999v2.447c-0.018,0.446,0.482,0.821,0.801,0.799h5.793c-2.312,4.153-4.057,9.348-4.197,14.717   c-0.007,0.216,0.583,0.822,0.893,0.822h4.226c0.339,0,0.693-0.345,0.705-0.778c0.173-6.113,1.842-10.833,4.659-15.651   c0.073-0.124,0.11-0.26,0.11-0.403V6.999c-0.039-0.45-0.32-0.825-0.799-0.801H4.965C4.615,6.174,4.177,6.549,4.164,6.999z" fill-opacity="0.4" stroke-opacity="0.4"/>
<path d="M16.199,19.009c0.799,0,1.227,0.117,1.549,0.363c0.395,0.307,0.582,0.799,0.582,1.516   c0,1.318-0.656,2.041-2.104,2.041h-0.471v2.074h-1.357v-5.994H16.199z M15.984,22.153c0.396,0,0.543-0.057,0.676-0.172   c0.223-0.189,0.305-0.535,0.305-1.068c0-0.396-0.049-0.676-0.174-0.857c-0.121-0.189-0.311-0.271-0.713-0.271h-0.322v2.369H15.984z   " fill="#FFFFFF"/>
<path d="M22.346,26.345c-1.111,0-1.486-0.461-1.711-1.35c-1.406-0.355-1.664-1.795-1.664-3.07   c0-1.408,0.373-2.98,2.322-2.98c1.953,0,2.312,1.572,2.312,2.98c0,1.211-0.229,2.766-1.701,3.078   c0.115,0.486,0.295,0.633,0.844,0.633v0.709H22.346z M21.293,19.733c-0.838,0-0.912,1.07-0.912,2.191   c0,1.242,0.139,2.354,0.912,2.354c0.85,0,0.906-1.219,0.906-2.354C22.2,20.856,22.118,19.733,21.293,19.733z" fill="#FFFFFF"/>
<path d="M28.932,25.003h-1.539l-1.053-2.494h-0.42v2.494h-1.359v-5.994h2.051c0.676,0,0.996,0.074,1.285,0.225   c0.502,0.256,0.73,0.74,0.73,1.465c0,0.832-0.354,1.332-0.996,1.594L28.932,25.003z M26.381,21.745   c0.303,0,0.479-0.061,0.607-0.166c0.197-0.166,0.271-0.461,0.271-0.865c0-0.361-0.09-0.643-0.279-0.789   c-0.113-0.092-0.254-0.141-0.533-0.141H25.92v1.961H26.381z" fill="#FFFFFF"/>
<path d="M32.651,19.866c-0.377-0.082-0.674-0.133-1.076-0.133c-0.535,0-0.863,0.248-0.863,0.691   c0,0.479,0.354,0.699,0.955,1.014c0.797,0.42,1.291,0.896,1.291,1.777c0,1.309-0.891,1.852-2.232,1.852   c-0.461,0-0.939-0.059-1.381-0.164v-0.814c0.418,0.107,0.846,0.189,1.291,0.189c0.652,0,0.971-0.305,0.971-0.789   c0-0.512-0.305-0.701-1.092-1.145c-0.676-0.381-1.162-0.832-1.162-1.73c0-1.125,0.855-1.67,2.041-1.67   c0.42,0,0.84,0.043,1.258,0.123V19.866z" fill="#FFFFFF"/>
<path d="M16.354,8.951c-2.866,4.892-4.596,9.783-4.769,16.033H7.36c0.148-5.731,2.198-11.314,4.793-15.539H4.965V7   h11.389V8.951z" fill="#FFFFFF"/>
</g>
</svg>
