<?xml version="1.0" encoding="UTF-8" standalone="no"?>
<!DOCTYPE svg PUBLIC "-//W3C//DTD SVG 1.1 Tiny//EN" "http://www.w3.org/Graphics/SVG/1.1/DTD/svg11-tiny.dtd">
<svg xmlns="http://www.w3.org/2000/svg" xmlns:xlink="http://www.w3.org/1999/xlink" width="32" height="32" viewBox="0 0 32 32">
<rect fill="none" height="32" width="32"/>
<path d="M24.777,26.175h-3.374l1.031-5.033H18.91l-0.993,5.033H14.54l1.024-5.033h-2.142v-3.31h2.809l0.635-3.148h-3.443v-3.322 h4.112l1.032-5.059h3.359l-1.025,5.059h3.508l1.032-5.059h3.359l-1.035,5.059h2.101v3.322h-2.77l-0.632,3.148h3.401v3.31h-4.08 L24.777,26.175L24.777,26.175z M19.589,17.832h3.508l0.641-3.148h-3.51L19.589,17.832L19.589,17.832z"/>
<path d="M11.41,4.996L9.103,3.691L7.744,6.982L6.443,3.692l-2.34,1.304l2.141,2.793L2.667,7.392v2.514l3.578-0.373l-2.141,2.759 l2.34,1.324l1.301-3.19l1.359,3.19l2.307-1.324L9.279,9.532l3.565,0.373V7.392L9.279,7.789L11.41,4.996z"/>
</svg>