<?xml version="1.0" encoding="UTF-8"?>
<!DOCTYPE svg PUBLIC "-//W3C//DTD SVG 1.1 Tiny//EN" "http://www.w3.org/Graphics/SVG/1.1/DTD/svg11-tiny.dtd">
<svg baseProfile="tiny" height="60" version="1.1" viewBox="0 0 60 60" width="60" xmlns="http://www.w3.org/2000/svg" xmlns:xlink="http://www.w3.org/1999/xlink">
<path d="M37.043,27.496c-0.129,1.085-0.203,2.307-0.201,3.697c-0.003,2.494,0.233,4.459,0.615,6.014c0-2.654,0-6.449,0-6.438  C37.458,29.691,37.307,28.59,37.043,27.496z M32.184,35.501l-2.349-4.856h-4.106v15.668h4.042l2.6-6.584h1.434  c-0.431-1.248-0.74-2.65-0.933-4.228H32.184z M21.208,15.202c-8.447,0-15.323,6.292-15.323,14.029l0.013,10.501h5.223l2.613,6.584  h4.048V30.648H13.67l-2.353,4.853h-1.134v-6.424c0.091-5.315,5.043-9.647,11.024-9.647c5.546,0,10.204,3.625,11.561,8.519  c0.215-2.51,0.694-4.618,1.463-6.374C31.457,17.909,26.994,15.202,21.208,15.202z"/>
<path d="M46.087,24.812l2.082,2.085l-2.082,2.081V24.812z M46.087,37.568l2.082-2.077l-2.082-2.087V37.568z   M43.863,31.191l-4.506-4.515l1.306-1.308l3.59,3.596v-8.607l6.53,6.527l-4.315,4.308l4.312,4.313l-6.526,6.522v-8.603l-3.592,3.589  l-1.304-1.305L43.863,31.191z M45.068,43.791c5.506,0,9.298-2.613,9.298-12.6c0-9.988-3.792-12.603-9.298-12.603  c-5.504,0-9.299,2.614-9.299,12.603C35.77,41.178,39.564,43.791,45.068,43.791" fill="#004D8E"/>
<rect fill="none" height="60" width="60"/>
</svg>
