<?xml version="1.0" encoding="UTF-8" standalone="no"?>
<!DOCTYPE svg PUBLIC "-//W3C//DTD SVG 1.1 Tiny//EN" "http://www.w3.org/Graphics/SVG/1.1/DTD/svg11-tiny.dtd">
<svg xmlns="http://www.w3.org/2000/svg" xmlns:xlink="http://www.w3.org/1999/xlink" width="44" height="44" viewBox="0 0 44 44">
<rect fill="none" height="44" width="44"/>
<linearGradient id="SVGID_1" gradientUnits="userSpaceOnUse" x1="24.63" y1="8.42" x2="24.63" y2="36.42">
<stop stop-color="#B2B2B2" offset="0"/>
<stop stop-color="#000000" offset="1"/>
</linearGradient>
<path d="M24.528,16.337v7.797c-0.063-0.02-0.119-0.035-0.188-0.043c-1.275-0.176-2.861,0.627-3.543,1.799 c-0.68,1.17-0.189,2.262,1.086,2.431c1.275,0.184,2.856-0.625,3.539-1.791c0.19-0.334,0.281-0.662,0.295-0.959 c0.008-0.014,0.012-0.021,0.018-0.03c0-0.315,0-5.774,0-5.774l3.035,1.622v-2.504L24.528,16.337z" fill="url(#SVGID_1)"/>
<linearGradient id="SVGID_2" gradientUnits="userSpaceOnUse" x1="18.1" y1="6.4" x2="18.1" y2="39.06">
<stop stop-color="#FFFFFF" offset="0"/>
<stop stop-color="#000000" offset="1"/>
</linearGradient>
<circle cx="18.104" cy="35.184" fill="url(#SVGID_2)" r="3"/>
<circle cx="31.192" cy="35.184" fill="url(#SVGID_2)" r="3"/>
<path d="M13.941,13.341l-0.927-5.543h-7.49v2.5h5.419l3.534,21.979h20.404l3.466-18.966L13.941,13.341z M32.914,29.773H16.549l-2.205-13.933h21.092L32.914,29.773z" fill="url(#SVGID_2)"/>
</svg>