<?xml version="1.0" encoding="UTF-8"?>
<!DOCTYPE svg PUBLIC "-//W3C//DTD SVG 1.1 Tiny//EN" "http://www.w3.org/Graphics/SVG/1.1/DTD/svg11-tiny.dtd">
<svg width="84" height="58" viewBox="-1.41 0.226 84 58">
<linearGradient id="_12" gradientUnits="userSpaceOnUse" x1="49.13" y1="31.17" x2="57.61" y2="46">
<stop stop-color="#A2C2DD" offset="0.1"/>
<stop stop-color="#6C83BB" offset="0.71"/>
<stop stop-color="#003D6D" offset="0.99"/>
</linearGradient>
<path fill="url(#_12)" d="M36.881,5.648c-2.596-0.542-5.124,1.946-3.837,4.813c-0.004-0.007-1.056,1.328-1.07,1.341 c-2.542-0.553-5.358,1.878-3.953,4.962c-0.006,0.019-1.059,1.307-1.052,1.317c-2.537-0.533-5.481,1.881-4.048,5.076 c-0.011,0.001-1.252,1.556-1.243,1.561c-2.837-0.604-5.617,2.097-4.194,5.259c-0.923,1.159-2.028,2.546-2.028,2.546l1.405,5.08 l33.062,15.19l20.088-35.154l-0.094-4.987c0,0-2.402-0.589-3.244-0.813c0.594-0.917,3.904-6.035,3.904-6.035 c-8.778,0.676-16.789,0.614-30.947-1.58l-1.316-0.373C38.314,3.852,36.873,5.648,36.881,5.648z"/>
<polygon fill="#FFFFFF" points="38.667,4.788 69.523,12.931 49.173,46.542 16.698,33.385 "/>
<linearGradient id="_13" gradientUnits="userSpaceOnUse" x1="56.12" y1="29.86" x2="65.23" y2="36.94">
<stop stop-color="#DEE9F3" offset="0"/>
<stop stop-color="#235487" offset="1"/>
</linearGradient>
<polygon fill="url(#_13)" points="69.52,12.865 49.173,46.148 49.708,52.283 69.606,17.448 "/>
<linearGradient id="_14" gradientUnits="userSpaceOnUse" x1="34.71" y1="38.12" x2="31.16" y2="46.22">
<stop stop-color="#FFFFFF" offset="0"/>
<stop stop-color="#496DA2" offset="0.71"/>
<stop stop-color="#235487" offset="0.99"/>
</linearGradient>
<polygon fill="url(#_14)" points="49.173,46.148 15.904,32.653 17.198,37.33 49.708,52.283 "/>
<linearGradient id="_15" gradientUnits="userSpaceOnUse" x1="69.39" y1="18.4" x2="51.18" y2="20.93">
<stop stop-color="#CADCEC" offset="0"/>
<stop stop-color="#87A8CB" offset="1"/>
</linearGradient>
<path fill="url(#_15)" d="M38.599,4.378C57.376,7.673,69.9,6.264,69.9,6.264L48.321,39.618L38.599,4.378z"/>
<linearGradient id="_16" gradientUnits="userSpaceOnUse" x1="67.04" y1="22.39" x2="38.26" y2="21.86">
<stop stop-color="#FFFFFF" offset="0.15"/>
<stop stop-color="#A2C2DD" offset="1"/>
</linearGradient>
<path fill="url(#_16)" d="M66.224,12.051l-17.9,27.569c-17.518,0.229-29.199-6.463-32.483-6.859L38.568,4.252L66.224,12.051z "/>
<linearGradient id="_17" gradientUnits="userSpaceOnUse" x1="55.63" y1="16.84" x2="29.83" y2="28.98">
<stop stop-color="#E6EEF4" offset="0"/>
<stop stop-color="#4A9900" offset="0.44"/>
<stop stop-color="#0E4E58" offset="0.94"/>
</linearGradient>
<path fill="url(#_17)" d="M45.208,20.407c0,0,1.337-0.727,1.448,0.467c0.112,1.192,1.114,2.467,2.621,1.846 c0,0,6.146-2.773,4.612-4.764c-3.783-4.469-8.063-1.456-12.536,1.301c-5.356,3.299-9.147,5.736-6.94,10.809 c1.229,1.971,4.516-0.86,6.315-2.031c1.224-1.08,0.524-2.537-0.495-3.167c-1.021-0.627,0.223-1.506,0.223-1.506L45.208,20.407z"/>
<path fill="#3F5AA6" d="M34.165,13.972c0,0-6.697-2.301-5.602,2.729l1.272-1.545c0.187-0.19,1.335-0.013,1.983,0.526 c-0.611,1.648,1.037,2.881,2.824,1.508C35.875,16.245,36.083,13.995,34.165,13.972z"/>
<linearGradient id="_18" gradientUnits="userSpaceOnUse" x1="34.79" y1="14.51" x2="31.03" y2="14.44">
<stop stop-color="#FFFFFF" offset="0.05"/>
<stop stop-color="#A2C2DD" offset="1"/>
</linearGradient>
<path fill="url(#_18)" d="M33.343,16.87c0.753-0.212,1.275-0.512,1.302-1.468c-1.421-6.041-8.312-2.823-6.085,1.324 C28.355,14.341,31.886,11.919,33.343,16.87z"/>
<path fill="#3F5AA6" d="M39.064,7.728c0,0-6.496-2.232-5.434,2.648l1.234-1.5c0.182-0.184,1.296-0.009,1.924,0.512 c-0.592,1.6,1.008,2.794,2.74,1.463C40.723,9.931,40.925,7.752,39.064,7.728z"/>
<linearGradient id="_19" gradientUnits="userSpaceOnUse" x1="39.67" y1="8.25" x2="36.03" y2="8.19">
<stop stop-color="#FFFFFF" offset="0.05"/>
<stop stop-color="#A2C2DD" offset="1"/>
</linearGradient>
<path fill="url(#_19)" d="M38.267,10.538c0.73-0.203,1.237-0.495,1.264-1.422c-1.379-5.859-8.063-2.738-5.904,1.284 C33.429,8.087,36.853,5.739,38.267,10.538z"/>
<path fill="#3F5AA6" d="M29.212,20.361c0,0-6.897-2.372-5.769,2.811l1.312-1.592c0.191-0.196,1.375-0.012,2.041,0.541 c-0.629,1.7,1.068,2.97,2.91,1.557C30.974,22.7,31.188,20.384,29.212,20.361z"/>
<linearGradient id="_20" gradientUnits="userSpaceOnUse" x1="29.86" y1="20.92" x2="25.99" y2="20.85">
<stop stop-color="#FFFFFF" offset="0.05"/>
<stop stop-color="#A2C2DD" offset="1"/>
</linearGradient>
<path fill="url(#_20)" d="M28.366,23.345c0.775-0.215,1.313-0.526,1.341-1.511c-1.464-6.22-8.563-2.909-6.269,1.367 C23.229,20.739,26.864,18.248,28.366,23.345z"/>
<path fill="#3F5AA6" d="M23.968,27.117c0,0-7.171-2.465-5.998,2.923l1.363-1.657c0.199-0.203,1.43-0.009,2.123,0.566 c-0.654,1.767,1.113,3.087,3.027,1.612C25.802,29.55,26.025,27.144,23.968,27.117z"/>
<linearGradient id="_21" gradientUnits="userSpaceOnUse" x1="24.64" y1="27.69" x2="20.62" y2="27.62">
<stop stop-color="#FFFFFF" offset="0.05"/>
<stop stop-color="#A2C2DD" offset="1"/>
</linearGradient>
<path fill="url(#_21)" d="M23.089,30.217c0.807-0.222,1.365-0.544,1.396-1.569c-1.523-6.468-8.902-3.02-6.519,1.421 C17.747,27.513,21.528,24.922,23.089,30.217z"/>
<path fill="#FFFFFF" d="M12.298,34.726c-2.774,0-6.576,0.658-7.539,6.354l-0.146,0.857c0,0,6.394,0,7.151,0 c0.229,0.412,0.57,1.027,0.787,1.422c-0.217,0.393-0.558,1.008-0.787,1.418c-0.759,0-7.151,0-7.151,0l0.146,0.859 c0.963,5.693,4.765,6.352,7.539,6.352c2.188,0,4.138-1.834,5.705-3.311c0.847-0.799,1.646-1.549,2.068-1.549h19.58l0.219-0.24 c0.42-0.463,1.396-1.727,1.418-3.5v-0.063c-0.021-1.773-0.998-3.037-1.418-3.498l-0.219-0.24h-19.58 c-0.422,0-1.223-0.752-2.066-1.547C16.436,36.562,14.487,34.726,12.298,34.726z"/>
<linearGradient id="_22" gradientUnits="userSpaceOnUse" x1="10.96" y1="30.1" x2="32.07" y2="55.49">
<stop stop-color="#E6EDF3" offset="0"/>
<stop stop-color="#CABAD7" offset="0.12"/>
<stop stop-color="#AB7EB8" offset="0.27"/>
<stop stop-color="#9759A4" offset="0.38"/>
<stop stop-color="#8F4B9C" offset="0.44"/>
<stop stop-color="#73357C" offset="0.57"/>
<stop stop-color="#551D5A" offset="0.72"/>
<stop stop-color="#430E45" offset="0.85"/>
<stop stop-color="#3C093D" offset="0.94"/>
</linearGradient>
<path fill="url(#_22)" d="M40.556,43.358c0-0.008,0.002-0.018,0.002-0.023h-0.004c-0.018-1.543-0.902-2.656-1.229-3.012 c-0.412,0-19.254,0-19.254,0c-0.717,0-1.494-0.734-2.575-1.748c-1.471-1.387-3.301-3.111-5.198-3.111 c-3.079,0-5.995,0.904-6.812,5.738c1.156,0,6.713,0,6.713,0l1.193,2.156L12.2,45.513c0,0-5.557,0-6.713,0 c0.815,4.834,3.731,5.738,6.812,5.738c1.897,0,3.728-1.725,5.198-3.111c1.081-1.014,1.858-1.748,2.575-1.748c0,0,18.842,0,19.254,0 c0.324-0.354,1.211-1.469,1.229-3.012h0.004C40.558,43.372,40.556,43.366,40.556,43.358z"/>
</svg>