<?xml version="1.0" encoding="UTF-8"?>
<!DOCTYPE svg PUBLIC "-//W3C//DTD SVG 1.1 Tiny//EN" "http://www.w3.org/Graphics/SVG/1.1/DTD/svg11-tiny.dtd">
<svg width="84" height="58" viewBox="-0.838 0.168 84 58">
<linearGradient id="_17" gradientUnits="userSpaceOnUse" x1="29" y1="1.56" x2="50" y2="47.44">
<stop stop-color="#A2C2DD" offset="0.1"/>
<stop stop-color="#6C83BB" offset="0.71"/>
<stop stop-color="#003D6D" offset="0.99"/>
</linearGradient>
<path fill="url(#_17)" d="M71.062,27.507c0-1.026-0.094-2.09-0.291-3.193c-0.34-4.009-2.851-9.563-12.859-13.306 c0,0-0.285-0.051-0.395,0.199s0.079,0.421,0.079,0.421c4.819,3.171,7.332,6.861,7.332,10.734c0,0.377-0.023,0.756-0.071,1.136 c-0.635,5.045-5.851,9.806-13.278,12.475l-0.316-5.118l-11.545,7.34c1.045-7.604,1.671-16.293,1.062-23.718 c-0.991-1.152-3.086-2.523-5.005-3.269l0.8-5.669c0.395-1.971-5.161-2.414-5.13-0.426c0.022,1.469,0.145,5.025,0.145,5.025 c-6.771-1.09-13.792,1.137-15.98,2.017c-0.693,12.027,0.788,27.189,1.83,34.32c2.021,2.131,8.929,6.481,14.836,6.238 c2.064-0.799,4.399-3.663,4.399-3.663s0.09-0.433,0.155-0.748l16.432,5.161l-0.035-4.15c0,0-0.039-0.369-0.066-0.629 C55.852,47.574,71.062,40.711,71.062,27.507z"/>
<linearGradient id="_18" gradientUnits="userSpaceOnUse" x1="28.63" y1="5.12" x2="40.46" y2="21.98">
<stop stop-color="#A2C2DD" offset="0.1"/>
<stop stop-color="#6C83BB" offset="0.71"/>
<stop stop-color="#003D6D" offset="0.99"/>
</linearGradient>
<path fill="url(#_18)" d="M27.037,10.249c3.563-0.132,9.564,0.385,13.433,4.359l-2.289,1.081L27.037,10.249z"/>
<linearGradient id="_19" gradientUnits="userSpaceOnUse" x1="35.16" y1="6.65" x2="39.41" y2="40.13">
<stop stop-color="#FFFFFF" offset="0"/>
<stop stop-color="#A2C2DD" offset="0.35"/>
<stop stop-color="#6C83BB" offset="0.7"/>
<stop stop-color="#003D6D" offset="1"/>
</linearGradient>
<path fill="url(#_19)" d="M38.56,15.481l-2.417,32.726l1.845-1.594c1.443-6.496,3.407-22.527,2.475-32.056L38.56,15.481z"/>
<linearGradient id="_20" gradientUnits="userSpaceOnUse" x1="21.76" y1="18.12" x2="32.5" y2="9.49">
<stop stop-color="#FFFFFF" offset="0.15"/>
<stop stop-color="#A2C2DD" offset="1"/>
</linearGradient>
<path fill="url(#_20)" d="M15.921,12.405c6.784-2.481,16.177-3.991,22.915,2.408l-5.495,2.671L15.921,12.405z"/>
<linearGradient id="_21" gradientUnits="userSpaceOnUse" x1="35.34" y1="8.96" x2="35.87" y2="61.44">
<stop stop-color="#FFFFFF" offset="0"/>
<stop stop-color="#A2C2DD" offset="0.35"/>
<stop stop-color="#6C83BB" offset="0.7"/>
<stop stop-color="#003D6D" offset="1"/>
</linearGradient>
<path fill="url(#_21)" d="M33.341,17.483L32.125,52.37c2.573-1.212,4.207-3.449,4.207-3.449 c1.522-6.854,3.489-24.057,2.504-34.108L33.341,17.483z"/>
<linearGradient id="_22" gradientUnits="userSpaceOnUse" x1="30.16" y1="12.37" x2="37.65" y2="15.64">
<stop stop-color="#FFFFFF" offset="0"/>
<stop stop-color="#A2C2DD" offset="0.35"/>
<stop stop-color="#6C83BB" offset="0.7"/>
<stop stop-color="#003D6D" offset="1"/>
</linearGradient>
<path fill="url(#_22)" d="M35.81,13.654c0.276,1.767-4.425,2.038-4.386,0.098C31.45,12.417,35.603,12.34,35.81,13.654z"/>
<linearGradient id="_23" gradientUnits="userSpaceOnUse" x1="31.69" y1="9.62" x2="37.35" y2="10">
<stop stop-color="#E6EEF4" offset="0"/>
<stop stop-color="#337CE5" offset="0.44"/>
<stop stop-color="#003D6D" offset="0.94"/>
</linearGradient>
<path fill="url(#_23)" d="M31.929,4.911c0,0,0.284,8.975,0.283,8.997c0.682,0.768,2.292,0.71,2.772,0.018l1.22-8.58 L31.929,4.911z"/>
<linearGradient id="_24" gradientUnits="userSpaceOnUse" x1="34.52" y1="10.9" x2="20.16" y2="40.3">
<stop stop-color="#FFFFFF" offset="0.05"/>
<stop stop-color="#A2C2DD" offset="1"/>
</linearGradient>
<path fill="url(#_24)" d="M15.921,12.405c3.772-1.258,11.764-0.21,17.42,5.079c0.664,9.483,0.128,25.954-1.216,34.887 c-4.563,0.116-11.006-3.016-14.407-6.031C16.6,38.366,15.215,21.941,15.921,12.405z"/>
<linearGradient id="_25" gradientUnits="userSpaceOnUse" x1="37.32" y1="33.63" x2="15.13" y2="21.35">
<stop stop-color="#FFFFFF" offset="0.05"/>
<stop stop-color="#A2C2DD" offset="1"/>
</linearGradient>
<polygon fill="url(#_25)" points="17.801,14.706 18.383,34.813 30.989,39.557 31.409,18.697 "/>
<linearGradient id="_26" gradientUnits="userSpaceOnUse" x1="19.5" y1="49.78" x2="18.31" y2="3.07">
<stop stop-color="#FFFFFF" offset="0"/>
<stop stop-color="#A2C2DD" offset="0.35"/>
<stop stop-color="#6C83BB" offset="0.7"/>
<stop stop-color="#003D6D" offset="1"/>
</linearGradient>
<polygon fill="url(#_26)" points="19.791,33.943 19.426,15.179 17.801,14.706 18.383,34.813 "/>
<linearGradient id="_27" gradientUnits="userSpaceOnUse" x1="31.99" y1="43.24" x2="14.16" y2="26.41">
<stop stop-color="#FFFFFF" offset="0.15"/>
<stop stop-color="#A2C2DD" offset="1"/>
</linearGradient>
<polygon fill="url(#_27)" points="18.383,34.813 19.791,33.943 31.037,37.918 30.989,39.557 "/>
<linearGradient id="_28" gradientUnits="userSpaceOnUse" x1="32.49" y1="5.61" x2="35.93" y2="4.5">
<stop stop-color="#D6E4F3" offset="0"/>
<stop stop-color="#337CE5" offset="1"/>
</linearGradient>
<path fill="url(#_28)" d="M36.204,5.346c-0.402,1.164-4.683,0.646-4.236-0.515C32.421,3.681,36.59,4.173,36.204,5.346z"/>
<linearGradient id="_29" gradientUnits="userSpaceOnUse" x1="15.3" y1="39.5" x2="30.65" y2="46.07">
<stop stop-color="#E6EEF4" offset="0"/>
<stop stop-color="#337CE5" offset="0.44"/>
<stop stop-color="#003D6D" offset="0.94"/>
</linearGradient>
<polygon fill="url(#_29)" points="29.933,41.568 18.919,37.449 19.408,45.269 29.5,49.766 "/>
<linearGradient id="_30" gradientUnits="userSpaceOnUse" x1="73.34" y1="27.01" x2="37.02" y2="51.76">
<stop stop-color="#E6EEF4" offset="0"/>
<stop stop-color="#2F8E9A" offset="0.44"/>
<stop stop-color="#003D6D" offset="0.94"/>
</linearGradient>
<path fill="url(#_30)" d="M69.574,21.158c3.047,8.639-17.746,22.529-17.746,22.529l0.589,4.915 C52.941,48.449,76.031,39.475,69.574,21.158z"/>
<linearGradient id="_31" gradientUnits="userSpaceOnUse" x1="41.55" y1="51.08" x2="45.7" y2="41.1">
<stop stop-color="#E6EEF4" offset="0"/>
<stop stop-color="#2F8E9A" offset="0.44"/>
<stop stop-color="#003D6D" offset="0.94"/>
</linearGradient>
<polygon fill="url(#_31)" points="52.831,49.16 52.907,52.987 33.132,46.775 32.734,43.049 "/>
<linearGradient id="_32" gradientUnits="userSpaceOnUse" x1="44.07" y1="53.55" x2="74.2" y2="-18.81">
<stop stop-color="#E6EEF4" offset="0"/>
<stop stop-color="#2F8E9A" offset="0.44"/>
<stop stop-color="#003D6D" offset="0.94"/>
</linearGradient>
<path fill="url(#_32)" d="M57.788,11.336c22.116,8.27,12.193,27.925-5.933,32.943l0.976,4.881l-20.095-6.111l18.236-11.595 l0.267,5.082C65.21,31.848,71.139,20.121,57.788,11.336z"/>
</svg>