<?xml version="1.0" encoding="UTF-8"?>
<!DOCTYPE svg PUBLIC "-//W3C//DTD SVG 1.1 Tiny//EN" "http://www.w3.org/Graphics/SVG/1.1/DTD/svg11-tiny.dtd">
<svg width="84" height="58" viewBox="0 0 84 58">
<linearGradient id="_13" gradientUnits="userSpaceOnUse" x1="41.59" y1="29.22" x2="52.77" y2="51.23">
<stop stop-color="#A2C2DD" offset="0.1"/>
<stop stop-color="#6C83BB" offset="0.71"/>
<stop stop-color="#003D6D" offset="0.99"/>
</linearGradient>
<path fill="url(#_13)" d="M52.949,11.217c0.021-0.546,0.185-4.8,0.185-4.8L37.647,4.15l-3.75,1.145 c0,0-2.496,8.479-2.661,9.038c-0.562-0.097-6.786-1.164-6.786-1.164l-5.919,2.159c0,0,4.079,17.626,4.325,18.691 c-1.298-0.375-2.584-0.503-3.828-0.313c-4.731,0.729-6.979,5.269-7.001,5.314l-0.137,0.282l4.138,2.599l0.173-0.317 c0.012-0.023,1.258-2.353,3.524-2.678c0.797-0.114,1.683,0.027,2.624,0.424c1.629,0.683,3.408,2.093,5.288,4.19 c2.319,2.588,4.625,4.39,6.853,5.357c1.759,0.766,3.499,1.023,5.169,0.768c3.162-0.481,5.19-2.668,6.202-4.065 c0.438,0.134,11.041,3.386,11.041,3.386l11.556-35.408C68.458,13.559,53.543,11.307,52.949,11.217z M38.961,44.448 c-1.725,0.246-3.83-0.775-6.122-2.86c1.917,0.587,6.496,1.991,7.543,2.313C39.922,44.17,39.451,44.378,38.961,44.448z"/>
<linearGradient id="_14" gradientUnits="userSpaceOnUse" x1="24.55" y1="26.89" x2="64.72" y2="26.89">
<stop stop-color="#FFFFFF" offset="0.15"/>
<stop stop-color="#A2C2DD" offset="1"/>
</linearGradient>
<polygon fill="url(#_14)" points="24.546,38.564 34.247,5.622 50.028,8.152 49.915,13.041 64.72,15.523 56.653,48.162 "/>
<linearGradient id="_15" gradientUnits="userSpaceOnUse" x1="46.75" y1="37.86" x2="17.41" y2="13.02">
<stop stop-color="#CADCEC" offset="0"/>
<stop stop-color="#87A8CB" offset="1"/>
</linearGradient>
<polygon fill="url(#_15)" points="56.655,47.852 24.388,38.551 19.067,15.563 51.188,22 "/>
<linearGradient id="_16" gradientUnits="userSpaceOnUse" x1="34.65" y1="23.69" x2="39.94" y2="13.12">
<stop stop-color="#FFFFFF" offset="0.15"/>
<stop stop-color="#A2C2DD" offset="1"/>
</linearGradient>
<polygon fill="url(#_16)" points="56.622,19.043 24.589,13.546 19.067,15.563 51.273,22.125 "/>
<linearGradient id="_17" gradientUnits="userSpaceOnUse" x1="42.7" y1="8.44" x2="44.55" y2="3.4">
<stop stop-color="#FFFFFF" offset="0.05"/>
<stop stop-color="#A2C2DD" offset="1"/>
</linearGradient>
<polygon fill="url(#_17)" points="52.767,6.764 37.731,4.561 34.277,5.637 50.028,8.152 "/>
<linearGradient id="_18" gradientUnits="userSpaceOnUse" x1="58.08" y1="15.75" x2="59.98" y2="10.58">
<stop stop-color="#FFFFFF" offset="0.05"/>
<stop stop-color="#A2C2DD" offset="1"/>
</linearGradient>
<polygon fill="url(#_18)" points="67.933,13.857 52.583,11.541 49.915,13.041 64.72,15.523 "/>
<linearGradient id="_19" gradientUnits="userSpaceOnUse" x1="64.55" y1="30.98" x2="51.6" y2="35.48">
<stop stop-color="#A2C2DD" offset="0.1"/>
<stop stop-color="#6C83BB" offset="0.71"/>
<stop stop-color="#003D6D" offset="0.99"/>
</linearGradient>
<polygon fill="url(#_19)" points="56.622,19.043 56.657,48.412 51.19,22.168 "/>
<linearGradient id="_20" gradientUnits="userSpaceOnUse" x1="48.77" y1="18.12" x2="66.08" y2="34.64">
<stop stop-color="#A2C2DD" offset="0.1"/>
<stop stop-color="#6C83BB" offset="0.71"/>
<stop stop-color="#003D6D" offset="0.99"/>
</linearGradient>
<polygon fill="url(#_20)" points="67.933,13.857 56.668,48.211 64.72,15.523 "/>
<linearGradient id="_21" gradientUnits="userSpaceOnUse" x1="31.96" y1="-0.33" x2="70" y2="19.75">
<stop stop-color="#FFFFFF" offset="0"/>
<stop stop-color="#A2C2DD" offset="0.35"/>
<stop stop-color="#6C83BB" offset="0.7"/>
<stop stop-color="#003D6D" offset="1"/>
</linearGradient>
<polygon fill="url(#_21)" points="50.028,8.152 49.915,13.041 52.583,11.541 52.767,6.764 "/>
<linearGradient id="_22" gradientUnits="userSpaceOnUse" x1="17.64" y1="46.11" x2="47.9" y2="31.05">
<stop stop-color="#FFFFFF" offset="0.15"/>
<stop stop-color="#A2C2DD" offset="1"/>
</linearGradient>
<polygon fill="url(#_22)" points="24.546,38.564 30.62,17.926 51.235,22.162 56.657,48.412 "/>
<linearGradient id="_23" gradientUnits="userSpaceOnUse" x1="16.83" y1="41.68" x2="39.17" y2="41.68">
<stop stop-color="#E6EEF4" offset="0"/>
<stop stop-color="#4A9900" offset="0.44"/>
<stop stop-color="#0E4E58" offset="0.94"/>
</linearGradient>
<path fill="url(#_23)" d="M42.791,41.946l0.01-0.019c-0.014,0.029-1.349,2.515-3.79,2.867 c-2.313,0.33-5.156-1.304-8.226-4.729c-4.081-4.556-8.021-6.577-11.704-6.014c-4.452,0.686-6.65,4.938-6.739,5.121l3.556,2.233 l-0.008,0.019c0.012-0.026,1.348-2.515,3.786-2.865c2.313-0.332,5.158,1.305,8.226,4.729c4.079,4.551,8.021,6.574,11.704,6.011 c4.455-0.679,6.653-4.937,6.744-5.117L42.791,41.946z"/>
<linearGradient id="_24" gradientUnits="userSpaceOnUse" x1="44.5" y1="42.71" x2="12.5" y2="42.71">
<stop stop-color="#E6EEF4" offset="0"/>
<stop stop-color="#4A9900" offset="0.44"/>
<stop stop-color="#0E4E58" offset="0.94"/>
</linearGradient>
<path fill="url(#_24)" d="M44.508,43.025c-0.018,0.03-1.858,3.478-5.271,3.895c-2.319,0.283-5.943-0.863-9.015-4.29 c-4.081-4.553-7.182-7.155-10.849-6.497c-3.704,0.668-5.34,3.859-5.431,4.044l1.953,1.227l-0.008,0.021 c0.012-0.029,1.347-2.515,3.786-2.865c2.313-0.332,5.156,1.305,8.226,4.729c4.079,4.551,8.021,6.574,11.704,6.011 c4.455-0.679,6.652-4.938,6.743-5.119L44.508,43.025z"/>
</svg>