<?xml version="1.0" encoding="UTF-8"?>
<!DOCTYPE svg PUBLIC "-//W3C//DTD SVG 1.1 Tiny//EN" "http://www.w3.org/Graphics/SVG/1.1/DTD/svg11-tiny.dtd">
<svg width="60" height="80" viewBox="0 0 60 80">
<linearGradient id="_6" gradientUnits="userSpaceOnUse" x1="29.11" y1="37.63" x2="40.91" y2="60.88">
<stop stop-color="#A2C2DD" offset="0.1"/>
<stop stop-color="#6C83BB" offset="0.71"/>
<stop stop-color="#003D6D" offset="0.99"/>
</linearGradient>
<path fill="url(#_6)" d="M16.176,14.783L4.304,25.613L5.4,45.105l11.638,13.826l18.399,4.547L52.775,50.3l0.854-18.561 L40.182,16.516l-18.915-3.38L16.176,14.783z"/>
<linearGradient id="_7" gradientUnits="userSpaceOnUse" x1="51.06" y1="22.33" x2="51.06" y2="60.83">
<stop stop-color="#E6EEF4" offset="0"/>
<stop stop-color="#C03A3A" offset="0.44"/>
<stop stop-color="#302D02" offset="0.94"/>
</linearGradient>
<polygon fill="url(#_7)" points="49.166,34.424 53.273,31.867 52.434,50.122 48.846,53.186 "/>
<linearGradient id="_8" gradientUnits="userSpaceOnUse" x1="33.42" y1="7.53" x2="50.25" y2="34.53">
<stop stop-color="#E3DFE4" offset="0"/>
<stop stop-color="#C03A3A" offset="1"/>
</linearGradient>
<polygon fill="url(#_8)" points="35.658,18.622 40,16.839 53.254,31.852 49.109,34.432 "/>
<linearGradient id="_9" gradientUnits="userSpaceOnUse" x1="20.21" y1="11.1" x2="39.87" y2="23.1">
<stop stop-color="#E3DFE4" offset="0"/>
<stop stop-color="#C03A3A" offset="1"/>
</linearGradient>
<polygon fill="url(#_9)" points="16.355,15.092 21.292,13.496 40,16.839 35.646,18.638 "/>
<polygon fill="#E0CFD4" points="35.646,18.725 49.243,34.445 48.959,53.05 35.359,63.1 17.232,58.62 5.742,44.97 4.663,25.76 16.603,15.213 "/>
<linearGradient id="_10" gradientUnits="userSpaceOnUse" x1="-2.79" y1="1.57" x2="36.04" y2="50.91">
<stop stop-color="#E3DFE4" offset="0"/>
<stop stop-color="#C03A3A" offset="1"/>
</linearGradient>
<path fill="url(#_10)" d="M17.365,17.124l-11.07,9.601l0.941,17.477L17.97,56.723l16.672,4.021l12.373-8.72l0.271-16.723 l-12.54-14.523L17.365,17.124z"/>
<path fill="#FFFFFF" d="M37.215,34.541l0.322,15.732l2.512,0.554c0,0-0.102-6.134-0.107-6.606c2.313,0.581,6.144,1.973,6.229-3.128 C46.262,35.68,40.074,35.254,37.215,34.541z M39.918,41.632l-0.064-3.943c1.49,0.393,3.799,0.626,3.723,2.768 C43.479,42.9,42.21,42.08,39.918,41.632z"/>
<path fill="#FFFFFF" d="M31.299,46.41c-2.522-0.938-2.393-4.896-2.35-7.549c0.046-2.837,0.729-3.495,2.078-3.417 c2.392,0.612,2.447,3.624,2.478,5.603C33.6,47.139,31.578,46.514,31.299,46.41z M26.636,40.401c0.22,2.588,0.22,7.172,4.615,8.679 c1.165,0.4,5.547,0.701,4.112-11.37c-0.322-2.708-2.35-4.507-4.293-4.937C29.382,32.402,25.992,32.871,26.636,40.401z"/>
<path fill="#FFFFFF" d="M17.995,32.544l2.852,0.622l0.215,12.959l2.568,0.607l-0.215-13.006l2.852,0.628l-0.037-2.335l-8.275-1.787 L17.995,32.544z"/>
<path fill="#FFFFFF" d="M9.185,32.171c0.282,2.324,1.344,3.079,2.684,4.087c0,0,3.497,2.272,3.411,4.682 c-0.021,0.578-0.497,1.354-1.768,1.086c-2.171-0.449-2.009-2.667-2.009-2.667l-2.731-0.613c0,0,0.236,4.975,4.697,5.865 c1.194,0.238,4.103,0.154,4.287-3.312c0.2-3.771-4.328-6.884-4.328-6.884c-0.92-0.702-1.859-1.083-1.707-1.942 c0.445-2.501,3.226-0.193,2.937,0.682l2.643,0.572c0,0,0.383-3.685-4.156-4.872C10.238,28.098,8.981,30.487,9.185,32.171z"/>
</svg>