<?xml version="1.0" encoding="UTF-8"?>
<!DOCTYPE svg PUBLIC "-//W3C//DTD SVG 1.1 Tiny//EN" "http://www.w3.org/Graphics/SVG/1.1/DTD/svg11-tiny.dtd">
<svg width="84" height="58" viewBox="0 0 84 58">
<linearGradient id="_10" gradientUnits="userSpaceOnUse" x1="163.92" y1="82.29" x2="163.92" y2="82.3">
<stop stop-color="#A2C2DD" offset="0.1"/>
<stop stop-color="#6C83BB" offset="0.71"/>
<stop stop-color="#003D6D" offset="0.99"/>
</linearGradient>
<path fill="url(#_10)" d="M163.922,82.279v0.034C163.922,82.304,163.922,82.279,163.922,82.279z"/>
<polygon fill="#6D5607" points="26.403,3.896 26.403,30.654 28.543,32.535 28.575,27.714 28.575,4.409 "/>
<path fill="#B18E3B" d="M26.403,3.896c0.185,0.211,0.879,0.397,1.554,0.39l1.237-0.535c-0.466-0.29-1.253-0.354-1.67-0.29 L26.403,3.896z"/>
<path fill="#6D5607" d="M37.981,20.74c-1.335-5.914-6.404-7.574-8.779-11.714l-0.004-5.273l-1.232,0.528v0.168 c0-0.052-0.011-0.095-0.011-0.146L27.756,4.3l0.114,11.196c0.024,0.004,0.062,0.01,0.091,0.016l-0.009,20.754l1.274-2.194 l-0.019-18.227c9.448,3.592,7.744,10.038,4.757,15.646l0.925,0.639C37.188,28.536,38.564,23.592,37.981,20.74z"/>
<linearGradient id="_12" gradientUnits="userSpaceOnUse" x1="43.99" y1="39.45" x2="26.04" y2="4.98">
<stop stop-color="#E6EEF4" offset="0"/>
<stop stop-color="#A3740A" offset="0.44"/>
<stop stop-color="#474105" offset="0.94"/>
</linearGradient>
<path fill="url(#_12)" d="M35.618,31.672c2.363-3.569,3.799-8.494,3.249-11.357c-1.656-7.756-9.803-8.292-9.703-16.359 L28.1,4.493c-0.002,8.216,8.055,8.593,9.782,16.241c0.585,2.853-0.677,7.801-3,11.396L35.618,31.672z"/>
<radialGradient id="_13" gradientUnits="userSpaceOnUse" cx="23.93" cy="32.9" fx="24.14" fy="32.9" r="5.89">
<stop stop-color="#E6EEF4" offset="0"/>
<stop stop-color="#A3740A" offset="0.44"/>
<stop stop-color="#474105" offset="0.94"/>
</radialGradient>
<path fill="url(#_13)" d="M28.494,36.382c-1.671,3.027-5.563,5.104-8.7,4.643c-3.132-0.455-4.322-3.278-2.653-6.301 c1.667-3.028,5.565-5.109,8.701-4.649C28.977,30.534,30.165,33.354,28.494,36.382z"/>
<polygon fill="#6D5607" points="46.407,15.756 46.407,42.003 49.142,44.416 49.186,38.237 49.193,15.317 "/>
<linearGradient id="_14" gradientUnits="userSpaceOnUse" x1="41.68" y1="33.31" x2="48.13" y2="34.01">
<stop stop-color="#E6EEF4" offset="0"/>
<stop stop-color="#A3740A" offset="0.44"/>
<stop stop-color="#474105" offset="0.94"/>
</linearGradient>
<polygon fill="url(#_14)" points="48.401,22.292 48.392,43.177 50.02,46.38 50.02,22.04 "/>
<radialGradient id="_15" gradientUnits="userSpaceOnUse" cx="44.06" cy="44.61" r="6.88">
<stop stop-color="#E6EEF4" offset="0"/>
<stop stop-color="#A3740A" offset="0.44"/>
<stop stop-color="#474105" offset="0.94"/>
</radialGradient>
<path fill="url(#_15)" d="M49.261,48.736c-1.945,3.518-6.479,5.946-10.131,5.408c-3.648-0.532-5.033-3.82-3.088-7.343 c1.942-3.523,6.476-5.944,10.131-5.415C49.821,41.925,51.206,45.214,49.261,48.736z"/>
<polygon fill="#6D5607" points="68.505,10.994 68.505,37.242 71.239,39.652 71.283,33.474 71.283,10.611 "/>
<polygon fill="#6D5607" points="71.203,11.227 48.296,14.84 48.273,23.11 70.5,19.384 70.489,38.764 72.119,41.618 72.119,10.273 "/>
<linearGradient id="_16" gradientUnits="userSpaceOnUse" x1="53.55" y1="2.12" x2="66.62" y2="27.08">
<stop stop-color="#E6EEF4" offset="0"/>
<stop stop-color="#A3740A" offset="0.44"/>
<stop stop-color="#474105" offset="0.94"/>
</linearGradient>
<polygon fill="url(#_16)" points="46.376,15.783 48.471,14.194 72.138,10.268 70.479,11.869 "/>
<radialGradient id="_17" gradientUnits="userSpaceOnUse" cx="66.3" cy="39.74" r="7.63">
<stop stop-color="#E6EEF4" offset="0"/>
<stop stop-color="#A3740A" offset="0.44"/>
<stop stop-color="#474105" offset="0.94"/>
</radialGradient>
<path fill="url(#_17)" d="M71.357,43.977c-1.942,3.518-6.475,5.942-10.13,5.402c-3.648-0.528-5.033-3.816-3.088-7.338 c1.941-3.522,6.479-5.948,10.13-5.414C71.92,37.16,73.306,40.45,71.357,43.977z"/>
<path fill="#FFFFFF" d="M13.875,34.334c-2.774,0-6.576,0.658-7.539,6.354l-0.146,0.857c0,0,6.394,0,7.152,0 c0.229,0.412,0.57,1.027,0.787,1.422c-0.217,0.393-0.558,1.008-0.787,1.42c-0.759,0-7.152,0-7.152,0l0.146,0.857 c0.963,5.693,4.765,6.352,7.539,6.352c2.188,0,4.138-1.834,5.704-3.311c0.847-0.799,1.646-1.549,2.068-1.549h19.581l0.219-0.24 c0.42-0.463,1.396-1.727,1.417-3.5v-0.063c-0.021-1.771-0.998-3.037-1.417-3.498l-0.219-0.24H21.646 c-0.422,0-1.222-0.752-2.066-1.547C18.013,36.17,16.063,34.334,13.875,34.334z"/>
<linearGradient id="_18" gradientUnits="userSpaceOnUse" x1="14.41" y1="32.08" x2="32.21" y2="53.29">
<stop stop-color="#E6EEF4" offset="0"/>
<stop stop-color="#9646AC" offset="0.44"/>
<stop stop-color="#3D013F" offset="0.94"/>
</linearGradient>
<path fill="url(#_18)" d="M42.131,42.967c0-0.008,0.002-0.018,0.002-0.023h-0.004c-0.018-1.543-0.902-2.656-1.229-3.012 c-0.412,0-19.254,0-19.254,0c-0.717,0-1.493-0.734-2.574-1.748c-1.471-1.387-3.301-3.111-5.198-3.111 c-3.079,0-5.995,0.904-6.812,5.738c1.157,0,6.713,0,6.713,0l1.194,2.156l-1.194,2.154c0,0-5.556,0-6.713,0 c0.816,4.834,3.732,5.738,6.812,5.738c1.897,0,3.728-1.727,5.198-3.111C20.153,46.734,20.93,46,21.646,46c0,0,18.842,0,19.254,0 c0.324-0.354,1.211-1.469,1.229-3.012h0.004C42.133,42.98,42.131,42.975,42.131,42.967z"/>
</svg>