<?xml version="1.0" encoding="UTF-8" standalone="no"?>
<!DOCTYPE svg PUBLIC "-//W3C//DTD SVG 1.1 Tiny//EN" "http://www.w3.org/Graphics/SVG/1.1/DTD/svg11-tiny.dtd">
<svg xmlns="http://www.w3.org/2000/svg" xmlns:xlink="http://www.w3.org/1999/xlink" width="96" height="16" viewBox="0 0 96 16">
<rect fill="none" height="16" width="96"/>
<path d="M56,2.791c2.872,0,5.21,2.338,5.21,5.209s-2.338,5.209-5.21,5.209S50.79,10.871,50.79,8 S53.128,2.791,56,2.791 M56,1.791c-3.424,0-6.21,2.785-6.21,6.209s2.786,6.209,6.21,6.209S62.21,11.424,62.21,8 S59.424,1.791,56,1.791L56,1.791z" fill="#FFFFFF"/>
<path d="M56,13.209c2.872,0,5.21-2.338,5.21-5.209S58.872,2.791,56,2.791 S50.79,5.129,50.79,8S53.128,13.209,56,13.209L56,13.209z" fill="#4B5879"/>
<path d="M40,1.709c3.47,0,6.293,2.822,6.293,6.291c0,3.469-2.823,6.291-6.293,6.291 c-3.469,0-6.291-2.822-6.291-6.291C33.709,4.531,36.531,1.709,40,1.709 M40,0.5c-4.135,0-7.5,3.363-7.5,7.5 c0,4.135,3.365,7.5,7.5,7.5c4.136,0,7.5-3.365,7.5-7.5C47.5,3.863,44.136,0.5,40,0.5L40,0.5z" fill="#4B5879"/>
<path d="M40,14.291c3.47,0,6.293-2.822,6.293-6.291c0-3.469-2.823-6.291-6.293-6.291 c-3.469,0-6.291,2.822-6.291,6.291C33.709,11.469,36.531,14.291,40,14.291L40,14.291z" fill="#FFFFFF"/>
</svg>