<?xml version="1.0" encoding="UTF-8"?>
<!DOCTYPE svg PUBLIC "-//W3C//DTD SVG 1.1 Tiny//EN" "http://www.w3.org/Graphics/SVG/1.1/DTD/svg11-tiny.dtd">
<svg width="12" height="32" viewBox="-0.5 -0.101 12 32">
<path fill="#DEE9F3" d="M6,26.948c-2.484,0-4.5-1.201-4.5-2.666V23.61c0-1.854,2.016-2.711,4.5-2.711l0,0 c2.486,0,4.5,0.857,4.5,2.711v0.672C10.5,25.747,8.486,26.948,6,26.948L6,26.948z"/>
<path fill-opacity="0.5" fill="#87A8CB" d="M0.5,23.61v0.672c0,2.01,2.467,3.617,5.5,3.617c3.031,0,5.5-1.607,5.5-3.617V23.61 c0-2.4-2.469-3.711-5.5-3.711C2.967,19.899,0.5,21.21,0.5,23.61z M1.5,24.282V23.61c0-1.846,2.018-2.711,4.5-2.711 s4.5,0.865,4.5,2.711v0.672c0,1.461-2.018,2.666-4.5,2.666S1.5,25.743,1.5,24.282z"/>
</svg>