<?xml version="1.0" encoding="UTF-8" standalone="no"?>
<!DOCTYPE svg PUBLIC "-//W3C//DTD SVG 1.1 Tiny//EN" "http://www.w3.org/Graphics/SVG/1.1/DTD/svg11-tiny.dtd">
<svg xmlns="http://www.w3.org/2000/svg" xmlns:xlink="http://www.w3.org/1999/xlink" width="30" height="40" viewBox="0 0 30 40">
<rect fill="none" height="40" width="30"/>
<linearGradient id="SVGID_1" gradientUnits="userSpaceOnUse" x1="13.3" y1="14.33" x2="21.62" y2="31.74">
<stop stop-color="#A2C2DD" offset="0.1"/>
<stop stop-color="#6C83BB" offset="0.71"/>
<stop stop-color="#003D6D" offset="0.99"/>
</linearGradient>
<path d="M18.316,31.176l-0.04,0.017c-0.063-0.066-0.035-0.046-0.055-0.069l0,0 c-0.009-0.012-0.019-0.029-0.031-0.05l0,0c-0.026-0.042-0.06-0.097-0.101-0.164l0,0c-0.08-0.135-0.186-0.31-0.29-0.484l0,0 c-0.214-0.362-0.405-0.681-0.43-0.729l0,0l0,0l0,0c0,0-0.003-0.004-0.004-0.006l0,0c-0.002-0.001-0.005-0.004-0.009-0.018l0,0 c-0.01-0.025-0.014-0.052-0.01-0.073l0,0c0-0.022,0.004-0.044,0.01-0.067l0,0c0.022-0.129,0.057-0.254,0.096-0.376l0,0 l0.041,0.014l0.014-0.06l-0.034-0.011c0.038-0.112,0.083-0.225,0.136-0.338l0,0c0.002-0.055,0.004-0.106,0.004-0.159l0,0 c0-0.103-0.004-0.208-0.016-0.313l0,0l-1.539-0.421l-0.068-0.031l-3.139-2.101L9.644,24.78l-0.062-0.028l-0.01-0.006l-0.004,0.001 L6.7,22.816l-2.974-1.02l-0.141-0.136l-0.315-0.822l-0.015-0.082v-0.001l0.055-0.149l8.012-9.453l0.198-0.081l3.112,0.271 l0.104,0.033l2.602,1.634l3.177,0.26l0.097,0.03l0.003,0.003v0.001l0.004-0.001l2.951,1.745l3.207,0.291l0.006,0.001l0.213,0.007 v0.014l0.011,0.003l-0.017,0.189l-0.037,1.172l-0.029,0.105l-2.853,5.148c0.517,0.504,1.063,0.996,1.679,1.393l0,0 c0.106-0.01,0.208-0.016,0.307-0.016l0,0c0.398,0,0.756,0.088,0.959,0.376l0,0c0,0,0.659,0.906,0.851,1.182l0,0l-0.022-0.018 c0.155,0.116,0.227,0.309,0.223,0.502l0,0c-0.025,0.776-0.869,2.017-3.026,3.608l0,0c-0.064,0.207-0.167,0.403-0.312,0.583l0,0 c-0.354,0.433-0.873,0.652-1.396,0.651l0,0c-0.088,0-0.177-0.006-0.265-0.018l0,0c-0.046,0.025-0.091,0.046-0.128,0.065l0,0 c-1.539,0.927-2.682,1.223-3.473,1.223l0,0C18.919,31.508,18.541,31.377,18.316,31.176L18.316,31.176z M17.8,29.531 c0-0.001-0.001-0.003-0.001-0.004l0,0l-0.004-0.009l0,0C17.797,29.523,17.799,29.527,17.8,29.531L17.8,29.531z M17.785,29.496 c-0.002-0.005-0.002-0.005-0.002-0.005V29.49v0.001C17.783,29.491,17.785,29.493,17.785,29.496L17.785,29.496z M17.764,29.458 L17.764,29.458L17.764,29.458c0,0-0.002-0.003-0.005-0.005l0,0l0,0l0,0C17.76,29.454,17.762,29.457,17.764,29.458L17.764,29.458z M17.711,29.408c-0.02-0.017-0.039-0.027-0.057-0.028l0,0C17.676,29.386,17.693,29.396,17.711,29.408L17.711,29.408z" fill="url(#SVGID_1)"/>
<linearGradient id="SVGID_2" gradientUnits="userSpaceOnUse" x1="22" y1="26.51" x2="-2.75" y2="-3.71">
<stop stop-color="#FFFFFF" offset="0"/>
<stop stop-color="#A2C2DD" offset="0.35"/>
<stop stop-color="#6C83BB" offset="0.7"/>
<stop stop-color="#003D6D" offset="1"/>
</linearGradient>
<polygon fill="url(#SVGID_2)" points="26.747,15.506 23.479,15.21 20.488,13.438 17.254,13.173 14.604,11.51 11.49,11.239 3.477,20.691 6.789,21.75 9.595,23.79 12.929,24.681 16.164,26.79 19.895,27.559 "/>
<linearGradient id="SVGID_3" gradientUnits="userSpaceOnUse" x1="32.37" y1="30.3" x2="-7.2" y2="2.46">
<stop stop-color="#FFFFFF" offset="0"/>
<stop stop-color="#A2C2DD" offset="0.35"/>
<stop stop-color="#6C83BB" offset="0.7"/>
<stop stop-color="#003D6D" offset="1"/>
</linearGradient>
<polygon fill="url(#SVGID_3)" points="26.033,15.718 23.328,15.472 20.254,13.772 17.057,13.46 14.306,11.852 11.713,11.744 4.191,20.597 6.979,21.47 9.859,23.421 13.148,24.341 16.35,26.342 19.622,27.054 "/>
<linearGradient id="SVGID_4" gradientUnits="userSpaceOnUse" x1="4.84" y1="22.08" x2="24.09" y2="10.47">
<stop stop-color="#FFFFFF" offset="0.05"/>
<stop stop-color="#A2C2DD" offset="1"/>
</linearGradient>
<polygon fill="url(#SVGID_4)" points="6.789,21.75 14.604,11.51 17.26,13.187 9.718,23.819 "/>
<linearGradient id="SVGID_5" gradientUnits="userSpaceOnUse" x1="10.7" y1="24.68" x2="30.72" y2="12.6">
<stop stop-color="#FFFFFF" offset="0.05"/>
<stop stop-color="#A2C2DD" offset="1"/>
</linearGradient>
<polygon fill="url(#SVGID_5)" points="20.488,13.438 12.929,24.681 16.064,26.782 23.479,15.21 "/>
<linearGradient id="SVGID_6" gradientUnits="userSpaceOnUse" x1="35.54" y1="31.51" x2="0.65" y2="21.52">
<stop stop-color="#FFFFFF" offset="0"/>
<stop stop-color="#A2C2DD" offset="0.35"/>
<stop stop-color="#6C83BB" offset="0.7"/>
<stop stop-color="#003D6D" offset="1"/>
</linearGradient>
<polygon fill="url(#SVGID_6)" points="19.895,27.559 16.113,26.743 12.99,24.674 9.693,23.811 6.789,21.742 3.477,20.691 3.792,21.514 6.792,22.543 9.699,24.495 12.941,25.461 16.109,27.58 20.068,28.658 "/>
<linearGradient id="SVGID_7" gradientUnits="userSpaceOnUse" x1="22.26" y1="21.2" x2="25.23" y2="23.51">
<stop stop-color="#DEE9F3" offset="0"/>
<stop stop-color="#235487" offset="1"/>
</linearGradient>
<polygon fill="url(#SVGID_7)" points="26.748,15.506 19.895,27.559 20.055,28.666 26.713,16.653 "/>
<linearGradient id="SVGID_8" gradientUnits="userSpaceOnUse" x1="30.46" y1="30.55" x2="-12.25" y2="16.27">
<stop stop-color="#FFFFFF" offset="0"/>
<stop stop-color="#A2C2DD" offset="0.35"/>
<stop stop-color="#6C83BB" offset="0.7"/>
<stop stop-color="#003D6D" offset="1"/>
</linearGradient>
<polygon fill="url(#SVGID_8)" points="6.789,21.75 6.792,22.543 9.686,24.49 9.7,23.82 "/>
<polygon fill="url(#SVGID_8)" points="12.929,24.681 12.941,25.461 16.109,27.58 16.113,26.743 "/>
<polygon fill="#FFFFFF" points="6.996,21.477 6.789,21.742 9.7,23.809 9.978,23.447 "/>
<linearGradient id="SVGID_10" gradientUnits="userSpaceOnUse" x1="14.33" y1="12.48" x2="17.26" y2="12.48">
<stop stop-color="#FFFFFF" offset="0.05"/>
<stop stop-color="#A2C2DD" offset="1"/>
</linearGradient>
<polygon fill="url(#SVGID_10)" points="17.068,13.455 17.26,13.182 14.604,11.51 14.326,11.863 "/>
<polygon fill="#FFFFFF" points="13.161,24.338 12.934,24.674 16.113,26.743 16.363,26.335 "/>
<linearGradient id="SVGID_11" gradientUnits="userSpaceOnUse" x1="20.27" y1="14.45" x2="23.48" y2="14.45">
<stop stop-color="#FFFFFF" offset="0.05"/>
<stop stop-color="#A2C2DD" offset="1"/>
</linearGradient>
<polygon fill="url(#SVGID_11)" points="23.316,15.465 23.484,15.21 20.492,13.438 20.268,13.775 "/>
<linearGradient id="SVGID_12" gradientUnits="userSpaceOnUse" x1="33.04" y1="24.86" x2="5.37" y2="8.53">
<stop stop-color="#E6EEF4" offset="0"/>
<stop stop-color="#4A9900" offset="0.44"/>
<stop stop-color="#0E4E58" offset="0.94"/>
</linearGradient>
<path d="M22.706,18.995l0.38,0.405l0.35-0.249l-0.459-0.65c0,0-0.572-0.087-0.586,0.089 S22.706,18.995,22.706,18.995z" fill="url(#SVGID_12)"/>
<linearGradient id="SVGID_13" gradientUnits="userSpaceOnUse" x1="29.84" y1="32.69" x2="-1.1" y2="-2.05">
<stop stop-color="#E6EEF4" offset="0"/>
<stop stop-color="#4A9900" offset="0.44"/>
<stop stop-color="#0E4E58" offset="0.94"/>
</linearGradient>
<path d="M20.254,13.772l-3.188-0.313l-5.156,7.268l1.232,0.354c0,0,0.813,0.549,1.558,0.964l1.532-2.282 c-0.018-0.029-0.034-0.058-0.057-0.073c-0.258-0.213-0.289-0.491-0.289-0.491s0.328,0.053,0.717,0.015l3.657-5.439L20.254,13.772 z" fill="url(#SVGID_13)"/>
<linearGradient id="SVGID_14" gradientUnits="userSpaceOnUse" x1="27.56" y1="32.1" x2="-3.47" y2="5.24">
<stop stop-color="#E6EEF4" offset="0"/>
<stop stop-color="#4A9900" offset="0.44"/>
<stop stop-color="#0E4E58" offset="0.94"/>
</linearGradient>
<path d="M7.468,20.256c0.161,0.055,0.271,0.1,0.351,0.146l5.058-6.628l-1.163,0.08l-0.445,0.346 c0,0-0.841-0.364-1.214-0.502L6.357,18.05c0.034,0.021,0.068,0.047,0.101,0.067C7.279,18.682,6.66,19.991,7.468,20.256z" fill="url(#SVGID_14)"/>
<path d="M23.315,15.466l-1.108,1.729c0.139-0.074,0.627-0.298,1.199-0.08 c0.676,0.254,1.564-0.117,1.664-0.191c0.095-0.077,0.063-0.743,0.063-0.743s0.078-0.232,0.202-0.525l-2.007-0.181L23.315,15.466z " fill="url(#SVGID_12)"/>
<linearGradient id="SVGID_16" gradientUnits="userSpaceOnUse" x1="1.31" y1="25.03" x2="23.93" y2="9.15">
<stop stop-color="#DCE8E4" offset="0"/>
<stop stop-color="#43910A" offset="1"/>
</linearGradient>
<path d="M17.057,13.459l-1.605-0.938c-0.498,0.332-1.314,0.863-1.258,0.735 c0.081-0.18-0.745,0.447-0.745,0.447l-0.258,0.049l-0.314,0.021l-5.059,6.629c0.316,0.186,0.157,0.365,0.905,0.894 c0.936,0.662,1.146-0.421,1.146-0.421l1.549-0.287l0.49,0.14l5.158-7.268L17.057,13.459z" fill="url(#SVGID_16)"/>
<linearGradient id="SVGID_17" gradientUnits="userSpaceOnUse" x1="5.22" y1="27.05" x2="29.92" y2="13.54">
<stop stop-color="#DCE8E4" offset="0"/>
<stop stop-color="#43910A" offset="1"/>
</linearGradient>
<path d="M15.879,22.479c0.242-0.285,0.496-1.238,0.496-1.238s0.049-1.127-0.143-1.476L14.7,22.048 C15.367,22.083,15.775,22.602,15.879,22.479z" fill="url(#SVGID_17)"/>
<linearGradient id="SVGID_18" gradientUnits="userSpaceOnUse" x1="6.48" y1="23.55" x2="30.4" y2="10.47">
<stop stop-color="#DCE8E4" offset="0"/>
<stop stop-color="#43910A" offset="1"/>
</linearGradient>
<path d="M20.261,13.775l-3.657,5.438c0.363,0.081,0.994-0.219,1.209-0.751 c0.309-0.771,1.353-1.393,1.756-1.65c0.404-0.257,0.887,0.306,1.467,0.313c0.583,0.005,1.129,0.093,1.129,0.093 s0.018-0.009,0.043-0.025l1.108-1.728L20.261,13.775z" fill="url(#SVGID_18)"/>
<path d="M19.905,25.375c-0.96,0.113-1.956-0.274-1.956-0.274l-0.692-0.184l-0.911,1.423l0.004,0.002 l3.272,0.712l0.937-1.653C20.367,25.361,20.15,25.347,19.905,25.375z" fill="url(#SVGID_12)"/>
<linearGradient id="SVGID_20" gradientUnits="userSpaceOnUse" x1="9.31" y1="28.74" x2="21.57" y2="22.03">
<stop stop-color="#DCE8E4" offset="0"/>
<stop stop-color="#43910A" offset="1"/>
</linearGradient>
<path d="M16.387,24.689l-0.596,0.113l-0.456-0.221c0,0-0.378-0.404-1.144,0.037 c-0.109,0.063-0.209,0.127-0.303,0.185l2.457,1.536l0.911-1.421L16.387,24.689z" fill="url(#SVGID_20)"/>
<path d="M21.281,19.708l0.094-0.296l0.451-0.419l-0.33-0.231l-0.102-0.299l-0.896,1.396 c0.029,0.015,0.063,0.022,0.102,0.02C20.914,19.856,21.281,19.708,21.281,19.708z" fill="url(#SVGID_12)"/>
<linearGradient id="SVGID_22" gradientUnits="userSpaceOnUse" x1="9.65" y1="25" x2="27.33" y2="15.33">
<stop stop-color="#DCE8E4" offset="0"/>
<stop stop-color="#43910A" offset="1"/>
</linearGradient>
<path d="M21.388,18.444c0,0-0.792-0.151-1.067,0.067S19.68,18.73,19.68,18.73s-0.105,0.474-0.027,0.508 c0.077,0.03,0.407-0.104,0.407-0.104l0.263,0.172c0,0-0.027,0.456,0.176,0.553l0.896-1.396L21.388,18.444z" fill="url(#SVGID_22)"/>
<linearGradient id="SVGID_23" gradientUnits="userSpaceOnUse" x1="30" y1="27.12" x2="20.77" y2="27.25">
<stop stop-color="#E6EEF4" offset="0"/>
<stop stop-color="#A3740A" offset="0.44"/>
<stop stop-color="#474105" offset="0.94"/>
</linearGradient>
<polygon fill="url(#SVGID_23)" points="18.677,30.791 27.508,25.32 26.475,23.658 17.646,29.132 "/>
<linearGradient id="SVGID_24" gradientUnits="userSpaceOnUse" x1="16.99" y1="18.29" x2="23.78" y2="29.57">
<stop stop-color="#E2E6E4" offset="0"/>
<stop stop-color="#A3740A" offset="1"/>
</linearGradient>
<path d="M25.998,23.733c-3.104-1.727-4.318-5.773-8.088-3.784c-3.838,2.139,0.484,6.435-0.133,9.168 L25.998,23.733z" fill="url(#SVGID_24)"/>
<linearGradient id="SVGID_25" gradientUnits="userSpaceOnUse" x1="17.18" y1="19.87" x2="25.41" y2="36.52">
<stop stop-color="#E6EEF4" offset="0"/>
<stop stop-color="#A3740A" offset="0.44"/>
<stop stop-color="#474105" offset="0.94"/>
</linearGradient>
<path d="M17.938,20c-3.277,2.315,0.775,6.404,0.223,8.153l4.528-3.455 C22.275,24.185,20.325,20.615,17.938,20z" fill="url(#SVGID_25)"/>
<linearGradient id="SVGID_26" gradientUnits="userSpaceOnUse" x1="19.11" y1="18.99" x2="38.45" y2="34.75">
<stop stop-color="#E6EEF4" offset="0"/>
<stop stop-color="#A3740A" offset="0.44"/>
<stop stop-color="#474105" offset="0.94"/>
</linearGradient>
<path d="M18.789,19.716c2.016-0.035,4.93,3.987,5.575,4.524l1.808-0.482 C24.5,23.916,21.64,18.387,18.789,19.716z" fill="url(#SVGID_26)"/>
<linearGradient id="SVGID_27" gradientUnits="userSpaceOnUse" x1="24.75" y1="30.59" x2="22.69" y2="27.3">
<stop stop-color="#E2E6E4" offset="0"/>
<stop stop-color="#A3740A" offset="1"/>
</linearGradient>
<path d="M18.563,30.729l-0.67-1.016c5.404-0.341,8.996-4.978,8.803-5.956l0.932,1.354 C27.907,26.743,22.248,31.835,18.563,30.729z" fill="url(#SVGID_27)"/>
<radialGradient id="SVGID_28" gradientUnits="userSpaceOnUse" cx="24.26" cy="28.77" r="1.5">
<stop stop-color="#E2E6E4" offset="0"/>
<stop stop-color="#A3740A" offset="1"/>
</radialGradient>
<path d="M24.254,27.103c0.709,0.575,0.838,1.594,0.286,2.277c-0.554,0.682-1.577,0.77-2.288,0.193 s-0.84-1.596-0.287-2.278C22.518,26.613,23.541,26.526,24.254,27.103z" fill="url(#SVGID_28)"/>
<linearGradient id="SVGID_29" gradientUnits="userSpaceOnUse" x1="21.87" y1="26.4" x2="25.03" y2="30.52">
<stop stop-color="#E2E6E4" offset="0"/>
<stop stop-color="#A3740A" offset="1"/>
</linearGradient>
<path d="M26.278,23.66l-8.258,5.767l0.376,1.448c0.292,0.384,1.758,0.815,4.591-0.954l-0.37-0.128 c-1.184,0.939-3.542,1.252-3.565,0.803c-0.077-1.517,6.54-5.903,8.156-5.134c0.431,0.206-0.341,1.56-2.325,2.921l-0.055,0.421 c2.711-1.961,3.31-3.453,2.867-3.785C27.685,25.009,26.278,23.66,26.278,23.66z" fill="url(#SVGID_29)"/>
<linearGradient id="SVGID_30" gradientUnits="userSpaceOnUse" x1="20.49" y1="24.97" x2="24.97" y2="30.03">
<stop stop-color="#E2E6E4" offset="0"/>
<stop stop-color="#A3740A" offset="1"/>
</linearGradient>
<path d="M18.42,30.954c-0.023-0.019-0.87-1.451-0.85-1.418c0.506-3.234,8.314-7.099,9.248-5.732 c0,0,0.955,1.317,0.941,1.309C26.682,23.493,18.543,28.329,18.42,30.954z" fill="url(#SVGID_30)"/>
</svg>