<?xml version="1.0" encoding="UTF-8"?>
<!DOCTYPE svg PUBLIC "-//W3C//DTD SVG 1.1 Tiny//EN" "http://www.w3.org/Graphics/SVG/1.1/DTD/svg11-tiny.dtd">
<svg width="84" height="72" viewBox="0 0 84 72">
<linearGradient id="_19" gradientUnits="userSpaceOnUse" x1="34.54" y1="38.91" x2="53.06" y2="75.41">
<stop stop-color="#A2C2DD" offset="0.1"/>
<stop stop-color="#6C83BB" offset="0.71"/>
<stop stop-color="#003D6D" offset="0.99"/>
</linearGradient>
<path fill="url(#_19)" d="M5.511,7.488v50.089c0,0,29.098,0,29.487,0c1.558,3.03,6.137,5.973,6.336,6.1l0.052,0.033 l0.061,0.013c6.988,1.523,10.385-0.366,11.949-1.404c0.475-0.314,0.787-0.825,0.787-0.825s1.586-4.562,2.102-6.043 c0.492,1.601,2.417,7.845,2.417,7.845c1.212,3.669,10.124,3.474,10.503,3.463l0.063-0.001l0.058-0.023 c9.31-3.684,9.179-8.6,9.169-8.646l-4.809-17.894l-0.391,0.219c-5.242,2.926-10.066,4.119-13.389,4.623 c0.072-0.206,0.295-0.848,0.295-0.848s-2.783-0.121-4.537-0.595c0-0.6,0-36.104,0-36.104H5.511z"/>
<linearGradient id="_20" gradientUnits="userSpaceOnUse" x1="6.03" y1="7.97" x2="68.28" y2="70.22">
<stop stop-color="#FFFFFF" offset="0.05"/>
<stop stop-color="#A2C2DD" offset="1"/>
</linearGradient>
<rect x="5.861" y="7.838" fill="url(#_20)" width="49.454" height="49.39"/>
<linearGradient id="_21" gradientUnits="userSpaceOnUse" x1="19.43" y1="25.51" x2="32.87" y2="35.48">
<stop stop-color="#A2C2DD" offset="0.1"/>
<stop stop-color="#6C83BB" offset="0.71"/>
<stop stop-color="#003D6D" offset="0.99"/>
</linearGradient>
<path fill="url(#_21)" d="M15.016,25.289c-0.499,2.824,1.602,5.305,4.262,5.677l0,0c2.802,0.391,5.471-1.495,5.948-4.202 c0.503-2.865-1.616-5.312-4.261-5.682C18.159,20.692,15.491,22.579,15.016,25.289z"/>
<linearGradient id="_22" gradientUnits="userSpaceOnUse" x1="26.85" y1="15.71" x2="39.97" y2="25.61">
<stop stop-color="#A2C2DD" offset="0.1"/>
<stop stop-color="#6C83BB" offset="0.71"/>
<stop stop-color="#003D6D" offset="0.99"/>
</linearGradient>
<path fill="url(#_22)" d="M20.004,18.389c0.778,2.752,4.474,4.407,7.107,3.412c1.901-2.007,4.635-3.257,7.255-3.165 c2.789,0.095,5.376,1.543,7.483,4.188c0.188,0.233,0.559,0.078,0.545-0.206c-0.186-3.93-3.036-7.422-7.26-8.895 C27.811,11.182,22.021,15.97,20.004,18.389z"/>
<linearGradient id="_23" gradientUnits="userSpaceOnUse" x1="35.19" y1="30.16" x2="16.51" y2="37.91">
<stop stop-color="#A2C2DD" offset="0.1"/>
<stop stop-color="#6C83BB" offset="0.71"/>
<stop stop-color="#003D6D" offset="0.99"/>
</linearGradient>
<path fill="url(#_23)" d="M32.818,28.496l1.481,1.815l-2.719,0.479c-2.288,2.569-5.626,3.81-9.048,3.316 c-2.732-0.397-5.07-1.869-5.959-3.754c-0.144-0.307-0.639-0.154-0.58,0.17c0.147,1.287,1.025,7.279,7.966,9.154 c5.223,1.412,11.19-0.658,15.014-5.284l-1.082-1.497l2.938-0.213l4.115-5.588l-4.314-4.427l-4.516-0.126L32.818,28.496z"/>
<linearGradient id="_24" gradientUnits="userSpaceOnUse" x1="22.04" y1="17.17" x2="42.36" y2="18.37">
<stop stop-color="#FFFFFF" offset="0"/>
<stop stop-color="#F4F8FB" offset="0.13"/>
<stop stop-color="#CEDFF2" offset="1"/>
</linearGradient>
<path fill="url(#_24)" d="M20.356,18.445c8.375-9.58,21.331-4.319,21.733,4.187 c-4.011-5.969-11.817-5.299-15.097-1.114C24.521,22.303,21.147,21.078,20.356,18.445z"/>
<linearGradient id="_25" gradientUnits="userSpaceOnUse" x1="29.13" y1="19.02" x2="41.09" y2="22.79">
<stop stop-color="#A2C2DD" offset="0.1"/>
<stop stop-color="#6C83BB" offset="0.71"/>
<stop stop-color="#003D6D" offset="0.99"/>
</linearGradient>
<path fill="url(#_25)" d="M24.054,21.607c7.429-8.971,16.263-4.218,18.036,1.024 c-4.991-6.261-11.667-4.856-15.097-1.114C26.115,21.883,24.322,21.762,24.054,21.607z"/>
<radialGradient id="_26" gradientUnits="userSpaceOnUse" cx="21.33" cy="24.11" r="4.43">
<stop stop-color="#E3DFE4" offset="0"/>
<stop stop-color="#C03A3A" offset="1"/>
</radialGradient>
<path fill="url(#_26)" d="M24.927,26.697c-0.451,2.558-2.969,4.332-5.621,3.962c-2.654-0.37-4.442-2.743-3.991-5.302 c0.449-2.563,2.967-4.337,5.622-3.97C23.589,21.758,25.376,24.135,24.927,26.697z"/>
<linearGradient id="_27" gradientUnits="userSpaceOnUse" x1="34.06" y1="35.87" x2="36.36" y2="29.26">
<stop stop-color="#FFFFFF" offset="0.15"/>
<stop stop-color="#A2C2DD" offset="1"/>
</linearGradient>
<polygon fill="url(#_27)" points="31.744,31.043 34.311,35.303 38.572,34.385 35.731,30.388 "/>
<linearGradient id="_28" gradientUnits="userSpaceOnUse" x1="31.88" y1="37.14" x2="21.45" y2="33.1">
<stop stop-color="#A2C2DD" offset="0.1"/>
<stop stop-color="#6C83BB" offset="0.71"/>
<stop stop-color="#003D6D" offset="0.99"/>
</linearGradient>
<path fill="url(#_28)" d="M16.355,30.667c1.017,9.641,14.296,12.884,22.217,3.718l-4.262,0.918 C34.311,35.303,19.434,39.027,16.355,30.667z"/>
<linearGradient id="_29" gradientUnits="userSpaceOnUse" x1="32.5" y1="38.02" x2="18.77" y2="29.69">
<stop stop-color="#FFFFFF" offset="0"/>
<stop stop-color="#F4F8FB" offset="0.13"/>
<stop stop-color="#CEDFF2" offset="1"/>
</linearGradient>
<path fill="url(#_29)" d="M34.311,35.303c-4.742,4.346-16.626,5.473-18.015-4.818c1.984,4.21,10.428,6.2,15.448,0.559 L34.311,35.303z"/>
<polygon fill="#58A015" points="36.605,32.681 33.164,28.421 36.308,22.869 40.172,27.233 "/>
<polygon fill="#17594C" points="36.605,32.681 40.677,32.395 44.521,27.125 40.014,27.132 "/>
<linearGradient id="_30" gradientUnits="userSpaceOnUse" x1="36.44" y1="22.6" x2="44.21" y2="27.58">
<stop stop-color="#DCE8E4" offset="0"/>
<stop stop-color="#43910A" offset="1"/>
</linearGradient>
<polygon fill="url(#_30)" points="36.277,22.851 40.014,27.132 44.506,27.115 40.49,22.96 "/>
<linearGradient id="_31" gradientUnits="userSpaceOnUse" x1="30.7" y1="30.01" x2="37.85" y2="30.47">
<stop stop-color="#DCE8E4" offset="0"/>
<stop stop-color="#43910A" offset="1"/>
</linearGradient>
<polygon fill="url(#_31)" points="38.306,29.768 36.605,32.681 33.164,28.421 38.303,28.216 "/>
<linearGradient id="_32" gradientUnits="userSpaceOnUse" x1="59.83" y1="62.3" x2="74.58" y2="38.73">
<stop stop-color="#D6E4F3" offset="0"/>
<stop stop-color="#337CE5" offset="1"/>
</linearGradient>
<path fill="url(#_32)" d="M69.221,66.421c0,0-9.016,0.238-10.162-3.223c-1.145-3.466-5.301-17.438-5.301-17.438 s9.123,0.893,19.732-5.03l4.686,17.436C78.176,58.165,78.215,62.862,69.221,66.421z"/>
<linearGradient id="_33" gradientUnits="userSpaceOnUse" x1="63.81" y1="50.32" x2="61.09" y2="52.85">
<stop stop-color="#E6EEF4" offset="0"/>
<stop stop-color="#575AC6" offset="0.44"/>
<stop stop-color="#003D6D" offset="0.94"/>
</linearGradient>
<path fill="url(#_33)" d="M59.209,53.381c0,0,1.26-4.403,5.01-1.421C64.221,51.96,61.428,51.207,59.209,53.381z"/>
<linearGradient id="_34" gradientUnits="userSpaceOnUse" x1="71.72" y1="47.46" x2="68.75" y2="51.5">
<stop stop-color="#E6EEF4" offset="0"/>
<stop stop-color="#575AC6" offset="0.44"/>
<stop stop-color="#003D6D" offset="0.94"/>
</linearGradient>
<path fill="url(#_34)" d="M67.232,51.08c0,0,1.262-4.403,5.012-1.425C72.244,49.655,69.451,48.906,67.232,51.08z"/>
<linearGradient id="_35" gradientUnits="userSpaceOnUse" x1="69.09" y1="63.93" x2="67.71" y2="58.49">
<stop stop-color="#E6EEF4" offset="0"/>
<stop stop-color="#575AC6" offset="0.44"/>
<stop stop-color="#003D6D" offset="0.94"/>
</linearGradient>
<path fill="url(#_35)" d="M62.477,60.005c0,0,8.398-1.132,10.277-3.809C72.754,56.196,71.184,65.805,62.477,60.005z"/>
<linearGradient id="_36" gradientUnits="userSpaceOnUse" x1="38.13" y1="38.12" x2="53.29" y2="58.97">
<stop stop-color="#E3DFE4" offset="0"/>
<stop stop-color="#C03A3A" offset="1"/>
</linearGradient>
<path fill="url(#_36)" d="M41.548,63.394c0,0-7.616-4.822-6.63-8.333c0.985-3.515,5.348-17.427,5.348-17.427 s7.371,5.881,19.482,6.877L53.877,61.39C53.877,61.39,51.002,65.452,41.548,63.394z"/>
<path fill="#FFFFFF" d="M40.529,46.995c0,0,3.506-2.946,4.952,1.613C45.48,48.608,43.584,46.43,40.529,46.995z"/>
<path fill="#FFFFFF" d="M48.475,49.558c0,0,3.51-2.95,4.953,1.61C53.428,51.168,51.533,48.988,48.475,49.558z"/>
<path fill="#FFFFFF" d="M39.54,54.313c0,0,3.468,3.462,10.656,2.564C50.195,56.878,43.264,62.006,39.54,54.313z"/>
<path fill="#FFFFFF" d="M44.627,54.404l1.318-0.888l2.105-5.195c0,0,1.238-2.674,5.832,1.213c0,0-1.246-3.991-5.766-3.709 L44.627,54.404z"/>
</svg>