<?xml version="1.0" encoding="UTF-8"?>
<!DOCTYPE svg PUBLIC "-//W3C//DTD SVG 1.1 Tiny//EN" "http://www.w3.org/Graphics/SVG/1.1/DTD/svg11-tiny.dtd">
<svg baseProfile="tiny" height="88px" version="1.1" viewBox="0 0 88 88" width="88px" x="0px" xmlns="http://www.w3.org/2000/svg" xmlns:xlink="http://www.w3.org/1999/xlink" y="0px">
<linearGradient gradientUnits="userSpaceOnUse" id="SVGID_1_" x1="20.3481" x2="60.2231" y1="17.1948" y2="57.0698">
<stop offset="0" style="stop-color:#AABBD7"/>
<stop offset="0.2634" style="stop-color:#92A5CC"/>
<stop offset="0.7135" style="stop-color:#6C83BB"/>
<stop offset="0.7571" style="stop-color:#637DB5"/>
<stop offset="0.8268" style="stop-color:#4C6EA4"/>
<stop offset="0.9134" style="stop-color:#265689"/>
<stop offset="0.9888" style="stop-color:#003D6D"/>
<stop offset="1" style="stop-color:#003D6D"/>
</linearGradient>
<path d="M82.352,21.617c0,0-18.469-2.789-19.621-2.961c0.039-1,0.234-6.051,0.234-6.051l-19.8-2.898  l-0.152,0.047l-4.699,1.465c0,0-3.074,10.234-3.393,11.297c-1.053-0.184-8.398-1.445-8.398-1.445l-7.738,2.832l4.015,17.063  c-7.555,1.51-13.249,8.177-13.249,16.177c0,9.112,7.388,16.5,16.5,16.5c8.452,0,15.41-6.359,16.375-14.553l25.193,7.684  L82.352,21.617z" fill="url(#SVGID_1_)"/>
<linearGradient gradientTransform="matrix(1 0 0 1 0 -705)" gradientUnits="userSpaceOnUse" id="SVGID_2_" x1="26.4048" x2="77.5742" y1="743.8579" y2="743.8579">
<stop offset="0" style="stop-color:#FFFFFF"/>
<stop offset="0.1894" style="stop-color:#F4F8FB"/>
<stop offset="0.5232" style="stop-color:#D6E4F0"/>
<stop offset="0.9595" style="stop-color:#A7C5DF"/>
<stop offset="1" style="stop-color:#A2C2DD"/>
</linearGradient>
<polygon fill="url(#SVGID_2_)" points="26.405,53.727 38.76,11.766 58.863,14.992 58.719,21.219 77.574,24.379 67.301,65.95 "/>
<linearGradient gradientTransform="matrix(1 0 0 1 0 -705)" gradientUnits="userSpaceOnUse" id="SVGID_3_" x1="54.6807" x2="17.3187" y1="757.8306" y2="726.1907">
<stop offset="0" style="stop-color:#E2E6E4"/>
<stop offset="1" style="stop-color:#A3740A"/>
</linearGradient>
<polygon fill="url(#SVGID_3_)" points="67.305,65.555 26.202,53.708 19.424,24.43 60.34,32.629 "/>
<linearGradient gradientTransform="matrix(1 0 0 -1 0 88.1104)" gradientUnits="userSpaceOnUse" id="SVGID_4_" x1="42.8584" x2="47.8584" y1="60.3667" y2="71.6997">
<stop offset="0" style="stop-color:#E2E6E4"/>
<stop offset="1" style="stop-color:#A3740A"/>
</linearGradient>
<polygon fill="url(#SVGID_4_)" points="67.262,28.863 26.459,21.863 19.424,24.43 60.449,32.785 "/>
<linearGradient gradientTransform="matrix(1 0 0 1 0 -705)" gradientUnits="userSpaceOnUse" id="SVGID_5_" x1="49.5225" x2="51.8878" y1="720.3618" y2="713.9417">
<stop offset="0" style="stop-color:#FFFFFF"/>
<stop offset="0.3106" style="stop-color:#E6EEF6"/>
<stop offset="0.9692" style="stop-color:#A5C4DE"/>
<stop offset="1" style="stop-color:#A2C2DD"/>
</linearGradient>
<polygon fill="url(#SVGID_5_)" points="62.352,13.223 43.198,10.414 38.799,11.785 58.863,14.992 "/>
<linearGradient gradientTransform="matrix(1 0 0 1 0 -705)" gradientUnits="userSpaceOnUse" id="SVGID_6_" x1="69.1152" x2="71.5381" y1="729.6636" y2="723.0875">
<stop offset="0" style="stop-color:#FFFFFF"/>
<stop offset="0.3106" style="stop-color:#E6EEF6"/>
<stop offset="0.9692" style="stop-color:#A5C4DE"/>
<stop offset="1" style="stop-color:#A2C2DD"/>
</linearGradient>
<polygon fill="url(#SVGID_6_)" points="81.668,22.258 62.117,19.309 58.719,21.219 77.574,24.379 "/>
<linearGradient gradientTransform="matrix(1 0 0 1 0 -705)" gradientUnits="userSpaceOnUse" id="SVGID_7_" x1="77.3545" x2="60.8594" y1="749.0737" y2="754.7964">
<stop offset="0" style="stop-color:#E6EEF4"/>
<stop offset="0.0644" style="stop-color:#DAD9CB"/>
<stop offset="0.2029" style="stop-color:#C3AE79"/>
<stop offset="0.3167" style="stop-color:#B28F3D"/>
<stop offset="0.3999" style="stop-color:#A77B18"/>
<stop offset="0.4438" style="stop-color:#A3740A"/>
<stop offset="0.5594" style="stop-color:#866408"/>
<stop offset="0.7193" style="stop-color:#645107"/>
<stop offset="0.8514" style="stop-color:#4F4505"/>
<stop offset="0.9382" style="stop-color:#474105"/>
<stop offset="1" style="stop-color:#474105"/>
</linearGradient>
<polygon fill="url(#SVGID_7_)" points="67.262,28.863 67.305,66.27 60.344,32.844 "/>
<linearGradient gradientTransform="matrix(1 0 0 1 0 -705)" gradientUnits="userSpaceOnUse" id="SVGID_8_" x1="57.2568" x2="79.3044" y1="732.6831" y2="753.7286">
<stop offset="0" style="stop-color:#A2C2DD"/>
<stop offset="0.0056" style="stop-color:#A2C2DD"/>
<stop offset="0.2587" style="stop-color:#8CA9CF"/>
<stop offset="0.6742" style="stop-color:#6C83BB"/>
<stop offset="0.7196" style="stop-color:#637DB5"/>
<stop offset="0.7921" style="stop-color:#4C6EA4"/>
<stop offset="0.8823" style="stop-color:#265689"/>
<stop offset="0.9607" style="stop-color:#003D6D"/>
<stop offset="1" style="stop-color:#003D6D"/>
</linearGradient>
<polygon fill="url(#SVGID_8_)" points="81.668,22.258 67.32,66.016 77.574,24.379 "/>
<linearGradient gradientTransform="matrix(1 0 0 1 0 -705)" gradientUnits="userSpaceOnUse" id="SVGID_9_" x1="35.8442" x2="84.3113" y1="709.189" y2="734.7689">
<stop offset="0" style="stop-color:#FFFFFF"/>
<stop offset="0.0961" style="stop-color:#E4EDF5"/>
<stop offset="0.2832" style="stop-color:#B4CEE4"/>
<stop offset="0.3764" style="stop-color:#A2C2DD"/>
<stop offset="0.504" style="stop-color:#8CA9CF"/>
<stop offset="0.7135" style="stop-color:#6C83BB"/>
<stop offset="0.7571" style="stop-color:#637DB5"/>
<stop offset="0.8268" style="stop-color:#4C6EA4"/>
<stop offset="0.9134" style="stop-color:#265689"/>
<stop offset="0.9888" style="stop-color:#003D6D"/>
<stop offset="1" style="stop-color:#003D6D"/>
</linearGradient>
<polygon fill="url(#SVGID_9_)" points="58.863,14.992 58.719,21.219 62.117,19.309 62.352,13.223 "/>
<linearGradient gradientTransform="matrix(1 0 0 -1 0 88.1104)" gradientUnits="userSpaceOnUse" id="SVGID_10_" x1="36.9272" x2="70.9264" y1="27.0376" y2="62.3701">
<stop offset="0" style="stop-color:#E2E6E4"/>
<stop offset="1" style="stop-color:#A3740A"/>
</linearGradient>
<polygon fill="url(#SVGID_10_)" points="26.405,53.727 34.143,27.438 60.398,32.836 67.32,66.016 "/>
<radialGradient cx="-248.3901" cy="374.7271" gradientTransform="matrix(7.6872 0 0 7.6872 1938.6182 -2833.7158)" gradientUnits="userSpaceOnUse" id="SVGID_11_" r="3.8305">
<stop offset="0" style="stop-color:#FFFFFF"/>
<stop offset="0.5337" style="stop-color:#A2C2DD"/>
<stop offset="0.8652" style="stop-color:#6C83BB"/>
<stop offset="1" style="stop-color:#003D6D"/>
</radialGradient>
<circle cx="26.049" cy="57.141" fill="url(#SVGID_11_)" r="15.916"/>
<radialGradient cx="-248.3618" cy="374.939" gradientTransform="matrix(7.6872 0 0 7.6872 1938.6182 -2833.7158)" gradientUnits="userSpaceOnUse" id="SVGID_12_" r="2.6051">
<stop offset="0" style="stop-color:#E6EEF4"/>
<stop offset="0.0772" style="stop-color:#C6DCC1"/>
<stop offset="0.211" style="stop-color:#91C06F"/>
<stop offset="0.321" style="stop-color:#6BAB33"/>
<stop offset="0.4014" style="stop-color:#539E0E"/>
<stop offset="0.4438" style="stop-color:#4A9900"/>
<stop offset="0.5475" style="stop-color:#398419"/>
<stop offset="0.7125" style="stop-color:#22663B"/>
<stop offset="0.8486" style="stop-color:#135550"/>
<stop offset="0.9382" style="stop-color:#0E4E58"/>
<stop offset="1" style="stop-color:#0E4E58"/>
</radialGradient>
<path d="M10.133,57.141c0,0.001,0,0.002,0,0.002c0,0.381,0.018,0.758,0.044,1.132  c0.006,0.08,0.011,0.16,0.018,0.239c0.033,0.375,0.074,0.745,0.131,1.112c0.003,0.015,0.007,0.029,0.009,0.046  c0.058,0.362,0.131,0.721,0.213,1.075c0.012,0.052,0.023,0.104,0.036,0.156c0.089,0.369,0.189,0.734,0.305,1.093  c0.001,0.004,0.002,0.008,0.004,0.012c0.012-0.129,0.018-0.264,0.013-0.4c-0.031-0.948-0.184-0.826-0.184-0.826l1.071-1.438v-0.919  l-1.255-1.254C10.539,57.169,10.133,57.106,10.133,57.141z M41.659,54.03c-0.062-0.312-0.132-0.619-0.211-0.923  c-0.015-0.058-0.033-0.114-0.049-0.171c-0.066-0.245-0.14-0.487-0.218-0.727c-0.03-0.094-0.063-0.188-0.094-0.279  c-0.074-0.215-0.153-0.427-0.237-0.637c-0.031-0.082-0.063-0.166-0.097-0.246c-0.116-0.28-0.238-0.557-0.37-0.827  c-0.026-0.055-0.056-0.107-0.083-0.162c-0.108-0.219-0.222-0.434-0.34-0.646c-0.053-0.094-0.107-0.188-0.161-0.28  c-0.104-0.177-0.211-0.352-0.321-0.524c-0.056-0.089-0.111-0.178-0.17-0.266c-0.155-0.233-0.315-0.464-0.482-0.688  c-0.042-0.056-0.085-0.11-0.127-0.165c-0.146-0.193-0.298-0.382-0.453-0.566c-0.074-0.089-0.149-0.174-0.226-0.26  c-0.127-0.145-0.256-0.286-0.388-0.427c-0.079-0.085-0.159-0.169-0.24-0.253c-0.162-0.164-0.327-0.324-0.496-0.48  c-0.069-0.065-0.139-0.131-0.209-0.194c-0.193-0.175-0.392-0.344-0.595-0.508c-0.091-0.075-0.185-0.146-0.278-0.22  c-0.146-0.113-0.295-0.226-0.445-0.335c-0.101-0.072-0.2-0.145-0.302-0.214c-0.17-0.117-0.344-0.23-0.519-0.341  c-0.08-0.052-0.158-0.104-0.239-0.154c-0.243-0.148-0.491-0.288-0.742-0.423c-0.104-0.056-0.211-0.108-0.317-0.163  c-0.166-0.084-0.333-0.166-0.502-0.245c-0.116-0.054-0.232-0.106-0.35-0.158c-0.179-0.077-0.36-0.151-0.541-0.222  c-0.082-0.032-0.163-0.066-0.246-0.097c-0.167,0.109-1.153,0.668-1.153,0.668s-4.061-0.553-4.336-0.276  c-0.277,0.277-1.358,0.561-1.606,0.592c-0.245,0.031-0.755,0.163-0.144,0.918c-0.09,0.093-1.836,1.309-1.836,0.755  s0.39-1.543-0.158-1.014c-0.393,0.381-0.628,0.897-0.679,0.993c-0.129,0.245-0.207,0.364-0.114,1.072  c0.092,0.707-1.13,0.703-1.212,0.521c-0.218-0.49-1.429,1.102-1.429,1.102l0.511,0.653c0,0-3.561,2.742-3.592,2.928  c-0.031,0.185-0.919,2.566-0.612,3.275c0.308,0.708,1.086,2.494,1.822,2.554c0.964,0.079,3.305-0.441,3.305-0.441  c0.063,0.154,0.504,0.939,0.504,0.939s1.147-0.036,1.211,0.087c0.021,0.043,1.383,4.045,0.934,4.576  c-1.071,1.607,0.611,3.958,1.081,4.754c0.469,1.367,0.771,0.755,1.387,0.979c0.761,0.067,1.399,0.346,2.046-0.483  c0.187-0.153,0.505-0.031,0.505-0.246c0-0.121,0.552-0.475,0.692-0.804c0.149-0.068,0.532-0.328,0.793-0.451  c0.234-0.016-0.226-0.648,0.244-1.316c0.505-0.199,1.866-1.117,1.866-1.117c0.062-1.346-0.663-3.01,0.689-3.965  c0.872-0.887,2.016-1.393,2.57-2.746c0.152-0.399,0.496-1.218-0.489-0.972c-0.927,0.233-1.959,0.285-1.469-0.122  c-0.056-0.5-0.675-0.735-1.225-1.226c-0.286-0.674-0.735-1.877-0.735-1.877l-0.979-1.489l0.122-0.307l1.163,1.715l1.163,1.408  c0.429,1.407,0.796,1.53,0.796,1.53c0.645-0.227,2.173-0.857,2.173-0.857l1.499-1.438c0,0-0.152-0.458-0.764-1.041l-0.46-0.275  c-0.1,0.282-0.633,0.389-0.633,0.389l-1.297-1.551l0.482-0.098l0.37,0.707l0.893,0.309c0,0,0.247-0.181,0.705,0.292  c0.373-0.03,1.831,0.072,2.172,0.503c0.066,0.085,1.807,4.428,2.147,4.434c0.149,0.002,0.261,0.062,0.21-0.202  c-0.062-0.122,0-2.85,0.092-3.435c0.233-0.497,0.271,0.001,0.826,0.948C41.664,54.062,41.662,54.046,41.659,54.03z M26.353,43.478  c0.123-0.362,0.827-0.485,0.827-0.485s-0.202,0.372-0.155,0.566c0.048,0.194-0.322,0.318-0.364,0.773  c-0.038,0.457-0.882,0.189-0.951,0.03C25.641,44.203,26.23,43.839,26.353,43.478z M29.373,49.638c-0.522,0-2.089,0.155-2.52-0.152  c-0.432-0.307-0.767,0.031-1.076,0.339c-0.203,0.201-0.943-0.205-1.159-0.512c-0.216-0.308-0.938-0.285-0.938-0.285l0.164-0.878  l-2.082-0.102l-1.184,0.347l-1.113,0.033l0.624-0.299l0.775-0.184c0,0,1.131-0.928,1.47-1.204c0.287-0.233,1.429-0.102,1.429-0.102  l1.255,0.905c0,0-0.278,0.708-0.401,0.86c0.461-0.031,1.004-0.868,1.004-0.868c-0.98-0.898-0.939-1.204-0.939-1.204l1.289,0.904  l0.012,0.009c0,0,0.522,1.23,0.739,1.23c0.215,0,0.489-0.848,0.489-0.848l0.367-0.092c0.164,0.389,0.47,1.266,0.836,1.061  c0.212-0.117,0.561-0.011,0.96,0.144c0.4,0.153,0.674-0.082,1,0.204C30.332,50.211,29.589,49.701,29.373,49.638z M30.192,47.521  c-0.539-0.205-2.356,0.463-1.951-0.629c0.218-0.588,0.774-0.711,0.966-0.319c0.049,0.16,0.654,0.41,0.651,0.07  c-0.005-0.34,0.607-0.52,0.697-0.267C30.228,46.612,31.833,47.836,30.192,47.521z M33.618,48.555  c-0.298-0.24,0.135-0.445-0.306-0.822c-0.631-0.54-1.121-0.772-0.262-1.209c1.058-0.133,0.17,0.337,0.347,0.62  c0.093,0.15,0.63,0.653,1.046,1.271C34.79,48.928,33.914,48.794,33.618,48.555z M20.21,42.906c0.463,0.153,0.842-0.156,1.272-0.433  c0.153-0.031,1.847-0.708,2.03-0.708s0.798-0.022,0.951-0.269c0,0,2.65,0.461,3.05,0.307c0.221-0.085,1.143-0.159,1.932-0.209  c-0.037-0.008-0.074-0.018-0.11-0.025c-0.106-0.022-0.214-0.041-0.321-0.062c-0.167-0.031-0.334-0.063-0.502-0.09  c-0.073-0.011-0.146-0.02-0.221-0.029c-0.204-0.029-0.408-0.058-0.613-0.078c-0.008,0-0.014,0-0.021-0.001  c-0.529-0.054-1.066-0.081-1.609-0.081c-0.109,0-0.219,0.006-0.327,0.008c-0.203,0.005-0.404,0.01-0.605,0.021  c-0.156,0.009-0.312,0.021-0.467,0.036c-0.175,0.015-0.349,0.033-0.521,0.055c-0.149,0.019-0.3,0.034-0.447,0.057  c-0.283,0.043-0.565,0.091-0.845,0.148c-0.136,0.027-0.27,0.063-0.405,0.093c-0.176,0.042-0.352,0.084-0.525,0.131  c-0.144,0.038-0.285,0.078-0.427,0.121c-0.177,0.053-0.352,0.109-0.525,0.169c-0.124,0.041-0.249,0.08-0.37,0.125  c-0.267,0.098-0.529,0.203-0.789,0.313c-0.126,0.055-0.25,0.112-0.375,0.169c-0.161,0.075-0.321,0.151-0.48,0.23  c-0.125,0.063-0.252,0.126-0.375,0.192c-0.184,0.098-0.364,0.201-0.543,0.306c-0.075,0.044-0.152,0.086-0.228,0.131  C18.655,43.855,19.75,42.751,20.21,42.906z M34.045,62.577l-1.021,1.021c0,0-0.614,0-0.645,0.245  c-0.013,0.105-0.05,0.563-0.15,0.794c-0.205,0.144-0.449,0.613-0.449,0.613s-0.127,0.908,0.551,0.755  C33.007,65.85,35.093,63.072,34.045,62.577z" fill="url(#SVGID_12_)"/>
<rect fill="none" height="88" width="88"/>
</svg>
