<?xml version="1.0" encoding="UTF-8"?>
<!DOCTYPE svg PUBLIC "-//W3C//DTD SVG 1.1 Tiny//EN" "http://www.w3.org/Graphics/SVG/1.1/DTD/svg11-tiny.dtd">
<svg width="100%" height="100%" viewBox="-0.414 0.102 88 88">
<linearGradient id="_14" gradientUnits="userSpaceOnUse" x1="40.53" y1="54.77" x2="35.89" y2="80.21">
<stop stop-color="#A2C2DD" offset="0.1"/>
<stop stop-color="#6C83BB" offset="0.71"/>
<stop stop-color="#003D6D" offset="0.99"/>
</linearGradient>
<path fill="url(#_14)" d="M42.639,15.977c0,0-8.061,12.6-8.729,13.645c-3.637-2.041-8.531,3.215-5.211,7.242 c-0.438,0.707-5.654,9.109-5.654,9.109c-6.607,10.332-2.324,20.221,6.477,22.426c1.715,2.305,4.205,4.236,6.787,5.299 c0.051,0.688,0.373,5.016,0.373,5.016c1.564,1.199,6.283,1.73,8.641,1.367l5.389-2.668c0,0-0.115-4.68-0.131-5.322 c5.25-3.279,5.971-8.607,5.971-12.928c0,0,0-12.201,0-12.879c2.137-1.482,2.879-5.152,1.92-7.417 c0.025-0.016,5.779-8.939,5.779-8.939c4.457-6.968,4.438-15.531-2.713-20.108C56.426,6.546,48.33,7.08,42.639,15.977z M50.291,53.41c0,2.338,0,5.473,0,5.473c0,4.328-0.439,9.037-3.572,11.355c-5.002,0.428-7.678-1.352-8.924-2.619 C43.865,64.84,46.529,59.486,50.291,53.41z"/>
<linearGradient id="_15" gradientUnits="userSpaceOnUse" x1="36.54" y1="66.98" x2="49.38" y2="76.81">
<stop stop-color="#A2C2DD" offset="0.1"/>
<stop stop-color="#6C83BB" offset="0.71"/>
<stop stop-color="#003D6D" offset="0.99"/>
</linearGradient>
<polygon fill="url(#_15)" points="45.111,79.424 50,76.98 49.857,71.303 44.938,72.674 "/>
<linearGradient id="_16" gradientUnits="userSpaceOnUse" x1="31.18" y1="73.27" x2="53.35" y2="77.61">
<stop stop-color="#FFFFFF" offset="0"/>
<stop stop-color="#A2C2DD" offset="0.35"/>
<stop stop-color="#6C83BB" offset="0.7"/>
<stop stop-color="#003D6D" offset="1"/>
</linearGradient>
<path fill="url(#_16)" d="M36.857,71.641l0.498,6.697c1.002,0.732,5.443,1.41,7.816,1.057l-0.133-7.578L36.857,71.641z"/>
<linearGradient id="_17" gradientUnits="userSpaceOnUse" x1="33.34" y1="29.15" x2="26.53" y2="38.15">
<stop stop-color="#E6EEF4" offset="0"/>
<stop stop-color="#C03A3A" offset="0.44"/>
<stop stop-color="#302D02" offset="0.94"/>
</linearGradient>
<path fill="url(#_17)" d="M34.301,30.69c-3.393-3.285-8.563,3.055-4.563,6.367L34.301,30.69z"/>
<path fill="#7B341F" d="M34.279,30.774l-3.889,5.328C29.039,33.104,32.068,29.27,34.279,30.774z"/>
<linearGradient id="_18" gradientUnits="userSpaceOnUse" x1="42.47" y1="17.46" x2="57.24" y2="29.34">
<stop stop-color="#FFFFFF" offset="0.05"/>
<stop stop-color="#A2C2DD" offset="1"/>
</linearGradient>
<path fill="url(#_18)" d="M54.637,43.555l9.037-14.125c5.16-8.062,3.082-15.441-2.514-19.023 c-5.088-3.254-12.699-2.232-17.934,5.947l-10.09,15.774L54.637,43.555z"/>
<linearGradient id="_19" gradientUnits="userSpaceOnUse" x1="30.87" y1="31.18" x2="61.36" y2="45.43">
<stop stop-color="#E6EEF4" offset="0"/>
<stop stop-color="#B94994" offset="0.44"/>
<stop stop-color="#3D013F" offset="0.94"/>
</linearGradient>
<path fill="url(#_19)" d="M32.172,32.592l22.395,12.802l1.107-1.939c-3.637-5.256-12.781-11.551-22.104-12.1 L32.172,32.592z"/>
<linearGradient id="_20" gradientUnits="userSpaceOnUse" x1="28.74" y1="37.67" x2="42.87" y2="60.82">
<stop stop-color="#E4E6EF" offset="0"/>
<stop stop-color="#BA4C96" offset="1"/>
</linearGradient>
<path fill="url(#_20)" d="M54.613,44.684l-9.449,15.432c-5.434,8.492-13.402,9.762-19.293,5.992 c-5.355-3.426-7.74-11.152-2.23-19.766l8.527-13.736C40.27,33.338,49.77,38.87,54.613,44.684z"/>
<linearGradient id="_21" gradientUnits="userSpaceOnUse" x1="54.54" y1="21.24" x2="14.29" y2="107.24">
<stop stop-color="#E6EEF4" offset="0"/>
<stop stop-color="#B94994" offset="0.44"/>
<stop stop-color="#3D013F" offset="0.94"/>
</linearGradient>
<path fill="url(#_21)" d="M41.438,56.232c-5.156,8.061-12.313,10.064-18.096,7.645 c6.865,7.244,16.553,4.672,22.078-3.965l9.141-14.686l-3.682-3.91L41.438,56.232z"/>
<path fill="#A2C2DD" d="M61.145,10.525l-0.002-0.002c3.285,3.475,3.887,9.348-0.252,15.79l-9.254,14.16l3.76,1.76l8.264-12.688 C68.818,21.48,66.74,14.105,61.145,10.525z"/>
<linearGradient id="_22" gradientUnits="userSpaceOnUse" x1="49.87" y1="39.73" x2="49.87" y2="72.4">
<stop stop-color="#FFFFFF" offset="0"/>
<stop stop-color="#A2C2DD" offset="0.35"/>
<stop stop-color="#6C83BB" offset="0.7"/>
<stop stop-color="#003D6D" offset="1"/>
</linearGradient>
<path fill="url(#_22)" d="M52.162,40.985l3.688-1.879c0,0,0,12.894,0,20.056c0,7.168-2.158,12.637-11.957,14.744 c6.617-2.75,8.164-8.693,8.006-15.367L52.162,40.985z"/>
<linearGradient id="_23" gradientUnits="userSpaceOnUse" x1="55.72" y1="70.38" x2="34.56" y2="70.05">
<stop stop-color="#A2C2DD" offset="0.1"/>
<stop stop-color="#6C83BB" offset="0.71"/>
<stop stop-color="#003D6D" offset="0.99"/>
</linearGradient>
<path fill="url(#_23)" d="M31.303,68.086c4.691,6.117,11.582,5.188,16.85,2.697c-6.672,0.992-9.811-1.357-11.5-3.268 C35.844,67.686,33.574,68.039,31.303,68.086z"/>
<linearGradient id="_24" gradientUnits="userSpaceOnUse" x1="31.69" y1="37.28" x2="46.36" y2="64.11">
<stop stop-color="#FFFFFF" offset="0.15"/>
<stop stop-color="#A2C2DD" offset="1"/>
</linearGradient>
<path fill="url(#_24)" d="M31.777,68.039c1.916,2.188,5.662,4.27,9.236,4.387c9.121,0.295,9.977-7.314,9.977-13.543 c0-6.232,0-18.191,0-18.191l1.172,0.295c0,0-0.053,9.064-0.053,17.798c0,8.732-1.879,16.15-12.334,15.121 c-4.199-0.414-7.922-3.43-9.846-6.105C30.83,68.105,31.777,68.039,31.777,68.039z"/>
<linearGradient id="_25" gradientUnits="userSpaceOnUse" x1="54.1" y1="37.11" x2="51.6" y2="46.99">
<stop stop-color="#E6EEF4" offset="0"/>
<stop stop-color="#C03A3A" offset="0.44"/>
<stop stop-color="#302D02" offset="0.94"/>
</linearGradient>
<path fill="url(#_25)" d="M56.877,37.842c-2.391-2.396-6.395-0.104-6.811,3.744c-0.342,3.117,1.932,5.431,4.572,4.615 L56.877,37.842"/>
<linearGradient id="_26" gradientUnits="userSpaceOnUse" x1="54.84" y1="37.52" x2="55.41" y2="43.46">
<stop stop-color="#E3DFE4" offset="0"/>
<stop stop-color="#C03A3A" offset="1"/>
</linearGradient>
<path fill="url(#_26)" d="M58.225,41.87c-0.268,2.408-1.816,4.353-3.461,4.341c-1.643-0.016-2.75-1.978-2.482-4.386 c0.27-2.41,1.814-4.352,3.459-4.338C57.383,37.499,58.496,39.461,58.225,41.87z"/>
</svg>