<?xml version="1.0" encoding="UTF-8"?>
<!DOCTYPE svg PUBLIC "-//W3C//DTD SVG 1.1 Tiny//EN" "http://www.w3.org/Graphics/SVG/1.1/DTD/svg11-tiny.dtd">
<svg width="96" height="96" viewBox="0 0 96 96">
<path d="M81.929,14.046l-21.13,21.133c0.844,0.844,5.673,6.581,5.673,12.817c0,6.206-4.775,12.008-5.616,12.852 l21.099,21.074C91.012,72.865,96,60.82,96,48.006C96,35.179,91.002,23.118,81.929,14.046z" fill-opacity="0.01" />
<path d="M80.394,15.581L60.799,35.179c1.253,1.254,5.673,6.935,5.673,12.817c0,5.821-4.366,11.598-5.616,12.852 l19.563,19.539c8.647-8.646,13.409-20.146,13.409-32.381C93.828,35.759,89.057,24.243,80.394,15.581z" fill-opacity="0.02" />
<path d="M78.858,17.116l-18.06,18.063c1.663,1.663,5.673,7.297,5.673,12.817c0,5.403-3.958,11.188-5.616,12.852 l18.029,18.004c8.236-8.237,12.772-19.192,12.772-30.846C91.657,36.339,87.111,25.368,78.858,17.116z" fill-opacity="0.04" />
<path d="M77.323,18.652L60.799,35.179c2.073,2.074,5.673,7.771,5.673,12.817c0,5.019-3.548,10.777-5.616,12.852 L77.35,77.316c7.826-7.827,12.137-18.237,12.137-29.311C89.486,36.918,85.166,26.494,77.323,18.652z" fill-opacity="0.07" />
<path d="M75.788,20.188L60.799,35.179c2.483,2.483,5.673,8.28,5.673,12.817c0,4.499-3.14,10.368-5.616,12.852 l14.959,14.934C83.23,68.364,87.315,58.5,87.315,48.006C87.315,37.498,83.221,27.619,75.788,20.188z" fill-opacity="0.11" />
<path d="M85.145,48.006c0-9.927-3.867-19.261-10.891-26.283L60.799,35.179c2.893,2.894,5.674,8.724,5.674,12.817 c0,3.933-2.731,9.958-5.617,12.852l13.424,13.398C81.285,67.238,85.145,57.919,85.145,48.006z" fill-opacity="0.13" />
<path d="M65.49,47.988c0-4.824-1.952-9.191-5.11-12.356l12.381-12.357c13.649,13.649,13.638,35.79-0.024,49.452 L60.368,60.358C63.533,57.192,65.49,52.819,65.49,47.988z" fill="#496DA2"/>
<linearGradient id="_3" gradientUnits="userSpaceOnUse" x1="61.49" y1="48.04" x2="82.1" y2="48.04">
<stop stop-color="#FFFFFF" offset="0.15"/>
<stop stop-color="#DEE9F3" offset="0.38"/>
<stop stop-color="#CADCEC" offset="0.66"/>
<stop stop-color="#A2C2DD" offset="0.97"/>
</linearGradient>
<path d="M82.104,48.151c0,8.748-3.294,17.044-9.117,23.368C71.945,70.49,62.469,60.87,61.519,59.932 c3.099-3.34,4.777-7.105,4.777-11.666c0-4.554-1.713-8.822-4.804-12.162c0.949-0.938,10.448-10.523,11.49-11.552 C78.989,30.906,82.104,39.416,82.104,48.151z" fill="url(#_3)"/>
<path d="M72.982,25.498c11.346,12.772,11.331,32.241,0,45.003v1.046c12.252-13.207,12.265-33.874,0-47.095 V25.498z" fill="#FFFFFF"/>
<linearGradient id="_4" gradientUnits="userSpaceOnUse" x1="54.05" y1="48" x2="78.36" y2="48">
<stop stop-color="#87A8CB" offset="0"/>
<stop stop-color="#FFFFFF" offset="1"/>
</linearGradient>
<path d="M73.005,24.478c-1.306,1.324-10.421,10.519-11.513,11.626 c2.732,3.362,4.297,7.553,4.297,11.933c0,4.374-1.547,8.535-4.271,11.896C62.612,61.036,71.682,70.2,72.986,71.52v-0.991 c-0.951-0.964-10.008-10.127-10.56-10.685c2.6-3.43,4.063-7.583,4.063-11.808c0-4.229-1.468-8.388-4.072-11.822 c0.709-0.717,9.706-9.794,10.588-10.69V24.478z" fill="url(#_4)"/>
<path d="M67.905,30.887c0,0,4.487,5.097,4.487,17.141c0,10.98-4.487,17.075-4.487,17.075 c6.681,9.487,12.961-7.315,12.961-17.029C80.866,38.36,74.648,21.145,67.905,30.887z" fill="#FFFFFF" fill-opacity="0.3" />
<polygon fill="#496DA2" points="78.712,45.285 74.608,45.285 74.608,41.183 71.801,41.183 71.801,45.285 67.696,45.285 67.696,48.095 71.801,48.095 71.801,52.202 74.608,52.202 74.608,48.095 78.712,48.095 "/>
<polygon fill="#235487" points="74.608,41.18 71.801,41.18 71.801,41.188 71.798,41.188 71.798,45.301 67.705,45.294 67.705,45.301 67.699,45.301 67.699,48.1 67.705,48.1 67.705,48.106 68.148,48.1 68.148,45.745 72.238,45.745 72.238,41.625 74.608,41.625 "/>
<rect fill="#235487" height="4.121" width="0.44" x="71.799" y="48.073"/>
<polygon fill="#235487" points="74.608,45.301 78.705,45.301 78.711,45.301 78.705,45.745 74.608,45.745 "/>
</svg>