<?xml version="1.0" encoding="UTF-8"?>
<!DOCTYPE svg PUBLIC "-//W3C//DTD SVG 1.1 Tiny//EN" "http://www.w3.org/Graphics/SVG/1.1/DTD/svg11-tiny.dtd">
<svg width="332" height="126" viewBox="-0.729 0.255 332 126">
<path fill-opacity="0.01" fill="#656B6B" d="M22.271,0.256h-1c0,0,0,8.623,0,10.111 c-5.224,0.271-10.105,2.356-13.818,6.064c-3.986,3.984-6.182,9.284-6.182,14.924v67.774c0,10.877,8.875,21.125,20.846,21.125 c0.654,0,282.048,0,282.048,0c13.844,0,25.104-11.266,25.104-25.114V31.355c0-5.639-2.196-10.939-6.188-14.926 c-3.994-3.988-9.299-6.182-14.941-6.174H42.297l-10.075-10L22.271,0.256L22.271,0.256z"/>
<path fill-opacity="0.02" fill="#656B6B" d="M22.271,1.256c0,0,0,8.404,0,10.01 c-5.33,0.029-10.34,2.105-14.111,5.873c-3.797,3.795-5.889,8.844-5.889,14.217V99.13c0,10.75,8.875,20.125,19.897,20.125 c3.228,0,281.995,0,281.995,0c13.293,0,24.104-10.818,24.104-24.115V31.355c0-5.371-2.094-10.42-5.896-14.219 c-3.805-3.799-8.859-5.888-14.232-5.881H41.885l-10.075-10L22.271,1.256L22.271,1.256z"/>
<path fill-opacity="0.03" fill="#656B6B" d="M23.271,2.256c0,0,0,8.348,0,10c-0.445,0-0.894,0-0.894,0 c-5.104,0-9.901,1.985-13.512,5.59C5.259,21.453,3.27,26.25,3.27,31.356V99.13c0,10.125,8.25,19.125,18.949,19.125 c0.551,0,281.943,0,281.943,0c12.74,0,23.104-10.369,23.104-23.115V31.355c0-5.104-1.989-9.902-5.604-13.511 c-3.615-3.61-8.418-5.595-13.523-5.589H41.473l-10.076-10L23.271,2.256L23.271,2.256z"/>
<path fill-opacity="0.06" fill="#656B6B" d="M24.271,3.256c0,0,0,8.319,0,10c-0.857,0-1.894,0-1.894,0 c-4.838,0-9.385,1.881-12.805,5.298S4.27,26.518,4.27,31.356V99.13c0,9.33,7.5,18.125,18.125,18.121 c0.625,0,281.769,0.004,281.769,0.004c12.188,0,22.104-9.92,22.104-22.115V31.355c0-4.836-1.885-9.383-5.311-12.803 c-3.426-3.422-7.977-5.303-12.816-5.297H41.061l-10.039-10L24.271,3.256L24.271,3.256z"/>
<path fill-opacity="0.05" fill="#656B6B" d="M308.146,14.256h-267.5l-10-10h-5.375v10h-2.771 c-9.446,0-17.229,7.647-17.229,17.1L5.273,99.13c0,8.859,7.373,17.125,17.123,17.125H303.17h0.994 c11.639,0,21.104-9.473,21.104-21.115V31.355C325.271,21.903,317.593,14.244,308.146,14.256z"/>
<path fill-opacity="0.1" fill="#656B6B" d="M307.521,15.256H40.271l-10-10h-4v10h-3.771 c-9.446,0-16.229,6.647-16.229,16.1V98.13c0,9.125,6.5,17.125,17.078,17.123l280.814,0.002c11.086,0,20.104-9.023,20.104-20.115 V31.355C324.271,21.903,316.521,15.256,307.521,15.256z"/>
<path fill-opacity="0.1" fill="#656B6B" d="M306.521,16.256H39.896l-10-10h-2.625v10h-4.771 c-9.446,0-15.229,5.647-15.229,15.1V97.13c0,9,5.125,17.125,17.106,17.125c0.519,0,279.786,0,279.786,0 c10.535,0,19.104-8.574,19.104-19.115V31.355C323.271,21.903,315.521,16.256,306.521,16.256z"/>
<path fill-opacity="0.1" fill="#656B6B" d="M305.646,17.256H39.396l-10-10h-1.125v10h-4.75 c-9.449,0-15.25,4.647-15.25,14.1V96.14c0,8.865,3.875,17.115,17.125,17.115h278.769c9.984,0,18.104-8.127,18.104-18.115V31.355 C322.271,21.903,314.271,17.256,305.646,17.256z"/>
<linearGradient id="_6" gradientUnits="userSpaceOnUse" x1="163.27" y1="100.03" x2="163.27" y2="27.96">
<stop stop-color="#D9F4E0" offset="0"/>
<stop stop-color="#FFFFFF" offset="1"/>
</linearGradient>
<path fill="url(#_6)" d="M304.165,14.256H39.271l-12.002-12h-1.998v12h-2.896c-9.446,0-17.104,7.647-17.104,17.1V95.14 c0,9.451,7.658,17.115,17.104,17.115h281.788c9.447,0,17.104-7.664,17.104-17.115V31.355 C321.271,21.903,313.612,14.244,304.165,14.256z"/>
</svg>