<?xml version="1.0" encoding="UTF-8"?>
<!DOCTYPE svg PUBLIC "-//W3C//DTD SVG 1.1 Tiny//EN" "http://www.w3.org/Graphics/SVG/1.1/DTD/svg11-tiny.dtd">
<svg width="100%" height="100%" viewBox="0 0 88 88">
<linearGradient id="_30" gradientUnits="userSpaceOnUse" x1="65.44" y1="50.67" x2="78.35" y2="76.1">
<stop stop-color="#A2C2DD" offset="0.1"/>
<stop stop-color="#6C83BB" offset="0.71"/>
<stop stop-color="#003D6D" offset="0.99"/>
</linearGradient>
<path fill="url(#_30)" d="M68.568,18.327c0,0,0.175,5.387,0.215,6.631c-8.732-1.131-15.825,0.709-21.252,2.653 c-0.978,17.778,1.147,35.153,2.376,44.609c3.333,2.897,11.146,7.919,19.64,8.118c3.827-1.646,5.86-4.449,6.172-4.852 c0,0,0.206-0.964,0.276-1.293c0.298-0.252,1.883-1.594,1.883-1.594c2.394-9.576,4.457-32.674,3.331-41.904 c-0.545-0.539-2.131-2.459-6.673-4.299c-0.015-0.029,1.056-7.28,1.056-7.28C76.115,16.806,69.419,15.581,68.568,18.327z"/>
<linearGradient id="_31" gradientUnits="userSpaceOnUse" x1="17.6" y1="20.53" x2="29.94" y2="35.99">
<stop stop-color="#A2C2DD" offset="0.1"/>
<stop stop-color="#6C83BB" offset="0.71"/>
<stop stop-color="#003D6D" offset="0.99"/>
</linearGradient>
<path fill="url(#_31)" d="M4.327,20.701C1.451,35.259,19.033,43.877,29.053,35.931c0.438-0.438,1.563-1.813-1.952-8.551 c2.015,0.426,7.327,1.051,7.327,1.051C40.865,5.931,8.615-1.007,4.327,20.701z"/>
<linearGradient id="_32" gradientUnits="userSpaceOnUse" x1="64.97" y1="18.6" x2="80.45" y2="40.64">
<stop stop-color="#A2C2DD" offset="0.1"/>
<stop stop-color="#6C83BB" offset="0.71"/>
<stop stop-color="#003D6D" offset="0.99"/>
</linearGradient>
<path fill="url(#_32)" d="M62.839,25.346c4.69-0.17,12.591,0.496,17.686,5.619l-3.014,1.393L62.839,25.346z"/>
<linearGradient id="_33" gradientUnits="userSpaceOnUse" x1="73.63" y1="20.72" x2="79.1" y2="63.86">
<stop stop-color="#FFFFFF" offset="0"/>
<stop stop-color="#A2C2DD" offset="0.35"/>
<stop stop-color="#6C83BB" offset="0.7"/>
<stop stop-color="#003D6D" offset="1"/>
</linearGradient>
<path fill="url(#_33)" d="M78.009,32.091L74.827,74.28l2.428-2.054c1.899-8.376,4.485-29.042,3.258-41.326 L78.009,32.091z"/>
<linearGradient id="_34" gradientUnits="userSpaceOnUse" x1="55.88" y1="35.63" x2="70.04" y2="24.25">
<stop stop-color="#FFFFFF" offset="0.15"/>
<stop stop-color="#A2C2DD" offset="1"/>
</linearGradient>
<path fill="url(#_34)" d="M48.203,28.126c8.932-3.199,21.297-5.146,30.169,3.104l-7.232,3.442L48.203,28.126z"/>
<linearGradient id="_35" gradientUnits="userSpaceOnUse" x1="73.77" y1="23.69" x2="74.45" y2="91.34">
<stop stop-color="#FFFFFF" offset="0"/>
<stop stop-color="#A2C2DD" offset="0.35"/>
<stop stop-color="#6C83BB" offset="0.7"/>
<stop stop-color="#003D6D" offset="1"/>
</linearGradient>
<path fill="url(#_35)" d="M71.14,34.672l-1.603,44.976c3.388-1.562,5.537-4.446,5.537-4.446 c2.004-8.836,4.595-31.014,3.298-43.972L71.14,34.672z"/>
<linearGradient id="_36" gradientUnits="userSpaceOnUse" x1="66.95" y1="28.04" x2="76.8" y2="32.34">
<stop stop-color="#FFFFFF" offset="0"/>
<stop stop-color="#A2C2DD" offset="0.35"/>
<stop stop-color="#6C83BB" offset="0.7"/>
<stop stop-color="#003D6D" offset="1"/>
</linearGradient>
<path fill="url(#_36)" d="M74.387,29.736c0.366,2.277-5.823,2.626-5.773,0.126 C68.649,28.142,74.116,28.042,74.387,29.736z"/>
<linearGradient id="_37" gradientUnits="userSpaceOnUse" x1="68.98" y1="24.53" x2="76.43" y2="25.04">
<stop stop-color="#E6EEF4" offset="0"/>
<stop stop-color="#337CE5" offset="0.44"/>
<stop stop-color="#003D6D" offset="0.94"/>
</linearGradient>
<path fill="url(#_37)" d="M69.28,18.465c0,0,0.375,11.569,0.373,11.599c0.896,0.989,3.017,0.915,3.648,0.022 l1.605-11.061L69.28,18.465z"/>
<linearGradient id="_38" gradientUnits="userSpaceOnUse" x1="72.43" y1="26.13" x2="53.89" y2="64.08">
<stop stop-color="#FFFFFF" offset="0.05"/>
<stop stop-color="#A2C2DD" offset="1"/>
</linearGradient>
<path fill="url(#_38)" d="M48.203,28.126c4.967-1.623,15.488-0.271,22.937,6.546 c0.873,12.226,0.167,33.459-1.603,44.976c-6.008,0.149-14.489-3.888-18.966-7.775C49.099,61.594,47.273,40.419,48.203,28.126 z"/>
<linearGradient id="_39" gradientUnits="userSpaceOnUse" x1="76.2" y1="55.57" x2="47.29" y2="39.59">
<stop stop-color="#FFFFFF" offset="0.05"/>
<stop stop-color="#A2C2DD" offset="1"/>
</linearGradient>
<polygon fill="url(#_39)" points="50.68,31.092 51.445,57.013 68.042,63.128 68.595,36.237 "/>
<linearGradient id="_40" gradientUnits="userSpaceOnUse" x1="52.89" y1="76.31" x2="51.36" y2="16.09">
<stop stop-color="#FFFFFF" offset="0"/>
<stop stop-color="#A2C2DD" offset="0.35"/>
<stop stop-color="#6C83BB" offset="0.7"/>
<stop stop-color="#003D6D" offset="1"/>
</linearGradient>
<polygon fill="url(#_40)" points="53.3,55.892 52.818,31.701 50.68,31.092 51.445,57.013 "/>
<linearGradient id="_41" gradientUnits="userSpaceOnUse" x1="69.31" y1="68.01" x2="45.95" y2="45.96">
<stop stop-color="#FFFFFF" offset="0.15"/>
<stop stop-color="#A2C2DD" offset="1"/>
</linearGradient>
<polygon fill="url(#_41)" points="51.445,57.013 53.3,55.892 68.106,61.017 68.042,63.128 "/>
<linearGradient id="_42" gradientUnits="userSpaceOnUse" x1="70.02" y1="19.38" x2="74.54" y2="17.92">
<stop stop-color="#D6E4F3" offset="0"/>
<stop stop-color="#337CE5" offset="1"/>
</linearGradient>
<path fill="url(#_42)" d="M74.907,19.025c-0.53,1.501-6.164,0.833-5.577-0.664 C69.926,16.879,75.414,17.514,74.907,19.025z"/>
<linearGradient id="_43" gradientUnits="userSpaceOnUse" x1="55.08" y1="52.94" x2="67.83" y2="74.16">
<stop stop-color="#E6EEF4" offset="0"/>
<stop stop-color="#337CE5" offset="0.44"/>
<stop stop-color="#003D6D" offset="0.94"/>
</linearGradient>
<polygon fill="url(#_43)" points="62.687,69.925 66.952,71.722 67.12,68.651 62.778,66.856 "/>
<polygon fill="url(#_43)" points="67.161,67.852 67.328,64.788 62.889,63.133 62.802,66.063 "/>
<polygon fill="url(#_43)" points="62.663,70.72 62.584,73.494 66.76,75.353 66.91,72.522 "/>
<polygon fill="url(#_43)" points="56.796,64.439 53.048,62.955 53.242,66.052 56.912,67.533 "/>
<polygon fill="url(#_43)" points="61.97,65.776 62.002,62.859 57.694,61.284 57.747,64.084 "/>
<polygon fill="url(#_43)" points="56.66,60.854 52.82,59.475 52.995,62.157 56.764,63.642 "/>
<polygon fill="url(#_43)" points="57.888,71.497 61.886,73.238 61.915,70.456 57.838,68.759 "/>
<polygon fill="url(#_43)" points="56.937,68.341 53.296,66.854 53.465,69.555 57.037,71.08 "/>
<polygon fill="url(#_43)" points="57.763,64.88 57.82,67.96 61.929,69.658 61.96,66.576 "/>
<polygon fill="url(#_43)" points="57.903,72.307 57.954,75.115 61.847,76.933 61.878,74.047 "/>
<linearGradient id="_53" gradientUnits="userSpaceOnUse" x1="40.11" y1="26" x2="32.61" y2="46.75">
<stop stop-color="#E6EEF4" offset="0"/>
<stop stop-color="#B94994" offset="0.44"/>
<stop stop-color="#3D013F" offset="0.94"/>
</linearGradient>
<path fill="url(#_53)" d="M37.537,30.881c0,2.117-1.502,3.983-3.475,4.46l1.898,2.531c2.479-1.065,4.268-3.43,4.516-6.232 L37.537,30.881z"/>
<path fill="url(#_53)" d="M38.25,40.925l2.416,3.222c3.752-2.19,6.486-5.926,7.318-10.335l-3.869-1.119 C43.564,36.268,41.336,39.293,38.25,40.925z"/>
<path fill="url(#_53)" d="M42.773,46.956l3.018,4.023c5.186-3.325,8.998-8.607,10.387-14.799l-4.809-1.391 C50.303,39.933,47.113,44.294,42.773,46.956z"/>
<radialGradient id="_56" gradientUnits="userSpaceOnUse" cx="21.39" cy="12.89" r="20.23">
<stop stop-color="#FFFFFF" offset="0.05"/>
<stop stop-color="#A2C2DD" offset="1"/>
</radialGradient>
<path fill="url(#_56)" d="M28.934,35.075c-10.383,8.485-26.372-0.902-23.91-14.238 C8.807,0.348,39.297,6.171,33.896,27.73c-6.084-0.718-13.97-2.457-13.97-2.457L28.934,35.075"/>
<linearGradient id="_57" gradientUnits="userSpaceOnUse" x1="27.72" y1="11.06" x2="23.89" y2="21.23">
<stop stop-color="#A2C2DD" offset="0.1"/>
<stop stop-color="#6C83BB" offset="0.71"/>
<stop stop-color="#003D6D" offset="0.99"/>
</linearGradient>
<path fill="url(#_57)" d="M23.123,18.009c-0.448,1.43-0.019,2.837,0.958,3.142c0.979,0.306,2.136-0.608,2.58-2.037 c0.448-1.432,0.016-2.837-0.963-3.141C24.723,15.669,23.567,16.578,23.123,18.009z"/>
<linearGradient id="_58" gradientUnits="userSpaceOnUse" x1="31.05" y1="36.29" x2="19.72" y2="24.45">
<stop stop-color="#A2C2DD" offset="0.1"/>
<stop stop-color="#6C83BB" offset="0.71"/>
<stop stop-color="#003D6D" offset="0.99"/>
</linearGradient>
<path fill="url(#_58)" d="M18.242,24.958l7.377,1.5c1.245,1.338,3.272,5.515,3.314,8.617 C28.944,35.915,21.708,33.505,18.242,24.958z"/>
</svg>