<?xml version="1.0" encoding="UTF-8"?>
<!DOCTYPE svg PUBLIC "-//W3C//DTD SVG 1.1 Tiny//EN" "http://www.w3.org/Graphics/SVG/1.1/DTD/svg11-tiny.dtd">
<svg baseProfile="tiny" height="85px" version="1.1" viewBox="0 0 309 85" width="309px" x="0px" xmlns="http://www.w3.org/2000/svg" xmlns:xlink="http://www.w3.org/1999/xlink" y="0px">
<rect fill="none" height="85" width="309"/>
<path d="M309,79c0,3.313-2.686,6-6,6H6c-3.313,0-6-2.687-6-6V6c0-3.313,2.687-6,6-6h297  c3.314,0,6,2.687,6,6V79z" fill="#000014" fill-opacity="0.2" stroke-opacity="0.2"/>
<g fill-opacity="0.2" stroke-opacity="0.2">
<path d="M303,0c3.314,0,6,2.687,6,6v73c0,3.313-2.686,6-6,6H6c-3.313,0-6-2.687-6-6V6c0-3.313,2.687-6,6-6H303 M303,2H6   C3.795,2,2,3.794,2,6v73c0,2.205,1.794,4,4,4h297c2.206,0,4-1.795,4-4V6C307,3.794,305.206,2,303,2L303,2z"/>
</g>
<linearGradient gradientUnits="userSpaceOnUse" id="SVGID_1_" x1="154.5" x2="154.5" y1="0" y2="85.0005">
<stop offset="0" style="stop-color:#6A8D8F"/>
<stop offset="1" style="stop-color:#E8EDF3"/>
</linearGradient>
<path d="M309,79c0,3.313-2.686,6-6,6H6c-3.313,0-6-2.687-6-6V6c0-3.313,2.687-6,6-6h297  c3.314,0,6,2.687,6,6V79z" fill="url(#SVGID_1_)" fill-opacity="0.25" stroke-opacity="0.25"/>
<linearGradient gradientUnits="userSpaceOnUse" id="SVGID_2_" x1="154.5" x2="154.5" y1="0" y2="88.7507">
<stop offset="0" style="stop-color:#02141C"/>
<stop offset="0.6868" style="stop-color:#9EB3BE"/>
<stop offset="1" style="stop-color:#E8EDF3"/>
</linearGradient>
<path d="M120.916,0l-85,85h2.828l84.999-85H120.916z M177.488,0L92.489,85h2.828l84.999-85  H177.488z M115.257,0L30.258,85h2.828l85-85H115.257z M132.228,0L47.23,85h2.828l85-85H132.228z M126.572,0L41.573,85h2.828L129.4,0  H126.572z M98.285,0L13.286,85h2.828l85-85H98.285z M103.944,0l-85,85h2.828l85-85H103.944z M92.628,0l-85,85h2.828l85-85H92.628z   M109.601,0l-85,85h2.828l85-85H109.601z M166.174,0l-85,85h2.828l85-85H166.174z M154.861,0l-85,85h2.828l85-85H154.861z   M183.145,0L98.146,85h2.828l85-85H183.145z M171.832,0L86.833,85h2.828l85-85H171.832z M86.972,0L2.782,84.189  c0.624,0.381,1.327,0.641,2.081,0.748L89.8,0H86.972z M137.888,0l-85,85h2.828l85-85H137.888z M149.201,0L64.202,85h2.829l84.999-85  H149.201z M143.544,0l-85,85h2.828l85-85H143.544z M160.518,0L75.517,85h2.829l85-85H160.518z M293.326,85L309,69.326v-2.828  L290.498,85H293.326z M282.012,85L309,58.012v-2.828L279.182,85H282.012z M81.316,0L0.332,80.982  c0.198,0.689,0.526,1.322,0.955,1.874L84.144,0H81.316z M276.355,85L309,52.355v-2.828L273.527,85H276.355z M308.811,4.455  L228.266,85h2.828L309,7.094v-1.26C309,5.355,308.922,4.898,308.811,4.455z M270.695,85L309,46.697v-2.83L267.867,85H270.695z   M298.982,85L309,74.982v-2.828L296.154,85H298.982z M303.473,85c0.467-0.002,0.916-0.069,1.348-0.181l4-3.999  c0.113-0.44,0.18-0.899,0.18-1.375v-1.633L301.813,85H303.473z M287.668,85L309,63.668V60.84L284.84,85H287.668z M242.41,85  L309,18.41v-2.828L239.582,85H242.41z M236.752,85L309,12.752v-2.83L233.924,85H236.752z M307.393,1.912  c-0.23-0.232-0.486-0.436-0.758-0.623c-0.057-0.048-0.125-0.084-0.184-0.13L222.609,85h2.828l82.465-82.467  C307.744,2.318,307.584,2.103,307.393,1.912z M265.039,85L309,41.039v-2.828L262.211,85H265.039z M259.383,85L309,35.383v-2.828  L256.555,85H259.383z M253.723,85L309,29.725v-2.83L250.896,85H253.723z M248.066,85L309,24.066v-2.828L245.238,85H248.066z   M30.403,0L0,30.402v2.828L33.232,0H30.403z M284.979,0l-85,85h2.828l85-85H284.979z M13.433,0L0,13.432v2.828L16.261,0H13.433z   M0.173,4.773l4.715-4.715C2.45,0.396,0.518,2.329,0.173,4.773z M19.089,0L0,19.088v2.828L21.917,0H19.089z M7.776,0L0,7.775v2.828  L10.605,0H7.776z M290.639,0l-85,85h2.828l85-85H290.639z M303.094,0h-1.143l-85,85h2.828l84.781-84.78  C304.09,0.089,303.605,0,303.094,0z M296.295,0l-85,85h2.828l85-85H296.295z M24.747,0L0,24.746v2.828L27.575,0H24.747z M58.687,0  L0,58.686v2.83L61.516,0H58.687z M64.344,0L0,64.344v2.828L67.173,0H64.344z M70.001,0L0,70v2.828L72.83,0H70.001z M36.06,0  L0,36.059v2.828L38.888,0H36.06z M75.658,0L0,75.656v2.83L78.485,0H75.658z M41.716,0L0,41.715v2.83L44.545,0H41.716z M47.375,0  L0,47.373v2.828L50.203,0H47.375z M53.031,0L0,53.029v2.828L55.859,0H53.031z M194.461,0l-84.999,85h2.828l84.999-85H194.461z   M211.434,0l-85,85h2.828l85-85H211.434z M217.09,0l-85,85h2.828l85-85H217.09z M222.75,0l-85,85h2.828l85-85H222.75z M228.406,0  l-85,85h2.828l85-85H228.406z M234.063,0l-85,85h2.828l85-85H234.063z M205.777,0l-85,85h2.828l85-85H205.777z M188.805,0l-85,85  h2.828l85-85H188.805z M200.117,0l-84.999,85h2.828l84.999-85H200.117z M239.721,0l-85,85h2.829l85-85H239.721z M268.006,0  l-84.998,85h2.828l85-85H268.006z M273.666,0l-85,85h2.828l85-85H273.666z M279.322,0l-85,85h2.828l85-85H279.322z M262.35,0l-85,85  h2.828l85-85H262.35z M245.377,0l-85,85h2.828l85-85H245.377z M256.693,0l-85,85h2.828l85-85H256.693z M251.033,0l-84.998,85h2.828  l85-85H251.033z" fill="url(#SVGID_2_)" fill-opacity="0.15" stroke-opacity="0.15"/>
</svg>
