<?xml version="1.0" encoding="UTF-8"?>
<!DOCTYPE svg PUBLIC "-//W3C//DTD SVG 1.1 Tiny//EN" "http://www.w3.org/Graphics/SVG/1.1/DTD/svg11-tiny.dtd">
<svg width="84" height="72" viewBox="0 0 84 72">
<linearGradient id="_144" gradientUnits="userSpaceOnUse" x1="44.34" y1="37.86" x2="54.25" y2="59.64">
<stop stop-color="#A2C2DD" offset="0.1"/>
<stop stop-color="#6C83BB" offset="0.71"/>
<stop stop-color="#003D6D" offset="0.99"/>
</linearGradient>
<path fill="url(#_144)" d="M34.863,11.595c0,0-1.986,6.055-2.158,6.577c-0.571-0.089-15.596-2.423-15.596-2.423 c-1.469-0.01-3.143,0.285-3.906,0.676c-0.119,0.062,1.478,35.172,1.478,35.172c0.006,0.153,22.338,6.16,22.557,6.218 c2.328,3.814,6.09,6.111,11.208,6.804c3.973,0.515,6.892-1.291,6.892-1.291c1.448-0.828,3.166-1.959,6.546-4.636 c3.119-2.471,3.425-13.888,3.425-13.888s-3.064-4.328-3.835-5.396c-0.624-0.796-1.43-1.354-1.471-1.385 c1.357-2.873,4.654-11.898,4.654-11.898s2.031,0.375,2.188,0.281c0.281,0,4.077-8.784,3.11-11.146 c-0.269-0.652-0.729-1.081-1.377-1.276L35.77,10.681C35.156,10.563,34.863,11.595,34.863,11.595z"/>
<linearGradient id="_145" gradientUnits="userSpaceOnUse" x1="59.76" y1="31.92" x2="71.3" y2="14.02">
<stop stop-color="#FFFFFF" offset="0"/>
<stop stop-color="#A2C2DD" offset="0.35"/>
<stop stop-color="#6C83BB" offset="0.7"/>
<stop stop-color="#003D6D" offset="1"/>
</linearGradient>
<path fill="url(#_145)" d="M68.029,14.491c3.211,0.651,0.854,7.251-1.463,11.493l-2.951-0.342 C63.615,25.645,67.865,14.395,68.029,14.491z"/>
<linearGradient id="_146" gradientUnits="userSpaceOnUse" x1="49.89" y1="14.3" x2="45.77" y2="55.63">
<stop stop-color="#FFFFFF" offset="0"/>
<stop stop-color="#BFDAE1" offset="1"/>
</linearGradient>
<polygon fill="url(#_146)" points="56.74,39.27 32.866,19.645 35.793,11.297 66.33,14.785 "/>
<linearGradient id="_147" gradientUnits="userSpaceOnUse" x1="49.51" y1="10.03" x2="49.96" y2="28.19">
<stop stop-color="#FFFFFF" offset="0.15"/>
<stop stop-color="#A2C2DD" offset="1"/>
</linearGradient>
<path fill="url(#_147)" d="M56.24,41.02L32.866,19.27l2.578-7.782l31.074,3.953L56.24,41.02z M37.789,13.434 c-0.621-0.088-1.293,0.354-1.498,0.98c-0.209,0.626,0.125,1.207,0.738,1.293c0.615,0.088,1.287-0.354,1.5-0.98 C38.74,14.098,38.408,13.52,37.789,13.434z M36.402,17.559c-0.609-0.084-1.277,0.353-1.48,0.98 c-0.208,0.627,0.115,1.209,0.724,1.295s1.271-0.353,1.479-0.98C37.341,18.225,37.017,17.645,36.402,17.559z M62.344,17.233 c-0.645-0.072-1.354,0.403-1.586,1.057c-0.232,0.654,0.098,1.244,0.736,1.313c0.637,0.072,1.346-0.4,1.58-1.057 C63.316,17.891,62.986,17.301,62.344,17.233z M60.791,21.534c-0.631-0.069-1.336,0.401-1.568,1.058 c-0.231,0.655,0.09,1.244,0.717,1.314c0.634,0.072,1.334-0.4,1.57-1.059C61.748,22.196,61.426,21.606,60.791,21.534z M59.24,25.838c-0.625-0.07-1.322,0.402-1.555,1.057c-0.23,0.656,0.082,1.244,0.703,1.318c0.616,0.07,1.313-0.404,1.551-1.059 C60.176,26.5,59.863,25.911,59.24,25.838z M57.686,30.141c-0.617-0.07-1.307,0.402-1.537,1.057 c-0.233,0.654,0.072,1.242,0.687,1.314c0.608,0.074,1.295-0.396,1.528-1.053C58.605,30.803,58.301,30.215,57.686,30.141z M56.133,34.446c-0.611-0.074-1.291,0.4-1.523,1.055c-0.231,0.652,0.064,1.246,0.67,1.319c0.601,0.07,1.277-0.397,1.519-1.055 C57.035,35.108,56.736,34.52,56.133,34.446z"/>
<linearGradient id="_148" gradientUnits="userSpaceOnUse" x1="64.11" y1="16.67" x2="58.99" y2="38.47">
<stop stop-color="#87A8CB" offset="0"/>
<stop stop-color="#235487" offset="1"/>
</linearGradient>
<path fill="url(#_148)" d="M65.545,15.444c0,0-9.129,27.335-11.186,27.302c3.506,5.898,13.096-27.396,13.881-28.232 C67.082,14.559,66.35,14.895,65.545,15.444z"/>
<linearGradient id="_149" gradientUnits="userSpaceOnUse" x1="51.38" y1="15.01" x2="52.14" y2="11.31">
<stop stop-color="#FFFFFF" offset="0.05"/>
<stop stop-color="#A2C2DD" offset="1"/>
</linearGradient>
<path fill="url(#_149)" d="M65.545,15.444c0.83-0.509,1.494-0.812,2.695-0.933l-30.182-3.008 c-1.295,0.071-1.928,0.104-2.813,0.504L65.545,15.444z"/>
<linearGradient id="_150" gradientUnits="userSpaceOnUse" x1="43.36" y1="50.77" x2="57.05" y2="23.48">
<stop stop-color="#FFFFFF" offset="0"/>
<stop stop-color="#A2C2DD" offset="0.35"/>
<stop stop-color="#6C83BB" offset="0.7"/>
<stop stop-color="#003D6D" offset="1"/>
</linearGradient>
<path fill="url(#_150)" d="M50.865,21.895c8.625-2,1.281,15.873,3.494,20.852l-4.619-7.351 C49.74,35.395,50.84,22.135,50.865,21.895z"/>
<linearGradient id="_151" gradientUnits="userSpaceOnUse" x1="50.34" y1="23.46" x2="49.32" y2="41.47">
<stop stop-color="#87A8CB" offset="0"/>
<stop stop-color="#235487" offset="1"/>
</linearGradient>
<path fill="url(#_151)" d="M48.088,35.145l0.068-10.406c-0.029-2.371,2.031-2.901,4.402-2.948 c-1.605,1.104-2.109,1.641-1.908,5.975l0.039,8.004L48.088,35.145z"/>
<linearGradient id="_152" gradientUnits="userSpaceOnUse" x1="30.84" y1="17.18" x2="33.01" y2="79.27">
<stop stop-color="#FFFFFF" offset="0.05"/>
<stop stop-color="#A2C2DD" offset="1"/>
</linearGradient>
<polygon fill="url(#_152)" points="47.561,60.098 15.491,51.229 14.183,16.936 47.688,22.99 "/>
<linearGradient id="_153" gradientUnits="userSpaceOnUse" x1="35.5" y1="10.75" x2="29.85" y2="45.06">
<stop stop-color="#FFFFFF" offset="0.05"/>
<stop stop-color="#A2C2DD" offset="1"/>
</linearGradient>
<path fill="url(#_153)" d="M47.914,60.148l-32.671-8.972l-1.308-34.291l34.256,6.609L47.914,60.148z M17.179,19.217 c-0.689-0.14-1.217,0.299-1.186,0.981c0.033,0.683,0.611,1.351,1.295,1.489c0.682,0.141,1.211-0.299,1.184-0.983 C18.443,20.024,17.862,19.357,17.179,19.217z M17.368,23.699c-0.678-0.141-1.201,0.299-1.168,0.98 c0.033,0.683,0.605,1.352,1.277,1.492c0.676,0.139,1.197-0.304,1.168-0.986C18.618,24.506,18.045,23.838,17.368,23.699z M17.558,28.182c-0.668-0.141-1.186,0.302-1.152,0.982c0.035,0.684,0.598,1.352,1.262,1.489c0.664,0.141,1.178-0.301,1.15-0.982 C18.79,28.987,18.227,28.323,17.558,28.182z M17.747,32.667c-0.66-0.143-1.17,0.299-1.139,0.98 c0.033,0.684,0.592,1.35,1.246,1.49c0.654,0.139,1.162-0.299,1.135-0.982C18.961,33.471,18.402,32.803,17.747,32.667z M17.933,37.15c-0.65-0.144-1.154,0.301-1.121,0.979c0.031,0.685,0.584,1.351,1.227,1.488c0.646,0.139,1.148-0.302,1.121-0.982 C19.133,37.955,18.581,37.285,17.933,37.15z M18.116,41.631c-0.641-0.141-1.135,0.299-1.104,0.98 c0.029,0.684,0.574,1.354,1.209,1.49c0.637,0.141,1.129-0.302,1.104-0.982C19.297,42.436,18.756,41.768,18.116,41.631z M18.088,46.24c-0.648-0.141-1.152,0.301-1.119,0.979c0.031,0.687,0.582,1.353,1.227,1.488c0.646,0.142,1.148-0.299,1.119-0.979 C19.288,47.043,18.741,46.377,18.088,46.24z M44.516,25.188c-0.705-0.123-1.262,0.353-1.246,1.063 c0.021,0.709,0.604,1.387,1.304,1.51c0.694,0.125,1.252-0.35,1.239-1.059C45.801,25.99,45.221,25.313,44.516,25.188z M44.602,29.858c-0.694-0.129-1.244,0.348-1.227,1.061c0.014,0.711,0.59,1.389,1.279,1.512c0.688,0.125,1.238-0.352,1.227-1.064 C45.869,30.657,45.297,29.981,44.602,29.858z M44.688,34.522c-0.686-0.123-1.227,0.354-1.211,1.064 c0.017,0.71,0.58,1.387,1.262,1.512c0.683,0.125,1.224-0.354,1.212-1.063C45.938,35.325,45.373,34.647,44.688,34.522z M18.273,50.723c-0.641-0.143-1.135,0.299-1.104,0.98c0,0.006,0,0.01,0,0.016l2.305,0.619c0.004-0.043,0.01-0.084,0.008-0.127 C19.458,51.529,18.915,50.861,18.273,50.723z"/>
<linearGradient id="_154" gradientUnits="userSpaceOnUse" x1="32.58" y1="21.82" x2="33.54" y2="18.18">
<stop stop-color="#FFFFFF" offset="0.05"/>
<stop stop-color="#A2C2DD" offset="1"/>
</linearGradient>
<path fill="url(#_154)" d="M48.387,23.479c0.467-1.002,2.801-1.893,4.172-1.688L17.3,16.313 c-1.303-0.004-2.656,0.205-3.393,0.607L48.387,23.479z"/>
<linearGradient id="_155" gradientUnits="userSpaceOnUse" x1="50.04" y1="30.67" x2="45.1" y2="64.5">
<stop stop-color="#FFFFFF" offset="0.05"/>
<stop stop-color="#A2C2DD" offset="1"/>
</linearGradient>
<path fill="url(#_155)" d="M35.313,43.162l6.756-6.078l10.6,1.082l7.209,9.223c0,0,1.49,18.365-11.451,16.617 C31.866,61.77,35.313,43.162,35.313,43.162z"/>
<linearGradient id="_156" gradientUnits="userSpaceOnUse" x1="42.03" y1="36.69" x2="57.84" y2="36.69">
<stop stop-color="#FFFFFF" offset="0.05"/>
<stop stop-color="#A2C2DD" offset="1"/>
</linearGradient>
<polygon fill="url(#_156)" points="42.031,37.049 47.115,35.217 57.844,36.163 52.602,38.17 "/>
<linearGradient id="_157" gradientUnits="userSpaceOnUse" x1="52.6" y1="41.74" x2="64.63" y2="41.74">
<stop stop-color="#FFFFFF" offset="0.05"/>
<stop stop-color="#A2C2DD" offset="1"/>
</linearGradient>
<polygon fill="url(#_157)" points="52.602,38.17 57.844,36.163 64.627,44.84 59.822,47.314 "/>
<linearGradient id="_158" gradientUnits="userSpaceOnUse" x1="55.35" y1="36.33" x2="43.06" y2="60.78">
<stop stop-color="#FFFFFF" offset="0.15"/>
<stop stop-color="#A2C2DD" offset="1"/>
</linearGradient>
<path fill="url(#_158)" d="M57.078,49.881c1.424,5.447-1.602,10.57-6.754,11.443 c-5.154,0.871-10.483-2.838-11.908-8.281c-1.424-5.447,1.603-10.568,6.754-11.441 C50.324,40.732,55.654,44.436,57.078,49.881z"/>
<linearGradient id="_159" gradientUnits="userSpaceOnUse" x1="48.3" y1="45.13" x2="43.31" y2="64.44">
<stop stop-color="#87A8CB" offset="0"/>
<stop stop-color="#235487" offset="1"/>
</linearGradient>
<path fill="url(#_159)" d="M47.475,41.473c-17.716-0.266-7.815,27.506,6.476,18.381 C37.99,62.479,36.634,42.332,47.475,41.473z"/>
<linearGradient id="_160" gradientUnits="userSpaceOnUse" x1="57.94" y1="41.57" x2="61.19" y2="62.18">
<stop stop-color="#FFFFFF" offset="0"/>
<stop stop-color="#A2C2DD" offset="0.35"/>
<stop stop-color="#6C83BB" offset="0.7"/>
<stop stop-color="#003D6D" offset="1"/>
</linearGradient>
<path fill="url(#_160)" d="M64.627,44.84l-4.805,2.475l-0.002,0.004l0.057,0.07c0,0,0.623,10.555-4.762,15.381 c1.295-0.787,2.953-1.867,6.352-4.559C64.867,55.518,64.627,44.84,64.627,44.84z"/>
<linearGradient id="_161" gradientUnits="userSpaceOnUse" x1="57.87" y1="37.23" x2="60.8" y2="42.85">
<stop stop-color="#E6EEF4" offset="0"/>
<stop stop-color="#C03A3A" offset="0.44"/>
<stop stop-color="#302D02" offset="0.94"/>
</linearGradient>
<path fill="url(#_161)" d="M61.348,40.016c0.777,1.271,0.664,2.617-0.252,3.004c-0.918,0.394-2.291-0.324-3.07-1.6 c-0.774-1.268-0.662-2.615,0.257-3.002C59.195,38.027,60.568,38.744,61.348,40.016z"/>
<linearGradient id="_162" gradientUnits="userSpaceOnUse" x1="57.57" y1="38.59" x2="60.67" y2="40.95">
<stop stop-color="#E3DFE4" offset="0"/>
<stop stop-color="#C03A3A" offset="1"/>
</linearGradient>
<path fill="url(#_162)" d="M61.32,39.906c0.758,1.166,0.783,2.35,0.061,2.646c-0.725,0.298-1.928-0.401-2.684-1.563 c-0.756-1.166-0.783-2.353-0.061-2.65C59.361,38.039,60.561,38.74,61.32,39.906z"/>
<linearGradient id="_163" gradientUnits="userSpaceOnUse" x1="43.32" y1="32.14" x2="57.18" y2="39.34">
<stop stop-color="#E6EEF4" offset="0"/>
<stop stop-color="#C03A3A" offset="0.44"/>
<stop stop-color="#302D02" offset="0.94"/>
</linearGradient>
<path fill="url(#_163)" d="M50.768,34.292c2.07,0.137,3.439,0.914,3.064,1.719c-0.375,0.796-2.355,1.251-4.428,1.033 c-2.064-0.199-3.439-0.925-3.064-1.638C46.717,34.68,48.701,34.174,50.768,34.292z"/>
<linearGradient id="_164" gradientUnits="userSpaceOnUse" x1="47.1" y1="36.29" x2="51.54" y2="34.52">
<stop stop-color="#E3DFE4" offset="0"/>
<stop stop-color="#C03A3A" offset="1"/>
</linearGradient>
<path fill="url(#_164)" d="M50.598,34.34c1.771,0.105,2.988,0.535,2.728,0.945c-0.265,0.41-1.781,0.73-3.552,0.582 c-1.77-0.137-3.106-0.654-2.848-1.025C47.191,34.473,48.834,34.243,50.598,34.34z"/>
<linearGradient id="_165" gradientUnits="userSpaceOnUse" x1="48.99" y1="39.68" x2="46.78" y2="60.89">
<stop stop-color="#E6EEF4" offset="0"/>
<stop stop-color="#C03A3A" offset="0.44"/>
<stop stop-color="#302D02" offset="0.94"/>
</linearGradient>
<path fill="url(#_165)" d="M48.605,52.744l0.061,1.332l-1.582-0.381l0.029-1.104c-1.461-0.588-1.146-2.551,0.104-2.842 l0.258-7.263l0.584,0.103l0.396,7.285C49.391,50.336,49.98,51.898,48.605,52.744z M47.643,50.516 c-0.434,0.074-0.686,0.504-0.565,0.961c0.121,0.457,0.565,0.769,1,0.693c0.432-0.07,0.687-0.502,0.565-0.955 C48.523,50.754,48.076,50.443,47.643,50.516z"/>
<linearGradient id="_166" gradientUnits="userSpaceOnUse" x1="42.38" y1="3.79" x2="28.06" y2="42.63">
<stop stop-color="#FFFFFF" offset="0"/>
<stop stop-color="#A2C2DD" offset="0.35"/>
<stop stop-color="#6C83BB" offset="0.7"/>
<stop stop-color="#003D6D" offset="1"/>
</linearGradient>
<polygon fill="url(#_166)" points="33.542,38.988 33.704,45.947 25.623,43.777 25.736,36.982 21.451,36.012 29.967,26.373 37.99,40.217 "/>
</svg>