<?xml version="1.0" encoding="UTF-8"?>
<!DOCTYPE svg PUBLIC "-//W3C//DTD SVG 1.1 Tiny//EN" "http://www.w3.org/Graphics/SVG/1.1/DTD/svg11-tiny.dtd">
<svg width="332" height="126" viewBox="-0.729 0.382 332 126">
<g fill-opacity="0.7" stroke-opacity="0.7">
<path fill-opacity="0.01" fill="#656B6B" d="M22.271,1.382c0,0,0,8.344,0,10.008c-11.037,0.061-20,9.049-20,20.102v65.775 c0,10.311,7.691,18.869,17.908,19.982c0.016,0.004,0.629,0.055,2.098,0.129l281.888,0.004c12.189,0,22.105-9.922,22.105-22.115 V31.491c0-5.377-2.094-10.43-5.896-14.229c-3.799-3.793-8.846-5.879-14.213-5.871H41.889l-9.992-10.01H22.271z"/>
<path fill-opacity="0.03" fill="#656B6B" d="M23.271,2.382c0,0,0,8.318,0,9.998c-0.445,0-0.895,0-0.895,0 c-10.535,0-19.105,8.572-19.105,19.111v65.775c0,9.846,7.373,18.021,17.152,19.016c0.002,0,1.904,0.098,1.904,0.098l281.837,0.002 c11.637,0,21.105-9.473,21.105-21.115V31.491c0-5.109-1.99-9.912-5.604-13.52c-3.607-3.605-8.404-5.586-13.506-5.58H41.475 l-9.953-10.01H23.271z"/>
<path fill-opacity="0.05" fill="#656B6B" d="M24.271,3.382c0,0,0,8.318,0,9.998c-0.857,0-1.895,0-1.895,0 c-9.982,0-18.105,8.125-18.105,18.111v65.775c0,9.33,6.988,17.078,16.254,18.021c0.004,0,1.852,0.094,1.852,0.094h281.788 c11.086,0,20.105-9.023,20.105-20.115V31.491c0-4.842-1.885-9.393-5.309-12.813c-3.42-3.416-7.965-5.293-12.799-5.287H41.061 L31.021,3.382H24.271z"/>
<path fill-opacity="0.07" fill="#656B6B" d="M306.165,14.392H40.646l-10-10.01h-5.375v9.998h-2.895c-9.447,0-17.105,7.658-17.105,17.111 v65.775c0,8.859,6.73,16.148,15.355,17.025c0.576,0.057,1.16,0.09,1.75,0.09h281.788c10.535,0,19.105-8.576,19.105-19.115V31.491 C323.271,22.038,315.612,14.38,306.165,14.392z"/>
<path fill-opacity="0.11" fill="#656B6B" d="M305.165,15.382H40.271l-10-10h-5v8.998h-1.895c-9.447,0-17.105,7.658-17.105,17.111v64.775 c0,8.859,6.73,16.148,15.355,17.025c0.576,0.057,1.16,0.09,1.75,0.09h280.788c9.982,0,18.105-8.127,18.105-18.115V31.491 C322.271,22.038,314.612,15.37,305.165,15.382z"/>
<path fill="#FFFFFF" d="M304.165,14.382H39.27l-12-12h-1.998V14.37h-2.895c-9.447,0-17.105,7.658-17.105,17.111v63.785 c0,9.449,7.658,17.115,17.105,17.115h281.788c9.447,0,17.105-7.666,17.105-17.115V31.481 C321.271,22.028,313.612,14.37,304.165,14.382z"/>
</g>
</svg>