<?xml version="1.0" encoding="UTF-8"?>
<!DOCTYPE svg PUBLIC "-//W3C//DTD SVG 1.1 Tiny//EN" "http://www.w3.org/Graphics/SVG/1.1/DTD/svg11-tiny.dtd">
<svg width="84" height="58" viewBox="-1.438 -0.412 84 58">
<linearGradient id="_32" gradientUnits="userSpaceOnUse" x1="24.96" y1="23.22" x2="32.8" y2="38.65">
<stop stop-color="#A2C2DD" offset="0.1"/>
<stop stop-color="#6C83BB" offset="0.71"/>
<stop stop-color="#003D6D" offset="0.99"/>
</linearGradient>
<path fill="url(#_32)" d="M7.619,23.128c0,9.541,7.761,17.303,17.301,17.303c9.539,0,17.3-7.763,17.3-17.303 c0-9.542-7.761-17.304-17.3-17.304C15.379,5.824,7.619,13.586,7.619,23.128z"/>
<radialGradient id="_33" gradientUnits="userSpaceOnUse" cx="28.26" cy="12.19" r="31.37">
<stop stop-color="#FFFFFF" offset="0"/>
<stop stop-color="#A2C2DD" offset="0.53"/>
<stop stop-color="#6C83BB" offset="0.87"/>
<stop stop-color="#003D6D" offset="1"/>
</radialGradient>
<circle fill="url(#_33)" cx="24.919" cy="23.128" r="16.951"/>
<radialGradient id="_34" gradientUnits="userSpaceOnUse" cx="26.07" cy="16.3" r="22.15">
<stop stop-color="#A2C2DD" offset="0.1"/>
<stop stop-color="#6C83BB" offset="0.71"/>
<stop stop-color="#003D6D" offset="0.99"/>
</radialGradient>
<path fill="url(#_34)" d="M18.084,8.531c0.07,0.143,0.303,0.178,0.791,0.023c0.359-0.031,1.302-0.849,1.793-0.684 c0.492,0.163,0.897-0.167,1.354-0.461c0.952,0.084,1.967-0.753,2.163-0.753c0.195,0,0.937,0.136,1.099-0.125 c0,0,1.789,0.421,3.422,0.07c-1.218-0.278-2.485-0.426-3.787-0.426c-1.677,0-3.296,0.245-4.825,0.698 C19.666,7.284,19.207,7.843,18.084,8.531z"/>
<path fill="url(#_34)" d="M38.508,28.518l-0.553,0.876c0,0-0.829,0.261-0.861,0.523c-0.015,0.11-0.64,1.497-0.64,1.497 s-0.245,0.773,0.457,0.544C38.371,31.482,39.327,28.355,38.508,28.518z"/>
<path fill="url(#_34)" d="M12.115,30.243c0.24,0,0.856,0.074,0.931-0.15c0.005-0.096,0.091-2.415,0.091-2.415l0.924-1.229 v-0.978l-2.402-1.555l-1.042-1.129c0,0.003-0.404-1.22-0.782-1.565c-0.316-0.289-0.293-0.923-0.63-1.391 c-0.306-0.423-0.552-0.661-0.747-0.755c-1.55,6.274,0.853,11.608,3.103,14.485c0.321-0.46,0.576-0.974,0.774-1.428 C12.536,31.665,11.311,31.003,12.115,30.243z"/>
<path fill="url(#_34)" d="M13.962,10.812c0-0.305,0.5-0.456,0.5-0.456l0.065,0.239l0.456,0.196c0,0,0.544-0.587,0.653-0.74 c0.106-0.151,0.303-0.738,0.303-0.738l0.949-1.119c-2.13,1.149-3.986,2.739-5.446,4.651C12.029,12.38,13.962,11.116,13.962,10.812z "/>
<radialGradient id="_38" gradientUnits="userSpaceOnUse" cx="23.28" cy="9.46" r="3.75">
<stop stop-color="#A2C2DD" offset="0.1"/>
<stop stop-color="#6C83BB" offset="0.71"/>
<stop stop-color="#003D6D" offset="0.99"/>
</radialGradient>
<path fill="url(#_38)" d="M22.929,8.129c0.215-0.041,0.703-0.27,0.703-0.27s-0.244-0.104-0.521-0.063 c-0.273,0.042-0.672-0.166-0.886-0.063C22.409,7.962,22.716,8.17,22.929,8.129z"/>
<radialGradient id="_39" gradientUnits="userSpaceOnUse" cx="28.56" cy="13.66" r="20.19">
<stop stop-color="#E6EEF4" offset="0"/>
<stop stop-color="#4A9900" offset="0.44"/>
<stop stop-color="#0E4E58" offset="0.94"/>
</radialGradient>
<path fill="url(#_39)" d="M32.724,8.076c-0.521,0.146-0.949,0.257-1.05,0.257c-0.296,0-0.216-0.25-0.479-0.282 c-0.265-0.032-2.449-0.598-2.744-0.304c-0.295,0.295-1.447,0.597-1.71,0.63c-0.262,0.033,0.087,0.827,0.781,1.326 c-0.096,0.098-1.652,0.959-1.652,0.369c0-0.589-0.303-1.021-0.781-1.195c-0.435,0.108-0.935,0.565-0.239,1.195 c0.434,0.392,0.004,0.445-0.026,0.559c-0.129,0.474,1.04,0.935,0.482,1.284c-0.525,0.046-0.992-0.049-1.08-0.098 c-0.825-0.463-1.011,1.37-1.011,1.37l0.899,0.444l-1.503,1.463c0,0-2.205,1.53-2.239,1.728c-0.033,0.196-0.979,2.734-0.65,3.488 c0.327,0.754,2.024,2.786,2.81,2.851c1.026,0.083,3.992-0.509,3.992-0.509c0.065,0.165,0.368,0.821,1.825,1.092 c0.052,0.009-0.629,1.313-0.229,1.875c0.871,1.217,1.305,2.472,0.828,3.038c-1.142,1.711-0.266,1.842,0.01,2.738 c0.1,0.263-0.578,2.604,1.674,3.238c0.809,0.07,1.231-0.057,1.919-0.943c0.198-0.162,1.354-1.345,2.119-1.596 c0.25-0.018-0.24-0.691,0.26-1.403c0.538-0.212,1.989-1.19,1.989-1.19c0.065-1.433-0.707-3.205,0.733-4.221 c0.929-0.946,1.059-0.832,1.65-2.273c0.163-0.425,0.725-1.948-0.261-1.586c-0.651,0.238-0.814,0.228-1.022,0.162 c-0.058-0.532-0.173-0.75-0.759-1.271c-0.306-0.718-1.044-1.957-1.044-1.957l-1.043-1.586l0.13-0.327l2.26,3.076 c0.208,0.598,0.349,0.873,0.511,1.575c1.29-0.312,2.405-1.995,1.883-3.364c-0.023-0.025-0.345,0.039-0.818,0.006 c-0.731-0.533-1.172-1.66-1.172-1.66l1.662,1.398l0.814,0.065l0.516,1.022c0.146,0.095,0.244,0.159,0.244,0.159 s0.033,0.004,0.089,0.006C40.049,14.093,36.895,10.243,32.724,8.076z M29.108,8.75c-0.138-0.348,0.401-0.479,0.401-0.479 s0.536,0.778,0.45,1.292c-0.084,0.509-0.651,0.198-0.823,0.045C28.969,9.458,29.243,9.099,29.108,8.75z M33.985,15.28 c-0.558,0-1.331-0.002-1.807-0.329c-0.475-0.327-0.645,0.141-0.961,0.469c-0.204,0.213-2.339-0.843-2.339-0.843l-0.315-0.918 l-1.946-0.13l-1.242,0.37l-1.209-0.19l1.341-0.479c0,0,0.965-0.906,1.312-1.201c0.293-0.25,1.466-0.098,1.466-0.098l1.342,1.075 c0,0-0.092,0.49-0.216,0.652c0.489-0.032,0.857-0.662,0.857-0.662c-1.09-0.956-1.083-1.188-1.083-1.188l1.399,0.791l0.101,0.407 c0,0,0.558,0.96,1.095,1c0.229,0.017,0.041-0.902,0.041-0.902l0.285-0.04c0.563,1.302,2.545,1.172,2.908,1.477 C35.035,15.889,34.217,15.345,33.985,15.28z M34.357,12.955c-0.499-0.195-1.013-0.099-1.013-0.099 c-0.112,0.221-0.916-0.007-0.755-0.496c0.16-0.489,0.687-0.104,0.929-0.37c0.242-0.267,0.585-0.444,0.742-0.191 c-0.183,0.241,0.16,0.43,0.399,0.559C35.33,12.72,35.771,13.241,34.357,12.955z M37.121,14.152 c-0.253-0.224-0.09-0.488-0.469-0.845c-0.546-0.508-0.846-0.728-0.531-1.286c0.533-0.254,0.217,0.341,0.418,0.625 c0.106,0.151,0.587,0.631,1.043,1.246C37.961,14.404,37.372,14.377,37.121,14.152z"/>
<path fill="#FFFFFF" d="M11.978,33.712c-2.896,0-6.861,0.689-7.867,6.629l-0.149,0.896c0,0,6.67,0,7.462,0 c0.24,0.43,0.596,1.072,0.821,1.482c-0.226,0.41-0.581,1.053-0.821,1.48c-0.792,0-7.462,0-7.462,0l0.149,0.896 c1.006,5.939,4.973,6.629,7.867,6.629c2.283,0,4.317-1.916,5.953-3.455c0.883-0.834,1.717-1.615,2.158-1.615h20.432l0.228-0.252 c0.44-0.482,1.458-1.803,1.481-3.652v-0.064c-0.023-1.85-1.041-3.17-1.481-3.652l-0.228-0.25H20.089 c-0.441,0-1.275-0.783-2.156-1.613C16.295,35.628,14.261,33.712,11.978,33.712z"/>
<linearGradient id="_40" gradientUnits="userSpaceOnUse" x1="10.58" y1="28.88" x2="32.61" y2="55.38">
<stop stop-color="#E6EDF3" offset="0"/>
<stop stop-color="#CABAD7" offset="0.12"/>
<stop stop-color="#AB7EB8" offset="0.27"/>
<stop stop-color="#9759A4" offset="0.38"/>
<stop stop-color="#8F4B9C" offset="0.44"/>
<stop stop-color="#73357C" offset="0.57"/>
<stop stop-color="#551D5A" offset="0.72"/>
<stop stop-color="#430E45" offset="0.85"/>
<stop stop-color="#3C093D" offset="0.94"/>
</linearGradient>
<path fill="url(#_40)" d="M41.462,42.72c0-0.008,0.002-0.016,0.002-0.021H41.46c-0.018-1.609-0.941-2.773-1.279-3.145 c-0.432,0-20.092,0-20.092,0c-0.748,0-1.559-0.768-2.688-1.824c-1.533-1.445-3.445-3.246-5.424-3.246 c-3.213,0-6.256,0.941-7.107,5.986c1.207,0,7.006,0,7.006,0l1.246,2.25l-1.246,2.25c0,0-5.799,0-7.006,0 c0.852,5.043,3.895,5.986,7.107,5.986c1.979,0,3.891-1.799,5.424-3.246c1.129-1.059,1.938-1.824,2.688-1.824c0,0,19.66,0,20.092,0 c0.338-0.369,1.262-1.531,1.279-3.143h0.004C41.464,42.736,41.462,42.73,41.462,42.72z"/>
<polygon fill="#496DA2" points="52.9,13.677 52.921,13.652 52.9,13.626 52.9,13.597 52.867,13.597 44.773,5.499 44.013,6.259 49.228,13.597 42.499,13.597 42.499,16.17 42.544,16.17 42.507,16.209 50.607,24.306 51.478,23.431 46.111,16.17 52.9,16.17 "/>
<linearGradient id="_41" gradientUnits="userSpaceOnUse" x1="55.91" y1="18.46" x2="72.25" y2="49.71">
<stop stop-color="#A2C2DD" offset="0.1"/>
<stop stop-color="#6C83BB" offset="0.71"/>
<stop stop-color="#003D6D" offset="0.99"/>
</linearGradient>
<path fill="url(#_41)" d="M65.465,13.644c0.018,1.154,0.117,3.946,0.117,3.946c-5.468-0.855-11.138,0.893-12.904,1.584 c-0.56,9.442,0.637,21.347,1.478,26.945c1.633,1.674,7.21,5.09,11.98,4.898c1.666-0.627,3.552-2.875,3.552-2.875 s0.13-0.608,0.17-0.792c0.162-0.138,1.142-0.966,1.142-0.966c1.11-5.83,2.738-15.621,2.003-25.388 c-0.8-0.904-2.492-1.981-4.041-2.566l0.646-4.451C69.926,12.431,65.44,12.083,65.465,13.644z"/>
<linearGradient id="_42" gradientUnits="userSpaceOnUse" x1="63.22" y1="13.63" x2="72.61" y2="27.01">
<stop stop-color="#A2C2DD" offset="0.1"/>
<stop stop-color="#6C83BB" offset="0.71"/>
<stop stop-color="#003D6D" offset="0.99"/>
</linearGradient>
<path fill="url(#_42)" d="M61.918,17.726c2.846-0.103,7.64,0.301,10.731,3.41l-1.829,0.845L61.918,17.726z"/>
<linearGradient id="_43" gradientUnits="userSpaceOnUse" x1="68.47" y1="14.92" x2="71.79" y2="41.09">
<stop stop-color="#FFFFFF" offset="0"/>
<stop stop-color="#A2C2DD" offset="0.35"/>
<stop stop-color="#6C83BB" offset="0.7"/>
<stop stop-color="#003D6D" offset="1"/>
</linearGradient>
<path fill="url(#_43)" d="M71.123,21.818l-1.93,25.597l1.473-1.246c1.153-5.082,2.723-17.62,1.978-25.073L71.123,21.818z"/>
<linearGradient id="_44" gradientUnits="userSpaceOnUse" x1="57.7" y1="23.97" x2="66.29" y2="17.06">
<stop stop-color="#FFFFFF" offset="0.15"/>
<stop stop-color="#A2C2DD" offset="1"/>
</linearGradient>
<path fill="url(#_44)" d="M53.036,19.412c5.421-1.94,12.925-3.122,18.31,1.884l-4.39,2.089L53.036,19.412z"/>
<linearGradient id="_45" gradientUnits="userSpaceOnUse" x1="68.55" y1="16.72" x2="68.97" y2="57.77">
<stop stop-color="#FFFFFF" offset="0"/>
<stop stop-color="#A2C2DD" offset="0.35"/>
<stop stop-color="#6C83BB" offset="0.7"/>
<stop stop-color="#003D6D" offset="1"/>
</linearGradient>
<path fill="url(#_45)" d="M66.955,23.385l-0.972,27.288c2.056-0.947,3.359-2.697,3.359-2.697 c1.216-5.36,2.788-18.817,2.002-26.678L66.955,23.385z"/>
<linearGradient id="_46" gradientUnits="userSpaceOnUse" x1="64.42" y1="19.36" x2="70.39" y2="21.97">
<stop stop-color="#FFFFFF" offset="0"/>
<stop stop-color="#A2C2DD" offset="0.35"/>
<stop stop-color="#6C83BB" offset="0.7"/>
<stop stop-color="#003D6D" offset="1"/>
</linearGradient>
<path fill="url(#_46)" d="M68.925,20.389c0.223,1.382-3.532,1.593-3.504,0.077C65.444,19.423,68.762,19.362,68.925,20.389z"/>
<linearGradient id="_47" gradientUnits="userSpaceOnUse" x1="65.64" y1="17.23" x2="70.16" y2="17.54">
<stop stop-color="#E6EEF4" offset="0"/>
<stop stop-color="#337CE5" offset="0.44"/>
<stop stop-color="#003D6D" offset="0.94"/>
</linearGradient>
<path fill="url(#_47)" d="M65.828,13.551c0,0,0.227,7.02,0.226,7.038c0.543,0.6,1.831,0.555,2.214,0.013l0.975-6.711 L65.828,13.551z"/>
<linearGradient id="_48" gradientUnits="userSpaceOnUse" x1="67.74" y1="18.2" x2="56.49" y2="41.23">
<stop stop-color="#FFFFFF" offset="0.05"/>
<stop stop-color="#A2C2DD" offset="1"/>
</linearGradient>
<path fill="url(#_48)" d="M53.036,19.412c3.015-0.984,9.4-0.165,13.921,3.973c0.529,7.417,0.1,20.299-0.973,27.288 c-3.646,0.09-8.795-2.359-11.511-4.719C53.579,39.719,52.472,26.871,53.036,19.412z"/>
<linearGradient id="_49" gradientUnits="userSpaceOnUse" x1="70.02" y1="36.07" x2="52.48" y2="26.36">
<stop stop-color="#FFFFFF" offset="0.05"/>
<stop stop-color="#A2C2DD" offset="1"/>
</linearGradient>
<polygon fill="url(#_49)" points="54.538,21.212 55.003,36.939 65.076,40.65 65.412,24.335 "/>
<linearGradient id="_50" gradientUnits="userSpaceOnUse" x1="55.88" y1="48.64" x2="54.95" y2="12.11">
<stop stop-color="#FFFFFF" offset="0"/>
<stop stop-color="#A2C2DD" offset="0.35"/>
<stop stop-color="#6C83BB" offset="0.7"/>
<stop stop-color="#003D6D" offset="1"/>
</linearGradient>
<polygon fill="url(#_50)" points="56.129,36.259 55.836,21.582 54.538,21.212 55.003,36.939 "/>
<linearGradient id="_51" gradientUnits="userSpaceOnUse" x1="65.84" y1="43.61" x2="51.67" y2="30.23">
<stop stop-color="#FFFFFF" offset="0.15"/>
<stop stop-color="#A2C2DD" offset="1"/>
</linearGradient>
<polygon fill="url(#_51)" points="55.003,36.939 56.129,36.259 65.115,39.368 65.076,40.65 "/>
<linearGradient id="_52" gradientUnits="userSpaceOnUse" x1="66.27" y1="14.1" x2="69.02" y2="13.22">
<stop stop-color="#D6E4F3" offset="0"/>
<stop stop-color="#337CE5" offset="1"/>
</linearGradient>
<path fill="url(#_52)" d="M69.242,13.892c-0.321,0.91-3.741,0.505-3.385-0.403C66.218,12.59,69.549,12.974,69.242,13.892z"/>
<linearGradient id="_53" gradientUnits="userSpaceOnUse" x1="57.21" y1="34.47" x2="64.95" y2="47.34">
<stop stop-color="#E6EEF4" offset="0"/>
<stop stop-color="#337CE5" offset="0.44"/>
<stop stop-color="#003D6D" offset="0.94"/>
</linearGradient>
<polygon fill="url(#_53)" points="61.826,44.773 64.413,45.863 64.515,44 61.88,42.911 "/>
<polygon fill="url(#_53)" points="64.541,43.515 64.642,41.658 61.948,40.652 61.896,42.431 "/>
<polygon fill="url(#_53)" points="61.81,45.255 61.763,46.939 64.297,48.066 64.388,46.349 "/>
<polygon fill="url(#_53)" points="58.25,41.445 55.976,40.544 56.093,42.423 58.32,43.324 "/>
<polygon fill="url(#_53)" points="61.39,42.256 61.409,40.486 58.795,39.531 58.828,41.23 "/>
<polygon fill="url(#_53)" points="58.167,39.27 55.837,38.433 55.944,40.06 58.231,40.96 "/>
<polygon fill="url(#_53)" points="58.913,45.727 61.339,46.784 61.357,45.095 58.883,44.066 "/>
<polygon fill="url(#_53)" points="58.335,43.812 56.126,42.909 56.229,44.548 58.397,45.474 "/>
<polygon fill="url(#_53)" points="58.837,41.712 58.871,43.581 61.365,44.611 61.384,42.742 "/>
<polygon fill="url(#_53)" points="58.922,46.218 58.953,47.923 61.316,49.025 61.335,47.273 "/>
</svg>