<?xml version="1.0" encoding="UTF-8" standalone="no"?>
<!DOCTYPE svg PUBLIC "-//W3C//DTD SVG 1.1 Tiny//EN" "http://www.w3.org/Graphics/SVG/1.1/DTD/svg11-tiny.dtd">
<svg xmlns="http://www.w3.org/2000/svg" xmlns:xlink="http://www.w3.org/1999/xlink" width="32" height="32" viewBox="0 0 32 32">
<rect fill="none" height="32" width="32"/>
<path d="M16.003,4.578c-6.3,0-11.422,5.122-11.422,11.421c0,6.297,5.122,11.416,11.422,11.416c6.297,0,11.415-5.119,11.415-11.416 C27.418,9.7,22.3,4.578,16.003,4.578z M16.003,25.496c-5.243,0-9.503-4.26-9.503-9.497c0-5.241,4.26-9.502,9.503-9.502 c5.237,0,9.497,4.261,9.497,9.502C25.5,21.236,21.24,25.496,16.003,25.496z"/>
<path d="M14.754,12.772c0,1.141-0.922,2.069-2.07,2.069c-1.141,0-2.067-0.928-2.067-2.069c0-1.147,0.927-2.069,2.067-2.069 C13.832,10.703,14.754,11.625,14.754,12.772z"/>
<path d="M21.384,12.772c0,1.141-0.926,2.069-2.068,2.069c-1.141,0-2.076-0.928-2.076-2.069c0-1.147,0.934-2.069,2.076-2.069 S21.384,11.625,21.384,12.772z"/>
<path d="M9.5,17.378C9.5,17.378,9.5,17.378,9.5,17.378c0,3.589,2.912,6.5,6.5,6.5s6.5-2.913,6.5-6.499c0-0.001,0-0.001,0-0.001H9.5z "/>
</svg>