<?xml version="1.0" encoding="UTF-8"?>
<!DOCTYPE svg PUBLIC "-//W3C//DTD SVG 1.1 Tiny//EN" "http://www.w3.org/Graphics/SVG/1.1/DTD/svg11-tiny.dtd">
<svg baseProfile="tiny" height="44px" version="1.1" viewBox="0 0 44 44" width="44px" x="0px" xmlns="http://www.w3.org/2000/svg" xmlns:xlink="http://www.w3.org/1999/xlink" y="0px">
<g>
<rect fill="none" height="44" width="44"/>
<g>
<rect fill="none" height="44" width="44"/>
</g>
<g>
<linearGradient gradientUnits="userSpaceOnUse" id="SVGID_1_" x1="21.9995" x2="21.9995" y1="7.0703" y2="36.9292">
<stop offset="0" style="stop-color:#B2B2B2"/>
<stop offset="1" style="stop-color:#000000"/>
</linearGradient>
<path d="M27.414,9.27V7.07H16.582V9.27H8.285v2.225h2.02l1.813,25.435H31.73l2.016-25.431l1.969-0.001    L35.711,9.27H27.414z M29.762,34.818H13.961L12.336,11.47h19.223L29.762,34.818z" fill="url(#SVGID_1_)"/>
</g>
<g>
<g>
<linearGradient gradientUnits="userSpaceOnUse" id="SVGID_2_" x1="25.7598" x2="25.7598" y1="7.0591" y2="36.934">
<stop offset="0" style="stop-color:#B2B2B2"/>
<stop offset="1" style="stop-color:#000000"/>
</linearGradient>
<path d="M25.758,25.305c0.771,0,1.398,0.625,1.398,1.396c0,0.77-0.627,1.395-1.398,1.395     c-0.77,0-1.395-0.625-1.395-1.395C24.363,25.93,24.988,25.305,25.758,25.305z" fill="url(#SVGID_2_)"/>
</g>
<g>
<linearGradient gradientUnits="userSpaceOnUse" id="SVGID_3_" x1="21.9487" x2="21.9487" y1="7.0581" y2="36.9341">
<stop offset="0" style="stop-color:#B2B2B2"/>
<stop offset="1" style="stop-color:#000000"/>
</linearGradient>
<path d="M19.947,18.347c1.73,0,3.029,2.021,3.029,2.021l0,0c0.078,0,2.627-0.093,2.627-0.093l0.443,0.447     l-6.531,6.443l-0.48-0.479l-0.076-2.641c0,0-3.635-2.1-0.967-4.769C18.672,18.599,19.336,18.347,19.947,18.347 M19.947,16.347     c-0.846,0-2.115,0.263-3.369,1.518c-1.496,1.496-1.656,2.973-1.527,3.948c0.195,1.491,1.166,2.6,1.938,3.264l0.072,2.465     l2.449,2.441l9.373-9.246l-2.477-2.491c0,0-1.758,0.063-2.496,0.09C23.115,17.471,21.738,16.347,19.947,16.347L19.947,16.347z" fill="url(#SVGID_3_)"/>
</g>
</g>
</g>
</svg>
