<?xml version="1.0" encoding="UTF-8"?>
<!DOCTYPE svg PUBLIC "-//W3C//DTD SVG 1.1 Tiny//EN" "http://www.w3.org/Graphics/SVG/1.1/DTD/svg11-tiny.dtd">
<svg width="60" height="52" viewBox="-0.393 0.104 60 52">
<linearGradient id="_5" gradientUnits="userSpaceOnUse" x1="29.61" y1="44.91" x2="29.61" y2="6.51">
<stop stop-color="#698AB5" offset="0"/>
<stop stop-color="#41628E" offset="0.71"/>
<stop stop-color="#385985" offset="1"/>
</linearGradient>
<path d="M7.866,6.105c-1.245,0-2.259,1.014-2.259,2.259v35.481c0,1.246,1.014,2.26,2.259,2.26h43.481 c1.246,0,2.26-1.014,2.26-2.26V8.364c0-1.245-1.014-2.259-2.26-2.259H7.866z" fill="url(#_5)"/>
<g fill-opacity="0.9" stroke-opacity="0.9">
<linearGradient id="_6" gradientUnits="userSpaceOnUse" x1="29.61" y1="1.56" x2="29.61" y2="46.69">
<stop stop-color="#6694BF" offset="0"/>
<stop stop-color="#8CB3D2" offset="0.09"/>
<stop stop-color="#B3D3E6" offset="0.37"/>
<stop stop-color="#BDDBEB" offset="0.69"/>
</linearGradient>
<path d="M6.607,43.846V8.364c0-0.694,0.564-1.259,1.259-1.259h43.481c0.694,0,1.26,0.564,1.26,1.259 v35.481c0,0.694-0.565,1.26-1.26,1.26H7.866C7.172,45.105,6.607,44.54,6.607,43.846z" fill="url(#_6)"/>
</g>
<linearGradient id="_7" gradientUnits="userSpaceOnUse" x1="29.42" y1="42.89" x2="29.42" y2="10.48">
<stop stop-color="#ADCCED" offset="0"/>
<stop stop-color="#6385AD" offset="1"/>
</linearGradient>
<path d="M52.226,7.482c-0.243-0.252-0.529-0.377-0.878-0.377H7.866c-0.694,0-1.259,0.564-1.259,1.259 v35.481c0,0.346,0.143,0.652,0.372,0.873c0.003,0.013,0.628-0.628,0.628-0.628V8.105h43.999L52.226,7.482z" fill="url(#_7)"/>
<linearGradient id="_8" gradientUnits="userSpaceOnUse" x1="29.8" y1="40.36" x2="29.8" y2="0.89">
<stop stop-color="#DBF5FF" offset="0"/>
<stop stop-color="#5985B0" offset="1"/>
</linearGradient>
<path d="M6.989,44.728c0.243,0.252,0.529,0.377,0.878,0.377h43.481c0.694,0,1.259-0.564,1.259-1.259V8.364 c0-0.346-0.143-0.652-0.372-0.873c-0.003-0.013-0.628,0.628-0.628,0.628s0,35.206,0,35.985c-0.738,0-43.999,0-43.999,0 L6.989,44.728z" fill="url(#_8)"/>
<path d="M20.024,23.564l2.667,2.666c0,0,5.041-5.041,6.916-6.916c1.875,1.875,6.917,6.916,6.917,6.916 l2.667-2.666l-9.584-9.584L20.024,23.564z" fill="#496DA2"/>
<path d="M20.024,33.564l2.667,2.666c0,0,5.041-5.041,6.916-6.916c1.875,1.875,6.917,6.916,6.917,6.916 l2.667-2.666l-9.584-9.584L20.024,33.564z" fill="#496DA2"/>
</svg>