<?xml version="1.0" encoding="UTF-8"?>
<!DOCTYPE svg PUBLIC "-//W3C//DTD SVG 1.1 Tiny//EN" "http://www.w3.org/Graphics/SVG/1.1/DTD/svg11-tiny.dtd">
<svg width="100%" height="100%" viewBox="0 0 88 87.999">
<linearGradient id="_16" gradientUnits="userSpaceOnUse" x1="41.41" y1="46.37" x2="60.1" y2="83.2">
<stop stop-color="#A2C2DD" offset="0.1"/>
<stop stop-color="#6C83BB" offset="0.71"/>
<stop stop-color="#003D6D" offset="0.99"/>
</linearGradient>
<path fill="url(#_16)" d="M14.782,14.102l0.419,25.046c0,0,10.81,18.27,11.427,19.313 c-0.969,0.692-13.906,9.933-13.906,9.933l0.646,2.664l18.915,11.955c0,0,14.669-11.693,15.383-12.262 c0.788,0.459,16.942,9.882,16.942,9.882L78.644,66.96l0.838-2.777c0,0-14.687-7.232-15.851-7.806 c0.594-1.191,11.599-23.299,11.599-23.299l-19.77-8.493l-2.616-0.014c0,0-1.665,3.554-2.1,4.48 c-1.053-0.452-7.451-3.203-7.451-3.203s-5.607,3.719-6.737,4.468c-0.434-0.987-1.388-3.156-1.48-3.367 c0.003-0.296,0.199-22.093,0.199-22.093l-2.368-0.747L14.782,14.102z"/>
<polygon fill="#DEE9F3" points="16.978,15.305 34.569,5.39 32.981,4.889 15.489,14.532 "/>
<linearGradient id="_17" gradientUnits="userSpaceOnUse" x1="-0.49" y1="-3.12" x2="34.76" y2="59.88">
<stop stop-color="#FFFFFF" offset="0"/>
<stop stop-color="#A2C2DD" offset="0.35"/>
<stop stop-color="#6C83BB" offset="0.7"/>
<stop stop-color="#003D6D" offset="1"/>
</linearGradient>
<polygon fill="url(#_17)" points="15.489,14.532 16.978,15.305 16.978,37.837 28.646,57.901 27.731,58.972 15.898,38.972 "/>
<linearGradient id="_18" gradientUnits="userSpaceOnUse" x1="57.37" y1="70.84" x2="54.65" y2="77.04">
<stop stop-color="#FFFFFF" offset="0"/>
<stop stop-color="#A2C2DD" offset="0.35"/>
<stop stop-color="#6C83BB" offset="0.7"/>
<stop stop-color="#003D6D" offset="1"/>
</linearGradient>
<polygon fill="url(#_18)" points="47.619,67.877 47.604,69.926 64.501,79.781 64.547,77.367 "/>
<linearGradient id="_19" gradientUnits="userSpaceOnUse" x1="24.4" y1="71.96" x2="21.23" y2="79.19">
<stop stop-color="#FFFFFF" offset="0"/>
<stop stop-color="#A2C2DD" offset="0.35"/>
<stop stop-color="#6C83BB" offset="0.7"/>
<stop stop-color="#003D6D" offset="1"/>
</linearGradient>
<polygon fill="url(#_19)" points="13.514,68.71 13.981,70.639 32.236,82.177 32.195,79.647 "/>
<linearGradient id="_20" gradientUnits="userSpaceOnUse" x1="59.76" y1="51.68" x2="28.1" y2="88.52">
<stop stop-color="#FFFFFF" offset="0"/>
<stop stop-color="#A2C2DD" offset="0.35"/>
<stop stop-color="#6C83BB" offset="0.7"/>
<stop stop-color="#003D6D" offset="1"/>
</linearGradient>
<polygon fill="url(#_20)" points="47.648,67.556 32.195,79.647 32.236,82.177 47.604,69.926 "/>
<linearGradient id="_21" gradientUnits="userSpaceOnUse" x1="87.87" y1="51.82" x2="62.37" y2="82.82">
<stop stop-color="#FFFFFF" offset="0"/>
<stop stop-color="#A2C2DD" offset="0.35"/>
<stop stop-color="#6C83BB" offset="0.7"/>
<stop stop-color="#003D6D" offset="1"/>
</linearGradient>
<polygon fill="url(#_21)" points="64.547,77.367 64.501,79.781 78.025,66.606 78.64,64.57 "/>
<polygon fill="#DEE9F3" points="53.288,25.295 72.81,33.691 74.272,33.45 55.314,25.306 "/>
<linearGradient id="_22" gradientUnits="userSpaceOnUse" x1="75.59" y1="23.97" x2="64.84" y2="53.71">
<stop stop-color="#FFFFFF" offset="0"/>
<stop stop-color="#A2C2DD" offset="0.35"/>
<stop stop-color="#6C83BB" offset="0.7"/>
<stop stop-color="#003D6D" offset="1"/>
</linearGradient>
<polygon fill="url(#_22)" points="61.8,56.276 72.81,33.691 74.272,33.45 62.148,57.806 "/>
<linearGradient id="_23" gradientUnits="userSpaceOnUse" x1="67.84" y1="23.52" x2="51.59" y2="50.77">
<stop stop-color="#FFFFFF" offset="0"/>
<stop stop-color="#A2C2DD" offset="0.35"/>
<stop stop-color="#6C83BB" offset="0.7"/>
<stop stop-color="#003D6D" offset="1"/>
</linearGradient>
<polygon fill="url(#_23)" points="43.119,46.996 53.288,25.295 72.81,33.691 61.8,56.276 "/>
<linearGradient id="_24" gradientUnits="userSpaceOnUse" x1="29.78" y1="22.17" x2="30.28" y2="59.92">
<stop stop-color="#FFFFFF" offset="0"/>
<stop stop-color="#A2C2DD" offset="0.35"/>
<stop stop-color="#6C83BB" offset="0.7"/>
<stop stop-color="#003D6D" offset="1"/>
</linearGradient>
<polygon fill="url(#_24)" points="16.978,37.837 28.646,57.901 43.119,46.996 34.374,27.115 "/>
<linearGradient id="_25" gradientUnits="userSpaceOnUse" x1="31.42" y1="-8.69" x2="14.42" y2="79.81">
<stop stop-color="#FFFFFF" offset="0"/>
<stop stop-color="#A2C2DD" offset="0.35"/>
<stop stop-color="#6C83BB" offset="0.7"/>
<stop stop-color="#003D6D" offset="1"/>
</linearGradient>
<polygon fill="url(#_25)" points="16.978,37.837 16.978,15.305 34.569,5.39 34.374,27.115 "/>
<linearGradient id="_26" gradientUnits="userSpaceOnUse" x1="33.19" y1="86.83" x2="29.44" y2="60.33">
<stop stop-color="#FFFFFF" offset="0.05"/>
<stop stop-color="#A2C2DD" offset="1"/>
</linearGradient>
<polygon fill="url(#_26)" points="13.514,68.71 28.646,57.901 47.619,67.877 32.195,79.647 "/>
<linearGradient id="_27" gradientUnits="userSpaceOnUse" x1="66.07" y1="82.68" x2="59.32" y2="44.93">
<stop stop-color="#FFFFFF" offset="0"/>
<stop stop-color="#A2C2DD" offset="0.35"/>
<stop stop-color="#6C83BB" offset="0.7"/>
<stop stop-color="#003D6D" offset="1"/>
</linearGradient>
<polygon fill="url(#_27)" points="64.547,77.367 47.619,67.877 61.8,56.276 78.64,64.57 "/>
<linearGradient id="_28" gradientUnits="userSpaceOnUse" x1="27.83" y1="36.39" x2="62.3" y2="36.39">
<stop stop-color="#DCE8E4" offset="0"/>
<stop stop-color="#43910A" offset="1"/>
</linearGradient>
<polygon fill="url(#_28)" points="27.827,36.966 43.364,26.663 62.296,34.801 47.619,46.126 "/>
<polygon fill="#58A015" points="27.827,36.966 28.646,57.901 47.619,67.877 47.619,46.126 "/>
<linearGradient id="_29" gradientUnits="userSpaceOnUse" x1="21.36" y1="69.32" x2="45.36" y2="57.07">
<stop stop-color="#DCE8E4" offset="0"/>
<stop stop-color="#43910A" offset="1"/>
</linearGradient>
<polygon fill="url(#_29)" points="45.391,45.094 28.646,57.901 47.619,67.877 "/>
<polygon fill="#17594C" points="47.619,46.126 47.619,67.877 61.8,56.276 62.296,34.801 "/>
<linearGradient id="_30" gradientUnits="userSpaceOnUse" x1="75.06" y1="68.69" x2="46.06" y2="57.69">
<stop stop-color="#E6EEF4" offset="0"/>
<stop stop-color="#C6DCC1" offset="0.08"/>
<stop stop-color="#91C06F" offset="0.21"/>
<stop stop-color="#6BAB33" offset="0.32"/>
<stop stop-color="#539E0E" offset="0.4"/>
<stop stop-color="#4A9900" offset="0.44"/>
<stop stop-color="#418E0D" offset="0.51"/>
<stop stop-color="#2A712F" offset="0.69"/>
<stop stop-color="#1C5F44" offset="0.84"/>
<stop stop-color="#17594C" offset="0.94"/>
</linearGradient>
<polygon fill="url(#_30)" points="48.083,48.856 47.619,67.877 61.8,56.276 "/>
</svg>