<?xml version="1.0" encoding="UTF-8"?>
<!DOCTYPE svg PUBLIC "-//W3C//DTD SVG 1.1 Tiny//EN" "http://www.w3.org/Graphics/SVG/1.1/DTD/svg11-tiny.dtd">
<svg baseProfile="tiny" height="36px" version="1.1" viewBox="0 0 42 36" width="42px" x="0px" xmlns="http://www.w3.org/2000/svg" xmlns:xlink="http://www.w3.org/1999/xlink" y="0px">
<g>
<radialGradient cx="23.5088" cy="9.4844" fx="23.073" fy="8.4038" gradientUnits="userSpaceOnUse" id="SVGID_1_" r="24.351">
<stop offset="0" style="stop-color:#FFFFFF"/>
<stop offset="0.5337" style="stop-color:#A2C2DD"/>
<stop offset="0.8652" style="stop-color:#6C83BB"/>
<stop offset="1" style="stop-color:#003D6D"/>
</radialGradient>
<path d="M24,18h10.071c0-0.01,0.002-0.02,0.002-0.029c0-7.27-5.893-13.162-13.161-13.162   S7.751,10.701,7.751,17.971c0,7.268,5.893,13.16,13.161,13.16c1.065,0,2.096-0.141,3.088-0.379V18z" fill="url(#SVGID_1_)"/>
<radialGradient cx="-192.8647" cy="-18.4194" gradientTransform="matrix(1 0 0 -1 214.52 -2.0195)" gradientUnits="userSpaceOnUse" id="SVGID_2_" r="20.3689">
<stop offset="0" style="stop-color:#A2C2DD"/>
<stop offset="0.1" style="stop-color:#A2C2DD"/>
<stop offset="0.7135" style="stop-color:#6C83BB"/>
<stop offset="0.9888" style="stop-color:#003D6D"/>
<stop offset="1" style="stop-color:#003D6D"/>
</radialGradient>
<path d="M14.297,6.572c-0.599,0.356-2.199,1.489-2.221,1.934c-0.021,0.443,0.459-0.521,0.912-0.357   c0.088,0,0.64-0.773,1.665-1.266c0.445-0.422,1.246-0.178,1.246-0.178s2.376-0.888,2.243-0.666   c-0.362,0.606-2.267,0.955-2.556,1.088c-0.289,0.134-1.888,1.201-0.555,0.778c0.245-0.022,0.933-0.044,1.267,0.068   c0.335,0.11,0.878-0.473,1.533-0.335c0.268-0.135,0.801-0.422,0.934-0.422s0.623-0.045,0.6-0.621c0,0,0.358-0.814,0.467-1.135   c0.299-0.082,0.644-0.555,0.644-0.555c-0.932-0.133-3.177,0.468-3.509,0.555C16.896,5.527,15.008,6.396,14.297,6.572z" fill="url(#SVGID_2_)"/>
<radialGradient cx="-191.5342" cy="-15.1846" gradientTransform="matrix(1 0 0 -1 214.52 -2.0195)" gradientUnits="userSpaceOnUse" id="SVGID_3_" r="14.9198">
<stop offset="0" style="stop-color:#A2C2DD"/>
<stop offset="0.1" style="stop-color:#A2C2DD"/>
<stop offset="0.7135" style="stop-color:#6C83BB"/>
<stop offset="0.9888" style="stop-color:#003D6D"/>
<stop offset="1" style="stop-color:#003D6D"/>
</radialGradient>
<path d="M21.697,27.059l-0.445,0.313c0,0-0.41,0.006-0.467,0.178c-0.201,0.615-0.133,1.441,0.354,1.332   c0.49-0.113,0.623-0.846,0.623-0.846S22.252,26.947,21.697,27.059z" fill="url(#SVGID_3_)"/>
<radialGradient cx="-192.6982" cy="742.9375" fx="-192.2766" fy="742.8828" gradientTransform="matrix(1 0 0 1 214.52 -734.0195)" gradientUnits="userSpaceOnUse" id="SVGID_4_" r="20.4112">
<stop offset="0" style="stop-color:#E6EEF4"/>
<stop offset="0.4438" style="stop-color:#4A9900"/>
<stop offset="0.9382" style="stop-color:#0E4E58"/>
<stop offset="1" style="stop-color:#0E4E58"/>
</radialGradient>
<path d="M27.585,6.861l0.688,1.49l1.599,0.576c0,0,0.401,0.488,0.534,0.6   c0.199,0.889,0.645,1.844,0.732,1.888c0.089,0.044,0.489,0.177,0.623,0.155c0.088,0.49-0.045,0.49-0.045,0.49l-0.644-0.312   l0.265,1.09l1.244,2.11c-0.155,0.334-0.756,2.311-0.756,2.311s0.327,0.299,0.527,0.722C31.25,17.981,24,18,24,18   s-0.04,0.334-0.04,0.77c-0.39,0.043-0.726,0.098-0.666,0.158c0.89,0.621,0.534,1.066,0.534,1.066l-1.401,1.244   c0,0-1.177,0.533-1.532,0.621c-0.644,0.4,0.066,0.557,0.777,0.379s0.645,0.111,0.533,0.4c-0.401,0.977-1.11,1.598-1.578,1.777   c-0.976,0.689-1.2,1.711-0.733,2.133c0,0,0.045,1-0.289,1.021c-0.333,0.023-0.8,0.379-0.8,0.533c0,0.156-0.354,0.801-0.489,0.91   c-0.467,0.6-1.067,0.533-1.334,0.4c-1.223,0.24-2.243-1.732-2.31-1.91c-0.066-0.178-0.955-0.621-0.666-1.422   c0.287-0.801-1.069-2.783-1.779-4.51c-0.091-0.078-1.044-0.313-1.554-0.467c-0.511-0.156-0.734-1.377-0.956-1.889   s0.378-2.488,0.4-2.623c0.022-0.133,2.511-1.932,2.511-1.932l-0.091-0.779c0,0,0.802-1.088,0.954-0.732   c0.156,0.355,0.936,0.287,0.867-0.222c-0.067-0.511,0.113-0.757,0.311-0.778c0.2-0.023,0.023-0.443-0.221-0.756   c-0.244-0.311,0.377-0.4,0.779-0.777c0.401-0.379,0.111,0.822,0.111,1.222s1.355-0.667,1.421-0.733   c-0.155-0.777,0.468-0.978,0.645-1c0.178-0.022,0.979-0.489,1.178-0.69c0.199-0.198,0.756-0.198,0.934-0.177   c0.177,0.021,0.976,0.666,1.177,0.666c0.2,0,1.777-0.422,1.823-0.711c0.044-0.289,0.199-0.445,0.489-0.555   c0.288-0.111,0.333-1.046,0.333-1.046s1.333-0.31,1.532-0.377c0.2-0.067,0.022-0.466-0.043-0.644   c0.243-0.533-1.023-1.057-0.557-1.023C26.095,5.684,27.384,6.55,27.585,6.861z M12.831,14.727l0.178,0.223   c0,0,0.918,0.094,1.827,0.447c0.138,0.139-0.028,0.797-0.028,0.797s0.977,1.332,1.177,1.09c0.199-0.246,0.466-0.469,0.777-0.246   c0.312,0.222,1.067,0.488,1.445,0.488c0.157,0.045,0.932,0.289,0.91-0.887c-0.305-0.424-1.088-0.355-1.222-0.467   c-0.133-0.112-0.399-0.912-0.399-0.912l-0.267,0.067c0,0-0.044,0.556-0.199,0.556c-0.156,0-0.49-0.844-0.49-0.844l0.046-0.445   l-0.511-0.62c0,0-0.334,0.154,0.311,0.977c0,0-0.446,0.466-0.777,0.487c0.089-0.11,0.29-0.621,0.29-0.621s-1.016-1.257-1.223-1.088   c-0.243,0.199-0.955,0.576-0.955,0.576l-0.467,0.4L12.831,14.727z M18.208,10.594c-0.478,0.771-1.173,0.99-1.112,1.266   c0.025,0.113,0.691,0.268,0.8-0.043c0.113-0.313,0.512-0.379,0.512-0.512S18.27,10.494,18.208,10.594z M19.119,14.394   c-0.11-0.045-0.333-0.444-0.6-0.157c-0.266,0.289-0.6,0.934-0.266,0.979c0.333,0.045,0.822-0.133,0.932-0.045   c0.113,0.09,0.963,0.439,1.091,0C20.493,14.426,19.119,14.394,19.119,14.394z M18.674,18.415c-0.01,0.136,0.556,1.468,0.556,1.468   s-0.046,0.443,0.067,0.6c0.112,0.156,0.51,0.977,0.955,1.111c0.641-0.74-0.599-1.711-0.599-1.711l-0.046-0.379   C19.607,19.504,18.719,17.793,18.674,18.415z M21.651,18.016l0.022,0.377l0.801,0.889c0,0,0.734-0.066,0.6-0.598L22.43,18.46   L21.651,18.016z" fill="url(#SVGID_4_)"/>
<g>
<rect fill="#FFFFFF" height="12.566" width="10.566" x="24.999" y="19.001"/>
<rect fill="none" height="0.959" width="0.959" x="33.646" y="22.921"/>
<rect fill="none" height="0.959" width="0.961" x="33.644" y="24.843"/>
<rect fill="none" height="0.959" width="0.961" x="33.644" y="20.999"/>
<rect fill="none" height="0.959" width="0.96" x="25.961" y="20.999"/>
<rect fill="none" height="0.961" width="0.959" x="33.646" y="26.761"/>
<rect fill="none" height="0.959" width="0.96" x="25.961" y="28.685"/>
<rect fill="none" height="0.959" width="0.961" x="33.644" y="28.685"/>
<rect fill="none" height="0.959" width="0.96" x="25.961" y="22.921"/>
<rect fill="none" height="0.959" width="0.961" x="25.96" y="24.841"/>
<rect fill="none" height="0.959" width="0.961" x="25.96" y="26.763"/>
<polygon fill="#A2C2DD" points="32.683,31.571 32.683,19.005 27.882,19.005 27.882,31.53   "/>
<path d="M34.604,18.997v1.041h-0.959v-1.041h-0.961v0.008v2.953h-4.803v-2.953v-0.008h-0.961v1.041h-0.96v-1.041    h-0.962v12.566h0.962v-0.959h0.959v0.959h0.961V31.55v-2.867h4.802v2.867v0.016h0.961v-0.959h0.959v0.959h0.963V18.997H34.604z     M33.646,26.761h0.959v0.961h-0.959V26.761z M34.604,23.88h-0.959v-0.959h0.959V23.88z M34.604,24.841v0.961h-0.959v-0.961H34.604    z M34.604,20.999v0.959h-0.959v-0.959H34.604z M27.882,22.921h4.803v4.803h-4.803V22.921z M26.921,20.999v0.959h-0.96v-0.959    H26.921z M25.961,25.802v-0.961h0.959v0.961H25.961L25.961,25.802z M26.921,26.761v0.961h-0.96v-0.961H26.921z M25.961,23.88    v-0.959h0.959v0.959H25.961z M25.961,29.644v-0.961h0.959v0.961H25.961z M33.646,29.644v-0.961h0.959v0.961H33.646z" fill="#496DA2"/>
</g>
<path d="M24,30.703c-0.992,0.241-2.023,0.383-3.088,0.383c-7.231,0-13.115-5.883-13.115-13.115   S13.68,4.854,20.912,4.854c7.231,0,13.116,5.884,13.116,13.116c0,0.01-0.002,0.02-0.002,0.029h0.354c0-0.01,0.002-0.02,0.002-0.029   c0-7.428-6.042-13.47-13.469-13.47c-7.427,0-13.469,6.042-13.469,13.47s6.042,13.469,13.469,13.469   c1.064,0,2.095-0.137,3.088-0.371V30.703z" fill="url(#SVGID_5_)"/>
<rect fill="none" height="36" width="42"/>
<defs>
<linearGradient gradientUnits="userSpaceOnUse" id="SVGID_5_" x1="11.2627" x2="30.2624" y1="8.3218" y2="27.321">
<stop offset="0" style="stop-color:#A2C2DD"/>
<stop offset="0.1" style="stop-color:#A2C2DD"/>
<stop offset="0.7135" style="stop-color:#6C83BB"/>
<stop offset="0.9888" style="stop-color:#003D6D"/>
<stop offset="1" style="stop-color:#003D6D"/>
</linearGradient>
</defs>
</g>
</svg>
