<?xml version="1.0" encoding="UTF-8"?>
<!DOCTYPE svg PUBLIC "-//W3C//DTD SVG 1.1 Tiny//EN" "http://www.w3.org/Graphics/SVG/1.1/DTD/svg11-tiny.dtd">
<svg width="84" height="58" viewBox="0 0 84 58">
<linearGradient id="_11" gradientUnits="userSpaceOnUse" x1="64.51" y1="36.54" x2="72.13" y2="51.57">
<stop stop-color="#A2C2DD" offset="0.1"/>
<stop stop-color="#6C83BB" offset="0.71"/>
<stop stop-color="#003D6D" offset="0.99"/>
</linearGradient>
<path fill="url(#_11)" d="M62.188,21.006c2.146,1.424,1.988,2.455-1.474,6.562c-9.004,9.586-2.464,26.438,5.945,26.665 l0.747-2.445c-1.32-0.324-3.58-3.014-3.25-5.031c0.189-1.694,3.813-7.443,4.865-10.004c4.482-9.204-0.646-17.246-3.723-18.173 l-2.464-0.198L62.188,21.006z"/>
<linearGradient id="_12" gradientUnits="userSpaceOnUse" x1="31.9" y1="28.03" x2="42.29" y2="48.49">
<stop stop-color="#A2C2DD" offset="0.1"/>
<stop stop-color="#6C83BB" offset="0.71"/>
<stop stop-color="#003D6D" offset="0.99"/>
</linearGradient>
<path fill="url(#_12)" d="M29.1,6.521c2.67,1.947,2.311,3.676-1.992,9.294C14.584,30.49,25.5,52.569,34.498,52.291 l0.863-3.06c-1.643-0.444-4.59-4.335-4.182-7.095c0.237-2.317,4.945-10.256,6.255-13.759 c5.981-13.517-1.226-23.934-4.628-24.859l-3.063-0.271L29.1,6.521z"/>
<linearGradient id="_13" gradientUnits="userSpaceOnUse" x1="48.9" y1="32.68" x2="57.85" y2="50.29">
<stop stop-color="#A2C2DD" offset="0.1"/>
<stop stop-color="#6C83BB" offset="0.71"/>
<stop stop-color="#003D6D" offset="0.99"/>
</linearGradient>
<path fill="url(#_13)" d="M46.382,14.191c2.442,1.669,2.113,3.153-1.821,7.975c-11.453,12.595-1.471,31.543,6.758,31.303 l0.791-2.625c-1.502-0.381-4.199-3.721-3.824-6.089c0.217-1.989,4.521-8.802,5.72-11.808c5.47-11.6-1.122-20.538-4.232-21.333 l-2.801-0.233L46.382,14.191z"/>
<linearGradient id="_14" gradientUnits="userSpaceOnUse" x1="31.61" y1="8.56" x2="27.04" y2="49.97">
<stop stop-color="#A2C2DD" offset="0"/>
<stop stop-color="#FFFFFF" offset="0.5"/>
<stop stop-color="#6C8EB7" offset="1"/>
</linearGradient>
<path fill="url(#_14)" d="M32.072,6.436l-2.199-0.221c4.346,3.133-1.021,8.085-4.141,12.638 c-3.451,5.034-4.32,12.066-3.063,17.676C25.914,51,33.979,51.554,33.979,51.554c-7.408-2.062-8.152-12.512-6.682-18.811 c1.131-4.855,6.549-15.395,6.549-15.395C35.584,12.551,35.121,8.881,32.072,6.436z"/>
<linearGradient id="_15" gradientUnits="userSpaceOnUse" x1="23.58" y1="26.09" x2="39.7" y2="29.06">
<stop stop-color="#FFFFFF" offset="0"/>
<stop stop-color="#A2C2DD" offset="0.35"/>
<stop stop-color="#6C83BB" offset="0.7"/>
<stop stop-color="#003D6D" offset="1"/>
</linearGradient>
<path fill="url(#_15)" d="M32.633,4.206c3.459,1.503,5.465,6.881,5.943,9.484c0.52,3.735,1.197,7.316-1.787,14.416 c-2.756,6.556-5.48,10.17-6.293,13.881c-0.629,2.88,2.625,7.115,4.02,7.665l-0.537,1.901 c-6.219-1.424-7.957-8.008-7.627-14.282c0.27-5.208,1.656-7.591,4.475-13.984c2.357-5.359,3.471-7.505,3.74-10.417 c0.246-2.632-1.17-5.043-2.496-6.436L32.633,4.206z"/>
<linearGradient id="_16" gradientUnits="userSpaceOnUse" x1="48.49" y1="15.99" x2="44.58" y2="51.39">
<stop stop-color="#5DA6B1" offset="0"/>
<stop stop-color="#BFDAE1" offset="0.5"/>
<stop stop-color="#115B7E" offset="1"/>
</linearGradient>
<path fill="url(#_16)" d="M49.061,14.194l-1.977-0.188c3.91,2.676-0.92,6.912-3.729,10.803 c-3.105,4.306-3.889,10.317-2.756,15.115c2.922,12.372,10.18,12.847,10.18,12.847c-6.67-1.763-7.338-10.695-6.016-16.083 c1.02-4.151,5.895-13.163,5.895-13.163C52.223,19.424,51.807,16.286,49.061,14.194z"/>
<linearGradient id="_17" gradientUnits="userSpaceOnUse" x1="40.43" y1="27.94" x2="59.25" y2="37.06">
<stop stop-color="#E6EEF4" offset="0"/>
<stop stop-color="#2F8E9A" offset="0.44"/>
<stop stop-color="#003D6D" offset="0.94"/>
</linearGradient>
<path fill="url(#_17)" d="M49.566,12.288c3.113,1.286,4.918,5.883,5.35,8.108c0.467,3.195,1.078,6.255-1.607,12.325 c-2.482,5.606-4.934,8.695-5.666,11.869c-0.564,2.461,2.361,6.085,3.619,6.554l-0.482,1.626 c-5.598-1.217-7.162-6.846-6.867-12.211c0.242-4.454,1.494-6.492,4.029-11.958c2.123-4.581,3.125-6.414,3.367-8.904 c0.219-2.252-1.053-4.312-2.246-5.503L49.566,12.288z"/>
<polyline fill="#BFDAE1" points="49.566,12.288 47.477,12.112 47.084,14.007 49.061,14.194 49.555,12.348 "/>
<linearGradient id="_18" gradientUnits="userSpaceOnUse" x1="64.18" y1="22.43" x2="60.87" y2="52.39">
<stop stop-color="#58A015" offset="0"/>
<stop stop-color="#C8DEC5" offset="0.5"/>
<stop stop-color="#17594C" offset="1"/>
</linearGradient>
<path fill="url(#_18)" d="M64.691,20.91L63,20.75c3.342,2.266-0.787,5.852-3.188,9.145 c-2.656,3.645-3.324,8.732-2.357,12.794c2.498,10.474,8.703,10.874,8.703,10.874c-5.703-1.49-6.273-9.055-5.141-13.615 c0.869-3.511,5.039-11.14,5.039-11.14C67.395,25.338,67.039,22.679,64.691,20.91z"/>
<linearGradient id="_19" gradientUnits="userSpaceOnUse" x1="54.72" y1="31.26" x2="73.12" y2="40.17">
<stop stop-color="#E6EEF4" offset="0"/>
<stop stop-color="#4A9900" offset="0.44"/>
<stop stop-color="#0E4E58" offset="0.94"/>
</linearGradient>
<path fill="url(#_19)" d="M65.121,19.297c2.664,1.085,4.207,4.979,4.576,6.861c0.396,2.705,0.92,5.295-1.379,10.435 c-2.117,4.744-4.215,7.361-4.842,10.049c-0.482,2.081,2.02,5.147,3.094,5.546l-0.412,1.377 c-4.785-1.03-6.123-5.796-5.871-10.336c0.209-3.771,1.277-5.494,3.445-10.122c1.814-3.879,2.67-5.43,2.879-7.539 c0.188-1.904-0.902-3.647-1.922-4.655L65.121,19.297z"/>
<polyline fill="#C8DEC5" points="65.121,19.297 63.334,19.148 62.998,20.75 64.691,20.91 65.111,19.347 "/>
<polyline fill="#B9D9EA" points="32.633,4.206 30.309,4 29.873,6.215 32.072,6.436 32.619,4.274 "/>
<path fill="#FFFFFF" d="M13.707,34.499c-2.773,0-6.578,0.658-7.541,6.354L6.021,41.71c0,0,6.393,0,7.15,0 c0.23,0.412,0.57,1.027,0.787,1.423c-0.215,0.391-0.555,1.006-0.785,1.418c-0.758,0-7.15,0-7.15,0l0.145,0.858 c0.963,5.694,4.766,6.353,7.539,6.353c2.189,0,4.141-1.834,5.705-3.312c0.848-0.799,1.646-1.549,2.068-1.549h19.582l0.219-0.24 c0.42-0.463,1.395-1.728,1.418-3.5v-0.063c-0.021-1.772-0.998-3.037-1.418-3.498l-0.219-0.239H21.48 c-0.422,0-1.223-0.752-2.066-1.548C17.846,36.335,15.896,34.499,13.707,34.499z"/>
<linearGradient id="_20" gradientUnits="userSpaceOnUse" x1="12.37" y1="29.87" x2="33.48" y2="55.27">
<stop stop-color="#E6EEF4" offset="0"/>
<stop stop-color="#9646AC" offset="0.44"/>
<stop stop-color="#3D013F" offset="0.94"/>
</linearGradient>
<path fill="url(#_20)" d="M41.965,43.133c0-0.009,0.004-0.019,0.004-0.023h-0.006c-0.018-1.543-0.9-2.656-1.229-3.012 c-0.412,0-19.254,0-19.254,0c-0.717,0-1.494-0.734-2.574-1.748c-1.471-1.388-3.301-3.112-5.199-3.112 c-3.08,0-5.996,0.903-6.811,5.737c1.156,0,6.713,0,6.713,0l1.193,2.156l-1.193,2.154c0,0-5.557,0-6.713,0 c0.813,4.835,3.729,5.738,6.811,5.738c1.898,0,3.729-1.725,5.199-3.111c1.08-1.014,1.857-1.748,2.574-1.748 c0,0,18.842,0,19.254,0c0.324-0.354,1.211-1.469,1.229-3.012h0.004C41.969,43.145,41.965,43.139,41.965,43.133z"/>
</svg>