<?xml version="1.0" encoding="UTF-8"?>
<!DOCTYPE svg PUBLIC "-//W3C//DTD SVG 1.1 Tiny//EN" "http://www.w3.org/Graphics/SVG/1.1/DTD/svg11-tiny.dtd">
<svg baseProfile="tiny" height="60" version="1.1" viewBox="0 0 60 60" width="60" xmlns="http://www.w3.org/2000/svg" xmlns:xlink="http://www.w3.org/1999/xlink">
<path d="M32.286,17.273v-1.874h-1.646c1.416-0.755,2.396-2.23,2.396-3.947c0-2.479-2.019-4.495-4.495-4.495  c-1.896,0-3.516,1.187-4.174,2.853c-0.198-1.006-0.693-1.934-1.436-2.674C21.941,6.144,20.625,5.6,19.226,5.6  c-1.401,0-2.719,0.543-3.707,1.536c-0.988,0.988-1.535,2.306-1.535,3.707c0,0.11,0.013,0.214,0.022,0.321  c0.791-0.172,1.536-0.241,2.231-0.237c0-0.028-0.008-0.056-0.008-0.084c0-0.801,0.31-1.554,0.878-2.12  c0.565-0.565,1.317-0.876,2.118-0.876c0.799,0,1.553,0.311,2.12,0.876c0.565,0.566,0.875,1.319,0.875,2.12  c0,0.801-0.31,1.552-0.875,2.119c-0.012,0.009-0.023,0.016-0.035,0.025c0.27,0.276,0.543,0.589,0.804,0.983  c0.196,0.288,0.33,0.605,0.432,0.905c0.132-0.104,0.266-0.206,0.386-0.326c0.587-0.587,0.996-1.293,1.247-2.06  c0.305,1.266,1.141,2.313,2.261,2.908h-3.741c0.038,0.145,0.06,0.273,0.078,0.376l0.011,0.086l0.026,0.276l-0.011,0.194  c-0.031,0.465-0.153,0.9-0.334,1.314h7.57v6.227H18.338v-2.1c-0.801,0.436-1.553,0.645-2.248,0.633v3.716h16.196v-2.402h3.932  v-7.581L32.286,17.273z M28.541,13.699c-1.238,0-2.247-1.009-2.247-2.247c0-1.239,1.009-2.247,2.247-2.247  c1.24,0,2.249,1.008,2.249,2.247C30.79,12.69,29.781,13.699,28.541,13.699 M33.971,21.468h-1.686v-1.856  c0.473-0.14,1.1-0.317,1.686-0.487V21.468z"/>
<polygon points="38.836,34.852 34.654,30.66 36.872,30.662 36.872,28.019 30.032,28.019 30.032,34.719 32.665,34.719 32.672,32.439   36.958,36.734 "/>
<path d="M52.424,34.001c-0.852-0.653-6.566-2.549-13.27,4.09l-0.084,0.082c-6.639,6.704-4.743,12.421-4.092,13.271  c0.475,0.623,1.01,1.322,1.92,1.934c0.224,0.137,0.647,0.309,1.104,0.299s1.5-0.689,2.81-2.119c1.311-1.434,1.862-2.584,1.985-3.125  l0.069-0.311l-0.206-0.24c-0.129-0.156-0.283-0.301-0.466-0.443c-0.771-0.617-2.387-0.713-2.405-0.711l-0.247-0.017l-0.12-0.22  c-0.051-0.092-1.229-2.361,2.162-5.885c3.521-3.393,5.79-2.211,5.881-2.16l0.222,0.119l0.016,0.25c0,0.018,0.094,1.631,0.713,2.404  c0.143,0.184,0.289,0.334,0.441,0.465l0.242,0.205l0.309-0.072c0.541-0.121,1.695-0.674,3.126-1.983s2.11-2.353,2.12-2.808  c0.01-0.457-0.162-0.883-0.299-1.106C53.745,35.01,53.044,34.473,52.424,34.001z" fill="#47C30E"/>
<path d="M18.929,14.071c-0.67-0.515-5.175-2.008-10.459,3.225L8.405,17.36c-5.232,5.284-3.739,9.789-3.225,10.46  c0.374,0.489,0.796,1.04,1.513,1.521c0.177,0.108,0.511,0.244,0.872,0.236c0.36-0.008,1.182-0.543,2.213-1.67  c1.034-1.129,1.469-2.037,1.566-2.464l0.055-0.243l-0.163-0.189c-0.102-0.124-0.224-0.237-0.366-0.35  c-0.608-0.487-1.882-0.563-1.896-0.562l-0.195-0.013l-0.096-0.174c-0.039-0.071-0.968-1.86,1.707-4.636  c2.774-2.675,4.563-1.744,4.634-1.704l0.174,0.095l0.012,0.196c0,0.014,0.075,1.285,0.562,1.896c0.113,0.144,0.229,0.263,0.35,0.366  l0.19,0.162l0.243-0.058c0.427-0.096,1.336-0.53,2.463-1.563c1.128-1.032,1.663-1.855,1.673-2.214  c0.006-0.361-0.129-0.695-0.238-0.871C19.969,14.867,19.419,14.444,18.929,14.071z" fill="#47C30E"/>
<rect fill="none" height="60" width="60"/>
</svg>
