<?xml version="1.0" encoding="UTF-8"?>
<!DOCTYPE svg PUBLIC "-//W3C//DTD SVG 1.1 Tiny//EN" "http://www.w3.org/Graphics/SVG/1.1/DTD/svg11-tiny.dtd">
<svg width="84" height="58" viewBox="0 0 84 58">
<linearGradient id="_24" gradientUnits="userSpaceOnUse" x1="35.14" y1="6.39" x2="15.47" y2="35.2">
<stop stop-color="#A2C2DD" offset="0.1"/>
<stop stop-color="#6C83BB" offset="0.71"/>
<stop stop-color="#003D6D" offset="0.99"/>
</linearGradient>
<path fill="url(#_24)" d="M27.691,9.333c-8.63,3.226-17.034,9.366-17.034,15.963c0.213,4.915,3.53,10.465,8.25,12.719 l-0.479-3.623c0,0-0.724-0.629-0.81-0.885c-0.188-0.758-0.285-1.484-0.285-2.174c0-5.745,6.097-9.069,11.15-11.158 c0.01,0.183,0.051,0.973,0.051,0.973L46.199,9.916L27.386,4.348C27.386,4.348,27.665,8.886,27.691,9.333z"/>
<linearGradient id="_25" gradientUnits="userSpaceOnUse" x1="25.8" y1="27.13" x2="18.08" y2="22.01">
<stop stop-color="#E6EEF4" offset="0"/>
<stop stop-color="#4A9900" offset="0.44"/>
<stop stop-color="#0E4E58" offset="0.94"/>
</linearGradient>
<path fill="url(#_25)" d="M17.775,35.162c-3.744-9.361,6.649-13.801,12.1-15.924c-0.684-1.658-0.453-1.882-1.139-3.54 C16.565,20.439,12.064,27.369,17.775,35.162"/>
<path fill="#17594C" d="M18.105,34.605c-4.707-2.646-7.327-6.673-7.021-9.781c-0.263,4.508,3.185,10.515,7.391,12.587 L18.105,34.605z"/>
<linearGradient id="_26" gradientUnits="userSpaceOnUse" x1="21.67" y1="-0.84" x2="28.54" y2="19.26">
<stop stop-color="#DCE8E4" offset="0"/>
<stop stop-color="#43910A" offset="1"/>
</linearGradient>
<path fill="url(#_26)" d="M18.105,34.605c-14.549-8.257-4.497-19.738,9.952-25.043l-0.292-4.737l17.598,5.209L28.856,20.533 l-0.244-4.602C17.567,20.239,11.454,27.665,18.105,34.605z"/>
<linearGradient id="_27" gradientUnits="userSpaceOnUse" x1="26.77" y1="8.19" x2="44.32" y2="35.9">
<stop stop-color="#A2C2DD" offset="0.1"/>
<stop stop-color="#6C83BB" offset="0.71"/>
<stop stop-color="#003D6D" offset="0.99"/>
</linearGradient>
<path fill="url(#_27)" d="M21.961,11.225l0.606,26.433l14.108,3.792l13.266-7.15l0.188-6.522c0,0-0.08,0.041-0.099,0.046 c0.03-2.099,0.26-18.61,0.26-18.61l-13.4-1.283L21.961,11.225z"/>
<linearGradient id="_28" gradientUnits="userSpaceOnUse" x1="42.93" y1="10.24" x2="-12.41" y2="76.1">
<stop stop-color="#FFFFFF" offset="0"/>
<stop stop-color="#A2C2DD" offset="0.35"/>
<stop stop-color="#6C83BB" offset="0.7"/>
<stop stop-color="#003D6D" offset="1"/>
</linearGradient>
<polygon fill="url(#_28)" points="23.48,36.833 22.86,11.628 36.864,14.111 36.626,40.198 "/>
<linearGradient id="_29" gradientUnits="userSpaceOnUse" x1="19.57" y1="0.93" x2="61.2" y2="25.19">
<stop stop-color="#FFFFFF" offset="0.15"/>
<stop stop-color="#A2C2DD" offset="1"/>
</linearGradient>
<polygon fill="url(#_29)" points="49.704,9.692 37.086,8.487 22.86,11.628 36.864,14.111 "/>
<linearGradient id="_30" gradientUnits="userSpaceOnUse" x1="43.16" y1="5.03" x2="43.16" y2="41.4">
<stop stop-color="#FFFFFF" offset="0"/>
<stop stop-color="#A2C2DD" offset="0.35"/>
<stop stop-color="#6C83BB" offset="0.7"/>
<stop stop-color="#003D6D" offset="1"/>
</linearGradient>
<polygon fill="url(#_30)" points="36.621,40.188 49.371,33.543 49.704,9.692 36.767,14.097 "/>
<linearGradient id="_31" gradientUnits="userSpaceOnUse" x1="17.06" y1="46.72" x2="40.2" y2="28.26">
<stop stop-color="#FFFFFF" offset="0"/>
<stop stop-color="#A2C2DD" offset="0.35"/>
<stop stop-color="#6C83BB" offset="0.7"/>
<stop stop-color="#003D6D" offset="1"/>
</linearGradient>
<polygon fill="url(#_31)" points="36.719,35.044 36.589,40.635 23.495,37.16 23.293,32.241 "/>
<linearGradient id="_32" gradientUnits="userSpaceOnUse" x1="82.03" y1="8.89" x2="35.78" y2="39.1">
<stop stop-color="#FFFFFF" offset="0"/>
<stop stop-color="#A2C2DD" offset="0.35"/>
<stop stop-color="#6C83BB" offset="0.7"/>
<stop stop-color="#003D6D" offset="1"/>
</linearGradient>
<polygon fill="url(#_32)" points="49.517,28.783 49.375,33.672 36.582,40.627 36.69,35.044 "/>
<linearGradient id="_33" gradientUnits="userSpaceOnUse" x1="32.15" y1="9.29" x2="32.27" y2="30.4">
<stop stop-color="#E6EEF4" offset="0"/>
<stop stop-color="#337CE5" offset="0.44"/>
<stop stop-color="#003D6D" offset="0.94"/>
</linearGradient>
<polyline fill="url(#_33)" points="32.69,15.195 31.609,14.994 31.774,32.3 32.854,32.499 32.69,15.195 "/>
<polyline fill="url(#_33)" points="30.299,14.751 29.225,14.551 29.39,31.855 30.464,32.056 30.299,14.751 "/>
<polyline fill="url(#_33)" points="27.915,14.308 26.835,14.107 27,31.412 28.081,31.612 27.915,14.308 "/>
<polyline fill="url(#_33)" points="25.529,13.864 24.45,13.666 24.616,30.97 25.696,31.17 25.529,13.864 "/>
<linearGradient id="_37" gradientUnits="userSpaceOnUse" x1="34.94" y1="18.62" x2="34.79" y2="16.26">
<stop stop-color="#E6EEF4" offset="0"/>
<stop stop-color="#4A9900" offset="0.44"/>
<stop stop-color="#0E4E58" offset="0.94"/>
</linearGradient>
<circle fill="url(#_37)" cx="34.83" cy="16.88" r="1.109"/>
<radialGradient id="_38" gradientUnits="userSpaceOnUse" cx="34.67" cy="16.5" r="1.1">
<stop stop-color="#DCE8E4" offset="0"/>
<stop stop-color="#43910A" offset="1"/>
</radialGradient>
<circle fill="url(#_38)" cx="34.858" cy="16.881" r="0.75"/>
<linearGradient id="_39" gradientUnits="userSpaceOnUse" x1="51.17" y1="15.98" x2="59.26" y2="32.75">
<stop stop-color="#FFFFFF" offset="0"/>
<stop stop-color="#A2C2DD" offset="0.35"/>
<stop stop-color="#6C83BB" offset="0.7"/>
<stop stop-color="#003D6D" offset="1"/>
</linearGradient>
<path fill="url(#_39)" d="M44.743,17.156l2.796-1.482c-0.018,0.01,3.385-1.37,6.295-0.613 c2.811,0.731,4.495,2.261,6.113,4.761c1.62,2.497,2,6.873,0.931,9.205c-1.072,2.331-4.157,4.88-4.94,5.62L44.743,17.156z"/>
<radialGradient id="_40" gradientUnits="userSpaceOnUse" cx="44.62" cy="19.09" r="14">
<stop stop-color="#FFFFFF" offset="0.05"/>
<stop stop-color="#A2C2DD" offset="1"/>
</radialGradient>
<path fill="url(#_40)" d="M58.936,26.795c0.278,5.604-3.754,9.961-9.006,9.736c-5.256-0.225-9.741-4.962-10.019-10.567 c-0.278-5.605,3.755-9.965,9.008-9.739C54.175,16.456,58.658,21.19,58.936,26.795z"/>
<linearGradient id="_41" gradientUnits="userSpaceOnUse" x1="39.37" y1="19.3" x2="58.04" y2="32.9">
<stop stop-color="#E6EEF4" offset="0"/>
<stop stop-color="#4A9900" offset="0.44"/>
<stop stop-color="#0E4E58" offset="0.94"/>
</linearGradient>
<path fill="url(#_41)" d="M48.419,23.271C47.813,23.1,47.26,23,46.787,22.939l-0.004,5.965 c0.395,0.165,0.842,0.309,1.394,0.465c1.148,0.32,2.06,0.271,2.623-0.138c0.543-0.405,0.851-1.13,0.853-2.12 c0-0.98-0.307-1.776-0.84-2.422C50.296,24.048,49.516,23.578,48.419,23.271z M47.756,28.262l0.002-4.12 c0.83,0.104,2.908,0.501,2.906,2.719C50.662,29.205,48.225,28.497,47.756,28.262z M46.307,22.494l-1.164-0.318l-1.136,1.716 l-1.132-2.351l-1.165-0.338l1.724,3.556l-1.737,2.624l1.133,0.321l1.175-1.763l1.175,2.422l1.133,0.316l-1.732-3.597L46.307,22.494z M57.206,25.898l-0.983-0.245v0.001l-0.008-0.004l-1.414,4.012l-1.408-4.805H53.35v-0.012l-0.978-0.304l-0.414,6.07l0.979,0.293 l0.244-3.598l1.193,3.952l0.006,0.023l0.838,0.236l0.006-0.021l1.17-3.205l0.234,3.65l0.98,0.258L57.206,25.898z"/>
<linearGradient id="_42" gradientUnits="userSpaceOnUse" x1="55.56" y1="36.44" x2="62.95" y2="51">
<stop stop-color="#A2C2DD" offset="0.1"/>
<stop stop-color="#6C83BB" offset="0.71"/>
<stop stop-color="#003D6D" offset="0.99"/>
</linearGradient>
<path fill="url(#_42)" d="M60.795,15.466c-0.096,0.239,0.225,0.463,0.225,0.463c4.405,2.811,7.194,6.906,6.558,10.751 c-0.596,4.595-5.177,8.876-11.972,11.273c-0.041-0.773-0.246-4.723-0.246-4.723L38.138,44.281l0.429,3.711l18.585,5.84 l-0.076-3.953c0,0-0.035-0.178-0.066-0.352c2.113-0.857,16.265-7.053,16.265-19.209c0-6.525-2.869-11.621-11.938-15.011 C61.336,15.309,60.924,15.146,60.795,15.466z M73.003,27.387l-0.004-0.033C73.001,27.358,73.003,27.38,73.003,27.387z"/>
<linearGradient id="_43" gradientUnits="userSpaceOnUse" x1="69.19" y1="40.35" x2="58.65" y2="33.17">
<stop stop-color="#E6EEF4" offset="0"/>
<stop stop-color="#2F8E9A" offset="0.44"/>
<stop stop-color="#003D6D" offset="0.94"/>
</linearGradient>
<path fill="url(#_43)" d="M71.886,24.528c0,0-16.183,20.425-16.187,20.425c0.004,0,0.82,4.387,0.82,4.387 C56.996,49.205,77.731,41.117,71.886,24.528z"/>
<linearGradient id="_44" gradientUnits="userSpaceOnUse" x1="37.28" y1="44.58" x2="64.28" y2="55.41">
<stop stop-color="#E6EEF4" offset="0"/>
<stop stop-color="#2F8E9A" offset="0.44"/>
<stop stop-color="#003D6D" offset="0.94"/>
</linearGradient>
<polygon fill="url(#_44)" points="56.725,49.887 56.793,53.352 38.887,47.727 38.51,44.459 "/>
<linearGradient id="_45" gradientUnits="userSpaceOnUse" x1="47.86" y1="16.77" x2="71" y2="72.34">
<stop stop-color="#E6EEF4" offset="0"/>
<stop stop-color="#2F8E9A" offset="0.44"/>
<stop stop-color="#003D6D" offset="0.94"/>
</linearGradient>
<path fill="url(#_45)" d="M61.213,15.637c20.026,7.487,11.042,25.285-5.373,29.83l0.887,4.42L38.51,44.459l16.531-10.607 l0.238,4.602C67.933,34.211,73.302,23.591,61.213,15.637z"/>
<path fill="#FFFFFF" d="M13.257,34.175c-2.879,0-6.824,0.685-7.824,6.593l-0.15,0.892c0,0,6.635,0,7.422,0 c0.238,0.427,0.592,1.065,0.818,1.475c-0.227,0.408-0.58,1.048-0.818,1.474c-0.787,0-7.422,0-7.422,0l0.15,0.892 c1,5.907,4.945,6.592,7.824,6.592c2.271,0,4.293-1.903,5.92-3.437c0.879-0.827,1.707-1.607,2.146-1.607h20.319l0.225-0.25 c0.439-0.479,1.453-1.791,1.475-3.631v-0.063c-0.021-1.842-1.035-3.152-1.475-3.633l-0.225-0.248H21.323 c-0.439,0-1.268-0.779-2.145-1.604C17.55,36.082,15.528,34.175,13.257,34.175z"/>
<linearGradient id="_46" gradientUnits="userSpaceOnUse" x1="13.81" y1="31.83" x2="32.29" y2="53.85">
<stop stop-color="#E6EEF4" offset="0"/>
<stop stop-color="#9646AC" offset="0.44"/>
<stop stop-color="#3D013F" offset="0.94"/>
</linearGradient>
<path fill="url(#_46)" d="M42.578,43.133c0-0.009,0.004-0.016,0.004-0.023h-0.006c-0.018-1.601-0.936-2.758-1.271-3.125 c-0.43,0-19.981,0-19.981,0c-0.744,0-1.551-0.764-2.672-1.815c-1.525-1.438-3.426-3.228-5.395-3.228 c-3.195,0-6.221,0.938-7.068,5.955c1.201,0,6.967,0,6.967,0l1.238,2.236l-1.238,2.237c0,0-5.766,0-6.967,0 c0.848,5.019,3.873,5.955,7.068,5.955c1.969,0,3.869-1.791,5.395-3.229c1.121-1.053,1.928-1.814,2.672-1.814c0,0,19.551,0,19.981,0 c0.336-0.368,1.253-1.524,1.271-3.127h0.006C42.582,43.148,42.578,43.143,42.578,43.133z"/>
</svg>