<?xml version="1.0" encoding="UTF-8"?>
<!DOCTYPE svg PUBLIC "-//W3C//DTD SVG 1.1 Tiny//EN" "http://www.w3.org/Graphics/SVG/1.1/DTD/svg11-tiny.dtd">
<svg width="24" height="82" viewBox="-1.184 -0.236 24 82">
<path fill-opacity="0.01" fill="#656B6B" d="M6.816-0.236v32.875c0,9.348,6.559,18.225,16,20.537V-0.236H6.816z"/>
<path fill-opacity="0.02" fill="#656B6B" d="M7.816-0.236v32.875c0,9.098,6.365,17.186,15,19.465v-52.34H7.816z"/>
<path fill-opacity="0.03" fill="#656B6B" d="M8.816-0.236v32.875c0,8.492,5.814,16.172,14,18.434V-0.236H8.816z"/>
<path fill-opacity="0.06" fill="#656B6B" d="M9.816-0.236v32.875c0,7.74,5.172,15.096,13,17.381V-0.236H9.816z"/>
<path fill-opacity="0.05" fill="#656B6B" d="M10.818-0.236v32.875c0,7.223,4.904,14.049,11.998,16.324V-0.236H10.818z"/>
<path fill-opacity="0.1" fill="#656B6B" d="M11.816-0.236l0.002,31.875c-0.002,7.213,4.072,13.705,10.998,16.115v-47.99H11.816z"/>
<path fill-opacity="0.1" fill="#656B6B" d="M12.816-0.236l0.002,30.875c-0.002,6.955,3.076,13.369,9.998,15.934V-0.236H12.816z"/>
<path fill-opacity="0.1" fill="#656B6B" d="M13.816-0.236l0.002,29.885c-0.002,6.693,2.215,13.029,8.998,15.736V-0.236H13.816z"/>
<linearGradient id="_2" gradientUnits="userSpaceOnUse" x1="16.82" y1="38.92" x2="16.82" y2="-1.7">
<stop stop-color="#D9F4E0" offset="0"/>
<stop stop-color="#FFFFFF" offset="1"/>
</linearGradient>
<path fill="url(#_2)" d="M10.816-0.236v28.885c0,7.672,5.047,14.164,12,16.338V-0.236H10.816z"/>
</svg>