<?xml version="1.0" encoding="UTF-8"?>
<!DOCTYPE svg PUBLIC "-//W3C//DTD SVG 1.1 Tiny//EN" "http://www.w3.org/Graphics/SVG/1.1/DTD/svg11-tiny.dtd">
<svg baseProfile="tiny" height="12" version="1.1" viewBox="0 0 12 12" width="12" xmlns="http://www.w3.org/2000/svg" xmlns:xlink="http://www.w3.org/1999/xlink">
<g>
<rect fill="none" height="12" width="12"/>
<linearGradient gradientTransform="matrix(0 1 -1 0 320.8066 -316.7266)" gradientUnits="userSpaceOnUse" id="XMLID_4_" x1="317.96" x2="327.7441" y1="315.9697" y2="315.9697">
<stop offset="0" style="stop-color:#788FB8"/>
<stop offset="1" style="stop-color:#235487"/>
</linearGradient>
<path d="M2.43,10.708h0.002L8.533,7.01H8.531h0.002c0.482-0.315,0.59-0.667,0.592-0.909   C9.123,5.858,9.016,5.509,8.533,5.192L8.531,5.193l0.002-0.001L2.43,1.541L2.428,1.54c-0.41-0.224-0.861-0.418-1.275-0.232   C0.734,1.494,0.549,1.869,0.549,2.271v0.09v7.618V9.98c0,0.403,0.186,0.776,0.604,0.963C1.564,11.129,2.02,10.934,2.43,10.708z" fill="url(#XMLID_4_)" fill-opacity="0.8" stroke-opacity="0.8"/>
<path d="M1.066,5.37V2.31c0-0.392,0.484-0.654,0.922-0.415l6.168,3.74c0.227,0.147,0.34,0.277,0.34,0.479   c0,0.198-0.113,0.303-0.34,0.452l-6.168,3.79c-0.438,0.238-0.922-0.021-0.922-0.416V5.37z" fill="#A2C2DD"/>
<linearGradient gradientTransform="matrix(0 1 -1 0 320.8066 -316.7266)" gradientUnits="userSpaceOnUse" id="XMLID_5_" x1="304.0479" x2="343.5316" y1="316.0469" y2="316.0469">
<stop offset="0" style="stop-color:#FFFFFF"/>
<stop offset="0.1142" style="stop-color:#E0EAF3"/>
<stop offset="0.35" style="stop-color:#A2C2DD"/>
<stop offset="0.4825" style="stop-color:#8CA9CF"/>
<stop offset="0.7" style="stop-color:#6C83BB"/>
<stop offset="0.7458" style="stop-color:#637DB5"/>
<stop offset="0.8189" style="stop-color:#4C6EA4"/>
<stop offset="0.9097" style="stop-color:#265689"/>
<stop offset="0.9888" style="stop-color:#003D6D"/>
<stop offset="1" style="stop-color:#003D6D"/>
</linearGradient>
<path d="M8.031,5.873C8.02,5.866,1.867,2.136,1.867,2.136C1.564,1.971,1.316,2.144,1.316,2.31   v7.63c0,0.145,0.209,0.361,0.561,0.169l6.158-3.783C8.293,6.154,8.223,5.998,8.031,5.873z" fill="url(#XMLID_5_)" fill-opacity="0.6" stroke-opacity="0.6"/>
<linearGradient gradientTransform="matrix(0 1 -1 0 320.8066 -316.7266)" gradientUnits="userSpaceOnUse" id="XMLID_6_" x1="318.8916" x2="327.9028" y1="316.1357" y2="316.1357">
<stop offset="0" style="stop-color:#E1EBF4"/>
<stop offset="0.4944" style="stop-color:#CEE1EF"/>
<stop offset="1" style="stop-color:#C5CEEF"/>
</linearGradient>
<path d="M1.664,2.5l6.014,3.582C7.676,6.085,1.664,9.746,1.664,9.746V2.5z" fill="url(#XMLID_6_)"/>
<g fill-opacity="0.5" stroke-opacity="0.5">
<path d="M8.031,5.873C8.02,5.866,1.867,2.136,1.867,2.136C1.602,1.991,1.316,2.121,1.316,2.31v3.768h6.885    C8.191,6.037,8.191,5.977,8.031,5.873z" fill="#FFFFFF"/>
</g>
</g>
</svg>
