<?xml version="1.0" encoding="UTF-8"?>
<!DOCTYPE svg PUBLIC "-//W3C//DTD SVG 1.1 Tiny//EN" "http://www.w3.org/Graphics/SVG/1.1/DTD/svg11-tiny.dtd">
<svg baseProfile="tiny" height="44.001" version="1.1" viewBox="-0.378 -0.019 44 44.001" width="44" xmlns="http://www.w3.org/2000/svg" xmlns:xlink="http://www.w3.org/1999/xlink">
<g>
<g>
<g>
<g>
<linearGradient gradientTransform="matrix(0.9913 0.1316 -0.1316 0.9913 2.8816 -265.798)" gradientUnits="userSpaceOnUse" id="XMLID_3_" x1="56.4866" x2="56.4866" y1="268.1609" y2="293.4941">
<stop offset="0" style="stop-color:#B2B2B2"/>
<stop offset="1" style="stop-color:#000000"/>
</linearGradient>
<path d="M30.311,28.44l5.204-0.961l-1.749-11.84l-4.977,0.937l0.083,0.647l-1.296,0.042l-3.926-2.532      l-0.123-0.041c-0.162-0.053-0.316-0.085-0.477-0.107c-0.888-0.106-2.094,0.015-3.285,0.268c-0.59,0.131-1.162,0.298-1.668,0.521      c-0.498,0.242-0.987,0.471-1.342,1.124c-0.069,0.14-0.16,0.336-0.265,0.563l-1.809,0.333l0.218-0.666l-4.878-1.635l-0.325,1.014      l-3.103,9.635l4.767,1.742l0.361-1.093l0.283,0.162c-0.012,0.196-0.019,0.41,0.006,0.655c0.05,0.392,0.13,0.938,0.693,1.406      c0.296,0.229,1.498,1.045,2.753,1.906c1.222,0.833,2.506,1.712,2.57,1.769c0.313,0.246,0.684,0.396,1.057,0.444      c0.004,0.001,0.009,0.001,0.015,0.003c0.674,0.092,1.362-0.148,1.858-0.652c0.201,0.06,0.405,0.107,0.609,0.135      c1.647,0.193,3.363-0.45,4.825-1.283c1.294-0.82,2.413-1.622,2.844-2.866l0.973-0.423L30.311,28.44z M32.009,18.106l1.13,7.674      l-1.026,0.191l-0.989-7.701L32.009,18.106z M10.046,24.765l-0.831-0.305l2.154-6.7l0.883,0.295L10.046,24.765z M20.69,29.359      l-1.174,1.206l-0.027,0.04c-0.029,0.041-0.08,0.053-0.113,0.052c-0.022-0.005-0.033-0.01-0.051-0.023      c-0.255-0.196-1.424-0.987-2.681-1.849c-1.061-0.723-2.183-1.493-2.539-1.748c-0.006-0.061-0.01-0.151-0.01-0.248      c0.819-0.311,1.863-0.482,2.721-0.361c0.19,0.025,0.373,0.062,0.54,0.113c0.203,0.113,0.984,0.727,1.653,1.295      c0.725,0.607,1.376,1.182,1.646,1.393l0.001-0.001c0.03,0.024,0.044,0.065,0.038,0.103      C20.694,29.342,20.692,29.351,20.69,29.359z M27.186,27.564c-0.434,0.868-2.906,2.34-4.548,2.574      c0.068-0.176,0.117-0.354,0.14-0.533c0.104-0.75-0.189-1.533-0.833-2.033l-0.644,0.826l0.645-0.828      c-0.151-0.115-0.955-0.816-1.734-1.465c-0.394-0.332-0.792-0.656-1.14-0.922c-0.382-0.272-0.563-0.453-1.039-0.631      c-0.311-0.1-0.627-0.166-0.94-0.207c-1.329-0.168-2.663,0.076-3.803,0.523l-0.895-0.518l1.541-4.685l1.521-0.279      c-0.227,0.514-0.388,0.886-0.391,0.89l-0.216,0.495l0.279,0.466c0.553,0.836,1.369,1.07,2.213,1.204      c1.313,0.163,3.016-0.123,4.148-1.343l1.907,0.765c0.289,0.292,0.974,1.009,1.709,1.931c0.907,1.121,1.835,2.575,2.127,3.686      C27.225,27.502,27.208,27.529,27.186,27.564z M24.719,20.215l-0.151-0.146l-3.978-1.592l-0.344,0.855l-0.019-0.01      c-0.329,0.774-1.615,1.186-2.607,1.04c-0.098-0.013-0.192-0.032-0.277-0.052c0.398-0.902,1.02-2.306,1.277-2.841      c0.15-0.111,0.953-0.471,1.781-0.605c0.927-0.195,1.988-0.256,2.37-0.199l4.216,2.722l2.153-0.07l0.789,6.16l-1.033,0.449      C27.629,22.948,24.749,20.292,24.719,20.215z" fill="url(#XMLID_3_)"/>
</g>
</g>
</g>
<g>
<rect fill="none" height="44.001" width="44" x="-0.378" y="-0.019"/>
<g>
<linearGradient gradientUnits="userSpaceOnUse" id="XMLID_4_" x1="33.6575" x2="33.6575" y1="6.8254" y2="29.9577">
<stop offset="0" style="stop-color:#B2B2B2"/>
<stop offset="1" style="stop-color:#000000"/>
</linearGradient>
<path d="M37.275,9.488l-4.47,1.974l1.139,2.572l4.467-1.975L37.275,9.488z M30.762,4.933l-1.857,4.528     l2.602,1.07l1.859-4.53L30.762,4.933z" fill="url(#XMLID_4_)"/>
</g>
</g>
</g>
</svg>
