<?xml version="1.0" encoding="UTF-8"?>
<!DOCTYPE svg PUBLIC "-//W3C//DTD SVG 1.1 Tiny//EN" "http://www.w3.org/Graphics/SVG/1.1/DTD/svg11-tiny.dtd">
<svg baseProfile="tiny" version="1.1" xmlns="http://www.w3.org/2000/svg" xmlns:xlink="http://www.w3.org/1999/xlink" width="84" height="72" viewBox="0 0 84 72">
<g>
<g>
<g>
<linearGradient id="XMLID_24_" gradientUnits="userSpaceOnUse" x1="42.625" y1="35.748" x2="59.1571" y2="68.3118">
<stop offset="0" style="stop-color:#A2C2DD"/>
<stop offset="0.1" style="stop-color:#A2C2DD"/>
<stop offset="0.7135" style="stop-color:#6C83BB"/>
<stop offset="0.9888" style="stop-color:#003D6D"/>
</linearGradient>
<path fill="url(#XMLID_24_)" d="M74.66,36.809c0,0-5.904-0.38-6.447-0.415c-0.33-12.977-8.398-20.158-12.16-22.801 c0.291-0.506,3.195-5.57,3.195-5.57l0.297-0.545c0.256-0.432,0.381-0.885,0.381-1.331c0-0.619-0.242-1.225-0.719-1.744 c-0.714-0.777-1.763-1.116-2.44-0.79l-1.412,0.664c-0.606,0.124-0.949,0.706-1.033,0.978l0.007-0.033 c0,0-2.291,5.342-2.539,5.918c-0.454-0.193-1.57-0.667-1.57-0.667c-9.347-3.466-16.873,0.129-16.948,0.166 c0,0-1.379,0.689-1.847,0.923c-0.756-1.636-3.155-6.823-3.365-7.204c-0.35-0.638-1.303-1.441-2.492-1.033l-1.684,0.75 c-0.506,0.244-0.893,0.684-1.062,1.215c-0.055,0.173-0.098,0.388-0.098,0.638c0,0.367,0.092,0.809,0.374,1.303 c0,0,3.561,6.154,3.852,6.658c-5.69,3.693-9.391,10.339-9.979,17.922c-0.588-0.084-3.608-0.517-3.608-0.517 c-0.001-0.002-0.856-0.208-1.542,0.182l-1.258,0.571c-0.691,0.276-1.114,1.016-1.114,1.904c0,0.14,0.011,0.284,0.032,0.43 c0.175,1.178,0.986,2,2.066,2.094c0,0,4.884,0.029,5.432,0.032c0.694,8.172,4.793,15.983,11.039,21.024 c-0.251,0.443-2.547,4.502-2.547,4.502c-0.13,0.291-0.25,0.73-0.25,1.209c0,0.619,0.2,1.306,0.836,1.82 c0.975,0.791,1.881,0.631,2.459,0.381c1.922-0.734,2.125-1.447,2.146-1.494c0,0,1.329-3.07,1.572-3.631 c2.906,1.538,5.941,2.447,9.033,2.672c3.62,0.262,7.051-0.414,10.217-1.978c0.291,0.499,3.792,6.529,3.792,6.529 c0.257,0.507,1.104,1.417,2.399,1.104l1.999-0.845c0.081-0.047,0.979-0.614,0.979-1.735c0-0.391-0.108-0.848-0.398-1.375 c-0.177-0.313-2.291-3.314-4.125-5.908c3.998-2.283,10.447-7.479,11.83-17.607c0.585,0.098,4.83,0.807,4.83,0.807 c0.498,0.045,1.078-0.185,1.143-0.211l1.585-0.711l0.048-0.052c0.031-0.033,0.756-0.819,0.756-2.099v-0.046 C76.302,37.434,75.227,36.895,74.66,36.809z M51.979,22.381c0,0,2.313,2.104,4.146,5.958s2.406,7.292,2.406,7.292l-7.572-0.083 c0,0,0.104-1.792-0.793-4c-0.895-2.208-2.02-3.167-2.02-3.167L51.979,22.381z M41.016,16.116 c4.016,0.719,6.531,2.641,6.531,2.641l-2.891,7.375c0,0-2.116-0.8-3.938-0.25c-0.828,0.25-1.844,0.688-1.844,0.688l-4.563-10.188 C34.313,16.381,37,15.397,41.016,16.116z M25.438,32.569c0,0-0.125-1.875,0.813-5.625s3.344-6.5,3.344-6.5l5.469,7.969 c0,0-1.469,1.688-1.938,2.875s-0.75,2.906-0.75,2.906L25.438,32.569z M31.708,48.986c0,0-2.333-2.136-3.99-5.761 s-1.688-5.563-1.688-5.563l6.719,0.063c0,0,0.281,1.375,1,2.656s1.875,2.531,1.875,2.531L31.708,48.986z M40.906,55.163 c-2.813-0.938-4.469-2.063-4.469-2.063l3.344-8.375c0,0,0.656,0.219,1.906,0.094s2.063-0.531,2.063-0.531l3.813,11.5 C47.563,55.788,43.719,56.1,40.906,55.163z M57.25,47.131c-1.313,3.219-3,5.156-3,5.156L47.625,42.6c0,0,0.844-0.594,1.563-1.531 s1.094-1.813,1.094-1.813l8.375,1.313C58.656,40.569,58.563,43.913,57.25,47.131z"/>
</g>
</g>
<rect fill="none" width="84" height="72"/>
<g>
<linearGradient id="XMLID_25_" gradientUnits="userSpaceOnUse" x1="47.3789" y1="10.2231" x2="54.7119" y2="54.5567">
<stop offset="0" style="stop-color:#FFFFFF"/>
<stop offset="0.35" style="stop-color:#A2C2DD"/>
<stop offset="0.7" style="stop-color:#6C83BB"/>
<stop offset="1" style="stop-color:#003D6D"/>
</linearGradient>
<path fill="url(#XMLID_25_)" d="M31.208,12.062l2.216-1.108c0,0,7.358-3.606,16.673-0.152 c8.396,3.115,18.034,12.545,17.801,26.886c-0.304,18.101-15.963,22.621-15.963,22.621s14.535-6.614,10.363-27.125 c-2.702-13.292-14.156-19.903-17.234-20.729C41.984,11.629,37.444,10.409,31.208,12.062z"/>
<linearGradient id="XMLID_26_" gradientUnits="userSpaceOnUse" x1="16.3569" y1="15.6689" x2="49.1905" y2="69.669">
<stop offset="0" style="stop-color:#FFFFFF"/>
<stop offset="0.35" style="stop-color:#A2C2DD"/>
<stop offset="0.7" style="stop-color:#6C83BB"/>
<stop offset="1" style="stop-color:#003D6D"/>
</linearGradient>
<path fill="url(#XMLID_26_)" d="M24.786,33.259c0,0,0.047-9.107,4.957-13.669l-1.002-1.288 c-6.459,4.505-7.644,12.092-7.718,15.996s2.422,19.751,16.785,23.603c7.286,1.951,11.774-1.128,11.774-1.128l-0.613-0.906 c-2.402,1.05-11.094,1.265-18.176-6.911C26.214,43.922,25.086,37.389,24.786,33.259z"/>
<g>
<linearGradient id="XMLID_27_" gradientUnits="userSpaceOnUse" x1="17.8101" y1="27.5366" x2="68.9351" y2="60.6616">
<stop offset="0" style="stop-color:#FFFFFF"/>
<stop offset="0.05" style="stop-color:#FFFFFF"/>
<stop offset="1" style="stop-color:#A2C2DD"/>
</linearGradient>
<polygon fill="url(#XMLID_27_)" points="22.092,33.399 23.954,32.775 34.244,35.098 33.556,35.597 "/>
</g>
<g>
<linearGradient id="XMLID_28_" gradientUnits="userSpaceOnUse" x1="41.7402" y1="40.4312" x2="33.7398" y2="54.5989">
<stop offset="0" style="stop-color:#FFFFFF"/>
<stop offset="0.35" style="stop-color:#A2C2DD"/>
<stop offset="0.7" style="stop-color:#6C83BB"/>
<stop offset="1" style="stop-color:#003D6D"/>
</linearGradient>
<polygon fill="url(#XMLID_28_)" points="38.597,43.592 39.835,43.312 35.557,53.788 32.966,54.69 "/>
</g>
<g>
<linearGradient id="XMLID_29_" gradientUnits="userSpaceOnUse" x1="40.979" y1="31.813" x2="30.646" y2="14.6465">
<stop offset="0" style="stop-color:#FFFFFF"/>
<stop offset="0.35" style="stop-color:#A2C2DD"/>
<stop offset="0.7" style="stop-color:#6C83BB"/>
<stop offset="1" style="stop-color:#003D6D"/>
</linearGradient>
<polygon fill="url(#XMLID_29_)" points="31.52,16.217 33.383,15.593 41.468,33.314 40.174,34.077 "/>
</g>
<linearGradient id="XMLID_30_" gradientUnits="userSpaceOnUse" x1="25.1812" y1="3.2578" x2="31.4311" y2="13.8828">
<stop offset="0" style="stop-color:#FFFFFF"/>
<stop offset="0.35" style="stop-color:#A2C2DD"/>
<stop offset="0.7" style="stop-color:#6C83BB"/>
<stop offset="1" style="stop-color:#003D6D"/>
</linearGradient>
<path fill="url(#XMLID_30_)" d="M24.026,4.396l1.655-0.738c1.052-0.361,1.833,0.437,2.072,0.872 c0.242,0.437,3.691,7.914,3.691,7.914l-1.542,0.683L24.026,4.396z"/>
<linearGradient id="XMLID_31_" gradientUnits="userSpaceOnUse" x1="58.2949" y1="3.3672" x2="53.7947" y2="16.2427">
<stop offset="0" style="stop-color:#FFFFFF"/>
<stop offset="0.35" style="stop-color:#A2C2DD"/>
<stop offset="0.7" style="stop-color:#6C83BB"/>
<stop offset="1" style="stop-color:#003D6D"/>
</linearGradient>
<path fill="url(#XMLID_31_)" d="M55.482,4.604l1.436-0.675c1.1-0.529,3.546,1.308,2.326,3.372 c-0.263,0.443-1.744,3.39-4.299,7.432l-1.51,0.678L55.482,4.604z"/>
<g>
<linearGradient id="XMLID_32_" gradientUnits="userSpaceOnUse" x1="51.0742" y1="10" x2="57.8652" y2="10">
<stop offset="0" style="stop-color:#FFFFFF"/>
<stop offset="0.05" style="stop-color:#FFFFFF"/>
<stop offset="1" style="stop-color:#A2C2DD"/>
</linearGradient>
<path fill="url(#XMLID_32_)" d="M56.857,4.989c1.559,1.067,0.844,2.615,0.844,2.615l-4.27,7.83l-2.357-1.737l3.576-8.335 C54.65,5.359,55.199,3.857,56.857,4.989z"/>
</g>
<g>
<linearGradient id="XMLID_33_" gradientUnits="userSpaceOnUse" x1="64.582" y1="39.4712" x2="74.8652" y2="39.4712">
<stop offset="0" style="stop-color:#FFFFFF"/>
<stop offset="0.05" style="stop-color:#FFFFFF"/>
<stop offset="1" style="stop-color:#A2C2DD"/>
</linearGradient>
<path fill="url(#XMLID_33_)" d="M74.855,38.014c0,0,0.271,3.825-2.007,3.624l-8.144-1.361l-0.123-2.981L74.855,38.014z"/>
</g>
<linearGradient id="XMLID_34_" gradientUnits="userSpaceOnUse" x1="70.4014" y1="35.8647" x2="70.1514" y2="40.4898">
<stop offset="0" style="stop-color:#FFFFFF"/>
<stop offset="0.35" style="stop-color:#A2C2DD"/>
<stop offset="0.7" style="stop-color:#6C83BB"/>
<stop offset="1" style="stop-color:#003D6D"/>
</linearGradient>
<path fill="url(#XMLID_34_)" d="M64.582,37.307l1.52-0.697l8.507,0.545c0,0,1.343,0.203,1.364,1.715 c0.016,1.18-0.661,1.9-0.661,1.9l-1.509,0.678c0,0,0.527-0.898,0.527-1.691c0-1.494-1.178-1.781-1.178-1.781L64.582,37.307z"/>
<linearGradient id="XMLID_35_" gradientUnits="userSpaceOnUse" x1="53.7402" y1="52.6353" x2="58.2406" y2="66.5115">
<stop offset="0" style="stop-color:#FFFFFF"/>
<stop offset="0.35" style="stop-color:#A2C2DD"/>
<stop offset="0.7" style="stop-color:#6C83BB"/>
<stop offset="1" style="stop-color:#003D6D"/>
</linearGradient>
<path fill="url(#XMLID_35_)" d="M57.605,68.335l1.928-0.853c0.176-0.108,1.339-0.948,0.416-2.621 c-0.254-0.451-5.186-7.404-5.186-7.404l-1.543,0.688L57.605,68.335z"/>
<linearGradient id="XMLID_36_" gradientUnits="userSpaceOnUse" x1="14.7407" y1="32.272" x2="65.8726" y2="65.4014">
<stop offset="0" style="stop-color:#FFFFFF"/>
<stop offset="0.05" style="stop-color:#FFFFFF"/>
<stop offset="1" style="stop-color:#A2C2DD"/>
</linearGradient>
<path fill="url(#XMLID_36_)" d="M19.291,32.498l-1.542,0.683l-7.055-0.809l1.299-0.591c0.572-0.325,1.319-0.139,1.319-0.139 L19.291,32.498z"/>
<linearGradient id="XMLID_37_" gradientUnits="userSpaceOnUse" x1="33.1494" y1="17.5313" x2="29.6764" y2="7.0143" gradientTransform="matrix(1 0 0 -1 0 71.3877)">
<stop offset="0" style="stop-color:#FFFFFF"/>
<stop offset="0.35" style="stop-color:#A2C2DD"/>
<stop offset="0.7" style="stop-color:#6C83BB"/>
<stop offset="1" style="stop-color:#003D6D"/>
</linearGradient>
<path fill="url(#XMLID_37_)" d="M33.545,56.409l-1.542,0.685c0,0-3.406,7.86-3.816,8.041l1.607-0.708 c0.386-0.254,0.549-0.619,0.549-0.619L33.545,56.409z"/>
<linearGradient id="XMLID_38_" gradientUnits="userSpaceOnUse" x1="40.6445" y1="23.6343" x2="47.9776" y2="41.4667">
<stop offset="0" style="stop-color:#FFFFFF"/>
<stop offset="0.35" style="stop-color:#A2C2DD"/>
<stop offset="0.7" style="stop-color:#6C83BB"/>
<stop offset="1" style="stop-color:#003D6D"/>
</linearGradient>
<path fill="url(#XMLID_38_)" d="M37.334,27.459l3.195-1.214c0.579-0.271,5.602-1.232,8.641,4.21 c3.59,6.425-0.627,11.531-2.61,12.37l-3.36,1.165c0,0,7.091-3.045,3.014-12.368C44.24,27.111,38.683,26.744,37.334,27.459z"/>
<g>
<linearGradient id="XMLID_39_" gradientUnits="userSpaceOnUse" x1="44.3086" y1="39.1382" x2="52.0586" y2="17.7631">
<stop offset="0" style="stop-color:#FFFFFF"/>
<stop offset="0.35" style="stop-color:#A2C2DD"/>
<stop offset="0.7" style="stop-color:#6C83BB"/>
<stop offset="1" style="stop-color:#003D6D"/>
</linearGradient>
<polygon fill="url(#XMLID_39_)" points="50.188,20.491 53.496,19.062 47.456,28.833 46.019,29.15 "/>
</g>
<g>
<linearGradient id="XMLID_40_" gradientUnits="userSpaceOnUse" x1="24.772" y1="16.79" x2="75.8969" y2="49.915">
<stop offset="0" style="stop-color:#FFFFFF"/>
<stop offset="0.05" style="stop-color:#FFFFFF"/>
<stop offset="1" style="stop-color:#A2C2DD"/>
</linearGradient>
<polygon fill="url(#XMLID_40_)" points="48.305,36.5 50.085,35.909 61.467,36.103 59.408,36.926 "/>
</g>
<g>
<linearGradient id="XMLID_41_" gradientUnits="userSpaceOnUse" x1="42.043" y1="37.8765" x2="53.71" y2="55.8765">
<stop offset="0" style="stop-color:#FFFFFF"/>
<stop offset="0.35" style="stop-color:#A2C2DD"/>
<stop offset="0.7" style="stop-color:#6C83BB"/>
<stop offset="1" style="stop-color:#003D6D"/>
</linearGradient>
<polygon fill="url(#XMLID_41_)" points="45.2,43.12 46.951,42.264 54.654,53.689 51.271,55.756 "/>
</g>
<linearGradient id="XMLID_42_" gradientUnits="userSpaceOnUse" x1="19.2397" y1="13.2861" x2="50.8676" y2="61.1933">
<stop offset="0" style="stop-color:#FFFFFF"/>
<stop offset="0.05" style="stop-color:#FFFFFF"/>
<stop offset="1" style="stop-color:#A2C2DD"/>
</linearGradient>
<path fill="url(#XMLID_42_)" d="M40.028,27.05c-1.674-0.148-2.695,0.36-2.695,0.36L31.52,16.218l-3.034,1.708l7.16,10.44 c0,0-2.992,2.637-2.881,6.94L22.091,33.4c0,0-0.493,2.323,0.197,3.576l10.751,0.345c0,0,0.616,3.408,3.287,5.417l-6.235,9.755 l2.873,2.197l5.438-10.716c0,0,1.231,0.406,1.881,0.465c4.088,0.372,7.348-3.222,7.278-8.021 C47.49,31.614,44.115,27.411,40.028,27.05z"/>
<g>
<g>
<linearGradient id="XMLID_43_" gradientUnits="userSpaceOnUse" x1="34.8228" y1="31.3853" x2="43.4478" y2="39.6353">
<stop offset="0" style="stop-color:#DCE8E4"/>
<stop offset="1" style="stop-color:#43910A"/>
</linearGradient>
<path fill="url(#XMLID_43_)" d="M39.4,30.54c2.408,0.284,4.369,2.855,4.381,5.753c0.01,2.893-1.932,5.01-4.344,4.73 c-2.408-0.282-4.366-2.854-4.376-5.751C35.049,32.375,36.992,30.256,39.4,30.54z"/>
</g>
<linearGradient id="XMLID_44_" gradientUnits="userSpaceOnUse" x1="40.2705" y1="28.7222" x2="42.5203" y2="37.8463">
<stop offset="0" style="stop-color:#E6EEF4"/>
<stop offset="0.4438" style="stop-color:#4A9900"/>
<stop offset="0.9382" style="stop-color:#0E4E58"/>
<stop offset="1" style="stop-color:#0E4E58"/>
</linearGradient>
<path fill="url(#XMLID_44_)" d="M38.104,30.622l0.624-0.217c0,0,1.137-0.37,2.512,0.129c0,0,2.432,0.996,3.084,3.955 c0.414,1.879-0.115,4.446-1.346,5.331l-1.737,0.941c0,0,3.183-1.533,2.35-5.794c-0.375-1.938-1.224-2.832-2.35-3.697 C40.258,30.511,38.646,30.404,38.104,30.622z"/>
</g>
<linearGradient id="XMLID_45_" gradientUnits="userSpaceOnUse" x1="44.3457" y1="27.249" x2="57.847" y2="42.167">
<stop offset="0" style="stop-color:#FFFFFF"/>
<stop offset="0.05" style="stop-color:#FFFFFF"/>
<stop offset="1" style="stop-color:#A2C2DD"/>
</linearGradient>
<polygon fill="url(#XMLID_45_)" points="48.305,36.5 48.295,38.579 59.269,40.213 59.408,36.926 "/>
<linearGradient id="XMLID_46_" gradientUnits="userSpaceOnUse" x1="14.4839" y1="17.8188" x2="64.827" y2="64.1617">
<stop offset="0" style="stop-color:#FFFFFF"/>
<stop offset="0.05" style="stop-color:#FFFFFF"/>
<stop offset="1" style="stop-color:#A2C2DD"/>
</linearGradient>
<path fill="url(#XMLID_46_)" d="M53.939,59.17c5.928-4.188,9.633-11.742,9.262-20.621c-0.594-14.2-11.389-26.5-24.063-27.417 c-3.39-0.246-6.571,0.354-9.408,1.625l-3.479-7.475c-0.386-0.673-0.915-0.985-1.427-1.029c-1.198-0.105-2.328,1.217-1.423,2.805 l4.009,6.929c-5.968,3.726-9.925,10.72-10.188,19.118l-5.809-0.834c-2.235-0.198-2.121,3.657,0.164,3.855l5.71,0.033 c0.634,8.599,4.984,16.413,11.175,21.298l-2.686,4.748c0,0-0.712,1.602,0.502,2.586c1.665,1.35,2.519-0.291,2.519-0.291 l2.265-5.228c3.127,1.905,6.601,3.106,10.231,3.368c3.764,0.273,7.274-0.497,10.338-2.074l3.948,6.8c0,0,0.697,1.409,2.198,0.903 c1.757-0.591,0.652-2.685,0.652-2.685L53.939,59.17z M41.106,58.229C30.664,57.475,21.768,47.28,21.272,35.511 c-0.49-11.768,7.606-20.725,18.048-19.971c3.11,0.226,6.074,1.303,8.729,2.995l-3.756,9.151l1.726,1.465l4.76-8.55 c4.799,4.23,8.08,10.654,8.373,17.655c0.315,7.516-2.882,13.871-7.946,17.3L45.2,43.12l-1.143,0.528l4.478,13.369 C46.279,57.975,43.771,58.422,41.106,58.229z"/>
</g>
</g>
</svg>
