<?xml version="1.0" encoding="UTF-8"?>
<!DOCTYPE svg PUBLIC "-//W3C//DTD SVG 1.1 Tiny//EN" "http://www.w3.org/Graphics/SVG/1.1/DTD/svg11-tiny.dtd">
<svg baseProfile="tiny" height="60px" viewBox="0 0 60 60" width="60px" xmlns="http://www.w3.org/2000/svg" xmlns:xlink="http://www.w3.org/1999/xlink">
<path d="M30.386,18.677C12.99,18.694,7.843,29.021,7.5,31.576c-0.176,1.338-0.419,3.131,0.017,5.313 c0.217,1.078,1.006,2.242,1.245,2.574l0.119,0.168l0.152,0.135c1.494,1.316,3.982,1.793,8.057,1.539 c1.756-0.109,5.918-0.555,7.693-2.328c0.078-0.076,0.145-0.154,0.215-0.236l0.128-0.158l0.091-0.182 c0.13-0.256,0.538-1.24,0.33-3.045c-0.172-1.514-1.043-2.953-1.738-3.922c0.754-0.746,2.553-1.868,6.59-1.933l-0.039-0.018 c4.033,0.064,5.834,1.196,6.584,1.94c-0.701,0.973-1.576,2.416-1.75,3.932c-0.201,1.805,0.201,2.789,0.334,3.045l0.088,0.184 l0.131,0.156c1.631,1.971,6.072,2.449,7.908,2.564c4.074,0.25,6.564-0.229,8.072-1.557l0.152-0.135l0.117-0.166 c0.238-0.332,1.027-1.498,1.242-2.574c0.438-2.188,0.197-3.98,0.037-5.168C52.796,28.12,46.519,18.677,30.386,18.677 M11.011,36.188 c-0.318-1.598-0.141-2.92,0-3.988c0.089-0.668,0.856-2.402,2.691-4.235c2.74-2.741,7.862-5.709,16.668-5.709 c14.717-0.015,19.15,8.256,19.354,9.78c0.16,1.209,0.342,2.533,0.023,4.137c-0.041,0.174-0.271,0.605-0.516,0.982 c-0.492,0.35-1.783,0.813-5.359,0.594c-2.791-0.176-4.559-0.768-5.158-1.146c-0.016-0.193-0.023-0.463,0.021-0.846 c0.115-0.992,1.201-2.486,1.711-3.057l0.654-0.736l-0.268-0.951c-0.148-0.508-1.693-4.949-10.414-5.091H30.39l-0.049,0.017 c-5.057,0.083-7.708,1.604-9.068,2.966c-0.984,0.985-1.297,1.886-1.36,2.097l-0.285,0.957l0.669,0.742 c0.509,0.568,1.593,2.063,1.707,3.057c0.044,0.381,0.039,0.652,0.022,0.846c-0.6,0.379-2.362,0.973-5.159,1.146 c-3.576,0.219-4.856-0.232-5.34-0.576C11.282,36.793,11.05,36.365,11.011,36.188" fill="#BF111A"/>
<rect fill="none" height="60" width="60"/>
</svg>
