<?xml version="1.0" encoding="UTF-8"?>
<!DOCTYPE svg PUBLIC "-//W3C//DTD SVG 1.1 Tiny//EN" "http://www.w3.org/Graphics/SVG/1.1/DTD/svg11-tiny.dtd">
<svg width="84" height="58" viewBox="-0.5 -0.333 84 58">
<linearGradient id="_10" gradientUnits="userSpaceOnUse" x1="42.52" y1="29.42" x2="48.09" y2="44.51">
<stop stop-color="#87A8CB" offset="0"/>
<stop stop-color="#235487" offset="1"/>
</linearGradient>
<path fill="url(#_10)" d="M48.403,4.322c-9.568,0.763-14.71,6.367-19.548,11.62c-4.884,5.306-10.152,10.787-19.996,11.846 c0,0,0.009,2.1,0.048,2.149c0,0,16.266,21.726,16.379,21.713c12.898-1.574,18.828-8.725,24.745-16.618 c5.597-7.035,11.128-13.435,21.636-14.425l0.456-2.604C72.49,18.005,48.465,4.316,48.403,4.322z"/>
<linearGradient id="_11" gradientUnits="userSpaceOnUse" x1="48.32" y1="-6.56" x2="35.55" y2="42.91">
<stop stop-color="#FFFFFF" offset="0"/>
<stop stop-color="#A2C2DD" offset="0.35"/>
<stop stop-color="#6C83BB" offset="0.7"/>
<stop stop-color="#003D6D" offset="1"/>
</linearGradient>
<path fill="url(#_11)" d="M9.731,28.102C29.182,26.013,29.54,6.747,48.137,5.267l23.447,12.87 C47.986,21.286,49.938,45.021,25.98,48.39L9.731,28.102z"/>
<linearGradient id="_12" gradientUnits="userSpaceOnUse" x1="23.16" y1="38.34" x2="43.32" y2="11.63">
<stop stop-color="#DEE9F3" offset="0"/>
<stop stop-color="#235487" offset="1"/>
</linearGradient>
<path fill="url(#_12)" d="M13.012,32.264c2.962-0.192,10.265-1.513,16.528-8.633l11.489,10.538 c-4.323,5.403-11.783,9.771-18.306,10.325L13.012,32.264z"/>
<linearGradient id="_13" gradientUnits="userSpaceOnUse" x1="43.7" y1="21.64" x2="32.02" y2="39.82">
<stop stop-color="#DEE9F3" offset="0"/>
<stop stop-color="#235487" offset="1"/>
</linearGradient>
<path fill="url(#_13)" d="M30.979,22.158c3.176-3.693,7.188-9.106,14.364-12.457l13.198,8.128 c-4.196,2.167-8.354,4.87-15.883,14.608L30.979,22.158z"/>
<path fill="#D6E4F3" d="M47.555,8.795c0,0,4.537-1.047,5.209-0.991l14.247,7.841c0,0-2.738-0.038-6.037,1.21L47.555,8.795z"/>
<polygon fill="#FFFFFF" points="10.678,29.391 12.863,29.13 14.365,31.057 12.369,31.479 "/>
<polygon fill="#FFFFFF" points="15.109,28.571 16.784,30.534 19.063,29.777 17.36,27.854 "/>
<polygon fill="#FFFFFF" points="19.235,27.012 20.974,28.936 22.917,27.84 21.134,25.968 "/>
<polygon fill="#FFFFFF" points="22.698,24.896 24.505,26.724 26.162,25.415 24.294,23.598 "/>
<polygon fill="#FFFFFF" points="25.699,22.393 27.556,24.141 29.019,22.634 27.117,20.918 "/>
<polygon fill="#FFFFFF" points="28.362,19.583 30.304,21.297 31.654,19.702 29.743,18.074 "/>
<polygon fill="#FFFFFF" points="30.993,16.707 32.907,18.306 34.291,16.773 32.333,15.196 "/>
<polygon fill="#FFFFFF" points="33.617,13.888 35.597,15.422 37.108,13.993 35.046,12.481 "/>
<polygon fill="#FFFFFF" points="36.49,11.279 38.56,12.734 40.208,11.452 38.18,10.028 "/>
<polygon fill="#FFFFFF" points="39.837,9.006 41.877,10.372 43.907,9.373 41.805,8.021 "/>
<polygon fill="#FFFFFF" points="43.664,7.293 45.82,8.56 48.276,7.898 46.072,6.615 "/>
<polygon fill="#FFFFFF" points="48.208,6.207 50.457,7.493 51.773,7.262 49.426,5.983 "/>
<polygon fill="#FFFFFF" points="23.431,45.315 25.875,44.888 27.51,46.916 24.998,47.334 "/>
<polygon fill="#FFFFFF" points="28.465,44.231 30.143,46.222 32.815,45.214 31.063,43.261 "/>
<polygon fill="#FFFFFF" points="33.214,42.241 35.39,40.901 37.235,42.788 34.989,44.153 "/>
<polygon fill="#FFFFFF" points="37.203,39.582 39.038,41.443 40.924,39.794 39.064,37.976 "/>
<polygon fill="#FFFFFF" points="40.619,36.424 42.508,38.213 44.146,36.403 42.238,34.676 "/>
<polygon fill="#FFFFFF" points="43.678,33.002 45.621,34.707 47.161,32.796 45.191,31.15 "/>
<polygon fill="#FFFFFF" points="46.604,29.467 48.565,31.093 50.106,29.173 48.118,27.598 "/>
<polygon fill="#FFFFFF" points="49.585,25.977 51.585,27.515 53.289,25.74 51.263,24.22 "/>
<polygon fill="#FFFFFF" points="52.858,22.735 54.949,24.186 56.862,22.622 54.753,21.199 "/>
<polygon fill="#FFFFFF" points="56.661,19.935 58.79,21.309 61.047,20.017 58.892,18.668 "/>
<polygon fill="#FFFFFF" points="61.126,17.702 63.35,19.014 66.105,18.142 63.88,16.844 "/>
<polygon fill="#FFFFFF" points="66.615,16.28 68.897,17.531 70.185,17.39 67.844,16.106 "/>
<linearGradient id="_14" gradientUnits="userSpaceOnUse" x1="28.1" y1="-8.5" x2="51.51" y2="40.71">
<stop stop-color="#FFFFFF" offset="0"/>
<stop stop-color="#A2C2DD" offset="0.35"/>
<stop stop-color="#6C83BB" offset="0.7"/>
<stop stop-color="#003D6D" offset="1"/>
</linearGradient>
<path fill="url(#_14)" d="M26.095,48.179c22.61-3.004,23.483-28.64,45.471-30.066l-0.419,2.089 C49.114,22.21,50.041,47.797,25.5,50.79L26.095,48.179z"/>
<polygon fill="url(#_11)" points="26.095,48.179 9.731,28.102 9.78,29.713 25.5,50.79 "/>
<polygon fill="#7D97C6" points="25.36,47.287 24.83,49.882 23.41,47.935 23.736,45.246 "/>
<polygon fill="#7D97C6" points="10.776,29.363 10.938,31.194 12.494,33.355 12.445,31.479 "/>
<rect x="56.298" y="33.286" fill="#FFFFFF" width="16.354" height="16.354"/>
<linearGradient id="_16" gradientUnits="userSpaceOnUse" x1="60.42" y1="27.21" x2="65.92" y2="46.54">
<stop stop-color="#A2C2DD" offset="0.1"/>
<stop stop-color="#6C83BB" offset="0.71"/>
<stop stop-color="#003D6D" offset="0.99"/>
</linearGradient>
<path fill="url(#_16)" d="M55.457,32.445V50.48h18.036V32.445H55.457z M71.812,34.127c0,1.431,0,13.241,0,14.672 c-1.431,0-13.242,0-14.673,0c0-1.431,0-13.241,0-14.672C58.569,34.127,70.381,34.127,71.812,34.127z"/>
<polygon fill="url(#_16)" points="59.348,36.812 69.563,41.472 59.357,46.153 "/>
<path fill="#FFFFFF" d="M13.207,34.166c-2.773,0-6.577,0.658-7.54,6.354l-0.146,0.856c0,0,6.394,0,7.151,0 c0.229,0.412,0.57,1.027,0.787,1.423c-0.216,0.391-0.555,1.006-0.786,1.418c-0.758,0-7.15,0-7.15,0l0.145,0.858 c0.963,5.694,4.766,6.353,7.54,6.353c2.188,0,4.14-1.834,5.705-3.312c0.847-0.799,1.646-1.549,2.067-1.549h19.582l0.219-0.24 c0.42-0.463,1.395-1.728,1.418-3.5v-0.063c-0.021-1.772-0.998-3.037-1.418-3.498l-0.219-0.239H20.98 c-0.422,0-1.223-0.752-2.065-1.548C17.346,36.002,15.396,34.166,13.207,34.166z"/>
<linearGradient id="_18" gradientUnits="userSpaceOnUse" x1="11.87" y1="29.54" x2="32.98" y2="54.93">
<stop stop-color="#E6EEF4" offset="0"/>
<stop stop-color="#9646AC" offset="0.44"/>
<stop stop-color="#3D013F" offset="0.94"/>
</linearGradient>
<path fill="url(#_18)" d="M41.466,42.8c0-0.009,0.003-0.019,0.003-0.023h-0.005c-0.019-1.543-0.901-2.656-1.229-3.012 c-0.411,0-19.254,0-19.254,0c-0.717,0-1.494-0.734-2.573-1.748c-1.472-1.388-3.302-3.112-5.2-3.112 c-3.079,0-5.995,0.903-6.811,5.737c1.156,0,6.713,0,6.713,0l1.193,2.156l-1.193,2.154c0,0-5.557,0-6.713,0 c0.813,4.835,3.729,5.738,6.811,5.738c1.898,0,3.729-1.725,5.199-3.111c1.08-1.014,1.857-1.748,2.574-1.748 c0,0,18.842,0,19.254,0c0.324-0.354,1.211-1.469,1.229-3.012h0.004C41.469,42.812,41.466,42.806,41.466,42.8z"/>
</svg>