<?xml version="1.0" encoding="UTF-8"?>
<!DOCTYPE svg PUBLIC "-//W3C//DTD SVG 1.1 Tiny//EN" "http://www.w3.org/Graphics/SVG/1.1/DTD/svg11-tiny.dtd">
<svg width="44" height="44" viewBox="0 0 44 44">
<linearGradient id="_2" gradientUnits="userSpaceOnUse" x1="-1.05" y1="1.29" x2="32.43" y2="35.53">
<stop stop-color="#FFFFFF" offset="0"/>
<stop stop-color="#E0EAF3" offset="0.11"/>
<stop stop-color="#A2C2DD" offset="0.35"/>
<stop stop-color="#8CA9CF" offset="0.48"/>
<stop stop-color="#6C83BB" offset="0.7"/>
<stop stop-color="#637DB5" offset="0.75"/>
<stop stop-color="#4C6EA4" offset="0.82"/>
<stop stop-color="#265689" offset="0.91"/>
<stop stop-color="#003D6D" offset="0.99"/>
</linearGradient>
<path d="M26.5,23.125c2.045-3.129,3.07-5.742,3.07-7.84c0-2.287-0.801-4.078-2.398-5.359 c-1.6-1.291-3.813-1.939-6.646-1.939c-1.697,0-3.252,0.436-4.652,1.309c-1.406,0.869-2.434,1.959-3.09,3.273l3.295,2.59 c1.168-2.006,2.713-3.012,4.629-3.012c2.508,0,3.761,1.045,3.761,3.127c0,1.76-0.871,3.926-2.617,6.486l-8.734,12.877v1.432h18.097 v-4.326H20.846L26.5,23.125z" fill="url(#_2)"/>
</svg>