<?xml version="1.0" encoding="UTF-8" standalone="no"?>
<!DOCTYPE svg PUBLIC "-//W3C//DTD SVG 1.1 Tiny//EN" "http://www.w3.org/Graphics/SVG/1.1/DTD/svg11-tiny.dtd">
<svg xmlns="http://www.w3.org/2000/svg" xmlns:xlink="http://www.w3.org/1999/xlink" baseProfile="tiny" height="32px" version="1.1" viewBox="0 0 38 32" width="38px" x="0px" y="0px">
<rect fill="none" height="32" width="38"/>
<path d="M26.33,13.721c-1.141-1.618-3.082-2.596-5.646-2.581c-1.213-0.003-2.309,0.175-3.259,0.568  c0.229-0.992,1.073-4.139,4.317-4.018c1.004,0.037,1.838,0.046,3.079,0.315c0.579,0.126,0.968-0.353,0.954-0.786V3.986  c0-0.397-0.29-0.732-0.682-0.791c-1.139-0.174-2.552-0.293-3.88-0.273C11.039,3.069,10.08,12.778,10.082,16.823  c0,2.706,0.226,5.673,1.447,8.084c1.195,2.405,3.564,4.17,7.27,4.17c0,0,4.199,0.326,7.039-2.823  C27.995,23.863,28.955,17.444,26.33,13.721z M20.51,23.341c-0.354,0.77-0.607,1.028-1.57,1.075  c-0.822-0.032-1.111-0.362-1.473-1.347c-0.309-0.96-0.371-2.396-0.367-3.793c-0.004-1.006,0.172-1.947,0.509-2.541  c0.355-0.588,0.711-0.861,1.495-0.885c0.793,0.035,1.051,0.277,1.387,0.951c0.304,0.678,0.426,1.777,0.422,2.969  C20.916,21.262,20.822,22.559,20.51,23.341z" fill-opacity="0.4" stroke-opacity="0.4"/>
<path d="M24.976,7.221c-1.188-0.231-2.178-0.33-3.234-0.33c-3.632,0-5.019,2.839-5.38,6.403  c1.055-0.925,2.475-1.354,4.323-1.354c4.754,0,6.436,3.433,6.436,7.723c0,4.72-2.309,8.614-8.218,8.614  c-7.063,0-8.021-6.139-8.021-11.452c0-6.304,2.344-13.103,10.333-13.103c1.287,0,2.672,0.099,3.762,0.264V7.221z M19.101,15.043  c-2.112,0-2.806,2.046-2.806,4.225c0,2.838,0.197,5.94,2.641,5.94c2.476,0,2.772-2.409,2.772-5.445  C21.708,17.287,21.278,15.043,19.101,15.043z" fill="#FFFFFF"/>
</svg>
