<?xml version="1.0" encoding="UTF-8"?>
<!DOCTYPE svg PUBLIC "-//W3C//DTD SVG 1.1 Tiny//EN" "http://www.w3.org/Graphics/SVG/1.1/DTD/svg11-tiny.dtd">
<svg width="84" height="72" viewBox="0 0 84 72">
<linearGradient id="_11" gradientUnits="userSpaceOnUse" x1="41.97" y1="41.56" x2="46.99" y2="50.22">
<stop stop-color="#A2C2DD" offset="0.1"/>
<stop stop-color="#6C83BB" offset="0.71"/>
<stop stop-color="#003D6D" offset="0.99"/>
</linearGradient>
<path fill="url(#_11)" d="M39.772,6.276c-3.866,2.806-16.824,16.351-17.199,20.379l1.877,4.769 c0.803,0.879,2.102,1.955,3.625,3.048c-0.068,0.401-0.203,1.173-0.203,1.173l1.244,3.385l-1.199,1.355l-2.928,1.113l-2.742,3.709 l-0.318,3.932l-3.549,1.439l-5.165,6.754l0.537,5.955l1.427,3.348l2.037,1.799l7.49-3.121L40.08,44.871l2.971,0.277l2.656-2.262 c2.52,0.955,8.463,2.125,8.463,2.125c6.535-5.992,13.113-15.124,14.346-22.602l-0.469-7.17C60.08,7.087,47.432,6.009,39.772,6.276 z M52.982,16.471c-1.322,2.004-4.857,3.329-7.375,2.297C46.855,16.89,50.398,15.37,52.982,16.471z"/>
<linearGradient id="_12" gradientUnits="userSpaceOnUse" x1="45.11" y1="27.68" x2="34.77" y2="40.01">
<stop stop-color="#FFFFFF" offset="0"/>
<stop stop-color="#496DA2" offset="0.71"/>
<stop stop-color="#235487" offset="0.99"/>
</linearGradient>
<path fill="url(#_12)" d="M53.656,37.529l-30.45-10.946l1.71,4.411c2.813,3.068,12.85,10.134,29.056,13.33 L53.656,37.529z"/>
<linearGradient id="_13" gradientUnits="userSpaceOnUse" x1="57.81" y1="27.67" x2="66.17" y2="34.17">
<stop stop-color="#DEE9F3" offset="0"/>
<stop stop-color="#235487" offset="1"/>
</linearGradient>
<path fill="url(#_13)" d="M53.531,37.529l0.441,6.795c8.193-7.756,12.561-15.246,13.904-21.958l-0.449-6.859 L53.531,37.529z"/>
<linearGradient id="_14" gradientUnits="userSpaceOnUse" x1="62.25" y1="40.39" x2="34.72" y2="8.93">
<stop stop-color="#FFFFFF" offset="0.05"/>
<stop stop-color="#A2C2DD" offset="1"/>
</linearGradient>
<path fill="url(#_14)" d="M53.531,37.529c-6.746-0.055-26.971-7.376-30.325-10.946C23.327,23.664,34.937,10.777,40,6.9 c10.589-0.546,22.056,2.854,27.427,8.607C67.613,16.998,60.223,33.283,53.531,37.529z M53.932,16.093l-6.438-3.469 l-2.809,6.438C47.523,20.847,52.742,19.104,53.932,16.093z"/>
<linearGradient id="_15" gradientUnits="userSpaceOnUse" x1="41.49" y1="17.9" x2="52.61" y2="13.59">
<stop stop-color="#D6E6EC" offset="0"/>
<stop stop-color="#298595" offset="1"/>
</linearGradient>
<path fill="url(#_15)" d="M53.879,16.175c1.104-2.461-1.912-5.045-6.139-3.746c-4.818,1.483-5.371,5.199-3.055,6.601 C46.029,16.015,51.17,14.409,53.879,16.175z"/>
<polygon fill="#235487" points="30.963,38.008 28.526,35.585 29.841,39.162 "/>
<linearGradient id="_16" gradientUnits="userSpaceOnUse" x1="30.23" y1="67.19" x2="32.05" y2="42.01">
<stop stop-color="#FFFFFF" offset="0.05"/>
<stop stop-color="#A2C2DD" offset="1"/>
</linearGradient>
<path fill="url(#_16)" d="M28.526,35.585l2.341,2.422L16.51,64.561l7.502-3.355l15.736-17.49l6.529-6.102 c-5.39-1.376-12.107-3.756-17.058-6.013L28.526,35.585z"/>
<linearGradient id="_17" gradientUnits="userSpaceOnUse" x1="7.9" y1="76.32" x2="47.6" y2="9.85">
<stop stop-color="#FFFFFF" offset="0"/>
<stop stop-color="#A2C2DD" offset="0.35"/>
<stop stop-color="#6C83BB" offset="0.7"/>
<stop stop-color="#003D6D" offset="1"/>
</linearGradient>
<polygon fill="url(#_17)" points="34.979,39.787 30.867,38.008 28.29,40.924 25.387,42.025 22.866,45.439 22.531,49.58 18.78,51.104 13.87,57.521 14.375,63.131 16.51,64.561 "/>
<linearGradient id="_18" gradientUnits="userSpaceOnUse" x1="25.44" y1="48.02" x2="35.42" y2="55.28">
<stop stop-color="#FFFFFF" offset="0"/>
<stop stop-color="#A2C2DD" offset="0.35"/>
<stop stop-color="#6C83BB" offset="0.7"/>
<stop stop-color="#003D6D" offset="1"/>
</linearGradient>
<polygon fill="url(#_18)" points="46.277,37.613 45.965,41.373 42.842,44.49 39.786,44.205 24.301,64.793 17.338,67.693 15.707,66.252 14.375,63.131 16.51,64.561 24.012,61.205 39.495,40.729 42.84,40.766 "/>
<polygon fill="#496DA2" points="42.842,44.49 42.84,40.766 46.277,37.613 46.301,41.545 "/>
<linearGradient id="_19" gradientUnits="userSpaceOnUse" x1="23.14" y1="41.18" x2="37.21" y2="59.78">
<stop stop-color="#DEE9F3" offset="0"/>
<stop stop-color="#235487" offset="1"/>
</linearGradient>
<polygon fill="url(#_19)" points="39.495,40.729 39.786,44.205 24.301,64.793 24.012,61.205 "/>
<path fill="#FFFFFF" d="M58.014,43.271C55.803,41.066,45.717,31.02,45.717,31.02l-6.845,6.875c0,0,10.046,10.008,12.269,12.223 C48.918,52.332,38.872,62.34,38.872,62.34l6.847,6.875c0,0,10.082-10.045,12.295-12.248c2.213,2.203,12.295,12.248,12.295,12.248 l6.848-6.875c0,0-10.045-10.008-12.268-12.223c2.223-2.215,12.268-12.223,12.268-12.223l-6.846-6.875 C70.311,31.02,60.225,41.066,58.014,43.271z"/>
<linearGradient id="_20" gradientUnits="userSpaceOnUse" x1="69.92" y1="13.9" x2="46.92" y2="83.9">
<stop stop-color="#E6EEF4" offset="0"/>
<stop stop-color="#C03A3A" offset="0.44"/>
<stop stop-color="#302D02" offset="0.94"/>
</linearGradient>
<polygon fill="url(#_20)" points="74.328,37.889 70.305,33.849 58.014,46.094 45.723,33.849 41.7,37.889 53.975,50.117 41.7,62.346 45.725,66.387 58.014,54.143 70.303,66.387 74.328,62.346 62.055,50.117 "/>
</svg>