<?xml version="1.0" encoding="UTF-8"?>
<!DOCTYPE svg PUBLIC "-//W3C//DTD SVG 1.1 Tiny//EN" "http://www.w3.org/Graphics/SVG/1.1/DTD/svg11-tiny.dtd">
<svg baseProfile="tiny" height="60" version="1.1" viewBox="0 0 60 60" width="60" xmlns="http://www.w3.org/2000/svg" xmlns:xlink="http://www.w3.org/1999/xlink">
<path d="M21.043,23.353l1.555,1.558c0.979-1.18,2.071-2.257,3.263-3.219l-1.553-1.553c0.911-0.732,1.874-1.405,2.892-1.994  l0.041-0.039h-8.403L18.837,26.5C19.482,25.387,20.225,24.34,21.043,23.353z"/>
<path d="M34.193,26.804c0,2.728,1.895,5.014,4.434,5.633c-0.297-0.846-0.468-1.75-0.477-2.692c-0.978-0.617-1.635-1.7-1.635-2.941  c0-1.918,1.563-3.481,3.483-3.481c0.33,0,0.646,0.063,0.952,0.149c0.678-0.606,1.453-1.107,2.305-1.464  c-0.93-0.633-2.051-1.005-3.257-1.005C36.797,21.002,34.193,23.605,34.193,26.804z M39.406,36.092c0.27-0.33,0.545-0.64,0.838-0.896  c-0.385-0.436-0.721-0.916-1.012-1.426h-2.808c-1.655,0-3.295,3.881-4.42,7.144c-1.125,3.26-1.709,5.627-1.709,5.627h2.642  c0-0.408,0.543-2.563,1.438-5.201c0.971-2.603,1.691-4.163,2.493-5.247H39.406z"/>
<path d="M40.667,29.681c0,3.199,2.601,5.803,5.799,5.803c3.201,0,5.808-2.604,5.808-5.803c0-3.199-2.605-5.803-5.808-5.803  C43.266,23.878,40.667,26.482,40.667,29.681z M46.465,26.199c1.924,0,3.486,1.563,3.486,3.482c0,1.92-1.563,3.48-3.486,3.48  c-1.918,0-3.48-1.56-3.48-3.48C42.984,27.762,44.547,26.199,46.465,26.199z M54.37,43.788c-1.125-3.265-2.765-7.142-4.418-7.142  h-3.438h-3.617c-1.658,0-3.295,3.877-4.422,7.142c-1.125,3.26-1.707,5.629-1.707,5.629h2.639c0-0.41,0.545-2.563,1.438-5.201  c0.971-2.604,1.693-4.163,2.492-5.247h3.178h2.994c0.803,1.084,1.523,2.645,2.494,5.247c0.893,2.64,1.438,4.791,1.438,5.201h2.642  C56.081,49.417,55.497,47.048,54.37,43.788z"/>
<path d="M24.306,7.632c-0.786-0.604-6.067-2.354-12.261,3.779l-0.076,0.076c-6.134,6.193-4.382,11.475-3.78,12.261  c0.438,0.574,0.933,1.22,1.772,1.784c0.207,0.127,0.599,0.286,1.021,0.277c0.422-0.01,1.387-0.637,2.596-1.96  c1.211-1.321,1.721-2.387,1.834-2.887l0.065-0.285l-0.19-0.223c-0.119-0.144-0.261-0.277-0.43-0.409  c-0.714-0.571-2.205-0.659-2.222-0.658l-0.229-0.015l-0.111-0.203c-0.046-0.085-1.137-2.182,1.998-5.436  c3.254-3.135,5.35-2.043,5.435-1.997l0.203,0.111l0.015,0.229c0,0.017,0.087,1.508,0.657,2.222c0.132,0.17,0.268,0.31,0.41,0.43  l0.223,0.19l0.284-0.065c0.5-0.113,1.567-0.623,2.889-1.834c1.322-1.21,1.949-2.174,1.959-2.596c0.009-0.422-0.15-0.814-0.277-1.021  C25.525,8.563,24.88,8.068,24.306,7.632z" fill="#47C30E"/>
<path d="M29.973,30.82c-1.657,0-3.294,3.882-4.42,7.144c-1.126,3.261-1.708,5.63-1.708,5.63h2.641  c0-0.408,0.543-2.564,1.436-5.201c0.971-2.603,1.691-4.164,2.493-5.248h2.542c0.268-0.33,0.542-0.64,0.837-0.896  c-0.387-0.436-0.722-0.914-1.012-1.426h-2.809V30.82z M33.545,18.054c-3.201,0-5.804,2.603-5.804,5.803  c0,2.726,1.893,5.015,4.433,5.632c-0.297-0.844-0.468-1.749-0.475-2.691c-0.979-0.619-1.635-1.702-1.635-2.94  c0-1.92,1.561-3.483,3.48-3.483c0.334,0,0.647,0.062,0.953,0.149c0.681-0.605,1.454-1.106,2.308-1.464  C35.875,18.425,34.752,18.054,33.545,18.054z" fill="#47C30E"/>
<rect fill="none" height="60" width="60"/>
</svg>
