<?xml version="1.0" encoding="UTF-8" standalone="no"?>
<!DOCTYPE svg PUBLIC "-//W3C//DTD SVG 1.1 Tiny//EN" "http://www.w3.org/Graphics/SVG/1.1/DTD/svg11-tiny.dtd">
<svg xmlns="http://www.w3.org/2000/svg" xmlns:xlink="http://www.w3.org/1999/xlink" width="30" height="40" viewBox="-0.011 -0.05 30 40">
<rect fill="none" height="40" width="30" x="-0.011" y="-0.05"/>
<ellipse cx="15.49" cy="20.432" fill="none" rx="13.259" ry="18.003" stroke="#FBB03B" stroke-width="0.5282"/>
<path d="M17.442,22.96c-2.929,0-5.302,1.761-5.302,3.934c0,2.174,2.373,3.935,5.302,3.935 c2.927,0,5.3-1.761,5.3-3.935C22.742,24.721,20.369,22.96,17.442,22.96z" fill="#FEDE58" fill-opacity="0.5" />
<path d="M17.627,24.78c-1.427,0-2.585,0.859-2.585,1.918c0,1.061,1.158,1.918,2.585,1.918 s2.584-0.857,2.584-1.918C20.211,25.64,19.054,24.78,17.627,24.78z" fill="#FF9900" fill-opacity="0.6" />
<linearGradient id="SVGID_1" gradientUnits="userSpaceOnUse" x1="15.67" y1="20.98" x2="18.36" y2="20.98">
<stop stop-color="#DEE6F1" offset="0"/>
<stop stop-color="#000000" offset="1"/>
</linearGradient>
<polygon fill="url(#SVGID_1)" points="16.954,14.576 16.954,14.576 17.071,27.306 17.891,27.447 18.177,14.519 "/>
<linearGradient id="SVGID_2" gradientUnits="userSpaceOnUse" x1="15.46" y1="19.36" x2="18.85" y2="21.32">
<stop stop-color="#DEE6F1" offset="0"/>
<stop stop-color="#000000" offset="1"/>
</linearGradient>
<polygon fill="url(#SVGID_2)" points="17.888,14.661 17.888,14.661 17.891,27.447 18.438,26.811 18.46,14.419 "/>
<linearGradient id="SVGID_3" gradientUnits="userSpaceOnUse" x1="17.43" y1="13.73" x2="19.2" y2="18.6">
<stop stop-color="#DEE6F1" offset="0"/>
<stop stop-color="#000000" offset="1"/>
</linearGradient>
<polygon fill="url(#SVGID_3)" points="16.967,14.574 16.967,14.574 17.624,14.353 18.46,14.419 17.888,14.661 "/>
<linearGradient id="SVGID_4" gradientUnits="userSpaceOnUse" x1="25.1" y1="13.91" x2="28.93" y2="23.69">
<stop stop-color="#DEE6F1" offset="0"/>
<stop stop-color="#000000" offset="1"/>
</linearGradient>
<path d="M27.288,16.873c0.008,2.415,0.016,4.83,0.024,7.244c0.181-0.276,0.362-0.568,0.544-0.876 c-0.018-2.326-0.035-4.652-0.053-6.979C27.632,16.48,27.46,16.684,27.288,16.873z" fill="url(#SVGID_4)"/>
<linearGradient id="SVGID_5" gradientUnits="userSpaceOnUse" x1="22.85" y1="15.8" x2="23.83" y2="23">
<stop stop-color="#DEE6F1" offset="0"/>
<stop stop-color="#000000" offset="1"/>
</linearGradient>
<path d="M17.86,15.016c3.135-1.183,6.27,2.49,9.404,1.884c0.18-0.198,0.359-0.409,0.539-0.637 c-3.123,1.157-6.246-2.451-9.369-1.798C18.243,14.632,18.052,14.814,17.86,15.016z" fill="url(#SVGID_5)"/>
<path d="M27.316,24.12c-3.145,0.594-6.29-3.172-9.435-2.071c-0.005-2.346-0.009-4.691-0.014-7.038 c3.134-1.172,6.269,2.498,9.402,1.886C27.286,19.305,27.302,21.713,27.316,24.12z"/>
<path d="M20.524,15.072c-0.443-0.117-0.887-0.189-1.33-0.191c0.005,0.434,0.008,0.867,0.012,1.301 c0.443,0.004,0.887,0.078,1.329,0.198C20.531,15.944,20.528,15.509,20.524,15.072z" fill="#FFFFFF"/>
<path d="M23.209,16.127c-0.448-0.197-0.897-0.402-1.347-0.588c0.004,0.438,0.007,0.876,0.01,1.313 c0.447,0.187,0.896,0.393,1.345,0.593C23.214,17.006,23.212,16.566,23.209,16.127z" fill="#FFFFFF"/>
<path d="M18.022,17.779c0.398-0.127,0.799-0.179,1.197-0.173c-0.004-0.475-0.009-0.949-0.014-1.424v-0.001 c-0.399-0.004-0.799,0.052-1.199,0.182C18.012,16.835,18.017,17.307,18.022,17.779z" fill="#FFFFFF"/>
<path d="M20.547,17.813c0.444,0.123,0.89,0.291,1.334,0.479c-0.003-0.479-0.006-0.958-0.009-1.438c0,0,0,0,0-0.001 c-0.446-0.186-0.892-0.352-1.337-0.473c0,0,0,0,0,0.001C20.539,16.858,20.543,17.336,20.547,17.813z" fill="#FFFFFF"/>
<path d="M23.225,18.886c0.45,0.202,0.901,0.396,1.352,0.557c-0.002-0.481-0.004-0.963-0.007-1.444v-0.001 c-0.451-0.159-0.901-0.353-1.353-0.552l0,0C23.22,17.926,23.222,18.406,23.225,18.886z" fill="#FFFFFF"/>
<path d="M20.547,17.815c0,0,0-0.002,0-0.003c-0.442-0.121-0.885-0.198-1.327-0.206c0,0.001,0,0.003,0,0.003 c0.005,0.474,0.01,0.946,0.014,1.42c0.441,0.011,0.883,0.09,1.325,0.215C20.554,18.767,20.551,18.291,20.547,17.815z" fill="#FFFFFF"/>
<path d="M21.892,19.728c0.447,0.189,0.894,0.398,1.341,0.6c-0.003-0.479-0.006-0.959-0.008-1.438 c0-0.001,0-0.002,0-0.003c-0.448-0.2-0.896-0.407-1.343-0.596c0,0,0,0.001,0,0.002C21.885,18.771,21.888,19.248,21.892,19.728z" fill="#FFFFFF"/>
<path d="M18.036,19.192c0.006,0.47,0.01,0.94,0.016,1.41c0.398-0.12,0.797-0.165,1.195-0.153 c-0.005-0.474-0.01-0.946-0.014-1.42C18.835,19.021,18.436,19.069,18.036,19.192z" fill="#FFFFFF"/>
<path d="M20.559,19.244c0.003,0.476,0.007,0.951,0.011,1.427c0.444,0.127,0.889,0.298,1.332,0.488 c-0.004-0.477-0.007-0.955-0.01-1.433C21.447,19.538,21.002,19.368,20.559,19.244z" fill="#FFFFFF"/>
<path d="M23.232,20.327c0.003,0.479,0.005,0.957,0.008,1.436c0.449,0.205,0.898,0.401,1.349,0.563 c-0.002-0.48-0.004-0.96-0.007-1.439C24.132,20.726,23.683,20.53,23.232,20.327z" fill="#FFFFFF"/>
<path d="M25.929,17.021c-0.455-0.062-0.91-0.185-1.364-0.344c0.002,0.439,0.003,0.88,0.005,1.32 c0.455,0.159,0.909,0.285,1.363,0.346C25.931,17.903,25.93,17.462,25.929,17.021z" fill="#FFFFFF"/>
<path d="M25.937,19.792c0.416,0.059,0.832,0.064,1.247-0.004c-0.001-0.484-0.001-0.969-0.003-1.453 c-0.416,0.069-0.832,0.065-1.248,0.008c0,0,0,0.001,0,0.002C25.935,18.827,25.936,19.31,25.937,19.792z" fill="#FFFFFF"/>
<path d="M24.576,19.499c0.002,0.48,0.005,0.961,0.006,1.441c0.453,0.129,0.905,0.222,1.359,0.252 c-0.002-0.48-0.003-0.963-0.005-1.443c0-0.001,0-0.002,0-0.002c-0.453-0.03-0.907-0.123-1.36-0.25 C24.576,19.499,24.576,19.499,24.576,19.499z" fill="#FFFFFF"/>
<path d="M19.259,21.736c0.44,0.016,0.881,0.101,1.321,0.229c-0.003-0.432-0.007-0.862-0.011-1.294 c-0.44-0.127-0.881-0.209-1.322-0.222C19.251,20.878,19.255,21.308,19.259,21.736z" fill="#FFFFFF"/>
<path d="M21.91,22.459c0.445,0.192,0.892,0.404,1.337,0.608c-0.002-0.435-0.004-0.869-0.007-1.304 c-0.446-0.202-0.894-0.412-1.339-0.604C21.904,21.592,21.907,22.025,21.91,22.459z" fill="#FFFFFF"/>
<path d="M24.589,22.326c0.002,0.436,0.003,0.871,0.006,1.307c0.451,0.163,0.902,0.292,1.354,0.358 c-0.001-0.437-0.003-0.873-0.004-1.309C25.493,22.616,25.041,22.488,24.589,22.326L24.589,22.326z" fill="#FFFFFF"/>
<path d="M27.188,22.684c0-0.481-0.002-0.964-0.002-1.445c-0.416,0.066-0.83,0.06-1.245,0.001 c0.001,0.481,0.003,0.961,0.004,1.443C26.36,22.743,26.774,22.75,27.188,22.684z" fill="#FFFFFF"/>
<linearGradient id="SVGID_6" gradientUnits="userSpaceOnUse" x1="9.53" y1="15.53" x2="12.39" y2="21.18">
<stop stop-color="#A2C2DD" offset="0.1"/>
<stop stop-color="#6C83BB" offset="0.71"/>
<stop stop-color="#003D6D" offset="0.99"/>
</linearGradient>
<path d="M6.876,11.711c0,1.121,0.579,2.134,1.522,2.717c-0.361,0.109-1.224,0.373-1.224,0.373l-1.461,5.218 l6.309,1.309l2.976-2.249l-1.782-4.693c0,0-0.811-0.063-1.234-0.097c0.813-0.6,1.308-1.555,1.308-2.577 c0-1.769-1.438-3.207-3.206-3.207C8.314,8.504,6.876,9.942,6.876,11.711z" fill="url(#SVGID_6)"/>
<linearGradient id="SVGID_7" gradientUnits="userSpaceOnUse" x1="13.9" y1="11.87" x2="12.17" y2="21.34">
<stop stop-color="#FFFFFF" offset="0"/>
<stop stop-color="#A2C2DD" offset="0.35"/>
<stop stop-color="#6C83BB" offset="0.7"/>
<stop stop-color="#003D6D" offset="1"/>
</linearGradient>
<polygon fill="url(#SVGID_7)" points="11.992,21.19 11.007,15.367 13.126,14.506 14.845,19.034 "/>
<linearGradient id="SVGID_8" gradientUnits="userSpaceOnUse" x1="6.25" y1="13.97" x2="12.73" y2="15.18">
<stop stop-color="#FFFFFF" offset="0.15"/>
<stop stop-color="#A2C2DD" offset="1"/>
</linearGradient>
<polygon fill="url(#SVGID_8)" points="13.126,14.506 9.556,14.222 7.279,14.902 11.007,15.367 "/>
<linearGradient id="SVGID_9" gradientUnits="userSpaceOnUse" x1="12.2" y1="14.52" x2="1.58" y2="29.15">
<stop stop-color="#FFFFFF" offset="0"/>
<stop stop-color="#A2C2DD" offset="0.35"/>
<stop stop-color="#6C83BB" offset="0.7"/>
<stop stop-color="#003D6D" offset="1"/>
</linearGradient>
<polygon fill="url(#SVGID_9)" points="11.992,21.19 11.007,15.367 7.279,14.902 5.874,19.922 "/>
<polygon fill="#A2C2DD" points="10.512,14.758 12.532,14.463 10.872,14.258 "/>
<radialGradient id="SVGID_10" gradientUnits="userSpaceOnUse" cx="9.44" cy="10.98" r="7.01">
<stop stop-color="#FFFFFF" offset="0"/>
<stop stop-color="#A2C2DD" offset="0.35"/>
<stop stop-color="#6C83BB" offset="0.7"/>
<stop stop-color="#003D6D" offset="1"/>
</radialGradient>
<circle cx="10.083" cy="11.71" fill="url(#SVGID_10)" r="3.079"/>
<linearGradient id="SVGID_11" gradientUnits="userSpaceOnUse" x1="6.33" y1="12.35" x2="14.1" y2="8.95">
<stop stop-color="#E6EEF4" offset="0"/>
<stop stop-color="#C6DCC1" offset="0.08"/>
<stop stop-color="#91C06F" offset="0.21"/>
<stop stop-color="#6BAB33" offset="0.32"/>
<stop stop-color="#539E0E" offset="0.4"/>
<stop stop-color="#4A9900" offset="0.44"/>
<stop stop-color="#398419" offset="0.55"/>
<stop stop-color="#22663B" offset="0.71"/>
<stop stop-color="#135550" offset="0.85"/>
<stop stop-color="#0E4E58" offset="0.94"/>
</linearGradient>
<path d="M11.956,9.602c-0.047,1.894-4.198,1.008-4.953,2.109c0-1.651,1.378-3.079,3.08-3.079 c1.7,0,3.078,1.43,3.078,3.079C12.552,11.571,11.909,10.71,11.956,9.602z" fill="url(#SVGID_11)"/>
</svg>