<?xml version="1.0" encoding="UTF-8"?>
<!DOCTYPE svg PUBLIC "-//W3C//DTD SVG 1.1 Tiny//EN" "http://www.w3.org/Graphics/SVG/1.1/DTD/svg11-tiny.dtd">
<svg baseProfile="tiny" height="44px" version="1.1" viewBox="0 0 44 44" width="44px" x="0px" xmlns="http://www.w3.org/2000/svg" xmlns:xlink="http://www.w3.org/1999/xlink" y="0px">
<path d="M22.699,22.05v-2.717v-2.297v-0.131l-0.098-0.088c-0.871-0.807-2.032-1.25-3.262-1.25  c-2.491,0-5.068,1.871-5.068,4.998c0.002,3.139,2.579,5.012,5.072,5.012c1.232,0,2.391-0.445,3.258-1.254l0.098-0.088v-0.131v-0.957  l-0.504-0.549L22.699,22.05z" fill="none"/>
<linearGradient gradientUnits="userSpaceOnUse" id="SVGID_1_" x1="18.8286" x2="18.8286" y1="6.6499" y2="38.7642">
<stop offset="0" style="stop-color:#B2B2B2"/>
<stop offset="1" style="stop-color:#000000"/>
</linearGradient>
<path d="M19.307,13.067c-0.986,0-1.987,0.191-2.818,0.537c-2.905,1.211-4.713,3.881-4.713,6.967  c0,2.208,0.863,4.245,2.433,5.741c1.45,1.385,3.37,2.18,5.271,2.18c1.077,0,2.083-0.252,2.929-0.701l0.189-0.176l0.152-0.141  l0.186,0.092c0.617,0.311,1.078,0.441,1.602,0.5l1.347-1.463l-2.44-2.648l-0.743-0.807v0.957v0.131l-0.098,0.088  c-0.867,0.809-2.025,1.254-3.258,1.254c-2.493,0-5.07-1.873-5.072-5.012c0-3.127,2.577-4.998,5.068-4.998  c1.229,0,2.391,0.443,3.262,1.25l0.098,0.088v0.131v2.297v2.717l0.743-0.805l1.85-2.01l-0.007-3.256  C23.265,13.448,20.679,13.067,19.307,13.067z" fill="url(#SVGID_1_)"/>
<linearGradient gradientUnits="userSpaceOnUse" id="SVGID_2_" x1="18.4585" x2="18.4585" y1="6.6499" y2="38.7642">
<stop offset="0" style="stop-color:#B2B2B2"/>
<stop offset="1" style="stop-color:#000000"/>
</linearGradient>
<path d="M23.033,31.371c-1.072,0.25-2.206,0.305-3.264,0.305h-0.273h-0.229  c-6.445,0-11.124-4.582-11.124-10.893c0-6.775,4.698-11.693,11.173-11.693c5.084,0,8.366,2.856,10.036,5.734l0.214-0.232  l0.595-0.646h0.877h0.361c-2.137-3.737-6.412-7.127-12.096-7.127c-7.728,0-13.781,6.039-13.785,13.748  c-0.005,3.649,1.391,7.057,3.932,9.6c2.599,2.6,6.101,4.033,9.865,4.033h0.039c1.597-0.002,3.849-0.111,5.41-0.949l-1.252-1.359  L23.033,31.371z" fill="url(#SVGID_2_)"/>
<polygon fill="#FFFFFF" points="23.034,31.371 23.033,31.371 23.513,31.89 "/>
<polygon fill="#FFFFFF" points="23.513,31.89 24.765,33.25 24.765,33.25 "/>
<linearGradient gradientUnits="userSpaceOnUse" id="SVGID_3_" x1="31.6631" x2="31.6631" y1="6.6499" y2="38.7642">
<stop offset="0" style="stop-color:#B2B2B2"/>
<stop offset="1" style="stop-color:#000000"/>
</linearGradient>
<polygon fill="url(#SVGID_3_)" points="30.229,21.88 31.108,21.88 32.335,21.88 34.336,21.88 34.336,23.88 34.336,25.562   38.413,25.562 38.413,19.629 32.265,19.629 32.265,15.945 31.038,15.945 24.913,22.597 27.243,25.126 29.637,22.525 "/>
<linearGradient gradientUnits="userSpaceOnUse" id="SVGID_4_" x1="31.7324" x2="31.7324" y1="6.6499" y2="38.7642">
<stop offset="0" style="stop-color:#B2B2B2"/>
<stop offset="1" style="stop-color:#000000"/>
</linearGradient>
<polygon fill="url(#SVGID_4_)" points="38.482,27.566 38.482,33.5 32.335,33.5 32.335,37.183 31.107,37.183 24.982,30.535   31.107,23.882 32.335,23.882 32.335,27.566 "/>
<rect fill="none" height="44" width="44.001"/>
</svg>
