<?xml version="1.0" encoding="UTF-8" standalone="no"?>
<!DOCTYPE svg PUBLIC "-//W3C//DTD SVG 1.1 Tiny//EN" "http://www.w3.org/Graphics/SVG/1.1/DTD/svg11-tiny.dtd">
<svg xmlns="http://www.w3.org/2000/svg" xmlns:xlink="http://www.w3.org/1999/xlink" baseProfile="tiny" height="32" version="1.1" viewBox="0 0 38.001 32" width="38.001">
<g>
<rect fill="none" height="32" width="38.001"/>
<path d="M6.307,14.641l1.5,2.58c0.111,0.189,0.603,0.641,1.128,0.271l2.758-1.787l-0.183,3.259   c-0.014,0.22,0.15,0.753,0.799,0.847h3c0.663-0.073,0.809-0.627,0.797-0.847l-0.183-3.259l2.76,1.787   c0.184,0.117,0.768,0.245,1.127-0.271l1.5-2.58c0.307-0.634-0.131-1.015-0.328-1.113l-2.935-1.51l2.935-1.507   c0.572-0.316,0.438-0.925,0.328-1.114l-1.5-2.579c-0.402-0.561-0.943-0.391-1.127-0.271l-2.76,1.786l0.183-3.289   c0.011-0.219-0.192-0.839-0.797-0.846h-3c-0.644-0.009-0.811,0.627-0.799,0.846l0.183,3.289L8.935,6.547   C8.75,6.427,8.077,6.341,7.807,6.817l-1.5,2.579c-0.108,0.189-0.267,0.762,0.326,1.114l2.935,1.507l-2.935,1.51   C6.438,13.626,5.993,14.091,6.307,14.641z" fill-opacity="0.4" stroke-opacity="0.4"/>
<path d="M33.8,20.397c-0.01-0.63-0.59-0.8-0.8-0.8h-2.964v-2.961c0.004-0.619-0.588-0.801-0.798-0.801h-2.817   c-0.211,0-0.803,0.197-0.801,0.801v2.961h-2.984c-0.21,0-0.809,0.202-0.8,0.8v2.818c-0.03,0.251,0.282,0.792,0.8,0.8h2.984V27   c0,0.211,0.186,0.758,0.801,0.798h2.817c0.276,0.002,0.839-0.29,0.798-0.798v-2.984H33c0.213,0,0.765-0.236,0.8-0.8V20.397z" fill-opacity="0.4" stroke-opacity="0.4"/>
<path d="M20.62,14.239l-1.5,2.58l-4.081-2.64l0.27,4.829h-3l0.271-4.829l-4.08,2.64L7,14.239l4.318-2.22L7,9.8   l1.5-2.58l4.08,2.64L12.309,5h3l-0.27,4.859l4.081-2.64l1.5,2.58l-4.321,2.22L20.62,14.239z" fill="#FFFFFF"/>
<path d="M33.001,23.216h-3.764V27h-2.816v-3.784h-3.783v-2.816h3.783v-3.763h2.816v3.763h3.764V23.216z" fill="#FFFFFF"/>
</g>
</svg>
