<?xml version="1.0" encoding="UTF-8"?>
<!DOCTYPE svg PUBLIC "-//W3C//DTD SVG 1.1 Tiny//EN" "http://www.w3.org/Graphics/SVG/1.1/DTD/svg11-tiny.dtd">
<svg baseProfile="tiny" height="12" version="1.1" viewBox="0 0 12 12" width="12" xmlns="http://www.w3.org/2000/svg" xmlns:xlink="http://www.w3.org/1999/xlink">
<g>
<rect fill="none" height="12" width="12"/>
<linearGradient gradientTransform="matrix(0 1 1 0 316.8252 -316.8262)" gradientUnits="userSpaceOnUse" id="XMLID_4_" x1="318.0596" x2="327.8438" y1="-309.6631" y2="-309.6631">
<stop offset="0" style="stop-color:#788FB8"/>
<stop offset="1" style="stop-color:#235487"/>
</linearGradient>
<path d="M9.568,10.708H9.566L3.466,7.01h0.002H3.465C2.983,6.694,2.877,6.343,2.873,6.101   c0.004-0.242,0.11-0.592,0.592-0.908l0.002,0.001L3.466,5.192l6.103-3.651L9.57,1.54c0.41-0.224,0.861-0.418,1.277-0.232   c0.416,0.187,0.604,0.562,0.604,0.963v0.09v7.618V9.98c0,0.403-0.188,0.776-0.604,0.963C10.434,11.129,9.979,10.934,9.568,10.708z" fill="url(#XMLID_4_)" fill-opacity="0.8" stroke-opacity="0.8"/>
<path d="M10.932,5.37V2.31c0-0.392-0.482-0.654-0.92-0.415l-6.17,3.74c-0.226,0.147-0.34,0.277-0.34,0.479   c0,0.198,0.114,0.303,0.34,0.452l6.17,3.79c0.438,0.238,0.92-0.021,0.92-0.416V5.37z" fill="#A2C2DD"/>
<linearGradient gradientTransform="matrix(0 1 1 0 316.8252 -316.8262)" gradientUnits="userSpaceOnUse" id="XMLID_5_" x1="304.1475" x2="343.6312" y1="-309.5859" y2="-309.5859">
<stop offset="0" style="stop-color:#FFFFFF"/>
<stop offset="0.1142" style="stop-color:#E0EAF3"/>
<stop offset="0.35" style="stop-color:#A2C2DD"/>
<stop offset="0.4825" style="stop-color:#8CA9CF"/>
<stop offset="0.7" style="stop-color:#6C83BB"/>
<stop offset="0.7458" style="stop-color:#637DB5"/>
<stop offset="0.8189" style="stop-color:#4C6EA4"/>
<stop offset="0.9097" style="stop-color:#265689"/>
<stop offset="0.9888" style="stop-color:#003D6D"/>
<stop offset="1" style="stop-color:#003D6D"/>
</linearGradient>
<path d="M3.969,5.873c0.012-0.007,6.162-3.737,6.162-3.737   c0.303-0.165,0.551,0.008,0.551,0.174v7.63c0,0.145-0.209,0.361-0.559,0.169L3.965,6.325C3.705,6.154,3.777,5.998,3.969,5.873z" fill="url(#XMLID_5_)" fill-opacity="0.6" stroke-opacity="0.6"/>
<linearGradient gradientTransform="matrix(0 1 1 0 316.8252 -316.8262)" gradientUnits="userSpaceOnUse" id="XMLID_6_" x1="318.9912" x2="328.0024" y1="-309.498" y2="-309.498">
<stop offset="0" style="stop-color:#E1EBF4"/>
<stop offset="0.4944" style="stop-color:#CEE1EF"/>
<stop offset="1" style="stop-color:#C5CEEF"/>
</linearGradient>
<path d="M10.334,2.5L4.32,6.082c0.004,0.003,6.014,3.664,6.014,3.664V2.5z" fill="url(#XMLID_6_)"/>
<g fill-opacity="0.5" stroke-opacity="0.5">
<path d="M3.969,5.873c0.012-0.007,6.162-3.737,6.162-3.737c0.266-0.145,0.551-0.015,0.551,0.174v3.768H3.797    C3.809,6.037,3.809,5.977,3.969,5.873z" fill="#FFFFFF"/>
</g>
</g>
</svg>
