<?xml version="1.0" encoding="UTF-8"?>
<!DOCTYPE svg PUBLIC "-//W3C//DTD SVG 1.1 Tiny//EN" "http://www.w3.org/Graphics/SVG/1.1/DTD/svg11-tiny.dtd">
<svg baseProfile="tiny" height="20" version="1.1" viewBox="-0.239 -0.204 306 20" width="306" xmlns="http://www.w3.org/2000/svg" xmlns:xlink="http://www.w3.org/1999/xlink">
<g>
<g>
<g>
<g>
<linearGradient gradientTransform="matrix(1 0 0 -1 0.1577 18.8145)" gradientUnits="userSpaceOnUse" id="XMLID_25_" x1="25.6021" x2="25.6021" y1="18.0186" y2="0.0186">
<stop offset="0" style="stop-color:#FFFFFF"/>
<stop offset="0.1" style="stop-color:#FFFFFF"/>
<stop offset="0.5" style="stop-color:#D3D8DD"/>
<stop offset="1" style="stop-color:#9BA1A8"/>
</linearGradient>
<polygon fill="url(#XMLID_25_)" points="9.761,0.796 27.761,18.796 41.761,18.796 23.761,0.796 "/>
<linearGradient gradientTransform="matrix(1 0 0 -1 0.1577 18.8145)" gradientUnits="userSpaceOnUse" id="XMLID_26_" x1="53.6021" x2="53.6021" y1="18.0186" y2="0.0186">
<stop offset="0" style="stop-color:#FFFFFF"/>
<stop offset="0.1" style="stop-color:#FFFFFF"/>
<stop offset="0.5" style="stop-color:#D3D8DD"/>
<stop offset="1" style="stop-color:#9BA1A8"/>
</linearGradient>
<polygon fill="url(#XMLID_26_)" points="37.761,0.796 55.761,18.796 69.761,18.796 51.761,0.796 "/>
<linearGradient gradientTransform="matrix(1 0 0 -1 0.1577 18.8145)" gradientUnits="userSpaceOnUse" id="XMLID_27_" x1="81.6021" x2="81.6021" y1="18.0186" y2="0.0186">
<stop offset="0" style="stop-color:#FFFFFF"/>
<stop offset="0.1" style="stop-color:#FFFFFF"/>
<stop offset="0.5" style="stop-color:#D3D8DD"/>
<stop offset="1" style="stop-color:#9BA1A8"/>
</linearGradient>
<polygon fill="url(#XMLID_27_)" points="65.761,0.796 83.761,18.796 97.761,18.796 79.761,0.796 "/>
<linearGradient gradientTransform="matrix(1 0 0 -1 0.1577 18.8145)" gradientUnits="userSpaceOnUse" id="XMLID_28_" x1="109.6021" x2="109.6021" y1="18.0186" y2="0.0186">
<stop offset="0" style="stop-color:#FFFFFF"/>
<stop offset="0.1" style="stop-color:#FFFFFF"/>
<stop offset="0.5" style="stop-color:#D3D8DD"/>
<stop offset="1" style="stop-color:#9BA1A8"/>
</linearGradient>
<polygon fill="url(#XMLID_28_)" points="93.761,0.796 111.761,18.796 125.761,18.796 107.761,0.796 "/>
<linearGradient gradientTransform="matrix(1 0 0 -1 0.1577 18.8145)" gradientUnits="userSpaceOnUse" id="XMLID_29_" x1="137.6021" x2="137.6021" y1="18.0186" y2="0.0186">
<stop offset="0" style="stop-color:#FFFFFF"/>
<stop offset="0.1" style="stop-color:#FFFFFF"/>
<stop offset="0.5" style="stop-color:#D3D8DD"/>
<stop offset="1" style="stop-color:#9BA1A8"/>
</linearGradient>
<polygon fill="url(#XMLID_29_)" points="121.761,0.796 139.761,18.796 153.761,18.796 135.761,0.796 "/>
<linearGradient gradientTransform="matrix(1 0 0 -1 0.1577 18.8145)" gradientUnits="userSpaceOnUse" id="XMLID_30_" x1="165.6025" x2="165.6025" y1="18.0186" y2="0.0186">
<stop offset="0" style="stop-color:#FFFFFF"/>
<stop offset="0.1" style="stop-color:#FFFFFF"/>
<stop offset="0.5" style="stop-color:#D3D8DD"/>
<stop offset="1" style="stop-color:#9BA1A8"/>
</linearGradient>
<polygon fill="url(#XMLID_30_)" points="149.761,0.796 167.761,18.796 181.761,18.796 163.761,0.796 "/>
<linearGradient gradientTransform="matrix(1 0 0 -1 0.1577 18.8145)" gradientUnits="userSpaceOnUse" id="XMLID_31_" x1="193.6025" x2="193.6025" y1="18.0186" y2="0.0186">
<stop offset="0" style="stop-color:#FFFFFF"/>
<stop offset="0.1" style="stop-color:#FFFFFF"/>
<stop offset="0.5" style="stop-color:#D3D8DD"/>
<stop offset="1" style="stop-color:#9BA1A8"/>
</linearGradient>
<polygon fill="url(#XMLID_31_)" points="177.761,0.796 195.761,18.796 209.761,18.796 191.761,0.796 "/>
<linearGradient gradientTransform="matrix(1 0 0 -1 0.1577 18.8145)" gradientUnits="userSpaceOnUse" id="XMLID_32_" x1="221.6025" x2="221.6025" y1="18.0186" y2="0.0186">
<stop offset="0" style="stop-color:#FFFFFF"/>
<stop offset="0.1" style="stop-color:#FFFFFF"/>
<stop offset="0.5" style="stop-color:#D3D8DD"/>
<stop offset="1" style="stop-color:#9BA1A8"/>
</linearGradient>
<polygon fill="url(#XMLID_32_)" points="205.761,0.796 223.761,18.796 237.761,18.796 219.761,0.796 "/>
<linearGradient gradientTransform="matrix(1 0 0 -1 0.1577 18.8145)" gradientUnits="userSpaceOnUse" id="XMLID_33_" x1="249.6025" x2="249.6025" y1="18.0186" y2="0.0186">
<stop offset="0" style="stop-color:#FFFFFF"/>
<stop offset="0.1" style="stop-color:#FFFFFF"/>
<stop offset="0.5" style="stop-color:#D3D8DD"/>
<stop offset="1" style="stop-color:#9BA1A8"/>
</linearGradient>
<polygon fill="url(#XMLID_33_)" points="233.761,0.796 251.761,18.796 265.761,18.796 247.761,0.796 "/>
<linearGradient gradientTransform="matrix(1 0 0 -1 0.1577 18.8145)" gradientUnits="userSpaceOnUse" id="XMLID_34_" x1="277.6025" x2="277.6025" y1="18.0186" y2="0.0186">
<stop offset="0" style="stop-color:#FFFFFF"/>
<stop offset="0.1" style="stop-color:#FFFFFF"/>
<stop offset="0.5" style="stop-color:#D3D8DD"/>
<stop offset="1" style="stop-color:#9BA1A8"/>
</linearGradient>
<polygon fill="url(#XMLID_34_)" points="261.761,0.796 279.761,18.796 293.761,18.796 275.761,0.796 "/>
<linearGradient gradientTransform="matrix(1 0 0 -1 0.1577 18.8145)" gradientUnits="userSpaceOnUse" id="XMLID_35_" x1="7.1021" x2="7.102" y1="18.9277" y2="0.0186">
<stop offset="0" style="stop-color:#FFFFFF"/>
<stop offset="0.1" style="stop-color:#FFFFFF"/>
<stop offset="0.5" style="stop-color:#D3D8DD"/>
<stop offset="1" style="stop-color:#9BA1A8"/>
</linearGradient>
<path d="M0.761,17.507c0,0.711,0.668,1.289,1.487,1.289h11.513l-13-13V17.507z" fill="url(#XMLID_35_)"/>
</g>
<g>
<linearGradient gradientTransform="matrix(1 0 0 -1 0.1577 18.8145)" gradientUnits="userSpaceOnUse" id="XMLID_36_" x1="39.6021" x2="39.6021" y1="18.0186" y2="0.7218">
<stop offset="0" style="stop-color:#CFECFF"/>
<stop offset="0.1" style="stop-color:#CFECFF"/>
<stop offset="0.5" style="stop-color:#87A8CB"/>
<stop offset="0.882" style="stop-color:#496DA2"/>
<stop offset="1" style="stop-color:#2B5473"/>
</linearGradient>
<polygon fill="url(#XMLID_36_)" points="23.761,0.796 41.761,18.796 55.761,18.796 37.761,0.796 "/>
<linearGradient gradientTransform="matrix(1 0 0 -1 0.1577 18.8145)" gradientUnits="userSpaceOnUse" id="XMLID_37_" x1="67.6021" x2="67.6021" y1="18.0186" y2="0.7218">
<stop offset="0" style="stop-color:#CFECFF"/>
<stop offset="0.1" style="stop-color:#CFECFF"/>
<stop offset="0.5" style="stop-color:#87A8CB"/>
<stop offset="0.882" style="stop-color:#496DA2"/>
<stop offset="1" style="stop-color:#2B5473"/>
</linearGradient>
<polygon fill="url(#XMLID_37_)" points="51.761,0.796 69.761,18.796 83.761,18.796 65.761,0.796 "/>
<linearGradient gradientTransform="matrix(1 0 0 -1 0.1577 18.8145)" gradientUnits="userSpaceOnUse" id="XMLID_38_" x1="95.6021" x2="95.6021" y1="18.0186" y2="0.7218">
<stop offset="0" style="stop-color:#CFECFF"/>
<stop offset="0.1" style="stop-color:#CFECFF"/>
<stop offset="0.5" style="stop-color:#87A8CB"/>
<stop offset="0.882" style="stop-color:#496DA2"/>
<stop offset="1" style="stop-color:#2B5473"/>
</linearGradient>
<polygon fill="url(#XMLID_38_)" points="79.761,0.796 97.761,18.796 111.761,18.796 93.761,0.796 "/>
<linearGradient gradientTransform="matrix(1 0 0 -1 0.1577 18.8145)" gradientUnits="userSpaceOnUse" id="XMLID_39_" x1="123.6021" x2="123.6021" y1="18.0186" y2="0.7218">
<stop offset="0" style="stop-color:#CFECFF"/>
<stop offset="0.1" style="stop-color:#CFECFF"/>
<stop offset="0.5" style="stop-color:#87A8CB"/>
<stop offset="0.882" style="stop-color:#496DA2"/>
<stop offset="1" style="stop-color:#2B5473"/>
</linearGradient>
<polygon fill="url(#XMLID_39_)" points="107.761,0.796 125.761,18.796 139.761,18.796 121.761,0.796 "/>
<linearGradient gradientTransform="matrix(1 0 0 -1 0.1577 18.8145)" gradientUnits="userSpaceOnUse" id="XMLID_40_" x1="151.6021" x2="151.6021" y1="18.0186" y2="0.7218">
<stop offset="0" style="stop-color:#CFECFF"/>
<stop offset="0.1" style="stop-color:#CFECFF"/>
<stop offset="0.5" style="stop-color:#87A8CB"/>
<stop offset="0.882" style="stop-color:#496DA2"/>
<stop offset="1" style="stop-color:#2B5473"/>
</linearGradient>
<polygon fill="url(#XMLID_40_)" points="135.761,0.796 153.761,18.796 167.761,18.796 149.761,0.796 "/>
<linearGradient gradientTransform="matrix(1 0 0 -1 0.1577 18.8145)" gradientUnits="userSpaceOnUse" id="XMLID_41_" x1="179.6025" x2="179.6025" y1="18.0186" y2="0.7218">
<stop offset="0" style="stop-color:#CFECFF"/>
<stop offset="0.1" style="stop-color:#CFECFF"/>
<stop offset="0.5" style="stop-color:#87A8CB"/>
<stop offset="0.882" style="stop-color:#496DA2"/>
<stop offset="1" style="stop-color:#2B5473"/>
</linearGradient>
<polygon fill="url(#XMLID_41_)" points="163.761,0.796 181.761,18.796 195.761,18.796 177.761,0.796 "/>
<linearGradient gradientTransform="matrix(1 0 0 -1 0.1577 18.8145)" gradientUnits="userSpaceOnUse" id="XMLID_42_" x1="207.6025" x2="207.6025" y1="18.0186" y2="0.7218">
<stop offset="0" style="stop-color:#CFECFF"/>
<stop offset="0.1" style="stop-color:#CFECFF"/>
<stop offset="0.5" style="stop-color:#87A8CB"/>
<stop offset="0.882" style="stop-color:#496DA2"/>
<stop offset="1" style="stop-color:#2B5473"/>
</linearGradient>
<polygon fill="url(#XMLID_42_)" points="191.761,0.796 209.761,18.796 223.761,18.796 205.761,0.796 "/>
<linearGradient gradientTransform="matrix(1 0 0 -1 0.1577 18.8145)" gradientUnits="userSpaceOnUse" id="XMLID_43_" x1="235.6025" x2="235.6025" y1="18.0186" y2="0.7218">
<stop offset="0" style="stop-color:#CFECFF"/>
<stop offset="0.1" style="stop-color:#CFECFF"/>
<stop offset="0.5" style="stop-color:#87A8CB"/>
<stop offset="0.882" style="stop-color:#496DA2"/>
<stop offset="1" style="stop-color:#2B5473"/>
</linearGradient>
<polygon fill="url(#XMLID_43_)" points="219.761,0.796 237.761,18.796 251.761,18.796 233.761,0.796 "/>
<linearGradient gradientTransform="matrix(1 0 0 -1 0.1577 18.8145)" gradientUnits="userSpaceOnUse" id="XMLID_44_" x1="263.6025" x2="263.6025" y1="18.0186" y2="0.7218">
<stop offset="0" style="stop-color:#CFECFF"/>
<stop offset="0.1" style="stop-color:#CFECFF"/>
<stop offset="0.5" style="stop-color:#87A8CB"/>
<stop offset="0.882" style="stop-color:#496DA2"/>
<stop offset="1" style="stop-color:#2B5473"/>
</linearGradient>
<polygon fill="url(#XMLID_44_)" points="247.761,0.796 265.761,18.796 279.761,18.796 261.761,0.796 "/>
<g>
<path d="M2.248,0.796c-0.819,0-1.487,0.578-1.487,1.289v15.422c0,0.711,0.668,1.289,1.487,1.289h291.513l-18-18 H2.248z" fill="none"/>
<linearGradient gradientTransform="matrix(1 0 0 -1 0.1577 18.8145)" gradientUnits="userSpaceOnUse" id="XMLID_45_" x1="297.1025" x2="297.1025" y1="18.0186" y2="-0.444">
<stop offset="0" style="stop-color:#FFFFFF"/>
<stop offset="0.1" style="stop-color:#FFFFFF"/>
<stop offset="0.5" style="stop-color:#D3D8DD"/>
<stop offset="1" style="stop-color:#9BA1A8"/>
</linearGradient>
<path d="M303.273,0.796h-13.513l15,15V2.085C304.761,1.374,304.093,0.796,303.273,0.796z" fill="url(#XMLID_45_)"/>
<linearGradient gradientTransform="matrix(1 0 0 -1 0.1577 18.8145)" gradientUnits="userSpaceOnUse" id="XMLID_46_" x1="290.1025" x2="290.1025" y1="18.0186" y2="0.7218">
<stop offset="0" style="stop-color:#CFECFF"/>
<stop offset="0.1" style="stop-color:#CFECFF"/>
<stop offset="0.5" style="stop-color:#87A8CB"/>
<stop offset="0.882" style="stop-color:#496DA2"/>
<stop offset="1" style="stop-color:#2B5473"/>
</linearGradient>
<path d="M275.761,0.796l18,18h9.513c0.819,0,1.487-0.578,1.487-1.289v-1.711l-15-15H275.761z" fill="url(#XMLID_46_)"/>
</g>
</g>
<g>
<path d="M0.761,17.507c0,0.711,0.668,1.289,1.487,1.289h11.513l-13-13V17.507z" fill="none"/>
<path d="M303.273,0.796H9.761l18,18h275.513c0.819,0,1.487-0.578,1.487-1.289V2.085 C304.761,1.374,304.093,0.796,303.273,0.796z" fill="none"/>
<linearGradient gradientTransform="matrix(1 0 0 -1 0.1577 18.8145)" gradientUnits="userSpaceOnUse" id="XMLID_47_" x1="14.1021" x2="14.102" y1="18.0186" y2="0.7218">
<stop offset="0" style="stop-color:#CFECFF"/>
<stop offset="0.1" style="stop-color:#CFECFF"/>
<stop offset="0.5" style="stop-color:#87A8CB"/>
<stop offset="0.882" style="stop-color:#496DA2"/>
<stop offset="1" style="stop-color:#2B5473"/>
</linearGradient>
<path d="M2.248,0.796c-0.819,0-1.487,0.578-1.487,1.289v3.711l13,13h14l-18-18H2.248z" fill="url(#XMLID_47_)"/>
</g>
</g>
<linearGradient gradientTransform="matrix(1 0 0 -1 0.1577 18.8145)" gradientUnits="userSpaceOnUse" id="XMLID_48_" x1="152.6021" x2="152.6021" y1="20.2686" y2="9.0186">
<stop offset="0" style="stop-color:#FFFFFF"/>
<stop offset="1" style="stop-color:#CFECFF"/>
</linearGradient>
<path d="M303.273,0.796H2.248c-0.819,0-1.487,0.578-1.487,1.289v7.711h304V2.085 C304.761,1.374,304.093,0.796,303.273,0.796z" fill="url(#XMLID_48_)" fill-opacity="0.2"/>
</g>
<rect fill="none" height="20" width="306" x="-0.239" y="-0.204"/>
</g>
</svg>
