<?xml version="1.0" encoding="UTF-8"?>
<!DOCTYPE svg PUBLIC "-//W3C//DTD SVG 1.1 Tiny//EN" "http://www.w3.org/Graphics/SVG/1.1/DTD/svg11-tiny.dtd">
<svg width="32" height="22" viewBox="0 0 32 22">
<path d="M11,4.873v4.256C11,11.724,13.337,14,16,14s5-2.276,5-4.871V4.873C21,2.277,18.663,0,16,0 S11,2.277,11,4.873z M13,9.129V4.873C13,3.229,14.584,2,16,2s3,1.229,3,2.873v4.256C19,10.772,17.416,12,16,12 S13,10.772,13,9.129z"/>
<path d="M23,6.334v3.102C23,13.133,19.29,16,16.098,16C12.815,16,9,13.133,9,9.436V6.334H7v3.102 c0,4.487,4.024,7.927,8,8.479V22h2v-4.06c3.944-0.473,8-3.951,8-8.505V6.334H23z"/>
</svg>