<?xml version="1.0" encoding="UTF-8" standalone="no"?>
<!DOCTYPE svg PUBLIC "-//W3C//DTD SVG 1.1 Tiny//EN" "http://www.w3.org/Graphics/SVG/1.1/DTD/svg11-tiny.dtd">
<svg xmlns="http://www.w3.org/2000/svg" xmlns:xlink="http://www.w3.org/1999/xlink" width="54" height="54" viewBox="-2.22 -5.255 54 54">
<rect fill="none" height="54" width="54" x="-2.22" y="-5.255"/>
<linearGradient id="SVGID_1" gradientUnits="userSpaceOnUse" x1="24.95" y1="0" x2="24.95" y2="45.75">
<stop stop-color="#B2B2B2" offset="0"/>
<stop stop-color="#000000" offset="1"/>
</linearGradient>
<path d="M34.364,23.867h-8.901V20.4h9.252l5.224-5.222h-2.612L29.492,7.34V4.729h-2.611V7.34l-1.418,1.42 V5.435h-6.806v3.727h-4.786v-7.57h28.854v17.213h1.698V0h-32.25v9.161H6.851V5.435H0v29.811h6.851v-4.348h11.807v4.348h6.806v-9.786 h7.865L34.364,23.867z M29.492,9.951l5.223,5.228h-5.223V9.951z M25.463,11.369l1.418-1.417v5.227h-1.418V11.369z M4.968,32.14 H1.863v-4.347h3.104V32.14z M4.968,25.309H1.863v-4.348h3.104V25.309z M4.968,18.477H1.863v-4.348h3.104V18.477z M4.968,12.266 H1.863V7.919h3.104V12.266z M18.632,26.55H6.846V13.508h11.786V26.55z M23.6,32.14h-3.104v-4.347H23.6V32.14z M23.6,25.309h-3.104 v-4.348H23.6V25.309z M23.6,18.477h-3.104v-4.348H23.6V18.477z M23.6,12.266h-3.104V7.919H23.6V12.266z M48.615,24.652l-4.396-3.848 h-5.471l-9.09,13.947l0.691,10.993l9.744-2.072l9.797-13.843L48.615,24.652z M44.373,23.214l2.25,1.644l-7.766,11.109l-1.91-1.522 L44.373,23.214z M40.131,22.443l2.719,0.043l-7.484,11.135l-3.008,0.33L40.131,22.443z M34.623,43.073 c-0.076-1.479-1.611-2.726-3.006-2.362c-0.014,0.004-0.023,0.018-0.035,0.021l-0.178-4.758l3.443-0.422l3.445,2.68l0.881,3.654 C39.174,41.887,34.623,43.089,34.623,43.073z M40.619,40.096l-0.729-2.797l7.484-10.816l0.76,2.925L40.619,40.096z" fill="url(#SVGID_1)"/>
</svg>