<?xml version="1.0" encoding="utf-8"?>
<!DOCTYPE svg PUBLIC "-//W3C//DTD SVG 1.1 Tiny//EN" "http://www.w3.org/Graphics/SVG/1.1/DTD/svg11-tiny.dtd">
<svg width="60" height="80" viewBox="0 0 60 80">
<linearGradient id="_340" gradientUnits="userSpaceOnUse" x1="20.69" y1="30.75" x2="38.19" y2="51.79">
<stop stop-color="#DEE9F3" offset="0"/>
<stop stop-color="#235487" offset="1"/>
</linearGradient>
<circle fill="url(#_340)" cx="29.527" cy="41.367" r="23.417"/>
<radialGradient id="_341" gradientUnits="userSpaceOnUse" cx="34.05" cy="26.71" r="42.04">
<stop stop-color="#FFFFFF" offset="0"/>
<stop stop-color="#A2C2DD" offset="0.53"/>
<stop stop-color="#6C83BB" offset="0.87"/>
<stop stop-color="#003D6D" offset="1"/>
</radialGradient>
<circle fill="url(#_341)" cx="29.566" cy="41.367" r="22.724"/>
<radialGradient id="_342" gradientUnits="userSpaceOnUse" cx="34.36" cy="29.04" r="28.6">
<stop stop-color="#E6EEF4" offset="0"/>
<stop stop-color="#C6DCC1" offset="0.08"/>
<stop stop-color="#91C06F" offset="0.21"/>
<stop stop-color="#6BAB33" offset="0.32"/>
<stop stop-color="#539E0E" offset="0.4"/>
<stop stop-color="#4A9900" offset="0.44"/>
<stop stop-color="#398419" offset="0.55"/>
<stop stop-color="#22663B" offset="0.71"/>
<stop stop-color="#135550" offset="0.85"/>
<stop stop-color="#0E4E58" offset="0.94"/>
</radialGradient>
<path fill="url(#_342)" d="M36.93,34.021c0.231,0.029,1.049,0.059,1.049,0.059s1.02-0.059,0.174-0.438C37.307,33.264,36.725,33.995,36.93,34.021z M49.208,42.893l-2.517-1.078l-0.582-0.875c0,0.006-0.131-0.831-0.68-1.332c-0.82-0.75-1.615-0.421-1.943-0.592c-0.918-0.48-0.854-2.093-3.377-1.447c-1.76-0.441-2.983-1.345-4.426,0.315c-0.127,0.146-2.08-0.158-2.143,0.016c-0.377-0.292-0.785-0.627-0.916-0.408c-0.307-0.83-0.529-0.776-0.092-1.607c0.436-0.83-2.176-0.728-2.176-0.728c0.174-0.35,0.327-1.516,0.37-2.084c0.047-0.609-1.414-0.102-1.458,0.642l-0.99,0.408c-1.903,0.159-2.15-0.986-2.099-2.156c0.117-2.622,3.089-2.098,3.089-2.098s2.088-0.385,2.972,0.117c0.241,0.138,0.362,0.909,1.34,1.398c0.522,0.262-0.685-1.793-0.442-2.112c0.239-0.321,1.666-1.5,1.666-1.5l0.35-1.37c0,0,0.699-0.554,1.078-1.136c0.617-0.073,1.414-0.277,1.414-0.686c0-0.407-1.277-0.979-0.978-0.888c0.793,0.24,1.144,0.072,1.908-0.306c0.327-0.164,0.713,1.18,0.713,1.18s1.137-0.079,0.858-0.328c-0.582-0.524-0.836-1.151-1.93-1.282c-0.508-0.062-1.893-1.268-1.893-1.268c-0.475-0.269-1.574,0.233-1.574-0.116c-0.494-0.396-0.998-0.327-1.521-0.562c-0.391-0.003-0.729,0.408-0.729,0.408s1.252,0.932,0.438,1.281c-0.434,0.186-0.698,0.583-0.698,0.583s-0.439-0.534-0.611-0.786c-0.321-0.466-3.236-0.991-3.236-0.991s1.225-1.077,1.574-0.815c0.349,0.262,1.136-0.132,1.136-0.132s-0.205-0.319,0.32-0.626c0.523-0.306,0.758-0.146,1.02,0.029c0.4,0.266,1.238,1.034,1.632,0.99c0.396-0.044,0.598-0.218,0.729-0.262c0.131-0.044-0.845-0.626-1.281-0.758c-0.438-0.131-2.068-0.786-2.068-0.786s1.486-0.146,2.098,0.029c1.137,0.466,2.768,1.02,2.768,1.02c0.351,0.291,0.505,0.345,0.523,0.438c0.146,0.669,1.607,0.506,1.957,1.234c0.094,0.191,0.461,0.047,0.578-0.361c-0.55-0.549-1.279-1.059-1.714-1.37c-0.049-0.019-0.097-0.039-0.146-0.057c-0.52-0.194-1.049-0.367-1.584-0.523c-0.138-0.04-0.272-0.079-0.41-0.116c-0.528-0.144-1.065-0.269-1.609-0.375c-0.146-0.028-0.294-0.053-0.441-0.079c-0.55-0.096-1.104-0.176-1.668-0.231c-0.135-0.013-0.271-0.021-0.404-0.031c-0.545-0.043-1.093-0.071-1.646-0.075c-0.063,0-0.126-0.005-0.19-0.005c-0.139,0-0.276,0.008-0.415,0.011c-0.31,0.005-0.62,0.014-0.927,0.032c-0.213,0.013-0.424,0.03-0.635,0.048c-0.261,0.022-0.521,0.05-0.78,0.082c-0.204,0.024-0.407,0.047-0.609,0.078c-0.411,0.061-0.818,0.131-1.222,0.213c-0.179,0.037-0.355,0.083-0.533,0.123c-0.267,0.062-0.532,0.125-0.795,0.196c-0.196,0.053-0.39,0.108-0.584,0.166c-0.261,0.078-0.519,0.162-0.776,0.249c-0.169,0.057-0.339,0.11-0.506,0.171c-0.385,0.141-0.765,0.292-1.141,0.453c-0.168,0.072-0.333,0.15-0.499,0.226c-0.245,0.112-0.488,0.227-0.729,0.347c-0.168,0.084-0.335,0.168-0.5,0.256c-0.281,0.15-0.558,0.306-0.832,0.467c-0.089,0.052-0.18,0.101-0.268,0.154c0.637,0.13,1.518,0.247,1.551,0.668c0.049,0.629-0.294,0.939-0.117,1.603c0.176,1.136-1.252,0.874-1.077,3.176c0.092,0.755,0.554,1.106,1.02,1.515c0.524,1.544,1.045,2.168,1.308,2.803c0.479,0.909,0.674,0.635,0.674,0.635l-1.091-2.904l0.14-0.258c0,0,1.371,1.902,2.116,2.754c0.408,0.466,0.567,1.297,0.539,1.675c-0.029,0.379,3.554,1.559,3.554,1.559s0.743-0.451,1.093-0.087c0.014,0.015,0.304,0.025,0.306,0.044c0.107,0.855,2.491,1.063,2.491,1.063c0.104,0.305,1.729,1.297,2.157,1.806c0.754,0.899,1.225,0.933,2.028,0.137c0.437,0.494,0.896,0.888,0.742,1.572c-0.054,0.235-0.097,0.478-0.188,0.716c-0.56,1.396-1.838,1.419-1.65,2.761c0.223,1.593,2.1,4.369,2.506,5.068c3.264,1.342,2.098,1.865,1.621,3.734c-0.031,1.063-0.791,2.063-1.447,3.419c-0.174,0.961-0.58,1.646-0.988,2.812c-0.875,1.049-1.106,1.631-0.934,1.922c0.391,0.651,1.291,0.291,1.98-0.523c0.521-0.615,1.049-1.748,2.176-2.35c1.961-1.047,5.025-2.604,6.561-4.836c0.273-0.629,0.213-0.594,0.824-1.409c0.32,0,1.92-0.981,2.02-1.281c0.008-0.13,0.646-1.117,0.642-1.253c-0.043-1.354,0.521-1.719,0.521-1.719l0.351-0.262l0.602-1.633v-1.281L49.208,42.893z M33.279,32.241c-0.331,0.371-0.135,0.498-0.135,0.498c0.258-0.136,1.392-0.056,1.791,0.523c0.402,0.58,1.269,0.156,1.199-0.038C36.064,33.03,33.611,31.87,33.279,32.241z"/>
</svg>