<?xml version="1.0" encoding="UTF-8" standalone="no"?>
<!DOCTYPE svg PUBLIC "-//W3C//DTD SVG 1.1 Tiny//EN" "http://www.w3.org/Graphics/SVG/1.1/DTD/svg11-tiny.dtd">
<svg xmlns="http://www.w3.org/2000/svg" xmlns:xlink="http://www.w3.org/1999/xlink" baseProfile="tiny" height="32px" version="1.1" viewBox="0 0 38.003 32" width="38.003px" x="0px" y="0px">
<rect fill="none" height="32" width="38.003"/>
<path d="M32.046,18.121c-1.115-0.022-2.018,0.49-2.492,1.213v-0.348c0.029-0.25-0.252-0.781-0.799-0.801h-1.334  c-0.525-0.012-0.791,0.488-0.798,0.801v0.556l-0.487-0.927c-0.137-0.265-0.408-0.43-0.709-0.43h-1.184  c-0.21,0-0.416,0.087-0.564,0.233c-0.006,0.007-0.009,0.016-0.016,0.022c-0.005-0.006-0.007-0.014-0.013-0.02  c-0.149-0.149-0.354-0.236-0.567-0.236h-1.182c-0.3,0-0.574,0.168-0.711,0.437l-0.744,1.456l-0.744-1.456  c-0.141-0.269-0.412-0.437-0.715-0.437h-1.19c-0.292,0.02-0.776,0.238-0.801,0.801v6.025c0.024,0.334,0.196,0.709,0.801,0.802h1.358  c0.6-0.046,0.799-0.589,0.799-0.802v-1.197c0.077,0.024,0.158,0.037,0.241,0.037h0.497c0.084,0,0.167-0.013,0.245-0.038v1.198  c0.021,0.318,0.192,0.725,0.799,0.802h1.347c0.215,0,0.416-0.085,0.567-0.236c0.007-0.006,0.009-0.015,0.015-0.021  c0.006,0.007,0.008,0.016,0.014,0.021c0.148,0.148,0.354,0.236,0.564,0.236h1.333c0.585-0.046,0.804-0.53,0.801-0.802v-0.704  l0.558,1.073c0.137,0.265,0.412,0.433,0.709,0.433h1.111c0.594-0.03,0.799-0.589,0.799-0.802v-0.384  c0.471,0.729,1.357,1.218,2.57,1.252c1.2,0.034,2.068-0.644,2.545-1.467c0.681-1.174,0.633-3.896-0.033-4.932  C34.143,18.713,33.239,18.095,32.046,18.121z" fill-opacity="0.4" stroke-opacity="0.4"/>
<path d="M15.743,14.177c-2.243-2.794-5.889-1.922-6.539-1.709c0.162-0.565,0.733-2.564,2.939-2.485  c0.742,0.026,1.419,0.088,2.269,0.231c0.724,0.122,0.952-0.546,0.952-0.784V7.007c0-0.395-0.288-0.732-0.681-0.789  c-0.867-0.132-1.931-0.188-2.935-0.208c-5.791-0.117-8.51,4.727-8.533,10.608c-0.008,2.037,0.166,4.281,1.105,6.139  c0.911,1.854,2.775,3.233,5.598,3.233c0,0,3.645,0.204,5.445-2.187C18.146,20.112,16.681,15.345,15.743,14.177z M11.046,21.441  c-0.258,0.524-0.338,0.631-0.985,0.678c-0.515-0.032-0.64-0.167-0.912-0.867c-0.218-0.678-0.269-1.739-0.265-2.778  c-0.004-0.732,0.128-1.409,0.354-1.804c0.248-0.392,0.425-0.538,0.945-0.56c0.518,0.033,0.612,0.137,0.853,0.591  c0.209,0.458,0.303,1.262,0.299,2.144C11.339,19.95,11.264,20.907,11.046,21.441z" fill-opacity="0.4" stroke-opacity="0.4"/>
<path d="M23.085,25.013h-1.348v-3.995l-1.045,2.034h-0.496l-1.041-2.034v3.995h-1.358v-6.025h1.192l1.457,2.849  l1.457-2.849h1.182V25.013z" fill="#FFFFFF"/>
<path d="M28.755,25.013h-1.109l-2.068-3.966v3.966h-1.332v-6.025h1.184l1.994,3.815v-3.815h1.332V25.013z" fill="#FFFFFF"/>
<path d="M32.048,25.078c-2.008,0-2.332-1.735-2.332-3.16c0-1.417,0.371-2.996,2.332-2.996  c1.963,0,2.326,1.579,2.326,2.996C34.374,23.35,34.062,25.078,32.048,25.078z M32.048,19.718c-0.852,0-0.918,1.074-0.918,2.2  c0,1.125,0.102,2.364,0.918,2.364c0.854,0,0.912-1.224,0.912-2.364C32.96,20.843,32.878,19.718,32.048,19.718z" fill="#FFFFFF"/>
<path d="M14.564,9.43c-0.889-0.173-1.629-0.247-2.42-0.247c-2.719,0-3.756,2.125-4.027,4.793  c0.791-0.692,1.854-1.014,3.236-1.014c3.557,0,4.816,2.569,4.816,5.781c0,3.532-1.729,6.447-6.15,6.447  c-5.287,0-6.004-4.595-6.004-8.572c0-4.718,1.756-9.807,7.732-9.807c0.965,0,2.002,0.073,2.816,0.197V9.43z M10.168,15.284  c-1.582,0-2.1,1.532-2.1,3.162c0,2.125,0.148,4.447,1.977,4.447c1.852,0,2.074-1.804,2.074-4.076  C12.119,16.965,11.799,15.284,10.168,15.284z" fill="#FFFFFF"/>
</svg>
