<?xml version="1.0" encoding="UTF-8" standalone="no"?>
<!DOCTYPE svg PUBLIC "-//W3C//DTD SVG 1.1 Tiny//EN" "http://www.w3.org/Graphics/SVG/1.1/DTD/svg11-tiny.dtd">
<svg xmlns="http://www.w3.org/2000/svg" xmlns:xlink="http://www.w3.org/1999/xlink" baseProfile="tiny" height="32px" version="1.1" viewBox="0 0 38.001 32" width="38.001px" x="0px" y="0px">
<rect fill="none" height="32" width="38.001"/>
<path d="M30.585,19.368c-1.777,0-3.215,1.438-3.215,3.215c0,0.217,0.022,0.429,0.064,0.634h-0.176  c0.043-0.205,0.064-0.417,0.064-0.634c-0.002-1.774-1.439-3.213-3.217-3.215c-1.771,0.002-3.213,1.438-3.213,3.215  c0,1.774,1.438,3.215,3.213,3.217h6.479c1.771-0.002,3.212-1.44,3.215-3.217C33.797,20.809,32.358,19.37,30.585,19.368z   M24.13,23.212c-0.348,0-0.631-0.284-0.634-0.634c0.003-0.349,0.288-0.634,0.634-0.634c0.351,0,0.634,0.283,0.634,0.634  C24.764,22.928,24.48,23.212,24.13,23.212z M30.608,23.212c-0.351,0-0.637-0.286-0.637-0.634c0-0.349,0.286-0.634,0.637-0.634  c0.348,0,0.633,0.285,0.636,0.634C31.241,22.926,30.956,23.212,30.608,23.212z" fill-opacity="0.4" stroke-opacity="0.4"/>
<path d="M7.99,22.084c-0.212,0-0.798,0.198-0.8,0.8v2.124c0,0.212,0.064,0.691,0.8,0.803h11.364  c0.214,0,0.775-0.153,0.799-0.803v-2.124c-0.066-0.644-0.59-0.8-0.799-0.8h-2.785V6.876c-0.045-0.614-0.587-0.799-0.799-0.799  h-2.148l-0.236,0.034L7.751,7.865C7.417,7.969,7.19,8.28,7.19,8.63v2.125c0,0.242,0.252,0.923,0.969,0.783l2.834-0.608v11.154H7.99z  " fill-opacity="0.4" stroke-opacity="0.4"/>
<path d="M30.585,20.169c-1.332,0-2.414,1.082-2.414,2.415c0,0.541,0.184,1.033,0.482,1.435H26.04  c0.301-0.401,0.484-0.894,0.484-1.435c0-1.331-1.084-2.415-2.416-2.415c-1.33,0-2.414,1.082-2.414,2.415  c0,1.331,1.084,2.416,2.414,2.416c0.051,0,6.408,0,6.477,0c1.33,0,2.416-1.083,2.416-2.416  C33.001,21.253,31.917,20.169,30.585,20.169z M24.108,24.019c-0.791,0-1.434-0.643-1.434-1.435s0.645-1.435,1.434-1.435  c0.793,0,1.434,0.643,1.434,1.435S24.901,24.019,24.108,24.019z M30.585,24.019c-0.791,0-1.436-0.643-1.436-1.435  s0.645-1.435,1.436-1.435s1.436,0.643,1.436,1.435S31.376,24.019,30.585,24.019z" fill="#FFFFFF"/>
<path d="M19.354,25.01H7.99v-2.125h3.805V9.94L7.99,10.756V8.631l5.633-1.754h2.148v16.008h3.583V25.01z" fill="#FFFFFF"/>
</svg>
