<?xml version="1.0" encoding="UTF-8"?>
<!DOCTYPE svg PUBLIC "-//W3C//DTD SVG 1.1 Tiny//EN" "http://www.w3.org/Graphics/SVG/1.1/DTD/svg11-tiny.dtd">
<svg baseProfile="tiny" height="44px" viewBox="0 0 44 44" width="44px" xmlns="http://www.w3.org/2000/svg" xmlns:xlink="http://www.w3.org/1999/xlink">
<path d="M19.055,8.283c-7.727,0-13.782,6.039-13.786,13.748C5.265,25.679,6.661,29.088,9.2,31.63 c2.599,2.601,6.102,4.033,9.867,4.033h0.039c0.991-0.001,2.238-0.045,3.415-0.276v-2.496c-0.994,0.2-2.029,0.249-3,0.249H19.02 c-6.446,0-11.124-4.582-11.124-10.892c0-6.775,4.699-11.693,11.174-11.693c7.498,0,11.088,6.217,11.346,9.547 c0.108,1.392-0.038,2.442-0.264,3.245h2.244c0.173-0.814,0.273-1.75,0.273-2.832C32.669,15.528,27.366,8.283,19.055,8.283z M19.059,14.533c-0.986,0-1.987,0.191-2.817,0.537c-2.906,1.211-4.713,3.881-4.713,6.967c0,2.206,0.863,4.243,2.432,5.739 c1.451,1.386,3.37,2.18,5.27,2.18c1.076,0,2.082-0.252,2.928-0.701l0.189-0.176l0.152-0.141l0.022,0.011v-1.915h2.53v-0.959 l-0.016-8.63C23.015,14.914,20.429,14.533,19.059,14.533z M22.45,25.7l-0.098,0.089c-0.867,0.808-2.025,1.254-3.257,1.254 c-2.493,0-5.071-1.874-5.073-5.012c0-3.128,2.578-4.998,5.069-4.998c1.231,0,2.39,0.443,3.261,1.25l0.098,0.088V25.7z" fill="url(#SVGID_1)"/>
<polygon fill="url(#SVGID_1)" points="24.521,34.966 24.521,29.032 30.67,29.032 30.67,25.349 31.896,25.349 38.021,31.997 31.896,38.649 30.67,38.649 30.67,34.966 "/>
<rect fill="none" height="44" width="44"/>
<defs>
<linearGradient gradientUnits="userSpaceOnUse" id="SVGID_1" x1="18.97" x2="18.97" y1="8.28" y2="38.47">
<stop offset="0" stop-color="#B2B2B2"/>
<stop offset="1" stop-color="#000000"/>
</linearGradient>
</defs>
</svg>
