<?xml version="1.0" encoding="UTF-8"?>
<!DOCTYPE svg PUBLIC "-//W3C//DTD SVG 1.1 Tiny//EN" "http://www.w3.org/Graphics/SVG/1.1/DTD/svg11-tiny.dtd">
<svg width="40" height="40" viewBox="0 -1 40 40">
<path fill="#CEE1EF" d="M3.824,1.021c-0.986,0-1.789,0.789-1.789,1.758v31.453c0,0.969,0.803,1.758,1.789,1.758h31.359 c0.987,0,1.791-0.789,1.791-1.758V2.779c0-0.969-0.804-1.758-1.791-1.758H3.824z"/>
<path fill-opacity="0.8" fill="#FFFFFF" d="M33.396,32.732c0,0.555-0.504,1.002-1.121,1.002H6.732 c-0.616,0-1.119-0.447-1.119-1.002V4.281c0-0.555,0.503-1.004,1.119-1.004h25.541c0.619,0,1.121,0.449,1.121,1.004v28.451H33.396 z"/>
</svg>