<?xml version="1.0" encoding="UTF-8"?>
<!DOCTYPE svg PUBLIC "-//W3C//DTD SVG 1.1 Tiny//EN" "http://www.w3.org/Graphics/SVG/1.1/DTD/svg11-tiny.dtd">
<svg width="60" height="52" viewBox="-0.557 -0.249 60 52">
<linearGradient id="_4" gradientUnits="userSpaceOnUse" x1="29.44" y1="6.95" x2="29.44" y2="45.35">
<stop stop-color="#7D9CAD" offset="0"/>
<stop stop-color="#576F96" offset="0.73"/>
<stop stop-color="#4F6691" offset="1"/>
</linearGradient>
<path d="M51.184,5.75H7.702c-1.245,0-2.259,1.014-2.259,2.26v35.48c0,1.246,1.014,2.26,2.259,2.26 h43.481c1.246,0,2.26-1.014,2.26-2.26V8.01C53.443,6.764,52.43,5.75,51.184,5.75z M52.443,43.49c0,0.695-0.565,1.26-1.26,1.26 H7.702c-0.694,0-1.259-0.564-1.259-1.26V8.01c0-0.695,0.564-1.26,1.259-1.26h43.481c0.694,0,1.26,0.564,1.26,1.26V43.49z" fill="url(#_4)"/>
<g fill-opacity="0.7" stroke-opacity="0.7">
<linearGradient id="_5" gradientUnits="userSpaceOnUse" x1="29.44" y1="50.29" x2="29.44" y2="5.17">
<stop stop-color="#ADB5A8" offset="0.03"/>
<stop stop-color="#C7D9D9" offset="0.26"/>
<stop stop-color="#FFFFFF" offset="0.72"/>
</linearGradient>
<path d="M51.184,6.75H7.702c-0.694,0-1.259,0.564-1.259,1.26v35.48c0,0.695,0.564,1.26,1.259,1.26 h43.481c0.694,0,1.26-0.564,1.26-1.26V8.01C52.443,7.314,51.878,6.75,51.184,6.75z" fill="url(#_5)"/>
</g>
<path d="M52.062,7.127c-0.243-0.252-0.529-0.377-0.878-0.377H7.702c-0.694,0-1.259,0.564-1.259,1.26v35.48 c0,0.346,0.143,0.652,0.372,0.873c0.003,0.014,0.628-0.627,0.628-0.627V7.75h43.999L52.062,7.127z" fill="#FFFFFF"/>
<linearGradient id="_6" gradientUnits="userSpaceOnUse" x1="29.63" y1="11.88" x2="29.63" y2="51.36">
<stop stop-color="#CADCEC" offset="0"/>
<stop stop-color="#809CB3" offset="1"/>
</linearGradient>
<path d="M6.825,44.373c0.243,0.252,0.529,0.377,0.878,0.377h43.481c0.694,0,1.259-0.564,1.259-1.26V8.01 c0-0.346-0.143-0.652-0.372-0.873c-0.003-0.014-0.628,0.627-0.628,0.627s0,35.207,0,35.986c-0.738,0-43.999,0-43.999,0 L6.825,44.373z" fill="url(#_6)"/>
<path d="M29.442,31.541c-1.875-1.873-6.916-6.916-6.916-6.916l-2.666,2.666l9.582,9.584l9.584-9.584 l-2.666-2.666C36.36,24.625,31.317,29.668,29.442,31.541z" fill="#496DA2"/>
<path d="M29.442,21.541c-1.875-1.873-6.916-6.916-6.916-6.916l-2.666,2.666l9.582,9.584l9.584-9.584 l-2.666-2.666C36.36,14.625,31.317,19.668,29.442,21.541z" fill="#496DA2"/>
</svg>