<?xml version="1.0" encoding="UTF-8"?>
<!DOCTYPE svg PUBLIC "-//W3C//DTD SVG 1.1 Tiny//EN" "http://www.w3.org/Graphics/SVG/1.1/DTD/svg11-tiny.dtd">
<svg width="84" height="58" viewBox="-0.781 -0.226 84 58">
<linearGradient id="_6" gradientUnits="userSpaceOnUse" x1="37.72" y1="8.29" x2="62.47" y2="52.05">
<stop stop-color="#FFFFFF" offset="0"/>
<stop stop-color="#A2C2DD" offset="0.35"/>
<stop stop-color="#6C83BB" offset="0.7"/>
<stop stop-color="#003D6D" offset="1"/>
</linearGradient>
<path fill="url(#_6)" d="M64.201,28.54c-1.006-11.199-5.031-14.83-9.666-18.405c-4.073-3.139-15.224-5.031-15.224-5.031 l-6.02,1.968L43.81,51.574c9.136,0.398,14.435,0.797,18.671-8.209C62.48,43.365,64.971,37.094,64.201,28.54z M50.952,40.992 l-5.447-1.32V17.469c0,0,6.167,2.993,7.017,10.175C53.242,33.727,50.952,40.992,50.952,40.992z"/>
<linearGradient id="_7" gradientUnits="userSpaceOnUse" x1="43.27" y1="7.34" x2="42.96" y2="39.62">
<stop stop-color="#FFFFFF" offset="0"/>
<stop stop-color="#A2C2DD" offset="0.35"/>
<stop stop-color="#6C83BB" offset="0.7"/>
<stop stop-color="#003D6D" offset="1"/>
</linearGradient>
<path fill="url(#_7)" d="M40.34,16.628l-0.002,26.821l5.459-3.92l0.012-21.392C43.941,16.845,40.34,16.628,40.34,16.628z"/>
<linearGradient id="_8" gradientUnits="userSpaceOnUse" x1="35.66" y1="31.7" x2="44.32" y2="40.8">
<stop stop-color="#FFFFFF" offset="0"/>
<stop stop-color="#A2C2DD" offset="0.35"/>
<stop stop-color="#6C83BB" offset="0.7"/>
<stop stop-color="#003D6D" offset="1"/>
</linearGradient>
<path fill="url(#_8)" d="M45.846,39.434l-5.879,3.916l5.264,1.088c3.199-0.271,5.76-3.773,5.76-3.773L45.846,39.434z"/>
<linearGradient id="_9" gradientUnits="userSpaceOnUse" x1="27.52" y1="62.64" x2="45.37" y2="26.22">
<stop stop-color="#FFFFFF" offset="0.15"/>
<stop stop-color="#A2C2DD" offset="1"/>
</linearGradient>
<path fill="url(#_9)" d="M55.53,17.95c-2.973-4.316-7.124-7.154-12.345-8.438l-9.893-2.439L33.39,48.49l7.978,2.621 c12.43,3.063,17.883-2.938,18.354-17.83C59.907,27.433,58.493,22.278,55.53,17.95z M49.248,41.908 c-1.76,2.082-2.979,2.732-5.967,1.998c-0.965-0.238-1.844-0.514-2.691-0.803l-0.25-26.476c0.947,0.146,1.748,0.284,2.293,0.419 c6.66,1.643,9.769,6.483,9.503,14.809C51.991,36.43,51.023,39.809,49.248,41.908z"/>
<path fill="#FFFFFF" d="M12.475,33.949c-2.879,0-6.823,0.684-7.824,6.592l-0.149,0.893c0,0,6.635,0,7.422,0 c0.237,0.426,0.592,1.066,0.817,1.475c-0.228,0.408-0.58,1.047-0.817,1.473c-0.787,0-7.422,0-7.422,0l0.149,0.893 c1,5.906,4.945,6.59,7.824,6.59c2.272,0,4.293-1.902,5.92-3.436c0.88-0.828,1.707-1.607,2.146-1.607h20.319l0.225-0.25 c0.439-0.479,1.449-1.791,1.471-3.631v-0.063c-0.02-1.842-1.03-3.152-1.471-3.633l-0.225-0.248H20.542 c-0.439,0-1.268-0.779-2.145-1.604C16.769,35.855,14.747,33.949,12.475,33.949z"/>
<linearGradient id="_10" gradientUnits="userSpaceOnUse" x1="11.09" y1="29.14" x2="33" y2="55.5">
<stop stop-color="#E6EDF3" offset="0"/>
<stop stop-color="#CABAD7" offset="0.12"/>
<stop stop-color="#AB7EB8" offset="0.27"/>
<stop stop-color="#9759A4" offset="0.38"/>
<stop stop-color="#8F4B9C" offset="0.44"/>
<stop stop-color="#73357C" offset="0.57"/>
<stop stop-color="#551D5A" offset="0.72"/>
<stop stop-color="#430E45" offset="0.85"/>
<stop stop-color="#3C093D" offset="0.94"/>
</linearGradient>
<path fill="url(#_10)" d="M41.797,42.906c0-0.008,0.004-0.016,0.004-0.021h-0.006c-0.018-1.602-0.936-2.758-1.271-3.127 c-0.431,0-19.98,0-19.98,0c-0.744,0-1.552-0.762-2.673-1.814c-1.524-1.438-3.426-3.229-5.396-3.229 c-3.194,0-6.221,0.938-7.067,5.955c1.201,0,6.967,0,6.967,0l1.238,2.236l-1.238,2.238c0,0-5.766,0-6.967,0 c0.849,5.018,3.873,5.953,7.067,5.953c1.97,0,3.87-1.789,5.396-3.227c1.121-1.055,1.929-1.814,2.673-1.814c0,0,19.552,0,19.98,0 c0.336-0.369,1.255-1.525,1.271-3.127h0.006C41.801,42.922,41.797,42.916,41.797,42.906z"/>
</svg>