<?xml version="1.0" encoding="UTF-8"?>
<!DOCTYPE svg PUBLIC "-//W3C//DTD SVG 1.1 Tiny//EN" "http://www.w3.org/Graphics/SVG/1.1/DTD/svg11-tiny.dtd">
<svg width="84" height="72" viewBox="0 0 84 72">
<linearGradient id="_24" gradientUnits="userSpaceOnUse" x1="44.38" y1="37.94" x2="54.29" y2="59.73">
<stop stop-color="#A2C2DD" offset="0.1"/>
<stop stop-color="#6C83BB" offset="0.71"/>
<stop stop-color="#003D6D" offset="0.99"/>
</linearGradient>
<path fill="url(#_24)" d="M34.906,11.679c0,0-1.986,6.055-2.158,6.577c-0.571-0.089-15.596-2.423-15.596-2.423 c-1.469-0.01-3.143,0.285-3.906,0.676c-0.119,0.062,1.478,35.171,1.478,35.171c0.006,0.154,22.338,6.16,22.557,6.219 c2.329,3.814,6.09,6.111,11.208,6.803c3.973,0.516,6.892-1.291,6.892-1.291c1.448-0.828,3.166-1.959,6.546-4.635 c3.119-2.471,3.425-13.889,3.425-13.889s-3.064-4.328-3.835-5.395c-0.624-0.797-1.43-1.355-1.471-1.385 c1.357-2.873,4.654-11.899,4.654-11.899s2.031,0.375,2.188,0.281c0.281,0,4.077-8.784,3.11-11.146 c-0.269-0.652-0.729-1.081-1.377-1.276l-32.807-3.303C35.199,10.647,34.906,11.679,34.906,11.679z"/>
<linearGradient id="_25" gradientUnits="userSpaceOnUse" x1="59.74" y1="32" x2="71.29" y2="14.1">
<stop stop-color="#FFFFFF" offset="0"/>
<stop stop-color="#A2C2DD" offset="0.35"/>
<stop stop-color="#6C83BB" offset="0.7"/>
<stop stop-color="#003D6D" offset="1"/>
</linearGradient>
<path fill="url(#_25)" d="M68.014,14.574c3.211,0.651,0.855,7.251-1.463,11.493L63.6,25.725 C63.6,25.727,67.85,14.477,68.014,14.574z"/>
<linearGradient id="_26" gradientUnits="userSpaceOnUse" x1="49.87" y1="14.38" x2="45.75" y2="55.71">
<stop stop-color="#FFFFFF" offset="0"/>
<stop stop-color="#BFDAE1" offset="1"/>
</linearGradient>
<polygon fill="url(#_26)" points="56.725,39.352 32.85,19.727 35.777,11.379 66.314,14.868 "/>
<linearGradient id="_27" gradientUnits="userSpaceOnUse" x1="49.5" y1="10.11" x2="49.94" y2="28.27">
<stop stop-color="#FFFFFF" offset="0.15"/>
<stop stop-color="#A2C2DD" offset="1"/>
</linearGradient>
<path fill="url(#_27)" d="M56.225,41.102L32.85,19.352l2.578-7.782l31.074,3.953L56.225,41.102z M37.773,13.516 c-0.621-0.088-1.293,0.354-1.498,0.98c-0.209,0.626,0.125,1.207,0.738,1.293c0.615,0.088,1.287-0.354,1.5-0.98 C38.725,14.18,38.393,13.602,37.773,13.516z M36.387,17.641c-0.609-0.084-1.277,0.353-1.48,0.98 c-0.209,0.627,0.115,1.209,0.723,1.295c0.609,0.086,1.271-0.353,1.48-0.98C37.324,18.307,37,17.727,36.387,17.641z M62.328,17.316c-0.645-0.072-1.354,0.403-1.586,1.057c-0.232,0.654,0.098,1.244,0.736,1.313c0.637,0.072,1.346-0.4,1.58-1.057 C63.301,17.973,62.971,17.383,62.328,17.316z M60.775,21.617c-0.631-0.069-1.336,0.401-1.568,1.058 c-0.232,0.655,0.09,1.244,0.717,1.314c0.633,0.072,1.334-0.4,1.57-1.059C61.732,22.279,61.41,21.689,60.775,21.617z M59.225,25.92c-0.625-0.07-1.322,0.402-1.555,1.057c-0.23,0.656,0.082,1.244,0.703,1.318c0.615,0.07,1.313-0.404,1.551-1.059 C60.16,26.583,59.848,25.994,59.225,25.92z M57.67,30.223c-0.617-0.069-1.309,0.402-1.537,1.058 c-0.234,0.653,0.072,1.242,0.686,1.313c0.609,0.074,1.295-0.396,1.529-1.053C58.59,30.885,58.285,30.297,57.67,30.223z M56.117,34.528c-0.611-0.073-1.291,0.4-1.523,1.055c-0.232,0.653,0.064,1.246,0.67,1.319c0.6,0.07,1.277-0.397,1.518-1.055 C57.02,35.19,56.721,34.602,56.117,34.528z"/>
<linearGradient id="_28" gradientUnits="userSpaceOnUse" x1="64.09" y1="16.75" x2="58.98" y2="38.55">
<stop stop-color="#87A8CB" offset="0"/>
<stop stop-color="#235487" offset="1"/>
</linearGradient>
<path fill="url(#_28)" d="M65.529,15.527c0,0-9.129,27.334-11.187,27.301c3.507,5.898,13.097-27.396,13.882-28.232 C67.066,14.641,66.334,14.977,65.529,15.527z"/>
<linearGradient id="_29" gradientUnits="userSpaceOnUse" x1="51.37" y1="15.09" x2="52.13" y2="11.4">
<stop stop-color="#FFFFFF" offset="0.05"/>
<stop stop-color="#A2C2DD" offset="1"/>
</linearGradient>
<path fill="url(#_29)" d="M65.529,15.527c0.83-0.509,1.494-0.812,2.695-0.933l-30.183-3.008 c-1.295,0.071-1.929,0.104-2.813,0.504L65.529,15.527z"/>
<linearGradient id="_30" gradientUnits="userSpaceOnUse" x1="43.34" y1="50.85" x2="57.03" y2="23.56">
<stop stop-color="#FFFFFF" offset="0"/>
<stop stop-color="#A2C2DD" offset="0.35"/>
<stop stop-color="#6C83BB" offset="0.7"/>
<stop stop-color="#003D6D" offset="1"/>
</linearGradient>
<path fill="url(#_30)" d="M50.85,21.977c8.625-2,1.281,15.873,3.494,20.851l-4.619-7.351 C49.725,35.477,50.824,22.217,50.85,21.977z"/>
<linearGradient id="_31" gradientUnits="userSpaceOnUse" x1="50.33" y1="23.55" x2="49.3" y2="41.55">
<stop stop-color="#87A8CB" offset="0"/>
<stop stop-color="#235487" offset="1"/>
</linearGradient>
<path fill="url(#_31)" d="M48.07,35.227l0.07-10.405c-0.029-2.371,2.03-2.901,4.401-2.948 c-1.604,1.104-2.108,1.641-1.908,5.975l0.039,8.004L48.07,35.227z"/>
<linearGradient id="_32" gradientUnits="userSpaceOnUse" x1="30.82" y1="17.26" x2="32.99" y2="79.36">
<stop stop-color="#FFFFFF" offset="0.05"/>
<stop stop-color="#A2C2DD" offset="1"/>
</linearGradient>
<polygon fill="url(#_32)" points="47.545,60.18 15.475,51.311 14.166,17.018 47.672,23.073 "/>
<linearGradient id="_33" gradientUnits="userSpaceOnUse" x1="35.49" y1="10.83" x2="29.83" y2="45.14">
<stop stop-color="#FFFFFF" offset="0.05"/>
<stop stop-color="#A2C2DD" offset="1"/>
</linearGradient>
<path fill="url(#_33)" d="M47.898,60.23L15.227,51.26l-1.309-34.291l34.258,6.609L47.898,60.23z M17.162,19.299 c-0.688-0.14-1.217,0.299-1.186,0.981c0.033,0.683,0.611,1.351,1.295,1.489c0.682,0.141,1.211-0.299,1.184-0.983 C18.428,20.107,17.846,19.44,17.162,19.299z M17.352,23.782c-0.678-0.141-1.201,0.299-1.168,0.98 c0.033,0.683,0.605,1.352,1.277,1.492c0.676,0.139,1.196-0.304,1.168-0.986C18.602,24.588,18.029,23.92,17.352,23.782z M17.541,28.264c-0.668-0.141-1.186,0.302-1.151,0.982c0.034,0.684,0.598,1.352,1.262,1.488c0.664,0.141,1.179-0.301,1.149-0.982 C18.773,29.07,18.211,28.406,17.541,28.264z M17.73,32.749c-0.66-0.143-1.17,0.299-1.139,0.98 c0.033,0.684,0.592,1.351,1.246,1.49c0.654,0.139,1.162-0.299,1.135-0.982C18.945,33.554,18.387,32.885,17.73,32.749z M17.916,37.232c-0.649-0.144-1.153,0.301-1.121,0.979c0.031,0.685,0.584,1.351,1.228,1.488c0.646,0.139,1.147-0.302,1.121-0.982 S18.564,37.367,17.916,37.232z M18.1,41.713c-0.641-0.141-1.135,0.299-1.104,0.98c0.028,0.684,0.573,1.354,1.209,1.49 c0.637,0.141,1.129-0.302,1.104-0.982C19.281,42.518,18.74,41.85,18.1,41.713z M18.072,46.322 c-0.648-0.141-1.152,0.301-1.119,0.979c0.031,0.687,0.582,1.353,1.228,1.488c0.646,0.142,1.147-0.299,1.118-0.979 C19.271,47.125,18.725,46.459,18.072,46.322z M44.5,25.27c-0.705-0.123-1.262,0.353-1.246,1.063 c0.02,0.709,0.604,1.387,1.303,1.51c0.695,0.125,1.252-0.35,1.24-1.059C45.785,26.073,45.205,25.395,44.5,25.27z M44.586,29.94 c-0.695-0.129-1.244,0.349-1.229,1.061c0.016,0.711,0.591,1.389,1.279,1.512c0.688,0.125,1.239-0.352,1.227-1.063 C45.854,30.739,45.281,30.063,44.586,29.94z M44.672,34.604c-0.688-0.122-1.229,0.354-1.211,1.064 c0.016,0.711,0.58,1.387,1.262,1.512s1.223-0.354,1.211-1.063C45.922,35.407,45.357,34.729,44.672,34.604z M18.258,50.805 c-0.641-0.143-1.135,0.299-1.104,0.98c0,0.006,0,0.01,0,0.016l2.306,0.619c0.004-0.043,0.01-0.084,0.008-0.127 C19.441,51.611,18.898,50.943,18.258,50.805z"/>
<linearGradient id="_34" gradientUnits="userSpaceOnUse" x1="32.56" y1="21.9" x2="33.53" y2="18.26">
<stop stop-color="#FFFFFF" offset="0.05"/>
<stop stop-color="#A2C2DD" offset="1"/>
</linearGradient>
<path fill="url(#_34)" d="M48.371,23.561c0.467-1.002,2.801-1.893,4.172-1.688l-35.26-5.479 c-1.303-0.004-2.656,0.205-3.393,0.607L48.371,23.561z"/>
<linearGradient id="_35" gradientUnits="userSpaceOnUse" x1="43.19" y1="17.97" x2="24.92" y2="46.88">
<stop stop-color="#E6EEF4" offset="0"/>
<stop stop-color="#A3740A" offset="0.44"/>
<stop stop-color="#474105" offset="0.94"/>
</linearGradient>
<path fill="url(#_35)" d="M32.6,34.016c0,0,1.025-1.09,1.467,0.007c0.441,1.096,1.715,1.995,2.932,0.954 c0,0,4.021-5.032,3.047-5.895c-3.053-1.955-5.85-1.294-8.953,2.225c-3.006,3.521-1.944,2.216-4.76,5.849 c-2.713,3.635-2.795,6.482-0.459,9.25c2.145,1.445,4.894-3.822,4.894-3.822c0.772-1.389-0.269-2.561-1.365-2.846 c-1.101-0.287-0.254-1.49-0.254-1.49L32.6,34.016z"/>
<linearGradient id="_36" gradientUnits="userSpaceOnUse" x1="50.02" y1="30.76" x2="45.08" y2="64.58">
<stop stop-color="#FFFFFF" offset="0.05"/>
<stop stop-color="#A2C2DD" offset="1"/>
</linearGradient>
<path fill="url(#_36)" d="M35.297,43.244l6.756-6.078l10.599,1.082l7.209,9.223c0,0,1.49,18.365-11.45,16.617 C31.85,61.852,35.297,43.244,35.297,43.244z"/>
<linearGradient id="_37" gradientUnits="userSpaceOnUse" x1="42.02" y1="36.78" x2="57.83" y2="36.78">
<stop stop-color="#FFFFFF" offset="0.05"/>
<stop stop-color="#A2C2DD" offset="1"/>
</linearGradient>
<polygon fill="url(#_37)" points="42.016,37.131 47.1,35.299 57.828,36.245 52.586,38.252 "/>
<linearGradient id="_38" gradientUnits="userSpaceOnUse" x1="52.59" y1="41.82" x2="64.61" y2="41.82">
<stop stop-color="#FFFFFF" offset="0.05"/>
<stop stop-color="#A2C2DD" offset="1"/>
</linearGradient>
<polygon fill="url(#_38)" points="52.586,38.252 57.828,36.245 64.611,44.922 59.807,47.396 "/>
<linearGradient id="_39" gradientUnits="userSpaceOnUse" x1="55.34" y1="36.41" x2="43.05" y2="60.86">
<stop stop-color="#FFFFFF" offset="0.15"/>
<stop stop-color="#A2C2DD" offset="1"/>
</linearGradient>
<path fill="url(#_39)" d="M57.063,49.963c1.424,5.447-1.602,10.57-6.754,11.443 c-5.154,0.871-10.483-2.838-11.908-8.281c-1.424-5.447,1.602-10.568,6.753-11.441 C50.309,40.814,55.639,44.518,57.063,49.963z"/>
<linearGradient id="_40" gradientUnits="userSpaceOnUse" x1="48.29" y1="45.22" x2="43.3" y2="64.52">
<stop stop-color="#87A8CB" offset="0"/>
<stop stop-color="#235487" offset="1"/>
</linearGradient>
<path fill="url(#_40)" d="M47.459,41.555c-17.717-0.266-7.817,27.506,6.475,18.381 C37.975,62.561,36.617,42.414,47.459,41.555z"/>
<linearGradient id="_41" gradientUnits="userSpaceOnUse" x1="57.92" y1="41.66" x2="61.18" y2="62.26">
<stop stop-color="#FFFFFF" offset="0"/>
<stop stop-color="#A2C2DD" offset="0.35"/>
<stop stop-color="#6C83BB" offset="0.7"/>
<stop stop-color="#003D6D" offset="1"/>
</linearGradient>
<path fill="url(#_41)" d="M64.611,44.922l-4.805,2.475L59.805,47.4l0.057,0.069c0,0,0.623,10.556-4.762,15.382 c1.295-0.787,2.953-1.867,6.353-4.56S64.611,44.922,64.611,44.922z"/>
<linearGradient id="_42" gradientUnits="userSpaceOnUse" x1="57.85" y1="37.31" x2="60.78" y2="42.93">
<stop stop-color="#E6EEF4" offset="0"/>
<stop stop-color="#C03A3A" offset="0.44"/>
<stop stop-color="#302D02" offset="0.94"/>
</linearGradient>
<path fill="url(#_42)" d="M61.332,40.098c0.777,1.271,0.664,2.617-0.252,3.004c-0.918,0.394-2.291-0.324-3.07-1.6 c-0.775-1.268-0.662-2.615,0.256-3.002C59.18,38.109,60.553,38.826,61.332,40.098z"/>
<linearGradient id="_43" gradientUnits="userSpaceOnUse" x1="57.55" y1="38.68" x2="60.65" y2="41.03">
<stop stop-color="#E3DFE4" offset="0"/>
<stop stop-color="#C03A3A" offset="1"/>
</linearGradient>
<path fill="url(#_43)" d="M61.305,39.988c0.758,1.166,0.783,2.35,0.062,2.646c-0.726,0.298-1.929-0.401-2.685-1.563 c-0.756-1.166-0.783-2.353-0.061-2.65C59.346,38.121,60.545,38.822,61.305,39.988z"/>
<linearGradient id="_44" gradientUnits="userSpaceOnUse" x1="43.3" y1="32.22" x2="57.16" y2="39.42">
<stop stop-color="#E6EEF4" offset="0"/>
<stop stop-color="#C03A3A" offset="0.44"/>
<stop stop-color="#302D02" offset="0.94"/>
</linearGradient>
<path fill="url(#_44)" d="M50.752,34.374c2.068,0.137,3.438,0.914,3.063,1.719c-0.375,0.796-2.354,1.251-4.428,1.033 c-2.063-0.199-3.438-0.925-3.063-1.638C46.701,34.762,48.686,34.256,50.752,34.374z"/>
<linearGradient id="_45" gradientUnits="userSpaceOnUse" x1="47.08" y1="36.37" x2="51.52" y2="34.6">
<stop stop-color="#E3DFE4" offset="0"/>
<stop stop-color="#C03A3A" offset="1"/>
</linearGradient>
<path fill="url(#_45)" d="M50.582,34.422c1.77,0.105,2.988,0.535,2.727,0.946c-0.264,0.41-1.781,0.729-3.551,0.581 c-1.77-0.137-3.107-0.654-2.848-1.025C47.176,34.555,48.818,34.325,50.582,34.422z"/>
<linearGradient id="_46" gradientUnits="userSpaceOnUse" x1="48.97" y1="39.76" x2="46.77" y2="60.97">
<stop stop-color="#E6EEF4" offset="0"/>
<stop stop-color="#C03A3A" offset="0.44"/>
<stop stop-color="#302D02" offset="0.94"/>
</linearGradient>
<path fill="url(#_46)" d="M48.59,52.826l0.061,1.332l-1.582-0.381l0.029-1.104c-1.461-0.588-1.145-2.551,0.104-2.842 l0.258-7.263l0.584,0.103l0.394,7.285C49.375,50.418,49.965,51.98,48.59,52.826z M47.627,50.598 c-0.436,0.074-0.688,0.504-0.566,0.961s0.566,0.769,1,0.693c0.433-0.07,0.687-0.502,0.566-0.955 C48.508,50.836,48.061,50.525,47.627,50.598z"/>
</svg>