<?xml version="1.0" encoding="UTF-8"?>
<!DOCTYPE svg PUBLIC "-//W3C//DTD SVG 1.1 Tiny//EN" "http://www.w3.org/Graphics/SVG/1.1/DTD/svg11-tiny.dtd">
<svg baseProfile="tiny" height="44" viewBox="-3.015 -3.019 44 44" width="44" xmlns="http://www.w3.org/2000/svg" xmlns:xlink="http://www.w3.org/1999/xlink">
<path d="M36.229,25.934L23.448,14.732c-1.229-1.229-1.352-2.915-1.482-4.371 c-0.195-2.171-0.438-4.874-2.875-7.31C17.153,1.111,14.29,0,11.233,0C7.905,0,4.325,1.66,2.646,3.59 c-1.678,1.93-2.725,3.947-2.641,6.445c0.129,3.815,1.635,7.085,4.033,9.563L3.06,21.757l1.949,1.2 c1.307,0.805,2.979,1.213,4.971,1.213c0.658,0,1.338-0.043,2.014-0.133c1.729-0.23,2.91-0.367,4.385,1.107l9.795,10.846 c2.605,2.604,7.365,2.691,10.057,0C38.858,33.36,38.858,28.567,36.229,25.934z M33.101,32.86c-1.051,1.049-2.75,1.049-3.801,0 c-1.051-1.045-1.051-2.75,0-3.799c1.051-1.051,2.75-1.051,3.801,0C34.149,30.11,34.146,31.811,33.101,32.86z" fill="#FFFFFF" fill-opacity="0.6"/>
<linearGradient gradientUnits="userSpaceOnUse" id="SVGID_1" x1="19.08" x2="19.08" y1="-11.62" y2="24.81">
<stop offset="0" stop-color="#CCCCCC"/>
<stop offset="1" stop-color="#000000"/>
</linearGradient>
<path d="M27.446,34.715l-9.795-10.844c-1.637-1.566-3.623-1.974-5.881-1.619 c-0.607,0.096-1.213,0.117-1.791,0.117c-1.654,0-3.4-0.318-4.623-1.314c0.104-0.214,0.854-1.888,0.854-1.888 c-3.258-2.769-4.736-6.894-4.48-10.611c0.254,0.152,7.139,3.673,7.139,3.673c0.252,0.135,0.717-0.056,0.801-0.234l1.141-2.498 c0.244-0.574,0.129-0.637-0.184-0.809c0,0-6.809-3.137-7.025-3.216C4.733,3.157,8.425,1.8,11.233,1.8 c2.582,0,4.982,0.92,6.584,2.521c1.979,1.976,2.168,4.125,2.355,6.203c0.195,2.157,0.781,4.474,2.037,5.514L34.917,27.17 c1.98,1.98,2.133,5.451,0.039,7.545C32.911,36.759,29.403,36.671,27.446,34.715z M33.101,29.061c-1.051-1.051-2.75-1.051-3.801,0 c-1.051,1.049-1.051,2.754,0,3.799c1.051,1.049,2.75,1.049,3.801,0C34.146,31.811,34.149,30.11,33.101,29.061z" fill="url(#SVGID_1)" fill-opacity="0.7"/>
<linearGradient gradientUnits="userSpaceOnUse" id="SVGID_2" x1="2.21" x2="38.11" y1="10.31" y2="26.29">
<stop offset="0" stop-color="#DCDCDC"/>
<stop offset="0.3" stop-color="#999999"/>
<stop offset="0.3" stop-color="#666666"/>
<stop offset="0.35" stop-color="#707070"/>
<stop offset="0.53" stop-color="#929292"/>
<stop offset="0.71" stop-color="#ABABAB"/>
<stop offset="0.87" stop-color="#BABABA"/>
<stop offset="1" stop-color="#BFBFBF"/>
</linearGradient>
<path d="M34.39,27.772L21.644,16.606c-3.787-3.788-0.801-8.131-4.393-11.719 c-3.26-3.262-9.594-2.922-12.354,0.299l6.113,2.802c0.723,0.395,0.92,0.92,0.525,1.84l-1.146,2.514 c-0.426,0.887-1.051,1.051-1.889,0.598l-5.9-3.037c0.213,4.083,2.172,7.208,4.594,9.027l-0.82,1.813 c1.561,0.963,3.844,0.902,5.293,0.717c1.982-0.254,4.334-0.369,6.578,1.875l9.766,10.816c1.615,1.615,4.764,1.617,6.379,0 C36.005,32.536,36.005,29.387,34.39,27.772z M32.927,32.688c-0.955,0.953-2.5,0.953-3.455,0c-0.955-0.951-0.955-2.5,0-3.453 s2.5-0.955,3.455,0C33.878,30.188,33.878,31.735,32.927,32.688z" fill="url(#SVGID_2)"/>
<linearGradient gradientUnits="userSpaceOnUse" id="SVGID_3" x1="21.04" x2="31.79" y1="31.07" y2="20.33">
<stop offset="0" stop-color="#FFFFFF"/>
<stop offset="0.51" stop-color="#FFB700"/>
<stop offset="1" stop-color="#CC4B00"/>
</linearGradient>
<path d="M34.388,27.772L21.644,16.606c-0.473-0.475-0.84-0.956-1.129-1.443 c-0.279,0.435-4.162,6.503-4.334,6.777c0.691,0.281,1.385,0.713,2.064,1.395l9.766,10.816c1.615,1.615,4.764,1.617,6.379,0 C36.005,32.536,36.005,29.387,34.388,27.772z M32.927,32.688c-0.955,0.953-2.5,0.953-3.455,0c-0.955-0.951-0.955-2.5,0-3.453 c0.955-0.955,2.5-0.955,3.455,0C33.88,30.188,33.878,31.735,32.927,32.688z" fill="url(#SVGID_3)"/>
<linearGradient gradientUnits="userSpaceOnUse" id="SVGID_4" x1="14.27" x2="11.77" y1="12.69" y2="18.19">
<stop offset="0" stop-color="#404040"/>
<stop offset="1" stop-color="#808080"/>
</linearGradient>
<path d="M11.847,12.82c0.213-0.474,0.77-0.688,1.244-0.474l2.197,0.987c0.475,0.215,0.688,0.771,0.473,1.246 l-1.674,3.724c-0.213,0.475-0.77,0.686-1.244,0.475l-2.197-0.988c-0.475-0.213-0.688-0.769-0.473-1.246L11.847,12.82z" fill="url(#SVGID_4)"/>
<linearGradient gradientUnits="userSpaceOnUse" id="SVGID_5" x1="31.13" x2="31.13" y1="33.55" y2="30.3">
<stop offset="0" stop-color="#F09900"/>
<stop offset="0.69" stop-color="#FFE262"/>
<stop offset="1" stop-color="#FFF28E"/>
</linearGradient>
<path d="M32.927,32.254c-0.955,0.953-2.5,0.953-3.455,0c-0.441-0.441-0.678-1.012-0.709-1.59 c-0.26,0.85-0.055,1.809,0.617,2.479c0.969,0.969,2.537,0.969,3.506,0c0.572-0.572,0.803-1.355,0.699-2.1 C33.489,31.487,33.271,31.909,32.927,32.254z" fill="url(#SVGID_5)"/>
<path d="M7.995,17.261c-2.199-1.653-4.57-3.692-5.395-7.357c0.191,3.847,2.064,7.072,4.594,9.027L7.995,17.261z" fill-opacity="0.16"/>
<linearGradient gradientUnits="userSpaceOnUse" id="SVGID_6" x1="27.51" x2="23.39" y1="20.19" y2="26.81">
<stop offset="0" stop-color="#FFFFFF"/>
<stop offset="1" stop-color="#FFBB0F"/>
</linearGradient>
<path d="M27.896,29.301c-0.016,0.021-9.361-9.287-9.361-9.287l1.783-3.074c0,0,11.977,10.35,11.984,10.367 C30.966,26.915,28.841,27.795,27.896,29.301z" fill="url(#SVGID_6)"/>
<rect fill="none" height="44" width="44" x="-3.015" y="-3.019"/>
</svg>
