<?xml version="1.0" encoding="UTF-8"?>
<!DOCTYPE svg PUBLIC "-//W3C//DTD SVG 1.1 Tiny//EN" "http://www.w3.org/Graphics/SVG/1.1/DTD/svg11-tiny.dtd">
<svg width="20" height="20" viewBox="0 0 20 20">
<path d="M7.464,15.069v-1.183c0.426,0.11,0.897,0.165,1.416,0.165c0.761,0,1.333-0.237,1.718-0.712 c0.386-0.474,0.612-1.25,0.681-2.326c-0.472,0.431-1.074,0.646-1.808,0.646c-0.88,0-1.55-0.284-2.011-0.853 C7,10.239,6.77,9.435,6.77,8.395c0-1.146,0.273-2.037,0.821-2.674C8.139,5.083,8.93,4.765,9.966,4.765 c1.077,0,1.891,0.377,2.44,1.131S13.23,7.93,13.23,9.734c0,1.773-0.346,3.134-1.037,4.08c-0.692,0.946-1.717,1.42-3.073,1.42 C8.63,15.234,8.078,15.179,7.464,15.069z M9.925,10.505c0.448,0,0.794-0.166,1.034-0.499c0.24-0.332,0.361-0.803,0.361-1.412 c0-0.894-0.112-1.565-0.337-2.014c-0.225-0.449-0.56-0.674-1.004-0.674c-0.436,0-0.767,0.167-0.993,0.502 C8.76,6.742,8.646,7.404,8.646,8.395c0,0.751,0.106,1.291,0.32,1.619C9.179,10.341,9.498,10.505,9.925,10.505z" fill="#536376"/>
</svg>