<?xml version="1.0" encoding="UTF-8" standalone="no"?>
<!DOCTYPE svg PUBLIC "-//W3C//DTD SVG 1.1 Tiny//EN" "http://www.w3.org/Graphics/SVG/1.1/DTD/svg11-tiny.dtd">
<svg xmlns="http://www.w3.org/2000/svg" xmlns:xlink="http://www.w3.org/1999/xlink" baseProfile="tiny" height="22" version="1.1" viewBox="0 0 22 22" width="22">
<g>
<rect fill="none" height="22" width="22"/>
<path d="M14.977,6.594c0.542,0.221,1.042-0.389,1.003-0.773V3.879c0-0.367-0.252-0.691-0.609-0.778   C13.831,2.736,9.737,1.893,7.29,5.41c-1.646,2.139-1.646,8.701-0.162,11.014c1.578,3.094,5.953,3.094,8.182,2.486   c0.318-0.049,0.67-0.361,0.67-0.791V16.22c0-0.593-0.57-0.874-0.996-0.775c-0.775,0.196-1.139,0.271-1.803,0.273   c-0.961-0.039-2.141-0.31-2.141-4.96c-0.004-1.355,0.127-2.598,0.467-3.374C12.159,5.877,13.55,6.268,14.977,6.594z" fill-opacity="0.4" stroke-opacity="0.4"/>
<path d="M15.18,18.12c-0.84,0.2-1.561,0.319-2.5,0.319c-5.14,0-5.86-3.899-5.86-7.6c0-3.619,1.08-7.279,5.92-7.279   c0.92,0,1.559,0.101,2.439,0.318V5.82c-0.84-0.221-1.301-0.34-2.06-0.34c-2.419,0-2.879,2.479-2.879,5.278   c0,3.081,0.4,5.761,2.94,5.761c0.739,0,1.221-0.101,2-0.3v1.9H15.18z" fill="#FFFFFF"/>
</g>
</svg>
