<?xml version="1.0" encoding="UTF-8" standalone="no"?>
<!DOCTYPE svg PUBLIC "-//W3C//DTD SVG 1.1 Tiny//EN" "http://www.w3.org/Graphics/SVG/1.1/DTD/svg11-tiny.dtd">
<svg xmlns="http://www.w3.org/2000/svg" xmlns:xlink="http://www.w3.org/1999/xlink" width="96" height="16" viewBox="0 0 96 16">
<rect fill="none" height="16" width="96"/>
<path d="M48,1.709c3.471,0,6.293,2.822,6.293,6.291c0,3.469-2.822,6.291-6.293,6.291 c-3.469,0-6.291-2.822-6.291-6.291C41.709,4.531,44.531,1.709,48,1.709 M48,0.5c-4.135,0-7.5,3.363-7.5,7.5 c0,4.135,3.365,7.5,7.5,7.5c4.137,0,7.5-3.365,7.5-7.5C55.5,3.863,52.137,0.5,48,0.5L48,0.5z" fill="#4B5879"/>
<path d="M48,14.291c3.471,0,6.293-2.822,6.293-6.291c0-3.469-2.822-6.291-6.293-6.291 c-3.469,0-6.291,2.822-6.291,6.291C41.709,11.469,44.531,14.291,48,14.291L48,14.291z" fill="#FFFFFF"/>
</svg>