<?xml version="1.0" encoding="UTF-8"?>
<!DOCTYPE svg PUBLIC "-//W3C//DTD SVG 1.1 Tiny//EN" "http://www.w3.org/Graphics/SVG/1.1/DTD/svg11-tiny.dtd">
<svg width="60" height="52" viewBox="-0.078 0.345 60 52">
<linearGradient id="_4" gradientUnits="userSpaceOnUse" x1="29.92" y1="7.55" x2="29.92" y2="45.95">
<stop stop-color="#7D9CAD" offset="0"/>
<stop stop-color="#576F96" offset="0.73"/>
<stop stop-color="#4F6691" offset="1"/>
</linearGradient>
<path d="M51.662,6.346H8.181c-1.245,0-2.259,1.014-2.259,2.259v35.481c0,1.246,1.014,2.26,2.259,2.26 h43.481c1.246,0,2.26-1.014,2.26-2.26V8.604C53.922,7.359,52.908,6.346,51.662,6.346z M52.922,44.086 c0,0.694-0.565,1.26-1.26,1.26H8.181c-0.694,0-1.259-0.565-1.259-1.26V8.604c0-0.694,0.564-1.259,1.259-1.259h43.481 c0.694,0,1.26,0.564,1.26,1.259V44.086z" fill="url(#_4)"/>
<g fill-opacity="0.7" stroke-opacity="0.7">
<linearGradient id="_5" gradientUnits="userSpaceOnUse" x1="29.92" y1="50.89" x2="29.92" y2="5.76">
<stop stop-color="#ADB5A8" offset="0.03"/>
<stop stop-color="#C7D9D9" offset="0.26"/>
<stop stop-color="#FFFFFF" offset="0.72"/>
</linearGradient>
<path d="M51.662,7.346H8.181c-0.694,0-1.259,0.564-1.259,1.259v35.481c0,0.694,0.564,1.26,1.259,1.26 h43.481c0.694,0,1.26-0.565,1.26-1.26V8.604C52.922,7.91,52.356,7.346,51.662,7.346z" fill="url(#_5)"/>
</g>
<path d="M52.54,7.723c-0.243-0.252-0.529-0.377-0.878-0.377H8.181c-0.694,0-1.259,0.564-1.259,1.259v35.481 c0,0.346,0.143,0.652,0.372,0.873c0.003,0.013,0.628-0.628,0.628-0.628V8.346h43.999L52.54,7.723z" fill="#FFFFFF"/>
<linearGradient id="_6" gradientUnits="userSpaceOnUse" x1="30.11" y1="12.48" x2="30.11" y2="51.95">
<stop stop-color="#CADCEC" offset="0"/>
<stop stop-color="#809CB3" offset="1"/>
</linearGradient>
<path d="M7.304,44.968c0.243,0.252,0.529,0.377,0.878,0.377h43.481c0.694,0,1.259-0.564,1.259-1.259 V8.604c0-0.346-0.143-0.652-0.372-0.873c-0.003-0.013-0.628,0.628-0.628,0.628s0,35.206,0,35.985c-0.738,0-43.999,0-43.999,0 L7.304,44.968z" fill="url(#_6)"/>
<polygon fill="#496DA2" points="38.326,20.607 35.66,17.941 29.922,23.678 24.184,17.941 21.518,20.607 27.256,26.345 21.518,32.084 24.184,34.75 29.922,29.012 35.66,34.75 38.326,32.084 32.588,26.345 "/>
</svg>