<?xml version="1.0" encoding="UTF-8"?>
<!DOCTYPE svg PUBLIC "-//W3C//DTD SVG 1.1 Tiny//EN" "http://www.w3.org/Graphics/SVG/1.1/DTD/svg11-tiny.dtd">
<svg baseProfile="tiny" height="50.352" viewBox="0 0 50.352 50.352" width="50.352" xmlns="http://www.w3.org/2000/svg" xmlns:xlink="http://www.w3.org/1999/xlink">
<rect fill="none" height="50.352" width="50.352"/>
<rect fill="#FFFFFF" height="29.591" width="23.068" x="13.002" y="10.663"/>
<rect height="26.091" width="19.568" x="14.752" y="12.413"/>
<path d="M32.652,15.085c0,0-13.547,0-15.121,0c0,1.561,0,18.96,0,20.521c1.512,0,13.646,0,15.16,0 c0-1.561,0-18.96,0-20.521C32.688,15.085,32.652,15.085,32.652,15.085z" fill="#F5F5F5"/>
<rect fill="#E1E1E1" height="1.631" width="16.309" x="16.383" y="35.241"/>
<polygon fill="#FFFFFF" points="16.383,14.044 16.354,36.873 18.014,36.873 18.014,15.675 32.689,15.675 32.689,14.044 "/>
<path d="M25.205,16.015v-1.316c3.625,0.41,6.447,3.465,6.491,7.189h-1.301C30.348,18.881,28.109,16.418,25.205,16.015z"/>
<path d="M23.545,29.632v-1.316c-2.906-0.405-5.144-2.866-5.191-5.872h-1.301C17.096,26.168,19.918,29.222,23.545,29.632z"/>
<path d="M25.205,19.018v-1.337c1.99,0.384,3.498,2.113,3.539,4.207h-1.303C27.399,20.517,26.471,19.373,25.205,19.018z"/>
<path d="M23.545,26.65v-1.337c-1.267-0.358-2.196-1.5-2.238-2.87h-1.303C20.045,24.536,21.553,26.266,23.545,26.65z"/>
<path d="M39.075,24.949h-7.256c-1.633,0-2.962,1.329-2.962,2.963v2.501c-0.023,0.344-0.031,0.352-0.211,0.537 c-0.526,0.543-1.099,1.252-1.229,2.811l-0.003,0.031l-0.004,0.072v6.545c0,1.633,1.329,2.962,2.962,2.962h8.702 c1.633,0,2.962-1.329,2.962-2.962V27.912C42.037,26.278,40.708,24.949,39.075,24.949z" fill="#FFFFFF"/>
<path d="M30.373,41.621c-0.666,0-1.212-0.546-1.212-1.212v-6.503c0.178-2.127,1.315-1.36,1.446-3.435v-2.56 c0-0.668,0.546-1.213,1.212-1.213h7.256c0.665,0,1.212,0.545,1.212,1.213v12.497c0,0.666-0.547,1.212-1.212,1.212H30.373z"/>
<rect fill="#FFFFFF" height="3.723" width="1.669" x="37.309" y="27.615"/>
<rect fill="#FFFFFF" height="3.723" width="1.669" x="34.603" y="27.615"/>
<rect fill="#FFFFFF" height="3.723" width="1.669" x="31.897" y="27.615"/>
</svg>
