<?xml version="1.0" encoding="UTF-8" standalone="no"?>
<!DOCTYPE svg PUBLIC "-//W3C//DTD SVG 1.1 Tiny//EN" "http://www.w3.org/Graphics/SVG/1.1/DTD/svg11-tiny.dtd">
<svg xmlns="http://www.w3.org/2000/svg" xmlns:xlink="http://www.w3.org/1999/xlink" baseProfile="tiny" height="32px" version="1.1" viewBox="0 0 38.001 32" width="38.001px" x="0px" y="0px">
<rect fill="none" height="32" width="38.001"/>
<path d="M28.004,18.136c-0.438,0.008-0.704,0.405-0.743,0.507c-0.195-0.416-0.535-0.507-0.745-0.507h-1.36  c-0.361-0.014-0.643,0.344-0.677,0.401c-0.104-0.135-0.581-0.456-1.91-0.468c-1.188-0.011-2.153,0.467-2.722,1.225  c-1.137,1.516-0.66,4.27-0.272,5.07c0.36,0.797,1.243,1.434,2.342,1.434c0.028,0,4.6-0.065,4.6-0.065  c0.425,0.015,0.705-0.407,0.745-0.509c0.039,0.102,0.283,0.503,0.743,0.509h4.569c0.305-0.026,0.824-0.256,0.799-0.801v-0.79  c0.025-0.395-0.395-0.698-0.49-0.738v-2.938c0.094-0.04,0.537-0.321,0.49-0.738v-0.79c0.025-0.605-0.589-0.801-0.799-0.801H28.004z" fill-opacity="0.4" stroke-opacity="0.4"/>
<path d="M18.284,17.953h-1.055V6.871c-0.045-0.676-0.59-0.801-0.801-0.801h-3.779c-0.279,0-0.539,0.146-0.686,0.388  l-7.236,11.98c-0.074,0.123-0.113,0.271-0.113,0.414v2.273c0,0.21,0.133,0.772,0.799,0.799h6.238l0.002,3.005  c0,0.211,0.094,0.75,0.799,0.802h3.977c0.631-0.052,0.801-0.589,0.801-0.802v-3.005h1.055c0.385-0.026,0.76-0.214,0.799-0.799  v-2.372C19.083,18.544,18.919,17.945,18.284,17.953z M11.64,17.918H9.565l2.074-3.524V17.918z" fill-opacity="0.4" stroke-opacity="0.4"/>
<path d="M23.204,24.407c-0.23,0.354-0.691,0.59-1.203,0.59c-1.797,0-2.068-1.588-2.068-3.13  c0-1.599,0.611-2.995,2.637-2.995c0.436,0,0.873,0.046,1.277,0.155v0.782c-0.387-0.107-0.742-0.146-1.152-0.146  c-1.098,0-1.352,1.107-1.352,2.188c0,1.211,0.049,2.363,0.881,2.363c0.42,0,0.617-0.354,0.617-0.83v-0.766h-0.518v-0.792h1.834  v3.105h-0.789L23.204,24.407z" fill="#FFFFFF"/>
<path d="M29.356,24.933h-1.352v-2.867h-1.488v2.867h-1.361v-5.996h1.361v2.355h1.488v-2.355h1.352V24.933z" fill="#FFFFFF"/>
<path d="M32.573,24.933h-2.344v-0.791h0.492v-4.414h-0.492v-0.791h2.344v0.791h-0.49v4.414h0.49V24.933z" fill="#FFFFFF"/>
<path d="M18.283,21.126H16.43v3.805h-3.977v-3.805h-7.04v-2.272L12.65,6.872h3.779v11.883h1.854V21.126z   M12.453,18.755v-7.264L8.18,18.755H12.453z" fill="#FFFFFF"/>
</svg>
