<?xml version="1.0" encoding="UTF-8"?>
<!DOCTYPE svg PUBLIC "-//W3C//DTD SVG 1.1 Tiny//EN" "http://www.w3.org/Graphics/SVG/1.1/DTD/svg11-tiny.dtd">
<svg width="84" height="58" viewBox="0 0 84 58">
<linearGradient id="_12" gradientUnits="userSpaceOnUse" x1="40.18" y1="29.53" x2="53.71" y2="56.18">
<stop stop-color="#A2C2DD" offset="0.1"/>
<stop stop-color="#6C83BB" offset="0.71"/>
<stop stop-color="#003D6D" offset="0.99"/>
</linearGradient>
<path fill="url(#_12)" d="M23.976,4.047l1.29,41.206l31.954,8.949l2.312-2.439l-0.188-29.581L48.79,8.477L26.628,3.161 L23.976,4.047z"/>
<linearGradient id="_13" gradientUnits="userSpaceOnUse" x1="54.39" y1="3.09" x2="33.71" y2="42.39">
<stop stop-color="#FFFFFF" offset="0.05"/>
<stop stop-color="#A2C2DD" offset="1"/>
</linearGradient>
<path fill="url(#_13)" d="M25.638,44.965L24.364,4.317l25.03,5.92c2.539,3.163,5.22,7.041,7.645,10.534l0.063,33.002 L25.638,44.965z"/>
<linearGradient id="_14" gradientUnits="userSpaceOnUse" x1="57.98" y1="13.93" x2="57.98" y2="54.33">
<stop stop-color="#FFFFFF" offset="0"/>
<stop stop-color="#A2C2DD" offset="0.35"/>
<stop stop-color="#6C83BB" offset="0.7"/>
<stop stop-color="#003D6D" offset="1"/>
</linearGradient>
<polygon fill="url(#_14)" points="57.103,53.773 56.805,21.32 58.964,22.313 59.151,51.61 "/>
<linearGradient id="_15" gradientUnits="userSpaceOnUse" x1="35.79" y1="8.3" x2="37.24" y2="4.38">
<stop stop-color="#FFFFFF" offset="0.05"/>
<stop stop-color="#A2C2DD" offset="1"/>
</linearGradient>
<polygon fill="url(#_15)" points="24.299,4.294 26.645,3.557 48.571,8.815 46.853,10.023 "/>
<linearGradient id="_16" gradientUnits="userSpaceOnUse" x1="51.35" y1="-1.22" x2="43.55" y2="24.72">
<stop stop-color="#FFFFFF" offset="0"/>
<stop stop-color="#A2C2DD" offset="0.35"/>
<stop stop-color="#6C83BB" offset="0.7"/>
<stop stop-color="#003D6D" offset="1"/>
</linearGradient>
<polygon fill="url(#_16)" points="46.853,10.023 46.072,20.076 48.571,8.815 "/>
<linearGradient id="_17" gradientUnits="userSpaceOnUse" x1="53.65" y1="12.7" x2="50.73" y2="32.01">
<stop stop-color="#FFFFFF" offset="0"/>
<stop stop-color="#A2C2DD" offset="0.35"/>
<stop stop-color="#6C83BB" offset="0.7"/>
<stop stop-color="#003D6D" offset="1"/>
</linearGradient>
<polygon fill="url(#_17)" points="47.349,19.43 45.214,22.442 58.958,23.658 58.958,22.22 "/>
<linearGradient id="_18" gradientUnits="userSpaceOnUse" x1="25.52" y1="28.25" x2="39.63" y2="40.6">
<stop stop-color="#FFFFFF" offset="0"/>
<stop stop-color="#496DA2" offset="0.71"/>
<stop stop-color="#235487" offset="0.99"/>
</linearGradient>
<path fill="url(#_18)" d="M32.574,34.135c-1.879,1.882-4.456,4.459-2.176,6.738c2.278,2.28,4.963-0.404,6.736-2.178 c1.774-1.773,4.459-4.457,2.179-6.737l0,0C37.032,29.677,34.457,32.254,32.574,34.135z M31.853,39.419 c-0.632-0.634-0.121-1.528,2.178-3.829c2.301-2.301,3.195-2.809,3.829-2.177c0.73,0.741-0.484,2.13-2.181,3.825 C33.407,39.512,32.476,40.043,31.853,39.419z"/>
<linearGradient id="_19" gradientUnits="userSpaceOnUse" x1="31.29" y1="22.3" x2="44.04" y2="33.45">
<stop stop-color="#FFFFFF" offset="0"/>
<stop stop-color="#496DA2" offset="0.71"/>
<stop stop-color="#235487" offset="0.99"/>
</linearGradient>
<path fill="url(#_19)" d="M34.752,24.498c-5.404,5.408-4.829,9.497-3.395,11.97l0.68,1.177l1.993-2.055l2.34-2.148 l-0.037-0.615c-0.219-1.203,1.169-2.709,2.611-4.15c1.439-1.441,2.946-2.832,4.148-2.609l3.626-4.967 C44.239,19.672,40.152,19.1,34.752,24.498z M32.433,32.871c0-2.086,1.262-4.401,3.776-6.917 c3.023-3.024,5.758-4.223,8.159-3.605c-0.059,0.06-1.01,1.1-1.502,1.638c-1.938-0.027-3.651,1.508-5.377,3.235 c-1.711,1.712-3.238,3.408-3.238,5.322c0,0.018,0.004,0.037,0.004,0.055c-0.542,0.496-1.62,1.482-1.654,1.518 C32.494,33.707,32.433,33.295,32.433,32.871z"/>
<path fill="url(#_18)" d="M45.143,28.724c-0.438,1.462-1.668,2.699-2.561,3.591c-1.439,1.44-2.947,2.83-4.14,2.615 l-0.56-0.104l-0.441,0.488l-1.763,1.924l-2.045,1.986l1.15,0.701c2.464,1.439,6.541,2.016,11.98-3.421 c3.354-3.357,6.666-7.339,3.424-12.105L45.143,28.724z M49.079,26.726c0.213,0.537,0.347,1.071,0.347,1.599 c0,2.101-1.586,4.191-4.118,6.724c-3.046,3.041-5.781,4.256-8.166,3.637c0.028-0.031,0.974-1.066,1.531-1.678 c1.928,0.021,3.641-1.512,5.365-3.236c1.713-1.715,3.242-3.417,3.242-5.326c0-0.02-0.004-0.04-0.006-0.059 C47.828,27.885,49.057,26.752,49.079,26.726z"/>
<path fill="url(#_18)" d="M49.152,19.253c-1.57,0-3.021,1.324-4.749,3.055c-1.883,1.882-4.459,4.458-2.185,6.732 c2.272,2.272,4.851-0.302,6.731-2.182c1.882-1.883,4.456-4.46,2.184-6.733C50.556,19.547,49.889,19.253,49.152,19.253z M43.673,27.584c-0.625-0.628-0.116-1.517,2.185-3.821c0.916-0.917,2.621-2.906,3.718-2.199c0.777,0.502,0.192,1.565-2.078,3.837 C45.225,27.673,44.295,28.205,43.673,27.584z"/>
<linearGradient id="_22" gradientUnits="userSpaceOnUse" x1="56.66" y1="3.8" x2="52.14" y2="22.2">
<stop stop-color="#FFFFFF" offset="0.05"/>
<stop stop-color="#A2C2DD" offset="1"/>
</linearGradient>
<polygon fill="url(#_22)" points="58.964,22.313 48.571,8.815 46.072,20.076 "/>
</svg>