<?xml version="1.0" encoding="UTF-8"?>
<!DOCTYPE svg PUBLIC "-//W3C//DTD SVG 1.1 Tiny//EN" "http://www.w3.org/Graphics/SVG/1.1/DTD/svg11-tiny.dtd">
<svg baseProfile="tiny" height="24px" version="1.1" viewBox="0 0 24 24" width="24px" x="0px" xmlns="http://www.w3.org/2000/svg" xmlns:xlink="http://www.w3.org/1999/xlink" y="0px">
<rect fill="none" height="24" width="24"/>
<path d="M16.237,19.427h-0.431h-1.162H9.601H8.438H8.006v-0.431v-1.163v-4.554H5.094H4.787L4.685,12.99l-0.427-1.234l-0.089-0.26  l0.198-0.192l6.526-6.341l0.805-0.785L12,3.885l0.3,0.292l0.809,0.785l6.523,6.343l0.198,0.192l-0.089,0.257l-0.425,1.234  l-0.101,0.291h-0.309h-2.671v4.554v1.163V19.427L16.237,19.427z M10.032,17.401h4.181v-5.386v-0.432h0.432l2.402,0.037L12,6.709  l-5.005,4.869l2.605,0.005h0.432v0.432V17.401L10.032,17.401z"/>
</svg>
