<?xml version="1.0" encoding="UTF-8"?>
<!DOCTYPE svg PUBLIC "-//W3C//DTD SVG 1.1 Tiny//EN" "http://www.w3.org/Graphics/SVG/1.1/DTD/svg11-tiny.dtd">
<svg width="84" height="58" viewBox="-0.99 -0.388 84 58">
<linearGradient id="_10" gradientUnits="userSpaceOnUse" x1="44.42" y1="31.22" x2="56.23" y2="54.48">
<stop stop-color="#A2C2DD" offset="0.1"/>
<stop stop-color="#6C83BB" offset="0.71"/>
<stop stop-color="#003D6D" offset="0.99"/>
</linearGradient>
<path fill="url(#_10)" d="M27.532,22.056c-2.393,1.452-5.339,7.142-4.324,12.45c1.612,8.445,6.267,10.527,8.906,10.458 c4.204-0.066,7.233-4.648,7.233-10.4c0-4.458-1.827-8.688-4.691-10.986c0.751-7.58,5.906-16.029,13.074-12.352 c2.957,3.219,5.112,9.705,5.948,17.86c-3.335,2.238-6.1,7.048-6.1,12.827c0,12.852,12.641,15.839,17.74,4.16 c2.641-6.043,1.604-13.272-2.402-16.666c-0.948-13.567-4.95-21.338-12.6-24.418C43.234,2.14,29.375,3.735,27.532,22.056z"/>
<linearGradient id="_11" gradientUnits="userSpaceOnUse" x1="33.12" y1="55.98" x2="42.62" y2="-4.9">
<stop stop-color="#FFFFFF" offset="0"/>
<stop stop-color="#A2C2DD" offset="0.35"/>
<stop stop-color="#6C83BB" offset="0.7"/>
<stop stop-color="#003D6D" offset="1"/>
</linearGradient>
<path fill="url(#_11)" d="M47.41,8.635c-1.524-0.875-3.177-1.312-4.806-1.525c-5.211-0.662-12.747,3.918-13.094,16.291 l4.374,0.75c0.277-5.257,4.075-13.89,9.1-14.426c1.489-0.163,3.809-0.288,6.031,1.531L47.41,8.635z"/>
<path fill="url(#_11)" d="M38.614,35.582c-0.394,5.872-4.021,9.656-8.116,8.471c-4.083-1.2-7.1-6.93-6.711-12.793 c0.394-5.856,4.023-9.648,8.116-8.456C35.996,23.998,38.995,29.728,38.614,35.582z"/>
<linearGradient id="_13" gradientUnits="userSpaceOnUse" x1="48.19" y1="-0.63" x2="50.36" y2="68.2">
<stop stop-color="#FFFFFF" offset="0"/>
<stop stop-color="#A2C2DD" offset="0.35"/>
<stop stop-color="#6C83BB" offset="0.7"/>
<stop stop-color="#003D6D" offset="1"/>
</linearGradient>
<path fill="url(#_13)" d="M35.517,7.464c4.912-3.101,9.379-3.903,14.539-1.827C59.128,9.29,62.073,19.66,62.428,33.564 c0.052,2.055-6.661-1.251-6.661-1.251c1.314-4.758-2.141-21.947-11.103-25.019c-3.587-1.23-6.756-0.831-9.361,0.928 L35.517,7.464z"/>
<linearGradient id="_14" gradientUnits="userSpaceOnUse" x1="29.12" y1="20.83" x2="29.37" y2="44.7">
<stop stop-color="#FFFFFF" offset="0"/>
<stop stop-color="#A2C2DD" offset="0.35"/>
<stop stop-color="#6C83BB" offset="0.7"/>
<stop stop-color="#003D6D" offset="1"/>
</linearGradient>
<path fill="url(#_14)" d="M28.174,22.474c-1.602,0.656-4.157,4.662-4.419,8.587c-0.391,5.871,2.659,11.792,6.742,12.992 c1.587,0.457,3.098,0.176,4.385-0.684c-5.615,2.024-13.035-12.271-4.728-20.284L28.174,22.474z"/>
<path fill="url(#_13)" d="M64.678,45.791c-2.652,6.074-8.162,8.617-12.299,5.686c-4.146-2.923-5.353-10.23-2.707-16.307 c2.651-6.068,8.154-8.616,12.311-5.677C66.109,32.409,67.333,39.715,64.678,45.791z"/>
<linearGradient id="_16" gradientUnits="userSpaceOnUse" x1="54.72" y1="25.6" x2="54.39" y2="51.6">
<stop stop-color="#FFFFFF" offset="0"/>
<stop stop-color="#A2C2DD" offset="0.35"/>
<stop stop-color="#6C83BB" offset="0.7"/>
<stop stop-color="#003D6D" offset="1"/>
</linearGradient>
<path fill="url(#_16)" d="M60.599,51.166c-2.574,1.813-5.591,2.224-8.103,0.443c-4.146-2.924-5.47-10.363-2.824-16.439 c1.323-3.035,3.486-5.229,5.716-6.26l2.165,1.355C49.914,36.85,51.298,54.415,60.599,51.166z"/>
<linearGradient id="_17" gradientUnits="userSpaceOnUse" x1="10.85" y1="10.8" x2="57.1" y2="19.55">
<stop stop-color="#FFFFFF" offset="0.05"/>
<stop stop-color="#A2C2DD" offset="1"/>
</linearGradient>
<path fill="url(#_17)" d="M57.53,30.427C56.823,19.624,52.543,8.651,45.302,6.603 c-10.063-2.857-15.61,3.557-17.128,15.872l1.98,0.611c0.642-9.478,4.883-17.263,14.245-14.818 c6.355,1.665,9.197,12.285,10.045,21.343L57.53,30.427z"/>
<path fill="#FFFFFF" d="M11.553,34.395c-2.913,0-6.903,0.691-7.916,6.67l-0.152,0.902c0,0,6.713,0,7.51,0 c0.24,0.433,0.599,1.078,0.825,1.492c-0.227,0.412-0.585,1.057-0.825,1.492c-0.798,0-7.51,0-7.51,0l0.152,0.899 c1.013,5.978,5.003,6.669,7.916,6.669c2.298,0,4.345-1.926,5.989-3.476c0.891-0.839,1.729-1.626,2.172-1.626h20.562l0.229-0.252 c0.44-0.486,1.468-1.813,1.488-3.676v-0.065c-0.021-1.861-1.048-3.188-1.488-3.673L40.275,39.5H19.714 c-0.442,0-1.281-0.789-2.169-1.625C15.897,36.322,13.851,34.395,11.553,34.395z"/>
<linearGradient id="_18" gradientUnits="userSpaceOnUse" x1="9.4" y1="28.88" x2="33.55" y2="57.49">
<stop stop-color="#E6EEF4" offset="0"/>
<stop stop-color="#9646AC" offset="0.44"/>
<stop stop-color="#3D013F" offset="0.94"/>
</linearGradient>
<path fill="url(#_18)" d="M41.223,43.459c0-0.008,0.002-0.017,0.002-0.023h-0.004c-0.019-1.619-0.947-2.789-1.29-3.163 c-0.433,0-20.217,0-20.217,0c-0.75,0-1.566-0.771-2.702-1.837c-1.545-1.455-3.467-3.266-5.459-3.266 c-3.232,0-6.295,0.947-7.151,6.023c1.216,0,7.048,0,7.048,0l1.253,2.266l-1.253,2.263c0,0-5.834,0-7.048,0 c0.855,5.075,3.918,6.024,7.151,6.024c1.992,0,3.916-1.811,5.459-3.266c1.136-1.064,1.952-1.836,2.702-1.836 c0,0,19.784,0,20.217,0c0.343-0.373,1.271-1.543,1.29-3.162h0.004C41.225,43.475,41.223,43.466,41.223,43.459z"/>
</svg>