<?xml version="1.0" encoding="UTF-8"?>
<!DOCTYPE svg PUBLIC "-//W3C//DTD SVG 1.1 Tiny//EN" "http://www.w3.org/Graphics/SVG/1.1/DTD/svg11-tiny.dtd">
<svg width="332" height="126" viewBox="-0.603 -0.244 332 126">
<path fill-opacity="0.01" fill="#656B6B" d="M22.628,9.756c-11.707,0-21.232,9.465-21.232,21.1v66.775c0,6.121,2.27,11.762,6.389,15.883 c4.084,4.084,9.51,6.242,15.691,6.24c0,0,264.023,0.002,264.85,0.002c0.537,0.539,6.07,6,6.07,6h3.307 c4.832-0.168,8.939-2.137,10.686-6.592c12.01-1.906,21.008-12.314,21.008-24.523V30.855c0-11.832-9.553-21.1-21.75-21.1H22.628z"/>
<path fill-opacity="0.02" fill="#656B6B" d="M22.628,10.748c-11.156,0-20.232,9.018-20.232,20.1v66.775 c0,5.855,2.166,11.244,6.096,15.176c3.893,3.893,9.074,5.949,14.984,5.947c0,0,264.438,0.002,265.264,0.002 c0.539,0.539,7.008,7.008,7.008,7.008l1.951-0.01c4.605-0.16,8.51-3.133,9.971-7.445c11.852-1.584,20.727-11.615,20.727-23.668 V30.848c0-11.27-9.113-20.1-20.75-20.1H22.628z"/>
<path fill-opacity="0.03" fill="#656B6B" d="M22.628,11.748c-10.605,0-19.232,8.568-19.232,19.1v66.775 c0,5.588,2.061,10.727,5.803,14.469c3.701,3.701,8.637,5.656,14.277,5.654c0,0,264.852,0.002,265.678,0.002 c0.537,0.539,7.006,7.006,7.006,7.006l1.533-0.008c4.404-0.152,8.076-3.131,9.23-7.311c11.711-1.242,20.473-10.887,20.473-22.803 V30.848c0-10.709-8.676-19.1-19.75-19.1H22.628z"/>
<path fill-opacity="0.06" fill="#656B6B" d="M22.628,12.752c-10.053,0-18.232,8.119-18.232,18.1v66.775 c0,5.322,1.957,10.209,5.51,13.762c3.51,3.508,8.201,5.363,13.57,5.361c0,0,265.266,0.002,266.092,0.002 c0.539,0.539,7.004,7.004,7.004,7.004l1.115-0.006c4.225-0.146,7.633-3.129,8.453-7.188c11.412-0.857,20.256-10.299,20.256-21.926 V30.852c0-10.148-8.236-18.1-18.75-18.1H22.628z"/>
<path fill-opacity="0.05" fill="#656B6B" d="M22.628,13.754c-9.732,0-17.232,7.75-17.232,17.1v66.775c0,5.055,1.854,9.691,5.217,13.055 c3.318,3.316,7.766,5.07,12.863,5.068c0,0,265.68,0.002,266.506,0.002c0.537,0.539,7.002,7.002,7.002,7.002l0.699-0.004 c4.01-0.141,7.18-3.182,7.623-7.078c11.141-0.428,20.09-9.664,20.09-21.035V30.854c0-9.588-7.797-17.1-17.75-17.1H22.628z"/>
<path fill-opacity="0.1" fill="#656B6B" d="M307.646,14.748H22.628c-9.449,0-16.232,6.648-16.232,16.1v66.775 c0,9.125,6.5,17.125,17.08,17.123l266.92,0.002l7,7c0,0,0.168,0.002,0.25,0c3.76-0.133,6.75-3.205,6.75-7h0.125 c10.875,0,19.875-9.023,19.875-20.115V30.848C324.396,21.396,316.646,14.748,307.646,14.748z"/>
<path fill-opacity="0.1" fill="#656B6B" d="M306.646,15.748H22.628c-9.449,0-15.232,5.648-15.232,15.1v65.775 c0,9,5.125,17.125,17.107,17.125c0.443,0,265.393,0,265.393,0l7,7.002h0.5c3.625,0,6-3,6-6.002c0-0.998,0-1,0-1h0.895 c10.535,0,19.105-8.574,19.105-19.115V30.848C323.396,21.396,315.646,15.748,306.646,15.748z"/>
<path fill-opacity="0.1" fill="#656B6B" d="M305.771,16.748H23.646c-9.447,0-15.25,4.648-15.25,14.1v64.785 c0,8.865,3.875,17.115,17.125,17.115h265l7,7c0,0,0.213-0.008,0.375-0.021c2.93-0.266,4.5-2.846,4.5-4.977c0-1.002,0-2.002,0-2.002 h1.895c9.984,0,18.105-8.127,18.105-18.115V30.848C322.396,21.396,314.396,16.748,305.771,16.748z"/>
<linearGradient id="_2" gradientUnits="userSpaceOnUse" x1="163.4" y1="111.53" x2="163.4" y2="39.46">
<stop stop-color="#D9F4E0" offset="0"/>
<stop stop-color="#FFFFFF" offset="1"/>
</linearGradient>
<path fill="url(#_2)" d="M22.501,111.747h264.895l10,9.998l2.002,2.002h1.998v-12h2.895c9.447,0,17.105-7.646,17.105-17.1 V30.862c0-9.451-7.658-17.115-17.105-17.115H22.501c-9.447,0-17.105,7.664-17.105,17.115v63.785 C5.396,104.101,13.054,111.759,22.501,111.747z"/>
</svg>