<?xml version="1.0" encoding="UTF-8"?>
<!DOCTYPE svg PUBLIC "-//W3C//DTD SVG 1.1 Tiny//EN" "http://www.w3.org/Graphics/SVG/1.1/DTD/svg11-tiny.dtd">
<svg width="60" height="52" viewBox="-1.146 1.13 60 52">
<linearGradient id="_4" gradientUnits="userSpaceOnUse" x1="28.85" y1="8.33" x2="28.85" y2="46.73">
<stop stop-color="#7D9CAD" offset="0"/>
<stop stop-color="#576F96" offset="0.73"/>
<stop stop-color="#4F6691" offset="1"/>
</linearGradient>
<path d="M50.595,7.131H7.114c-1.246,0-2.26,1.014-2.26,2.259v35.481c0,1.246,1.014,2.26,2.26,2.26 h43.48c1.246,0,2.26-1.014,2.26-2.26V9.39C52.854,8.145,51.841,7.131,50.595,7.131z M51.854,44.871 c0,0.694-0.564,1.26-1.26,1.26H7.114c-0.695,0-1.26-0.565-1.26-1.26V9.39c0-0.694,0.564-1.259,1.26-1.259h43.48 c0.695,0,1.26,0.564,1.26,1.259V44.871z" fill="url(#_4)"/>
<g fill-opacity="0.7" stroke-opacity="0.7">
<linearGradient id="_5" gradientUnits="userSpaceOnUse" x1="28.85" y1="51.67" x2="28.85" y2="6.55">
<stop stop-color="#ADB5A8" offset="0.03"/>
<stop stop-color="#C7D9D9" offset="0.26"/>
<stop stop-color="#FFFFFF" offset="0.72"/>
</linearGradient>
<path d="M50.595,8.131H7.114c-0.695,0-1.26,0.564-1.26,1.259v35.481c0,0.694,0.564,1.26,1.26,1.26 h43.48c0.695,0,1.26-0.565,1.26-1.26V9.39C51.854,8.695,51.29,8.131,50.595,8.131z" fill="url(#_5)"/>
</g>
<path d="M51.474,8.508c-0.244-0.252-0.529-0.377-0.879-0.377H7.114c-0.695,0-1.26,0.564-1.26,1.259v35.481 c0,0.346,0.143,0.652,0.373,0.873c0.002,0.013,0.627-0.628,0.627-0.628V9.131h44L51.474,8.508z" fill="#FFFFFF"/>
<linearGradient id="_6" gradientUnits="userSpaceOnUse" x1="29.05" y1="13.26" x2="29.05" y2="52.74">
<stop stop-color="#CADCEC" offset="0"/>
<stop stop-color="#809CB3" offset="1"/>
</linearGradient>
<path d="M6.237,45.753c0.242,0.252,0.529,0.377,0.877,0.377h43.482c0.693,0,1.258-0.564,1.258-1.259 V9.39c0-0.346-0.143-0.652-0.371-0.873c-0.004-0.013-0.629,0.628-0.629,0.628s0,35.206,0,35.985c-0.738,0-43.998,0-43.998,0 L6.237,45.753z" fill="url(#_6)"/>
<polygon fill="#496DA2" points="23.842,29.72 22.301,29.72 19.884,25.325 19.884,35.844 16.742,35.844 16.742,18.407 18.337,18.407 23.07,26.952 27.807,18.407 29.399,18.407 29.399,35.844 26.243,35.844 26.243,25.419 "/>
<path d="M42.708,35.844h-3.631l-2.949-7.375H35.45v7.375h-3.156V18.407h4.405c4.077,0,5.188,1.671,5.188,4.935 c0,2.151-0.712,3.951-2.646,4.69L42.708,35.844z M35.45,26.875h1.121c1.433,0,2.16-0.909,2.16-3.53 c0-2.414-0.628-3.345-2.16-3.345H35.45V26.875z" fill="#496DA2"/>
</svg>