<?xml version="1.0" encoding="UTF-8" standalone="no"?>
<!DOCTYPE svg PUBLIC "-//W3C//DTD SVG 1.1 Tiny//EN" "http://www.w3.org/Graphics/SVG/1.1/DTD/svg11-tiny.dtd">
<svg xmlns="http://www.w3.org/2000/svg" xmlns:xlink="http://www.w3.org/1999/xlink" width="42" height="29" viewBox="0 0 42 29">
<rect fill="none" height="29" width="42"/>
<linearGradient id="SVGID_1" gradientUnits="userSpaceOnUse" x1="17.37" y1="2.31" x2="25.45" y2="30.81">
<stop stop-color="#A2C2DD" offset="0.1"/>
<stop stop-color="#6C83BB" offset="0.71"/>
<stop stop-color="#003D6D" offset="0.99"/>
</linearGradient>
<path d="M21.932,27.172c-3.376-0.569-4.931-2.325-4.955-2.352l0,0l-0.042-0.049l-0.012-0.057 l-0.134-0.548l-0.069-0.41l0.004-0.031c0.165-1.521,0.75-2.926,1.1-3.656l0,0l-4.381,1.264l-3.471-1.742l-0.004-0.15 L9.95,18.712l-2.295-0.959L7.56,12.314l2.236,0.403l-0.024-0.915l0.039-0.006c-0.938-0.852-1.425-2.054-1.423-3.341l0,0 c0-0.755,0.164-1.542,0.498-2.313l0,0c0.785-1.838,2.392-2.893,4.244-2.888l0,0c0.718,0,1.469,0.156,2.218,0.471l0,0 c0.669,0.259,1.228,0.732,1.646,1.335l0,0c0.049-0.146,0.105-0.292,0.168-0.438l0,0c0.765-1.787,2.328-2.813,4.128-2.81l0,0 c0.697,0,1.428,0.152,2.156,0.458l0,0c1.385,0.536,2.34,1.965,2.396,3.747l0,0c0,0.052,0.002,0.109,0.002,0.166l0,0 c-0.004,1.89-1.007,3.661-2.482,4.577l0,0l0.594,0.154l-0.152,2.687c2.253-1.889,4.58-3.412,6.617-4.271l0,0l0.059-0.024 l0.064,0.006c0.016,0.004,1.406,0.142,2.455,0.706l0,0l-0.119,0.221l-0.185,0.17l0.185-0.17l0.119-0.221l0.035,0.021 l0.027,0.028c0.013,0.02,1.223,1.289,1.365,2.983l0,0l0.014,0.271c-0.014,0.178-0.021,0.421-0.166,1.008l0,0 c-0.207,0.671-1.496,2.234-2.414,2.667l0,0l-0.078,0.033l-0.076-0.019c-0.895-0.208-2.148-0.837-2.781-1.293l0,0 c-0.772,0.746-1.685,1.599-2.781,2.637l0,0c0.158,0.976,0.183,2.417,0.179,2.468l0,0l-0.013,0.066l-0.095,1.252 c-0.399,1.309-1.842,3.479-4.103,4.996l0,0l-0.083,0.055L21.932,27.172L21.932,27.172z M17.043,10.573l1.294-0.219 c-0.323-0.247-0.6-0.532-0.829-0.848l0,0C17.389,9.878,17.233,10.237,17.043,10.573L17.043,10.573z" fill="url(#SVGID_1)"/>
<polygon fill="#D7CEE6" points="10.028,12.012 20.332,10.271 23.731,11.095 13.463,13.21 "/>
<linearGradient id="SVGID_2" gradientUnits="userSpaceOnUse" x1="6.33" y1="10.56" x2="26.33" y2="19.56">
<stop stop-color="#E6EEF4" offset="0"/>
<stop stop-color="#9646AC" offset="0.44"/>
<stop stop-color="#3D013F" offset="0.94"/>
</linearGradient>
<polygon fill="url(#SVGID_2)" points="13.469,21.067 23.297,18.112 23.696,11.085 13.468,13.214 "/>
<polygon fill="#5E1B67" points="10.028,12.012 10.219,19.435 13.469,21.067 13.498,13.185 "/>
<linearGradient id="SVGID_3" gradientUnits="userSpaceOnUse" x1="3.57" y1="15" x2="11.16" y2="15.17">
<stop stop-color="#E6EEF4" offset="0"/>
<stop stop-color="#9646AC" offset="0.44"/>
<stop stop-color="#3D013F" offset="0.94"/>
</linearGradient>
<polygon fill="url(#SVGID_3)" points="7.814,12.614 7.902,17.585 10.287,16.825 10.245,13.321 "/>
<linearGradient id="SVGID_4" gradientUnits="userSpaceOnUse" x1="6.35" y1="18.38" x2="12.56" y2="17.74">
<stop stop-color="#E6EEF4" offset="0"/>
<stop stop-color="#9646AC" offset="0.44"/>
<stop stop-color="#3D013F" offset="0.94"/>
</linearGradient>
<polygon fill="url(#SVGID_4)" points="11.321,19.013 7.902,17.585 10.287,16.825 12.751,17.778 "/>
<polygon fill="#D7CEE6" points="12.919,14.029 11.294,13.852 7.801,12.591 10.084,13.024 "/>
<linearGradient id="SVGID_5" gradientUnits="userSpaceOnUse" x1="7.08" y1="14.52" x2="12.14" y2="16.52">
<stop stop-color="#DEDEED" offset="0"/>
<stop stop-color="#9646AC" offset="1"/>
</linearGradient>
<polygon fill="url(#SVGID_5)" points="11.294,13.852 11.321,19.013 12.932,17.817 12.941,14.017 "/>
<linearGradient id="SVGID_6" gradientUnits="userSpaceOnUse" x1="20.08" y1="3.42" x2="20.41" y2="10.67">
<stop stop-color="#E6EEF4" offset="0"/>
<stop stop-color="#9646AC" offset="0.44"/>
<stop stop-color="#3D013F" offset="0.94"/>
</linearGradient>
<path d="M17.392,4.721c1.021-2.366,3.43-3.282,5.964-2.218l-3.128,8.466 C17.257,10.294,16.226,7.422,17.392,4.721z" fill="url(#SVGID_6)"/>
<path d="M17.832,7.426c0.078,2.412,1.877,4.052,4.022,3.663c2.141-0.385,3.814-2.656,3.738-5.067 c-0.078-2.41-1.879-4.051-4.02-3.661C19.428,2.747,17.755,5.018,17.832,7.426z" fill="#A15EB6"/>
<linearGradient id="SVGID_7" gradientUnits="userSpaceOnUse" x1="23.7" y1="5.95" x2="20.33" y2="7.7">
<stop stop-color="#E6EEF4" offset="0"/>
<stop stop-color="#9646AC" offset="0.44"/>
<stop stop-color="#3D013F" offset="0.94"/>
</linearGradient>
<path d="M22.254,5.586c1.582,0.909-0.291,3.424-1.375,2.01L22.254,5.586z" fill="url(#SVGID_7)"/>
<path d="M22.249,5.593c0.623,0.902-0.418,2.367-1.369,2.002C20.189,6.304,21.499,5.185,22.249,5.593z" fill="#D7CEE6"/>
<linearGradient id="SVGID_8" gradientUnits="userSpaceOnUse" x1="10.32" y1="4.61" x2="14.4" y2="10.44">
<stop stop-color="#E6EEF4" offset="0"/>
<stop stop-color="#9646AC" offset="0.44"/>
<stop stop-color="#3D013F" offset="0.94"/>
</linearGradient>
<path d="M9.115,6.241c1.049-2.436,3.534-3.381,6.144-2.283l-3.223,8.72 C8.977,11.981,7.914,9.022,9.115,6.241z" fill="url(#SVGID_8)"/>
<linearGradient id="SVGID_9" gradientUnits="userSpaceOnUse" x1="10.4" y1="3.61" x2="14.28" y2="9.36">
<stop stop-color="#DEDEED" offset="0"/>
<stop stop-color="#9646AC" offset="1"/>
</linearGradient>
<path d="M9.568,9.028c0.082,2.482,1.935,4.173,4.144,3.773c2.205-0.398,3.928-2.736,3.85-5.22 c-0.079-2.483-1.935-4.173-4.141-3.771C11.213,4.208,9.489,6.546,9.568,9.028z" fill="url(#SVGID_9)"/>
<linearGradient id="SVGID_10" gradientUnits="userSpaceOnUse" x1="15.53" y1="6.92" x2="11.91" y2="10.42">
<stop stop-color="#E6EEF4" offset="0"/>
<stop stop-color="#9646AC" offset="0.44"/>
<stop stop-color="#3D013F" offset="0.94"/>
</linearGradient>
<path d="M14.124,7.133c1.63,0.937-0.301,3.525-1.416,2.07L14.124,7.133z" fill="url(#SVGID_10)"/>
<path d="M14.116,7.14c0.609,0.908-0.396,2.453-1.408,2.063C12.007,7.87,13.354,6.717,14.116,7.14z" fill="#D7CEE6"/>
<linearGradient id="SVGID_11" gradientUnits="userSpaceOnUse" x1="37.58" y1="10.63" x2="26.73" y2="18.78">
<stop stop-color="#FFFFFF" offset="0"/>
<stop stop-color="#A2C2DD" offset="0.35"/>
<stop stop-color="#6C83BB" offset="0.7"/>
<stop stop-color="#003D6D" offset="1"/>
</linearGradient>
<path d="M34.137,13.063l-4.92,2.019l-0.316,0.301c0.475,0.412,1.934,1.174,2.859,1.383 c0.791-0.338,2.141-1.982,2.271-2.5C34.174,13.686,34.184,13.356,34.137,13.063z" fill="url(#SVGID_11)"/>
<linearGradient id="SVGID_12" gradientUnits="userSpaceOnUse" x1="34.61" y1="14.76" x2="26.99" y2="14.13">
<stop stop-color="#FFFFFF" offset="0"/>
<stop stop-color="#A2C2DD" offset="0.35"/>
<stop stop-color="#6C83BB" offset="0.7"/>
<stop stop-color="#003D6D" offset="1"/>
</linearGradient>
<path d="M31.252,12.755l-2.166,2.232c0.865,0.604,1.904,1.058,2.615,1.252L31.252,12.755z" fill="url(#SVGID_12)"/>
<linearGradient id="SVGID_13" gradientUnits="userSpaceOnUse" x1="35.28" y1="20.74" x2="14.52" y2="26.49">
<stop stop-color="#FFFFFF" offset="0"/>
<stop stop-color="#A2C2DD" offset="0.35"/>
<stop stop-color="#6C83BB" offset="0.7"/>
<stop stop-color="#003D6D" offset="1"/>
</linearGradient>
<path d="M26.077,20.79l-9.092,2.962l0.181,0.903c0,0,1.505,1.715,4.808,2.271 c2.209-1.478,3.633-3.63,4.018-4.938L26.077,20.79z" fill="url(#SVGID_13)"/>
<linearGradient id="SVGID_14" gradientUnits="userSpaceOnUse" x1="25.85" y1="29" x2="14.26" y2="17.07">
<stop stop-color="#FFFFFF" offset="0"/>
<stop stop-color="#A2C2DD" offset="0.35"/>
<stop stop-color="#6C83BB" offset="0.7"/>
<stop stop-color="#003D6D" offset="1"/>
</linearGradient>
<path d="M16.974,23.752c0.229-2.136,1.336-4.081,1.336-4.081l3.355,1.143l0.094,5.249 C19.188,25.678,17.806,24.563,16.974,23.752z" fill="url(#SVGID_14)"/>
<linearGradient id="SVGID_15" gradientUnits="userSpaceOnUse" x1="35.6" y1="11.41" x2="13.22" y2="20.37">
<stop stop-color="#FFFFFF" offset="0.05"/>
<stop stop-color="#A2C2DD" offset="1"/>
</linearGradient>
<path d="M18.31,19.671c0.506,0.479,1.875,1.352,3.302,1.227l11.277-10.674 c-0.982-0.546-2.371-0.666-2.371-0.666C26.682,11.177,21.694,15.185,18.31,19.671z" fill="url(#SVGID_15)"/>
<linearGradient id="SVGID_16" gradientUnits="userSpaceOnUse" x1="38.17" y1="3.91" x2="25.05" y2="20.8">
<stop stop-color="#FFFFFF" offset="0.05"/>
<stop stop-color="#A2C2DD" offset="1"/>
</linearGradient>
<path d="M21.758,26.063c-0.293-1.084-0.412-3.976-0.145-5.198c3.09-4.521,7.537-8.559,11.256-10.66 c0,0,1.049,1.095,1.271,2.853c-0.26,1.11-1.547,2.52-2.441,3.178c-0.119-0.269-0.523-3.289-0.523-3.289 c-1.027,1.344-2.648,2.806-5.303,5.319c0.176,0.934,0.203,2.513,0.203,2.513C25.225,22.832,23.711,24.846,21.758,26.063z" fill="url(#SVGID_16)"/>
</svg>