<?xml version="1.0" encoding="UTF-8"?>
<!DOCTYPE svg PUBLIC "-//W3C//DTD SVG 1.1 Tiny//EN" "http://www.w3.org/Graphics/SVG/1.1/DTD/svg11-tiny.dtd">
<svg baseProfile="tiny" height="22px" version="1.1" viewBox="0 0 22 22" width="22px" x="0px" xmlns="http://www.w3.org/2000/svg" xmlns:xlink="http://www.w3.org/1999/xlink" y="0px">
<g>
<rect fill="none" height="22" width="22"/>
<path d="M21.056,7.891c-1.289-0.719-2.6-1.128-4.074-1.27V2.265c0-0.415-0.336-0.75-0.75-0.75H1.96   c-0.416,0-0.75,0.335-0.75,0.75v16.948c0,0.415,0.335,0.75,0.75,0.75h9.393c0.424,1.056,1.584,1.781,2.944,1.781   c2.001,0,3.56-1.472,3.499-3.05v-7.86c0.926,0.185,1.715,0.479,2.528,0.934c0.489,0.278,1.116-0.073,1.116-0.655V8.546   C21.441,8.275,21.292,8.025,21.056,7.891z" fill-opacity="0.4" stroke-opacity="0.4"/>
<path d="M14.875,15.943v-9.52l1.355-0.015V2.264H1.959v16.948h9.09C11.049,19.211,10.758,16.025,14.875,15.943z    M6.418,5.628h6.689c0.591,0,0.591,0.892,0,0.892H6.418C5.828,6.52,5.828,5.628,6.418,5.628z M6.418,8.277h6.689   c0.593,0,0.593,0.894,0,0.894H6.418C5.827,9.171,5.827,8.277,6.418,8.277z M6.418,11.006h6.689c0.6,0,0.6,0.893,0,0.893H6.418   C5.827,11.899,5.827,11.006,6.418,11.006z M4.641,5.405c0.369,0,0.668,0.3,0.668,0.669S5.01,6.743,4.641,6.743   s-0.668-0.3-0.668-0.669S4.271,5.405,4.641,5.405z M4.641,14.772c-0.369,0-0.668-0.3-0.668-0.669s0.299-0.669,0.668-0.669   s0.668,0.3,0.668,0.669S5.01,14.772,4.641,14.772z M4.641,12.121c-0.369,0-0.668-0.3-0.668-0.669c0-0.37,0.299-0.669,0.668-0.669   s0.668,0.3,0.668,0.669C5.309,11.821,5.01,12.121,4.641,12.121z M4.67,9.389c-0.369,0-0.668-0.299-0.668-0.669   c0-0.368,0.299-0.668,0.668-0.668s0.67,0.3,0.67,0.668C5.34,9.089,5.039,9.389,4.67,9.389z M6.418,14.549   c-0.591,0-0.591-0.894,0-0.894h6.689c0.596,0,0.596,0.894,0,0.894H6.418z M15.769,7.316v9.726   c-1.861-0.752-4.105,0.628-3.814,2.319c0.199,1.12,1.496,1.833,2.902,1.583c1.307-0.229,2.229-1.209,2.189-2.25V9.956   c1.381,0.17,2.48,0.509,3.643,1.157V8.546C19.175,7.703,17.625,7.316,15.769,7.316z" fill="#FFFFFF"/>
</g>
</svg>
