<?xml version="1.0" encoding="UTF-8"?>
<!DOCTYPE svg PUBLIC "-//W3C//DTD SVG 1.1 Tiny//EN" "http://www.w3.org/Graphics/SVG/1.1/DTD/svg11-tiny.dtd">
<svg width="40" height="40" viewBox="-0.5 -0.5 40 40">
<path fill-opacity="0.15" d="M5.351,3.534c-0.985,0-1.79,0.786-1.79,1.755v31.453c0,0.971,0.805,1.758,1.79,1.758 h31.36c0.987,0,1.789-0.787,1.789-1.758V5.289c0-0.969-0.802-1.755-1.789-1.755H5.351z"/>
<path fill-opacity="0.15" d="M4.313,2.513c-0.985,0-1.79,0.786-1.79,1.755v31.453c0,0.971,0.805,1.758,1.79,1.758h31.36 c0.987,0,1.789-0.787,1.789-1.758V4.268c0-0.969-0.802-1.755-1.789-1.755H4.313z"/>
<path fill="#496DA2" d="M3.324,1.522c-0.985,0-1.788,0.788-1.788,1.758v31.451c0,0.969,0.803,1.758,1.788,1.758h31.359 c0.987,0,1.791-0.789,1.791-1.758V3.28c0-0.97-0.804-1.758-1.791-1.758H3.324z"/>
<path fill="#B9D9EA" fill-opacity="0.7" d="M35.308,34.109c0,0.669-0.557,1.211-1.245,1.211H3.809 c-0.688,0-1.244-0.542-1.244-1.211V3.902c0-0.669,0.557-1.214,1.244-1.214h30.254c0.688,0,1.245,0.545,1.245,1.214V34.109z"/>
<linearGradient id="_2" gradientUnits="userSpaceOnUse" x1="19.01" y1="2.37" x2="19.01" y2="40.24">
<stop stop-color="#FFFFFF" offset="0"/>
<stop stop-color="#F7FCFF" offset="0.09"/>
<stop stop-color="#B9D9EA" offset="0.63"/>
<stop stop-color="#A2C2DD" offset="1"/>
</linearGradient>
<path fill="url(#_2)" d="M32.896,33.229c0,0.556-0.504,1.005-1.121,1.005H6.232c-0.616,0-1.117-0.449-1.117-1.005V4.779 c0-0.554,0.501-1.002,1.117-1.002h25.541c0.619,0,1.121,0.448,1.121,1.002v28.45H32.896z"/>
<path fill="#FFFFFF" fill-opacity="0.3" d="M3.324,1.522c-0.985,0-1.788,0.797-1.788,1.775v14.724h34.938V3.299 c0-0.979-0.804-1.776-1.791-1.776H3.324L3.324,1.522z"/>
<path fill-opacity="0.3" fill="#FFFFFF" d="M3.324,1.522c-0.985,0-1.788,0.797-1.788,1.775v14.724h34.938V3.299 c0-0.979-0.804-1.776-1.791-1.776H3.324L3.324,1.522z"/>
</svg>