<?xml version="1.0" encoding="UTF-8"?>
<!DOCTYPE svg PUBLIC "-//W3C//DTD SVG 1.1 Tiny//EN" "http://www.w3.org/Graphics/SVG/1.1/DTD/svg11-tiny.dtd">
<svg width="352" height="126" viewBox="-0.603 0.382 352 126">
<g fill-opacity="0.7" stroke-opacity="0.7">
<path fill-opacity="0.01" fill="#656B6B" d="M11.397,11.382c-4.963,0-9,4.037-9,9v88c0,4.963,4.037,9,9,9h326c4.963,0,9-4.037,9-9v-88 c0-4.963-4.037-9-9-9H11.397z"/>
<path fill-opacity="0.03" fill="#656B6B" d="M11.397,12.382c-4.41,0-8,3.588-8,8v88c0,4.41,3.59,8,8,8h326c4.412,0,8-3.59,8-8v-88 c0-4.412-3.588-8-8-8H11.397z"/>
<path fill-opacity="0.05" fill="#656B6B" d="M11.397,13.382c-3.859,0-7,3.141-7,7v88c0,3.859,3.141,7,7,7h326c3.859,0,7-3.141,7-7v-88 c0-3.859-3.141-7-7-7H11.397z"/>
<path fill-opacity="0.07" fill="#656B6B" d="M11.397,14.382c-3.309,0-6,2.691-6,6v88c0,3.309,2.691,6,6,6h326c3.309,0,6-2.691,6-6v-88 c0-3.309-2.691-6-6-6H11.397z"/>
<path fill-opacity="0.11" fill="#656B6B" d="M342.397,108.382c0,2.762-2.238,5-5,5h-326c-2.762,0-5-2.238-5-5v-88c0-2.762,2.238-5,5-5 h326c2.762,0,5,2.238,5,5V108.382z"/>
<rect x="5.397" y="14.382" fill="#FFFFFF" width="336" height="98"/>
</g>
</svg>