<?xml version="1.0" encoding="UTF-8"?>
<!DOCTYPE svg PUBLIC "-//W3C//DTD SVG 1.1 Tiny//EN" "http://www.w3.org/Graphics/SVG/1.1/DTD/svg11-tiny.dtd">
<svg width="13" height="13" viewBox="0 0 13 13">
<polygon fill="#A2C2DD" points="11.489,2.985 0.086,0.897 0.751,9.999 11.359,12.954 11.341,12.931 11.381,12.954 "/>
<polygon fill="#496DA2" points="11.359,12.954 12.658,11.912 12.936,2.049 11.447,2.971 "/>
<polygon fill="#CEE1EF" points="12.936,2.049 1.624,0.359 0.09,0.896 11.458,2.97 "/>
<defs>
<polygon points="1.895,7.936 1.784,3.775 9.645,5.577 9.755,9.737 "/>
</defs>
<path fill="#496DA2" d="M8.056,8.516C8.052,8.515,8.047,8.514,8.043,8.513 C7.496,8.378,7.04,7.731,7.028,7.066C7.018,6.398,7.446,5.965,7.993,6.09c0.005,0.002,0.009,0.002,0.014,0.004 C8.554,6.227,9.01,6.883,9.021,7.548C9.032,8.217,8.597,8.64,8.056,8.516 M3.552,7.416C3.548,7.415,3.543,7.414,3.539,7.413 C2.992,7.279,2.536,6.631,2.525,5.958C2.514,5.299,2.942,4.864,3.49,4.99c0.004,0.001,0.009,0.002,0.013,0.004 c0.547,0.134,1.004,0.79,1.015,1.454C4.528,7.107,4.093,7.54,3.552,7.416 M3.462,4.16C2.549,3.951,1.883,4.679,1.838,5.792 C1.797,6.797,2.531,7.953,3.719,8.219l4.339,1.129C8.062,9.35,8.066,9.35,8.071,9.352c0.919,0.21,1.646-0.521,1.63-1.639 C9.686,6.589,8.918,5.496,7.992,5.267C7.983,5.265,7.975,5.263,7.966,5.261c-0.914-0.21-1.64,0.518-1.625,1.631 c0.013,0.461,0.143,0.907,0.355,1.295L4.879,7.745c0.209-0.292,0.324-0.673,0.319-1.132C5.182,5.488,4.414,4.388,3.488,4.167 C3.479,4.164,3.471,4.162,3.462,4.16"/>
</svg>