<?xml version="1.0" encoding="UTF-8"?>
<!DOCTYPE svg PUBLIC "-//W3C//DTD SVG 1.1 Tiny//EN" "http://www.w3.org/Graphics/SVG/1.1/DTD/svg11-tiny.dtd">
<svg baseProfile="tiny" height="44px" version="1.1" viewBox="0.002 0.007 44 44" width="44px" x="0px" xmlns="http://www.w3.org/2000/svg" xmlns:xlink="http://www.w3.org/1999/xlink" y="0px">
<linearGradient gradientUnits="userSpaceOnUse" id="SVGID_1_" x1="12.4424" x2="12.4424" y1="8.5762" y2="34.3293">
<stop offset="0" style="stop-color:#B2B2B2"/>
<stop offset="1" style="stop-color:#000000"/>
</linearGradient>
<polygon fill="url(#SVGID_1_)" points="16.943,16.875 16.961,16.855 16.943,16.834 16.943,16.807 16.914,16.807 9.896,9.786   9.238,10.445 13.76,16.807 7.924,16.807 7.924,19.039 7.963,19.039 7.932,19.072 14.951,26.095 15.709,25.337 11.059,19.039   16.943,19.039 "/>
<linearGradient gradientUnits="userSpaceOnUse" id="SVGID_2_" x1="30.3945" x2="30.3945" y1="9.8311" y2="34.1488">
<stop offset="0" style="stop-color:#B2B2B2"/>
<stop offset="1" style="stop-color:#000000"/>
</linearGradient>
<path d="M35,33.625c0,0,0.057,0.265,0.129,0.593H25.66V23.652h3.699  C30.723,23.652,33.051,26.99,35,33.625z M31.881,16.131c0,3.44-2.785,6.239-6.221,6.266V9.865  C29.096,9.891,31.881,12.69,31.881,16.131z" display="none" fill="url(#SVGID_2_)" fill-opacity="0.3" stroke-opacity="0.3"/>
<linearGradient gradientUnits="userSpaceOnUse" id="SVGID_3_" x1="26.1475" x2="26.1475" y1="9.7852" y2="34.1483">
<stop offset="0" style="stop-color:#B2B2B2"/>
<stop offset="1" style="stop-color:#000000"/>
</linearGradient>
<path d="M32.539,18.042c0.189-0.602,0.299-1.243,0.299-1.908c0-0.277-0.025-0.548-0.061-0.816l-5.53,5.53  v1.495c0.423-0.045,0.838-0.115,1.231-0.241L32.539,18.042z M32.773,25.938l-5.526,5.526v2.484l6.411-6.412  C33.359,26.93,33.063,26.402,32.773,25.938z M30.313,23.656H29.75l-2.503,2.501v2.484l4.302-4.302  C31.086,23.888,30.666,23.656,30.313,23.656z M31.039,11.75l-3.792,3.793v2.482l4.845-4.846  C31.811,12.652,31.455,12.171,31.039,11.75z M34.527,29.493l-4.73,4.729h2.482l2.926-2.924  C34.98,30.653,34.754,30.056,34.527,29.493z M16.346,33.625c0,0-0.057,0.265-0.129,0.593h8.83V23.652h-3.061  C20.623,23.652,18.295,26.99,16.346,33.625z M35.949,33.629c-0.02-0.067-0.041-0.128-0.059-0.193l-0.787,0.785h0.975L35.949,33.629z   M27.531,9.948l-0.284,0.284v2.486l2.163-2.164C28.83,10.258,28.199,10.052,27.531,9.948z M19.465,16.131  c0,3.225,2.446,5.885,5.582,6.229V9.902C21.911,10.245,19.465,12.906,19.465,16.131z" fill="url(#SVGID_3_)"/>
<rect fill="none" height="44.007" width="44.002"/>
</svg>
