<?xml version="1.0" encoding="UTF-8"?>
<!DOCTYPE svg PUBLIC "-//W3C//DTD SVG 1.1 Tiny//EN" "http://www.w3.org/Graphics/SVG/1.1/DTD/svg11-tiny.dtd">
<svg baseProfile="tiny" height="26px" style="enable-background:new 0 0 26 26;" version="1.1" viewBox="0 0 26 26" width="26px" x="0px" xmlns="http://www.w3.org/2000/svg" xmlns:xlink="http://www.w3.org/1999/xlink" y="0px">
<rect height="26" style="fill:none;" width="26"/>
<path d="M26,22.664C26,24.507,24.506,26,22.664,26H3.336C1.494,26,0,24.507,0,22.664V3.336  C0,1.494,1.494,0,3.336,0h19.328C24.506,0,26,1.494,26,3.336V22.664z" style="opacity:0.5;"/>
<path d="M13.007,21.008c-2.044,0-4.09-0.774-5.653-2.336C4.229,15.546,4.23,10.48,7.357,7.353L5.648,5.644  l5.372,0.003l0.002,5.371L9.323,9.322c-2.036,2.035-2.036,5.348-0.001,7.382c1.018,1.018,2.351,1.523,3.686,1.523  c0.189,0,0.379-0.011,0.568-0.03l0,2.791C13.387,21.001,13.197,21.008,13.007,21.008 M14.968,20.369l-0.001-5.372l1.72,1.72  c0.008-0.006,0.011-0.007,0.017-0.014c2.035-2.035,2.037-5.345,0-7.381c-1.015-1.015-2.348-1.521-3.683-1.521  c-0.205,0-0.409,0.011-0.612,0.035l0.001-2.798c0.202-0.015,0.405-0.023,0.607-0.023c2.048,0,4.092,0.777,5.654,2.34  c3.124,3.123,3.129,8.191,0.002,11.319c-0.008,0.006-0.009,0.009-0.017,0.014l1.684,1.682H14.968 M13.007,21.657L13.007,21.657  c0.205,0,0.411-0.007,0.615-0.021l0.604-0.042v-0.606l-0.001-2.79v-0.725l-0.72,0.078c-0.165,0.018-0.333,0.026-0.498,0.026  c-1.221,0-2.366-0.473-3.226-1.333c-0.861-0.861-1.335-2.009-1.335-3.231c0-1.002,0.32-1.955,0.91-2.74l1.207,1.204l1.11,1.107  l0-1.567l-0.002-5.371l0-0.65h-0.649L5.649,4.994l-1.571,0l1.111,1.11L6.455,7.37c-2.925,3.396-2.779,8.542,0.439,11.761  C8.524,20.761,10.694,21.657,13.007,21.657L13.007,21.657L13.007,21.657z M14.317,21.02h0.65h5.372h1.569l-1.11-1.109l-1.237-1.238  c1.362-1.571,2.105-3.559,2.104-5.66c-0.001-2.311-0.901-4.483-2.535-6.117c-1.632-1.632-3.804-2.531-6.114-2.531  c-0.218,0-0.438,0.008-0.656,0.025L11.76,4.435v0.603l-0.002,2.798v0.731l0.726-0.085c0.178-0.021,0.358-0.031,0.537-0.031  c1.22,0,2.365,0.473,3.224,1.331c1.631,1.631,1.769,4.198,0.413,5.987l-1.231-1.231l-1.11-1.11l0.001,1.57l0.001,5.373V21.02  L14.317,21.02z" style="opacity:0.4;"/>
<path d="M9.323,9.322l1.699,1.695l-0.002-5.371L5.648,5.644l1.709,1.709l0,0  C4.23,10.48,4.229,15.546,7.354,18.672c1.708,1.707,3.993,2.473,6.222,2.316l0-2.791c-1.518,0.164-3.091-0.331-4.254-1.493  C7.288,14.67,7.288,11.357,9.323,9.322L9.323,9.322L9.323,9.322z M20.34,20.369l-1.684-1.682c0.008-0.005,0.009-0.008,0.017-0.014  c3.127-3.128,3.122-8.196-0.002-11.319c-1.717-1.717-4.016-2.486-6.261-2.317l-0.001,2.798c1.531-0.179,3.125,0.316,4.295,1.486  c2.037,2.036,2.035,5.346,0,7.381c-0.006,0.007-0.009,0.008-0.017,0.014l-1.72-1.72l0.001,5.372H20.34L20.34,20.369z" style="fill:#FFFFFF;"/>
</svg>
