<?xml version="1.0" encoding="UTF-8"?>
<!DOCTYPE svg PUBLIC "-//W3C//DTD SVG 1.1 Tiny//EN" "http://www.w3.org/Graphics/SVG/1.1/DTD/svg11-tiny.dtd">
<svg width="352" height="126" viewBox="-0.21 -0.736 352 126">
<path fill-opacity="0.01" fill="#656B6B" d="M21.79,9.264c-5.223,0.271-10.105,2.468-13.817,6.176C3.986,19.424,1.79,24.724,1.79,30.363 v67.775c0,10.876,8.875,21.125,20.847,21.125c0.653,0,302.047,0,302.047,0c13.844,0,25.105-11.267,25.105-25.115V30.363 c0-5.639-2.197-10.939-6.189-14.926c-3.994-3.988-9.299-6.182-14.941-6.174H21.79z"/>
<path fill-opacity="0.02" fill="#656B6B" d="M22.79,10.274c-5.33,0.029-10.339,2.105-14.11,5.873c-3.798,3.795-5.89,8.844-5.89,14.217 v67.775c0,10.75,8.875,20.125,19.898,20.125c3.227,0,301.996,0,301.996,0c13.293,0,24.105-10.818,24.105-24.115V30.363 c0-5.371-2.094-10.42-5.896-14.219c-3.805-3.799-8.859-5.888-14.232-5.881L22.79,10.274z"/>
<path fill-opacity="0.03" fill="#656B6B" d="M22.897,11.264c-5.105,0-9.902,1.985-13.511,5.59c-3.608,3.607-5.597,8.404-5.597,13.51 v67.775c0,10.125,8.25,19.125,18.949,19.125c0.551,0,301.945,0,301.945,0c12.74,0,23.105-10.369,23.105-23.115V30.363 c0-5.104-1.99-9.902-5.604-13.511c-3.615-3.61-8.418-5.595-13.523-5.589H22.897z"/>
<path fill-opacity="0.06" fill="#656B6B" d="M22.897,12.264c-4.838,0-9.385,1.881-12.804,5.298c-3.42,3.417-5.304,7.964-5.304,12.802 v67.775c0,9.33,7.5,18.125,18.125,18.121c0.625,0,301.769,0.004,301.769,0.004c12.189,0,22.105-9.921,22.105-22.115V30.363 c0-4.836-1.885-9.383-5.311-12.803c-3.426-3.422-7.977-5.303-12.816-5.297H22.897z"/>
<path fill-opacity="0.05" fill="#656B6B" d="M328.664,13.264h-287.5H25.79h-2.769c-9.448,0-17.231,7.647-17.231,17.1l0.002,67.775 c0,8.859,7.373,17.125,17.123,17.125H323.69h0.994c11.639,0,21.105-9.473,21.105-21.115V30.363 C345.789,20.911,338.112,13.252,328.664,13.264z"/>
<path fill-opacity="0.1" fill="#656B6B" d="M328.039,14.264H23.021c-9.448,0-16.231,6.647-16.231,16.1l0.001,66.775 c-0.001,9.125,6.499,17.125,17.078,17.123l300.815,0.002c11.086,0,20.105-9.023,20.105-20.115V30.363 C344.789,20.911,337.039,14.264,328.039,14.264z"/>
<path fill-opacity="0.1" fill="#656B6B" d="M327.039,15.264H23.021c-9.448,0-15.231,5.647-15.231,15.1l0.001,65.775 c-0.001,9,5.124,17.125,17.106,17.125c0.518,0,299.787,0,299.787,0c10.535,0,19.105-8.575,19.105-19.115V30.363 C343.789,20.911,336.039,15.264,327.039,15.264z"/>
<path fill-opacity="0.1" fill="#656B6B" d="M326.164,16.264H24.04c-9.448,0-15.25,4.647-15.25,14.1l0.001,64.785 c-0.001,8.865,3.874,17.115,17.124,17.115h298.769c9.984,0,18.105-8.127,18.105-18.115V30.363 C342.789,20.911,334.789,16.264,326.164,16.264z"/>
<linearGradient id="_2" gradientUnits="userSpaceOnUse" x1="173.79" y1="100.38" x2="173.79" y2="36.17">
<stop stop-color="#D9F4E0" offset="0"/>
<stop stop-color="#FFFFFF" offset="1"/>
</linearGradient>
<path fill="url(#_2)" d="M324.684,13.264H22.896c-9.448,0-17.106,7.647-17.106,17.1v63.785 c0,9.45,7.658,17.115,17.106,17.115h301.788c9.447,0,17.105-7.665,17.105-17.115V30.363 C341.789,20.911,334.131,13.252,324.684,13.264z"/>
</svg>