<?xml version="1.0" encoding="UTF-8"?>
<!DOCTYPE svg PUBLIC "-//W3C//DTD SVG 1.1 Tiny//EN" "http://www.w3.org/Graphics/SVG/1.1/DTD/svg11-tiny.dtd">
<svg width="36" height="36" viewBox="0 0 36 36">
<path d="M1.693,18.636c0,9.342,7.602,16.94,16.941,16.94c9.342,0,16.941-7.598,16.941-16.94 s-7.6-16.942-16.941-16.942C9.295,1.694,1.693,9.293,1.693,18.636z" fill-opacity="0.01" />
<path d="M2.434,18.636c0,8.933,7.268,16.201,16.201,16.201s16.202-7.268,16.202-16.201 c0-8.934-7.269-16.201-16.202-16.201S2.434,9.702,2.434,18.636z" fill-opacity="0.02" />
<path d="M3.172,18.636c0,8.524,6.938,15.46,15.463,15.46c8.527,0,15.461-6.936,15.461-15.46 c0-8.528-6.934-15.461-15.461-15.461C10.11,3.174,3.172,10.107,3.172,18.636z" fill-opacity="0.04" />
<path d="M3.796,18.636c0,8.182,6.657,14.837,14.839,14.837 c8.181,0,14.837-6.655,14.837-14.837S26.815,3.797,18.635,3.797C10.453,3.797,3.796,10.454,3.796,18.636z" fill-opacity="0.07" />
<linearGradient id="_3" gradientUnits="userSpaceOnUse" x1="18.01" y1="1.35" x2="18.01" y2="39.3">
<stop stop-color="#CFECFF" offset="0"/>
<stop stop-color="#8CC2EA" offset="1"/>
</linearGradient>
<path d="M3.028,18.012c0,8.262,6.721,14.983,14.982,14.983 c8.263,0,14.985-6.722,14.985-14.983c0-8.262-6.723-14.984-14.985-14.984C9.749,3.027,3.028,9.75,3.028,18.012z" fill="url(#_3)"/>
<linearGradient id="_4" gradientUnits="userSpaceOnUse" x1="18.01" y1="1.35" x2="18.01" y2="39.3">
<stop stop-color="#FFFFFF" offset="0"/>
<stop stop-color="#EAF7FF" offset="0.32"/>
<stop stop-color="#D6EFFF" offset="0.73"/>
<stop stop-color="#CFECFF" offset="1"/>
</linearGradient>
<circle cx="18.012" cy="18.012" fill="url(#_4)" r="13.984"/>
<ellipse cx="18.011" cy="18.027" fill="#FFFFFF" fill-opacity="0.35" rx="12.079" ry="9.86" />
<path d="M27.77,21.063l-2.737,0.007l-0.017-8.532c-0.005-1.409-0.988-2.389-2.391-2.386 l-11.611,0.03c-2.878,0.012-2.38,3.367-2.379,4.101l2.732-0.01l0.021,8.535c0.005,1.408,0.988,2.39,2.395,2.383l11.607-0.027 C27.968,25.166,27.789,22.643,27.77,21.063z M9.994,12.913c0,0-0.139-1.109,0.715-1.313c0.736,0.189,0.654,1.313,0.654,1.313 L9.994,12.913z M14.468,23.823c0,0-1.713,0.294-1.713-1.014l-0.026-10.074c0-0.445-0.083-0.844-0.232-1.19l10.129-0.034 c0.655,0.004,1.029,0.375,1.029,1.032l0.021,8.532l-8.19,0.022C15.508,22.476,15.727,23.866,14.468,23.823z M25.391,23.799 l-8.754,0.024c0.246-0.332,0.218-1.163,0.218-1.37l9.55-0.021C26.404,22.913,26.407,23.799,25.391,23.799z" fill="#B3DDFF"/>
<rect fill="#B3DDFF" height="1.36" width="8.189" x="14.098" y="12.895"/>
<rect fill="#B3DDFF" height="1.367" width="8.186" x="14.105" y="15.624"/>
<polygon fill="#B3DDFF" points="14.107,18.364 14.113,19.731 22.307,19.712 22.295,18.343 "/>
</svg>