<?xml version="1.0" encoding="UTF-8"?>
<!DOCTYPE svg PUBLIC "-//W3C//DTD SVG 1.1 Tiny//EN" "http://www.w3.org/Graphics/SVG/1.1/DTD/svg11-tiny.dtd">
<svg width="60" height="52" viewBox="-0.671 0.429 60 52">
<linearGradient id="_5" gradientUnits="userSpaceOnUse" x1="29.33" y1="45.23" x2="29.33" y2="6.83">
<stop stop-color="#698AB5" offset="0"/>
<stop stop-color="#41628E" offset="0.71"/>
<stop stop-color="#385985" offset="1"/>
</linearGradient>
<path d="M7.588,6.429c-1.245,0-2.259,1.014-2.259,2.259v35.481c0,1.246,1.014,2.26,2.259,2.26h43.481 c1.246,0,2.26-1.014,2.26-2.26V8.688c0-1.245-1.014-2.259-2.26-2.259H7.588z" fill="url(#_5)"/>
<g fill-opacity="0.9" stroke-opacity="0.9">
<linearGradient id="_6" gradientUnits="userSpaceOnUse" x1="29.33" y1="1.89" x2="29.33" y2="47.01">
<stop stop-color="#6694BF" offset="0"/>
<stop stop-color="#8CB3D2" offset="0.09"/>
<stop stop-color="#B3D3E6" offset="0.37"/>
<stop stop-color="#BDDBEB" offset="0.69"/>
</linearGradient>
<path d="M6.329,44.169V8.688c0-0.694,0.564-1.259,1.259-1.259h43.481c0.694,0,1.26,0.564,1.26,1.259 v35.481c0,0.694-0.565,1.26-1.26,1.26H7.588C6.894,45.429,6.329,44.863,6.329,44.169z" fill="url(#_6)"/>
</g>
<linearGradient id="_7" gradientUnits="userSpaceOnUse" x1="29.14" y1="43.21" x2="29.14" y2="10.81">
<stop stop-color="#ADCCED" offset="0"/>
<stop stop-color="#6385AD" offset="1"/>
</linearGradient>
<path d="M51.947,7.806c-0.243-0.252-0.529-0.377-0.878-0.377H7.588c-0.694,0-1.259,0.564-1.259,1.259 v35.481c0,0.346,0.143,0.652,0.372,0.873c0.003,0.013,0.628-0.628,0.628-0.628V8.429h43.999L51.947,7.806z" fill="url(#_7)"/>
<linearGradient id="_8" gradientUnits="userSpaceOnUse" x1="29.52" y1="40.68" x2="29.52" y2="1.21">
<stop stop-color="#DBF5FF" offset="0"/>
<stop stop-color="#5985B0" offset="1"/>
</linearGradient>
<path d="M6.711,45.051c0.243,0.252,0.529,0.377,0.878,0.377H51.07c0.694,0,1.259-0.564,1.259-1.259V8.688 c0-0.346-0.143-0.652-0.372-0.873c-0.003-0.013-0.628,0.628-0.628,0.628s0,35.206,0,35.985c-0.738,0-43.999,0-43.999,0 L6.711,45.051z" fill="url(#_8)"/>
<polygon fill="#496DA2" points="39.329,24.543 31.215,24.543 31.215,16.428 27.443,16.428 27.443,24.543 19.329,24.543 19.329,28.314 27.443,28.314 27.443,36.43 31.215,36.43 31.215,28.314 39.329,28.314 "/>
</svg>