<?xml version="1.0" encoding="UTF-8" standalone="no"?>
<!DOCTYPE svg PUBLIC "-//W3C//DTD SVG 1.1 Tiny//EN" "http://www.w3.org/Graphics/SVG/1.1/DTD/svg11-tiny.dtd">
<svg xmlns="http://www.w3.org/2000/svg" xmlns:xlink="http://www.w3.org/1999/xlink" width="44" height="44" viewBox="0 0 44 44">
<rect fill="none" height="44" width="44"/>
<linearGradient id="SVGID_1" gradientUnits="userSpaceOnUse" x1="22" y1="5.67" x2="22" y2="38.42">
<stop stop-color="#B2B2B2" offset="0"/>
<stop stop-color="#000000" offset="1"/>
</linearGradient>
<path d="M24.596,30.061h-5.561c-0.016-0.801-0.024-1.287-0.024-1.459c0-1.807,0.3-3.289,0.895-4.451 c0.595-1.161,1.791-2.47,3.576-3.926c1.791-1.454,2.859-2.409,3.209-2.859c0.537-0.711,0.805-1.496,0.805-2.352 c0-1.195-0.473-2.217-1.432-3.067c-0.949-0.848-2.236-1.276-3.849-1.276c-1.553,0-2.854,0.442-3.903,1.33 c-1.047,0.892-1.766,2.24-2.161,4.058l-5.625-0.696c0.158-2.606,1.269-4.815,3.325-6.629C15.909,6.913,18.611,6,21.957,6 c3.519,0,6.318,0.92,8.399,2.761c2.079,1.839,3.117,3.982,3.117,6.425c0,1.351-0.378,2.633-1.142,3.838 c-0.766,1.209-2.399,2.852-4.9,4.931c-1.295,1.077-2.096,1.943-2.41,2.6C24.709,27.199,24.567,28.373,24.596,30.061z" fill="url(#SVGID_1)"/>
<rect fill="url(#SVGID_1)" height="5.465" width="5.461" x="19.082" y="32.535"/>
</svg>