<?xml version="1.0" encoding="UTF-8"?>
<!DOCTYPE svg PUBLIC "-//W3C//DTD SVG 1.1 Tiny//EN" "http://www.w3.org/Graphics/SVG/1.1/DTD/svg11-tiny.dtd">
<svg width="44" height="44" viewBox="0 0 44 44">
<linearGradient id="_5" gradientUnits="userSpaceOnUse" x1="9.22" y1="-4.07" x2="35.07" y2="23.03">
<stop stop-color="#FFFFFF" offset="0"/>
<stop stop-color="#E0EAF3" offset="0.11"/>
<stop stop-color="#A2C2DD" offset="0.35"/>
<stop stop-color="#8CA9CF" offset="0.48"/>
<stop stop-color="#6C83BB" offset="0.7"/>
<stop stop-color="#637DB5" offset="0.75"/>
<stop stop-color="#4C6EA4" offset="0.82"/>
<stop stop-color="#265689" offset="0.91"/>
<stop stop-color="#003D6D" offset="0.99"/>
</linearGradient>
<path d="M33.774,20.07c0,0,0-4.112,0-4.416c-0.275,0-2.351,0-2.626,0c0,0.303,0,4.416,0,4.416 c0,1.436-0.293,2.795-0.806,4.026l1.956,1.959C33.233,24.27,33.774,22.229,33.774,20.07z" fill="url(#_5)"/>
<path d="M22.01,29.928c-9.555-0.886-9.158-10.265-9.158-10.83l-2.626-2.629c0,1.284,0,3.602,0,3.602 c0.362,10.392,8.883,12.18,10.462,12.349c0,0,0,5.183,0,5.489c0.274,0,2.35,0,2.625,0c0-0.307,0-5.515,0-5.515 s1.557-0.17,2.314-0.505l-2.104-2.107C23.028,29.87,22.523,29.976,22.01,29.928z" fill="url(#_5)"/>
<path d="M20.795,27.052L15.33,21.58C15.938,24.373,18.088,26.543,20.795,27.052z" fill="url(#_5)"/>
<path d="M22.003,8.373c2.434,0,4.412,2.132,4.412,4.752v6.86c0,0.056-0.013,0.107-0.016,0.163l2.082,2.083 c0.224-0.711,0.375-1.457,0.375-2.246v-6.86c0-3.966-3.074-7.196-6.854-7.196c-2.606,0-4.848,1.552-6.008,3.803l1.853,1.854 C18.445,9.723,20.073,8.373,22.003,8.373z" fill="url(#_5)"/>
<polygon fill="#496DA2" points="5.699,8.48 8.496,5.679 38.301,35.521 35.504,38.321 "/>
</svg>