<?xml version="1.0" encoding="UTF-8"?>
<!DOCTYPE svg PUBLIC "-//W3C//DTD SVG 1.1 Tiny//EN" "http://www.w3.org/Graphics/SVG/1.1/DTD/svg11-tiny.dtd">
<svg width="16" height="16" viewBox="0 0 16 16">
<rect x="0.988" y="0.941" fill="#FFFFFF" width="14.117" height="14.117"/>
<path fill="#496DA2" d="M0,0v16h16V0H0z M15.059,0.941v14.117H0.941V0.941H15.059z"/>
<path fill="#496DA2" d="M14.32,11.318H8.299V5.298h6.021V11.318z M11.673,8.307 c0,0.529,0.429,0.958,0.958,0.958s0.959-0.429,0.959-0.958s-0.43-0.958-0.959-0.958S11.673,7.777,11.673,8.307z"/>
<polygon fill="#496DA2" points="2.74,7.133 1.618,7.902 1.635,8.437 2.74,9.191 4.125,9.191 4.77,8.623 5.444,9.191 6.52,9.191 7.07,8.838 7.472,9.191 8.333,9.469 8.354,7.146 "/>
<polygon fill="#FFFFFF" points="3.999,6.009 10.602,12.575 14.507,12.481 6.537,4.478 "/>
<rect x="-2.628" y="7.525" transform="matrix(-0.7066 -0.7076 0.7076 -0.7066 8.0114 19.3722)" fill="#496DA2" width="21.299" height="1"/>
</svg>