<?xml version="1.0" encoding="UTF-8"?>
<!DOCTYPE svg PUBLIC "-//W3C//DTD SVG 1.1 Tiny//EN" "http://www.w3.org/Graphics/SVG/1.1/DTD/svg11-tiny.dtd">
<svg width="84" height="58" viewBox="0 0 84 58">
<linearGradient id="_5" gradientUnits="userSpaceOnUse" x1="34.84" y1="17.54" x2="52.85" y2="39.19">
<stop stop-color="#DEE9F3" offset="0"/>
<stop stop-color="#235487" offset="1"/>
</linearGradient>
<circle fill="url(#_5)" cx="43.932" cy="28.468" r="24.102"/>
<radialGradient id="_6" gradientUnits="userSpaceOnUse" cx="48.52" cy="13.48" r="43.02">
<stop stop-color="#FFFFFF" offset="0"/>
<stop stop-color="#A2C2DD" offset="0.53"/>
<stop stop-color="#6C83BB" offset="0.87"/>
<stop stop-color="#003D6D" offset="1"/>
</radialGradient>
<circle fill="url(#_6)" cx="43.932" cy="28.467" r="23.25"/>
<radialGradient id="_7" gradientUnits="userSpaceOnUse" cx="48.84" cy="15.85" r="29.26">
<stop stop-color="#E6EEF4" offset="0"/>
<stop stop-color="#C6DCC1" offset="0.08"/>
<stop stop-color="#91C06F" offset="0.21"/>
<stop stop-color="#6BAB33" offset="0.32"/>
<stop stop-color="#539E0E" offset="0.4"/>
<stop stop-color="#4A9900" offset="0.44"/>
<stop stop-color="#398419" offset="0.55"/>
<stop stop-color="#22663B" offset="0.71"/>
<stop stop-color="#135550" offset="0.85"/>
<stop stop-color="#0E4E58" offset="0.94"/>
</radialGradient>
<path fill="url(#_7)" d="M30.906,9.211c-0.191,0.129-0.375,0.266-0.563,0.4c-0.133,0.096-0.268,0.191-0.399,0.291 c-0.172,0.13-0.339,0.264-0.507,0.398c-0.139,0.112-0.28,0.223-0.417,0.338c-0.159,0.132-0.313,0.269-0.468,0.405 c-0.142,0.125-0.281,0.251-0.42,0.379c-0.146,0.136-0.291,0.275-0.434,0.414c-0.14,0.137-0.277,0.275-0.415,0.416 c-0.135,0.138-0.269,0.278-0.4,0.42c-0.139,0.149-0.274,0.302-0.409,0.456c-0.124,0.14-0.247,0.28-0.368,0.423 c-0.137,0.164-0.269,0.331-0.402,0.499c-0.079,0.1-0.159,0.199-0.235,0.3c0.805-0.637,2.264-1.791,2.394-1.877 c0.179-0.119,1.043-0.477,1.043-0.895s0.687-0.625,0.687-0.625l0.089,0.328l0.625,0.269c0,0,0.746-0.805,0.895-1.014 c0.148-0.209,0.417-1.013,0.417-1.013l1.295-1.525c-0.583,0.314-1.147,0.656-1.698,1.017 C31.112,9.079,31.006,9.143,30.906,9.211z M38.102,7.542c0.676,0.224,1.23-0.228,1.86-0.632c0.224-0.046,0.538,0.089,1.08-0.181 c0.54-0.27,1.617-0.853,1.886-0.853c0.269,0,1.284,0.186,1.507-0.172c0,0,0.669,0.089,1.072,0.134 c0.559,0.062,2.682,0.318,3.265,0.093c0.082-0.032,0.2-0.075,0.339-0.125c-0.106-0.025-0.21-0.05-0.314-0.073 c-0.15-0.031-0.301-0.061-0.451-0.089c-0.248-0.048-0.499-0.095-0.751-0.134C47.451,5.488,47.31,5.47,47.168,5.45 c-0.267-0.037-0.532-0.074-0.799-0.101c-0.114-0.012-0.229-0.019-0.343-0.03c-0.689-0.062-1.385-0.098-2.092-0.098 c-0.115,0-0.228,0.007-0.343,0.008c-0.366,0.006-0.729,0.018-1.092,0.04c-0.201,0.013-0.4,0.029-0.599,0.046 c-0.332,0.028-0.662,0.064-0.991,0.107c-0.157,0.021-0.317,0.037-0.473,0.06c-0.452,0.069-0.901,0.153-1.345,0.247 c-0.164,0.035-0.327,0.074-0.489,0.113c-0.328,0.077-0.654,0.161-0.977,0.252c-0.106,0.03-0.212,0.06-0.319,0.091 c-0.584,0.563-1.215,1.326-2.744,2.262c0.096,0.196,0.414,0.244,1.083,0.033C36.137,8.437,37.427,7.317,38.102,7.542z M25.744,29.55L24.314,28c0,0.006,0.172-0.988-0.03-1.222c-0.177-0.209-0.686-0.805-1.043-0.924 c-0.328-0.109-0.402-1.267-0.864-1.907c-0.417-0.579-0.752-0.902-1.02-1.033c-0.021,0.082-0.038,0.165-0.058,0.249 c-0.072,0.304-0.137,0.608-0.196,0.916c-0.027,0.142-0.052,0.284-0.076,0.427c-0.049,0.288-0.094,0.576-0.132,0.867 c-0.02,0.15-0.04,0.301-0.058,0.453c-0.033,0.299-0.06,0.602-0.082,0.905c-0.01,0.139-0.024,0.276-0.032,0.415 c-0.024,0.431-0.04,0.866-0.04,1.303c0,0.007-0.001,0.014-0.001,0.021c0,0.612,0.031,1.217,0.079,1.818 c0.007,0.102,0.013,0.201,0.022,0.302c0.052,0.578,0.126,1.149,0.22,1.716c0.016,0.097,0.035,0.192,0.051,0.289 c0.212,1.183,0.512,2.332,0.896,3.445c0.022,0.067,0.044,0.136,0.068,0.202c0.193,0.544,0.407,1.079,0.638,1.604 c0.032,0.069,0.063,0.142,0.095,0.212c0.494,1.087,1.067,2.134,1.716,3.126c0.024,0.035,0.046,0.072,0.069,0.107 c0.322,0.485,0.663,0.956,1.02,1.416c0.018,0.022,0.037,0.047,0.055,0.069c0.441-0.631,0.79-1.331,1.059-1.955 c0.279-0.641-1.4-1.55-0.298-2.594c0.328,0,1.174,0.104,1.276-0.204c0.007-0.134,0.218-1.208,0.214-1.345 c-0.044-1.386-0.088-1.968-0.088-1.968l0.358-0.267l0.909-1.417v-1.343l-1.386-1.057L25.744,29.55z M62.57,35.859l-0.76,1.203 c0,0-1.136,0.357-1.18,0.717c-0.02,0.152-0.074,0.82-0.222,1.16c-0.298,0.208-0.654,0.893-0.654,0.893s-0.365,0.971,0.626,0.747 c0.988-0.225,2.265-2.981,2.265-2.981S63.694,35.637,62.57,35.859z M40.238,7.356c0.252,0.314,0.671,0.6,0.966,0.542 c0.293-0.057,0.964-0.371,0.964-0.371s-0.335-0.143-0.713-0.085C41.078,7.498,40.533,7.214,40.238,7.356z M66.283,22.081 c-0.065-0.231-0.13-0.462-0.205-0.688c-0.05-0.161-0.105-0.317-0.161-0.475c-0.072-0.214-0.146-0.428-0.226-0.64 c-0.063-0.163-0.126-0.323-0.191-0.484c-0.08-0.203-0.164-0.404-0.25-0.603c-0.072-0.165-0.148-0.327-0.223-0.489 c-0.088-0.191-0.18-0.38-0.273-0.569c-0.08-0.164-0.164-0.327-0.249-0.489c-0.096-0.181-0.193-0.36-0.295-0.539 c-0.091-0.162-0.184-0.325-0.277-0.486c-0.104-0.172-0.208-0.341-0.314-0.509c-0.101-0.161-0.201-0.322-0.307-0.481 c-0.107-0.163-0.221-0.322-0.331-0.48c-0.112-0.159-0.222-0.318-0.338-0.474c-0.113-0.152-0.23-0.301-0.346-0.451 c-0.121-0.156-0.241-0.314-0.367-0.468c-0.116-0.141-0.237-0.278-0.355-0.417c-0.133-0.155-0.265-0.312-0.401-0.462 c-0.114-0.126-0.233-0.248-0.349-0.371c-0.149-0.157-0.297-0.317-0.449-0.471c-0.063-0.063-0.13-0.124-0.195-0.187 c-0.392-0.383-0.797-0.754-1.217-1.108c-0.086-0.074-0.17-0.149-0.255-0.221c-0.184-0.151-0.373-0.295-0.563-0.441 c-0.115-0.09-0.229-0.183-0.346-0.271c-0.186-0.137-0.375-0.269-0.564-0.401c-0.127-0.088-0.251-0.178-0.379-0.264 c-0.19-0.127-0.383-0.248-0.576-0.369c-0.133-0.084-0.267-0.169-0.403-0.251c-0.193-0.117-0.39-0.228-0.589-0.339 c-0.14-0.078-0.276-0.156-0.42-0.232c-0.08-0.042-0.16-0.083-0.242-0.124c-0.71,0.198-1.292,0.35-1.43,0.35 c-0.405,0-0.296-0.343-0.657-0.388c-0.361-0.045-3.357-0.82-3.763-0.416c-0.404,0.405-1.985,0.818-2.348,0.863 c-0.357,0.046,0.119,1.133,1.073,1.818c-0.132,0.135-2.265,1.315-2.265,0.507c0-0.808-0.417-1.401-1.074-1.639 c-0.597,0.149-1.28,0.774-0.327,1.639c0.594,0.538,0.038,0.623-0.038,0.764c-0.189,0.359,0.801,0.324,0.936,1.358 c0.072,0.549-0.063,0.144-0.272,0.405c-0.723,0.063-1.426-0.01-1.482-0.136c-0.319-0.717-0.988,0.38-1.169,0.652 c-0.179,0.269-0.218,1.226-0.218,1.226l1.233,0.61l-2.061,2.005c0,0-3.023,2.099-3.069,2.37 c-0.045,0.27-1.344,3.749-0.894,4.784c0.449,1.034,2.777,3.822,3.854,3.909c1.408,0.114,5.477-0.697,5.477-0.697 c0.088,0.227,0.692,1.12,0.692,1.12s1.719,0.2,1.811,0.38c0.031,0.064-0.861,1.8-0.312,2.571 c1.192,1.667,1.788,3.389,1.133,4.164c-1.565,2.35-0.366,2.527,0.016,3.756c0.137,0.359-0.418,1.848,0.269,3.011 c0.685,1.996,1.123,1.103,2.026,1.432c1.11,0.095,1.688-0.081,2.631-1.294c0.272-0.224,0.739-0.045,0.739-0.359 c0-0.177,0.802-0.692,1.009-1.173c0.219-0.101,0.777-0.48,1.157-0.66c0.345-0.021-0.327-0.947,0.359-1.924 c0.736-0.29,2.728-1.631,2.728-1.631c0.088-1.967-0.97-4.396,1.005-5.791c1.273-1.295,1.454-1.141,2.264-3.118 c0.224-0.583,0.994-2.671-0.356-2.175c-0.895,0.326-1.119,0.312-1.401,0.223c-0.081-0.73-0.238-1.028-1.043-1.743 c-0.418-0.984-1.432-2.683-1.432-2.683l-1.432-2.175l0.178-0.447l1.701,2.503l1.399,1.714c0.283,0.819,0.24,1.296,0.7,2.16 c0.943-0.331,1.713-0.954,1.713-0.954l0.628-0.879c0,0,0.956-0.902,0.242-2.78c-0.032-0.034-1.12,0.009-1.12,0.009l-0.774-0.656 l-0.87-1.227l0.036-0.394l0.982,1.113l1.297,0.805l1.119,0.089l0.705,1.402c0.2,0.13,0.338,0.217,0.338,0.217 s0.045,0.006,0.116,0.009C66.353,22.312,66.317,22.198,66.283,22.081z M49.677,8.751c-0.188-0.478,0.552-0.658,0.552-0.658 s0.102,0.495,0.34,0.747c0.236,0.254-0.095,0.426,0.277,1.026c0.377,0.6-0.895,0.271-1.129,0.061 C49.486,9.721,49.862,9.229,49.677,8.751z M56.364,17.704c-0.761,0-1.824-0.003-2.477-0.451 c-0.651-0.449-0.885,0.193-1.318,0.642c-0.28,0.293-1.479-0.146-1.815-0.596c-0.338-0.451-1.392-0.559-1.392-0.559l-0.433-1.26 l-2.669-0.178l-1.705,0.506l-1.659-0.261l1.188-0.238l0.652-0.417c0,0,1.321-1.244,1.799-1.647 c0.403-0.342,2.012-0.134,2.012-0.134l1.841,1.474c0,0-0.128,0.673-0.298,0.896c0.671-0.046,1.176-0.907,1.176-0.907 c-1.493-1.312-1.484-1.63-1.484-1.63l1.92,1.085l0.138,0.558l0.377,0.224c0,0,0.389,1.093,1.125,1.148 c0.313,0.023,0.056-1.237,0.056-1.237l0.39-0.054c0.268,0.566,0.916,1.768,1.438,1.47c0.3-0.17,0.482,0.032,1.078,0.257 c0.596,0.223,0.977-0.12,1.473,0.298C57.806,18.539,56.686,17.794,56.364,17.704z M56.875,14.518 c-0.684-0.269-1.388-0.137-1.388-0.137c-0.155,0.305-1.257-0.009-1.035-0.68c0.22-0.671,0.518-0.999,0.907-0.464 c0.128,0.219,0.654,0.412,0.744,0.081c0.131-0.478,0.424-0.731,0.64-0.385c-0.251,0.331,0.219,0.59,0.547,0.765 C58.212,14.195,58.817,14.908,56.875,14.518z M60.667,16.159c-0.345-0.308-0.121-0.671-0.646-1.158 c-0.746-0.698-1.156-1-0.727-1.764c0.731-0.348,0.297,0.467,0.572,0.856c0.146,0.208,0.803,0.866,1.431,1.708 C61.819,16.501,61.012,16.465,60.667,16.159z"/>
<path fill="#FFFFFF" d="M13.819,34.327c-2.774,0-6.576,0.658-7.539,6.353l-0.146,0.858c0,0,6.394,0,7.151,0 c0.229,0.411,0.57,1.026,0.787,1.421c-0.217,0.393-0.558,1.008-0.787,1.42c-0.759,0-7.151,0-7.151,0l0.146,0.858 c0.963,5.692,4.765,6.351,7.539,6.351c2.188,0,4.138-1.834,5.704-3.31c0.847-0.8,1.646-1.55,2.068-1.55h19.58l0.219-0.24 c0.42-0.462,1.395-1.727,1.418-3.499v-0.063c-0.021-1.771-0.999-3.037-1.418-3.498l-0.219-0.24h-19.58 c-0.422,0-1.223-0.752-2.066-1.547C17.957,36.162,16.007,34.327,13.819,34.327z"/>
<linearGradient id="_8" gradientUnits="userSpaceOnUse" x1="14.36" y1="32.07" x2="32.16" y2="53.28">
<stop stop-color="#E6EEF4" offset="0"/>
<stop stop-color="#9646AC" offset="0.44"/>
<stop stop-color="#3D013F" offset="0.94"/>
</linearGradient>
<path fill="url(#_8)" d="M42.076,42.959c0-0.008,0.002-0.017,0.002-0.023h-0.004c-0.018-1.543-0.902-2.655-1.229-3.012 c-0.412,0-19.254,0-19.254,0c-0.717,0-1.494-0.734-2.574-1.748c-1.471-1.387-3.301-3.111-5.198-3.111 c-3.079,0-5.995,0.904-6.812,5.738c1.156,0,6.713,0,6.713,0l1.193,2.156l-1.193,2.155c0,0-5.557,0-6.713,0 c0.815,4.834,3.731,5.737,6.812,5.737c1.897,0,3.728-1.726,5.198-3.11c1.08-1.015,1.857-1.749,2.574-1.749c0,0,18.842,0,19.254,0 c0.324-0.354,1.211-1.469,1.229-3.012h0.004C42.078,42.973,42.076,42.967,42.076,42.959z"/>
</svg>