<?xml version="1.0" encoding="UTF-8"?>
<!DOCTYPE svg PUBLIC "-//W3C//DTD SVG 1.1 Tiny//EN" "http://www.w3.org/Graphics/SVG/1.1/DTD/svg11-tiny.dtd">
<svg width="84" height="58" viewBox="-0.541 0.168 84 58">
<linearGradient id="_19" gradientUnits="userSpaceOnUse" x1="31.91" y1="2.4" x2="52.66" y2="52.02">
<stop stop-color="#A2C2DD" offset="0.1"/>
<stop stop-color="#6C83BB" offset="0.71"/>
<stop stop-color="#003D6D" offset="0.99"/>
</linearGradient>
<path fill="url(#_19)" d="M74.118,27.498c-0.314-3.736-2.648-8.911-11.969-12.395c0,0-0.367-0.129-0.492,0.105 c-0.131,0.247,0.178,0.515,0.178,0.515c4.473,2.943,6.804,6.365,6.804,9.956c0,0.361,0.317,7.92-12.376,12.669 c-0.041-0.777-0.255-4.844-0.255-4.844l-2.646,1.699c1.399-12.32,0.893-20.888,0.794-21.058c-1.326-1.391-3.12-2.503-5.079-3.248 c0.066-0.463,0.861-5.933,0.861-6.024c0-0.289-0.174-0.744-1.068-1.067c-1.27-0.458-3.791-0.411-3.938,0.809 c0,0,0.098,3.065,0.145,4.552l-17.786-5.32c0,0,0.287,4.664,0.315,5.113c-8.864,3.312-17.482,9.601-17.482,16.351 c0.006,5.211,4.476,11.063,8.014,12.807l0.623,0.308l-0.688-3.791c0,0-0.047-0.028-0.089-0.054c-0.045-0.053-0.656-0.761-0.75-0.87 c-0.184-0.763-0.277-1.491-0.279-2.185c-0.016-6.527,8.234-10.333,11.735-11.653c0.191,9.189,1.342,22.132,2.052,26.335 c2.539,2.548,10.093,6.324,14.744,6.205l0.074-0.002l0.066-0.031c0.637-0.3,1.221-0.668,1.742-1.054l10.483,3.293 c0,0-0.118-4.235-0.153-4.417C60.311,49.105,76.295,42.002,74.118,27.498z"/>
<linearGradient id="_20" gradientUnits="userSpaceOnUse" x1="25.85" y1="26.93" x2="17.81" y2="21.6">
<stop stop-color="#E6EEF4" offset="0"/>
<stop stop-color="#4A9900" offset="0.44"/>
<stop stop-color="#0E4E58" offset="0.94"/>
</linearGradient>
<path fill="url(#_20)" d="M17.418,35.462c-3.842-9.606,6.825-14.162,12.418-16.344l-0.781-4.176 C15.693,20.461,11.559,27.467,17.418,35.462"/>
<linearGradient id="_21" gradientUnits="userSpaceOnUse" x1="36.15" y1="-3.82" x2="27.14" y2="22.56">
<stop stop-color="#DCE8E4" offset="0"/>
<stop stop-color="#43910A" offset="1"/>
</linearGradient>
<path fill="url(#_21)" d="M17.757,34.853C2.824,26.377,13.142,14.634,27.97,9.188l-0.299-4.862l19.853,5.939l-18.985,5.462 C17.205,20.147,10.933,27.728,17.757,34.853z"/>
<path fill="#17594C" d="M17.757,34.853c-4.83-2.72-7.519-6.811-7.205-10c-0.269,4.626,3.423,10.822,7.74,12.951L17.757,34.853z"/>
<linearGradient id="_22" gradientUnits="userSpaceOnUse" x1="41.98" y1="4.81" x2="53.81" y2="21.67">
<stop stop-color="#A2C2DD" offset="0.1"/>
<stop stop-color="#6C83BB" offset="0.71"/>
<stop stop-color="#003D6D" offset="0.99"/>
</linearGradient>
<path fill="url(#_22)" d="M40.39,9.941c3.563-0.132,9.563,0.385,13.434,4.359l-2.29,1.081L40.39,9.941z"/>
<linearGradient id="_23" gradientUnits="userSpaceOnUse" x1="48.52" y1="6.35" x2="52.76" y2="39.82">
<stop stop-color="#FFFFFF" offset="0"/>
<stop stop-color="#A2C2DD" offset="0.35"/>
<stop stop-color="#6C83BB" offset="0.7"/>
<stop stop-color="#003D6D" offset="1"/>
</linearGradient>
<path fill="url(#_23)" d="M51.912,15.174l-2.418,32.726l1.846-1.593c1.443-6.497,3.407-22.528,2.475-32.057L51.912,15.174z"/>
<linearGradient id="_24" gradientUnits="userSpaceOnUse" x1="35.12" y1="17.82" x2="45.85" y2="9.18">
<stop stop-color="#FFFFFF" offset="0.15"/>
<stop stop-color="#A2C2DD" offset="1"/>
</linearGradient>
<path fill="url(#_24)" d="M29.274,12.097c6.784-2.481,16.176-3.991,22.915,2.408l-5.495,2.671L29.274,12.097z"/>
<linearGradient id="_25" gradientUnits="userSpaceOnUse" x1="48.69" y1="8.65" x2="49.22" y2="61.13">
<stop stop-color="#FFFFFF" offset="0"/>
<stop stop-color="#A2C2DD" offset="0.35"/>
<stop stop-color="#6C83BB" offset="0.7"/>
<stop stop-color="#003D6D" offset="1"/>
</linearGradient>
<path fill="url(#_25)" d="M46.693,17.176l-1.216,34.887c2.573-1.211,4.206-3.449,4.206-3.449 c1.521-6.854,3.489-24.057,2.505-34.108L46.693,17.176z"/>
<linearGradient id="_26" gradientUnits="userSpaceOnUse" x1="43.51" y1="12.06" x2="51" y2="15.33">
<stop stop-color="#FFFFFF" offset="0"/>
<stop stop-color="#A2C2DD" offset="0.35"/>
<stop stop-color="#6C83BB" offset="0.7"/>
<stop stop-color="#003D6D" offset="1"/>
</linearGradient>
<path fill="url(#_26)" d="M49.161,13.347c0.276,1.767-4.424,2.038-4.386,0.098C44.803,12.11,48.955,12.032,49.161,13.347z"/>
<linearGradient id="_27" gradientUnits="userSpaceOnUse" x1="45.04" y1="9.31" x2="50.71" y2="9.69">
<stop stop-color="#E6EEF4" offset="0"/>
<stop stop-color="#337CE5" offset="0.44"/>
<stop stop-color="#003D6D" offset="0.94"/>
</linearGradient>
<path fill="url(#_27)" d="M45.281,4.604c0,0,0.285,8.975,0.283,8.997c0.682,0.768,2.293,0.71,2.771,0.018l1.22-8.58 L45.281,4.604z"/>
<linearGradient id="_28" gradientUnits="userSpaceOnUse" x1="47.87" y1="10.59" x2="33.51" y2="39.99">
<stop stop-color="#FFFFFF" offset="0.05"/>
<stop stop-color="#A2C2DD" offset="1"/>
</linearGradient>
<path fill="url(#_28)" d="M29.274,12.097c3.772-1.258,11.764-0.21,17.419,5.079c0.664,9.483,0.129,25.953-1.216,34.887 c-4.563,0.116-11.006-3.016-14.407-6.031C29.953,38.059,28.568,21.633,29.274,12.097z"/>
<linearGradient id="_29" gradientUnits="userSpaceOnUse" x1="50.67" y1="33.32" x2="28.48" y2="21.05">
<stop stop-color="#FFFFFF" offset="0.05"/>
<stop stop-color="#A2C2DD" offset="1"/>
</linearGradient>
<polygon fill="url(#_29)" points="31.154,14.398 31.736,34.505 44.342,39.249 44.762,18.39 "/>
<linearGradient id="_30" gradientUnits="userSpaceOnUse" x1="32.85" y1="49.47" x2="31.66" y2="2.76">
<stop stop-color="#FFFFFF" offset="0"/>
<stop stop-color="#A2C2DD" offset="0.35"/>
<stop stop-color="#6C83BB" offset="0.7"/>
<stop stop-color="#003D6D" offset="1"/>
</linearGradient>
<polygon fill="url(#_30)" points="33.144,33.635 32.779,14.871 31.154,14.398 31.736,34.505 "/>
<linearGradient id="_31" gradientUnits="userSpaceOnUse" x1="45.35" y1="42.93" x2="27.51" y2="26.1">
<stop stop-color="#FFFFFF" offset="0.15"/>
<stop stop-color="#A2C2DD" offset="1"/>
</linearGradient>
<polygon fill="url(#_31)" points="31.736,34.505 33.144,33.635 44.39,37.611 44.342,39.249 "/>
<linearGradient id="_32" gradientUnits="userSpaceOnUse" x1="45.84" y1="5.3" x2="49.28" y2="4.19">
<stop stop-color="#D6E4F3" offset="0"/>
<stop stop-color="#337CE5" offset="1"/>
</linearGradient>
<path fill="url(#_32)" d="M49.556,5.039c-0.402,1.164-4.682,0.646-4.235-0.515C45.773,3.374,49.941,3.866,49.556,5.039z"/>
<linearGradient id="_33" gradientUnits="userSpaceOnUse" x1="28.65" y1="39.19" x2="44" y2="45.76">
<stop stop-color="#E6EEF4" offset="0"/>
<stop stop-color="#337CE5" offset="0.44"/>
<stop stop-color="#003D6D" offset="0.94"/>
</linearGradient>
<polygon fill="url(#_33)" points="43.285,41.262 32.272,37.141 32.761,44.961 42.854,49.459 "/>
<linearGradient id="_34" gradientUnits="userSpaceOnUse" x1="76.48" y1="29.99" x2="42.91" y2="52.86">
<stop stop-color="#E6EEF4" offset="0"/>
<stop stop-color="#2F8E9A" offset="0.44"/>
<stop stop-color="#003D6D" offset="0.94"/>
</linearGradient>
<path fill="url(#_34)" d="M72.982,24.557c2.828,8.025-9.438,17.943-16.493,20.939c0.571,4.791,0.723,4.528,0.723,4.528 S78.981,41.581,72.982,24.557z"/>
<linearGradient id="_35" gradientUnits="userSpaceOnUse" x1="46.95" y1="52.37" x2="50.81" y2="43.09">
<stop stop-color="#E6EEF4" offset="0"/>
<stop stop-color="#2F8E9A" offset="0.44"/>
<stop stop-color="#003D6D" offset="0.94"/>
</linearGradient>
<polygon fill="url(#_35)" points="57.421,50.58 57.493,54.139 39.113,48.365 38.725,45.012 "/>
<linearGradient id="_36" gradientUnits="userSpaceOnUse" x1="49.25" y1="54.78" x2="77.33" y2="-12.67">
<stop stop-color="#E6EEF4" offset="0"/>
<stop stop-color="#2F8E9A" offset="0.44"/>
<stop stop-color="#003D6D" offset="0.94"/>
</linearGradient>
<path fill="url(#_36)" d="M62.026,15.431c20.554,7.685,11.334,25.952-5.514,30.615l0.908,4.534l-18.696-5.568L55.69,34.125 l0.248,4.723C68.924,34.492,74.436,23.595,62.026,15.431z"/>
</svg>