<?xml version="1.0" encoding="UTF-8"?>
<!DOCTYPE svg PUBLIC "-//W3C//DTD SVG 1.1 Tiny//EN" "http://www.w3.org/Graphics/SVG/1.1/DTD/svg11-tiny.dtd">
<svg baseProfile="tiny" height="69" version="1.1" viewBox="0 0 100 69" width="100" xmlns="http://www.w3.org/2000/svg" xmlns:xlink="http://www.w3.org/1999/xlink">
<g>
<g fill-opacity="0.2" stroke-opacity="0.2">
<rect fill="none" height="69" width="100"/>
</g>
<g>
<linearGradient gradientTransform="matrix(1 0 0 -1 0 68)" gradientUnits="userSpaceOnUse" id="XMLID_15_" x1="49.1265" x2="57.8313" y1="31.4917" y2="14.3456">
<stop offset="0" style="stop-color:#AABBD7"/>
<stop offset="0.2634" style="stop-color:#92A5CC"/>
<stop offset="0.7135" style="stop-color:#6C83BB"/>
<stop offset="0.7571" style="stop-color:#637DB5"/>
<stop offset="0.8268" style="stop-color:#4C6EA4"/>
<stop offset="0.9134" style="stop-color:#265689"/>
<stop offset="0.9888" style="stop-color:#003D6D"/>
<stop offset="1" style="stop-color:#003D6D"/>
</linearGradient>
<path d="M25.116,39.696c-0.596,0.845-3.854,7.495-4.402,13.437l0.668,3.133    c2.359,2.283,6.589,5.916,16.066,7.607c6.257-3.996,11.852-11.22,13.305-16.347c0.486-2.408,0.188-9.407-0.337-11.728    c0.386-0.367,8.444-8.005,9.109-8.635c2.195,1.48,4.767,3.027,9.196,4.258c1.802-1.186,8.257-5.613,8.189-11.321    c-0.052-4.37-2.646-8.839-4.339-10.71c-2.481-1.277-4.893-1.896-8.036-2.254C47.81,14.383,32.926,29.399,25.116,39.696z" fill="url(#XMLID_15_)"/>
<g>
<linearGradient gradientTransform="matrix(1 0 0 -1 0 68)" gradientUnits="userSpaceOnUse" id="XMLID_16_" x1="87.1641" x2="52.4816" y1="56.8545" y2="30.7888">
<stop offset="0" style="stop-color:#FFFFFF"/>
<stop offset="0.1142" style="stop-color:#E0EAF3"/>
<stop offset="0.35" style="stop-color:#A2C2DD"/>
<stop offset="0.4825" style="stop-color:#8CA9CF"/>
<stop offset="0.7" style="stop-color:#6C83BB"/>
<stop offset="0.7458" style="stop-color:#637DB5"/>
<stop offset="0.8189" style="stop-color:#4C6EA4"/>
<stop offset="0.9097" style="stop-color:#265689"/>
<stop offset="0.9888" style="stop-color:#003D6D"/>
<stop offset="1" style="stop-color:#003D6D"/>
</linearGradient>
<path d="M76.169,18.945l-15.736,6.448l-1.009,0.962c1.518,1.317,6.18,3.754,9.142,4.42     c2.532-1.084,6.846-6.332,7.26-7.986C76.288,20.936,76.318,19.885,76.169,18.945z" fill="url(#XMLID_16_)"/>
<linearGradient gradientTransform="matrix(1 0 0 -1 0 68)" gradientUnits="userSpaceOnUse" id="XMLID_17_" x1="77.6826" x2="53.3266" y1="43.6475" y2="45.6477">
<stop offset="0" style="stop-color:#FFFFFF"/>
<stop offset="0.1142" style="stop-color:#E0EAF3"/>
<stop offset="0.35" style="stop-color:#A2C2DD"/>
<stop offset="0.4825" style="stop-color:#8CA9CF"/>
<stop offset="0.7" style="stop-color:#6C83BB"/>
<stop offset="0.7458" style="stop-color:#637DB5"/>
<stop offset="0.8189" style="stop-color:#4C6EA4"/>
<stop offset="0.9097" style="stop-color:#265689"/>
<stop offset="0.9888" style="stop-color:#003D6D"/>
<stop offset="1" style="stop-color:#003D6D"/>
</linearGradient>
<path d="M66.94,17.965l-6.92,7.131c2.763,1.93,6.085,3.38,8.357,3.999L66.94,17.965z" fill="url(#XMLID_17_)"/>
<linearGradient gradientTransform="matrix(1 0 0 -1 0 68)" gradientUnits="userSpaceOnUse" id="XMLID_18_" x1="79.7969" x2="13.4511" y1="24.5254" y2="6.1433">
<stop offset="0" style="stop-color:#FFFFFF"/>
<stop offset="0.1142" style="stop-color:#E0EAF3"/>
<stop offset="0.35" style="stop-color:#A2C2DD"/>
<stop offset="0.4825" style="stop-color:#8CA9CF"/>
<stop offset="0.7" style="stop-color:#6C83BB"/>
<stop offset="0.7458" style="stop-color:#637DB5"/>
<stop offset="0.8189" style="stop-color:#4C6EA4"/>
<stop offset="0.9097" style="stop-color:#265689"/>
<stop offset="0.9888" style="stop-color:#003D6D"/>
<stop offset="1" style="stop-color:#003D6D"/>
</linearGradient>
<path d="M50.391,43.635l-29.064,9.467l0.579,2.887c0,0,4.811,5.477,15.369,7.254     c7.059-4.722,11.618-11.601,12.844-15.777L50.391,43.635z" fill="url(#XMLID_18_)"/>
<linearGradient gradientTransform="matrix(1 0 0 -1 0 68)" gradientUnits="userSpaceOnUse" id="XMLID_19_" x1="49.6582" x2="12.6194" y1="-1.8823" y2="36.2331">
<stop offset="0" style="stop-color:#FFFFFF"/>
<stop offset="0.1142" style="stop-color:#E0EAF3"/>
<stop offset="0.35" style="stop-color:#A2C2DD"/>
<stop offset="0.4825" style="stop-color:#8CA9CF"/>
<stop offset="0.7" style="stop-color:#6C83BB"/>
<stop offset="0.7458" style="stop-color:#637DB5"/>
<stop offset="0.8189" style="stop-color:#4C6EA4"/>
<stop offset="0.9097" style="stop-color:#265689"/>
<stop offset="0.9888" style="stop-color:#003D6D"/>
<stop offset="1" style="stop-color:#003D6D"/>
</linearGradient>
<path d="M21.291,53.102c0.728-6.826,4.271-13.042,4.271-13.042l10.724,3.651l0.3,16.771     C28.366,59.251,23.951,55.69,21.291,53.102z" fill="url(#XMLID_19_)"/>
<linearGradient gradientTransform="matrix(1 0 0 -1 0 68)" gradientUnits="userSpaceOnUse" id="XMLID_20_" x1="80.8301" x2="9.3103" y1="54.3428" y2="25.6917">
<stop offset="0" style="stop-color:#FFFFFF"/>
<stop offset="1" style="stop-color:#A2C2DD"/>
</linearGradient>
<path d="M25.563,40.06c1.616,1.53,5.996,4.319,10.554,3.92L72.177,9.877     C69.035,8.135,64.6,7.75,64.6,7.75C52.329,12.922,36.379,25.725,25.563,40.06z" fill="url(#XMLID_20_)"/>
<linearGradient gradientTransform="matrix(1 0 0 -1 0 68)" gradientUnits="userSpaceOnUse" id="XMLID_21_" x1="89.0391" x2="47.1153" y1="78.3174" y2="24.3342">
<stop offset="0" style="stop-color:#FFFFFF"/>
<stop offset="1" style="stop-color:#A2C2DD"/>
</linearGradient>
<path d="M36.586,60.482c-0.931-3.465-1.316-12.705-0.463-16.607C46,29.432,60.224,16.527,72.111,9.818     c0,0,3.36,3.496,4.064,9.111c-0.83,3.547-4.947,8.05-7.806,10.154c-0.379-0.859-1.676-10.512-1.676-10.512     c-3.281,4.293-8.464,8.961-16.953,16.997c0.563,2.981,0.649,8.028,0.649,8.028C47.672,50.162,42.829,56.596,36.586,60.482z" fill="url(#XMLID_21_)"/>
</g>
</g>
<g>
<linearGradient gradientTransform="matrix(1 0 0 -1 0 68)" gradientUnits="userSpaceOnUse" id="XMLID_22_" x1="27.3071" x2="36.7918" y1="15.6982" y2="-2.984">
<stop offset="0" style="stop-color:#AABBD7"/>
<stop offset="0.2634" style="stop-color:#92A5CC"/>
<stop offset="0.7135" style="stop-color:#6C83BB"/>
<stop offset="0.7571" style="stop-color:#637DB5"/>
<stop offset="0.8268" style="stop-color:#4C6EA4"/>
<stop offset="0.9134" style="stop-color:#265689"/>
<stop offset="0.9888" style="stop-color:#003D6D"/>
<stop offset="1" style="stop-color:#003D6D"/>
</linearGradient>
<path d="M24.849,42.355c0.37,0.758,0.837,1.44,1.842,2.186l22.303,11.971c0,0,2.869,3.13-0.125,7.379    c0,0-4.234,3.312-5.69,3.612c0,0-23.172-12.354-23.177-12.354c-1.606-0.857-2.276-0.56-5.376,0.063    c-6.073,1.222-10.089-7.541-9.786-11.1l5.034-3.09l3.571,3.104l-0.121-0.564l-5.329-4.914c0,0,5.24-3.065,6.601-3.309    c1.23-0.299,2.523-0.207,3.788,0.191C18.383,35.529,23.486,36.298,24.849,42.355z" fill="url(#XMLID_22_)"/>
<g>
<g>
<g>
<g>
<g>
<linearGradient gradientUnits="userSpaceOnUse" id="XMLID_23_" x1="5.5615" x2="14.8994" y1="45.5059" y2="45.5059">
<stop offset="0" style="stop-color:#E6EEF4"/>
<stop offset="0.0772" style="stop-color:#C6DCC1"/>
<stop offset="0.211" style="stop-color:#91C06F"/>
<stop offset="0.321" style="stop-color:#6BAB33"/>
<stop offset="0.4014" style="stop-color:#539E0E"/>
<stop offset="0.4438" style="stop-color:#4A9900"/>
<stop offset="0.5475" style="stop-color:#398419"/>
<stop offset="0.7125" style="stop-color:#22663B"/>
<stop offset="0.8486" style="stop-color:#135550"/>
<stop offset="0.9382" style="stop-color:#0E4E58"/>
<stop offset="1" style="stop-color:#0E4E58"/>
</linearGradient>
<polygon fill="url(#XMLID_23_)" points="5.562,44.502 11.003,49.084 14.899,46.371 9.779,41.927        "/>
<polygon fill="#17594C" points="10.988,49.087 15.684,50.857 14.309,46.793        "/>
<linearGradient gradientTransform="matrix(1 0 0 -1 0 68)" gradientUnits="userSpaceOnUse" id="XMLID_24_" x1="17.8145" x2="44.9661" y1="27.3135" y2="8.4356">
<stop offset="0" style="stop-color:#DCE8E4"/>
<stop offset="1" style="stop-color:#43910A"/>
</linearGradient>
<path d="M9.22,38.738l32.582,23.783L26.293,45.127c-1.407-1.035-2.054-2.145-2.409-3.097         c-1.648-4.482-6.292-7.624-10.512-5.479L9.22,38.738z" fill="url(#XMLID_24_)"/>
<linearGradient gradientTransform="matrix(1 0 0 -1 0 68)" gradientUnits="userSpaceOnUse" id="XMLID_25_" x1="18.2886" x2="47.0552" y1="27.1445" y2="7.1438">
<stop offset="0" style="stop-color:#E6EEF4"/>
<stop offset="0.5056" style="stop-color:#337CE5"/>
<stop offset="1" style="stop-color:#0D4D8C"/>
</linearGradient>
<path d="M17.49,36.08c-1.565-0.355-3.274-0.09-4.128,0.492l-4.15,2.189l3.895-0.66L17.49,36.08z" fill="url(#XMLID_25_)"/>
<linearGradient gradientTransform="matrix(1 0 0 -1 0 68)" gradientUnits="userSpaceOnUse" id="XMLID_26_" x1="48.8682" x2="46.1744" y1="12.0156" y2="4.7763">
<stop offset="0" style="stop-color:#E6EEF4"/>
<stop offset="0.0772" style="stop-color:#C6DCC1"/>
<stop offset="0.211" style="stop-color:#91C06F"/>
<stop offset="0.321" style="stop-color:#6BAB33"/>
<stop offset="0.4014" style="stop-color:#539E0E"/>
<stop offset="0.4438" style="stop-color:#4A9900"/>
<stop offset="0.5475" style="stop-color:#398419"/>
<stop offset="0.7125" style="stop-color:#22663B"/>
<stop offset="0.8486" style="stop-color:#135550"/>
<stop offset="0.9382" style="stop-color:#0E4E58"/>
<stop offset="1" style="stop-color:#0E4E58"/>
</linearGradient>
<path d="M44.94,59.922l-0.125,5.955l3.443-2.465c1.3-1.749,1.844-3.828,0.207-6.34L44.94,59.922z" fill="url(#XMLID_26_)"/>
<linearGradient gradientUnits="userSpaceOnUse" id="XMLID_27_" x1="22.4287" x2="48.4912" y1="52.5439" y2="52.5439">
<stop offset="0" style="stop-color:#DCE8E4"/>
<stop offset="1" style="stop-color:#43910A"/>
</linearGradient>
<polygon fill="url(#XMLID_27_)" points="22.429,47.912 26.33,45.184 48.491,57.078 44.922,59.904        "/>
<linearGradient gradientTransform="matrix(1 0 0 -1 0 68)" gradientUnits="userSpaceOnUse" id="XMLID_28_" x1="7.731" x2="25.747" y1="39.7686" y2="13.5019">
<stop offset="0" style="stop-color:#DCE8E4"/>
<stop offset="1" style="stop-color:#43910A"/>
</linearGradient>
<path d="M44.94,59.893c3.241,5.438-1.406,6.736-1.653,6.805         c-1.083-0.578-21.712-11.575-22.946-12.231c-1.229-0.654-2.737-0.983-5.95,0.009c-4.176,1.283-8.861-5.305-8.819-9.984         l5.434,4.602c3.26,0.152,4.197-3.188,2.967-5.963l-4.76-4.388c2.049-1.628,6.765-0.583,8.898,2.489         c1.316,1.889,2.372,5.367,4.334,6.669L44.94,59.893z" fill="url(#XMLID_28_)"/>
<path d="M41.886,64.01c0.925,0.494,1.857,0.15,2.083-0.772c0.219-0.915-0.352-2.065-1.276-2.562         c-0.919-0.487-1.858-0.143-2.079,0.773C40.393,62.377,40.96,63.518,41.886,64.01" fill="#17594C"/>
</g>
</g>
</g>
</g>
</g>
</g>
</g>
</svg>
