<?xml version="1.0" encoding="UTF-8"?>
<!DOCTYPE svg PUBLIC "-//W3C//DTD SVG 1.1 Tiny//EN" "http://www.w3.org/Graphics/SVG/1.1/DTD/svg11-tiny.dtd">
<svg width="42" height="36" viewBox="0 0 42 36">
<linearGradient id="_24" gradientUnits="userSpaceOnUse" x1="15.92" y1="14.92" x2="14.2" y2="17.35">
<stop stop-color="#FFFFFF" offset="0"/>
<stop stop-color="#A2C2DD" offset="0.35"/>
<stop stop-color="#6C83BB" offset="0.7"/>
<stop stop-color="#003D6D" offset="1"/>
</linearGradient>
<polygon fill="url(#_24)" points="17.181,19.538 11.526,14.373 12.431,13.488 18.096,18.607 "/>
<linearGradient id="_25" gradientUnits="userSpaceOnUse" x1="18.1" y1="16.34" x2="19.48" y2="18.1">
<stop stop-color="#FFFFFF" offset="0"/>
<stop stop-color="#A2C2DD" offset="0.35"/>
<stop stop-color="#6C83BB" offset="0.7"/>
<stop stop-color="#003D6D" offset="1"/>
</linearGradient>
<polygon fill="url(#_25)" points="23.25,13.955 15.504,21.502 14.394,20.571 22.404,13.079 "/>
<linearGradient id="_26" gradientUnits="userSpaceOnUse" x1="19.57" y1="14.88" x2="20.88" y2="16.34">
<stop stop-color="#FFFFFF" offset="0"/>
<stop stop-color="#A2C2DD" offset="0.35"/>
<stop stop-color="#6C83BB" offset="0.7"/>
<stop stop-color="#003D6D" offset="1"/>
</linearGradient>
<polygon fill="url(#_26)" points="18.78,18.298 18.431,18.298 22.804,14.021 23.104,14.116 "/>
<linearGradient id="_27" gradientUnits="userSpaceOnUse" x1="23.19" y1="17.43" x2="23.11" y2="20.2">
<stop stop-color="#FFFFFF" offset="0"/>
<stop stop-color="#A2C2DD" offset="0.35"/>
<stop stop-color="#6C83BB" offset="0.7"/>
<stop stop-color="#003D6D" offset="1"/>
</linearGradient>
<polygon fill="url(#_27)" points="29.171,19.531 17.083,19.538 18.406,18.31 29.172,18.296 "/>
<linearGradient id="_28" gradientUnits="userSpaceOnUse" x1="15.29" y1="14.53" x2="14" y2="16.5">
<stop stop-color="#FFFFFF" offset="0"/>
<stop stop-color="#A2C2DD" offset="0.35"/>
<stop stop-color="#6C83BB" offset="0.7"/>
<stop stop-color="#003D6D" offset="1"/>
</linearGradient>
<polygon fill="url(#_28)" points="11.482,14.342 16.342,18.773 16.569,18.578 11.686,14.199 "/>
<linearGradient id="_29" gradientUnits="userSpaceOnUse" x1="21.39" y1="15.46" x2="22" y2="18.67">
<stop stop-color="#FFFFFF" offset="0"/>
<stop stop-color="#A2C2DD" offset="0.35"/>
<stop stop-color="#6C83BB" offset="0.7"/>
<stop stop-color="#003D6D" offset="1"/>
</linearGradient>
<polygon fill="url(#_29)" points="15.558,21.465 17.537,19.537 29.22,19.521 29.22,19.267 17.336,19.282 15.392,21.206 "/>
<linearGradient id="_30" gradientUnits="userSpaceOnUse" x1="9.4" y1="8.1" x2="12.18" y2="14.25">
<stop stop-color="#A2C2DD" offset="0.1"/>
<stop stop-color="#6C83BB" offset="0.71"/>
<stop stop-color="#003D6D" offset="0.99"/>
</linearGradient>
<circle fill="url(#_30)" cx="10.076" cy="9.598" r="4.871"/>
<linearGradient id="_31" gradientUnits="userSpaceOnUse" x1="23.2" y1="8.01" x2="26.02" y2="14.23">
<stop stop-color="#A2C2DD" offset="0.1"/>
<stop stop-color="#6C83BB" offset="0.71"/>
<stop stop-color="#003D6D" offset="0.99"/>
</linearGradient>
<circle fill="url(#_31)" cx="23.887" cy="9.521" r="4.924"/>
<linearGradient id="_32" gradientUnits="userSpaceOnUse" x1="31.63" y1="16.82" x2="34.45" y2="23.06">
<stop stop-color="#A2C2DD" offset="0.1"/>
<stop stop-color="#6C83BB" offset="0.71"/>
<stop stop-color="#003D6D" offset="0.99"/>
</linearGradient>
<circle fill="url(#_32)" cx="32.314" cy="18.339" r="4.944"/>
<linearGradient id="_33" gradientUnits="userSpaceOnUse" x1="9.69" y1="21.95" x2="13.01" y2="29.28">
<stop stop-color="#A2C2DD" offset="0.1"/>
<stop stop-color="#6C83BB" offset="0.71"/>
<stop stop-color="#003D6D" offset="0.99"/>
</linearGradient>
<path fill="url(#_33)" d="M16.416,23.758c0,0.325-0.032,1.02-0.085,1.33l-2.481,0.775l1.541,1.169 c-1.076,1.433-2.934,2.534-4.884,2.534c-3.264,0-5.911-2.601-5.911-5.81c0-3.21,2.647-5.812,5.911-5.812 C13.77,17.946,16.416,20.548,16.416,23.758z"/>
<linearGradient id="_34" gradientUnits="userSpaceOnUse" x1="16.22" y1="26.9" x2="17.61" y2="29.41">
<stop stop-color="#A2C2DD" offset="0.1"/>
<stop stop-color="#6C83BB" offset="0.71"/>
<stop stop-color="#003D6D" offset="0.99"/>
</linearGradient>
<path fill="url(#_34)" d="M17.355,25.127c-0.213-0.329-0.576-0.814-0.887-0.875l-0.274,0.063 c-0.134,0.104-0.183,0.367-0.183,0.695c0,0.504,0.116,1.151,0.216,1.629c-0.751,1.381-2.146,1.891-3.076,2.225 c-0.568,0.203-0.911,0.326-0.954,0.598c-0.008,0.044-0.012,0.091-0.012,0.139c0,0.563,0.496,1.311,1.018,1.481 c1.316,0.425,4.136-2.177,4.76-2.772c2.75-0.89,3.054-1.261,3.054-1.449c0-0.03-0.008-0.055-0.014-0.077 c-0.092-0.325-0.675-0.341-1.201-0.3c0.499-0.588,0.951-1.228,0.951-1.625c0-0.105-0.031-0.193-0.103-0.26 c-0.328-0.303-0.964,0.119-1.647,0.701c0.112-0.394,0.229-0.882,0.229-1.229c0-0.101-0.01-0.188-0.032-0.254l-0.168-0.2 C18.591,23.414,17.847,24.387,17.355,25.127z M17.499,25.547c0.677-1.063,1.246-1.615,1.396-1.607 c0.093,0.188-0.293,1.563-0.405,1.819c-0.031,0.075-0.012,0.171,0.054,0.22c0.089,0.066,0.17,0.011,0.264-0.063 c-0.001,0.001-0.001,0.003-0.002,0.005c0.001-0.001,0.002-0.005,0.002-0.005c0.032-0.026,0.054-0.024,0.096-0.062 c1.296-1.166,1.5-1.004,1.508-0.998c0.053,0.166-0.482,0.975-1.153,1.72c-0.05,0.055-0.06,0.136-0.024,0.2 c0.036,0.065,0.107,0.104,0.181,0.093c0.503-0.073,1.006-0.068,1.181-0.001c-0.316,0.24-1.614,0.742-2.77,1.113 c-0.026,0.01-0.052,0.021-0.071,0.039c-1.204,1.156-3.494,3.031-4.442,2.726c-0.395-0.131-0.833-0.83-0.767-1.228 c0.042-0.078,0.42-0.213,0.725-0.322c0.933-0.336,2.492-0.896,3.301-2.434c0.02-0.037,0.025-0.078,0.017-0.119 c-0.206-0.957-0.287-1.916-0.173-2.054c0.111,0.009,0.493,0.458,0.784,0.952c0.031,0.053,0.087,0.086,0.149,0.087 C17.408,25.629,17.466,25.6,17.499,25.547z"/>
<linearGradient id="_35" gradientUnits="userSpaceOnUse" x1="14.46" y1="27.76" x2="15.72" y2="30">
<stop stop-color="#FFFFFF" offset="0"/>
<stop stop-color="#A2C2DD" offset="0.35"/>
<stop stop-color="#6C83BB" offset="0.7"/>
<stop stop-color="#003D6D" offset="1"/>
</linearGradient>
<path fill="url(#_35)" d="M17.909,28.109c0,0-3.284,3.214-4.619,2.781c-0.457-0.15-0.961-0.912-0.878-1.41 c0.08-0.496,2.899-0.571,4.04-2.842L17.909,28.109z"/>
<linearGradient id="_36" gradientUnits="userSpaceOnUse" x1="18.4" y1="24.02" x2="18.59" y2="27.9">
<stop stop-color="#FFFFFF" offset="0.05"/>
<stop stop-color="#A2C2DD" offset="1"/>
</linearGradient>
<path fill="url(#_36)" d="M16.418,26.711c0,0-0.425-1.97-0.114-2.214c0.315-0.243,1.038,0.987,1.038,0.987 c0.444-0.695,1.271-1.807,1.593-1.658c0.325,0.146-0.269,1.97-0.306,2.038c-0.034,0.071,1.475-1.455,1.862-1.099 c0.339,0.313-1.13,1.947-1.13,1.947s1.336-0.195,1.43,0.137c0.098,0.332-2.925,1.307-2.925,1.307L16.418,26.711z"/>
<radialGradient id="_37" gradientUnits="userSpaceOnUse" cx="23.88" cy="9.53" fx="21.76" fy="10.91" r="4.56">
<stop stop-color="#FFFFFF" offset="0.05"/>
<stop stop-color="#A2C2DD" offset="1"/>
</radialGradient>
<path fill="url(#_37)" d="M28.439,9.531c0,2.517-2.041,4.555-4.558,4.555c-2.516,0-4.554-2.038-4.554-4.555 c0-2.517,2.038-4.557,4.554-4.557C26.398,4.975,28.439,7.015,28.439,9.531z"/>
<linearGradient id="_38" gradientUnits="userSpaceOnUse" x1="23.78" y1="3.97" x2="23.86" y2="8.37">
<stop stop-color="#E6EEF4" offset="0"/>
<stop stop-color="#4A9900" offset="0.44"/>
<stop stop-color="#0E4E58" offset="0.94"/>
</linearGradient>
<path fill="url(#_38)" d="M25.542,7.975c-3.806,1.255-4.995,0.061-5.244,0.01c-0.798,0.597-0.808,2.748-0.808,2.748 c-0.107-0.383-0.161-0.785-0.161-1.201c0-2.517,2.04-4.557,4.554-4.557c2.518,0,4.559,2.04,4.559,4.557 c0,0.419-0.06,0.825-0.164,1.213C28.277,10.745,26.775,7.766,25.542,7.975z"/>
<ellipse fill="#6D5607" cx="21.762" cy="9.825" rx="0.361" ry="0.784"/>
<ellipse fill="#6D5607" cx="23.704" cy="9.825" rx="0.36" ry="0.784"/>
<radialGradient id="_39" gradientUnits="userSpaceOnUse" cx="10.05" cy="9.53" fx="7.77" fy="10.53" r="4.56">
<stop stop-color="#FFFFFF" offset="0.05"/>
<stop stop-color="#A2C2DD" offset="1"/>
</radialGradient>
<circle fill="url(#_39)" cx="10.049" cy="9.531" r="4.556"/>
<linearGradient id="_40" gradientUnits="userSpaceOnUse" x1="8.93" y1="0.72" x2="10.18" y2="10.42">
<stop stop-color="#E6EEF4" offset="0"/>
<stop stop-color="#C03A3A" offset="0.44"/>
<stop stop-color="#302D02" offset="0.94"/>
</linearGradient>
<path fill="url(#_40)" d="M12.82,6.412c-0.066,2.8-6.214,1.491-7.328,3.119c0-2.446,2.039-4.557,4.554-4.557 c2.518,0,4.558,2.116,4.558,4.557C13.702,9.324,12.754,8.051,12.82,6.412z"/>
<ellipse fill="#8B2E74" cx="9.034" cy="9.915" rx="0.359" ry="0.776"/>
<ellipse fill="#8B2E74" cx="10.957" cy="9.915" rx="0.358" ry="0.776"/>
<radialGradient id="_41" gradientUnits="userSpaceOnUse" cx="32.38" cy="18.22" fx="30.82" fy="19.3" r="4.56">
<stop stop-color="#FFFFFF" offset="0.05"/>
<stop stop-color="#A2C2DD" offset="1"/>
</radialGradient>
<circle fill="url(#_41)" cx="32.382" cy="18.221" r="4.556"/>
<linearGradient id="_42" gradientUnits="userSpaceOnUse" x1="29.79" y1="10.93" x2="32.19" y2="17.32">
<stop stop-color="#E6EEF4" offset="0"/>
<stop stop-color="#575AC6" offset="0.44"/>
<stop stop-color="#003D6D" offset="0.94"/>
</linearGradient>
<path fill="url(#_42)" d="M35.152,15.101c-0.067,2.801-6.213,1.49-7.327,3.121c0-2.446,2.038-4.557,4.556-4.557 s4.557,2.116,4.557,4.557C36.034,18.014,35.085,16.74,35.152,15.101z"/>
<ellipse fill="#7B341F" cx="31.365" cy="18.604" rx="0.357" ry="0.778"/>
<ellipse fill="#7B341F" cx="33.289" cy="18.604" rx="0.357" ry="0.778"/>
<radialGradient id="_43" gradientUnits="userSpaceOnUse" cx="10.49" cy="23.72" fx="12.51" fy="28.01" r="5.41">
<stop stop-color="#FFFFFF" offset="0.05"/>
<stop stop-color="#A2C2DD" offset="1"/>
</radialGradient>
<path fill="url(#_43)" d="M8.624,18.535c2.928-0.959,6.136,0.588,7.167,3.453c0.346,0.961,0.399,1.949,0.21,2.873 l-0.736,0.24l-1.96,0.644l1.578,1.342l0.053,0.045c-0.639,0.8-1.52,1.431-2.583,1.779c-2.926,0.958-6.134-0.589-7.164-3.452 C4.157,22.591,5.695,19.493,8.624,18.535z"/>
<linearGradient id="_44" gradientUnits="userSpaceOnUse" x1="14.94" y1="21.4" x2="14.65" y2="23.08">
<stop stop-color="#E6EEF4" offset="0"/>
<stop stop-color="#4A9900" offset="0.44"/>
<stop stop-color="#0E4E58" offset="0.94"/>
</linearGradient>
<path fill="url(#_44)" d="M14.295,22.857c0.152,0.431,0.466,0.718,0.697,0.641c0.231-0.074,0.291-0.484,0.137-0.915 c-0.153-0.431-0.467-0.719-0.698-0.642C14.201,22.016,14.14,22.426,14.295,22.857z"/>
<linearGradient id="_45" gradientUnits="userSpaceOnUse" x1="14.61" y1="23.2" x2="14.43" y2="25.74">
<stop stop-color="#87A8CB" offset="0"/>
<stop stop-color="#235487" offset="1"/>
</linearGradient>
<polygon fill="url(#_45)" fill-opacity="0.56" points="15.994,24.855 13.328,25.762 14.922,27.139 14.786,27.283 12.902,25.625 16.045,24.595 "/>
<linearGradient id="_46" gradientUnits="userSpaceOnUse" x1="6.97" y1="15.86" x2="11.75" y2="26.63">
<stop stop-color="#E6EEF4" offset="0"/>
<stop stop-color="#337CE5" offset="0.44"/>
<stop stop-color="#003D6D" offset="0.94"/>
</linearGradient>
<path fill="url(#_46)" d="M12.272,21.645c1.188,0.287,3.091-0.567,3.079-0.57c-0.919-1.846-3.799-3.497-6.728-2.538 c-2.928,0.958-4.437,4.146-3.436,6.924c0.428,1.299,1.964,3.362,4.748,3.69c0.685-0.119,1.267-0.92,1.547-2.073 c-2.439-1.289-0.983-5.24,0.64-2.327c0.209,0.039,0.234,0.057,0.801,0.23C13.408,23.691,12.272,21.645,12.272,21.645z"/>
</svg>