<?xml version="1.0" encoding="UTF-8" standalone="no"?>
<!DOCTYPE svg PUBLIC "-//W3C//DTD SVG 1.1 Tiny//EN" "http://www.w3.org/Graphics/SVG/1.1/DTD/svg11-tiny.dtd">
<svg xmlns="http://www.w3.org/2000/svg" xmlns:xlink="http://www.w3.org/1999/xlink" width="16" height="16" viewBox="0 0 16 16">
<rect fill="none" height="16" width="16"/>
<linearGradient id="SVGID_1" gradientUnits="userSpaceOnUse" x1="7.7" y1="4.41" x2="11.6" y2="9.05">
<stop stop-color="#CEE1EF" offset="0"/>
<stop stop-color="#A2C2DD" offset="0.5"/>
<stop stop-color="#496DA2" offset="1"/>
</linearGradient>
<path d="M4.853,3.483l1.479-0.784C6.324,2.704,8.125,1.974,9.664,2.374c1.486,0.388,2.38,1.2,3.24,2.521 c0.854,1.321,1.057,3.641,0.493,4.876c-0.568,1.234-0.947,1.521-1.364,1.915L10.1,13.086c1.564-2.724,1.242-5.709,0.283-7.032 C9.423,4.73,7.436,2.989,4.853,3.483z" fill="url(#SVGID_1)"/>
<path d="M12.367,8.588c0.146,2.968-1.988,5.273-4.77,5.155c-2.783-0.122-5.158-2.625-5.305-5.597 C2.145,5.178,4.279,2.871,7.064,2.989C9.846,3.114,12.217,5.62,12.367,8.588z" fill="#CEE1EF"/>
<path d="M8.053,5.778L9.149,5.84L8.671,9.43c-0.068,0.485,0.116,0.782,0.725,0.217 c1.034-1.155,0.95-2.635,0.471-3.509C9.383,5.261,8.404,4.505,6.945,4.546C5.323,4.593,4.14,5.782,3.871,7.581 c-0.133,1.639,0.883,3.807,2.888,4.328c2.125,0.553,3.066-0.746,3.43-1.307l1.142,0.063c-1.479,2.895-4.375,2.766-6.202,1.453 c-2.109-1.516-2.945-4.763-1.25-6.969c1.57-2.038,4.938-1.836,6.363,0.065c1.512,2.016,0.719,3.859,0.418,4.338 c-0.75,1.298-1.679,1.387-1.679,1.387s-1.228,0.214-1.43-0.601c-1.283,1.225-3.165,0.058-2.831-2.426 c0.309-2.316,2.354-3.03,3.253-1.596L8.053,5.778z M5.884,7.726C5.645,8.745,5.849,9.61,6.277,9.868 c0.429,0.252,1.175,0.035,1.451-1.333c0.276-1.372-0.154-1.96-0.733-2.05C6.636,6.427,6.121,6.711,5.884,7.726z" fill="#496DA2"/>
</svg>