<?xml version="1.0" encoding="UTF-8"?>
<!DOCTYPE svg PUBLIC "-//W3C//DTD SVG 1.1 Tiny//EN" "http://www.w3.org/Graphics/SVG/1.1/DTD/svg11-tiny.dtd">
<svg baseProfile="tiny" height="50.352" viewBox="0 0 50.352 50.352" width="50.352" xmlns="http://www.w3.org/2000/svg" xmlns:xlink="http://www.w3.org/1999/xlink">
<rect fill="none" height="50.352" width="50.352"/>
<polygon fill="#FFFFFF" points="33.475,12.831 33.475,9.569 30.213,9.569 30.213,6.309 7.145,6.309 7.145,35.899 10.406,35.899 10.406,39.161 13.668,39.161 13.668,42.422 36.736,42.422 36.736,12.831 "/>
<rect height="26.091" width="19.568" x="8.895" y="8.059"/>
<path d="M10.525,9.689c0,1.893,0,22.946,0,24.836c1.811,0,16.33,0,18.141,0c0-1.89,0-22.947,0-24.836 C28.665,9.689,12.414,9.689,10.525,9.689z" fill="#FFFFFF"/>
<rect height="26.092" width="19.568" x="12.156" y="11.319"/>
<path d="M13.787,12.95c0,1.881,0,22.813,0,24.69c1.82,0,16.414,0,18.234,0c0-1.878,0-22.813,0-24.69 C32.02,12.95,15.685,12.95,13.787,12.95z" fill="#FFFFFF"/>
<rect height="26.091" width="19.568" x="15.418" y="14.581"/>
<path d="M33.318,17.253c0,0-13.547,0-15.121,0c0,1.561,0,18.96,0,20.521c1.512,0,13.646,0,15.16,0 c0-1.561,0-18.96,0-20.521C33.354,17.253,33.318,17.253,33.318,17.253z" fill="#F5F5F5"/>
<rect fill="#E1E1E1" height="1.631" width="16.309" x="17.049" y="37.409"/>
<polygon fill="#FFFFFF" points="17.049,16.212 17.02,39.041 18.68,39.041 18.68,17.843 33.355,17.843 33.355,16.212 "/>
<path d="M25.854,18.317v-1.316c3.626,0.41,6.447,3.465,6.492,7.189h-1.301C30.996,21.184,28.759,18.721,25.854,18.317z"/>
<path d="M24.193,31.935v-1.316c-2.905-0.405-5.143-2.866-5.191-5.872h-1.301C17.746,28.471,20.566,31.524,24.193,31.935z"/>
<path d="M25.854,21.32v-1.337c1.991,0.384,3.498,2.113,3.54,4.207H28.09C28.049,22.819,27.119,21.676,25.854,21.32z"/>
<path d="M24.193,28.953v-1.337c-1.266-0.358-2.195-1.5-2.236-2.87h-1.303C20.694,26.839,22.202,28.568,24.193,28.953z"/>
<path d="M40.276,26.995h-7.256c-1.633,0-2.962,1.329-2.962,2.963v2.501c-0.023,0.344-0.031,0.352-0.211,0.537 c-0.526,0.543-1.099,1.252-1.229,2.811l-0.003,0.031l-0.004,0.072v6.545c0,1.633,1.329,2.962,2.962,2.962h8.702 c1.633,0,2.962-1.329,2.962-2.962V29.958C43.238,28.324,41.909,26.995,40.276,26.995z" fill="#FFFFFF"/>
<path d="M31.574,43.667c-0.666,0-1.212-0.546-1.212-1.212v-6.503c0.178-2.127,1.315-1.36,1.446-3.435v-2.56 c0-0.668,0.546-1.213,1.212-1.213h7.256c0.665,0,1.212,0.545,1.212,1.213v12.497c0,0.666-0.547,1.212-1.212,1.212H31.574z"/>
<rect fill="#FFFFFF" height="3.723" width="1.669" x="38.51" y="29.661"/>
<rect fill="#FFFFFF" height="3.723" width="1.669" x="35.804" y="29.661"/>
<rect fill="#FFFFFF" height="3.723" width="1.669" x="33.099" y="29.661"/>
</svg>
