<?xml version="1.0" encoding="UTF-8" standalone="no"?>
<!DOCTYPE svg PUBLIC "-//W3C//DTD SVG 1.1 Tiny//EN" "http://www.w3.org/Graphics/SVG/1.1/DTD/svg11-tiny.dtd">
<svg width="32px" height="32px" viewBox="0 0 32 32">
<path d="M11.391,1.385L4.105,16.959c0,0,7.607,0.014,10.719,0.02c-0.668,1.414-1.012,2.145-1.387,2.943 c-1.305,0-7.684,0-7.684,0l10.473,11.393L30.32,19.809c0,0-6.232,0.072-6.848,0.078c1.297-2.74,4.402-9.307,4.402-9.307 s-7.59-0.02-10.699-0.029c1.279-2.686,4.363-9.166,4.363-9.166H11.391z" fill="#FFFFFF"/>
<polygon points="24.879,12.473 14.17,12.443 18.531,3.285 12.6,3.285 7.09,15.064 17.818,15.086 14.641,21.823 10.08,21.823 16.412,28.711 24.912,21.772 20.455,21.823 "/>
<rect fill="none" height="32" width="32"/>
</svg>