<?xml version="1.0" encoding="UTF-8"?>
<!DOCTYPE svg PUBLIC "-//W3C//DTD SVG 1.1 Tiny//EN" "http://www.w3.org/Graphics/SVG/1.1/DTD/svg11-tiny.dtd">
<svg width="36" height="36" viewBox="0 0 36 36">
<path d="M1.113,17.4c0,8.979,7.307,16.286,16.287,16.286 c8.981,0,16.286-7.307,16.286-16.286c0-8.98-7.305-16.286-16.286-16.286C8.42,1.115,1.113,8.42,1.113,17.4z" fill-opacity="0.01" />
<path d="M1.825,17.4c0,8.588,6.986,15.574,15.575,15.574 c8.59,0,15.577-6.986,15.577-15.574S25.99,1.827,17.4,1.827C8.811,1.827,1.825,8.813,1.825,17.4z" fill-opacity="0.02" />
<path d="M2.535,17.4c0,8.195,6.669,14.864,14.865,14.864 c8.198,0,14.864-6.668,14.864-14.864c0-8.198-6.666-14.864-14.864-14.864C9.204,2.537,2.535,9.203,2.535,17.4z" fill-opacity="0.04" />
<path d="M3.135,17.4c0,7.866,6.399,14.262,14.265,14.262 c7.864,0,14.262-6.396,14.262-14.262c0-7.865-6.398-14.264-14.262-14.264C9.534,3.137,3.135,9.536,3.135,17.4z" fill-opacity="0.07" />
<linearGradient id="_5" gradientUnits="userSpaceOnUse" x1="18" y1="31.87" x2="18" y2="9.68">
<stop stop-color="#8CC2EA" offset="0"/>
<stop stop-color="#0046B7" offset="1"/>
</linearGradient>
<path d="M18,3.784C10.16,3.784,3.781,10.161,3.781,18 c0,7.839,6.379,14.216,14.219,14.216c7.839,0,14.218-6.377,14.218-14.216C32.218,10.161,25.839,3.784,18,3.784z" fill="url(#_5)"/>
<linearGradient id="_6" gradientUnits="userSpaceOnUse" x1="18" y1="33.91" x2="18" y2="5.01">
<stop stop-color="#8CC2EA" offset="0"/>
<stop stop-color="#4583D0" offset="0.52"/>
<stop stop-color="#0046B7" offset="1"/>
</linearGradient>
<path d="M18,4.947c-7.199,0-13.055,5.856-13.055,13.055 c0,7.195,5.855,13.05,13.055,13.05c7.198,0,13.055-5.855,13.055-13.05C31.055,10.804,25.198,4.947,18,4.947z" fill="url(#_6)"/>
<linearGradient id="_7" gradientUnits="userSpaceOnUse" x1="18" y1="30.14" x2="18" y2="2.58">
<stop stop-color="#8CC2EA" offset="0"/>
<stop stop-color="#74A9E2" offset="0.15"/>
<stop stop-color="#588CD8" offset="0.37"/>
<stop stop-color="#4377D2" offset="0.59"/>
<stop stop-color="#376ACD" offset="0.8"/>
<stop stop-color="#3366CC" offset="1"/>
</linearGradient>
<path d="M18,5.711c-6.777,0-12.291,5.513-12.291,12.291 c0,6.774,5.514,12.288,12.291,12.288s12.292-5.514,12.292-12.288C30.292,11.224,24.777,5.711,18,5.711z" fill="url(#_7)"/>
<linearGradient id="_8" gradientUnits="userSpaceOnUse" x1="23.89" y1="28.37" x2="12.57" y2="8.44">
<stop stop-color="#8CC2EA" offset="0"/>
<stop stop-color="#5AA7E0" offset="1"/>
</linearGradient>
<circle cx="18.001" cy="18.001" fill="url(#_8)" r="11.58"/>
<path d="M27.77,21.063l-2.737,0.007l-0.017-8.532c-0.005-1.409-0.988-2.389-2.391-2.386 l-11.611,0.03c-2.878,0.012-2.38,3.367-2.379,4.101l2.732-0.01l0.021,8.535c0.005,1.408,0.988,2.39,2.395,2.383l11.607-0.027 C27.968,25.166,27.789,22.643,27.77,21.063z M9.994,12.913c0,0-0.139-1.109,0.715-1.313c0.736,0.189,0.654,1.313,0.654,1.313 L9.994,12.913z M14.468,23.823c0,0-1.713,0.294-1.713-1.014l-0.026-10.074c0-0.445-0.083-0.844-0.232-1.19l10.129-0.034 c0.655,0.004,1.029,0.375,1.029,1.032l0.021,8.532l-8.19,0.022C15.508,22.476,15.727,23.866,14.468,23.823z M25.391,23.799 l-8.754,0.024c0.246-0.332,0.218-1.163,0.218-1.37l9.55-0.021C26.404,22.913,26.407,23.799,25.391,23.799z" fill="#3366CC"/>
<rect fill="#3366CC" height="1.36" width="8.189" x="14.098" y="12.895"/>
<rect fill="#3366CC" height="1.367" width="8.186" x="14.105" y="15.624"/>
<polygon fill="#3366CC" points="14.107,18.364 14.113,19.731 22.307,19.712 22.295,18.343 "/>
</svg>