<?xml version="1.0" encoding="UTF-8" standalone="no"?>
<!DOCTYPE svg PUBLIC "-//W3C//DTD SVG 1.1 Tiny//EN" "http://www.w3.org/Graphics/SVG/1.1/DTD/svg11-tiny.dtd">
<svg xmlns="http://www.w3.org/2000/svg" xmlns:xlink="http://www.w3.org/1999/xlink" baseProfile="tiny" height="32px" version="1.1" viewBox="0 0 38 32" width="38px" x="0px" y="0px">
<g>
<rect fill="none" height="32" width="38"/>
<path d="M19.131,2.922c-3.575,0-9.085,0.719-9.085,12.78c0,6.08,0.623,13.374,8.825,13.374   c9.398,0,9.08-9.24,9.08-13.374C27.951,12.844,28.395,2.922,19.131,2.922z M19,24.44c-2.186,0-1.977-5.667-1.975-8.738   c-0.002-2.63-0.128-8.145,1.975-8.145c2.247,0,1.939,5.499,1.938,8.145C20.939,18.773,21.186,24.44,19,24.44z" fill-opacity="0.4" stroke-opacity="0.4"/>
<path d="M19,28.277c-7.492,0-8.152-6.402-8.152-12.574c0-5.578,0.924-11.98,8.283-11.98   c7.262,0,8.021,6.336,8.021,11.98C27.152,21.94,26.426,28.277,19,28.277z M19,6.759c-2.607,0-2.773,3.663-2.773,8.944   c0,6.172,0.266,9.538,2.773,9.538c2.475,0,2.738-3.366,2.738-9.538C21.738,10.389,21.574,6.759,19,6.759z" fill="#FFFFFF"/>
</g>
</svg>
