<?xml version="1.0" encoding="UTF-8"?>
<!DOCTYPE svg PUBLIC "-//W3C//DTD SVG 1.1 Tiny//EN" "http://www.w3.org/Graphics/SVG/1.1/DTD/svg11-tiny.dtd">
<svg width="60" height="80" viewBox="0 0 60 80">
<linearGradient id="_3" gradientUnits="userSpaceOnUse" x1="20.86" y1="27.49" x2="38.9" y2="49.59">
<stop stop-color="#B3DDFF" offset="0"/>
<stop stop-color="#084296" offset="1"/>
</linearGradient>
<polygon fill="url(#_3)" points="2.147,31.987 9.249,26.164 12.172,24.944 12.148,22.103 18.101,16.845 23.733,15.2 50.054,19.511 56.874,27.929 55.869,46.723 46.317,53.295 46.317,56.822 36.112,63.879 9.848,57.484 3.15,49.531 "/>
<polygon fill="#5AA7E0" points="21.188,45.76 14.749,38.646 14.023,22.462 20.026,17.73 46.155,22.559 52.235,30.332 51.69,47.193 45.667,51.486 "/>
<polygon fill="#8CC2EA" points="46.114,22.545 48.979,21.481 55.049,28.841 52.274,30.338 "/>
<polygon fill="#CFECFF" points="19.907,17.683 23.539,16.746 49.036,21.481 46.105,22.554 "/>
<polygon fill="#3366CC" points="52.188,30.323 55.049,28.841 54.266,45.248 51.67,47.246 "/>
<polygon fill="#5AA7E0" points="11.324,55.637 4.885,48.521 4.159,32.338 10.162,27.606 36.291,32.435 42.369,40.209 41.826,57.07 35.803,61.363 "/>
<linearGradient id="_4" gradientUnits="userSpaceOnUse" x1="-0.84" y1="25.12" x2="45.17" y2="60.97">
<stop stop-color="#5AA7E0" offset="0"/>
<stop stop-color="#3366CC" offset="1"/>
</linearGradient>
<path fill="url(#_4)" d="M6.477,34.199l0.586,13.52l5.634,6.256l21.164,4.943l5.548-3.789L39.824,40.9l-5.363-6.583 L12.118,29.64L6.477,34.199z M12.851,31.585L33.333,35.9c0,0,4.207,5.165,4.515,5.543 c-0.017,0.492-0.341,11.959-0.361,12.607c-0.486,0.332-3.779,2.58-4.245,2.898c-0.648-0.166-19.039-4.412-19.464-4.523 c-0.279-0.295-4.454-4.996-4.793-5.355c-0.019-0.494-0.522-11.904-0.522-11.904L12.851,31.585z"/>
<polygon fill="#8CC2EA" points="36.25,32.422 39.114,31.358 45.185,38.718 42.41,40.215 "/>
<polygon fill="#CFECFF" points="10.043,27.56 13.675,26.622 39.172,31.358 36.241,32.43 "/>
<polygon fill="#3366CC" points="42.324,40.197 45.185,38.718 44.401,55.125 41.806,57.121 "/>
<path fill="#5AA7E0" d="M12.851,31.585L33.333,35.9c0,0,4.207,5.165,4.515,5.543c-0.017,0.492-0.341,11.959-0.361,12.607 c-0.486,0.332-3.779,2.58-4.245,2.898c-0.648-0.166-19.039-4.412-19.464-4.523c-0.279-0.295-4.454-4.996-4.793-5.355 c-0.019-0.494-0.522-11.904-0.522-11.904L12.851,31.585z"/>
</svg>