<?xml version="1.0" encoding="UTF-8"?>
<!DOCTYPE svg PUBLIC "-//W3C//DTD SVG 1.1 Tiny//EN" "http://www.w3.org/Graphics/SVG/1.1/DTD/svg11-tiny.dtd">
<svg width="84" height="72" viewBox="0 0 84 72">
<line fill="none" stroke="#CEDFF2" stroke-width="0.7" stroke-linejoin="round" x1="58.482" y1="59.697" x2="58.482" y2="59.989"/>
<linearGradient id="_164" gradientUnits="userSpaceOnUse" x1="47.38" y1="45.8" x2="58.03" y2="59.86">
<stop stop-color="#A2C2DD" offset="0.1"/>
<stop stop-color="#6C83BB" offset="0.71"/>
<stop stop-color="#003D6D" offset="0.99"/>
</linearGradient>
<path fill="url(#_164)" d="M37.236,10.496l-4.092,1.173c0,0-2.831,9.665-2.998,10.233c-0.572-0.098-7.525-1.469-7.525-1.469 l-6.618,2.504c0,0,2.298,10.423,2.521,11.378c-0.831-0.152-4.101-0.914-4.101-0.914l-3.935,1.252l1.609,21.494L33.5,62.169 l3.524-2.437c0,0,0.096-4.934,0.11-5.733c0.86,0.265,21.417,6.567,21.417,6.567C58.736,60.622,71.791,21.017,71.689,21 c0,0-16.655-2.511-17.258-2.602c0.021-0.561,0.206-5.418,0.206-5.418S37.286,10.481,37.236,10.496z"/>
<linearGradient id="_165" gradientUnits="userSpaceOnUse" x1="30.15" y1="35.99" x2="67.47" y2="35.99">
<stop stop-color="#FFFFFF" offset="0.15"/>
<stop stop-color="#A2C2DD" offset="1"/>
</linearGradient>
<polygon fill="url(#_165)" points="30.151,23.642 33.491,12.272 51.09,15.093 50.961,20.546 67.473,23.315 58.479,59.712 "/>
<linearGradient id="_166" gradientUnits="userSpaceOnUse" x1="16.56" y1="41.36" x2="58.48" y2="41.36">
<stop stop-color="#CADCEC" offset="0"/>
<stop stop-color="#87A8CB" offset="1"/>
</linearGradient>
<polygon fill="url(#_166)" points="58.48,59.366 22.497,48.991 16.564,23.354 52.383,30.534 "/>
<linearGradient id="_167" gradientUnits="userSpaceOnUse" x1="33.77" y1="32.32" x2="40.16" y2="20.3">
<stop stop-color="#FFFFFF" offset="0.15"/>
<stop stop-color="#A2C2DD" offset="1"/>
</linearGradient>
<polygon fill="url(#_167)" points="58.443,27.239 22.721,21.108 16.564,23.354 52.383,30.534 "/>
<linearGradient id="_168" gradientUnits="userSpaceOnUse" x1="33.39" y1="13.09" x2="54.14" y2="13.09">
<stop stop-color="#FFFFFF" offset="0.05"/>
<stop stop-color="#A2C2DD" offset="1"/>
</linearGradient>
<polygon fill="url(#_168)" points="54.145,13.544 37.375,11.087 33.394,12.212 51.09,15.093 "/>
<linearGradient id="_169" gradientUnits="userSpaceOnUse" x1="57.53" y1="26.49" x2="63.15" y2="17.62">
<stop stop-color="#FFFFFF" offset="0.05"/>
<stop stop-color="#A2C2DD" offset="1"/>
</linearGradient>
<polygon fill="url(#_169)" points="71.055,21.456 53.939,18.874 50.961,20.546 67.473,23.315 "/>
<linearGradient id="_170" gradientUnits="userSpaceOnUse" x1="62.37" y1="41.96" x2="52.62" y2="46.09">
<stop stop-color="#A2C2DD" offset="0.1"/>
<stop stop-color="#6C83BB" offset="0.71"/>
<stop stop-color="#003D6D" offset="0.99"/>
</linearGradient>
<polygon fill="url(#_170)" points="58.443,27.239 58.482,59.989 52.383,30.534 "/>
<linearGradient id="_171" gradientUnits="userSpaceOnUse" x1="78.08" y1="22.46" x2="54.08" y2="52.96">
<stop stop-color="#A2C2DD" offset="0.1"/>
<stop stop-color="#6C83BB" offset="0.71"/>
<stop stop-color="#003D6D" offset="0.99"/>
</linearGradient>
<polygon fill="url(#_171)" points="71.055,21.456 58.482,59.989 67.473,23.315 "/>
<linearGradient id="_172" gradientUnits="userSpaceOnUse" x1="52.24" y1="7.8" x2="52.86" y2="26.18">
<stop stop-color="#FFFFFF" offset="0"/>
<stop stop-color="#A2C2DD" offset="0.35"/>
<stop stop-color="#6C83BB" offset="0.7"/>
<stop stop-color="#003D6D" offset="1"/>
</linearGradient>
<polygon fill="url(#_172)" points="51.09,15.093 50.961,20.546 53.939,18.874 54.145,13.544 "/>
<linearGradient id="_173" gradientUnits="userSpaceOnUse" x1="25.2" y1="53.13" x2="52.28" y2="38.61">
<stop stop-color="#FFFFFF" offset="0.15"/>
<stop stop-color="#A2C2DD" offset="1"/>
</linearGradient>
<polygon fill="url(#_173)" points="22.672,49.01 29.348,26.204 52.395,30.755 58.482,59.989 "/>
<linearGradient id="_174" gradientUnits="userSpaceOnUse" x1="34.67" y1="33.29" x2="35.7" y2="66.72">
<stop stop-color="#E6EEF4" offset="0"/>
<stop stop-color="#4A9900" offset="0.44"/>
<stop stop-color="#0E4E58" offset="0.94"/>
</linearGradient>
<polygon fill="url(#_174)" points="33.411,61.65 36.716,59.492 37.06,41.658 33.059,43.639 "/>
<linearGradient id="_175" gradientUnits="userSpaceOnUse" x1="12.05" y1="36.86" x2="27.14" y2="31.75">
<stop stop-color="#DCE8E4" offset="0"/>
<stop stop-color="#43910A" offset="1"/>
</linearGradient>
<polygon fill="url(#_175)" points="22.868,35.441 14.604,33.936 11.051,34.9 19.551,36.611 "/>
<linearGradient id="_176" gradientUnits="userSpaceOnUse" x1="15.32" y1="35.01" x2="33.2" y2="69.47">
<stop stop-color="#DCE8E4" offset="0"/>
<stop stop-color="#43910A" offset="1"/>
</linearGradient>
<polygon fill="url(#_176)" points="33.394,61.564 12.735,55.65 11.099,34.896 19.456,36.543 33.093,43.648 "/>
<linearGradient id="_177" gradientUnits="userSpaceOnUse" x1="23.44" y1="47.78" x2="33.41" y2="36.53">
<stop stop-color="#DCE8E4" offset="0"/>
<stop stop-color="#43910A" offset="1"/>
</linearGradient>
<polygon fill="url(#_177)" points="37.086,41.618 25.176,39.066 21.469,40.771 33.065,43.6 "/>
<linearGradient id="_178" gradientUnits="userSpaceOnUse" x1="18.79" y1="34.47" x2="30.28" y2="46.83">
<stop stop-color="#E6EEF4" offset="0"/>
<stop stop-color="#4A9900" offset="0.44"/>
<stop stop-color="#0E4E58" offset="0.94"/>
</linearGradient>
<polygon fill="url(#_178)" points="19.385,36.587 21.424,40.788 25.19,39.077 22.894,35.401 "/>
</svg>