<?xml version="1.0" encoding="UTF-8" standalone="no"?>
<!DOCTYPE svg PUBLIC "-//W3C//DTD SVG 1.1 Tiny//EN" "http://www.w3.org/Graphics/SVG/1.1/DTD/svg11-tiny.dtd">
<svg xmlns="http://www.w3.org/2000/svg" xmlns:xlink="http://www.w3.org/1999/xlink" width="44" height="44" viewBox="0 0 44 44">
<rect fill="none" height="44" width="44"/>
<path d="M38.809,21.816c-0.168-0.054-0.424-0.137-0.666-0.216l-0.002-1.195 c0.244-0.084,0.502-0.173,0.672-0.232c0.455-0.159,0.733-0.625,0.658-1.102c-0.074-0.475-0.18-1.151-0.26-1.646 c-0.079-0.485-0.502-0.844-0.994-0.84c-0.175,0.001-0.439,0.001-0.695,0.001l-0.369-1.133c0.207-0.157,0.427-0.322,0.572-0.434 c0.383-0.292,0.504-0.818,0.285-1.247c-0.219-0.43-0.527-1.04-0.753-1.486c-0.222-0.438-0.728-0.649-1.196-0.498 c-0.172,0.055-0.428,0.138-0.67,0.217l-0.705-0.964c0.146-0.211,0.303-0.434,0.404-0.581c0.276-0.395,0.23-0.929-0.107-1.273 c-0.344-0.349-0.826-0.833-1.18-1.186C33.455,7.653,32.9,7.609,32.504,7.9c-0.143,0.104-0.357,0.261-0.564,0.412l-0.967-0.701 c0.074-0.246,0.153-0.503,0.207-0.673c0.141-0.465-0.07-0.963-0.5-1.184c-0.43-0.22-1.035-0.535-1.488-0.766 c-0.44-0.223-0.975-0.094-1.264,0.304c-0.104,0.145-0.262,0.361-0.41,0.568l-1.135-0.367c-0.006-0.258-0.012-0.53-0.016-0.708 c-0.01-0.483-0.36-0.887-0.836-0.966c-0.48-0.08-1.152-0.189-1.648-0.268c-0.486-0.076-0.958,0.213-1.109,0.683 c-0.055,0.168-0.137,0.423-0.215,0.667l-1.187,0.001c-0.085-0.246-0.175-0.504-0.234-0.675c-0.159-0.456-0.623-0.734-1.1-0.66 c-0.477,0.076-1.153,0.182-1.644,0.256c-0.491,0.074-0.849,0.493-0.849,0.989c0,0.181,0.001,0.448,0.002,0.703l-1.134,0.371 c-0.156-0.207-0.32-0.424-0.427-0.567c-0.291-0.384-0.814-0.507-1.247-0.291c-0.437,0.22-1.048,0.531-1.482,0.746 c-0.443,0.22-0.661,0.733-0.508,1.204c0.055,0.172,0.138,0.428,0.218,0.672l-0.965,0.702c-0.21-0.146-0.432-0.301-0.575-0.403 c-0.395-0.279-0.937-0.233-1.279,0.105C9.8,8.4,9.313,8.883,8.964,9.229c-0.351,0.347-0.395,0.9-0.104,1.299 c0.105,0.144,0.262,0.361,0.413,0.567L8.575,12.06c-0.249-0.075-0.512-0.154-0.688-0.206c-0.462-0.136-0.952,0.073-1.172,0.502 c-0.22,0.43-0.535,1.038-0.763,1.483c-0.224,0.438-0.096,0.977,0.301,1.266c0.146,0.105,0.364,0.263,0.571,0.414L6.456,16.65 c-0.257,0.005-0.528,0.01-0.706,0.013c-0.484,0.01-0.891,0.361-0.969,0.837c-0.08,0.483-0.191,1.155-0.27,1.653 c-0.077,0.486,0.209,0.952,0.678,1.105c0.171,0.057,0.428,0.14,0.671,0.22l0.002,1.187C5.616,21.75,5.358,21.84,5.187,21.9 c-0.456,0.16-0.733,0.622-0.659,1.1c0.075,0.479,0.176,2.286,0.256,2.785c0.079,0.484,0.496,0.839,0.988,0.839 c0.179,0,0.446,0,0.701-0.001l0.371,1.139c-0.205,0.154-0.421,0.316-0.562,0.422c-0.387,0.289-0.511,0.817-0.295,1.248 c0.22,0.442,0.531,1.051,0.745,1.483c0.22,0.442,0.73,0.66,1.201,0.509c0.173-0.055,0.431-0.138,0.675-0.218L9.31,32.17 c-0.148,0.212-0.303,0.436-0.406,0.582c-0.276,0.396-0.23,0.93,0.109,1.273c0.343,0.347,0.824,0.832,1.178,1.188 c0.349,0.35,0.895,0.393,1.293,0.104c0.146-0.104,0.363-0.262,0.569-0.414l0.965,0.699c-0.074,0.246-0.153,0.504-0.205,0.672 c-0.142,0.461,0.065,0.959,0.495,1.184c0.435,0.225,1.042,0.538,1.482,0.766c0.44,0.23,0.98,0.103,1.272-0.303 c0.104-0.145,0.261-0.361,0.411-0.566l1.135,0.365c0.005,0.258,0.01,0.531,0.013,0.709c0.008,0.482,0.362,0.893,0.839,0.971 c0.485,0.078,1.159,0.186,1.644,0.267c0.055,0.009,0.109,0.015,0.163,0.015c0.426,0,0.816-0.275,0.951-0.693 c0.055-0.168,0.137-0.424,0.215-0.666l1.195-0.004c0.084,0.246,0.174,0.504,0.233,0.674c0.16,0.459,0.625,0.736,1.105,0.658 c0.469-0.076,1.143-0.178,1.639-0.258c0.484-0.076,0.843-0.496,0.843-0.988c0-0.178,0-0.443,0-0.698l1.135-0.372 c0.153,0.206,0.315,0.422,0.423,0.563c0.289,0.389,0.817,0.51,1.249,0.295c0.437-0.219,1.043-0.527,1.488-0.748 c0.444-0.221,0.659-0.739,0.504-1.211c-0.058-0.168-0.14-0.42-0.218-0.66l0.964-0.703c0.211,0.146,0.432,0.302,0.581,0.404 c0.395,0.272,0.929,0.229,1.271-0.107c0.348-0.344,0.834-0.827,1.188-1.176c0.353-0.35,0.396-0.904,0.103-1.303 c-0.105-0.144-0.263-0.358-0.412-0.564l0.698-0.963c0.246,0.074,0.507,0.152,0.677,0.203c0.461,0.143,0.955-0.066,1.178-0.496 c0.227-0.436,0.539-1.041,0.769-1.482c0.226-0.439,0.099-0.98-0.303-1.271c-0.144-0.103-0.358-0.258-0.563-0.407l0.366-1.138 c0.257-0.006,0.528-0.012,0.707-0.017c0.481-0.009,0.892-0.36,0.968-0.839c0.078-0.48,0.188-2.288,0.266-2.783 C39.563,22.438,39.275,21.968,38.809,21.816z" fill-opacity="0.2"/>
<path d="M15.189,7.06c-0.434,0.217-1.044,0.528-1.488,0.747c0.136,0.421,0.443,1.359,0.443,1.359 s-2.607,1.221-3.293,0.736c-0.347,0.343-0.832,0.825-1.182,1.173c0.259,0.356,0.841,1.156,0.841,1.156s-1.684,2.077-2.906,1.717 c-0.221,0.43-0.536,1.04-0.763,1.482c0.357,0.26,1.158,0.84,1.158,0.84s-0.16,2.492-2.231,2.529 c-0.08,0.482-0.19,1.153-0.268,1.646c0.42,0.138,1.36,0.442,1.36,0.442l0.003,2.626c0,0-0.935,0.322-1.347,0.467 c0.075,0.48,0.177,1.154,0.257,1.645c0.439,0,1.427-0.003,1.427-0.003l0.817,2.506c0,0-0.787,0.597-1.136,0.856 c0.218,0.437,0.529,1.045,0.749,1.488c0.42-0.135,1.36-0.443,1.36-0.443l1.549,2.13c0,0-0.564,0.808-0.812,1.163 c0.341,0.347,0.823,0.834,1.173,1.185c0.355-0.257,1.151-0.841,1.151-0.841l2.132,1.542c0,0-0.285,0.946-0.413,1.36 c0.431,0.224,1.04,0.537,1.481,0.768c0.259-0.359,0.838-1.158,0.838-1.158l2.505,0.809c0,0,0.019,0.988,0.026,1.425 c0.48,0.077,1.156,0.185,1.646,0.267c0.135-0.418,0.437-1.355,0.437-1.355l2.637-0.008c0,0,0.32,0.933,0.465,1.347 c0.48-0.078,1.152-0.181,1.645-0.259c0-0.438-0.004-1.424-0.004-1.424l2.506-0.819c0,0,0.593,0.786,0.854,1.137 c0.437-0.219,1.043-0.526,1.492-0.75c-0.139-0.42-0.443-1.356-0.443-1.356l2.129-1.551c0,0,0.803,0.563,1.162,0.813 c0.346-0.34,0.832-0.824,1.187-1.174c-0.263-0.356-0.845-1.154-0.845-1.154l1.543-2.128c0,0,0.943,0.284,1.359,0.411 c0.225-0.434,0.537-1.039,0.769-1.483c-0.357-0.258-1.151-0.839-1.151-0.839l0.807-2.503c0,0,0.981-0.021,1.422-0.03 c0.078-0.48,0.188-1.152,0.266-1.645c-0.418-0.135-1.355-0.44-1.355-0.44l-0.004-2.634c0,0,0.93-0.322,1.344-0.465 c-0.075-0.477-0.18-1.151-0.26-1.644c-2.759,0.019-2.244-2.5-2.244-2.5s0.789-0.593,1.139-0.86 c-0.219-0.432-0.526-1.041-0.752-1.484c-0.905,0.29-2.909-1.684-2.909-1.684s0.562-0.807,0.812-1.167 c-0.34-0.345-0.821-0.83-1.174-1.182c-0.354,0.259-3.287-0.703-3.287-0.703s0.287-0.942,0.414-1.359 c-0.434-0.222-1.037-0.537-1.484-0.764C28.148,7.828,15.793,7.858,15.189,7.06z" fill-opacity="0.5"/>
<linearGradient id="_16" gradientUnits="userSpaceOnUse" x1="22" y1="15.36" x2="22" y2="62.76">
<stop stop-color="#FFFFFF" offset="0"/>
<stop stop-color="#B2B2B2" offset="1"/>
</linearGradient>
<path d="M23.285,6.036l-2.624,0.002c0,0-0.324-0.931-0.468-1.346c-0.479,0.075-1.156,0.18-1.648,0.255 c0,0.441,0.006,1.428,0.006,1.428l-2.506,0.82c0,0-0.595-0.789-0.857-1.136c-0.434,0.217-1.044,0.528-1.488,0.747 c0.136,0.421,0.443,1.359,0.443,1.359l-2.127,1.55c0,0-0.81-0.562-1.167-0.813c-0.347,0.343-0.832,0.825-1.182,1.173 c0.259,0.356,0.841,1.156,0.841,1.156l-1.543,2.128c0,0-0.945-0.288-1.363-0.411c-0.221,0.43-0.536,1.04-0.763,1.482 c0.357,0.26,1.158,0.84,1.158,0.84l-0.811,2.502c0,0-0.986,0.02-1.42,0.027c-0.08,0.482-0.19,1.153-0.268,1.646 c0.42,0.138,1.36,0.442,1.36,0.442l0.003,2.626c0,0-0.935,0.322-1.347,0.467c0.075,0.48,0.177,1.154,0.257,1.645 c0.439,0,1.427-0.003,1.427-0.003l0.817,2.506c0,0-0.787,0.597-1.136,0.856c0.218,0.437,0.529,1.045,0.749,1.488 c0.42-0.135,1.36-0.443,1.36-0.443l1.549,2.13c0,0-0.564,0.808-0.812,1.163c0.341,0.347,0.823,0.834,1.173,1.185 c0.355-0.257,1.151-0.841,1.151-0.841l2.132,1.542c0,0-0.285,0.946-0.413,1.36c0.431,0.224,1.04,0.537,1.481,0.768 c0.259-0.359,0.838-1.158,0.838-1.158l2.505,0.809c0,0,0.019,0.988,0.026,1.425c0.48,0.077,1.156,0.185,1.646,0.267 c0.135-0.418,0.437-1.355,0.437-1.355l2.637-0.008c0,0,0.32,0.933,0.465,1.347c0.48-0.078,1.152-0.181,1.645-0.259 c0-0.438-0.004-1.424-0.004-1.424l2.506-0.819c0,0,0.593,0.786,0.854,1.137c0.436-0.219,1.043-0.526,1.492-0.75 c-0.139-0.42-0.443-1.356-0.443-1.356l2.129-1.551c0,0,0.803,0.563,1.162,0.813c0.346-0.34,0.832-0.824,1.187-1.174 c-0.263-0.356-0.845-1.154-0.845-1.154l1.543-2.128c0,0,0.943,0.284,1.359,0.411c0.225-0.434,0.537-1.039,0.768-1.483 c-0.356-0.258-1.15-0.839-1.15-0.839l0.807-2.503c0,0,0.981-0.021,1.422-0.03c0.078-0.48,0.188-1.152,0.266-1.645 c-0.418-0.135-1.355-0.44-1.355-0.44l-0.004-2.634c0,0,0.93-0.322,1.344-0.465c-0.075-0.477-0.181-1.151-0.26-1.644 c-0.438,0.003-1.427,0.003-1.427,0.003L35.98,15.22c0,0,0.789-0.593,1.138-0.86c-0.22-0.432-0.526-1.041-0.752-1.484 c-0.417,0.134-1.354,0.441-1.354,0.441l-1.555-2.125c0,0,0.563-0.807,0.813-1.167c-0.34-0.345-0.822-0.83-1.174-1.182 c-0.354,0.259-1.152,0.843-1.152,0.843L29.809,8.14c0,0,0.287-0.942,0.414-1.359c-0.434-0.222-1.037-0.537-1.484-0.764 C28.479,6.373,27.9,7.172,27.9,7.172l-2.502-0.81c0,0-0.021-0.984-0.029-1.42c-0.48-0.079-1.15-0.189-1.643-0.267 C23.592,5.096,23.285,6.036,23.285,6.036z" fill="url(#_16)"/>
<linearGradient id="_17" gradientUnits="userSpaceOnUse" x1="21.99" y1="18.57" x2="21.99" y2="49.38">
<stop stop-color="#3687FF" offset="0"/>
<stop stop-color="#051F7D" offset="1"/>
</linearGradient>
<path d="M35.052,21.189c0,7.217-5.846,13.065-13.058,13.065c-7.211,0-13.057-5.848-13.057-13.065 c0-7.212,5.845-13.06,13.057-13.06S35.052,13.977,35.052,21.189z" fill="url(#_17)"/>
<path d="M21.568,12.1c-0.026-0.026-3.236-3.237-3.236-3.237c-4.679,6.118-9.378,6.849-9.377,12.66 c0.008,0.332,0.017,0.663,0.05,0.989c0,0.004,0,0.01,0.001,0.014c0.013,0.131,0.042,0.258,0.059,0.388 c1.299,1.301,2.894,2.896,3.572,3.571c-0.479,0.984-0.058,1.693,0.325,2.068c0.601,0.605,1.275,1.281,1.579,1.582v1.771 c1.593,1.111,3.445,1.867,5.448,2.177v-0.231c0.965-0.272,1.705-1.166,1.737-2.207v-4.348c-0.071-1.163-1.062-2.213-2.284-2.289 l-5.227-0.229l-1.037-1.041c0.119-0.25,0.439-1.221-0.319-2.047C12.399,21.236,12,20.822,12,20.82 c-0.491-0.53,0.003-1.566,0.96-0.977l0.709,0.709v1.516c-0.07,0.927,1.751,1.405,1.96,0v-1.577c0,0,1.287-1.904,1.491-2.23 c2.821,0.211,3.178-2.461,2.623-3.242C22.152,15.511,22.541,13.045,21.568,12.1z M35.002,20.214 c-0.068-0.718-0.201-1.445-0.404-2.179c0,0-3.025,2.699-5.658,1.744c0.625-0.438,0.621-1.15,0.625-1.198c0,0-0.018-1.458,0-1.738 c0.02-0.277,0.027-0.315,0.324-0.329h2.172c0.018,0.044,0.412,0.937,1.313,0.876h1.045c-1.382-4.302-4.934-7.615-9.363-8.684 l-1.81,1.813v3.072c0,0,0.915,0.934,1.112,1.043c-0.031,0.031-0.828,0.59-0.108,1.694c0.249,0.256,0.739,0.743,0.739,0.743v1.511 c-0.021,0.631,0.496,1.422,1.416,1.422h0.832c-0.787,0.369-1.348,1.163-1.379,2.066v2.612c0.324,2.448,2.615,2.291,2.615,2.291 v1.192c0.039,1.022,0.827,1.295,0.868,1.31v2.514c3.446-2.352,5.71-6.309,5.71-10.798C35.052,20.86,35.025,20.537,35.002,20.214z " fill-opacity="0.2"/>
<linearGradient id="_18" gradientUnits="userSpaceOnUse" x1="22" y1="22.82" x2="22" y2="47.93">
<stop stop-color="#79CD19" offset="0"/>
<stop stop-color="#1B6332" offset="1"/>
</linearGradient>
<path d="M28.146,18.521c0.869,0,0.869-0.871,0.869-0.871v-1.737c0,0,0.01-0.877,0.875-0.877h2.61 c0,0,0,0.872,0.871,0.872h0.556c-1.621-3.659-4.876-6.428-8.839-7.392l-1.297,1.298v2.611l0.705,0.708 c0.901,0.575,1.293-0.562,0.868-0.874l-0.256-0.255c-0.629-0.708,0.392-1.422,0.861-0.884c0.434,0.436,0.869,0.872,0.869,0.872 s-1.775,1.775-2.178,2.176c-0.402,0.404,0,0.872,0,0.872l0.871,0.874c0,0,0,0.867,0,1.737c0,0.871,0.869,0.871,0.869,0.871 S27.275,18.521,28.146,18.521z M34.553,17.65h-2.051l-1.742,1.745c0,0-1.742,0-2.613,0s-1.74,0.87-1.74,1.74v2.615 c0,0.828,0.931,1.741,1.74,1.741c0,0.009,0.871,0,0.871,0s0,0.87,0,1.739c0,0.873,0.871,0.873,0.871,0.873v3.477 c3.133-2.389,5.163-6.146,5.163-10.392C35.052,19.962,34.871,18.777,34.553,17.65z M18.296,8.669 c-5.375,1.585-9.306,6.535-9.354,12.412c1.724,1.729,4.403,4.411,4.403,4.411s-0.87,0.869,0,1.74 c0.808,0.812,1.739,1.742,1.739,1.742v3.283c1.316,0.83,2.781,1.43,4.356,1.743V32.46c0.868,0,1.74-0.87,1.74-1.744v-4.354 c0-0.771-0.92-1.74-1.74-1.74h-1.745c0,0-0.337-0.34-0.871-0.87c-0.527-0.53-1.235-0.504-1.741,0l-0.869,0.87l-1.74-1.741 c0.431-0.433,0.462-1.263,0-1.729c-0.469-0.463-0.872-0.886-0.872-0.886c-0.933-0.888,0.109-2.873,1.742-1.744l0.87,0.874v1.74 c0,0.434,0.869,0.434,0.869,0v-1.74l1.741-2.615c0,0,0,0,0.871,0c2.111-0.229,2.484-3.104,0-3.484c-0.81,0-0.434,0-0.871,0 c-0.433,0-0.433-0.871,0-0.871c0.437,0,1.745,0,1.745,0s-0.004-0.004,0.871,0.871c1.556,1.127,2.627-0.795,1.74-1.742 C21.143,11.52,19.492,9.864,18.296,8.669z" fill="url(#_18)"/>
<path d="M21.994,8.129c-7.211,0-13.057,5.848-13.057,13.06c0,2.137,0.521,4.151,1.43,5.927 l23.648-11.032C32.025,11.409,27.396,8.129,21.994,8.129z" fill="#FFFFFF" fill-opacity="0.15"/>
</svg>