<?xml version="1.0" encoding="UTF-8"?>
<!DOCTYPE svg PUBLIC "-//W3C//DTD SVG 1.1 Tiny//EN" "http://www.w3.org/Graphics/SVG/1.1/DTD/svg11-tiny.dtd">
<svg width="60" height="52" viewBox="-0.557 -0.249 60 52">
<path d="M51.184,5.75H7.702c-1.245,0-2.259,1.014-2.259,2.259V43.49c0,1.246,1.014,2.26,2.259,2.26h43.481 c1.246,0,2.26-1.014,2.26-2.26V8.009C53.443,6.764,52.43,5.75,51.184,5.75z M52.443,43.49c0,0.694-0.565,1.26-1.26,1.26H7.702 c-0.694,0-1.259-0.565-1.259-1.26V8.009c0-0.694,0.564-1.259,1.259-1.259h43.481c0.694,0,1.26,0.564,1.26,1.259V43.49z" fill="#BACACC"/>
<g fill-opacity="0.5" stroke-opacity="0.5">
<linearGradient id="_2" gradientUnits="userSpaceOnUse" x1="29.44" y1="50.29" x2="29.44" y2="5.17">
<stop stop-color="#C7D9D9" offset="0.26"/>
<stop stop-color="#FFFFFF" offset="0.72"/>
</linearGradient>
<path d="M51.184,6.75H7.702c-0.694,0-1.259,0.564-1.259,1.259V43.49c0,0.694,0.564,1.26,1.259,1.26 h43.481c0.694,0,1.26-0.565,1.26-1.26V8.009C52.443,7.314,51.878,6.75,51.184,6.75z" fill="url(#_2)"/>
</g>
<path fill-opacity="0.3" d="M51.184,6.75H7.702c-0.694,0-1.259,0.564-1.259,1.259V43.49c0,0.694,0.564,1.26,1.259,1.26h43.481 c0.694,0,1.26-0.565,1.26-1.26V8.009C52.443,7.314,51.878,6.75,51.184,6.75z" fill="#FFFFFF"/>
<path fill-opacity="0.3" d="M29.442,31.541c-1.875-1.873-6.916-6.916-6.916-6.916l-2.666,2.666l9.582,9.584l9.584-9.584 l-2.666-2.666C36.36,24.625,31.317,29.668,29.442,31.541z" fill="#496DA2"/>
<path fill-opacity="0.3" d="M29.442,21.541c-1.875-1.873-6.916-6.916-6.916-6.916l-2.666,2.666l9.582,9.584l9.584-9.584 l-2.666-2.666C36.36,14.625,31.317,19.668,29.442,21.541z" fill="#496DA2"/>
</svg>