<?xml version="1.0" encoding="UTF-8"?>
<!DOCTYPE svg PUBLIC "-//W3C//DTD SVG 1.1 Tiny//EN" "http://www.w3.org/Graphics/SVG/1.1/DTD/svg11-tiny.dtd">
<svg width="84" height="58" viewBox="-0.501 -0.146 84 58">
<linearGradient id="_14" gradientUnits="userSpaceOnUse" x1="43.21" y1="27.99" x2="52.41" y2="46.11">
<stop stop-color="#A2C2DD" offset="0.1"/>
<stop stop-color="#6C83BB" offset="0.71"/>
<stop stop-color="#003D6D" offset="0.99"/>
</linearGradient>
<path fill="url(#_14)" d="M41.394,5.986c0,0,0.061,11.5,0.064,12.319c-0.567-0.128-1.933-0.438-1.933-0.438L11.5,23.143 l1.353,24.593l4.54,3.015c0,0,8.401-2.697,8.672-2.784c0.251,0.132,8.257,4.315,8.257,4.315s-1.533-5.961-1.684-6.549 c0.616-0.18,11.905-3.457,11.905-3.457s0.061-11.293,0.065-12.151c0.78,0.228,8.235,2.393,8.814,2.561 c-0.151,0.589-1.686,6.55-1.686,6.55s8.008-4.184,8.259-4.315c0.271,0.087,8.675,2.8,8.675,2.8l4.888-3.047l0.956-24.577 L46.537,4.822L41.394,5.986z"/>
<linearGradient id="_15" gradientUnits="userSpaceOnUse" x1="14.48" y1="19.17" x2="14.86" y2="56.95">
<stop stop-color="#FFFFFF" offset="0"/>
<stop stop-color="#A2C2DD" offset="0.35"/>
<stop stop-color="#6C83BB" offset="0.7"/>
<stop stop-color="#003D6D" offset="1"/>
</linearGradient>
<polygon fill="url(#_15)" points="17.446,50.365 13.192,47.541 11.866,23.43 16.573,24.736 "/>
<linearGradient id="_16" gradientUnits="userSpaceOnUse" x1="43.05" y1="9.3" x2="23.27" y2="46.9">
<stop stop-color="#FFFFFF" offset="0.05"/>
<stop stop-color="#A2C2DD" offset="1"/>
</linearGradient>
<polygon fill="url(#_16)" points="32.214,45.49 44.194,42.012 44.315,19.313 16.573,24.736 17.446,50.365 26.097,47.588 33.786,51.607 "/>
<linearGradient id="_17" gradientUnits="userSpaceOnUse" x1="5.2" y1="25.84" x2="49.37" y2="17.26">
<stop stop-color="#FFFFFF" offset="0.05"/>
<stop stop-color="#A2C2DD" offset="1"/>
</linearGradient>
<polygon fill="url(#_17)" points="11.866,23.43 39.519,18.225 44.315,19.313 16.573,24.736 "/>
<linearGradient id="_18" gradientUnits="userSpaceOnUse" x1="13.28" y1="32.89" x2="49.5" y2="23.36">
<stop stop-color="#E6EEF4" offset="0"/>
<stop stop-color="#337CE5" offset="0.44"/>
<stop stop-color="#003D6D" offset="0.94"/>
</linearGradient>
<polygon fill="url(#_18)" points="41.146,25.482 41.173,26.641 18.565,32.053 18.841,30.34 "/>
<polygon fill="url(#_18)" points="41.019,30.719 41.091,31.875 18.694,38.105 18.905,36.385 "/>
<linearGradient id="_20" gradientUnits="userSpaceOnUse" x1="25.52" y1="18.49" x2="72.55" y2="27.07">
<stop stop-color="#DCE8E4" offset="0"/>
<stop stop-color="#43910A" offset="1"/>
</linearGradient>
<polygon fill="url(#_20)" points="53.847,32.443 41.864,28.963 41.745,6.266 69.485,11.689 68.624,37.336 59.964,34.541 52.272,38.561 "/>
<linearGradient id="_21" gradientUnits="userSpaceOnUse" x1="43.83" y1="6.46" x2="84.82" y2="12.17">
<stop stop-color="#DCE8E4" offset="0"/>
<stop stop-color="#43910A" offset="1"/>
</linearGradient>
<polygon fill="url(#_21)" points="74.153,10.383 46.544,5.18 41.745,6.266 69.485,11.689 "/>
<linearGradient id="_22" gradientUnits="userSpaceOnUse" x1="78.82" y1="22.06" x2="46.25" y2="12.58">
<stop stop-color="#E6EEF4" offset="0"/>
<stop stop-color="#4A9900" offset="0.44"/>
<stop stop-color="#0E4E58" offset="0.94"/>
</linearGradient>
<polygon fill="url(#_22)" points="44.913,12.436 44.886,13.594 67.187,18.893 67.108,17.244 "/>
<linearGradient id="_23" gradientUnits="userSpaceOnUse" x1="78.93" y1="27.73" x2="46.26" y2="18.23">
<stop stop-color="#E6EEF4" offset="0"/>
<stop stop-color="#4A9900" offset="0.44"/>
<stop stop-color="#0E4E58" offset="0.94"/>
</linearGradient>
<polygon fill="url(#_23)" points="45.04,17.67 44.968,18.828 67.136,24.977 67.091,23.32 "/>
<linearGradient id="_24" gradientUnits="userSpaceOnUse" x1="70.74" y1="1.02" x2="72.07" y2="47.52">
<stop stop-color="#E6EEF4" offset="0"/>
<stop stop-color="#4A9900" offset="0.44"/>
<stop stop-color="#0E4E58" offset="0.94"/>
</linearGradient>
<polyline fill="url(#_24)" points="68.624,37.336 73.216,34.473 74.153,10.383 69.485,11.689 "/>
<linearGradient id="_25" gradientUnits="userSpaceOnUse" x1="18.08" y1="17.87" x2="9.47" y2="17.87">
<stop stop-color="#E6EEF4" offset="0"/>
<stop stop-color="#4A9900" offset="0.44"/>
<stop stop-color="#0E4E58" offset="0.94"/>
</linearGradient>
<rect x="14.697" y="14.857" fill="url(#_25)" width="3.117" height="6.035"/>
<linearGradient id="_26" gradientUnits="userSpaceOnUse" x1="11.2" y1="20.27" x2="7.05" y2="25.21">
<stop stop-color="#E6EEF4" offset="0"/>
<stop stop-color="#4A9900" offset="0.44"/>
<stop stop-color="#0E4E58" offset="0.94"/>
</linearGradient>
<polygon fill="url(#_26)" points="13.394,22.055 11.654,24.645 6.646,21.28 8.385,18.692 "/>
</svg>