<?xml version="1.0" encoding="UTF-8"?>
<!DOCTYPE svg PUBLIC "-//W3C//DTD SVG 1.1 Tiny//EN" "http://www.w3.org/Graphics/SVG/1.1/DTD/svg11-tiny.dtd">
<svg baseProfile="tiny" height="60" version="1.1" viewBox="0 0 60 60" width="60" xmlns="http://www.w3.org/2000/svg" xmlns:xlink="http://www.w3.org/1999/xlink">
<path d="M36.243,23.228c6.604,6.604,0.229,14.258-0.043,14.581l2.875,2.451c3.112-3.654,7.079-12.47-0.16-19.706L36.243,23.228z"/>
<path d="M46.387,12.619l-2.671,2.672c13.81,13.808,0.571,29.779,0.009,30.447l2.879,2.457  C46.764,48.003,62.673,28.912,46.387,12.619"/>
<path d="M20.116,12.354l-6.065,9.739H6.573v16.436h7.647l6.034,10.029h10.455V12.433L20.116,12.354z M16.356,34.743h-6.002v-8.867  h5.805l6.046-9.728l4.726,0.034v28.591h-4.543L16.356,34.743z"/>
<rect fill="none" height="60" width="60"/>
</svg>
