<?xml version="1.0" encoding="UTF-8"?>
<!DOCTYPE svg PUBLIC "-//W3C//DTD SVG 1.1 Tiny//EN" "http://www.w3.org/Graphics/SVG/1.1/DTD/svg11-tiny.dtd">
<svg baseProfile="tiny" height="69px" version="1.1" viewBox="0.004 0.086 100 69" width="100px" x="0px" xmlns="http://www.w3.org/2000/svg" xmlns:xlink="http://www.w3.org/1999/xlink" y="0px">
<rect fill="none" height="69.047" width="100"/>
<linearGradient gradientUnits="userSpaceOnUse" id="SVGID_1_" x1="39.4219" x2="58.0518" y1="11.7793" y2="60.0195">
<stop offset="0" style="stop-color:#AABBD7"/>
<stop offset="0.2634" style="stop-color:#92A5CC"/>
<stop offset="0.7135" style="stop-color:#6C83BB"/>
<stop offset="0.7446" style="stop-color:#637DB5"/>
<stop offset="0.7945" style="stop-color:#4C6EA4"/>
<stop offset="0.8563" style="stop-color:#265689"/>
<stop offset="0.9101" style="stop-color:#003D6D"/>
<stop offset="1" style="stop-color:#003D6D"/>
</linearGradient>
<path d="M35.258,13.348L35.258,13.348c0.089,0.055,0.218,0.127,0.395,0.215l0,0  c0.48,0.243,1.327,0.61,2.745,1.082l0,0c1.019,0.341,1.727,0.461,2.221,0.461l0,0c0.543-0.004,0.828-0.129,1.096-0.304l0,0  l0.497,0.075c0.939,1.147,2.085,3.131,2.085,5.935l0,0c0,1.663-0.403,3.604-1.47,5.817l0,0c-4.134,8.503-7.444,7.777-7.571,15.205  l0,0c-0.111,5.227-1.824,6.232-2.3,6.357l0,0c-0.166,0.033-0.473,0.064-0.862,0.064l0,0c-0.259,0-0.542-0.016-0.817-0.063l0,0  c-0.268-0.029-1.007-0.132-1.461-0.98l0,0c-0.47-0.832-0.808-2.301-0.866-5.188l0,0c-0.127-7.429-3.438-6.702-7.571-15.208l0,0  c-1.068-2.209-1.472-4.154-1.472-5.816l0,0c0-2.93,1.25-4.965,2.212-6.085l0,0L22.6,14.84c0.248,0.152,0.526,0.262,1.033,0.264l0,0  c0.494,0,1.2-0.121,2.219-0.459l0,0c1.939-0.645,2.809-1.094,3.14-1.295l0,0c-0.048-0.26-0.103-0.703-0.103-1.382l0,0  c0-0.05-0.002-0.111,0-0.165l0,0c0.008-0.717,0.07-1.189,0.126-1.475l0,0c-0.484-0.208-1.521-0.63-2.604-0.924l0,0  c-1.522-0.417-2.896-0.615-3.43-0.619l0,0c-0.013,0.002-0.02,0-0.022,0l0,0l0,0l0,0c-0.002,0-0.004,0-0.005,0l0,0V8.783  l-0.009,0.002c-0.438-0.002-0.955,0.25-1.305,0.506l0,0l0.004,0.002c-0.011,0.023-0.026,0.07-0.04,0.132l0,0  c-0.032,0.124-0.051,0.306-0.062,0.499l0,0l-0.177,0.299c-0.404,0.25-5.037,3.25-5.028,9.425l0,0c0,1.248,0.187,2.63,0.641,4.154  l0,0c2.557,8.712,8.045,14.479,8.244,17.247l0,0c0.005,0.106,0.005,0.221,0.005,0.34l0,0c0,0.665-0.055,1.582-0.053,2.609l0,0  c-0.004,1.695,0.147,3.68,0.869,5.184l0,0c0.733,1.5,1.929,2.541,4.279,2.558l0,0c0.024,0,0.047,0,0.07,0.002l0,0l0.354,0.391  c-0.009,0.199-0.016,0.422-0.018,0.687l0,0c0.007,1.505,0.192,3.984,1.468,6.244l0,0c1.218,2.224,3.728,4.139,7.663,4.143l0,0  c0.046,0,0.089,0,0.135,0l0,0c2.368-0.002,5.247-0.607,8.815-2.033l0,0c3.87-1.547,6.09-4.407,7.668-6.689l0,0  c0.764-1.09,2.07-4.313,2.439-7.501l0,0c0.113-0.948,0.154-1.946,0.154-2.893l0,0c0.002-2.054-0.209-3.88-0.309-4.309l0,0  c-0.172-0.746-2.949-12.553-2.959-15.069l0,0c0-0.001-0.002-0.013,0-0.037l0,0c-0.002-0.006-0.002-0.012-0.002-0.02l0,0  c0.002-0.767,0.127-1.326,0.383-1.735l0,0c0.176-0.286,0.455-0.569,0.908-0.784l0,0l0.486,0.143  c1.105,1.833,2.965,3.072,4.795,3.064l0,0c1.174,0.014,3.15-0.604,3.975-1.361l0,0c0.051-0.041,0.105-0.117,0.264-0.287l0,0  c1.539-1.107,2.596-3.139,2.596-5.478l0,0c-0.002-3.577-2.441-6.386-5.334-6.394l0,0v-0.377v-0.373  c3.412,0.011,6.078,3.244,6.084,7.144l0,0c-0.002,2.565-1.152,4.819-2.844,6.026l0,0c-0.059,0.065-0.133,0.179-0.266,0.299l0,0  c-1.082,0.941-3.078,1.539-4.475,1.553l0,0c-2.057-0.008-4.002-1.274-5.238-3.117l0,0c-0.15,0.107-0.232,0.213-0.318,0.342l0,0  c-0.143,0.225-0.264,0.651-0.264,1.336l0,0h-0.01l0.002,0.057h0.008c0,0,0.002,0,0,0.012l0,0  c-0.002,2.275,2.771,14.194,2.939,14.888l0,0c0.123,0.556,0.324,2.362,0.326,4.479l0,0c0,0.966-0.041,1.994-0.156,2.981l0,0  c-0.402,3.335-1.697,6.568-2.568,7.838l0,0c-1.598,2.311-3.924,5.33-8.006,6.961l0,0c-3.63,1.447-6.598,2.082-9.086,2.085l0,0  c-0.05,0.003-0.098,0.003-0.144,0.003l0,0c-4.19,0.004-6.989-2.084-8.321-4.531l0,0c-1.368-2.435-1.55-5.041-1.559-6.604l0,0  c0-0.121,0.002-0.233,0.004-0.339l0,0c-2.396-0.095-3.859-1.352-4.619-2.979l0,0c-0.803-1.694-0.938-3.768-0.941-5.506l0,0  c0-1.051,0.055-1.982,0.055-2.609l0,0c0-0.115-0.002-0.22-0.005-0.311l0,0c-0.011-2.09-5.604-8.276-8.217-17.063l0,0  c-0.472-1.592-0.67-3.045-0.67-4.368l0,0c0.009-6.142,4.256-9.315,5.227-9.96l0,0c0.031-0.367,0.052-0.699,0.373-0.994l0,0  c0.418-0.3,1.018-0.633,1.7-0.656l0,0c0.031-0.006,0.045-0.004,0.054-0.004l0,0c0.005,0,0.009,0.003,0.014,0l0,0  c0.648,0.003,2.044,0.211,3.655,0.647l0,0c1.559,0.427,2.992,1.087,3.004,1.091l0,0l0.192,0.475c0.005,0.002-0.027,0.065-0.07,0.313  l0,0c-0.043,0.248-0.089,0.651-0.096,1.266l0,0c-0.002,0.037-0.002,0.084-0.002,0.144l0,0c0,0.538,0.036,0.905,0.072,1.132l0,0  c0.034,0.227,0.06,0.289,0.06,0.289l0,0l-0.1,0.4c-0.073,0.063-0.694,0.602-3.583,1.568l0,0c-1.063,0.352-1.84,0.494-2.454,0.496  l0,0c-0.461,0.002-0.833-0.086-1.137-0.221l0,0c-0.849,1.068-1.84,2.85-1.84,5.367l0,0c0,1.543,0.372,3.367,1.397,5.492l0,0  c3.932,8.211,7.476,7.705,7.643,15.516l0,0c0.053,2.834,0.411,4.216,0.77,4.833l0,0c0.372,0.597,0.585,0.538,0.938,0.614l0,0  c0.215,0.037,0.462,0.053,0.689,0.053l0,0c0.318,0,0.612-0.033,0.694-0.047l0,0c0.007-0.006,0.022-0.012,0.043-0.021l0,0  c0.041-0.024,0.104-0.063,0.179-0.129l0,0c0.152-0.129,0.358-0.356,0.572-0.746l0,0c0.427-0.776,0.876-2.205,0.926-4.744l0,0  c0.168-7.812,3.709-7.308,7.644-15.516l0,0c1.025-2.127,1.395-3.953,1.395-5.493l0,0c0-2.4-0.901-4.128-1.72-5.21l0,0  c-0.314,0.15-0.709,0.256-1.207,0.252l0,0c-0.614,0-1.393-0.143-2.457-0.496l0,0c-2.888-0.967-3.51-1.506-3.58-1.568l0,0l-0.102-0.4  c-0.014-0.005,0.132-0.344,0.132-1.421l0,0c-0.003-0.054-0.003-0.106,0-0.159l0,0c-0.007-0.599-0.055-1.002-0.098-1.25l0,0  c-0.043-0.247-0.07-0.313-0.07-0.313l0,0l0.192-0.475c0.012-0.004,1.445-0.664,3.004-1.091l0,0c1.608-0.438,3.002-0.642,3.655-0.647  l0,0c0.002,0,0.022,0,0.014,0.003l0,0c0.703,0.007,1.324,0.349,1.753,0.657l0,0c0.282,0.252,0.32,0.525,0.355,0.824l0,0  c1.017,0.683,5.188,3.855,5.194,9.939l0,0c0,1.322-0.197,2.779-0.667,4.367l0,0c-2.611,8.789-8.204,14.977-8.215,17.074l0,0  c-0.01,0.109-0.012,0.236-0.012,0.379l0,0c0,0.529,0.027,1.26,0.027,2.088l0,0c0,0.34-0.002,0.696-0.014,1.057l0,0  c-0.005,1.632-0.184,3.444-0.962,4.895l0,0c-0.808,1.778-2.398,3.169-5.063,3.15l0,0c-0.057,0-0.114,0-0.134-0.002l0,0  c-0.007,0.001-0.014,0.002-0.021,0.002l0,0c-0.004,0.114-0.006,0.246-0.007,0.4l0,0c0,0,0,0,0,0.029l0,0  c-0.005,1.236,0.227,3.273,1.091,4.762l0,0c0.939,1.529,2.146,2.655,5.32,2.73l0,0c0.015-0.001,0.027-0.001,0.036-0.001l0,0  c0.006,0,0.01,0,0.014,0l0,0c1.876,0.002,4.429-0.497,7.759-1.829l0,0c3.513-1.408,5.199-3.943,6.398-5.676l0,0  c0.521-0.749,1.67-3.306,1.965-5.98l0,0c0.115-1.046,0.164-2.049,0.164-2.977l0,0c0-1.704-0.162-3.16-0.348-4.164l0,0  c-0.287-1.569-2.906-11.867-2.951-15.098l0,0c0-1.06,0.168-2.178,0.779-3.197l0,0c0.477-0.799,1.217-1.422,2.098-1.854l0,0  c-0.041-0.301-0.066-0.607-0.066-0.921l0,0c-0.012-3.894,2.385-6.646,5.754-7.355l0,0c0.451-0.095,0.99-0.177,1.504-0.194l0,0  c0.258-0.041,0.531-0.07,0.814-0.07l0,0v0.373v0.377c-0.23,0-0.463,0.023-0.742,0.066l0,0c-0.502,0.018-1.004,0.093-1.42,0.182l0,0  c-3.053,0.666-5.148,3.039-5.158,6.622l0,0c0,0.363,0.035,0.722,0.096,1.082l0,0l-0.219,0.406c-0.883,0.384-1.59,0.955-2.018,1.673  l0,0c-0.516,0.859-0.672,1.826-0.674,2.806l0,0c0.031,3.007,2.637,13.356,2.941,14.968l0,0c0.193,1.052,0.357,2.547,0.357,4.299l0,0  c0,0.955-0.047,1.982-0.168,3.061l0,0c-0.324,2.838-1.471,5.41-2.092,6.32l0,0c-1.193,1.727-3.002,4.453-6.736,5.949l0,0  c-3.394,1.356-6.03,1.883-8.038,1.883l0,0h-0.018l0,0c-3.389-0.023-5.006-1.404-5.999-3.1l0,0c-0.974-1.697-1.191-3.822-1.195-5.143  l0,0c0-0.016-0.003-0.055,0.002-0.075l0,0c0-0.3,0.012-0.542,0.022-0.733l0,0l0.354-0.349c0.136-0.007,0.258-0.014,0.376-0.022l0,0  c0.053,0.002,0.104,0.002,0.157,0.002l0,0c2.402-0.016,3.625-1.13,4.395-2.738l0,0c0.689-1.275,0.88-2.983,0.882-4.572l0,0  c0.012-0.357,0.014-0.707,0.014-1.043l0,0c0-0.813-0.027-1.533-0.027-2.088l0,0c0-0.156,0.003-0.299,0.012-0.419l0,0  c0.197-2.766,5.688-8.535,8.245-17.247l0,0c0.449-1.522,0.635-2.906,0.635-4.154l0,0c0.009-6.047-4.429-9.045-4.993-9.404l0,0  L42.694,9.77c-0.018-0.233-0.066-0.438-0.094-0.484l0,0c-0.341-0.247-0.836-0.49-1.306-0.502l0,0v0.002  c-0.516-0.002-1.91,0.195-3.458,0.619l0,0c-1.081,0.294-2.118,0.715-2.603,0.922l0,0c0.056,0.286,0.117,0.761,0.125,1.48l0,0  c0,0.055,0,0.109,0,0.161l0,0 M42.6,9.283h0.002c0-0.001,0-0.001,0-0.001l0,0C42.602,9.282,42.601,9.283,42.6,9.283L42.6,9.283z" fill="url(#SVGID_1_)"/>
<linearGradient gradientUnits="userSpaceOnUse" id="SVGID_2_" x1="32.1055" x2="32.1055" y1="6.2715" y2="74.1197">
<stop offset="0" style="stop-color:#FFFFFF"/>
<stop offset="0.35" style="stop-color:#A2C2DD"/>
<stop offset="0.7" style="stop-color:#6C83BB"/>
<stop offset="1" style="stop-color:#003D6D"/>
</linearGradient>
<path d="M47.589,23.756c2.856-9.664-4.587-14.025-4.587-14.025l-2.234,4.271c0,0,5.759,4.145,1.725,12.502  c-4.034,8.355-7.46,7.74-7.607,15.361c-0.1,5.156-1.818,5.957-2.006,5.996c-0.187,0.041-0.914,0.107-1.535,0  c-0.62-0.107-1.907-0.086-2.018-5.809c-0.147-7.619-3.574-7.004-7.607-15.361c-4.034-8.355,1.725-12.5,1.725-12.5L21.209,9.92  c0,0-7.443,4.361-4.588,14.025c2.586,8.75,8.126,14.727,8.231,17.154c0.104,2.43-1.277,11.203,5.638,11.059  c0.785,0.063,2.482,0.018,3.056-0.029c6.916,0.145,5.707-8.789,5.813-11.219C39.463,38.482,45.004,32.506,47.589,23.756z" fill="url(#SVGID_2_)"/>
<path d="M30.487,51.758c-6.916,0.145-5.26-8.232-5.364-10.662c-0.105-2.428-5.646-8.404-8.231-17.154  c-2.855-9.664,4.588-14.025,4.588-14.025l0.556,1.582c0,0-6.603,6.867-2.568,15.225s6.396,7.852,6.543,15.471  c0.11,5.723,0.061,6.355,1.005,7.678C27.958,51.191,30.487,51.758,30.487,51.758z" fill="#FFFFFF" fill-opacity="0.4" stroke-opacity="0.4"/>
<path d="M33.894,51.561c6.916,0.145,5.26-8.232,5.365-10.66c0.104-2.43,5.645-8.406,8.23-17.156  c2.855-9.664-4.587-14.025-4.587-14.025l-0.557,1.582c0,0,6.603,6.869,2.568,15.227c-4.033,8.355-6.396,7.85-6.543,15.469  c-0.11,5.723-0.061,6.357-1.004,7.678C36.423,50.996,33.894,51.561,33.894,51.561z" fill="#FFFFFF" fill-opacity="0.4" stroke-opacity="0.4"/>
<linearGradient gradientUnits="userSpaceOnUse" id="SVGID_3_" x1="65.6362" x2="56.0436" y1="13.2695" y2="29.7689">
<stop offset="0" style="stop-color:#E6EEF4"/>
<stop offset="0.1492" style="stop-color:#9EC8D1"/>
<stop offset="0.2883" style="stop-color:#62A9B3"/>
<stop offset="0.3901" style="stop-color:#3D95A1"/>
<stop offset="0.4438" style="stop-color:#2F8E9A"/>
<stop offset="0.5242" style="stop-color:#247C90"/>
<stop offset="0.699" style="stop-color:#115A7D"/>
<stop offset="0.8433" style="stop-color:#044571"/>
<stop offset="0.9382" style="stop-color:#003D6D"/>
<stop offset="1" style="stop-color:#003D6D"/>
</linearGradient>
<path d="M65.245,12.004c1.615,1.195,2.355,4.303,2.355,6.727c0,2.215,0.393,4.334-0.996,5.568  c-0.953,0.85-2.939,1.455-4.225,1.455c-3.152,0-6.197-3.285-6.197-7.023s2.244-6.301,5.457-6.988  C62.723,11.51,64.368,11.355,65.245,12.004z" fill="url(#SVGID_3_)"/>
<radialGradient cx="-53.3516" cy="7.647" gradientTransform="matrix(0.8305 0 0 1 104.7509 0)" gradientUnits="userSpaceOnUse" id="SVGID_4_" r="28.321">
<stop offset="0" style="stop-color:#D6E6EC"/>
<stop offset="1" style="stop-color:#298595"/>
</radialGradient>
<ellipse cx="63.879" cy="18.254" fill="url(#SVGID_4_)" rx="5.709" ry="6.768"/>
<radialGradient cx="-48.6494" cy="22.291" gradientTransform="matrix(0.8305 0 0 1 104.7509 0)" gradientUnits="userSpaceOnUse" id="SVGID_5_" r="10.3017">
<stop offset="0" style="stop-color:#D6E6EC"/>
<stop offset="1" style="stop-color:#298595"/>
</radialGradient>
<ellipse cx="63.82" cy="18.289" fill="url(#SVGID_5_)" rx="4.364" ry="5.254"/>
<linearGradient gradientUnits="userSpaceOnUse" id="SVGID_6_" x1="63.0864" x2="26.7026" y1="49.5332" y2="31.5708">
<stop offset="0" style="stop-color:#FFFFFF"/>
<stop offset="0.35" style="stop-color:#A2C2DD"/>
<stop offset="0.7" style="stop-color:#6C83BB"/>
<stop offset="1" style="stop-color:#003D6D"/>
</linearGradient>
<path d="M31.87,59.279c-1.319-2.346-1.503-4.889-1.511-6.42l0,0c0-0.836,0.066-1.377,0.071-1.422l0,0v0.002  l2.793,0.344c0.001,0-0.01,0.074-0.022,0.262l0,0c-0.013,0.189-0.026,0.469-0.026,0.814l0,0c-0.009,1.271,0.205,3.402,1.144,5.029  l0,0c0.968,1.613,2.383,2.869,5.682,2.912l0,0c1.943,0.002,4.541-0.51,7.909-1.857l0,0c3.623-1.451,5.369-4.08,6.566-5.813l0,0  c0.572-0.828,1.719-3.395,2.029-6.15c0.336-3.006,0.107-5.66-0.188-7.25c-0.297-1.59-2.908-11.914-2.947-15.029l0,0  c0.002-1.023,0.164-2.064,0.729-3.004l0,0c0.561-0.943,1.525-1.656,2.709-2.039l0,0l0.889,2.672  c-0.717,0.248-0.99,0.512-1.189,0.826l0,0c-0.197,0.318-0.322,0.814-0.32,1.545l0,0c-0.039,2.266,2.775,14.307,2.945,15.029  s0.529,4.254,0.164,7.332c-0.387,3.262-1.686,6.49-2.504,7.67l0,0c-1.588,2.297-3.861,5.236-7.837,6.826l0,0  c-3.599,1.436-6.522,2.057-8.954,2.059l0,0c-0.045,0-0.09,0-0.135,0l0,0C35.802,63.617,33.146,61.617,31.87,59.279L31.87,59.279z" fill="url(#SVGID_6_)"/>
<radialGradient cx="28.0469" cy="8.0664" gradientUnits="userSpaceOnUse" id="SVGID_7_" r="8.926">
<stop offset="0" style="stop-color:#E6EEF4"/>
<stop offset="0.0772" style="stop-color:#C6DCC1"/>
<stop offset="0.211" style="stop-color:#91C06F"/>
<stop offset="0.321" style="stop-color:#6BAB33"/>
<stop offset="0.4014" style="stop-color:#539E0E"/>
<stop offset="0.4438" style="stop-color:#4A9900"/>
<stop offset="0.5475" style="stop-color:#398419"/>
<stop offset="0.7125" style="stop-color:#22663B"/>
<stop offset="0.8486" style="stop-color:#135550"/>
<stop offset="0.9382" style="stop-color:#0E4E58"/>
<stop offset="1" style="stop-color:#0E4E58"/>
</radialGradient>
<path d="M21.412,9.035c-0.391,0.285-0.207,2.232-0.207,2.232s-0.058,2.915,0.622,3.484  c0.678,0.57,1.283,1.24,4.146,0.286c2.862-0.954,3.445-1.489,3.445-1.489s-0.166-0.473-0.15-1.706  c0.014-1.233,0.191-1.694,0.191-1.694s-1.425-0.654-2.946-1.068c-1.588-0.433-2.99-0.635-3.566-0.633  C22.373,8.449,21.801,8.75,21.412,9.035z" fill="url(#SVGID_7_)"/>
<radialGradient cx="28.1787" cy="7.7227" gradientUnits="userSpaceOnUse" id="SVGID_8_" r="11.8992">
<stop offset="0" style="stop-color:#E6EEF4"/>
<stop offset="0.0772" style="stop-color:#C6DCC1"/>
<stop offset="0.211" style="stop-color:#91C06F"/>
<stop offset="0.321" style="stop-color:#6BAB33"/>
<stop offset="0.4014" style="stop-color:#539E0E"/>
<stop offset="0.4438" style="stop-color:#4A9900"/>
<stop offset="0.5475" style="stop-color:#398419"/>
<stop offset="0.7125" style="stop-color:#22663B"/>
<stop offset="0.8486" style="stop-color:#135550"/>
<stop offset="0.9382" style="stop-color:#0E4E58"/>
<stop offset="1" style="stop-color:#0E4E58"/>
</radialGradient>
<path d="M21.777,9.453c-0.39,0.285-0.199,2.234-0.199,2.234l7.211,0.155l0.005-1.372  c0,0-0.712-0.502-2.232-0.916c-1.588-0.433-2.992-0.636-3.567-0.633C22.419,8.924,22.165,9.168,21.777,9.453z" fill="url(#SVGID_8_)"/>
<radialGradient cx="2263.2983" cy="8.0664" gradientTransform="matrix(-1 0 0 1 2299.5088 0)" gradientUnits="userSpaceOnUse" id="SVGID_9_" r="8.926">
<stop offset="0" style="stop-color:#E6EEF4"/>
<stop offset="0.0772" style="stop-color:#C6DCC1"/>
<stop offset="0.211" style="stop-color:#91C06F"/>
<stop offset="0.321" style="stop-color:#6BAB33"/>
<stop offset="0.4014" style="stop-color:#539E0E"/>
<stop offset="0.4438" style="stop-color:#4A9900"/>
<stop offset="0.5475" style="stop-color:#398419"/>
<stop offset="0.7125" style="stop-color:#22663B"/>
<stop offset="0.8486" style="stop-color:#135550"/>
<stop offset="0.9382" style="stop-color:#0E4E58"/>
<stop offset="1" style="stop-color:#0E4E58"/>
</radialGradient>
<path d="M42.845,9.035c0.391,0.285,0.207,2.232,0.207,2.232s0.058,2.915-0.622,3.484  c-0.678,0.57-1.283,1.24-4.146,0.286c-2.862-0.954-3.445-1.489-3.445-1.489s0.166-0.473,0.15-1.706  c-0.014-1.233-0.191-1.694-0.191-1.694s1.425-0.654,2.946-1.068c1.588-0.433,2.99-0.635,3.566-0.633  C41.884,8.449,42.456,8.75,42.845,9.035z" fill="url(#SVGID_9_)"/>
<radialGradient cx="2263.4302" cy="7.7227" gradientTransform="matrix(-1 0 0 1 2299.5088 0)" gradientUnits="userSpaceOnUse" id="SVGID_10_" r="11.8992">
<stop offset="0" style="stop-color:#E6EEF4"/>
<stop offset="0.0772" style="stop-color:#C6DCC1"/>
<stop offset="0.211" style="stop-color:#91C06F"/>
<stop offset="0.321" style="stop-color:#6BAB33"/>
<stop offset="0.4014" style="stop-color:#539E0E"/>
<stop offset="0.4438" style="stop-color:#4A9900"/>
<stop offset="0.5475" style="stop-color:#398419"/>
<stop offset="0.7125" style="stop-color:#22663B"/>
<stop offset="0.8486" style="stop-color:#135550"/>
<stop offset="0.9382" style="stop-color:#0E4E58"/>
<stop offset="1" style="stop-color:#0E4E58"/>
</radialGradient>
<path d="M42.479,9.453c0.39,0.285,0.199,2.234,0.199,2.234l-7.211,0.155l-0.005-1.372  c0,0,0.712-0.502,2.232-0.916c1.588-0.433,2.992-0.636,3.567-0.633C41.838,8.924,42.092,9.168,42.479,9.453z" fill="url(#SVGID_10_)"/>
<linearGradient gradientTransform="matrix(1 0 0 1 22.708 -2107.9063)" gradientUnits="userSpaceOnUse" id="SVGID_11_" x1="52.1431" x2="52.1449" y1="2163.9678" y2="2163.9714">
<stop offset="0" style="stop-color:#A2C2DD"/>
<stop offset="0.1" style="stop-color:#A2C2DD"/>
<stop offset="0.7135" style="stop-color:#6C83BB"/>
<stop offset="0.9888" style="stop-color:#003D6D"/>
<stop offset="1" style="stop-color:#003D6D"/>
</linearGradient>
<path d="M74.852,56.066l-0.002-0.01L74.852,56.066z" fill="url(#SVGID_11_)"/>
<radialGradient cx="47.7461" cy="-2457.0503" gradientTransform="matrix(1 0 0 -1 22.7456 -2401.5781)" gradientUnits="userSpaceOnUse" id="SVGID_12_" r="6.2033">
<stop offset="0" style="stop-color:#E6EEF4"/>
<stop offset="0.0644" style="stop-color:#DAD9CB"/>
<stop offset="0.2029" style="stop-color:#C3AE79"/>
<stop offset="0.3167" style="stop-color:#B28F3D"/>
<stop offset="0.3999" style="stop-color:#A77B18"/>
<stop offset="0.4438" style="stop-color:#A3740A"/>
<stop offset="0.5594" style="stop-color:#866408"/>
<stop offset="0.7193" style="stop-color:#645107"/>
<stop offset="0.8514" style="stop-color:#4F4505"/>
<stop offset="0.9382" style="stop-color:#474105"/>
<stop offset="1" style="stop-color:#474105"/>
</radialGradient>
<circle cx="70.881" cy="56.751" fill="url(#SVGID_12_)" r="3.805"/>
<linearGradient gradientUnits="userSpaceOnUse" id="SVGID_13_" x1="72.4731" x2="72.4731" y1="17.8848" y2="56.7219">
<stop offset="0" style="stop-color:#E6EEF4"/>
<stop offset="0.0644" style="stop-color:#DAD9CB"/>
<stop offset="0.2029" style="stop-color:#C3AE79"/>
<stop offset="0.3167" style="stop-color:#B28F3D"/>
<stop offset="0.3999" style="stop-color:#A77B18"/>
<stop offset="0.4438" style="stop-color:#A3740A"/>
<stop offset="0.5594" style="stop-color:#866408"/>
<stop offset="0.7193" style="stop-color:#645107"/>
<stop offset="0.8514" style="stop-color:#4F4505"/>
<stop offset="0.9382" style="stop-color:#474105"/>
<stop offset="1" style="stop-color:#474105"/>
</linearGradient>
<path d="M71.514,49.373c-0.27-3.506-0.66-6.77,1.389-9.197c2.045-2.427,6.096-6.524,3.717-11.92  c-2.377-5.395-8.199-7.39-11.65-5.771c4.746-2.643,12.148-1.286,14.348,4.855c2.104,5.88-1.35,9.332-3.07,11.649  c-1.725,2.32-2.102,4.855-1.941,8.685C74.088,48.105,72.727,49.292,71.514,49.373z" fill="url(#SVGID_13_)"/>
<linearGradient gradientTransform="matrix(1 0 0 1 22.708 -2107.9063)" gradientUnits="userSpaceOnUse" id="SVGID_14_" x1="43.2568" x2="43.2568" y1="2146.127" y2="2137.4883">
<stop offset="0" style="stop-color:#E6EEF4"/>
<stop offset="0.0644" style="stop-color:#DAD9CB"/>
<stop offset="0.2029" style="stop-color:#C3AE79"/>
<stop offset="0.3167" style="stop-color:#B28F3D"/>
<stop offset="0.3999" style="stop-color:#A77B18"/>
<stop offset="0.4438" style="stop-color:#A3740A"/>
<stop offset="0.5594" style="stop-color:#866408"/>
<stop offset="0.7193" style="stop-color:#645107"/>
<stop offset="0.8514" style="stop-color:#4F4505"/>
<stop offset="0.9382" style="stop-color:#474105"/>
<stop offset="1" style="stop-color:#474105"/>
</linearGradient>
<path d="M64.161,31.755c-0.217-3.59,1.365-4.662,3.629-4.686c-1.031,0.416-1.24,1.905-1.412,3.291  C65.891,31.169,65.245,31.601,64.161,31.755" fill="url(#SVGID_14_)"/>
<path d="M64.161,31.755c-0.08-1.662,1.113-4.67,4.076-4.537c3.232,0.144,4.441,3.617,4.328,5.193  c-0.088,1.212-1.066,2.538-2.596,4.414c-2.998,3.674-2.893,7.396-2.631,11.438c1.217,1.022,2.283,1.477,4.361,1.115  c-0.045-2.793-0.258-6.766,1.426-9.146c1.938-2.752,3.545-4.522,3.992-6.365c0.902-3.713-0.559-10.311-7.654-11.776  c-5.203-1.075-9.23,2.658-9.285,8.377C61.036,31.545,62.639,31.9,64.161,31.755z" fill="#B18E3B"/>
</svg>
