<?xml version="1.0" encoding="UTF-8" standalone="no"?>
<!DOCTYPE svg PUBLIC "-//W3C//DTD SVG 1.1 Tiny//EN" "http://www.w3.org/Graphics/SVG/1.1/DTD/svg11-tiny.dtd">
<svg xmlns="http://www.w3.org/2000/svg" xmlns:xlink="http://www.w3.org/1999/xlink" width="84" height="58" viewBox="0 0 84 58">
<rect fill="none" height="58" width="84"/>
<linearGradient id="_26" gradientUnits="userSpaceOnUse" x1="38.44" y1="32.65" x2="50.02" y2="55.46">
<stop stop-color="#A2C2DD" offset="0.1"/>
<stop stop-color="#6C83BB" offset="0.71"/>
<stop stop-color="#003D6D" offset="0.99"/>
</linearGradient>
<path d="M63.917,43.949l-0.007-3.438c0,0-1.557-0.388-1.797-0.446c-0.025-0.172-0.09-0.571-0.12-0.783 c0.235-0.107,1.392-0.652,1.392-0.652l-1.521-3.377l-0.204,0.039c0,0-1.115,0.395-1.371,0.48c-0.114-0.164-0.323-0.471-0.419-0.611 c0.128-0.209,0.979-1.563,0.979-1.563l-0.166-0.136l-0.254-0.192c0.318-1.289,0.49-2.636,0.49-4.021 c0-6.287-3.484-11.76-8.632-14.592c0.831-0.968,1.78-2.082,1.78-2.082s-5.118-0.933-5.586-1.018 c0.074-0.494,1.418-8.854,1.418-8.854l-6.871-0.884l-3.908,1.629c0,0,0.514,6.039,0.584,6.671c-0.484-0.072-1.794-0.269-1.794-0.269 l-2.373,0.733c0,0,1.079,1.74,2.105,3.392c-5.896,2.562-10.02,8.435-10.02,15.273c0,8.272,6.036,15.133,13.942,16.426l1.604,3.206 c0,0,1.404-0.791,1.665-0.938c0.071,0.084,0.171,0.203,0.268,0.316l-0.092,0.256c-0.209,0.514-0.83,1.834-0.881,1.905 c-0.063,0.093-0.263,0.222-0.634,0.317c-0.39,0.101-2.992,0.105-3.666,0.062c-0.622-0.041-1.208-0.082-1.733-0.082 c-0.417,0.002-0.857,0.017-1.305,0.161c-0.27,0.091-0.57,0.212-0.889,0.344c-0.323,0.131-0.654,0.266-1.009,0.393 c-0.801,0.287-1.473,0.433-2.008,0.433c-0.304-0.002-0.57-0.047-0.787-0.14c-0.238-0.1-0.421-0.243-0.596-0.463 c-0.114-0.144-0.168-0.366-0.171-0.685c-0.003-0.603,0.225-1.444,0.474-2.272c0.031-0.107,0.064-0.221,0.096-0.326 c0.229-0.771,0.463-1.567,0.482-2.34v-0.057c0.001-0.841-0.28-1.652-0.814-2.355c-0.554-0.727-1.332-1.326-2.381-1.836 c-0.119-0.061-0.241-0.114-0.365-0.166c-0.004-0.11-0.011-0.219-0.02-0.329c-0.141-1.584-0.366-2.194-1.091-3.248l-0.58-0.657 l-5.078-1.236L20,36.8l-1.011,0.425l-0.281-0.068l-0.144,0.063l-1.833,0.76l0.117,1.711l1.665,0.446l-1.775,0.675l0.059,1.732 l2.887,0.789l0.031,1.5l5.317,1.779l2.645-1.905c0,0,0.497-0.586,0.7-1.009c0.198,0.102,0.382,0.211,0.55,0.322 c0.378,0.252,0.682,0.532,0.879,0.813c0.216,0.31,0.313,0.595,0.314,0.938L30.119,45.8c0,0.438-0.281,1.366-0.487,2.048 l-0.004,0.016c-0.261,0.89-0.556,1.896-0.56,2.896c-0.001,0.832,0.22,1.532,0.658,2.088c0.4,0.508,0.916,0.903,1.49,1.141 c0.5,0.214,1.06,0.318,1.667,0.318h0.001c1.049-0.002,2.03-0.304,2.768-0.566c0.422-0.148,0.807-0.307,1.146-0.443 c0.287-0.115,0.534-0.217,0.715-0.277c0.045-0.011,0.248-0.041,0.545-0.041c0,0,3.042,0.174,3.809,0.174 c0.895,0,1.59-0.071,2.191-0.226c0.873-0.228,1.502-0.618,1.924-1.216c0.016-0.023,0.033-0.053,0.051-0.08l1.225,0.916l0.129-0.066 c0,0,1.027-0.64,1.471-0.91c0.008,0.486,0.023,1.666,0.023,1.666l3.26,0.328l0.064-0.054c0,0,1.1-0.677,1.414-0.87 c0.098,0.2,0.322,0.662,0.322,0.662l2.844-1.484l4.066-2.398l-0.109-0.277l1.011-0.58l1.642-2.789L62.4,44.686L63.917,43.949z M54.063,47.123l-0.07,0.068l-0.098-0.01c-1.484-0.084-2.983-0.938-4.072-2.238c2.044-0.721,3.904-1.832,5.494-3.242 C55.883,43.721,55.424,45.8,54.063,47.123z" fill="url(#_26)"/>
<linearGradient id="_27" gradientUnits="userSpaceOnUse" x1="26.24" y1="41.8" x2="31.79" y2="40.75">
<stop stop-color="#FFFFFF" offset="0"/>
<stop stop-color="#A2C2DD" offset="0.35"/>
<stop stop-color="#6C83BB" offset="0.7"/>
<stop stop-color="#003D6D" offset="1"/>
</linearGradient>
<path d="M28.33,41.12c-0.151-1.705-0.39-2.179-1.348-3.495l-1.955,0.986l-0.072,7.474l2.447-1.763 C27.777,43.9,28.486,42.889,28.33,41.12z" fill="url(#_27)"/>
<linearGradient id="_28" gradientUnits="userSpaceOnUse" x1="17.21" y1="39.29" x2="21.1" y2="39.33">
<stop stop-color="#FFFFFF" offset="0.05"/>
<stop stop-color="#A2C2DD" offset="1"/>
</linearGradient>
<polygon fill="url(#_28)" points="21.045,39.256 21.087,40.335 17.303,39.314 17.231,38.281 "/>
<linearGradient id="_29" gradientUnits="userSpaceOnUse" x1="16.67" y1="35.33" x2="23.8" y2="42.15">
<stop stop-color="#FFFFFF" offset="0"/>
<stop stop-color="#A2C2DD" offset="0.35"/>
<stop stop-color="#6C83BB" offset="0.7"/>
<stop stop-color="#003D6D" offset="1"/>
</linearGradient>
<polygon fill="url(#_29)" points="21.166,39.262 17.244,38.281 18.75,37.654 22.638,38.596 "/>
<linearGradient id="_30" gradientUnits="userSpaceOnUse" x1="17.22" y1="42.17" x2="21.09" y2="42.21">
<stop stop-color="#FFFFFF" offset="0.05"/>
<stop stop-color="#A2C2DD" offset="1"/>
</linearGradient>
<polygon fill="url(#_30)" points="21.07,42.161 21.091,43.221 17.265,42.175 17.23,41.15 "/>
<polygon fill="url(#_29)" points="21.149,42.171 17.202,41.15 18.732,40.563 22.623,41.499 "/>
<polygon fill="#CEDFF2" points="20.038,37.302 22.094,36.438 27.021,37.636 25.047,38.598 "/>
<linearGradient id="_32" gradientUnits="userSpaceOnUse" x1="20.28" y1="33.19" x2="24.94" y2="49.09">
<stop stop-color="#FFFFFF" offset="0"/>
<stop stop-color="#A2C2DD" offset="0.35"/>
<stop stop-color="#6C83BB" offset="0.7"/>
<stop stop-color="#003D6D" offset="1"/>
</linearGradient>
<path d="M20.187,44.484l-0.149-7.183l4.99,1.31c0,0,2.438,3.779-0.072,7.47L20.187,44.484z" fill="url(#_32)"/>
<linearGradient id="_33" gradientUnits="userSpaceOnUse" x1="37.41" y1="39.75" x2="42" y2="54.93">
<stop stop-color="#A2C2DD" offset="0.1"/>
<stop stop-color="#6C83BB" offset="0.71"/>
<stop stop-color="#003D6D" offset="0.99"/>
</linearGradient>
<path d="M31.404,53.552c-0.481-0.2-0.933-0.532-1.302-1l0,0c-0.421-0.528-0.557-1.174-0.555-1.79l0,0 c0.004-0.938,0.285-1.895,0.545-2.779l0,0c0.265-0.877,0.505-1.703,0.505-2.181l0,0c0-0.017,0-0.03,0-0.04l0,0 c-0.001-0.462-0.148-0.843-0.399-1.201l0,0c-0.251-0.358-0.613-0.677-1.004-0.937l0,0c-0.78-0.524-1.655-0.808-1.824-0.854l0,0 c-0.023-0.009-0.028-0.011-0.028-0.011l0,0c0,0-0.237-0.228-0.132-0.688c0.104-0.461,0.478-0.573,0.478-0.573 c0.025,0.009,0.584,0.161,1.294,0.502l0,0c0.709,0.345,1.579,0.874,2.209,1.698l0,0c0.418,0.551,0.718,1.252,0.717,2.063l0,0 c0,0.021,0,0.035,0,0.052l0,0c-0.019,0.807-0.304,1.662-0.559,2.541l0,0c-0.262,0.869-0.496,1.748-0.492,2.407l0,0 c0.001,0.44,0.092,0.75,0.273,0.978l0,0c0.239,0.302,0.494,0.486,0.782,0.607l0,0c0.287,0.119,0.613,0.176,0.974,0.176l0,0 c0.672,0.002,1.451-0.203,2.17-0.461l0,0c0.724-0.26,1.374-0.558,1.89-0.733l0,0c0.359-0.115,0.729-0.132,1.156-0.136l0,0 c1.069,0.002,2.491,0.176,3.769,0.176l0,0c0.661,0,1.277-0.049,1.748-0.17l0,0c0.475-0.123,0.77-0.309,0.906-0.51l0,0 c0.074-0.104,0.723-1.492,0.928-1.996l0,0l2.385-6.633l1.682,0.172l-3.248,7.901c-0.254,0.573-0.459,1.001-0.674,1.312l0,0 c-0.403,0.565-1.015,0.857-1.651,1.021l0,0c-0.644,0.164-1.351,0.21-2.072,0.212l0,0c-1.381-0.002-2.835-0.177-3.77-0.175l0,0 c-0.362-0.004-0.648,0.031-0.743,0.066l0,0c-0.395,0.131-1.082,0.443-1.864,0.725l0,0c-0.787,0.277-1.685,0.537-2.609,0.539l0,0 C32.391,53.831,31.886,53.755,31.404,53.552L31.404,53.552z" fill="url(#_33)"/>
<linearGradient id="_34" gradientUnits="userSpaceOnUse" x1="42.7" y1="14.25" x2="43.49" y2="15.8">
<stop stop-color="#A2C2DD" offset="0.1"/>
<stop stop-color="#6C83BB" offset="0.71"/>
<stop stop-color="#003D6D" offset="0.99"/>
</linearGradient>
<path d="M37.779,15.395c0.065,0.136,0.287,0.17,0.749,0.022c0.343-0.03,1.235-0.805,1.7-0.649 c0.468,0.154,0.852-0.159,1.285-0.437c0.904,0.08,1.865-0.713,2.051-0.713c0.185,0,0.888,0.128,1.043-0.12 c0,0,1.693,0.398,3.242,0.066c-1.153-0.264-2.356-0.403-3.59-0.403c-1.591,0-3.126,0.233-4.577,0.662 C39.28,14.215,38.844,14.744,37.779,15.395z" fill="url(#_34)"/>
<radialGradient id="_35" gradientUnits="userSpaceOnUse" cx="45.34" cy="22.77" r="21.01">
<stop stop-color="#A2C2DD" offset="0.1"/>
<stop stop-color="#6C83BB" offset="0.71"/>
<stop stop-color="#003D6D" offset="0.99"/>
</radialGradient>
<path d="M33.87,17.558c0-0.289,0.474-0.432,0.474-0.432l0.062,0.226l0.433,0.187 c0,0,0.517-0.557,0.619-0.703c0.101-0.143,0.288-0.7,0.288-0.7l0.899-1.061c-2.02,1.089-3.781,2.597-5.165,4.409 C32.037,19.046,33.87,17.848,33.87,17.558z" fill="url(#_35)"/>
<radialGradient id="_36" gradientUnits="userSpaceOnUse" cx="42.71" cy="16.3" r="3.59">
<stop stop-color="#A2C2DD" offset="0.1"/>
<stop stop-color="#6C83BB" offset="0.71"/>
<stop stop-color="#003D6D" offset="0.99"/>
</radialGradient>
<path d="M42.375,15.016c0.203-0.039,0.667-0.256,0.667-0.256s-0.231-0.099-0.493-0.06 c-0.26,0.041-0.638-0.157-0.842-0.059C41.879,14.857,42.17,15.055,42.375,15.016z" fill="url(#_36)"/>
<radialGradient id="_37" gradientUnits="userSpaceOnUse" cx="47.43" cy="18.87" r="29.75">
<stop stop-color="#FFFFFF" offset="0"/>
<stop stop-color="#A2C2DD" offset="0.53"/>
<stop stop-color="#6C83BB" offset="0.87"/>
<stop stop-color="#003D6D" offset="1"/>
</radialGradient>
<circle cx="44.26" cy="29.236" fill="url(#_37)" r="16.074"/>
<path d="M57.146,34.348l-0.524,0.832c0,0-0.784,0.25-0.815,0.494c-0.017,0.107-0.608,1.42-0.608,1.42 s-0.231,0.733,0.437,0.518C57.02,37.156,57.922,34.193,57.146,34.348z" fill="url(#_35)"/>
<path d="M32.118,35.982c0.228,0,0.813,0.072,0.883-0.144c0.006-0.092,0.087-2.29,0.087-2.29l0.875-1.163 v-0.929l-2.279-1.475l-0.988-1.07c0,0.004-0.383-1.155-0.741-1.483c-0.301-0.272-0.278-0.875-0.598-1.319 c-0.289-0.402-0.523-0.625-0.708-0.716c-1.469,5.948,0.809,11.006,2.942,13.734c0.306-0.437,0.548-0.924,0.735-1.354 C32.518,37.331,31.355,36.705,32.118,35.982z" fill="url(#_35)"/>
<radialGradient id="_40" gradientUnits="userSpaceOnUse" cx="47.71" cy="19.01" r="16.14">
<stop stop-color="#FFFFFF" offset="0"/>
<stop stop-color="#A2C2DD" offset="0.35"/>
<stop stop-color="#6C83BB" offset="0.7"/>
<stop stop-color="#003D6D" offset="1"/>
</radialGradient>
<path d="M51.662,14.965c-0.494,0.139-0.898,0.244-0.995,0.244c-0.28,0-0.204-0.236-0.454-0.269 c-0.25-0.03-2.322-0.566-2.603-0.287c-0.277,0.279-1.369,0.565-1.62,0.598c-0.248,0.031,0.081,0.783,0.742,1.257 c-0.09,0.093-1.567,0.909-1.567,0.35c0-0.56-0.287-0.968-0.743-1.133c-0.41,0.102-0.884,0.534-0.226,1.133 c0.409,0.372,0.004,0.421-0.024,0.529c-0.123,0.449,0.986,0.886,0.455,1.216c-0.498,0.044-0.939-0.047-1.021-0.092 c-0.782-0.438-0.961,1.298-0.961,1.298l0.854,0.421l-1.425,1.388c0,0-2.091,1.45-2.123,1.638c-0.031,0.186-0.928,2.592-0.618,3.308 c0.311,0.716,1.921,2.643,2.666,2.703c0.972,0.08,3.784-0.483,3.784-0.483c0.063,0.156,0.35,0.779,1.729,1.037 c0.053,0.008-0.595,1.244-0.213,1.777c0.824,1.149,0.783,2.879,0.783,2.879l7.211-3.592L57.7,27.97h-1.647l-0.09-1.407l-0.99-1.855 l-0.988-1.503l0.124-0.31l2.144,2.917c0.196,0.566,0.33,0.828,0.484,1.494c1.223-0.295,2.279-1.893,1.785-3.19 c-0.022-0.023-0.325,0.038-0.776,0.007c-0.692-0.506-1.11-1.575-1.11-1.575l1.574,1.327l0.774,0.061l0.487,0.969 c0.141,0.09,0.23,0.151,0.23,0.151s0.033,0.004,0.086,0.006C58.609,20.67,55.615,17.02,51.662,14.965z M48.233,15.604 c-0.132-0.329,0.379-0.453,0.379-0.453s0.508,0.738,0.428,1.225c-0.081,0.483-0.618,0.188-0.78,0.042 C48.102,16.276,48.359,15.935,48.233,15.604z M52.855,21.794c-0.527,0-1.262-0.001-1.713-0.312c-0.45-0.309-0.611,0.134-0.912,0.445 c-0.192,0.201-2.219-0.799-2.219-0.799l-0.297-0.871l-1.847-0.124l-1.179,0.351l-1.146-0.182l1.272-0.453 c0,0,0.914-0.858,1.244-1.139c0.275-0.236,1.39-0.093,1.39-0.093l1.272,1.021c0,0-0.088,0.465-0.205,0.619 c0.465-0.031,0.813-0.627,0.813-0.627c-1.032-0.907-1.028-1.127-1.028-1.127l1.328,0.749l0.096,0.386c0,0,0.529,0.909,1.035,0.948 c0.219,0.017,0.041-0.854,0.041-0.854l0.271-0.039c0.529,1.234,2.412,1.111,2.756,1.399C53.854,22.373,53.077,21.856,52.855,21.794z M53.21,19.591c-0.475-0.186-0.96-0.094-0.96-0.094c-0.109,0.209-0.869-0.005-0.718-0.471c0.151-0.463,0.651-0.097,0.883-0.349 c0.229-0.254,0.556-0.421,0.703-0.182c-0.175,0.229,0.151,0.409,0.379,0.529C54.133,19.369,54.551,19.862,53.21,19.591z M55.83,20.727c-0.24-0.213-0.085-0.463-0.445-0.801c-0.52-0.482-0.801-0.691-0.502-1.219c0.504-0.241,0.203,0.323,0.396,0.592 c0.101,0.144,0.558,0.597,0.989,1.181C56.626,20.963,56.069,20.938,55.83,20.727z" fill="url(#_40)"/>
<linearGradient id="_41" gradientUnits="userSpaceOnUse" x1="44.56" y1="3.57" x2="61.96" y2="4.23">
<stop stop-color="#E2E6E4" offset="0"/>
<stop stop-color="#A3740A" offset="1"/>
</linearGradient>
<polygon fill="url(#_41)" points="49.295,3.15 43.076,2.312 39.641,3.685 45.799,4.815 "/>
<linearGradient id="_42" gradientUnits="userSpaceOnUse" x1="43.03" y1="11.88" x2="62.57" y2="15.74">
<stop stop-color="#E2E6E4" offset="0"/>
<stop stop-color="#A3740A" offset="1"/>
</linearGradient>
<polygon fill="url(#_42)" points="53.227,12.751 38.126,10.157 36.188,10.791 49.691,14.342 "/>
<linearGradient id="_43" gradientUnits="userSpaceOnUse" x1="49.29" y1="8.38" x2="47.56" y2="25.26">
<stop stop-color="#E6EEF4" offset="0"/>
<stop stop-color="#A3740A" offset="0.44"/>
<stop stop-color="#474105" offset="0.94"/>
</linearGradient>
<polygon fill="url(#_43)" points="45.854,20.782 43.479,22.282 49.822,14.184 53.227,12.751 "/>
<polygon fill="url(#_43)" points="45.098,13.185 47.958,11.953 49.295,3.15 45.832,4.804 "/>
<linearGradient id="_45" gradientUnits="userSpaceOnUse" x1="44.7" y1="2.58" x2="42.18" y2="17.33">
<stop stop-color="#E2E6E4" offset="0"/>
<stop stop-color="#A3740A" offset="1"/>
</linearGradient>
<polygon fill="url(#_45)" points="40.271,11.896 39.641,3.685 45.928,4.714 45.098,13.185 49.822,14.184 43.479,22.282 36.188,10.791 "/>
<linearGradient id="_46" gradientUnits="userSpaceOnUse" x1="54.7" y1="47.38" x2="48.91" y2="42.09">
<stop stop-color="#E2E6E4" offset="0"/>
<stop stop-color="#A3740A" offset="1"/>
</linearGradient>
<path d="M49.678,37.445c-2.928,3.98,0.543,9.186,4.254,9.32C47.971,51.777,41.468,39.288,49.678,37.445z" fill="url(#_46)"/>
<linearGradient id="_47" gradientUnits="userSpaceOnUse" x1="57.07" y1="29.49" x2="40.32" y2="39.68">
<stop stop-color="#E2E6E4" offset="0"/>
<stop stop-color="#A3740A" offset="1"/>
</linearGradient>
<path d="M44.51,40.208l0.713-2.448l-3.779,1.991L44.51,40.208z M43.297,35.166l2.815,2.092l-0.734-3.182 L43.297,35.166z M50.488,31.025l-3.354,1.435l0.785,2.765l3.986-2.379L50.488,31.025z" fill="url(#_47)"/>
<linearGradient id="_48" gradientUnits="userSpaceOnUse" x1="60.33" y1="42.33" x2="40.71" y2="41.41">
<stop stop-color="#E2E6E4" offset="0"/>
<stop stop-color="#A3740A" offset="1"/>
</linearGradient>
<path d="M47.477,51.865l3.646-2.256L48.4,50.124L47.477,51.865z M52.102,52.85l2.557-1.57l-2.555-1.129 L52.102,52.85z M62.669,45.689l-1.428-1.721l-2.333,1.313l-1.264-0.189l-2.344,3.646l1.209,2.47l3.625-2.196l-0.668-1.248 L62.669,45.689z M56.04,38.637l4.265-2.085l-0.994-1.101l0.902-1.461l-3.617,1.539l-1.369,2.231L56.04,38.637z M51.762,36.434 l4.032-3.416l-0.175-1.81l-3.635,1.489C51.984,32.695,51.648,36.359,51.762,36.434z M59.922,42.197l3.301-1.463l-1.699-0.418l0,0 c-0.002-0.019-0.137-1.039-0.188-1.151l-5.854,2.767L59.922,42.197z" fill="url(#_48)"/>
<linearGradient id="_49" gradientUnits="userSpaceOnUse" x1="52.27" y1="32.02" x2="71.16" y2="59.71">
<stop stop-color="#E2E6E4" offset="0"/>
<stop stop-color="#A3740A" offset="1"/>
</linearGradient>
<path d="M52.289,30.891l-3.328,1.299l3.014,0.502l3.664-1.494L52.289,30.891z M57.604,32.007l-3.651,1.511 l2.642,2.01l3.621-1.553L57.604,32.007z M59.922,42.191l-0.037,3.238l3.324-1.621l0.014-3.072L59.922,42.191z M57.844,49.887 l3.291-1.732l1.529-2.463l-3.302,1.666L57.844,49.887z M59.439,40.173l3.216-1.508l-1.31-2.899l-3.4,1.434L59.439,40.173z" fill="url(#_49)"/>
<linearGradient id="_50" gradientUnits="userSpaceOnUse" x1="44.74" y1="25.86" x2="53.09" y2="49.13">
<stop stop-color="#E2E6E4" offset="0"/>
<stop stop-color="#A3740A" offset="1"/>
</linearGradient>
<path d="M59.926,42.191l-0.041,3.248l-2.08-0.24l-0.227,0.826l1.783,1.316l-1.532,2.566l-1.722-1.278 l-0.572,0.595l0.977,1.993l-2.537,1.324l-0.955-1.948l-0.908,0.186L52.1,52.861l-2.869-0.287l-0.027-2.096l-0.798-0.348 l-0.929,1.727l-2.516-1.883l0.91-1.74l-0.688-0.81l-1.556,0.874l-1.508-3.016l1.583-0.883l-0.218-1.01l-1.936-0.26l-0.106-3.383 l1.947,0.273l0.166-0.945l-1.667-1.359l1.408-2.559l1.633,1.225l0.672-0.643l-1.004-1.926l2.539-1.359l1.043,2.051l0.813-0.145 l-0.029-2.172l3.022,0.498l0.024,2.146l0.948,0.429l0.998-1.748l2.64,2.01l-1.043,1.771l0.599,0.762l1.797-0.859l1.521,2.969 l-1.828,0.884l0.183,0.88L59.926,42.191z M48.7,37.74c-2.351,0.796-3.382,3.727-2.321,6.511c1.049,2.761,3.764,4.265,6.078,3.392 c2.318-0.859,3.396-3.703,2.381-6.388C53.813,38.549,51.059,36.961,48.7,37.74z" fill="url(#_50)"/>
</svg>