<?xml version="1.0" encoding="UTF-8"?>
<!DOCTYPE svg PUBLIC "-//W3C//DTD SVG 1.1 Tiny//EN" "http://www.w3.org/Graphics/SVG/1.1/DTD/svg11-tiny.dtd">
<svg baseProfile="tiny" height="44" version="1.1" viewBox="0.322 0.054 44 44" width="44" xmlns="http://www.w3.org/2000/svg" xmlns:xlink="http://www.w3.org/1999/xlink">
<g>
<linearGradient gradientUnits="userSpaceOnUse" id="XMLID_4_" x1="22.2278" x2="22.2278" y1="8.3464" y2="34.9714">
<stop offset="0" style="stop-color:#B2B2B2"/>
<stop offset="1" style="stop-color:#000000"/>
</linearGradient>
<path d="M8.853,7.38v29.051h26.75V7.38H8.853z M11.172,34.054V14.607h22.002v19.448H11.172L11.172,34.054z" fill="url(#XMLID_4_)"/>
<linearGradient gradientUnits="userSpaceOnUse" id="XMLID_5_" x1="18.2585" x2="18.2585" y1="8.3464" y2="34.9715">
<stop offset="0" style="stop-color:#B2B2B2"/>
<stop offset="1" style="stop-color:#000000"/>
</linearGradient>
<path d="M13.64,30.717l1.328-2.063c0.795,0.844,1.658,1.266,2.591,1.266c1.699,0,2.55-0.797,2.55-2.393   c0-0.725-0.247-1.314-0.738-1.771c-0.493-0.453-1.157-0.682-1.992-0.682h-0.472v-2.188h0.399c1.535,0,2.303-0.639,2.303-1.916   c0-1.338-0.717-2.007-2.15-2.007c-0.741,0-1.462,0.349-2.161,1.048l-1.25-1.828c0.321-0.398,0.825-0.746,1.51-1.041   c0.686-0.297,1.369-0.443,2.054-0.443c1.499,0,2.668,0.34,3.508,1.023c0.838,0.682,1.258,1.637,1.258,2.864   c0,1.461-0.631,2.573-1.892,3.338c1.595,0.766,2.392,2.018,2.392,3.754c0,1.43-0.475,2.537-1.421,3.324   c-0.947,0.785-2.256,1.18-3.925,1.18C16.01,32.185,14.714,31.695,13.64,30.717z" fill="url(#XMLID_5_)"/>
<linearGradient gradientUnits="userSpaceOnUse" id="XMLID_6_" x1="27.7341" x2="27.7341" y1="8.3464" y2="34.9714">
<stop offset="0" style="stop-color:#B2B2B2"/>
<stop offset="1" style="stop-color:#000000"/>
</linearGradient>
<path d="M27.929,31.982V21.163l-3.063,1.834v-2.563c1.969-0.951,3.525-2.129,4.672-3.531h1.063v15.079   H27.929z" fill="url(#XMLID_6_)"/>
<rect fill="none" height="44" width="44" x="0.322" y="0.054"/>
</g>
</svg>
