<?xml version="1.0" encoding="UTF-8"?>
<!DOCTYPE svg PUBLIC "-//W3C//DTD SVG 1.1 Tiny//EN" "http://www.w3.org/Graphics/SVG/1.1/DTD/svg11-tiny.dtd">
<svg width="60" height="52" viewBox="-0.459 0.524 60 52">
<linearGradient id="_4" gradientUnits="userSpaceOnUse" x1="29.54" y1="7.73" x2="29.54" y2="46.13">
<stop stop-color="#7D9CAD" offset="0"/>
<stop stop-color="#576F96" offset="0.73"/>
<stop stop-color="#4F6691" offset="1"/>
</linearGradient>
<path d="M51.281,6.525H7.801c-1.246,0-2.26,1.014-2.26,2.259v35.481c0,1.246,1.014,2.26,2.26,2.26h43.48 c1.246,0,2.26-1.014,2.26-2.26V8.784C53.541,7.539,52.527,6.525,51.281,6.525z M52.541,44.266c0,0.694-0.564,1.26-1.26,1.26 H7.801c-0.695,0-1.26-0.565-1.26-1.26V8.784c0-0.694,0.564-1.259,1.26-1.259h43.48c0.695,0,1.26,0.564,1.26,1.259V44.266z" fill="url(#_4)"/>
<g fill-opacity="0.7" stroke-opacity="0.7">
<linearGradient id="_5" gradientUnits="userSpaceOnUse" x1="29.54" y1="51.07" x2="29.54" y2="5.94">
<stop stop-color="#ADB5A8" offset="0.03"/>
<stop stop-color="#C7D9D9" offset="0.26"/>
<stop stop-color="#FFFFFF" offset="0.72"/>
</linearGradient>
<path d="M51.281,7.525H7.801c-0.695,0-1.26,0.564-1.26,1.259v35.481c0,0.694,0.564,1.26,1.26,1.26 h43.48c0.695,0,1.26-0.565,1.26-1.26V8.784C52.541,8.09,51.977,7.525,51.281,7.525z" fill="url(#_5)"/>
</g>
<path d="M52.16,7.902c-0.244-0.252-0.529-0.377-0.879-0.377H7.801c-0.695,0-1.26,0.564-1.26,1.259v35.481 c0,0.346,0.143,0.652,0.373,0.873c0.002,0.013,0.627-0.628,0.627-0.628V8.525h44L52.16,7.902z" fill="#FFFFFF"/>
<linearGradient id="_6" gradientUnits="userSpaceOnUse" x1="29.73" y1="12.66" x2="29.73" y2="52.13">
<stop stop-color="#CADCEC" offset="0"/>
<stop stop-color="#809CB3" offset="1"/>
</linearGradient>
<path d="M6.924,45.147c0.242,0.252,0.529,0.377,0.877,0.377h43.482c0.693,0,1.258-0.564,1.258-1.259 V8.784c0-0.346-0.143-0.652-0.371-0.873c-0.004-0.013-0.629,0.628-0.629,0.628s0,35.206,0,35.985c-0.738,0-43.998,0-43.998,0 L6.924,45.147z" fill="url(#_6)"/>
<polygon fill="#496DA2" points="24.528,29.112 22.987,29.112 20.569,24.717 20.569,35.238 17.429,35.238 17.429,17.799 19.022,17.799 23.757,26.344 28.492,17.799 30.085,17.799 30.085,35.238 26.929,35.238 26.929,24.811 "/>
<path d="M32.108,34.768v-1.844c8.039,2.496,6.478-3.255,5.806-3.959c-1.234-1.826-5.681-2.676-5.681-6.781 c0-5.391,6.358-4.71,8.75-4.042v1.845c-1.405-0.413-5.594-1.268-5.594,1.631c0.008,2.834,4.039,3.115,5.786,6.258 C42.084,29.509,42.835,37.576,32.108,34.768z" fill="#496DA2"/>
</svg>