<?xml version="1.0" encoding="UTF-8"?>
<!DOCTYPE svg PUBLIC "-//W3C//DTD SVG 1.1 Tiny//EN" "http://www.w3.org/Graphics/SVG/1.1/DTD/svg11-tiny.dtd">
<svg width="100%" height="100%" viewBox="-0.061 0.278 88 88">
<linearGradient id="_18" gradientUnits="userSpaceOnUse" x1="40.75" y1="55.5" x2="36.67" y2="72">
<stop stop-color="#A2C2DD" offset="0.1"/>
<stop stop-color="#6C83BB" offset="0.71"/>
<stop stop-color="#003D6D" offset="0.99"/>
</linearGradient>
<path fill="url(#_18)" d="M11.686,46.629c0.653,10.107,11.551,34.676,42.15,24.705C84.004,61.5,75.045,35.121,73.557,31.439 C65.295,0.496,5.927,15.489,11.686,46.629z"/>
<linearGradient id="_19" gradientUnits="userSpaceOnUse" x1="78.92" y1="47.65" x2="12.33" y2="62.88">
<stop stop-color="#FFFFFF" offset="0"/>
<stop stop-color="#A2C2DD" offset="0.35"/>
<stop stop-color="#6C83BB" offset="0.7"/>
<stop stop-color="#003D6D" offset="1"/>
</linearGradient>
<path fill="url(#_19)" d="M12.32,46.488c0.647,8.689,10.352,34.266,41.299,24.18 c31.279-10.193,19.324-39.112,19.324-39.112L12.32,46.488z"/>
<linearGradient id="_20" gradientUnits="userSpaceOnUse" x1="30.34" y1="88.6" x2="44.34" y2="31.6">
<stop stop-color="#FFFFFF" offset="0.1"/>
<stop stop-color="#D1E1EE" offset="0.7"/>
<stop stop-color="#A2C2DD" offset="1"/>
</linearGradient>
<path fill="url(#_20)" d="M58.785,16.852c-14.354-5.056-33.248,0.671-42.2,12.793 c-8.957,12.128-4.578,26.056,9.776,31.111c14.353,5.061,33.244-0.668,42.201-12.795C77.516,35.839,73.139,21.912,58.785,16.852z "/>
<linearGradient id="_21" gradientUnits="userSpaceOnUse" x1="8.42" y1="79.13" x2="70.23" y2="-3.88">
<stop stop-color="#FFFFFF" offset="0"/>
<stop stop-color="#A2C2DD" offset="0.35"/>
<stop stop-color="#6C83BB" offset="0.7"/>
<stop stop-color="#003D6D" offset="1"/>
</linearGradient>
<path fill="url(#_21)" d="M69.627,31.546C59.264,1.501,2.158,23.679,17.57,50.83L69.627,31.546z"/>
<linearGradient id="_22" gradientUnits="userSpaceOnUse" x1="34.81" y1="31.53" x2="65.81" y2="65.87">
<stop stop-color="#DCE8E4" offset="0"/>
<stop stop-color="#43910A" offset="1"/>
</linearGradient>
<path fill="url(#_22)" d="M69.5,31.45C55.611,12.109,13.279,25.882,17.501,50.98C34.154,71.861,74.668,54.273,69.5,31.45z "/>
<linearGradient id="_23" gradientUnits="userSpaceOnUse" x1="47.21" y1="17.44" x2="38.88" y2="100.11">
<stop stop-color="#E6EEF4" offset="0"/>
<stop stop-color="#4A9900" offset="0.44"/>
<stop stop-color="#0E4E58" offset="0.94"/>
</linearGradient>
<polygon fill="url(#_23)" points="54.623,29.007 38.809,41.985 34.634,57.201 49.402,45.115 "/>
<linearGradient id="_24" gradientUnits="userSpaceOnUse" x1="31.97" y1="45.81" x2="42.27" y2="45.81">
<stop stop-color="#E3DFE4" offset="0"/>
<stop stop-color="#C03A3A" offset="1"/>
</linearGradient>
<polygon fill="url(#_24)" points="37.452,38.646 31.967,54.434 42.273,37.183 "/>
<linearGradient id="_25" gradientUnits="userSpaceOnUse" x1="45.75" y1="53.44" x2="31.12" y2="41.56">
<stop stop-color="#E6EEF4" offset="0"/>
<stop stop-color="#C03A3A" offset="0.44"/>
<stop stop-color="#302D02" offset="0.94"/>
</linearGradient>
<polygon fill="url(#_25)" points="41.387,37.716 31.967,54.434 46.385,42.458 "/>
<linearGradient id="_26" gradientUnits="userSpaceOnUse" x1="54.12" y1="34" x2="39.25" y2="33.38">
<stop stop-color="#FFFFFF" offset="0.05"/>
<stop stop-color="#A2C2DD" offset="1"/>
</linearGradient>
<polygon fill="url(#_26)" points="46.385,42.458 52.203,25.138 41.203,37.607 "/>
<polygon fill="#FFFFFF" points="52.213,25.011 37.452,38.646 41.387,37.716 "/>
<linearGradient id="_27" gradientUnits="userSpaceOnUse" x1="36.77" y1="-9.91" x2="70.93" y2="70.74">
<stop stop-color="#E6EEF4" offset="0"/>
<stop stop-color="#C03A3A" offset="0.44"/>
<stop stop-color="#302D02" offset="0.94"/>
</linearGradient>
<polygon fill="url(#_27)" points="64.014,49.299 61.518,48.5 60.09,50.271 62.355,50.996 "/>
<polygon fill="url(#_27)" points="26.602,37.309 22.493,35.99 21.357,37.856 25.486,39.179 "/>
<polygon fill="url(#_27)" points="55.98,28.755 58.387,25.3 56.311,24.567 53.895,28.033 "/>
<polygon fill="url(#_27)" points="33.509,57.273 31.868,59.627 34.197,59.998 35.658,57.904 "/>
<polygon fill="url(#_27)" points="39.68,28.261 38.461,24.884 36.447,25.57 37.671,28.948 "/>
<polygon fill="url(#_27)" points="47.971,57.488 48.467,58.867 50.488,58.215 49.994,56.844 "/>
<polygon fill="url(#_27)" points="24.295,48.186 19.623,49.445 20.309,51.459 25.011,50.189 "/>
<polygon fill="url(#_27)" points="64.328,39.589 69.037,38.318 68.68,36.214 64.002,37.479 "/>
</svg>