<?xml version="1.0" encoding="UTF-8"?>
<!DOCTYPE svg PUBLIC "-//W3C//DTD SVG 1.1 Tiny//EN" "http://www.w3.org/Graphics/SVG/1.1/DTD/svg11-tiny.dtd">
<svg baseProfile="tiny" version="1.1" xmlns="http://www.w3.org/2000/svg" xmlns:xlink="http://www.w3.org/1999/xlink" width="44" height="32" viewBox="-0.5 0.5 44 32">
<g>
<path fill="#656B6B" fill-opacity="0.01" d="M-0.5,31.5H16l1.279-0.057c13.15-0.62,23.552-11.039,24.175-24.234L41.5,6.271V0.5h-42 V31.5z"/>
<path fill="#656B6B" fill-opacity="0.02" d="M-0.5,30.5H16l1.223-0.055C29.859,29.85,39.855,19.839,40.454,7.161l-0.011-0.002 C40.449,7.124,40.5,6.222,40.5,6.222V0.5h-41V30.5z"/>
<path fill="#656B6B" fill-opacity="0.03" d="M-0.5,29.5H16l1.163-0.053C29.289,28.875,38.88,19.273,39.454,7.112L39.5,6.176V0.5 h-40V29.5z"/>
<path fill="#656B6B" fill-opacity="0.05" d="M-0.5,28.5H16l1.104-0.051C28.719,27.9,37.904,18.708,38.454,7.065l-0.019-0.004 c0.008-0.049,0.064-0.93,0.064-0.93V0.5h-39V28.5z"/>
<path fill="#656B6B" fill-opacity="0.06" d="M-0.5,27.5H16l1.044-0.049c11.104-0.524,19.886-9.309,20.41-20.433l0.017-0.246 L37.5,6.088V0.5h-38V27.5z"/>
<path fill="#656B6B" fill-opacity="0.1" d="M-0.5,26.5H16l0.984-0.047c10.592-0.5,18.969-8.876,19.47-19.481L36.5,6.044V0.5h-37 V26.5z"/>
<path fill="#656B6B" fill-opacity="0.1" d="M-0.5,25.5H16l0.924-0.045c10.088-0.477,18.055-8.443,18.53-18.531 C35.454,6.927,35.5,6,35.5,6V0.5h-36V25.5z"/>
<path fill="#656B6B" fill-opacity="0.1" d="M-0.5,24.5H16c0.296,0,0.584-0.031,0.877-0.045c9.5-0.448,17.13-8.078,17.578-17.578 C34.471,6.584,34.5,6.296,34.5,6V0.5h-35V24.5z"/>
<path fill="#FFFFFF" fill-opacity="0.8" d="M-0.5,23.5H16c9.665,0,17.5-7.835,17.5-17.5V0.5h-34V23.5z"/>
<rect x="-0.5" y="0.5" fill="none" width="44" height="32"/>
</g>
</svg>
