<?xml version="1.0" encoding="UTF-8"?>
<!DOCTYPE svg PUBLIC "-//W3C//DTD SVG 1.1 Tiny//EN" "http://www.w3.org/Graphics/SVG/1.1/DTD/svg11-tiny.dtd">
<svg width="24" height="24" viewBox="-0.5 0 24 24">
<g fill-opacity="0.7" stroke-opacity="0.7">
<path fill="#656B6B" fill-opacity="0.01" d="M23.5,11h-12c-4.963,0-9,4.037-9,9v4h21V11z"/>
<path fill="#656B6B" fill-opacity="0.03" d="M23.5,12h-12c-4.411,0-8,3.59-8,8v4h20V12z"/>
<path fill="#656B6B" fill-opacity="0.05" d="M23.5,13h-12c-3.859,0-7,3.141-7,7v4h19V13z"/>
<path fill="#656B6B" fill-opacity="0.07" d="M23.5,14h-12c-3.309,0-6,2.691-6,6v4h18V14z"/>
<path fill="#656B6B" fill-opacity="0.11" d="M23.5,15h-12c-2.762,0-5,2.238-5,5v4h17V15z"/>
<rect x="5.5" y="14" fill="#FFFFFF" width="18" height="10"/>
</g>
</svg>