<?xml version="1.0" encoding="UTF-8"?>
<!DOCTYPE svg PUBLIC "-//W3C//DTD SVG 1.1 Tiny//EN" "http://www.w3.org/Graphics/SVG/1.1/DTD/svg11-tiny.dtd">
<svg width="12" height="12" viewBox="0 0.5 12 12">
<path fill-opacity="0.02" fill="#3F3F3F" d="M2.974,1.5H0v4.236l5.653,0.75L6.611,12.5h5.374h0.006v-1.979 C11.991,5.547,7.946,1.5,2.974,1.5z"/>
<path fill-opacity="0.06" fill="#3F3F3F" d="M6.612,12.5h4.379v-1.979C10.991,6.1,7.395,2.5,2.974,2.5H0v3.903l5.695,0.208L6.612,12.5z"/>
<path fill-opacity="0.11" fill="#3F3F3F" d="M6.236,12.5h3.755v-1.979C9.991,6.65,6.843,3.5,2.974,3.5H0v2.278l5.611,0.958L6.236,12.5z"/>
<path fill="#90979E" d="M3.991,4.5c2.209,0,4,1.791,4,4v4h0.015h0.985v-4c0-2.756-2.243-5-5-5H0v1H3.991z"/>
<linearGradient id="_3" gradientUnits="userSpaceOnUse" x1="4" y1="255.65" x2="4" y2="10.99">
<stop stop-color="#BFDAE1" offset="0"/>
<stop stop-color="#C1DBE2" offset="0.03"/>
<stop stop-color="#EEF5F7" offset="0.68"/>
<stop stop-color="#FFFFFF" offset="1"/>
</linearGradient>
<path fill="url(#_3)" d="M1.496,7.5c2.968,0,3.489,0.529,3.489,3.486V12.5H5h2.991v-4c0-2.209-1.791-4-4-4H0v3H1.496z"/>
<linearGradient id="_4" gradientUnits="userSpaceOnUse" x1="145.21" y1="269.31" x2="-53.29" y2="-90.19">
<stop stop-color="#D9DDDF" offset="0.24"/>
<stop stop-color="#FFFFFF" offset="1"/>
</linearGradient>
<path fill-opacity="0.5" fill="url(#_4)" d="M0.015,12.5h4.971v-1.514c0-2.957-0.521-3.486-3.489-3.486H0v5H0.015z"/>
</svg>