<?xml version="1.0" encoding="UTF-8"?>
<!DOCTYPE svg PUBLIC "-//W3C//DTD SVG 1.1 Tiny//EN" "http://www.w3.org/Graphics/SVG/1.1/DTD/svg11-tiny.dtd">
<svg baseProfile="tiny" version="1.1" xmlns="http://www.w3.org/2000/svg" xmlns:xlink="http://www.w3.org/1999/xlink" width="44" height="60" viewBox="-0.5 0.5 44 60">
<g>
<path fill="#656B6B" fill-opacity="0.01" d="M43.5,31.5H23C11.146,31.5,1.5,41.146,1.5,53v7.5h42V31.5z"/>
<path fill="#656B6B" fill-opacity="0.02" d="M43.5,32.5H23C11.696,32.5,2.5,41.697,2.5,53v7.5h41V32.5z"/>
<path fill="#656B6B" fill-opacity="0.03" d="M43.5,33.5H23C12.248,33.5,3.5,42.248,3.5,53v7.5h40V33.5z"/>
<path fill="#656B6B" fill-opacity="0.05" d="M43.5,34.5H23C12.799,34.5,4.5,42.799,4.5,53v7.5h39V34.5z"/>
<path fill="#656B6B" fill-opacity="0.06" d="M43.5,35.5c-12.244,0-20.5,0-20.5,0c-9.649,0-17.5,7.852-17.5,17.5v7.5h38V35.5z"/>
<path fill="#656B6B" fill-opacity="0.1" d="M43.5,36.5c-12.247,0-20.5,0-20.5,0c-9.099,0-16.5,7.402-16.5,16.5v7.5h37V36.5z"/>
<path fill="#656B6B" fill-opacity="0.1" d="M43.5,37.5c-12.25,0-20.5,0-20.5,0c-8.547,0-15.5,6.953-15.5,15.5v7.5h36V37.5z"/>
<path fill="#656B6B" fill-opacity="0.1" d="M43.5,38.5c-12.26,0-20.5,0-20.5,0c-7.995,0-14.5,6.506-14.5,14.5v7.5h35V38.5z"/>
<path fill="#CADCEC" d="M6.5,53c0-9.098,7.401-16.5,16.5-16.5h20.5v-1H23c-9.665,0-17.5,7.836-17.5,17.5v7.5h1V53z"/>
<path fill="url(#XMLID_2_)" d="M43.5,36.5H23c-9.099,0-16.5,7.402-16.5,16.5v7.5h37V36.5z"/>
<rect x="-0.5" y="0.5" fill="none" width="44" height="60"/>
<defs>
<linearGradient id="XMLID_2_" gradientUnits="userSpaceOnUse" x1="25" y1="54.498" x2="25" y2="-80.502" gradientTransform="matrix(1 0 0 -1 0 59)">
<stop offset="0" style="stop-color:#DEE9F3"/>
<stop offset="0.0962" style="stop-color:#E6EFF6"/>
<stop offset="0.3575" style="stop-color:#F9FBFD"/>
<stop offset="0.5449" style="stop-color:#FFFFFF"/>
<stop offset="0.6689" style="stop-color:#FBFCFE"/>
<stop offset="0.7952" style="stop-color:#EFF4F9"/>
<stop offset="0.922" style="stop-color:#DAE7F2"/>
<stop offset="1" style="stop-color:#CADCEC"/>
</linearGradient>
</defs>
</g>
</svg>
