<?xml version="1.0" encoding="UTF-8"?>
<!DOCTYPE svg PUBLIC "-//W3C//DTD SVG 1.1 Tiny//EN" "http://www.w3.org/Graphics/SVG/1.1/DTD/svg11-tiny.dtd">
<svg width="24" height="24" viewBox="-0.5 -0.5 24 24">
<path fill="#656B6B" fill-opacity="0.01" d="M-0.5,17.5h10c6.617,0,12-5.383,12-12v-6h-22V17.5z"/>
<path fill="#656B6B" fill-opacity="0.03" d="M-0.5,16.5h10c6.064,0,11-4.935,11-11v-6h-21V16.5z"/>
<path fill="#656B6B" fill-opacity="0.04" d="M-0.5,15.5h10c5.514,0,10-4.485,10-10v-6h-20V15.5z"/>
<path fill="#656B6B" fill-opacity="0.09" d="M-0.5,14.5h10c4.963,0,9-4.037,9-9v-6h-19V14.5z"/>
<path fill="#656B6B" fill-opacity="0.08" d="M-0.5,13.5h10c4.411,0,8-3.588,8-8v-6h-18V13.5z"/>
<path fill="#656B6B" fill-opacity="0.1" d="M-0.5,12.5h10c3.859,0,7-3.142,7-7v-6h-17V12.5z"/>
<path fill="#656B6B" fill-opacity="0.11" d="M-0.5,11.5h10c3.309,0,6-2.69,6-6v-6h-16V11.5z"/>
<path fill="#656B6B" fill-opacity="0.1" d="M-0.5,10.5h10c2.762,0,5-2.237,5-5v-6h-15V10.5z"/>
<rect x="-0.5" y="-0.5" fill="#656B6B" fill-opacity="0.03" width="15" height="11"/>
<linearGradient id="_2" gradientUnits="userSpaceOnUse" x1="6.5" y1="5" x2="6.5" y2="-83.5">
<stop stop-color="#D9F4E0" offset="0"/>
<stop stop-color="#FFFFFF" offset="1"/>
</linearGradient>
<rect x="-0.5" y="-0.5" fill="url(#_2)" width="14" height="10"/>
</svg>