<?xml version="1.0" encoding="UTF-8" standalone="no"?>
<!DOCTYPE svg PUBLIC "-//W3C//DTD SVG 1.1 Tiny//EN" "http://www.w3.org/Graphics/SVG/1.1/DTD/svg11-tiny.dtd">
<svg xmlns="http://www.w3.org/2000/svg" xmlns:xlink="http://www.w3.org/1999/xlink" width="8" height="8" viewBox="0 0 8 8">
<rect fill="none" height="8" width="8"/>
<linearGradient id="SVGID_1" gradientUnits="userSpaceOnUse" x1="4" y1="-34.68" x2="4" y2="7.56">
<stop stop-color="#9DDB80" offset="0"/>
<stop stop-color="#6BB149" offset="0.73"/>
<stop stop-color="#709C5B" offset="1"/>
</linearGradient>
<path d="M2.287,6.999c-0.703,0-1.274-0.564-1.274-1.26V0H0v5.739c0,1.246,1.026,2.26,2.287,2.26H8v-1H2.287z " fill="url(#SVGID_1)"/>
<g fill-opacity="0.7" stroke-opacity="0.7">
<linearGradient id="SVGID_2" gradientUnits="userSpaceOnUse" x1="4.51" y1="13.78" x2="4.51" y2="-37.05">
<stop stop-color="#84D260" offset="0"/>
<stop stop-color="#8CD56A" offset="0.53"/>
<stop stop-color="#C1E9B0" offset="1"/>
</linearGradient>
<path d="M1.013,0v5.739c0,0.693,0.571,1.26,1.274,1.26H8V0H1.013z" fill="url(#SVGID_2)"/>
</g>
<linearGradient id="SVGID_3" gradientUnits="userSpaceOnUse" x1="1.52" y1="12" x2="1.52" y2="-57.92">
<stop stop-color="#EAF8E5" offset="0"/>
<stop stop-color="#E6F6E0" offset="0.13"/>
<stop stop-color="#DAF2D0" offset="0.62"/>
<stop stop-color="#D6F0CA" offset="1"/>
</linearGradient>
<path d="M1.013,5.739c0,0.346,0.145,0.652,0.377,0.873c0.003,0.012,0.636-0.629,0.636-0.629V0H1.013V5.739z" fill="url(#SVGID_3)"/>
<linearGradient id="SVGID_4" gradientUnits="userSpaceOnUse" x1="4.7" y1="-29.36" x2="4.7" y2="14.31">
<stop stop-color="#C1E9AF" offset="0"/>
<stop stop-color="#78B75C" offset="1"/>
</linearGradient>
<path d="M2.026,5.997L1.399,6.62c0.246,0.252,0.536,0.377,0.889,0.377H8v-1 C4.408,5.997,2.026,5.997,2.026,5.997z" fill="url(#SVGID_4)"/>
</svg>