<?xml version="1.0" encoding="UTF-8"?>
<!DOCTYPE svg PUBLIC "-//W3C//DTD SVG 1.1 Tiny//EN" "http://www.w3.org/Graphics/SVG/1.1/DTD/svg11-tiny.dtd">
<svg width="24" height="24" viewBox="-0.5 -0.5 24 24">
<path fill="#656B6B" fill-opacity="0.01" d="M21.5,23.5v-12c0-6.617-5.383-12-12-12h-10v24H21.5z"/>
<path fill="#656B6B" fill-opacity="0.02" d="M20.5,23.5v-12c0-6.064-4.934-11-11-11h-10v23H20.5z"/>
<path fill="#656B6B" fill-opacity="0.03" d="M19.5,23.5v-12c0-5.514-4.486-10-10-10h-10v22H19.5z"/>
<path fill="#656B6B" fill-opacity="0.06" d="M18.5,23.5v-12c0-4.963-4.037-9-9-9h-10v21H18.5z"/>
<path fill="#656B6B" fill-opacity="0.05" d="M17.5,23.5v-12c0-4.41-3.588-8-8-8h-10v20H17.5z"/>
<path fill="#656B6B" fill-opacity="0.1" d="M16.5,23.5v-12c0-3.859-3.141-7-7-7h-10v19H16.5z"/>
<path fill="#656B6B" fill-opacity="0.1" d="M15.5,23.5v-12c0-3.309-2.691-6-6-6h-10v18H15.5z"/>
<path fill="#656B6B" fill-opacity="0.1" d="M14.5,23.5v-12c0-2.762-2.238-5-5-5h-10v17H14.5z"/>
<polygon fill="#656B6B" fill-opacity="0.05" points="14.5,23.5 14.5,2.5 13.5,2.5 -0.5,2.5 -0.5,23.5 "/>
<linearGradient id="_7" gradientUnits="userSpaceOnUse" x1="6.51" y1="199.47" x2="6.51" y2="3.48">
<stop stop-color="#A8C4CC" offset="0"/>
<stop stop-color="#D9F4E0" offset="0.53"/>
<stop stop-color="#FFFFFF" offset="1"/>
</linearGradient>
<rect x="-0.5" y="3.5" fill="url(#_7)" width="14" height="20"/>
<linearGradient id="_8" gradientUnits="userSpaceOnUse" x1="6.02" y1="207.12" x2="6.02" y2="4.48">
<stop stop-color="#A8C4CC" offset="0"/>
<stop stop-color="#D9F4E0" offset="0.53"/>
<stop stop-color="#FFFFFF" offset="1"/>
</linearGradient>
<path fill="url(#_8)" d="M12.5,23.5c0-5.273,0-18.646,0-19c-0.229,0-4.912,0-13,0v19H12.5z"/>
<linearGradient id="_9" gradientUnits="userSpaceOnUse" x1="5.51" y1="216.95" x2="5.51" y2="5.48">
<stop stop-color="#A8C4CC" offset="0"/>
<stop stop-color="#D9F4E0" offset="0.53"/>
<stop stop-color="#FFFFFF" offset="1"/>
</linearGradient>
<path fill="url(#_9)" d="M11.5,23.5c0-4.693,0-17.665,0-18c-0.222,0-4.532,0-12,0v18H11.5z"/>
<linearGradient id="_10" gradientUnits="userSpaceOnUse" x1="5.02" y1="229.91" x2="5.02" y2="6.48">
<stop stop-color="#C4D9D1" offset="0"/>
<stop stop-color="#D9F4E0" offset="0.23"/>
<stop stop-color="#FFFFFF" offset="1"/>
</linearGradient>
<path fill="url(#_10)" d="M10.5,23.5c0-4.103,0-16.688,0-17c-0.212,0-4.15,0-11,0v17H10.5z"/>
<linearGradient id="_11" gradientUnits="userSpaceOnUse" x1="4.51" y1="247.47" x2="4.51" y2="7.48">
<stop stop-color="#C4D9D1" offset="0"/>
<stop stop-color="#D9F4E0" offset="0.23"/>
<stop stop-color="#FFFFFF" offset="1"/>
</linearGradient>
<path fill="url(#_11)" d="M9.5,23.5c0-3.513,0-15.709,0-16c-0.202,0-3.767,0-10,0v16H9.5z"/>
<linearGradient id="_12" gradientUnits="userSpaceOnUse" x1="4.02" y1="272.44" x2="4.02" y2="8.48">
<stop stop-color="#C4D9D1" offset="0"/>
<stop stop-color="#D9F4E0" offset="0.23"/>
<stop stop-color="#FFFFFF" offset="1"/>
</linearGradient>
<path fill="url(#_12)" d="M8.5,23.5c0-2.923,0-14.735,0-15c-0.191,0-3.393,0-9,0v15H8.5z"/>
</svg>