<?xml version="1.0" encoding="UTF-8"?>
<!DOCTYPE svg PUBLIC "-//W3C//DTD SVG 1.1 Tiny//EN" "http://www.w3.org/Graphics/SVG/1.1/DTD/svg11-tiny.dtd">
<svg width="34" height="86" viewBox="0 0 34 86">
<rect width="34" height="86"/>
<path fill="#FFFFFF" d="M12.043,43.029l-2.012-2.014l2.012-2.01h9.861l2.012,2.01l-2.012,2.014H12.043z"/>
<path fill="#FFFFFF" d="M12.041,36.694l-4.023,4.022V13.96l4.023,4.025V36.694z M12.041,65.875l-4.023,4.023V41.08l4.023,4.023 V65.875z M12.373,15.968l-4.025-4.021h17.318l-4.023,4.021H12.373z M21.643,67.92l4.023,4.023H8.348l4.025-4.023H21.643z M21.992,17.985l4.023-4.025v26.757l-4.023-4.022V17.985z M21.992,45.104l4.023-4.023v28.818l-4.023-4.023V45.104z"/>
</svg>