<?xml version="1.0" encoding="UTF-8"?>
<!DOCTYPE svg PUBLIC "-//W3C//DTD SVG 1.1 Tiny//EN" "http://www.w3.org/Graphics/SVG/1.1/DTD/svg11-tiny.dtd">
<svg baseProfile="tiny" height="12" version="1.1" viewBox="0 0 12 12" width="12" xmlns="http://www.w3.org/2000/svg" xmlns:xlink="http://www.w3.org/1999/xlink">
<g>
<rect fill="none" height="12" width="12"/>
<g>
<linearGradient gradientTransform="matrix(0 1 1 0 317.9258 -317.9268)" gradientUnits="userSpaceOnUse" id="XMLID_4_" x1="319.9268" x2="327.9268" y1="-310.4258" y2="-310.4258">
<stop offset="0" style="stop-color:#788FB8"/>
<stop offset="1" style="stop-color:#235487"/>
</linearGradient>
<path d="M3,8.779V3.219C3,2.547,3.538,2,4.199,2H12v8H4.199C3.538,10,3,9.451,3,8.779z" fill="url(#XMLID_4_)" fill-opacity="0.7" stroke-opacity="0.7"/>
<path d="M3.5,8.654V3.344C3.5,2.877,3.872,2.5,4.328,2.5H12v7H4.328C3.872,9.5,3.5,9.121,3.5,8.654z" fill="#A2C2DD"/>
<linearGradient gradientTransform="matrix(0 1 1 0 317.9258 -317.9268)" gradientUnits="userSpaceOnUse" id="XMLID_5_" x1="308.8643" x2="340.4892" y1="-310.0508" y2="-310.0508">
<stop offset="0" style="stop-color:#FFFFFF"/>
<stop offset="0.1142" style="stop-color:#E0EAF3"/>
<stop offset="0.35" style="stop-color:#A2C2DD"/>
<stop offset="0.4825" style="stop-color:#8CA9CF"/>
<stop offset="0.7" style="stop-color:#6C83BB"/>
<stop offset="0.7458" style="stop-color:#637DB5"/>
<stop offset="0.8189" style="stop-color:#4C6EA4"/>
<stop offset="0.9097" style="stop-color:#265689"/>
<stop offset="0.9888" style="stop-color:#003D6D"/>
<stop offset="1" style="stop-color:#003D6D"/>
</linearGradient>
<path d="M3.75,8.654V3.344c0-0.328,0.26-0.594,0.578-0.594H12v6.5H4.328    C4.01,9.25,3.75,8.982,3.75,8.654z" fill="url(#XMLID_5_)" fill-opacity="0.6" stroke-opacity="0.6"/>
<linearGradient gradientTransform="matrix(0 1 1 0 317.9258 -317.9268)" gradientUnits="userSpaceOnUse" id="XMLID_6_" x1="320.9219" x2="327.7617" y1="-309.9258" y2="-309.9258">
<stop offset="0" style="stop-color:#E1EBF4"/>
<stop offset="0.4944" style="stop-color:#CEE1EF"/>
<stop offset="1" style="stop-color:#C5CEEF"/>
</linearGradient>
<path d="M4,8.154V3.842C4,3.516,4.26,3.25,4.578,3.25H12v5.5H4.578C4.26,8.75,4,8.482,4,8.154z" fill="url(#XMLID_6_)"/>
<path d="M3.75,3.344c0-0.328,0.26-0.594,0.578-0.594H12V6H3.75V3.344z" fill="#FFFFFF" fill-opacity="0.5" stroke-opacity="0.5"/>
</g>
</g>
</svg>
