<?xml version="1.0" encoding="UTF-8"?>
<!DOCTYPE svg PUBLIC "-//W3C//DTD SVG 1.1 Tiny//EN" "http://www.w3.org/Graphics/SVG/1.1/DTD/svg11-tiny.dtd">
<svg baseProfile="tiny" height="124" viewBox="0 0 268 124" width="268" xmlns="http://www.w3.org/2000/svg" xmlns:xlink="http://www.w3.org/1999/xlink">
<g>
<g>
<path d="M8,0C3.589,0,0,3.589,0,8v108c0,4.411,3.589,8,8,8h252c4.411,0,8-3.589,8-8V8      c0-4.411-3.589-8-8-8H8z" fill-opacity="0.01" stroke-opacity="0.01"/>
<path d="M8,1C4.14,1,1,4.141,1,8v108c0,3.859,3.14,7,7,7h252c3.859,0,7-3.141,7-7V8      c0-3.859-3.141-7-7-7H8z" fill-opacity="0.02" stroke-opacity="0.02"/>
<path d="M8,2C4.691,2,2,4.691,2,8v108c0,3.309,2.691,6,6,6h252c3.309,0,6-2.691,6-6V8      c0-3.309-2.691-6-6-6H8z" fill-opacity="0.04" stroke-opacity="0.04"/>
<path d="M8,3C5.243,3,3,5.243,3,8v108c0,2.757,2.243,5,5,5h252c2.757,0,5-2.243,5-5V8      c0-2.757-2.243-5-5-5H8z" fill-opacity="0.07" stroke-opacity="0.07"/>
<path d="M8,4C5.794,4,4,5.794,4,8v108c0,2.206,1.794,4,4,4h252c2.206,0,4-1.794,4-4V8      c0-2.206-1.794-4-4-4H8z" fill-opacity="0.11" stroke-opacity="0.11"/>
<path d="M263,116c0,1.657-1.343,3-3,3H8c-1.657,0-3-1.343-3-3V8c0-1.657,1.343-3,3-3h252      c1.657,0,3,1.343,3,3V116z" fill-opacity="0.13" stroke-opacity="0.13"/>
<polygon fill-opacity="0.1" points="262,3 3,3 3,119 263,119 263,3 " stroke-opacity="0.1"/>
<polygon fill="#FFFFFF" points="261.008,4 4,4 4,118 262,118 262,4 "/>
<rect fill="#E3F5FF" height="113" width="257" x="5" y="5"/>
<rect fill="#F0FAFF" height="111" width="255" x="6" y="6"/>
<rect fill="none" height="124" width="268"/>
</g>
</g>
</svg>
