<?xml version="1.0" encoding="UTF-8"?>
<!DOCTYPE svg PUBLIC "-//W3C//DTD SVG 1.1 Tiny//EN" "http://www.w3.org/Graphics/SVG/1.1/DTD/svg11-tiny.dtd">
<svg width="44" height="32" viewBox="-0.501 -0.501 44 32">
<path fill="#656B6B" fill-opacity="0.01" d="M7.683,15.675c-3.988,3.984-6.184,9.285-6.184,14.924v0.9h42v-22h-0.975l-10.076-10 h-9.949h-1c0,0,0,8.624,0,10.112C16.276,9.882,11.394,11.967,7.683,15.675z"/>
<path fill="#656B6B" fill-opacity="0.02" d="M43.499,10.499h-1.387l-10.076-10h-9.537c0,0,0,8.405,0,10.01 c-5.33,0.029-10.339,2.105-14.109,5.873c-3.799,3.795-5.891,8.844-5.891,14.217v0.9h41V10.499z"/>
<path fill="#656B6B" fill-opacity="0.03" d="M43.499,11.499h-1.798l-10.077-10h-8.125c0,0,0,8.349,0,10c-0.445,0-0.893,0-0.893,0 c-5.105,0-9.902,1.985-13.512,5.589c-3.607,3.608-5.596,8.405-5.596,13.511v0.9h40V11.499z"/>
<path fill="#656B6B" fill-opacity="0.06" d="M43.499,12.499h-2.211l-10.039-10h-6.75c0,0,0,8.319,0,10c-0.855,0-1.893,0-1.893,0 c-4.838,0-9.385,1.881-12.805,5.298c-3.419,3.417-5.303,7.964-5.303,12.802v0.9h39V12.499z"/>
<path fill="#656B6B" fill-opacity="0.05" d="M43.499,13.499h-2.625l-10-10h-5.375v10h-2.77c-9.447,0-17.23,7.648-17.23,17.1v0.9 h38V13.499z"/>
<path fill="#656B6B" fill-opacity="0.1" d="M43.499,14.499h-3l-10-10h-4v10h-3.77c-9.447,0-16.23,6.648-16.23,16.1v0.9h37V14.499z "/>
<path fill="#656B6B" fill-opacity="0.1" d="M43.499,15.499h-3.375l-10-10h-2.625v10h-4.77c-9.447,0-15.23,5.648-15.23,15.1v0.9h36 V15.499z"/>
<path fill="#656B6B" fill-opacity="0.1" d="M43.499,16.499h-3.875l-10-10h-1.125v10h-4.75c-9.448,0-15.25,4.648-15.25,14.1v0.9h35 V16.499z"/>
<linearGradient id="_2" gradientUnits="userSpaceOnUse" x1="24.5" y1="103" x2="24.5" y2="23">
<stop stop-color="#D9F4E0" offset="0"/>
<stop stop-color="#FFFFFF" offset="1"/>
</linearGradient>
<path fill="url(#_2)" d="M43.499,13.499h-4l-12.001-12h-1.999v12h-2.895c-9.447,0-17.105,7.648-17.105,17.1v0.9h38V13.499z"/>
</svg>