<?xml version="1.0" encoding="UTF-8" standalone="no"?>
<!DOCTYPE svg PUBLIC "-//W3C//DTD SVG 1.1 Tiny//EN" "http://www.w3.org/Graphics/SVG/1.1/DTD/svg11-tiny.dtd">
<svg xmlns="http://www.w3.org/2000/svg" xmlns:xlink="http://www.w3.org/1999/xlink" width="12" height="12" viewBox="-0.047 -1.297 12 12">
<rect fill="none" height="12" width="12" x="-0.047" y="-1.297"/>
<linearGradient id="_3" gradientUnits="userSpaceOnUse" x1="4.45" y1="11.02" x2="4.45" y2="-4.05">
<stop stop-color="#DEE9F3" offset="0"/>
<stop stop-color="#556180" offset="1"/>
</linearGradient>
<path d="M-0.047,7.957v0.746h7.803c0.66,0,1.197-0.548,1.197-1.221V1.922c0-0.672-0.537-1.219-1.197-1.219 h-7.803v0.75h7.334c0.455,0,0.826,0.379,0.826,0.848v4.807c0,0.47-0.371,0.85-0.826,0.85H-0.047z" fill="url(#_3)"/>
<linearGradient id="_4" gradientUnits="userSpaceOnUse" x1="4.03" y1="1.45" x2="4.03" y2="7.96">
<stop stop-color="#B8C4C4" offset="0"/>
<stop stop-color="#C1CCCC" offset="0.11"/>
<stop stop-color="#EEF1F1" offset="0.7"/>
<stop stop-color="#FFFFFF" offset="1"/>
</linearGradient>
<path d="M-0.047,1.453v6.505h7.334c0.455,0,0.826-0.38,0.826-0.851V2.301 c0-0.469-0.371-0.848-0.826-0.848H-0.047z" fill="url(#_4)" fill-opacity="0.6"/>
<path d="M8.953,7.482V1.922c0-0.672-0.538-1.219-1.2-1.219h-7.8v8h7.8 C8.415,8.703,8.953,8.154,8.953,7.482z" fill="#2A3551" fill-opacity="0.3" />
</svg>