<?xml version="1.0" encoding="UTF-8"?>
<!DOCTYPE svg PUBLIC "-//W3C//DTD SVG 1.1 Tiny//EN" "http://www.w3.org/Graphics/SVG/1.1/DTD/svg11-tiny.dtd">
<svg width="12" height="86" viewBox="-0.283 0.065 12 86">
<path fill-opacity="0.03" fill="#DEE9F3" d="M3.763,41.12c-1.054,0-2.02,0.391-2.795,1.13c-0.818,0.788-1.25,1.794-1.25,2.911v3.951 c0,1.097,0.421,2.089,1.218,2.87c0.773,0.765,1.751,1.169,2.828,1.169h3.91c1.077,0,2.059-0.408,2.838-1.182 c0.789-0.77,1.206-1.759,1.206-2.857v-3.951c0-1.118-0.429-2.121-1.239-2.9c-0.783-0.746-1.753-1.141-2.805-1.141H3.763z M3.763,63.056c-1.106,0-2.102,0.418-2.879,1.211c-0.764,0.787-1.167,1.766-1.167,2.83v3.949c0,1.098,0.421,2.09,1.218,2.871 c0.765,0.764,1.745,1.17,2.828,1.17h3.91c1.081,0,2.064-0.41,2.844-1.188c0.783-0.771,1.2-1.76,1.2-2.854v-3.949 c0-1.086-0.417-2.074-1.204-2.857c-0.787-0.775-1.769-1.184-2.84-1.184H3.763z"/>
<path fill-opacity="0.05" fill="#DEE9F3" d="M3.763,41.62c-0.923,0-1.771,0.344-2.452,0.992c-0.717,0.689-1.095,1.57-1.095,2.549v3.951 c0,0.959,0.37,1.828,1.068,2.513c0.68,0.671,1.537,1.026,2.479,1.026h3.91c0.942,0,1.804-0.358,2.487-1.037 c0.691-0.676,1.058-1.541,1.058-2.502v-3.951c0-0.979-0.374-1.857-1.085-2.54c-0.688-0.655-1.539-1.001-2.46-1.001H3.763z M3.763,63.556c-0.97,0-1.843,0.367-2.522,1.061c-0.67,0.691-1.025,1.547-1.025,2.48v3.949c0,0.959,0.37,1.828,1.068,2.514 c0.672,0.672,1.531,1.027,2.479,1.027h3.91c0.946,0,1.808-0.359,2.493-1.041c0.688-0.678,1.052-1.543,1.052-2.5v-3.949 c0-0.951-0.364-1.814-1.056-2.502c-0.691-0.68-1.551-1.039-2.489-1.039H3.763z"/>
<path fill-opacity="0.07" fill="#DEE9F3" d="M3.763,42.12c-0.792,0-1.521,0.296-2.109,0.855c-0.616,0.592-0.939,1.347-0.939,2.186v3.951 c0,0.821,0.317,1.566,0.917,2.155c0.584,0.578,1.323,0.884,2.131,0.884h3.91c0.809,0,1.547-0.309,2.137-0.893 c0.595-0.581,0.91-1.324,0.91-2.146v-3.951c0-0.839-0.321-1.593-0.932-2.179c-0.592-0.564-1.324-0.862-2.115-0.862H3.763z M3.763,64.056c-0.833,0-1.583,0.314-2.168,0.912c-0.577,0.594-0.88,1.33-0.88,2.129v3.949c0,0.822,0.317,1.568,0.917,2.156 c0.579,0.578,1.317,0.885,2.131,0.885h3.91c0.813,0,1.553-0.311,2.141-0.896c0.593-0.582,0.906-1.324,0.906-2.145v-3.949 c0-0.814-0.313-1.557-0.908-2.146c-0.596-0.586-1.334-0.895-2.139-0.895H3.763z"/>
<path fill-opacity="0.09" fill="#DEE9F3" d="M3.763,42.62c-0.662,0-1.274,0.248-1.767,0.718c-0.512,0.494-0.783,1.124-0.783,1.823v3.951 c0,0.684,0.265,1.305,0.768,1.797c0.491,0.485,1.106,0.742,1.782,0.742h3.91c0.674,0,1.291-0.259,1.786-0.748 c0.497-0.486,0.762-1.106,0.762-1.791v-3.951c0-0.699-0.269-1.328-0.777-1.818C8.944,42.87,8.335,42.62,7.673,42.62H3.763z M3.763,64.556c-0.695,0-1.322,0.264-1.813,0.762c-0.483,0.498-0.736,1.113-0.736,1.779v3.949c0,0.684,0.265,1.307,0.768,1.799 c0.485,0.484,1.103,0.742,1.782,0.742h3.91c0.678,0,1.295-0.26,1.788-0.75c0.497-0.488,0.76-1.109,0.76-1.791v-3.949 c0-0.678-0.263-1.297-0.76-1.791c-0.499-0.492-1.116-0.75-1.788-0.75H3.763z"/>
<path fill-opacity="0.11" fill="#DEE9F3" d="M3.763,43.12c-0.532,0-1.024,0.201-1.424,0.58c-0.411,0.396-0.627,0.9-0.627,1.461v3.951 c0,0.546,0.214,1.044,0.618,1.439c0.396,0.393,0.892,0.6,1.434,0.6h3.91c0.541,0,1.036-0.209,1.436-0.604 c0.399-0.392,0.613-0.889,0.613-1.436v-3.951c0-0.561-0.216-1.064-0.623-1.457c-0.403-0.383-0.895-0.584-1.426-0.584H3.763z M3.763,65.056c-0.559,0-1.063,0.213-1.457,0.613c-0.39,0.4-0.594,0.895-0.594,1.428v3.949c0,0.547,0.214,1.045,0.618,1.441 c0.392,0.391,0.888,0.6,1.434,0.6h3.91c0.541,0,1.04-0.209,1.438-0.605c0.399-0.395,0.611-0.891,0.611-1.436v-3.949 c0-0.541-0.212-1.039-0.611-1.438c-0.403-0.395-0.9-0.604-1.438-0.604H3.763z"/>
<path fill-opacity="0.13" fill="#DEE9F3" d="M3.763,43.62c-0.403,0-0.775,0.153-1.079,0.442c-0.31,0.299-0.473,0.679-0.473,1.099v3.951 c0,0.408,0.162,0.782,0.467,1.082c0.306,0.303,0.672,0.457,1.085,0.457h3.91c0.413,0,0.777-0.154,1.085-0.459 c0.304-0.297,0.466-0.672,0.466-1.08v-3.951c0-0.421-0.164-0.801-0.472-1.097c-0.306-0.291-0.678-0.444-1.079-0.444H3.763z M3.763,65.556c-0.422,0-0.804,0.16-1.101,0.463c-0.296,0.305-0.452,0.678-0.452,1.078v3.949c0,0.408,0.162,0.783,0.467,1.084 c0.304,0.303,0.67,0.457,1.085,0.457h3.91c0.409,0,0.783-0.16,1.087-0.461c0.302-0.299,0.464-0.672,0.464-1.08v-3.949 c0-0.406-0.16-0.779-0.466-1.082c-0.306-0.301-0.68-0.459-1.085-0.459H3.763z"/>
<linearGradient id="_2" gradientUnits="userSpaceOnUse" x1="5.72" y1="4.33" x2="5.72" y2="66.34">
<stop stop-color="#87A8CB" offset="0"/>
<stop stop-color="#235487" offset="1"/>
</linearGradient>
<path fill="url(#_2)" d="M3.763,50.151c-0.278,0-0.524-0.104-0.736-0.314c-0.212-0.209-0.317-0.451-0.317-0.725v-3.951 c0-0.285,0.105-0.531,0.317-0.736c0.212-0.201,0.458-0.305,0.736-0.305h3.91c0.276,0,0.521,0.104,0.734,0.305 c0.212,0.205,0.317,0.451,0.317,0.736v3.951c0,0.273-0.105,0.516-0.317,0.725c-0.213,0.211-0.458,0.314-0.734,0.314H3.763z M3.763,72.087c-0.278,0-0.524-0.104-0.736-0.314c-0.212-0.209-0.317-0.451-0.317-0.727v-3.949c0-0.273,0.104-0.516,0.308-0.727 c0.205-0.209,0.454-0.314,0.746-0.314h3.91c0.276,0,0.521,0.105,0.734,0.314c0.212,0.211,0.317,0.453,0.317,0.727v3.949 c0,0.275-0.105,0.518-0.317,0.727c-0.213,0.211-0.458,0.314-0.734,0.314H3.763z"/>
</svg>