<?xml version="1.0" encoding="UTF-8" standalone="no"?>
<!DOCTYPE svg PUBLIC "-//W3C//DTD SVG 1.1 Tiny//EN" "http://www.w3.org/Graphics/SVG/1.1/DTD/svg11-tiny.dtd">
<svg xmlns="http://www.w3.org/2000/svg" xmlns:xlink="http://www.w3.org/1999/xlink" width="12" height="12" viewBox="-1 -1 12 12">
<rect fill="none" height="12" width="12" x="-1" y="-1"/>
<linearGradient id="_4" gradientUnits="userSpaceOnUse" x1="1" y1="2.94" x2="9" y2="2.94">
<stop stop-color="#788FB8" offset="0"/>
<stop stop-color="#235487" offset="1"/>
</linearGradient>
<path d="M1,5.676c0,0.662,0.547,1.199,1.219,1.199h5.561C8.451,6.875,9,6.338,9,5.676V-1 H1V5.676z" fill="url(#_4)" fill-opacity="0.7"/>
<path d="M7.779,6.875H2.219C1.547,6.875,1,6.338,1,5.676v0.563C1,6.9,1.547,7.438,2.219,7.438h5.561 C8.451,7.438,9,6.9,9,6.238V5.676C9,6.338,8.451,6.875,7.779,6.875z" fill-opacity="0.2"/>
<path d="M7.779,7.438H2.219C1.547,7.438,1,6.9,1,6.238v0.563C1,7.463,1.547,8,2.219,8h5.561 C8.451,8,9,7.463,9,6.801V6.238C9,6.9,8.451,7.438,7.779,7.438z" fill-opacity="0.09"/>
<path d="M1.5,5.453c0,0.457,0.377,0.826,0.844,0.826h5.311C8.121,6.279,8.5,5.91,8.5,5.453V-1h-7V5.453z" fill="#A2C2DD"/>
<linearGradient id="_5" gradientUnits="userSpaceOnUse" x1="-10.06" y1="2.51" x2="21.56" y2="2.51">
<stop stop-color="#FFFFFF" offset="0"/>
<stop stop-color="#E0EAF3" offset="0.11"/>
<stop stop-color="#A2C2DD" offset="0.35"/>
<stop stop-color="#8CA9CF" offset="0.48"/>
<stop stop-color="#6C83BB" offset="0.7"/>
<stop stop-color="#637DB5" offset="0.75"/>
<stop stop-color="#4C6EA4" offset="0.82"/>
<stop stop-color="#265689" offset="0.91"/>
<stop stop-color="#003D6D" offset="0.99"/>
</linearGradient>
<path d="M1.75,5.453c0,0.152,0.061,0.297,0.172,0.404 c0.111,0.111,0.262,0.172,0.422,0.172h5.311c0.16,0,0.312-0.061,0.423-0.172C8.188,5.75,8.25,5.605,8.25,5.453V-1h-6.5V5.453z" fill="url(#_5)" fill-opacity="0.6"/>
<linearGradient id="_6" gradientUnits="userSpaceOnUse" x1="2" y1="2.39" x2="8.83" y2="2.39">
<stop stop-color="#E1EBF4" offset="0"/>
<stop stop-color="#CEE1EF" offset="0.49"/>
<stop stop-color="#C5CEEF" offset="1"/>
</linearGradient>
<path d="M2.25,5.203c0,0.152,0.061,0.297,0.172,0.404c0.111,0.108,0.262,0.17,0.42,0.17h4.313 c0.16,0,0.312-0.062,0.423-0.17C7.688,5.5,7.75,5.355,7.75,5.203V-1h-5.5V5.203z" fill="url(#_6)"/>
<path d="M1.75,5.453c0,0.152,0.061,0.297,0.172,0.404c0.111,0.111,0.262,0.172,0.422,0.172H5V-1 H1.75V5.453z" fill="#FFFFFF" fill-opacity="0.5"/>
<path d="M1,5.676c0,0.662,0.547,1.199,1.219,1.199h5.561 C8.451,6.875,9,6.338,9,5.676V-1H1V5.676z" fill="#13203F" fill-opacity="0.3" />
</svg>