<?xml version="1.0" encoding="UTF-8"?>
<!DOCTYPE svg PUBLIC "-//W3C//DTD SVG 1.1 Tiny//EN" "http://www.w3.org/Graphics/SVG/1.1/DTD/svg11-tiny.dtd">
<svg baseProfile="tiny" version="1.1" xmlns="http://www.w3.org/2000/svg" xmlns:xlink="http://www.w3.org/1999/xlink" width="264" height="32" viewBox="-0.5 0.5 264 32">
<g>
<g>
<path fill="#656B6B" fill-opacity="0.01" d="M-0.5,0.5v29c56.896,0,212.402,0,264,0v-29H-0.5z"/>
<path fill="#656B6B" fill-opacity="0.02" d="M-0.5,0.5v28c56.875,0,212.4,0,264,0v-28H-0.5z"/>
<path fill="#656B6B" fill-opacity="0.03" d="M-0.5,0.5v27c56.796,0,212.387,0,264,0v-27H-0.5z"/>
<path fill="#656B6B" fill-opacity="0.06" d="M-0.5,0.5v26c56.624,0,212.355,0,264,0v-26H-0.5z"/>
<rect x="-0.5" y="0.5" fill="#656B6B" fill-opacity="0.05" width="264" height="25"/>
<rect x="-0.5" y="0.5" fill="#656B6B" fill-opacity="0.1" width="264" height="24"/>
<path fill="#656B6B" fill-opacity="0.1" d="M-0.5,0.5v23c54.593,0,212.012,0,264,0v-23H-0.5z"/>
<rect x="-0.5" y="0.5" fill="#656B6B" fill-opacity="0.1" width="264" height="22"/>
<rect x="-0.5" y="0.5" fill="#FFFFFF" fill-opacity="0.8" width="264" height="21"/>
<rect x="-0.5" y="0.5" fill="none" width="264" height="32"/>
</g>
</g>
</svg>
