<?xml version="1.0" encoding="UTF-8"?>
<!DOCTYPE svg PUBLIC "-//W3C//DTD SVG 1.1 Tiny//EN" "http://www.w3.org/Graphics/SVG/1.1/DTD/svg11-tiny.dtd">
<svg baseProfile="tiny" height="22" version="1.1" viewBox="0 0 330 22" width="330" xmlns="http://www.w3.org/2000/svg" xmlns:xlink="http://www.w3.org/1999/xlink">
<g>
<g>
<path d="M2,8.023V4H0v8C0,10.37,0.793,8.936,2,8.023z" fill="#CADCEC" fill-opacity="0.6" stroke-opacity="0.6"/>
<path d="M329,17c-2.762,0-5-2.238-5-5c0-1.63,0.793-3.065,2-3.977V4h-12v4.022    c1.208,0.913,2,2.347,2,3.978c0,2.762-2.238,5-5,5s-5-2.238-5-5c0-1.63,0.793-3.065,2-3.977V4h-12v4.022    c1.208,0.913,2,2.347,2,3.978c0,2.762-2.238,5-5,5s-5-2.238-5-5c0-1.63,0.793-3.065,2-3.977V4h-12v4.022    c1.208,0.913,2,2.347,2,3.978c0,2.762-2.238,5-5,5s-5-2.238-5-5c0-1.63,0.793-3.065,2-3.977V4h-12v4.022    c1.208,0.913,2,2.347,2,3.978c0,2.762-2.238,5-5,5s-5-2.238-5-5c0-1.63,0.793-3.065,2-3.977V4h-12v4.022    c1.208,0.913,2,2.347,2,3.978c0,2.762-2.238,5-5,5s-5-2.238-5-5c0-1.63,0.793-3.065,2-3.977V4h-12v4.022    c1.208,0.913,2,2.347,2,3.978c0,2.762-2.238,5-5,5s-5-2.238-5-5c0-1.63,0.793-3.065,2-3.977V4h-12v4.022    c1.208,0.913,2,2.347,2,3.978c0,2.762-2.238,5-5,5s-5-2.238-5-5c0-1.63,0.793-3.065,2-3.977V4h-12v4.022    c1.208,0.913,2,2.347,2,3.978c0,2.762-2.238,5-5,5s-5-2.238-5-5c0-1.63,0.793-3.065,2-3.977V4h-12v4.022    c1.208,0.913,2,2.347,2,3.978c0,2.762-2.238,5-5,5s-5-2.238-5-5c0-1.63,0.793-3.065,2-3.977V4h-12v4.022    c1.208,0.913,2,2.347,2,3.978c0,2.762-2.238,5-5,5s-5-2.238-5-5c0-1.63,0.793-3.065,2-3.977V4h-12v4.022    c1.208,0.913,2,2.347,2,3.978c0,2.762-2.238,5-5,5s-5-2.238-5-5c0-1.63,0.793-3.065,2-3.977V4h-12v4.022    c1.208,0.913,2,2.347,2,3.978c0,2.762-2.238,5-5,5s-5-2.238-5-5c0-1.63,0.793-3.065,2-3.977V4H98v4.022    c1.208,0.913,2,2.347,2,3.978c0,2.762-2.238,5-5,5s-5-2.238-5-5c0-1.63,0.793-3.065,2-3.977V4H80v4.022    c1.208,0.913,2,2.347,2,3.978c0,2.762-2.238,5-5,5s-5-2.238-5-5c0-1.63,0.793-3.065,2-3.977V4H62v4.022    c1.208,0.913,2,2.347,2,3.978c0,2.762-2.238,5-5,5s-5-2.238-5-5c0-1.63,0.793-3.065,2-3.977V4H44v4.022    c1.208,0.913,2,2.347,2,3.978c0,2.762-2.238,5-5,5s-5-2.238-5-5c0-1.63,0.793-3.065,2-3.977V4H26v4.022    c1.208,0.913,2,2.347,2,3.978c0,2.762-2.238,5-5,5s-5-2.238-5-5c0-1.63,0.793-3.065,2-3.977V4H8v4.022    c1.208,0.913,2,2.347,2,3.978c0,2.762-2.238,5-5,5s-5-2.238-5-5v10h330v-5.102C329.677,16.965,329.343,17,329,17z" fill="url(#XMLID_2_)" fill-opacity="0.6" stroke-opacity="0.6"/>
<defs>
<linearGradient gradientUnits="userSpaceOnUse" id="XMLID_2_" x1="165.0005" x2="165.0005" y1="269.8608" y2="21.8604">
<stop offset="0" style="stop-color:#FFFFFF"/>
<stop offset="1" style="stop-color:#CADCEC"/>
</linearGradient>
</defs>
</g>
<g>
<rect fill="none" height="22" width="330"/>
</g>
<path d="M108,12c0,2.166,1.386,3.992,3.313,4.688C111.122,16.159,111,15.595,111,15   c0-1.631,0.793-3.064,2-3.977V7h-3v1.023C108.793,8.936,108,10.37,108,12z" fill="#496DA2" fill-opacity="0.4" stroke-opacity="0.4"/>
<path d="M162,12c0,2.166,1.386,3.992,3.313,4.688C165.122,16.159,165,15.595,165,15   c0-1.631,0.793-3.064,2-3.977V7h-3v1.023C162.793,8.936,162,10.37,162,12z" fill="#496DA2" fill-opacity="0.4" stroke-opacity="0.4"/>
<path d="M198,12c0,2.166,1.386,3.992,3.313,4.688C201.122,16.159,201,15.595,201,15   c0-1.631,0.793-3.064,2-3.977V7h-3v1.023C198.793,8.936,198,10.37,198,12z" fill="#496DA2" fill-opacity="0.4" stroke-opacity="0.4"/>
<path d="M126,12c0,2.166,1.386,3.992,3.313,4.688C129.122,16.159,129,15.595,129,15   c0-1.631,0.793-3.064,2-3.977V7h-3v1.023C126.793,8.936,126,10.37,126,12z" fill="#496DA2" fill-opacity="0.4" stroke-opacity="0.4"/>
<path d="M216,12c0,2.166,1.386,3.992,3.313,4.688C219.122,16.159,219,15.595,219,15   c0-1.631,0.793-3.064,2-3.977V7h-3v1.023C216.793,8.936,216,10.37,216,12z" fill="#496DA2" fill-opacity="0.4" stroke-opacity="0.4"/>
<path d="M144,12c0,2.166,1.386,3.992,3.313,4.688C147.122,16.159,147,15.595,147,15   c0-1.631,0.793-3.064,2-3.977V7h-3v1.023C144.793,8.936,144,10.37,144,12z" fill="#496DA2" fill-opacity="0.4" stroke-opacity="0.4"/>
<path d="M180,12c0,2.166,1.386,3.992,3.313,4.688C183.122,16.159,183,15.595,183,15   c0-1.631,0.793-3.064,2-3.977V7h-3v1.023C180.793,8.936,180,10.37,180,12z" fill="#496DA2" fill-opacity="0.4" stroke-opacity="0.4"/>
<path d="M234,12c0,2.166,1.386,3.992,3.313,4.688C237.122,16.159,237,15.595,237,15   c0-1.631,0.793-3.064,2-3.977V7h-3v1.023C234.793,8.936,234,10.37,234,12z" fill="#496DA2" fill-opacity="0.4" stroke-opacity="0.4"/>
<path d="M324,12c0,2.162,1.382,3.988,3.304,4.684C327.114,16.157,327,15.594,327,15   c0-1.631,0.793-3.064,2-3.977V7h-3v1.023C324.793,8.936,324,10.37,324,12z" fill="#496DA2" fill-opacity="0.4" stroke-opacity="0.4"/>
<path d="M288,12c0,2.166,1.386,3.992,3.313,4.688C291.122,16.159,291,15.595,291,15   c0-1.631,0.793-3.064,2-3.977V7h-3v1.023C288.793,8.936,288,10.37,288,12z" fill="#496DA2" fill-opacity="0.4" stroke-opacity="0.4"/>
<path d="M306,12c0,2.166,1.386,3.992,3.313,4.688C309.122,16.159,309,15.595,309,15   c0-1.631,0.793-3.064,2-3.977V7h-3v1.023C306.793,8.936,306,10.37,306,12z" fill="#496DA2" fill-opacity="0.4" stroke-opacity="0.4"/>
<path d="M252,12c0,2.166,1.386,3.992,3.313,4.688C255.122,16.159,255,15.595,255,15   c0-1.631,0.793-3.064,2-3.977V7h-3v1.023C252.793,8.936,252,10.37,252,12z" fill="#496DA2" fill-opacity="0.4" stroke-opacity="0.4"/>
<path d="M270,12c0,2.166,1.386,3.992,3.313,4.688C273.122,16.159,273,15.595,273,15   c0-1.631,0.793-3.064,2-3.977V7h-3v1.023C270.793,8.936,270,10.37,270,12z" fill="#496DA2" fill-opacity="0.4" stroke-opacity="0.4"/>
<path d="M36,12c0,2.166,1.386,3.992,3.313,4.688C39.122,16.159,39,15.595,39,15   c0-1.631,0.793-3.064,2-3.977V7h-3v1.023C36.793,8.936,36,10.37,36,12z" fill="#496DA2" fill-opacity="0.4" stroke-opacity="0.4"/>
<path d="M72,12c0,2.166,1.386,3.992,3.313,4.688C75.122,16.159,75,15.595,75,15   c0-1.631,0.793-3.064,2-3.977V7h-3v1.023C72.793,8.936,72,10.37,72,12z" fill="#496DA2" fill-opacity="0.4" stroke-opacity="0.4"/>
<path d="M54,12c0,2.166,1.386,3.992,3.313,4.688C57.122,16.159,57,15.595,57,15   c0-1.631,0.793-3.064,2-3.977V7h-3v1.023C54.793,8.936,54,10.37,54,12z" fill="#496DA2" fill-opacity="0.4" stroke-opacity="0.4"/>
<path d="M3.313,16.688C3.122,16.159,3,15.595,3,15c0-1.631,0.793-3.064,2-3.977V7H2v1.023   C0.793,8.936,0,10.37,0,12C0,14.167,1.386,15.993,3.313,16.688z" fill="#496DA2" fill-opacity="0.4" stroke-opacity="0.4"/>
<path d="M18,12c0,2.166,1.386,3.992,3.313,4.688C21.122,16.159,21,15.595,21,15   c0-1.631,0.793-3.064,2-3.977V7h-3v1.023C18.793,8.936,18,10.37,18,12z" fill="#496DA2" fill-opacity="0.4" stroke-opacity="0.4"/>
<path d="M90,12c0,2.166,1.386,3.992,3.313,4.688C93.122,16.159,93,15.595,93,15   c0-1.631,0.793-3.064,2-3.977V7h-3v1.023C90.793,8.936,90,10.37,90,12z" fill="#496DA2" fill-opacity="0.4" stroke-opacity="0.4"/>
</g>
</svg>
