<?xml version="1.0" encoding="UTF-8" standalone="no"?>
<!DOCTYPE svg PUBLIC "-//W3C//DTD SVG 1.1 Tiny//EN" "http://www.w3.org/Graphics/SVG/1.1/DTD/svg11-tiny.dtd">
<svg xmlns="http://www.w3.org/2000/svg" xmlns:xlink="http://www.w3.org/1999/xlink" width="8" height="8" viewBox="0 0 8 8">
<rect fill="none" height="8" width="8"/>
<path d="M5.73,8H0V7.001h5.73c0.695,0,1.264-0.563,1.264-1.257V0H8v5.745C8,6.987,6.98,8,5.73,8z" fill="#A41117"/>
<g fill-opacity="0.7" stroke-opacity="0.7">
<linearGradient id="SVGID_1" gradientUnits="userSpaceOnUse" x1="3.5" y1="-41.78" x2="3.5" y2="9.06">
<stop stop-color="#A3161C" offset="0"/>
<stop stop-color="#CC2029" offset="0.68"/>
<stop stop-color="#CF363F" offset="0.78"/>
<stop stop-color="#D76F75" offset="1"/>
</linearGradient>
<path d="M6.994,0v5.745c0,0.693-0.566,1.257-1.264,1.257H0V0H6.994z" fill="url(#SVGID_1)"/>
</g>
<linearGradient id="SVGID_2" gradientUnits="userSpaceOnUse" x1="3.31" y1="-42.68" x2="3.31" y2="37.86">
<stop stop-color="#D76F75" offset="0.48"/>
<stop stop-color="#D87278" offset="0.5"/>
<stop stop-color="#DF8A8F" offset="0.61"/>
<stop stop-color="#E39B9F" offset="0.72"/>
<stop stop-color="#E6A6A9" offset="0.85"/>
<stop stop-color="#E7A9AC" offset="1"/>
</linearGradient>
<path d="M5.99,6.003l0.621,0.622C6.367,6.877,6.08,7.001,5.73,7.001H0V6.003H5.99z" fill="url(#SVGID_2)"/>
<linearGradient id="SVGID_3" gradientUnits="userSpaceOnUse" x1="6.49" y1="1.36" x2="6.49" y2="-42.32">
<stop stop-color="#E7A7AA" offset="0"/>
<stop stop-color="#DD8F92" offset="0.26"/>
<stop stop-color="#CC676C" offset="0.75"/>
<stop stop-color="#C6585D" offset="1"/>
</linearGradient>
<path d="M6.994,5.745c0,0.346-0.143,0.65-0.373,0.871C6.619,6.629,5.99,5.989,5.99,5.989s0-2.393,0-5.989 h1.004V5.745z" fill="url(#SVGID_3)"/>
</svg>