<?xml version="1.0" encoding="UTF-8"?>
<!DOCTYPE svg PUBLIC "-//W3C//DTD SVG 1.1 Tiny//EN" "http://www.w3.org/Graphics/SVG/1.1/DTD/svg11-tiny.dtd">
<svg width="24" height="24" viewBox="-0.5 -0.5 24 24">
<path fill="#656B6B" fill-opacity="0.01" d="M-0.5,17.5h10c6.617,0,12-5.383,12-12v-6h-22V17.5z"/>
<path fill="#656B6B" fill-opacity="0.02" d="M-0.5,16.5h10c6.066,0,11-4.934,11-11v-6h-21V16.5z"/>
<path fill="#656B6B" fill-opacity="0.03" d="M-0.5,15.5h10c5.514,0,10-4.486,10-10v-6h-20V15.5z"/>
<path fill="#656B6B" fill-opacity="0.06" d="M-0.5,14.5h10c4.963,0,9-4.037,9-9v-6h-19V14.5z"/>
<path fill="#656B6B" fill-opacity="0.05" d="M-0.5,13.5h10c4.412,0,8-3.588,8-8v-6h-18V13.5z"/>
<path fill="#656B6B" fill-opacity="0.1" d="M-0.5,12.5h10c3.859,0,7-3.141,7-7v-6h-17V12.5z"/>
<path fill="#656B6B" fill-opacity="0.1" d="M-0.5,11.5h10c3.309,0,6-2.691,6-6v-6h-16V11.5z"/>
<path fill="#656B6B" fill-opacity="0.1" d="M-0.5,10.5h10c2.762,0,5-2.238,5-5v-6h-15V10.5z"/>
<rect x="-0.5" y="-0.5" fill="#656B6B" fill-opacity="0.05" width="15" height="11"/>
<linearGradient id="_8" gradientUnits="userSpaceOnUse" x1="6.51" y1="9.47" x2="6.51" y2="-88.55">
<stop stop-color="#A8C4CC" offset="0"/>
<stop stop-color="#D9F4E0" offset="0.53"/>
<stop stop-color="#FFFFFF" offset="1"/>
</linearGradient>
<rect x="-0.5" y="-0.5" fill="url(#_8)" width="14" height="10"/>
<linearGradient id="_9" gradientUnits="userSpaceOnUse" x1="6.02" y1="8.48" x2="6.02" y2="-87.53">
<stop stop-color="#A8C4CC" offset="0"/>
<stop stop-color="#D9F4E0" offset="0.53"/>
<stop stop-color="#FFFFFF" offset="1"/>
</linearGradient>
<path fill="url(#_9)" d="M-0.5,8.5c8.088,0,12.771,0,13,0c0-0.354,0-3.728,0-9h-13V8.5z"/>
<linearGradient id="_10" gradientUnits="userSpaceOnUse" x1="5.51" y1="7.48" x2="5.51" y2="-86.57">
<stop stop-color="#A8C4CC" offset="0"/>
<stop stop-color="#D9F4E0" offset="0.53"/>
<stop stop-color="#FFFFFF" offset="1"/>
</linearGradient>
<path fill="url(#_10)" d="M-0.5,7.5c7.468,0,11.778,0,12,0c0-0.335,0-3.307,0-8h-12V7.5z"/>
<linearGradient id="_11" gradientUnits="userSpaceOnUse" x1="5.02" y1="6.48" x2="5.02" y2="-85.56">
<stop stop-color="#C4D9D1" offset="0"/>
<stop stop-color="#D9F4E0" offset="0.23"/>
<stop stop-color="#FFFFFF" offset="1"/>
</linearGradient>
<path fill="url(#_11)" d="M-0.5,6.5c6.85,0,10.788,0,11,0c0-0.313,0-2.897,0-7h-11V6.5z"/>
<linearGradient id="_12" gradientUnits="userSpaceOnUse" x1="4.51" y1="5.47" x2="4.51" y2="-84.55">
<stop stop-color="#C4D9D1" offset="0"/>
<stop stop-color="#D9F4E0" offset="0.23"/>
<stop stop-color="#FFFFFF" offset="1"/>
</linearGradient>
<path fill="url(#_12)" d="M-0.5,5.5c6.233,0,9.798,0,10,0c0-0.291,0-2.487,0-6h-10V5.5z"/>
<linearGradient id="_13" gradientUnits="userSpaceOnUse" x1="4.02" y1="4.48" x2="4.02" y2="-83.54">
<stop stop-color="#C4D9D1" offset="0"/>
<stop stop-color="#D9F4E0" offset="0.23"/>
<stop stop-color="#FFFFFF" offset="1"/>
</linearGradient>
<path fill="url(#_13)" d="M-0.5,4.5c5.607,0,8.809,0,9,0c0-0.266,0-2.077,0-5h-9V4.5z"/>
<linearGradient id="_14" gradientUnits="userSpaceOnUse" x1="3.51" y1="3.47" x2="3.51" y2="-82.53">
<stop stop-color="#C4D9D1" offset="0"/>
<stop stop-color="#D9F4E0" offset="0.23"/>
<stop stop-color="#FFFFFF" offset="1"/>
</linearGradient>
<path fill="url(#_14)" d="M-0.5,3.5c4.985,0,7.819,0,8,0c0-0.235,0-1.67,0-4h-8V3.5z"/>
</svg>