<?xml version="1.0" encoding="UTF-8"?>
<!DOCTYPE svg PUBLIC "-//W3C//DTD SVG 1.1 Tiny//EN" "http://www.w3.org/Graphics/SVG/1.1/DTD/svg11-tiny.dtd">
<svg baseProfile="tiny" version="1.1" xmlns="http://www.w3.org/2000/svg" xmlns:xlink="http://www.w3.org/1999/xlink" width="44" height="32" viewBox="-0.5 0.5 44 32">
<g>
<path fill="#656B6B" fill-opacity="0.01" d="M1.5,0.5V6l0.024,0.965c0.323,14.494,8.229,23.877,20.634,24.484L23.09,31.5H43.5v-31 H1.5z"/>
<path fill="#656B6B" fill-opacity="0.02" d="M2.5,0.5V6l0.023,0.939c0.311,13.922,7.854,22.932,19.684,23.51l0.93,0.051H43.5v-30 H2.5z"/>
<path fill="#656B6B" fill-opacity="0.03" d="M3.5,0.5V6l0.023,0.914C3.82,20.264,10.998,28.9,22.256,29.451l0.928,0.049H43.5v-29 H3.5z"/>
<path fill="#656B6B" fill-opacity="0.05" d="M4.5,0.5V6l0.023,0.889c0.284,12.777,7.098,21.041,17.781,21.563l0.924,0.048H43.5v-28 H4.5z"/>
<path fill="#656B6B" fill-opacity="0.06" d="M5.5,0.5V6l0.022,0.863c0.272,12.205,6.722,20.096,16.831,20.59l0.92,0.047H43.5v-27 H5.5z"/>
<path fill="#656B6B" fill-opacity="0.1" d="M6.5,0.5V6l0.021,0.836c0.26,11.635,6.346,19.152,15.881,19.617l0.916,0.047H43.5v-26 H6.5z"/>
<path fill="#656B6B" fill-opacity="0.1" d="M7.5,0.5V6l0.021,0.811c0.246,11.063,5.968,18.207,14.93,18.646l0.912,0.044H43.5v-25 H7.5z"/>
<path fill="#656B6B" fill-opacity="0.1" d="M8.5,0.5V6c0,0.266,0.017,0.525,0.021,0.787c0.213,9.539,4.667,17.215,13.979,17.668 c0.289,0.015,0.564,0.045,0.863,0.045H43.5v-24H8.5z"/>
<path fill="#CADCEC" d="M23,22.5C13.902,22.5,6.5,15.098,6.5,6V0.5h-1V6c0,9.666,7.836,17.5,17.5,17.5h20.5v-1H23z"/>
<path fill="url(#XMLID_2_)" d="M6.5,0.5V6c0,9.098,7.402,16.5,16.5,16.5h20.5v-22H6.5z"/>
<rect x="-0.5" y="0.5" fill="none" width="44" height="32"/>
<defs>
<linearGradient id="XMLID_2_" gradientUnits="userSpaceOnUse" x1="25" y1="142.502" x2="25" y2="7.4982" gradientTransform="matrix(1 0 0 -1 0 31)">
<stop offset="0" style="stop-color:#DEE9F3"/>
<stop offset="0.0962" style="stop-color:#E6EFF6"/>
<stop offset="0.3575" style="stop-color:#F9FBFD"/>
<stop offset="0.5449" style="stop-color:#FFFFFF"/>
<stop offset="0.6689" style="stop-color:#FBFCFE"/>
<stop offset="0.7952" style="stop-color:#EFF4F9"/>
<stop offset="0.922" style="stop-color:#DAE7F2"/>
<stop offset="1" style="stop-color:#CADCEC"/>
</linearGradient>
</defs>
</g>
</svg>
