<?xml version="1.0" encoding="UTF-8"?>
<!DOCTYPE svg PUBLIC "-//W3C//DTD SVG 1.1 Tiny//EN" "http://www.w3.org/Graphics/SVG/1.1/DTD/svg11-tiny.dtd">
<svg width="8" height="64" viewBox="6.491 -2.194 8 64">
<rect x="6.491" y="-2.194" fill-opacity="0.65" fill="#FFFFFF" width="8" height="64"/>
<rect x="6.491" y="58.806" fill-opacity="0.09" width="6" height="1"/>
<rect x="6.491" y="57.806" fill-opacity="0.04" width="6" height="1"/>
<rect x="6.491" y="56.806" fill-opacity="0.01" width="6" height="1"/>
<rect x="6.491" y="-0.194" fill-opacity="0.2" width="6" height="0.999"/>
<rect x="6.491" y="0.805" fill-opacity="0.13" width="6" height="1"/>
<rect x="6.491" y="1.805" fill-opacity="0.08" width="6" height="1"/>
<rect x="6.491" y="2.805" fill-opacity="0.04" width="6" height="1"/>
<rect x="6.491" y="3.806" fill-opacity="0.01" width="6" height="1"/>
<rect fill-opacity="0.09" x="11.491" y="-0.194" width="1" height="60"/>
<rect fill-opacity="0.04" x="10.491" y="-0.194" width="1" height="60"/>
<rect fill-opacity="0.01" x="9.491" y="-0.194" width="1" height="60"/>
<polygon fill-opacity="0.6" fill="#FFFFFF" points="6.491,-0.194 6.491,1.806 10.491,1.806 10.491,57.806 6.491,57.806 6.491,59.806 12.491,59.806 12.491,-0.194 "/>
<polygon fill-opacity="0.7" fill="#87A8CB" points="6.491,-2.194 6.491,-0.194 12.491,-0.194 12.491,59.806 6.491,59.806 6.491,61.806 14.491,61.806 14.491,-2.194 "/>
</svg>