<?xml version="1.0" encoding="UTF-8"?>
<!DOCTYPE svg PUBLIC "-//W3C//DTD SVG 1.1 Tiny//EN" "http://www.w3.org/Graphics/SVG/1.1/DTD/svg11-tiny.dtd">
<svg width="34" height="86" viewBox="-0.224 0.065 34 86">
<path fill-opacity="0.03" fill="#DEE9F3" d="M5.647,7.433L5.647,7.433c-3.078,1.275-5.066,4.25-5.066,7.578v23.345 c0,2.446,1.168,4.701,3.17,6.276c0.404,0.914,0.861,1.659,1.412,2.211l1.014,1.015c1.553,1.55,3.611,2.402,5.799,2.402 c0,0,1.479,0,2.602,0c0,2.065,0,15.368,0,15.368c0,2.189,0.854,4.25,2.402,5.799l2.023,2.023c2.354,2.352,5.859,3.051,8.934,1.779 c3.078-1.275,5.066-4.25,5.066-7.578V43.736c0-0.842-0.229-1.737-0.607-2.69c0.379-0.953,0.607-1.849,0.607-2.69V15.011 c0-3.328-1.986-6.303-5.063-7.576c-3.07-1.271-6.576-0.576-8.93,1.771l-0.094,0.109l-1.896,1.881 c-0.082,0.082-0.145,0.205-0.223,0.292c-0.068-0.073-0.123-0.183-0.193-0.253l-2.023-2.023C12.228,6.86,8.72,6.161,5.647,7.433z"/>
<path fill-opacity="0.05" fill="#DEE9F3" d="M6.106,8.542L6.106,8.542c-2.627,1.089-4.324,3.628-4.324,6.469v23.345 c0,2.198,1.111,4.227,2.943,5.55c0.35,0.857,0.762,1.564,1.287,2.09l1.014,1.014c1.324,1.322,3.082,2.051,4.949,2.051 c0,0,2.416,0,3.803,0c0,2.086,0,16.568,0,16.568c0,1.869,0.729,3.627,2.051,4.949l2.021,2.023c2.01,2.01,5.004,2.605,7.627,1.52 c2.629-1.09,4.326-3.629,4.326-6.469V43.736c0-0.886-0.26-1.776-0.678-2.69c0.418-0.914,0.678-1.805,0.678-2.69V15.011 c0-2.842-1.697-5.38-4.322-6.467c-2.621-1.085-5.613-0.492-7.623,1.512c-0.031,0.092-2.002,2.002-2.002,2.002 c-0.424,0.424-0.764,0.899-1.061,1.396c-0.295-0.488-0.627-0.956-1.039-1.368l-2.023-2.024C11.724,8.053,8.729,7.456,6.106,8.542z"/>
<path fill-opacity="0.07" fill="#DEE9F3" d="M6.565,9.651H6.563c-2.176,0.902-3.582,3.006-3.582,5.359v23.345 c0,1.968,1.049,3.745,2.719,4.81c0.287,0.799,0.654,1.475,1.162,1.982l1.012,1.013c1.098,1.096,2.555,1.699,4.102,1.699 c0,0,3.441,0,5.002,0c0,2.106,0,17.769,0,17.769c0,1.549,0.604,3.006,1.699,4.102l2.023,2.023c1.664,1.664,4.145,2.158,6.318,1.258 c2.178-0.902,3.584-3.006,3.584-5.359V43.736c0-0.949-0.309-1.85-0.77-2.69c0.461-0.842,0.77-1.741,0.77-2.69V15.011 c0-2.354-1.404-4.457-3.58-5.357c-2.172-0.9-4.652-0.408-6.316,1.252c-0.029,0.027-0.02,0.072-0.043,0.104 c-0.379,0.367-1.973,1.91-1.973,1.91c-1.109,1.11-1.713,2.566-1.713,4.115c0,0,0,15.104,0,17.2c-0.182,0-0.189,0-0.371,0 c0-2.097,0-17.2,0-17.2c0-1.549-0.604-3.006-1.699-4.102l-2.023-2.023C11.22,9.245,8.739,8.751,6.565,9.651z"/>
<path fill-opacity="0.09" fill="#DEE9F3" d="M7.024,10.76c-0.002,0-0.002,0.001-0.002,0.001c-1.725,0.715-2.84,2.383-2.84,4.25v23.345 c0,1.729,0.982,3.255,2.494,4.043c0.213,0.733,0.527,1.394,1.035,1.901l1.012,1.012c0.869,0.869,2.025,1.348,3.252,1.348 c0,0,4.463,0,6.203,0c0,1.639,0,18.969,0,18.969c0,1.229,0.479,2.383,1.348,3.252l2.021,2.025c1.32,1.318,3.289,1.711,5.014,0.996 c1.727-0.715,2.842-2.383,2.842-4.25V43.736c0-0.989-0.334-1.915-0.908-2.69c0.574-0.775,0.908-1.702,0.908-2.69V15.011 c0-1.867-1.115-3.535-2.84-4.25c-1.723-0.713-3.689-0.323-5.012,0.994c0.004-0.004,0.18-0.111,0.184-0.115l-2.209,2.142 c-0.869,0.87-1.348,2.024-1.348,3.253c0,0,0,16.77,0,18.4c-1.006,0-1.768,0-2.771,0c0-1.631,0-18.4,0-18.4 c0-1.229-0.479-2.383-1.348-3.252l-2.023-2.025C10.716,10.438,8.749,10.046,7.024,10.76z"/>
<path fill-opacity="0.11" fill="#DEE9F3" d="M7.481,11.868L7.481,11.868c-1.275,0.529-2.1,1.763-2.1,3.143v23.345 c0,1.38,0.824,2.612,2.1,3.141c0,0,0.086,0.015,0.178,0.03c0.104,0.721,0.377,1.4,0.9,1.924l1.012,1.013 c0.643,0.642,1.496,0.996,2.404,0.996c0,0,5.318,0,7.463,0c-0.01,0.103-0.061,0.196-0.061,0.301v19.868 c0,0.908,0.354,1.762,0.996,2.404l2.023,2.023c0.975,0.975,2.43,1.266,3.705,0.738c1.275-0.529,2.1-1.764,2.1-3.143V43.736 c0-1.081-0.516-2.058-1.348-2.69c0.832-0.633,1.348-1.61,1.348-2.69V15.011c0-1.38-0.824-2.613-2.098-3.141 c-1.275-0.527-2.729-0.239-3.705,0.734c0.027-0.027,0.074-0.018,0.104-0.043c-0.361,0.301-0.953,0.893-2.129,2.068 c-0.643,0.643-0.996,1.496-0.996,2.404v19.298c0,0.105,0.051,0.199,0.061,0.303c-1.578,0-3.578,0-5.291,0 c0.01-0.103,0.059-0.198,0.059-0.303V17.034c0-0.908-0.354-1.762-0.996-2.404l-2.023-2.023 C10.212,11.631,8.757,11.341,7.481,11.868z"/>
<path fill-opacity="0.13" fill="#DEE9F3" d="M7.94,12.978L7.94,12.978c-0.824,0.342-1.357,1.14-1.357,2.033v23.345 c0,0.894,0.533,1.69,1.357,2.032c0.301,0.125,0.613,0.164,0.924,0.153c-0.041,0.167-0.1,0.329-0.1,0.505 c0,0.588,0.229,1.141,0.645,1.557l1.012,1.012c0.416,0.416,0.969,0.645,1.555,0.645h9.033c0.072,0,0.135-0.034,0.205-0.041 c-0.408,0.414-0.635,0.96-0.635,1.542v19.868c0,0.588,0.229,1.141,0.645,1.557l2.021,2.023c0.633,0.631,1.574,0.818,2.398,0.477 c0.826-0.342,1.359-1.141,1.359-2.033V43.736c0-0.894-0.533-1.69-1.359-2.032c-0.506-0.21-1.051-0.199-1.547-0.029 c0.061-0.205,0.125-0.41,0.125-0.629s-0.064-0.424-0.125-0.629c0.496,0.17,1.041,0.181,1.547-0.029 c0.826-0.342,1.359-1.139,1.359-2.032V15.011c0-0.894-0.533-1.691-1.359-2.033c-0.824-0.341-1.764-0.154-2.396,0.477l-2.023,2.024 c-0.416,0.415-0.645,0.968-0.645,1.556v19.298c0,0.583,0.227,1.13,0.637,1.544c-0.072-0.007-0.135-0.041-0.207-0.041 c0,0-7.848,0-8.611,0c0.387-0.41,0.609-0.938,0.609-1.503V17.034c0-0.588-0.23-1.141-0.645-1.556l-2.023-2.024 C9.706,12.823,8.767,12.636,7.94,12.978z M23.245,42.181L23.245,42.181L23.245,42.181z"/>
<linearGradient id="_2" gradientUnits="userSpaceOnUse" x1="16.79" y1="4.33" x2="16.79" y2="66.34">
<stop stop-color="#87A8CB" offset="0"/>
<stop stop-color="#235487" offset="1"/>
</linearGradient>
<path fill="url(#_2)" d="M11.806,36.746L7.782,40.77V12.596l4.023,4.024V36.746z M11.562,43.059L9.55,41.046l2.012-2.011 h9.861l2.012,2.011l-2.012,2.013H11.562z M21.778,16.62l4.023-4.024V40.77l-4.023-4.023V16.62z M21.778,45.346l4.023-4.023v28.743 l-4.023-4.023V45.346z"/>
</svg>