<?xml version="1.0" encoding="UTF-8"?>
<!DOCTYPE svg PUBLIC "-//W3C//DTD SVG 1.1 Tiny//EN" "http://www.w3.org/Graphics/SVG/1.1/DTD/svg11-tiny.dtd">
<svg width="304" height="24" viewBox="-0.5 -0.5 304 24">
<rect x="-0.5" y="-0.5" fill="#656B6B" fill-opacity="0.01" width="304" height="18"/>
<rect x="-0.5" y="-0.5" fill="#656B6B" fill-opacity="0.02" width="304" height="17"/>
<rect x="-0.5" y="-0.5" fill="#656B6B" fill-opacity="0.03" width="304" height="16.002"/>
<rect x="-0.5" y="-0.5" fill="#656B6B" fill-opacity="0.06" width="304" height="14.999"/>
<rect x="-0.5" y="-0.5" fill="#656B6B" fill-opacity="0.05" width="304" height="14.001"/>
<rect x="-0.5" y="-0.5" fill="#656B6B" fill-opacity="0.1" width="304" height="13.001"/>
<rect x="-0.5" y="-0.5" fill="#656B6B" fill-opacity="0.1" width="304" height="12"/>
<rect x="-0.5" y="-0.5" fill="#656B6B" fill-opacity="0.1" width="304" height="11"/>
<rect x="-0.5" y="-0.5" fill="#656B6B" fill-opacity="0.05" width="304" height="11"/>
<linearGradient id="_8" gradientUnits="userSpaceOnUse" x1="151.5" y1="9.5" x2="151.5" y2="-88.48">
<stop stop-color="#A8C4CC" offset="0"/>
<stop stop-color="#D9F4E0" offset="0.53"/>
<stop stop-color="#FFFFFF" offset="1"/>
</linearGradient>
<rect x="-0.5" y="-0.5" fill="url(#_8)" width="304" height="9.999"/>
<linearGradient id="_9" gradientUnits="userSpaceOnUse" x1="151.5" y1="8.5" x2="151.5" y2="-87.52">
<stop stop-color="#A8C4CC" offset="0"/>
<stop stop-color="#D9F4E0" offset="0.53"/>
<stop stop-color="#FFFFFF" offset="1"/>
</linearGradient>
<path fill="url(#_9)" d="M-0.5-0.5v9.002c58.68,0,251.954,0,304,0V-0.5H-0.5z"/>
<linearGradient id="_10" gradientUnits="userSpaceOnUse" x1="151.5" y1="7.5" x2="151.5" y2="-86.48">
<stop stop-color="#A8C4CC" offset="0"/>
<stop stop-color="#D9F4E0" offset="0.53"/>
<stop stop-color="#FFFFFF" offset="1"/>
</linearGradient>
<path fill="url(#_10)" d="M-0.5-0.5v7.998c57.571,0,253.418,0,304,0V-0.5H-0.5z"/>
<linearGradient id="_11" gradientUnits="userSpaceOnUse" x1="151.5" y1="6.5" x2="151.5" y2="-85.5">
<stop stop-color="#C4D9D1" offset="0"/>
<stop stop-color="#D9F4E0" offset="0.23"/>
<stop stop-color="#FFFFFF" offset="1"/>
</linearGradient>
<path fill="url(#_11)" d="M-0.5-0.5v7.001c56.4,0,254.979,0,304,0V-0.5H-0.5z"/>
<linearGradient id="_12" gradientUnits="userSpaceOnUse" x1="151.5" y1="5.5" x2="151.5" y2="-84.5">
<stop stop-color="#C4D9D1" offset="0"/>
<stop stop-color="#D9F4E0" offset="0.23"/>
<stop stop-color="#FFFFFF" offset="1"/>
</linearGradient>
<path fill="url(#_12)" d="M-0.5-0.5v6c55.146,0,256.654,0,304,0v-6H-0.5z"/>
<linearGradient id="_13" gradientUnits="userSpaceOnUse" x1="151.5" y1="4.5" x2="151.5" y2="-83.5">
<stop stop-color="#C4D9D1" offset="0"/>
<stop stop-color="#D9F4E0" offset="0.23"/>
<stop stop-color="#FFFFFF" offset="1"/>
</linearGradient>
<path fill="url(#_13)" d="M-0.5-0.5v5c53.832,0,258.501,0,304,0v-5H-0.5z"/>
<linearGradient id="_14" gradientUnits="userSpaceOnUse" x1="151.5" y1="3.5" x2="151.5" y2="-82.5">
<stop stop-color="#C4D9D1" offset="0"/>
<stop stop-color="#D9F4E0" offset="0.23"/>
<stop stop-color="#FFFFFF" offset="1"/>
</linearGradient>
<path fill="url(#_14)" d="M-0.5-0.5v3.999c52.401,0,260.496,0,304,0V-0.5H-0.5z"/>
</svg>