<?xml version="1.0" encoding="UTF-8" standalone="no"?>
<!DOCTYPE svg PUBLIC "-//W3C//DTD SVG 1.1 Tiny//EN" "http://www.w3.org/Graphics/SVG/1.1/DTD/svg11-tiny.dtd">
<svg xmlns="http://www.w3.org/2000/svg" xmlns:xlink="http://www.w3.org/1999/xlink" width="12" height="12" viewBox="-1 -1 12 12">
<rect fill="none" height="12" width="12" x="-1" y="-1"/>
<linearGradient id="_4" gradientUnits="userSpaceOnUse" x1="1" y1="6.5" x2="9" y2="6.5">
<stop stop-color="#788FB8" offset="0"/>
<stop stop-color="#235487" offset="1"/>
</linearGradient>
<path d="M7.779,2h-5.56C1.547,2,1,2.538,1,3.2V11h8V3.2C9,2.538,8.451,2,7.779,2z" fill="url(#_4)" fill-opacity="0.7"/>
<path d="M7.654,2.5h-5.31C1.877,2.5,1.5,2.872,1.5,3.329V11h7V3.329C8.5,2.872,8.121,2.5,7.654,2.5z" fill="#A2C2DD"/>
<linearGradient id="_5" gradientUnits="userSpaceOnUse" x1="-10.06" y1="6.88" x2="21.56" y2="6.88">
<stop stop-color="#FFFFFF" offset="0"/>
<stop stop-color="#E0EAF3" offset="0.11"/>
<stop stop-color="#A2C2DD" offset="0.35"/>
<stop stop-color="#8CA9CF" offset="0.48"/>
<stop stop-color="#6C83BB" offset="0.7"/>
<stop stop-color="#637DB5" offset="0.75"/>
<stop stop-color="#4C6EA4" offset="0.82"/>
<stop stop-color="#265689" offset="0.91"/>
<stop stop-color="#003D6D" offset="0.99"/>
</linearGradient>
<path d="M7.654,2.75h-5.31c-0.328,0-0.594,0.26-0.594,0.579V11h6.5V3.329 C8.25,3.01,7.982,2.75,7.654,2.75z" fill="url(#_5)" fill-opacity="0.6"/>
<linearGradient id="_6" gradientUnits="userSpaceOnUse" x1="2" y1="7" x2="8.83" y2="7">
<stop stop-color="#E1EBF4" offset="0"/>
<stop stop-color="#CEE1EF" offset="0.49"/>
<stop stop-color="#C5CEEF" offset="1"/>
</linearGradient>
<path d="M7.154,3H2.842C2.516,3,2.25,3.26,2.25,3.578V11h5.5V3.578C7.75,3.26,7.482,3,7.154,3z" fill="url(#_6)"/>
<path d="M2.344,2.75c-0.328,0-0.594,0.26-0.594,0.579V11H5V2.75H2.344z" fill="#FFFFFF" fill-opacity="0.5"/>
<path d="M7.779,2h-5.56C1.547,2,1,2.538,1,3.2V11h8V3.2C9,2.538,8.451,2,7.779,2z " fill="#13203F" fill-opacity="0.3" />
</svg>