<?xml version="1.0" encoding="UTF-8"?>
<!DOCTYPE svg PUBLIC "-//W3C//DTD SVG 1.1 Tiny//EN" "http://www.w3.org/Graphics/SVG/1.1/DTD/svg11-tiny.dtd">
<svg width="24" height="24" viewBox="-0.5 -0.5 24 24">
<path fill="#656B6B" fill-opacity="0.01" d="M23.5-0.5h-10c-6.617,0-12,5.383-12,12v12h22V-0.5z"/>
<path fill="#656B6B" fill-opacity="0.02" d="M23.5,0.5h-10c-6.064,0-11,4.936-11,11v12h21V0.5z"/>
<path fill="#656B6B" fill-opacity="0.03" d="M23.5,1.5h-10c-5.514,0-10,4.486-10,10v12h20V1.5z"/>
<path fill="#656B6B" fill-opacity="0.06" d="M23.5,2.5h-10c-4.963,0-9,4.037-9,9v12h19V2.5z"/>
<path fill="#656B6B" fill-opacity="0.05" d="M23.5,3.5h-10c-4.41,0-8,3.59-8,8v12h18V3.5z"/>
<path fill="#656B6B" fill-opacity="0.1" d="M23.5,4.5h-10c-3.859,0-7,3.141-7,7v12h17V4.5z"/>
<path fill="#656B6B" fill-opacity="0.1" d="M23.5,5.5h-10c-3.309,0-6,2.691-6,6v12h16V5.5z"/>
<path fill="#656B6B" fill-opacity="0.1" d="M23.5,6.5h-10c-2.762,0-5,2.238-5,5v12h15V6.5z"/>
<rect x="4.5" y="2.5" fill="#656B6B" fill-opacity="0.05" width="19" height="21"/>
<linearGradient id="_7" gradientUnits="userSpaceOnUse" x1="14.52" y1="199.47" x2="14.52" y2="3.48">
<stop stop-color="#A8C4CC" offset="0"/>
<stop stop-color="#D9F4E0" offset="0.53"/>
<stop stop-color="#FFFFFF" offset="1"/>
</linearGradient>
<rect x="5.5" y="3.5" fill="url(#_7)" width="18" height="20"/>
<linearGradient id="_8" gradientUnits="userSpaceOnUse" x1="15.01" y1="207.12" x2="15.01" y2="4.48">
<stop stop-color="#A8C4CC" offset="0"/>
<stop stop-color="#D9F4E0" offset="0.53"/>
<stop stop-color="#FFFFFF" offset="1"/>
</linearGradient>
<path fill="url(#_8)" d="M23.5,4.5c-10.531,0-16.732,0-17,0c0,0.354,0,13.727,0,19h17V4.5z"/>
<linearGradient id="_9" gradientUnits="userSpaceOnUse" x1="15.51" y1="216.95" x2="15.51" y2="5.48">
<stop stop-color="#A8C4CC" offset="0"/>
<stop stop-color="#D9F4E0" offset="0.53"/>
<stop stop-color="#FFFFFF" offset="1"/>
</linearGradient>
<path fill="url(#_9)" d="M23.5,5.5c-9.918,0-15.741,0-16,0c0,0.335,0,13.307,0,18h16V5.5z"/>
<linearGradient id="_10" gradientUnits="userSpaceOnUse" x1="16.01" y1="229.91" x2="16.01" y2="6.48">
<stop stop-color="#C4D9D1" offset="0"/>
<stop stop-color="#D9F4E0" offset="0.23"/>
<stop stop-color="#FFFFFF" offset="1"/>
</linearGradient>
<path fill="url(#_10)" d="M23.5,6.5c-9.309,0-14.749,0-15,0c0,0.313,0,12.897,0,17h15V6.5z"/>
<linearGradient id="_11" gradientUnits="userSpaceOnUse" x1="16.52" y1="247.47" x2="16.52" y2="7.48">
<stop stop-color="#C4D9D1" offset="0"/>
<stop stop-color="#D9F4E0" offset="0.23"/>
<stop stop-color="#FFFFFF" offset="1"/>
</linearGradient>
<path fill="url(#_11)" d="M23.5,7.5c-8.691,0-13.758,0-14,0c0,0.291,0,12.487,0,16h14V7.5z"/>
<linearGradient id="_12" gradientUnits="userSpaceOnUse" x1="17.02" y1="272.44" x2="17.02" y2="8.48">
<stop stop-color="#C4D9D1" offset="0"/>
<stop stop-color="#D9F4E0" offset="0.23"/>
<stop stop-color="#FFFFFF" offset="1"/>
</linearGradient>
<path fill="url(#_12)" d="M23.5,8.5c-8.081,0-12.768,0-13,0c0,0.265,0,12.077,0,15h13V8.5z"/>
</svg>