<?xml version="1.0" encoding="UTF-8" standalone="no"?>
<!DOCTYPE svg PUBLIC "-//W3C//DTD SVG 1.1 Tiny//EN" "http://www.w3.org/Graphics/SVG/1.1/DTD/svg11-tiny.dtd">
<svg xmlns="http://www.w3.org/2000/svg" xmlns:xlink="http://www.w3.org/1999/xlink" width="5" height="5" viewBox="0 0 5 5">
<rect fill="none" height="5" width="5"/>
<linearGradient id="_3" gradientUnits="userSpaceOnUse" x1="2.25" y1="4.15" x2="2.25" y2="-37.1">
<stop stop-color="#373D41" offset="0"/>
<stop stop-color="#8C959F" offset="0.69"/>
</linearGradient>
<path d="M4,0v2.5C4,3.328,3.328,4,2.5,4H0v0.5h2.5c1.105,0,2-0.895,2-2V0H4z" fill="url(#_3)" fill-opacity="0.8" />
<path d="M3.5,0v2.5c0,0.553-0.447,1-1,1H0V4h2.5C3.328,4,4,3.328,4,2.5V0H3.5z" fill="#FFFFFF" fill-opacity="0.7" />
<linearGradient id="_4" gradientUnits="userSpaceOnUse" x1="1.75" y1="-36.11" x2="1.75" y2="3.4">
<stop stop-color="#B5B9BE" offset="0"/>
<stop stop-color="#EFF0F3" offset="1"/>
</linearGradient>
<path d="M0,3.5h2.5c0.553,0,1-0.447,1-1V0H0V3.5z" fill="url(#_4)" fill-opacity="0.7" />
<path d="M4.5,2.5c0,1.105-0.895,2-2,2H0V5h2.5C3.879,5,5,3.879,5,2.5V0H4.5V2.5z" fill-opacity="0.4" />
</svg>