<?xml version="1.0" encoding="UTF-8"?>
<!DOCTYPE svg PUBLIC "-//W3C//DTD SVG 1.1 Tiny//EN" "http://www.w3.org/Graphics/SVG/1.1/DTD/svg11-tiny.dtd">
<svg width="24" height="24" viewBox="-0.5 -0.5 24 24">
<path fill="#656B6B" fill-opacity="0.01" d="M23.5,9.5h-10c-6.617,0-12,5.383-12,12v2h22V9.5z"/>
<path fill="#656B6B" fill-opacity="0.03" d="M23.5,10.5h-10c-6.064,0-11,4.936-11,11v2h21V10.5z"/>
<path fill="#656B6B" fill-opacity="0.04" d="M23.5,11.5h-10c-5.514,0-10,4.486-10,10v2h20V11.5z"/>
<path fill="#656B6B" fill-opacity="0.09" d="M23.5,12.5h-10c-4.963,0-9,4.037-9,9v2h19V12.5z"/>
<path fill="#656B6B" fill-opacity="0.08" d="M23.5,13.5h-10c-4.411,0-8,3.589-8,8v2h18V13.5z"/>
<path fill="#656B6B" fill-opacity="0.1" d="M23.5,14.5h-10c-3.859,0-7,3.141-7,7v2h17V14.5z"/>
<path fill="#656B6B" fill-opacity="0.11" d="M23.5,15.5h-10c-3.309,0-6,2.691-6,6v2h16V15.5z"/>
<path fill="#656B6B" fill-opacity="0.1" d="M23.5,16.5h-10c-2.762,0-5,2.238-5,5v2h15V16.5z"/>
<rect x="4.5" y="12.5" fill="#656B6B" fill-opacity="0.03" width="19" height="11"/>
<linearGradient id="_2" gradientUnits="userSpaceOnUse" x1="14.5" y1="107" x2="14.5" y2="18.5">
<stop stop-color="#D9F4E0" offset="0"/>
<stop stop-color="#FFFFFF" offset="1"/>
</linearGradient>
<rect x="5.5" y="13.5" fill="url(#_2)" width="18" height="10"/>
</svg>