<?xml version="1.0" encoding="UTF-8"?>
<!DOCTYPE svg PUBLIC "-//W3C//DTD SVG 1.1 Tiny//EN" "http://www.w3.org/Graphics/SVG/1.1/DTD/svg11-tiny.dtd">
<svg width="34" height="86" viewBox="-0.807 0.065 34 86">
<path fill-opacity="0.03" fill="#DEE9F3" d="M9.957,5.01c-3.25,0-6.152,1.941-7.395,4.945c-0.002,0.008-0.076,0.219-0.076,0.219 l-0.135,0.443l0,0L2.295,10.84c-0.002,0.004-0.059,0.295-0.105,0.525c-1.264,1.455-1.979,3.232-1.979,5.074v21.929 c0,0.809,0.223,1.673,0.592,2.596c-0.369,0.923-0.592,1.787-0.592,2.596v23.99c0,1.839,0.713,3.614,1.973,5.068 c0.049,0.246,0.109,0.554,0.109,0.554c0.006,0.022,0.186,0.657,0.186,0.657c0.002,0.004,0.08,0.228,0.08,0.228 c1.244,3.01,4.148,4.953,7.398,4.953h12.488c3.246,0,6.146-1.938,7.389-4.938c0.018-0.041,0.035-0.095,0.049-0.139l0.141-0.491 c-0.018,0.059-0.072,0.088-0.098,0.142c0.105-0.234,0.174-0.472,0.207-0.621c0,0,0.033-0.152,0.066-0.302 c1.283-1.467,2.012-3.258,2.012-5.11V43.56c0-0.809-0.223-1.673-0.594-2.596c0.371-0.923,0.594-1.787,0.594-2.596V16.439 c0-1.848-0.725-3.633-2.004-5.097c-0.047-0.228-0.1-0.495-0.1-0.495c-0.002-0.013,0.027,0.247,0.023,0.234l-0.207-0.887 c-0.004-0.014-0.09-0.252-0.09-0.252c-1.236-2.991-4.141-4.934-7.389-4.934H9.957z M29.65,73.981 c-0.035,0.031-0.055,0.073-0.094,0.101C29.592,74.053,29.619,74.015,29.65,73.981z"/>
<path fill-opacity="0.11" fill="#DEE9F3" d="M11.65,42.895c-0.484,0-0.924,0.329-1.109,0.778c-0.186,0.447-0.086,1.002,0.258,1.344 c0.148,0.148,0.236,0.359,0.236,0.566v19.943c0,0.217-0.082,0.412-0.234,0.565l-0.139,0.138c-0.383,0.383-0.398,0.957-0.131,1.427 s0.881,0.686,1.404,0.551l0.1-0.025l8.387,0.004c0.523,0.134,1.168-0.07,1.438-0.539c0.268-0.47,0.285-1.031-0.098-1.413 l-0.141-0.142c-0.154-0.153-0.234-0.349-0.234-0.565V45.583c0-0.207,0.088-0.418,0.234-0.566l0.092-0.092 c0.352-0.35,0.355-0.871,0.154-1.324s-0.754-0.727-1.248-0.703l0.064-0.003H11.65z"/>
<path fill-opacity="0.11" fill="#DEE9F3" d="M20.602,15.775l-0.148,0.037c0.029-0.002-0.059,0.02-0.031,0.02H11.98 c-0.004-0.014-0.17-0.057-0.17-0.057c-0.523-0.132-1.055,0.105-1.322,0.574c-0.266,0.469-0.172,1.063,0.209,1.445l0.1,0.101 c0.15,0.149,0.238,0.361,0.238,0.568v17.881c0,0.207-0.088,0.418-0.236,0.566l-0.346,0.346c-0.361,0.361-0.418,0.906-0.195,1.365 c0.221,0.459,0.744,0.723,1.252,0.666l0.141-0.017h9.033l0.186,0.026c0.51,0.074,1.063-0.178,1.295-0.64s0.193-1.011-0.172-1.376 l-0.371-0.371c-0.146-0.148-0.234-0.359-0.234-0.566V18.464c0-0.207,0.088-0.419,0.234-0.565l0.107-0.107 c0.383-0.383,0.473-0.978,0.205-1.447C21.664,15.873,21.125,15.639,20.602,15.775z"/>
<path fill-opacity="0.05" fill="#DEE9F3" d="M9.957,6.21c-2.762,0-5.229,1.65-6.285,4.204c-0.014,0.035-0.031,0.089-0.043,0.125 L3.5,10.965c-0.012,0.038-0.021,0.078-0.029,0.116c0,0-0.096,0.476-0.16,0.794c-1.211,1.268-1.9,2.861-1.9,4.564v21.929 c0,0.85,0.254,1.709,0.664,2.596C1.664,41.851,1.41,42.71,1.41,43.56v23.99c0,1.701,0.688,3.293,1.896,4.56 c0.063,0.324,0.164,0.827,0.164,0.827c0.012,0.058,0.158,0.552,0.158,0.552c0.012,0.039,0.025,0.075,0.041,0.113 c1.057,2.557,3.523,4.208,6.287,4.208h12.488c2.76,0,5.225-1.647,6.281-4.197c-0.002,0.002,0.145-0.503,0.145-0.503 c-0.002,0.007,0.131-0.595,0.213-0.971c1.229-1.276,1.926-2.88,1.926-4.589V43.56c0-0.85-0.254-1.709-0.662-2.596 c0.408-0.887,0.662-1.746,0.662-2.596V16.439c0-1.709-0.697-3.311-1.926-4.586c-0.063-0.314-0.152-0.771-0.152-0.771 c0-0.003-0.16-0.553-0.16-0.553c-0.012-0.043-0.023-0.072-0.041-0.113c-1.057-2.555-3.523-4.206-6.285-4.206H9.957z"/>
<path fill-opacity="0.07" fill="#DEE9F3" d="M9.957,7.41c-2.275,0-4.307,1.359-5.176,3.462c0.002-0.004-0.135,0.444-0.135,0.444 s-0.18,0.9-0.221,1.103c-1.141,1.054-1.814,2.477-1.814,4.021v21.929c0,0.909,0.305,1.778,0.758,2.596 c-0.453,0.817-0.758,1.687-0.758,2.596v23.99c0,1.543,0.672,2.964,1.811,4.018c0.023,0.114,0.225,1.136,0.225,1.136 c0.002,0.004,0.133,0.44,0.133,0.44c0.871,2.108,2.902,3.466,5.178,3.466h12.488c2.271,0,4.303-1.356,5.172-3.456 c0.027-0.065,0.064-0.223,0.08-0.292c0,0,0.25-1.138,0.279-1.276c1.152-1.062,1.834-2.49,1.834-4.035V43.56 c0-0.909-0.305-1.778-0.76-2.596c0.455-0.817,0.76-1.687,0.76-2.596V16.439c0-1.546-0.684-2.978-1.842-4.041 c-0.037-0.185-0.215-1.084-0.215-1.084c0-0.005-0.131-0.439-0.131-0.439C26.75,8.768,24.719,7.41,22.445,7.41H9.957z M16.586,20.633c0,1.895,0,11.944,0,13.838c-0.354,0-0.396,0-0.75,0c0-1.894,0-11.943,0-13.838 C16.189,20.633,16.232,20.633,16.586,20.633z M16.586,47.695c0,1.943,0,13.746,0,15.689c-0.354,0-0.396,0-0.75,0 c0-1.943,0-13.746,0-15.689C16.189,47.695,16.232,47.695,16.586,47.695z"/>
<path fill-opacity="0.09" fill="#DEE9F3" d="M9.957,8.61c-1.787,0-3.383,1.067-4.066,2.72c-0.029,0.072-0.053,0.146-0.068,0.225 l-0.244,1.225c-0.018,0.094-0.033,0.104-0.033,0.145c0,0.016,0.004,0.041,0.008,0.068c-1.078,0.82-1.742,2.059-1.742,3.447v21.929 c0,0.947,0.34,1.847,0.906,2.596c-0.566,0.749-0.906,1.648-0.906,2.596v23.99c0,1.392,0.664,2.631,1.746,3.451l-0.002,0.005 c-0.006,0.044-0.01,0.069-0.01,0.089c0,0.041,0.016,0.051,0.033,0.146l0.246,1.229c0.016,0.077,0.037,0.151,0.066,0.224 c0.682,1.65,2.277,2.717,4.066,2.717h12.488c1.787,0,3.383-1.066,4.066-2.718c-0.002,0.004-0.002,0.004-0.002,0.004 c0-0.07,0.314-1.454,0.314-1.454c0.021-0.097,0.035-0.104,0.035-0.138c0-0.017-0.004-0.045-0.012-0.091 c1.08-0.82,1.762-2.083,1.762-3.463V43.56c0-0.947-0.34-1.847-0.904-2.596c0.564-0.749,0.904-1.648,0.904-2.596V16.439 c0-1.377-0.682-2.639-1.76-3.459c0.002-0.021,0.006-0.045,0.006-0.057c0-0.041-0.014-0.051-0.033-0.146l-0.244-1.229 c-0.016-0.076-0.039-0.15-0.068-0.223c-0.682-1.65-2.277-2.716-4.064-2.716H9.957z M17.785,19.433c0,1.663,0,15.061,0,16.238 c-1.104,0-2.045,0-3.15,0c0-1.178,0-14.575,0-16.238C15.719,19.433,16.701,19.433,17.785,19.433z M17.785,46.495 c0,1.578,0,16.463,0,18.09c-1.086,0-2.064,0-3.15,0c0-1.627,0-16.512,0-18.09C15.723,46.495,16.697,46.495,17.785,46.495z"/>
<path fill-opacity="0.11" fill="#DEE9F3" d="M9.957,9.811c-1.299,0-2.461,0.776-2.957,1.979l-0.244,1.225 c0,0.189,0.076,0.36,0.107,0.543c-1.123,0.527-1.852,1.635-1.852,2.883v21.929c0,1.059,0.533,2.006,1.375,2.596 c-0.842,0.59-1.375,1.537-1.375,2.596v23.99c0,1.252,0.73,2.36,1.857,2.886c-0.035,0.191-0.113,0.371-0.113,0.57L7,72.234 c0.496,1.199,1.656,1.975,2.957,1.975h12.488c1.301,0,2.461-0.776,2.957-1.977c0.002-0.002,0.244-1.226,0.244-1.226 c0-0.195-0.076-0.372-0.111-0.561c1.137-0.521,1.875-1.637,1.875-2.896V43.56c0-1.059-0.533-2.006-1.375-2.596 c0.842-0.591,1.375-1.537,1.375-2.596V16.439c0-1.256-0.736-2.371-1.871-2.893c0.031-0.18,0.107-0.348,0.107-0.534L25.4,11.784 c-0.494-1.198-1.656-1.974-2.955-1.974H9.957z M19.033,18.232c-0.006,0.079-0.047,0.152-0.047,0.231v17.881 c0,0.182,0.074,0.35,0.105,0.526c-1.674,0-4.02,0-5.762,0c0.029-0.177,0.105-0.345,0.105-0.526V18.464 c0-0.079-0.041-0.152-0.047-0.231C14.957,18.232,17.48,18.232,19.033,18.232z M19.043,45.295c-0.008,0.099-0.057,0.188-0.057,0.288 v19.943c0,0.09,0.043,0.17,0.051,0.259c-1.551,0-4.086,0-5.654,0c0.008-0.089,0.053-0.169,0.053-0.259V45.583 c0-0.1-0.049-0.189-0.059-0.288C15.129,45.295,17.359,45.295,19.043,45.295z"/>
<path fill-opacity="0.11" fill="#DEE9F3" d="M24.975,40.216c0.75-0.311,1.234-1.036,1.234-1.848V16.439c0-0.811-0.484-1.537-1.234-1.848 c-0.398-0.165-0.818-0.158-1.219-0.064c0.01-0.01,0.104-0.102,0.104-0.102c0.383-0.384,0.586-0.894,0.586-1.413 c0-0.259-0.049-0.519-0.152-0.769c-0.311-0.748-1.035-1.233-1.848-1.233H9.957c-0.813,0-1.537,0.485-1.848,1.236 c-0.104,0.248-0.154,0.509-0.154,0.767c0,0.519,0.205,1.027,0.588,1.412c0,0,0.09,0.088,0.098,0.098 c-0.393-0.088-0.803-0.094-1.195,0.068c-0.75,0.311-1.234,1.037-1.234,1.848v21.929c0,0.812,0.484,1.537,1.234,1.848 c0.451,0.188,0.936,0.18,1.379,0.035c-0.117,0.258-0.186,0.538-0.186,0.83c0,0.193,0.037,0.381,0.09,0.562 c-0.418-0.112-0.865-0.104-1.283,0.069c-0.75,0.311-1.234,1.037-1.234,1.848v23.99c0,0.813,0.486,1.538,1.236,1.849 c0.402,0.166,0.826,0.159,1.23,0.061c-0.018,0.018-0.135,0.136-0.135,0.136c-0.385,0.382-0.588,0.892-0.588,1.411 c0,0.259,0.051,0.52,0.154,0.77c0.309,0.749,1.035,1.233,1.848,1.233h12.488c0.814,0,1.539-0.485,1.85-1.235 c0.102-0.249,0.152-0.509,0.152-0.767c0-0.519-0.203-1.028-0.588-1.412c0,0-0.121-0.122-0.139-0.141 c0.41,0.105,0.844,0.113,1.256-0.057c0.748-0.31,1.232-1.035,1.232-1.848V43.56c0-0.811-0.484-1.537-1.234-1.848 c-0.451-0.188-0.936-0.18-1.379-0.035c0.061-0.191,0.1-0.391,0.1-0.596c0-0.307-0.076-0.6-0.205-0.868 C23.961,40.397,24.486,40.418,24.975,40.216z M11.98,17.032h8.441c0.16,0,0.307-0.054,0.459-0.091 c-0.012,0.012-0.107,0.107-0.107,0.107c-0.373,0.373-0.588,0.889-0.588,1.415v17.881c0,0.526,0.215,1.041,0.588,1.414l0.369,0.371 c-0.148-0.035-0.301-0.059-0.459-0.059H11.65c-0.117,0-0.234,0.014-0.348,0.034l0.346-0.347c0.373-0.373,0.586-0.889,0.586-1.414 V18.464c0-0.526-0.213-1.042-0.586-1.415c0,0-0.094-0.093-0.104-0.103C11.689,16.979,11.828,17.032,11.98,17.032z M20.422,66.985 H11.98c-0.164,0-0.314,0.055-0.469,0.093c0.018-0.018,0.137-0.138,0.137-0.138c0.379-0.378,0.586-0.88,0.586-1.414V45.583 c0-0.525-0.213-1.041-0.586-1.414l-0.082-0.083c0.027,0.001,0.057,0.009,0.084,0.009h9.033c0.061,0,0.121-0.013,0.182-0.018 c-0.059,0.057-0.092,0.092-0.092,0.092c-0.373,0.373-0.588,0.889-0.588,1.414v19.943c0,0.534,0.209,1.036,0.586,1.414 c0,0,0.123,0.123,0.143,0.142C20.752,67.041,20.594,66.985,20.422,66.985z"/>
<linearGradient id="_3" gradientUnits="userSpaceOnUse" x1="16.21" y1="4.33" x2="16.21" y2="66.34">
<stop stop-color="#87A8CB" offset="0"/>
<stop stop-color="#235487" offset="1"/>
</linearGradient>
<path fill="url(#_3)" d="M11.234,36.759l-4.023,4.023V14.024l4.023,4.025V36.759z M11.234,65.94l-4.023,4.023V41.146 l4.023,4.023V65.94z M11.566,16.032l-4.025-4.021h17.318l-4.023,4.021H11.566z M20.836,67.985l4.023,4.023H7.541l4.025-4.023 H20.836z M21.186,18.05l4.023-4.025v26.758l-4.023-4.023V18.05z M21.186,45.169l4.023-4.023v28.818l-4.023-4.023V45.169z"/>
<polygon fill="url(#_3)" points="21.098,43.095 23.109,41.081 21.098,39.071 11.236,39.071 9.225,41.081 11.236,43.095 "/>
</svg>