<?xml version="1.0" encoding="UTF-8"?>
<!DOCTYPE svg PUBLIC "-//W3C//DTD SVG 1.1 Tiny//EN" "http://www.w3.org/Graphics/SVG/1.1/DTD/svg11-tiny.dtd">
<svg baseProfile="tiny" height="12" version="1.1" viewBox="0 0 12 12" width="12" xmlns="http://www.w3.org/2000/svg" xmlns:xlink="http://www.w3.org/1999/xlink">
<g>
<g>
<linearGradient gradientTransform="matrix(0 1 1 0 318.125 -318.126)" gradientUnits="userSpaceOnUse" id="XMLID_3_" x1="330.4385" x2="315.3769" y1="-313.6245" y2="-313.6245">
<stop offset="0" style="stop-color:#DEE9F3"/>
<stop offset="1" style="stop-color:#556180"/>
</linearGradient>
<path d="M7.334,9.254c0.455,0,0.826-0.38,0.826-0.85V3.598c0-0.469-0.371-0.848-0.826-0.848H0V2h7.803    C8.463,2,9,2.547,9,3.219v5.561C9,9.452,8.463,10,7.803,10H0V9.254H7.334z" fill="url(#XMLID_3_)"/>
<linearGradient gradientTransform="matrix(0 1 1 0 318.125 -318.126)" gradientUnits="userSpaceOnUse" id="XMLID_4_" x1="320.876" x2="327.3799" y1="-314.0449" y2="-314.0449">
<stop offset="0" style="stop-color:#B8C4C4"/>
<stop offset="0.1143" style="stop-color:#C1CCCC"/>
<stop offset="0.7025" style="stop-color:#EEF1F1"/>
<stop offset="1" style="stop-color:#FFFFFF"/>
</linearGradient>
<path d="M7.334,2.75c0.455,0,0.826,0.379,0.826,0.848v4.807c0,0.47-0.371,0.85-0.826,0.85H0    V2.75H7.334z" fill="url(#XMLID_4_)" fill-opacity="0.6" stroke-opacity="0.6"/>
</g>
<rect fill="none" height="12" width="12"/>
</g>
</svg>
