<?xml version="1.0" encoding="UTF-8"?>
<!DOCTYPE svg PUBLIC "-//W3C//DTD SVG 1.1 Tiny//EN" "http://www.w3.org/Graphics/SVG/1.1/DTD/svg11-tiny.dtd">
<svg width="264" height="32" viewBox="-0.5 -0.5 264 32">
<path fill="#656B6B" fill-opacity="0.01" d="M-0.5-0.5v26c56.896,0,212.402,0,264,0v-26H-0.5z"/>
<path fill="#656B6B" fill-opacity="0.02" d="M-0.5-0.5v25c56.875,0,212.4,0,264,0v-25H-0.5z"/>
<path fill="#656B6B" fill-opacity="0.03" d="M-0.5-0.5v24c56.797,0,212.387,0,264,0v-24H-0.5z"/>
<path fill="#656B6B" fill-opacity="0.06" d="M-0.5-0.5v22.996c56.624,0.001,212.357,0.003,264,0.004v-23H-0.5z"/>
<rect x="-0.5" y="-0.5" fill="#656B6B" fill-opacity="0.05" width="264" height="22"/>
<rect x="-0.5" y="-0.499" fill="#656B6B" fill-opacity="0.1" width="264" height="20.998"/>
<path fill="#656B6B" fill-opacity="0.1" d="M-0.5-0.5v20c54.594,0,212.012,0,264,0v-20H-0.5z"/>
<rect x="-0.5" y="-0.5" fill="#656B6B" fill-opacity="0.1" width="264" height="19"/>
<linearGradient id="_2" gradientUnits="userSpaceOnUse" x1="131.5" y1="9" x2="131.5" y2="-71">
<stop stop-color="#D9F4E0" offset="0"/>
<stop stop-color="#FFFFFF" offset="1"/>
</linearGradient>
<rect x="-0.5" y="-0.5" fill="url(#_2)" width="264" height="18"/>
</svg>