<?xml version="1.0" encoding="UTF-8" standalone="no"?>
<!DOCTYPE svg PUBLIC "-//W3C//DTD SVG 1.1 Tiny//EN" "http://www.w3.org/Graphics/SVG/1.1/DTD/svg11-tiny.dtd">
<svg xmlns="http://www.w3.org/2000/svg" xmlns:xlink="http://www.w3.org/1999/xlink" width="8" height="8" viewBox="0 0 8 8">
<rect fill="none" height="8" width="8"/>
<linearGradient id="SVGID_1" gradientUnits="userSpaceOnUse" x1="4" y1="6.68" x2="4" y2="-35.56">
<stop stop-color="#73DB41" offset="0"/>
<stop stop-color="#3FB109" offset="0.73"/>
<stop stop-color="#539C2F" offset="1"/>
</linearGradient>
<path d="M1.013,5.744c0,0.693,0.571,1.258,1.274,1.258H8V8H2.287C1.026,8,0,6.987,0,5.744V0h1.013V5.744z" fill="url(#SVGID_1)"/>
<g fill-opacity="0.7" stroke-opacity="0.7">
<linearGradient id="SVGID_2" gradientUnits="userSpaceOnUse" x1="4.51" y1="-41.79" x2="4.51" y2="9.06">
<stop stop-color="#378B10" offset="0"/>
<stop stop-color="#3E9515" offset="0.13"/>
<stop stop-color="#4FAE24" offset="0.36"/>
<stop stop-color="#63CB34" offset="0.55"/>
<stop stop-color="#A6E18C" offset="1"/>
</linearGradient>
<path d="M8,7.002H2.287c-0.703,0-1.274-0.563-1.274-1.258V0H8V7.002z" fill="url(#SVGID_2)"/>
</g>
<linearGradient id="SVGID_3" gradientUnits="userSpaceOnUse" x1="4.51" y1="-39.97" x2="4.51" y2="29.85">
<stop stop-color="#70B74F" offset="0"/>
<stop stop-color="#7AD251" offset="0.34"/>
<stop stop-color="#E9F8E2" offset="1"/>
</linearGradient>
<path d="M2.025,6.003H8v0.999H2.287c-0.703,0-1.274-0.563-1.274-1.258V0h1.013V6.003z" fill="url(#SVGID_3)"/>
</svg>