<?xml version="1.0" encoding="UTF-8"?>
<!DOCTYPE svg PUBLIC "-//W3C//DTD SVG 1.1 Tiny//EN" "http://www.w3.org/Graphics/SVG/1.1/DTD/svg11-tiny.dtd">
<svg width="34" height="86" viewBox="-0.059 0.065 34 86">
<path fill-opacity="0.03" fill="#DEE9F3" d="M10.671,4.866c-3.331,0-6.306,1.99-7.579,5.07c-0.013,0.032-0.035,0.101-0.046,0.134 l-0.165,0.524c-0.013,0.04-0.051,0.191-0.06,0.232c0,0-0.071,0.356-0.123,0.615c-1.261,1.486-1.974,3.281-1.974,5.12v21.792 c0,0.8,0.235,1.675,0.624,2.621c-0.389,0.945-0.624,1.82-0.624,2.62v23.95c0,1.84,0.715,3.637,1.979,5.123 c0.051,0.256,0.118,0.598,0.118,0.598c-0.003-0.02,0.059,0.232,0.059,0.232l0.127,0.424c0.001,0.004,0.084,0.236,0.084,0.236 c1.271,3.076,4.247,5.068,7.579,5.068h12.49c3.329,0,6.303-1.988,7.575-5.066l0.077-0.213l0.138-0.447 c0.001-0.002,0.06-0.236,0.06-0.236s0.059-0.297,0.105-0.533c1.297-1.492,2.031-3.311,2.031-5.186v-23.95 c0-2.745-1.426-5.222-3.784-6.75c-0.354-0.656-0.721-1.196-1.12-1.597l-1.013-1.013c-1.549-1.55-3.607-2.403-5.798-2.403 c0,0-1.251,0-2.281,0c0-1.668,0-6.875,0-8.543c0.933,0,1.986,0,1.986,0c2.19,0,4.25-0.854,5.798-2.404l2.02-2.018 c1.553-1.552,2.408-3.611,2.408-5.798c0-1.081-0.212-2.14-0.629-3.146c-1.268-3.072-4.241-5.059-7.574-5.059H10.671z"/>
<path fill-opacity="0.05" fill="#DEE9F3" d="M10.671,6.066c-2.844,0-5.383,1.699-6.47,4.329l0,0c0,0.008-0.177,0.563-0.177,0.563 c-0.014,0.043-0.019,0.067-0.027,0.111c0,0-0.109,0.546-0.176,0.876c-1.209,1.302-1.896,2.915-1.896,4.617v21.792 c0,0.833,0.268,1.705,0.7,2.621c-0.433,0.916-0.7,1.787-0.7,2.62v23.95c0,1.703,0.688,3.318,1.901,4.621 c0.065,0.33,0.172,0.863,0.172,0.863c0.007,0.037,0.021,0.09,0.032,0.127l0.126,0.422c0.012,0.039,0.025,0.078,0.041,0.115 c1.088,2.631,3.628,4.332,6.473,4.332h12.49c2.841,0,5.38-1.697,6.467-4.324c0.015-0.035,0.031-0.082,0.043-0.119l0.133-0.434 c0.012-0.039,0.021-0.078,0.029-0.117c0,0,0.097-0.486,0.161-0.811c1.246-1.307,1.953-2.941,1.953-4.676v-23.95 c0-2.479-1.354-4.699-3.509-5.958c-0.317-0.628-0.657-1.152-1.044-1.54l-1.013-1.013c-1.322-1.323-3.08-2.052-4.949-2.052 c0,0-2.154,0-3.481,0c0-1.791,0-9.152,0-10.943c1.267,0,3.187,0,3.187,0c1.87,0,3.628-0.729,4.949-2.052l2.021-2.019 c1.326-1.325,2.056-3.083,2.056-4.949c0-0.923-0.181-1.826-0.537-2.686c-1.082-2.622-3.62-4.318-6.466-4.318H10.671z"/>
<path fill-opacity="0.07" fill="#DEE9F3" d="M10.671,7.267c-2.356,0-4.461,1.408-5.361,3.588c-0.002,0.004-0.136,0.449-0.136,0.449 s-0.195,0.979-0.235,1.176c-1.141,1.093-1.813,2.541-1.813,4.083v21.792c0,0.88,0.316,1.756,0.802,2.621 c-0.485,0.865-0.802,1.74-0.802,2.62v23.95c0,1.543,0.675,2.992,1.818,4.086c0.042,0.213,0.231,1.164,0.231,1.164 c-0.002-0.01,0.132,0.439,0.132,0.439c0.902,2.186,3.006,3.592,5.363,3.592h12.49c2.354,0,4.457-1.406,5.358-3.584l0.137-0.445 c0,0,0.168-0.842,0.223-1.117c1.176-1.096,1.868-2.563,1.868-4.135v-23.95c0-2.213-1.272-4.169-3.23-5.148 c-0.274-0.599-0.585-1.115-0.971-1.501l-1.013-1.014c-1.096-1.096-2.552-1.699-4.101-1.699c0,0-3.161,0-4.682,0 c0-1.879,0-11.465,0-13.344c1.479,0,4.387,0,4.387,0c1.55,0,3.006-0.604,4.101-1.699l2.021-2.02c1.099-1.1,1.703-2.555,1.703-4.101 c0-0.766-0.15-1.515-0.445-2.226c-0.896-2.173-3-3.578-5.357-3.578H10.671z M17.121,47.858c0,1.936,0,13.41,0,15.344 c-0.043,0-0.328,0-0.371,0c0-1.936,0-13.408,0-15.344C16.933,47.858,16.938,47.858,17.121,47.858z"/>
<path fill-opacity="0.09" fill="#DEE9F3" d="M10.671,8.467c-1.869,0-3.538,1.117-4.252,2.845c-0.029,0.072-0.054,0.157-0.069,0.233 l-0.258,1.29c-0.019,0.091-0.031,0.105-0.031,0.15c0,0.012,0.003,0.035,0.005,0.057c-1.075,0.863-1.74,2.131-1.74,3.521v21.792 c0,0.977,0.396,1.849,0.949,2.621c-0.554,0.771-0.949,1.645-0.949,2.62v23.95c0,1.389,0.665,2.656,1.739,3.52 c-0.001,0.014-0.004,0.033-0.004,0.043c0,0.045,0.013,0.059,0.031,0.148l0.26,1.305c0.015,0.076,0.038,0.152,0.067,0.225 c0.713,1.725,2.382,2.84,4.251,2.84h12.49c1.867,0,3.535-1.115,4.25-2.842c0.03-0.072,0.054-0.15,0.069-0.227l0.26-1.301 c0.019-0.09,0.031-0.105,0.031-0.15c0,0-0.001-0.008-0.001-0.01c1.098-0.861,1.776-2.141,1.776-3.551v-23.95 c0-1.865-1.114-3.532-2.838-4.249c0,0-0.041-0.01-0.099-0.023c-0.223-0.588-0.505-1.12-0.913-1.529l-1.013-1.013 c-0.869-0.869-2.023-1.348-3.252-1.348c0,0-4.174,0-5.882,0c0-1.512,0-13.909,0-15.744c1.642,0,5.587,0,5.587,0 c1.229,0,2.384-0.479,3.252-1.348l2.022-2.021c0.871-0.871,1.351-2.026,1.351-3.251c0-0.607-0.119-1.202-0.354-1.767 c-0.711-1.723-2.379-2.837-4.249-2.837H10.671z M18.321,46.658c0,1.755,0,15.86,0,17.745c-0.689,0-2.081,0-2.771,0 c0-1.883,0-15.989,0-17.745C16.546,46.658,17.325,46.658,18.321,46.658z"/>
<path fill-opacity="0.11" fill="#DEE9F3" d="M10.671,9.667c-1.382,0-2.615,0.826-3.143,2.104l-0.26,1.299 c0,0.172,0.061,0.341,0.09,0.512c-1.111,0.586-1.833,1.709-1.833,2.981v21.792c0,1.034,0.464,1.986,1.233,2.621 c-0.771,0.635-1.233,1.586-1.233,2.62v23.95c0,1.271,0.721,2.395,1.83,2.979c-0.028,0.168-0.087,0.332-0.087,0.498l0.26,1.305 c0.526,1.275,1.76,2.1,3.142,2.1h12.49c1.381,0,2.613-0.826,3.142-2.102l0.261-1.303c0-0.16-0.058-0.316-0.083-0.477 c1.131-0.58,1.866-1.715,1.866-3v-23.95c0-1.379-0.823-2.611-2.098-3.141c-0.168-0.069-0.362-0.065-0.542-0.104 c-0.135-0.635-0.388-1.236-0.858-1.708l-1.013-1.013c-0.642-0.643-1.495-0.996-2.403-0.996c0,0-4.882,0-7.141,0 c0.009-0.104,0.059-0.198,0.059-0.303V18.587c0-0.033-0.017-0.064-0.018-0.098c2.129,0,6.805,0,6.805,0 c0.908,0,1.762-0.354,2.403-0.996l2.022-2.021c0.652-0.653,0.999-1.519,0.999-2.402c0-0.438-0.086-0.883-0.262-1.306 c-0.525-1.273-1.759-2.098-3.141-2.098H10.671z M19.551,45.458c-0.003,0.055-0.029,0.106-0.029,0.161v19.903 c0,0.025,0.014,0.053,0.015,0.08c-1.598,0-3.567,0-5.201,0c0.001-0.027,0.015-0.053,0.015-0.08V45.619 c0-0.055-0.026-0.106-0.029-0.161C15.969,45.458,17.902,45.458,19.551,45.458z"/>
<path fill-opacity="0.13" fill="#DEE9F3" d="M10.671,10.867c-0.895,0-1.692,0.534-2.033,1.36c-0.113,0.273-0.169,0.559-0.169,0.842 c0,0.469,0.187,0.911,0.474,1.295c-0.288-0.002-0.58,0.051-0.858,0.166H8.083c-0.824,0.342-1.357,1.14-1.357,2.032v21.792 c0,0.893,0.533,1.689,1.357,2.032c0.397,0.164,0.813,0.166,1.215,0.096c-0.05,0.185-0.111,0.367-0.111,0.563 c0,0.145,0.055,0.277,0.082,0.416c-0.394-0.063-0.798-0.059-1.185,0.102H8.083c-0.824,0.342-1.357,1.14-1.357,2.032v23.95 c0,0.893,0.533,1.689,1.357,2.031c0.275,0.113,0.563,0.168,0.848,0.168c-0.279,0.381-0.462,0.816-0.462,1.277 c0,0.285,0.056,0.572,0.169,0.846c0.34,0.824,1.139,1.357,2.032,1.357h12.49c0.894,0,1.691-0.533,2.033-1.359 c0.113-0.273,0.169-0.561,0.169-0.844c0-0.465-0.185-0.904-0.469-1.287c0.3,0.008,0.604-0.037,0.894-0.158 c0.825-0.342,1.358-1.139,1.358-2.031v-23.95c0-0.893-0.533-1.69-1.357-2.032c-0.401-0.166-0.822-0.167-1.229-0.094 c0.028-0.141,0.084-0.275,0.084-0.424c0-0.588-0.229-1.14-0.645-1.555l-1.013-1.014c-0.415-0.415-0.967-0.644-1.555-0.644 c0,0-8.62,0-8.893,0c0.383-0.405,0.61-0.946,0.61-1.503V18.587c0-0.477-0.191-0.923-0.477-1.303 c0.007,0.001,0.014,0.005,0.021,0.005h8.443c0.587,0,1.14-0.229,1.555-0.644l2.022-2.021c0.633-0.633,0.82-1.574,0.478-2.399 c-0.34-0.823-1.138-1.357-2.032-1.357H10.671z M23.39,42.04L23.39,42.04L23.39,42.04z M21.237,44.258 c-0.312,0.389-0.516,0.861-0.516,1.361v19.903c0,0.471,0.189,0.912,0.469,1.291c-0.019-0.002-0.035-0.012-0.054-0.012 c0,0-8.447,0.002-8.45,0.002c0.275-0.377,0.463-0.814,0.463-1.281V45.619c0-0.5-0.204-0.973-0.516-1.361 C13.069,44.258,20.876,44.258,21.237,44.258z"/>
<linearGradient id="_2" gradientUnits="userSpaceOnUse" x1="16.94" y1="4.33" x2="16.94" y2="66.34">
<stop stop-color="#87A8CB" offset="0"/>
<stop stop-color="#235487" offset="1"/>
</linearGradient>
<path fill="url(#_2)" d="M11.949,36.745l-4.023,4.023V14.147l4.023,4.025V36.745z M11.949,65.937L7.926,69.96V41.182 l4.023,4.023V65.937z M12.279,16.089l-4.023-4.021h17.318l-4.023,4.021H12.279z M21.551,68.003l4.023,4.023H8.256l4.023-4.023 H21.551z M11.984,43.058l-2.012-2.012l2.012-2.012h9.861l2.012,2.012l-2.012,2.012H11.984z M21.922,45.205l4.023-4.023V69.96 l-4.023-4.023V45.205z"/>
</svg>