<?xml version="1.0" encoding="UTF-8" standalone="no"?>
<!DOCTYPE svg PUBLIC "-//W3C//DTD SVG 1.1 Tiny//EN" "http://www.w3.org/Graphics/SVG/1.1/DTD/svg11-tiny.dtd">
<svg xmlns="http://www.w3.org/2000/svg" xmlns:xlink="http://www.w3.org/1999/xlink" width="8" height="8" viewBox="0 0 8 8">
<rect fill="none" height="8" width="8"/>
<linearGradient id="SVGID_1" gradientUnits="userSpaceOnUse" x1="4" y1="1.32" x2="4" y2="43.56">
<stop stop-color="#9DDB80" offset="0"/>
<stop stop-color="#6BB149" offset="0.73"/>
<stop stop-color="#709C5B" offset="1"/>
</linearGradient>
<path d="M5.73,0H0v0.999h5.73c0.696,0,1.265,0.563,1.265,1.257V8H8V2.255C8,1.013,6.981,0,5.73,0z" fill="url(#SVGID_1)"/>
<g fill-opacity="0.7" stroke-opacity="0.7">
<linearGradient id="SVGID_2" gradientUnits="userSpaceOnUse" x1="3.5" y1="49.78" x2="3.5" y2="-1.06">
<stop stop-color="#84D260" offset="0"/>
<stop stop-color="#8CD56A" offset="0.53"/>
<stop stop-color="#C1E9B0" offset="1"/>
</linearGradient>
<path d="M6.995,8V2.255c0-0.693-0.566-1.257-1.265-1.257H0V8H6.995z" fill="url(#SVGID_2)"/>
</g>
<linearGradient id="SVGID_3" gradientUnits="userSpaceOnUse" x1="3.31" y1="47.97" x2="3.31" y2="-21.85">
<stop stop-color="#EAF8E5" offset="0"/>
<stop stop-color="#E6F6E0" offset="0.13"/>
<stop stop-color="#DAF2D0" offset="0.62"/>
<stop stop-color="#D6F0CA" offset="1"/>
</linearGradient>
<path d="M5.99,1.997l0.622-0.622C6.367,1.123,6.08,0.999,5.73,0.999H0v0.999H5.99z" fill="url(#SVGID_3)"/>
<linearGradient id="SVGID_4" gradientUnits="userSpaceOnUse" x1="6.49" y1="6.64" x2="6.49" y2="50.33">
<stop stop-color="#C1E9AF" offset="0"/>
<stop stop-color="#78B75C" offset="1"/>
</linearGradient>
<path d="M6.995,2.255c0-0.345-0.143-0.651-0.373-0.872C6.619,1.371,5.991,2.011,5.991,2.011s0,2.394,0,5.989 h1.004V2.255z" fill="url(#SVGID_4)"/>
</svg>