<?xml version="1.0" encoding="UTF-8" standalone="no"?>
<!DOCTYPE svg PUBLIC "-//W3C//DTD SVG 1.1 Tiny//EN" "http://www.w3.org/Graphics/SVG/1.1/DTD/svg11-tiny.dtd">
<svg xmlns="http://www.w3.org/2000/svg" xmlns:xlink="http://www.w3.org/1999/xlink" width="5" height="5" viewBox="0 0 5 5">
<rect fill="none" height="5" width="5"/>
<linearGradient id="_3" gradientUnits="userSpaceOnUse" x1="2.5" y1="4.15" x2="2.5" y2="-37.1">
<stop stop-color="#373D41" offset="0"/>
<stop stop-color="#8C959F" offset="0.69"/>
</linearGradient>
<path d="M0.5,2.5V0H0v2.5c0,1.104,0.895,2,2,2h3V4H2C1.172,4,0.5,3.327,0.5,2.5z" fill="url(#_3)" fill-opacity="0.8" />
<path d="M1,2.5V0H0.5v2.5C0.5,3.327,1.172,4,2,4h3V3.5H2C1.447,3.5,1,3.052,1,2.5z" fill="#FFFFFF" fill-opacity="0.7" />
<linearGradient id="_4" gradientUnits="userSpaceOnUse" x1="3" y1="-36.1" x2="3" y2="3.4">
<stop stop-color="#B5B9BE" offset="0"/>
<stop stop-color="#EFF0F3" offset="1"/>
</linearGradient>
<path d="M1,0v2.5c0,0.552,0.447,1,1,1h3V0H1z" fill="url(#_4)" fill-opacity="0.7" />
<path d="M2,4.5c-0.426,0-0.816-0.134-1.141-0.359C1.221,4.659,1.82,5,2.5,5H5V4.5H2z" fill-opacity="0.4" />
</svg>