<?xml version="1.0" encoding="UTF-8"?>
<!DOCTYPE svg PUBLIC "-//W3C//DTD SVG 1.1 Tiny//EN" "http://www.w3.org/Graphics/SVG/1.1/DTD/svg11-tiny.dtd">
<svg width="44" height="32" viewBox="-0.5 -0.5 44 32">
<path fill="#656B6B" fill-opacity="0.01" d="M-0.5,25.5c10.661,0,16.895,0,16.895,0C30.238,25.5,41.5,14.233,41.5,0.385V-0.5h-42 V25.5z"/>
<path fill="#656B6B" fill-opacity="0.02" d="M-0.5,24.5c10.661,0,16.895,0,16.895,0C29.688,24.5,40.5,13.683,40.5,0.385V-0.5h-41 V24.5z"/>
<path fill="#656B6B" fill-opacity="0.03" d="M-0.5,23.5c10.661,0,16.895,0,16.895,0C29.135,23.5,39.5,13.131,39.5,0.385V-0.5h-40 V23.5z"/>
<path fill="#656B6B" fill-opacity="0.06" d="M-0.5,22.5c10.66,0,16.895,0,16.895,0C28.584,22.5,38.5,12.58,38.5,0.385V-0.5h-39 V22.5z"/>
<path fill="#656B6B" fill-opacity="0.05" d="M-0.5,21.5h15.9h0.994C28.032,21.5,37.5,12.026,37.5,0.385V-0.5h-38V21.5z"/>
<path fill="#656B6B" fill-opacity="0.1" d="M-0.5,20.5h16.895C27.48,20.5,36.5,11.478,36.5,0.385V-0.5h-37V20.5z"/>
<path fill="#656B6B" fill-opacity="0.1" d="M-0.5,19.5c10.658,0,16.895,0,16.895,0C26.93,19.5,35.5,10.926,35.5,0.385V-0.5h-36 V19.5z"/>
<path fill="#656B6B" fill-opacity="0.1" d="M-0.5,18.5h16.895c9.983,0,18.105-8.127,18.105-18.115V-0.5h-35V18.5z"/>
<linearGradient id="_2" gradientUnits="userSpaceOnUse" x1="16.5" y1="9" x2="16.5" y2="-71">
<stop stop-color="#D9F4E0" offset="0"/>
<stop stop-color="#FFFFFF" offset="1"/>
</linearGradient>
<path fill="url(#_2)" d="M-0.5,17.5h16.895C25.842,17.5,33.5,9.836,33.5,0.385V-0.5h-34V17.5z"/>
</svg>