<?xml version="1.0" encoding="UTF-8"?>
<!DOCTYPE svg PUBLIC "-//W3C//DTD SVG 1.1 Tiny//EN" "http://www.w3.org/Graphics/SVG/1.1/DTD/svg11-tiny.dtd">
<svg width="6" height="6" viewBox="-0.167 0.167 6 6">
<linearGradient id="_4" gradientUnits="userSpaceOnUse" x1="2.34" y1="-12.31" x2="2.34" y2="-75.3">
<stop stop-color="#929699" offset="0"/>
<stop stop-color="#989C9F" offset="0.08"/>
<stop stop-color="#C3C7CC" offset="0.69"/>
<stop stop-color="#D3D8DD" offset="1"/>
</linearGradient>
<path fill="url(#_4)" d="M-0.167,5.167h1.005c2.209,0,4-1.791,4-4v-1h-5.005V5.167z"/>
<path fill="#FFFFFF" d="M-0.167,4.167h1.005c1.654,0,3-1.346,3-3v-1h-4.005V4.167z"/>
<linearGradient id="_5" gradientUnits="userSpaceOnUse" x1="1.34" y1="5.8" x2="1.34" y2="-75.28">
<stop stop-color="#D9DDDF" offset="0.24"/>
<stop stop-color="#FFFFFF" offset="1"/>
</linearGradient>
<path fill="url(#_5)" d="M-0.167,3.167h1.005c1.104,0,2-0.897,2-2v-1h-3.005V3.167z"/>
<linearGradient id="_6" gradientUnits="userSpaceOnUse" x1="2.33" y1="-80.62" x2="2.33" y2="-1.06">
<stop stop-color="#FFFFFF" offset="0"/>
<stop stop-color="#C1C7CD" offset="0.38"/>
<stop stop-color="#B0B8BF" offset="0.52"/>
<stop stop-color="#D3D8DD" offset="1"/>
</linearGradient>
<rect x="1.833" y="0.167" fill-opacity="0.5" fill="url(#_6)" width="1" height="1"/>
<path fill-opacity="0.12" d="M4.833,1.167c0,2.209-1.791,4-4,4h-1v1h1c2.758,0,5-2.243,5-5v-1h-1V1.167z"/>
</svg>