<?xml version="1.0" encoding="UTF-8"?>
<!DOCTYPE svg PUBLIC "-//W3C//DTD SVG 1.1 Tiny//EN" "http://www.w3.org/Graphics/SVG/1.1/DTD/svg11-tiny.dtd">
<svg width="10" height="10" viewBox="-0.834 -0.178 10 10">
<g fill-opacity="0.65" stroke-opacity="0.65">
<linearGradient id="_4" gradientUnits="userSpaceOnUse" x1="3.67" y1="67.22" x2="3.67" y2="11.01">
<stop stop-color="#929699" offset="0"/>
<stop stop-color="#989C9F" offset="0.08"/>
<stop stop-color="#C3C7CC" offset="0.69"/>
<stop stop-color="#D3D8DD" offset="1"/>
</linearGradient>
<path fill="url(#_4)" d="M8.166,9.822v-6c0-2.209-1.791-4-4-4h-5v10H8.166z"/>
<path fill="#FFFFFF" d="M7.166,9.822v-6c0-1.654-1.346-3-3-3h-5v9H7.166z"/>
<linearGradient id="_5" gradientUnits="userSpaceOnUse" x1="2.67" y1="83.16" x2="2.67" y2="11.18">
<stop stop-color="#D9DDDF" offset="0.24"/>
<stop stop-color="#FFFFFF" offset="1"/>
</linearGradient>
<path fill="url(#_5)" d="M6.166,9.822v-6c0-1.102-0.896-2-2-2h-5v8H6.166z"/>
<path fill="#FFFFFF" d="M4.166,9.822v-5c0-0.551-0.449-1-1-1h-4v6H4.166z"/>
<linearGradient id="_6" gradientUnits="userSpaceOnUse" x1="5.67" y1="6.66" x2="5.67" y2="76.86">
<stop stop-color="#FFFFFF" offset="0"/>
<stop stop-color="#C1C7CD" offset="0.38"/>
<stop stop-color="#B0B8BF" offset="0.52"/>
<stop stop-color="#D3D8DD" offset="1"/>
</linearGradient>
<rect x="5.166" y="3.822" fill-opacity="0.5" fill="url(#_6)" width="1" height="6"/>
<path fill-opacity="0.12" d="M7.447,1.543c0.451,0.646,0.719,1.432,0.719,2.279v6h1v-5C9.166,3.463,8.484,2.266,7.447,1.543z"/>
</g>
</svg>