<?xml version="1.0" encoding="UTF-8"?>
<!DOCTYPE svg PUBLIC "-//W3C//DTD SVG 1.1 Tiny//EN" "http://www.w3.org/Graphics/SVG/1.1/DTD/svg11-tiny.dtd">
<svg width="6" height="6" viewBox="-0.167 0.167 6 6">
<linearGradient id="_4" gradientUnits="userSpaceOnUse" x1="2.84" y1="75.69" x2="2.84" y2="12.7">
<stop stop-color="#929699" offset="0"/>
<stop stop-color="#989C9F" offset="0.08"/>
<stop stop-color="#C3C7CC" offset="0.69"/>
<stop stop-color="#D3D8DD" offset="1"/>
</linearGradient>
<path fill="url(#_4)" d="M-0.162,4.167v2h5.995v-6H3.838C1.629,0.167-0.162,1.958-0.162,4.167z"/>
<path fill="#FFFFFF" d="M5.833,1.167H3.838c-1.654,0-3,1.346-3,3v2h4.995V1.167z"/>
<linearGradient id="_5" gradientUnits="userSpaceOnUse" x1="3.84" y1="93.8" x2="3.84" y2="12.72">
<stop stop-color="#D9DDDF" offset="0.24"/>
<stop stop-color="#FFFFFF" offset="1"/>
</linearGradient>
<path fill="url(#_5)" d="M5.833,2.167H3.838c-1.104,0-2,0.897-2,2v2h3.995V2.167z"/>
<path fill="#FFFFFF" d="M5.833,4.167H4.838c-0.551,0-1,0.448-1,1v1h1.995V4.167z"/>
<linearGradient id="_6" gradientUnits="userSpaceOnUse" x1="2.34" y1="7.38" x2="2.34" y2="86.94">
<stop stop-color="#FFFFFF" offset="0"/>
<stop stop-color="#C1C7CD" offset="0.38"/>
<stop stop-color="#B0B8BF" offset="0.52"/>
<stop stop-color="#D3D8DD" offset="1"/>
</linearGradient>
<rect x="1.838" y="4.167" fill-opacity="0.5" fill="url(#_6)" width="1" height="2"/>
</svg>