<?xml version="1.0" encoding="UTF-8"?>
<!DOCTYPE svg PUBLIC "-//W3C//DTD SVG 1.1 Tiny//EN" "http://www.w3.org/Graphics/SVG/1.1/DTD/svg11-tiny.dtd">
<svg width="10" height="10" viewBox="-0.834 -0.178 10 10">
<g fill-opacity="0.65" stroke-opacity="0.65">
<linearGradient id="_4" gradientUnits="userSpaceOnUse" x1="4.17" y1="67.22" x2="4.17" y2="11.01">
<stop stop-color="#929699" offset="0"/>
<stop stop-color="#989C9F" offset="0.08"/>
<stop stop-color="#C3C7CC" offset="0.69"/>
<stop stop-color="#D3D8DD" offset="1"/>
</linearGradient>
<path fill="url(#_4)" d="M9.166-0.178h-6c-2.209,0-4,1.791-4,4v6h10V-0.178z"/>
<path fill="#FFFFFF" d="M9.166,0.822h-6c-1.654,0-3,1.346-3,3v6h9V0.822z"/>
<linearGradient id="_5" gradientUnits="userSpaceOnUse" x1="5.17" y1="83.16" x2="5.17" y2="11.18">
<stop stop-color="#D9DDDF" offset="0.24"/>
<stop stop-color="#FFFFFF" offset="1"/>
</linearGradient>
<path fill="url(#_5)" d="M9.166,1.822h-6c-1.104,0-2,0.898-2,2v6h8V1.822z"/>
<path fill="#FFFFFF" d="M9.166,3.822h-5c-0.551,0-1,0.449-1,1v5h6V3.822z"/>
<linearGradient id="_6" gradientUnits="userSpaceOnUse" x1="1.67" y1="6.66" x2="1.67" y2="76.86">
<stop stop-color="#FFFFFF" offset="0"/>
<stop stop-color="#C1C7CD" offset="0.38"/>
<stop stop-color="#B0B8BF" offset="0.52"/>
<stop stop-color="#D3D8DD" offset="1"/>
</linearGradient>
<rect x="1.166" y="3.822" fill-opacity="0.5" fill="url(#_6)" width="1" height="6"/>
</g>
</svg>