<?xml version="1.0" encoding="UTF-8"?>
<!DOCTYPE svg PUBLIC "-//W3C//DTD SVG 1.1 Tiny//EN" "http://www.w3.org/Graphics/SVG/1.1/DTD/svg11-tiny.dtd">
<svg baseProfile="tiny" height="96px" version="1.1" viewBox="0 0 96 96" width="96px" x="0px" xmlns="http://www.w3.org/2000/svg" xmlns:xlink="http://www.w3.org/1999/xlink" y="0px">
<path d="M92.559,47.072c-2.385-4.111-6.393-6.659-10.57-6.666V21.493c0-0.552-0.448-1-1-1h-66c-0.552,0-1,0.448-1,1  v48.51c0,0.552,0.448,1,1,1h50.728c0.421,2.705,0.979,5.494,2.366,7.729c1.65,2.657,4.815,4.243,8.467,4.243  c2.362,0,4.775-0.675,6.979-1.951c3.188-1.852,1.625-5.027,0.112-8.1l-0.313-0.638c-0.068-0.143-0.172-0.268-0.301-0.365  c-0.464-0.345-0.948-0.709-1.456-1.105c0.253-0.182,0.418-0.478,0.418-0.813V55.632c2.284-0.488,4.023-0.719,5.614-0.912  c0.156-0.02,0.439-0.165,0.439-0.165C91.639,52.103,94.408,50.264,92.559,47.072z M76.745,77.724c-3.921,0-5.935-3.113-5.878-6.721  h3.21c2.381,1.468,4.604,3.57,5.968,5.645c0.15,0.229,0.157,0.335,0.159,0.34C80.078,77.216,79.035,77.718,76.745,77.724z   M81.988,50.813v-5.104c0.87-0.064,2.063,0.291,3.063,0.867c1.975,1.137,2.624,2.088,2.621,2.335  C87.673,48.911,86.283,49.987,81.988,50.813z" fill-opacity="0.15" stroke-opacity="0.15"/>
<path d="M92.126,47.323c-2.296-3.958-6.226-6.613-10.638-6.398V21.493c0-0.276-0.224-0.5-0.5-0.5h-66  c-0.276,0-0.5,0.224-0.5,0.5v48.51c0,0.276,0.224,0.5,0.5,0.5h51.157c0.446,2.948,0.992,5.76,2.361,7.965  c1.559,2.509,4.565,4.007,8.042,4.007c2.274,0,4.601-0.651,6.729-1.884c2.785-1.617,1.391-4.449-0.085-7.446l-0.314-0.64  c-0.035-0.072-0.087-0.135-0.15-0.183c-0.73-0.544-1.511-1.135-2.356-1.819h0.617c0.276,0,0.5-0.224,0.5-0.5V55.229  c2.501-0.552,4.36-0.799,6.053-1.005c0.079-0.01,0.221-0.083,0.221-0.083C91.133,51.896,93.741,50.11,92.126,47.323z M20.033,24.993  v-1.49h2v1.49H20.033z M20.033,67.989v-1.49h2v1.49H20.033z M26.033,24.993v-1.49h2v1.49H26.033z M26.033,67.989v-1.49h2v1.49  H26.033z M32.033,24.993v-1.49h2v1.49H32.033z M32.033,67.989v-1.49h2v1.49H32.033z M38.033,24.993v-1.49h2v1.49H38.033z   M38.033,67.989v-1.49h2v1.49H38.033z M44.033,24.993v-1.49h2v1.49H44.033z M44.033,67.989v-1.49h2v1.49H44.033z M50.033,24.993  v-1.49h2v1.49H50.033z M50.033,67.989v-1.49h2v1.49H50.033z M56.033,24.993v-1.49h2v1.49H56.033z M56.033,67.989v-1.49h2v1.49  H56.033z M62.033,24.993v-1.49h2v1.49H62.033z M62.033,67.989v-1.49h2v1.49H62.033z M70.033,23.503v1.49h-2v-1.49H70.033z   M74.033,24.993v-1.49h2v1.49H74.033z M70.392,70.503h3.826c2.488,1.509,4.816,3.695,6.245,5.87  c0.352,0.535,0.224,0.772,0.182,0.851c-0.32,0.594-1.878,0.995-3.899,1C72.123,78.224,70.082,74.188,70.392,70.503z M81.488,45.241  c1.761-0.104,2.735,0.28,3.813,0.9c1.733,0.998,2.886,2.122,2.867,2.795c-0.002,0.089-0.01,0.358-0.58,0.647  c-1.716,0.871-3.864,1.507-6.1,1.809V45.241z" fill-opacity="0.15" stroke-opacity="0.15"/>
<path d="M91.693,47.574c-2.612-4.505-7.015-6.587-10.705-6.099l-0.012-15.982h-1.443v-2.49h1.455v-1.51h-66v1.51  h1.545v2.49h-1.545v40.506h1.545v2.49h-1.545v1.514h51.588c0.429,2.896,0.944,5.928,2.355,8.201  c2.384,3.837,8.511,5.189,14.095,1.954c2.549-1.479,1.014-4.13-0.598-7.435c-1.125-0.838-2.21-1.67-3.441-2.721h2.001v-1.514h-1.441  v-2.491h1.441v-11.17c2.621-0.596,4.514-0.86,6.492-1.101C90.521,51.661,93.171,50.124,91.693,47.574z M76.533,67.791  c-0.568-0.539-1.178-1.133-1.836-1.792h1.836V67.791z M25.533,68.489v-2.49h3v2.49H25.533z M31.533,68.489v-2.49h3v2.49H31.533z   M37.533,68.489v-2.49h3v2.49H37.533z M43.533,68.489v-2.49h3v2.49H43.533z M49.533,68.489v-2.49h3v2.49H49.533z M55.533,68.489  v-2.49h3v2.49H55.533z M61.533,68.489v-2.49h3v2.49H61.533z M76.533,23.003v2.49h-3v-2.49H76.533z M70.533,23.003v2.49h-3v-2.49  H70.533z M64.533,23.003v2.49h-3v-2.49H64.533z M58.533,23.003v2.49h-3v-2.49H58.533z M52.533,23.003v2.49h-3v-2.49H52.533z   M46.533,23.003v2.49h-3v-2.49H46.533z M40.533,23.003v2.49h-3v-2.49H40.533z M34.533,23.003v2.49h-3v-2.49H34.533z M28.533,23.003  v2.49h-3v-2.49H28.533z M19.533,23.003h3v2.49h-3V23.003z M19.533,65.999h3v2.49h-3V65.999z M80.881,76.099  c1.272,1.938-1.483,2.619-4.112,2.625c-6.151,0.016-7.257-6.037-6.819-8.721h4.407C76.571,71.324,79.186,73.519,80.881,76.099z   M87.814,50.03c-2.127,1.079-4.614,1.685-6.826,1.928v-7.146c1.354-0.261,2.891-0.066,4.563,0.896  C87.828,47.021,89.882,48.981,87.814,50.03z" fill-opacity="0.4" stroke-opacity="0.4"/>
<rect fill="none" height="96" width="96"/>
<rect fill="#E6E6E6" height="0.686" width="65.988" x="14.988" y="24.493"/>
<rect fill="#808080" height="0.736" width="66" x="14.988" y="67.489"/>
<rect fill="#CCCCCC" height="0.5" width="66" x="14.988" y="20.493"/>
<linearGradient gradientUnits="userSpaceOnUse" id="SVGID_1_" x1="47.9878" x2="47.9878" y1="-151.8232" y2="92.7494">
<stop offset="0" style="stop-color:#FFFFFF"/>
<stop offset="1" style="stop-color:#232323"/>
</linearGradient>
<path d="M80.988,22.003v-1.51h-66v1.51h1.545v3h-1.545v39.996h1.545v3h-1.545v1.004h66v-1.005h-1.441v-3  h1.441V25.003h-1.455v-3H80.988z M22.533,67.999h-3v-3h3V67.999z M22.533,25.003h-3v-3h3V25.003z M28.533,67.999h-3v-3h3V67.999z   M28.533,25.003h-3v-3h3V25.003z M34.533,67.999h-3v-3h3V67.999z M34.533,25.003h-3v-3h3V25.003z M40.533,67.999h-3v-3h3V67.999z   M40.533,25.003h-3v-3h3V25.003z M46.533,67.999h-3v-3h3V67.999z M46.533,25.003h-3v-3h3V25.003z M52.533,67.999h-3v-3h3V67.999z   M52.533,25.003h-3v-3h3V25.003z M58.533,67.999h-3v-3h3V67.999z M58.533,25.003h-3v-3h3V25.003z M64.533,67.999h-3v-3h3V67.999z   M64.533,25.003h-3v-3h3V25.003z M70.533,67.999h-3v-3h3V67.999z M70.533,25.003h-3v-3h3V25.003z M76.533,67.999h-3v-3h3V67.999z   M76.533,25.003h-3v-3h3V25.003z" fill="url(#SVGID_1_)"/>
<linearGradient gradientUnits="userSpaceOnUse" id="SVGID_2_" x1="47.9878" x2="47.9878" y1="0.6143" y2="85.6699">
<stop offset="0" style="stop-color:#FFFFFF"/>
<stop offset="1" style="stop-color:#232323"/>
</linearGradient>
<path d="M27.982,63.969h37.719v-38H27.982V63.969z M14.988,63.993h8.996v-38h-8.996V63.993z M70.102,25.993  v37.976h10.887V25.993H70.102z" fill="url(#SVGID_2_)"/>
<linearGradient gradientUnits="userSpaceOnUse" id="SVGID_3_" x1="48.0181" x2="48.0181" y1="63.0645" y2="-77.1877">
<stop offset="0" style="stop-color:#FFFFFF;stop-opacity:0"/>
<stop offset="1" style="stop-color:#000000"/>
</linearGradient>
<path d="M71.85,31.411c2.416,0,6.818,0.105,9.156,0.287l-0.031-6.715h-1.412v-3h1.455v-1h-66v1h1.545v3  h-1.545v36.275C22.045,45.188,44.82,31.411,71.85,31.411z M73.563,21.983h3v3h-3V21.983z M67.563,21.983h3v3h-3V21.983z   M61.563,21.983h3v3h-3V21.983z M55.563,21.983h3v3h-3V21.983z M49.563,21.983h3v3h-3V21.983z M43.563,21.983h3v3h-3V21.983z   M37.563,21.983h3v3h-3V21.983z M31.563,21.983h3v3h-3V21.983z M25.563,21.983h3v3h-3V21.983z M22.563,24.983h-3v-3h3V24.983z" fill="url(#SVGID_3_)"/>
<path d="M76.707,49.397c0.123-0.323,0.354-0.811,0.777-1.409c0.495-0.7,1.727-2.162,3.504-2.627v-6.397  c-1.148,0.126-2.226,0.453-3.211,0.984c-2.795,1.51-4.916,4.212-6.98,6.84c-1.768,2.253-3.596,4.582-5.078,4.885l-2.574,0.367  c-1.305-0.813-2.878-1.816-4.61-2.922c-11.196-7.141-20.02-12.603-23.268-12.603c-2.006,0-2.277,1.943-1.271,2.726l18.409,14.327  l-23.093,3.288c-1.192,0.166-1.779,1.611-0.857,2.54c0.773,0.781,2.311,1.614,10.823,1.614c5.063,0,11.273-0.297,16.262-0.536  c2.038-0.097,3.896-0.186,5.428-0.243l1.982,1.541c0.688,0.603,1.112,1.782,1.435,3.227h0.149v0.716  c0.174,0.908,0.32,1.891,0.468,2.898c0.019,0.13,0.039,0.26,0.058,0.39h15.93v-0.287c-2.465-1.995-5.328-4.675-10.516-10.341  c4.703-1.505,7.955-2.413,10.516-3.007v-5.923C80.138,49.546,77.854,49.741,76.707,49.397z M73.533,64.999h3v2.49L73.533,64.999z" fill-opacity="0.1" stroke-opacity="0.1"/>
<path d="M76.086,49.727c0.064-0.333,0.328-1.09,0.99-2.027c0.542-0.767,1.907-2.39,3.912-2.857v-5.378  c-1.064,0.123-2.062,0.432-2.974,0.925c-2.706,1.461-4.796,4.125-6.818,6.701c-1.91,2.434-3.714,4.733-5.407,5.078l-2.754,0.393  c-1.336-0.83-2.967-1.87-4.77-3.021c-10.745-6.853-19.892-12.524-22.999-12.524c-1.604,0-1.577,1.355-0.965,1.831l19.34,15.051  l-24.261,3.454c-0.94,0.131-1.056,1.205-0.571,1.693c0.754,0.762,2.544,1.466,10.468,1.466c5.044,0,11.196-0.294,16.238-0.535  c2.121-0.102,4.048-0.193,5.614-0.251l2.148,1.672c1.345,1.179,1.769,4.071,2.218,7.145c0.022,0.153,0.046,0.308,0.068,0.462h14.984  c-1.175-0.956-2.449-2.079-4.016-3.598v2.084h-3v-2.49h2.584c-1.654-1.625-6.392-6.724-6.498-6.853  c0.147-0.055,8.736-2.687,11.369-3.293v-4.904C78.801,50.202,76.963,50.117,76.086,49.727z" fill-opacity="0.1" stroke-opacity="0.1"/>
<path d="M75.583,49.968c-0.07-0.201,0.141-1.222,1.085-2.557c0.59-0.834,2.088-2.618,4.32-3.087V39.97  c-0.979,0.12-1.897,0.405-2.736,0.858c-2.614,1.412-4.672,4.034-6.662,6.57c-1.969,2.509-3.828,4.878-5.73,5.265l-2.934,0.418  c-1.365-0.846-3.055-1.923-4.923-3.115c-8.238-5.254-19.521-12.45-22.736-12.45c-0.883,0-1.07,0.616-0.658,0.937l20.27,15.774  l-25.428,3.62c-0.354,0.05-0.617,0.512-0.285,0.847c0.607,0.613,2.306,1.317,10.112,1.317c5.064,0,11.246-0.297,16.214-0.534  c2.206-0.106,4.202-0.201,5.802-0.258l2.315,1.802c1.482,1.3,1.919,4.28,2.381,7.437c0.026,0.182,0.054,0.364,0.081,0.546h13.692  c-0.964-0.803-2.009-1.734-3.229-2.904v1.391l-3-2.49h1.873c-1.59-1.577-6.387-6.793-6.61-7.071c0.33-0.129,9.53-2.979,12.192-3.587  v-3.889C78.432,50.772,75.793,50.452,75.583,49.968z" fill-opacity="0.3" stroke-opacity="0.3"/>
<linearGradient gradientTransform="matrix(0.9664 0.257 -0.257 0.9664 255.6312 -390.2505)" gradientUnits="userSpaceOnUse" id="SVGID_4_" x1="-83.9473" x2="-83.9473" y1="475.7393" y2="489.6588">
<stop offset="0" style="stop-color:#FFFFFF"/>
<stop offset="1" style="stop-color:#B2B2B2"/>
</linearGradient>
<path d="M65.93,53.158l-36.409,5.184c2.321,2.345,25.931,0.458,33.414,0.332  c3.638-0.061,3.146-0.3,6.837-1.649C69.771,57.024,68.36,52.864,65.93,53.158z" fill="url(#SVGID_4_)"/>
<linearGradient gradientTransform="matrix(0.9664 0.257 -0.257 0.9664 255.6312 -390.2505)" gradientUnits="userSpaceOnUse" id="SVGID_5_" x1="-88.8413" x2="-88.8413" y1="492.415" y2="474.5946">
<stop offset="0" style="stop-color:#B2B2C9"/>
<stop offset="0.0594" style="stop-color:#BABACF"/>
<stop offset="0.3053" style="stop-color:#D8D8E4"/>
<stop offset="0.5475" style="stop-color:#EEEEF3"/>
<stop offset="0.7819" style="stop-color:#FBFBFC"/>
<stop offset="1" style="stop-color:#FFFFFF"/>
</linearGradient>
<path d="M32.627,59.229l27.469-3.909l-0.185-1.305l-30.391,4.327C29.938,58.763,31.051,59.045,32.627,59.229z  " fill="url(#SVGID_5_)"/>
<path d="M68.999,56.579c-1.125-1.424-1.504-1.9-3.841-3.311L54.049,54.85l5.084,3.956  c1.495-0.067,2.797-0.116,3.802-0.132c3.524-0.059,3.186-0.288,6.515-1.529C69.313,56.974,68.999,56.579,68.999,56.579z" fill-opacity="0.1" stroke-opacity="0.1"/>
<path d="M68.604,56.889c-1.158-1.47-1.471-1.865-4.013-3.379c-0.069-0.04-0.148-0.087-0.217-0.13l-9.638,1.371  l5.168,4.021c1.17-0.049,2.202-0.086,3.029-0.099c3.342-0.056,3.208-0.265,6.022-1.344C68.835,57.178,68.716,57.028,68.604,56.889z" fill-opacity="0.1" stroke-opacity="0.1"/>
<path d="M68.214,57.199c-1.143-1.447-1.412-1.792-3.879-3.259c-0.229-0.138-0.479-0.289-0.744-0.45l-8.165,1.164  l5.253,4.086c0.852-0.031,1.615-0.055,2.256-0.066c3.137-0.054,3.209-0.238,5.532-1.154C68.378,57.406,68.295,57.301,68.214,57.199z  " fill-opacity="0.3" stroke-opacity="0.3"/>
<linearGradient gradientTransform="matrix(0.9664 0.257 -0.257 0.9664 255.6312 -390.2505)" gradientUnits="userSpaceOnUse" id="SVGID_6_" x1="-83.9468" x2="-83.9468" y1="469.0342" y2="482.9362">
<stop offset="0" style="stop-color:#FFFFFF"/>
<stop offset="1" style="stop-color:#B2B2B2"/>
</linearGradient>
<path d="M69.194,59.198c-2.533-3.007-1.987-2.968-5.114-4.828c-6.434-3.827-25.986-17.193-29.165-16.313  l29.023,22.587C65.979,62.05,69.194,59.198,69.194,59.198z" fill="url(#SVGID_6_)"/>
<linearGradient gradientUnits="userSpaceOnUse" id="SVGID_7_" x1="74.1602" x2="74.1602" y1="60.7148" y2="80.915">
<stop offset="0" style="stop-color:#009AFF"/>
<stop offset="1" style="stop-color:#051F7D"/>
</linearGradient>
<path d="M82.429,71.724c-3.232-2.408-6.101-4.721-13.234-12.525c-1.595-1.746-5.256,1.446-5.256,1.446  c3.136,2.75,1.864,11.52,4.993,16.56c2.384,3.837,8.511,5.189,14.095,1.954C85.575,77.679,84.04,75.028,82.429,71.724z   M81.349,76.603c-0.686,1.275-3.431,1.419-4.579,1.421h-0.024c-4.386,0-6.06-2.986-6.667-4.766c-0.83-2.436-0.589-5.1,0.164-5.681  c0.176-0.136,0.417-0.204,0.717-0.204c2.047,0,7.337,3.247,10.173,7.561C81.538,75.553,81.611,76.114,81.349,76.603z" fill="url(#SVGID_7_)"/>
<linearGradient gradientUnits="userSpaceOnUse" id="SVGID_8_" x1="74.2852" x2="74.2852" y1="32.7075" y2="85.5197">
<stop offset="0" style="stop-color:#009AFF"/>
<stop offset="1" style="stop-color:#051F7D"/>
</linearGradient>
<path d="M82.297,72.59l-0.262-0.537c-3.264-2.435-6.164-4.808-13.209-12.517  c-0.146-0.157-0.314-0.26-0.518-0.313c-1.049-0.28-2.716,0.764-3.628,1.464c1.423,1.65,1.848,4.559,2.297,7.624  c0.452,3.088,0.921,6.282,2.379,8.629c0.952,1.533,2.577,2.673,4.574,3.202c2.787,0.742,6.014,0.225,8.846-1.416  C84.665,77.629,83.912,75.867,82.297,72.59z M81.349,76.603c-0.686,1.275-3.431,1.419-4.579,1.421h-0.024  c-4.386,0-6.06-2.986-6.667-4.766c-0.83-2.436-0.589-5.1,0.164-5.681c0.176-0.136,0.417-0.204,0.717-0.204  c2.047,0,7.337,3.247,10.173,7.561C81.538,75.553,81.611,76.114,81.349,76.603z" fill="url(#SVGID_8_)"/>
<linearGradient gradientTransform="matrix(0.9664 0.257 -0.257 0.9664 255.6312 -390.2505)" gradientUnits="userSpaceOnUse" id="SVGID_9_" x1="-55.0791" x2="-55.0791" y1="488.6074" y2="501.5968">
<stop offset="0" style="stop-color:#051F7D"/>
<stop offset="1" style="stop-color:#009AFF"/>
</linearGradient>
<path d="M71.844,67.307c-0.79-0.21-1.353-0.173-1.725,0.114c-0.813,0.626-0.922,2.874-0.557,4.681  c0.609,3.033,2.449,5.167,5.048,5.858c0.669,0.178,1.395,0.268,2.16,0.264c1.471-0.002,4.045-0.207,4.755-1.526  c0.205-0.384,0.332-1.021-0.227-1.873C78.699,70.867,74.136,67.917,71.844,67.307z M76.769,77.724  c-7.509,0.019-7.503-9.014-6.343-9.909c1.159-0.894,7.351,2.562,10.455,7.284C82.153,77.036,79.397,77.718,76.769,77.724z" fill="url(#SVGID_9_)"/>
<linearGradient gradientTransform="matrix(0.9664 0.257 -0.257 0.9664 255.6312 -390.2505)" gradientUnits="userSpaceOnUse" id="SVGID_10_" x1="-57.3506" x2="-57.3506" y1="460.4248" y2="472.4034">
<stop offset="0" style="stop-color:#051F7D"/>
<stop offset="1" style="stop-color:#009AFF"/>
</linearGradient>
<path d="M91.693,46.574c-3.239-5.585-9.23-7.452-13.204-5.306c-5.219,2.817-8.473,11.061-12.56,11.89  c0,0,1.59,4.589,3.842,3.866c10.069-3.23,13.707-3.811,17.709-4.297C90.521,50.661,93.171,49.124,91.693,46.574z M75.121,50.158  c-0.562-1.354,3.921-9.196,10.43-5.45c2.277,1.313,4.331,3.273,2.264,4.322C82.771,51.588,75.683,51.511,75.121,50.158z" fill="url(#SVGID_10_)"/>
<linearGradient gradientUnits="userSpaceOnUse" id="SVGID_11_" x1="79.1035" x2="79.1035" y1="21.7056" y2="60.6379">
<stop offset="0" style="stop-color:#051F7D"/>
<stop offset="1" style="stop-color:#009AFF"/>
</linearGradient>
<path d="M91.26,46.824c-1.642-2.832-4.185-4.881-6.972-5.624c-1.997-0.53-3.973-0.351-5.562,0.508  c-2.432,1.313-4.424,3.853-6.352,6.308c-1.912,2.438-3.726,4.75-5.78,5.476c0.443,1.06,1.371,2.793,2.421,3.073  c0.204,0.053,0.401,0.049,0.605-0.018c9.942-3.188,13.639-3.808,17.681-4.298l0.495-0.338C90.826,49.868,92.355,48.714,91.26,46.824  z M88.04,49.477c-4.222,2.142-9.647,2.438-11.941,1.828c-0.789-0.211-1.259-0.522-1.439-0.955c-0.395-0.95,0.628-2.952,1.843-4.343  c2.035-2.326,4.694-3.266,7.294-2.574c0.665,0.176,1.339,0.46,2.004,0.844c1.273,0.732,3.407,2.189,3.365,3.687  C89.155,48.398,88.95,49.015,88.04,49.477z" fill="url(#SVGID_11_)"/>
<path d="M61.694,58.075c-1.064-0.284-1.7-1.382-1.417-2.446c0.282-1.066,1.379-1.702,2.446-1.419  c1.065,0.282,1.701,1.38,1.42,2.446C63.859,57.722,62.76,58.359,61.694,58.075L61.694,58.075z" fill-opacity="0.4" stroke-opacity="0.4"/>
<linearGradient gradientTransform="matrix(0.9664 0.257 -0.257 0.9664 255.6312 -390.2505)" gradientUnits="userSpaceOnUse" id="SVGID_12_" x1="-73.1416" x2="-71.0987" y1="480.1748" y2="482.2177">
<stop offset="0" style="stop-color:#E6E6F5"/>
<stop offset="0.9501" style="stop-color:#3C3C4B"/>
<stop offset="1" style="stop-color:#333342"/>
</linearGradient>
<path d="M63.659,56.527c-0.213,0.803-1.034,1.278-1.836,1.064c-0.8-0.212-1.277-1.034-1.063-1.835  c0.213-0.802,1.035-1.278,1.834-1.064C63.396,54.906,63.873,55.727,63.659,56.527z" fill="url(#SVGID_12_)"/>
<path d="M60.893,56.854c0.082,0.152,0.192,0.286,0.321,0.402l2.482-1.315  c-0.026-0.173-0.082-0.337-0.161-0.49L60.893,56.854z" fill="#FFFFFF" fill-opacity="0.5" stroke-opacity="0.5"/>
<path d="M60.727,56.368c0.028,0.17,0.086,0.335,0.166,0.486l2.643-1.403c-0.079-0.151-0.187-0.288-0.314-0.405  L60.727,56.368z" fill-opacity="0.3" stroke-opacity="0.3"/>
</svg>
