<?xml version="1.0" encoding="UTF-8"?>
<!DOCTYPE svg PUBLIC "-//W3C//DTD SVG 1.1 Tiny//EN" "http://www.w3.org/Graphics/SVG/1.1/DTD/svg11-tiny.dtd">
<svg width="44" height="60" viewBox="-1.479 0.993 44 60">
<polygon fill="#656B6B" fill-opacity="0.01" points="42.521,31.993 42.521,60.993 -1.479,60.993 -1.479,0.993 5.173,0.993 40.175,31.993 "/>
<polygon fill="#656B6B" fill-opacity="0.02" points="-1.479,60.993 -1.479,1.993 4.794,1.993 39.796,32.993 42.521,32.993 42.521,60.993 "/>
<polygon fill="#656B6B" fill-opacity="0.03" points="-1.479,60.993 -1.479,2.993 4.415,2.993 39.417,33.993 42.521,33.993 42.521,60.993 "/>
<polygon fill="#656B6B" fill-opacity="0.05" points="-1.479,60.993 -1.479,3.993 4.036,3.993 39.038,34.993 42.521,34.993 42.521,60.993 "/>
<path fill="#656B6B" fill-opacity="0.06" d="M-1.479,60.993v-56h5.137c0,0,34.443,30.506,35.002,31c0.077,0,1.465,0,3.861,0v25 H-1.479z"/>
<path fill="#656B6B" fill-opacity="0.1" d="M-1.479,60.993v-55h4.758c0,0,34.442,30.506,35.001,31c0.081,0,1.603,0,4.241,0v24 H-1.479z"/>
<path fill="#656B6B" fill-opacity="0.1" d="M-1.479,60.993v-54h4.379c0,0,34.441,30.506,35,31c0.085,0,1.751,0,4.621,0v23H-1.479z"/>
<path fill="#656B6B" fill-opacity="0.1" d="M-1.479,60.993v-53c2.559,0,4,0,4,0l35,31c0.702,0,2.443,0,5,0v22H-1.479z"/>
<path fill="#CADCEC" d="M38.278,36.993c0,0-34.439-30.505-34.999-31c-0.081,0-1.79,0-4.759,0v-1h5.139l35,31h3.861v1H38.278z"/>
<linearGradient id="_2" gradientUnits="userSpaceOnUse" x1="20.52" y1="4.99" x2="20.52" y2="139.99">
<stop stop-color="#DEE9F3" offset="0"/>
<stop stop-color="#E6EFF6" offset="0.1"/>
<stop stop-color="#F9FBFD" offset="0.36"/>
<stop stop-color="#FFFFFF" offset="0.54"/>
<stop stop-color="#FBFCFE" offset="0.67"/>
<stop stop-color="#EFF4F9" offset="0.8"/>
<stop stop-color="#DAE7F2" offset="0.92"/>
<stop stop-color="#CADCEC" offset="1"/>
</linearGradient>
<path fill="url(#_2)" d="M-1.479,60.993v-55c2.969,0,4.678,0,4.759,0c0.558,0.495,34.999,31,34.999,31h4.242v24H-1.479z"/>
</svg>