<?xml version="1.0" encoding="UTF-8"?>
<!DOCTYPE svg PUBLIC "-//W3C//DTD SVG 1.1 Tiny//EN" "http://www.w3.org/Graphics/SVG/1.1/DTD/svg11-tiny.dtd">
<svg width="24" height="24" viewBox="-0.5 -0.5 24 24">
<path fill="#656B6B" fill-opacity="0.01" d="M21.5-0.5v6c0,6.617-5.383,12-12,12h-10v-18H21.5z"/>
<path fill="#656B6B" fill-opacity="0.03" d="M20.5-0.5v6c0,6.065-4.936,11-11,11h-10v-17H20.5z"/>
<path fill="#656B6B" fill-opacity="0.04" d="M19.5-0.5v6c0,5.515-4.486,10-10,10h-10v-16H19.5z"/>
<path fill="#656B6B" fill-opacity="0.09" d="M18.5-0.5v6c0,4.963-4.037,9-9,9h-10v-15H18.5z"/>
<path fill="#656B6B" fill-opacity="0.08" d="M17.5-0.5v6c0,4.412-3.589,8-8,8h-10v-14H17.5z"/>
<path fill="#656B6B" fill-opacity="0.1" d="M16.5-0.5v6c0,3.858-3.141,7-7,7h-10v-13H16.5z"/>
<path fill="#656B6B" fill-opacity="0.11" d="M15.5-0.5v6c0,3.31-2.691,6-6,6h-10v-12H15.5z"/>
<path fill="#656B6B" fill-opacity="0.1" d="M14.5-0.5v6c0,2.763-2.238,5-5,5h-10v-11H14.5z"/>
<rect x="-0.5" y="-0.5" fill="#656B6B" fill-opacity="0.03" width="19" height="11"/>
<linearGradient id="_2" gradientUnits="userSpaceOnUse" x1="8.5" y1="5" x2="8.5" y2="-83.5">
<stop stop-color="#D9F4E0" offset="0"/>
<stop stop-color="#FFFFFF" offset="1"/>
</linearGradient>
<rect x="-0.5" y="-0.5" fill="url(#_2)" width="18" height="10"/>
</svg>