<?xml version="1.0" encoding="UTF-8"?>
<!DOCTYPE svg PUBLIC "-//W3C//DTD SVG 1.1 Tiny//EN" "http://www.w3.org/Graphics/SVG/1.1/DTD/svg11-tiny.dtd">
<svg width="17" height="43" viewBox="0 0 17 43">
<path fill="#FFFFFF" fill-opacity="0.16" d="M12.523,5.943c-0.426,0-0.85,0.177-1.28,0.457c-0.431-0.28-0.854-0.457-1.28-0.457 H9.607c-1.08,0-2.029,0.584-2.551,1.476C6.458,6.728,5.583,6.322,4.625,6.387c-1.398,0.1-2.531,1.132-2.757,2.509 c0,0-0.796,4.881-0.796,4.883c0,0.061,0.023,0.942,0.023,0.942C1.1,14.769,1.17,15.13,1.17,15.13 c0.932,2.666,1.571,4.643,1.917,5.935c0.441,1.662,0.756,3.396,0.936,5.152c0.188,1.814,0.284,4.203,0.284,7.102l0.095,0.572 l0.349,0.896c0.009,0.021,0.75,0.859,0.75,0.859c0.001,0,0.332,0.227,0.332,0.227l0.709,0.294c0.047,0.017,0.57,0.133,0.57,0.133 L7.72,36.32c1.575,0,2.889-1.221,3-2.779l0.313-4.354c0-0.006,0.065-2.64,0.065-2.64l-0.17-4.172c0,0-0.395-2.673-0.464-3.143 c0.177,0.038,0.4,0.086,0.4,0.086c0.944,0,3.259-0.322,4.372-3.311c0.469-1.256,0.695-2.886,0.695-4.982l-0.026-0.967 L15.881,8.89c-0.035-1.625-1.381-2.946-3-2.946L12.523,5.943L12.523,5.943z"/>
<path fill="#FFFFFF" fill-opacity="0.17" d="M12.523,6.443c-0.455,0-0.877,0.214-1.28,0.537c-0.403-0.323-0.825-0.537-1.28-0.537 H9.607c-1.239,0-2.241,0.896-2.44,2.099C6.79,7.492,5.781,6.811,4.658,6.886C3.494,6.969,2.55,7.828,2.361,8.977l-0.795,4.879 c-0.003,0.021,0.029,0.846,0.029,0.846c0.011,0.082,0.063,0.323,0.063,0.323c0.92,2.621,1.557,4.589,1.911,5.91 c0.448,1.688,0.768,3.449,0.95,5.231c0.19,1.833,0.287,4.239,0.287,7.152l0.087,0.482l0.32,0.799 c0.015,0.031,0.649,0.702,0.649,0.702c0.048,0.052,0.097,0.081,0.162,0.108l0.707,0.293c0.101,0.029,0.476,0.104,0.476,0.104 l0.52,0.01c1.304,0,2.399-1.018,2.494-2.314l0.313-4.354c0.001-0.024,0.065-2.615,0.065-2.615l-0.17-4.139l-0.5-3.369 c-0.002-0.013-0.054-0.231-0.104-0.439c0.335,0.124,0.677,0.23,1.04,0.23c0.839,0,2.899-0.291,3.903-2.985 c0.446-1.199,0.664-2.771,0.664-4.808l-0.027-0.953L15.381,8.9c-0.029-1.354-1.15-2.457-2.5-2.457H12.523z"/>
<path fill="#FFFFFF" fill-opacity="0.19" d="M12.523,6.943c-0.506,0-0.928,0.278-1.28,0.663c-0.353-0.385-0.772-0.663-1.28-0.663 H9.607c-1.043,0-1.899,0.783-1.992,1.822c-0.058,0.653-0.147,1.164-0.25,1.606C7.156,9.956,6.947,9.458,6.738,8.787 C6.462,7.899,5.621,7.322,4.692,7.385C3.76,7.451,3.005,8.139,2.854,9.058L2.06,13.936c-0.005,0.041,0.035,0.737,0.035,0.737 c0-0.001,0.053,0.247,0.053,0.247c0.907,2.572,1.548,4.553,1.905,5.885c0.455,1.714,0.78,3.501,0.965,5.311 c0.192,1.851,0.289,4.272,0.289,7.202l0.077,0.386l0.292,0.705c0,0.001,0.541,0.541,0.541,0.541l0.707,0.293 c0.002,0,0.383,0.075,0.383,0.075h0.422c1.043,0,1.919-0.813,1.994-1.852l0.314-4.354c0-0.002,0.063-2.592,0.063-2.592 l-0.168-4.105l-0.496-3.314c-0.002-0.005-0.123-0.512-0.209-0.872c0.176-0.11,0.356-0.222,0.356-0.222 c0.017-0.01,0.022-0.021,0.034-0.029c0.421,0.17,0.839,0.34,1.248,0.34c0.734,0,2.541-0.259,3.436-2.66 c0.426-1.143,0.633-2.658,0.633-4.633l-0.027-0.938L14.88,8.912c-0.022-1.085-0.921-1.968-2-1.968L12.523,6.943L12.523,6.943z"/>
<path fill="#FFFFFF" fill-opacity="0.22" d="M12.523,7.443c-0.608,0-1.047,0.419-1.28,0.948 c-0.231-0.529-0.666-0.948-1.279-0.948H9.607c-0.782,0-1.425,0.588-1.495,1.366c-0.099,1.104-0.264,1.939-0.492,2.483 c0-0.002-0.064,0.111-0.12,0.207c-0.06-0.052-0.147-0.144-0.259-0.303C6.91,10.724,6.58,9.963,6.261,8.936 C6.054,8.27,5.422,7.837,4.726,7.884c-0.699,0.05-1.265,0.565-1.378,1.255l-0.794,4.877c-0.006,0.08,0.039,0.615,0.039,0.615 c0.003,0.043,0.012,0.082,0.026,0.122c0.914,2.592,1.559,4.585,1.917,5.923c0.461,1.738,0.792,3.553,0.979,5.389 c0.193,1.867,0.292,4.308,0.292,7.254c0,0.065,0.013,0.132,0.038,0.191l0.293,0.707c0.051,0.122,0.148,0.221,0.271,0.271 l0.707,0.293c0.061,0.025,0.125,0.037,0.191,0.037h0.422c0.782,0,1.439-0.608,1.496-1.387l0.314-4.354 c0-0.007,0.063-2.567,0.063-2.567l-0.168-4.072l-0.492-3.262c-0.002-0.012-0.175-0.727-0.285-1.182 c0.247-0.152,0.665-0.411,0.665-0.411c0.015-0.018,0.07-0.099,0.113-0.16c0.444,0.236,0.916,0.396,1.432,0.396 c0.63,0,2.182-0.228,2.967-2.335c0.404-1.086,0.602-2.544,0.602-4.458l-0.027-0.924l-0.026-1.18 c-0.019-0.815-0.69-1.479-1.5-1.479H12.523z"/>
<path fill="#FFFFFF" fill-opacity="0.26" d="M12.523,7.943c-0.526,0-0.965,0.412-0.998,0.938c-0.07,1.152-0.205,1.778-0.321,2.13 c-0.086-0.336-0.19-0.962-0.242-2.113C10.939,8.363,10.5,7.943,9.964,7.943H9.607c-0.521,0-0.95,0.392-0.997,0.911 c-0.103,1.155-0.281,2.041-0.529,2.632c-0.092,0.216-0.28,0.582-0.488,0.582c-0.232,0-0.488-0.196-0.761-0.584 c-0.362-0.517-0.715-1.324-1.05-2.4C5.645,8.64,5.224,8.352,4.759,8.383C4.293,8.416,3.917,8.761,3.841,9.22l-0.794,4.876 c0,0.001,0.043,0.491,0.043,0.491c0.919,2.606,1.567,4.611,1.928,5.96c0.469,1.766,0.803,3.604,0.994,5.467 c0.195,1.885,0.294,4.344,0.294,7.305L6.6,34.025l0.707,0.293h0.422c0.521,0,0.959-0.405,0.997-0.924L9.04,29.04 c0.001-0.024,0.062-2.543,0.062-2.543l-0.168-4.041L8.448,19.25c-0.006-0.031-0.238-0.982-0.367-1.511 c0.314-0.144,0.651-0.264,0.878-0.502c0,0,0.154-0.226,0.314-0.462c0.459,0.349,0.99,0.542,1.593,0.542 c0.653,0,1.847-0.261,2.497-2.01c0.384-1.029,0.57-2.431,0.57-4.283l-0.027-0.909L13.88,8.931c-0.012-0.546-0.46-0.989-1-0.989 L12.523,7.943L12.523,7.943z"/>
<path fill="#FFFFFF" fill-opacity="0.28" d="M12.523,8.443c-0.264,0-0.482,0.205-0.498,0.469 c-0.182,2.935-0.803,2.969-0.83,2.969c-0.139,0-0.269-0.15-0.383-0.446c-0.123-0.315-0.283-1.006-0.35-2.514 c-0.012-0.267-0.232-0.478-0.5-0.478H9.607c-0.26,0-0.476,0.197-0.498,0.455c-0.108,1.209-0.299,2.145-0.566,2.781 c-0.379,0.889-0.808,0.889-0.949,0.889c-0.41,0-0.793-0.261-1.17-0.797c-0.392-0.559-0.768-1.412-1.118-2.539 c-0.069-0.221-0.282-0.366-0.513-0.35C4.562,8.898,4.372,9.071,4.334,9.301L3.54,14.176c-0.013,0.082-0.005,0.167,0.022,0.246 c0.923,2.618,1.575,4.636,1.939,5.996c0.476,1.791,0.815,3.656,1.009,5.545c0.197,1.902,0.296,4.377,0.296,7.355 c0,0.275,0.224,0.5,0.5,0.5h0.422c0.262,0,0.479-0.198,0.499-0.461l0.314-4.354c0-0.001,0.059-2.52,0.059-2.52l-0.167-4.008 l-0.48-3.151c0,0-0.278-1.137-0.444-1.817c0.401-0.109,0.775-0.287,1.087-0.615c0.226-0.238,0.427-0.546,0.609-0.899 c0.093,0.117,0.177,0.25,0.288,0.341c0.388,0.32,0.85,0.483,1.373,0.483c0.64,0,1.511-0.292,2.03-1.685 c0.361-0.973,0.537-2.316,0.537-4.108l-0.026-0.895l-0.026-1.188c-0.006-0.271-0.229-0.5-0.5-0.5L12.523,8.443L12.523,8.443z"/>
<path fill="#235487" d="M12.907,10.148c-0.019-0.5-0.026-0.902-0.026-1.205h-0.355c-0.143,2.293-0.586,3.438-1.328,3.438 c-0.368,0-0.651-0.254-0.85-0.766c-0.199-0.51-0.326-1.4-0.384-2.672H9.607c-0.113,1.266-0.314,2.242-0.604,2.93 c-0.34,0.797-0.81,1.195-1.41,1.195c-0.579,0-1.105-0.336-1.579-1.01C5.59,11.454,5.195,10.562,4.827,9.38l-0.794,4.875 c0.931,2.641,1.581,4.652,1.95,6.033c0.483,1.819,0.825,3.692,1.023,5.623c0.199,1.928,0.299,4.396,0.299,7.405h0.422 c0.17-2.092,0.274-3.536,0.313-4.338c0.038-0.801,0.059-1.631,0.059-2.494c0-1.545-0.056-2.864-0.165-3.959 c-0.109-1.093-0.265-2.125-0.47-3.095c-0.113-0.533-0.301-1.299-0.562-2.299c0.518,0,0.962-0.193,1.332-0.582 c0.369-0.389,0.675-0.967,0.917-1.732c0.142,0.508,0.361,0.887,0.66,1.133c0.299,0.246,0.649,0.369,1.056,0.369 c0.704,0,1.224-0.453,1.562-1.359c0.338-0.906,0.506-2.217,0.506-3.934C12.934,10.943,12.925,10.65,12.907,10.148z"/>
</svg>