<?xml version="1.0" encoding="UTF-8"?>
<!DOCTYPE svg PUBLIC "-//W3C//DTD SVG 1.1 Tiny//EN" "http://www.w3.org/Graphics/SVG/1.1/DTD/svg11-tiny.dtd">
<svg width="29" height="25" viewBox="0 0 29 25">
<linearGradient id="_94" gradientUnits="userSpaceOnUse" x1="15.97" y1="11.72" x2="21.08" y2="21.8">
<stop stop-color="#A2C2DD" offset="0.1"/>
<stop stop-color="#6C83BB" offset="0.71"/>
<stop stop-color="#003D6D" offset="0.99"/>
</linearGradient>
<path fill="url(#_94)" d="M13.65,0.842c-0.649,0.019-2.327,0.2-3.924,1.464c-2.964,2.041-2.84,5.48-2.84,5.491 c0.012,2.339,1.184,3.414,2.319,4.454c0,0,1.856,1.698,2.002,1.969c0.106,0.2,0.108,2.491,0.108,2.491s1.134,0.659,1.781,1.037 c-0.341,0.189-0.705,0.469-1.065,0.975c-0.36,0.504-0.54,1.095-0.54,1.656c0,0.624,0.221,1.21,0.662,1.604 c0,0,2.639,1.875,2.646,1.879c0.444,0.301,0.974,0.377,1.53,0.22c1.12-0.315,2.045-1.45,2.199-2.698 c0.014-0.102,0.02-0.201,0.02-0.303c0-0.719-0.319-1.389-0.883-1.782c0,0-0.953-0.598-1.6-1.002 c0.595-0.138,2.259-0.53,2.259-0.53s0-2.028,0-2.063c0-0.871-0.015-1.768-0.389-2.611c-0.4-0.911-1.141-1.549-1.854-2.166 c0,0-1.695-1.167-1.654-2.421c0.001-0.042-0.064-1.187,0.98-1.731c0.002,0.018,0.022,0.316,0.022,0.316l2.862,1.168l3.812-0.71 c0.06-1.569-0.491-3.29-1.515-4.292c-0.474-0.463-1.049-0.822-1.71-1.081L15.267,1.05C15.235,1.04,14.498,0.817,13.65,0.842z M9.727,2.307L9.727,2.307L9.727,2.307z"/>
<linearGradient id="_95" gradientUnits="userSpaceOnUse" x1="20.28" y1="7.44" x2="14.72" y2="6.42">
<stop stop-color="#E6EEF4" offset="0"/>
<stop stop-color="#2F8E9A" offset="0.44"/>
<stop stop-color="#003D6D" offset="0.94"/>
</linearGradient>
<path fill="url(#_95)" d="M15.77,6.849c-0.005-0.56-0.137-0.852-0.188-0.965c0.165-0.122,2.856,0.413,2.856,0.413 L18.333,7.89C18.333,7.89,15.884,6.903,15.77,6.849z"/>
<linearGradient id="_96" gradientUnits="userSpaceOnUse" x1="14.67" y1="16.42" x2="14.67" y2="22.5">
<stop stop-color="#E6EEF4" offset="0"/>
<stop stop-color="#2F8E9A" offset="0.44"/>
<stop stop-color="#003D6D" offset="0.94"/>
</linearGradient>
<path fill="url(#_96)" d="M15.063,23.617c0,0-2.228-1.584-2.706-1.924c-0.687-0.611-0.676-1.877-0.039-2.771 c0.638-0.888,1.291-1.063,1.561-1.109c0.272-0.048,0.677-0.027,0.923,0.107c0.246,0.138,2.706,1.688,2.706,1.688L15.063,23.617z"/>
<path fill="#5DA6B1" d="M16.309,19.424c1.235-0.309,2.018,0.773,1.875,1.915c-0.131,1.052-0.902,2.11-1.946,2.404 c-1.234,0.348-2.066-0.706-1.936-1.869C14.423,20.795,15.227,19.697,16.309,19.424"/>
<linearGradient id="_97" gradientUnits="userSpaceOnUse" x1="12.87" y1="3.23" x2="14.03" y2="20.07">
<stop stop-color="#E6EEF4" offset="0"/>
<stop stop-color="#2F8E9A" offset="0.44"/>
<stop stop-color="#003D6D" offset="0.94"/>
</linearGradient>
<path fill="url(#_97)" d="M14.69,18.262c0,0-2.571-1.47-3.01-1.744c0.012-0.989,0.028-2.103-0.162-2.461 c-0.191-0.356-0.812-0.905-1.969-1.967c-1.156-1.062-2.3-2.04-2.313-4.294C7.225,5.542,8.538,3.693,9.943,2.581 c1.408-1.115,2.918-1.365,3.718-1.389c0.799-0.024,1.503,0.192,1.503,0.192l3.611,1.125C18.53,2.446,10.797,6.75,10.797,6.75 L15,16.172L14.69,18.262z"/>
<linearGradient id="_98" gradientUnits="userSpaceOnUse" x1="25.53" y1="-1.38" x2="2.47" y2="25.83">
<stop stop-color="#E6EEF4" offset="0"/>
<stop stop-color="#2F8E9A" offset="0.44"/>
<stop stop-color="#003D6D" offset="0.94"/>
</linearGradient>
<path fill="url(#_98)" d="M16.319,2.241c1.456-0.194,2.966,0.23,4.024,1.266c1.008,0.986,1.465,2.388,1.414,3.78 l-3.426,0.608c0.004-0.138-0.127-2.222-2.306-1.855c-1.053,0.178-1.867,1.24-1.94,2.316c-0.072,1.066,0.639,1.831,1.381,2.494 c0.792,0.707,1.711,1.382,2.152,2.382c0.406,0.918,0.351,1.937,0.356,2.926c0.001,0.167,0,1.328,0,1.328 c-0.156,0.039-2.378,0.553-3.292,0.776c0.013-0.727,0.094-2.157-0.106-2.664c-0.28-0.698-1.105-1.252-1.641-1.741 c-1.549-1.419-2.562-2.528-2.707-4.285C9.948,6.075,12.909,2.698,16.319,2.241"/>
</svg>