<?xml version="1.0" encoding="UTF-8"?>
<!DOCTYPE svg PUBLIC "-//W3C//DTD SVG 1.1 Tiny//EN" "http://www.w3.org/Graphics/SVG/1.1/DTD/svg11-tiny.dtd">
<svg width="100%" height="100%" viewBox="0 0 88 88">
<linearGradient id="_93" gradientUnits="userSpaceOnUse" x1="45.41" y1="44.23" x2="60.83" y2="74.6">
<stop stop-color="#A2C2DD" offset="0.1"/>
<stop stop-color="#6C83BB" offset="0.71"/>
<stop stop-color="#003D6D" offset="0.99"/>
</linearGradient>
<path fill="url(#_93)" d="M47.648,12.71L27.72,15.632l0.234,6.089L8.206,24.7l14.832,45.452l15.27-4.684l-1.574,8.074 l8.579,6.13l1.627-0.78l0.25,1.897l22.272-10.806L67.74,63.83c8.33,1.234,15.595-8.932,10.806-16.814 c0.226-0.11,0.015,0.012,0.381-0.345c2.123-5.392-4.586-9.463-8.575-5.274c0.01,0.223,0.155,0.438,0.157,0.441 c-0.563-0.123-1.133-0.165-1.702-0.219l3.387-14.624l-7.789-2.844c0,0-7.389,1.267-8.45,1.45 c-0.317-1.076-3.353-11.383-3.353-11.383L47.648,12.71z"/>
<linearGradient id="_94" gradientUnits="userSpaceOnUse" x1="64.39" y1="41.87" x2="13.22" y2="41.87">
<stop stop-color="#FFFFFF" offset="0.1"/>
<stop stop-color="#D1E1EE" offset="0.7"/>
<stop stop-color="#A2C2DD" offset="1"/>
</linearGradient>
<polygon fill="url(#_94)" points="23.493,68.962 13.221,27.39 32.078,24.229 31.935,18.002 52.033,14.777 64.393,56.736 "/>
<linearGradient id="_95" gradientUnits="userSpaceOnUse" x1="36.1" y1="55.86" x2="73.46" y2="24.21">
<stop stop-color="#E2E6E4" offset="0"/>
<stop stop-color="#A3740A" offset="1"/>
</linearGradient>
<polygon fill="url(#_95)" points="30.454,35.639 71.369,27.439 64.593,56.719 23.492,68.566 "/>
<linearGradient id="_96" gradientUnits="userSpaceOnUse" x1="47.93" y1="30.75" x2="42.93" y2="19.42">
<stop stop-color="#E2E6E4" offset="0"/>
<stop stop-color="#A3740A" offset="1"/>
</linearGradient>
<polygon fill="url(#_96)" points="30.348,35.797 71.369,27.439 64.336,24.873 23.533,31.873 "/>
<linearGradient id="_97" gradientUnits="userSpaceOnUse" x1="41.28" y1="18.4" x2="38.91" y2="11.97">
<stop stop-color="#FFFFFF" offset="0.1"/>
<stop stop-color="#D1E1EE" offset="0.7"/>
<stop stop-color="#A2C2DD" offset="1"/>
</linearGradient>
<polygon fill="url(#_97)" points="31.935,18.002 51.996,14.798 47.596,13.426 28.443,16.232 "/>
<linearGradient id="_98" gradientUnits="userSpaceOnUse" x1="21.69" y1="27.7" x2="19.27" y2="21.12">
<stop stop-color="#FFFFFF" offset="0.1"/>
<stop stop-color="#D1E1EE" offset="0.7"/>
<stop stop-color="#A2C2DD" offset="1"/>
</linearGradient>
<polygon fill="url(#_98)" points="13.221,27.39 32.078,24.229 28.68,22.318 9.129,25.268 "/>
<linearGradient id="_99" gradientUnits="userSpaceOnUse" x1="13.44" y1="47.08" x2="29.94" y2="52.81">
<stop stop-color="#E6EEF4" offset="0"/>
<stop stop-color="#A3740A" offset="0.44"/>
<stop stop-color="#474105" offset="0.94"/>
</linearGradient>
<polygon fill="url(#_99)" points="30.453,35.854 23.49,69.279 23.533,31.873 "/>
<linearGradient id="_100" gradientUnits="userSpaceOnUse" x1="33.52" y1="30.71" x2="11.47" y2="51.75">
<stop stop-color="#A2C2DD" offset="0.1"/>
<stop stop-color="#6C83BB" offset="0.71"/>
<stop stop-color="#003D6D" offset="0.99"/>
</linearGradient>
<polygon fill="url(#_100)" points="13.221,27.39 23.477,69.025 9.129,25.268 "/>
<linearGradient id="_101" gradientUnits="userSpaceOnUse" x1="54.95" y1="7.2" x2="6.47" y2="32.79">
<stop stop-color="#FFFFFF" offset="0"/>
<stop stop-color="#A2C2DD" offset="0.35"/>
<stop stop-color="#6C83BB" offset="0.7"/>
<stop stop-color="#003D6D" offset="1"/>
</linearGradient>
<polygon fill="url(#_101)" points="28.443,16.232 28.68,22.318 32.078,24.229 31.935,18.002 "/>
<linearGradient id="_102" gradientUnits="userSpaceOnUse" x1="53.87" y1="64.08" x2="19.87" y2="28.75">
<stop stop-color="#E2E6E4" offset="0"/>
<stop stop-color="#A3740A" offset="1"/>
</linearGradient>
<polygon fill="url(#_102)" points="23.477,69.025 30.396,35.847 56.65,30.449 64.393,56.736 "/>
<linearGradient id="_103" gradientUnits="userSpaceOnUse" x1="78.02" y1="46.38" x2="78.02" y2="46.38">
<stop stop-color="#A2C2DD" offset="0.1"/>
<stop stop-color="#6C83BB" offset="0.71"/>
<stop stop-color="#003D6D" offset="0.99"/>
</linearGradient>
<path fill="url(#_103)" d="M78.033,46.364c0-0.003,0-0.003,0-0.005C78.033,46.361,78.033,46.361,78.033,46.364z"/>
<linearGradient id="_104" gradientUnits="userSpaceOnUse" x1="66.22" y1="42.01" x2="66.22" y2="42.02">
<stop stop-color="#A2C2DD" offset="0.1"/>
<stop stop-color="#6C83BB" offset="0.71"/>
<stop stop-color="#003D6D" offset="0.99"/>
</linearGradient>
<path fill="url(#_104)" d="M66.247,41.992c-0.007,0.002-0.017,0-0.024,0.002 C66.23,41.992,66.238,41.992,66.247,41.992z"/>
<radialGradient id="_105" gradientUnits="userSpaceOnUse" cx="76.95" cy="41.78" r="3.52">
<stop stop-color="#E3DFE4" offset="0"/>
<stop stop-color="#C03A3A" offset="1"/>
</radialGradient>
<path fill="url(#_105)" d="M78.275,46.412c1.156-2.944-0.531-4.557-1.619-5.272 c-1.178-0.775-3.153-1.617-5.488,0.461L78.275,46.412z"/>
<linearGradient id="_106" gradientUnits="userSpaceOnUse" x1="73.39" y1="45.65" x2="75.49" y2="43.09">
<stop stop-color="#E6EEF4" offset="0"/>
<stop stop-color="#C03A3A" offset="0.44"/>
<stop stop-color="#302D02" offset="0.94"/>
</linearGradient>
<path fill="url(#_106)" d="M74.342,44.354c1.967,1.33,3.715,2.246,3.936,2.059c0.22-0.185-1.178-1.397-3.141-2.725 c-1.964-1.331-3.729-2.256-3.953-2.075C70.964,41.799,72.379,43.023,74.342,44.354z"/>
<path fill="#E3DFE4" d="M76.102,40.908c0.031-0.022,0.26,0.096,0.515,0.268c0.258,0.172,0.438,0.334,0.409,0.357 c-0.027,0.021-0.258-0.1-0.514-0.271C76.256,41.09,76.073,40.931,76.102,40.908z"/>
<linearGradient id="_107" gradientUnits="userSpaceOnUse" x1="65.85" y1="41.58" x2="66.16" y2="62.84">
<stop stop-color="#FFFFFF" offset="0"/>
<stop stop-color="#496DA2" offset="0.71"/>
<stop stop-color="#235487" offset="0.99"/>
</linearGradient>
<path fill="url(#_107)" d="M67.404,63.145l7.414-18.885c-7.161-4.218-15.469-1.736-17.256,5.036 C56.02,55.127,57.904,60.869,67.404,63.145z"/>
<linearGradient id="_108" gradientUnits="userSpaceOnUse" x1="77.86" y1="37.03" x2="68.68" y2="55.77">
<stop stop-color="#FFFFFF" offset="0.1"/>
<stop stop-color="#D1E1EE" offset="0.7"/>
<stop stop-color="#A2C2DD" offset="1"/>
</linearGradient>
<path fill="url(#_108)" d="M72.479,43.455c4.967,0.927,7.896,6.13,6.545,11.615 c-1.351,5.479-6.654,9.005-11.621,8.07c-4.965-0.931-7.569-5.983-6.545-11.539 C61.924,45.833,67.516,42.523,72.479,43.455z"/>
<linearGradient id="_109" gradientUnits="userSpaceOnUse" x1="68.07" y1="41.71" x2="72.56" y2="61.47">
<stop stop-color="#FFFFFF" offset="0"/>
<stop stop-color="#A2C2DD" offset="0.53"/>
<stop stop-color="#6C83BB" offset="0.87"/>
<stop stop-color="#003D6D" offset="1"/>
</linearGradient>
<path fill="url(#_109)" d="M64.971,60.07c4.198,3.313,10.74,0.361,12.287-5.331 c1.479-5.443-2.4-10.136-7.438-9.396C69.82,45.343,64.93,60.061,64.971,60.07z"/>
<linearGradient id="_110" gradientUnits="userSpaceOnUse" x1="62.7" y1="42.61" x2="72.93" y2="59.01">
<stop stop-color="#FFFFFF" offset="0.1"/>
<stop stop-color="#D1E1EE" offset="0.7"/>
<stop stop-color="#A2C2DD" offset="1"/>
</linearGradient>
<path fill="url(#_110)" d="M64.971,60.07c10.404,4.548,16.6-13.104,5.319-14.67 C62.876,45.129,59.833,56.021,64.971,60.07z"/>
<linearGradient id="_111" gradientUnits="userSpaceOnUse" x1="65.76" y1="45.2" x2="57.33" y2="45.2">
<stop stop-color="#FFFFFF" offset="0"/>
<stop stop-color="#496DA2" offset="0.71"/>
<stop stop-color="#235487" offset="0.99"/>
</linearGradient>
<path fill="url(#_111)" fill-opacity="0.5" d="M57.883,49.215c0.451,0.934,3.044-0.742,4.756-2.396 c2.797-2.707,3.538-4.79,2.907-5.188c-2.226-1.297-4.37-0.812-6.396,1.307C57.729,44.42,56.607,46.563,57.883,49.215z"/>
<radialGradient id="_112" gradientUnits="userSpaceOnUse" cx="61.51" cy="41.51" r="5.06">
<stop stop-color="#E3DFE4" offset="0"/>
<stop stop-color="#C03A3A" offset="1"/>
</radialGradient>
<path fill="url(#_112)" d="M57.229,48.493c0.355,1.026,3.267-0.407,5.248-1.931c3.244-2.49,4.271-4.579,3.66-5.066 c-2.169-1.621-4.467-1.373-6.837,0.596C57.643,43.469,56.214,45.572,57.229,48.493z"/>
<path fill="#E3DFE4" d="M60.857,41.616c-0.088-0.298-0.92,0.207-1.291,0.506c-0.813,0.652-1.064,1.266-0.479,1.104 L60.857,41.616z"/>
<path fill="#681602" d="M60.857,41.618c-0.729,0.198-1.871,1.264-1.771,1.608C59.784,43.033,60.961,41.959,60.857,41.618 z"/>
<path fill="#5C7BB3" fill-opacity="0.4" d="M68.707,54.355c0.079,0.438,0.369,0.799,0.791,0.896 c0.548,0.127,1.118-0.235,1.352-0.825l2.797-3.021l-0.314-0.384l-3.021,1.789c-0.057-0.024-0.106-0.05-0.168-0.062 c-0.166-0.039-0.332-0.031-0.494,0.017l-5.056-3.918l-0.276,0.295L68.707,54.355z"/>
<polygon fill="#CA6769" points="69.807,52.975 73.896,50.555 74.213,50.934 70.893,54.523 "/>
<polygon fill="#CA6769" points="71.146,53.021 65.156,48.38 64.879,48.674 69.795,54.507 "/>
<polygon fill="#FCDBDD" points="70.451,52.575 70.221,52.422 73.627,50.468 73.896,50.555 "/>
<polygon fill="#681602" points="64.93,49.09 69.162,54.252 69.795,54.507 64.879,48.674 "/>
<linearGradient id="_113" gradientUnits="userSpaceOnUse" x1="71.16" y1="51.69" x2="69.7" y2="54.4">
<stop stop-color="#E6EEF4" offset="0"/>
<stop stop-color="#C03A3A" offset="0.44"/>
<stop stop-color="#302D02" offset="0.94"/>
</linearGradient>
<path fill="url(#_113)" d="M70.561,52.125c0.695,0.156,1.103,0.883,0.905,1.624 c-0.194,0.737-0.92,1.21-1.614,1.052c-0.697-0.154-1.103-0.883-0.908-1.623C69.141,52.439,69.863,51.968,70.561,52.125z "/>
<radialGradient id="_114" gradientUnits="userSpaceOnUse" cx="70.94" cy="52.75" r="1.83">
<stop stop-color="#E3DFE4" offset="0"/>
<stop stop-color="#C03A3A" offset="1"/>
</radialGradient>
<path fill="url(#_114)" d="M70.706,52.282c0.604,0.139,0.944,0.813,0.769,1.506 c-0.178,0.687-0.809,1.135-1.41,0.998c-0.603-0.142-0.945-0.813-0.771-1.501C69.475,52.589,70.104,52.141,70.706,52.282 z"/>
<polygon fill="#FFFFFF" points="44.63,57.764 66.098,68.922 45.38,78.861 "/>
<linearGradient id="_115" gradientUnits="userSpaceOnUse" x1="53.41" y1="58.03" x2="51.48" y2="50.87">
<stop stop-color="#FFFFFF" offset="0.1"/>
<stop stop-color="#D1E1EE" offset="0.7"/>
<stop stop-color="#A2C2DD" offset="1"/>
</linearGradient>
<polygon fill="url(#_115)" points="44.729,57.827 63.5,51.193 59.328,50.605 40.889,55.872 "/>
<linearGradient id="_116" gradientUnits="userSpaceOnUse" x1="48.88" y1="66.07" x2="33.77" y2="69.48">
<stop stop-color="#FFFFFF" offset="0"/>
<stop stop-color="#A2C2DD" offset="0.35"/>
<stop stop-color="#6C83BB" offset="0.7"/>
<stop stop-color="#003D6D" offset="1"/>
</linearGradient>
<polygon fill="url(#_116)" points="44.729,57.827 40.889,55.872 37.505,73.236 45.38,78.861 "/>
<linearGradient id="_117" gradientUnits="userSpaceOnUse" x1="68.63" y1="65.5" x2="44.91" y2="65.5">
<stop stop-color="#CADCEC" offset="0"/>
<stop stop-color="#87A8CB" offset="1"/>
</linearGradient>
<polygon fill="url(#_117)" points="44.914,58.068 47.756,79.736 68.63,69.611 63.503,51.268 "/>
<linearGradient id="_118" gradientUnits="userSpaceOnUse" x1="67.07" y1="76.26" x2="51.36" y2="60.27">
<stop stop-color="#FFFFFF" offset="0.1"/>
<stop stop-color="#D1E1EE" offset="0.7"/>
<stop stop-color="#A2C2DD" offset="1"/>
</linearGradient>
<polygon fill="url(#_118)" points="44.729,57.827 47.475,77.741 66.098,68.922 63.501,51.189 "/>
<path fill="#3F5AA6" d="M55.462,51.689c0,0,3.011,0.194,3.851,1.793c-0.82,0.705-0.211,2.563,1.014,2.494 c1.01-0.045,1.497-1.547,0.979-2.246C61.303,53.73,57.896,48.043,55.462,51.689z"/>
<linearGradient id="_119" gradientUnits="userSpaceOnUse" x1="59.78" y1="53.81" x2="56.49" y2="48.56">
<stop stop-color="#87A8CB" offset="0"/>
<stop stop-color="#CADCEC" offset="0.5"/>
<stop stop-color="#87A8CB" offset="1"/>
</linearGradient>
<path fill="url(#_119)" d="M59.7,54.503c0.456,0.515,1.272,0.33,1.427-0.062c1.497-6.188-5.607-6.478-5.645-2.795 C57.073,49.57,59.415,51.334,59.7,54.503z"/>
<path fill="#3F5AA6" d="M49.311,53.493c0,0,3.516,0.271,4.127,1.92c-0.883,0.76-0.227,2.715,1.086,2.644 c1.08-0.052,1.601-1.627,1.043-2.373C55.564,55.684,51.919,49.588,49.311,53.493z"/>
<linearGradient id="_120" gradientUnits="userSpaceOnUse" x1="53.94" y1="55.76" x2="50.41" y2="50.14">
<stop stop-color="#87A8CB" offset="0"/>
<stop stop-color="#CADCEC" offset="0.5"/>
<stop stop-color="#87A8CB" offset="1"/>
</linearGradient>
<path fill="url(#_120)" d="M53.852,56.511c0.488,0.548,1.361,0.351,1.528-0.067c1.604-6.627-6.008-6.935-6.047-2.989 C51.036,51.227,53.546,53.114,53.852,56.511z"/>
<path fill="#3F5AA6" d="M42.56,55.411c0,0,3.799,0.284,4.479,2.094c-0.93,0.795-0.232,2.824,1.145,2.746 c1.133-0.053,1.676-1.681,1.094-2.465C49.275,57.786,45.3,51.309,42.56,55.411z"/>
<linearGradient id="_121" gradientUnits="userSpaceOnUse" x1="47.51" y1="57.88" x2="43.75" y2="51.88">
<stop stop-color="#87A8CB" offset="0"/>
<stop stop-color="#CADCEC" offset="0.5"/>
<stop stop-color="#87A8CB" offset="1"/>
</linearGradient>
<path fill="url(#_121)" d="M47.477,58.655c0.51,0.575,1.428,0.368,1.604-0.07c1.681-6.961-6.452-7.36-6.495-3.221 C44.375,53.03,47.152,55.088,47.477,58.655z"/>
<linearGradient id="_122" gradientUnits="userSpaceOnUse" x1="57.29" y1="73.06" x2="53.48" y2="57.36">
<stop stop-color="#E6EEF4" offset="0"/>
<stop stop-color="#2F8E9A" offset="0.44"/>
<stop stop-color="#003D6D" offset="0.94"/>
</linearGradient>
<polygon fill="url(#_122)" points="56.861,59.094 52.068,63.734 54.123,63.432 54.925,70.995 58.167,69.334 "/>
<rect fill="none" height="88" width="88"/>
</svg>