<?xml version="1.0" encoding="UTF-8"?>
<!DOCTYPE svg PUBLIC "-//W3C//DTD SVG 1.1 Tiny//EN" "http://www.w3.org/Graphics/SVG/1.1/DTD/svg11-tiny.dtd">
<svg width="17" height="43" viewBox="0 0 17 43">
<rect width="17" height="43"/>
<path fill="#FFFFFF" d="M10.53,16.436c-0.65,2.962-1.118,6.341-1.402,10.134H9.019c-0.462-3.607-1.052-6.798-1.77-9.571 c-0.74-2.856-1.678-5.52-2.813-7.993l-0.396,6.5c1.194,1.998,2.155,4.323,2.885,6.976c0.729,2.652,1.328,6.078,1.797,10.275 h0.153c0.3-4.182,0.768-7.701,1.403-10.559c0.635-2.855,1.493-5.315,2.574-7.38l0.088-5.875 C11.961,11.073,11.158,13.571,10.53,16.436z"/>
</svg>