<?xml version="1.0" encoding="UTF-8"?>
<!DOCTYPE svg PUBLIC "-//W3C//DTD SVG 1.1 Tiny//EN" "http://www.w3.org/Graphics/SVG/1.1/DTD/svg11-tiny.dtd">
<svg width="17" height="43" viewBox="0 0 17 43">
<path fill="#FFFFFF" fill-opacity="0.16" d="M4.632,5.967C3.372,6.113,2.336,7.042,2.055,8.28L1.118,12.4 c-0.01,0.059-0.048,0.37-0.048,0.37l0.01,0.285l0.109,0.785c0.009,0.049,0.162,0.528,0.162,0.528 c1.254,2.282,2.125,4.105,2.699,5.652c0.569,1.534,1.074,3.386,1.501,5.501c0,0,0.069,0.156,0.098,0.225 c0.024,0.15,0.61,3.878,0.61,3.878l0.726,4.199c0.247,1.444,1.49,2.493,2.957,2.493h0.481c1.625,0,2.972-1.325,3-2.955 l0.028-1.563c0-0.003,0.027-2.125,0.027-2.125c0-2.539-0.074-4.604-0.221-6.139c-0.141-1.493-0.357-2.831-0.635-4.007 c0.967-0.514,1.73-1.156,2.184-1.967c0.752-1.35,1.135-3.053,1.135-5.063l-0.029-1.924l-0.09-1.779 c-0.002-0.018-0.51-1.401-0.51-1.401C15.177,6.937,14.833,6.59,14.305,6.4l-0.912-0.323c-0.006-0.002-0.229-0.052-0.229-0.052 L12.779,5.98l-0.678,0.036C10.631,6.14,9.48,7.29,9.357,8.752c-0.053,0.637-0.11,1.068-0.162,1.392 C9.146,10.088,9.1,10.049,9.047,9.982C8.68,9.519,8.217,8.724,7.671,7.616C7.114,6.478,5.893,5.814,4.632,5.967z"/>
<path fill="#FFFFFF" fill-opacity="0.17" d="M4.69,6.463C3.64,6.585,2.777,7.359,2.543,8.39l-0.938,4.122 c0,0.003-0.039,0.319-0.039,0.319l0.012,0.193l0.105,0.746c0.023,0.094,0.14,0.437,0.14,0.437 c1.219,2.204,2.114,4.074,2.695,5.641c0.578,1.559,1.09,3.435,1.522,5.577c0.009,0.046,0.055,0.104,0.09,0.167 c0.031,0.196,0.622,3.955,0.622,3.955l0.725,4.192c0.206,1.204,1.242,2.079,2.464,2.079h0.48c1.354,0,2.477-1.105,2.5-2.465 l0.028-1.563c0-0.003,0.028-2.115,0.028-2.116c0-2.523-0.074-4.57-0.219-6.091c-0.146-1.562-0.373-2.962-0.668-4.162 c-0.004-0.014-0.023-0.079-0.037-0.121c1.014-0.462,1.822-1.101,2.316-1.982c0.71-1.273,1.07-2.895,1.07-4.818l-0.029-1.916 l-0.089-1.762c-0.003-0.028-0.478-1.245-0.478-1.245c-0.15-0.502-0.572-0.654-0.709-0.704l-0.91-0.323 c-0.035-0.012-0.08-0.021-0.117-0.025l-0.392-0.048l-0.584,0.039c-1.217,0.103-2.175,1.062-2.278,2.279 c-0.129,1.504-0.279,2.06-0.33,2.217c-0.189-0.054-0.465-0.205-0.872-0.721c-0.388-0.489-0.87-1.314-1.432-2.454 C6.759,6.89,5.741,6.336,4.69,6.463z"/>
<path fill="#FFFFFF" fill-opacity="0.19" d="M4.749,6.959C3.908,7.057,3.218,7.676,3.031,8.5l-0.938,4.123 c-0.01,0.044-0.026,0.152-0.026,0.208c0,0.006,0.011,0.158,0.011,0.158l0.102,0.71c0,0.001,0.118,0.347,0.118,0.347 c1.196,2.146,2.102,4.04,2.69,5.628c0.587,1.583,1.106,3.485,1.544,5.652c0.011,0.057,0.054,0.081,0.082,0.121 c0.054,0.642,0.243,1.758,0.633,4.015l0.725,4.192c0.165,0.964,0.994,1.664,1.971,1.664h0.48c1.083,0,1.98-0.887,2-1.975 l0.028-1.563c0-0.002,0.028-2.111,0.028-2.111c0-2.504-0.073-4.536-0.217-6.039c-0.146-1.537-0.365-2.913-0.656-4.091 c-0.006-0.006-0.078-0.246-0.146-0.476c1.064-0.389,1.93-1.017,2.475-1.991c0.668-1.198,1.006-2.737,1.006-4.574l-0.028-1.908 l-0.089-1.744c-0.006-0.05-0.438-1.076-0.438-1.076c-0.085-0.275-0.26-0.37-0.42-0.428l-0.908-0.322 c0.004,0.001-0.4-0.049-0.4-0.049l-0.481,0.041c-0.974,0.082-1.739,0.849-1.821,1.823c-0.154,1.792-0.353,2.344-0.391,2.437 c-0.119,0.295-0.143,0.295-0.38,0.295c-0.354,0-0.837-0.353-1.323-0.967c-0.41-0.517-0.91-1.372-1.488-2.543 C6.404,7.301,5.589,6.857,4.749,6.959z"/>
<path fill="#FFFFFF" fill-opacity="0.22" d="M4.807,7.455C4.177,7.528,3.659,7.992,3.519,8.61L2.58,12.734 c-0.008,0.037-0.013,0.074-0.013,0.111c0,0.023,0.001,0.048,0.005,0.071l0.103,0.711c0.009,0.061,0.029,0.119,0.059,0.172 c1.209,2.17,2.126,4.088,2.724,5.7c0.596,1.606,1.123,3.533,1.565,5.728c-0.006-0.031-0.01-0.064-0.01-0.099 c0-0.101,0.03-0.198,0.087-0.28c0.014-0.021,0.042-0.021,0.059-0.039C7.123,24.873,7.09,24.941,7.09,25.1 c0,0.52,0.199,1.668,0.652,4.291l0.722,4.178c0.124,0.725,0.745,1.25,1.479,1.25h0.48c0.813,0,1.485-0.666,1.5-1.482l0.028-1.563 c0,0,0.028-2.103,0.028-2.104c0-2.49-0.072-4.504-0.213-5.99c-0.145-1.515-0.36-2.867-0.645-4.021 c-0.001-0.005-0.01-0.003-0.01-0.008c-0.034-0.133-0.113-0.398-0.252-0.85c1.1-0.281,2.035-0.894,2.639-1.973 c0.625-1.122,0.943-2.579,0.943-4.33l-0.029-1.9l-0.088-1.727c-0.016-0.096-0.391-0.888-0.391-0.888 c-0.057-0.12-0.011-0.126-0.136-0.171L12.893,7.49c-0.066-0.024-0.121-0.027-0.192-0.021L12.221,7.51 c-0.729,0.063-1.305,0.637-1.367,1.367c-0.151,1.77-0.348,2.397-0.424,2.585c-0.188,0.464-0.384,0.604-0.843,0.604 c-0.662,0-1.298-0.629-1.715-1.156C7.44,10.369,6.92,9.484,6.326,8.28C6.048,7.711,5.437,7.379,4.807,7.455z M10.152,19.898V19.9 V19.898z"/>
<path fill="#FFFFFF" fill-opacity="0.26" d="M4.865,7.951C4.445,8,4.1,8.31,4.007,8.721l-0.939,4.125l0.103,0.711 c1.221,2.189,2.148,4.131,2.756,5.77c0.604,1.629,1.138,3.581,1.587,5.803c-0.002-0.011,1.444,8.354,1.444,8.354 c0.083,0.483,0.497,0.834,0.985,0.834h0.481c0.542,0,0.99-0.443,1-0.99l0.028-1.563l0.027-2.099c0-2.469-0.07-4.466-0.211-5.94 c-0.142-1.49-0.354-2.818-0.631-3.946c0.01,0.039,0.014,0.079,0.014,0.119c0-0.066-0.023-0.153-0.403-1.392 c1.212-0.133,2.171-0.771,2.815-1.921c0.584-1.047,0.879-2.421,0.879-4.086l-0.029-1.893l-0.088-1.709 c0-0.002-0.34-0.693-0.34-0.693c-0.002-0.002-0.744-0.236-0.744-0.236l-0.48,0.041c-0.486,0.041-0.869,0.424-0.91,0.911 c-0.152,1.771-0.354,2.474-0.461,2.733c-0.263,0.65-0.64,0.914-1.306,0.914c-0.692,0-1.401-0.453-2.107-1.347 c-0.452-0.569-0.99-1.484-1.6-2.721C5.692,8.122,5.285,7.9,4.865,7.951z"/>
<path fill="#FFFFFF" fill-opacity="0.28" d="M4.923,8.447c-0.21,0.024-0.382,0.179-0.429,0.385l-0.939,4.125 c-0.028,0.121-0.01,0.246,0.051,0.354c1.235,2.214,2.173,4.18,2.789,5.841c0.613,1.653,1.154,3.631,1.608,5.878 c0,0.002,1.446,8.368,1.446,8.368c0.041,0.24,0.25,0.42,0.492,0.42h0.481c0.272,0,0.495-0.229,0.5-0.5l0.028-1.563l0.027-2.096 c0-2.448-0.069-4.429-0.207-5.888c-0.141-1.467-0.349-2.771-0.621-3.875c0-0.001-0.334-1.092-0.575-1.875 c0.11,0.018,0.286,0.045,0.286,0.045c1.193,0,2.123-0.581,2.765-1.727c0.541-0.971,0.815-2.263,0.815-3.842l-0.029-1.885 l-0.087-1.691c-0.007-0.135-0.068-0.254-0.171-0.344c-0.102-0.089-0.235-0.125-0.37-0.113l-0.479,0.041 c-0.244,0.021-0.436,0.213-0.457,0.455c-0.148,1.747-0.353,2.531-0.496,2.882c-0.336,0.836-0.897,1.224-1.768,1.224 c-0.852,0-1.693-0.517-2.5-1.537C6.612,10.935,6.055,9.99,5.43,8.723C5.336,8.532,5.133,8.422,4.923,8.447z"/>
<path fill="#235487" d="M12.189,16.098C12.691,15.2,12.941,14,12.941,12.5c0-0.611-0.01-1.234-0.028-1.869 c-0.021-0.633-0.047-1.188-0.086-1.666l-0.479,0.041c-0.125,1.461-0.304,2.471-0.533,3.029c-0.412,1.023-1.155,1.533-2.229,1.533 c-1.018,0-1.98-0.574-2.892-1.727c-0.499-0.629-1.069-1.596-1.712-2.898l-0.939,4.125c1.254,2.248,2.194,4.219,2.821,5.91 c0.628,1.693,1.17,3.678,1.63,5.954c0.238,1.163,0.722,3.961,1.449,8.387h0.48c0-0.082,0.01-0.605,0.028-1.572 s0.028-1.662,0.028-2.086c0-2.439-0.068-4.387-0.207-5.84s-0.342-2.721-0.606-3.803c-0.159-0.645-0.429-1.516-0.803-2.611 c0.541,0.109,0.873,0.162,0.998,0.162C10.865,17.568,11.643,17.078,12.189,16.098z"/>
</svg>