<?xml version="1.0" encoding="UTF-8"?>
<!DOCTYPE svg PUBLIC "-//W3C//DTD SVG 1.1 Tiny//EN" "http://www.w3.org/Graphics/SVG/1.1/DTD/svg11-tiny.dtd">
<svg width="84" height="72" viewBox="0 0 84 72">
<line fill="none" stroke="#CEDFF2" stroke-width="0.7148" stroke-linejoin="round" x1="24.62" y1="62.032" x2="24.622" y2="61.733"/>
<linearGradient id="_114" gradientUnits="userSpaceOnUse" x1="45.75" y1="41.72" x2="57.44" y2="64.74">
<stop stop-color="#A2C2DD" offset="0.1"/>
<stop stop-color="#6C83BB" offset="0.71"/>
<stop stop-color="#003D6D" offset="0.99"/>
</linearGradient>
<path fill="url(#_114)" d="M11.023,22.275l13.174,40.35l19.937-6.014l0.192,5.995l2.588,2.356l26.038-7.3l1.082-23.584 l-3.229-1.032l-4.953,0.92l2.215-9.605l-6.805-2.544c0,0-7.123,1.222-7.707,1.323c-0.173-0.58-2.989-10.292-2.989-10.292 s-4.355-1.376-4.408-1.369l-17.555,2.624c0,0,0.128,4.883,0.149,5.454C28.139,19.653,11.023,22.275,11.023,22.275z"/>
<linearGradient id="_115" gradientUnits="userSpaceOnUse" x1="53.55" y1="37.53" x2="15.44" y2="37.53">
<stop stop-color="#FFFFFF" offset="0.15"/>
<stop stop-color="#A2C2DD" offset="1"/>
</linearGradient>
<polygon fill="url(#_115)" points="24.625,61.749 15.438,24.582 32.3,21.753 32.169,16.185 50.142,13.305 53.552,24.914 "/>
<linearGradient id="_116" gradientUnits="userSpaceOnUse" x1="67.42" y1="43.01" x2="24.62" y2="43.01">
<stop stop-color="#CADCEC" offset="0"/>
<stop stop-color="#87A8CB" offset="1"/>
</linearGradient>
<polygon fill="url(#_116)" points="30.851,31.954 67.425,24.621 61.368,50.802 24.622,61.396 "/>
<linearGradient id="_117" gradientUnits="userSpaceOnUse" x1="49.85" y1="33.78" x2="43.33" y2="21.5">
<stop stop-color="#FFFFFF" offset="0.15"/>
<stop stop-color="#A2C2DD" offset="1"/>
</linearGradient>
<polygon fill="url(#_117)" points="30.851,31.954 67.425,24.621 61.138,22.329 24.66,28.588 "/>
<linearGradient id="_118" gradientUnits="userSpaceOnUse" x1="50.22" y1="14.18" x2="29.03" y2="14.18">
<stop stop-color="#FFFFFF" offset="0.05"/>
<stop stop-color="#A2C2DD" offset="1"/>
</linearGradient>
<polygon fill="url(#_118)" points="32.15,16.224 50.221,13.282 46.156,12.134 29.033,14.642 "/>
<linearGradient id="_119" gradientUnits="userSpaceOnUse" x1="25.6" y1="27.83" x2="19.85" y2="18.77">
<stop stop-color="#FFFFFF" offset="0.05"/>
<stop stop-color="#A2C2DD" offset="1"/>
</linearGradient>
<polygon fill="url(#_119)" points="15.438,24.582 32.3,21.753 29.261,20.047 11.78,22.683 "/>
<linearGradient id="_120" gradientUnits="userSpaceOnUse" x1="20.65" y1="43.62" x2="30.61" y2="47.83">
<stop stop-color="#A2C2DD" offset="0.1"/>
<stop stop-color="#6C83BB" offset="0.71"/>
<stop stop-color="#003D6D" offset="0.99"/>
</linearGradient>
<polygon fill="url(#_120)" points="30.851,31.954 24.62,62.032 24.66,28.588 "/>
<linearGradient id="_121" gradientUnits="userSpaceOnUse" x1="22.89" y1="35.36" x2="13.8" y2="48.92">
<stop stop-color="#A2C2DD" offset="0.1"/>
<stop stop-color="#6C83BB" offset="0.71"/>
<stop stop-color="#003D6D" offset="0.99"/>
</linearGradient>
<polygon fill="url(#_121)" points="15.438,24.582 24.62,62.032 11.78,22.683 "/>
<linearGradient id="_122" gradientUnits="userSpaceOnUse" x1="31" y1="8.74" x2="30.36" y2="27.5">
<stop stop-color="#FFFFFF" offset="0"/>
<stop stop-color="#A2C2DD" offset="0.35"/>
<stop stop-color="#6C83BB" offset="0.7"/>
<stop stop-color="#003D6D" offset="1"/>
</linearGradient>
<polygon fill="url(#_122)" points="29.052,14.603 29.261,20.047 32.3,21.753 32.169,16.185 "/>
<linearGradient id="_123" gradientUnits="userSpaceOnUse" x1="58.61" y1="55.03" x2="30.95" y2="40.2">
<stop stop-color="#FFFFFF" offset="0.15"/>
<stop stop-color="#A2C2DD" offset="1"/>
</linearGradient>
<polygon fill="url(#_123)" points="24.62,62.032 30.837,32.179 54.37,27.531 61.19,50.817 "/>
<polygon fill="#FFFFFF" points="72.385,57.21 47.044,64.335 46.765,39.761 73.444,34.396 "/>
<linearGradient id="_124" gradientUnits="userSpaceOnUse" x1="70.07" y1="45.53" x2="44.65" y2="54.78">
<stop stop-color="#E2E6E4" offset="0"/>
<stop stop-color="#A3740A" offset="1"/>
</linearGradient>
<path fill="url(#_124)" d="M54.806,42.145c0,5.454,0,10.909,0,16.362l15-3.934c0-5.449,0-10.104,0-15.453L54.806,42.145z"/>
<linearGradient id="_125" gradientUnits="userSpaceOnUse" x1="43.18" y1="48.53" x2="60.98" y2="55.01">
<stop stop-color="#E2E6E4" offset="0"/>
<stop stop-color="#A3740A" offset="1"/>
</linearGradient>
<path fill="url(#_125)" d="M47.019,60.55l7.787-2.043c0-5.453,0-10.908,0-16.362l-7.981,1.608L47.019,60.55z"/>
<linearGradient id="_126" gradientUnits="userSpaceOnUse" x1="71.45" y1="46.51" x2="49.21" y2="49.17">
<stop stop-color="#E2E6E4" offset="0"/>
<stop stop-color="#A3740A" offset="1"/>
</linearGradient>
<path fill="url(#_126)" d="M69.806,39.12c0,5.35,0,10.004,0,15.453l2.718-0.711l0.672-15.426L69.806,39.12z"/>
<linearGradient id="_127" gradientUnits="userSpaceOnUse" x1="60.77" y1="40.91" x2="53.96" y2="26.3">
<stop stop-color="#E2E6E4" offset="0"/>
<stop stop-color="#A3740A" offset="1"/>
</linearGradient>
<polygon fill="url(#_127)" points="46.704,39.892 73.401,34.376 70.588,33.537 44.053,38.681 "/>
<linearGradient id="_128" gradientUnits="userSpaceOnUse" x1="65.15" y1="29.52" x2="56.98" y2="57.44">
<stop stop-color="#E6EEF4" offset="0"/>
<stop stop-color="#A3740A" offset="0.44"/>
<stop stop-color="#474105" offset="0.94"/>
</linearGradient>
<path fill="url(#_128)" d="M72.381,57.33l-25.339,7l-0.277-24.491l26.661-5.465L72.381,57.33z M48.565,40.796 l-1.813,0.381l0.008,2.162l1.802-0.389L48.565,40.796z M51.396,40.157l-1.494,0.336l-0.009,2.146l1.485-0.346L51.396,40.157z M54.235,39.529l-1.5,0.332l-0.021,2.134l1.492-0.341L54.235,39.529z M57.088,38.915l-1.506,0.323l-0.037,2.116l1.498-0.334 L57.088,38.915z M59.948,38.304l-1.511,0.317l-0.054,2.101l1.505-0.325L59.948,38.304z M62.815,37.704L61.3,38.018l-0.066,2.087 l1.508-0.32L62.815,37.704z M65.69,37.113l-1.52,0.313l-0.08,2.066l1.513-0.314L65.69,37.113z M68.576,36.529l-1.525,0.305 l-0.094,2.058l1.519-0.313L68.576,36.529z M73.36,35.593l-0.657,0.127l-0.123,2.025l0.711-0.146L73.36,35.593z M71.47,35.96 l-1.528,0.301L69.832,38.3l1.521-0.307L71.47,35.96z M48.579,60.396l-1.573,0.425l0.006,2.162l1.565-0.434L48.579,60.396z M51.294,59.638l-1.432,0.398l-0.013,2.147l1.429-0.405L51.294,59.638z M54.017,58.888l-1.438,0.396l-0.021,2.133l1.433-0.399 L54.017,58.888z M56.747,58.152l-1.441,0.391l-0.037,2.115l1.438-0.396L56.747,58.152z M59.491,57.425l-1.447,0.383 l-0.053,2.104l1.44-0.393L59.491,57.425z M62.239,56.706l-1.451,0.377l-0.066,2.09l1.447-0.389L62.239,56.706z M65,55.995 l-1.457,0.375l-0.08,2.07l1.451-0.382L65,55.995z M67.769,55.29l-1.463,0.369l-0.094,2.061l1.457-0.377L67.769,55.29z M70.547,54.599l-1.465,0.363l-0.106,2.043l1.457-0.375L70.547,54.599z M72.511,54.129l-0.649,0.146l-0.121,2.025l0.716-0.184 L72.511,54.129z M53.546,43.411l-6.742,1.527l0.131,14.383l6.479-1.674L53.546,43.411z M68.827,40.104l-13.463,2.923 L55.218,57.28l13.025-3.354L68.827,40.104z M73.194,39.212l-2.466,0.498l-0.659,13.783l2.472-0.644L73.194,39.212z"/>
<polygon fill="#6D5607" points="46.765,39.839 44.06,38.622 44.817,62.399 47.06,64.356 "/>
<polygon fill="#B18E3B" points="46.801,43.335 44.181,41.849 44.104,39.775 46.784,41.189 "/>
<polygon fill="#B18E3B" points="44.719,59.274 44.79,61.218 47.036,62.981 47.008,60.837 "/>
<polygon fill="#B18E3B" points="44.237,43.419 44.683,57.823 46.983,59.337 46.806,44.938 "/>
</svg>