<?xml version="1.0" encoding="UTF-8"?>
<!DOCTYPE svg PUBLIC "-//W3C//DTD SVG 1.1 Tiny//EN" "http://www.w3.org/Graphics/SVG/1.1/DTD/svg11-tiny.dtd">
<svg width="24" height="26" viewBox="0 0 24 26">
<radialGradient id="_5" gradientUnits="userSpaceOnUse" cx="11.24" cy="6.43" r="18.51">
<stop stop-color="#FFFFFF" offset="0"/>
<stop stop-color="#A2C2DD" offset="0.53"/>
<stop stop-color="#6C83BB" offset="0.87"/>
<stop stop-color="#003D6D" offset="1"/>
</radialGradient>
<circle fill="url(#_5)" cx="13.21" cy="12.859" r="10.005"/>
<radialGradient id="_6" gradientUnits="userSpaceOnUse" cx="12.88" cy="4.95" r="10.94">
<stop stop-color="#A2C2DD" offset="0.1"/>
<stop stop-color="#6C83BB" offset="0.71"/>
<stop stop-color="#003D6D" offset="0.99"/>
</radialGradient>
<path fill="url(#_6)" d="M16.855,3.638c0,0-0.592-0.236-0.644-0.287c-0.252-0.066-1.959-0.523-2.668-0.422l0.845,1.283 c-0.019,0.44,2.076,1.132,2.332,1.048c0.252-0.084,0.775-0.068,0.961-0.051c1.015,0.322-0.845-0.777-0.912-0.777 c-0.996-0.203-1.351-0.473-1.453-0.642c-0.102-0.17,0.894,0.118,1.08,0.203c0.185,0.084,1.234,0.118,1.572,0.438 c0.336,0.322,0.59,0.372,0.76,0.525c0.168,0.15,0.775,0.455,0.81,0.539c0.035,0.085,0.406,0.506,0.39,0.17 c-0.017-0.338-1.232-1.199-1.688-1.469C17.699,4.061,16.855,3.638,16.855,3.638z"/>
<radialGradient id="_7" gradientUnits="userSpaceOnUse" cx="12.18" cy="8.33" r="14.62">
<stop stop-color="#E6EEF4" offset="0"/>
<stop stop-color="#4A9900" offset="0.44"/>
<stop stop-color="#0E4E58" offset="0.94"/>
</radialGradient>
<path fill="url(#_7)" d="M10.6,3.453c0.355-0.026-0.607,0.372-0.422,0.777c-0.051,0.134-0.184,0.438-0.033,0.488 c0.151,0.052,0.272,0.402,0.793,0.221c0.111-0.039,0.373,0.066,0.373,0.066s0.033,0.71,0.252,0.793 c0.221,0.084,0.339,0.203,0.371,0.422c0.035,0.221,1.232,0.54,1.386,0.54c0.151,0,0.759-0.489,0.894-0.506 c0.777,0.023,1.469,0.641,1.604,0.658s0.607,0.169,0.49,0.76c0.049,0.05,1.08,0.862,1.08,0.558c0-0.305-0.221-1.217,0.084-0.93 c0.305,0.287,0.776,0.356,0.59,0.591c-0.185,0.238-0.319,0.557-0.168,0.574s0.287,0.202,0.236,0.591 c-0.051,0.389,0.54,0.44,0.659,0.169c0.116-0.269,0.726,0.556,0.726,0.556l-0.066,0.593l1.283,0.843c0,0,0.607,0.524,0.623,0.625 c0.018,0.101,0.474,1.601,0.305,1.991c-0.169,0.39-0.339,1.317-0.727,1.435c-0.39,0.119-1.112,0.293-1.182,0.354 c-0.656,0.566-0.962,1.807-0.998,1.875c-0.031,0.068-0.572,0.945-0.354,1.553c0.221,0.605-0.455,0.945-0.506,1.079 c-0.051,0.138-0.824,1.634-1.756,1.452c-0.201,0.1-0.658,0.15-1.012-0.305c-0.104-0.084-0.372-0.69-0.372-0.69l-2.11-3.37 c0,0-0.347-0.47-0.472-0.781c-0.086-0.221-0.136-0.439,0.404-0.305c0.54,0.137,1.08,0.018,0.59-0.287 C12.895,15.773,12,15.369,12,15.369l-1.064-0.944c0,0-0.271-0.338,0.404-0.812c0.104-0.1-6.412,0-6.494,0.052 c-0.088,0.049-0.406,0.403-0.492-0.187c-0.084-0.591,0.508-1.132,0.508-1.132s-0.457-1.501-0.574-1.754l0.945-1.603l0.203-0.828 l-0.49,0.236c0,0-0.1,0-0.033-0.371c0.102,0.018,0.407-0.084,0.473-0.117c0.067-0.035,0.963-1.891,0.963-1.891L7.561,5.58 l0.523-1.132C8.236,4.21,9.215,3.553,10.6,3.453z M18.971,10.404l-0.354-0.305c0,0-0.541-0.286-0.726-0.437 c-0.156-0.129-0.93,0.826-0.93,0.826s0.153,0.388,0.221,0.472c-0.254-0.017-0.59-0.371-0.59-0.371 c0.488-0.623,0.235-0.742,0.235-0.742l-0.39,0.473l0.035,0.337c0,0-0.254,0.641-0.373,0.641s-0.151-0.422-0.151-0.422 l-0.202-0.051c0,0-0.203,0.607-0.303,0.692c-0.102,0.083-0.696,0.033-0.93,0.354c-0.016,0.895,0.574,0.709,0.692,0.675 c0.288,0,0.86-0.203,1.099-0.371c0.235-0.167,0.438,0,0.59,0.187c0.151,0.185,0.895-0.827,0.895-0.827s-0.126-0.499-0.021-0.605 c0.691-0.269,1.389-0.34,1.389-0.34l0.136-0.168L18.971,10.404z M15.055,7.823c0,0.101,0.305,0.152,0.39,0.388 c0.082,0.237,0.589,0.119,0.606,0.034c0.047-0.21-0.481-0.376-0.844-0.962C15.16,7.208,15.055,7.721,15.055,7.823z M13.637,10.758 c0.633,0.115,1.283,0.068,1.535,0.035c0.256-0.035,0-0.523-0.201-0.744c-0.201-0.219-0.371,0.085-0.455,0.119 C14.516,10.168,13.659,10.227,13.637,10.758z M14.143,14.051l-0.033,0.288c0,0-0.943,0.735-0.455,1.3 c0.339-0.103,0.642-0.727,0.727-0.845c0.084-0.119,0.049-0.456,0.049-0.456s0.431-1.011,0.424-1.115 C14.819,12.751,14.145,14.05,14.143,14.051z M12.34,12.936L12,13.257l-0.488,0.169c-0.103,0.405,0.455,0.455,0.455,0.455 l0.606-0.675l0.019-0.286L12.34,12.936z"/>
<linearGradient id="_8" gradientUnits="userSpaceOnUse" x1="9.84" y1="17.2" x2="7.82" y2="21.17">
<stop stop-color="#A2C2DD" offset="0.1"/>
<stop stop-color="#6C83BB" offset="0.71"/>
<stop stop-color="#003D6D" offset="0.99"/>
</linearGradient>
<path fill="url(#_8)" d="M7.016,20.71l8.584-0.021l-0.019-3.717H6.975l3.209-3.298l-2.721-2.721L3.436,14.98 C4.266,18.833,7.016,20.708,7.016,20.71z"/>
<polygon fill="#235487" points="0.536,18.831 7.393,25.688 9.178,23.9 5.301,20.025 14.908,20.025 14.908,17.631 5.303,17.631 9.178,13.755 7.393,11.971 "/>
</svg>