<?xml version="1.0" encoding="UTF-8"?>
<!DOCTYPE svg PUBLIC "-//W3C//DTD SVG 1.1 Tiny//EN" "http://www.w3.org/Graphics/SVG/1.1/DTD/svg11-tiny.dtd">
<svg width="17" height="43" viewBox="0 0 17 43">
<rect width="17" height="43"/>
<path fill="#FFFFFF" d="M12.19,16.098c0.501-0.898,0.752-2.098,0.752-3.598c0-0.611-0.01-1.234-0.029-1.869 c-0.02-0.633-0.047-1.188-0.086-1.666l-0.48,0.041c-0.125,1.461-0.303,2.471-0.532,3.029c-0.412,1.023-1.156,1.533-2.229,1.533 c-1.018,0-1.98-0.574-2.892-1.727c-0.499-0.629-1.069-1.596-1.712-2.898l-0.939,4.125c1.254,2.248,2.194,4.219,2.821,5.91 c0.628,1.693,1.17,3.678,1.63,5.953c0.238,1.164,0.722,3.961,1.449,8.387h0.481c0-0.082,0.01-0.605,0.028-1.572 s0.028-1.662,0.028-2.086c0-2.439-0.068-4.387-0.206-5.84c-0.139-1.453-0.342-2.721-0.607-3.803 c-0.159-0.645-0.428-1.516-0.803-2.611c0.54,0.109,0.872,0.162,0.998,0.162C10.865,17.568,11.642,17.078,12.19,16.098z"/>
</svg>