<?xml version="1.0" encoding="UTF-8"?>
<!DOCTYPE svg PUBLIC "-//W3C//DTD SVG 1.1 Tiny//EN" "http://www.w3.org/Graphics/SVG/1.1/DTD/svg11-tiny.dtd">
<svg width="17" height="43" viewBox="0 0 17 43">
<rect width="17" height="43"/>
<path fill="#FFFFFF" d="M11.952,26.852c-0.329-1.271-0.59-3.479-0.783-6.625c0-2.297-0.033-4.035-0.1-5.211 c-0.104-1.9-0.32-3.33-0.649-4.287c-0.406-1.189-1-1.785-1.782-1.785c-1.047,0-1.957,0.621-2.73,1.861 c-0.604,0.969-1.085,2.244-1.442,3.826c-0.283,1.24-0.425,2.283-0.425,3.129c0,1.146,0.304,2.025,0.911,2.639 c0.606,0.613,1.424,0.92,2.449,0.92c0.311,0,0.626-0.047,0.946-0.143c0.319-0.096,0.8-0.309,1.439-0.637 c0,4.131,0.124,7.004,0.373,8.623c0.307,1.977,0.938,3.383,1.896,4.219l0.886-4.375C12.427,28.131,12.098,27.414,11.952,26.852z M8.782,17.135c-0.405,0.082-0.748,0.121-1.03,0.121c-0.659,0-1.22-0.156-1.681-0.469c-0.462-0.314-0.691-0.758-0.691-1.33 c0-0.531,0.263-1.104,0.79-1.717c0.526-0.613,1.073-0.922,1.638-0.922c0.754,0,1.276,0.438,1.567,1.309 C9.591,14.768,9.7,15.709,9.7,16.949C9.493,16.99,9.187,17.053,8.782,17.135z"/>
</svg>