<?xml version="1.0" encoding="UTF-8"?>
<!DOCTYPE svg PUBLIC "-//W3C//DTD SVG 1.1 Tiny//EN" "http://www.w3.org/Graphics/SVG/1.1/DTD/svg11-tiny.dtd">
<svg width="84" height="58" viewBox="0 0 84 58">
<linearGradient id="_11" gradientUnits="userSpaceOnUse" x1="43.59" y1="26.03" x2="53.14" y2="44.84">
<stop stop-color="#A2C2DD" offset="0.1"/>
<stop stop-color="#6C83BB" offset="0.71"/>
<stop stop-color="#003D6D" offset="0.99"/>
</linearGradient>
<path fill="url(#_11)" d="M32.388,8.562c0,0,0.164,4.189,0.185,4.735 c-0.594,0.089-15.307,2.312-15.307,2.312L28.67,50.556l32.488-9.93l5.388-23.271l-5.848-2.135c0,0-6.132,1.052-6.692,1.148 C53.841,15.811,51.38,7.45,51.38,7.45l-0.1-0.105l-3.609-1.021L32.388,8.562z"/>
<linearGradient id="_12" gradientUnits="userSpaceOnUse" x1="60.71" y1="28.8" x2="20.91" y2="28.8">
<stop stop-color="#FFFFFF" offset="0.15"/>
<stop stop-color="#A2C2DD" offset="1"/>
</linearGradient>
<polygon fill="url(#_12)" points="60.707,40.366 51.099,7.734 35.466,10.24 35.576,15.08 20.911,17.546 28.903,49.874 "/>
<linearGradient id="_13" gradientUnits="userSpaceOnUse" x1="28.12" y1="48.64" x2="65.58" y2="16.92">
<stop stop-color="#CADCEC" offset="0"/>
<stop stop-color="#87A8CB" offset="1"/>
</linearGradient>
<polygon fill="url(#_13)" points="28.899,49.57 60.862,40.351 66.135,17.578 34.315,23.956 "/>
<linearGradient id="_14" gradientUnits="userSpaceOnUse" x1="50.56" y1="25.37" x2="44.5" y2="13.24">
<stop stop-color="#FFFFFF" offset="0.15"/>
<stop stop-color="#A2C2DD" offset="1"/>
</linearGradient>
<polygon fill="url(#_14)" points="28.932,21.027 60.666,15.581 66.135,17.578 34.315,23.956 "/>
<linearGradient id="_15" gradientUnits="userSpaceOnUse" x1="42.88" y1="10.74" x2="41.06" y2="5.8">
<stop stop-color="#FFFFFF" offset="0.05"/>
<stop stop-color="#A2C2DD" offset="1"/>
</linearGradient>
<polygon fill="url(#_15)" points="32.75,8.862 47.647,6.681 51.185,7.682 35.466,10.24 "/>
<linearGradient id="_16" gradientUnits="userSpaceOnUse" x1="27.59" y1="18.02" x2="25.72" y2="12.95">
<stop stop-color="#FFFFFF" offset="0.05"/>
<stop stop-color="#A2C2DD" offset="1"/>
</linearGradient>
<polygon fill="url(#_16)" points="17.727,15.893 32.935,13.596 35.576,15.08 20.911,17.546 "/>
<linearGradient id="_17" gradientUnits="userSpaceOnUse" x1="24.43" y1="34.02" x2="33.4" y2="37.13">
<stop stop-color="#A2C2DD" offset="0.1"/>
<stop stop-color="#6C83BB" offset="0.71"/>
<stop stop-color="#003D6D" offset="0.99"/>
</linearGradient>
<polygon fill="url(#_17)" points="28.932,21.027 28.896,50.12 34.315,23.956 "/>
<linearGradient id="_18" gradientUnits="userSpaceOnUse" x1="17.73" y1="33.01" x2="28.9" y2="33.01">
<stop stop-color="#A2C2DD" offset="0.1"/>
<stop stop-color="#6C83BB" offset="0.71"/>
<stop stop-color="#003D6D" offset="0.99"/>
</linearGradient>
<polygon fill="url(#_18)" points="17.727,15.893 28.896,50.12 20.911,17.546 "/>
<linearGradient id="_19" gradientUnits="userSpaceOnUse" x1="35.78" y1="10.62" x2="32.64" y2="13.25">
<stop stop-color="#A2C2DD" offset="0"/>
<stop stop-color="#8CA9CF" offset="0.38"/>
<stop stop-color="#6C83BB" offset="1"/>
</linearGradient>
<polygon fill="url(#_19)" points="35.466,10.24 35.576,15.08 32.935,13.596 32.75,8.862 "/>
<linearGradient id="_20" gradientUnits="userSpaceOnUse" x1="64.33" y1="46.31" x2="36.5" y2="32.46">
<stop stop-color="#FFFFFF" offset="0.15"/>
<stop stop-color="#A2C2DD" offset="1"/>
</linearGradient>
<polygon fill="url(#_20)" points="60.707,40.366 54.777,20.109 34.307,24.153 28.896,50.12 "/>
</svg>