<?xml version="1.0" encoding="UTF-8"?>
<!DOCTYPE svg PUBLIC "-//W3C//DTD SVG 1.1 Tiny//EN" "http://www.w3.org/Graphics/SVG/1.1/DTD/svg11-tiny.dtd">
<svg width="17" height="43" viewBox="0 0 17 43">
<rect width="17" height="43"/>
<path fill="#FFFFFF" d="M12.907,10.148c-0.018-0.5-0.026-0.902-0.026-1.205h-0.356c-0.142,2.293-0.585,3.438-1.328,3.438 c-0.368,0-0.651-0.254-0.85-0.766c-0.198-0.51-0.326-1.4-0.383-2.672H9.607c-0.113,1.266-0.314,2.242-0.604,2.93 c-0.34,0.797-0.81,1.195-1.41,1.195c-0.579,0-1.105-0.336-1.579-1.01c-0.424-0.604-0.819-1.496-1.187-2.678l-0.794,4.875 c0.931,2.641,1.581,4.652,1.95,6.033c0.483,1.82,0.825,3.693,1.023,5.623c0.199,1.928,0.299,4.396,0.299,7.406h0.422 c0.17-2.092,0.274-3.537,0.313-4.338c0.038-0.801,0.059-1.631,0.059-2.494c0-1.545-0.056-2.865-0.165-3.959 S7.669,20.4,7.464,19.43c-0.113-0.533-0.301-1.299-0.562-2.299c0.518,0,0.962-0.193,1.332-0.582 c0.369-0.389,0.675-0.967,0.916-1.732c0.142,0.508,0.362,0.887,0.661,1.133c0.298,0.246,0.649,0.369,1.055,0.369 c0.704,0,1.224-0.453,1.562-1.359c0.337-0.906,0.506-2.217,0.506-3.934C12.934,10.943,12.925,10.65,12.907,10.148z"/>
</svg>