<?xml version="1.0" encoding="UTF-8"?>
<!DOCTYPE svg PUBLIC "-//W3C//DTD SVG 1.1 Tiny//EN" "http://www.w3.org/Graphics/SVG/1.1/DTD/svg11-tiny.dtd">
<svg width="24" height="24" viewBox="-0.5 -0.5 24 24">
<path fill="#656B6B" fill-opacity="0.01" d="M1.5,23.5v-2c0-6.617,5.383-12,12-12h10v14H1.5z"/>
<path fill="#656B6B" fill-opacity="0.03" d="M2.5,23.5v-2c0-6.064,4.936-11,11-11h10v13H2.5z"/>
<path fill="#656B6B" fill-opacity="0.04" d="M3.5,23.5v-2c0-5.514,4.486-10,10-10h10v12H3.5z"/>
<path fill="#656B6B" fill-opacity="0.09" d="M4.5,23.5v-2c0-4.963,4.037-9,9-9h10v11H4.5z"/>
<path fill="#656B6B" fill-opacity="0.08" d="M5.5,23.5v-2c0-4.411,3.589-8,8-8h10v10H5.5z"/>
<path fill="#656B6B" fill-opacity="0.1" d="M6.5,23.5v-2c0-3.859,3.141-7,7-7h10v9H6.5z"/>
<path fill="#656B6B" fill-opacity="0.11" d="M7.5,23.5v-2c0-3.309,2.691-6,6-6h10v8H7.5z"/>
<path fill="#656B6B" fill-opacity="0.1" d="M8.5,23.5v-2c0-2.762,2.238-5,5-5h10v7H8.5z"/>
<polygon fill="#656B6B" fill-opacity="0.03" points="8.5,23.5 8.5,12.5 9.5,12.5 23.5,12.5 23.5,23.5 "/>
<linearGradient id="_2" gradientUnits="userSpaceOnUse" x1="16.5" y1="107" x2="16.5" y2="18.5">
<stop stop-color="#D9F4E0" offset="0"/>
<stop stop-color="#FFFFFF" offset="1"/>
</linearGradient>
<rect x="9.5" y="13.5" fill="url(#_2)" width="14" height="10"/>
</svg>