<?xml version="1.0" encoding="UTF-8"?>
<!DOCTYPE svg PUBLIC "-//W3C//DTD SVG 1.1 Tiny//EN" "http://www.w3.org/Graphics/SVG/1.1/DTD/svg11-tiny.dtd">
<svg width="17" height="43" viewBox="0 0 17 43">
<rect width="17" height="43"/>
<path fill="#FFFFFF" d="M9.218,28.121c-1.571-0.438-2.356-0.984-2.356-1.641c0-0.561,0.39-1.367,1.169-2.42 c0.722-0.889,1.443-1.786,2.166-2.688c0.778-0.984,1.168-1.675,1.168-2.071c0-0.355-0.437-0.745-1.31-1.168 c-0.815-0.355-1.626-0.718-2.43-1.087c-0.862-0.451-1.293-0.896-1.293-1.333c0-0.492,0.506-1.033,1.518-1.621 c0.425-0.246,1.276-0.649,2.553-1.21l0.538-3.938c-1.075,0.971-2.054,1.921-2.934,2.851c-1.261,1.341-2.222,2.537-2.88,3.59 c-0.857,1.367-1.285,2.571-1.285,3.61c0,0.628,0.586,1.25,1.758,1.866c0.984,0.451,1.971,0.896,2.957,1.333 c-1.058,1.188-1.775,2.021-2.154,2.498c-0.713,0.902-1.242,1.701-1.586,2.396c-0.402,0.818-0.604,1.617-0.604,2.395 c0,0.834,0.47,1.529,1.411,2.088c0.769,0.465,1.784,0.813,3.046,1.045c0.951,0.178,1.944,0.266,2.977,0.266l1.096-4.125 C11.412,28.619,10.237,28.408,9.218,28.121z"/>
</svg>