<?xml version="1.0" encoding="UTF-8"?>
<!DOCTYPE svg PUBLIC "-//W3C//DTD SVG 1.1 Tiny//EN" "http://www.w3.org/Graphics/SVG/1.1/DTD/svg11-tiny.dtd">
<svg width="17" height="43" viewBox="0 0 17 43">
<path fill="#FFFFFF" fill-opacity="0.16" d="M3.363,15.305c-0.672,1.527-1.247,3.459-1.709,5.746 c-0.407,2.043-0.613,3.736-0.613,5.031l0,0c0,2.079,0.644,3.762,1.914,5c1.159,1.139,2.674,1.717,4.503,1.717 c2.97,0,5.26-1.41,6.808-4.191c1.111-1.987,1.676-4.455,1.676-7.331c0-2.13-0.678-4.279-2.017-6.389 c-1.64-2.583-3.462-3.839-5.572-3.839C6.255,11.048,4.623,12.441,3.363,15.305z M8.274,22.869c0,0,0.03-0.207,0.057-0.398 c0.13,0.129,0.276,0.271,0.276,0.271s0.063,0.113,0.135,0.244C8.66,23,8.6,23.049,8.505,23.049c0,0-0.109-0.01-0.218-0.02 C8.281,22.953,8.274,22.869,8.274,22.869z"/>
<path fill="#FFFFFF" fill-opacity="0.17" d="M3.821,15.506L3.821,15.506C3.164,17,2.6,18.899,2.145,21.15 c-0.4,2.01-0.604,3.668-0.604,4.932c0,1.939,0.593,3.502,1.763,4.643c1.063,1.045,2.461,1.574,4.154,1.574 c2.774,0,4.917-1.324,6.37-3.936c1.07-1.912,1.613-4.299,1.613-7.087c0-2.033-0.651-4.093-1.938-6.122 c-1.541-2.427-3.226-3.606-5.15-3.606C6.475,11.548,4.992,12.843,3.821,15.506z M7.774,22.869c0-0.461,0.126-0.936,0.217-1.406 c0.36,0.318,0.751,0.625,1.016,0.979c0.302,0.406,0.409,0.668,0.458,0.847c-0.257,0.163-0.553,0.262-0.959,0.262 c-0.446,0-0.604-0.057-0.66-0.081C7.823,23.412,7.774,23.27,7.774,22.869z"/>
<path fill="#FFFFFF" fill-opacity="0.19" d="M4.278,15.708L4.278,15.708c-0.643,1.462-1.196,3.327-1.644,5.542 C2.24,23.227,2.04,24.852,2.04,26.083c0,1.799,0.542,3.241,1.612,4.285C4.619,31.316,5.9,31.8,7.457,31.8 c2.579,0,4.575-1.237,5.934-3.678c1.028-1.839,1.551-4.144,1.551-6.845c0-1.938-0.627-3.907-1.861-5.854 c-1.441-2.271-2.988-3.374-4.728-3.374C6.694,12.048,5.361,13.245,4.278,15.708z M7.485,23.845c0,0-0.004-0.003-0.005-0.004 c-0.021-0.019-0.206-0.206-0.206-0.972c0-0.787,0.124-1.592,0.368-2.393c0-0.001,0.003-0.009,0.003-0.01 c0.018,0.012,0.076,0.049,0.076,0.049c0.676,0.489,1.244,1.036,1.686,1.625c0.387,0.52,0.608,1.002,0.608,1.321 c0,0.031,0,0.097-0.197,0.246c-0.295,0.226-0.737,0.34-1.313,0.34C7.749,24.049,7.523,23.879,7.485,23.845z"/>
<path fill="#FFFFFF" fill-opacity="0.22" d="M4.736,15.909L4.736,15.909c-0.628,1.429-1.17,3.26-1.611,5.44 c-0.388,1.943-0.584,3.536-0.584,4.733c0,1.66,0.492,2.98,1.461,3.927c0.872,0.855,2.035,1.29,3.456,1.29 c2.384,0,4.233-1.15,5.496-3.422c0.987-1.763,1.487-3.984,1.487-6.601c0-1.841-0.6-3.721-1.783-5.586 c-1.342-2.114-2.75-3.142-4.305-3.142C6.914,12.548,5.73,13.647,4.736,15.909z M7.15,24.217c0-0.001-0.003-0.003-0.003-0.003 c-0.244-0.219-0.373-0.685-0.373-1.345c0-0.836,0.131-1.689,0.39-2.539c0.09-0.3,0.165-0.471,0.231-0.614 c0.153,0.085,0.339,0.194,0.617,0.394c0.718,0.52,1.322,1.103,1.794,1.732c0.463,0.621,0.709,1.182,0.709,1.621 c0,0.17-0.048,0.38-0.396,0.645c-0.386,0.293-0.929,0.441-1.616,0.441C7.69,24.549,7.318,24.367,7.15,24.217z"/>
<path fill="#FFFFFF" fill-opacity="0.26" d="M5.193,16.11L5.193,16.11c-0.614,1.398-1.145,3.194-1.578,5.337 c-0.381,1.91-0.574,3.469-0.574,4.635c0,1.52,0.441,2.721,1.311,3.568c0.776,0.762,1.822,1.147,3.106,1.147 c2.188,0,3.892-1.063,5.06-3.164c0.944-1.688,1.424-3.827,1.424-6.358c0-1.745-0.573-3.534-1.705-5.319 C10.993,14,9.723,13.048,8.353,13.048C7.133,13.048,6.1,14.05,5.193,16.11z M6.815,24.588c0-0.001-0.001-0.002-0.001-0.002 c-0.358-0.32-0.54-0.898-0.54-1.717l0,0c0-0.885,0.138-1.788,0.411-2.685c0.222-0.737,0.418-1.022,0.503-1.119 c0.133,0.039,0.468,0.174,1.115,0.637c0.759,0.551,1.401,1.17,1.903,1.839c0.537,0.72,0.81,1.367,0.81,1.922 c0,0.403-0.188,0.734-0.592,1.042c-0.474,0.36-1.119,0.544-1.919,0.544l0,0C7.723,25.049,7.154,24.893,6.815,24.588z"/>
<path fill="#FFFFFF" fill-opacity="0.28" d="M5.651,16.311L5.651,16.311c-0.6,1.367-1.12,3.127-1.545,5.236 c-0.375,1.875-0.564,3.4-0.564,4.535c0,1.38,0.39,2.461,1.16,3.211c0.68,0.667,1.608,1.006,2.757,1.006 c1.993,0,3.548-0.979,4.622-2.908c0.903-1.613,1.362-3.67,1.362-6.114c0-1.648-0.549-3.348-1.629-5.051 c-1.144-1.801-2.274-2.677-3.459-2.677C7.353,13.548,6.469,14.452,5.651,16.311z M6.48,24.959l-0.001-0.002 c-0.468-0.418-0.705-1.121-0.705-2.088c0-0.934,0.146-1.886,0.433-2.83c0.331-1.1,0.687-1.491,0.91-1.491 c0.13,0,0.535,0.073,1.478,0.748c0.801,0.58,1.479,1.235,2.012,1.945c0.604,0.809,0.91,1.556,0.91,2.222 c0,0.564-0.259,1.035-0.789,1.439c-0.564,0.429-1.313,0.646-2.223,0.646C7.596,25.548,6.914,25.35,6.48,24.959z"/>
<path fill="#235487" d="M11.391,16.493c-1.033-1.629-2.045-2.444-3.038-2.444c-0.773,0-1.521,0.821-2.244,2.464 c-0.589,1.341-1.093,3.053-1.513,5.133c-0.369,1.849-0.555,3.327-0.555,4.437c0,1.246,0.336,2.197,1.009,2.854 C5.638,29.514,6.441,29.8,7.458,29.8c1.808,0,3.201-0.883,4.185-2.649c0.866-1.547,1.299-3.504,1.299-5.873 C12.941,19.716,12.424,18.121,11.391,16.493z M11.031,25.301c-0.656,0.498-1.498,0.748-2.525,0.748 c-1.043,0-1.83-0.24-2.36-0.719c-0.581-0.52-0.871-1.34-0.871-2.461c0-0.985,0.15-1.977,0.454-2.976 c0.37-1.23,0.833-1.846,1.389-1.846c0.396,0,0.985,0.28,1.769,0.841c0.849,0.615,1.556,1.3,2.121,2.052 c0.674,0.902,1.01,1.744,1.01,2.522C12.018,24.189,11.688,24.801,11.031,25.301z"/>
</svg>