<?xml version="1.0" encoding="UTF-8"?>
<!DOCTYPE svg PUBLIC "-//W3C//DTD SVG 1.1 Tiny//EN" "http://www.w3.org/Graphics/SVG/1.1/DTD/svg11-tiny.dtd">
<svg width="332" height="82" viewBox="-0.604 -0.193 332 82">
<g fill-opacity="0.7" stroke-opacity="0.7">
<path fill-opacity="0.01" fill="#656B6B" d="M308.396,0.806h-9.625l-9.992,10.01H24.507 c-5.368-0.006-10.415,2.078-14.214,5.873c-3.802,3.797-5.896,8.85-5.896,14.227v27.776c0,12.195,9.918,22.115,22.106,22.115 l281.888-0.002c1.468-0.076,1.867-0.096,2.031-0.119c-0.035,0.008-0.077,0.018-0.077,0.018c0.031-0.004,0.06-0.016,0.091-0.018 c0.021-0.004,0.037-0.008,0.053-0.012c10.218-1.113,17.908-9.67,17.908-19.982V30.917c0-11.053-8.963-20.041-20-20.1 C308.396,9.151,308.396,0.807,308.396,0.806L308.396,0.806z"/>
<path fill-opacity="0.03" fill="#656B6B" d="M307.396,1.806h-8.25l-9.953,10.01H24.508 c-5.102-0.006-9.897,1.976-13.506,5.58c-3.614,3.61-5.604,8.411-5.604,13.52v27.776c0,11.643,9.468,21.115,21.105,21.115 l281.837-0.002c0,0,1.902-0.096,1.904-0.098c9.777-0.996,17.151-9.17,17.151-19.017V30.916c0-10.537-8.57-19.111-19.105-19.111 c0,0-0.449,0-0.895,0C307.396,10.125,307.396,1.807,307.396,1.806L307.396,1.806z"/>
<path fill-opacity="0.05" fill="#656B6B" d="M299.646,2.807l-10.039,10.009H24.505 c-4.833-0.006-9.378,1.871-12.798,5.287c-3.424,3.42-5.31,7.971-5.31,12.813v27.775c0,11.093,9.019,20.115,20.105,20.115H308.29 c0,0,1.848-0.095,1.853-0.095c9.267-0.942,16.254-8.69,16.254-18.021V30.916c0-9.986-8.123-18.111-18.105-18.111 c0,0-1.038,0-1.895,0c0-1.68,0-9.998,0-9.998H299.646z"/>
<path fill-opacity="0.07" fill="#656B6B" d="M7.398,30.916V58.69c0,10.541,8.57,19.115,19.105,19.115 h281.787c0.591,0,1.175-0.033,1.751-0.088c8.625-0.879,15.354-8.168,15.354-17.027V30.915c0-9.451-7.659-17.111-17.105-17.111 h-2.895V3.806h-5.375l-10,10.01H24.504C15.055,13.805,7.396,21.465,7.398,30.916z"/>
<path fill-opacity="0.11" fill="#656B6B" d="M8.398,30.916v27.775c0,9.988,8.123,18.115,18.105,18.115 h280.787c0.591,0,1.175-0.033,1.751-0.089c8.625-0.879,15.354-8.168,15.354-17.026V30.916c0-9.451-7.659-17.111-17.105-17.111 h-1.895V4.807h-5l-10,10H25.504C16.055,14.795,8.396,21.465,8.398,30.916z"/>
<path fill="#FFFFFF" d="M9.398,30.906v27.785c0,9.451,7.657,17.115,17.105,17.115h281.787c9.446,0,17.105-7.664,17.105-17.115 V30.906c0-9.451-7.659-17.111-17.105-17.111h-2.895V1.807h-1.999l-12,12H26.504C17.055,13.795,9.396,21.455,9.398,30.906z"/>
</g>
</svg>