<?xml version="1.0" encoding="UTF-8"?>
<!DOCTYPE svg PUBLIC "-//W3C//DTD SVG 1.1 Tiny//EN" "http://www.w3.org/Graphics/SVG/1.1/DTD/svg11-tiny.dtd">
<svg width="120" height="60" viewBox="-11.479 0.993 120 60">
<rect x="-11.479" y="0.993" fill="#656B6B" fill-opacity="0.01" width="120" height="60"/>
<rect x="-11.479" y="1.993" fill="#656B6B" fill-opacity="0.02" width="120" height="59"/>
<rect x="-11.479" y="2.993" fill="#656B6B" fill-opacity="0.03" width="120" height="58"/>
<rect x="-11.479" y="3.993" fill="#656B6B" fill-opacity="0.05" width="120" height="57"/>
<rect x="-11.479" y="4.993" fill="#656B6B" fill-opacity="0.06" width="120" height="56"/>
<rect x="-11.479" y="5.993" fill="#656B6B" fill-opacity="0.1" width="120" height="55"/>
<rect x="-11.479" y="6.993" fill="#656B6B" fill-opacity="0.1" width="120" height="54"/>
<path fill="#656B6B" fill-opacity="0.1" d="M108.521,7.993v53h-120V7.991C21.388,7.99,91.147,7.992,108.521,7.993z"/>
<path fill="#CADCEC" d="M108.521,5.993c-18.73,0-87.943,0-120,0v-1h120V5.993z"/>
<linearGradient id="_2" gradientUnits="userSpaceOnUse" x1="48.52" y1="4.99" x2="48.52" y2="139.99">
<stop stop-color="#DEE9F3" offset="0"/>
<stop stop-color="#E6EFF6" offset="0.1"/>
<stop stop-color="#F9FBFD" offset="0.36"/>
<stop stop-color="#FFFFFF" offset="0.54"/>
<stop stop-color="#FBFCFE" offset="0.67"/>
<stop stop-color="#EFF4F9" offset="0.8"/>
<stop stop-color="#DAE7F2" offset="0.92"/>
<stop stop-color="#CADCEC" offset="1"/>
</linearGradient>
<path fill="url(#_2)" d="M108.521,60.993h-120v-55c32.057,0,101.27,0,120,0V60.993z"/>
</svg>