<?xml version="1.0" encoding="UTF-8"?>
<!DOCTYPE svg PUBLIC "-//W3C//DTD SVG 1.1 Tiny//EN" "http://www.w3.org/Graphics/SVG/1.1/DTD/svg11-tiny.dtd">
<svg width="17" height="43" viewBox="0 0 17 43">
<path fill="#FFFFFF" fill-opacity="0.16" d="M10.214,7.691c-0.508,1.106-0.997,2.532-1.483,4.145 c-0.526-1.548-1.046-2.943-1.568-4.081c-0.579-1.252-1.926-1.95-3.278-1.699C2.527,6.313,1.523,7.453,1.441,8.827l-0.396,6.498 c0,0.014,0.032,0.46,0.032,0.46l0.16,0.703l0.157,0.415c1.109,1.879,1.985,3.999,2.639,6.376 c0.684,2.488,1.257,5.791,1.706,9.813c0.172,1.52,1.455,2.666,2.982,2.666h0.153c1.567,0,2.882-1.227,2.992-2.79 c0.288-4.015,0.739-7.419,1.341-10.116c0.574-2.585,1.348-4.819,2.302-6.641c0.013-0.027,0.136-0.336,0.136-0.336l0.145-0.54 c0.007-0.032,0.055-0.353,0.055-0.353l0.098-5.993c0.021-1.409-0.963-2.658-2.336-2.971C12.229,5.707,10.802,6.411,10.214,7.691z "/>
<path fill="#FFFFFF" fill-opacity="0.17" d="M10.669,7.9c-0.717,1.559-1.342,3.475-1.911,5.567 c-0.634-2.015-1.301-3.871-2.05-5.503C6.226,6.92,5.103,6.338,3.977,6.548C2.846,6.762,2.009,7.711,1.94,8.857l-0.396,6.498 c-0.001,0.03,0.031,0.386,0.031,0.386l0.148,0.633l0.136,0.348c1.106,1.859,1.988,3.998,2.655,6.424 c0.69,2.516,1.27,5.843,1.721,9.89c0.144,1.269,1.212,2.223,2.485,2.223h0.153c1.307,0,2.402-1.021,2.493-2.325 c0.291-4.041,0.745-7.47,1.352-10.189c0.583-2.628,1.373-4.903,2.347-6.764c0.026-0.059,0.11-0.28,0.11-0.28l0.13-0.491 c0.012-0.061,0.041-0.292,0.041-0.292l0.094-5.937c0.018-1.174-0.801-2.215-1.945-2.475C12.348,6.247,11.159,6.833,10.669,7.9z"/>
<path fill="#FFFFFF" fill-opacity="0.19" d="M11.123,8.109c-0.936,2.036-1.704,4.447-2.332,7.098 c-0.708-2.478-1.537-4.855-2.538-7.034C5.868,7.337,4.97,6.872,4.068,7.04C3.164,7.211,2.494,7.97,2.439,8.887l-0.396,6.499 c0,0.001,0.029,0.308,0.029,0.308l0.137,0.563l0.113,0.277c1.095,1.83,1.995,4.009,2.674,6.481 c0.698,2.541,1.282,5.895,1.736,9.967c0.115,1.014,0.969,1.776,1.988,1.776h0.153c1.045,0,1.921-0.815,1.994-1.858 c0.292-4.064,0.75-7.52,1.361-10.267c0.594-2.669,1.397-4.985,2.394-6.886c0,0.001,0.085-0.225,0.085-0.225l0.111-0.438 l0.031-0.234l0.088-5.876c0.015-0.939-0.641-1.772-1.557-1.98C12.465,6.786,11.516,7.255,11.123,8.109z"/>
<path fill="#FFFFFF" fill-opacity="0.22" d="M11.578,8.317c-1.02,2.216-1.865,4.84-2.512,7.798c0,0-0.094,0.536-0.211,1.198 c-0.053-0.236-0.154-0.691-0.154-0.691c-0.759-2.93-1.736-5.703-2.901-8.241c-0.29-0.627-0.964-0.976-1.64-0.85 C3.481,7.66,2.979,8.229,2.938,8.917l-0.396,6.499c-0.003,0.05,0.003,0.107,0.015,0.155l0.138,0.567 c0.012,0.049,0.031,0.096,0.057,0.139c1.118,1.869,2.035,4.09,2.727,6.604c0.705,2.566,1.294,5.946,1.751,10.043 c0.086,0.762,0.727,1.334,1.491,1.334h0.153c0.784,0,1.44-0.613,1.496-1.395c0.294-4.09,0.756-7.568,1.373-10.34 c0.603-2.712,1.423-5.069,2.438-7.009c0.018-0.034,0.033-0.077,0.043-0.114l0.112-0.441c0.011-0.038,0.015-0.077,0.017-0.117 l0.088-5.877c0.01-0.705-0.481-1.329-1.168-1.485C12.584,7.325,11.872,7.677,11.578,8.317z"/>
<path fill="#FFFFFF" fill-opacity="0.26" d="M12.032,8.526c-1.005,2.183-1.839,4.772-2.478,7.696 c-0.234,1.068-0.443,2.3-0.643,3.65c-0.228-1.155-0.456-2.202-0.695-3.124c-0.752-2.901-1.718-5.646-2.872-8.159 c-0.193-0.418-0.642-0.65-1.093-0.566C3.799,8.108,3.465,8.488,3.438,8.946l-0.396,6.5l0.14,0.574 c1.141,1.908,2.076,4.171,2.779,6.728c0.712,2.594,1.306,5.998,1.767,10.121c0.057,0.506,0.484,0.889,0.994,0.889h0.153 c0.521,0,0.96-0.408,0.997-0.93c0.295-4.112,0.76-7.615,1.383-10.412c0.612-2.757,1.448-5.156,2.483-7.133 c0-0.001,0.113-0.447,0.113-0.447l0.088-5.877c0.008-0.47-0.32-0.886-0.778-0.99C12.703,7.865,12.229,8.099,12.032,8.526z"/>
<path fill="#FFFFFF" fill-opacity="0.28" d="M12.486,8.735c-0.988,2.148-1.812,4.703-2.444,7.594 c-0.446,2.033-0.776,4.35-1.053,6.782c-0.369-2.245-0.774-4.378-1.256-6.238c-0.745-2.872-1.701-5.589-2.843-8.075 C4.794,8.589,4.569,8.473,4.344,8.515C4.118,8.557,3.95,8.747,3.937,8.976l-0.396,6.5c-0.006,0.101,0.018,0.201,0.07,0.287 c1.165,1.947,2.117,4.251,2.832,6.852c0.719,2.617,1.318,6.049,1.782,10.197c0.028,0.254,0.242,0.444,0.497,0.444h0.153 c0.262,0,0.48-0.202,0.499-0.465c0.297-4.138,0.767-7.666,1.394-10.485c0.621-2.799,1.473-5.24,2.528-7.257 c0.037-0.069,0.056-0.146,0.058-0.225l0.088-5.875c0.002-0.236-0.159-0.443-0.39-0.495C12.822,8.403,12.585,8.52,12.486,8.735z"/>
<path fill="#235487" d="M10.529,16.436C9.88,19.398,9.412,22.777,9.128,26.57H9.02c-0.462-3.607-1.053-6.798-1.771-9.571 c-0.74-2.856-1.678-5.52-2.813-7.993l-0.396,6.5c1.194,1.998,2.155,4.323,2.885,6.977c0.729,2.651,1.328,6.078,1.797,10.274 h0.153c0.3-4.182,0.768-7.7,1.402-10.559c0.636-2.855,1.494-5.315,2.574-7.38l0.088-5.875 C11.961,11.073,11.158,13.571,10.529,16.436z"/>
</svg>