<?xml version="1.0" encoding="UTF-8"?>
<!DOCTYPE svg PUBLIC "-//W3C//DTD SVG 1.1 Tiny//EN" "http://www.w3.org/Graphics/SVG/1.1/DTD/svg11-tiny.dtd">
<svg width="84" height="58" viewBox="0 0 84 58">
<linearGradient id="_51" gradientUnits="userSpaceOnUse" x1="43.24" y1="28.44" x2="55.13" y2="51.84">
<stop stop-color="#A2C2DD" offset="0.1"/>
<stop stop-color="#6C83BB" offset="0.71"/>
<stop stop-color="#003D6D" offset="0.99"/>
</linearGradient>
<path fill="url(#_51)" d="M45.137,4.098L29.659,6.365c0,0,0.164,4.254,0.186,4.8c-0.596,0.09-15.51,2.342-15.51,2.342 l11.6,35.397c0,0,23.189-7.114,23.535-7.222c0.105,0.083,0.177,0.14,0.314,0.249c-0.26,0.48-4.041,7.505-4.041,7.505l2.828,2.569 l17.311-5.803c0,0,0.117-3.22,0.135-3.703c2.189-0.159,3.443-2.552,3.461-2.604c1.23,0.1,2.148,0.228,2.457,0.349l0.324,0.127 l1.127-2.855c0,0-1.783-0.57-3.823-0.217c1.165-1.04,1.989-2.051,2.362-3l0.127-0.326L69.41,32.94l-0.127,0.323 c-0.084,0.213-0.435,0.777-1.484,2.121c-0.24-0.294-1.031-0.23-1.516-0.166c0.02-0.545,0.061-1.996,0.061-1.996l-3.149-1.875 c0,0-2.058,0.549-2.826,0.752c0.246-1.06,3.893-16.824,3.893-16.824l-5.92-2.16c0,0-6.223,1.067-6.783,1.164 c-0.166-0.56-2.58-8.934-2.58-8.934L45.137,4.098z M66.955,42.281L66.955,42.281L66.955,42.281z"/>
<linearGradient id="_52" gradientUnits="userSpaceOnUse" x1="58.32" y1="26.93" x2="18.15" y2="26.93">
<stop stop-color="#FFFFFF" offset="0.15"/>
<stop stop-color="#A2C2DD" offset="1"/>
</linearGradient>
<polygon fill="url(#_52)" points="58.32,38.6 48.619,5.657 32.838,8.188 32.952,13.076 18.147,15.559 26.213,48.197 "/>
<linearGradient id="_53" gradientUnits="userSpaceOnUse" x1="36.12" y1="37.9" x2="65.45" y2="13.06">
<stop stop-color="#CADCEC" offset="0"/>
<stop stop-color="#87A8CB" offset="1"/>
</linearGradient>
<polygon fill="url(#_53)" points="26.211,47.887 58.479,38.586 63.799,15.598 31.678,22.035 "/>
<linearGradient id="_54" gradientUnits="userSpaceOnUse" x1="48.22" y1="23.73" x2="42.93" y2="13.16">
<stop stop-color="#FFFFFF" offset="0.15"/>
<stop stop-color="#A2C2DD" offset="1"/>
</linearGradient>
<polygon fill="url(#_54)" points="26.245,19.078 58.277,13.581 63.799,15.598 31.594,22.16 "/>
<linearGradient id="_55" gradientUnits="userSpaceOnUse" x1="40.17" y1="8.48" x2="38.31" y2="3.44">
<stop stop-color="#FFFFFF" offset="0.05"/>
<stop stop-color="#A2C2DD" offset="1"/>
</linearGradient>
<polygon fill="url(#_55)" points="30.1,6.799 45.135,4.596 48.59,5.672 32.838,8.188 "/>
<linearGradient id="_56" gradientUnits="userSpaceOnUse" x1="24.79" y1="15.78" x2="22.89" y2="10.62">
<stop stop-color="#FFFFFF" offset="0.05"/>
<stop stop-color="#A2C2DD" offset="1"/>
</linearGradient>
<polygon fill="url(#_56)" points="14.934,13.893 30.284,11.576 32.952,13.076 18.147,15.559 "/>
<linearGradient id="_57" gradientUnits="userSpaceOnUse" x1="18.32" y1="31.02" x2="31.27" y2="35.51">
<stop stop-color="#A2C2DD" offset="0.1"/>
<stop stop-color="#6C83BB" offset="0.71"/>
<stop stop-color="#003D6D" offset="0.99"/>
</linearGradient>
<polygon fill="url(#_57)" points="26.245,19.078 26.209,48.447 31.676,22.203 "/>
<linearGradient id="_58" gradientUnits="userSpaceOnUse" x1="34.1" y1="18.15" x2="16.79" y2="34.68">
<stop stop-color="#A2C2DD" offset="0.1"/>
<stop stop-color="#6C83BB" offset="0.71"/>
<stop stop-color="#003D6D" offset="0.99"/>
</linearGradient>
<polygon fill="url(#_58)" points="14.934,13.893 26.2,48.246 18.147,15.559 "/>
<linearGradient id="_59" gradientUnits="userSpaceOnUse" x1="50.91" y1="-0.29" x2="12.87" y2="19.79">
<stop stop-color="#FFFFFF" offset="0"/>
<stop stop-color="#A2C2DD" offset="0.35"/>
<stop stop-color="#6C83BB" offset="0.7"/>
<stop stop-color="#003D6D" offset="1"/>
</linearGradient>
<polygon fill="url(#_59)" points="32.838,8.188 32.952,13.076 30.284,11.576 30.1,6.799 "/>
<linearGradient id="_60" gradientUnits="userSpaceOnUse" x1="65.23" y1="46.15" x2="34.97" y2="31.08">
<stop stop-color="#FFFFFF" offset="0.15"/>
<stop stop-color="#A2C2DD" offset="1"/>
</linearGradient>
<polygon fill="url(#_60)" points="58.32,38.6 52.246,17.961 31.631,22.197 26.209,48.447 "/>
<linearGradient id="_61" gradientUnits="userSpaceOnUse" x1="64.05" y1="32.77" x2="39.36" y2="39.27">
<stop stop-color="#E2E6E4" offset="0"/>
<stop stop-color="#A3740A" offset="1"/>
</linearGradient>
<polygon fill="url(#_61)" points="43.395,36.982 63.141,31.725 65.994,33.423 46.313,38.73 "/>
<linearGradient id="_62" gradientUnits="userSpaceOnUse" x1="55.93" y1="36.67" x2="44.06" y2="55.04">
<stop stop-color="#E6EEF4" offset="0"/>
<stop stop-color="#A3740A" offset="0.44"/>
<stop stop-color="#474105" offset="0.94"/>
</linearGradient>
<polygon fill="url(#_62)" points="48.654,51.609 46.18,49.361 50.314,41.684 52.875,43.939 "/>
<linearGradient id="_63" gradientUnits="userSpaceOnUse" x1="67.92" y1="47.84" x2="48.8" y2="38.22">
<stop stop-color="#E2E6E4" offset="0"/>
<stop stop-color="#A3740A" offset="1"/>
</linearGradient>
<polygon fill="url(#_63)" points="66,33.414 65.539,45.949 48.654,51.609 52.875,43.939 46.313,38.73 "/>
<linearGradient id="_64" gradientUnits="userSpaceOnUse" x1="73.99" y1="33.1" x2="63.74" y2="41.97">
<stop stop-color="#E6EEF4" offset="0"/>
<stop stop-color="#A3740A" offset="0.44"/>
<stop stop-color="#474105" offset="0.94"/>
</linearGradient>
<path fill="url(#_64)" d="M59.707,40.474c-0.463,0.856-0.221,1.89,0.545,2.302c0.666,0.359,1.486,0.107,1.998-0.521 c0.004,0.016,0.018,0.054,0.018,0.054c0.013-0.013,0.017-0.023,0.025-0.034c1.363,0.157,4.428-0.269,4.528-0.313 c1.143-0.478,1.91-1.177,2.291-2.071c0.043-0.105,0.082-0.23,0.119-0.36c1.17,0.087,2.399,0.226,2.829,0.395l0.869-2.205 c-1.01-0.398-2.397-0.302-3.731-0.021c-0.031-0.112-0.045-0.215-0.09-0.332c-0.009-0.026-0.021-0.043-0.033-0.067 c1.084-0.919,2.086-2.008,2.522-3.122l-1.989-0.778c-0.173,0.436-0.941,1.465-1.703,2.429c-0.138-0.086-0.271-0.146-0.396-0.19 c-0.721-0.253-1.559-0.138-2.483,0.309c-0.132,0.059-2.58,2.154-3.574,3.59C60.785,39.437,60.08,39.784,59.707,40.474z M66.221,37.879L66.221,37.879L66.221,37.879C66.221,37.877,66.225,37.877,66.221,37.879z M63.916,39.944 c0.664-0.814,1.246-1.47,1.539-1.702l0.4,1.616h0.004C65.441,39.92,64.723,39.948,63.916,39.944z"/>
</svg>