<?xml version="1.0" encoding="UTF-8"?>
<!DOCTYPE svg PUBLIC "-//W3C//DTD SVG 1.1 Tiny//EN" "http://www.w3.org/Graphics/SVG/1.1/DTD/svg11-tiny.dtd">
<svg width="17" height="43" viewBox="0 0 17 43">
<path fill="#FFFFFF" fill-opacity="0.16" d="M4.063,5.994L3.615,6.076C2.22,6.328,1.186,7.547,1.156,8.975l-0.081,4.1 c0,1.95,0.453,3.348,1.384,4.284c0.899,0.92,2.292,1.399,4.189,1.497c-0.016,0.216-0.031,0.438-0.031,0.44 c0,0.069,0.007,0.25,0.007,0.25l-0.077,2.257c0,2.463,0.183,4.576,0.543,6.282c0.324,1.558,0.826,2.914,1.493,4.029 c0.412,0.706,1,1.45,1.746,2.206c0.808,0.818,2.032,1.104,3.121,0.727c1.087-0.378,1.872-1.361,1.998-2.506l0.511-4.689 c0.001-0.015-0.118-1.091-0.118-1.091l-0.13-0.446l-1.086-2.203c-0.255-0.627-0.494-1.526-0.641-2.432 c-0.223-1.332-0.334-3.035-0.334-5.066l0.154-2.939l0.307-3.021C14.215,9.636,13.799,8.648,13,8.009 c-0.791-0.638-1.843-0.829-2.814-0.51L8.767,7.963C8.3,8.1,7.886,8.152,7.508,8.175c-0.015-0.047-0.04-0.124-0.04-0.124 C7.057,6.605,5.59,5.713,4.063,5.994z M7.549,8.301c0.008,0.003,0.027,0.01,0.032,0.012c0,0-0.026-0.008-0.031-0.01 C7.55,8.302,7.55,8.302,7.549,8.301z"/>
<path fill="#FFFFFF" fill-opacity="0.17" d="M4.153,6.485L4.153,6.485L3.706,6.567c-1.163,0.21-2.025,1.228-2.049,2.417 l-0.081,4.099c0,1.805,0.405,3.084,1.238,3.922c0.894,0.915,2.332,1.365,4.369,1.387c-0.032,0.441-0.066,0.932-0.066,0.932 c0.006,0.106,0.008,0.212,0.008,0.212s-0.077,2.263-0.077,2.267c0,2.438,0.179,4.508,0.533,6.18 c0.313,1.504,0.795,2.809,1.433,3.875c0.393,0.674,0.955,1.386,1.674,2.112c0.672,0.683,1.692,0.921,2.601,0.605 c0.905-0.316,1.56-1.136,1.665-2.089l0.511-4.688c0.001-0.021-0.116-0.975-0.116-0.975l-0.113-0.361l-1.057-2.129 c-0.281-0.69-0.531-1.617-0.687-2.575c-0.226-1.358-0.341-3.089-0.341-5.146l0.154-2.965l0.311-3.046 c0.085-0.846-0.262-1.67-0.928-2.203c-0.658-0.532-1.535-0.691-2.346-0.425L8.923,8.438C8.306,8.619,7.748,8.712,7.281,8.713 c-0.002-0.001-0.075-0.012-0.13-0.02C7.077,8.464,6.993,8.207,6.993,8.207C6.649,6.999,5.426,6.251,4.153,6.485z"/>
<path fill="#FFFFFF" fill-opacity="0.19" d="M4.244,6.977L4.244,6.977L3.796,7.059c-0.93,0.168-1.62,0.983-1.64,1.936 l-0.081,4.098c0,1.66,0.357,2.821,1.093,3.56c0.82,0.839,2.182,1.248,4.16,1.248c0.03-0.002,0.204-0.027,0.394-0.055 c-0.044,0.625-0.108,1.514-0.108,1.514c0.006,0.006,0.009,0.071,0.009,0.177c0,0.563-0.078,2.279-0.078,2.279 c0,0.001,0,0.002,0,0.004c0,2.385,0.176,4.418,0.522,6.059c0.301,1.45,0.763,2.703,1.373,3.723 c0.373,0.64,0.912,1.319,1.601,2.019c0.538,0.547,1.354,0.735,2.081,0.483c0.725-0.252,1.248-0.908,1.332-1.67l0.511-4.688 c0.002-0.027-0.114-0.851-0.114-0.851l-0.092-0.272l-1.029-2.063c-0.311-0.756-0.569-1.707-0.733-2.718 c-0.229-1.383-0.347-3.141-0.347-5.227l0.154-2.991l0.313-3.07c0.068-0.677-0.209-1.335-0.742-1.762 c-0.527-0.425-1.229-0.553-1.877-0.34L9.079,8.914c-0.674,0.197-1.286,0.3-1.801,0.3c0,0-0.421-0.059-0.506-0.071 c-0.11-0.338-0.255-0.781-0.255-0.781C6.243,7.399,5.261,6.79,4.244,6.977z M6.792,9.203c0.056,0.066,0.055,0.168,0.099,0.302 C6.891,9.504,6.831,9.32,6.792,9.203z"/>
<path fill="#FFFFFF" fill-opacity="0.22" d="M4.334,7.469L4.334,7.469L3.886,7.551c-0.698,0.126-1.215,0.738-1.23,1.455 l-0.081,4.097c0,1.514,0.31,2.557,0.947,3.198c0.723,0.74,1.969,1.101,3.806,1.101c0,0,0.482-0.073,0.937-0.142 c-0.053,0.735-0.151,2.09-0.151,2.1c0,0.038,0.028,0.061,0.038,0.094c-0.049,0.426-0.071,1.101-0.106,2.375 c0,0.001,0,0.002,0,0.004c0,2.342,0.172,4.335,0.512,5.942c0.29,1.396,0.732,2.598,1.313,3.569 c0.352,0.605,0.867,1.255,1.525,1.923c0.404,0.409,1.017,0.553,1.562,0.362c0.544-0.188,0.937-0.682,0.999-1.253l0.511-4.688 c0.003-0.055-0.11-0.711-0.11-0.711c-0.008-0.049-0.021-0.088-0.043-0.131l-1.031-2.067c-0.338-0.821-0.606-1.794-0.78-2.86 c-0.233-1.409-0.353-3.194-0.353-5.307l0.154-3.017l0.313-3.095c0.051-0.507-0.157-1.001-0.558-1.321 c-0.396-0.319-0.922-0.416-1.408-0.256L9.234,9.389C8.505,9.603,7.841,9.714,7.278,9.714c-0.529,0-0.809-0.112-0.888-0.209l0,0 c0-0.025-0.343-0.972-0.343-0.972C5.833,7.786,5.097,7.329,4.334,7.469z"/>
<path fill="#FFFFFF" fill-opacity="0.26" d="M4.424,7.96L3.977,8.042c-0.465,0.084-0.811,0.494-0.82,0.973l-0.081,4.097 c0,1.369,0.262,2.293,0.802,2.835c0.626,0.64,1.756,0.953,3.451,0.953l0,0c0.416,0,0.919-0.088,1.481-0.228 c-0.063,0.875-0.195,2.691-0.195,2.691c0.005-0.075,0.056-0.128,0.091-0.19c-0.092,0.323-0.115,1.035-0.159,2.668 c0,0.001,0,0.002,0,0.004c0,2.298,0.169,4.253,0.501,5.825c0.279,1.342,0.7,2.492,1.253,3.417 c0.332,0.571,0.822,1.188,1.453,1.828c0.27,0.272,0.678,0.368,1.041,0.242s0.624-0.454,0.666-0.837l0.512-4.688 c0-0.001-0.105-0.564-0.105-0.564l-1.031-2.066c-0.363-0.877-0.646-1.896-0.826-3.003c-0.238-1.437-0.359-3.249-0.359-5.388 l0.156-3.042l0.315-3.12c0.034-0.337-0.104-0.667-0.372-0.881c-0.264-0.213-0.616-0.277-0.939-0.171L9.393,9.864 c-0.788,0.229-1.503,0.35-2.114,0.35c-0.436,0-1.012-0.068-1.276-0.394C5.999,9.814,5.832,9.599,5.567,8.67 C5.424,8.172,4.933,7.867,4.424,7.96z"/>
<path fill="#FFFFFF" fill-opacity="0.28" d="M4.515,8.452L4.066,8.534c-0.234,0.042-0.405,0.254-0.41,0.492l-0.081,4.096 c0,1.22,0.215,2.03,0.656,2.474c0.529,0.541,1.543,0.806,3.097,0.806c0.474,0,1.051-0.101,1.765-0.308 c-0.003,0.001,0.118-0.033,0.265-0.074c-0.069,0.97-0.244,3.38-0.244,3.38c0-0.002-0.067,2.456-0.067,2.456 c0,2.251,0.165,4.174,0.49,5.71c0.269,1.289,0.669,2.388,1.192,3.265c0.313,0.539,0.778,1.124,1.381,1.733 c0.136,0.138,0.338,0.185,0.521,0.121s0.312-0.227,0.333-0.418l0.512-4.688c0.01-0.096-0.013-0.201-0.056-0.287l-1.03-2.068 c-0.393-0.942-0.687-2.002-0.873-3.146c-0.244-1.462-0.367-3.302-0.367-5.468l0.156-3.068l0.317-3.145 c0.017-0.168-0.056-0.334-0.187-0.44c-0.133-0.106-0.312-0.139-0.473-0.086l-1.416,0.466c-0.85,0.249-1.61,0.375-2.27,0.375 c-0.792,0-1.353-0.195-1.665-0.579c-0.085-0.107-0.271-0.426-0.528-1.328C5.015,8.559,4.768,8.406,4.515,8.452z"/>
<path fill="#235487" d="M11.925,25.417c-0.407-0.981-0.71-2.067-0.903-3.256c-0.25-1.501-0.373-3.351-0.373-5.549 c0-0.887,0.054-1.925,0.158-3.112c0.063-0.695,0.168-1.747,0.318-3.153c-0.766,0.262-1.246,0.42-1.443,0.475 c-0.893,0.262-1.691,0.393-2.403,0.393c-0.955,0-1.639-0.254-2.053-0.764c-0.198-0.248-0.406-0.75-0.622-1.507L4.156,9.026 c0,0.467-0.014,1.153-0.041,2.059c-0.026,0.906-0.04,1.585-0.04,2.037c0,1.071,0.17,1.778,0.511,2.121 c0.43,0.439,1.344,0.658,2.742,0.658c0.421,0,0.963-0.096,1.626-0.288c0.206-0.055,0.524-0.144,0.954-0.267 c-0.188,2.484-0.287,3.842-0.297,4.073c-0.043,0.833-0.065,1.646-0.065,2.437c0,2.225,0.159,4.094,0.479,5.608 c0.258,1.242,0.636,2.279,1.133,3.111c0.294,0.506,0.729,1.053,1.307,1.639l0.512-4.688 C12.416,26.462,12.066,25.759,11.925,25.417z"/>
</svg>