<?xml version="1.0" encoding="UTF-8"?>
<!DOCTYPE svg PUBLIC "-//W3C//DTD SVG 1.1 Tiny//EN" "http://www.w3.org/Graphics/SVG/1.1/DTD/svg11-tiny.dtd">
<svg width="17" height="43" viewBox="0 0 17 43">
<path fill="#FFFFFF" fill-opacity="0.16" d="M6.237,5.973C5.205,6.113,4.333,6.767,3.906,7.72l-1.971,4.442 c-0.005,0.013-0.207,0.771-0.207,0.771c-0.002,0.009-0.05,0.335-0.05,0.335c-0.002,0.015-0.003,0.037-0.003,0.063 c0,0.068,0.006,0.16,0.013,0.198L1.75,13.89l0.27,0.797c0.013,0.033,0.24,0.456,0.24,0.456c1.035,1.279,1.745,2.233,2.218,2.987 c0.94,1.498,1.689,3.119,2.229,4.821c0.697,2.212,1.051,4.637,1.051,7.207l-0.081,2.834l0.092,0.591l0.34,0.883 c0.002,0.007,0.223,0.335,0.223,0.335l0.549,0.545c0.001,0.002,0.326,0.217,0.326,0.217l0.708,0.291 c0.047,0.018,0.567,0.133,0.567,0.133l0.877,0.021c1.502,0,2.781-1.116,2.979-2.6l0.577-4.3c0.207-1.76,0.313-3.326,0.313-4.668 c0-2.787-0.326-5.38-0.971-7.707c-0.544-1.987-1.359-3.908-2.422-5.709c-0.738-1.241-1.707-2.586-2.882-3.998 C8.293,6.224,7.278,5.829,6.237,5.973z"/>
<path fill="#FFFFFF" fill-opacity="0.17" d="M6.305,6.468C5.444,6.585,4.718,7.129,4.362,7.924l-1.971,4.441 c-0.009,0.022-0.18,0.691-0.18,0.691c-0.004,0.017-0.039,0.278-0.039,0.278c-0.001,0.013-0.002,0.023-0.002,0.034 c0,0.032,0.007,0.06,0.014,0.098l0.059,0.337l0.25,0.719c0.023,0.055,0.204,0.374,0.204,0.374 c0.99,1.214,1.716,2.188,2.206,2.968c0.962,1.533,1.73,3.193,2.282,4.936c0.713,2.263,1.074,4.738,1.074,7.358l-0.081,2.849 l0.084,0.491l0.312,0.783c0.025,0.062,0.063,0.117,0.11,0.164l0.55,0.546c0.045,0.046,0.102,0.083,0.162,0.106l0.709,0.293 c0.099,0.029,0.476,0.104,0.476,0.104l0.786,0.01c1.246,0,2.313-0.932,2.479-2.166l0.576-4.3c0.204-1.734,0.307-3.28,0.307-4.602 c0-2.743-0.319-5.291-0.951-7.572c-0.532-1.945-1.33-3.826-2.371-5.589c-0.723-1.217-1.678-2.539-2.836-3.932 C8.019,6.677,7.172,6.348,6.305,6.468z"/>
<path fill="#FFFFFF" fill-opacity="0.19" d="M6.373,6.963c-0.688,0.094-1.27,0.529-1.554,1.165l-1.97,4.44 c-0.017,0.043-0.15,0.604-0.15,0.604c-0.012,0.052-0.025,0.107-0.025,0.162c0,0.016,0.001,0.031,0.004,0.046l0.059,0.337 l0.228,0.636c0.001,0.002,0.168,0.297,0.168,0.297c0.956,1.159,1.693,2.15,2.194,2.947c0.985,1.57,1.771,3.271,2.335,5.051 c0.728,2.311,1.098,4.836,1.098,7.51L8.679,33.02L8.754,33.4l0.283,0.689l0.55,0.546l0.71,0.294 c-0.004-0.002,0.383,0.075,0.383,0.075h0.688c0.998,0,1.85-0.745,1.982-1.731l0.576-4.301c0.201-1.709,0.303-3.231,0.303-4.533 c0-2.697-0.313-5.2-0.934-7.439c-0.521-1.905-1.302-3.745-2.32-5.469c-0.707-1.19-1.646-2.491-2.79-3.866 C7.744,7.131,7.066,6.867,6.373,6.963z"/>
<path fill="#FFFFFF" fill-opacity="0.22" d="M6.441,7.458c-0.516,0.07-0.952,0.396-1.166,0.874l-1.97,4.439 c-0.028,0.082-0.118,0.506-0.118,0.506c-0.007,0.034-0.011,0.069-0.011,0.104c0,0.058,0.01,0.114,0.029,0.169l0.228,0.635 c0.02,0.054,0.048,0.104,0.085,0.149c0.969,1.176,1.719,2.185,2.23,2.998c1.008,1.606,1.812,3.344,2.388,5.166 c0.744,2.357,1.121,4.936,1.121,7.66c0,0-0.081,2.857-0.081,2.861c0,0.065,0.014,0.131,0.038,0.19l0.284,0.69 c0.051,0.123,0.154,0.224,0.277,0.273l0.711,0.293c0.06,0.025,0.125,0.038,0.19,0.038h0.688c0.748,0,1.387-0.56,1.486-1.299 l0.576-4.3c0.198-1.686,0.299-3.186,0.299-4.469c0-2.65-0.309-5.109-0.916-7.307c-0.511-1.863-1.273-3.662-2.27-5.347 c-0.693-1.169-1.617-2.447-2.743-3.801C7.469,7.584,6.961,7.386,6.441,7.458z"/>
<path fill="#FFFFFF" fill-opacity="0.26" d="M6.509,7.953L6.509,7.953C6.165,8,5.875,8.218,5.732,8.536l-1.969,4.438 c0,0.002-0.086,0.406-0.086,0.406l0.228,0.635c0.98,1.19,1.743,2.216,2.268,3.051c1.031,1.642,1.852,3.418,2.441,5.282 c0.759,2.405,1.145,5.032,1.145,7.811L9.678,33.02l0.282,0.69c0.001,0,0.717,0.296,0.717,0.296h0.688 c0.498,0,0.925-0.372,0.99-0.865l0.578-4.3c0.194-1.659,0.293-3.138,0.293-4.401c0-2.604-0.302-5.02-0.896-7.173 c-0.499-1.822-1.245-3.58-2.217-5.225c-0.68-1.146-1.587-2.402-2.697-3.736C7.194,8.037,6.855,7.905,6.509,7.953z"/>
<path fill="#FFFFFF" fill-opacity="0.28" d="M6.577,8.448C6.405,8.472,6.259,8.583,6.188,8.74L4.22,13.178 c-0.029,0.065-0.043,0.135-0.043,0.203c0,0.114,0.039,0.227,0.114,0.318c0.996,1.208,1.771,2.252,2.304,3.102 c1.054,1.678,1.893,3.494,2.495,5.396c0.775,2.453,1.168,5.133,1.168,7.961c0,0-0.081,2.857-0.081,2.861 c0,0.129,0.05,0.248,0.142,0.342c0.095,0.097,0.224,0.145,0.358,0.145h0.688c0.25,0,0.462-0.183,0.494-0.432l0.578-4.301 c0.191-1.629,0.289-3.09,0.289-4.334c0-2.562-0.295-4.931-0.879-7.042c-0.486-1.78-1.216-3.497-2.164-5.103 C9.016,11.173,8.123,9.938,7.03,8.624C6.919,8.49,6.748,8.425,6.577,8.448z"/>
<path fill="#235487" d="M11.363,17.531c-0.479-1.748-1.184-3.408-2.112-4.98c-0.656-1.105-1.525-2.309-2.605-3.607l-1.969,4.438 c1.014,1.23,1.794,2.281,2.342,3.154c1.082,1.723,1.931,3.559,2.547,5.512c0.795,2.515,1.191,5.218,1.191,8.111 c-0.055,1.571-0.081,2.521-0.081,2.848h0.688c0.342-2.459,0.533-3.887,0.574-4.282c0.19-1.625,0.287-3.054,0.287-4.283 C12.227,21.912,11.938,19.609,11.363,17.531z"/>
</svg>