<?xml version="1.0" encoding="UTF-8" standalone="no"?>
<!DOCTYPE svg PUBLIC "-//W3C//DTD SVG 1.1 Tiny//EN" "http://www.w3.org/Graphics/SVG/1.1/DTD/svg11-tiny.dtd">
<svg xmlns="http://www.w3.org/2000/svg" xmlns:xlink="http://www.w3.org/1999/xlink" width="40" height="50" viewBox="0 0 40 50">
<rect fill="none" height="50" width="40"/>
<path d="M1.801,49.5h36.398c0.719,0,1.301-0.712,1.301-1.591L39.458,2.09c0-0.878-0.581-1.59-1.3-1.59H8.299 c-0.716,0-1.3,0.712-1.3,1.59L0.5,47.909C0.5,48.788,1.084,49.5,1.801,49.5L1.801,49.5z" fill="#E6E6E6"/>
<polygon fill="#E6E6E6" points="38.158,2.09 8.299,2.09 1.801,47.909 38.199,47.909 "/>
<path d="M1.801,49.5h36.398c0.719,0,1.301-0.712,1.301-1.591 L39.458,2.09c0-0.878-0.581-1.59-1.3-1.59H8.299c-0.716,0-1.3,0.712-1.3,1.59L0.5,47.909C0.5,48.788,1.084,49.5,1.801,49.5 L1.801,49.5z" fill="#E6E6E6" fill-opacity="0.5" />
</svg>