<?xml version="1.0" encoding="utf-8"?>
<!DOCTYPE svg PUBLIC "-//W3C//DTD SVG 1.1 Tiny//EN" "http://www.w3.org/Graphics/SVG/1.1/DTD/svg11-tiny.dtd">
<svg width="60" height="80" viewBox="0 0 60 80">
<linearGradient id="_280" gradientUnits="userSpaceOnUse" x1="20.69" y1="30.75" x2="38.19" y2="51.79">
<stop stop-color="#DEE9F3" offset="0"/>
<stop stop-color="#235487" offset="1"/>
</linearGradient>
<circle fill="url(#_280)" cx="29.527" cy="41.367" r="23.417"/>
<radialGradient id="_281" gradientUnits="userSpaceOnUse" cx="34.05" cy="26.71" r="42.04">
<stop stop-color="#FFFFFF" offset="0"/>
<stop stop-color="#A2C2DD" offset="0.53"/>
<stop stop-color="#6C83BB" offset="0.87"/>
<stop stop-color="#003D6D" offset="1"/>
</radialGradient>
<circle fill="url(#_281)" cx="29.566" cy="41.366" r="22.724"/>
<radialGradient id="_282" gradientUnits="userSpaceOnUse" cx="34.36" cy="29.04" r="28.6">
<stop stop-color="#E6EEF4" offset="0"/>
<stop stop-color="#C6DCC1" offset="0.08"/>
<stop stop-color="#91C06F" offset="0.21"/>
<stop stop-color="#6BAB33" offset="0.32"/>
<stop stop-color="#539E0E" offset="0.4"/>
<stop stop-color="#4A9900" offset="0.44"/>
<stop stop-color="#398419" offset="0.55"/>
<stop stop-color="#22663B" offset="0.71"/>
<stop stop-color="#135550" offset="0.85"/>
<stop stop-color="#0E4E58" offset="0.94"/>
</radialGradient>
<path fill="url(#_282)" d="M52.279,40.949c-0.027,0.006-0.057,0.031-0.079,0.096c-0.438,1.278-1.093,1.939-1.093,1.939l0.256,1.485c0,0,0.49,0.311,0.691,0.142c0.01-0.057,0.014-0.111,0.021-0.168c0.056-0.411,0.1-0.826,0.133-1.244c0.01-0.115,0.02-0.229,0.025-0.346c0.033-0.492,0.055-0.986,0.055-1.485C52.29,41.229,52.282,41.089,52.279,40.949z M44.702,40.598c-0.218,0.289-0.423,0.664-0.224,1.117c0.197,0.453,0.222,0.438,0.486-0.105c0.266-0.543,0.082-0.498-0.008-0.543S44.954,40.265,44.702,40.598z M30.829,49.708l-1.271,1.291c0,0-0.925-0.067-0.906,0.269c0.007,0.143,0.068,0.766-0.023,1.074c-0.271,0.174-0.518,0.792-0.518,0.792s0.044,1.236,1.022,1.099c0.979-0.139,2.182-2.653,2.182-2.653S31.945,49.581,30.829,49.708z M33.441,19.917c0.195,0.013,0.111-0.238-0.737-0.22c-0.716,0.016-1.554,0.828-0.228,1.003C31.796,20.409,32.357,19.667,33.441,19.917z M50.637,45.802l0.01-1.352l-0.117-0.156c0,0-0.094,0.445-0.168-0.024c-0.197-1.248-0.938-2.021-1.285-2.39c-0.184-0.192-0.059,0.438-0.059,0.438c0.537,0.845,0.559,1.451,0.764,2.287c0.184,0.742,0.76,1.149,0.76,1.149l0.01,0.341c0.434,0.538,1.157,0.26,1.188,0.246c0.014-0.057,0.027-0.111,0.039-0.168C51.789,45.65,50.637,45.802,50.637,45.802z M49.382,40.502c0.464,1.249,0.634,2.507,1.252,2.965c-0.082-0.347-0.12-1.507-0.12-1.507c-0.265-0.726-0.328-0.035-0.775-1.367c-0.26-0.781,0.076-2.379,0.389-1.26c0.125,0.443,0.232,0.687,0.436,1.267c1.072-1.433,0.688-2.878-0.018-3.412c-0.336-1.493-0.117-1.608-0.117-1.608c0.002,0.017,0.002,0.027,0.004,0.035c0.004-0.059,0.049-0.279,0.389-0.516c0.205-0.85-0.039-1.795-0.158-2.178c-0.023-0.063-0.049-0.125-0.074-0.188c-0.188-0.453-0.386-0.9-0.6-1.338c-0.043-0.086-0.088-0.17-0.133-0.256c-0.188-0.373-0.387-0.74-0.594-1.101c-0.058-0.098-0.111-0.197-0.17-0.294c-0.244-0.41-0.502-0.812-0.771-1.204c-0.064-0.096-0.135-0.188-0.2-0.283c-0.229-0.322-0.466-0.639-0.709-0.948c-0.075-0.095-0.147-0.191-0.224-0.285c-0.295-0.36-0.6-0.71-0.914-1.051c-0.092-0.101-0.188-0.199-0.283-0.298c-0.258-0.269-0.521-0.531-0.79-0.788c-0.097-0.09-0.188-0.183-0.286-0.272c-0.334-0.306-0.678-0.601-1.03-0.887c-0.12-0.099-0.243-0.193-0.366-0.289c-0.281-0.218-0.566-0.43-0.857-0.636c-0.114-0.081-0.227-0.165-0.342-0.243c-0.368-0.25-0.746-0.488-1.131-0.717c-0.146-0.087-0.295-0.171-0.444-0.255c-0.302-0.17-0.604-0.333-0.914-0.49c-0.131-0.066-0.261-0.137-0.392-0.2c-0.398-0.192-0.806-0.371-1.217-0.54c-0.168-0.069-0.34-0.135-0.51-0.201c-0.324-0.125-0.652-0.241-0.982-0.351c-0.152-0.05-0.304-0.104-0.457-0.151c-0.412-0.127-0.83-0.24-1.252-0.344c-0.185-0.045-0.369-0.087-0.555-0.127c-0.354-0.078-0.708-0.146-1.066-0.208c-0.188-0.032-0.375-0.063-0.564-0.091c-0.4-0.058-0.805-0.104-1.211-0.14c-0.191-0.017-0.387-0.032-0.581-0.044c-0.39-0.025-0.781-0.04-1.175-0.045c-0.1-0.001-0.198-0.007-0.298-0.007c-0.132,0-0.262,0.008-0.394,0.01c-0.323,0.006-0.645,0.015-0.963,0.034c-0.209,0.012-0.417,0.029-0.624,0.047c-0.276,0.024-0.551,0.054-0.824,0.087c-0.192,0.023-0.386,0.044-0.577,0.073c-0.418,0.063-0.833,0.135-1.244,0.22c-0.181,0.038-0.358,0.083-0.537,0.124c-0.27,0.063-0.537,0.128-0.803,0.2c-0.091,0.025-0.182,0.052-0.272,0.078l5.814-0.268l2.533,0.088l3.234,0.332l1.443,0.523c0,0-1.015,0.158-1.722,0.458c0,0,0.185-0.6-0.442-0.387c-0.971,0.33-1.844,0.57-2.553,0.624c-0.373,0.029-1.148-0.114-2.844,0.136c-0.306-0.012,0.791-0.332,0.546-0.393c-0.244-0.062-3.692-0.569-4.571-0.037c-0.605,0.367-1.996,0.857-2.296,0.897c-0.297,0.04-0.977,0.234-0.977,1.496c-0.183,0.147-3.189,2.061-2.695,1.155c0.494-0.906,1.807-2.508,0.731-1.665c-0.773,0.605-1.258,0.208-1.27,0.928c-0.014,0.72-0.222,0.511-0.364,0.667c-0.362,0.396-0.555,0.587-1.084,1.749c-0.529,1.16-1.025,0.927-1.131,0.664c-0.28-0.7-0.95,0.351-1.108,0.615c-0.159,0.263-0.731,0.958-0.731,0.958l0.529,0.568l0.523-0.131l0.787-0.394c0,0,1.134-1.073,1.617-1.485c0.41-0.35,1.471-0.2,1.471-0.2l1.278,1.168c0,0-0.507,1.069-0.694,1.3c0.577-0.037,1.441-1.297,1.441-1.297c-1.007-1.388-0.787-1.496-0.787-1.496l1.292,1.049l0.013,0.014c0,0,0.363,1.881,0.633,1.885c0.267,0.006,0.729-1.155,0.729-1.155l0.699-0.131c0.112,0.594,0.141,1.813,0.644,1.512c0.287-0.173,0.851-0.121,1.311,0.122c0.461,0.242,0.854-0.108,1.191,0.333c-0.341,1.922-1.299,1.246-1.553,1.149c-1.112-0.014-2.832,0.07-3.297-0.407c-0.463-0.477-0.955,0.03-1.412,0.49c-0.297,0.3-1.189-0.148-1.386-0.62c-0.195-0.474-1.098-0.456-1.098-0.456l0.474-1.093l-2.281-0.272l-0.678,0.335l-0.917-0.219l-1.967,1.879c0,0-2.363,2.271-2.403,2.535c-0.04,0.263-1.576,3.621-1.18,4.632c0.396,1.011,0.362,2.667,1.311,2.753c1.242,0.112,2.928-0.131,2.928-0.131c0.081,0.221,0.039,0.863,0.039,0.863s0.967,0.316,1.49,0.316c0.176,0.918-0.653,1.814-0.169,2.566c1.052,1.632,1.437,2.546,1.479,4.021c-1.022,1.701,0.217,3.076,0.479,3.636c0.185,0.346,1.053,2.317,2.145,3.323c0.961,1.916,1.2,1.058,2.066,1.371c1.014,0.092,1.854,0.358,2.491-0.809c0.205-0.215,0.397-0.113,0.6-0.345c0.306-0.351,0.292-0.718,0.394-1.181c0.18-0.096,0.611-0.164,0.921-0.336c0.306-0.022-0.458-0.908-0.011-1.847c0.612-0.278,2.367-1.356,2.367-1.356c-0.088-2.84-1.66-3.89,0.612-5.726c2.054-1.528,3.103-2.054,4.152-3.846c1.002-1.245,0.51-1.805-0.759-1.452c-1.194,0.331-2.257,0.403-2.344-0.077c-0.072-0.715-1.038-1.268-1.749-1.967c-0.367-0.961-0.699-2.316-0.699-2.316l-1.191-2.239l0.58-0.47l1.442,2.929l1.132,1.562c0.552,2.011,0.572,2.065,0.572,2.065c2.535-0.438,4.108-1.093,4.108-1.093s2.886-1.661,3.276-2.578c0.13-0.303-1.797-1.622-1.797-1.622c-1.252,0.766-1.442,0.51-1.442,0.51l-0.414-0.495l-0.938-0.774l-0.476-0.791l0.597-0.318l0.827,1.104l1.125,0.437c0,0,0.816-0.187,1.212,0.222c0.344,0.469,0.965,0.579,0.965,0.579s2.319-0.06,2.91-0.118c0,0,1.252,1.843,1.809,1.931l0.572-0.527l0.276,1.464c-0.006,1.172,1.33,3.163,1.33,3.163l0.437,1.087c1.524-0.938,0.992-3.396,0.992-3.396l0.887-0.325c0,0,0.414-1.633,1.27-1.734c0.787-0.088,1.18,0.174,1.445,1.085c-0.08,1.206,0.436,0.915,0.871,0.662l0.522,1.617L49.382,40.502z M23.795,23.296c-0.495,0.671-1.247,0.259-1.173,0.021c0.075-0.236,1.138-0.758,1.642-1.287c0.504-0.53,1.472-0.696,1.472-0.696s-0.61,0.545-0.743,0.83C24.858,22.45,24.293,22.625,23.795,23.296z M27.156,27.611c-0.73-0.278-1.755-0.124-1.755-0.124c-0.408,0.331-1.663,0.011-0.922-0.717c0.741-0.729,1.355-1.089,1.518-0.517c0.023,0.235,0.839,0.576,0.936,0.074c0.097-0.503,1.052-0.798,1.106-0.427c-0.553,0.361-0.104,0.634,0.215,0.819C29.147,27.241,29.474,28.003,27.156,27.611z M31.891,29.151c-0.355-0.357,0.391-0.658-0.127-1.22c-0.74-0.806-1.22-1.171,0.272-1.808c1.67-0.187,0.123,0.499,0.272,0.92c0.08,0.225,0.691,0.976,1.074,1.893C33.7,29.701,32.245,29.509,31.891,29.151z M50.544,35.874c-0.088,0.341,0.179,0.56,0.254,0.321c0.109-0.347,0.065-0.876,0.065-0.876s-0.252,0.138-0.288,0.193C50.54,35.571,50.593,35.687,50.544,35.874z"/>
</svg>