<?xml version="1.0" encoding="UTF-8"?>
<!DOCTYPE svg PUBLIC "-//W3C//DTD SVG 1.1 Tiny//EN" "http://www.w3.org/Graphics/SVG/1.1/DTD/svg11-tiny.dtd">
<svg baseProfile="tiny" height="24px" version="1.1" viewBox="0 0 24 24" width="24px" x="0px" xmlns="http://www.w3.org/2000/svg" xmlns:xlink="http://www.w3.org/1999/xlink" y="0px">
<path d="M19.072,20.231h-3.756l0.775-3.773h-1.416l-0.748,3.773H10.17l0.767-3.773h-1.47v-3.684h2.216l0.231-1.158  H9.466V9.849l-3.118,1.792l-0.52-1.219l-0.5,1.222L1.58,9.52l0.878-1.133L1,8.538V4.425l1.462,0.162L1.58,3.437l3.762-2.096  l0.487,1.226l0.505-1.224l3.713,2.098L9.173,4.587l1.46-0.162v3.496h2.026l0.778-3.794h3.738L16.41,7.921h1.406l0.777-3.794h3.742  l-0.777,3.794H23v3.695h-2.188l-0.232,1.158H23v3.684h-3.172L19.072,20.231L19.072,20.231z M15.428,12.774h1.402l0.236-1.158h-1.402  L15.428,12.774L15.428,12.774z" fill="#364B60"/>
<path d="M22,10.614V8.922h-1.666l0.777-3.795h-1.703l-0.775,3.795h-3.445l0.768-3.795h-1.703l-0.777,3.795h-3.008  v1.692h2.668l-0.634,3.16h-2.034v1.684h1.693l-0.766,3.773h1.713l0.746-3.773h3.463l-0.775,3.773h1.713l0.756-3.773H22v-1.684  h-2.639l0.633-3.16H22z M17.648,13.774h-3.445l0.643-3.16h3.445L17.648,13.774z M8.557,3.747l-1.73-0.979L5.808,5.237L4.832,2.769  L3.077,3.747l1.606,2.095L2,5.544v1.885l2.683-0.279L3.077,9.219l1.755,0.993L5.808,7.82l1.019,2.392l1.73-0.993L6.959,7.149  l2.674,0.279V5.544L6.959,5.842L8.557,3.747z" fill="#FFFFFF"/>
<rect fill="none" height="24" width="24"/>
</svg>
