<?xml version="1.0" encoding="UTF-8"?>
<!DOCTYPE svg PUBLIC "-//W3C//DTD SVG 1.1 Tiny//EN" "http://www.w3.org/Graphics/SVG/1.1/DTD/svg11-tiny.dtd">
<svg baseProfile="tiny" height="29px" version="1.1" viewBox="0 0 42 29" width="42px" x="0px" xmlns="http://www.w3.org/2000/svg" xmlns:xlink="http://www.w3.org/1999/xlink" y="0px">
<rect fill="none" height="29" width="42" x="0.028" y="0.028"/>
<g>
<g>
<linearGradient gradientTransform="matrix(1 0 0 -1 0 28)" gradientUnits="userSpaceOnUse" id="SVGID_1_" x1="27.1514" x2="30.6741" y1="10.2964" y2="6.1987">
<stop offset="0" style="stop-color:#AABBD7"/>
<stop offset="0.2634" style="stop-color:#92A5CC"/>
<stop offset="0.7135" style="stop-color:#6C83BB"/>
<stop offset="0.7571" style="stop-color:#637DB5"/>
<stop offset="0.8268" style="stop-color:#4C6EA4"/>
<stop offset="0.9134" style="stop-color:#265689"/>
<stop offset="0.9888" style="stop-color:#003D6D"/>
<stop offset="1" style="stop-color:#003D6D"/>
</linearGradient>
<path d="M20.264,3.84c0.004-0.001,0.008,0.01,0.01,0.009c-2.328,0.934-3.74,3.268-3.777,6.239l0.072,6.882    c-0.055,4.609,2.809,8.629,6.385,8.955c0.824,0.074,1.645-0.002,2.432-0.23c2.648-0.646,6.203-2.105,6.363-7.275l0.182-7.394    c-0.063-3.079-1.289-5.531-3.449-6.917C26.211,2.655,23.217,2.557,20.264,3.84z" fill="url(#SVGID_1_)"/>
<g>
<g>
<linearGradient gradientTransform="matrix(1 0 0 -1 0 28)" gradientUnits="userSpaceOnUse" id="SVGID_2_" x1="25.9961" x2="26.1329" y1="25.4131" y2="2.6707">
<stop offset="0" style="stop-color:#FFFFFF"/>
<stop offset="0.0804" style="stop-color:#E4EDF5"/>
<stop offset="0.2367" style="stop-color:#B4CEE4"/>
<stop offset="0.3146" style="stop-color:#A2C2DD"/>
<stop offset="0.4547" style="stop-color:#8EABD1"/>
<stop offset="0.6573" style="stop-color:#6C83BB"/>
<stop offset="0.7036" style="stop-color:#637DB5"/>
<stop offset="0.7776" style="stop-color:#4C6EA4"/>
<stop offset="0.8695" style="stop-color:#265689"/>
<stop offset="0.9494" style="stop-color:#003D6D"/>
<stop offset="1" style="stop-color:#003D6D"/>
</linearGradient>
<path d="M20.361,4.059c5.592-2.433,11.193,0.327,11.33,6.962l-0.182,7.391      c-0.148,4.824-3.279,6.463-6.813,7.195L20.361,4.059z" fill="url(#SVGID_2_)"/>
<linearGradient gradientTransform="matrix(1 0 0 -1 0 28)" gradientUnits="userSpaceOnUse" id="SVGID_3_" x1="14.9482" x2="24.5819" y1="30.4902" y2="10.8296">
<stop offset="0" style="stop-color:#FFFFFF"/>
<stop offset="0.1745" style="stop-color:#F8FBFD"/>
<stop offset="0.4209" style="stop-color:#E6EFF6"/>
<stop offset="0.7103" style="stop-color:#C8DBEB"/>
<stop offset="1" style="stop-color:#A2C2DD"/>
</linearGradient>
<path d="M23.381,3.754c4.184,0.519,6.547,3.948,6.447,9.02l-0.209,6.578      c-0.053,4.281-3.221,6.648-6.646,6.338c-3.615-0.33-6.219-4.439-6.168-8.723l-0.07-6.875      C16.787,5.813,19.777,3.182,23.381,3.754z" fill="url(#SVGID_3_)"/>
<path d="M27.387,11.91l-3.295,3.074l3.275,4.426l-4.816,4.486l0.014-7.488l-2.334,2.174l-0.848-1.213      l2.949-2.748L19.4,10.661l0.852-0.861l2.32,3.131l0.025-7.483L27.387,11.91z M23.807,9.087c-0.004,1.459-0.01,2.738-0.018,4.171      c0.83-0.768,1.605-1.494,1.838-1.711C25.195,10.965,24.588,10.145,23.807,9.087 M25.609,19.049      c-0.232-0.314-1.004-1.357-1.826-2.467c-0.002,1.436-0.002,2.715-0.006,4.172C24.564,20.021,25.174,19.451,25.609,19.049" fill="#FFFFFF"/>
</g>
</g>
</g>
</g>
<g>
<path d="M19.801,8.255l2.046-2.046l-0.028-0.002l3.104-3.104   c-0.864-0.063-1.761,0.002-2.673,0.205L18.519,7.04l-0.933,0.934h-0.002l-1.021,1.022c-0.06,0.393-0.1,0.796-0.104,1.216   l0.015,1.372L19.801,8.255L19.801,8.255z" fill="#FFFFFF" fill-opacity="0.8"/>
<path d="M21.857,11.082l2.045-2.046l-0.029-0.002l4.703-4.702   c-0.046-0.031-0.086-0.069-0.134-0.1c-0.474-0.304-0.985-0.534-1.516-0.719l-6.353,6.353l-0.933,0.934H19.64l-3.143,3.144   l0.026,2.471l5.332-5.333H21.857z" fill="#FFFFFF" fill-opacity="0.8"/>
<path d="M23.229,12.179l-0.933,0.934h-0.002L16.59,18.85l0.172,0.592   c0.096,0.459,0.223,0.902,0.373,1.33l7.376-7.376h0.001l2.046-2.046l-0.028-0.002l4.375-4.375   c-0.277-0.538-0.607-1.032-0.994-1.474L23.229,12.179z" fill="#FFFFFF" fill-opacity="0.8"/>
<path d="M17.837,22.406l0.673,0.963c0.131,0.174,0.268,0.342,0.408,0.502l12.898-12.955   c-0.033-0.762-0.08-1.514-0.254-2.188L17.837,22.406z" fill="#FFFFFF" fill-opacity="0.8"/>
<path d="M26.228,19.203l-0.933,0.934h-0.002l-4.969,4.969c0.538,0.355,1.115,0.617,1.72,0.779   l5.465-5.467h0.001l2.047-2.045l-0.029-0.002l2.242-2.242l0.063-2.53L26.228,19.203z" fill="#FFFFFF" fill-opacity="0.8"/>
<path d="M31.027,21.754c0.385-0.855,0.631-1.893,0.678-3.146l-4.021,4.021l-0.932,0.934H26.75   l-2.465,2.465c0.358-0.043,0.713-0.109,1.062-0.209c0.804-0.197,1.69-0.469,2.541-0.896l1.077-1.078h0.002l2.031-2.031   c0.002-0.006,0.006-0.01,0.008-0.014l-0.021-0.002L31.027,21.754z" fill="#FFFFFF" fill-opacity="0.8"/>
</g>
<linearGradient gradientUnits="userSpaceOnUse" id="SVGID_4_" x1="32.9355" x2="40.4223" y1="14.9648" y2="14.9648">
<stop offset="0" style="stop-color:#E6EEF4"/>
<stop offset="0.0772" style="stop-color:#C6DCC1"/>
<stop offset="0.211" style="stop-color:#91C06F"/>
<stop offset="0.321" style="stop-color:#6BAB33"/>
<stop offset="0.4014" style="stop-color:#539E0E"/>
<stop offset="0.4438" style="stop-color:#4A9900"/>
<stop offset="0.5475" style="stop-color:#398419"/>
<stop offset="0.7125" style="stop-color:#22663B"/>
<stop offset="0.8486" style="stop-color:#135550"/>
<stop offset="0.9382" style="stop-color:#0E4E58"/>
<stop offset="1" style="stop-color:#0E4E58"/>
</linearGradient>
<path d="M33.708,6.138C36.37,7.979,40.166,17.84,33.6,23.791C38.365,22.754,42.798,10.816,33.708,6.138z" fill="url(#SVGID_4_)"/>
<linearGradient gradientUnits="userSpaceOnUse" id="SVGID_5_" x1="16.2866" x2="7.0774" y1="15.1309" y2="15.1309">
<stop offset="0" style="stop-color:#E6EEF4"/>
<stop offset="0.0772" style="stop-color:#C6DCC1"/>
<stop offset="0.211" style="stop-color:#91C06F"/>
<stop offset="0.321" style="stop-color:#6BAB33"/>
<stop offset="0.4014" style="stop-color:#539E0E"/>
<stop offset="0.4438" style="stop-color:#4A9900"/>
<stop offset="0.5475" style="stop-color:#398419"/>
<stop offset="0.7125" style="stop-color:#22663B"/>
<stop offset="0.8486" style="stop-color:#135550"/>
<stop offset="0.9382" style="stop-color:#0E4E58"/>
<stop offset="1" style="stop-color:#0E4E58"/>
</linearGradient>
<path d="M14.836,23.957c-6.565-5.951-2.771-15.812-0.107-17.653C5.638,10.982,10.07,22.92,14.836,23.957z" fill="url(#SVGID_5_)"/>
<path d="M14.836,23.836c-6.565-5.949-2.771-15.811-0.107-17.652  C5.638,10.862,10.07,22.799,14.836,23.836z" fill="#FFFFFF" fill-opacity="0.4" stroke-opacity="0.4"/>
<path d="M14.718,6.151c-0.013,0.007-0.024,0.014-0.037,0.021c0.001,0.002,0.002,0.003,0.004,0.005  C14.696,6.168,14.707,6.159,14.718,6.151z M11.734,11.382l-0.522,0.522l0.028,0.002l-1.75,1.75c-0.072,0.776-0.053,1.556,0.04,2.322  l1.694-1.689C11.301,13.275,11.481,12.295,11.734,11.382z M11.717,18.953c-0.227-0.732-0.378-1.475-0.458-2.215l-1.291,1.295  c0.205,0.672,0.462,1.311,0.764,1.906l0.179-0.18L11.717,18.953z M10.536,10.114l3.677-3.678  C12.488,7.433,11.293,8.706,10.536,10.114z M12.191,20.977l-0.507,0.508c0.356,0.475,0.74,0.891,1.144,1.24l0.534-0.533  c-0.354-0.475-0.662-0.963-0.921-1.463L12.191,20.977L12.191,20.977z M14.825,23.803c-0.103-0.092-0.195-0.189-0.292-0.283  l-0.155,0.154C14.526,23.727,14.675,23.771,14.825,23.803z M14.593,6.056l-0.38,0.38c0.154-0.089,0.305-0.18,0.468-0.265  C14.65,6.134,14.625,6.092,14.593,6.056z" fill="#FFFFFF" fill-opacity="0.8" stroke-opacity="0.8"/>
<g>
<path d="M34.077,6.345l-0.049,0.049c0.37,0.332,0.751,0.802,1.117,1.381l0.427-0.427   C35.125,6.989,34.628,6.653,34.077,6.345z" fill="#F2F2F2" fill-opacity="0.8"/>
<path d="M36.789,8.515l-0.817,0.817c0.249,0.564,0.474,1.182,0.664,1.835l1.188-1.188   C37.539,9.469,37.193,8.981,36.789,8.515z" fill="#F2F2F2" fill-opacity="0.8"/>
<path d="M37.702,12.571l-0.621,0.621c0.114,0.758,0.173,1.541,0.16,2.337l1.709-1.709   c-0.054-0.709-0.181-1.415-0.392-2.105L37.702,12.571z" fill="#F2F2F2" fill-opacity="0.8"/>
<path d="M38.859,16.271l-1.947,1.939c-0.474,1.99-1.494,3.936-3.31,5.58   c0.121-0.027,0.241-0.064,0.361-0.105l3.722-3.736C38.247,18.846,38.664,17.588,38.859,16.271z" fill="#F2F2F2" fill-opacity="0.8"/>
</g>
<path d="M33.708,6.138C36.37,7.979,40.166,17.84,33.6,23.791  C38.365,22.754,42.798,10.816,33.708,6.138z" fill="#FFFFFF" fill-opacity="0.4" stroke-opacity="0.4"/>
<g>
<g>
<path d="M6.886,17.42c-1.44,0-3.413,0.342-3.913,3.295l-0.074,0.447c0,0,3.318,0,3.711,0    c0.118,0.213,0.296,0.533,0.409,0.738c-0.113,0.203-0.291,0.523-0.409,0.736c-0.393,0-3.711,0-3.711,0l0.074,0.445    c0.5,2.955,2.473,3.295,3.913,3.295c1.135,0,2.146-0.949,2.959-1.717c0.439-0.414,0.854-0.805,1.072-0.805h10.16l0.111-0.125    c0.221-0.238,0.725-0.895,0.736-1.814v-0.031c-0.01-0.922-0.516-1.576-0.736-1.816l-0.111-0.125h-10.16    c-0.219,0-0.633-0.389-1.072-0.803C9.032,18.373,8.021,17.42,6.886,17.42z" fill="#FFFFFF" fill-opacity="0.5" stroke-opacity="0.5"/>
<linearGradient gradientTransform="matrix(0.5 0 0 -0.5 -277.8506 -387.3223)" gradientUnits="userSpaceOnUse" id="SVGID_6_" x1="568.0811" x2="589.9891" y1="-804.6782" y2="-831.0341">
<stop offset="0" style="stop-color:#E6EDF3"/>
<stop offset="0.1196" style="stop-color:#CABAD7"/>
<stop offset="0.2719" style="stop-color:#AB7EB8"/>
<stop offset="0.3844" style="stop-color:#9759A4"/>
<stop offset="0.4438" style="stop-color:#8F4B9C"/>
<stop offset="0.5679" style="stop-color:#73357C"/>
<stop offset="0.7242" style="stop-color:#551D5A"/>
<stop offset="0.8533" style="stop-color:#430E45"/>
<stop offset="0.9382" style="stop-color:#3C093D"/>
<stop offset="1" style="stop-color:#3C093D"/>
</linearGradient>
<path d="M21.544,21.898c0-0.004,0.002-0.008,0.002-0.01h-0.002c-0.01-0.803-0.469-1.381-0.635-1.564    c-0.215,0-9.99,0-9.99,0c-0.373,0-0.777-0.381-1.338-0.906c-0.76-0.719-1.713-1.615-2.697-1.615c-1.597,0-3.11,0.469-3.534,2.977    c0.602,0,3.483,0,3.483,0l0.619,1.119l-0.619,1.119c0,0-2.882,0-3.483,0c0.426,2.508,1.938,2.977,3.534,2.977    c0.984,0,1.936-0.895,2.697-1.613c0.561-0.527,0.965-0.908,1.338-0.908c0,0,9.775,0,9.99,0c0.168-0.184,0.627-0.762,0.635-1.563    h0.002C21.546,21.906,21.544,21.902,21.544,21.898z" fill="url(#SVGID_6_)"/>
</g>
</g>
</svg>
