<?xml version="1.0" encoding="UTF-8"?>
<!DOCTYPE svg PUBLIC "-//W3C//DTD SVG 1.1 Tiny//EN" "http://www.w3.org/Graphics/SVG/1.1/DTD/svg11-tiny.dtd">
<svg width="84" height="58" viewBox="0 0 84 58">
<linearGradient id="_24" gradientUnits="userSpaceOnUse" x1="48.2" y1="30.45" x2="58.46" y2="50.65">
<stop stop-color="#A2C2DD" offset="0.1"/>
<stop stop-color="#6C83BB" offset="0.71"/>
<stop stop-color="#003D6D" offset="0.99"/>
</linearGradient>
<path fill="url(#_24)" d="M50.664,4.722c0,0,0.138,4.283,0.171,5.272c-6.909-0.899-12.521,0.563-16.813,2.11 c-0.772,14.138,0.907,27.957,1.879,35.477c2.64,2.305,8.818,6.298,15.538,6.456c3.025-1.309,4.636-3.538,4.884-3.856 c0,0,0.162-0.768,0.217-1.029c0.236-0.2,1.489-1.268,1.489-1.268c1.894-7.616,3.526-25.986,2.636-33.326 c-0.432-0.43-1.686-1.956-5.278-3.419c-0.011-0.023,0.835-5.79,0.835-5.79C56.634,3.512,51.337,2.537,50.664,4.722z"/>
<linearGradient id="_25" gradientUnits="userSpaceOnUse" x1="47.84" y1="4.68" x2="60.26" y2="22.38">
<stop stop-color="#A2C2DD" offset="0.1"/>
<stop stop-color="#6C83BB" offset="0.71"/>
<stop stop-color="#003D6D" offset="0.99"/>
</linearGradient>
<path fill="url(#_25)" d="M46.123,10.102c3.767-0.136,10.105,0.398,14.196,4.51l-2.42,1.117L46.123,10.102z"/>
<linearGradient id="_26" gradientUnits="userSpaceOnUse" x1="54.78" y1="6.39" x2="59.18" y2="41.01">
<stop stop-color="#FFFFFF" offset="0"/>
<stop stop-color="#A2C2DD" offset="0.35"/>
<stop stop-color="#6C83BB" offset="0.7"/>
<stop stop-color="#003D6D" offset="1"/>
</linearGradient>
<path fill="url(#_26)" d="M58.3,15.515l-2.555,33.862l1.949-1.649c1.524-6.723,3.602-23.31,2.615-33.168L58.3,15.515z"/>
<linearGradient id="_27" gradientUnits="userSpaceOnUse" x1="40.54" y1="18.36" x2="51.9" y2="9.22">
<stop stop-color="#FFFFFF" offset="0.15"/>
<stop stop-color="#A2C2DD" offset="1"/>
</linearGradient>
<path fill="url(#_27)" d="M34.375,12.333c7.17-2.566,17.096-4.129,24.217,2.491l-5.806,2.763L34.375,12.333z"/>
<linearGradient id="_28" gradientUnits="userSpaceOnUse" x1="54.9" y1="8.77" x2="55.45" y2="63.07">
<stop stop-color="#FFFFFF" offset="0"/>
<stop stop-color="#A2C2DD" offset="0.35"/>
<stop stop-color="#6C83BB" offset="0.7"/>
<stop stop-color="#003D6D" offset="1"/>
</linearGradient>
<path fill="url(#_28)" d="M52.786,17.587l-1.285,36.097c2.719-1.252,4.443-3.567,4.443-3.567 c1.608-7.092,3.688-24.892,2.646-35.291L52.786,17.587z"/>
<linearGradient id="_29" gradientUnits="userSpaceOnUse" x1="49.43" y1="12.27" x2="57.33" y2="15.71">
<stop stop-color="#FFFFFF" offset="0"/>
<stop stop-color="#A2C2DD" offset="0.35"/>
<stop stop-color="#6C83BB" offset="0.7"/>
<stop stop-color="#003D6D" offset="1"/>
</linearGradient>
<path fill="url(#_29)" d="M55.394,13.626c0.294,1.828-4.677,2.107-4.636,0.102C50.787,12.346,55.176,12.266,55.394,13.626z"/>
<linearGradient id="_30" gradientUnits="userSpaceOnUse" x1="51.05" y1="9.45" x2="57.03" y2="9.85">
<stop stop-color="#E6EEF4" offset="0"/>
<stop stop-color="#337CE5" offset="0.44"/>
<stop stop-color="#003D6D" offset="0.94"/>
</linearGradient>
<path fill="url(#_30)" d="M51.293,4.579c0,0,0.301,9.286,0.3,9.31c0.72,0.792,2.423,0.732,2.93,0.018l1.288-8.876 L51.293,4.579z"/>
<linearGradient id="_31" gradientUnits="userSpaceOnUse" x1="53.82" y1="10.73" x2="38.94" y2="41.19">
<stop stop-color="#FFFFFF" offset="0.05"/>
<stop stop-color="#A2C2DD" offset="1"/>
</linearGradient>
<path fill="url(#_31)" d="M34.375,12.333c3.987-1.302,12.432-0.219,18.412,5.253c0.701,9.812,0.135,26.854-1.286,36.098 c-4.822,0.121-11.631-3.119-15.226-6.24C35.093,39.194,33.629,22.199,34.375,12.333z"/>
<linearGradient id="_32" gradientUnits="userSpaceOnUse" x1="56.85" y1="34.36" x2="33.64" y2="21.53">
<stop stop-color="#FFFFFF" offset="0.05"/>
<stop stop-color="#A2C2DD" offset="1"/>
</linearGradient>
<polygon fill="url(#_32)" points="36.362,14.714 36.979,35.517 50.3,40.426 50.742,18.843 "/>
<linearGradient id="_33" gradientUnits="userSpaceOnUse" x1="38.14" y1="51" x2="36.91" y2="2.67">
<stop stop-color="#FFFFFF" offset="0"/>
<stop stop-color="#A2C2DD" offset="0.35"/>
<stop stop-color="#6C83BB" offset="0.7"/>
<stop stop-color="#003D6D" offset="1"/>
</linearGradient>
<polygon fill="url(#_33)" points="38.465,34.617 38.08,15.202 36.362,14.714 36.979,35.517 "/>
<linearGradient id="_34" gradientUnits="userSpaceOnUse" x1="51.31" y1="44.34" x2="32.57" y2="26.65">
<stop stop-color="#FFFFFF" offset="0.15"/>
<stop stop-color="#A2C2DD" offset="1"/>
</linearGradient>
<polygon fill="url(#_34)" points="36.979,35.517 38.465,34.617 50.351,38.73 50.3,40.426 "/>
<linearGradient id="_35" gradientUnits="userSpaceOnUse" x1="51.89" y1="5.31" x2="55.52" y2="4.14">
<stop stop-color="#D6E4F3" offset="0"/>
<stop stop-color="#337CE5" offset="1"/>
</linearGradient>
<path fill="url(#_35)" d="M55.811,5.029c-0.425,1.204-4.948,0.667-4.477-0.533C51.813,3.307,56.218,3.816,55.811,5.029z"/>
<linearGradient id="_36" gradientUnits="userSpaceOnUse" x1="39.89" y1="32.25" x2="50.13" y2="49.28">
<stop stop-color="#E6EEF4" offset="0"/>
<stop stop-color="#337CE5" offset="0.44"/>
<stop stop-color="#003D6D" offset="0.94"/>
</linearGradient>
<polygon fill="url(#_36)" points="46,45.881 49.424,47.322 49.559,44.858 46.074,43.418 "/>
<polygon fill="url(#_36)" points="49.593,44.216 49.728,41.758 46.164,40.429 46.093,42.781 "/>
<polygon fill="url(#_36)" points="45.981,46.519 45.918,48.746 49.271,50.236 49.391,47.966 "/>
<polygon fill="url(#_36)" points="41.272,41.479 38.264,40.287 38.42,42.772 41.365,43.961 "/>
<polygon fill="url(#_36)" points="45.424,42.55 45.451,40.21 41.991,38.945 42.035,41.193 "/>
<polygon fill="url(#_36)" points="41.165,38.601 38.082,37.493 38.222,39.646 41.247,40.838 "/>
<polygon fill="url(#_36)" points="42.149,47.142 45.358,48.54 45.381,46.306 42.109,44.945 "/>
<polygon fill="url(#_36)" points="41.385,44.609 38.463,43.416 38.601,45.584 41.467,46.809 "/>
<polygon fill="url(#_36)" points="42.047,41.832 42.097,44.303 45.393,45.667 45.416,43.193 "/>
<polygon fill="url(#_36)" points="42.16,47.793 42.201,50.048 45.326,51.505 45.352,49.189 "/>
<path fill="#FFFFFF" d="M12.958,34.503c-2.773,0-6.576,0.657-7.539,6.353l-0.145,0.858c0,0,6.393,0,7.149,0 c0.23,0.41,0.57,1.027,0.788,1.42c-0.218,0.394-0.558,1.009-0.788,1.42c-0.758,0-7.149,0-7.149,0l0.145,0.859 c0.963,5.692,4.766,6.35,7.539,6.35c2.189,0,4.139-1.833,5.706-3.309c0.846-0.799,1.646-1.552,2.068-1.552h19.579l0.218-0.239 c0.423-0.461,1.396-1.726,1.421-3.498v-0.063c-0.021-1.772-0.998-3.036-1.421-3.5l-0.218-0.239H20.732 c-0.422,0-1.224-0.75-2.066-1.546C17.097,36.337,15.147,34.503,12.958,34.503z"/>
<linearGradient id="_46" gradientUnits="userSpaceOnUse" x1="11.62" y1="29.87" x2="32.73" y2="55.27">
<stop stop-color="#E6EDF3" offset="0"/>
<stop stop-color="#CABAD7" offset="0.12"/>
<stop stop-color="#AB7EB8" offset="0.27"/>
<stop stop-color="#9759A4" offset="0.38"/>
<stop stop-color="#8F4B9C" offset="0.44"/>
<stop stop-color="#73357C" offset="0.57"/>
<stop stop-color="#551D5A" offset="0.72"/>
<stop stop-color="#430E45" offset="0.85"/>
<stop stop-color="#3C093D" offset="0.94"/>
</linearGradient>
<path fill="url(#_46)" d="M41.217,43.133c0-0.008,0.002-0.016,0.002-0.022h-0.003c-0.021-1.543-0.904-2.654-1.23-3.013 c-0.412,0-19.253,0-19.253,0c-0.717,0-1.495-0.731-2.574-1.748c-1.472-1.386-3.301-3.108-5.2-3.108 c-3.078,0-5.994,0.902-6.811,5.735c1.155,0,6.713,0,6.713,0l1.193,2.156l-1.193,2.156c0,0-5.558,0-6.713,0 c0.813,4.834,3.729,5.738,6.811,5.738c1.897,0,3.729-1.726,5.2-3.111c1.079-1.016,1.857-1.75,2.574-1.75c0,0,18.841,0,19.253,0 c0.326-0.354,1.211-1.469,1.23-3.013h0.003C41.219,43.148,41.217,43.141,41.217,43.133z"/>
</svg>