<?xml version="1.0" encoding="UTF-8"?>
<!DOCTYPE svg PUBLIC "-//W3C//DTD SVG 1.1 Tiny//EN" "http://www.w3.org/Graphics/SVG/1.1/DTD/svg11-tiny.dtd">
<svg width="44" height="44" viewBox="0 0 44 44">
<path d="M35.748,29.885c0,3.238-2.621,5.863-5.859,5.863H14.111c-3.238,0-5.861-2.625-5.861-5.863 V14.116c0-3.24,2.623-5.865,5.861-5.865h15.777c3.238,0,5.859,2.625,5.859,5.865V29.885z" fill="#CC5D15"/>
<path d="M35.26,29.604c0,3.123-2.533,5.656-5.652,5.656H14.393 c-3.121,0-5.652-2.533-5.652-5.656V14.396c0-3.123,2.531-5.654,5.652-5.654h15.215c3.119,0,5.652,2.531,5.652,5.654V29.604z" fill="#F49C52"/>
<linearGradient id="gradient_2" gradientUnits="userSpaceOnUse" x1="33.17" y1="33.17" x2="10.83" y2="10.83">
<stop stop-color="#D95B29" offset="0"/>
<stop stop-color="#DE642B" offset="0.11"/>
<stop stop-color="#EA7C31" offset="0.3"/>
<stop stop-color="#FB9E3A" offset="0.5"/>
<stop stop-color="#F69537" offset="0.65"/>
<stop stop-color="#EA7D31" offset="0.89"/>
<stop stop-color="#E3702D" offset="1"/>
</linearGradient>
<path d="M34.766,29.322c0,3.006-2.436,5.447-5.441,5.447H14.676 c-3.008,0-5.445-2.441-5.445-5.447V14.677c0-3.006,2.438-5.447,5.445-5.447h14.648c3.006,0,5.441,2.441,5.441,5.447V29.322z" fill="url(#gradient_2)"/>
<path d="M18.031,28.365c0,1.355-1.1,2.455-2.455,2.455c-1.357,0-2.453-1.1-2.453-2.455 c0-1.359,1.096-2.457,2.453-2.457C16.932,25.908,18.031,27.006,18.031,28.365z" fill="#FFFFFF"/>
<path d="M13.127,22.175c2.297,0,4.461,0.898,6.086,2.53c1.627,1.637,2.525,3.814,2.525,6.133h3.543 c0-6.731-5.453-12.208-12.154-12.208V22.175z" fill="#FFFFFF"/>
<path d="M13.129,15.89c8.197,0,14.869,6.709,14.869,14.954h3.543c0-10.202-8.26-18.497-18.412-18.497V15.89z" fill="#FFFFFF"/>
</svg>