<?xml version="1.0" encoding="UTF-8"?>
<!DOCTYPE svg PUBLIC "-//W3C//DTD SVG 1.1 Tiny//EN" "http://www.w3.org/Graphics/SVG/1.1/DTD/svg11-tiny.dtd">
<svg width="100%" height="100%" viewBox="-0.462 -0.159 88 88">
<linearGradient id="_31" gradientUnits="userSpaceOnUse" x1="54.63" y1="54.07" x2="65.28" y2="66.47">
<stop stop-color="#A2C2DD" offset="0.1"/>
<stop stop-color="#6C83BB" offset="0.71"/>
<stop stop-color="#003D6D" offset="0.99"/>
</linearGradient>
<path fill="url(#_31)" d="M34.938,14.059c0,0-3.034,10.308-3.352,11.384c-1.064-0.184-8.451-1.451-8.451-1.451l-7.789,2.845 l3.385,14.623c-0.568,0.054-1.139,0.096-1.702,0.219c0.002-0.004,0.149-0.219,0.159-0.442c-3.991-4.188-10.7-0.117-8.577,5.275 c0.366,0.355,0.157,0.232,0.381,0.344c-4.789,7.883,2.476,18.049,10.806,16.815l-1.722,6.157l22.274,10.804l0.248-1.899 l1.629,0.782l8.578-6.129l-1.574-8.074L64.5,69.993l14.832-45.452l-19.75-2.979l0.235-6.089L39.89,12.551L34.938,14.059z"/>
<linearGradient id="_32" gradientUnits="userSpaceOnUse" x1="23.15" y1="41.71" x2="74.32" y2="41.71">
<stop stop-color="#FFFFFF" offset="0.15"/>
<stop stop-color="#A2C2DD" offset="1"/>
</linearGradient>
<polygon fill="url(#_32)" points="23.147,56.579 35.505,14.618 55.604,17.843 55.46,24.069 74.317,27.231 64.044,68.802 "/>
<linearGradient id="_33" gradientUnits="userSpaceOnUse" x1="51.42" y1="55.68" x2="14.06" y2="24.04">
<stop stop-color="#E2E6E4" offset="0"/>
<stop stop-color="#A3740A" offset="1"/>
</linearGradient>
<polygon fill="url(#_33)" points="64.046,68.407 22.946,56.56 16.169,27.28 57.083,35.479 "/>
<linearGradient id="_34" gradientUnits="userSpaceOnUse" x1="39.6" y1="30.59" x2="44.6" y2="19.26">
<stop stop-color="#E2E6E4" offset="0"/>
<stop stop-color="#A3740A" offset="1"/>
</linearGradient>
<polygon fill="url(#_34)" points="64.005,31.714 23.202,24.714 16.169,27.28 57.19,35.638 "/>
<linearGradient id="_35" gradientUnits="userSpaceOnUse" x1="46.26" y1="18.21" x2="48.63" y2="11.79">
<stop stop-color="#FFFFFF" offset="0.05"/>
<stop stop-color="#A2C2DD" offset="1"/>
</linearGradient>
<polygon fill="url(#_35)" points="59.095,16.073 39.942,13.267 35.542,14.638 55.604,17.843 "/>
<linearGradient id="_36" gradientUnits="userSpaceOnUse" x1="65.86" y1="27.51" x2="68.28" y2="20.94">
<stop stop-color="#FFFFFF" offset="0.05"/>
<stop stop-color="#A2C2DD" offset="1"/>
</linearGradient>
<polygon fill="url(#_36)" points="78.409,25.108 58.858,22.159 55.46,24.069 74.317,27.231 "/>
<linearGradient id="_37" gradientUnits="userSpaceOnUse" x1="74.1" y1="46.92" x2="57.6" y2="52.65">
<stop stop-color="#E6EEF4" offset="0"/>
<stop stop-color="#A3740A" offset="0.44"/>
<stop stop-color="#474105" offset="0.94"/>
</linearGradient>
<polygon fill="url(#_37)" points="64.005,31.714 64.048,69.12 57.085,35.694 "/>
<linearGradient id="_38" gradientUnits="userSpaceOnUse" x1="54" y1="30.54" x2="76.05" y2="51.58">
<stop stop-color="#A2C2DD" offset="0.1"/>
<stop stop-color="#6C83BB" offset="0.71"/>
<stop stop-color="#003D6D" offset="0.99"/>
</linearGradient>
<polygon fill="url(#_38)" points="78.409,25.108 64.062,68.866 74.317,27.231 "/>
<linearGradient id="_39" gradientUnits="userSpaceOnUse" x1="32.59" y1="7.04" x2="81.05" y2="32.62">
<stop stop-color="#FFFFFF" offset="0"/>
<stop stop-color="#A2C2DD" offset="0.35"/>
<stop stop-color="#6C83BB" offset="0.7"/>
<stop stop-color="#003D6D" offset="1"/>
</linearGradient>
<polygon fill="url(#_39)" points="55.604,17.843 55.46,24.069 58.858,22.159 59.095,16.073 "/>
<linearGradient id="_40" gradientUnits="userSpaceOnUse" x1="33.67" y1="63.92" x2="67.67" y2="28.59">
<stop stop-color="#E2E6E4" offset="0"/>
<stop stop-color="#A3740A" offset="1"/>
</linearGradient>
<polygon fill="url(#_40)" points="23.147,56.579 30.886,30.29 57.142,35.687 64.062,68.866 "/>
<linearGradient id="_41" gradientUnits="userSpaceOnUse" x1="9.5" y1="46.2" x2="9.51" y2="46.2">
<stop stop-color="#A2C2DD" offset="0.1"/>
<stop stop-color="#6C83BB" offset="0.71"/>
<stop stop-color="#003D6D" offset="0.99"/>
</linearGradient>
<path fill="url(#_41)" d="M9.505,46.2c0,0.002,0,0.002,0,0.005C9.505,46.202,9.505,46.202,9.505,46.2z"/>
<linearGradient id="_42" gradientUnits="userSpaceOnUse" x1="21.31" y1="41.84" x2="21.31" y2="41.84">
<stop stop-color="#A2C2DD" offset="0.1"/>
<stop stop-color="#6C83BB" offset="0.71"/>
<stop stop-color="#003D6D" offset="0.99"/>
</linearGradient>
<path fill="url(#_42)" d="M21.317,41.835c-0.01-0.002-0.02,0-0.027-0.002C21.3,41.833,21.308,41.833,21.317,41.835z"/>
<radialGradient id="_43" gradientUnits="userSpaceOnUse" cx="10.62" cy="41.64" r="3.52">
<stop stop-color="#E3DFE4" offset="0"/>
<stop stop-color="#C03A3A" offset="1"/>
</radialGradient>
<path fill="url(#_43)" d="M16.37,41.442c-2.335-2.078-4.311-1.237-5.488-0.461 c-1.088,0.715-2.777,2.328-1.619,5.272L16.37,41.442z"/>
<linearGradient id="_44" gradientUnits="userSpaceOnUse" x1="14.14" y1="45.47" x2="12.04" y2="42.91">
<stop stop-color="#E6EEF4" offset="0"/>
<stop stop-color="#C03A3A" offset="0.44"/>
<stop stop-color="#302D02" offset="0.94"/>
</linearGradient>
<path fill="url(#_44)" d="M16.354,41.454c-0.221-0.182-1.989,0.744-3.953,2.074 c-1.963,1.328-3.358,2.541-3.139,2.725c0.221,0.186,1.969-0.73,3.934-2.059C15.159,42.864,16.574,41.64,16.354,41.454z"/>
<path fill="#E3DFE4" d="M11.026,41.103c-0.254,0.172-0.484,0.293-0.514,0.271c-0.029-0.023,0.154-0.185,0.412-0.357 c0.254-0.172,0.481-0.291,0.512-0.268C11.465,40.771,11.282,40.931,11.026,41.103z"/>
<linearGradient id="_45" gradientUnits="userSpaceOnUse" x1="21.77" y1="41.44" x2="21.45" y2="62.7">
<stop stop-color="#FFFFFF" offset="0"/>
<stop stop-color="#496DA2" offset="0.71"/>
<stop stop-color="#235487" offset="0.99"/>
</linearGradient>
<path fill="url(#_45)" d="M29.976,49.136c-1.789-6.771-10.095-9.254-17.256-5.036l7.414,18.884 C29.634,60.711,31.519,54.968,29.976,49.136z"/>
<linearGradient id="_46" gradientUnits="userSpaceOnUse" x1="9.66" y1="36.84" x2="18.85" y2="55.59">
<stop stop-color="#FFFFFF" offset="0.15"/>
<stop stop-color="#A2C2DD" offset="1"/>
</linearGradient>
<path fill="url(#_46)" d="M26.681,51.442c1.025,5.556-1.58,10.611-6.545,11.541 c-4.966,0.933-10.272-2.59-11.623-8.072c-1.351-5.485,1.58-10.688,6.545-11.615 C20.022,42.364,25.614,45.674,26.681,51.442z"/>
<linearGradient id="_47" gradientUnits="userSpaceOnUse" x1="19.47" y1="41.53" x2="14.98" y2="61.28">
<stop stop-color="#FFFFFF" offset="0"/>
<stop stop-color="#A2C2DD" offset="0.53"/>
<stop stop-color="#6C83BB" offset="0.87"/>
<stop stop-color="#003D6D" offset="1"/>
</linearGradient>
<path fill="url(#_47)" d="M17.718,45.183c-5.037-0.738-8.916,3.953-7.438,9.396 c1.547,5.693,8.089,8.645,12.287,5.332C22.608,59.901,17.718,45.183,17.718,45.183z"/>
<linearGradient id="_48" gradientUnits="userSpaceOnUse" x1="24.85" y1="42.44" x2="14.62" y2="58.83">
<stop stop-color="#FFFFFF" offset="0.1"/>
<stop stop-color="#D1E1EE" offset="0.7"/>
<stop stop-color="#A2C2DD" offset="1"/>
</linearGradient>
<path fill="url(#_48)" d="M17.248,45.241c-11.28,1.566-5.085,19.218,5.319,14.67 C27.705,55.864,24.662,44.97,17.248,45.241z"/>
<linearGradient id="_49" gradientUnits="userSpaceOnUse" x1="21.78" y1="45.04" x2="30.21" y2="45.04">
<stop stop-color="#FFFFFF" offset="0"/>
<stop stop-color="#496DA2" offset="0.71"/>
<stop stop-color="#235487" offset="0.99"/>
</linearGradient>
<path fill-opacity="0.5" fill="url(#_49)" d="M28.388,42.778 c-2.025-2.119-4.17-2.604-6.396-1.307c-0.631,0.398,0.112,2.482,2.909,5.188c1.71,1.654,4.303,3.33,4.754,2.396 C30.929,46.403,29.81,44.261,28.388,42.778z"/>
<radialGradient id="_50" gradientUnits="userSpaceOnUse" cx="26.06" cy="41.36" r="5.06">
<stop stop-color="#E3DFE4" offset="0"/>
<stop stop-color="#C03A3A" offset="1"/>
</radialGradient>
<path fill="url(#_50)" d="M28.237,41.933c-2.37-1.969-4.668-2.217-6.836-0.596c-0.61,0.49,0.416,2.576,3.66,5.066 c1.983,1.523,4.892,2.959,5.248,1.931C31.324,45.414,29.896,43.31,28.237,41.933z"/>
<path fill="#E3DFE4" d="M28.45,43.067c0.586,0.162,0.333-0.451-0.479-1.104c-0.371-0.299-1.203-0.803-1.291-0.506 L28.45,43.067z"/>
<path fill="#681602" d="M28.45,43.067c0.1-0.344-1.042-1.41-1.77-1.608C26.577,41.8,27.754,42.874,28.45,43.067z"/>
<path fill-opacity="0.4" fill="#5C7BB3" d="M23.222,48.983l-0.276-0.293l-5.056,3.916 c-0.162-0.045-0.328-0.053-0.494-0.014c-0.06,0.012-0.112,0.035-0.168,0.059l-3.021-1.787l-0.316,0.382l2.799,3.022 c0.232,0.588,0.802,0.953,1.351,0.826c0.42-0.098,0.711-0.457,0.79-0.898L23.222,48.983z"/>
<polygon fill="#CA6769" points="16.646,54.364 13.325,50.774 13.642,50.394 17.733,52.815 "/>
<polygon fill="#CA6769" points="17.743,54.347 22.659,48.515 22.382,48.22 16.392,52.862 "/>
<polygon fill="#FCDBDD" points="13.642,50.394 13.911,50.308 17.319,52.263 17.086,52.416 "/>
<polygon fill="#681602" points="22.659,48.515 17.743,54.347 18.376,54.093 22.608,48.931 "/>
<linearGradient id="_51" gradientUnits="userSpaceOnUse" x1="16.45" y1="51.53" x2="17.91" y2="54.24">
<stop stop-color="#E6EEF4" offset="0"/>
<stop stop-color="#C03A3A" offset="0.44"/>
<stop stop-color="#302D02" offset="0.94"/>
</linearGradient>
<path fill="url(#_51)" d="M18.595,53.019c0.194,0.74-0.211,1.467-0.908,1.623c-0.695,0.158-1.42-0.314-1.615-1.053 c-0.196-0.74,0.21-1.467,0.906-1.623C17.675,51.808,18.397,52.28,18.595,53.019z"/>
<radialGradient id="_52" gradientUnits="userSpaceOnUse" cx="16.59" cy="52.57" r="1.83">
<stop stop-color="#E3DFE4" offset="0"/>
<stop stop-color="#C03A3A" offset="1"/>
</radialGradient>
<path fill="url(#_52)" d="M18.244,53.125c0.177,0.688-0.167,1.362-0.771,1.502 c-0.601,0.137-1.232-0.312-1.41-0.998c-0.176-0.693,0.166-1.367,0.769-1.506C17.435,51.981,18.065,52.429,18.244,53.125z "/>
<polygon fill="#FFFFFF" points="42.158,78.702 21.44,68.763 42.908,57.604 "/>
<linearGradient id="_53" gradientUnits="userSpaceOnUse" x1="34.14" y1="57.85" x2="36.07" y2="50.69">
<stop stop-color="#FFFFFF" offset="0.15"/>
<stop stop-color="#A2C2DD" offset="1"/>
</linearGradient>
<polygon fill="url(#_53)" points="46.649,55.713 28.21,50.446 24.038,51.034 42.81,57.668 "/>
<linearGradient id="_54" gradientUnits="userSpaceOnUse" x1="38.64" y1="65.91" x2="53.75" y2="69.32">
<stop stop-color="#FFFFFF" offset="0"/>
<stop stop-color="#A2C2DD" offset="0.35"/>
<stop stop-color="#6C83BB" offset="0.7"/>
<stop stop-color="#003D6D" offset="1"/>
</linearGradient>
<polygon fill="url(#_54)" points="42.158,78.702 50.033,73.077 46.649,55.713 42.81,57.668 "/>
<linearGradient id="_55" gradientUnits="userSpaceOnUse" x1="18.91" y1="65.34" x2="42.62" y2="65.34">
<stop stop-color="#CADCEC" offset="0"/>
<stop stop-color="#87A8CB" offset="1"/>
</linearGradient>
<polygon fill="url(#_55)" points="24.036,51.108 18.908,69.452 39.783,79.577 42.624,57.909 "/>
<linearGradient id="_56" gradientUnits="userSpaceOnUse" x1="20.44" y1="76.08" x2="36.15" y2="60.09">
<stop stop-color="#FFFFFF" offset="0.15"/>
<stop stop-color="#A2C2DD" offset="1"/>
</linearGradient>
<polygon fill="url(#_56)" points="24.037,51.03 21.44,68.763 40.065,77.582 42.81,57.668 "/>
<linearGradient id="_57" gradientUnits="userSpaceOnUse" x1="28.19" y1="70.2" x2="36.99" y2="57.4">
<stop stop-color="#E6EEF4" offset="0"/>
<stop stop-color="#2F8E9A" offset="0.44"/>
<stop stop-color="#003D6D" offset="0.94"/>
</linearGradient>
<polygon fill="url(#_57)" points="34.361,59.216 32.655,70.767 29.392,69.362 30.438,62.864 28.53,62.347 "/>
<path fill="#3F5AA6" d="M26.236,53.573c-0.519,0.697-0.032,2.199,0.977,2.246c1.224,0.068,1.835-1.789,1.013-2.496 c0.84-1.596,3.85-1.793,3.85-1.793C29.642,47.884,26.236,53.573,26.236,53.573z"/>
<linearGradient id="_58" gradientUnits="userSpaceOnUse" x1="27.72" y1="53.64" x2="31.01" y2="48.39">
<stop stop-color="#87A8CB" offset="0"/>
<stop stop-color="#CADCEC" offset="0.5"/>
<stop stop-color="#87A8CB" offset="1"/>
</linearGradient>
<path fill="url(#_58)" d="M32.056,51.487c-0.037-3.68-7.142-3.391-5.645,2.795c0.154,0.392,0.971,0.576,1.427,0.062 C28.123,51.175,30.465,49.411,32.056,51.487z"/>
<path fill="#3F5AA6" d="M31.972,55.524c-0.556,0.746-0.037,2.322,1.043,2.373c1.312,0.072,1.969-1.883,1.086-2.643 c0.613-1.648,4.127-1.92,4.127-1.92C35.619,49.429,31.972,55.524,31.972,55.524z"/>
<linearGradient id="_59" gradientUnits="userSpaceOnUse" x1="33.57" y1="55.59" x2="37.1" y2="49.97">
<stop stop-color="#87A8CB" offset="0"/>
<stop stop-color="#CADCEC" offset="0.5"/>
<stop stop-color="#87A8CB" offset="1"/>
</linearGradient>
<path fill="url(#_59)" d="M38.205,53.293c-0.039-3.943-7.651-3.636-6.047,2.991c0.167,0.418,1.04,0.615,1.528,0.068 C33.992,52.955,36.501,51.067,38.205,53.293z"/>
<path fill="#3F5AA6" d="M38.261,57.627c-0.582,0.784-0.039,2.412,1.094,2.465c1.377,0.078,2.072-1.951,1.144-2.746 c0.679-1.81,4.479-2.094,4.479-2.094C42.239,51.149,38.261,57.627,38.261,57.627z"/>
<linearGradient id="_60" gradientUnits="userSpaceOnUse" x1="39.99" y1="57.7" x2="43.76" y2="51.7">
<stop stop-color="#87A8CB" offset="0"/>
<stop stop-color="#CADCEC" offset="0.5"/>
<stop stop-color="#87A8CB" offset="1"/>
</linearGradient>
<path fill="url(#_60)" d="M44.953,55.205c-0.043-4.14-8.177-3.74-6.495,3.221c0.176,0.438,1.094,0.647,1.605,0.07 C40.386,54.929,43.163,52.871,44.953,55.205z"/>
</svg>