<?xml version="1.0" encoding="utf-8"?>
<!DOCTYPE svg PUBLIC "-//W3C//DTD SVG 1.1 Tiny//EN" "http://www.w3.org/Graphics/SVG/1.1/DTD/svg11-tiny.dtd">
<svg width="60" height="80" viewBox="0 0 60 80">
<linearGradient id="_346" gradientUnits="userSpaceOnUse" x1="20.69" y1="30.75" x2="38.19" y2="51.79">
<stop stop-color="#DEE9F3" offset="0"/>
<stop stop-color="#235487" offset="1"/>
</linearGradient>
<circle fill="url(#_346)" cx="29.527" cy="41.367" r="23.417"/>
<radialGradient id="_347" gradientUnits="userSpaceOnUse" cx="34.05" cy="26.71" r="42.04">
<stop stop-color="#FFFFFF" offset="0"/>
<stop stop-color="#A2C2DD" offset="0.53"/>
<stop stop-color="#6C83BB" offset="0.87"/>
<stop stop-color="#003D6D" offset="1"/>
</radialGradient>
<circle fill="url(#_347)" cx="29.566" cy="41.367" r="22.724"/>
<radialGradient id="_348" gradientUnits="userSpaceOnUse" cx="34.36" cy="29.04" r="28.6">
<stop stop-color="#E6EEF4" offset="0"/>
<stop stop-color="#C6DCC1" offset="0.08"/>
<stop stop-color="#91C06F" offset="0.21"/>
<stop stop-color="#6BAB33" offset="0.32"/>
<stop stop-color="#539E0E" offset="0.4"/>
<stop stop-color="#4A9900" offset="0.44"/>
<stop stop-color="#398419" offset="0.55"/>
<stop stop-color="#22663B" offset="0.71"/>
<stop stop-color="#135550" offset="0.85"/>
<stop stop-color="#0E4E58" offset="0.94"/>
</radialGradient>
<path fill="url(#_348)" d="M52.213,39.577c-0.023-0.313-0.056-0.625-0.093-0.934c-0.019-0.158-0.037-0.315-0.06-0.472c-0.045-0.312-0.098-0.62-0.152-0.927c-0.024-0.132-0.045-0.266-0.071-0.397c-0.082-0.407-0.177-0.811-0.28-1.21c-0.043-0.17-0.096-0.338-0.144-0.507c-0.069-0.242-0.142-0.483-0.218-0.722c-0.063-0.196-0.129-0.391-0.197-0.584c-0.072-0.206-0.148-0.41-0.229-0.613c-0.076-0.201-0.152-0.402-0.235-0.601c-0.081-0.193-0.169-0.382-0.255-0.573c-0.17-0.377-0.35-0.748-0.541-1.114c-0.075-0.148-0.15-0.297-0.23-0.444c-0.121-0.222-0.249-0.44-0.378-0.657c-0.079-0.134-0.159-0.268-0.241-0.4c-0.078-0.126-0.158-0.25-0.24-0.375l-0.058,0.032l-0.61-0.292l0.174-0.196l0.121-0.106c-0.129-0.187-0.26-0.373-0.396-0.555c-0.05-0.068-0.099-0.138-0.149-0.205c-0.18-0.238-0.363-0.472-0.553-0.703c-0.05-0.061-0.1-0.122-0.148-0.182c-0.199-0.239-0.402-0.475-0.61-0.705c-0.03-0.034-0.063-0.067-0.094-0.102c-0.455-0.497-0.933-0.973-1.429-1.428c-0.074,0.212-0.185,0.38-0.215,0.438c-0.187,0.351,0.42-0.052,0.729,0.69c0.209,0.499,1.047,0.031,0.608,0.773c-0.389,0.662,0.482,0.61,0.308,0.874c-0.179,0.263,0.086,0.699,0.086,0.699l1.397,0.744l0.279,2.036c-0.465,1.283-0.018,2.235-0.064,2.511c-0.043,0.263,0.531,1.902,0.531,2.909c0,1.102,1.365,4.188,2.418,4.136c0.424-0.02,0.863-0.261,1.258-0.563C52.229,39.762,52.221,39.67,52.213,39.577z M38.65,42.339l-1.135-0.961c0,0.006-0.133-0.83-0.68-1.332c-0.82-0.75-2.01-0.551-2.336-0.723c-0.918-0.479-1.881-2.229-4.402-1.582c-1.76-0.442-2.984-1.346-4.426,0.315c-0.125,0.145-2.081-0.158-2.141,0.014c-0.379-0.291-0.787-0.625-0.918-0.407c-0.306-0.831-0.306-1.005,0.131-1.836c0.438-0.829-2.175-0.728-2.175-0.728c0.174-0.349,0.864-1.282,0.908-1.851c0.047-0.61-1.748,0-1.792,0.744l-0.748,0.263c-1.962-0.176-1.175-1.837-0.737-3.147c0.433-1.3,2.972-1.355,2.972-1.355s1.478-0.151,2.359,0.351c0.244,0.138-0.104,0.996,0.874,1.486c0.524,0.261-0.246-1.706-0.005-2.025c0.24-0.32,1.981-1.428,1.981-1.428l1.559-1.924c0,0,0.969-0.817,1.694-0.902c0.616-0.072,1.267-0.394,1.267-0.802c0-0.406-0.836-1.018-0.523-0.99c1.451,0.134,0.746,0.373,2.447,0c0.359-0.078,0,0.962,0,0.962s1.674-0.013,1.398-0.263c-0.582-0.523-0.22-1.398-1.312-1.528c-0.511-0.062-1.896-1.268-1.896-1.268c-0.18,0-1.573,0.232-1.573-0.117c-0.874-0.699-2.272,0.292-2.272,0.292s0.699,0.699-0.116,1.048c-0.433,0.186-0.699,0.583-0.699,0.583s-0.642-0.335-0.642-0.641c0-0.306-2.156-0.699-2.156-0.699s1.895-1.456,2.244-1.195c0.35,0.263,1.136-0.13,1.136-0.13s0-0.351,0.524-0.656c0.524-0.305,0.746-0.22,0.816,0.06c0.116,0.466,1.238,1.032,1.631,0.989c0.394-0.043,0.8-0.48,0.933-0.523c0.131-0.045-0.845-0.627-1.283-0.759c-0.437-0.131-0.758-0.379-0.758-0.379s1.501,0.045,2.332,0c0.83-0.043,1.533,0.604,1.533,0.604c0.307,0,0.193,0.382,0.215,0.474c0.145,0.671,1.605,0.508,1.957,1.236c0.092,0.191,0.404,0.239,1.059,0.031c0.482-0.043-0.528-1.137,0.131-0.917c0.646,0.214,1.019-0.2,1.625-0.581c-0.073-0.028-0.146-0.06-0.223-0.088c-0.439-0.163-0.889-0.309-1.341-0.444c-0.226-0.068-0.452-0.133-0.682-0.194c-0.447-0.119-0.9-0.225-1.357-0.317c-0.245-0.049-0.495-0.091-0.743-0.132c-0.398-0.067-0.803-0.123-1.209-0.168c-0.313-0.035-0.627-0.061-0.941-0.083c-0.342-0.023-0.685-0.039-1.03-0.047c-0.188-0.004-0.374-0.014-0.562-0.014c-0.322,0-0.641,0.011-0.959,0.024c-0.092,0.004-0.185,0.005-0.276,0.01c-0.337,0.018-0.673,0.044-1.006,0.077c-0.099,0.009-0.197,0.022-0.295,0.033c-0.625,0.069-1.242,0.164-1.851,0.283c-0.081,0.016-0.162,0.029-0.242,0.046c-0.318,0.066-0.633,0.14-0.946,0.218c-0.111,0.028-0.221,0.059-0.332,0.089c-0.573,0.154-1.137,0.329-1.691,0.526c-0.086,0.031-0.173,0.059-0.259,0.09c-0.288,0.106-0.573,0.22-0.855,0.337c-0.128,0.053-0.254,0.109-0.381,0.165c-0.495,0.216-0.98,0.45-1.456,0.7c-0.108,0.057-0.219,0.111-0.327,0.17c-0.25,0.137-0.497,0.28-0.742,0.426c-0.144,0.086-0.286,0.175-0.428,0.264c-0.187,0.117-0.373,0.234-0.556,0.356c-1.401,1.51-2.437,3.156-3.426,4.663c-0.233,1.573-0.338,3.528-0.175,4.836c0.221,1.005,0.408,0.933,0.408,0.933l0.132-3.2l0.276-0.355c0,0,0.306,1.912,0.699,2.856c0.291,0.699,0.16,1.238,0.131,1.616c-0.029,0.379,2.271,1.443,2.271,1.443s0.919-0.394,1.269-0.03c0.013,0.014,0.128-0.034,0.131-0.015c0.107,0.855,1.859,0.948,1.859,0.948c0.104,0.306,1.21,1.456,1.578,2.009c0.232,0.351,1.85,0.248,2.375,0.103c0.437,0.494,0.895,0.888,0.742,1.573c-0.053,0.234-0.096,0.477-0.19,0.715c-0.558,1.396-1.836,1.42-1.649,2.762c0.223,1.593,1.709,4.126,2.583,4.869c2.971,1.574,2.229,2.229,2.01,4.457c-0.031,1.063-0.218,2.187-0.874,3.539c-0.175,0.963-0.263,1.857-0.175,2.711c-0.437,1.397,1.522,2.722,1.836,2.199c0.284-0.475,0.125-0.291,0.32-0.873c0.256-0.766,1.11-2.146,1.37-2.293c1.938-1.088,5.434-2.836,6.967-5.068c0.273-0.628,0.85-0.506,1.463-1.32c0.32,0,1.939-0.458,2.039-0.758c0.006-0.13,0.646-1.117,0.642-1.253c-0.046-1.354,0.52-1.72,0.52-1.72l0.351-0.262l1.277-1.632l0.428-1.298l-1.355-1.033L38.65,42.339z M27.489,34.313c0.233,0.028,1.049,0.058,1.049,0.058s1.02-0.058,0.175-0.437C27.868,33.557,27.285,34.288,27.489,34.313z M23.841,32.533c-0.333,0.371-0.135,0.498-0.135,0.498c0.259-0.136,1.391-0.056,1.792,0.523c0.4,0.58,1.267,0.157,1.197-0.037C26.627,33.323,24.173,32.162,23.841,32.533z"/>
</svg>