<?xml version="1.0" encoding="UTF-8"?>
<!DOCTYPE svg PUBLIC "-//W3C//DTD SVG 1.1 Tiny//EN" "http://www.w3.org/Graphics/SVG/1.1/DTD/svg11-tiny.dtd">
<svg width="36" height="36" viewBox="0 0 36 36">
<path d="M1.093,18.001c0,9.322,7.584,16.906,16.906,16.906 c9.322,0,16.907-7.583,16.907-16.906c0-9.323-7.584-16.908-16.907-16.908C9.621,1.093,1.093,7.843,1.093,18.001z" fill="#1FFFEA" fill-opacity="0.2" />
<path d="M1.714,18.001c0,8.98,7.306,16.285,16.285,16.285 c8.981,0,16.286-7.304,16.286-16.285c0-8.98-7.305-16.287-16.286-16.287C9.021,1.714,1.714,9.021,1.714,18.001z" fill="#1FFFEA" fill-opacity="0.3" />
<path d="M2.425,18c0,8.587,6.987,15.574,15.574,15.574 c8.589,0,15.575-6.987,15.575-15.574c0-8.588-6.986-15.574-15.575-15.574C9.412,2.426,2.425,9.412,2.425,18z" fill="#1FFFEA" fill-opacity="0.4" />
<radialGradient id="_4" gradientUnits="userSpaceOnUse" cx="18" cy="18" r="14.98">
<stop stop-color="#B3DDFF" offset="0"/>
<stop stop-color="#D3FFBF" offset="0.01"/>
<stop stop-color="#92F7DB" offset="0.41"/>
<stop stop-color="#56F0F5" offset="0.81"/>
<stop stop-color="#3FEDFF" offset="1"/>
</radialGradient>
<path d="M17.999,3.016C9.737,3.016,3.016,9.738,3.016,18 c0,8.261,6.721,14.983,14.983,14.983c8.263,0,14.985-6.722,14.985-14.983C32.984,9.738,26.262,3.016,17.999,3.016z" fill="url(#_4)"/>
<linearGradient id="_5" gradientUnits="userSpaceOnUse" x1="18" y1="3.29" x2="18" y2="32.68">
<stop stop-color="#CFECFF" offset="0"/>
<stop stop-color="#8CC2EA" offset="1"/>
</linearGradient>
<path d="M18,3.016C9.737,3.016,3.016,9.738,3.016,18 c0,8.261,6.721,14.983,14.983,14.983S32.984,26.262,32.984,18C32.984,9.738,26.262,3.016,18,3.016z M18,32.168 c-7.826,0-14.166-6.341-14.166-14.167c0-7.825,6.34-14.169,14.166-14.169c7.825,0,14.167,6.344,14.167,14.169 C32.167,25.827,25.824,32.168,18,32.168z" fill="url(#_5)" fill-opacity="0.5" />
<linearGradient id="_6" gradientUnits="userSpaceOnUse" x1="18" y1="1.12" x2="18" y2="39.57">
<stop stop-color="#FFFFFF" offset="0"/>
<stop stop-color="#B3DDFF" offset="1"/>
</linearGradient>
<circle cx="18" cy="18" fill="url(#_6)" fill-opacity="0.5" r="14.169" />
<g fill-opacity="0.6" stroke-opacity="0.6">
<path d="M17.045,14.141l0.019,5.117c-1.863-0.412-3.827,2.473-1.661,2.874 c1.393,0.193,2.627-1.104,2.627-1.913c0-0.217-0.006-3.739-0.006-3.739l2.076,1.105l-0.004-1.711L17.045,14.141z" fill="#0046B7"/>
<path d="M10.221,10.66l-1.764,2.009L8.48,24.474h18.481V12.156l-8.759,0.017l-1.357-1.53 L10.221,10.66z M16.154,12.197l1.354,1.52h7.882l0.023,9.225H9.992v-9.688l0.928-1.057H16.154z" fill="#0046B7"/>
</g>
<path d="M16.917,7.642C16.917,7.642,16.917,7.642,16.917,7.642l-5.976,0.015 C9.522,7.662,8.444,8.545,7.307,9.759c-0.662,0.746-1.854,1.751-1.85,3.535l0.021,10.313 c0.004,2.132,1.754,3.866,3.902,3.866H26.06c2.105,0,3.902-1.809,3.902-3.874V12.838c0-1.963-1.685-3.874-3.904-3.874 c-0.001,0-4.739,0.008-6.18,0.011C19.495,8.57,18.545,7.636,16.917,7.642z" fill="#1FFFEA" fill-opacity="0.1" />
<path d="M16.92,8.642L16.92,8.642l-5.977,0.015 c-1.917,0.007-4.49,3.113-4.487,4.635l0.021,10.313c0.003,1.582,1.305,2.868,2.902,2.868H26.06 c1.737,0,2.902-1.331,2.902-2.874V12.838c0-1.506-1.317-2.874-2.904-2.874l-6.619,0.012 C18.971,9.468,18.225,8.637,16.92,8.642z" fill="#1FFFEA" fill-opacity="0.2" />
<path d="M16.924,9.642h0.001l-5.979,0.015 c-0.541,0.002-1.056,0.23-1.414,0.625L7.94,12.038c-0.313,0.344-0.484,0.789-0.483,1.252l0.021,10.313 c0.002,1.031,0.855,1.87,1.902,1.87H26.06c1.237,0,1.902-1.114,1.902-1.874V12.838c0-1.129-1.03-1.874-1.904-1.874 c-0.001,0-7.059,0.013-7.059,0.013C18.437,10.363,18.093,9.638,16.924,9.642z" fill="#1FFFEA" fill-opacity="0.3" />
</svg>