<?xml version="1.0" encoding="UTF-8" standalone="no"?>
<!DOCTYPE svg PUBLIC "-//W3C//DTD SVG 1.1 Tiny//EN" "http://www.w3.org/Graphics/SVG/1.1/DTD/svg11-tiny.dtd">
<svg xmlns="http://www.w3.org/2000/svg" xmlns:xlink="http://www.w3.org/1999/xlink" baseProfile="tiny" height="44px" version="1.1" viewBox="0 0 44 44" width="44px" x="0px" y="0px">
<g>
<path d="M22,5.229c-9.8,0-17.772,7.97-17.772,17.769C4.228,32.8,12.2,40.771,22,40.771S39.772,32.8,39.772,22.997   C39.772,13.199,31.8,5.229,22,5.229z" fill-opacity="0.2" stroke-opacity="0.2"/>
<path d="M38.773,22.997c0,9.266-7.508,16.776-16.773,16.776S5.227,32.263,5.227,22.997   C5.227,13.736,38.773,13.736,38.773,22.997z" fill-opacity="0.5" stroke-opacity="0.5"/>
<linearGradient gradientUnits="userSpaceOnUse" id="SVGID_1_" x1="21.9995" x2="21.9995" y1="18.6401" y2="58.2019">
<stop offset="0" style="stop-color:#3687FF"/>
<stop offset="1" style="stop-color:#051F7D"/>
</linearGradient>
<path d="M38.773,21.997c0,9.266-7.508,16.776-16.773,16.776S5.227,31.263,5.227,21.997   c0-9.261,7.508-16.771,16.773-16.771S38.773,12.736,38.773,21.997z" fill="url(#SVGID_1_)"/>
<path d="M21.451,10.063C21.419,10.031,5.227,8.902,5.227,21.997c0,0.645,0.045,1.277,0.115,1.902   c1.678,1.68,3.756,3.758,4.635,4.633c-0.146,0.271-0.74,1.499,0.418,2.658c0.776,0.776,1.643,1.645,2.029,2.031v2.537   c2.045,1.428,4.424,2.398,6.998,2.796v-0.56c1.242-0.352,2.191-1.497,2.234-2.828v-5.592c-0.094-1.49-1.367-2.84-2.938-2.939   c0,0-5.594,3.271-8.043-1.625c0.109-0.278,0.577-1.639-0.408-2.625c-0.59-0.59-1.105-1.125-1.105-1.126   c-0.662-0.79,0.119-2.024,1.232-1.255l0.912,0.913v1.947c0,1.496,2.52,1.434,2.52,0V20.84c0,0,1.42-2.128,1.914-2.869   c2.338,0.264,4.494-1.892,3.369-4.16C21.813,14.47,22.866,11.479,21.451,10.063z" fill-opacity="0.2" stroke-opacity="0.2"/>
<path d="M30.922,19.925c0.343-0.126,0.803-0.846,0.803-1.538v-2.232c0,0.006,0.035-0.405,0.418-0.422h2.791   c0.021,0.056,0.348,1.122,1.684,1.122h1.344c-1.777-5.521-6.34-9.778-12.031-11.146l-2.322,2.324v3.943   c0,0,1.303,1.341,1.428,1.341c-1.078,1.079-0.172,2.116-0.137,2.175l0.949,0.953v1.942c0,1.286,1.105,1.823,1.818,1.823h1.068   c-1.008,0.475-1.73,1.494-1.771,2.654v3.356c0.084,1.558,1.412,2.857,2.938,2.937h0.422v1.535c0,1.262,1.064,1.66,1.117,1.682   v3.488c0.437-0.297,0.857-0.614,1.263-0.951L30.922,19.925z" fill-opacity="0.2" stroke-opacity="0.2"/>
<linearGradient gradientUnits="userSpaceOnUse" id="SVGID_2_" x1="31.543" x2="31.543" y1="22.3389" y2="51.5233">
<stop offset="0" style="stop-color:#79CD19"/>
<stop offset="1" style="stop-color:#1B6332"/>
</linearGradient>
<path d="M29.902,18.571c1.121,0,1.121-1.119,1.121-1.119v-2.233c0,0,0.01-1.123,1.121-1.123h3.354   c0,0,0,1.119,1.119,1.119h0.715C35.25,10.513,31.07,6.96,25.977,5.719l-1.664,1.667v3.361l0.902,0.901   c0.287,0.289,0.832,0.289,1.119,0c0.285-0.285,0.285-0.83,0-1.118l-0.33-0.329c-0.588-0.588,0-1.135,0-1.135s0.545-0.563,1.105,0   c0.557,0.562,1.115,1.126,1.115,1.126s-2.277,2.275-2.791,2.79c-0.52,0.518,0,1.12,0,1.12l1.115,1.118c0,0,0,1.116,0,2.233   c0,1.119,1.117,1.119,1.117,1.119S28.785,18.571,29.902,18.571z M38.133,17.453h-2.635l-2.236,2.238c0,0-2.238,0-3.359,0   c-1.117,0-2.236,1.117-2.236,2.237v3.357c0,1.064,1.195,2.233,2.236,2.233c0,0.014,1.121,0,1.121,0s0,1.119,0,2.236   c0,1.121,1.119,1.121,1.119,1.121v4.461c4.023-3.064,6.631-7.893,6.631-13.34C38.773,20.419,38.541,18.898,38.133,17.453z" fill="url(#SVGID_2_)"/>
<linearGradient gradientUnits="userSpaceOnUse" id="SVGID_3_" x1="13.3013" x2="13.3013" y1="24.1719" y2="56.2267">
<stop offset="0" style="stop-color:#79CD19"/>
<stop offset="1" style="stop-color:#1B6332"/>
</linearGradient>
<path d="M17.252,5.917C10.346,7.955,5.295,14.31,5.234,21.861c2.215,2.216,5.658,5.657,5.658,5.657   s-1.121,1.119,0,2.236c1.037,1.043,2.232,2.24,2.232,2.24v4.22c1.689,1.059,3.572,1.834,5.594,2.233v-1.98   c1.119,0,2.238-1.119,2.238-2.238v-5.592c0-0.99-1.182-2.236-2.238-2.236h-2.236c0,0-0.438-0.435-1.119-1.116   c-0.68-0.685-1.588-0.65-2.238,0l-1.115,1.116l-2.238-2.238c0.553-0.553,0.596-1.619,0-2.215c-0.6-0.597-1.119-1.14-1.119-1.14   c-1.434-1.697,0.785-3.546,2.24-2.236l1.117,1.12v2.237c0,0.556,1.115,0.556,1.115,0v-2.237l2.238-3.356c0,0,0,0,1.119,0   c2.768-0.365,3.167-4.065,0-4.474c-1.045,0-0.559,0-1.119,0c-0.559,0-0.559-1.12,0-1.12c0.561,0,2.236,0,2.236,0   s-0.003-0.003,1.119,1.12c1.147,1.148,3.625-0.11,2.238-2.237C20.921,9.568,18.785,7.453,17.252,5.917z" fill="url(#SVGID_3_)"/>
<path d="M22,5.227c-9.266,0-16.773,7.509-16.773,16.771c0,2.744,0.67,5.324,1.838,7.609   l30.379-14.165C34.889,9.438,28.938,5.227,22,5.227z" fill="#FFFFFF" fill-opacity="0.15" stroke-opacity="0.15"/>
<rect fill="none" height="44" width="44"/>
</g>
</svg>
