<?xml version="1.0" encoding="UTF-8"?>
<!DOCTYPE svg PUBLIC "-//W3C//DTD SVG 1.1 Tiny//EN" "http://www.w3.org/Graphics/SVG/1.1/DTD/svg11-tiny.dtd">
<svg width="332" height="82" viewBox="-0.605 -0.193 332 82">
<path fill-opacity="0.01" fill="#656B6B" d="M21.395-0.193c0,0,0,8.584,0,10.115c-11.106,0.59-20,9.762-20,20.994v29.775 c0,10.791,8.082,19.809,18.801,20.977h-0.004c0,0,0.029,0.006,0.051,0.01c0.012,0,2.107,0.125,2.107,0.125l281.939,0.004 c12.74,0,23.105-10.369,23.105-23.115V30.916c0-5.645-2.197-10.947-6.189-14.936c-3.988-3.982-9.287-6.172-14.922-6.164H42.426 L32.395-0.193H21.395z M20.354,81.697l0.055,0.01c0,0-0.035-0.006-0.069-0.012C20.341,81.695,20.354,81.697,20.354,81.697z"/>
<path fill-opacity="0.02" fill="#656B6B" d="M22.395,0.807c0,0,0,8.344,0,10.01c-11.037,0.059-20,9.047-20,20.1v29.775 c0,10.313,7.691,18.869,17.908,19.982c0.016,0.004,0.032,0.008,0.053,0.012c0.031,0.002,0.06,0.014,0.091,0.018 c0,0-0.042-0.01-0.077-0.018c0.164,0.023,0.563,0.043,2.031,0.119l281.888,0.002c12.189,0,22.105-9.92,22.105-22.115V30.916 c0-5.377-2.094-10.43-5.896-14.227c-3.799-3.795-8.846-5.879-14.213-5.873H42.012L32.02,0.807H22.395z"/>
<path fill-opacity="0.04" fill="#656B6B" d="M23.395,1.807c0,0,0,8.318,0,9.998c-0.445,0-0.894,0-0.894,0 c-10.535,0-19.106,8.574-19.106,19.111v29.775c0,9.846,7.374,18.021,17.152,19.016c0.002,0.002,1.904,0.098,1.904,0.098 l281.837,0.002c11.637,0,21.105-9.473,21.105-21.115V30.916c0-5.109-1.99-9.91-5.604-13.52c-3.607-3.604-8.404-5.586-13.506-5.58 H41.598l-9.953-10.01H23.395z"/>
<path fill-opacity="0.07" fill="#656B6B" d="M24.395,2.807c0,0,0,8.318,0,9.998c-0.856,0-1.894,0-1.894,0 c-9.983,0-18.106,8.125-18.106,18.111v29.775c0,9.33,6.988,17.078,16.254,18.021c0.005,0,1.853,0.094,1.853,0.094h281.788 c11.086,0,20.105-9.023,20.105-20.115V30.916c0-4.842-1.885-9.393-5.309-12.813c-3.42-3.416-7.965-5.293-12.799-5.287H41.184 L31.145,2.807H24.395z"/>
<path fill-opacity="0.11" fill="#656B6B" d="M306.289,13.816H40.77l-10-10.01h-5.375v9.998h-2.894c-9.447,0-17.106,7.66-17.106,17.111 v29.775c0,8.859,6.73,16.148,15.355,17.027c0.576,0.055,1.16,0.088,1.751,0.088h281.788c10.535,0,19.105-8.574,19.105-19.115 V30.916C323.395,21.465,315.736,13.805,306.289,13.816z"/>
<path fill-opacity="0.13" fill="#656B6B" d="M305.289,14.807H40.395l-10-10h-5v8.998h-1.894c-9.447,0-17.106,7.66-17.106,17.111v28.775 c0,8.859,6.73,16.148,15.355,17.027c0.576,0.055,1.16,0.088,1.751,0.088h280.788c9.982,0,18.105-8.127,18.105-18.115V30.916 C322.395,21.465,314.736,14.795,305.289,14.807z"/>
<linearGradient id="_2" gradientUnits="userSpaceOnUse" x1="163.4" y1="67.58" x2="163.4" y2="19.1">
<stop stop-color="#D9F4E0" offset="0"/>
<stop stop-color="#FFFFFF" offset="1"/>
</linearGradient>
<path fill="url(#_2)" d="M304.289,13.807H39.394l-12-12h-1.999v11.988h-2.894c-9.447,0-17.106,7.66-17.106,17.111v27.785 c0,9.451,7.659,17.115,17.106,17.115h281.788c9.447,0,17.105-7.664,17.105-17.115V30.906 C321.395,21.455,313.736,13.795,304.289,13.807z"/>
</svg>