<?xml version="1.0" encoding="UTF-8"?>
<!DOCTYPE svg PUBLIC "-//W3C//DTD SVG 1.1 Tiny//EN" "http://www.w3.org/Graphics/SVG/1.1/DTD/svg11-tiny.dtd">
<svg width="100%" height="100%" viewBox="0 0 88 88">
<g fill-opacity="0.8" stroke-opacity="0.8">
<linearGradient id="_30" gradientUnits="userSpaceOnUse" x1="43.54" y1="53.59" x2="39.74" y2="68.98">
<stop stop-color="#A2C2DD" offset="0.1"/>
<stop stop-color="#6C83BB" offset="0.71"/>
<stop stop-color="#003D6D" offset="0.99"/>
</linearGradient>
<path fill="url(#_30)" d="M21.303,28.754c-4.598,3.453-8.379,5.734-13.897,8.229c0,0,1.847,2.053,4.012,3.793l-6.333,7.697 l1.14,4.088L51.343,73.42l6.223-10.785l0.78,6.541c3.772,3.282,10.181,6.363,15.173,6.24c0,0,2.562-1.193,4.639-3.654l0.227-1.063 l1.468-1.242c1.897-8.242,3.558-25.541,2.604-32.166c0,0-2.021-2.168-5.038-3.24l0.845-5.697c0-0.25-0.102-0.572-0.412-0.873 l0.228-0.395l0.056-4.5c0,0-16.555-4.277-17.21-4.447c-0.157-0.387-0.578-1.426-0.578-1.426l-11.316-2.645 c0,0-0.894,0.508-1.207,0.686c-0.524-0.135-12.374-3.197-12.374-3.197L21.303,28.754z"/>
<linearGradient id="_31" gradientUnits="userSpaceOnUse" x1="53.41" y1="82.56" x2="32.42" y2="-0.66">
<stop stop-color="#FFFFFF" offset="0.15"/>
<stop stop-color="#A2C2DD" offset="1"/>
</linearGradient>
<polygon fill="url(#_31)" points="35.704,12.346 77.426,23.125 50.623,68.248 5.851,48.643 "/>
<polygon fill="#FFFFFF" points="36.817,13.578 72.925,23.463 49.221,62.887 10.277,46.781 "/>
<linearGradient id="_32" gradientUnits="userSpaceOnUse" x1="58.49" y1="41.71" x2="65.76" y2="47.37">
<stop stop-color="#DEE9F3" offset="0"/>
<stop stop-color="#235487" offset="1"/>
</linearGradient>
<polygon fill="url(#_32)" points="73.099,23.111 49.221,62.424 49.456,64.648 73.2,25.66 "/>
<linearGradient id="_33" gradientUnits="userSpaceOnUse" x1="60.38" y1="44.81" x2="70.48" y2="52.66">
<stop stop-color="#DEE9F3" offset="0"/>
<stop stop-color="#235487" offset="1"/>
</linearGradient>
<polygon fill="url(#_33)" points="77.444,23.119 50.655,68.242 51.056,72.516 77.38,26.895 "/>
<linearGradient id="_34" gradientUnits="userSpaceOnUse" x1="30.84" y1="53.67" x2="29.35" y2="57.09">
<stop stop-color="#FFFFFF" offset="0"/>
<stop stop-color="#496DA2" offset="0.71"/>
<stop stop-color="#235487" offset="0.99"/>
</linearGradient>
<polygon fill="url(#_34)" points="49.221,62.424 10.429,46.813 10.768,48.092 49.456,64.648 "/>
<linearGradient id="_35" gradientUnits="userSpaceOnUse" x1="29.65" y1="57.8" x2="27.15" y2="63.5">
<stop stop-color="#FFFFFF" offset="0"/>
<stop stop-color="#496DA2" offset="0.71"/>
<stop stop-color="#235487" offset="0.99"/>
</linearGradient>
<polygon fill="url(#_35)" points="50.655,68.242 5.839,48.576 6.811,52.061 51.056,72.516 "/>
<linearGradient id="_36" gradientUnits="userSpaceOnUse" x1="8.57" y1="34.82" x2="43.9" y2="34.82">
<stop stop-color="#CADCEC" offset="0"/>
<stop stop-color="#87A8CB" offset="1"/>
</linearGradient>
<path fill="url(#_36)" d="M36.654,13.494c0,0-8.899,14.996-28.08,23.725c5.655,6.148,17.949,12.787,35.327,18.936 L36.654,13.494z"/>
<linearGradient id="_37" gradientUnits="userSpaceOnUse" x1="0.33" y1="51.62" x2="57.33" y2="27.62">
<stop stop-color="#FFFFFF" offset="0.15"/>
<stop stop-color="#A2C2DD" offset="1"/>
</linearGradient>
<path fill="url(#_37)" d="M36.654,13.494l36.444,9.617C63.771,38.549,50.5,53.695,43.738,56.154 c-11.768-4.164-23.812-9.656-29.674-14.141L36.654,13.494z"/>
<polygon fill="#003D6D" points="62.954,20.764 61.124,20.5 59.832,17.313 41.855,17.66 42.02,18.648 62.256,24.654 63.118,22.107 "/>
<polygon fill="#496DA2" points="62.954,20.764 61.947,23.25 41.855,17.66 43.954,15.703 47.257,15.879 49.136,14.813 59.832,17.313 59.978,19.482 "/>
<linearGradient id="_38" gradientUnits="userSpaceOnUse" x1="69.94" y1="28.2" x2="81.76" y2="45.03">
<stop stop-color="#A2C2DD" offset="0.1"/>
<stop stop-color="#6C83BB" offset="0.71"/>
<stop stop-color="#003D6D" offset="0.99"/>
</linearGradient>
<path fill="url(#_38)" d="M68.312,33.352c3.58-0.129,9.61,0.379,13.501,4.291l-2.301,1.063L68.312,33.352z"/>
<linearGradient id="_39" gradientUnits="userSpaceOnUse" x1="76.55" y1="29.82" x2="80.72" y2="62.75">
<stop stop-color="#FFFFFF" offset="0"/>
<stop stop-color="#A2C2DD" offset="0.35"/>
<stop stop-color="#6C83BB" offset="0.7"/>
<stop stop-color="#003D6D" offset="1"/>
</linearGradient>
<path fill="url(#_39)" d="M79.892,38.502l-2.429,32.209l1.854-1.568c1.45-6.395,3.425-22.172,2.487-31.549L79.892,38.502 z"/>
<linearGradient id="_40" gradientUnits="userSpaceOnUse" x1="63" y1="41.21" x2="73.81" y2="32.51">
<stop stop-color="#FFFFFF" offset="0.15"/>
<stop stop-color="#A2C2DD" offset="1"/>
</linearGradient>
<path fill="url(#_40)" d="M57.138,35.475c6.818-2.441,16.259-3.93,23.032,2.369l-5.521,2.629L57.138,35.475z"/>
<linearGradient id="_41" gradientUnits="userSpaceOnUse" x1="76.66" y1="32.09" x2="77.18" y2="83.74">
<stop stop-color="#FFFFFF" offset="0"/>
<stop stop-color="#A2C2DD" offset="0.35"/>
<stop stop-color="#6C83BB" offset="0.7"/>
<stop stop-color="#003D6D" offset="1"/>
</linearGradient>
<path fill="url(#_41)" d="M74.648,40.473l-1.224,34.336c2.586-1.191,4.228-3.395,4.228-3.395 c1.529-6.746,3.507-23.678,2.518-33.57L74.648,40.473z"/>
<linearGradient id="_42" gradientUnits="userSpaceOnUse" x1="71.45" y1="35.41" x2="78.97" y2="38.69">
<stop stop-color="#FFFFFF" offset="0"/>
<stop stop-color="#A2C2DD" offset="0.35"/>
<stop stop-color="#6C83BB" offset="0.7"/>
<stop stop-color="#003D6D" offset="1"/>
</linearGradient>
<path fill="url(#_42)" d="M77.127,36.703c0.279,1.74-4.445,2.006-4.408,0.098C72.747,35.486,76.921,35.41,77.127,36.703z "/>
<linearGradient id="_43" gradientUnits="userSpaceOnUse" x1="73" y1="32.73" x2="78.69" y2="33.12">
<stop stop-color="#FFFFFF" offset="0"/>
<stop stop-color="#A2C2DD" offset="0.35"/>
<stop stop-color="#6C83BB" offset="0.7"/>
<stop stop-color="#003D6D" offset="1"/>
</linearGradient>
<path fill="url(#_43)" d="M73.229,28.1c0,0,0.286,8.832,0.285,8.855c0.683,0.754,2.303,0.697,2.785,0.018l1.226-8.445 L73.229,28.1z"/>
<linearGradient id="_44" gradientUnits="userSpaceOnUse" x1="75.63" y1="33.95" x2="61.48" y2="62.93">
<stop stop-color="#FFFFFF" offset="0.05"/>
<stop stop-color="#A2C2DD" offset="1"/>
</linearGradient>
<path fill="url(#_44)" d="M57.138,35.475c3.791-1.238,11.824-0.207,17.511,4.998c0.666,9.334,0.126,25.543-1.224,34.336 c-4.587,0.113-11.063-2.969-14.479-5.936C57.82,61.025,56.428,44.859,57.138,35.475z"/>
<linearGradient id="_45" gradientUnits="userSpaceOnUse" x1="78.51" y1="56.43" x2="56.44" y2="44.22">
<stop stop-color="#FFFFFF" offset="0.05"/>
<stop stop-color="#A2C2DD" offset="1"/>
</linearGradient>
<polygon fill="url(#_45)" points="59.028,37.738 59.612,57.529 72.283,62.197 72.705,41.668 "/>
<linearGradient id="_46" gradientUnits="userSpaceOnUse" x1="60.72" y1="72.26" x2="59.55" y2="26.28">
<stop stop-color="#FFFFFF" offset="0"/>
<stop stop-color="#A2C2DD" offset="0.35"/>
<stop stop-color="#6C83BB" offset="0.7"/>
<stop stop-color="#003D6D" offset="1"/>
</linearGradient>
<polygon fill="url(#_46)" points="61.029,56.672 60.661,38.205 59.028,37.738 59.612,57.529 "/>
<linearGradient id="_47" gradientUnits="userSpaceOnUse" x1="73.25" y1="65.92" x2="55.42" y2="49.09">
<stop stop-color="#FFFFFF" offset="0.15"/>
<stop stop-color="#A2C2DD" offset="1"/>
</linearGradient>
<polygon fill="url(#_47)" points="59.612,57.529 61.029,56.672 72.332,60.586 72.283,62.197 "/>
<linearGradient id="_48" gradientUnits="userSpaceOnUse" x1="73.79" y1="28.8" x2="77.25" y2="27.68">
<stop stop-color="#FFFFFF" offset="0.05"/>
<stop stop-color="#A2C2DD" offset="1"/>
</linearGradient>
<path fill="url(#_48)" d="M77.524,28.527c-0.405,1.146-4.706,0.635-4.258-0.508 C73.722,26.889,77.911,27.373,77.524,28.527z"/>
<linearGradient id="_49" gradientUnits="userSpaceOnUse" x1="65.06" y1="49.19" x2="72.56" y2="76.69">
<stop stop-color="#FFFFFF" offset="0"/>
<stop stop-color="#A2C2DD" offset="0.35"/>
<stop stop-color="#6C83BB" offset="0.7"/>
<stop stop-color="#003D6D" offset="1"/>
</linearGradient>
<polygon fill="url(#_49)" points="68.195,67.385 71.451,68.758 71.579,66.414 68.264,65.043 "/>
<polygon fill="url(#_49)" points="71.611,65.803 71.738,63.465 68.349,62.201 68.283,64.438 "/>
<polygon fill="url(#_49)" points="68.176,67.992 68.116,70.111 71.304,71.531 71.419,69.369 "/>
<polygon fill="url(#_49)" points="63.697,63.199 60.836,62.064 60.984,64.43 63.785,65.561 "/>
<polygon fill="url(#_49)" points="67.647,64.219 67.671,61.992 64.384,60.789 64.424,62.926 "/>
<polygon fill="url(#_49)" points="63.594,60.461 60.663,59.408 60.796,61.457 63.673,62.588 "/>
<polygon fill="url(#_49)" points="64.531,68.586 67.584,69.916 67.605,67.791 64.493,66.496 "/>
<polygon fill="url(#_49)" points="63.805,66.176 61.025,65.041 61.154,67.104 63.882,68.268 "/>
<polygon fill="url(#_49)" points="64.436,63.533 64.479,65.885 67.615,67.182 67.639,64.828 "/>
<polygon fill="url(#_49)" points="64.543,69.205 64.582,71.35 67.553,72.736 67.578,70.533 "/>
<path fill-opacity="0.4" fill="#FFFFFF" d="M21.303,28.754c-4.598,3.453-8.379,5.734-13.897,8.229c0,0,1.847,2.053,4.012,3.793 l-6.333,7.697l1.14,4.088L51.343,73.42l6.223-10.785l0.78,6.541c3.772,3.282,10.181,6.363,15.173,6.24c0,0,2.562-1.193,4.639-3.654 l0.227-1.063l1.468-1.242c1.897-8.242,3.558-25.541,2.604-32.166c0,0-2.021-2.168-5.038-3.24l0.845-5.697 c0-0.25-0.102-0.572-0.412-0.873l0.228-0.395l0.056-4.5c0,0-16.555-4.277-17.21-4.447c-0.157-0.387-0.578-1.426-0.578-1.426 l-11.316-2.645c0,0-0.894,0.508-1.207,0.686c-0.524-0.135-12.374-3.197-12.374-3.197L21.303,28.754z"/>
</g>
</svg>