<?xml version="1.0" encoding="UTF-8" standalone="no"?>
<!DOCTYPE svg PUBLIC "-//W3C//DTD SVG 1.1 Tiny//EN" "http://www.w3.org/Graphics/SVG/1.1/DTD/svg11-tiny.dtd">
<svg xmlns="http://www.w3.org/2000/svg" xmlns:xlink="http://www.w3.org/1999/xlink" width="54" height="54" viewBox="0 0 54 54">
<rect fill="none" height="54" width="54"/>
<path d="M45.258,19.581h0.021l-0.02-1.019c0-0.004,0-0.021,0-0.058 c0.008-4.251-2.308-7.015-4.615-9.271c-2.363-2.421-5.359-4.496-9.545-4.488c-0.053,0.003-0.094,0.003-0.123,0.005 c-2.045-0.002-19.671-0.002-19.691-0.002l-2.5,0.002v42.773h1h35.477v-2.59l-0.003-0.014C45.256,43.678,45.258,24.803,45.258,19.581 z" fill="#FFFFFF" fill-opacity="0.6"/>
<linearGradient id="_11" gradientUnits="userSpaceOnUse" x1="26.84" y1="-9.16" x2="26.84" y2="32.9">
<stop stop-color="#CCCCCC" offset="0"/>
<stop stop-color="#000000" offset="1"/>
</linearGradient>
<path d="M43.555,46.068h-0.981H11.098h-0.982v-0.981V7.312V6.33h0.982h19.724 c3.971,0,6.466,1.945,8.568,4.047c2.275,2.279,4.164,4.475,4.164,8.266v26.444V46.068L43.555,46.068z" fill="url(#_11)" fill-opacity="0.7"/>
<path d="M42.54,16.338c0-4.959-4.034-8.992-8.991-8.992c-0.645,0-1.271,0.07-1.879,0.203l10.68,10.633 C42.473,17.586,42.54,16.969,42.54,16.338z" fill-opacity="0.02"/>
<path d="M42.37,16.338c0-4.865-3.958-8.824-8.821-8.824c-0.595,0-1.176,0.063-1.736,0.176l10.391,10.348 C42.311,17.486,42.37,16.918,42.37,16.338z" fill-opacity="0.02"/>
<path d="M42.205,16.338c0-4.773-3.887-8.654-8.656-8.654c-0.543,0-1.072,0.057-1.589,0.152l10.097,10.055 C42.15,17.387,42.205,16.867,42.205,16.338z" fill-opacity="0.02"/>
<path d="M42.037,16.338c0-4.682-3.811-8.488-8.488-8.488c-0.492,0-0.972,0.051-1.441,0.133l9.804,9.762 C41.986,17.287,42.037,16.816,42.037,16.338z" fill-opacity="0.02"/>
<path d="M41.869,16.338c0-4.588-3.734-8.32-8.32-8.32c-0.441,0-0.871,0.045-1.294,0.113l9.509,9.467 C41.827,17.185,41.869,16.767,41.869,16.338z" fill-opacity="0.02"/>
<path d="M41.702,16.336c0-4.494-3.658-8.148-8.152-8.148c-0.39,0-0.771,0.037-1.146,0.09l9.212,9.176 C41.666,17.086,41.702,16.715,41.702,16.336z" fill-opacity="0.02"/>
<path d="M41.534,16.336c0-4.402-3.581-7.982-7.984-7.982c-0.339,0-0.671,0.029-0.999,0.068l8.92,8.885 C41.507,16.988,41.534,16.664,41.534,16.336z" fill-opacity="0.02"/>
<path d="M41.366,16.336c0-4.311-3.507-7.813-7.816-7.813c-0.286,0-0.571,0.018-0.851,0.049l8.623,8.588 C41.35,16.889,41.366,16.613,41.366,16.336z" fill-opacity="0.02"/>
<path d="M41.201,16.336c0-4.217-3.436-7.645-7.651-7.645c-0.233,0-0.466,0.014-0.696,0.033l8.314,8.279 C41.186,16.783,41.201,16.56,41.201,16.336z" fill-opacity="0.02"/>
<path d="M41.031,16.336c0-4.123-3.356-7.479-7.481-7.479c-0.182,0-0.358,0.014-0.538,0.025l7.993,7.961 C41.016,16.676,41.031,16.508,41.031,16.336z" fill-opacity="0.02"/>
<path d="M40.863,16.336c0-4.033-3.281-7.314-7.313-7.314c-0.127,0-0.252,0.016-0.379,0.02l7.675,7.645 C40.852,16.568,40.863,16.453,40.863,16.336z" fill-opacity="0.02"/>
<linearGradient id="_12" gradientUnits="userSpaceOnUse" x1="39.56" y1="13.6" x2="40.6" y2="12.57">
<stop stop-color="#F2F2F2" offset="0"/>
<stop stop-color="#EDEDED" offset="0.19"/>
<stop stop-color="#DFDFDF" offset="0.42"/>
<stop stop-color="#C8C8C8" offset="0.66"/>
<stop stop-color="#A8A8A8" offset="0.9"/>
<stop stop-color="#999999" offset="1"/>
</linearGradient>
<path d="M42.572,18.644c0,3.09,0,26.442,0,26.442H11.098V7.312c0,0,17.647,0,19.724,0 c3.41,0,5.607,1.496,7.873,3.76C40.956,13.334,42.572,15.287,42.572,18.644z" fill="url(#_12)"/>
<linearGradient id="_13" gradientUnits="userSpaceOnUse" x1="31.94" y1="21.1" x2="40.45" y2="12.6">
<stop stop-color="#F2F2F2" offset="0"/>
<stop stop-color="#EDEDED" offset="0.19"/>
<stop stop-color="#DFDFDF" offset="0.42"/>
<stop stop-color="#C8C8C8" offset="0.66"/>
<stop stop-color="#A8A8A8" offset="0.9"/>
<stop stop-color="#999999" offset="1"/>
</linearGradient>
<path d="M42.572,18.644c0,3.09,0,26.442,0,26.442H11.098V7.312c0,0,17.647,0,19.724,0 c4.199,0,5.701,2.801,6.092,5.539C39.781,13.244,42.572,14.547,42.572,18.644z" fill="url(#_13)"/>
<linearGradient id="_14" gradientUnits="userSpaceOnUse" x1="26.84" y1="45.09" x2="26.84" y2="17.92">
<stop stop-color="#F2F2F2" offset="0"/>
<stop stop-color="#FFFFFF" offset="1"/>
</linearGradient>
<polygon fill="url(#_14)" fill-opacity="0.85" points="42.572,35.434 42.572,45.086 11.098,45.086 11.098,17.805 "/>
<linearGradient id="_15" gradientUnits="userSpaceOnUse" x1="26.84" y1="40.63" x2="26.84" y2="11.34">
<stop stop-color="#808080" offset="0"/>
<stop stop-color="#7B7B7B" offset="0.21"/>
<stop stop-color="#6D6D6D" offset="0.45"/>
<stop stop-color="#555555" offset="0.71"/>
<stop stop-color="#353535" offset="0.99"/>
<stop stop-color="#333333" offset="1"/>
</linearGradient>
<path d="M36.887,12.879c-0.391-2.74-1.865-5.566-6.064-5.566c-2.076,0-19.724,0-19.724,0 v37.774h31.474c0,0,0-23.352,0-26.442C42.572,14.547,39.754,13.269,36.887,12.879z M41.732,44.248H11.939V8.152h18.883 c3.283,0,5.443,0.836,6.054,4.738c3.772,0.662,4.856,1.719,4.856,5.754V44.248z" fill="url(#_15)" fill-opacity="0.4"/>
<linearGradient id="_16" gradientUnits="userSpaceOnUse" x1="26.32" y1="15.43" x2="26.32" y2="57.12">
<stop stop-color="#FB9E3A" offset="0.06"/>
<stop stop-color="#E6742B" offset="1"/>
</linearGradient>
<rect fill="url(#_16)" height="2.241" width="20.083" x="16.277" y="27.514"/>
<linearGradient id="_17" gradientUnits="userSpaceOnUse" x1="26.3" y1="9.26" x2="26.3" y2="38.39">
<stop stop-color="#FB9E3A" offset="0.06"/>
<stop stop-color="#E6742B" offset="1"/>
</linearGradient>
<rect fill="url(#_17)" height="10.779" width="20.042" x="16.277" y="13.763"/>
<rect fill="url(#_16)" height="2.244" width="20.126" x="16.233" y="37.881"/>
<rect fill="url(#_16)" height="2.244" width="20.126" x="16.233" y="32.686"/>
<path d="M22.033,19.565l1.992,3.961h-1.846l-1.693-3.709h-0.768v3.709h-1.611V14.79h2.836 c1.083,0,2.189,0.337,2.519,1.484C23.843,17.601,23.396,19.069,22.033,19.565 M19.719,18.833h0.861c1.267,0,1.712-1.475,1.185-2.495 c-0.373-0.722-1.328-0.563-2.003-0.563C19.675,15.774,19.719,18.5,19.719,18.833" fill="#FFFFFF"/>
<path d="M26.474,23.62c-0.222,0-1.881-0.057-1.881-0.285c0-0.332,0-0.664,0-0.998 c1.126,0.307,3.688,0.688,3.359-1.281c-0.237-1.418-2.516-1.602-3.119-2.898c-0.642-1.383,0.032-2.896,1.48-3.313 c0.812-0.232,1.721-0.179,2.544-0.036c0.52,0.091,0.316,0.613,0.316,1.083c-0.859-0.195-2.678-0.543-2.929,0.706 c-0.263,1.307,1.491,1.779,2.292,2.385c0.988,0.747,1.324,1.989,0.863,3.155C28.934,23.321,27.624,23.62,26.474,23.62" fill="#FFFFFF"/>
<path d="M32.258,23.62c-0.222,0-1.881-0.057-1.881-0.285c0-0.332,0-0.664,0-0.998 c1.126,0.307,3.688,0.688,3.359-1.281c-0.237-1.418-2.516-1.602-3.119-2.898c-0.643-1.383,0.031-2.896,1.48-3.313 c0.812-0.232,1.721-0.179,2.543-0.036c0.521,0.091,0.317,0.613,0.317,1.083c-0.858-0.195-2.679-0.543-2.929,0.706 c-0.264,1.307,1.492,1.779,2.291,2.385c0.99,0.747,1.326,1.989,0.865,3.155C34.717,23.321,33.407,23.62,32.258,23.62" fill="#FFFFFF"/>
<polygon fill="url(#_14)" fill-opacity="0.3" points="42.572,35.434 42.572,45.086 11.098,45.086 11.098,17.805 "/>
</svg>