<?xml version="1.0" encoding="UTF-8"?>
<!DOCTYPE svg PUBLIC "-//W3C//DTD SVG 1.1 Tiny//EN" "http://www.w3.org/Graphics/SVG/1.1/DTD/svg11-tiny.dtd">
<svg baseProfile="tiny" height="288" version="1.1" viewBox="0 0 352 288" width="352" xmlns="http://www.w3.org/2000/svg" xmlns:xlink="http://www.w3.org/1999/xlink">
<g>
<g>
<path d="M336.698,154.079c-23.477,0-42.51,16.183-42.51,36.146    c0,19.965,19.033,36.149,42.51,36.149c5.396,0,10.552-0.864,15.302-2.425V156.5C347.248,154.943,342.093,154.079,336.698,154.079z    " fill="#5E1B67" fill-opacity="0.2"/>
</g>
<rect fill="none" height="288" width="351.995" x="0.001"/>
<g>
<path d="M315.301,109.074c-27.656,0-50.077,19.066-50.077,42.583    c0,23.516,22.421,42.582,50.077,42.582c14.499,0,27.553-5.246,36.697-13.621v-57.922    C342.854,114.322,329.8,109.074,315.301,109.074z" fill="#58A015" fill-opacity="0.6"/>
</g>
<g>
<path d="M330.069,83.711c-29.549,0-53.505,20.369-53.505,45.495    c0,25.128,23.956,45.498,53.505,45.498c7.816,0,15.234-1.438,21.931-4V87.709C345.303,85.148,337.885,83.711,330.069,83.711z" fill="#58A015" fill-opacity="0.2"/>
</g>
<g>
<radialGradient cx="769.8501" cy="-604.2988" gradientTransform="matrix(1 0 0 -1 -454.8184 -451.7685)" gradientUnits="userSpaceOnUse" id="XMLID_3_" r="92.6195">
<stop offset="0" style="stop-color:#DEE6F1"/>
<stop offset="1" style="stop-color:#7579D0"/>
</radialGradient>
<path d="M245.119,152.551c0,54.274,46.072,99.429,106.881,108.922V43.63    C291.191,53.123,245.119,98.277,245.119,152.551z" fill="url(#XMLID_3_)" fill-opacity="0.6"/>
</g>
<path d="M225.114,153.983c0,40.443-38.558,73.229-86.119,73.229   c-47.563,0-86.12-32.784-86.12-73.229c0-40.441,38.557-73.229,86.12-73.229C186.557,80.753,225.114,113.542,225.114,153.983z" fill="#BF60A2" fill-opacity="0.55"/>
<ellipse cx="194.39" cy="99.443" fill="#A15EB6" fill-opacity="0.8" rx="75.742" ry="72.827"/>
<ellipse cx="37.896" cy="121.048" fill="#CA6769" fill-opacity="0.6" rx="22.538" ry="19.166"/>
<ellipse cx="110.088" cy="64.956" fill="#4A8BE7" fill-opacity="0.6" rx="64.589" ry="54.922"/>
<g>
<path d="M83.144,14.542c0-5.823,3.064-11.03,7.884-14.542H44.603    C53.307,5.772,58.91,14.77,58.91,24.883c0,17.428-16.612,31.552-37.104,31.552c-8.15,0-15.684-2.241-21.806-6.031v44.975    c5.557,1.02,11.319,1.57,17.235,1.57c43.008,0,78.205-28.354,81.217-64.27C89.555,30.115,83.144,22.974,83.144,14.542z" fill="#A15EB6" fill-opacity="0.8"/>
</g>
<path d="M194.224,286.846h17.764c-5.052-5.685-8.85-12.215-11.059-19.299   C200.054,274.425,197.727,280.929,194.224,286.846z" fill="#5E1B67" fill-opacity="0.7"/>
<path d="M165.669,286.846h10.068c-1.904-3.624-3.508-7.383-4.789-11.26   C170.082,279.683,168.254,283.493,165.669,286.846z" fill="#B18E3B" fill-opacity="0.6"/>
<path d="M99.613,270.119c0-16.889,16.1-30.578,35.959-30.578   c13.809,0,25.792,6.618,31.816,16.325c-0.033-0.885-0.078-1.769-0.078-2.659c0-12.795,3.426-24.913,9.536-35.726   c-11.497-8.004-26.193-12.811-42.214-12.811c-36.834,0-66.698,25.393-66.698,56.715c0,9.16,2.57,17.804,7.105,25.463h30.436   C101.771,282.038,99.613,276.294,99.613,270.119z" fill="#B18E3B" fill-opacity="0.6"/>
<path d="M167.388,255.864c2.643,4.258,4.146,9.106,4.146,14.255   c0,1.866-0.206,3.692-0.584,5.468c1.28,3.877,2.884,7.636,4.789,11.26h18.486c3.503-5.917,5.83-12.421,6.705-19.299   c-1.428-4.577-2.196-9.384-2.196-14.341c0-2.108,0.149-4.185,0.415-6.232c-3.621-11.753-11.563-22.021-22.302-29.494   c-6.112,10.812-9.537,22.93-9.537,35.727C167.311,254.097,167.355,254.981,167.388,255.864z" fill="#3366CC" fill-opacity="0.7"/>
<path d="M167.388,255.864c2.643,4.258,4.146,9.106,4.146,14.255   c0,1.866-0.206,3.692-0.584,5.468c1.28,3.877,2.884,7.636,4.789,11.26h18.486c3.503-5.917,5.83-12.421,6.705-19.299   c-1.428-4.577-2.196-9.384-2.196-14.341c0-2.108,0.149-4.185,0.415-6.232c-3.621-11.753-11.563-22.021-22.302-29.494   c-6.112,10.812-9.537,22.93-9.537,35.727C167.311,254.097,167.355,254.981,167.388,255.864z" fill="#B18E3B" fill-opacity="0.6"/>
<path d="M200.929,267.547c2.209,7.084,6.007,13.614,11.059,19.299h104.871   c8.314-9.356,13.253-21.008,13.253-33.64c0-30.849-29.411-55.857-65.688-55.857c-33.801,0-61.626,21.712-65.273,49.625   c1.42,4.604,2.182,9.431,2.182,14.41C201.33,263.469,201.187,265.524,200.929,267.547z" fill="#3366CC" fill-opacity="0.7"/>
<path d="M200.929,267.547c2.209,7.084,6.007,13.614,11.059,19.299h104.871   c8.314-9.356,13.253-21.008,13.253-33.64c0-30.849-29.411-55.857-65.688-55.857c-33.801,0-61.626,21.712-65.273,49.625   c1.42,4.604,2.182,9.431,2.182,14.41C201.33,263.469,201.187,265.524,200.929,267.547z" fill="#8B2E74" fill-opacity="0.7"/>
<path d="M200.929,267.547c0.258-2.024,0.398-4.078,0.398-6.163c0-4.979-0.76-9.807-2.18-14.41   c-0.266,2.048-0.415,4.124-0.415,6.232C198.734,258.166,199.503,262.97,200.929,267.547z" fill="#3366CC" fill-opacity="0.7"/>
<path d="M200.929,267.547c0.258-2.024,0.398-4.078,0.398-6.163c0-4.979-0.76-9.807-2.18-14.41   c-0.266,2.048-0.415,4.124-0.415,6.232C198.734,258.166,199.503,262.97,200.929,267.547z" fill="#CFECFF" fill-opacity="0.6"/>
<path d="M200.929,267.547c0.258-2.024,0.398-4.078,0.398-6.163c0-4.979-0.76-9.807-2.18-14.41   c-0.266,2.048-0.415,4.124-0.415,6.232C198.734,258.166,199.503,262.97,200.929,267.547z" fill="#A15EB6" fill-opacity="0.9"/>
<path d="M167.388,255.864c-6.024-9.705-18.007-16.325-31.816-16.325   c-19.86,0-35.959,13.691-35.959,30.578c0,6.178,2.159,11.921,5.863,16.729h60.194c2.585-3.355,4.41-7.165,5.28-11.26   C168.866,269.285,167.644,262.68,167.388,255.864z" fill="#CFECFF" fill-opacity="0.6"/>
<path d="M167.388,255.864c-6.024-9.705-18.007-16.325-31.816-16.325   c-19.86,0-35.959,13.691-35.959,30.578c0,6.178,2.159,11.921,5.863,16.729h60.194c2.585-3.355,4.41-7.165,5.28-11.26   C168.866,269.285,167.644,262.68,167.388,255.864z" fill="#B18E3B" fill-opacity="0.3"/>
<path d="M171.535,270.119c0-5.148-1.504-9.997-4.146-14.255   c0.254,6.816,1.478,13.419,3.563,19.723C171.328,273.809,171.535,271.985,171.535,270.119z" fill="#3366CC" fill-opacity="0.7"/>
<path d="M171.535,270.119c0-5.148-1.504-9.997-4.146-14.255   c0.254,6.816,1.478,13.419,3.563,19.723C171.328,273.809,171.535,271.985,171.535,270.119z" fill="#CFECFF" fill-opacity="0.6"/>
<path d="M171.535,270.119c0-5.148-1.504-9.997-4.146-14.255   c0.254,6.816,1.478,13.419,3.563,19.723C171.328,273.809,171.535,271.985,171.535,270.119z" fill="#B18E3B" fill-opacity="0.3"/>
<path d="M98.685,27.688c0,1.681-0.093,3.342-0.232,4.993c2.272,0.655,4.697,1.025,7.229,1.025   c12.447,0,22.538-8.58,22.538-19.163c0-5.823-3.064-11.03-7.884-14.542H91.897C96.253,8.479,98.685,17.841,98.685,27.688z" fill="#BF60A2" fill-opacity="0.6"/>
<path d="M91.897,0h-0.87c-4.819,3.512-7.884,8.719-7.884,14.542   c0,8.432,6.411,15.575,15.309,18.138c0.139-1.65,0.232-3.312,0.232-4.993C98.685,17.841,96.253,8.479,91.897,0z" fill="#0046B7" fill-opacity="0.8"/>
<path d="M91.897,0h-0.87c-4.819,3.512-7.884,8.719-7.884,14.542   c0,8.432,6.411,15.575,15.309,18.138c0.139-1.65,0.232-3.312,0.232-4.993C98.685,17.841,96.253,8.479,91.897,0z" fill="#BF60A2" fill-opacity="0.6"/>
<path d="M215.255,114.611c48.37,0,87.585-33.343,87.585-74.475   c0-14.787-5.087-28.55-13.823-40.134H141.494c-8.736,11.583-13.824,25.349-13.824,40.134   C127.669,81.268,166.883,114.611,215.255,114.611z" fill="#B18E3B" fill-opacity="0.3"/>
<ellipse cx="60.995" cy="53.9" fill="#A15EB6" fill-opacity="0.7" rx="28.259" ry="24.028"/>
<ellipse cx="266.082" cy="254.073" fill="#5E1B67" fill-opacity="0.6" rx="21.438" ry="18.229" stroke="#D7CEE6" stroke-opacity="0.6"/>
<ellipse cx="171.077" cy="51.812" fill="#BFDAE1" fill-opacity="0.6" rx="36.585" ry="31.109"/>
<ellipse cx="138.995" cy="153.982" fill="#E0D6E6" fill-opacity="0.6" rx="42.876" ry="36.459"/>
<path d="M5.993,268.05" fill="#CFECFF" fill-opacity="0.6" stroke="#FFFFFF" stroke-opacity="0.6"/>
<path d="M5.993,268.05" fill="#CFECFF" fill-opacity="0.6" stroke="#FFFFFF" stroke-opacity="0.6"/>
<g>
<path d="M23.466,3.626C13.127,3.626,4.195,8.755,0,16.183v19.135    c4.195,7.427,13.127,12.557,23.466,12.557c14.37,0,26.02-9.905,26.02-22.123C49.484,13.531,37.836,3.626,23.466,3.626z" fill="#0046B7" fill-opacity="0.3"/>
</g>
<g>
<path d="M38.079,86.187c-17.086,0-31.752,8.801-38.079,21.361v27.703    c6.327,12.559,20.993,21.36,38.079,21.36c22.87,0,41.41-15.765,41.41-35.214C79.488,101.953,60.948,86.187,38.079,86.187z" fill="#CA6769" fill-opacity="0.7"/>
</g>
<g>
<path d="M21.549,192.983c0.578-0.303,0.966-0.752,1.157-1.348c0.192-0.593,0.141-1.175-0.156-1.745    c-0.296-0.569-0.744-0.943-1.341-1.127c-0.598-0.181-1.186-0.121-1.765,0.184c-0.581,0.302-0.966,0.751-1.158,1.345    c-0.193,0.596-0.141,1.178,0.156,1.746c0.297,0.571,0.743,0.945,1.341,1.127C20.381,193.348,20.97,193.286,21.549,192.983z" fill="none"/>
<path d="M17.51,244.992c-0.526-0.39-1.098-0.539-1.717-0.453c-0.617,0.088-1.117,0.39-1.497,0.904    c-0.382,0.517-0.522,1.083-0.425,1.699c0.1,0.618,0.411,1.121,0.937,1.509c0.524,0.39,1.096,0.539,1.713,0.453    c0.619-0.086,1.119-0.388,1.5-0.903c0.382-0.517,0.521-1.083,0.423-1.699C18.347,245.882,18.035,245.38,17.51,244.992z" fill="none"/>
<path d="M22.338,247.921c-0.586-0.287-1.177-0.33-1.771-0.132c-0.589,0.199-1.026,0.587-1.306,1.162    c-0.28,0.578-0.314,1.16-0.105,1.749c0.21,0.589,0.608,1.026,1.196,1.312c0.588,0.286,1.179,0.331,1.771,0.133    s1.026-0.587,1.308-1.163c0.28-0.577,0.315-1.162,0.105-1.75C23.325,248.643,22.928,248.208,22.338,247.921z" fill="none"/>
<path d="M13.294,241.227c-0.445-0.479-0.98-0.729-1.605-0.757c-0.624-0.027-1.169,0.177-1.638,0.616    c-0.467,0.438-0.709,0.97-0.727,1.593c-0.014,0.625,0.201,1.178,0.646,1.654c0.447,0.479,0.981,0.73,1.605,0.758    c0.622,0.029,1.17-0.176,1.638-0.613c0.469-0.439,0.711-0.971,0.727-1.596S13.741,241.708,13.294,241.227z" fill="none"/>
<path d="M32.3,189.7c0.648-0.07,1.17-0.352,1.564-0.835c0.397-0.484,0.559-1.046,0.488-1.685    c-0.072-0.637-0.354-1.148-0.845-1.535c-0.492-0.386-1.061-0.543-1.712-0.471c-0.648,0.072-1.17,0.354-1.564,0.838    c-0.396,0.482-0.557,1.046-0.485,1.684c0.07,0.637,0.352,1.15,0.844,1.535C31.08,189.618,31.65,189.772,32.3,189.7z" fill="none"/>
<path d="M10.166,238.504c0.129-0.612,0.019-1.195-0.335-1.748c-0.351-0.553-0.83-0.897-1.438-1.04    c-0.608-0.142-1.185-0.04-1.724,0.307c-0.542,0.346-0.876,0.825-1.005,1.438s-0.019,1.193,0.333,1.746    c0.352,0.553,0.832,0.898,1.442,1.039c0.607,0.142,1.183,0.039,1.724-0.306C9.702,239.593,10.037,239.117,10.166,238.504z" fill="none"/>
<path d="M33.178,250.889c-0.651-0.053-1.218,0.118-1.698,0.519c-0.481,0.4-0.746,0.92-0.799,1.559    c-0.053,0.642,0.125,1.196,0.533,1.67c0.409,0.472,0.938,0.735,1.591,0.789c0.652,0.056,1.217-0.117,1.697-0.518    c0.481-0.4,0.748-0.919,0.801-1.559c0.053-0.641-0.124-1.196-0.535-1.669C34.361,251.207,33.83,250.943,33.178,250.889z" fill="none"/>
<path d="M67.708,211.824c-0.629,0.118-1.117,0.438-1.466,0.959c-0.347,0.521-0.46,1.101-0.337,1.744    c0.121,0.644,0.437,1.144,0.949,1.501c0.512,0.358,1.084,0.477,1.714,0.358c0.631-0.118,1.119-0.438,1.466-0.959    c0.347-0.52,0.461-1.102,0.339-1.744c-0.121-0.644-0.438-1.146-0.949-1.501C68.911,211.824,68.339,211.706,67.708,211.824z" fill="none"/>
<path d="M27.622,249.909c-0.632-0.173-1.22-0.107-1.767,0.198c-0.545,0.305-0.901,0.766-1.071,1.385    c-0.168,0.621-0.096,1.201,0.22,1.74c0.314,0.541,0.787,0.896,1.418,1.068c0.633,0.173,1.22,0.107,1.765-0.196    c0.545-0.306,0.904-0.769,1.073-1.385c0.168-0.622,0.096-1.202-0.218-1.741C28.725,250.439,28.252,250.081,27.622,249.909z" fill="none"/>
<path d="M26.776,190.839c0.627-0.189,1.09-0.562,1.387-1.108c0.299-0.551,0.356-1.132,0.17-1.746    c-0.187-0.613-0.557-1.064-1.112-1.354s-1.145-0.338-1.771-0.146c-0.624,0.191-1.088,0.561-1.385,1.109    c-0.301,0.549-0.355,1.131-0.168,1.744c0.186,0.614,0.557,1.063,1.11,1.354C25.561,190.982,26.15,191.029,26.776,190.839z" fill="none"/>
<path d="M6.23,205.319c0.55,0.329,1.126,0.415,1.731,0.256c0.604-0.157,1.073-0.518,1.41-1.078    c0.335-0.562,0.43-1.147,0.282-1.755c-0.146-0.606-0.493-1.076-1.045-1.405c-0.55-0.33-1.126-0.414-1.729-0.256    c-0.604,0.158-1.074,0.518-1.41,1.079c-0.335,0.563-0.43,1.146-0.284,1.755C5.332,204.522,5.682,204.991,6.23,205.319z" fill="none"/>
<path d="M3.998,210.982c0.602,0.222,1.186,0.201,1.75-0.065c0.562-0.268,0.958-0.707,1.186-1.322    c0.227-0.613,0.213-1.205-0.043-1.777c-0.256-0.57-0.684-0.965-1.284-1.189c-0.602-0.223-1.185-0.199-1.748,0.068    c-0.564,0.266-0.959,0.707-1.188,1.319c-0.227,0.614-0.211,1.207,0.043,1.776C2.97,210.364,3.396,210.76,3.998,210.982z" fill="none"/>
<path d="M11.118,200.734c0.623-0.046,1.152-0.315,1.585-0.806c0.431-0.492,0.632-1.05,0.602-1.674    c-0.035-0.625-0.291-1.15-0.772-1.574c-0.479-0.426-1.031-0.613-1.655-0.566c-0.623,0.044-1.152,0.313-1.585,0.803    c-0.433,0.492-0.631,1.051-0.598,1.676c0.033,0.623,0.289,1.15,0.77,1.575C9.944,200.59,10.496,200.779,11.118,200.734z" fill="none"/>
<path d="M15.104,196.55c0.621,0.067,1.188-0.101,1.703-0.503c0.514-0.404,0.813-0.918,0.894-1.537    c0.081-0.618-0.076-1.184-0.473-1.688c-0.396-0.506-0.904-0.792-1.524-0.861c-0.621-0.068-1.188,0.099-1.704,0.502    c-0.516,0.404-0.811,0.917-0.894,1.537c-0.081,0.619,0.077,1.183,0.473,1.689C13.975,196.194,14.482,196.481,15.104,196.55z" fill="none"/>
<path d="M2.846,216.965c0.632,0.105,1.198-0.021,1.705-0.389c0.505-0.367,0.813-0.874,0.923-1.52    c0.11-0.647-0.014-1.228-0.37-1.74c-0.356-0.514-0.851-0.823-1.481-0.932c-0.631-0.107-1.2,0.021-1.705,0.391    c-0.505,0.367-0.813,0.871-0.923,1.519c-0.11,0.646,0.014,1.224,0.369,1.739C1.72,216.546,2.213,216.858,2.846,216.965z" fill="none"/>
<path d="M3.86,229.043c0.631-0.126,1.116-0.453,1.454-0.977c0.342-0.523,0.449-1.105,0.322-1.748    c-0.131-0.643-0.452-1.14-0.966-1.49c-0.517-0.352-1.091-0.464-1.719-0.338c-0.629,0.125-1.115,0.449-1.456,0.975    c-0.34,0.523-0.447,1.107-0.32,1.747c0.129,0.643,0.452,1.139,0.968,1.491C2.66,229.055,3.231,229.168,3.86,229.043z" fill="none"/>
<path d="M7.256,233.507c0.241-0.577,0.237-1.169-0.007-1.774c-0.244-0.609-0.651-1.035-1.226-1.287    c-0.571-0.251-1.155-0.254-1.75-0.016s-1.013,0.649-1.251,1.227c-0.239,0.576-0.235,1.168,0.007,1.777    c0.246,0.607,0.653,1.033,1.226,1.285c0.571,0.25,1.157,0.257,1.751,0.016C6.602,234.496,7.019,234.086,7.256,233.507z" fill="none"/>
<path d="M2.807,223.049c0.641-0.01,1.175-0.24,1.604-0.695c0.431-0.455,0.641-1.007,0.631-1.662    c-0.012-0.655-0.239-1.201-0.683-1.645c-0.445-0.438-0.986-0.652-1.627-0.643c-0.643,0.012-1.177,0.242-1.607,0.697    c-0.43,0.452-0.64,1.007-0.629,1.663c0.01,0.652,0.237,1.2,0.683,1.64C1.622,222.844,2.164,223.06,2.807,223.049z" fill="none"/>
<path d="M60.137,240.042c-0.622,0.037-1.151,0.3-1.59,0.784c-0.438,0.487-0.645,1.042-0.617,1.665    c0.025,0.626,0.276,1.153,0.752,1.583c0.476,0.431,1.026,0.624,1.648,0.587c0.624-0.04,1.153-0.301,1.591-0.787    c0.438-0.485,0.645-1.04,0.617-1.664c-0.026-0.625-0.277-1.152-0.754-1.583C61.311,240.198,60.761,240.001,60.137,240.042z" fill="none"/>
<path d="M67.371,229.875c-0.6-0.231-1.183-0.214-1.75,0.048c-0.567,0.26-0.97,0.696-1.202,1.309    c-0.234,0.611-0.227,1.203,0.022,1.777c0.248,0.572,0.674,0.975,1.27,1.203c0.6,0.229,1.183,0.213,1.75-0.047    c0.567-0.262,0.97-0.697,1.202-1.31c0.234-0.612,0.227-1.206-0.022-1.778C68.394,230.504,67.969,230.104,67.371,229.875z" fill="none"/>
<path d="M49.441,192.735c0.584,0.295,1.174,0.344,1.769,0.151c0.595-0.191,1.035-0.575,1.32-1.148    c0.287-0.573,0.328-1.157,0.125-1.747c-0.203-0.591-0.598-1.033-1.183-1.324c-0.584-0.293-1.174-0.344-1.769-0.151    c-0.595,0.19-1.035,0.575-1.32,1.149c-0.287,0.572-0.329,1.156-0.124,1.746C48.463,192.001,48.857,192.444,49.441,192.735z" fill="none"/>
<path d="M56.101,244.183c-0.62-0.073-1.189,0.087-1.708,0.486c-0.521,0.397-0.823,0.905-0.911,1.525    c-0.088,0.618,0.062,1.181,0.45,1.69c0.392,0.51,0.896,0.802,1.514,0.877c0.621,0.076,1.189-0.087,1.708-0.483    c0.521-0.4,0.823-0.908,0.913-1.526c0.088-0.618-0.063-1.183-0.45-1.69C57.225,244.55,56.72,244.26,56.101,244.183z" fill="none"/>
<path d="M51.385,247.517c-0.594-0.189-1.184-0.135-1.767,0.164c-0.584,0.294-0.976,0.74-1.174,1.332    c-0.201,0.592-0.157,1.174,0.134,1.746c0.291,0.573,0.734,0.954,1.331,1.143c0.595,0.188,1.184,0.133,1.769-0.163    c0.583-0.297,0.975-0.741,1.174-1.334c0.201-0.593,0.155-1.175-0.136-1.748C52.425,248.084,51.981,247.707,51.385,247.517z" fill="none"/>
<path d="M54.243,195.722c0.521,0.395,1.091,0.554,1.71,0.472c0.619-0.077,1.121-0.373,1.509-0.885    c0.387-0.512,0.533-1.076,0.442-1.694c-0.095-0.618-0.4-1.124-0.921-1.522c-0.521-0.395-1.093-0.551-1.712-0.471    c-0.617,0.076-1.122,0.373-1.507,0.885c-0.388,0.513-0.535,1.078-0.441,1.693C53.413,194.82,53.721,195.327,54.243,195.722z" fill="none"/>
<path d="M68.59,223.913c-0.631-0.116-1.2,0.008-1.712,0.368c-0.509,0.361-0.822,0.862-0.938,1.508    c-0.117,0.646,0,1.226,0.351,1.745c0.351,0.516,0.842,0.831,1.473,0.946c0.629,0.115,1.202-0.009,1.71-0.368    c0.51-0.36,0.825-0.865,0.94-1.507c0.117-0.647,0-1.228-0.349-1.744C69.712,224.344,69.222,224.028,68.59,223.913z" fill="none"/>
<path d="M68.67,217.798c-0.641,0.011-1.177,0.243-1.605,0.695c-0.431,0.454-0.641,1.009-0.629,1.663    c0.01,0.656,0.237,1.202,0.682,1.643c0.444,0.438,0.987,0.654,1.628,0.645c0.641-0.013,1.175-0.243,1.605-0.695    c0.43-0.455,0.64-1.01,0.629-1.664s-0.237-1.203-0.683-1.643C69.853,218.003,69.312,217.79,68.67,217.798z" fill="none"/>
<path d="M65.073,235.513c-0.547-0.337-1.123-0.429-1.728-0.275c-0.605,0.149-1.08,0.507-1.421,1.063    c-0.34,0.559-0.442,1.143-0.304,1.75c0.141,0.609,0.483,1.082,1.029,1.417c0.547,0.336,1.123,0.429,1.728,0.275    c0.605-0.152,1.078-0.506,1.42-1.064c0.344-0.558,0.443-1.142,0.306-1.749C65.961,236.321,65.62,235.847,65.073,235.513z" fill="none"/>
<path d="M61.507,202.288c-0.136,0.609-0.031,1.191,0.316,1.749c0.344,0.556,0.82,0.909,1.428,1.058    c0.605,0.147,1.181,0.053,1.726-0.287c0.543-0.339,0.883-0.813,1.019-1.425c0.134-0.608,0.029-1.192-0.314-1.749    c-0.346-0.557-0.822-0.908-1.428-1.056c-0.607-0.148-1.183-0.054-1.728,0.286C61.981,201.201,61.644,201.676,61.507,202.288z" fill="none"/>
<path d="M38.634,189.645c0.649,0.062,1.218-0.105,1.703-0.5c0.483-0.395,0.756-0.91,0.816-1.548    c0.06-0.639-0.113-1.198-0.516-1.675c-0.404-0.477-0.932-0.748-1.583-0.808c-0.649-0.063-1.217,0.104-1.702,0.499    c-0.484,0.393-0.758,0.909-0.816,1.55c-0.06,0.639,0.112,1.194,0.516,1.673C37.455,189.313,37.982,189.583,38.634,189.645z" fill="none"/>
<path d="M58.415,199.531c0.44,0.485,0.975,0.743,1.597,0.778c0.624,0.034,1.17-0.164,1.645-0.598    c0.473-0.432,0.72-0.961,0.743-1.586c0.021-0.623-0.189-1.178-0.629-1.663c-0.44-0.481-0.973-0.74-1.597-0.776    s-1.172,0.164-1.645,0.598c-0.475,0.432-0.72,0.961-0.741,1.586C57.765,198.493,57.975,199.047,58.415,199.531z" fill="none"/>
<path d="M46.134,249.931c-0.55-0.297-1.14-0.352-1.769-0.168c-0.627,0.186-1.095,0.548-1.401,1.096    c-0.302,0.546-0.366,1.126-0.188,1.742c0.181,0.615,0.547,1.071,1.097,1.367c0.552,0.294,1.141,0.35,1.769,0.165    c0.627-0.184,1.095-0.549,1.401-1.095c0.304-0.546,0.368-1.126,0.188-1.742C47.05,250.68,46.686,250.223,46.134,249.931z" fill="none"/>
<path d="M64.36,207.311c-0.244,0.575-0.248,1.17-0.012,1.779c0.239,0.609,0.641,1.043,1.21,1.301    s1.153,0.269,1.75,0.035c0.596-0.232,1.019-0.638,1.263-1.211c0.246-0.577,0.249-1.169,0.012-1.778    c-0.237-0.61-0.643-1.044-1.21-1.302c-0.569-0.257-1.151-0.27-1.75-0.035C65.025,206.332,64.605,206.738,64.36,207.311z" fill="none"/>
<path d="M44.182,190.688c0.627,0.179,1.217,0.119,1.765-0.18c0.548-0.297,0.909-0.756,1.088-1.373    c0.175-0.617,0.108-1.197-0.201-1.739c-0.308-0.544-0.777-0.906-1.404-1.085c-0.629-0.181-1.217-0.121-1.765,0.178    c-0.55,0.297-0.913,0.756-1.09,1.373c-0.175,0.617-0.108,1.197,0.199,1.741S43.551,190.507,44.182,190.688z" fill="none"/>
<path d="M40.533,251.331c-0.484-0.392-1.053-0.556-1.705-0.491c-0.649,0.065-1.174,0.338-1.576,0.818    c-0.399,0.48-0.565,1.039-0.504,1.678c0.064,0.64,0.34,1.155,0.827,1.546c0.487,0.391,1.056,0.554,1.705,0.488    c0.651-0.065,1.174-0.337,1.576-0.817c0.399-0.479,0.567-1.038,0.503-1.677C41.296,252.235,41.021,251.722,40.533,251.331z" fill="none"/>
<radialGradient cx="45.9487" cy="97.6499" gradientTransform="matrix(3.52 0 0 3.5261 -125.9984 -124.0593)" gradientUnits="userSpaceOnUse" id="XMLID_4_" r="10.8647">
<stop offset="0" style="stop-color:#DCE8E4"/>
<stop offset="1" style="stop-color:#43910A"/>
</radialGradient>
<path d="M35.736,181.961c-16.318,0-30.241,10.24-35.736,24.648v27.315    c5.495,14.41,19.418,24.646,35.736,24.646c21.128,0,38.252-17.147,38.252-38.303S56.864,181.961,35.736,181.961z M13.105,194.002    c0.083-0.62,0.38-1.133,0.894-1.537c0.516-0.404,1.083-0.572,1.705-0.504c0.62,0.069,1.129,0.357,1.524,0.863    c0.395,0.504,0.553,1.067,0.471,1.688c-0.081,0.619-0.378,1.131-0.894,1.537c-0.516,0.402-1.081,0.57-1.703,0.502    c-0.621-0.068-1.127-0.355-1.523-0.861C13.184,195.183,13.026,194.622,13.105,194.002z M9.293,196.917    c0.433-0.49,0.962-0.759,1.583-0.803c0.624-0.047,1.176,0.143,1.655,0.566c0.483,0.424,0.739,0.949,0.771,1.574    c0.031,0.624-0.168,1.182-0.602,1.674c-0.433,0.49-0.96,0.76-1.584,0.806c-0.622,0.045-1.172-0.146-1.653-0.566    c-0.481-0.425-0.736-0.952-0.77-1.575C8.659,197.967,8.86,197.409,9.293,196.917z M5.471,202.16    c0.335-0.562,0.804-0.921,1.409-1.079c0.604-0.158,1.179-0.074,1.729,0.256c0.55,0.329,0.897,0.799,1.045,1.405    c0.146,0.607,0.053,1.193-0.283,1.755c-0.335,0.561-0.806,0.921-1.41,1.078c-0.603,0.159-1.181,0.073-1.729-0.256    c-0.55-0.328-0.899-0.799-1.047-1.404C5.039,203.306,5.135,202.723,5.471,202.16z M2.671,208.015    c0.229-0.612,0.624-1.054,1.188-1.319c0.563-0.268,1.146-0.291,1.748-0.068c0.6,0.225,1.028,0.619,1.284,1.189    c0.256,0.572,0.27,1.164,0.043,1.777c-0.229,0.615-0.622,1.055-1.186,1.322c-0.563,0.267-1.148,0.287-1.75,0.065    s-1.028-0.618-1.284-1.19C2.459,209.222,2.444,208.629,2.671,208.015z M0.993,214.294c0.11-0.647,0.417-1.151,0.923-1.519    c0.507-0.368,1.074-0.498,1.705-0.391c0.633,0.108,1.126,0.418,1.483,0.932c0.354,0.515,0.478,1.095,0.368,1.74    c-0.108,0.646-0.416,1.15-0.923,1.52c-0.505,0.365-1.073,0.494-1.705,0.389c-0.631-0.107-1.125-0.419-1.48-0.932    C1.007,215.518,0.883,214.94,0.993,214.294z M1.124,219.102c0.43-0.455,0.966-0.688,1.607-0.697s1.183,0.205,1.627,0.643    c0.443,0.441,0.67,0.987,0.683,1.645c0.01,0.655-0.2,1.207-0.631,1.662c-0.43,0.455-0.964,0.688-1.604,0.695    c-0.643,0.012-1.185-0.203-1.629-0.645c-0.443-0.438-0.672-0.986-0.683-1.64C0.484,220.109,0.694,219.554,1.124,219.102z     M1.177,227.212c-0.127-0.64-0.021-1.224,0.319-1.747c0.34-0.523,0.827-0.85,1.456-0.975c0.627-0.126,1.2-0.014,1.717,0.338    c0.514,0.352,0.837,0.848,0.966,1.49s0.021,1.225-0.32,1.748s-0.823,0.851-1.454,0.977c-0.629,0.125-1.2,0.012-1.717-0.34    C1.627,228.351,1.306,227.855,1.177,227.212z M4.255,234.719c-0.571-0.252-0.978-0.678-1.226-1.285    c-0.242-0.609-0.246-1.201-0.007-1.777c0.239-0.577,0.657-0.986,1.251-1.227c0.595-0.238,1.179-0.235,1.75,0.016    c0.572,0.252,0.979,0.678,1.226,1.287c0.244,0.605,0.248,1.199,0.007,1.774c-0.237,0.579-0.655,0.988-1.25,1.228    C5.412,234.976,4.826,234.969,4.255,234.719z M7.438,240.246c-0.61-0.141-1.091-0.486-1.442-1.039    c-0.353-0.553-0.462-1.135-0.333-1.746c0.129-0.612,0.464-1.092,1.005-1.438c0.54-0.347,1.114-0.446,1.724-0.307    c0.608,0.143,1.089,0.487,1.438,1.04c0.354,0.553,0.464,1.136,0.335,1.748c-0.129,0.61-0.464,1.089-1.003,1.436    C8.621,240.285,8.047,240.387,7.438,240.246z M11.577,245.093c-0.624-0.026-1.158-0.28-1.605-0.758    c-0.445-0.479-0.66-1.029-0.646-1.654c0.016-0.625,0.258-1.157,0.725-1.595c0.469-0.439,1.016-0.644,1.64-0.616    c0.624,0.027,1.159,0.278,1.604,0.759c0.447,0.479,0.662,1.03,0.646,1.654c-0.016,0.625-0.256,1.155-0.725,1.597    C12.746,244.916,12.199,245.122,11.577,245.093z M18.022,248.201c-0.383,0.517-0.883,0.817-1.5,0.903s-1.189-0.063-1.715-0.453    c-0.524-0.388-0.837-0.891-0.937-1.509c-0.098-0.616,0.043-1.185,0.424-1.699c0.382-0.515,0.882-0.816,1.499-0.904    c0.619-0.086,1.189,0.063,1.715,0.453c0.524,0.389,0.837,0.891,0.937,1.51C18.543,247.118,18.402,247.684,18.022,248.201z     M18.442,192.038c-0.297-0.568-0.351-1.15-0.156-1.746c0.192-0.594,0.577-1.043,1.158-1.345c0.579-0.305,1.167-0.364,1.765-0.184    c0.597,0.184,1.045,0.56,1.341,1.127c0.297,0.57,0.351,1.152,0.156,1.747c-0.191,0.594-0.579,1.043-1.157,1.346    c-0.579,0.303-1.168,0.363-1.767,0.182C19.185,192.985,18.739,192.609,18.442,192.038z M23.431,250.98    c-0.28,0.577-0.716,0.965-1.308,1.164c-0.591,0.197-1.183,0.152-1.771-0.134c-0.588-0.283-0.986-0.723-1.196-1.31    c-0.209-0.589-0.175-1.173,0.105-1.749c0.278-0.577,0.717-0.965,1.306-1.164c0.593-0.197,1.184-0.153,1.771,0.132    c0.589,0.287,0.986,0.724,1.198,1.313C23.746,249.82,23.71,250.403,23.431,250.98z M23.897,189.338    c-0.189-0.613-0.132-1.195,0.168-1.744c0.297-0.549,0.762-0.92,1.385-1.109c0.626-0.191,1.215-0.143,1.771,0.146    s0.925,0.74,1.112,1.354c0.186,0.614,0.129,1.195-0.17,1.746c-0.297,0.547-0.76,0.919-1.387,1.108    c-0.625,0.189-1.215,0.143-1.769-0.148C24.454,190.403,24.083,189.955,23.897,189.338z M29.26,252.719    c-0.168,0.617-0.528,1.081-1.073,1.385c-0.545,0.306-1.132,0.371-1.765,0.198c-0.631-0.174-1.104-0.529-1.418-1.068    s-0.388-1.121-0.22-1.742c0.17-0.617,0.526-1.08,1.071-1.384c0.546-0.307,1.134-0.37,1.767-0.197    c0.631,0.172,1.104,0.528,1.42,1.069C29.354,251.519,29.428,252.099,29.26,252.719z M29.746,187.696    c-0.072-0.638,0.091-1.199,0.485-1.684c0.395-0.484,0.916-0.766,1.564-0.838c0.651-0.072,1.22,0.085,1.712,0.471    c0.491,0.387,0.771,0.898,0.845,1.535c0.069,0.639-0.093,1.2-0.488,1.685c-0.396,0.483-0.916,0.765-1.564,0.835    c-0.648,0.072-1.221-0.082-1.71-0.469C30.098,188.846,29.816,188.333,29.746,187.696z M34.502,254.908    c-0.479,0.396-1.045,0.569-1.697,0.518c-0.651-0.054-1.182-0.317-1.591-0.791c-0.407-0.474-0.586-1.027-0.533-1.668    c0.053-0.639,0.318-1.158,0.799-1.561c0.479-0.398,1.046-0.569,1.698-0.518c0.651,0.055,1.183,0.318,1.59,0.791    c0.411,0.472,0.588,1.027,0.535,1.668S34.983,254.507,34.502,254.908z M70.372,213.683c0.122,0.644,0.008,1.225-0.339,1.744    c-0.347,0.521-0.835,0.841-1.466,0.959c-0.629,0.118-1.202,0-1.714-0.358c-0.514-0.357-0.828-0.857-0.949-1.501    c-0.124-0.646-0.01-1.226,0.337-1.744c0.349-0.521,0.837-0.841,1.466-0.959c0.631-0.118,1.203,0,1.715,0.358    C69.934,212.538,70.251,213.04,70.372,213.683z M70.979,220.084c0.012,0.654-0.198,1.209-0.629,1.664    c-0.43,0.452-0.964,0.685-1.605,0.695c-0.641,0.01-1.184-0.205-1.627-0.645c-0.443-0.438-0.672-0.986-0.681-1.643    c-0.012-0.654,0.196-1.209,0.627-1.663c0.43-0.452,0.966-0.685,1.605-0.695c0.641-0.011,1.185,0.205,1.629,0.644    C70.742,218.879,70.97,219.43,70.979,220.084z M67.373,206.135c0.567,0.258,0.973,0.69,1.21,1.302    c0.237,0.609,0.234,1.201-0.012,1.778c-0.244,0.573-0.667,0.979-1.263,1.211c-0.597,0.233-1.181,0.223-1.75-0.035    s-0.971-0.691-1.21-1.301c-0.235-0.609-0.232-1.204,0.012-1.779c0.246-0.573,0.665-0.979,1.263-1.213    C66.221,205.866,66.804,205.878,67.373,206.135z M64.251,200.578c0.607,0.146,1.083,0.499,1.428,1.056    c0.346,0.557,0.45,1.141,0.314,1.749c-0.134,0.611-0.474,1.086-1.019,1.425c-0.545,0.34-1.119,0.435-1.726,0.287    c-0.607-0.148-1.083-0.502-1.428-1.058c-0.347-0.558-0.45-1.14-0.316-1.749c0.138-0.611,0.476-1.087,1.021-1.424    C63.069,200.524,63.645,200.429,64.251,200.578z M60.173,195.686c0.624,0.036,1.155,0.295,1.597,0.776    c0.44,0.485,0.65,1.04,0.629,1.663c-0.022,0.625-0.27,1.154-0.743,1.586c-0.475,0.434-1.021,0.632-1.645,0.598    c-0.622-0.035-1.155-0.293-1.597-0.778c-0.44-0.483-0.649-1.038-0.627-1.661c0.021-0.625,0.269-1.154,0.741-1.586    C59.001,195.85,59.549,195.65,60.173,195.686z M36.537,187.164c0.061-0.641,0.332-1.157,0.816-1.55    c0.485-0.395,1.052-0.562,1.702-0.499c0.651,0.06,1.179,0.331,1.583,0.808c0.402,0.477,0.574,1.036,0.516,1.675    c-0.06,0.638-0.333,1.153-0.816,1.548c-0.485,0.395-1.054,0.562-1.703,0.5c-0.65-0.063-1.179-0.332-1.582-0.809    C36.648,188.36,36.479,187.802,36.537,187.164z M40.856,254.552c-0.402,0.48-0.925,0.752-1.576,0.817    c-0.649,0.063-1.218-0.1-1.705-0.488c-0.486-0.391-0.763-0.906-0.827-1.546c-0.062-0.639,0.105-1.197,0.504-1.678    c0.402-0.48,0.926-0.753,1.576-0.818c0.652-0.063,1.221,0.1,1.705,0.491c0.486,0.392,0.763,0.904,0.827,1.545    C41.425,253.514,41.256,254.072,40.856,254.552z M42.575,187.862c0.175-0.617,0.54-1.076,1.088-1.373    c0.548-0.299,1.136-0.357,1.765-0.178c0.629,0.179,1.098,0.541,1.406,1.085c0.309,0.542,0.376,1.122,0.199,1.739    c-0.177,0.617-0.538,1.076-1.086,1.373c-0.55,0.299-1.138,0.357-1.767,0.18c-0.631-0.181-1.099-0.541-1.406-1.085    C42.465,189.059,42.399,188.479,42.575,187.862z M47.043,253.039c-0.308,0.546-0.773,0.911-1.401,1.095    c-0.627,0.185-1.217,0.129-1.769-0.165c-0.55-0.296-0.916-0.752-1.097-1.367c-0.18-0.616-0.115-1.196,0.188-1.742    c0.308-0.548,0.773-0.91,1.401-1.096c0.629-0.184,1.219-0.129,1.769,0.168c0.552,0.292,0.916,0.749,1.097,1.365    C47.411,251.913,47.348,252.493,47.043,253.039z M48.384,189.664c0.287-0.575,0.727-0.96,1.321-1.148    c0.593-0.192,1.183-0.144,1.769,0.151c0.583,0.291,0.978,0.733,1.182,1.324c0.201,0.59,0.16,1.172-0.127,1.747    c-0.284,0.573-0.726,0.956-1.318,1.148c-0.595,0.191-1.184,0.142-1.769-0.151c-0.586-0.293-0.979-0.733-1.183-1.326    C48.058,190.821,48.099,190.237,48.384,189.664z M52.851,250.405c-0.199,0.593-0.591,1.037-1.174,1.334    c-0.584,0.296-1.174,0.352-1.769,0.163c-0.597-0.188-1.04-0.569-1.331-1.143c-0.291-0.572-0.335-1.154-0.134-1.746    c0.198-0.592,0.589-1.038,1.174-1.332c0.583-0.299,1.172-0.354,1.767-0.164c0.598,0.188,1.04,0.566,1.331,1.14    S53.052,249.812,52.851,250.405z M53.764,192.506c0.387-0.512,0.89-0.809,1.509-0.885c0.619-0.08,1.189,0.076,1.71,0.471    c0.521,0.398,0.829,0.902,0.921,1.522c0.091,0.618-0.055,1.183-0.44,1.694c-0.389,0.512-0.891,0.808-1.509,0.885    c-0.621,0.082-1.189-0.077-1.712-0.472c-0.521-0.397-0.828-0.902-0.919-1.522C53.229,193.585,53.377,193.019,53.764,192.506z     M58.066,246.752c-0.088,0.62-0.392,1.128-0.911,1.527c-0.521,0.396-1.088,0.56-1.71,0.484c-0.619-0.077-1.123-0.367-1.513-0.877    c-0.39-0.512-0.54-1.074-0.452-1.692c0.088-0.618,0.392-1.128,0.911-1.525c0.521-0.397,1.09-0.56,1.708-0.484    c0.621,0.075,1.124,0.367,1.516,0.877C58.004,245.57,58.155,246.134,58.066,246.752z M61.922,243.875    c-0.438,0.486-0.967,0.747-1.591,0.785c-0.622,0.039-1.172-0.155-1.648-0.586c-0.474-0.431-0.727-0.956-0.752-1.582    c-0.026-0.625,0.179-1.18,0.617-1.665c0.438-0.484,0.968-0.749,1.59-0.785c0.624-0.041,1.174,0.155,1.648,0.586    c0.478,0.431,0.729,0.957,0.754,1.581S62.359,243.388,61.922,243.875z M65.797,238.679c-0.34,0.559-0.813,0.911-1.42,1.064    c-0.603,0.151-1.181,0.061-1.728-0.275c-0.546-0.335-0.888-0.808-1.028-1.417c-0.139-0.607-0.038-1.191,0.305-1.75    c0.342-0.557,0.814-0.912,1.419-1.063c0.605-0.153,1.183-0.062,1.729,0.275c0.545,0.334,0.889,0.808,1.03,1.417    C66.24,237.538,66.142,238.122,65.797,238.679z M68.665,232.857c-0.232,0.61-0.634,1.048-1.203,1.308    c-0.567,0.262-1.148,0.275-1.748,0.049c-0.598-0.23-1.023-0.631-1.272-1.203c-0.248-0.576-0.256-1.166-0.021-1.779    c0.232-0.611,0.634-1.047,1.201-1.309s1.15-0.277,1.75-0.048c0.597,0.231,1.021,0.632,1.271,1.203    C68.892,231.651,68.897,232.243,68.665,232.857z M70.413,226.605c-0.117,0.642-0.431,1.146-0.94,1.507    c-0.511,0.359-1.081,0.483-1.712,0.368s-1.123-0.431-1.473-0.946c-0.351-0.52-0.467-1.101-0.349-1.745    c0.115-0.646,0.43-1.146,0.938-1.508c0.51-0.36,1.079-0.484,1.712-0.368c0.63,0.115,1.121,0.432,1.473,0.948    C70.413,225.377,70.53,225.959,70.413,226.605z" fill="url(#XMLID_4_)" fill-opacity="0.3"/>
</g>
<g>
<path d="M44.603,0H0v50.404c6.122,3.79,13.655,6.031,21.806,6.031c20.492,0,37.104-14.126,37.104-31.552    C58.91,14.77,53.307,5.772,44.603,0z" fill="#7B7FD1"/>
</g>
<g>
<path d="M15.989,211.379c25.979,0,47.042-17.911,47.042-40.002c0-22.094-21.063-40.002-47.042-40.002    c-5.615,0-10.997,0.844-15.989,2.378V209C4.993,210.534,10.374,211.379,15.989,211.379z" fill="none"/>
<path d="M15.989,114.332c-5.512,0-10.866,0.57-15.989,1.637v17.786    c4.993-1.534,10.374-2.38,15.989-2.38c25.979,0,47.042,17.91,47.042,40.004c0,22.09-21.063,40-47.042,40    c-5.615,0-10.997-0.844-15.989-2.379v17.787c5.124,1.066,10.477,1.636,15.989,1.636c37.047,0,67.083-25.538,67.083-57.046    C83.072,139.872,53.037,114.332,15.989,114.332z" fill="#5DA6B1" fill-opacity="0.3"/>
</g>
<g>
<path d="M335.743,233.819c-14.125,0-25.577,9.736-25.577,21.748    c0,12.01,11.452,21.744,25.577,21.744c6.175,0,11.837-1.859,16.257-4.954v-33.581C347.58,235.678,341.916,233.819,335.743,233.819    z" fill="#A15EB6" fill-opacity="0.7"/>
</g>
<g>
<path d="M264.423,170.629c-38.584,0-71.909,19.135-87.577,46.852    c10.739,7.477,18.683,17.741,22.304,29.497c3.646-27.915,31.473-49.627,65.273-49.627c36.277,0,65.688,25.01,65.688,55.858    c0,12.63-4.938,24.281-13.255,33.639h35.131v-69.389C336.316,189.752,302.997,170.629,264.423,170.629z" fill="#A15EB6" fill-opacity="0.7"/>
</g>
<g>
<path d="M15.989,131.375c-5.615,0-10.997,0.846-15.989,2.38V209    c4.993,1.535,10.374,2.379,15.989,2.379c25.979,0,47.042-17.91,47.042-40C63.031,149.286,41.97,131.375,15.989,131.375z" fill="#4A8BE7" fill-opacity="0.3"/>
</g>
<g>
<path d="M15.989,131.375c-5.615,0-10.997,0.846-15.989,2.38V209    c4.993,1.535,10.374,2.379,15.989,2.379c25.979,0,47.042-17.91,47.042-40C63.031,149.286,41.97,131.375,15.989,131.375z" fill="#8CC2EA" fill-opacity="0.3"/>
</g>
<path d="M23.688,264.273c-0.937-0.256-1.812-0.156-2.621,0.295s-1.339,1.138-1.59,2.057   c-0.251,0.92-0.143,1.781,0.325,2.583c0.468,0.802,1.169,1.33,2.105,1.588c0.935,0.256,1.81,0.158,2.62-0.295   c0.81-0.45,1.34-1.139,1.591-2.057c0.251-0.92,0.145-1.78-0.325-2.582C25.327,265.058,24.624,264.53,23.688,264.273z" fill="none"/>
<path d="M30.633,174.885c0.964-0.106,1.741-0.52,2.326-1.237c0.586-0.722,0.827-1.556,0.72-2.5   c-0.105-0.947-0.521-1.708-1.251-2.28c-0.73-0.57-1.574-0.805-2.54-0.697c-0.964,0.107-1.738,0.521-2.324,1.24   c-0.586,0.72-0.825,1.553-0.72,2.5c0.103,0.947,0.521,1.706,1.251,2.279C28.823,174.762,29.67,174.993,30.633,174.885z" fill="none"/>
<path d="M83.202,207.731c-0.935,0.178-1.66,0.648-2.177,1.422c-0.516,0.771-0.683,1.637-0.502,2.592   c0.179,0.954,0.648,1.697,1.409,2.228c0.762,0.532,1.609,0.71,2.544,0.534c0.937-0.178,1.662-0.65,2.176-1.424   c0.516-0.771,0.684-1.635,0.503-2.59c-0.179-0.955-0.648-1.699-1.409-2.229C84.986,207.731,84.139,207.555,83.202,207.731z" fill="none"/>
<path d="M69.404,189.481c0.655,0.72,1.445,1.104,2.37,1.155c0.925,0.054,1.738-0.243,2.44-0.886   c0.703-0.642,1.069-1.428,1.102-2.354c0.034-0.929-0.279-1.749-0.934-2.47c-0.655-0.716-1.443-1.102-2.37-1.152   c-0.924-0.053-1.737,0.242-2.44,0.885c-0.703,0.642-1.069,1.427-1.104,2.355C68.437,187.94,68.75,188.763,69.404,189.481z" fill="none"/>
<path d="M73.995,193.572c-0.201,0.905-0.046,1.771,0.469,2.599c0.514,0.826,1.22,1.35,2.121,1.568   c0.899,0.222,1.753,0.078,2.561-0.426c0.808-0.503,1.313-1.207,1.513-2.113c0.201-0.904,0.044-1.773-0.468-2.598   c-0.514-0.824-1.222-1.35-2.121-1.568c-0.901-0.221-1.755-0.078-2.563,0.426C74.7,191.961,74.196,192.667,73.995,193.572z" fill="none"/>
<path d="M84.629,216.602c-0.951,0.016-1.746,0.359-2.384,1.032c-0.64,0.675-0.951,1.497-0.935,2.472   c0.017,0.971,0.354,1.783,1.014,2.436c0.66,0.652,1.466,0.973,2.417,0.955c0.952-0.016,1.746-0.357,2.384-1.032   c0.639-0.673,0.949-1.497,0.933-2.47c-0.014-0.973-0.352-1.785-1.01-2.436C86.387,216.905,85.581,216.586,84.629,216.602z" fill="none"/>
<path d="M78.23,201.034c-0.363,0.852-0.368,1.732-0.016,2.64c0.353,0.905,0.951,1.55,1.796,1.93   c0.846,0.384,1.71,0.401,2.597,0.056c0.887-0.347,1.512-0.945,1.876-1.8c0.363-0.854,0.368-1.733,0.016-2.64   c-0.354-0.906-0.951-1.551-1.796-1.934c-0.846-0.382-1.712-0.398-2.597-0.053C79.222,199.581,78.596,200.181,78.23,201.034z" fill="none"/>
<path d="M31.938,265.73c-0.968-0.081-1.808,0.175-2.521,0.77c-0.711,0.592-1.107,1.363-1.186,2.313   c-0.077,0.949,0.186,1.776,0.792,2.477c0.607,0.702,1.394,1.093,2.36,1.174c0.968,0.079,1.81-0.177,2.521-0.771   c0.713-0.593,1.108-1.361,1.188-2.314c0.079-0.948-0.188-1.774-0.792-2.476C33.694,266.2,32.907,265.809,31.938,265.73z" fill="none"/>
<path d="M8.676,256.971c-0.78-0.575-1.629-0.799-2.545-0.672c-0.919,0.129-1.66,0.577-2.226,1.343   c-0.565,0.769-0.775,1.608-0.631,2.524c0.146,0.917,0.61,1.663,1.391,2.24s1.629,0.8,2.547,0.673   c0.918-0.129,1.659-0.575,2.226-1.343c0.563-0.767,0.775-1.606,0.627-2.524C9.918,258.297,9.457,257.549,8.676,256.971z" fill="none"/>
<path d="M7.631,184.311c0.767-0.602,1.208-1.361,1.329-2.28c0.119-0.923-0.113-1.758-0.701-2.507   c-0.588-0.75-1.342-1.176-2.264-1.279c-0.921-0.104-1.765,0.146-2.528,0.748c-0.765,0.599-1.207,1.357-1.327,2.279   c-0.12,0.921,0.113,1.758,0.701,2.506c0.588,0.751,1.342,1.178,2.264,1.279C6.024,185.159,6.87,184.91,7.631,184.311z" fill="none"/>
<path d="M22.436,176.577c0.928-0.283,1.614-0.83,2.059-1.648c0.444-0.814,0.526-1.678,0.25-2.589   c-0.277-0.911-0.827-1.583-1.648-2.009c-0.823-0.43-1.698-0.504-2.628-0.219c-0.928,0.283-1.614,0.831-2.059,1.646   c-0.443,0.814-0.528,1.68-0.251,2.592c0.277,0.91,0.829,1.58,1.65,2.01C20.63,176.788,21.506,176.86,22.436,176.577z" fill="none"/>
<path d="M2.299,256.21c0.696-0.65,1.056-1.44,1.078-2.367c0.021-0.927-0.297-1.746-0.96-2.458   c-0.662-0.709-1.454-1.084-2.381-1.126c-0.014,0-0.022,0.004-0.036,0.002v6.855C0.87,257.123,1.64,256.829,2.299,256.21z" fill="none"/>
<path d="M14.671,179.76c0.861-0.449,1.434-1.115,1.721-2c0.287-0.883,0.208-1.747-0.232-2.592   c-0.44-0.844-1.103-1.402-1.99-1.672c-0.887-0.271-1.762-0.182-2.621,0.27c-0.859,0.45-1.433,1.114-1.719,1.999   c-0.287,0.882-0.209,1.747,0.232,2.591c0.44,0.848,1.103,1.404,1.988,1.674C12.938,180.3,13.812,180.209,14.671,179.76z" fill="none"/>
<path d="M1.538,190.07c0.643-0.729,0.94-1.558,0.892-2.485c-0.048-0.926-0.43-1.704-1.145-2.334   c-0.394-0.35-0.825-0.58-1.286-0.717v6.564C0.579,190.91,1.096,190.576,1.538,190.07z" fill="none"/>
<path d="M15.845,261.322c-0.87-0.426-1.748-0.489-2.625-0.194c-0.88,0.294-1.526,0.871-1.942,1.729   c-0.415,0.855-0.468,1.721-0.155,2.595c0.311,0.873,0.904,1.522,1.775,1.947c0.873,0.424,1.748,0.487,2.626,0.192   c0.88-0.294,1.526-0.868,1.942-1.727c0.416-0.855,0.468-1.722,0.155-2.595C17.311,262.395,16.718,261.746,15.845,261.322z" fill="none"/>
<path d="M65.969,255.775c-0.92-0.112-1.765,0.127-2.537,0.719c-0.77,0.591-1.222,1.349-1.353,2.268   c-0.132,0.918,0.093,1.756,0.672,2.513c0.579,0.756,1.327,1.189,2.248,1.301c0.919,0.11,1.765-0.129,2.535-0.719   c0.772-0.593,1.222-1.348,1.354-2.268c0.131-0.918-0.093-1.756-0.672-2.511C67.637,256.32,66.89,255.886,65.969,255.775z" fill="none"/>
<path d="M40.036,174.803c0.966,0.091,1.81-0.155,2.528-0.74c0.72-0.586,1.124-1.354,1.212-2.301   c0.089-0.946-0.165-1.776-0.765-2.484c-0.598-0.707-1.38-1.107-2.346-1.199c-0.969-0.09-1.81,0.158-2.53,0.742   c-0.718,0.585-1.124,1.353-1.212,2.301c-0.089,0.947,0.167,1.775,0.767,2.483C38.288,174.313,39.07,174.713,40.036,174.803z" fill="none"/>
<path d="M71.962,249.623c-0.925,0.059-1.712,0.446-2.362,1.169c-0.649,0.723-0.956,1.545-0.916,2.473   c0.04,0.926,0.413,1.71,1.119,2.347c0.708,0.641,1.522,0.93,2.447,0.873c0.925-0.059,1.714-0.445,2.362-1.169   c0.648-0.722,0.954-1.546,0.916-2.473c-0.04-0.927-0.413-1.711-1.119-2.348C73.701,249.856,72.886,249.566,71.962,249.623z" fill="none"/>
<path d="M82.701,234.528c-0.891-0.339-1.755-0.314-2.597,0.071c-0.842,0.388-1.437,1.034-1.784,1.944   c-0.347,0.908-0.335,1.787,0.035,2.64c0.368,0.852,0.997,1.445,1.887,1.786c0.889,0.341,1.753,0.316,2.597-0.07   c0.844-0.388,1.437-1.035,1.784-1.942c0.347-0.909,0.335-1.788-0.034-2.642C84.218,235.465,83.589,234.87,82.701,234.528z" fill="none"/>
<path d="M84.512,225.678c-0.938-0.17-1.784,0.012-2.542,0.548c-0.756,0.536-1.222,1.283-1.396,2.237   c-0.173,0.957,0,1.818,0.521,2.589c0.521,0.769,1.25,1.236,2.186,1.408c0.938,0.169,1.783-0.014,2.541-0.548   c0.756-0.537,1.222-1.282,1.397-2.24c0.172-0.955,0-1.817-0.521-2.587C86.177,226.319,85.449,225.849,84.512,225.678z" fill="none"/>
<path d="M79.289,242.901c-0.81-0.499-1.664-0.637-2.563-0.412c-0.899,0.227-1.602,0.755-2.109,1.581   c-0.507,0.829-0.657,1.692-0.45,2.599c0.208,0.903,0.717,1.606,1.528,2.104c0.812,0.499,1.666,0.635,2.564,0.409   c0.897-0.226,1.602-0.753,2.105-1.58c0.51-0.827,0.658-1.694,0.452-2.599C80.61,244.097,80.102,243.397,79.289,242.901z" fill="none"/>
<path d="M48.272,176.35c0.933,0.268,1.806,0.18,2.621-0.263c0.813-0.444,1.353-1.124,1.614-2.04   s0.162-1.775-0.295-2.584c-0.461-0.807-1.155-1.344-2.088-1.61c-0.934-0.267-1.808-0.179-2.621,0.265   c-0.815,0.443-1.354,1.121-1.614,2.039c-0.261,0.916-0.162,1.777,0.295,2.584C46.643,175.546,47.339,176.084,48.272,176.35z" fill="none"/>
<path d="M51.172,264.302c-0.816-0.437-1.691-0.521-2.625-0.246c-0.932,0.273-1.624,0.814-2.076,1.626   c-0.454,0.81-0.548,1.671-0.28,2.587c0.267,0.916,0.812,1.591,1.628,2.028c0.818,0.439,1.691,0.521,2.625,0.248   c0.933-0.273,1.625-0.816,2.08-1.625c0.452-0.812,0.545-1.672,0.276-2.588C52.533,265.417,51.992,264.742,51.172,264.302z" fill="none"/>
<path d="M42.858,266.382c-0.724-0.58-1.567-0.822-2.534-0.727c-0.966,0.097-1.743,0.501-2.337,1.214   c-0.593,0.711-0.844,1.543-0.748,2.489c0.095,0.949,0.503,1.713,1.226,2.295c0.724,0.58,1.567,0.821,2.532,0.728   c0.966-0.097,1.746-0.502,2.339-1.216c0.595-0.712,0.844-1.543,0.748-2.49C43.989,267.726,43.582,266.962,42.858,266.382z" fill="none"/>
<path d="M58.97,260.723c-0.885-0.281-1.76-0.199-2.625,0.238c-0.866,0.441-1.447,1.103-1.745,1.982   c-0.297,0.879-0.229,1.744,0.201,2.595c0.433,0.851,1.09,1.413,1.973,1.694c0.885,0.278,1.76,0.196,2.626-0.243   c0.864-0.44,1.447-1.101,1.743-1.979c0.295-0.88,0.229-1.745-0.201-2.595C60.51,261.566,59.853,261.001,58.97,260.723z" fill="none"/>
<path d="M56.083,179.393c0.868,0.436,1.744,0.51,2.626,0.225s1.535-0.854,1.959-1.705   c0.426-0.853,0.488-1.717,0.188-2.595c-0.304-0.876-0.889-1.532-1.757-1.966c-0.868-0.436-1.743-0.512-2.625-0.228   c-0.882,0.288-1.535,0.854-1.961,1.706c-0.425,0.854-0.486,1.719-0.186,2.595C54.63,178.301,55.214,178.959,56.083,179.393z" fill="none"/>
<path d="M63.21,183.825c0.775,0.586,1.623,0.822,2.542,0.703c0.918-0.117,1.664-0.557,2.238-1.314   c0.574-0.759,0.792-1.6,0.657-2.517c-0.138-0.918-0.593-1.669-1.367-2.257c-0.775-0.588-1.621-0.82-2.542-0.703   c-0.917,0.117-1.664,0.557-2.238,1.315c-0.574,0.759-0.792,1.599-0.655,2.516C61.981,182.487,62.437,183.238,63.21,183.825z" fill="none"/>
</g>
</svg>
