<?xml version="1.0" encoding="UTF-8"?>
<!DOCTYPE svg PUBLIC "-//W3C//DTD SVG 1.1 Tiny//EN" "http://www.w3.org/Graphics/SVG/1.1/DTD/svg11-tiny.dtd">
<svg width="70" height="22" viewBox="0 0 70 22">
<rect height="10" width="12" x="31" y="6"/>
<path d="M51,15.646h-4V5.431C47,3.539,45.446,2,43.536,2H24.465C22.554,2,21,3.539,21,5.431v11.14 c0,1.891,1.554,3.43,3.465,3.43h19.071c1.394,0,2.589-0.823,3.139-2H51V15.646z M45,16.57c0,0.788-0.656,1.43-1.464,1.43H24.465 C23.657,18,23,17.358,23,16.57V5.431C23,4.642,23.657,4,24.465,4h19.071C44.344,4,45,4.642,45,5.431V16.57z"/>
</svg>