<?xml version="1.0" encoding="UTF-8"?>
<!DOCTYPE svg PUBLIC "-//W3C//DTD SVG 1.1 Tiny//EN" "http://www.w3.org/Graphics/SVG/1.1/DTD/svg11-tiny.dtd">
<svg width="16" height="16" viewBox="0 0 16 16">
<path d="M7.972,1.989L1.928,5.278l11.173,1.725L7.972,1.989z M6.364,11.498l-4.436-6.22 l0.633,6.791l10.206,2.179l0.046,0.028l0.288-7.272L6.364,11.498z" fill="#A2C2DD"/>
<polygon fill="#496DA2" points="14.108,6.487 13.101,7.003 13.101,7.003 13.101,7.003 13.101,7.003 12.813,14.221 8.892,9.774 8.068,10.314 11.903,14.053 12.791,14.23 12.812,14.234 12.812,14.248 12.812,14.253 12.815,14.251 13.901,13.611 "/>
<polygon fill="#496DA2" points="5.724,10.602 5.298,10.008 2.537,12.056 3.089,12.174 "/>
<polygon fill="#A2C2DD" points="6.37,11.524 13.101,7.003 1.928,5.278 1.928,5.278 "/>
<polygon fill="#496DA2" points="13.101,7.003 14.108,6.487 8.452,1.737 7.972,1.989 7.972,1.989 "/>
<polygon fill="#E1EBF4" points="6.364,11.498 6.963,11.134 2.369,5.342 1.928,5.278 1.928,5.278 1.928,5.278 "/>
</svg>