<?xml version="1.0" encoding="UTF-8"?>
<!DOCTYPE svg PUBLIC "-//W3C//DTD SVG 1.1 Tiny//EN" "http://www.w3.org/Graphics/SVG/1.1/DTD/svg11-tiny.dtd">
<svg width="36" height="36" viewBox="0 0 36 36">
<path d="M1.113,17.4c0,8.979,7.307,16.286,16.287,16.286 c8.981,0,16.286-7.307,16.286-16.286c0-8.98-7.305-16.286-16.286-16.286C8.42,1.115,1.113,8.42,1.113,17.4z" fill-opacity="0.01" />
<path d="M1.825,17.4c0,8.588,6.986,15.574,15.575,15.574 c8.59,0,15.577-6.986,15.577-15.574S25.99,1.827,17.4,1.827C8.811,1.827,1.825,8.813,1.825,17.4z" fill-opacity="0.02" />
<path d="M2.535,17.4c0,8.195,6.669,14.864,14.865,14.864 c8.198,0,14.864-6.668,14.864-14.864c0-8.198-6.666-14.864-14.864-14.864C9.204,2.537,2.535,9.203,2.535,17.4z" fill-opacity="0.04" />
<path d="M3.135,17.4c0,7.866,6.399,14.262,14.265,14.262 c7.864,0,14.262-6.396,14.262-14.262c0-7.865-6.398-14.264-14.262-14.264C9.534,3.137,3.135,9.536,3.135,17.4z" fill-opacity="0.07" />
<linearGradient id="_5" gradientUnits="userSpaceOnUse" x1="18" y1="31.87" x2="18" y2="9.68">
<stop stop-color="#8CC2EA" offset="0"/>
<stop stop-color="#0046B7" offset="1"/>
</linearGradient>
<path d="M18,3.784C10.16,3.784,3.781,10.161,3.781,18 c0,7.839,6.379,14.216,14.219,14.216c7.839,0,14.218-6.377,14.218-14.216C32.218,10.161,25.839,3.784,18,3.784z" fill="url(#_5)"/>
<linearGradient id="_6" gradientUnits="userSpaceOnUse" x1="18" y1="33.91" x2="18" y2="5.01">
<stop stop-color="#8CC2EA" offset="0"/>
<stop stop-color="#4583D0" offset="0.52"/>
<stop stop-color="#0046B7" offset="1"/>
</linearGradient>
<path d="M18,4.947c-7.199,0-13.055,5.856-13.055,13.055 c0,7.195,5.855,13.05,13.055,13.05c7.198,0,13.055-5.855,13.055-13.05C31.055,10.804,25.198,4.947,18,4.947z" fill="url(#_6)"/>
<linearGradient id="_7" gradientUnits="userSpaceOnUse" x1="18" y1="30.14" x2="18" y2="2.58">
<stop stop-color="#8CC2EA" offset="0"/>
<stop stop-color="#74A9E2" offset="0.15"/>
<stop stop-color="#588CD8" offset="0.37"/>
<stop stop-color="#4377D2" offset="0.59"/>
<stop stop-color="#376ACD" offset="0.8"/>
<stop stop-color="#3366CC" offset="1"/>
</linearGradient>
<path d="M18,5.711c-6.777,0-12.291,5.513-12.291,12.291 c0,6.774,5.514,12.288,12.291,12.288s12.292-5.514,12.292-12.288C30.292,11.224,24.777,5.711,18,5.711z" fill="url(#_7)"/>
<linearGradient id="_8" gradientUnits="userSpaceOnUse" x1="23.89" y1="28.37" x2="12.57" y2="8.44">
<stop stop-color="#8CC2EA" offset="0"/>
<stop stop-color="#5AA7E0" offset="1"/>
</linearGradient>
<circle cx="18.001" cy="18.001" fill="url(#_8)" r="11.58"/>
<path d="M17.045,14.141l0.019,5.117c-1.863-0.412-3.827,2.473-1.661,2.874 c1.393,0.193,2.627-1.104,2.627-1.913c0-0.217-0.006-3.739-0.006-3.739l2.076,1.105l-0.004-1.711L17.045,14.141z" fill="#3366CC"/>
<path d="M10.221,10.66l-1.764,2.009L8.48,24.474h18.481V12.156l-8.759,0.017l-1.357-1.53 L10.221,10.66z M16.154,12.197l1.354,1.52h7.882l0.023,9.225H9.992v-9.688l0.928-1.057H16.154z" fill="#3366CC"/>
</svg>