<?xml version="1.0" encoding="UTF-8"?>
<!DOCTYPE svg PUBLIC "-//W3C//DTD SVG 1.1 Tiny//EN" "http://www.w3.org/Graphics/SVG/1.1/DTD/svg11-tiny.dtd">
<svg baseProfile="tiny" height="60" version="1.1" viewBox="0 0 60 60" width="60" xmlns="http://www.w3.org/2000/svg" xmlns:xlink="http://www.w3.org/1999/xlink">
<path d="M36.982,37.828l0.002-2.201c-1.525,0.143-3.061,0.132-4.582-0.031v2.196c-1.162-0.127-2.318-0.332-3.454-0.636l-0.057-0.002  l5.942,5.941l5.937-5.935C39.525,37.493,38.259,37.708,36.982,37.828z"/>
<path d="M22.852,12.626c0,2.728,1.893,5.015,4.432,5.634c-0.296-0.846-0.467-1.75-0.475-2.693c-0.977-0.617-1.635-1.7-1.635-2.941  c0-1.918,1.563-3.481,3.483-3.481c0.33,0,0.646,0.062,0.953,0.149c0.678-0.606,1.453-1.107,2.305-1.464  c-0.931-0.633-2.051-1.005-3.257-1.005C25.456,6.824,22.852,9.427,22.852,12.626z M28.063,21.914  c0.271-0.331,0.546-0.64,0.839-0.895c-0.386-0.436-0.721-0.916-1.012-1.426h-2.807c-1.657,0-3.295,3.881-4.42,7.142  c-1.125,3.261-1.708,5.628-1.708,5.628h2.641c0-0.408,0.543-2.563,1.437-5.201c0.97-2.602,1.692-4.164,2.494-5.248H28.063z   M21.596,19.037c0.266-0.33,0.542-0.639,0.836-0.896c-0.387-0.435-0.721-0.915-1.011-1.426h-2.808c-1.658,0-3.294,3.881-4.42,7.143  c-1.126,3.26-1.708,5.629-1.708,5.629h2.64c0-0.409,0.543-2.563,1.436-5.201c0.971-2.603,1.691-4.165,2.494-5.249H21.596z   M20.814,15.383c-0.297-0.844-0.468-1.749-0.474-2.691c-0.979-0.619-1.635-1.702-1.635-2.94c0-1.92,1.561-3.483,3.481-3.483  c0.333,0,0.647,0.062,0.953,0.149c0.681-0.605,1.454-1.106,2.306-1.464c-0.93-0.634-2.052-1.006-3.259-1.006  c-3.201,0-5.804,2.604-5.804,5.803C16.382,12.478,18.274,14.766,20.814,15.383z"/>
<path d="M29.325,15.502c0,3.2,2.6,5.803,5.799,5.803c3.201,0,5.808-2.603,5.808-5.803  c0-3.198-2.605-5.802-5.808-5.802C31.924,9.7,29.325,12.304,29.325,15.502z M35.124,12.021c1.924,0,3.485,1.563,3.485,3.481  c0,1.921-1.563,3.481-3.485,3.481c-1.918,0-3.479-1.56-3.479-3.481C31.643,13.583,33.206,12.021,35.124,12.021z M43.027,29.61  c-1.125-3.264-2.764-7.142-4.418-7.142h-3.438h-3.617c-1.658,0-3.295,3.878-4.423,7.142c-1.125,3.26-1.707,5.628-1.707,5.628h2.638  c0-0.409,0.546-2.563,1.439-5.2c0.971-2.604,1.693-4.165,2.492-5.248h3.178h2.994c0.803,1.083,1.523,2.645,2.494,5.248  c0.893,2.64,1.438,4.791,1.438,5.2h2.641C44.738,35.238,44.154,32.87,43.027,29.61z" fill="#BF111A"/>
<path d="M46.227,50.76c-0.129-0.982-2.625-5.955-11.343-5.996h-0.108c-8.715,0.041-11.211,5.014-11.341,5.996  c-0.096,0.715-0.203,1.521-0.008,2.516c0.057,0.236,0.221,0.625,0.526,0.918c0.305,0.291,1.43,0.529,3.221,0.449  c1.791-0.078,2.905-0.472,3.339-0.744l0.246-0.155l0.023-0.292c0.017-0.186,0.012-0.381-0.016-0.594  c-0.101-0.908-1.093-2.024-1.104-2.037l-0.152-0.172l0.065-0.223c0.028-0.093,0.738-2.347,5.256-2.431  c4.518,0.084,5.229,2.338,5.255,2.431l0.065,0.223l-0.152,0.172c-0.012,0.013-1.004,1.129-1.105,2.037  c-0.026,0.213-0.029,0.408-0.015,0.594l0.022,0.292l0.248,0.155c0.434,0.272,1.549,0.666,3.338,0.744  c1.791,0.08,2.916-0.158,3.222-0.449c0.306-0.293,0.47-0.682,0.526-0.918C46.43,52.281,46.323,51.475,46.227,50.76z" fill="#BF111A"/>
<rect fill="none" height="60" width="60"/>
</svg>
