<?xml version="1.0" encoding="UTF-8"?>
<!DOCTYPE svg PUBLIC "-//W3C//DTD SVG 1.1 Tiny//EN" "http://www.w3.org/Graphics/SVG/1.1/DTD/svg11-tiny.dtd">
<svg baseProfile="tiny" height="26px" version="1.1" viewBox="0 0 26 26" width="26px" x="0px" xmlns="http://www.w3.org/2000/svg" xmlns:xlink="http://www.w3.org/1999/xlink" y="0px">
<g>
<path d="M18.677,22.178l-3.664-3.635c-1.053,0.512-2.209,0.781-3.377,0.781c-4.286,0-7.773-3.485-7.773-7.771   c0-4.284,3.487-7.769,7.773-7.769c4.289,0,7.776,3.485,7.776,7.769c0,1.276-0.315,2.524-0.918,3.649l3.666,3.632L18.677,22.178   L18.677,22.178z M7.542,13.191c0.652,1.62,2.241,2.767,4.093,2.767c1.853,0,3.444-1.147,4.095-2.767H7.542L7.542,13.191z    M7.544,9.912h8.184c-0.653-1.617-2.242-2.761-4.093-2.761C9.786,7.15,8.197,8.294,7.544,9.912L7.544,9.912z"/>
<path d="M17.466,15.335c0.711-1.092,1.129-2.382,1.129-3.781c0-3.833-3.12-6.953-6.958-6.953   c-3.836,0-6.958,3.119-6.958,6.953c0,3.834,3.121,6.954,6.958,6.954c1.287,0,2.488-0.357,3.523-0.971l3.527,3.499l2.303-2.21   L17.466,15.335z M11.636,16.775c-2.881,0-5.227-2.342-5.227-5.221c0-2.878,2.346-5.22,5.227-5.22s5.227,2.342,5.227,5.22   C16.863,14.433,14.518,16.775,11.636,16.775z M7.767,12.374h7.763v-1.646H7.767V12.374z" fill="#3C977B"/>
<rect fill="none" height="26" width="26"/>
</g>
</svg>
