<?xml version="1.0" encoding="UTF-8"?>
<!DOCTYPE svg PUBLIC "-//W3C//DTD SVG 1.1 Tiny//EN" "http://www.w3.org/Graphics/SVG/1.1/DTD/svg11-tiny.dtd">
<svg width="12" height="200" viewBox="-0.5 -0.03 12 200">
<path fill-opacity="0.7" fill="#003184" d="M-0.5,49.431v115.125c0,2.91,2.804,5.414,6,5.414s6-2.504,6-5.414V49.431 c0-1.461-0.681-2.852-1.915-3.912C8.439,44.534,6.951,43.97,5.5,43.97C2.304,43.97-0.5,46.521-0.5,49.431z"/>
<linearGradient id="_3" gradientUnits="userSpaceOnUse" x1="5.5" y1="44.97" x2="5.5" y2="168.97">
<stop stop-color="#E4E6EF" offset="0"/>
<stop stop-color="#BA4C96" offset="1"/>
</linearGradient>
<path fill="url(#_3)" d="M5.5,168.97c-2.484,0-5-1.951-5-4.414V49.431c0-2.463,2.516-4.461,5-4.461l0,0 c2.487,0,5,1.998,5,4.461v115.125C10.5,167.019,7.987,168.97,5.5,168.97L5.5,168.97z"/>
<linearGradient id="_4" gradientUnits="userSpaceOnUse" x1="5.5" y1="44.97" x2="5.5" y2="106.89">
<stop stop-color="#FFFFFF" offset="0"/>
<stop stop-color="#CEDFF2" offset="1"/>
</linearGradient>
<path fill="url(#_4)" d="M5.5,44.97c-2.484,0-5,1.998-5,4.461v57.463h1V49.845c0-1.916,2.067-3.422,4-3.422 c1.935,0,4,1.506,4,3.422v57.049h1V49.431C10.5,46.968,7.987,44.97,5.5,44.97z"/>
<path fill="#CADCEC" d="M9.5,164.548c0,1.916-2.065,3.422-4,3.422c-1.933,0-4-1.506-4-3.422v-57.654h-1v57.662 c0,2.463,2.516,4.414,5,4.414c2.487,0,5-1.951,5-4.414v-57.662h-1V164.548z"/>
</svg>