<?xml version="1.0" encoding="UTF-8"?>
<!DOCTYPE svg PUBLIC "-//W3C//DTD SVG 1.1 Tiny//EN" "http://www.w3.org/Graphics/SVG/1.1/DTD/svg11-tiny.dtd">
<svg width="12" height="200" viewBox="-0.5 -0.03 12 200">
<path fill-opacity="0.5" fill="#87A8CB" d="M-0.5,49.431v115.127c0,2.908,2.804,5.287,6,5.287s6-2.379,6-5.287V49.431 c0-1.461-0.681-2.85-1.915-3.912C8.439,44.534,6.951,43.97,5.5,43.97C2.304,43.97-0.5,46.522-0.5,49.431z"/>
<path fill="#DEE9F3" d="M5.5,168.845c-2.484,0-5-1.826-5-4.287V49.431c0-2.463,2.516-4.461,5-4.461l0,0c2.487,0,5,1.998,5,4.461 v115.127C10.5,167.019,7.987,168.845,5.5,168.845L5.5,168.845z"/>
</svg>