<?xml version="1.0" encoding="UTF-8"?>
<!DOCTYPE svg PUBLIC "-//W3C//DTD SVG 1.1 Tiny//EN" "http://www.w3.org/Graphics/SVG/1.1/DTD/svg11-tiny.dtd">
<svg width="100%" height="100%" viewBox="0 0 88 88">
<linearGradient id="_15" gradientUnits="userSpaceOnUse" x1="48.85" y1="55.41" x2="53.56" y2="71.34">
<stop stop-color="#A2C2DD" offset="0.1"/>
<stop stop-color="#6C83BB" offset="0.71"/>
<stop stop-color="#003D6D" offset="0.99"/>
</linearGradient>
<path fill="url(#_15)" d="M34.073,15.995l3.109,3.157l-19.807-2.149l-5.96,1.386l0.59,5.194l1.042,0.188 c0,0-6.425,8.156-6.492,8.242c-1.285,0.979-1.396,1.857-1.496,2.334C4.097,40.121,7.181,49.537,15.451,50.31 c7.781,0.727,13.604-7.21,14.033-13.669c-0.096-0.465-0.212-2.41-3.379-4.182c-0.142-0.354-2.743-6.82-2.743-6.82l9.407,1.703 l-1.604,35.482l-3.008,2.306l-0.217,6.354l19.559,5.424l10.146-7.967l-1.271-6.18l-3.99-2.456l-1.976-27.668l14.646,4.819 c0,0-6.914,9.497-6.914,9.488c-1.15,0.937-1.418,1.813-1.559,2.563c-1.082,9.076,4.053,17.551,11.9,18.259 c10.352,0.935,15.992-10.595,16.043-15.822c-0.174-0.915-0.551-2.8-3.943-4.649c0.059,0.014-4.154-8.094-4.154-8.094l3.396-1.699 l0.328-8.354l-30.678-8.281l-4.921-0.718l4.222-4.44l-7.555-6.006L34.073,15.995z M16.772,24.445 c0.664,0.121,2.195,0.398,2.826,0.512c0.111,0.721,0.639,4.156,0.848,5.517c-1.777-0.347-4.478-0.597-6.339-0.544 C14.809,28.486,16.437,25.137,16.772,24.445z M68.317,38.531l3.879,1.275c0,0,1.172,5.105,1.152,5.097 c-2.143-0.381-5.57-0.548-8.006-0.317C65.327,44.6,68.317,38.531,68.317,38.531z"/>
<linearGradient id="_16" gradientUnits="userSpaceOnUse" x1="16.99" y1="31.64" x2="7.95" y2="26.34">
<stop stop-color="#E6EEF4" offset="0"/>
<stop stop-color="#9646AC" offset="0.44"/>
<stop stop-color="#3D013F" offset="0.94"/>
</linearGradient>
<polygon fill="url(#_16)" points="16.729,22.939 12.38,31.889 6.052,33.787 15.277,22.074 "/>
<linearGradient id="_17" gradientUnits="userSpaceOnUse" x1="3.87" y1="38.76" x2="32.6" y2="45.73">
<stop stop-color="#E6EEF4" offset="0"/>
<stop stop-color="#9646AC" offset="0.44"/>
<stop stop-color="#3D013F" offset="0.94"/>
</linearGradient>
<path fill="url(#_17)" d="M28.778,36.668c-0.929,7.755-6.933,13.528-13.261,12.944 c-6.328-0.585-10.703-7.349-9.774-15.106L28.778,36.668"/>
<linearGradient id="_18" gradientUnits="userSpaceOnUse" x1="15.35" y1="25.38" x2="18.59" y2="42.91">
<stop stop-color="#E6EEF4" offset="0"/>
<stop stop-color="#9646AC" offset="0.44"/>
<stop stop-color="#3D013F" offset="0.94"/>
</linearGradient>
<path fill="url(#_18)" d="M28.66,36.779c-0.345,2.637-5.737,4.23-12.051,3.56c-6.316-0.671-11.152-3.353-10.808-5.993 c0.342-2.637,5.74-4.232,12.052-3.562C24.166,31.455,29.004,34.141,28.66,36.779z"/>
<linearGradient id="_19" gradientUnits="userSpaceOnUse" x1="17.1" y1="32.78" x2="27.35" y2="31.28">
<stop stop-color="#E6EEF4" offset="0"/>
<stop stop-color="#9646AC" offset="0.44"/>
<stop stop-color="#3D013F" offset="0.94"/>
</linearGradient>
<polygon fill="url(#_19)" points="21.953,24.005 27.778,38.49 22.678,40.369 20.149,23.922 "/>
<linearGradient id="_20" gradientUnits="userSpaceOnUse" x1="68.31" y1="44.97" x2="60.49" y2="40.38">
<stop stop-color="#E6EEF4" offset="0"/>
<stop stop-color="#B94994" offset="0.44"/>
<stop stop-color="#3D013F" offset="0.94"/>
</linearGradient>
<polygon fill="url(#_20)" points="67.418,35.402 57.786,48.623 64.034,45.664 69.004,35.55 "/>
<linearGradient id="_21" gradientUnits="userSpaceOnUse" x1="55.1" y1="54.54" x2="88.25" y2="62.58">
<stop stop-color="#E6EEF4" offset="0"/>
<stop stop-color="#B94994" offset="0.44"/>
<stop stop-color="#3D013F" offset="0.94"/>
</linearGradient>
<path fill="url(#_21)" d="M83.848,52.129c-1.072,8.951-8,15.612-15.301,14.941c-7.301-0.68-12.35-8.48-11.277-17.434 L83.848,52.129"/>
<linearGradient id="_22" gradientUnits="userSpaceOnUse" x1="68.35" y1="39.11" x2="72.09" y2="59.34">
<stop stop-color="#E6EEF4" offset="0"/>
<stop stop-color="#B94994" offset="0.44"/>
<stop stop-color="#3D013F" offset="0.94"/>
</linearGradient>
<path fill="url(#_22)" d="M83.711,52.258c-0.396,3.045-6.621,4.885-13.906,4.108 c-7.285-0.772-12.867-3.869-12.471-6.913s6.625-4.885,13.908-4.109C78.526,46.118,84.11,49.214,83.711,52.258z"/>
<linearGradient id="_23" gradientUnits="userSpaceOnUse" x1="71.03" y1="47.51" x2="80.28" y2="44.26">
<stop stop-color="#E6EEF4" offset="0"/>
<stop stop-color="#B94994" offset="0.44"/>
<stop stop-color="#3D013F" offset="0.94"/>
</linearGradient>
<polygon fill="url(#_23)" points="73.952,35.91 83.063,53.658 76.672,56.41 72.112,36.259 "/>
<linearGradient id="_24" gradientUnits="userSpaceOnUse" x1="31.64" y1="25.87" x2="64.81" y2="72.82">
<stop stop-color="#FFFFFF" offset="0"/>
<stop stop-color="#496DA2" offset="0.71"/>
<stop stop-color="#235487" offset="0.99"/>
</linearGradient>
<polygon fill="url(#_24)" points="56.874,68.658 55.75,63.199 51.719,60.807 48.975,22.375 42.213,24.563 41.911,65.877 47.347,76.139 "/>
<linearGradient id="_25" gradientUnits="userSpaceOnUse" x1="41.03" y1="33.86" x2="48.93" y2="18.05">
<stop stop-color="#FFFFFF" offset="0.1"/>
<stop stop-color="#D1E1EE" offset="0.7"/>
<stop stop-color="#A2C2DD" offset="1"/>
</linearGradient>
<polygon fill="url(#_25)" points="38.877,20.033 17.421,17.711 12.184,18.929 73.762,31.966 79.432,29.679 49.292,21.543 "/>
<polygon fill="#6C83BB" points="73.694,31.968 73.963,39.651 79.141,37.062 79.409,29.746 "/>
<linearGradient id="_26" gradientUnits="userSpaceOnUse" x1="43.33" y1="64.66" x2="55.75" y2="64.66">
<stop stop-color="#FFFFFF" offset="0.15"/>
<stop stop-color="#A2C2DD" offset="1"/>
</linearGradient>
<polygon fill="url(#_26)" points="43.333,64.727 51.727,60.707 55.75,63.199 46.746,68.609 "/>
<linearGradient id="_27" gradientUnits="userSpaceOnUse" x1="19.53" y1="-13.2" x2="49.43" y2="47.83">
<stop stop-color="#FFFFFF" offset="0.15"/>
<stop stop-color="#A2C2DD" offset="1"/>
</linearGradient>
<polygon fill="url(#_27)" points="43.333,64.727 42.452,29.282 73.963,39.651 73.762,31.966 42.33,23.635 33.755,21.629 12.184,18.929 12.645,22.986 33.498,26.762 31.852,63.182 28.848,65.484 28.661,70.957 47.348,76.053 46.746,68.609 "/>
<polygon fill="#A2C2DD" points="42.935,20.791 47.7,15.758 41.244,10.615 35.092,16.03 39.249,20.25 34.166,21.702 42.91,23.566 48.72,21.641 "/>
<linearGradient id="_28" gradientUnits="userSpaceOnUse" x1="45.3" y1="15.7" x2="31.38" y2="11.06">
<stop stop-color="#FFFFFF" offset="0.15"/>
<stop stop-color="#A2C2DD" offset="1"/>
</linearGradient>
<polygon fill="url(#_28)" points="41.239,10.615 35.087,16.03 43.348,17.335 "/>
<polygon fill="#6C83BB" points="43.348,17.319 41.433,22.424 47.742,15.758 "/>
</svg>