<?xml version="1.0" encoding="UTF-8"?>
<!DOCTYPE svg PUBLIC "-//W3C//DTD SVG 1.1 Tiny//EN" "http://www.w3.org/Graphics/SVG/1.1/DTD/svg11-tiny.dtd">
<svg width="50" height="50" viewBox="0 0 50 50">
<linearGradient id="_4" gradientUnits="userSpaceOnUse" x1="25" y1="25.35" x2="25" y2="43.55">
<stop stop-color="#B3DDFF" offset="0"/>
<stop stop-color="#8CC2EA" offset="1"/>
</linearGradient>
<path fill="url(#_4)" d="M43.671,25c0,10.311-8.358,18.669-18.671,18.669C14.687,43.669,6.332,35.311,6.332,25H5.254 c0,10.887,8.857,19.743,19.746,19.743S44.748,35.887,44.748,25H43.671z"/>
<path fill-opacity="0.01" d="M3.215,25.834c0,12.472,10.148,22.617,22.619,22.617c12.473,0,22.619-10.146,22.619-22.617 c0-12.473-10.146-22.621-22.619-22.621C13.363,3.213,3.215,13.361,3.215,25.834z"/>
<path fill-opacity="0.02" d="M4.2,25.834c0,11.927,9.706,21.631,21.634,21.631c11.929,0,21.632-9.704,21.632-21.631 c0-11.929-9.703-21.631-21.632-21.631C13.906,4.203,4.2,13.905,4.2,25.834z"/>
<path fill-opacity="0.04" d="M5.188,25.834c0,11.381,9.263,20.643,20.646,20.643c11.386,0,20.643-9.262,20.643-20.643 c0-11.387-9.257-20.645-20.643-20.645C14.45,5.189,5.188,14.447,5.188,25.834z"/>
<path fill-opacity="0.07" d="M6.021,25.834c0,10.923,8.888,19.809,19.813,19.809c10.923,0,19.81-8.886,19.81-19.809 c0-10.924-8.887-19.812-19.81-19.812C14.909,6.022,6.021,14.91,6.021,25.834z"/>
<path fill-opacity="0.11" d="M6.855,25.834c0,10.463,8.513,18.976,18.979,18.976c10.464,0,18.976-8.513,18.976-18.976 c0-10.465-8.512-18.979-18.976-18.979C15.369,6.855,6.855,15.369,6.855,25.834z"/>
<path fill-opacity="0.13" d="M7.688,25.834c0,10.004,8.14,18.142,18.146,18.142c10.004,0,18.143-8.138,18.143-18.142 c0-10.006-8.139-18.145-18.143-18.145C15.828,7.689,7.688,15.828,7.688,25.834z"/>
<linearGradient id="_5" gradientUnits="userSpaceOnUse" x1="25" y1="7.04" x2="25" y2="42.68">
<stop stop-color="#FFFFFF" offset="0"/>
<stop stop-color="#EAF7FF" offset="0.32"/>
<stop stop-color="#D6EFFF" offset="0.73"/>
<stop stop-color="#CFECFF" offset="1"/>
</linearGradient>
<circle fill="url(#_5)" cx="25.001" cy="25.001" r="18.669"/>
<ellipse fill-opacity="0.2" fill="#FFFFFF" cx="25.001" cy="25.021" rx="16.128" ry="13.164"/>
<linearGradient id="_6" gradientUnits="userSpaceOnUse" x1="25" y1="5.62" x2="25" y2="44.34">
<stop stop-color="#CFECFF" offset="0"/>
<stop stop-color="#8CC2EA" offset="1"/>
</linearGradient>
<path fill="url(#_6)" d="M25,5.256c-10.889,0-19.746,8.857-19.746,19.745c0,10.886,8.857,19.742,19.746,19.742 s19.748-8.856,19.748-19.742C44.748,14.113,35.889,5.256,25,5.256z M25,43.668c-10.313,0-18.668-8.355-18.668-18.667 S14.687,6.33,25,6.33c10.313,0,18.671,8.359,18.671,18.671S35.313,43.668,25,43.668z"/>
<polygon fill="#B3DDFF" points="25.556,18.084 25.556,34.121 36.475,26.089 "/>
<rect x="18.316" y="18.091" fill="#B3DDFF" width="4.09" height="16.028"/>
</svg>