<?xml version="1.0" encoding="UTF-8"?>
<!DOCTYPE svg PUBLIC "-//W3C//DTD SVG 1.1 Tiny//EN" "http://www.w3.org/Graphics/SVG/1.1/DTD/svg11-tiny.dtd">
<svg baseProfile="tiny" height="44" viewBox="-2.975 -2.998 44 44" width="44" xmlns="http://www.w3.org/2000/svg" xmlns:xlink="http://www.w3.org/1999/xlink">
<path d="M28.627,37c-0.778-0.225-1.479-1.021-1.479-1.021l-6.97-7.592 c-0.658-0.6-1.001-2.021-1.001-2.021C14.412,28.4,8.093,27.645,4.069,23.45C-4.95,14.056,2.238,0,13.785,0 c9.63,0,16.604,9.916,12.63,19.134c0,0,1.432,0.354,1.992,1.019l7.602,6.979c0,0,0.801,0.766,1.023,1.489 c1.395,1.673,1.479,4.676-1.115,7.272C32.962,38.848,30.025,38.182,28.627,37z M5.818,5.767L2.51,13.741l3.308,7.969l7.967,3.3 l7.972-3.303l3.3-7.97l-3.302-7.971l-7.964-3.3L5.818,5.767z" fill="#FFFFFF" fill-opacity="0.6"/>
<linearGradient gradientUnits="userSpaceOnUse" id="_56" x1="19.02" x2="19.02" y1="-11.59" y2="24.8">
<stop offset="0" stop-color="#CCCCCC"/>
<stop offset="1" stop-color="#000000"/>
</linearGradient>
<path d="M29.576,35.416c-0.49-0.091-1.096-0.646-1.096-0.646l-6.977-7.602 c0,0-0.635-0.652-0.592-1.611l-1.367-1.367c-4.522,2.492-10.405,1.791-14.204-2.01C0.688,17.525,0.688,9.95,5.346,5.295 c4.559-4.565,12.162-4.717,16.879,0c3.799,3.799,4.585,9.554,2.01,14.202l1.39,1.392c0.002,0,0.004,0,0.006,0 c0.929-0.025,1.563,0.594,1.563,0.594l7.599,6.974c0,0,0.438,0.336,0.651,1.106c0.586,0.439,1.673,2.58-0.801,5.06 C32.38,36.88,30.328,36.284,29.576,35.416z M6.139,6.088l-3.17,7.649l3.17,7.648l7.644,3.168l7.651-3.169l3.163-7.647l-3.166-7.649 l-7.646-3.162L6.139,6.088z" fill="url(#_56)" fill-opacity="0.7"/>
<radialGradient cx="30.21" cy="32.9" gradientUnits="userSpaceOnUse" id="_57" r="3.84">
<stop offset="0" stop-color="#FFFFFF"/>
<stop offset="0.1" stop-color="#F7F7F7"/>
<stop offset="0.25" stop-color="#E0E0E0"/>
<stop offset="0.43" stop-color="#BCBCBC"/>
<stop offset="0.65" stop-color="#898989"/>
<stop offset="0.88" stop-color="#494949"/>
<stop offset="1" stop-color="#262626"/>
</radialGradient>
<path d="M34.759,30.042c0.789,0.547,1.117,2.209-0.684,4.011c-1.877,1.879-3.432,1.477-4.018,0.674 L34.759,30.042z" fill="url(#_57)"/>
<linearGradient gradientUnits="userSpaceOnUse" id="_58" x1="34.97" x2="33.04" y1="31.18" y2="34.09">
<stop offset="0" stop-color="#FFFFFF"/>
<stop offset="1" stop-color="#808080"/>
</linearGradient>
<path d="M34.891,31.154c0.341,0.893-0.81,2.699-1.44,2.066c-0.213-0.214-0.175-0.564,0.379-1.175 C34.382,31.44,34.724,30.727,34.891,31.154z" fill="url(#_58)"/>
<linearGradient gradientUnits="userSpaceOnUse" id="_59" x1="24.35" x2="20.81" y1="20.77" y2="24.31">
<stop offset="0" stop-color="#666666"/>
<stop offset="0.27" stop-color="#F2F2F2"/>
<stop offset="1" stop-color="#999999"/>
</linearGradient>
<polygon fill="url(#_59)" points="26.035,22.428 22.473,25.988 19.13,22.645 22.69,19.083 "/>
<radialGradient cx="13.74" cy="13.72" gradientUnits="userSpaceOnUse" id="_60" r="8.31">
<stop offset="0" stop-color="#FFFFFF"/>
<stop offset="0.3" stop-color="#FFFFFF"/>
<stop offset="0.56" stop-color="#FDFDFD"/>
<stop offset="0.66" stop-color="#F6F6F6"/>
<stop offset="0.72" stop-color="#EBEBEB"/>
<stop offset="0.78" stop-color="#DADADA"/>
<stop offset="0.82" stop-color="#C4C4C4"/>
<stop offset="0.86" stop-color="#A8A8A8"/>
<stop offset="0.9" stop-color="#888888"/>
<stop offset="0.94" stop-color="#626262"/>
<stop offset="0.97" stop-color="#373737"/>
<stop offset="0.99" stop-color="#090909"/>
<stop offset="1" stop-color="#000000"/>
</radialGradient>
<circle cx="13.74" cy="13.72" fill="url(#_60)" fill-opacity="0.7" r="8.313"/>
<linearGradient gradientUnits="userSpaceOnUse" id="_61" x1="13.79" x2="13.79" y1="4.82" y2="24.89">
<stop offset="0" stop-color="#666666"/>
<stop offset="1" stop-color="#CCCCCC"/>
</linearGradient>
<path d="M5.91,5.86c-4.351,4.353-4.351,11.402-0.001,15.753c4.348,4.352,11.4,4.352,15.752,0 c4.351-4.351,4.351-11.402,0-15.753C17.309,1.511,10.256,1.511,5.91,5.86z M19.619,19.568c-3.223,3.223-8.446,3.223-11.665,0.002 c-3.222-3.222-3.225-8.442,0-11.667c3.219-3.221,8.442-3.221,11.663,0C22.836,11.126,22.839,16.348,19.619,19.568z" fill="url(#_61)"/>
<linearGradient gradientUnits="userSpaceOnUse" id="_62" x1="13.79" x2="13.79" y1="16.11" y2="12.02">
<stop offset="0" stop-color="#999999"/>
<stop offset="1" stop-color="#000000"/>
</linearGradient>
<rect fill="url(#_62)" height="2.25" width="11.003" x="8.288" y="12.622"/>
<linearGradient gradientUnits="userSpaceOnUse" id="_63" x1="13.83" x2="13.83" y1="-1.61" y2="9.22">
<stop offset="0" stop-color="#FFFFFF"/>
<stop offset="0.15" stop-color="#FAFAFA"/>
<stop offset="0.34" stop-color="#EBEBEB"/>
<stop offset="0.54" stop-color="#D3D3D3"/>
<stop offset="0.75" stop-color="#B2B2B2"/>
<stop offset="0.97" stop-color="#878787"/>
<stop offset="1" stop-color="#808080"/>
</linearGradient>
<path d="M22.528,9.94c0.304,0.659,0.627-0.063,0.386-0.611c-3.33-7.538-14.134-8.379-18.167,0 c-0.243,0.614,0.062,1.175,0.349,0.683C9.042,3.229,18.335,3,22.528,9.94z" fill="url(#_63)"/>
<linearGradient gradientUnits="userSpaceOnUse" id="_64" x1="13.76" x2="13.76" y1="23.07" y2="18.54">
<stop offset="0" stop-color="#FFFFFF"/>
<stop offset="0.21" stop-color="#FAFAFA"/>
<stop offset="0.45" stop-color="#EBEBEB"/>
<stop offset="0.72" stop-color="#D3D3D3"/>
<stop offset="1" stop-color="#B2B2B2"/>
</linearGradient>
<path d="M20.102,19.485c-3.534,3.46-9.062,3.392-12.659,0.002c-1.42-1.337-1.875-0.878,0,0.998 c3.496,3.496,9.163,3.496,12.659-0.002C21.977,18.609,21.436,18.181,20.102,19.485z" fill="url(#_64)"/>
<linearGradient gradientUnits="userSpaceOnUse" id="_65" x1="23.39" x2="28.89" y1="32.62" y2="27.12">
<stop offset="0" stop-color="#EBF7AB"/>
<stop offset="0.49" stop-color="#87B938"/>
<stop offset="1" stop-color="#006300"/>
</linearGradient>
<path d="M34.457,29.231c0.494,0.455,0.515,1.217,0.035,1.69l-3.543,3.546 c-0.477,0.477-1.236,0.461-1.691-0.035l-7.352-8.009c-0.453-0.495-0.437-1.288,0.038-1.765l2.74-2.738 c0.476-0.477,1.271-0.492,1.765-0.038L34.457,29.231z" fill="url(#_65)"/>
<linearGradient gradientUnits="userSpaceOnUse" id="_66" x1="28.11" x2="30" y1="27.86" y2="25.96">
<stop offset="0" stop-color="#3B8919"/>
<stop offset="1" stop-color="#E3F0B5"/>
</linearGradient>
<polygon fill="url(#_66)" points="31.576,32.246 23.882,24.229 25.712,22.516 33.793,30.012 "/>
<rect fill="none" height="44" width="44" x="-2.975" y="-2.998"/>
</svg>
