<?xml version="1.0" encoding="UTF-8"?>
<!DOCTYPE svg PUBLIC "-//W3C//DTD SVG 1.1 Tiny//EN" "http://www.w3.org/Graphics/SVG/1.1/DTD/svg11-tiny.dtd">
<svg width="32" height="22.039" viewBox="0 0 32 22.039">
<path d="M8.68,18.574c0,1.91,1.539,3.465,3.43,3.465h7.781c1.891,0,3.43-1.555,3.43-3.465V6.682c0-1.91-1.539-3.464-3.43-3.464 h-7.781c-1.891,0-3.43,1.554-3.43,3.464V18.574z M19.891,20.039h-7.781c-0.789,0-1.43-0.658-1.43-1.465V6.682 c0-0.808,0.641-1.464,1.43-1.464h7.781c0.789,0,1.43,0.656,1.43,1.464v11.893C21.32,19.381,20.68,20.039,19.891,20.039z"/>
<rect height="7.36" width="6.641" x="12.68" y="7.218"/>
<rect height="4.218" width="2.354" x="18.967"/>
</svg>