<?xml version="1.0" encoding="UTF-8"?>
<!DOCTYPE svg PUBLIC "-//W3C//DTD SVG 1.1 Tiny//EN" "http://www.w3.org/Graphics/SVG/1.1/DTD/svg11-tiny.dtd">
<svg width="52" height="52" viewBox="0 0 52 52">
<linearGradient id="_10" gradientUnits="userSpaceOnUse" x1="25.68" y1="25.08" x2="33.81" y2="41.08">
<stop stop-color="#A2C2DD" offset="0.1"/>
<stop stop-color="#6C83BB" offset="0.71"/>
<stop stop-color="#003D6D" offset="0.99"/>
</linearGradient>
<path fill="url(#_10)" d="M24.867,5.342C18.299,12.045,9.813,23.1,6.489,34.705c-0.082,2.16,0.387,5.971,1.513,7.727 c1.217,1.771,2.932,4.139,6.988,6.348l2.276,0.574c6.46-3.229,9.569-10.516,9.569-10.516c-1.532-3.551-3.336-6.414-5.048-8.279 c0.759-1.146,4.271-6.761,5.473-8.61c2.125,0.214,7.833,0.995,7.833,0.995c5.793-3.045,8.971-10.293,9.678-12.276 c-1.714-4.396-4-6.477-7.573-7.881c-0.907-0.265-2.097-0.539-3.045-0.658C29.751,2.796,26.711,4.168,24.867,5.342z"/>
<linearGradient id="_11" gradientUnits="userSpaceOnUse" x1="21.9" y1="38.15" x2="17.8" y2="31.56">
<stop stop-color="#45B595" offset="0"/>
<stop stop-color="#3C977B" offset="1"/>
</linearGradient>
<path fill="url(#_11)" d="M24.434,37.939c0.354-0.402-4.188-8.008-4.188-8.008l-3.742,5.086 C16.502,35.018,24.082,38.342,24.434,37.939z"/>
<linearGradient id="_12" gradientUnits="userSpaceOnUse" x1="37.51" y1="14.03" x2="30.98" y2="2.68">
<stop stop-color="#C7F9D4" offset="0"/>
<stop stop-color="#BAF1CD" offset="0.43"/>
<stop stop-color="#ADEAC7" offset="1"/>
</linearGradient>
<path fill="url(#_12)" d="M34.264,2.838c-4.814,0.584-8.811,3.051-8.811,3.051c2.303,3.357,2.656,4.932,2.656,4.932 l14.051-0.658C40.689,3.567,36.449,3.456,34.264,2.838z"/>
<linearGradient id="_13" gradientUnits="userSpaceOnUse" x1="40.59" y1="9.29" x2="37.78" y2="3.97">
<stop stop-color="#7ACCA5" offset="0"/>
<stop stop-color="#ADEAC7" offset="1"/>
</linearGradient>
<path fill="url(#_13)" d="M41.961,10.067c-2.053-4.613-5.076-6.158-7.697-7.229c0,0,2.252,0.355,2.773,0.594 c1.906,0.863,5.109,2.139,7.061,7.232C44.098,10.667,41.951,10.079,41.961,10.067z"/>
<linearGradient id="_14" gradientUnits="userSpaceOnUse" x1="9.26" y1="39.24" x2="27.04" y2="3.02">
<stop stop-color="#45B595" offset="0"/>
<stop stop-color="#C7F9D4" offset="1"/>
</linearGradient>
<path fill="url(#_14)" d="M25.453,5.889c0.945-0.064,2.965,1.498,2.938,4.445c-7.457,7.5-16.434,20.414-20.064,31.085 c-1.102-3.229-1.027-6.52-1.027-6.52C9.455,26.336,17.287,13.965,25.453,5.889z"/>
<linearGradient id="_15" gradientUnits="userSpaceOnUse" x1="44.73" y1="10.36" x2="30.01" y2="24.88">
<stop stop-color="#45B595" offset="0"/>
<stop stop-color="#3C977B" offset="1"/>
</linearGradient>
<path fill="url(#_15)" d="M41.961,10.067c-2.67,6.076-5.322,9.094-9.301,11.691l2.43,0.371 c2.883-1.35,7.293-6.332,9.008-11.465C43.391,10.389,41.961,10.067,41.961,10.067z"/>
<linearGradient id="_16" gradientUnits="userSpaceOnUse" x1="24.68" y1="37.42" x2="21.66" y2="32.16">
<stop stop-color="#3C977B" offset="0"/>
<stop stop-color="#2F6F5C" offset="1"/>
</linearGradient>
<path fill="url(#_16)" d="M26.105,38.84c-1.471-3.496-4.268-7.74-5.98-8.834l-0.004,0.965 c1.438,1.729,3.076,4.07,4.258,6.914L26.105,38.84z"/>
<linearGradient id="_17" gradientUnits="userSpaceOnUse" x1="25.45" y1="-11.24" x2="25.18" y2="19.03">
<stop stop-color="#ADEAC7" offset="0"/>
<stop stop-color="#45B595" offset="1"/>
</linearGradient>
<path fill="url(#_17)" d="M41.961,10.067c-4.453-1.334-10.854-0.758-13.57,0.27 c-8.643,8.332-18.01,22.855-20.117,31.039c0,0,2.295,4.33,6.982,6.709c4.416-2.303,7.482-6.232,9.139-10.195 c-1.627-0.906-6.365-3.578-6.365-3.578c2.793-2.996,4.439-6.271,8.947-13.189c2.178,0.188,5.684,0.639,5.684,0.639 C37.188,18.985,40.414,14.344,41.961,10.067z"/>
<linearGradient id="_18" gradientUnits="userSpaceOnUse" x1="17.33" y1="45.2" x2="24.79" y2="41.05">
<stop stop-color="#45B595" offset="0"/>
<stop stop-color="#3C977B" offset="1"/>
</linearGradient>
<path fill="url(#_18)" d="M24.379,37.885c0,0-4.533,8.121-9.121,10.199l2.018,0.496c3.68-1.564,7.625-6.836,8.832-9.74 L24.379,37.885z"/>
</svg>