<?xml version="1.0" encoding="UTF-8" standalone="no"?>
<!DOCTYPE svg PUBLIC "-//W3C//DTD SVG 1.1 Tiny//EN" "http://www.w3.org/Graphics/SVG/1.1/DTD/svg11-tiny.dtd">
<svg xmlns="http://www.w3.org/2000/svg" xmlns:xlink="http://www.w3.org/1999/xlink" width="24" height="24" viewBox="0 0 24 24">
<rect fill="none" height="24" width="24"/>
<rect height="15.842" width="24" y="4.078" fill="#ff0000"/>
<path d="M19.439,18.642h3.282v-2.34h-3.282V18.642L19.439,18.642z M5.822,18.642h12.356v-2.34H5.822V18.642 L5.822,18.642z M1.281,18.642h3.28v-2.34h-3.28V18.642L1.281,18.642z M19.439,14.918h3.282v-2.341h-3.282V14.918L19.439,14.918z M14.898,14.918h3.28v-2.341h-3.28V14.918L14.898,14.918z M10.351,14.918h3.281v-2.341h-3.281V14.918L10.351,14.918z M5.822,14.918h3.283v-2.341H5.822V14.918L5.822,14.918z M1.281,14.918h3.28v-2.341h-3.28V14.918L1.281,14.918z M19.439,11.357 h3.282V9.019h-3.282V11.357L19.439,11.357z M14.898,11.357h3.28V9.019h-3.28V11.357L14.898,11.357z M10.351,11.357h3.281V9.019 h-3.281V11.357L10.351,11.357z M5.822,11.357h3.283V9.019H5.822V11.357L5.822,11.357z M1.281,11.357h3.28V9.019h-3.28V11.357 L1.281,11.357z M19.439,7.7h3.282V5.357h-3.282V7.7L19.439,7.7z M14.898,7.7h3.28V5.357h-3.28V7.7L14.898,7.7z M10.351,7.7h3.281 V5.357h-3.281V7.7L10.351,7.7z M5.822,7.7h3.283V5.357H5.822V7.7L5.822,7.7z M1.281,7.7h3.28V5.357h-3.28V7.7L1.281,7.7z" fill="#ffffff"/>
</svg>