<?xml version="1.0" encoding="utf-8"?>
<!DOCTYPE svg PUBLIC "-//W3C//DTD SVG 1.1 Tiny//EN" "http://www.w3.org/Graphics/SVG/1.1/DTD/svg11-tiny.dtd">
<svg width="60" height="80" viewBox="0 0 60 80">
<linearGradient id="_328" gradientUnits="userSpaceOnUse" x1="20.69" y1="30.75" x2="38.19" y2="51.79">
<stop stop-color="#DEE9F3" offset="0"/>
<stop stop-color="#235487" offset="1"/>
</linearGradient>
<circle fill="url(#_328)" cx="29.527" cy="41.367" r="23.417"/>
<radialGradient id="_329" gradientUnits="userSpaceOnUse" cx="34.05" cy="26.71" r="42.04">
<stop stop-color="#FFFFFF" offset="0"/>
<stop stop-color="#A2C2DD" offset="0.53"/>
<stop stop-color="#6C83BB" offset="0.87"/>
<stop stop-color="#003D6D" offset="1"/>
</radialGradient>
<circle fill="url(#_329)" cx="29.566" cy="41.367" r="22.724"/>
<radialGradient id="_330" gradientUnits="userSpaceOnUse" cx="34.36" cy="29.04" r="28.6">
<stop stop-color="#E6EEF4" offset="0"/>
<stop stop-color="#C6DCC1" offset="0.08"/>
<stop stop-color="#91C06F" offset="0.21"/>
<stop stop-color="#6BAB33" offset="0.32"/>
<stop stop-color="#539E0E" offset="0.4"/>
<stop stop-color="#4A9900" offset="0.44"/>
<stop stop-color="#398419" offset="0.55"/>
<stop stop-color="#22663B" offset="0.71"/>
<stop stop-color="#135550" offset="0.85"/>
<stop stop-color="#0E4E58" offset="0.94"/>
</radialGradient>
<path fill="url(#_330)" d="M52.191,39.31c-0.004-0.045-0.006-0.091-0.01-0.137c-0.063-0.652-0.156-1.296-0.272-1.931c-0.009-0.042-0.015-0.085-0.022-0.128c-0.727-0.596-0.982-1.182-1.871-0.021c-0.111,0.144-0.377,0.141-0.416,0.313c-0.42-0.287-0.463-0.204-0.81-0.369c-0.472-0.593-0.467-0.758-0.408-1.573c0.063-0.887-1.295-0.486-1.295-0.486c0.136-0.346-0.252-1.342-0.276-1.903c-0.027-0.602-0.922,0.024-0.875,0.758l-1.078,0.126c-0.611-0.534-1.135-1.407-1.369-2.456c-0.504-2.271,1.574-1.632,1.574-1.632s0.295-0.246,1.25,0.248c0.264,0.137,0.479,0.898,1.528,1.38c0.563,0.259-1.543-1.882-1.34-2.199c0.205-0.316-0.129-1.177-0.129-1.177l-0.483-1.301c0,0-0.365-0.769-0.086-1.343c-0.027-0.027-0.052-0.055-0.078-0.081c-0.33-0.333-0.67-0.656-1.021-0.969c-0.097-0.085-0.192-0.167-0.29-0.251c-0.296-0.255-0.598-0.503-0.906-0.743c-0.09-0.071-0.179-0.144-0.271-0.213c-0.369-0.279-0.75-0.546-1.137-0.803c-0.119-0.078-0.238-0.153-0.358-0.23c-0.33-0.21-0.666-0.412-1.009-0.605c-0.067-0.039-0.137-0.08-0.205-0.119c-0.209,0.068-0.317,0.19-0.317,0.19s1.865,1.165,1.996,1.69c-0.524-0.408-0.875-0.408-0.875-0.408s-0.412-0.127-0.619-0.375c-0.381-0.46-3.051-1.199-3.051-1.199s-0.231-0.465,0.407-0.465c0.466,0,1.902,0.414,1.902,0.414l-0.078-0.18c-0.121-0.062-0.242-0.126-0.365-0.187c-0.069-0.034-0.141-0.069-0.213-0.103c-0.121-0.058-0.246-0.111-0.369-0.167c-1.477-0.463-4.313-1.285-4.313-0.768c0,0-2.854-0.642-3.963-0.35c-0.732,0.193-1.922,0.524-1.922,0.524l-3.264,0.058l0.292-0.233c0,0,4.021-0.117,4.253-0.874c0,0,1.828-0.13,3.188-0.09c-0.024-0.004-0.049-0.009-0.073-0.013c-0.496-0.079-0.998-0.138-1.506-0.185c-0.158-0.014-0.318-0.025-0.479-0.037c-0.454-0.032-0.912-0.052-1.374-0.056c-0.073,0-0.146-0.005-0.219-0.005c-6.284,0-11.972,2.552-16.086,6.675v0.178c0,0,2.622-1.747,3.263-2.389c0.642-0.642,1.341-0.583,1.341-0.583s0.466-0.116,1.806-0.99c1.166-0.291,2.855-0.932,0.467-0.757l0.874-0.466c0.232-0.059,3.204-0.408,3.204-0.408l-1.281,0.466l-0.059,0.292l-0.699,0.408c0,0-0.99,0.524,0.292,0.874c0.64,0.174-0.991,0.99-0.991,0.99l0.35,0.059c0,0,0.642-0.059,2.039-1.107l1.395-0.202c2.054,0,2.593-0.044,3.325,0.493c1.806,1.34,3.353,1.793,3.613,2.447c0.316,1.122-0.115,2.272,1.166,2.739c0.602,0.77,1.598,1.081,2.156,1.281c0.719,1.524,2.389,2.563,2.91,2.986c0.598,0.898,0.76,0.626,0.76,0.626l-2.447-2.971l0.109-0.256c0,0,1.578,1.756,2.631,2.336c1.188,0.656,1.389,1.506,1.406,1.88c0.016,0.374,3.486,1.982,3.486,1.982s0.696-0.446,1.096-0.088c0.016,0.015,0.311,0.024,0.313,0.043c0.213,0.845,1.166,0.783,1.166,0.783c0.144,0.303,0.537,0.825,1.095,1.258c0.524,0.408,1.106,0.918,1.633,0.802c0.502,0.488,0.188,0.837,0.117,1.515c-0.025,0.231-0.4,1.277-0.468,1.516c-0.396,1.379-0.133,1.404,0.222,2.729c0.422,1.571-0.058,2.621,0.442,3.312c0.209,2.115-0.196,2.522-1.328,4.682c0.101,1.05-1.521,1.688-2.018,3.027c-0.06,0.949-1.164,1.748-1.681,2.12c-0.508,0.697-0.804,1.367-0.843,1.697c0.028-0.024,0.058-0.049,0.085-0.074c0.247-0.214,0.49-0.433,0.729-0.655c0.052-0.051,0.104-0.1,0.154-0.148c0.231-0.223,0.459-0.451,0.683-0.684c0.049-0.054,0.1-0.104,0.147-0.156c0.225-0.239,0.442-0.483,0.656-0.731c0.041-0.048,0.083-0.096,0.124-0.144c0.226-0.266,0.442-0.537,0.655-0.813c0.025-0.032,0.052-0.065,0.076-0.099c0.724-0.948,1.373-1.954,1.94-3.012c0.003-0.004,0.005-0.01,0.007-0.014c0.182-0.336,0.352-0.677,0.516-1.021c0.035-0.075,0.068-0.152,0.103-0.229c0.128-0.276,0.251-0.556,0.367-0.838c0.044-0.106,0.084-0.215,0.127-0.321c0.101-0.256,0.197-0.513,0.289-0.771c0.044-0.125,0.085-0.252,0.127-0.377c0.082-0.247,0.16-0.495,0.233-0.745c0.041-0.137,0.08-0.273,0.117-0.412c0.066-0.242,0.129-0.488,0.188-0.736c0.034-0.145,0.067-0.289,0.101-0.435c0.053-0.246,0.102-0.494,0.146-0.743c0.027-0.146,0.057-0.295,0.079-0.443c0.042-0.256,0.075-0.514,0.108-0.771c0.019-0.144,0.039-0.286,0.055-0.431c0.029-0.284,0.052-0.571,0.072-0.858c0.008-0.12,0.021-0.239,0.026-0.358c0.021-0.41,0.034-0.821,0.034-1.236c0-0.001,0-0.003,0-0.004C52.29,40.671,52.254,39.986,52.191,39.31z M47.648,32.607c0.24-0.071,0.535-0.196,0.713,0.336c0.177,0.534,0.97,0.318,0.962,0.149c-0.009-0.168-1.091-1.124-1.443-0.871C47.523,32.475,47.648,32.607,47.648,32.607z M49.212,33.645c0.147,0.045,0.683,0.145,0.683,0.145s0.688,0.046,0.215-0.34C49.634,33.063,49.081,33.604,49.212,33.645z"/>
</svg>