<?xml version="1.0" encoding="UTF-8"?>
<!DOCTYPE svg PUBLIC "-//W3C//DTD SVG 1.1 Tiny//EN" "http://www.w3.org/Graphics/SVG/1.1/DTD/svg11-tiny.dtd">
<svg width="84" height="58" viewBox="0 0 84 58">
<linearGradient id="_8" gradientUnits="userSpaceOnUse" x1="32.82" y1="6.34" x2="57.15" y2="53.67">
<stop stop-color="#A2C2DD" offset="0.1"/>
<stop stop-color="#6C83BB" offset="0.71"/>
<stop stop-color="#003D6D" offset="0.99"/>
</linearGradient>
<polygon fill="url(#_8)" points="8.012,32.108 56.593,52.74 79.602,23.308 33.207,8.057 "/>
<linearGradient id="_9" gradientUnits="userSpaceOnUse" x1="2.61" y1="-8.18" x2="52.56" y2="35.37">
<stop stop-color="#FFFFFF" offset="0.15"/>
<stop stop-color="#A2C2DD" offset="1"/>
</linearGradient>
<polygon fill="url(#_9)" points="33.464,9.194 9.802,31.782 56.277,51.52 77.938,23.813 "/>
<linearGradient id="_10" gradientUnits="userSpaceOnUse" x1="50.87" y1="46.24" x2="36.23" y2="8.29">
<stop stop-color="#FFFFFF" offset="0.15"/>
<stop stop-color="#A2C2DD" offset="1"/>
</linearGradient>
<polygon fill="url(#_10)" points="55.45,48.846 13.497,31.265 34.066,11.346 74.23,24.92 "/>
<linearGradient id="_11" gradientUnits="userSpaceOnUse" x1="40.43" y1="64.4" x2="33.45" y2="36.13">
<stop stop-color="#FFFFFF" offset="0"/>
<stop stop-color="#A2C2DD" offset="0.35"/>
<stop stop-color="#6C83BB" offset="0.7"/>
<stop stop-color="#003D6D" offset="1"/>
</linearGradient>
<polygon fill="url(#_11)" points="16.724,28.247 51.334,44.742 55.412,48.899 13.454,31.305 "/>
<path fill="#FFFFFF" d="M27.568,17.625c4.813,4.033,16.551,6.159,16.551,6.159l4.518-3.733c1.627-4.042-4.97-4.636-7.51-3.418 c-1.423-2.83-6.623-1.708-6.95-0.671c-0.637-0.521-1.895-1.111-3.41-1.386L27.568,17.625z"/>
<path fill="#298595" d="M27.972,33.818l22.405,4.018c-9.624,7.64-25.732-2.631-26.294-3.849L27.972,33.818z"/>
<linearGradient id="_12" gradientUnits="userSpaceOnUse" x1="24.04" y1="31.61" x2="26.51" y2="34.43">
<stop stop-color="#D6E6EC" offset="0"/>
<stop stop-color="#298595" offset="1"/>
</linearGradient>
<path fill="url(#_12)" d="M25.034,30.324l2.938,3.494c-0.607,0.371-2.261,1.022-3.522,0.612 c-1.156-1.035-0.882-2.36-0.882-2.36S24.079,31.041,25.034,30.324z"/>
<path fill="#BFDAE1" d="M25.015,30.335l2.891,3.546c1.997,0.927,14.081,7.405,22.471,3.957 C46.1,36.029,29.121,30.728,25.015,30.335z"/>
<path fill="#115B7E" d="M28.739,33.601l-2.206-2.631c3.279,0.472,19.086,5.231,22.726,6.774 C42.721,39.729,33.083,35.729,28.739,33.601z"/>
<polygon fill="#BFDAE1" points="33.157,33.172 35.153,36.314 38.036,37.192 35.776,33.867 "/>
<polygon fill="#2F8E9A" points="32.949,33.493 34.505,36.058 35.153,36.314 33.161,33.168 "/>
<linearGradient id="_13" gradientUnits="userSpaceOnUse" x1="46.25" y1="26.43" x2="21.87" y2="25.81">
<stop stop-color="#2B98A0" offset="0"/>
<stop stop-color="#0A4A60" offset="1"/>
</linearGradient>
<polygon fill="url(#_13)" points="35.577,34.544 52.08,18.188 26.971,28.143 "/>
<polygon fill="#2F8E9A" points="36.38,35.892 49.262,21.507 44.605,37.201 "/>
<path fill="#FFFFFF" d="M13.652,34.469c-2.775,0-6.576,0.658-7.539,6.354L5.969,41.68c0,0,6.393,0,7.151,0 c0.229,0.412,0.571,1.028,0.787,1.422c-0.216,0.392-0.558,1.008-0.787,1.42c-0.759,0-7.151,0-7.151,0l0.145,0.857 c0.963,5.693,4.764,6.352,7.539,6.352c2.188,0,4.138-1.834,5.704-3.31c0.847-0.8,1.646-1.55,2.069-1.55h19.58l0.219-0.24 c0.42-0.463,1.397-1.727,1.417-3.5v-0.063c-0.021-1.772-0.998-3.037-1.417-3.498l-0.219-0.24h-19.58 c-0.422,0-1.222-0.751-2.067-1.546C17.79,36.305,15.841,34.469,13.652,34.469z"/>
<linearGradient id="_14" gradientUnits="userSpaceOnUse" x1="14.19" y1="32.21" x2="31.99" y2="53.43">
<stop stop-color="#E6EEF4" offset="0"/>
<stop stop-color="#9646AC" offset="0.44"/>
<stop stop-color="#3D013F" offset="0.94"/>
</linearGradient>
<path fill="url(#_14)" d="M41.909,43.102c0-0.008,0.002-0.017,0.002-0.022h-0.004c-0.017-1.543-0.903-2.657-1.227-3.013 c-0.413,0-19.254,0-19.254,0c-0.716,0-1.494-0.733-2.574-1.75c-1.471-1.385-3.302-3.109-5.199-3.109 c-3.08,0-5.995,0.902-6.812,5.736c1.158,0,6.714,0,6.714,0l1.194,2.158l-1.194,2.154c0,0-5.556,0-6.714,0 c0.817,4.834,3.732,5.738,6.812,5.738c1.897,0,3.728-1.725,5.199-3.11c1.081-1.015,1.858-1.749,2.574-1.749c0,0,18.841,0,19.254,0 c0.324-0.355,1.21-1.469,1.227-3.012h0.004C41.911,43.115,41.909,43.107,41.909,43.102z"/>
</svg>