<?xml version="1.0" encoding="UTF-8" standalone="no"?>
<!DOCTYPE svg PUBLIC "-//W3C//DTD SVG 1.1 Tiny//EN" "http://www.w3.org/Graphics/SVG/1.1/DTD/svg11-tiny.dtd">
<svg xmlns="http://www.w3.org/2000/svg" xmlns:xlink="http://www.w3.org/1999/xlink" width="54" height="54" viewBox="0 0 54 54">
<rect fill="none" height="54" width="54"/>
<path d="M43.327,53.161l-7.688-2.665c-0.365-0.141-0.65-0.41-0.791-0.764l0,0 c-0.078-0.178-0.109-0.364-0.105-0.524l0,0c0-0.147,0.023-0.289,0.066-0.421l0,0l0.006-0.045l2.795-5.887 c-0.326-0.144-0.584-0.403-0.705-0.707l0,0l-0.745-1.633c-0.556,0.223-1.043,0.492-1.466,0.791l0,0v2.455 c0,1.137-0.35,2.191-0.924,3.07l0,0c0.125,0.225,0.194,0.477,0.195,0.744l0,0c0,0.29-0.089,0.621-0.333,0.898l0,0 c-0.239,0.281-0.641,0.443-0.987,0.436l0,0c-0.315,0-0.584-0.098-0.828-0.23l0,0c-0.818,0.473-1.772,0.756-2.795,0.754l0,0H11.04 c-3.131,0-5.67-2.541-5.672-5.672l0,0V25.783c0.002-3.131,2.541-5.67,5.672-5.673l0,0h3.17V9.27 c0.003-2.531,2.053-4.586,4.586-4.588l0,0h12.701c2.532,0.002,4.585,2.057,4.587,4.588l0,0v3.038h7.575 c2.86,0.002,5.18,2.322,5.182,5.182l0,0v15.588c0,1.417-0.575,2.695-1.495,3.625l0,0c1.127,1.313,1.86,3.119,1.868,5.094l0,0 c0.021,2.682-1.461,5.6-4.998,7.609l0,0l0.78,1.844c0.095,0.193,0.143,0.396,0.143,0.604l0,0c0,0.184-0.037,0.369-0.119,0.559l0,0 c-0.057,0.132-0.133,0.244-0.225,0.354l0,0c-0.264,0.293-0.63,0.463-1.033,0.465l0,0C43.637,53.232,43.504,53.214,43.327,53.161 L43.327,53.161z M40.607,41.85l0.744,1.631c2.33-0.936,3.461-2.64,3.445-4.021l0,0c-0.003-0.439-0.102-0.861-0.32-1.271l0,0 c-0.26,0.047-0.533,0.074-0.817,0.074l0,0h-2.392L39.9,41.139C40.227,41.283,40.486,41.544,40.607,41.85L40.607,41.85z" fill="#FFFFFF" fill-opacity="0.6"/>
<linearGradient id="_118" gradientUnits="userSpaceOnUse" x1="25.04" y1="-2.12" x2="25.04" y2="18.91">
<stop stop-color="#CCCCCC" offset="0"/>
<stop stop-color="#000000" offset="1"/>
</linearGradient>
<path d="M31.393,25.495H18.69c-1.977,0-3.584-1.609-3.584-3.584v-12.7 c0-1.979,1.607-3.588,3.584-3.588h12.703c1.979,0,3.586,1.609,3.586,3.588V21.91C34.979,23.885,33.371,25.495,31.393,25.495 L31.393,25.495z" fill="url(#_118)" fill-opacity="0.7"/>
<path d="M31.393,6.606c1.433,0,2.604,1.172,2.604,2.605V21.91c0,1.434-1.173,2.604-2.604,2.604H18.692 c-1.434,0-2.604-1.17-2.604-2.604V9.211c0-1.434,1.171-2.605,2.604-2.605H31.393" fill="#E07029"/>
<linearGradient id="_119" gradientUnits="userSpaceOnUse" x1="25.04" y1="24.19" x2="25.04" y2="6.93">
<stop stop-color="#FB9E3A" offset="0.06"/>
<stop stop-color="#E6742B" offset="1"/>
</linearGradient>
<path d="M31.393,7.256H18.692c-1.078,0-1.955,0.877-1.955,1.955V21.91c0,1.076,0.877,1.953,1.955,1.953 h12.701c1.076,0,1.955-0.877,1.955-1.953V9.211C33.348,8.133,32.471,7.256,31.393,7.256z" fill="url(#_119)"/>
<linearGradient id="_120" gradientUnits="userSpaceOnUse" x1="25.04" y1="7.26" x2="25.04" y2="13.76">
<stop stop-color="#FFFFFF" offset="0"/>
<stop stop-color="#FF9F61" offset="1"/>
</linearGradient>
<path d="M33.348,13.756h-16.61V9.209c0-1.074,0.879-1.953,1.954-1.953h12.703 c1.073,0,1.953,0.879,1.953,1.953V13.756z" fill="url(#_120)"/>
<path d="M22.459,19.707c0,0.881-0.717,1.6-1.599,1.6c-0.886,0-1.6-0.719-1.6-1.6c0-0.887,0.714-1.604,1.6-1.604 C21.742,18.104,22.459,18.821,22.459,19.707z" fill="#FFFFFF"/>
<path d="M19.264,15.674c1.497,0,2.905,0.584,3.964,1.648c1.06,1.066,1.646,2.484,1.646,3.992h2.309 c0-4.381-3.553-7.949-7.918-7.949L19.264,15.674L19.264,15.674z" fill="#FFFFFF"/>
<path d="M19.264,11.58c5.341,0,9.686,4.371,9.686,9.74h2.307c0-6.645-5.379-12.049-11.992-12.049L19.264,11.58 L19.264,11.58z" fill="#FFFFFF"/>
<linearGradient id="_121" gradientUnits="userSpaceOnUse" x1="35.76" y1="3.91" x2="35.76" y2="29.26">
<stop stop-color="#CCCCCC" offset="0"/>
<stop stop-color="#000000" offset="1"/>
</linearGradient>
<path d="M43.555,37.203H27.962c-2.306,0-4.184-1.875-4.184-4.184v-15.59 c0-2.305,1.878-4.182,4.184-4.182h15.593c2.305,0,4.184,1.877,4.184,4.182v15.59C47.736,35.328,45.859,37.203,43.555,37.203 L43.555,37.203z" fill="url(#_121)" fill-opacity="0.7"/>
<path d="M43.555,14.233c1.758,0,3.199,1.438,3.199,3.197v15.591c0,1.76-1.441,3.199-3.199,3.199H27.961 c-1.761,0-3.198-1.439-3.198-3.199V17.43c0-1.76,1.438-3.197,3.198-3.197H43.555" fill="#E07029"/>
<linearGradient id="_122" gradientUnits="userSpaceOnUse" x1="35.76" y1="35.82" x2="35.76" y2="14.63">
<stop stop-color="#FB9E3A" offset="0.06"/>
<stop stop-color="#E6742B" offset="1"/>
</linearGradient>
<path d="M43.555,15.032H27.961c-1.323,0-2.4,1.078-2.4,2.398v15.591c0,1.32,1.077,2.398,2.4,2.398h15.594 c1.322,0,2.399-1.078,2.399-2.398V17.43C45.954,16.11,44.877,15.032,43.555,15.032z" fill="url(#_122)"/>
<linearGradient id="_123" gradientUnits="userSpaceOnUse" x1="35.76" y1="15.03" x2="35.76" y2="23.01">
<stop stop-color="#FFFFFF" offset="0"/>
<stop stop-color="#FF9F61" offset="1"/>
</linearGradient>
<path d="M45.954,23.01H25.56v-5.58c0-1.318,1.08-2.398,2.4-2.398h15.595c1.318,0,2.398,1.08,2.398,2.398 L45.954,23.01L45.954,23.01z" fill="url(#_123)"/>
<path d="M32.584,30.314c0,1.086-0.879,1.965-1.962,1.965c-1.086,0-1.963-0.879-1.963-1.965s0.877-1.965,1.963-1.965 C31.705,28.35,32.584,29.229,32.584,30.314z" fill="#FFFFFF"/>
<path d="M28.663,25.366c1.838,0,3.567,0.715,4.866,2.023c1.302,1.306,2.021,3.048,2.021,4.904h2.832 c0-5.383-4.358-9.762-9.719-9.762V25.366z" fill="#FFFFFF"/>
<path d="M28.665,20.338c6.556,0,11.892,5.367,11.892,11.959h2.832c0-8.158-6.604-14.791-14.724-14.791V20.338z" fill="#FFFFFF"/>
<linearGradient id="_124" gradientUnits="userSpaceOnUse" x1="19.93" y1="10.4" x2="19.93" y2="39.32">
<stop stop-color="#CCCCCC" offset="0"/>
<stop stop-color="#000000" offset="1"/>
</linearGradient>
<path d="M28.916,48.375H10.935c-2.577,0-4.672-2.096-4.672-4.674V25.723 c0-2.576,2.095-4.672,4.672-4.672h17.98c2.578,0,4.672,2.096,4.672,4.672v17.979C33.588,46.279,31.494,48.375,28.916,48.375 L28.916,48.375z" fill="url(#_124)" fill-opacity="0.7"/>
<path d="M28.916,22.034c2.029,0,3.689,1.658,3.689,3.689v17.98c0,2.029-1.66,3.688-3.689,3.688H10.935 c-2.032,0-3.69-1.658-3.69-3.688v-17.98c0-2.031,1.658-3.689,3.69-3.689H28.916" fill="#E07029"/>
<linearGradient id="_125" gradientUnits="userSpaceOnUse" x1="19.92" y1="46.93" x2="19.92" y2="22.49">
<stop stop-color="#FB9E3A" offset="0.06"/>
<stop stop-color="#E6742B" offset="1"/>
</linearGradient>
<path d="M28.916,22.957H10.935c-1.526,0-2.771,1.24-2.771,2.766v17.98c0,1.525,1.244,2.768,2.771,2.768 h17.98c1.526,0,2.769-1.242,2.769-2.768v-17.98C31.684,24.198,30.441,22.957,28.916,22.957z" fill="url(#_125)"/>
<linearGradient id="_126" gradientUnits="userSpaceOnUse" x1="19.93" y1="22.96" x2="19.93" y2="32.16">
<stop stop-color="#FFFFFF" offset="0"/>
<stop stop-color="#FF9F61" offset="1"/>
</linearGradient>
<path d="M31.684,32.161H8.168v-6.439c0-1.52,1.244-2.764,2.768-2.764h17.983 c1.521,0,2.767,1.244,2.767,2.764v6.439H31.684z" fill="url(#_126)"/>
<path d="M16.267,40.582c0,1.252-1.016,2.266-2.265,2.266c-1.252,0-2.263-1.014-2.263-2.266 c0-1.254,1.011-2.266,2.263-2.266S16.267,39.328,16.267,40.582z" fill="#FFFFFF"/>
<path d="M11.744,34.875c2.119,0,4.113,0.824,5.612,2.332c1.502,1.508,2.33,3.518,2.33,5.654h3.268 c0-6.205-5.03-11.254-11.21-11.254V34.875z" fill="#FFFFFF"/>
<path d="M11.747,29.08c7.56,0,13.712,6.186,13.712,13.789h3.266c0-9.41-7.615-17.059-16.978-17.059V29.08z" fill="#FFFFFF"/>
<linearGradient id="_127" gradientUnits="userSpaceOnUse" x1="33.84" y1="42.85" x2="41.28" y2="19.77">
<stop stop-color="#004A6E" offset="0"/>
<stop stop-color="#000000" offset="1"/>
</linearGradient>
<path d="M33.357,31.835c-0.022,0.028-0.043,0.06-0.059,0.095c-0.044,0.1-0.044,0.215,0.006,0.313 l1.163,2.744c-7.671,3.773-5.642,10.822-2.282,12.755c0.635,0.362,0.861-0.238,0.51-0.611c-2.422-2.549-0.698-6.587,3.893-7.913 l1.121,2.457c0.057,0.137,0.184,0.23,0.331,0.238c0.146,0.008,0.283-0.07,0.353-0.201l3.229-6.801c0-0.004,0.001-0.004,0.001-0.008 c0.051-0.096,0.058-0.207,0.019-0.307c-0.039-0.103-0.123-0.183-0.223-0.22l-7.665-2.655C33.609,31.678,33.454,31.725,33.357,31.835 z" fill="url(#_127)"/>
<linearGradient id="_128" gradientUnits="userSpaceOnUse" x1="35.71" y1="21.64" x2="34.93" y2="42.94">
<stop stop-color="#FFFFFF" offset="0"/>
<stop stop-color="#004A6E" offset="1"/>
</linearGradient>
<path d="M35.484,35.385l-1.088-2.597l6.066,2.026c-4.064,1.629-4.343,1.474-6.798,2.801 c-3.354,1.813-4.032,5.477-3.479,7.125C28.54,39.827,31.592,36.766,35.484,35.385z" fill="url(#_128)"/>
<linearGradient id="_129" gradientUnits="userSpaceOnUse" x1="43.46" y1="41.02" x2="36.01" y2="64.11">
<stop stop-color="#004A6E" offset="0"/>
<stop stop-color="#000000" offset="1"/>
</linearGradient>
<path d="M43.943,52.042c0.022-0.028,0.043-0.06,0.059-0.095c0.044-0.1,0.044-0.215-0.006-0.313 l-1.163-2.744c7.671-3.772,5.642-10.822,2.282-12.754c-0.635-0.363-0.861,0.237-0.51,0.61c2.422,2.549,0.699,6.587-3.893,7.913 l-1.121-2.457c-0.056-0.137-0.183-0.23-0.33-0.238c-0.146-0.008-0.283,0.07-0.354,0.201l-3.229,6.801c0,0.004,0,0.004,0,0.008 c-0.052,0.096-0.059,0.207-0.02,0.307c0.04,0.104,0.124,0.183,0.223,0.22l7.665,2.655C43.691,52.201,43.848,52.154,43.943,52.042z" fill="url(#_129)"/>
<linearGradient id="_130" gradientUnits="userSpaceOnUse" x1="36.3" y1="39.02" x2="43.28" y2="45.41">
<stop stop-color="#FFFFFF" offset="0"/>
<stop stop-color="#004A6E" offset="1"/>
</linearGradient>
<path d="M46.195,38.354c-0.393-0.582,0.979,1.75-1.168,4.5c-0.846,1.084-2.404,1.922-4.692,2.896 l-1.087-2.597l-2.811,5.746c4.012-1.756,4.145-1.68,6.674-2.858C48.029,43.748,46.671,39.057,46.195,38.354z" fill="url(#_130)"/>
</svg>