<?xml version="1.0" encoding="UTF-8"?>
<!DOCTYPE svg PUBLIC "-//W3C//DTD SVG 1.1 Tiny//EN" "http://www.w3.org/Graphics/SVG/1.1/DTD/svg11-tiny.dtd">
<svg baseProfile="tiny" height="26px" version="1.1" viewBox="0 0 26 26" width="26px" x="0px" xmlns="http://www.w3.org/2000/svg" xmlns:xlink="http://www.w3.org/1999/xlink" y="0px">
<g>
<path d="M18.677,22.179l-3.664-3.636c-1.054,0.513-2.208,0.781-3.377,0.781c-4.286,0-7.773-3.486-7.773-7.771   c0-4.284,3.487-7.769,7.773-7.769c4.289,0,7.777,3.485,7.777,7.769c0,1.275-0.316,2.523-0.919,3.649l3.667,3.632L18.677,22.179   L18.677,22.179z M7.542,13.19c0.45,1.118,1.345,2.011,2.466,2.457V13.19H7.542L7.542,13.19z M13.287,13.19v2.448   c1.111-0.449,1.998-1.337,2.445-2.448H13.287L13.287,13.19z M13.287,9.912h2.443c-0.449-1.107-1.334-1.992-2.443-2.44V9.912   L13.287,9.912z M7.544,9.912h2.464v-2.45C8.89,7.907,7.995,8.797,7.544,9.912L7.544,9.912z"/>
<path d="M17.466,15.336c0.711-1.092,1.129-2.383,1.129-3.782c0-3.833-3.12-6.952-6.958-6.952   c-3.836,0-6.958,3.119-6.958,6.952c0,3.835,3.121,6.954,6.958,6.954c1.287,0,2.488-0.357,3.523-0.971l3.527,3.5l2.303-2.211   L17.466,15.336z M11.636,16.776c-2.881,0-5.227-2.342-5.227-5.222c0-2.878,2.346-5.22,5.227-5.22c2.88,0,5.227,2.342,5.227,5.22   C16.863,14.434,14.517,16.776,11.636,16.776z M12.47,7.67h-1.645v3.059H7.767v1.645h3.058v3.059h1.645v-3.059h3.059v-1.645H12.47   V7.67z" fill="#3C977B"/>
<rect fill="none" height="26" width="26"/>
</g>
</svg>
