<?xml version="1.0" encoding="UTF-8"?>
<!DOCTYPE svg PUBLIC "-//W3C//DTD SVG 1.1 Tiny//EN" "http://www.w3.org/Graphics/SVG/1.1/DTD/svg11-tiny.dtd">
<svg baseProfile="tiny" height="12" version="1.1" viewBox="0 0 12 12" width="12" xmlns="http://www.w3.org/2000/svg" xmlns:xlink="http://www.w3.org/1999/xlink">
<g>
<rect fill="none" height="12" width="12"/>
<linearGradient gradientUnits="userSpaceOnUse" id="XMLID_4_" x1="1.2334" x2="11.0176" y1="7.1621" y2="7.1621">
<stop offset="0" style="stop-color:#788FB8"/>
<stop offset="1" style="stop-color:#235487"/>
</linearGradient>
<path d="M10.708,9.568V9.566l-3.698-6.1v0.002V3.465C6.694,2.984,6.343,2.877,6.101,2.874   c-0.242,0.003-0.592,0.11-0.908,0.591l0.001,0.002L5.192,3.466L1.541,9.568L1.54,9.57c-0.224,0.411-0.418,0.862-0.232,1.277   c0.187,0.417,0.562,0.604,0.963,0.604h0.09h7.618H9.98c0.403,0,0.776-0.187,0.963-0.604C11.129,10.435,10.934,9.979,10.708,9.568z" fill="url(#XMLID_4_)" fill-opacity="0.8" stroke-opacity="0.8"/>
<path d="M5.37,10.933H2.31c-0.392,0-0.654-0.483-0.415-0.921l3.74-6.169c0.147-0.226,0.277-0.34,0.479-0.34   c0.198,0,0.303,0.114,0.452,0.34l3.79,6.169c0.238,0.438-0.021,0.921-0.416,0.921H5.37z" fill="#A2C2DD"/>
<linearGradient gradientUnits="userSpaceOnUse" id="XMLID_5_" x1="-12.6802" x2="26.8059" y1="7.2402" y2="7.2402">
<stop offset="0" style="stop-color:#FFFFFF"/>
<stop offset="0.1142" style="stop-color:#E0EAF3"/>
<stop offset="0.35" style="stop-color:#A2C2DD"/>
<stop offset="0.4825" style="stop-color:#8CA9CF"/>
<stop offset="0.7" style="stop-color:#6C83BB"/>
<stop offset="0.7458" style="stop-color:#637DB5"/>
<stop offset="0.8189" style="stop-color:#4C6EA4"/>
<stop offset="0.9097" style="stop-color:#265689"/>
<stop offset="0.9888" style="stop-color:#003D6D"/>
<stop offset="1" style="stop-color:#003D6D"/>
</linearGradient>
<path d="M5.873,3.969c-0.007,0.012-3.737,6.163-3.737,6.163   c-0.165,0.303,0.008,0.551,0.174,0.551h7.63c0.145,0,0.361-0.209,0.169-0.56L6.325,3.965C6.154,3.706,5.998,3.777,5.873,3.969z" fill="url(#XMLID_5_)" fill-opacity="0.6" stroke-opacity="0.6"/>
<linearGradient gradientUnits="userSpaceOnUse" id="XMLID_6_" x1="2.1646" x2="11.1758" y1="7.3281" y2="7.3281">
<stop offset="0" style="stop-color:#E1EBF4"/>
<stop offset="0.4944" style="stop-color:#CEE1EF"/>
<stop offset="1" style="stop-color:#C5CEEF"/>
</linearGradient>
<path d="M2.5,10.335l3.582-6.014c0.003,0.003,3.664,6.014,3.664,6.014H2.5z" fill="url(#XMLID_6_)"/>
<g fill-opacity="0.5" stroke-opacity="0.5">
<path d="M5.873,3.969c-0.007,0.012-3.737,6.163-3.737,6.163c-0.145,0.266-0.015,0.551,0.174,0.551h3.768V3.798    C6.037,3.809,5.977,3.809,5.873,3.969z" fill="#FFFFFF"/>
</g>
</g>
</svg>
