<?xml version="1.0" encoding="UTF-8"?>
<!DOCTYPE svg PUBLIC "-//W3C//DTD SVG 1.1 Tiny//EN" "http://www.w3.org/Graphics/SVG/1.1/DTD/svg11-tiny.dtd">
<svg width="84" height="72" viewBox="0 0 84 72">
<linearGradient id="_52" gradientUnits="userSpaceOnUse" x1="44.38" y1="32.3" x2="59.89" y2="62.86">
<stop stop-color="#A2C2DD" offset="0.1"/>
<stop stop-color="#6C83BB" offset="0.71"/>
<stop stop-color="#003D6D" offset="0.99"/>
</linearGradient>
<path fill="url(#_52)" d="M33.313,4.785c0,0-1.702,5.906-1.875,6.417c-0.56-0.087-14.835-2.287-14.835-2.287 c-1.914,0.036-3.658,0.703-3.658,0.703l1.257,33.909c0,0,22.96,6.332,23.433,6.462c0.231,4.483,1.179,13.191,1.179,13.191 s4.435,4.429,10.75,4.597c0.771,0.021,3.209-2.306,3.29-2.611c0.046-0.173,0.108-0.542,0.142-0.709 c0.145-0.129,1.069-0.984,1.069-0.984s2.082-11.021,1.976-18.651c-0.02-1.435-0.175-4.126-0.175-4.126s-1.677-1.619-3.719-2.327 c0.109-0.281,0.656-3.854,0.656-3.854s0.406,0.083,0.646,0.125c0.656-0.063,2.281-0.375,3.563-2.531 c0.146,5.245,1.094,15.427,1.094,15.427c3.474,3.734,8.831,4.128,9.104,4.084c1.189,0.166,3.297-2.1,3.338-2.158 c0,0,0.133-0.511,0.164-0.67c0.14-0.125,0.866-0.865,0.866-0.865c0.678-3.152,1.605-10.359,1.605-16.118 c0-1.242-0.141-3.73-0.141-3.73c-0.767-0.808-1.991-1.478-3.124-1.938c0.062-0.433,0.458-3.708,0.458-3.708 s-0.172-0.726-1.604-0.813c-1.434-0.087-1.604,0.666-1.604,0.666s0.168,2.49,0.188,3.125c-3.646-0.651-6.61,0.13-7.584,0.376 c0.328-0.995,2.5-7.75,2.5-7.75s0.313,0.063,2.416,0.042c0,0,4.105-7.699,2.834-10.833c-0.26-0.64-0.678-1.016-1.417-1.125 c0,0-28.622-1.956-29.625-2C34.605,4.036,33.313,4.785,33.313,4.785z"/>
<linearGradient id="_53" gradientUnits="userSpaceOnUse" x1="56.51" y1="-3.56" x2="40.77" y2="26.34">
<stop stop-color="#FFFFFF" offset="0.05"/>
<stop stop-color="#A2C2DD" offset="1"/>
</linearGradient>
<path fill="url(#_53)" d="M63.27,7.438L33.793,4.949l-5.896,19.81l25.447,9.528 C58.801,33.4,63.27,7.438,63.27,7.438z"/>
<linearGradient id="_54" gradientUnits="userSpaceOnUse" x1="74.82" y1="-3.62" x2="55.67" y2="26.67">
<stop stop-color="#FFFFFF" offset="0"/>
<stop stop-color="#496DA2" offset="0.71"/>
<stop stop-color="#235487" offset="0.99"/>
</linearGradient>
<path fill="url(#_54)" d="M63.281,7.506L57.81,24.618c-2.119,6.574-2.629,9.639-4.622,9.665 c1.923,0.334,4.38-2.273,5.667-6.887l3.136-9.757l2.565,0.051C69.963,6.788,66.811,5.106,63.281,7.506z"/>
<linearGradient id="_55" gradientUnits="userSpaceOnUse" x1="48.33" y1="9.83" x2="51.7" y2="0.69">
<stop stop-color="#FFFFFF" offset="0.05"/>
<stop stop-color="#A2C2DD" offset="1"/>
</linearGradient>
<path fill="url(#_55)" d="M63.27,7.496c0.793-0.515,1.428-0.826,2.588-0.979L36.507,4.442 c-1.257,0.106-1.869,0.154-2.714,0.569L63.27,7.496z"/>
<path fill="#FFFFFF" d="M36.355,6.113c-0.604-0.066-1.243,0.378-1.425,0.992c-0.184,0.613,0.154,1.168,0.754,1.233 c0.599,0.066,1.237-0.376,1.425-0.994C37.297,6.729,36.96,6.179,36.355,6.113z"/>
<path fill="#FFFFFF" d="M35.128,10.153c-0.594-0.067-1.23,0.375-1.412,0.989c-0.182,0.612,0.148,1.17,0.738,1.239 c0.595,0.063,1.224-0.38,1.41-0.995C36.054,10.771,35.724,10.217,35.128,10.153z"/>
<path fill="#FFFFFF" d="M58.768,10.181c-0.497,1.531,1.754,1.719,2.254,0.186C61.539,8.821,59.264,8.632,58.768,10.181z"/>
<path fill="#FFFFFF" d="M57.396,14.394c-0.494,1.524,1.726,1.711,2.226,0.188C60.13,13.047,57.896,12.858,57.396,14.394z"/>
<path fill="#FFFFFF" d="M56.027,18.611c-0.492,1.538,1.688,1.726,2.191,0.188C58.726,17.27,56.524,17.078,56.027,18.611z"/>
<path fill="#FFFFFF" d="M54.657,22.825c-0.497,1.529,1.658,1.722,2.155,0.192C57.328,21.482,55.148,21.288,54.657,22.825z "/>
<path fill="#FFFFFF" d="M53.282,27.04c-0.499,1.548,1.618,1.744,2.129,0.194C55.926,25.683,53.789,25.485,53.282,27.04z"/>
<path fill="#FFFFFF" d="M52.483,30.466l0.09,2.049c0.58,0.06,1.216-0.416,1.43-1.057 C54.373,30.343,53.303,29.856,52.483,30.466z"/>
<linearGradient id="_56" gradientUnits="userSpaceOnUse" x1="58.98" y1="52.7" x2="47.83" y2="17.14">
<stop stop-color="#FFFFFF" offset="0"/>
<stop stop-color="#496DA2" offset="0.71"/>
<stop stop-color="#235487" offset="0.99"/>
</linearGradient>
<path fill="url(#_56)" d="M49.995,14.883c6.762-0.157,0.607,15.44,3.349,19.404l-5.703-1.46 C47.641,32.827,45.209,14.012,49.995,14.883z"/>
<linearGradient id="_57" gradientUnits="userSpaceOnUse" x1="54.16" y1="54.22" x2="43.01" y2="18.66">
<stop stop-color="#A2C2DD" offset="0.1"/>
<stop stop-color="#6C83BB" offset="0.71"/>
<stop stop-color="#003D6D" offset="0.99"/>
</linearGradient>
<polygon fill="url(#_57)" points="46.219,52.089 46.354,15.729 49.144,15.014 49.02,49.51 "/>
<linearGradient id="_58" gradientUnits="userSpaceOnUse" x1="43.22" y1="5.58" x2="24.08" y2="41.94">
<stop stop-color="#FFFFFF" offset="0.05"/>
<stop stop-color="#A2C2DD" offset="1"/>
</linearGradient>
<polygon fill="url(#_58)" points="46.213,52.091 14.556,43.246 13.436,9.974 46.831,16.52 "/>
<linearGradient id="_59" gradientUnits="userSpaceOnUse" x1="29.45" y1="17.65" x2="29.45" y2="46.35">
<stop stop-color="#E6EEF4" offset="0"/>
<stop stop-color="#C03A3A" offset="0.44"/>
<stop stop-color="#302D02" offset="0.94"/>
</linearGradient>
<path fill="url(#_59)" d="M26.652,19.781l5.502,10.718l-2.993-0.778l0.007,1.211 c0.022,1.069,0.679,2.387,1.645,2.64c0.939,0.244,1.835-0.632,1.861-1.661l-0.236-8.723l5.604,1.062l0.028,9.141 c-0.051,4.447-4.35,6.402-7.336,5.819c-4.104-0.797-6.816-3.797-6.813-9.287l0.013-1.573l-3.095-0.805L26.652,19.781z"/>
<linearGradient id="_60" gradientUnits="userSpaceOnUse" x1="30.85" y1="15.97" x2="33.77" y2="8.06">
<stop stop-color="#FFFFFF" offset="0.05"/>
<stop stop-color="#A2C2DD" offset="1"/>
</linearGradient>
<path fill="url(#_60)" d="M46.831,16.52c0.459-0.971,2.726-1.824,4.056-1.622L16.706,9.431 c-1.266-0.01-2.579,0.188-3.296,0.573L46.831,16.52z"/>
<path fill="#FFFFFF" d="M15.42,13.194c0.067,1.586,2.458,2.09,2.402,0.503C17.762,12.109,15.35,11.604,15.42,13.194z"/>
<path fill="#FFFFFF" d="M15.601,17.544c0.07,1.579,2.429,2.082,2.369,0.501C17.911,16.467,15.528,15.965,15.601,17.544z"/>
<path fill="#FFFFFF" d="M15.78,21.896c0.072,1.586,2.393,2.088,2.338,0.501C18.063,20.794,15.714,20.293,15.78,21.896z"/>
<path fill="#FFFFFF" d="M15.957,26.245c0.069,1.581,2.364,2.085,2.308,0.502C18.208,25.166,15.889,24.665,15.957,26.245z"/>
<path fill="#FFFFFF" d="M16.137,30.595c0.063,1.589,2.328,2.088,2.272,0.502C18.353,29.509,16.064,29.009,16.137,30.595z"/>
<path fill="#FFFFFF" d="M16.309,34.942c0.065,1.581,2.293,2.084,2.243,0.502C18.492,33.849,16.245,33.347,16.309,34.942z"/>
<path fill="#FFFFFF" d="M41.856,19.187c0.034,1.642,2.484,2.091,2.463,0.447C44.305,17.976,41.828,17.526,41.856,19.187z"/>
<path fill="#FFFFFF" d="M41.938,23.712c0.029,1.645,2.449,2.094,2.43,0.448C44.343,22.52,41.903,22.071,41.938,23.712z"/>
<path fill="#FFFFFF" d="M42.016,28.243c0.03,1.638,2.418,2.084,2.396,0.445C44.39,27.033,41.987,26.587,42.016,28.243z"/>
<path fill="#FFFFFF" d="M42.093,32.77c0.027,1.654,2.383,2.104,2.362,0.449C44.438,31.573,42.058,31.126,42.093,32.77z"/>
<path fill="#FFFFFF" d="M42.167,37.302c0.03,1.646,2.352,2.095,2.33,0.443C44.479,36.094,42.137,35.646,42.167,37.302z"/>
<path fill="#FFFFFF" d="M42.238,41.826c0.033,1.646,2.314,2.1,2.299,0.451C44.522,40.629,42.209,40.179,42.238,41.826z"/>
<path fill="#FFFFFF" d="M42.281,46.216c0.028,1.658,2.347,2.108,2.333,0.449C44.591,45.002,42.257,44.556,42.281,46.216z"/>
<path fill="#FFFFFF" d="M43.494,49.37c-0.885-0.175-1.414,0.809-0.949,1.699l1.861,0.51 C45.042,50.857,44.427,49.552,43.494,49.37z"/>
<linearGradient id="_61" gradientUnits="userSpaceOnUse" x1="47.09" y1="34.03" x2="55.56" y2="46.09">
<stop stop-color="#A2C2DD" offset="0.1"/>
<stop stop-color="#6C83BB" offset="0.71"/>
<stop stop-color="#003D6D" offset="0.99"/>
</linearGradient>
<path fill="url(#_61)" d="M45.925,37.717c2.565-0.094,6.887,0.269,9.676,3.074l-1.65,0.761L45.925,37.717z"/>
<linearGradient id="_62" gradientUnits="userSpaceOnUse" x1="51.83" y1="35.19" x2="54.82" y2="58.79">
<stop stop-color="#FFFFFF" offset="0"/>
<stop stop-color="#A2C2DD" offset="0.35"/>
<stop stop-color="#6C83BB" offset="0.7"/>
<stop stop-color="#003D6D" offset="1"/>
</linearGradient>
<path fill="url(#_62)" d="M54.223,41.405L52.483,64.49l1.327-1.124c1.041-4.584,2.455-15.891,1.784-22.61 L54.223,41.405z"/>
<linearGradient id="_63" gradientUnits="userSpaceOnUse" x1="42.12" y1="43.34" x2="49.86" y2="37.11">
<stop stop-color="#FFFFFF" offset="0.15"/>
<stop stop-color="#A2C2DD" offset="1"/>
</linearGradient>
<path fill="url(#_63)" d="M37.916,39.237c4.885-1.75,11.651-2.817,16.505,1.697l-3.955,1.884L37.916,39.237z"/>
<linearGradient id="_64" gradientUnits="userSpaceOnUse" x1="51.9" y1="36.81" x2="52.28" y2="73.82">
<stop stop-color="#FFFFFF" offset="0"/>
<stop stop-color="#A2C2DD" offset="0.35"/>
<stop stop-color="#6C83BB" offset="0.7"/>
<stop stop-color="#003D6D" offset="1"/>
</linearGradient>
<path fill="url(#_64)" d="M50.466,42.818l-0.877,24.607c1.853-0.854,3.029-2.432,3.029-2.432 c1.096-4.832,2.515-16.969,1.803-24.06L50.466,42.818z"/>
<linearGradient id="_65" gradientUnits="userSpaceOnUse" x1="48.17" y1="39.19" x2="53.56" y2="41.54">
<stop stop-color="#FFFFFF" offset="0"/>
<stop stop-color="#A2C2DD" offset="0.35"/>
<stop stop-color="#6C83BB" offset="0.7"/>
<stop stop-color="#003D6D" offset="1"/>
</linearGradient>
<path fill="url(#_65)" d="M52.241,40.119c0.201,1.243-3.186,1.436-3.159,0.068 C49.102,39.246,52.093,39.191,52.241,40.119z"/>
<linearGradient id="_66" gradientUnits="userSpaceOnUse" x1="49.28" y1="37.27" x2="53.36" y2="37.55">
<stop stop-color="#E6EEF4" offset="0"/>
<stop stop-color="#337CE5" offset="0.44"/>
<stop stop-color="#003D6D" offset="0.94"/>
</linearGradient>
<path fill="url(#_66)" d="M49.448,33.95c0,0,0.203,6.331,0.203,6.349c0.49,0.54,1.652,0.498,1.998,0.013l0.877-6.053 L49.448,33.95z"/>
<linearGradient id="_67" gradientUnits="userSpaceOnUse" x1="51.17" y1="38.14" x2="41.03" y2="58.91">
<stop stop-color="#FFFFFF" offset="0.05"/>
<stop stop-color="#A2C2DD" offset="1"/>
</linearGradient>
<path fill="url(#_67)" d="M37.916,39.237c2.718-0.887,8.474-0.148,12.55,3.581c0.476,6.688,0.089,18.306-0.877,24.607 c-3.287,0.081-7.928-2.126-10.378-4.253C38.405,57.549,37.407,45.964,37.916,39.237z"/>
<linearGradient id="_68" gradientUnits="userSpaceOnUse" x1="53.23" y1="54.25" x2="37.42" y2="45.51">
<stop stop-color="#FFFFFF" offset="0.05"/>
<stop stop-color="#A2C2DD" offset="1"/>
</linearGradient>
<polygon fill="url(#_68)" points="39.271,40.86 39.689,55.042 48.771,58.388 49.072,43.677 "/>
<linearGradient id="_69" gradientUnits="userSpaceOnUse" x1="40.48" y1="65.6" x2="39.64" y2="32.65">
<stop stop-color="#FFFFFF" offset="0"/>
<stop stop-color="#A2C2DD" offset="0.35"/>
<stop stop-color="#6C83BB" offset="0.7"/>
<stop stop-color="#003D6D" offset="1"/>
</linearGradient>
<polygon fill="url(#_69)" points="40.705,54.429 40.442,41.191 39.271,40.86 39.689,55.042 "/>
<linearGradient id="_70" gradientUnits="userSpaceOnUse" x1="49.46" y1="61.06" x2="36.68" y2="49">
<stop stop-color="#FFFFFF" offset="0.15"/>
<stop stop-color="#A2C2DD" offset="1"/>
</linearGradient>
<polygon fill="url(#_70)" points="39.689,55.042 40.705,54.429 48.804,57.232 48.771,58.388 "/>
<linearGradient id="_71" gradientUnits="userSpaceOnUse" x1="49.85" y1="34.45" x2="52.33" y2="33.65">
<stop stop-color="#D6E4F3" offset="0"/>
<stop stop-color="#337CE5" offset="1"/>
</linearGradient>
<path fill="url(#_71)" d="M52.526,34.259c-0.29,0.819-3.373,0.454-3.052-0.364 C49.802,33.084,52.805,33.432,52.526,34.259z"/>
<linearGradient id="_72" gradientUnits="userSpaceOnUse" x1="41.67" y1="52.81" x2="48.66" y2="64.43">
<stop stop-color="#E6EEF4" offset="0"/>
<stop stop-color="#337CE5" offset="0.44"/>
<stop stop-color="#003D6D" offset="0.94"/>
</linearGradient>
<polygon fill="url(#_72)" points="45.839,62.107 48.174,63.091 48.266,61.409 45.889,60.428 "/>
<polygon fill="url(#_72)" points="48.288,60.972 48.382,59.296 45.951,58.392 45.902,59.995 "/>
<polygon fill="url(#_72)" points="45.825,62.542 45.784,64.059 48.066,65.076 48.15,63.529 "/>
<polygon fill="url(#_72)" points="42.616,59.105 40.566,58.293 40.672,59.988 42.682,60.799 "/>
<polygon fill="url(#_72)" points="45.446,59.836 45.466,58.241 43.109,57.379 43.137,58.91 "/>
<polygon fill="url(#_72)" points="42.542,57.145 40.443,56.389 40.538,57.855 42.6,58.669 "/>
<polygon fill="url(#_72)" points="43.215,62.968 45.403,63.92 45.416,62.399 43.188,61.471 "/>
<polygon fill="url(#_72)" points="42.692,61.238 40.703,60.426 40.795,61.904 42.75,62.739 "/>
<polygon fill="url(#_72)" points="43.146,59.346 43.177,61.031 45.425,61.962 45.44,60.275 "/>
<polygon fill="url(#_72)" points="43.223,63.411 43.251,64.947 45.38,65.94 45.399,64.361 "/>
<linearGradient id="_82" gradientUnits="userSpaceOnUse" x1="65.4" y1="22.38" x2="72.73" y2="32.82">
<stop stop-color="#A2C2DD" offset="0.1"/>
<stop stop-color="#6C83BB" offset="0.71"/>
<stop stop-color="#003D6D" offset="0.99"/>
</linearGradient>
<path fill="url(#_82)" d="M64.39,25.578c2.221-0.081,5.96,0.232,8.373,2.66l-1.427,0.658L64.39,25.578z"/>
<linearGradient id="_83" gradientUnits="userSpaceOnUse" x1="69.5" y1="23.39" x2="72.09" y2="43.81">
<stop stop-color="#FFFFFF" offset="0"/>
<stop stop-color="#A2C2DD" offset="0.35"/>
<stop stop-color="#6C83BB" offset="0.7"/>
<stop stop-color="#003D6D" offset="1"/>
</linearGradient>
<path fill="url(#_83)" d="M71.571,28.769l-1.505,19.978l1.146-0.973c0.901-3.967,2.125-13.752,1.544-19.566 L71.571,28.769z"/>
<linearGradient id="_84" gradientUnits="userSpaceOnUse" x1="61.09" y1="30.45" x2="67.8" y2="25.06">
<stop stop-color="#FFFFFF" offset="0.15"/>
<stop stop-color="#A2C2DD" offset="1"/>
</linearGradient>
<path fill="url(#_84)" d="M57.46,26.894c4.227-1.515,10.083-2.438,14.282,1.469l-3.423,1.629L57.46,26.894z"/>
<linearGradient id="_85" gradientUnits="userSpaceOnUse" x1="69.57" y1="24.79" x2="69.89" y2="56.82">
<stop stop-color="#FFFFFF" offset="0"/>
<stop stop-color="#A2C2DD" offset="0.35"/>
<stop stop-color="#6C83BB" offset="0.7"/>
<stop stop-color="#003D6D" offset="1"/>
</linearGradient>
<path fill="url(#_85)" d="M68.319,29.991l-0.758,21.294c1.603-0.739,2.621-2.104,2.621-2.104 c0.947-4.181,2.175-14.684,1.56-20.819L68.319,29.991z"/>
<linearGradient id="_86" gradientUnits="userSpaceOnUse" x1="66.33" y1="26.85" x2="71" y2="28.89">
<stop stop-color="#FFFFFF" offset="0"/>
<stop stop-color="#A2C2DD" offset="0.35"/>
<stop stop-color="#6C83BB" offset="0.7"/>
<stop stop-color="#003D6D" offset="1"/>
</linearGradient>
<path fill="url(#_86)" d="M69.856,27.656c0.174,1.075-2.757,1.242-2.735,0.06 C67.14,26.901,69.728,26.854,69.856,27.656z"/>
<linearGradient id="_87" gradientUnits="userSpaceOnUse" x1="67.29" y1="25.19" x2="70.82" y2="25.43">
<stop stop-color="#E6EEF4" offset="0"/>
<stop stop-color="#337CE5" offset="0.44"/>
<stop stop-color="#003D6D" offset="0.94"/>
</linearGradient>
<path fill="url(#_87)" d="M67.439,22.318c0,0,0.175,5.478,0.175,5.493c0.424,0.468,1.431,0.432,1.729,0.012 l0.759-5.238L67.439,22.318z"/>
<linearGradient id="_88" gradientUnits="userSpaceOnUse" x1="68.93" y1="25.95" x2="60.15" y2="43.92">
<stop stop-color="#FFFFFF" offset="0.05"/>
<stop stop-color="#A2C2DD" offset="1"/>
</linearGradient>
<path fill="url(#_88)" d="M57.46,26.894c2.352-0.768,7.332-0.129,10.859,3.098c0.411,5.788,0.077,15.842-0.758,21.294 c-2.846,0.07-6.862-1.839-8.981-3.68C57.883,42.739,57.02,32.714,57.46,26.894z"/>
<linearGradient id="_89" gradientUnits="userSpaceOnUse" x1="70.71" y1="39.89" x2="57.03" y2="32.32">
<stop stop-color="#FFFFFF" offset="0.05"/>
<stop stop-color="#A2C2DD" offset="1"/>
</linearGradient>
<polygon fill="url(#_89)" points="58.633,28.298 58.995,40.569 66.854,43.465 67.113,30.734 "/>
<linearGradient id="_90" gradientUnits="userSpaceOnUse" x1="59.68" y1="49.7" x2="58.96" y2="21.2">
<stop stop-color="#FFFFFF" offset="0"/>
<stop stop-color="#A2C2DD" offset="0.35"/>
<stop stop-color="#6C83BB" offset="0.7"/>
<stop stop-color="#003D6D" offset="1"/>
</linearGradient>
<polygon fill="url(#_90)" points="59.873,40.039 59.646,28.585 58.633,28.298 58.995,40.569 "/>
<linearGradient id="_91" gradientUnits="userSpaceOnUse" x1="67.45" y1="45.78" x2="56.39" y2="35.34">
<stop stop-color="#FFFFFF" offset="0.15"/>
<stop stop-color="#A2C2DD" offset="1"/>
</linearGradient>
<polygon fill="url(#_91)" points="58.995,40.569 59.873,40.039 66.882,42.465 66.854,43.465 "/>
<linearGradient id="_92" gradientUnits="userSpaceOnUse" x1="67.79" y1="22.75" x2="69.93" y2="22.06">
<stop stop-color="#D6E4F3" offset="0"/>
<stop stop-color="#337CE5" offset="1"/>
</linearGradient>
<path fill="url(#_92)" d="M70.103,22.585c-0.251,0.71-2.919,0.393-2.642-0.315 C67.745,21.568,70.343,21.87,70.103,22.585z"/>
<linearGradient id="_93" gradientUnits="userSpaceOnUse" x1="60.71" y1="38.64" x2="66.75" y2="48.69">
<stop stop-color="#E6EEF4" offset="0"/>
<stop stop-color="#337CE5" offset="0.44"/>
<stop stop-color="#003D6D" offset="0.94"/>
</linearGradient>
<polygon fill="url(#_93)" points="64.315,46.684 66.336,47.535 66.416,46.079 64.358,45.23 "/>
<polygon fill="url(#_93)" points="66.436,45.701 66.517,44.251 64.413,43.468 64.371,44.855 "/>
<polygon fill="url(#_93)" points="64.304,47.059 64.269,48.372 66.243,49.253 66.316,47.914 "/>
<polygon fill="url(#_93)" points="61.526,44.086 59.753,43.382 59.845,44.85 61.584,45.551 "/>
<polygon fill="url(#_93)" points="63.977,44.718 63.993,43.339 61.954,42.592 61.978,43.917 "/>
<polygon fill="url(#_93)" points="61.463,42.389 59.646,41.735 59.729,43.005 61.513,43.708 "/>
<polygon fill="url(#_93)" points="62.045,47.428 63.938,48.252 63.95,46.936 62.021,46.133 "/>
<polygon fill="url(#_93)" points="61.593,45.932 59.871,45.229 59.951,46.508 61.643,47.23 "/>
<polygon fill="url(#_93)" points="61.985,44.293 62.012,45.753 63.957,46.558 63.971,45.098 "/>
<polygon fill="url(#_93)" points="62.052,47.811 62.075,49.142 63.92,50.001 63.936,48.635 "/>
</svg>