<?xml version="1.0" encoding="UTF-8"?>
<!DOCTYPE svg PUBLIC "-//W3C//DTD SVG 1.1 Tiny//EN" "http://www.w3.org/Graphics/SVG/1.1/DTD/svg11-tiny.dtd">
<svg width="50" height="50" viewBox="0 0 50 50">
<path d="M1.381,25.002c0,13.022,10.596,23.617,23.619,23.617 s23.619-10.595,23.619-23.617C48.619,11.977,38.023,1.381,25,1.381S1.381,11.977,1.381,25.002z" fill="#1FFFEA" fill-opacity="0.2" />
<path d="M2.381,25.002c0,12.472,10.148,22.617,22.619,22.617 c12.473,0,22.619-10.146,22.619-22.617C47.619,12.529,37.473,2.381,25,2.381C12.529,2.381,2.381,12.529,2.381,25.002z" fill="#1FFFEA" fill-opacity="0.3" />
<path d="M3.367,25.002c0,11.927,9.706,21.631,21.633,21.631 c11.929,0,21.632-9.704,21.632-21.631c0-11.929-9.703-21.631-21.632-21.631C13.072,3.371,3.367,13.073,3.367,25.002z" fill="#1FFFEA" fill-opacity="0.4" />
<radialGradient id="_4" gradientUnits="userSpaceOnUse" cx="25" cy="25" r="19.75">
<stop stop-color="#B3DDFF" offset="0"/>
<stop stop-color="#D3FFBF" offset="0.01"/>
<stop stop-color="#92F7DB" offset="0.41"/>
<stop stop-color="#56F0F5" offset="0.81"/>
<stop stop-color="#3FEDFF" offset="1"/>
</radialGradient>
<path d="M5.254,25c0,10.887,8.859,19.746,19.749,19.746 c10.888,0,19.746-8.859,19.746-19.746c0-10.889-8.858-19.748-19.746-19.748C14.114,5.252,5.254,14.111,5.254,25z" fill="url(#_4)"/>
<linearGradient id="_5" gradientUnits="userSpaceOnUse" x1="25" y1="5.62" x2="25" y2="44.35">
<stop stop-color="#CFECFF" offset="0"/>
<stop stop-color="#8CC2EA" offset="1"/>
</linearGradient>
<path d="M5.254,25c0,10.887,8.859,19.746,19.748,19.746 c10.888,0,19.746-8.859,19.746-19.746c0-10.889-8.858-19.748-19.746-19.748C14.113,5.252,5.254,14.111,5.254,25z M6.332,25 c0-10.313,8.358-18.674,18.671-18.674S43.671,14.688,43.671,25c0,10.314-8.355,18.671-18.668,18.671S6.332,35.314,6.332,25z" fill="url(#_5)" fill-opacity="0.5" />
<linearGradient id="_6" gradientUnits="userSpaceOnUse" x1="25" y1="2.75" x2="25" y2="53.43">
<stop stop-color="#FFFFFF" offset="0"/>
<stop stop-color="#B3DDFF" offset="1"/>
</linearGradient>
<path d="M6.329,25c0,10.314,8.36,18.672,18.674,18.672 c10.316,0,18.672-8.358,18.672-18.672c0-10.313-8.356-18.673-18.672-18.673C14.688,6.327,6.329,14.688,6.329,25z" fill="url(#_6)" fill-opacity="0.5" />
<path d="M8.871,25.02c0,17.572,32.262,17.572,32.262,0 C41.132,7.522,8.871,7.522,8.871,25.02z" fill="#FFFFFF" fill-opacity="0.15" />
<g fill-opacity="0.6" stroke-opacity="0.6">
<path d="M31.015,18.072c0.372,0,0.671,0.399,0.671,0.892v14.283 c0,0.492-0.3,0.891-0.671,0.891h-2.747c-0.371,0-0.672-0.399-0.672-0.891V18.964c0-0.493,0.301-0.892,0.672-0.892H31.015z" fill="#0046B7" fill-opacity="0.6" />
<path d="M24.447,19.57v13.004c0,0.691-0.727,1.069-1.288,0.653l-8.831-6.513 c-0.433-0.319-0.415-1.001,0.001-1.308l8.832-6.491C23.713,18.507,24.447,18.906,24.447,19.57z" fill="#0046B7" fill-opacity="0.6" />
</g>
<path d="M12.55,22.991l8.834-6.492c1.639-1.213,3.341-0.718,4.216-0.185 c0.69-0.782,1.639-1.242,2.669-1.242h2.747c2.059,0,3.671,1.709,3.671,3.892v14.283c0,2.182-1.613,3.891-3.671,3.891h-2.747 c-1.034,0-2.029-0.477-2.727-1.266c-1.439,0.763-2.937,0.677-4.167-0.232l-8.829-6.512 C10.488,27.612,10.496,24.504,12.55,22.991z" fill="#1FFFEA" fill-opacity="0.1" />
<path d="M13.143,23.796l8.833-6.491c1.716-1.271,3.364-0.126,3.908,0.612 c0.033-0.763,1.103-1.844,2.384-1.844h2.747c1.498,0,2.671,1.27,2.671,2.892v14.283c0,1.621-1.173,2.891-2.671,2.891h-2.747 c-1.203,0-2.135-0.873-2.478-1.796c-0.595,0.724-2.242,1.663-3.821,0.494l-8.83-6.512 C11.615,27.2,11.65,24.896,13.143,23.796z" fill="#1FFFEA" fill-opacity="0.2" />
<path d="M25.447,19.57v13.004c0,1.19-1.536,2.453-2.883,1.458l-8.83-6.513 c-0.959-0.707-0.972-2.2,0.002-2.918l8.832-6.491C23.712,17.264,25.447,17.999,25.447,19.57z" fill="#1FFFEA" fill-opacity="0.3" />
<path d="M31.015,17.072c0.937,0,1.671,0.831,1.671,1.892v14.283 c0,1.061-0.734,1.891-1.671,1.891h-2.747c-0.938,0-1.672-0.831-1.672-1.891V18.964c-0.038-1.056,0.668-1.892,1.672-1.892 H31.015z" fill="#1FFFEA" fill-opacity="0.3" />
</svg>