<?xml version="1.0" encoding="UTF-8"?>
<!DOCTYPE svg PUBLIC "-//W3C//DTD SVG 1.1 Tiny//EN" "http://www.w3.org/Graphics/SVG/1.1/DTD/svg11-tiny.dtd">
<svg width="352" height="154" viewBox="-0.729 0.324 352 154">
<path fill-opacity="0.01" fill="#656B6B" d="M13.271,10.324c-6.617,0-12,5.383-12,12v114c0,6.617,5.383,12,12,12h324 c6.617,0,12-5.383,12-12v-114c0-6.617-5.383-12-12-12H13.271z"/>
<path fill-opacity="0.03" fill="#656B6B" d="M13.271,11.324c-6.064,0-11,4.935-11,11v114c0,6.066,4.936,11,11,11h324 c6.066,0,11-4.934,11-11v-114c0-6.065-4.934-11-11-11H13.271z"/>
<path fill-opacity="0.04" fill="#656B6B" d="M13.271,12.324c-5.514,0-10,4.486-10,10v114c0,5.514,4.486,10,10,10h324 c5.514,0,10-4.486,10-10v-114c0-5.514-4.486-10-10-10H13.271z"/>
<path fill-opacity="0.06" fill="#656B6B" d="M13.271,13.324c-4.963,0-9,4.037-9,9v114c0,4.963,4.037,9,9,9h324c4.963,0,9-4.037,9-9v-114 c0-4.963-4.037-9-9-9H13.271z"/>
<path fill-opacity="0.08" fill="#656B6B" d="M13.271,14.324c-4.41,0-8,3.589-8,8v114c0,4.412,3.59,8,8,8h324c4.412,0,8-3.588,8-8v-114 c0-4.411-3.588-8-8-8H13.271z"/>
<path fill-opacity="0.1" fill="#656B6B" d="M13.271,15.324c-3.859,0-7,3.141-7,7v114c0,3.859,3.141,7,7,7h324c3.859,0,7-3.141,7-7v-114 c0-3.859-3.141-7-7-7H13.271z"/>
<path fill-opacity="0.11" fill="#656B6B" d="M13.271,16.324c-3.309,0-6,2.691-6,6v114c0,3.309,2.691,6,6,6h324c3.309,0,6-2.691,6-6v-114 c0-3.309-2.691-6-6-6H13.271z"/>
<path fill-opacity="0.1" fill="#656B6B" d="M342.271,136.324c0,2.762-2.238,5-5,5h-324c-2.762,0-5-2.238-5-5v-114c0-2.762,2.238-5,5-5 h324c2.762,0,5,2.238,5,5V136.324z"/>
<polygon fill-opacity="0.03" fill="#656B6B" points="341.271,13.324 4.271,13.324 4.271,141.324 342.271,141.324 342.271,13.324 "/>
<linearGradient id="_2" gradientUnits="userSpaceOnUse" x1="173.27" y1="126.32" x2="173.27" y2="43.77">
<stop stop-color="#D9F4E0" offset="0"/>
<stop stop-color="#FFFFFF" offset="1"/>
</linearGradient>
<rect x="5.271" y="14.324" fill="url(#_2)" width="336" height="126"/>
</svg>