<?xml version="1.0" encoding="UTF-8"?>
<!DOCTYPE svg PUBLIC "-//W3C//DTD SVG 1.1 Tiny//EN" "http://www.w3.org/Graphics/SVG/1.1/DTD/svg11-tiny.dtd">
<svg width="8" height="20" viewBox="-0.61 0.092 8 20">
<path fill-opacity="0.15" fill="#3F3F3F" d="M6.391,17.803V2.381c0-0.711-0.668-1.289-1.488-1.289H4.39c0,0,0,14.275,0,16 c-0.146,0-1.897,0-5,0v2h5.512C5.723,19.092,6.391,18.514,6.391,17.803z"/>
<path fill-opacity="0.3" fill="#FFFFFF" d="M6.391,2.381c0-0.711-0.668-1.289-1.488-1.289H-0.61v2c4.51,0,7,0,7,0V2.381z"/>
<path fill="#496DA2" d="M4.902,0.092H-0.61v1h5.512c0.82,0,1.488,0.578,1.488,1.289v15.422c0,0.711-0.668,1.289-1.488,1.289H-0.61 v1h5.512c1.371,0,2.488-1.026,2.488-2.289V2.381C7.391,1.118,6.273,0.092,4.902,0.092z"/>
</svg>