<?xml version="1.0" encoding="utf-8"?>
<!DOCTYPE svg PUBLIC "-//W3C//DTD SVG 1.1 Tiny//EN" "http://www.w3.org/Graphics/SVG/1.1/DTD/svg11-tiny.dtd">
<svg width="60" height="80" viewBox="0 0 60 80">
<linearGradient id="_322" gradientUnits="userSpaceOnUse" x1="20.69" y1="30.75" x2="38.19" y2="51.79">
<stop stop-color="#DEE9F3" offset="0"/>
<stop stop-color="#235487" offset="1"/>
</linearGradient>
<circle fill="url(#_322)" cx="29.527" cy="41.367" r="23.417"/>
<radialGradient id="_323" gradientUnits="userSpaceOnUse" cx="34.05" cy="26.71" r="42.04">
<stop stop-color="#FFFFFF" offset="0"/>
<stop stop-color="#A2C2DD" offset="0.53"/>
<stop stop-color="#6C83BB" offset="0.87"/>
<stop stop-color="#003D6D" offset="1"/>
</radialGradient>
<circle fill="url(#_323)" cx="29.566" cy="41.366" r="22.724"/>
<radialGradient id="_324" gradientUnits="userSpaceOnUse" cx="34.36" cy="29.04" r="28.6">
<stop stop-color="#E6EEF4" offset="0"/>
<stop stop-color="#C6DCC1" offset="0.08"/>
<stop stop-color="#91C06F" offset="0.21"/>
<stop stop-color="#6BAB33" offset="0.32"/>
<stop stop-color="#539E0E" offset="0.4"/>
<stop stop-color="#4A9900" offset="0.44"/>
<stop stop-color="#398419" offset="0.55"/>
<stop stop-color="#22663B" offset="0.71"/>
<stop stop-color="#135550" offset="0.85"/>
<stop stop-color="#0E4E58" offset="0.94"/>
</radialGradient>
<path fill="url(#_324)" d="M46.232,32.296l-2.457-2.941l0.119-0.243c0,0,1.258,1.738,2.332,2.331c1.213,0.669,1.398,1.495,1.406,1.856c0.008,0.361,1.893,1.583,1.893,1.583s0.15-0.352,0.556,0.007c0.017,0.015,0.319,0.033,0.323,0.051c0.199,0.822,0.832,1.105,0.832,1.105c0.104,0.217,0.318,0.67,0.648,1.066c-0.007-0.035-0.012-0.069-0.019-0.104c-0.065-0.335-0.14-0.667-0.22-0.997c-0.019-0.079-0.035-0.159-0.055-0.237c-0.102-0.403-0.214-0.801-0.337-1.195c-0.004-0.012-0.008-0.023-0.012-0.035c-0.226,0.018-0.404,0.061-0.404,0.061c0.147-0.329-0.112-0.771-0.243-1.298c-0.232-0.933-0.605-0.588-0.576,0.122L49.83,33.66c-0.619-0.533-1.041-1.403-1.355-2.411c-0.326-1.056-0.02-1.604,0.381-1.889c-0.037-0.06-0.078-0.119-0.115-0.179c-0.283-0.445-0.579-0.882-0.893-1.306c-0.033-0.044-0.063-0.089-0.098-0.133c-0.323-0.431-0.665-0.845-1.018-1.251c-0.078-0.089-0.153-0.181-0.232-0.269c-0.35-0.39-0.713-0.766-1.088-1.131c-0.096-0.094-0.191-0.186-0.29-0.277c-0.384-0.359-0.774-0.708-1.183-1.041c-0.086-0.07-0.174-0.137-0.262-0.206c-0.388-0.308-0.783-0.604-1.191-0.886c-0.067-0.047-0.133-0.097-0.201-0.144c-0.441-0.299-0.896-0.577-1.36-0.845c-0.114-0.067-0.229-0.135-0.347-0.2c-0.456-0.253-0.922-0.49-1.396-0.712c-0.123-0.058-0.248-0.113-0.373-0.169c-0.49-0.218-0.986-0.424-1.492-0.608c-0.034-0.012-0.069-0.022-0.104-0.035c-0.801-0.093-1.546-0.195-1.941-0.297c-1.906-0.486-2.039,0.116-1.281,0.058c0.316-0.024,0.814,0.35,0.814,0.35L29,19.96l0.308-0.217c0,0,2.584,0.161,3.924-0.421c-0.504-0.209-1.123-0.448-1.434-0.566c-0.074-0.007-0.148-0.01-0.224-0.017c-0.607-0.054-1.223-0.085-1.843-0.089c-0.057,0-0.112-0.004-0.168-0.004c-0.063,0-0.125,0.004-0.187,0.005c-0.561,0.004-1.116,0.032-1.667,0.077c-0.13,0.011-0.262,0.017-0.392,0.03c-0.57,0.056-1.132,0.138-1.689,0.235c-0.142,0.025-0.285,0.049-0.426,0.076c-0.551,0.107-1.095,0.235-1.631,0.382c-0.132,0.036-0.263,0.073-0.394,0.112c-0.543,0.159-1.078,0.334-1.604,0.532c-0.042,0.016-0.084,0.034-0.127,0.05l-0.103,0.459l-1.391,0.174c-0.039,0.018-0.079,0.035-0.117,0.053c-0.633,0.301-1.25,0.631-1.85,0.987c-0.06,0.036-0.122,0.068-0.181,0.104c-0.631,0.382-1.241,0.793-1.83,1.233c-0.036,0.027-0.07,0.056-0.106,0.083c-1.871,1.557-3.477,3.362-4.784,4.915c-0.044,0.062-0.088,0.123-0.132,0.185c1.186-0.461,3.927-3.603,4.273-4.179c1.224-1.282,2.796-1.165,2.796-1.165c-0.699,0.503,1.834-1.005,1.224-0.467c-0.869,0.769-1.699,1.487-2.272,2.214l0.233,0.059c0,0,1.573-0.583,2.622-1.981c0.933-0.232,1.981-0.291,1.981-0.291s0.745-0.362,2.155-1.166c2.272-0.407,2.563-0.873-0.291-0.64l-1.516-0.117c0.875-0.466,6.1-0.548,6.1-0.548l-2.021,0.897l0.408,0.292l-0.35,0.873c0,0,0.582,0,2.014-0.217c0.678-0.104-1.052,0.925-1.052,0.925l0.361,0.067c0,0,0.355-0.061,1.831-1.029l1.447-0.153c2.127,0.063,3.22,0.217,3.963,0.757c1.836,1.349,3.56,1.667,3.812,2.306c0.3,1.093,0.793,1.773,1.959,2.764c0.603,0.763,1.625,1.092,2.199,1.303c0.705,1.492,2.101,2.404,2.631,2.828C46.059,32.553,46.232,32.296,46.232,32.296z"/>
</svg>