<?xml version="1.0" encoding="UTF-8"?>
<!DOCTYPE svg PUBLIC "-//W3C//DTD SVG 1.1 Tiny//EN" "http://www.w3.org/Graphics/SVG/1.1/DTD/svg11-tiny.dtd">
<svg width="332" height="126" viewBox="-0.979 0.506 332 126">
<path fill-opacity="0.01" fill="#656B6B" d="M13.021,10.506c-6.617,0-12,5.383-12,12v86c0,6.617,5.383,12,12,12h304 c6.617,0,12-5.383,12-12v-86c0-6.617-5.383-12-12-12H13.021z"/>
<path fill-opacity="0.03" fill="#656B6B" d="M13.021,11.506c-6.064,0-11,4.935-11,11v86c0,6.065,4.936,11,11,11h304 c6.066,0,11-4.935,11-11v-86c0-6.065-4.934-11-11-11H13.021z"/>
<path fill-opacity="0.04" fill="#656B6B" d="M13.021,12.506c-5.514,0-10,4.486-10,10v86c0,5.514,4.486,10,10,10h304 c5.514,0,10-4.486,10-10v-86c0-5.514-4.486-10-10-10H13.021z"/>
<path fill-opacity="0.06" fill="#656B6B" d="M13.021,13.506c-4.963,0-9,4.037-9,9v86c0,4.963,4.037,9,9,9h304c4.963,0,9-4.037,9-9v-86 c0-4.963-4.037-9-9-9H13.021z"/>
<path fill-opacity="0.08" fill="#656B6B" d="M13.021,14.506c-4.41,0-8,3.589-8,8v86c0,4.411,3.59,8,8,8h304c4.412,0,8-3.589,8-8v-86 c0-4.411-3.588-8-8-8H13.021z"/>
<path fill-opacity="0.1" fill="#656B6B" d="M13.021,15.506c-3.859,0-7,3.141-7,7v86c0,3.859,3.141,7,7,7h304c3.859,0,7-3.141,7-7v-86 c0-3.859-3.141-7-7-7H13.021z"/>
<path fill-opacity="0.11" fill="#656B6B" d="M13.021,16.506c-3.309,0-6,2.691-6,6v86c0,3.309,2.691,6,6,6h304c3.309,0,6-2.691,6-6v-86 c0-3.309-2.691-6-6-6H13.021z"/>
<path fill-opacity="0.1" fill="#656B6B" d="M322.021,108.506c0,2.762-2.238,5-5,5h-304c-2.762,0-5-2.238-5-5v-86c0-2.762,2.238-5,5-5 h304c2.762,0,5,2.238,5,5V108.506z"/>
<polygon fill-opacity="0.03" fill="#656B6B" points="321.021,13.506 4.021,13.506 4.021,113.506 322.021,113.506 322.021,13.506 "/>
<linearGradient id="_2" gradientUnits="userSpaceOnUse" x1="163.02" y1="101.62" x2="163.02" y2="37.41">
<stop stop-color="#D9F4E0" offset="0"/>
<stop stop-color="#FFFFFF" offset="1"/>
</linearGradient>
<rect x="5.021" y="14.506" fill="url(#_2)" width="316" height="98"/>
</svg>