<?xml version="1.0" encoding="UTF-8"?>
<!DOCTYPE svg PUBLIC "-//W3C//DTD SVG 1.1 Tiny//EN" "http://www.w3.org/Graphics/SVG/1.1/DTD/svg11-tiny.dtd">
<svg width="13" height="13" viewBox="0 0 13 13">
<path d="M6.097,5.253l0.984,0.176l0.421-2.355L7.59,2.582L7.098,2.494l-2.354-0.42L4.568,3.059l1.164,0.208 C5.443,3.45,5.17,3.657,4.926,3.901C4.495,4.332,4.155,4.835,3.917,5.396c-0.246,0.583-0.37,1.2-0.37,1.833 c0,0.592,0.119,1.167,0.333,1.715L4.68,8.161C4.602,7.857,4.547,7.548,4.547,7.229c0-0.5,0.098-0.985,0.291-1.444 c0.187-0.44,0.455-0.837,0.795-1.177c0.203-0.203,0.432-0.371,0.672-0.521L6.097,5.253z M12.593,5.397 c-0.09-0.212-0.208-0.407-0.327-0.602l-0.733,0.735c0.045,0.086,0.101,0.166,0.139,0.256c0.192,0.457,0.29,0.943,0.29,1.442 s-0.098,0.985-0.291,1.444c-0.187,0.44-0.455,0.837-0.795,1.178c-0.339,0.34-0.736,0.608-1.179,0.795 c-0.457,0.193-0.942,0.291-1.441,0.291c-0.5,0-0.985-0.098-1.443-0.291c-0.087-0.037-0.164-0.091-0.248-0.134l-0.733,0.735 c0.192,0.116,0.383,0.232,0.592,0.321c0.583,0.246,1.199,0.37,1.833,0.37c0.633,0,1.249-0.124,1.831-0.369 c0.563-0.239,1.066-0.579,1.497-1.01c0.432-0.432,0.771-0.935,1.009-1.496c0.246-0.583,0.37-1.2,0.37-1.833 S12.838,5.979,12.593,5.397z"/>
<rect height="1" transform="matrix(0.7071 -0.7071 0.7071 0.7071 -2.586 7.667)" width="13.168" x="1.378" y="6.455"/>
</svg>