<?xml version="1.0" encoding="UTF-8"?>
<!DOCTYPE svg PUBLIC "-//W3C//DTD SVG 1.1 Tiny//EN" "http://www.w3.org/Graphics/SVG/1.1/DTD/svg11-tiny.dtd">
<svg width="26" height="26" viewBox="-0.258 -0.254 26 26">
<path fill="#366091" d="M10.924,8.389L9.105,4.01C6.783,4.971,4.93,6.824,3.967,9.139l4.396,1.818 C8.846,9.799,9.764,8.871,10.924,8.389z"/>
<path fill="#496DA2" d="M7.993,12.768c0-0.645,0.142-1.252,0.372-1.811L3.969,9.139c-0.464,1.117-0.727,2.342-0.727,3.629 c0,1.285,0.26,2.509,0.725,3.626l4.39-1.813C8.121,14.021,7.993,13.412,7.993,12.768z"/>
<path fill="#6C8EB7" d="M8.354,14.582l-4.39,1.813c0.963,2.318,2.818,4.166,5.142,5.127l1.822-4.387 C9.768,16.654,8.836,15.738,8.354,14.582z"/>
<path fill="#87A8CB" d="M12.743,17.506c-0.646,0-1.255-0.141-1.813-0.371l-1.822,4.387c1.12,0.463,2.347,0.728,3.637,0.728 c1.288,0,2.519-0.258,3.638-0.726l-1.816-4.379C14.001,17.377,13.387,17.506,12.743,17.506z"/>
<path fill="#CADCEC" d="M17.131,10.955c0.23,0.559,0.359,1.17,0.359,1.813c0,0.646-0.139,1.25-0.371,1.813l4.396,1.813 c0.465-1.117,0.726-2.342,0.726-3.626c0-1.287-0.261-2.512-0.724-3.629L17.131,10.955z"/>
<path fill="#DEE9F3" d="M16.379,4.012l-1.82,4.391c1.162,0.479,2.094,1.395,2.574,2.555l4.389-1.814 C20.558,6.822,18.7,4.973,16.379,4.012z"/>
<path fill="#235487" d="M12.743,3.246c-1.289,0-2.517,0.258-3.638,0.721l1.818,4.379c0.561-0.23,1.175-0.359,1.817-0.359 c0.646,0,1.254,0.139,1.813,0.371l3.051-1l-1.229-3.389C15.26,3.504,14.032,3.246,12.743,3.246z"/>
<path fill="#A2C2DD" d="M17.121,14.578c-0.48,1.158-1.396,2.088-2.561,2.566l1.815,4.379c2.323-0.961,4.179-2.813,5.142-5.129 L17.121,14.578z"/>
</svg>