<?xml version="1.0" encoding="UTF-8"?>
<!DOCTYPE svg PUBLIC "-//W3C//DTD SVG 1.1 Tiny//EN" "http://www.w3.org/Graphics/SVG/1.1/DTD/svg11-tiny.dtd">
<svg width="100%" height="100%" viewBox="0 0 88 88">
<linearGradient id="_14" gradientUnits="userSpaceOnUse" x1="47.32" y1="41.18" x2="64.2" y2="74.43">
<stop stop-color="#A2C2DD" offset="0.1"/>
<stop stop-color="#6C83BB" offset="0.71"/>
<stop stop-color="#003D6D" offset="0.99"/>
</linearGradient>
<path fill="url(#_14)" d="M17.341,16.099C0.092,33.797,12.664,60.602,33.356,63.854c-0.839,2.249-1.87,4.858-2.309,8.774 l0.64,3.012c3.939,4.291,10.939,6.697,15.314,7.265c7.273-4.717,11.579-11.861,12.655-15.499 c0.563-5.287-0.032-9.206-0.309-11.106c0.438-0.414,7.727-7.326,8.472-8.035c1.963,1.406,5.338,3.156,8.626,3.974 c2.346-0.759,6.878-6.081,7.457-8.082c1.707-5.894-2.454-11.527-3.688-12.952c-2.641-1.304-4.388-1.76-7.693-2.159 c-3.177,1.376-4.656,2.209-6.751,3.433C63.058,8.648,33.793-0.782,17.341,16.099z"/>
<radialGradient id="_15" gradientUnits="userSpaceOnUse" cx="43.11" cy="18.1" r="51.15">
<stop stop-color="#FFFFFF" offset="0"/>
<stop stop-color="#A2C2DD" offset="0.53"/>
<stop stop-color="#6C83BB" offset="0.87"/>
<stop stop-color="#003D6D" offset="1"/>
</radialGradient>
<path fill="url(#_15)" d="M65.323,35.898L37.66,63.561c-23.244,0-37.385-28.938-19.813-46.969 C34.754-0.754,65.323,10.694,65.323,35.898z"/>
<radialGradient id="_16" gradientUnits="userSpaceOnUse" cx="39.58" cy="24.68" r="35.95">
<stop stop-color="#A2C2DD" offset="0.1"/>
<stop stop-color="#6C83BB" offset="0.71"/>
<stop stop-color="#003D6D" offset="0.99"/>
</radialGradient>
<path fill="url(#_16)" d="M27.796,12.117c4.067-2.296,3.077-0.085,5.14-1.868c1.554,0.137,3.209-1.23,3.529-1.23 c0.318,0,1.526,0.223,1.793-0.205c0,0,2.919,0.688,5.584,0.116c-4.565-1.042-9.309-0.962-14.055,0.441 C29.304,10.462,24.649,12.847,27.796,12.117z"/>
<path fill="url(#_16)" d="M16.765,47.509c2.064,0.302,1.658-0.454,1.668-4.184c1.386-2.438,1.735-0.576,1.507-3.603 c-4.394-2.519-5.621-4.377-5.621-4.377c0,0.006-2.579-6.148-3.525-6.057c-2.528,10.238,1.393,18.94,5.063,23.636 c0.527-0.75,0.941-1.587,1.264-2.331C17.451,49.829,15.452,48.751,16.765,47.509z"/>
<path fill="url(#_16)" d="M19.779,15.803c0.04-1.37,1.536,0.073,1.667-0.036c1.689-1.406,3.109-4.236,3.109-4.236 c-3.475,1.874-6.504,4.471-8.886,7.587C16.622,18.361,19.766,16.298,19.779,15.803z"/>
<radialGradient id="_19" gradientUnits="userSpaceOnUse" cx="34.99" cy="13.72" r="6.36">
<stop stop-color="#A2C2DD" offset="0.1"/>
<stop stop-color="#6C83BB" offset="0.71"/>
<stop stop-color="#003D6D" offset="0.99"/>
</radialGradient>
<path fill="url(#_19)" d="M35.563,10.981c0,0-1.947-0.371-2.298-0.203C34.363,12.146,34.587,11.064,35.563,10.981z"/>
<radialGradient id="_20" gradientUnits="userSpaceOnUse" cx="43.61" cy="19.53" r="30.62">
<stop stop-color="#E6EEF4" offset="0"/>
<stop stop-color="#4A9900" offset="0.44"/>
<stop stop-color="#0E4E58" offset="0.94"/>
</radialGradient>
<path fill="url(#_20)" d="M60.547,36.933c0.814-1.453,1.771-4.413,0.162-3.823l-1.666,0.265 c-0.099-0.867-0.284-1.223-1.244-2.074c-0.801-1.987-3.403-5.779-3.403-5.779l0.213-0.532l3.689,5.018 c0.335,0.974,0.565,1.425,0.832,2.571c2.104-0.51,3.925-3.256,3.073-5.49c-0.04-0.041-1.336,0.012-1.336,0.012 c-1.194-0.871-1.913-2.709-1.913-2.709s2.175,2.305,4.042,2.388c0.691,1.896,1.294,1.937,1.383,1.939 c-2.026-7.563-7.174-13.841-13.979-17.379c-2.131,0.985-2.068,0.012-2.496-0.041c-0.428-0.054-3.919-0.881-4.479-0.495 c-1.789,1.23-4.871,0.3-1.514,3.19c-0.159,0.162-2.578,1.56-2.695,0.604c-0.371-3.028-3.339-1.749-1.667,0 c0.658,0.689-0.08,0.722-0.046,0.91c0.177,1.007,2.796,2.752-0.975,1.937c-1.506-0.326-1.649,2.233-1.649,2.233 s1.076,0.583,1.468,0.726c-2.264,2.576-3.332,2.865-6.104,5.206c0,0-1.599,4.463-1.064,5.692 c4.194,4.417,1.701,5.772,11.101,3.822c0.108,0.268,1.184,1.526,2.979,1.782c-1.922,4.194,2.19,4.105,0.977,8.014 c-2.13,2.895,0.081,3.476,0.197,5.513L60.547,36.933z M56.623,18.794c0.174,0.248,3.457,3.595,0.95,2.459 c-0.41-0.366-0.144-0.799-0.767-1.378C54.785,18.49,56.474,16.339,56.623,18.794z M51.694,17.728 c0.395-0.438,0.954-0.728,1.212-0.313c-0.3,0.393,0.26,0.702,0.648,0.91c1.805,0.973,1.464,1.389-2.145,0.815 C51.063,19.479,48.562,18.2,51.694,17.728z M45.153,11.656c0.558,0.436,1.663,3.635-0.61,2.182 C44.722,13.197,43.907,11.975,45.153,11.656z M44.122,21.947l-0.516-1.5c0,0-2.693-0.271-3.175-0.212 c-1.876,0.989-4.003,0.292-4.003,0.292s2.127-0.292,4.33-2.74c3.269-0.665,2.284,0.123,4.584,1.595 c-0.659,0.76-0.725,2.006,1.045-0.015l-1.765-1.939l2.281,1.29c0.863,2.736,2.569,2.867,2.02,0.824l0.465-0.066 c0.918,2.125,4.154,1.913,4.746,2.412c0.187,2.887-2.606,0.676-4.628,0.667c-0.774-0.534-1.05,0.229-1.566,0.768 C47.604,23.669,44.122,21.947,44.122,21.947z"/>
<linearGradient id="_21" gradientUnits="userSpaceOnUse" x1="93.94" y1="32.98" x2="61.2" y2="57.58">
<stop stop-color="#FFFFFF" offset="0"/>
<stop stop-color="#A2C2DD" offset="0.35"/>
<stop stop-color="#6C83BB" offset="0.7"/>
<stop stop-color="#003D6D" offset="1"/>
</linearGradient>
<path fill="url(#_21)" d="M83.561,40.337l-14.853,6.089l-0.952,0.91c1.433,1.244,5.834,3.544,8.629,4.174 c2.39-1.023,6.461-5.982,6.852-7.544C83.674,42.216,83.699,41.223,83.561,40.337z"/>
<linearGradient id="_22" gradientUnits="userSpaceOnUse" x1="84.99" y1="45.44" x2="62" y2="43.56">
<stop stop-color="#FFFFFF" offset="0"/>
<stop stop-color="#A2C2DD" offset="0.35"/>
<stop stop-color="#6C83BB" offset="0.7"/>
<stop stop-color="#003D6D" offset="1"/>
</linearGradient>
<path fill="url(#_22)" d="M74.851,39.408l-6.533,6.737c2.61,1.821,5.744,3.191,7.889,3.778L74.851,39.408z"/>
<linearGradient id="_23" gradientUnits="userSpaceOnUse" x1="86.99" y1="63.51" x2="24.36" y2="80.86">
<stop stop-color="#FFFFFF" offset="0"/>
<stop stop-color="#A2C2DD" offset="0.35"/>
<stop stop-color="#6C83BB" offset="0.7"/>
<stop stop-color="#003D6D" offset="1"/>
</linearGradient>
<path fill="url(#_23)" d="M59.231,63.656l-27.436,8.94l0.545,2.726c0,0,4.543,5.175,14.509,6.851 c6.664-4.459,10.965-10.955,12.124-14.9L59.231,63.656z"/>
<linearGradient id="_24" gradientUnits="userSpaceOnUse" x1="58.55" y1="88.45" x2="23.57" y2="52.45">
<stop stop-color="#FFFFFF" offset="0"/>
<stop stop-color="#A2C2DD" offset="0.35"/>
<stop stop-color="#6C83BB" offset="0.7"/>
<stop stop-color="#003D6D" offset="1"/>
</linearGradient>
<path fill="url(#_24)" d="M31.762,72.597c0.69-6.447,4.032-12.317,4.032-12.317l10.122,3.448l0.286,15.842 C38.441,78.406,34.273,75.043,31.762,72.597z"/>
<linearGradient id="_25" gradientUnits="userSpaceOnUse" x1="87.96" y1="35.35" x2="20.45" y2="62.39">
<stop stop-color="#FFFFFF" offset="0.05"/>
<stop stop-color="#A2C2DD" offset="1"/>
</linearGradient>
<path fill="url(#_25)" d="M35.794,60.279c1.526,1.445,5.659,4.081,9.962,3.701l34.037-32.209 c-2.967-1.648-7.153-2.01-7.153-2.01C61.059,34.646,46.004,46.739,35.794,60.279z"/>
<linearGradient id="_26" gradientUnits="userSpaceOnUse" x1="95.72" y1="12.71" x2="56.14" y2="63.68">
<stop stop-color="#FFFFFF" offset="0.05"/>
<stop stop-color="#A2C2DD" offset="1"/>
</linearGradient>
<path fill="url(#_26)" d="M46.202,79.569c-0.882-3.272-1.248-12.001-0.439-15.688 c9.323-13.641,22.748-25.828,33.97-32.168c0,0,3.168,3.302,3.836,8.606c-0.782,3.351-4.67,7.604-7.368,9.591 c-0.357-0.812-1.58-9.928-1.58-9.928c-3.099,4.056-7.99,8.464-16.004,16.055c0.532,2.815,0.614,7.583,0.614,7.583 C56.663,69.82,52.095,75.897,46.202,79.569z"/>
</svg>