<?xml version="1.0" encoding="UTF-8"?>
<!DOCTYPE svg PUBLIC "-//W3C//DTD SVG 1.1 Tiny//EN" "http://www.w3.org/Graphics/SVG/1.1/DTD/svg11-tiny.dtd">
<svg width="66" height="20" viewBox="-0.142 -0.098 66 20">
<linearGradient id="_5" gradientUnits="userSpaceOnUse" x1="33.07" y1="20.11" x2="33.07" y2="1.94">
<stop stop-color="#CADCEC" offset="0"/>
<stop stop-color="#87A8CB" offset="1"/>
</linearGradient>
<path fill="url(#_5)" d="M3.363,16.928c-0.633,0.188-1.779,0.189-1.779,0.787c0,0.637,0.964,0.451,1.892,0.451h59.521 c0.93,0,1.375-0.313,1.564-2.166c-0.004,0-0.004-11.98-0.004-11.98c0-1.146-0.795-1.337-1.297-1.343 C63.073,2.704,3.363,16.928,3.363,16.928z"/>
<linearGradient id="_6" gradientUnits="userSpaceOnUse" x1="37.58" y1="25.08" x2="33.75" y2="12.91">
<stop stop-color="#CADCEC" offset="0"/>
<stop stop-color="#87A8CB" offset="1"/>
</linearGradient>
<path fill="url(#_6)" d="M64.089,15.664c0-1.1,0-10.858,0-10.858c0-1.459-0.131-2.002-1.338-2.002L3.003,16.986 c-0.982,0.213-0.814,0.473-0.818,1.076c0,0,60.422-14.347,60.607-14.376c0.492,0.008,0.426-0.004,0.426,1.119l-0.004,13.307 C63.214,18.112,64.089,17.91,64.089,15.664z"/>
<path fill="#003184" fill-opacity="0.7" d="M3.678,16.944"/>
<path fill="#496DA2" d="M3.344,15.276L62.783,1.091c0,0,0.066,1.767,0.062,1.767C62.554,2.902,3.344,16.965,3.344,16.965V15.276z"/>
<path fill="#87A8CB" d="M62.565,18.127L3.344,18.142v1.743c9.96,0,59.221,0.002,59.221,0.002L62.565,18.127L62.565,18.127z"/>
<linearGradient id="_7" gradientUnits="userSpaceOnUse" x1="64.2" y1="19.31" x2="64.2" y2="0.82">
<stop stop-color="#87A8CB" offset="0"/>
<stop stop-color="#235487" offset="1"/>
</linearGradient>
<path fill="url(#_7)" d="M62.841,2.856c0.494,0.012,1.256,0.207,1.256,1.314v11.831c-0.184,1.818-0.621,2.125-1.532,2.125 v1.76c3.175,0,3.256-2.523,3.271-3.705l0.008-12.009c0-1.813-1.26-3.082-3.06-3.082L62.841,2.856z"/>
<linearGradient id="_8" gradientUnits="userSpaceOnUse" x1="1.86" y1="18.63" x2="1.64" y2="16.86">
<stop stop-color="#87A8CB" offset="0"/>
<stop stop-color="#235487" offset="1"/>
</linearGradient>
<path fill="url(#_8)" d="M3.344,15.291c-1.634,0.355-3.452,0.603-3.452,2.494c0,2.212,1.13,2.1,3.452,2.1v-1.743 c0,0-1.188,0.055-1.188-0.539c0-0.517,1.188-0.642,1.188-0.642V15.291z"/>
</svg>