<?xml version="1.0" encoding="UTF-8"?>
<!DOCTYPE svg PUBLIC "-//W3C//DTD SVG 1.1 Tiny//EN" "http://www.w3.org/Graphics/SVG/1.1/DTD/svg11-tiny.dtd">
<svg baseProfile="tiny" height="26px" version="1.1" viewBox="0 0 26 26" width="26px" x="0px" xmlns="http://www.w3.org/2000/svg" xmlns:xlink="http://www.w3.org/1999/xlink" y="0px">
<g>
<path d="M18.677,22.179l-3.664-3.636c-1.053,0.512-2.208,0.781-3.377,0.781c-4.286,0-7.773-3.486-7.773-7.771   c0-4.284,3.487-7.769,7.773-7.769c4.289,0,7.777,3.485,7.777,7.769c0,1.275-0.316,2.524-0.92,3.65l3.668,3.632L18.677,22.179   L18.677,22.179z M7.542,13.19c0.45,1.119,1.345,2.011,2.466,2.458V13.19H7.542L7.542,13.19z M13.287,13.19v2.448   c1.111-0.449,1.999-1.338,2.445-2.448H13.287L13.287,13.19z M13.287,9.912h2.442c-0.448-1.107-1.333-1.992-2.442-2.44V9.912   L13.287,9.912z M7.544,9.912h2.463v-2.45C8.89,7.907,7.995,8.797,7.544,9.912L7.544,9.912z"/>
<path d="M17.466,15.336c0.711-1.093,1.129-2.383,1.129-3.782c0-3.833-3.12-6.953-6.959-6.953   c-3.836,0-6.957,3.119-6.957,6.953c0,3.834,3.121,6.954,6.957,6.954c1.287,0,2.488-0.357,3.523-0.972l3.527,3.501l2.303-2.211   L17.466,15.336z M11.636,16.775c-2.881,0-5.227-2.342-5.227-5.221c0-2.878,2.346-5.22,5.227-5.22s5.228,2.342,5.228,5.22   C16.863,14.433,14.517,16.775,11.636,16.775z M12.47,7.67h-1.645v3.059H7.767v1.645h3.059v3.059h1.645v-3.059h3.059v-1.645H12.47   V7.67z" fill="#FFFFFF"/>
<rect fill="none" height="26" width="26"/>
</g>
</svg>
