<?xml version="1.0" encoding="UTF-8"?>
<!DOCTYPE svg PUBLIC "-//W3C//DTD SVG 1.1 Tiny//EN" "http://www.w3.org/Graphics/SVG/1.1/DTD/svg11-tiny.dtd">
<svg width="29" height="25" viewBox="0 0 29 25">
<linearGradient id="_32" gradientUnits="userSpaceOnUse" x1="15.06" y1="11.61" x2="19.86" y2="21.07">
<stop stop-color="#A2C2DD" offset="0.1"/>
<stop stop-color="#6C83BB" offset="0.71"/>
<stop stop-color="#003D6D" offset="0.99"/>
</linearGradient>
<path fill="url(#_32)" d="M13.733,1.049L10.12,2.175C9.459,2.434,8.884,2.793,8.41,3.256C7.387,4.258,6.833,5.731,6.892,7.3 l0.01,0.283l3.805,0.675l0.091-0.043l2.77-1.125l0.013-0.237c0,0,0.008-0.061,0.01-0.079c0.516,0.374,0.93,0.942,0.976,1.606 c0.003,0.042,0.004,0.083,0.004,0.125c0,0.785-0.509,1.405-1.27,2.085l-0.384,0.336c-0.714,0.617-1.453,1.255-1.855,2.166 c-0.374,0.844-0.387,1.74-0.387,2.611c0,0.033,0,2.063,0,2.063s1.664,0.392,2.258,0.53c-0.646,0.404-1.599,1.002-1.599,1.002 c-0.564,0.394-0.883,1.063-0.883,1.782c0,0.102,0.006,0.201,0.019,0.303c0.155,1.248,1.08,2.383,2.2,2.698 c0.557,0.157,1.086,0.081,1.53-0.22c0.007-0.004,2.646-1.879,2.646-1.879c0.441-0.393,0.662-0.979,0.662-1.603 c0-0.563-0.18-1.153-0.54-1.657c-0.36-0.505-0.725-0.785-1.065-0.974c0.647-0.378,1.781-1.037,1.781-1.037l-0.013-0.249 c-0.003-0.211-0.006-0.451-0.006-0.693c0-0.662,0.021-1.349,0.127-1.549c0.146-0.271,0.688-0.769,1.591-1.593l0.411-0.376 c1.136-1.04,2.308-2.115,2.319-4.454c0-0.011,0-0.022,0-0.033c0-2.897-1.982-4.781-2.84-5.458 c-1.596-1.264-3.274-1.445-3.924-1.464C14.502,0.817,13.764,1.04,13.733,1.049z M19.273,2.307L19.273,2.307L19.273,2.307z"/>
<linearGradient id="_33" gradientUnits="userSpaceOnUse" x1="8.72" y1="7.44" x2="14.28" y2="6.42">
<stop stop-color="#E6EEF4" offset="0"/>
<stop stop-color="#2F8E9A" offset="0.44"/>
<stop stop-color="#003D6D" offset="0.94"/>
</linearGradient>
<path fill="url(#_33)" d="M10.667,7.89l-0.104-1.593c0,0,2.692-0.535,2.857-0.413c-0.053,0.113-0.185,0.405-0.19,0.965 C13.116,6.903,10.667,7.89,10.667,7.89z"/>
<linearGradient id="_34" gradientUnits="userSpaceOnUse" x1="14.32" y1="16.42" x2="14.32" y2="22.5">
<stop stop-color="#E6EEF4" offset="0"/>
<stop stop-color="#2F8E9A" offset="0.44"/>
<stop stop-color="#003D6D" offset="0.94"/>
</linearGradient>
<path fill="url(#_34)" d="M11.492,19.609c0,0,2.46-1.551,2.706-1.688c0.246-0.136,0.651-0.156,0.923-0.109 c0.27,0.047,0.923,0.223,1.561,1.111c0.637,0.893,0.647,2.159-0.039,2.771c-0.479,0.339-2.707,1.923-2.707,1.923L11.492,19.609z"/>
<path fill="#5DA6B1" d="M12.691,19.424c1.082,0.273,1.886,1.371,2.007,2.45c0.132,1.163-0.7,2.217-1.935,1.869 c-1.044-0.294-1.816-1.353-1.947-2.404C10.675,20.197,11.456,19.115,12.691,19.424"/>
<linearGradient id="_35" gradientUnits="userSpaceOnUse" x1="16.13" y1="3.23" x2="14.97" y2="20.07">
<stop stop-color="#E6EEF4" offset="0"/>
<stop stop-color="#2F8E9A" offset="0.44"/>
<stop stop-color="#003D6D" offset="0.94"/>
</linearGradient>
<path fill="url(#_35)" d="M14,16.172l4.203-9.422c0,0-7.734-4.304-7.979-4.241l3.612-1.125c0,0,0.704-0.216,1.503-0.192 c0.8,0.024,2.31,0.274,3.718,1.389c1.405,1.112,2.719,2.961,2.707,5.215c-0.013,2.254-1.156,3.232-2.313,4.294 c-1.157,1.061-1.777,1.609-1.969,1.967c-0.19,0.358-0.174,1.471-0.162,2.461c-0.439,0.274-3.01,1.744-3.01,1.744L14,16.172z"/>
<linearGradient id="_36" gradientUnits="userSpaceOnUse" x1="3.47" y1="-1.38" x2="26.53" y2="25.83">
<stop stop-color="#E6EEF4" offset="0"/>
<stop stop-color="#2F8E9A" offset="0.44"/>
<stop stop-color="#003D6D" offset="0.94"/>
</linearGradient>
<path fill="url(#_36)" d="M12.68,2.241c3.411,0.457,6.372,3.834,6.087,7.331c-0.145,1.757-1.158,2.866-2.707,4.285 c-0.535,0.49-1.36,1.043-1.64,1.742c-0.2,0.506-0.119,1.938-0.106,2.664c-0.914-0.224-3.135-0.738-3.292-0.777 c0,0-0.001-1.161,0-1.328c0.007-0.989-0.049-2.008,0.358-2.926c0.441-1,1.36-1.675,2.152-2.382 c0.742-0.663,1.453-1.428,1.381-2.494c-0.073-1.076-0.887-2.138-1.941-2.316c-2.178-0.367-2.309,1.717-2.305,1.855L7.241,7.287 C7.19,5.895,7.647,4.493,8.655,3.507C9.715,2.471,11.224,2.047,12.68,2.241"/>
</svg>