<?xml version="1.0" encoding="UTF-8"?>
<!DOCTYPE svg PUBLIC "-//W3C//DTD SVG 1.1 Tiny//EN" "http://www.w3.org/Graphics/SVG/1.1/DTD/svg11-tiny.dtd">
<svg width="84.002" height="72" viewBox="0 0 84.002 72">
<linearGradient id="_28" gradientUnits="userSpaceOnUse" x1="36.83" y1="41.81" x2="54.8" y2="77.2">
<stop stop-color="#A2C2DD" offset="0.1"/>
<stop stop-color="#6C83BB" offset="0.71"/>
<stop stop-color="#003D6D" offset="0.99"/>
</linearGradient>
<path fill="url(#_28)" d="M70.957,44.249c-5.37,2.999-10.434,4.42-13.824,4.903c0.082-0.237,0.303-0.778,0.303-0.778 c-8.187-0.667-14.326-3.563-17.151-5.224c0.537-4.259,1.514-13.128,1.514-21.42c0-2.538-0.328-7.421-0.328-7.421 s-3.056-2.997-6.673-4.173l1.091-7.515c0.048-2.247-5.807-2.394-6.223-0.852c-0.054-0.005,0.116,3.753,0.188,7.111 c-2.54-0.392-4.838-0.418-6.346-0.363c-8.175-0.02-14.25,2.627-14.9,2.866c-0.65,1.905-0.912,23.419,2.308,44.156 c0.625,0.375,8.959,7.875,19.359,7.777c0.975-0.486,1.256-0.569,2.199-1.305c1.7,2.916,6.205,5.817,6.205,5.817 s9.002,2.25,12.779-2.207c0,0,1.598-4.595,2.125-6.125c0.5,1.624,2.405,7.869,2.405,7.869c1.214,3.668,10.565,3.462,10.565,3.462 s8.945-3.288,9.232-8.608L70.957,44.249z"/>
<linearGradient id="_29" gradientUnits="userSpaceOnUse" x1="25.65" y1="2.15" x2="41.06" y2="24.11">
<stop stop-color="#A2C2DD" offset="0.1"/>
<stop stop-color="#6C83BB" offset="0.71"/>
<stop stop-color="#003D6D" offset="0.99"/>
</linearGradient>
<path fill="url(#_29)" d="M23.52,8.868c4.672-0.168,12.544,0.494,17.618,5.599l-3.002,1.387L23.52,8.868z"/>
<linearGradient id="_30" gradientUnits="userSpaceOnUse" x1="34.27" y1="4.26" x2="39.72" y2="47.24">
<stop stop-color="#FFFFFF" offset="0"/>
<stop stop-color="#A2C2DD" offset="0.35"/>
<stop stop-color="#6C83BB" offset="0.7"/>
<stop stop-color="#003D6D" offset="1"/>
</linearGradient>
<path fill="url(#_30)" d="M38.632,15.588l-3.168,42.035l2.416-2.048c1.894-8.344,4.47-28.934,3.248-41.173 L38.632,15.588z"/>
<linearGradient id="_31" gradientUnits="userSpaceOnUse" x1="16.59" y1="19.12" x2="30.7" y2="7.77">
<stop stop-color="#FFFFFF" offset="0.15"/>
<stop stop-color="#A2C2DD" offset="1"/>
</linearGradient>
<path fill="url(#_31)" d="M8.938,11.638c8.896-3.187,21.217-5.127,30.057,3.093l-7.205,3.431L8.938,11.638z"/>
<linearGradient id="_32" gradientUnits="userSpaceOnUse" x1="34.41" y1="7.22" x2="35.09" y2="74.62">
<stop stop-color="#FFFFFF" offset="0"/>
<stop stop-color="#A2C2DD" offset="0.35"/>
<stop stop-color="#6C83BB" offset="0.7"/>
<stop stop-color="#003D6D" offset="1"/>
</linearGradient>
<path fill="url(#_32)" d="M31.79,18.161l-1.598,44.81c3.375-1.557,5.517-4.431,5.517-4.431 c1.996-8.803,4.577-30.898,3.286-43.81L31.79,18.161z"/>
<linearGradient id="_33" gradientUnits="userSpaceOnUse" x1="27.62" y1="11.56" x2="37.43" y2="15.83">
<stop stop-color="#FFFFFF" offset="0"/>
<stop stop-color="#A2C2DD" offset="0.35"/>
<stop stop-color="#6C83BB" offset="0.7"/>
<stop stop-color="#003D6D" offset="1"/>
</linearGradient>
<path fill="url(#_33)" d="M35.024,13.242c0.363,2.268-5.802,2.616-5.753,0.128 C29.308,11.654,34.754,11.556,35.024,13.242z"/>
<linearGradient id="_34" gradientUnits="userSpaceOnUse" x1="29.63" y1="8.06" x2="37.06" y2="8.56">
<stop stop-color="#E6EEF4" offset="0"/>
<stop stop-color="#337CE5" offset="0.44"/>
<stop stop-color="#003D6D" offset="0.94"/>
</linearGradient>
<path fill="url(#_34)" d="M29.937,2.014c0,0,0.373,11.526,0.371,11.555c0.891,0.988,3.005,0.913,3.635,0.023 l1.599-11.02L29.937,2.014z"/>
<linearGradient id="_35" gradientUnits="userSpaceOnUse" x1="33.08" y1="9.65" x2="14.6" y2="47.46">
<stop stop-color="#FFFFFF" offset="0.05"/>
<stop stop-color="#A2C2DD" offset="1"/>
</linearGradient>
<path fill="url(#_35)" d="M8.938,11.638c4.946-1.617,15.429-0.271,22.852,6.523 c0.867,12.181,0.165,33.335-1.598,44.81c-5.985,0.146-14.438-3.873-18.896-7.747C9.827,44.983,8.009,23.887,8.938,11.638z"/>
<linearGradient id="_36" gradientUnits="userSpaceOnUse" x1="36.83" y1="38.98" x2="8.03" y2="23.06">
<stop stop-color="#FFFFFF" offset="0.05"/>
<stop stop-color="#A2C2DD" offset="1"/>
</linearGradient>
<polygon fill="url(#_36)" points="11.404,14.594 12.167,40.419 28.702,46.511 29.252,19.72 "/>
<linearGradient id="_37" gradientUnits="userSpaceOnUse" x1="13.61" y1="59.64" x2="12.08" y2="-0.35">
<stop stop-color="#FFFFFF" offset="0"/>
<stop stop-color="#A2C2DD" offset="0.35"/>
<stop stop-color="#6C83BB" offset="0.7"/>
<stop stop-color="#003D6D" offset="1"/>
</linearGradient>
<polygon fill="url(#_37)" points="14.015,39.3 13.535,15.2 11.404,14.594 12.167,40.419 "/>
<linearGradient id="_38" gradientUnits="userSpaceOnUse" x1="29.96" y1="51.37" x2="6.69" y2="29.41">
<stop stop-color="#FFFFFF" offset="0.15"/>
<stop stop-color="#A2C2DD" offset="1"/>
</linearGradient>
<polygon fill="url(#_38)" points="12.167,40.419 14.015,39.3 28.767,44.407 28.702,46.511 "/>
<linearGradient id="_39" gradientUnits="userSpaceOnUse" x1="30.67" y1="2.92" x2="35.18" y2="1.47">
<stop stop-color="#D6E4F3" offset="0"/>
<stop stop-color="#337CE5" offset="1"/>
</linearGradient>
<path fill="url(#_39)" d="M35.541,2.572c-0.527,1.495-6.14,0.829-5.555-0.663C30.58,0.435,36.048,1.066,35.541,2.572 z"/>
<linearGradient id="_40" gradientUnits="userSpaceOnUse" x1="15.79" y1="36.37" x2="28.49" y2="57.5">
<stop stop-color="#E6EEF4" offset="0"/>
<stop stop-color="#337CE5" offset="0.44"/>
<stop stop-color="#003D6D" offset="0.94"/>
</linearGradient>
<polygon fill="url(#_40)" points="23.366,53.283 27.616,55.072 27.783,52.015 23.457,50.228 "/>
<polygon fill="url(#_40)" points="27.826,51.218 27.992,48.165 23.567,46.518 23.48,49.436 "/>
<polygon fill="url(#_40)" points="23.342,54.075 23.266,56.841 27.425,58.69 27.574,55.873 "/>
<polygon fill="url(#_40)" points="17.498,47.818 13.764,46.339 13.958,49.426 17.612,50.9 "/>
<polygon fill="url(#_40)" points="22.654,49.15 22.684,46.244 18.393,44.674 18.444,47.464 "/>
<polygon fill="url(#_40)" points="17.361,44.246 13.538,42.871 13.711,45.546 17.467,47.022 "/>
<polygon fill="url(#_40)" points="18.585,54.85 22.569,56.585 22.598,53.813 18.534,52.121 "/>
<polygon fill="url(#_40)" points="17.639,51.705 14.01,50.223 14.179,52.915 17.739,54.436 "/>
<polygon fill="url(#_40)" points="18.461,48.257 18.518,51.325 22.612,53.017 22.642,49.948 "/>
<polygon fill="url(#_40)" points="18.602,55.656 18.65,58.454 22.529,60.265 22.561,57.39 "/>
<linearGradient id="_50" gradientUnits="userSpaceOnUse" x1="57.09" y1="66.41" x2="71.84" y2="42.84">
<stop stop-color="#D6E4F3" offset="0"/>
<stop stop-color="#337CE5" offset="1"/>
</linearGradient>
<path fill="url(#_50)" d="M66.484,70.53c0,0-9.016,0.238-10.161-3.223c-1.145-3.466-5.302-17.438-5.302-17.438 s9.124,0.893,19.732-5.03l4.687,17.436C75.44,62.274,75.479,66.972,66.484,70.53z"/>
<linearGradient id="_51" gradientUnits="userSpaceOnUse" x1="61.07" y1="54.43" x2="58.35" y2="56.96">
<stop stop-color="#E6EEF4" offset="0"/>
<stop stop-color="#575AC6" offset="0.44"/>
<stop stop-color="#003D6D" offset="0.94"/>
</linearGradient>
<path fill="url(#_51)" d="M56.473,57.49c0,0,1.261-4.403,5.01-1.421C61.484,56.069,58.691,55.316,56.473,57.49z"/>
<linearGradient id="_52" gradientUnits="userSpaceOnUse" x1="68.98" y1="51.57" x2="66.01" y2="55.61">
<stop stop-color="#E6EEF4" offset="0"/>
<stop stop-color="#575AC6" offset="0.44"/>
<stop stop-color="#003D6D" offset="0.94"/>
</linearGradient>
<path fill="url(#_52)" d="M64.497,55.189c0,0,1.262-4.403,5.011-1.425C69.508,53.765,66.716,53.016,64.497,55.189z"/>
<linearGradient id="_53" gradientUnits="userSpaceOnUse" x1="66.35" y1="68.04" x2="64.98" y2="62.6">
<stop stop-color="#E6EEF4" offset="0"/>
<stop stop-color="#575AC6" offset="0.44"/>
<stop stop-color="#003D6D" offset="0.94"/>
</linearGradient>
<path fill="url(#_53)" d="M59.741,64.114c0,0,8.398-1.132,10.276-3.809C70.018,60.306,68.447,69.914,59.741,64.114z"/>
<linearGradient id="_54" gradientUnits="userSpaceOnUse" x1="35.4" y1="42.23" x2="50.56" y2="63.08">
<stop stop-color="#E3DFE4" offset="0"/>
<stop stop-color="#C03A3A" offset="1"/>
</linearGradient>
<path fill="url(#_54)" d="M38.813,67.503c0,0-7.616-4.822-6.63-8.333c0.985-3.515,5.348-17.427,5.348-17.427 s7.37,5.881,19.481,6.877l-5.87,16.879C51.142,65.499,48.266,69.562,38.813,67.503z"/>
<path fill="#FFFFFF" d="M37.793,51.104c0,0,3.507-2.946,4.952,1.613C42.745,52.718,40.849,50.539,37.793,51.104z"/>
<path fill="#FFFFFF" d="M45.738,53.667c0,0,3.51-2.95,4.953,1.61C50.691,55.277,48.797,53.098,45.738,53.667z"/>
<path fill="#FFFFFF" d="M36.804,58.423c0,0,3.468,3.462,10.656,2.564C47.46,60.987,40.527,66.115,36.804,58.423z"/>
<path fill="#FFFFFF" d="M41.892,58.514l1.318-0.888l2.104-5.195c0,0,1.239-2.674,5.832,1.213c0,0-1.245-3.991-5.765-3.709 L41.892,58.514z"/>
</svg>