<?xml version="1.0" encoding="UTF-8"?>
<!DOCTYPE svg PUBLIC "-//W3C//DTD SVG 1.1 Tiny//EN" "http://www.w3.org/Graphics/SVG/1.1/DTD/svg11-tiny.dtd">
<svg width="100%" height="100%" viewBox="0 0 88 88">
<linearGradient id="_26" gradientUnits="userSpaceOnUse" x1="46.83" y1="48.42" x2="61.93" y2="78.18">
<stop stop-color="#A2C2DD" offset="0.1"/>
<stop stop-color="#6C83BB" offset="0.71"/>
<stop stop-color="#003D6D" offset="0.99"/>
</linearGradient>
<path fill="url(#_26)" d="M4.003,50.923l1.316,3.444l10.282,3.525l9.758,6.557l10.869,3.238l10.63,7.11l13.909,3.745 l22.632-40.838l0.143-4.675l-11.438-1.041l-10.052-5.94L51.22,25.158l-8.889-5.575l-10.967-0.951L4.003,50.923z"/>
<linearGradient id="_27" gradientUnits="userSpaceOnUse" x1="66.91" y1="70.56" x2="-16.09" y2="-30.78">
<stop stop-color="#FFFFFF" offset="0"/>
<stop stop-color="#A2C2DD" offset="0.35"/>
<stop stop-color="#6C83BB" offset="0.7"/>
<stop stop-color="#003D6D" offset="1"/>
</linearGradient>
<polygon fill="url(#_27)" points="82.822,33.668 71.863,32.672 61.835,26.733 50.992,25.842 42.103,20.266 31.664,19.36 4.803,51.055 48.949,73.13 59.844,74.08 "/>
<linearGradient id="_28" gradientUnits="userSpaceOnUse" x1="101.68" y1="83.27" x2="-30.99" y2="-10.06">
<stop stop-color="#FFFFFF" offset="0"/>
<stop stop-color="#A2C2DD" offset="0.35"/>
<stop stop-color="#6C83BB" offset="0.7"/>
<stop stop-color="#003D6D" offset="1"/>
</linearGradient>
<polygon fill="url(#_28)" points="80.429,34.381 71.354,33.554 61.052,27.853 50.332,26.803 41.107,21.415 32.414,21.058 7.195,50.738 16.537,53.663 26.2,60.209 37.228,63.288 47.959,69.997 58.935,72.384 "/>
<linearGradient id="_29" gradientUnits="userSpaceOnUse" x1="24.98" y1="35.51" x2="46.88" y2="48.73">
<stop stop-color="#FFFFFF" offset="0.05"/>
<stop stop-color="#A2C2DD" offset="1"/>
</linearGradient>
<polygon fill="url(#_29)" points="15.907,54.598 42.103,20.266 51.011,25.896 25.723,61.54 "/>
<linearGradient id="_30" gradientUnits="userSpaceOnUse" x1="46.44" y1="44.24" x2="66.41" y2="56.28">
<stop stop-color="#FFFFFF" offset="0.05"/>
<stop stop-color="#A2C2DD" offset="1"/>
</linearGradient>
<polygon fill="url(#_30)" points="61.835,26.733 36.489,64.431 47.001,71.471 71.863,32.672 "/>
<linearGradient id="_31" gradientUnits="userSpaceOnUse" x1="112.29" y1="87.32" x2="-4.66" y2="53.83">
<stop stop-color="#FFFFFF" offset="0"/>
<stop stop-color="#A2C2DD" offset="0.35"/>
<stop stop-color="#6C83BB" offset="0.7"/>
<stop stop-color="#003D6D" offset="1"/>
</linearGradient>
<polygon fill="url(#_31)" points="59.844,74.08 47.17,71.347 36.696,64.41 25.641,61.507 15.907,54.577 4.805,51.06 5.856,53.812 15.916,57.261 25.661,63.809 36.53,67.047 47.151,74.152 60.428,77.771 "/>
<linearGradient id="_32" gradientUnits="userSpaceOnUse" x1="67.78" y1="52.76" x2="77.75" y2="60.51">
<stop stop-color="#DEE9F3" offset="0"/>
<stop stop-color="#235487" offset="1"/>
</linearGradient>
<polygon fill="url(#_32)" points="82.824,33.668 59.844,74.08 60.385,77.789 82.705,37.515 "/>
<linearGradient id="_33" gradientUnits="userSpaceOnUse" x1="95.29" y1="84.1" x2="-47.96" y2="36.22">
<stop stop-color="#FFFFFF" offset="0"/>
<stop stop-color="#A2C2DD" offset="0.35"/>
<stop stop-color="#6C83BB" offset="0.7"/>
<stop stop-color="#003D6D" offset="1"/>
</linearGradient>
<polygon fill="url(#_33)" points="15.907,54.598 15.916,57.261 25.62,63.785 25.667,61.544 "/>
<polygon fill="url(#_33)" points="36.489,64.431 36.53,67.047 47.151,74.152 47.17,71.347 "/>
<polygon fill="#FFFFFF" points="16.601,53.686 15.907,54.577 25.667,61.502 26.596,60.293 "/>
<linearGradient id="_35" gradientUnits="userSpaceOnUse" x1="41.17" y1="23.53" x2="51.01" y2="23.53">
<stop stop-color="#FFFFFF" offset="0.05"/>
<stop stop-color="#A2C2DD" offset="1"/>
</linearGradient>
<polygon fill="url(#_35)" points="50.371,26.793 51.011,25.875 42.103,20.266 41.175,21.454 "/>
<polygon fill="#FFFFFF" points="37.271,63.281 36.51,64.41 47.17,71.347 48,69.978 "/>
<linearGradient id="_36" gradientUnits="userSpaceOnUse" x1="61.09" y1="30.13" x2="71.88" y2="30.13">
<stop stop-color="#FFFFFF" offset="0.05"/>
<stop stop-color="#A2C2DD" offset="1"/>
</linearGradient>
<polygon fill="url(#_36)" points="71.317,33.526 71.884,32.672 61.855,26.733 61.095,27.864 "/>
<linearGradient id="_37" gradientUnits="userSpaceOnUse" x1="103.91" y1="65.02" x2="11.16" y2="10.27">
<stop stop-color="#E6EEF4" offset="0"/>
<stop stop-color="#4A9900" offset="0.44"/>
<stop stop-color="#0E4E58" offset="0.94"/>
</linearGradient>
<path fill="url(#_37)" d="M70.547,46.724l1.166-0.837l-1.535-2.176c0,0-1.94-0.297-1.963,0.297 C68.178,44.999,70.547,46.724,70.547,46.724z"/>
<linearGradient id="_38" gradientUnits="userSpaceOnUse" x1="93.18" y1="91.3" x2="-10.57" y2="-25.2">
<stop stop-color="#E6EEF4" offset="0"/>
<stop stop-color="#4A9900" offset="0.44"/>
<stop stop-color="#0E4E58" offset="0.94"/>
</linearGradient>
<path fill="url(#_38)" d="M50.364,26.805L33.072,51.179l4.135,1.185l5.219,3.238l5.144-7.652 c-1.245-1.31-1.16-1.894-1.16-1.894s1.097,0.179,2.403,0.045l12.262-18.236L50.364,26.805z"/>
<linearGradient id="_39" gradientUnits="userSpaceOnUse" x1="85.55" y1="89.24" x2="-18.45" y2="-0.76">
<stop stop-color="#E6EEF4" offset="0"/>
<stop stop-color="#4A9900" offset="0.44"/>
<stop stop-color="#0E4E58" offset="0.94"/>
</linearGradient>
<path fill="url(#_39)" d="M19.351,50.083l16.96-22.228l-3.895,0.266l-1.497,1.164l-4.066-1.683L14.46,42.188 C18.319,44.632,14.48,48.651,19.351,50.083z"/>
<path fill="url(#_37)" d="M67.598,39.329c0,0,2.1-1,4.021-0.272c2.271,0.854,5.248-0.395,5.572-0.644 c0.323-0.25,0.217-2.489,0.217-2.489l0.677-1.758l-6.823-0.63L67.598,39.329z"/>
<linearGradient id="_41" gradientUnits="userSpaceOnUse" x1="22.95" y1="30.51" x2="46.45" y2="47.01">
<stop stop-color="#DCE8E4" offset="0"/>
<stop stop-color="#43910A" offset="1"/>
</linearGradient>
<path fill="url(#_41)" d="M44.95,23.658c0,0-4.411,2.893-4.222,2.469c0.272-0.609-2.494,1.496-2.494,1.496l-1.924,0.232 l-16.96,22.228c1.066,0.622,0.533,1.222,3.039,2.996c3.134,2.219,3.844-1.408,3.844-1.408l5.19-0.965l1.648,0.473 l17.292-24.374L44.95,23.658z"/>
<linearGradient id="_42" gradientUnits="userSpaceOnUse" x1="28.39" y1="42.69" x2="71.06" y2="66.03">
<stop stop-color="#DCE8E4" offset="0"/>
<stop stop-color="#43910A" offset="1"/>
</linearGradient>
<path fill="url(#_42)" d="M46.38,57.049c0.814-0.955,1.663-4.155,1.663-4.155s0.168-3.776-0.474-4.944l-5.144,7.652 C44.666,55.72,46.033,57.457,46.38,57.049z"/>
<path fill="url(#_42)" d="M61.074,27.864L48.813,46.101c1.216,0.268,3.336-0.728,4.052-2.518 c1.036-2.59,4.534-4.671,5.886-5.535c1.354-0.864,2.976,1.03,4.922,1.047c1.948,0.02,3.926,0.234,3.926,0.234l3.716-5.798 L61.074,27.864z"/>
<path fill="url(#_37)" d="M59.885,66.755c-3.225,0.382-6.559-0.919-6.559-0.919l-2.321-0.611l-3.054,4.766l0.008,0.006 l10.976,2.387l3.132-5.539C61.433,66.713,60.707,66.657,59.885,66.755z"/>
<path fill="url(#_42)" d="M48.086,64.452l-2.001,0.388l-1.526-0.743c0,0-1.271-1.351-3.83,0.126 c-0.372,0.215-0.704,0.422-1.014,0.619l8.236,5.148l3.054-4.766L48.086,64.452z"/>
<path fill="url(#_37)" d="M64.494,47.756l0.314-0.992l1.511-1.406l-1.104-0.772l-0.343-1.002l-3.003,4.684 C62.709,48.543,64.494,47.756,64.494,47.756z"/>
<path fill="url(#_42)" d="M61.277,43.748c-0.919,0.74-2.147,0.732-2.147,0.732s-0.359,1.586-0.099,1.695 c0.261,0.108,1.37-0.345,1.37-0.345l0.882,0.576c0,0-0.095,1.524,0.586,1.859l3.003-4.684 C64.872,43.583,62.358,42.877,61.277,43.748z"/>
<linearGradient id="_48" gradientUnits="userSpaceOnUse" x1="47.13" y1="22.89" x2="56.13" y2="35.22">
<stop stop-color="#E6EEF4" offset="0"/>
<stop stop-color="#C03A3A" offset="0.44"/>
<stop stop-color="#302D02" offset="0.94"/>
</linearGradient>
<path fill="url(#_48)" d="M57.167,31.128c0.503,1.362-0.599,2.866-2.461,3.361c-1.866,0.49-3.781-0.21-4.286-1.574 c-0.502-1.361,0.601-2.862,2.461-3.358C54.747,29.063,56.665,29.766,57.167,31.128z"/>
<linearGradient id="_49" gradientUnits="userSpaceOnUse" x1="51.85" y1="18.79" x2="53.94" y2="18.79">
<stop stop-color="#E3DFE4" offset="0"/>
<stop stop-color="#C03A3A" offset="1"/>
</linearGradient>
<polygon fill="url(#_49)" points="52.137,4.528 52.397,32.854 54.191,33.171 54.817,4.401 "/>
<polygon fill="#7B341F" points="54.186,4.721 54.191,33.171 55.392,31.753 55.438,4.18 "/>
<linearGradient id="_50" gradientUnits="userSpaceOnUse" x1="51.98" y1="-6.02" x2="70.82" y2="36.48">
<stop stop-color="#E6EEF4" offset="0"/>
<stop stop-color="#C03A3A" offset="0.44"/>
<stop stop-color="#302D02" offset="0.94"/>
</linearGradient>
<polygon fill="url(#_50)" points="54.001,6.432 54.061,20.063 70.672,14.774 "/>
<polygon fill="#E0CFD4" points="52.167,4.526 53.607,4.033 55.438,4.18 54.186,4.721 "/>
<polygon fill="#E0CFD4" points="54.15,6.561 70.672,14.774 55.418,5.911 "/>
</svg>