<?xml version="1.0" encoding="UTF-8"?>
<!DOCTYPE svg PUBLIC "-//W3C//DTD SVG 1.1 Tiny//EN" "http://www.w3.org/Graphics/SVG/1.1/DTD/svg11-tiny.dtd">
<svg width="208" height="94" viewBox="0 0 208 94">
<linearGradient id="_126" gradientUnits="userSpaceOnUse" x1="0" y1="47" x2="208" y2="47">
<stop stop-color="#FF1FAA" offset="0"/>
<stop stop-color="#6600FF" offset="1"/>
</linearGradient>
<rect fill="url(#_126)" height="93.999" width="208"/>
<polygon points="207.566,93.986 207.566,93.678 207.566,93.986 "/>
<polygon fill-opacity="0.8" points="207.566,93.991 207.566,93.683 207.566,93.991 " />
<linearGradient id="_127" gradientUnits="userSpaceOnUse" x1="177.3" y1="46.69" x2="177.3" y2="46.69">
<stop stop-color="#E6EEF4" offset="0"/>
<stop stop-color="#337CE5" offset="0.44"/>
<stop stop-color="#003D6D" offset="0.94"/>
</linearGradient>
<polygon fill="url(#_127)" fill-opacity="0.6" points="177.298,46.688 177.298,46.688 177.298,46.688 " />
<polygon fill="url(#_127)" fill-opacity="0.6" points="177.298,46.688 177.298,46.688 177.298,46.688 " />
<path d="M177.298,46.688L177.298,46.688L177.298,46.688z" fill="url(#_127)" fill-opacity="0.6" />
<path d="M177.298,46.688L177.298,46.688L177.298,46.688z" fill="url(#_127)" fill-opacity="0.6" />
<polygon fill="url(#_127)" fill-opacity="0.6" points="177.298,46.688 177.298,46.688 177.298,46.688 " />
<polygon fill="url(#_127)" fill-opacity="0.6" points="177.298,46.688 177.298,46.688 177.298,46.688 " />
<polygon fill="url(#_127)" fill-opacity="0.6" points="177.298,46.688 177.298,46.688 177.298,46.688 " />
<polygon fill="url(#_127)" fill-opacity="0.6" points="177.298,46.688 177.298,46.688 177.298,46.688 " />
<path d="M177.298,46.688L177.298,46.688L177.298,46.688z" fill="url(#_127)" fill-opacity="0.6" />
<path d="M177.298,46.688L177.298,46.688L177.298,46.688z" fill="#0046B7"/>
<path d="M177.298,46.688L177.298,46.688L177.298,46.688z" fill="url(#_127)" fill-opacity="0.6" />
<polygon fill="url(#_127)" fill-opacity="0.6" points="177.298,46.688 177.298,46.688 177.298,46.688 " />
<polygon fill="url(#_127)" fill-opacity="0.6" points="177.298,46.688 177.298,46.688 177.298,46.688 " />
<polygon fill="#0046B7" points="177.298,46.688 177.298,46.688 177.298,46.688 "/>
<polygon fill="url(#_127)" fill-opacity="0.6" points="177.298,46.688 177.298,46.688 177.298,46.688 " />
<polygon fill="url(#_127)" fill-opacity="0.6" points="177.298,46.688 177.298,46.688 177.298,46.688 " />
<polygon fill="#0046B7" points="177.298,46.689 177.298,46.688 177.298,46.688 177.298,46.688 "/>
<polygon fill="url(#_127)" fill-opacity="0.6" points="177.298,46.689 177.298,46.688 177.298,46.688 177.298,46.688 " />
<polygon fill="#3366CC" fill-opacity="0.3" points="177.298,46.689 177.298,46.688 177.298,46.688 177.298,46.688 " />
<polygon fill="#0046B7" points="177.298,46.689 177.298,46.688 177.298,46.688 "/>
<polygon fill="url(#_127)" fill-opacity="0.6" points="177.298,46.689 177.298,46.688 177.298,46.688 " />
<polygon fill="url(#_127)" fill-opacity="0.6" points="177.298,46.689 177.298,46.688 177.298,46.688 " />
<polygon fill="#3366CC" fill-opacity="0.3" points="177.298,46.689 177.298,46.688 177.298,46.688 " />
<polygon fill="#0046B7" points="177.298,46.688 177.298,46.688 177.298,46.689 "/>
<polygon fill="url(#_127)" fill-opacity="0.6" points="177.298,46.688 177.298,46.688 177.298,46.689 " />
<polygon fill="url(#_127)" fill-opacity="0.6" points="177.298,46.688 177.298,46.688 177.298,46.689 " />
<polygon fill="#3366CC" fill-opacity="0.3" points="177.298,46.688 177.298,46.688 177.298,46.689 " />
<path d="M205.682,27.262c-0.068-2.179-0.693-4.273-1.803-6.218 c-2.373,0.553-4.642,1.24-6.798,2.039C200.219,24.245,203.108,25.65,205.682,27.262z" fill="#3366CC" fill-opacity="0.3" />
<path d="M186.108,28.875c1.57,0.376,3.076,0.836,4.51,1.367 c4.437-1.643,9.584-2.588,15.078-2.588l0,0c0-0.131-0.011-0.262-0.015-0.393c-2.574-1.611-5.463-3.017-8.602-4.179 C192.936,24.617,189.231,26.579,186.108,28.875z" fill="#3366CC" fill-opacity="0.3" />
<path d="M201.652,37.301c2.567-2.839,4.044-6.131,4.044-9.646 c-5.494,0-10.642,0.945-15.078,2.588C195.193,31.936,199.005,34.375,201.652,37.301z" fill="#3366CC" fill-opacity="0.3" />
<path d="M180.705,33.852c0.763,0.122,1.507,0.272,2.232,0.445 c2.186-1.607,4.78-2.98,7.681-4.054c-1.434-0.53-2.939-0.99-4.51-1.366C184.039,30.399,182.219,32.063,180.705,33.852z" fill="#3366CC" fill-opacity="0.3" />
<path d="M182.937,34.296c5.707,1.367,10.241,4.267,12.377,7.917 c2.513-1.397,4.66-3.057,6.338-4.912c-2.647-2.926-6.46-5.365-11.034-7.058C187.717,31.316,185.123,32.689,182.937,34.296z" fill="#3366CC" fill-opacity="0.3" />
<path d="M175.539,46.946c0-4.841,2.794-9.263,7.398-12.65 c-0.726-0.173-1.47-0.323-2.232-0.445C177.411,37.747,175.539,42.207,175.539,46.946L175.539,46.946z" fill="#3366CC" fill-opacity="0.3" />
<path d="M195.313,42.213c-2.136-3.649-6.669-6.549-12.376-7.917 c-4.604,3.387-7.398,7.809-7.398,12.65C183.107,46.946,190.019,45.159,195.313,42.213z" fill="#3366CC" fill-opacity="0.3" />
<linearGradient id="_146" gradientUnits="userSpaceOnUse" x1="218.62" y1="33.92" x2="132.47" y2="33.92">
<stop stop-color="#E6EEF4" offset="0"/>
<stop stop-color="#337CE5" offset="0.44"/>
<stop stop-color="#003D6D" offset="0.94"/>
</linearGradient>
<path d="M205.695,27.655c0,3.516-1.477,6.807-4.044,9.646 c0.83,0.917,1.549,1.88,2.136,2.885c1.441-0.802,2.8-1.663,4.063-2.579v-8.879c-0.499-0.362-1.012-0.717-1.541-1.063 C206.104,27.663,205.902,27.655,205.695,27.655L205.695,27.655z" fill="url(#_146)" fill-opacity="0.6" />
<linearGradient id="_147" gradientUnits="userSpaceOnUse" x1="218.62" y1="40.47" x2="132.45" y2="40.47">
<stop stop-color="#E6EEF4" offset="0"/>
<stop stop-color="#337CE5" offset="0.44"/>
<stop stop-color="#003D6D" offset="0.94"/>
</linearGradient>
<path d="M195.313,42.213c0.271,0.465,0.505,0.941,0.696,1.428 c2.796-0.968,5.397-2.132,7.777-3.456c-0.587-1.004-1.306-1.968-2.136-2.885C199.974,39.157,197.826,40.816,195.313,42.213z" fill="url(#_147)" fill-opacity="0.6" />
<linearGradient id="_148" gradientUnits="userSpaceOnUse" x1="218.62" y1="44.58" x2="132.46" y2="44.58">
<stop stop-color="#E6EEF4" offset="0"/>
<stop stop-color="#337CE5" offset="0.44"/>
<stop stop-color="#003D6D" offset="0.94"/>
</linearGradient>
<path d="M175.539,46.946L175.539,46.946 c7.409,0,14.382-1.198,20.471-3.305c-0.191-0.487-0.426-0.963-0.696-1.428C190.019,45.159,183.106,46.946,175.539,46.946z" fill="url(#_148)" fill-opacity="0.6" />
<linearGradient id="_149" gradientUnits="userSpaceOnUse" x1="184.57" y1="53.72" x2="184.57" y2="0.01">
<stop stop-color="#FFFFCC" offset="0"/>
<stop stop-color="#CCFF00" offset="0.5"/>
<stop stop-color="#000000" offset="1"/>
</linearGradient>
<path d="M164.922,0.006c0,3.229-1.294,6.323-3.662,9.19 c16.352,2.63,28.025,9.547,28.025,17.667c0,8.119-11.674,15.036-28.025,17.666c0.669,0.809,1.253,1.634,1.742,2.477h44.879V7.828 C196.868,2.995,181.688,0.006,164.922,0.006L164.922,0.006L164.922,0.006z" fill="url(#_149)" fill-opacity="0.6" />
<linearGradient id="_150" gradientUnits="userSpaceOnUse" x1="173.02" y1="44.53" x2="173.02" y2="9.2">
<stop stop-color="#FFFFCC" offset="0"/>
<stop stop-color="#CCFF00" offset="0.5"/>
<stop stop-color="#000000" offset="1"/>
</linearGradient>
<path d="M164.924,26.863c0,4.893-2.983,9.478-8.168,13.429 c1.764,1.344,3.283,2.757,4.504,4.236c16.352-2.629,28.025-9.546,28.025-17.666c0-8.12-11.674-15.037-28.025-17.667 c-1.221,1.479-2.74,2.894-4.504,4.238C161.94,17.386,164.924,21.97,164.924,26.863z" fill="url(#_150)" fill-opacity="0.3" />
<linearGradient id="_151" gradientUnits="userSpaceOnUse" x1="154.44" y1="40.29" x2="154.44" y2="13.43">
<stop stop-color="#FFFFCC" offset="0"/>
<stop stop-color="#CCFF00" offset="0.5"/>
<stop stop-color="#000000" offset="1"/>
</linearGradient>
<path d="M143.955,20.274c1.74,2.05,2.699,4.27,2.699,6.589 c0,2.319-0.959,4.538-2.699,6.589c5.076,1.946,9.411,4.256,12.8,6.839c5.186-3.951,8.167-8.536,8.167-13.428 c0-4.893-2.981-9.477-8.168-13.429C153.365,16.018,149.031,18.328,143.955,20.274z" fill="url(#_151)" fill-opacity="0.3" />
<linearGradient id="_152" gradientUnits="userSpaceOnUse" x1="139.81" y1="33.45" x2="139.81" y2="20.27">
<stop stop-color="#FFFFCC" offset="0"/>
<stop stop-color="#CCFF00" offset="0.5"/>
<stop stop-color="#000000" offset="1"/>
</linearGradient>
<path d="M133.863,26.863c0,1.111-0.314,2.189-0.904,3.221 c3.952,0.942,7.631,2.077,10.994,3.367c1.742-2.049,2.699-4.269,2.699-6.587c0-2.319-0.957-4.539-2.699-6.589 c-3.364,1.289-7.042,2.424-10.994,3.368C133.548,24.672,133.863,25.752,133.863,26.863z" fill="url(#_152)" fill-opacity="0.3" />
<linearGradient id="_153" gradientUnits="userSpaceOnUse" x1="118.94" y1="30.08" x2="118.94" y2="23.64">
<stop stop-color="#FFFFCC" offset="0"/>
<stop stop-color="#CCFF00" offset="0.5"/>
<stop stop-color="#000000" offset="1"/>
</linearGradient>
<path d="M104.022,26.863L104.022,26.863 c10.474,0,20.331,1.167,28.937,3.221c0.589-1.032,0.904-2.11,0.904-3.221s-0.314-2.19-0.904-3.221 C124.353,25.696,114.496,26.863,104.022,26.863L104.022,26.863z" fill="url(#_153)" fill-opacity="0.3" />
<g fill-opacity="0.6" stroke-opacity="0.6">
<linearGradient id="_154" gradientUnits="userSpaceOnUse" x1="136.57" y1="15.62" x2="222.73" y2="15.62">
<stop stop-color="#E6EEF4" offset="0"/>
<stop stop-color="#337CE5" offset="0.44"/>
<stop stop-color="#003D6D" offset="0.94"/>
</linearGradient>
<path d="M179.648,19.284c-7.851,0-15.204,1.349-21.542,3.697 c-2.157-0.799-4.426-1.487-6.798-2.04c4.218-7.399,15.313-12.682,28.34-12.682c13.025,0,24.121,5.283,28.34,12.682 c-2.373,0.553-4.642,1.241-6.799,2.04C194.852,20.633,187.498,19.284,179.648,19.284z" fill="url(#_154)" fill-opacity="0.3" />
<linearGradient id="_155" gradientUnits="userSpaceOnUse" x1="158.11" y1="24.03" x2="201.19" y2="24.03">
<stop stop-color="#E6EEF4" offset="0"/>
<stop stop-color="#337CE5" offset="0.44"/>
<stop stop-color="#003D6D" offset="0.94"/>
</linearGradient>
<path d="M190.218,28.773 c-3.29-0.788-6.851-1.221-10.569-1.221c-3.72,0-7.28,0.434-10.57,1.221c-3.123-2.297-6.828-4.259-10.972-5.792 c6.339-2.347,13.691-3.696,21.542-3.696c7.85,0,15.203,1.349,21.541,3.696C197.045,24.515,193.341,26.477,190.218,28.773z" fill="url(#_155)" fill-opacity="0.3" />
<linearGradient id="_156" gradientUnits="userSpaceOnUse" x1="169.08" y1="30.65" x2="190.22" y2="30.65">
<stop stop-color="#E6EEF4" offset="0"/>
<stop stop-color="#337CE5" offset="0.44"/>
<stop stop-color="#003D6D" offset="0.94"/>
</linearGradient>
<path d="M179.648,33.339c-1.783,0-3.514,0.143-5.167,0.41 c-1.513-1.789-3.333-3.453-5.402-4.975c3.289-0.789,6.85-1.222,10.569-1.222c3.719,0,7.279,0.434,10.568,1.222 c-2.069,1.522-3.89,3.186-5.402,4.975C183.161,33.482,181.431,33.339,179.648,33.339z" fill="url(#_156)" fill-opacity="0.3" />
<linearGradient id="_157" gradientUnits="userSpaceOnUse" x1="174.48" y1="40.09" x2="184.81" y2="40.09">
<stop stop-color="#E6EEF4" offset="0"/>
<stop stop-color="#337CE5" offset="0.44"/>
<stop stop-color="#003D6D" offset="0.94"/>
</linearGradient>
<path d="M184.814,33.749 c-3.295,3.895-5.166,8.355-5.166,13.094l0,0l0,0c0-4.74-1.872-9.2-5.167-13.094c1.653-0.267,3.384-0.41,5.167-0.41 C181.431,33.339,183.161,33.482,184.814,33.749z" fill="url(#_157)" fill-opacity="0.3" />
</g>
<linearGradient id="_158" gradientUnits="userSpaceOnUse" x1="30.74" y1="46.66" x2="30.74" y2="46.66">
<stop stop-color="#E6EEF4" offset="0"/>
<stop stop-color="#337CE5" offset="0.44"/>
<stop stop-color="#003D6D" offset="0.94"/>
</linearGradient>
<polygon fill="url(#_158)" fill-opacity="0.6" points="30.707,46.683 30.707,46.683 30.707,46.683 " />
<polygon fill="url(#_158)" fill-opacity="0.6" points="30.707,46.683 30.707,46.683 30.707,46.683 " />
<path d="M30.707,46.683L30.707,46.683L30.707,46.683z" fill="url(#_158)" fill-opacity="0.6" />
<path d="M30.707,46.683L30.707,46.683L30.707,46.683z" fill="url(#_158)" fill-opacity="0.6" />
<polygon fill="url(#_158)" fill-opacity="0.6" points="30.707,46.683 30.707,46.683 30.707,46.683 " />
<polygon fill="url(#_158)" fill-opacity="0.6" points="30.707,46.683 30.707,46.683 30.707,46.683 " />
<polygon fill="url(#_158)" fill-opacity="0.6" points="30.707,46.683 30.707,46.683 30.707,46.683 " />
<polygon fill="url(#_158)" fill-opacity="0.6" points="30.707,46.683 30.707,46.683 30.707,46.683 " />
<path d="M30.707,46.683L30.707,46.683L30.707,46.683z" fill="url(#_158)" fill-opacity="0.6" />
<path d="M30.707,46.683L30.707,46.683L30.707,46.683z" fill="#0046B7"/>
<path d="M30.707,46.683L30.707,46.683L30.707,46.683z" fill="url(#_158)" fill-opacity="0.6" />
<polygon fill="url(#_158)" fill-opacity="0.6" points="30.707,46.683 30.707,46.683 30.707,46.683 " />
<polygon fill="url(#_158)" fill-opacity="0.6" points="30.707,46.683 30.707,46.683 30.707,46.683 " />
<polygon fill="url(#_158)" fill-opacity="0.6" points="30.707,46.683 30.707,46.683 30.707,46.683 " />
<polygon fill="url(#_158)" fill-opacity="0.6" points="30.707,46.683 30.707,46.683 30.707,46.683 " />
<polygon fill="#0046B7" points="30.707,46.683 30.707,46.683 30.707,46.683 30.707,46.683 "/>
<polygon fill="url(#_158)" fill-opacity="0.6" points="30.707,46.683 30.707,46.683 30.707,46.683 30.707,46.683 " />
<polygon fill="#3366CC" fill-opacity="0.3" points="30.707,46.683 30.707,46.683 30.707,46.683 30.707,46.683 " />
<polygon fill="url(#_158)" fill-opacity="0.6" points="30.707,46.683 30.707,46.683 30.707,46.683 " />
<polygon fill="url(#_158)" fill-opacity="0.6" points="30.707,46.683 30.707,46.683 30.707,46.683 " />
<polygon fill="#3366CC" fill-opacity="0.3" points="30.707,46.683 30.707,46.683 30.707,46.683 " />
<polygon fill="#0046B7" points="30.707,46.683 30.707,46.683 30.707,46.683 "/>
<polygon fill="url(#_158)" fill-opacity="0.6" points="30.707,46.683 30.707,46.683 30.707,46.683 " />
<polygon fill="url(#_158)" fill-opacity="0.6" points="30.707,46.683 30.707,46.683 30.707,46.683 " />
<polygon fill="#3366CC" fill-opacity="0.3" points="30.707,46.683 30.707,46.683 30.707,46.683 " />
<path d="M10.923,23.078c-2.157-0.799-4.425-1.486-6.798-2.039 c-1.109,1.945-1.734,4.039-1.803,6.218C4.896,25.644,7.785,24.239,10.923,23.078z" fill="#3366CC" fill-opacity="0.3" />
<path d="M10.924,23.078c-3.139,1.162-6.028,2.567-8.602,4.179 c-0.004,0.131-0.015,0.261-0.015,0.393l0,0c5.495,0,10.643,0.945,15.079,2.588c1.433-0.531,2.939-0.991,4.509-1.367 C18.772,26.573,15.068,24.611,10.924,23.078z" fill="#3366CC" fill-opacity="0.3" />
<path d="M17.386,30.237c-4.437-1.643-9.583-2.588-15.079-2.588 c0,3.515,1.478,6.807,4.045,9.646C8.999,34.369,12.811,31.93,17.386,30.237z" fill="#3366CC" fill-opacity="0.3" />
<path d="M21.896,28.871c-1.571,0.376-3.076,0.836-4.51,1.366 c2.9,1.074,5.495,2.447,7.681,4.054c0.725-0.173,1.469-0.323,2.231-0.445C25.786,32.057,23.965,30.393,21.896,28.871z" fill="#3366CC" fill-opacity="0.3" />
<path d="M17.386,30.237C12.812,31.93,9,34.369,6.352,37.295 c1.678,1.855,3.825,3.515,6.339,4.912c2.136-3.649,6.669-6.549,12.376-7.917C22.881,32.684,20.287,31.311,17.386,30.237z" fill="#3366CC" fill-opacity="0.3" />
<path d="M32.465,46.94c0-4.74-1.872-9.2-5.167-13.095 c-0.762,0.122-1.506,0.272-2.231,0.445C29.671,37.678,32.464,42.1,32.465,46.94L32.465,46.94z" fill="#3366CC" fill-opacity="0.3" />
<path d="M32.465,46.94c0-4.841-2.794-9.263-7.398-12.65 c-5.707,1.367-10.241,4.267-12.376,7.917C17.985,45.153,24.897,46.94,32.465,46.94z" fill="#3366CC" fill-opacity="0.3" />
<linearGradient id="_177" gradientUnits="userSpaceOnUse" x1="-10.57" y1="33.89" x2="75.58" y2="33.89">
<stop stop-color="#E6EEF4" offset="0"/>
<stop stop-color="#337CE5" offset="0.44"/>
<stop stop-color="#003D6D" offset="0.94"/>
</linearGradient>
<path d="M2.309,27.649c-0.207,0-0.41,0.008-0.614,0.01 c-0.529,0.345-1.041,0.7-1.541,1.063v8.879c1.263,0.916,2.621,1.777,4.063,2.579c0.587-1.004,1.306-1.968,2.136-2.885 C3.785,34.456,2.309,31.165,2.309,27.649L2.309,27.649z" fill="url(#_177)" fill-opacity="0.6" />
<linearGradient id="_178" gradientUnits="userSpaceOnUse" x1="-10.58" y1="40.44" x2="75.59" y2="40.44">
<stop stop-color="#E6EEF4" offset="0"/>
<stop stop-color="#337CE5" offset="0.44"/>
<stop stop-color="#003D6D" offset="0.94"/>
</linearGradient>
<path d="M6.353,37.295c-0.83,0.917-1.549,1.88-2.136,2.885 c2.38,1.324,4.982,2.488,7.777,3.456c0.192-0.487,0.426-0.963,0.697-1.428C10.177,40.81,8.03,39.151,6.353,37.295z" fill="url(#_178)" fill-opacity="0.6" />
<linearGradient id="_179" gradientUnits="userSpaceOnUse" x1="-10.58" y1="44.55" x2="75.59" y2="44.55">
<stop stop-color="#E6EEF4" offset="0"/>
<stop stop-color="#337CE5" offset="0.44"/>
<stop stop-color="#003D6D" offset="0.94"/>
</linearGradient>
<path d="M12.691,42.207c-0.271,0.465-0.505,0.941-0.697,1.428 c6.09,2.107,13.062,3.305,20.472,3.305l0,0C24.897,46.94,17.986,45.153,12.691,42.207z" fill="url(#_179)" fill-opacity="0.6" />
<path d="M43.082,0L43.082,0C26.316,0,11.136,2.989,0.123,7.822 V47h44.878c0.49-0.842,1.074-1.668,1.742-2.477c-16.351-2.629-28.025-9.546-28.025-17.666c0-8.12,11.674-15.037,28.025-17.667 C44.375,6.323,43.082,3.229,43.082,0L43.082,0z" fill="url(#_149)" fill-opacity="0.6" />
<path d="M51.248,13.428c-1.764-1.345-3.284-2.759-4.504-4.238 c-16.351,2.63-28.025,9.547-28.025,17.667c0,8.12,11.674,15.036,28.025,17.666c1.221-1.479,2.741-2.893,4.504-4.236 c-5.185-3.952-8.168-8.536-8.168-13.429S46.063,17.38,51.248,13.428z" fill="url(#_150)" fill-opacity="0.3" />
<path d="M51.25,13.428c-5.187,3.952-8.168,8.536-8.168,13.429 c0,4.893,2.981,9.477,8.168,13.428c3.389-2.583,7.724-4.893,12.799-6.839c-1.741-2.051-2.699-4.27-2.699-6.589 c0-2.319,0.958-4.539,2.699-6.589C58.973,18.322,54.638,16.012,51.25,13.428z" fill="url(#_151)" fill-opacity="0.3" />
<path d="M75.045,23.636c-3.952-0.943-7.63-2.079-10.995-3.368 c-1.741,2.05-2.699,4.27-2.699,6.589c0,2.318,0.958,4.538,2.699,6.587c3.364-1.29,7.042-2.425,10.995-3.367 c-0.59-1.032-0.905-2.11-0.905-3.221C74.14,25.746,74.456,24.667,75.045,23.636z" fill="url(#_152)" fill-opacity="0.3" />
<path d="M103.982,26.857c-10.474,0-20.331-1.167-28.937-3.221 c-0.59,1.03-0.905,2.109-0.905,3.221s0.315,2.189,0.905,3.221C83.651,28.024,93.508,26.857,103.982,26.857L103.982,26.857 L103.982,26.857z" fill="url(#_153)" fill-opacity="0.3" />
<g fill-opacity="0.6" stroke-opacity="0.6">
<linearGradient id="_185" gradientUnits="userSpaceOnUse" x1="71.45" y1="15.59" x2="-14.72" y2="15.59">
<stop stop-color="#E6EEF4" offset="0"/>
<stop stop-color="#337CE5" offset="0.44"/>
<stop stop-color="#003D6D" offset="0.94"/>
</linearGradient>
<path d="M6.814,22.975c-2.157-0.799-4.425-1.487-6.798-2.04 c4.218-7.399,15.314-12.682,28.34-12.682s24.122,5.283,28.34,12.682c-2.373,0.553-4.641,1.241-6.798,2.04 c-6.339-2.348-13.692-3.697-21.542-3.697S13.152,20.627,6.814,22.975z" fill="url(#_185)" fill-opacity="0.3" />
<linearGradient id="_186" gradientUnits="userSpaceOnUse" x1="49.91" y1="24.02" x2="6.83" y2="24.02">
<stop stop-color="#E6EEF4" offset="0"/>
<stop stop-color="#337CE5" offset="0.44"/>
<stop stop-color="#003D6D" offset="0.94"/>
</linearGradient>
<path d="M6.815,22.975c6.338-2.347,13.691-3.696,21.541-3.696 s15.203,1.349,21.542,3.696c-4.144,1.534-7.849,3.496-10.972,5.792c-3.29-0.788-6.851-1.221-10.57-1.221 c-3.72,0-7.28,0.434-10.569,1.221C14.664,26.471,10.959,24.509,6.815,22.975z" fill="url(#_186)" fill-opacity="0.3" />
<linearGradient id="_187" gradientUnits="userSpaceOnUse" x1="38.94" y1="30.64" x2="17.8" y2="30.64">
<stop stop-color="#E6EEF4" offset="0"/>
<stop stop-color="#337CE5" offset="0.44"/>
<stop stop-color="#003D6D" offset="0.94"/>
</linearGradient>
<path d="M23.189,33.743c-1.512-1.789-3.333-3.453-5.402-4.975 c3.29-0.789,6.85-1.222,10.569-1.222s7.279,0.434,10.569,1.222c-2.069,1.522-3.89,3.186-5.402,4.975 c-1.653-0.267-3.383-0.41-5.167-0.41S24.843,33.477,23.189,33.743z" fill="url(#_187)" fill-opacity="0.3" />
<linearGradient id="_188" gradientUnits="userSpaceOnUse" x1="33.53" y1="40.08" x2="23.2" y2="40.08">
<stop stop-color="#E6EEF4" offset="0"/>
<stop stop-color="#337CE5" offset="0.44"/>
<stop stop-color="#003D6D" offset="0.94"/>
</linearGradient>
<path d="M28.356,33.333c1.783,0,3.513,0.143,5.167,0.41 c-3.294,3.895-5.167,8.354-5.167,13.094l0,0l0,0c0-4.739-1.872-9.2-5.167-13.094C24.843,33.477,26.573,33.333,28.356,33.333z" fill="url(#_188)" fill-opacity="0.3" />
</g>
<linearGradient id="_189" gradientUnits="userSpaceOnUse" x1="177.27" y1="47.34" x2="177.27" y2="47.34">
<stop stop-color="#E6EEF4" offset="0"/>
<stop stop-color="#337CE5" offset="0.44"/>
<stop stop-color="#003D6D" offset="0.94"/>
</linearGradient>
<polygon fill="url(#_189)" fill-opacity="0.6" points="177.298,47.312 177.298,47.312 177.298,47.312 " />
<polygon fill="url(#_189)" fill-opacity="0.6" points="177.298,47.312 177.298,47.312 177.298,47.312 " />
<path d="M177.298,47.312L177.298,47.312L177.298,47.312z" fill="url(#_189)" fill-opacity="0.6" />
<path d="M177.298,47.312L177.298,47.312L177.298,47.312z" fill="url(#_189)" fill-opacity="0.6" />
<polygon fill="url(#_189)" fill-opacity="0.6" points="177.298,47.312 177.298,47.312 177.298,47.312 " />
<polygon fill="url(#_189)" fill-opacity="0.6" points="177.298,47.312 177.298,47.312 177.298,47.312 " />
<polygon fill="url(#_189)" fill-opacity="0.6" points="177.298,47.312 177.298,47.312 177.298,47.312 " />
<polygon fill="url(#_189)" fill-opacity="0.6" points="177.298,47.312 177.298,47.312 177.298,47.312 " />
<path d="M177.298,47.312L177.298,47.312L177.298,47.312z" fill="url(#_189)" fill-opacity="0.6" />
<path d="M177.298,47.312L177.298,47.312L177.298,47.312z" fill="#0046B7"/>
<path d="M177.298,47.312L177.298,47.312L177.298,47.312z" fill="url(#_189)" fill-opacity="0.6" />
<polygon fill="url(#_189)" fill-opacity="0.6" points="177.298,47.312 177.298,47.312 177.298,47.312 " />
<polygon fill="url(#_189)" fill-opacity="0.6" points="177.298,47.312 177.298,47.312 177.298,47.312 " />
<polygon fill="url(#_189)" fill-opacity="0.6" points="177.298,47.312 177.298,47.312 177.298,47.312 " />
<polygon fill="url(#_189)" fill-opacity="0.6" points="177.298,47.312 177.298,47.312 177.298,47.312 " />
<polygon fill="#0046B7" points="177.298,47.312 177.298,47.312 177.298,47.312 177.298,47.312 "/>
<linearGradient id="_203" gradientUnits="userSpaceOnUse" x1="177.27" y1="47.34" x2="177.27" y2="47.33">
<stop stop-color="#E6EEF4" offset="0"/>
<stop stop-color="#337CE5" offset="0.44"/>
<stop stop-color="#003D6D" offset="0.94"/>
</linearGradient>
<polygon fill="url(#_203)" fill-opacity="0.6" points="177.298,47.312 177.298,47.312 177.298,47.312 177.298,47.312 " />
<polygon fill="#3366CC" fill-opacity="0.3" points="177.298,47.312 177.298,47.312 177.298,47.312 177.298,47.312 " />
<polygon fill="url(#_203)" fill-opacity="0.6" points="177.298,47.312 177.298,47.312 177.298,47.312 " />
<polygon fill="url(#_203)" fill-opacity="0.6" points="177.298,47.312 177.298,47.312 177.298,47.312 " />
<polygon fill="#3366CC" fill-opacity="0.3" points="177.298,47.312 177.298,47.312 177.298,47.312 " />
<polygon fill="#0046B7" points="177.298,47.312 177.298,47.312 177.298,47.312 "/>
<polygon fill="url(#_203)" fill-opacity="0.6" points="177.298,47.312 177.298,47.312 177.298,47.312 " />
<polygon fill="url(#_203)" fill-opacity="0.6" points="177.298,47.312 177.298,47.312 177.298,47.312 " />
<polygon fill="#3366CC" fill-opacity="0.3" points="177.298,47.312 177.298,47.312 177.298,47.312 " />
<path d="M197.081,70.917c2.156,0.799,4.425,1.486,6.798,2.039 c1.109-1.945,1.734-4.039,1.803-6.218C203.108,68.351,200.219,69.755,197.081,70.917z" fill="#3366CC" fill-opacity="0.3" />
<path d="M197.08,70.917c3.139-1.162,6.027-2.567,8.602-4.179 c0.004-0.131,0.015-0.262,0.015-0.393l0,0c-5.494,0-10.642-0.945-15.078-2.588c-1.434,0.53-2.939,0.991-4.51,1.366 C189.231,67.421,192.936,69.383,197.08,70.917z" fill="#3366CC" fill-opacity="0.3" />
<path d="M190.618,63.758c4.437,1.643,9.584,2.588,15.078,2.588 c0-3.516-1.477-6.808-4.044-9.646C199.005,59.625,195.193,62.065,190.618,63.758z" fill="#3366CC" fill-opacity="0.3" />
<path d="M186.108,65.124c1.57-0.375,3.076-0.835,4.51-1.365 c-2.9-1.074-5.495-2.447-7.681-4.055c-0.726,0.173-1.47,0.323-2.232,0.445C182.219,61.938,184.039,63.601,186.108,65.124z" fill="#3366CC" fill-opacity="0.3" />
<path d="M190.617,63.758c4.574-1.693,8.387-4.133,11.034-7.059 c-1.678-1.855-3.825-3.515-6.338-4.912c-2.136,3.649-6.67,6.549-12.377,7.916C185.123,61.311,187.717,62.684,190.617,63.758z" fill="#3366CC" fill-opacity="0.3" />
<path d="M175.539,47.054c0,4.74,1.872,9.2,5.166,13.095 c0.763-0.122,1.507-0.272,2.232-0.445C178.333,56.317,175.539,51.895,175.539,47.054L175.539,47.054z" fill="#3366CC" fill-opacity="0.3" />
<path d="M175.539,47.054c0,4.841,2.794,9.263,7.398,12.649 c5.707-1.367,10.24-4.267,12.376-7.916C190.019,48.841,183.107,47.054,175.539,47.054z" fill="#3366CC" fill-opacity="0.3" />
<linearGradient id="_208" gradientUnits="userSpaceOnUse" x1="218.58" y1="60.1" x2="132.43" y2="60.1">
<stop stop-color="#E6EEF4" offset="0"/>
<stop stop-color="#337CE5" offset="0.44"/>
<stop stop-color="#003D6D" offset="0.94"/>
</linearGradient>
<path d="M205.695,66.345c0.207,0,0.409-0.007,0.613-0.01 c0.529-0.345,1.042-0.7,1.541-1.063v-8.879c-1.263-0.916-2.621-1.777-4.063-2.579c-0.587,1.005-1.306,1.968-2.136,2.885 C204.219,59.539,205.695,62.831,205.695,66.345L205.695,66.345z" fill="url(#_208)" fill-opacity="0.6" />
<linearGradient id="_209" gradientUnits="userSpaceOnUse" x1="218.58" y1="53.55" x2="132.42" y2="53.55">
<stop stop-color="#E6EEF4" offset="0"/>
<stop stop-color="#337CE5" offset="0.44"/>
<stop stop-color="#003D6D" offset="0.94"/>
</linearGradient>
<path d="M201.651,56.7c0.83-0.917,1.549-1.88,2.136-2.885 c-2.38-1.324-4.981-2.488-7.777-3.456c-0.191,0.487-0.426,0.963-0.696,1.429C197.826,53.185,199.974,54.844,201.651,56.7z" fill="url(#_209)" fill-opacity="0.6" />
<linearGradient id="_210" gradientUnits="userSpaceOnUse" x1="218.58" y1="49.44" x2="132.42" y2="49.44">
<stop stop-color="#E6EEF4" offset="0"/>
<stop stop-color="#337CE5" offset="0.44"/>
<stop stop-color="#003D6D" offset="0.94"/>
</linearGradient>
<path d="M195.313,51.788c0.271-0.466,0.505-0.941,0.696-1.429 c-6.089-2.106-13.062-3.305-20.471-3.305l0,0C183.106,47.054,190.019,48.841,195.313,51.788z" fill="url(#_210)" fill-opacity="0.6" />
<linearGradient id="_211" gradientUnits="userSpaceOnUse" x1="184.56" y1="40.3" x2="184.56" y2="94.02">
<stop stop-color="#FFFFCC" offset="0"/>
<stop stop-color="#CCFF00" offset="0.5"/>
<stop stop-color="#000000" offset="1"/>
</linearGradient>
<path d="M164.922,93.994L164.922,93.994 c16.766,0,31.946-2.988,42.959-7.821V46.995h-44.879c-0.489,0.842-1.073,1.668-1.742,2.477 c16.352,2.629,28.025,9.546,28.025,17.665c0,8.12-11.674,15.037-28.025,17.667C163.628,87.671,164.922,90.766,164.922,93.994 L164.922,93.994z" fill="url(#_211)" fill-opacity="0.6" />
<linearGradient id="_212" gradientUnits="userSpaceOnUse" x1="173.01" y1="49.49" x2="173.01" y2="84.83">
<stop stop-color="#FFFFCC" offset="0"/>
<stop stop-color="#CCFF00" offset="0.5"/>
<stop stop-color="#000000" offset="1"/>
</linearGradient>
<path d="M156.756,80.566c1.764,1.346,3.283,2.76,4.504,4.238 c16.352-2.63,28.025-9.547,28.025-17.667c0-8.119-11.674-15.035-28.025-17.665c-1.221,1.479-2.74,2.893-4.504,4.236 c5.185,3.951,8.168,8.536,8.168,13.429C164.924,72.031,161.94,76.615,156.756,80.566z" fill="url(#_212)" fill-opacity="0.3" />
<linearGradient id="_213" gradientUnits="userSpaceOnUse" x1="154.43" y1="53.73" x2="154.43" y2="80.59">
<stop stop-color="#FFFFCC" offset="0"/>
<stop stop-color="#CCFF00" offset="0.5"/>
<stop stop-color="#000000" offset="1"/>
</linearGradient>
<path d="M156.754,80.566c5.187-3.951,8.168-8.535,8.168-13.429 c0-4.892-2.981-9.477-8.167-13.428c-3.389,2.584-7.724,4.893-12.8,6.839c1.74,2.051,2.699,4.271,2.699,6.589 c0,2.319-0.959,4.539-2.699,6.589C149.031,75.673,153.365,77.983,156.754,80.566z" fill="url(#_213)" fill-opacity="0.3" />
<linearGradient id="_214" gradientUnits="userSpaceOnUse" x1="139.8" y1="60.57" x2="139.8" y2="73.75">
<stop stop-color="#FFFFCC" offset="0"/>
<stop stop-color="#CCFF00" offset="0.5"/>
<stop stop-color="#000000" offset="1"/>
</linearGradient>
<path d="M132.959,70.358c3.952,0.943,7.63,2.079,10.994,3.368 c1.742-2.05,2.699-4.27,2.699-6.589c0-2.318-0.957-4.538-2.699-6.588c-3.363,1.29-7.042,2.425-10.994,3.367 c0.59,1.032,0.904,2.11,0.904,3.221C133.863,68.249,133.548,69.328,132.959,70.358z" fill="url(#_214)" fill-opacity="0.3" />
<linearGradient id="_215" gradientUnits="userSpaceOnUse" x1="118.94" y1="63.94" x2="118.94" y2="70.38">
<stop stop-color="#FFFFCC" offset="0"/>
<stop stop-color="#CCFF00" offset="0.5"/>
<stop stop-color="#000000" offset="1"/>
</linearGradient>
<path d="M104.022,67.137c10.474,0,20.331,1.167,28.937,3.221 c0.59-1.03,0.904-2.109,0.904-3.221c0-1.11-0.315-2.188-0.904-3.221C124.353,65.971,114.496,67.137,104.022,67.137L104.022,67.137 L104.022,67.137z" fill="url(#_215)" fill-opacity="0.3" />
<g fill-opacity="0.6" stroke-opacity="0.6">
<linearGradient id="_216" gradientUnits="userSpaceOnUse" x1="136.55" y1="78.4" x2="222.72" y2="78.4">
<stop stop-color="#E6EEF4" offset="0"/>
<stop stop-color="#337CE5" offset="0.44"/>
<stop stop-color="#003D6D" offset="0.94"/>
</linearGradient>
<path d="M201.189,71.02c2.157,0.799,4.426,1.486,6.799,2.039 c-4.219,7.398-15.314,12.682-28.34,12.682c-13.026,0-24.122-5.283-28.34-12.682c2.372-0.553,4.641-1.24,6.798-2.039 c6.338,2.348,13.691,3.696,21.542,3.696C187.498,74.716,194.852,73.368,201.189,71.02z" fill="url(#_216)" fill-opacity="0.3" />
<linearGradient id="_217" gradientUnits="userSpaceOnUse" x1="158.1" y1="69.98" x2="201.18" y2="69.98">
<stop stop-color="#E6EEF4" offset="0"/>
<stop stop-color="#337CE5" offset="0.44"/>
<stop stop-color="#003D6D" offset="0.94"/>
</linearGradient>
<path d="M201.189,71.02 c-6.338,2.347-13.691,3.695-21.541,3.695c-7.851,0-15.203-1.349-21.542-3.695c4.144-1.534,7.849-3.496,10.972-5.793 c3.29,0.788,6.851,1.221,10.57,1.221c3.719,0,7.279-0.433,10.569-1.221C193.341,67.524,197.045,69.486,201.189,71.02z" fill="url(#_217)" fill-opacity="0.3" />
<linearGradient id="_218" gradientUnits="userSpaceOnUse" x1="169.07" y1="63.36" x2="190.21" y2="63.36">
<stop stop-color="#E6EEF4" offset="0"/>
<stop stop-color="#337CE5" offset="0.44"/>
<stop stop-color="#003D6D" offset="0.94"/>
</linearGradient>
<path d="M184.814,60.251c1.513,1.789,3.333,3.452,5.402,4.975 c-3.289,0.789-6.85,1.222-10.568,1.222c-3.72,0-7.28-0.433-10.569-1.222c2.069-1.522,3.89-3.186,5.402-4.975 c1.653,0.267,3.384,0.409,5.167,0.409C181.431,60.661,183.161,60.518,184.814,60.251z" fill="url(#_218)" fill-opacity="0.3" />
<linearGradient id="_219" gradientUnits="userSpaceOnUse" x1="174.47" y1="53.92" x2="184.8" y2="53.92">
<stop stop-color="#E6EEF4" offset="0"/>
<stop stop-color="#337CE5" offset="0.44"/>
<stop stop-color="#003D6D" offset="0.94"/>
</linearGradient>
<path d="M179.648,60.661c-1.783,0-3.514-0.143-5.167-0.409 c3.295-3.895,5.167-8.354,5.167-13.094l0,0l0,0c0,4.74,1.871,9.2,5.166,13.094C183.161,60.518,181.431,60.661,179.648,60.661z" fill="url(#_219)" fill-opacity="0.3" />
</g>
<linearGradient id="_220" gradientUnits="userSpaceOnUse" x1="30.74" y1="47.34" x2="30.74" y2="47.34">
<stop stop-color="#E6EEF4" offset="0"/>
<stop stop-color="#337CE5" offset="0.44"/>
<stop stop-color="#003D6D" offset="0.94"/>
</linearGradient>
<polygon fill="url(#_220)" fill-opacity="0.6" points="30.707,47.32 30.707,47.32 30.707,47.32 " />
<polygon fill="url(#_220)" fill-opacity="0.6" points="30.707,47.32 30.707,47.32 30.707,47.32 " />
<path d="M30.707,47.32L30.707,47.32L30.707,47.32z" fill="url(#_220)" fill-opacity="0.6" />
<path d="M30.707,47.32L30.707,47.32L30.707,47.32z" fill="url(#_220)" fill-opacity="0.6" />
<polygon fill="url(#_220)" fill-opacity="0.6" points="30.707,47.32 30.707,47.32 30.707,47.32 " />
<polygon fill="url(#_220)" fill-opacity="0.6" points="30.707,47.32 30.707,47.32 30.707,47.32 " />
<polygon fill="url(#_220)" fill-opacity="0.6" points="30.707,47.32 30.707,47.32 30.707,47.32 " />
<polygon fill="url(#_220)" fill-opacity="0.6" points="30.707,47.32 30.707,47.32 30.707,47.32 " />
<path d="M30.707,47.32L30.707,47.32L30.707,47.32z" fill="url(#_220)" fill-opacity="0.6" />
<path d="M30.707,47.32L30.707,47.32L30.707,47.32z" fill="#0046B7"/>
<path d="M30.707,47.32L30.707,47.32L30.707,47.32z" fill="url(#_220)" fill-opacity="0.6" />
<polygon fill="url(#_220)" fill-opacity="0.6" points="30.707,47.32 30.707,47.32 30.707,47.32 " />
<polygon fill="url(#_220)" fill-opacity="0.6" points="30.707,47.32 30.707,47.32 30.707,47.32 " />
<polygon fill="#0046B7" points="30.707,47.32 30.707,47.32 30.707,47.32 "/>
<polygon fill="url(#_220)" fill-opacity="0.6" points="30.707,47.32 30.707,47.32 30.707,47.32 " />
<polygon fill="url(#_220)" fill-opacity="0.6" points="30.707,47.32 30.707,47.32 30.707,47.32 " />
<polygon fill="#0046B7" points="30.707,47.319 30.707,47.32 30.707,47.32 30.707,47.32 "/>
<polygon fill="url(#_220)" fill-opacity="0.6" points="30.707,47.319 30.707,47.32 30.707,47.32 30.707,47.32 " />
<polygon fill="#3366CC" fill-opacity="0.3" points="30.707,47.319 30.707,47.32 30.707,47.32 30.707,47.32 " />
<polygon fill="#0046B7" points="30.707,47.319 30.707,47.32 30.707,47.32 "/>
<polygon fill="url(#_220)" fill-opacity="0.6" points="30.707,47.319 30.707,47.32 30.707,47.32 " />
<polygon fill="url(#_220)" fill-opacity="0.6" points="30.707,47.319 30.707,47.32 30.707,47.32 " />
<polygon fill="#3366CC" fill-opacity="0.3" points="30.707,47.319 30.707,47.32 30.707,47.32 " />
<polygon fill="#0046B7" points="30.707,47.32 30.707,47.32 30.707,47.319 "/>
<polygon fill="url(#_220)" fill-opacity="0.6" points="30.707,47.32 30.707,47.32 30.707,47.319 " />
<polygon fill="url(#_220)" fill-opacity="0.6" points="30.707,47.32 30.707,47.32 30.707,47.319 " />
<polygon fill="#3366CC" fill-opacity="0.3" points="30.707,47.32 30.707,47.32 30.707,47.319 " />
<path d="M2.322,66.747c0.068,2.179,0.694,4.272,1.803,6.218 c2.373-0.553,4.641-1.24,6.798-2.039C7.785,69.763,4.896,68.359,2.322,66.747z" fill="#3366CC" fill-opacity="0.3" />
<path d="M21.895,65.132c-1.57-0.375-3.076-0.836-4.509-1.366 c-4.436,1.643-9.583,2.588-15.079,2.588l0,0c0,0.131,0.011,0.262,0.015,0.393c2.574,1.611,5.463,3.017,8.602,4.179 C15.068,69.391,18.772,67.429,21.895,65.132z" fill="#3366CC" fill-opacity="0.3" />
<path d="M6.352,56.708c-2.567,2.839-4.045,6.131-4.045,9.646 c5.495,0,10.642-0.945,15.079-2.588C12.811,62.073,8.999,59.633,6.352,56.708z" fill="#3366CC" fill-opacity="0.3" />
<path d="M27.298,60.157c-0.762-0.122-1.506-0.272-2.231-0.445 c-2.186,1.607-4.781,2.98-7.681,4.055c1.434,0.53,2.939,0.99,4.51,1.365C23.965,63.609,25.786,61.946,27.298,60.157z" fill="#3366CC" fill-opacity="0.3" />
<path d="M25.067,59.711c-5.707-1.367-10.24-4.267-12.376-7.916 c-2.514,1.397-4.661,3.057-6.339,4.912c2.647,2.926,6.46,5.365,11.034,7.059C20.287,62.692,22.881,61.319,25.067,59.711z" fill="#3366CC" fill-opacity="0.3" />
<path d="M32.465,47.062c0,4.841-2.794,9.263-7.398,12.649 c0.725,0.173,1.469,0.323,2.231,0.445C30.593,56.262,32.465,51.802,32.465,47.062L32.465,47.062z" fill="#3366CC" fill-opacity="0.3" />
<path d="M12.69,51.795c2.136,3.649,6.669,6.549,12.376,7.916 c4.604-3.387,7.397-7.809,7.398-12.649C24.897,47.062,17.985,48.849,12.69,51.795z" fill="#3366CC" fill-opacity="0.3" />
<linearGradient id="_239" gradientUnits="userSpaceOnUse" x1="-10.57" y1="60.11" x2="75.58" y2="60.11">
<stop stop-color="#E6EEF4" offset="0"/>
<stop stop-color="#337CE5" offset="0.44"/>
<stop stop-color="#003D6D" offset="0.94"/>
</linearGradient>
<path d="M2.309,66.353c0-3.515,1.477-6.807,4.044-9.646 c-0.831-0.917-1.549-1.88-2.136-2.885c-1.441,0.802-2.8,1.663-4.063,2.579v8.879c0.5,0.362,1.012,0.718,1.541,1.063 C1.899,66.346,2.102,66.353,2.309,66.353L2.309,66.353z" fill="url(#_239)" fill-opacity="0.6" />
<linearGradient id="_240" gradientUnits="userSpaceOnUse" x1="-10.58" y1="53.56" x2="75.59" y2="53.56">
<stop stop-color="#E6EEF4" offset="0"/>
<stop stop-color="#337CE5" offset="0.44"/>
<stop stop-color="#003D6D" offset="0.94"/>
</linearGradient>
<path d="M12.691,51.795c-0.271-0.466-0.505-0.941-0.697-1.429 c-2.795,0.968-5.397,2.132-7.777,3.456c0.587,1.005,1.306,1.968,2.136,2.885C8.03,54.852,10.177,53.193,12.691,51.795z" fill="url(#_240)" fill-opacity="0.6" />
<linearGradient id="_241" gradientUnits="userSpaceOnUse" x1="-10.58" y1="49.45" x2="75.59" y2="49.45">
<stop stop-color="#E6EEF4" offset="0"/>
<stop stop-color="#337CE5" offset="0.44"/>
<stop stop-color="#003D6D" offset="0.94"/>
</linearGradient>
<path d="M32.465,47.062L32.465,47.062 c-7.41,0-14.382,1.198-20.472,3.305c0.192,0.487,0.426,0.963,0.697,1.429C17.986,48.849,24.897,47.062,32.465,47.062z" fill="url(#_241)" fill-opacity="0.6" />
<path d="M43.082,94.002c0-3.229,1.294-6.323,3.662-9.19 c-16.351-2.63-28.025-9.547-28.025-17.667c0-8.119,11.674-15.036,28.025-17.665c-0.668-0.809-1.252-1.635-1.742-2.477H0.123V86.18 C11.136,91.013,26.316,94.001,43.082,94.002L43.082,94.002L43.082,94.002z" fill="url(#_211)" fill-opacity="0.6" />
<path d="M43.08,67.145c0-4.893,2.983-9.478,8.168-13.429 c-1.764-1.344-3.284-2.758-4.504-4.236c-16.351,2.63-28.025,9.546-28.025,17.665c0,8.12,11.674,15.037,28.025,17.667 c1.221-1.479,2.741-2.893,4.504-4.238C46.063,76.623,43.08,72.039,43.08,67.145z" fill="url(#_212)" fill-opacity="0.3" />
<path d="M64.049,73.734c-1.741-2.05-2.699-4.27-2.699-6.589 c0-2.318,0.958-4.538,2.699-6.589c-5.076-1.946-9.411-4.255-12.799-6.839c-5.187,3.951-8.168,8.536-8.168,13.428 c0,4.894,2.981,9.478,8.168,13.429C54.638,77.991,58.973,75.681,64.049,73.734z" fill="url(#_213)" fill-opacity="0.3" />
<path d="M74.14,67.145c0-1.11,0.315-2.188,0.905-3.221 c-3.952-0.942-7.631-2.077-10.995-3.367c-1.741,2.05-2.699,4.27-2.699,6.588c0,2.319,0.958,4.539,2.699,6.589 c3.364-1.289,7.042-2.425,10.995-3.368C74.456,69.335,74.14,68.256,74.14,67.145z" fill="url(#_214)" fill-opacity="0.3" />
<path d="M103.982,67.145L103.982,67.145 c-10.474,0-20.331-1.166-28.937-3.221c-0.589,1.032-0.905,2.11-0.905,3.221c0,1.111,0.315,2.19,0.905,3.221 C83.651,68.312,93.508,67.145,103.982,67.145L103.982,67.145z" fill="url(#_215)" fill-opacity="0.3" />
<g fill-opacity="0.6" stroke-opacity="0.6">
<linearGradient id="_247" gradientUnits="userSpaceOnUse" x1="71.45" y1="78.41" x2="-14.72" y2="78.41">
<stop stop-color="#E6EEF4" offset="0"/>
<stop stop-color="#337CE5" offset="0.44"/>
<stop stop-color="#003D6D" offset="0.94"/>
</linearGradient>
<path d="M28.356,74.724c7.85,0,15.203-1.349,21.542-3.696 c2.157,0.799,4.425,1.486,6.798,2.039c-4.218,7.398-15.314,12.682-28.34,12.682S4.234,80.465,0.016,73.067 c2.373-0.553,4.641-1.24,6.798-2.039C13.152,73.375,20.506,74.724,28.356,74.724z" fill="url(#_247)" fill-opacity="0.3" />
<linearGradient id="_248" gradientUnits="userSpaceOnUse" x1="49.91" y1="69.99" x2="6.83" y2="69.99">
<stop stop-color="#E6EEF4" offset="0"/>
<stop stop-color="#337CE5" offset="0.44"/>
<stop stop-color="#003D6D" offset="0.94"/>
</linearGradient>
<path d="M17.787,65.235c3.29,0.788,6.85,1.221,10.569,1.221 c3.719,0,7.28-0.433,10.57-1.221c3.123,2.297,6.828,4.259,10.972,5.793c-6.338,2.347-13.691,3.695-21.542,3.695 s-15.203-1.349-21.541-3.695C10.959,69.494,14.664,67.532,17.787,65.235z" fill="url(#_248)" fill-opacity="0.3" />
<linearGradient id="_249" gradientUnits="userSpaceOnUse" x1="38.94" y1="63.36" x2="17.8" y2="63.36">
<stop stop-color="#E6EEF4" offset="0"/>
<stop stop-color="#337CE5" offset="0.44"/>
<stop stop-color="#003D6D" offset="0.94"/>
</linearGradient>
<path d="M28.356,60.668c1.783,0,3.513-0.143,5.167-0.409 c1.513,1.789,3.333,3.452,5.402,4.975c-3.29,0.789-6.85,1.222-10.569,1.222s-7.279-0.433-10.569-1.222 c2.069-1.522,3.89-3.186,5.402-4.975C24.843,60.526,26.573,60.668,28.356,60.668z" fill="url(#_249)" fill-opacity="0.3" />
<linearGradient id="_250" gradientUnits="userSpaceOnUse" x1="33.53" y1="53.92" x2="23.2" y2="53.92">
<stop stop-color="#E6EEF4" offset="0"/>
<stop stop-color="#337CE5" offset="0.44"/>
<stop stop-color="#003D6D" offset="0.94"/>
</linearGradient>
<path d="M23.189,60.259c3.295-3.895,5.167-8.354,5.167-13.094 l0,0l0,0c0,4.74,1.872,9.2,5.167,13.094c-1.653,0.267-3.383,0.409-5.167,0.409S24.843,60.526,23.189,60.259z" fill="url(#_250)" fill-opacity="0.3" />
</g>
</svg>