<?xml version="1.0" encoding="UTF-8"?>
<!DOCTYPE svg PUBLIC "-//W3C//DTD SVG 1.1 Tiny//EN" "http://www.w3.org/Graphics/SVG/1.1/DTD/svg11-tiny.dtd">
<svg width="44" height="44" viewBox="0 0 44 44">
<polygon fill="#496DA2" points="20.25,13.017 20.25,17.162 13.617,17.162 13.617,25.45 20.25,25.45 20.25,29.597 21.906,29.597 30.195,21.305 21.906,13.017 "/>
<polygon fill="#FFFFFF" fill-opacity="0.6" points="20.25,13.017 20.25,17.162 13.617,17.162 13.617,25.45 20.25,25.45 20.25,29.597 21.906,29.597 30.195,21.305 21.906,13.017 " />
<linearGradient id="_3" gradientUnits="userSpaceOnUse" x1="-4.25" y1="-6.1" x2="31.37" y2="37.07">
<stop stop-color="#FFFFFF" offset="0"/>
<stop stop-color="#E0EAF3" offset="0.11"/>
<stop stop-color="#A2C2DD" offset="0.35"/>
<stop stop-color="#8CA9CF" offset="0.48"/>
<stop stop-color="#6C83BB" offset="0.7"/>
<stop stop-color="#637DB5" offset="0.75"/>
<stop stop-color="#4C6EA4" offset="0.82"/>
<stop stop-color="#265689" offset="0.91"/>
<stop stop-color="#003D6D" offset="0.99"/>
</linearGradient>
<polygon fill="url(#_3)" points="32.871,14.624 32.871,34.249 10.871,34.249 10.871,8.96 27.301,8.96 27.301,6.627 8.551,6.627 8.551,36.627 35.301,36.627 35.301,14.624 "/>
<polygon fill="#FFFFFF" fill-opacity="0.6" points="32.871,14.624 32.871,34.249 10.871,34.249 10.871,8.96 27.301,8.96 27.301,6.627 8.551,6.627 8.551,36.627 35.301,36.627 35.301,14.624 " />
<linearGradient id="_4" gradientUnits="userSpaceOnUse" x1="24.42" y1="3.92" x2="31.62" y2="15.12">
<stop stop-color="#FFFFFF" offset="0"/>
<stop stop-color="#E0EAF3" offset="0.11"/>
<stop stop-color="#A2C2DD" offset="0.35"/>
<stop stop-color="#8CA9CF" offset="0.48"/>
<stop stop-color="#6C83BB" offset="0.7"/>
<stop stop-color="#637DB5" offset="0.75"/>
<stop stop-color="#4C6EA4" offset="0.82"/>
<stop stop-color="#265689" offset="0.91"/>
<stop stop-color="#003D6D" offset="0.99"/>
</linearGradient>
<polygon fill="url(#_4)" points="27.301,14.624 32.871,14.624 35.301,14.624 27.301,6.627 27.301,8.96 "/>
<polygon fill="#FFFFFF" fill-opacity="0.6" points="27.301,14.624 32.871,14.624 35.301,14.624 27.301,6.627 27.301,8.96 " />
</svg>