<?xml version="1.0" encoding="UTF-8"?>
<!DOCTYPE svg PUBLIC "-//W3C//DTD SVG 1.1 Tiny//EN" "http://www.w3.org/Graphics/SVG/1.1/DTD/svg11-tiny.dtd">
<svg baseProfile="tiny" height="32" version="1.1" viewBox="0 0 44 32" width="44" xmlns="http://www.w3.org/2000/svg" xmlns:xlink="http://www.w3.org/1999/xlink">
<g>
<g>
<path d="M17.243,22.326h-6.987l4.223-4.458c1.714-1.82,2.573-3.714,2.573-5.683c0-1.386-0.475-2.48-1.422-3.28    c-0.948-0.801-2.256-1.202-3.924-1.202c-0.84,0-1.61,0.088-2.31,0.264c-0.7,0.176-1.274,0.385-1.723,0.624v2.438    c0.508-0.293,1.109-0.548,1.802-0.764c0.692-0.217,1.399-0.326,2.118-0.326c0.696,0,1.257,0.223,1.684,0.663    c0.428,0.441,0.64,0.984,0.64,1.628c0,1.22-0.423,2.324-1.269,3.313l-5.425,6.368v2.718h10.02V22.326z"/>
<g>
<path d="M24.393,25.359c-0.021-0.123-0.039-0.236-0.051-0.34c-0.012-0.103-0.021-0.207-0.031-0.313     c-0.16,0.247-0.349,0.431-0.565,0.551c-0.22,0.121-0.494,0.183-0.826,0.183c-0.54,0-0.951-0.156-1.232-0.469     c-0.281-0.314-0.422-0.752-0.422-1.318c0-0.674,0.203-1.162,0.612-1.463c0.408-0.301,1.049-0.451,1.921-0.451h0.459v-0.166     c0-0.414-0.085-0.699-0.256-0.857s-0.438-0.236-0.804-0.236c-0.299,0-0.561,0.028-0.783,0.086     c-0.224,0.058-0.436,0.129-0.638,0.217v-0.938c0.271-0.104,0.527-0.176,0.771-0.213c0.244-0.037,0.508-0.057,0.787-0.057     c0.787,0,1.357,0.154,1.713,0.462s0.533,0.819,0.533,1.536v2.904c0,0.149,0.006,0.299,0.02,0.444s0.032,0.293,0.06,0.438H24.393z      M24.256,22.581h-0.459c-0.402,0-0.703,0.073-0.898,0.218c-0.194,0.146-0.293,0.409-0.293,0.795c0,0.324,0.061,0.564,0.18,0.719     c0.117,0.156,0.309,0.231,0.568,0.231c0.279,0,0.5-0.104,0.662-0.319c0.16-0.213,0.24-0.512,0.24-0.896V22.581z"/>
<path d="M28.285,20.395c0.102-0.23,0.281-0.426,0.544-0.586c0.262-0.16,0.583-0.238,0.964-0.238c0.594,0,1.048,0.236,1.365,0.709     c0.316,0.475,0.477,1.213,0.477,2.215c0,0.953-0.16,1.684-0.48,2.188c-0.321,0.506-0.801,0.758-1.438,0.758     c-0.664,0-1.151-0.25-1.465-0.748l-0.067,0.67h-1.222v-7.729h1.324L28.285,20.395L28.285,20.395z M29.363,24.55     c0.339-0.004,0.578-0.176,0.719-0.519c0.141-0.342,0.209-0.857,0.209-1.549c0-0.602-0.068-1.09-0.209-1.467     c-0.141-0.375-0.38-0.563-0.719-0.563c-0.406,0-0.695,0.188-0.866,0.563c-0.171,0.377-0.257,0.885-0.257,1.525     c0,0.65,0.086,1.148,0.257,1.492S28.957,24.55,29.363,24.55z"/>
<path d="M34.721,25.438c-0.66,0-1.197-0.267-1.609-0.799c-0.411-0.531-0.616-1.238-0.616-2.117c0-0.9,0.202-1.619,0.606-2.151     c0.405-0.534,0.953-0.802,1.644-0.802c0.243,0,0.476,0.022,0.692,0.068c0.22,0.045,0.445,0.113,0.681,0.205v0.938     c-0.205-0.082-0.405-0.152-0.599-0.215c-0.194-0.063-0.388-0.094-0.58-0.094c-0.348,0-0.616,0.182-0.808,0.543     c-0.19,0.361-0.286,0.889-0.286,1.582c0,0.635,0.096,1.116,0.286,1.445c0.19,0.328,0.476,0.492,0.856,0.492     c0.191,0,0.385-0.03,0.578-0.092c0.193-0.063,0.395-0.135,0.6-0.215v0.938c-0.234,0.091-0.465,0.158-0.691,0.205     C35.248,25.415,34.997,25.438,34.721,25.438z"/>
</g>
</g>
<g>
<rect fill="none" height="32" width="44"/>
</g>
</g>
</svg>
