<?xml version="1.0" encoding="UTF-8"?>
<!DOCTYPE svg PUBLIC "-//W3C//DTD SVG 1.1 Tiny//EN" "http://www.w3.org/Graphics/SVG/1.1/DTD/svg11-tiny.dtd">
<svg baseProfile="tiny" height="44px" version="1.1" viewBox="0 0 44 44" width="44px" x="0px" xmlns="http://www.w3.org/2000/svg" xmlns:xlink="http://www.w3.org/1999/xlink" y="0px">
<rect fill="none" height="44" width="44"/>
<linearGradient gradientUnits="userSpaceOnUse" id="SVGID_1_" x1="20.3315" x2="20.3315" y1="5.979" y2="37.6978">
<stop offset="0" style="stop-color:#B2B2B2"/>
<stop offset="1" style="stop-color:#000000"/>
</linearGradient>
<path d="M16.184,21.841c-1.742,1.303-3.214,3.408-2.018,5.622c0.525,0.981,1.354,1.394,2.248,1.593  c0.517-2.049,1.682-4.619,4.178-7.288c-0.187-0.093-0.393-0.184-0.634-0.266C19.267,21.268,16.862,21.33,16.184,21.841z   M20.61,5.979c-7.991,0-14.499,6.509-14.499,14.5c0,6.489,4.291,12,10.183,13.843c-0.172-0.711-0.268-1.49-0.268-2.301  c0-0.053,0.003-0.114,0.003-0.171c-4.499-1.819-7.685-6.228-7.685-11.371c0-1.868,0.432-3.631,1.178-5.215  c2.363-0.578,7.462-2.731,9.042-4.154c1.313-1.182,0.812-2.253,0.352-2.766c0.555-0.076,1.115-0.131,1.694-0.131  c0.877,0,1.729,0.098,2.553,0.274c0.146,1.054,1.558,2.564,1.558,3.307c0,0.851-1.263-0.066-2.725,0.507  c-1.729,0.684-3.26,1.874-4.282,3.748c-0.195,0.358-0.021,1.735-0.172,2.386c-0.132,0.583-0.851,0.512-1.022,0.684  c-0.336,0.339-0.679,1.021-0.507,1.361c0.108,0.218,0.333,0.68,1.194,0.68c0.851,0,1.187-1.702,2.381-1.702  c0.298,0,1.216,0.775,2.028,1.285c4.21-3.95,8.202-4.566,10.255-4.566c0.957,0,1.874,0.129,2.681,0.359  C32.826,10.455,27.235,5.979,20.61,5.979z" fill="url(#SVGID_1_)"/>
<linearGradient gradientUnits="userSpaceOnUse" id="SVGID_2_" x1="27.7139" x2="27.7139" y1="5.9785" y2="37.6976">
<stop offset="0" style="stop-color:#B2B2B2"/>
<stop offset="1" style="stop-color:#000000"/>
</linearGradient>
<path d="M37.094,20.73c-0.604-0.909-1.324-1.458-1.813-1.833c-1.394-1.062-7.028-2.174-12.855,3.652  c-3.536,3.541-4.529,6.997-4.529,9.474c0,1.597,0.416,2.791,0.83,3.335c0.43,0.561,0.967,1.261,1.884,1.866  c0.269,0.182,0.735,0.344,1.243,0.436l0.115,0.003c0.916-0.058,1.923-0.762,3.272-2.283c0.446-0.501,1.893-2.235,1.893-3.449  c0,0-0.004-0.146-0.004-0.177c-0.015-0.033-0.026-0.062-0.026-0.062c-0.01-0.05-0.165-0.492-0.865-1.042  c-0.429-0.344-1.071-0.584-1.906-0.721l-0.396-0.063l0.004-0.402c0.017-2.005,3.393-5.384,5.393-5.395h0.398l0.067,0.397  c0.132,0.83,0.372,1.473,0.72,1.908c0.508,0.644,0.938,0.828,1.15,0.894c0.814,0.079,2.148-0.632,3.575-1.894  c1.52-1.344,2.227-2.358,2.284-3.283c0,0,0.004-0.031,0.004-0.059c-0.004-0.028-0.008-0.055-0.008-0.055  C37.471,21.683,37.33,21.087,37.094,20.73z" fill="url(#SVGID_2_)"/>
</svg>
