<?xml version="1.0" encoding="UTF-8"?>
<!DOCTYPE svg PUBLIC "-//W3C//DTD SVG 1.1 Tiny//EN" "http://www.w3.org/Graphics/SVG/1.1/DTD/svg11-tiny.dtd">
<svg width="12" height="32" viewBox="-0.5 -0.101 12 32">
<path fill="#DEE9F3" d="M6,26.948c-2.484,0-4.5-0.727-4.5-1.576V24.7c0-1.375,2.016-1.801,4.5-1.801l0,0 c2.486,0,4.5,0.426,4.5,1.801v0.672C10.5,26.222,8.486,26.948,6,26.948L6,26.948z"/>
<path fill-opacity="0.5" fill="#87A8CB" d="M0.5,24.7v0.672c0,1.395,2.467,2.527,5.5,2.527c3.031,0,5.5-1.133,5.5-2.527V24.7 c0-1.922-2.469-2.801-5.5-2.801C2.967,21.899,0.5,22.778,0.5,24.7z M1.5,25.372V24.7c0-1.367,2.017-1.801,4.5-1.801 c2.482,0,4.5,0.434,4.5,1.801v0.672c0,0.846-2.018,1.576-4.5,1.576S1.5,26.218,1.5,25.372z"/>
</svg>