<?xml version="1.0" encoding="utf-8"?>
<!DOCTYPE svg PUBLIC "-//W3C//DTD SVG 1.1 Tiny//EN" "http://www.w3.org/Graphics/SVG/1.1/DTD/svg11-tiny.dtd">
<svg width="100%" height="100%" viewBox="0 0 88 88">
<linearGradient id="_28" gradientUnits="userSpaceOnUse" x1="32.3" y1="29.94" x2="55.47" y2="57.79">
<stop stop-color="#DEE9F3" offset="0"/>
<stop stop-color="#235487" offset="1"/>
</linearGradient>
<circle fill="url(#_28)" cx="44" cy="44" r="30.997"/>
<radialGradient id="_29" gradientUnits="userSpaceOnUse" cx="49.9" cy="24.72" r="55.32">
<stop stop-color="#FFFFFF" offset="0"/>
<stop stop-color="#A2C2DD" offset="0.53"/>
<stop stop-color="#6C83BB" offset="0.87"/>
<stop stop-color="#003D6D" offset="1"/>
</radialGradient>
<circle fill="url(#_29)" cx="44" cy="43.998" r="29.9"/>
<radialGradient id="_30" gradientUnits="userSpaceOnUse" cx="50.31" cy="27.77" r="37.63">
<stop stop-color="#E6EEF4" offset="0"/>
<stop stop-color="#C6DCC1" offset="0.08"/>
<stop stop-color="#91C06F" offset="0.21"/>
<stop stop-color="#6BAB33" offset="0.32"/>
<stop stop-color="#539E0E" offset="0.4"/>
<stop stop-color="#4A9900" offset="0.44"/>
<stop stop-color="#398419" offset="0.55"/>
<stop stop-color="#22663B" offset="0.71"/>
<stop stop-color="#135550" offset="0.85"/>
<stop stop-color="#0E4E58" offset="0.94"/>
</radialGradient>
<path fill="url(#_30)" d="M69.844,46.004l-3.31-1.418l-0.767-1.149c0,0.008-0.174-1.093-0.895-1.752c-1.08-0.986-2.127-0.554-2.557-0.778c-1.209-0.633-1.127-2.754-4.444-1.905c-2.315-0.58-3.927-1.769-5.824,0.416c-0.165,0.19-2.737-0.208-2.817,0.02c-0.498-0.384-1.033-0.824-1.207-0.537c-0.401-1.092-0.694-1.021-0.121-2.114c0.576-1.093-2.861-0.957-2.861-0.957c0.229-0.46,0.43-1.994,0.486-2.742c0.062-0.802-1.859-0.134-1.917,0.844l-1.303,0.537c-2.504,0.209-2.829-1.298-2.761-2.837c0.153-3.45,4.063-2.76,4.063-2.76s2.749-0.507,3.911,0.153c0.319,0.182,0.479,1.197,1.764,1.84c0.689,0.345-0.898-2.358-0.582-2.779c0.314-0.422,2.191-1.974,2.191-1.974l0.459-1.802c0,0,0.922-0.729,1.42-1.495c0.811-0.096,1.858-0.364,1.858-0.901c0-0.536-1.681-1.288-1.284-1.169c1.045,0.316,1.504,0.096,2.51-0.402c0.435-0.215,0.939,1.553,0.939,1.553s1.494-0.104,1.131-0.432c-0.767-0.69-1.102-1.515-2.539-1.687c-0.669-0.081-2.492-1.668-2.492-1.668c-0.621-0.354-2.069,0.307-2.069-0.153c-0.65-0.521-1.313-0.431-2.002-0.737c-0.515-0.004-0.96,0.536-0.96,0.536s1.648,1.227,0.576,1.687c-0.569,0.244-0.92,0.768-0.92,0.768s-0.578-0.703-0.806-1.035c-0.422-0.613-4.256-1.304-4.256-1.304s1.61-1.418,2.069-1.073c0.461,0.345,1.496-0.173,1.496-0.173s-0.27-0.421,0.422-0.824c0.688-0.402,0.996-0.191,1.342,0.039c0.525,0.35,1.629,1.36,2.146,1.303c0.517-0.057,0.785-0.287,0.957-0.345c0.174-0.058-1.111-0.824-1.687-0.997c-0.575-0.172-2.722-1.034-2.722-1.034s1.955-0.192,2.76,0.038c1.494,0.613,3.642,1.342,3.642,1.342c0.462,0.383,0.664,0.453,0.69,0.575c0.191,0.881,2.113,0.666,2.574,1.625c0.121,0.252,0.606,0.062,0.761-0.476c-0.724-0.723-1.687-1.395-2.257-1.803c-0.096-0.037-0.188-0.077-0.284-0.113c-0.103-0.038-0.203-0.072-0.306-0.108c-0.345-0.124-0.69-0.242-1.041-0.353c-0.112-0.036-0.227-0.069-0.34-0.104c-0.348-0.105-0.697-0.206-1.052-0.299c-0.11-0.029-0.221-0.057-0.332-0.085c-0.364-0.092-0.731-0.177-1.104-0.255C50.1,14.729,50,14.708,49.9,14.688c-0.396-0.08-0.797-0.151-1.198-0.214c-0.073-0.012-0.147-0.024-0.222-0.036c-0.453-0.068-0.912-0.127-1.373-0.174c-0.021-0.002-0.045-0.006-0.066-0.008c-1.001-0.101-2.016-0.153-3.042-0.153c-0.174,0-0.346,0.01-0.519,0.013c-0.419,0.007-0.837,0.019-1.251,0.043c-0.275,0.016-0.549,0.039-0.822,0.063c-0.35,0.03-0.698,0.067-1.045,0.109c-0.263,0.032-0.525,0.062-0.786,0.1c-0.543,0.081-1.082,0.173-1.616,0.283c-0.232,0.047-0.46,0.106-0.691,0.159c-0.354,0.082-0.708,0.167-1.057,0.261c-0.256,0.068-0.51,0.141-0.763,0.216c-0.346,0.103-0.688,0.214-1.029,0.33c-0.22,0.074-0.441,0.144-0.659,0.223c-0.508,0.186-1.009,0.385-1.504,0.597c-0.219,0.094-0.434,0.195-0.65,0.294c-0.325,0.148-0.646,0.301-0.965,0.46c-0.22,0.11-0.44,0.221-0.657,0.336c-0.37,0.197-0.734,0.403-1.094,0.614c-0.117,0.069-0.237,0.133-0.353,0.203c0.839,0.171,1.998,0.326,2.041,0.879c0.064,0.828-0.387,1.236-0.153,2.108c0.23,1.495-1.648,1.15-1.418,4.179c0.121,0.994,0.729,1.456,1.342,1.993c0.689,2.031,1.374,2.853,1.72,3.688c0.631,1.197,0.887,0.836,0.887,0.836l-1.435-3.821l0.184-0.34c0,0,1.804,2.504,2.784,3.624c0.537,0.613,0.747,1.706,0.709,2.204c-0.038,0.498,4.677,2.051,4.677,2.051s0.978-0.594,1.438-0.114c0.018,0.019,0.399,0.032,0.402,0.057c0.142,1.126,3.277,1.399,3.277,1.399c0.136,0.401,2.274,1.707,2.837,2.377c0.99,1.183,1.609,1.227,2.669,0.179c0.575,0.651,1.179,1.168,0.978,2.069c-0.067,0.31-0.125,0.629-0.25,0.942c-0.733,1.836-2.416,1.867-2.17,3.633c0.293,2.096,2.762,5.75,3.297,6.67c4.293,1.765,2.76,2.453,2.133,4.914c-0.041,1.396-1.041,2.715-1.902,4.498c-0.23,1.264-0.766,2.166-1.303,3.698c-1.15,1.38-1.457,2.146-1.227,2.529c0.514,0.856,1.698,0.384,2.605-0.689c0.686-0.81,1.38-2.3,2.861-3.091c2.58-1.377,6.612-3.426,8.633-6.363c0.357-0.826,0.279-0.781,1.084-1.854c0.422,0,2.527-1.292,2.656-1.687c0.01-0.172,0.851-1.471,0.844-1.648c-0.057-1.782,0.686-2.262,0.686-2.262l0.46-0.346l0.793-2.146v-1.688L69.844,46.004z M48.887,31.99c-0.438,0.488-0.178,0.655-0.178,0.655c0.34-0.178,1.829-0.072,2.355,0.689c0.528,0.763,1.668,0.206,1.578-0.05C52.552,33.029,49.322,31.503,48.887,31.99z M53.686,34.332c0.308,0.038,1.381,0.077,1.381,0.077s1.342-0.077,0.229-0.575S53.416,34.299,53.686,34.332z"/>
</svg>