<?xml version="1.0" encoding="UTF-8"?>
<!DOCTYPE svg PUBLIC "-//W3C//DTD SVG 1.1 Tiny//EN" "http://www.w3.org/Graphics/SVG/1.1/DTD/svg11-tiny.dtd">
<svg baseProfile="tiny" height="29px" version="1.1" viewBox="0 0 42 29" width="42px" x="0px" xmlns="http://www.w3.org/2000/svg" xmlns:xlink="http://www.w3.org/1999/xlink" y="0px">
<rect fill="none" height="29" width="42" x="0.028" y="0.041"/>
<g>
<g>
<linearGradient gradientTransform="matrix(1 0 0 -1 0 28)" gradientUnits="userSpaceOnUse" id="SVGID_1_" x1="27.4775" x2="31.0003" y1="10.5884" y2="6.4907">
<stop offset="0" style="stop-color:#AABBD7"/>
<stop offset="0.2634" style="stop-color:#92A5CC"/>
<stop offset="0.7135" style="stop-color:#6C83BB"/>
<stop offset="0.7571" style="stop-color:#637DB5"/>
<stop offset="0.8268" style="stop-color:#4C6EA4"/>
<stop offset="0.9134" style="stop-color:#265689"/>
<stop offset="0.9888" style="stop-color:#003D6D"/>
<stop offset="1" style="stop-color:#003D6D"/>
</linearGradient>
<path d="M20.589,3.549c0.003-0.001,0.008,0.01,0.01,0.009c-2.329,0.934-3.74,3.268-3.777,6.239l0.072,6.883    c-0.056,4.608,2.808,8.628,6.384,8.954c0.825,0.075,1.645-0.002,2.433-0.23c2.648-0.646,6.203-2.104,6.362-7.275l0.183-7.394    c-0.063-3.079-1.289-5.531-3.449-6.917C26.535,2.363,23.542,2.266,20.589,3.549z" fill="url(#SVGID_1_)"/>
<g>
<g>
<linearGradient gradientTransform="matrix(1 0 0 -1 0 28)" gradientUnits="userSpaceOnUse" id="SVGID_2_" x1="26.3213" x2="26.4581" y1="25.7051" y2="2.9632">
<stop offset="0" style="stop-color:#FFFFFF"/>
<stop offset="0.0804" style="stop-color:#E4EDF5"/>
<stop offset="0.2367" style="stop-color:#B4CEE4"/>
<stop offset="0.3146" style="stop-color:#A2C2DD"/>
<stop offset="0.4547" style="stop-color:#8EABD1"/>
<stop offset="0.6573" style="stop-color:#6C83BB"/>
<stop offset="0.7036" style="stop-color:#637DB5"/>
<stop offset="0.7776" style="stop-color:#4C6EA4"/>
<stop offset="0.8695" style="stop-color:#265689"/>
<stop offset="0.9494" style="stop-color:#003D6D"/>
<stop offset="1" style="stop-color:#003D6D"/>
</linearGradient>
<path d="M20.686,3.768c5.592-2.433,11.194,0.327,11.331,6.962l-0.182,7.392      c-0.149,4.824-3.279,6.462-6.813,7.194L20.686,3.768z" fill="url(#SVGID_2_)"/>
<linearGradient gradientTransform="matrix(1 0 0 -1 0 28)" gradientUnits="userSpaceOnUse" id="SVGID_3_" x1="15.2729" x2="24.9069" y1="30.7822" y2="11.1211">
<stop offset="0" style="stop-color:#FFFFFF"/>
<stop offset="0.1745" style="stop-color:#F8FBFD"/>
<stop offset="0.4209" style="stop-color:#E6EFF6"/>
<stop offset="0.7103" style="stop-color:#C8DBEB"/>
<stop offset="1" style="stop-color:#A2C2DD"/>
</linearGradient>
<path d="M23.705,3.463c4.184,0.519,6.547,3.948,6.447,9.02l-0.209,6.577      c-0.052,4.282-3.22,6.649-6.646,6.338c-3.615-0.33-6.22-4.439-6.168-8.722L17.06,9.8C17.111,5.521,20.102,2.891,23.705,3.463z" fill="url(#SVGID_3_)"/>
<path d="M27.711,11.618l-3.295,3.074l3.276,4.427l-4.817,4.485l0.014-7.488l-2.334,2.174l-0.848-1.213      l2.95-2.747l-2.933-3.961l0.852-0.861l2.32,3.131l0.026-7.483L27.711,11.618z M24.131,8.796      c-0.004,1.459-0.009,2.738-0.017,4.171c0.83-0.768,1.604-1.494,1.838-1.711C25.521,10.674,24.912,9.854,24.131,8.796       M25.934,18.758c-0.231-0.315-1.003-1.357-1.826-2.467c-0.002,1.435-0.002,2.715-0.006,4.171      C24.889,19.73,25.499,19.159,25.934,18.758" fill="#FFFFFF"/>
</g>
</g>
</g>
</g>
<g>
<path d="M20.126,7.964l2.046-2.046l-0.029-0.002l3.105-3.104   c-0.864-0.063-1.761,0.002-2.674,0.205l-3.73,3.731l-0.933,0.934h-0.002l-1.022,1.022C16.828,9.097,16.788,9.5,16.783,9.92   l0.014,1.372L20.126,7.964L20.126,7.964z" fill="#FFFFFF" fill-opacity="0.8"/>
<path d="M22.182,10.79l2.045-2.046l-0.028-0.002l4.703-4.702   c-0.046-0.031-0.087-0.069-0.134-0.1c-0.475-0.304-0.986-0.534-1.516-0.719l-6.354,6.353l-0.932,0.934h-0.002l-3.143,3.144   l0.026,2.472l5.332-5.333H22.182z" fill="#FFFFFF" fill-opacity="0.8"/>
<path d="M23.555,11.888l-0.934,0.934h-0.002l-5.705,5.737l0.173,0.592   c0.096,0.458,0.222,0.901,0.373,1.33l7.376-7.377h0.001l2.046-2.046l-0.029-0.002l4.376-4.375   c-0.277-0.538-0.608-1.032-0.995-1.474L23.555,11.888z" fill="#FFFFFF" fill-opacity="0.8"/>
<path d="M18.162,22.115l0.673,0.962c0.131,0.174,0.267,0.342,0.408,0.502l12.897-12.954   c-0.033-0.762-0.08-1.514-0.254-2.188L18.162,22.115z" fill="#FFFFFF" fill-opacity="0.8"/>
<path d="M26.553,18.911l-0.934,0.934h-0.002l-4.968,4.97c0.538,0.355,1.114,0.617,1.72,0.778   l5.465-5.466h0.001l2.046-2.046l-0.029-0.002l2.242-2.241l0.063-2.53L26.553,18.911z" fill="#FFFFFF" fill-opacity="0.8"/>
<path d="M31.352,21.462c0.386-0.855,0.631-1.892,0.678-3.146l-4.021,4.021l-0.933,0.934h-0.002   l-2.465,2.465c0.359-0.042,0.714-0.108,1.063-0.209c0.803-0.196,1.69-0.469,2.541-0.896l1.077-1.078h0.001l2.031-2.031   c0.003-0.006,0.006-0.01,0.008-0.015l-0.021-0.002L31.352,21.462z" fill="#FFFFFF" fill-opacity="0.8"/>
</g>
<path d="M20.607,3.582c0.002-0.001,0.008,0.01,0.01,0.009c-2.33,0.934-3.741,3.268-3.778,6.239  l0.072,6.883c-0.056,4.608,2.807,8.628,6.383,8.954c0.826,0.075,1.645-0.002,2.434-0.23c2.648-0.646,6.203-2.104,6.361-7.275  l0.184-7.394c-0.064-3.079-1.289-5.531-3.449-6.917C26.553,2.396,23.561,2.299,20.607,3.582z" fill="#FFFFFF" fill-opacity="0.4" stroke-opacity="0.4"/>
<g>
<g>
<path d="M6.886,16.868c-1.44,0-3.413,0.342-3.913,3.295L2.898,20.61c0,0,3.318,0,3.711,0    c0.118,0.213,0.296,0.533,0.409,0.738c-0.113,0.203-0.291,0.523-0.409,0.736c-0.393,0-3.711,0-3.711,0l0.074,0.445    c0.5,2.955,2.473,3.295,3.913,3.295c1.135,0,2.146-0.949,2.959-1.717c0.439-0.414,0.854-0.805,1.072-0.805h10.16l0.111-0.125    c0.221-0.238,0.725-0.895,0.736-1.814v-0.031c-0.01-0.922-0.516-1.576-0.736-1.816l-0.111-0.125h-10.16    c-0.219,0-0.633-0.389-1.072-0.803C9.032,17.821,8.021,16.868,6.886,16.868z" fill="#FFFFFF" fill-opacity="0.5" stroke-opacity="0.5"/>
<linearGradient gradientTransform="matrix(0.5 0 0 -0.5 -277.8506 -387.3223)" gradientUnits="userSpaceOnUse" id="SVGID_4_" x1="568.0811" x2="589.9891" y1="-803.5752" y2="-829.931">
<stop offset="0" style="stop-color:#E6EDF3"/>
<stop offset="0.1196" style="stop-color:#CABAD7"/>
<stop offset="0.2719" style="stop-color:#AB7EB8"/>
<stop offset="0.3844" style="stop-color:#9759A4"/>
<stop offset="0.4438" style="stop-color:#8F4B9C"/>
<stop offset="0.5679" style="stop-color:#73357C"/>
<stop offset="0.7242" style="stop-color:#551D5A"/>
<stop offset="0.8533" style="stop-color:#430E45"/>
<stop offset="0.9382" style="stop-color:#3C093D"/>
<stop offset="1" style="stop-color:#3C093D"/>
</linearGradient>
<path d="M21.544,21.347c0-0.004,0.002-0.008,0.002-0.01h-0.002c-0.01-0.803-0.469-1.381-0.635-1.564    c-0.215,0-9.99,0-9.99,0c-0.373,0-0.777-0.381-1.338-0.906c-0.76-0.719-1.713-1.615-2.697-1.615c-1.597,0-3.11,0.469-3.534,2.977    c0.602,0,3.483,0,3.483,0l0.619,1.119l-0.619,1.119c0,0-2.882,0-3.483,0c0.426,2.508,1.938,2.977,3.534,2.977    c0.984,0,1.936-0.895,2.697-1.613c0.561-0.527,0.965-0.908,1.338-0.908c0,0,9.775,0,9.99,0c0.168-0.184,0.627-0.762,0.635-1.563    h0.002C21.546,21.354,21.544,21.351,21.544,21.347z" fill="url(#SVGID_4_)"/>
</g>
</g>
</svg>
