<?xml version="1.0" encoding="UTF-8"?>
<!DOCTYPE svg PUBLIC "-//W3C//DTD SVG 1.1 Tiny//EN" "http://www.w3.org/Graphics/SVG/1.1/DTD/svg11-tiny.dtd">
<svg width="100%" height="100%" viewBox="0 0 88 88">
<linearGradient id="_16" gradientUnits="userSpaceOnUse" x1="44.91" y1="44.51" x2="59.28" y2="72.81">
<stop stop-color="#A2C2DD" offset="0.1"/>
<stop stop-color="#6C83BB" offset="0.71"/>
<stop stop-color="#003D6D" offset="0.99"/>
</linearGradient>
<path fill="url(#_16)" d="M36.199,20.941l-5.911-1.109L10.91,25.98l2.495,38.428l36.457,12.965l20.507-12.196l0.062-5.013 l6.271-7.8l0.706-25.813l-37.142-7.338L36.199,20.941z"/>
<linearGradient id="_17" gradientUnits="userSpaceOnUse" x1="42.55" y1="28.89" x2="7.22" y2="96.5">
<stop stop-color="#FFFFFF" offset="0"/>
<stop stop-color="#A2C2DD" offset="0.35"/>
<stop stop-color="#6C83BB" offset="0.7"/>
<stop stop-color="#003D6D" offset="1"/>
</linearGradient>
<polygon fill="url(#_17)" points="49.787,76.604 14.074,63.903 11.645,26.482 49.836,36.468 "/>
<linearGradient id="_18" gradientUnits="userSpaceOnUse" x1="32.21" y1="39.22" x2="29.21" y2="62.97">
<stop stop-color="#FFFFFF" offset="0.05"/>
<stop stop-color="#A2C2DD" offset="1"/>
</linearGradient>
<polygon fill="url(#_18)" points="45.65,65.411 17.408,56.626 16.246,33.048 45.375,41.159 "/>
<linearGradient id="_19" gradientUnits="userSpaceOnUse" x1="14.58" y1="19.76" x2="125.59" y2="36.01">
<stop stop-color="#FFFFFF" offset="0"/>
<stop stop-color="#A2C2DD" offset="0.35"/>
<stop stop-color="#6C83BB" offset="0.7"/>
<stop stop-color="#003D6D" offset="1"/>
</linearGradient>
<polygon fill="url(#_19)" points="34.389,22.472 40.341,19.942 77.028,27.23 67.628,31.118 "/>
<linearGradient id="_20" gradientUnits="userSpaceOnUse" x1="0.39" y1="21.16" x2="66.4" y2="33.45">
<stop stop-color="#FFFFFF" offset="0.15"/>
<stop stop-color="#A2C2DD" offset="1"/>
</linearGradient>
<polygon fill="url(#_20)" points="70.127,28.019 49.613,36.504 11.645,26.482 30.332,20.553 "/>
<linearGradient id="_21" gradientUnits="userSpaceOnUse" x1="75.86" y1="20.34" x2="69.61" y2="58.84">
<stop stop-color="#FFFFFF" offset="0"/>
<stop stop-color="#A2C2DD" offset="0.35"/>
<stop stop-color="#6C83BB" offset="0.7"/>
<stop stop-color="#003D6D" offset="1"/>
</linearGradient>
<polygon fill="url(#_21)" points="68.98,30.027 76.691,27.124 76.008,52.109 69.145,60.646 "/>
<linearGradient id="_22" gradientUnits="userSpaceOnUse" x1="59.64" y1="20.53" x2="60.32" y2="88.25">
<stop stop-color="#FFFFFF" offset="0"/>
<stop stop-color="#A2C2DD" offset="0.35"/>
<stop stop-color="#6C83BB" offset="0.7"/>
<stop stop-color="#003D6D" offset="1"/>
</linearGradient>
<polygon fill="url(#_22)" points="70.127,28.019 49.777,36.468 49.787,76.604 69.674,64.775 "/>
<linearGradient id="_23" gradientUnits="userSpaceOnUse" x1="28.72" y1="26.57" x2="49.3" y2="27.9">
<stop stop-color="#E6EEF4" offset="0"/>
<stop stop-color="#9646AC" offset="0.44"/>
<stop stop-color="#3D013F" offset="0.94"/>
</linearGradient>
<path fill="url(#_23)" d="M31.703,24.352c0,0-0.37,0.719-0.38,1.598c1.259,4.07,13.432,5.542,16.705,1.62 c0.338-0.983-0.42-2.32-0.42-2.32L31.703,24.352z"/>
<radialGradient id="_24" gradientUnits="userSpaceOnUse" cx="31.31" cy="24.03" r="12.14">
<stop stop-color="#DEDEED" offset="0"/>
<stop stop-color="#9646AC" offset="1"/>
</radialGradient>
<path fill="url(#_24)" d="M31.705,24.357c0.172-1.113,3.893-2.021,8.311-1.698c4.418,0.372,7.861,1.782,7.689,3.098 c-0.172,1.311-4.738,2.627-9.156,2.022C34.13,27.225,31.533,25.467,31.705,24.357z"/>
<linearGradient id="_25" gradientUnits="userSpaceOnUse" x1="32.36" y1="17.8" x2="36.93" y2="15.61">
<stop stop-color="#E6EEF4" offset="0"/>
<stop stop-color="#9646AC" offset="0.44"/>
<stop stop-color="#3D013F" offset="0.94"/>
</linearGradient>
<path fill="url(#_25)" d="M32.255,7.052l7.712,16.994c0.194,0.99-0.871,1.77-1.72,0.759L28.856,9.323L32.255,7.052z"/>
<radialGradient id="_26" gradientUnits="userSpaceOnUse" cx="28.78" cy="9.38" r="3.58">
<stop stop-color="#DEDEED" offset="0"/>
<stop stop-color="#9646AC" offset="1"/>
</radialGradient>
<path fill="url(#_26)" d="M28.979,9.506c0.463,0.547,1.583,0.459,2.483-0.223c0.885-0.706,1.284-1.741,0.737-2.257 c-0.485-0.534-1.589-0.421-2.459,0.289C28.87,8.005,28.519,8.968,28.979,9.506z"/>
<linearGradient id="_27" gradientUnits="userSpaceOnUse" x1="44.86" y1="12.61" x2="52.61" y2="24.03">
<stop stop-color="#E6EEF4" offset="0"/>
<stop stop-color="#9646AC" offset="0.44"/>
<stop stop-color="#3D013F" offset="0.94"/>
</linearGradient>
<path fill="url(#_27)" d="M57.105,8.69L38.522,23.499c-0.797,1.014-0.031,2.515,1.513,1.861l19.516-12.234L57.105,8.69z"/>
<path fill="#5E1B67" d="M58.123,12.77L39.813,24.286c-0.807,0.345-1.192,0.6-1.604-0.053c-0.043,1.074,0.692,1.729,1.939,1.201 l19.516-12.23L58.123,12.77z"/>
<radialGradient id="_28" gradientUnits="userSpaceOnUse" cx="55.59" cy="9.69" r="4.55">
<stop stop-color="#DEDEED" offset="0"/>
<stop stop-color="#9646AC" offset="1"/>
</radialGradient>
<path fill="url(#_28)" d="M59.425,13.351c-0.88,0.384-2.09-0.366-2.702-1.679c-0.607-1.308-0.369-2.66,0.527-3.029 c0.896-0.37,2.098,0.371,2.691,1.652C60.534,11.581,60.307,12.949,59.425,13.351z"/>
<polygon fill="#496DA2" points="19.35,55.351 18.558,33.569 16.191,32.895 17.297,56.589 "/>
<polygon fill="#DEE9F3" points="17.297,56.589 19.35,55.351 45.65,63.405 45.65,65.411 "/>
<linearGradient id="_29" gradientUnits="userSpaceOnUse" x1="42.26" y1="65.78" x2="42.75" y2="70.52">
<stop stop-color="#E6EEF4" offset="0"/>
<stop stop-color="#9646AC" offset="0.44"/>
<stop stop-color="#3D013F" offset="0.94"/>
</linearGradient>
<path fill="url(#_29)" d="M45.749,69.039c0.5,1.768-0.494,3.277-2.224,3.378c-1.729,0.1-3.535-1.249-4.038-3.007 c-0.498-1.764,0.499-3.277,2.229-3.376C43.445,65.934,45.252,67.281,45.749,69.039z"/>
<linearGradient id="_30" gradientUnits="userSpaceOnUse" x1="41.51" y1="66.77" x2="42.29" y2="71.51">
<stop stop-color="#DEDEED" offset="0"/>
<stop stop-color="#9646AC" offset="1"/>
</linearGradient>
<path fill="url(#_30)" d="M44.407,69.548c0.406,1.464-0.345,2.723-1.68,2.81c-1.328,0.084-2.737-1.04-3.142-2.504 c-0.404-1.467,0.267-2.513,1.6-2.597S44.006,68.077,44.407,69.548z"/>
</svg>