<?xml version="1.0" encoding="UTF-8"?>
<!DOCTYPE svg PUBLIC "-//W3C//DTD SVG 1.1 Tiny//EN" "http://www.w3.org/Graphics/SVG/1.1/DTD/svg11-tiny.dtd">
<svg width="96" height="96" viewBox="0 0 96 96">
<linearGradient id="_8" gradientUnits="userSpaceOnUse" x1="60.03" y1="59.88" x2="35.55" y2="35.7">
<stop stop-color="#CADCEC" offset="0"/>
<stop stop-color="#87A8CB" offset="1"/>
</linearGradient>
<circle cx="48" cy="48.001" fill="url(#_8)" r="17.492"/>
<linearGradient id="_9" gradientUnits="userSpaceOnUse" x1="57.47" y1="57.69" x2="45.96" y2="46.58">
<stop stop-color="#FFFFFF" offset="0.05"/>
<stop stop-color="#A2C2DD" offset="1"/>
</linearGradient>
<path d="M53.505,61.896 c1.975-0.166,7.653-5.515,8.023-8.024c0.081-5.062-4.691-7.695-7.571-7.777c-5.761-0.124-8.888,5.39-8.064,9.3 C46.427,59.427,50.613,62.024,53.505,61.896z" fill="url(#_9)" fill-opacity="0.3" />
<path d="M64.031,47.997" fill="none" stroke="#009966"/>
<path d="M63.449,48.299" fill="none" stroke="#009966"/>
<linearGradient id="_10" gradientUnits="userSpaceOnUse" x1="56.31" y1="61.91" x2="40.62" y2="35.66">
<stop stop-color="#FFFFFF" offset="0"/>
<stop stop-color="#DEE9F3" offset="0.32"/>
<stop stop-color="#CADCEC" offset="0.73"/>
<stop stop-color="#DEE9F3" offset="1"/>
</linearGradient>
<path d="M31.717,47.999c0,8.982,7.304,16.285,16.279,16.285 c8.977,0,16.287-7.303,16.287-16.285c0-8.978-7.311-16.281-16.287-16.281C39.021,31.718,31.717,39.021,31.717,47.999z" fill="url(#_10)" />
<linearGradient id="_11" gradientUnits="userSpaceOnUse" x1="54.99" y1="62.13" x2="48.1" y2="48.19">
<stop stop-color="#FFFFFF" offset="0.05"/>
<stop stop-color="#A2C2DD" offset="1"/>
</linearGradient>
<path d="M41.335,33.708c7.884-3.675,17.284-0.254,20.954,7.626l0.469-0.22 c-3.793-8.137-13.501-11.667-21.642-7.873c-8.136,3.794-11.669,13.5-7.874,21.641l0.469-0.223 C30.034,46.783,33.456,37.382,41.335,33.708z" fill="url(#_11)"/>
<path d="M62.76,41.117l-0.469,0.217c3.677,7.879,0.252,17.284-7.624,20.955 c-7.881,3.675-17.284,0.254-20.956-7.627l-0.469,0.22c3.796,8.138,13.503,11.672,21.641,7.88 C63.019,58.963,66.553,49.255,62.76,41.117z" fill="url(#_11)"/>
<polygon fill="#CADCEC" points="41.766,40.312 41.766,55.69 59.113,47.878 "/>
<polygon fill="#A2C2DD" points="41.766,40.312 42.542,41.387 58.19,48.291 59.113,47.878 "/>
<polygon fill="#A2C2DD" points="41.779,55.686 42.542,55.339 42.542,41.387 41.766,40.312 "/>
<linearGradient id="_13" gradientUnits="userSpaceOnUse" x1="36.38" y1="40.33" x2="50.47" y2="32.6">
<stop stop-color="#FFFFFF" offset="0"/>
<stop stop-color="#DEE9F3" offset="1"/>
</linearGradient>
<path d="M49.453,34.584 c-0.329-0.988-2.181-1.894-2.181-1.894c-7.201-0.164-11.315,5.473-11.315,5.473c-0.782,1.399-0.247,3.745-0.247,3.745l1.028,1.934 C36.738,43.842,42.54,35.859,49.453,34.584z" fill="url(#_13)" fill-opacity="0.78" />
<linearGradient id="_14" gradientUnits="userSpaceOnUse" x1="34.59" y1="42.33" x2="33.48" y2="50.62">
<stop stop-color="#FFFFFF" offset="0"/>
<stop stop-color="#DEE9F3" offset="1"/>
</linearGradient>
<path d="M34.229,42.279l-0.618,0.741 c-0.659,1.646-1.111,4.856-0.493,5.144c1.233,1.028,1.811-2.222,1.811-2.222l0.452-0.535L34.229,42.279z" fill="url(#_14)" fill-opacity="0.78" />
</svg>