<?xml version="1.0" encoding="UTF-8"?>
<!DOCTYPE svg PUBLIC "-//W3C//DTD SVG 1.1 Tiny//EN" "http://www.w3.org/Graphics/SVG/1.1/DTD/svg11-tiny.dtd">
<svg width="84" height="72" viewBox="0 0 84 72">
<linearGradient id="_16" gradientUnits="userSpaceOnUse" x1="49.91" y1="36.21" x2="62.75" y2="61.51">
<stop stop-color="#AABBD7" offset="0"/>
<stop stop-color="#92A5CC" offset="0.26"/>
<stop stop-color="#6C83BB" offset="0.71"/>
<stop stop-color="#637DB5" offset="0.76"/>
<stop stop-color="#4C6EA4" offset="0.83"/>
<stop stop-color="#265689" offset="0.91"/>
<stop stop-color="#003D6D" offset="0.99"/>
</linearGradient>
<path d="M35.463,11.547c0,0-2.867,9.746-3.059,10.389c-0.645-0.111-7.797-1.338-7.797-1.338l-6.805,2.482 l6.35,27.37l37.76,11.296l13.281-40.703c0,0-17.145-2.582-17.826-2.687c0.021-0.628,0.211-5.519,0.211-5.519l-17.801-2.608 L35.463,11.547z" fill="url(#_16)"/>
<linearGradient id="_17" gradientUnits="userSpaceOnUse" x1="24.68" y1="36.45" x2="70.86" y2="36.45">
<stop stop-color="#FFFFFF" offset="0"/>
<stop stop-color="#F4F8FB" offset="0.19"/>
<stop stop-color="#D6E4F0" offset="0.52"/>
<stop stop-color="#A7C5DF" offset="0.96"/>
<stop stop-color="#A2C2DD" offset="1"/>
</linearGradient>
<polygon fill="url(#_17)" points="24.676,49.865 35.828,11.997 53.969,14.906 53.838,20.524 70.855,23.379 61.584,60.896 "/>
<linearGradient id="_18" gradientUnits="userSpaceOnUse" x1="50.2" y1="49.06" x2="16.48" y2="20.5">
<stop stop-color="#BFD5E8" offset="0"/>
<stop stop-color="#B4CEE4" offset="0.47"/>
<stop stop-color="#A2C2DD" offset="1"/>
</linearGradient>
<polygon fill="url(#_18)" points="61.586,60.539 24.496,49.848 18.379,23.424 55.303,30.824 "/>
<linearGradient id="_19" gradientUnits="userSpaceOnUse" x1="36.29" y1="32.77" x2="42.37" y2="20.62">
<stop stop-color="#FFFFFF" offset="0"/>
<stop stop-color="#F9FBFD" offset="0.18"/>
<stop stop-color="#E8F0F7" offset="0.41"/>
<stop stop-color="#CCDDEC" offset="0.68"/>
<stop stop-color="#A5C4DE" offset="0.98"/>
<stop stop-color="#A2C2DD" offset="1"/>
</linearGradient>
<polygon fill="url(#_19)" points="61.547,27.424 24.727,21.105 18.379,23.424 55.398,30.967 "/>
<linearGradient id="_20" gradientUnits="userSpaceOnUse" x1="45.54" y1="15.24" x2="47.67" y2="9.44">
<stop stop-color="#FFFFFF" offset="0"/>
<stop stop-color="#E6EEF6" offset="0.31"/>
<stop stop-color="#A5C4DE" offset="0.97"/>
<stop stop-color="#A2C2DD" offset="1"/>
</linearGradient>
<polygon fill="url(#_20)" points="57.115,13.311 39.834,10.776 35.863,12.014 53.969,14.906 "/>
<linearGradient id="_21" gradientUnits="userSpaceOnUse" x1="63.22" y1="23.63" x2="65.41" y2="17.7">
<stop stop-color="#FFFFFF" offset="0"/>
<stop stop-color="#E6EEF6" offset="0.31"/>
<stop stop-color="#A5C4DE" offset="0.97"/>
<stop stop-color="#A2C2DD" offset="1"/>
</linearGradient>
<polygon fill="url(#_21)" points="74.549,21.463 56.904,18.801 53.838,20.524 70.855,23.379 "/>
<linearGradient id="_22" gradientUnits="userSpaceOnUse" x1="70.65" y1="41.15" x2="55.77" y2="46.31">
<stop stop-color="#A2C2DD" offset="0"/>
<stop stop-color="#8CA9CF" offset="0.26"/>
<stop stop-color="#6C83BB" offset="0.67"/>
<stop stop-color="#637DB5" offset="0.72"/>
<stop stop-color="#4C6EA4" offset="0.79"/>
<stop stop-color="#265689" offset="0.88"/>
<stop stop-color="#003D6D" offset="0.96"/>
</linearGradient>
<polygon fill="url(#_22)" points="61.547,27.424 61.588,61.182 55.305,31.018 "/>
<linearGradient id="_23" gradientUnits="userSpaceOnUse" x1="52.52" y1="26.36" x2="72.41" y2="45.35">
<stop stop-color="#A2C2DD" offset="0"/>
<stop stop-color="#8CA9CF" offset="0.26"/>
<stop stop-color="#6C83BB" offset="0.67"/>
<stop stop-color="#637DB5" offset="0.72"/>
<stop stop-color="#4C6EA4" offset="0.79"/>
<stop stop-color="#265689" offset="0.88"/>
<stop stop-color="#003D6D" offset="0.96"/>
</linearGradient>
<polygon fill="url(#_23)" points="74.549,21.463 61.6,60.951 70.855,23.379 "/>
<linearGradient id="_24" gradientUnits="userSpaceOnUse" x1="33.2" y1="5.16" x2="76.92" y2="28.24">
<stop stop-color="#FFFFFF" offset="0"/>
<stop stop-color="#E4EDF5" offset="0.1"/>
<stop stop-color="#B4CEE4" offset="0.28"/>
<stop stop-color="#A2C2DD" offset="0.38"/>
<stop stop-color="#8CA9CF" offset="0.5"/>
<stop stop-color="#6C83BB" offset="0.71"/>
<stop stop-color="#637DB5" offset="0.76"/>
<stop stop-color="#4C6EA4" offset="0.83"/>
<stop stop-color="#265689" offset="0.91"/>
<stop stop-color="#003D6D" offset="0.99"/>
</linearGradient>
<polygon fill="url(#_24)" points="53.969,14.906 53.838,20.524 56.904,18.801 57.115,13.311 "/>
<linearGradient id="_25" gradientUnits="userSpaceOnUse" x1="16.73" y1="58.54" x2="51.52" y2="41.22">
<stop stop-color="#FFFFFF" offset="0"/>
<stop stop-color="#F4F8FB" offset="0.19"/>
<stop stop-color="#D6E4F0" offset="0.52"/>
<stop stop-color="#A7C5DF" offset="0.96"/>
<stop stop-color="#A2C2DD" offset="1"/>
</linearGradient>
<polygon fill="url(#_25)" points="24.676,49.865 31.66,26.139 55.355,31.01 61.588,61.182 "/>
<linearGradient id="_26" gradientUnits="userSpaceOnUse" x1="27.34" y1="29.57" x2="52.07" y2="53.57">
<stop stop-color="#E6EEF4" offset="0"/>
<stop stop-color="#D7A6A9" offset="0.15"/>
<stop stop-color="#CA6C6D" offset="0.29"/>
<stop stop-color="#C34848" offset="0.39"/>
<stop stop-color="#C03A3A" offset="0.44"/>
<stop stop-color="#9E372D" offset="0.53"/>
<stop stop-color="#6F331B" offset="0.66"/>
<stop stop-color="#4D300D" offset="0.78"/>
<stop stop-color="#382E05" offset="0.87"/>
<stop stop-color="#302D02" offset="0.94"/>
</linearGradient>
<path d="M41.457,47.793l-1.648-7.11l-1.807,0.737l-0.391-1.686c1.195-0.327,2.076-0.865,2.646-1.609 l0.719,0.161l2.299,9.913L41.457,47.793z" fill="url(#_26)"/>
<linearGradient id="_27" gradientUnits="userSpaceOnUse" x1="20.23" y1="34.22" x2="48.74" y2="61.14">
<stop stop-color="#E6EEF4" offset="0"/>
<stop stop-color="#D7A6A9" offset="0.15"/>
<stop stop-color="#CA6C6D" offset="0.29"/>
<stop stop-color="#C34848" offset="0.39"/>
<stop stop-color="#C03A3A" offset="0.44"/>
<stop stop-color="#9E372D" offset="0.53"/>
<stop stop-color="#6F331B" offset="0.66"/>
<stop stop-color="#4D300D" offset="0.78"/>
<stop stop-color="#382E05" offset="0.87"/>
<stop stop-color="#302D02" offset="0.94"/>
</linearGradient>
<polygon fill="url(#_27)" points="31.664,47.024 33.666,45.182 32.969,44.244 31.477,45.457 29.813,43.309 29.305,43.937 "/>
<path d="M32.771,39.281l-1.367-4.609l15.309,3.465l2.9,13.08l-11.521-2.75 c-0.002,0.513-0.057,0.988-0.16,1.425l14.313,3.954l-4.045-19.941l-19.697-3.847l2.588,8.407 C31.193,38.5,32.33,39.002,32.771,39.281z" fill="url(#_26)"/>
<linearGradient id="_29" gradientUnits="userSpaceOnUse" x1="22.47" y1="36.34" x2="45.26" y2="58.46">
<stop stop-color="#E6EEF4" offset="0"/>
<stop stop-color="#D7A6A9" offset="0.15"/>
<stop stop-color="#CA6C6D" offset="0.29"/>
<stop stop-color="#C34848" offset="0.39"/>
<stop stop-color="#C03A3A" offset="0.44"/>
<stop stop-color="#9E372D" offset="0.53"/>
<stop stop-color="#6F331B" offset="0.66"/>
<stop stop-color="#4D300D" offset="0.78"/>
<stop stop-color="#382E05" offset="0.87"/>
<stop stop-color="#302D02" offset="0.94"/>
</linearGradient>
<path d="M31.959,40.389C28.971,39.5,26.467,40.832,26.605,44c0.141,3.168,2.416,6.01,5.436,6.785 c2.842,0.731,5.338-0.729,5.197-3.898C37.1,43.719,34.965,41.282,31.959,40.389z M32.021,49.541 c-2.256-0.623-4.178-2.601-4.287-5.091c-0.107-2.491,1.648-3.772,3.928-2.86c2.275,0.91,4.178,2.601,4.287,5.09 C36.059,49.172,34.389,50.195,32.021,49.541z" fill="url(#_29)"/>
<radialGradient id="_30" gradientUnits="userSpaceOnUse" cx="15.2" cy="46.61" r="22.04">
<stop stop-color="#DCE8E4" offset="0"/>
<stop stop-color="#43910A" offset="1"/>
</radialGradient>
<path d="M18.461,42.46c-5.336,0-9.656,4.322-9.656,9.655c0,0.669,0.068,1.326,0.199,1.96 c0,0,1.512,0.32,1.92,0.442c-0.533,1.002-0.438,2.401-0.133,3.174c0.965,2.47,3.639,4.08,7.67,4.08 c5.332,0,9.656-4.324,9.656-9.655C28.117,46.782,23.793,42.46,18.461,42.46z" fill="url(#_30)"/>
<circle cx="15.197" cy="50.974" fill="#17594C" r="1.525"/>
<path d="M10.398,50.273c-0.195,0.823-0.895,1.39-1.566,1.267c-0.102-0.565,0.279-2.345,0.701-2.987 C10.203,48.678,10.59,49.444,10.398,50.273z" fill="#17594C"/>
<path d="M8.992,54.075l1.832,0.375c0,0-1.166,3.538,1.238,4.509c4.875,1.97,10.43-3.117,10.43-3.117L8.992,54.075z " fill="#17594C"/>
</svg>