<?xml version="1.0" encoding="UTF-8"?>
<!DOCTYPE svg PUBLIC "-//W3C//DTD SVG 1.1 Tiny//EN" "http://www.w3.org/Graphics/SVG/1.1/DTD/svg11-tiny.dtd">
<svg width="28" height="32" viewBox="-0.534 -0.017 28 32">
<linearGradient id="_4" gradientUnits="userSpaceOnUse" x1="14.74" y1="31.98" x2="14.74" y2="5.73">
<stop stop-color="#F2F4F4" offset="0"/>
<stop stop-color="#D3D8DD" offset="0.63"/>
</linearGradient>
<path fill="url(#_4)" d="M27.466,5.735h-9.828c-0.203,0.375-0.402,0.76-0.598,1.16l-1.387,2.838L7.535,26.215 c-2.1,4.076-3.195,5.75-5.525,5.768h25.457V5.735z"/>
<linearGradient id="_5" gradientUnits="userSpaceOnUse" x1="22.48" y1="0.86" x2="22.48" y2="6.11">
<stop stop-color="#FFFFFF" offset="0"/>
<stop stop-color="#E8EDED" offset="1"/>
</linearGradient>
<path fill="url(#_5)" d="M27.466,5.983h-9.963c0.887-1.688,1.857-3.111,3.395-4c1.096-0.633,2.477-0.998,4.318-0.998h2.25 V5.983z"/>
<linearGradient id="_6" gradientUnits="userSpaceOnUse" x1="19.05" y1="4.62" x2="19.05" y2="13.95">
<stop stop-color="#E8EDED" offset="0.27"/>
<stop stop-color="#D9DEE2" offset="0.82"/>
<stop stop-color="#D3D8DD" offset="1"/>
</linearGradient>
<path fill="url(#_6)" d="M17.041,6.895c0.152-0.313,0.307-0.615,0.463-0.912h6.906c-2.75,0-5.25,1.25-6.625,4.25 c-0.111,0.245-0.75,1.625-1.25,3.5h-2.846L17.041,6.895z"/>
<path fill-opacity="0.4" fill="#60686D" d="M17.041,6.895c1.023-2.086,2.049-3.866,3.857-4.912c1.096-0.633,2.477-0.998,4.318-0.998h2.25v-1h-2.25 c-2.795,0-4.648,0.772-6.027,1.998c-1.314,1.167-2.199,2.745-3.047,4.471L6.646,25.758c-2.215,4.301-3.047,5.229-4.68,5.227h-0.5 v0.998h0.543c2.33-0.018,3.426-1.691,5.525-5.768L17.041,6.895z"/>
</svg>