<?xml version="1.0" encoding="UTF-8"?>
<!DOCTYPE svg PUBLIC "-//W3C//DTD SVG 1.1 Tiny//EN" "http://www.w3.org/Graphics/SVG/1.1/DTD/svg11-tiny.dtd">
<svg width="16" height="16" viewBox="0 0 16 16">
<path d="M14.683,3.287c-0.116-0.011-0.29-0.012-0.47,0.004l0.106,0.013 c0.104-0.017,0.207-0.023,0.303-0.015c-0.75,0.354-0.735,1.675-0.751,1.957L13.87,5.897l1.066,0.181 C15.679,4.933,15.372,3.349,14.683,3.287z" fill="#496DA2"/>
<path d="M12.59,12.233l0.013-7.059c-0.004-0.324,0.112-0.626,0.288-0.895 c0.031-0.054,0.063-0.105,0.104-0.153c0.347-0.438,0.863-0.75,1.325-0.823l-0.106-0.013L5.997,2.307 C5.515,2.243,4.385,2.529,4.402,4.534C4.395,5.653,4.373,8.059,4.338,8.896c-0.127,2.945-0.383,3.405-0.383,3.405 l6.872,2.859c0.391,0.158,0.701,0.166,0.95,0.087c-0.146,0.022-0.286,0.032-0.413,0.022 C12.461,15.245,12.587,13.594,12.59,12.233z" fill="#A2C2DD"/>
<path d="M14.622,3.289c-0.096-0.009-0.198-0.002-0.303,0.015 c-0.462,0.073-0.979,0.385-1.325,0.823c-0.04,0.048-0.072,0.1-0.104,0.153c-0.176,0.269-0.292,0.57-0.288,0.895 l-0.013,7.059c-0.003,1.36-0.129,3.012-1.226,3.036c0.127,0.01,0.268,0,0.413-0.022c0.892-0.14,2.031-0.938,2.087-3.014 l0.006-6.336l0.001-0.651C13.887,4.964,13.872,3.644,14.622,3.289z" fill="#496DA2"/>
<path d="M8.361,4.459v5.163C8.324,9.613,8.292,9.601,8.252,9.596 C7.515,9.494,6.6,9.959,6.207,10.636c-0.393,0.675-0.11,1.305,0.626,1.404c0.737,0.103,1.651-0.362,2.043-1.036 c0.111-0.192,0.162-0.38,0.17-0.553c0.004-0.007,0.006-0.011,0.01-0.017c0-0.183,0-3.997,0-3.997l1.753,0.938V5.929 L8.361,4.459z" fill="#496DA2"/>
<path d="M2.795,3.002L2.574,4.666L4.02,3.905l1.446,0.761L5.19,3.056l1.169-1.141L4.743,1.681 L4.02,0.215L3.296,1.681L1.681,1.915l0.877,0.856c-3.424,1.257-1.139,5.899,1.74,6.301C4.347,8.46,4.91,7.456,6.478,7.26 C4.334,7.193,0.256,4.807,2.795,3.002z" fill="#496DA2"/>
</svg>