<?xml version="1.0" encoding="UTF-8" standalone="no"?>
<!DOCTYPE svg PUBLIC "-//W3C//DTD SVG 1.1 Tiny//EN" "http://www.w3.org/Graphics/SVG/1.1/DTD/svg11-tiny.dtd">
<svg xmlns="http://www.w3.org/2000/svg" xmlns:xlink="http://www.w3.org/1999/xlink" width="54" height="54" viewBox="0 0 54 54">
<rect fill="none" height="54" width="54"/>
<path d="M51.781,35.134c-0.035-0.92-0.285-1.72-0.963-2.459l0,0l-6.078-6.841 c-0.027-1.217-0.254-2.444-0.701-3.624c-0.412-4.481-3.848-8.048-8.314-9.324c-1.387-1.75-3.52-2.811-5.811-2.804 c-2.992,0.003-5.574,1.77-6.753,4.322c-1.18-2.552-3.761-4.318-6.755-4.322c-2.277-0.005-4.396,1.042-5.784,2.777 c-4.271,1.184-7.628,4.44-8.321,8.667c-0.681,1.476-1.016,3.053-1.016,4.616c-0.002,2.854,1.119,5.672,3.244,7.793 c2.07,2.078,4.873,3.236,7.806,3.232c2.929,0.004,5.731-1.154,7.802-3.234c0.842-0.838,1.535-1.805,2.062-2.856 c0.326-0.253,0.638-0.521,0.932-0.804c0.198,0.189,0.405,0.373,0.618,0.549c0.541,1.16,1.276,2.212,2.178,3.111 c0.156,0.156,0.314,0.305,0.475,0.447v1.797c-0.025,1.141,0.375,2.434,1.303,3.238c0.912,0.79,1.846,0.93,2.447,1.016 c0.473,0.062,4.149,0.51,6.791,0.832v2.008l0.002,0.021c0.035,1.315,0.763,2.59,2.041,3.22c0.445,0.23,1.015,0.372,1.572,0.37 c0.008,0,0.017,0,0.024,0c0.967,0,1.888-0.438,2.506-1.063l7.662-8.06c0.604-0.633,0.961-1.442,1.021-2.323l0.013-0.06 L51.781,35.134z" fill="#FFFFFF" fill-opacity="0.6"/>
<linearGradient id="_15" gradientUnits="userSpaceOnUse" x1="23.26" y1="3.42" x2="23.26" y2="27.18">
<stop stop-color="#CCCCCC" offset="0"/>
<stop stop-color="#000000" offset="1"/>
</linearGradient>
<path d="M33.971,34.625c-2.33,0-4.521-0.904-6.166-2.555 c-0.835-0.836-1.484-1.821-1.926-2.934c-0.998-0.736-1.797-1.615-2.378-2.616c-0.055-0.063-0.11-0.127-0.161-0.19 c-0.633,1.16-1.574,2.19-2.753,3c-0.437,1.024-1.057,1.946-1.852,2.739c-1.646,1.648-3.837,2.555-6.163,2.555 c-2.33,0-4.521-0.904-6.166-2.555c-2.683-2.68-3.322-6.714-1.625-10.087c0.408-3.548,3.434-6.491,7.476-7.301 c0.921-1.558,2.566-2.508,4.386-2.508c2.759,0,5.014,2.187,5.118,4.917c0.485-0.286,1.04-0.44,1.604-0.44 c0.592,0,1.17,0.171,1.67,0.481c0.086-2.751,2.349-4.959,5.117-4.959c1.83,0,3.479,0.958,4.402,2.524 c4.203,0.876,7.278,4.091,7.437,7.809c1.372,3.245,0.639,7.072-1.858,9.564C38.488,33.721,36.297,34.625,33.971,34.625 L33.971,34.625z" fill="url(#_15)" fill-opacity="0.7"/>
<circle cx="16.646" cy="17.292" fill="#0D0D0D" r="4.295"/>
<circle cx="30.154" cy="17.292" r="4.295"/>
<linearGradient id="_16" gradientUnits="userSpaceOnUse" x1="23.37" y1="16.21" x2="23.37" y2="21.11">
<stop stop-color="#004A6E" offset="0"/>
<stop stop-color="#000000" offset="1"/>
</linearGradient>
<path d="M32.236,15.286c-2.906,0-5.484,1.171-7.115,2.982c-0.435-0.481-1.057-0.792-1.756-0.792 c-0.699,0-1.32,0.309-1.755,0.792c-1.63-1.811-4.209-2.982-7.117-2.982c-4.937,0-8.94,3.368-8.94,7.522 c0,4.155,4.004,7.524,8.94,7.524c4.578,0,8.347-2.898,8.872-6.631c0.525,3.733,4.296,6.631,8.871,6.631 c4.938,0,8.94-3.369,8.94-7.524C41.178,18.654,37.175,15.286,32.236,15.286z" fill="url(#_16)"/>
<linearGradient id="_17" gradientUnits="userSpaceOnUse" x1="22.84" y1="20.86" x2="23.1" y2="29.12">
<stop stop-color="#004A6E" offset="0"/>
<stop stop-color="#000000" offset="1"/>
</linearGradient>
<path d="M30.984,16.909c-2.647,0-4.994,0.918-6.479,2.338c-0.396-0.377-0.964-0.621-1.6-0.621 c-0.638,0-1.203,0.243-1.598,0.621c-1.484-1.42-3.834-2.338-6.481-2.338c-4.495,0-8.142,2.642-8.142,5.9 c0,3.26,3.646,5.901,8.142,5.901c4.169,0,7.601-2.272,8.079-5.201c0.479,2.928,3.912,5.201,8.078,5.201 c4.496,0,8.143-2.642,8.143-5.901C39.126,19.55,35.48,16.909,30.984,16.909z" fill="url(#_17)"/>
<radialGradient id="_18" gradientUnits="userSpaceOnUse" cx="12.57" cy="25.91" r="6.02">
<stop stop-color="#D4F1FF" offset="0.3"/>
<stop stop-color="#D2EFFD" offset="0.56"/>
<stop stop-color="#CDE9F6" offset="0.66"/>
<stop stop-color="#C3DEEB" offset="0.72"/>
<stop stop-color="#B5CEDA" offset="0.78"/>
<stop stop-color="#A3B9C4" offset="0.82"/>
<stop stop-color="#8C9FA8" offset="0.86"/>
<stop stop-color="#718088" offset="0.9"/>
<stop stop-color="#525D62" offset="0.94"/>
<stop stop-color="#2E3437" offset="0.97"/>
<stop stop-color="#080909" offset="0.99"/>
<stop stop-color="#000000" offset="1"/>
</radialGradient>
<path d="M16.828,30.162c-2.352,2.352-6.164,2.352-8.515,0c-2.35-2.35-2.351-6.162,0-8.514 c2.351-2.35,6.163-2.348,8.513,0C19.176,23.999,19.178,27.813,16.828,30.162z" fill="url(#_18)"/>
<ellipse cx="12.525" cy="22.869" fill="#FFFFFF" rx="3.404" ry="2.463"/>
<linearGradient id="_19" gradientUnits="userSpaceOnUse" x1="12.57" y1="31.08" x2="12.57" y2="15.7">
<stop stop-color="#004A6E" offset="0"/>
<stop stop-color="#000000" offset="1"/>
</linearGradient>
<path d="M6.99,20.325c-3.082,3.083-3.082,8.079,0,11.163c3.082,3.082,8.08,3.082,11.16,0 c3.083-3.084,3.083-8.079,0-11.163C15.07,17.243,10.072,17.243,6.99,20.325z M16.703,30.038c-2.283,2.282-5.982,2.282-8.266,0.002 c-2.281-2.283-2.283-5.982,0-8.267c2.283-2.281,5.982-2.281,8.266,0C18.984,24.056,18.985,27.755,16.703,30.038z" fill="url(#_19)"/>
<linearGradient id="_20" gradientUnits="userSpaceOnUse" x1="12.6" y1="15.35" x2="12.6" y2="22.56">
<stop stop-color="#FFFFFF" offset="0"/>
<stop stop-color="#004A6E" offset="1"/>
</linearGradient>
<path d="M17.783,21.902c0.377,0.406,0.705,0.848,0.982,1.314c0.215,0.465,0.427-0.039,0.272-0.433 c-0.275-0.709-0.724-1.355-1.255-1.929c-2.862-3.081-7.498-3.081-10.357,0C6.883,21.44,6.5,22.086,6.167,22.783 C5.994,23.22,6.186,23.6,6.414,23.265c0.314-0.46,0.621-0.941,1.012-1.363C10.285,18.82,14.921,18.82,17.783,21.902z" fill="url(#_20)"/>
<linearGradient id="_21" gradientUnits="userSpaceOnUse" x1="12.55" y1="30.35" x2="12.55" y2="32.33">
<stop stop-color="#004A6E" offset="0"/>
<stop stop-color="#000000" offset="1"/>
</linearGradient>
<path d="M17.049,29.979c-2.506,2.451-6.424,2.404-8.973,0.002c-1.006-0.949-1.328-0.623,0,0.707 c2.479,2.478,6.494,2.478,8.973-0.004C18.375,29.357,17.993,29.057,17.049,29.979z" fill="url(#_21)"/>
<radialGradient id="_22" gradientUnits="userSpaceOnUse" cx="33.97" cy="25.91" r="6.02">
<stop stop-color="#D4F1FF" offset="0.3"/>
<stop stop-color="#D2EFFD" offset="0.56"/>
<stop stop-color="#CDE9F6" offset="0.66"/>
<stop stop-color="#C3DEEB" offset="0.72"/>
<stop stop-color="#B5CEDA" offset="0.78"/>
<stop stop-color="#A3B9C4" offset="0.82"/>
<stop stop-color="#8C9FA8" offset="0.86"/>
<stop stop-color="#718088" offset="0.9"/>
<stop stop-color="#525D62" offset="0.94"/>
<stop stop-color="#2E3437" offset="0.97"/>
<stop stop-color="#080909" offset="0.99"/>
<stop stop-color="#000000" offset="1"/>
</radialGradient>
<path d="M38.227,30.162c-2.352,2.352-6.162,2.352-8.514,0c-2.35-2.35-2.352-6.162,0-8.514 c2.352-2.35,6.162-2.348,8.514,0C40.576,23.999,40.577,27.813,38.227,30.162z" fill="url(#_22)"/>
<ellipse cx="33.924" cy="22.869" fill="#FFFFFF" rx="3.405" ry="2.463"/>
<path d="M28.391,20.325c-3.083,3.083-3.083,8.079,0,11.163c3.08,3.082,8.078,3.082,11.16,0 c3.082-3.084,3.082-8.079,0-11.163C36.469,17.243,31.471,17.243,28.391,20.325z M38.104,30.038 c-2.283,2.282-5.982,2.282-8.266,0.002c-2.281-2.283-2.283-5.982,0-8.267c2.282-2.281,5.982-2.281,8.264,0 C40.385,24.056,40.387,27.755,38.104,30.038z" fill="url(#_19)"/>
<path d="M39.184,21.902c0.377,0.406,0.705,0.848,0.982,1.314c0.215,0.465,0.426-0.039,0.271-0.433 c-0.275-0.709-0.725-1.355-1.254-1.929c-2.861-3.081-7.498-3.081-10.359,0c-0.541,0.585-0.924,1.232-1.258,1.929 c-0.174,0.437,0.02,0.816,0.246,0.482c0.315-0.46,0.621-0.941,1.012-1.363C31.686,18.82,36.322,18.82,39.184,21.902z" fill="url(#_20)"/>
<path d="M38.447,29.979c-2.506,2.451-6.422,2.404-8.971,0.002c-1.006-0.949-1.328-0.623,0,0.707 c2.477,2.478,6.494,2.478,8.971-0.004C39.773,29.357,39.393,29.057,38.447,29.979z" fill="url(#_21)"/>
<circle cx="22.926" cy="20.865" r="1.738"/>
<linearGradient id="_26" gradientUnits="userSpaceOnUse" x1="39.33" y1="17.56" x2="39.33" y2="37.95">
<stop stop-color="#CCCCCC" offset="0"/>
<stop stop-color="#000000" offset="1"/>
</linearGradient>
<path d="M40.794,44.339c-0.19,0-0.378-0.045-0.554-0.135 c-0.441-0.218-0.727-0.681-0.742-1.205v-4.011c-2.08-0.256-8.221-1.006-8.816-1.08c-0.897-0.114-1.725-0.43-1.725-1.955v-2.348 c0-1.51,0.82-1.832,1.715-1.955c0.709-0.1,6.764-0.838,8.846-1.092l-0.02-4.104c-0.014-0.369,0.134-0.742,0.398-1.005 c0.078-0.087,0.191-0.171,0.313-0.234c0.172-0.093,0.379-0.143,0.588-0.143c0.349,0,0.687,0.135,0.933,0.37l7.594,8.548 c0.219,0.201,0.373,0.563,0.377,0.947c0.006,0.373-0.141,0.737-0.395,1l-7.611,8.01C41.438,44.204,41.122,44.339,40.794,44.339 L40.794,44.339z" fill="url(#_26)" fill-opacity="0.7"/>
<linearGradient id="_27" gradientUnits="userSpaceOnUse" x1="42.83" y1="44.21" x2="35.99" y2="27.41">
<stop stop-color="#EBF7AB" offset="0"/>
<stop stop-color="#87B938" offset="0.49"/>
<stop stop-color="#006300" offset="1"/>
</linearGradient>
<path d="M48.738,34.51l-7.551-8.505c-0.158-0.151-0.426-0.197-0.611-0.098 c-0.047,0.025-0.09,0.055-0.127,0.095c-0.113,0.11-0.176,0.275-0.17,0.449l0.021,4.8c0,0-8.678,1.06-9.522,1.174 c-0.723,0.103-1.041,0.242-1.041,1.183c0,0.938,0,1.408,0,2.347c0,0.937,0.316,1.086,1.041,1.179 c0.724,0.092,9.502,1.166,9.502,1.166v4.68c0.006,0.229,0.125,0.437,0.313,0.529c0.186,0.094,0.385,0.053,0.535-0.098l7.616-8.016 c0.002-0.002,0.002-0.004,0.005-0.006c0.111-0.113,0.174-0.273,0.171-0.441C48.917,34.777,48.852,34.616,48.738,34.51z" fill="url(#_27)"/>
<linearGradient id="_28" gradientUnits="userSpaceOnUse" x1="31.67" y1="33.25" x2="50.73" y2="29.83">
<stop stop-color="#61A10D" offset="0"/>
<stop stop-color="#E3F0B5" offset="0.91"/>
</linearGradient>
<polygon fill="url(#_28)" points="47.988,34.848 41.084,27.038 41.08,31.805 30.336,33.057 30.336,34.837 "/>
</svg>