<?xml version="1.0" encoding="utf-8"?>
<!DOCTYPE svg PUBLIC "-//W3C//DTD SVG 1.1 Tiny//EN" "http://www.w3.org/Graphics/SVG/1.1/DTD/svg11-tiny.dtd">
<svg width="60" height="80" viewBox="0 0 60 80">
<linearGradient id="_298" gradientUnits="userSpaceOnUse" x1="20.69" y1="30.75" x2="38.19" y2="51.79">
<stop stop-color="#DEE9F3" offset="0"/>
<stop stop-color="#235487" offset="1"/>
</linearGradient>
<circle fill="url(#_298)" cx="29.527" cy="41.367" r="23.417"/>
<radialGradient id="_299" gradientUnits="userSpaceOnUse" cx="34.05" cy="26.71" r="42.04">
<stop stop-color="#FFFFFF" offset="0"/>
<stop stop-color="#A2C2DD" offset="0.53"/>
<stop stop-color="#6C83BB" offset="0.87"/>
<stop stop-color="#003D6D" offset="1"/>
</radialGradient>
<circle fill="url(#_299)" cx="29.567" cy="41.366" r="22.725"/>
<radialGradient id="_300" gradientUnits="userSpaceOnUse" cx="34.36" cy="29.04" r="28.6">
<stop stop-color="#E6EEF4" offset="0"/>
<stop stop-color="#C6DCC1" offset="0.08"/>
<stop stop-color="#91C06F" offset="0.21"/>
<stop stop-color="#6BAB33" offset="0.32"/>
<stop stop-color="#539E0E" offset="0.4"/>
<stop stop-color="#4A9900" offset="0.44"/>
<stop stop-color="#398419" offset="0.55"/>
<stop stop-color="#22663B" offset="0.71"/>
<stop stop-color="#135550" offset="0.85"/>
<stop stop-color="#0E4E58" offset="0.94"/>
</radialGradient>
<path fill="url(#_300)" d="M28.202,19.548l0.929,0.417l0.15,0.023c1.706-0.383,2.948,0.088,2.948,0.088l0.088,0.242l1.649-0.02l3.277-0.044c0,0,1.623,0.493,1.532,0.342c-0.082-0.037-0.162-0.076-0.246-0.111c-0.117-0.051-0.236-0.099-0.355-0.147c-0.229-0.093-0.457-0.186-0.689-0.271c-0.118-0.044-0.238-0.085-0.358-0.128c-0.237-0.083-0.476-0.166-0.715-0.242c-0.114-0.036-0.229-0.068-0.345-0.103c-0.252-0.075-0.504-0.149-0.76-0.216c-0.097-0.025-0.195-0.047-0.293-0.071c-0.275-0.068-0.554-0.135-0.834-0.192c-0.066-0.014-0.134-0.024-0.199-0.038c-0.313-0.062-0.629-0.12-0.948-0.169c-0.011-0.002-0.021-0.003-0.032-0.004c-1.119-0.169-2.266-0.258-3.432-0.258c-0.115,0-0.229,0.007-0.344,0.009c-0.356,0.005-0.711,0.017-1.063,0.039c-0.199,0.012-0.396,0.028-0.594,0.045c-0.329,0.029-0.655,0.065-0.98,0.108c-0.152,0.02-0.305,0.035-0.456,0.058c-0.444,0.067-0.883,0.15-1.319,0.243c-0.165,0.035-0.327,0.075-0.49,0.113c-0.327,0.077-0.65,0.162-0.972,0.253c-0.093,0.026-0.187,0.052-0.279,0.079l3.684,0.217c0.132-0.017,0.259-0.031,0.379-0.043L28.202,19.548z M35.831,48.555c1.629-0.897,0.188-0.6,0.188-0.6c-0.801,0.117-1.031,0.209-0.883,0.619C35.284,48.984,34.432,49.325,35.831,48.555z M33.268,44.509l1.895,0.043c0,0,0.896-0.403,0.369-0.469C35.001,44.02,33.268,44.509,33.268,44.509z M33.973,37c-0.855-0.609-0.271,0.124-0.841,1.022l0.791,1.915l0.479,0.917l0.395-0.719c0.059-0.3-1.113-0.816-0.918-1.483C34.075,37.986,34.829,37.61,33.973,37z M35.73,40.502c-0.512,0.174-1.16,0.714-1.16,0.714c0.628,0.107,0.084,0.882,0.88,0.958c0.848,0.083,0.438,0.178,0.555-0.422C36.118,41.152,36.243,40.329,35.73,40.502z M44.191,52.713C43.927,52,44.085,51.729,43.624,51.5l-0.248-1.671c0,0-0.129,0.057-0.33-0.058c-0.198-0.114-0.362-1.198-0.362-1.198s-0.326,0.155-0.388,0.603c-0.157,1.188-0.892,1.938-0.892,1.938s-0.448-0.423-1.104-0.587c-0.635-0.158-0.369-0.018-0.078-0.719c0.353-0.851,0.084-0.688-0.752-0.668c-0.893,0.023-1.441-0.086-2.141,1.225c-0.127,0.236-0.719-0.356-1.221-0.225l-1.906,1.164c0,0-0.24,1.123-0.5,1.168c-2.709,0.471-3.496,1.432-3.496,1.432c-0.004,0.898,0.527,1.666,0.654,2.272c0,1.224,0.395,1.529,0.395,1.529s2.109-0.315,3.016-0.743c1.459-0.688,3.582-0.48,3.582-0.48c0.328,0.322,0.203,0.523,0.525,0.744c0.209,0.143,0.582-0.586,0.785-0.48c0.027,0.361,0.367,1.018,0.568,1.092c2.358,0.176,2.973-1.224,2.973-1.224c0.48-0.962,1.885-1.578,2.096-2.544C45.014,53.104,44.587,53.184,44.191,52.713z M22.866,37.779l0.419,2.061l-0.126,1.152c0.844,1.463,1.63,3.43,2.679,3.473c-0.162-0.387-0.251-1.672-0.251-1.672c-0.438-1.152-1.259-0.788-1.738-1.686c-0.479-0.896,0.734-2.432,1.353-1.18c0.245,0.496,0.513,0.693,1.161,1.391c3.364-1.879,2.098-2.884,0.705-3.954c-0.876-1.384,1.009-1.44,1.009-1.44c0.061,0.196,1.379-0.332,2.333-0.692c3.07-0.778,2.289-1.647,2.289-1.647c2.098-1.312,0.48-2.622-0.307-3.54l1.037-0.311l0.172-0.49l-1.607,0.13l-0.563-0.378l1.723-0.818c0,0-0.156,0.347-0.109,0.591c0.055,0.29,1.229-0.21,1.229-0.21l0.086,0.831l0.613-0.132c-0.045,0.656,0.131,1.355,0.131,1.355c0.64-0.315,0.961-0.48,0.961-0.48c0.104-0.754-0.875-1.486-0.875-1.486c0.203-0.102,0.695-0.771,1.052-1.267c2.444,0.567,1.397-3.191,1.397-3.191l1.178,2.055c0.832-0.306-0.83-2.141-0.83-2.141l-2.229-0.22l1.225-1.092c1.929-0.001,1.789,0.351,2.054-0.524c0.717,0.262,1.137-0.131,1.269,0.35c-0.724,0.562-0.437,0.611-0.367,1.033l1.416,1.195c0,0-0.021-0.483,0.088-1.092c0.035-0.195-1.297-0.94-1.146-1.086c0.185-0.176,0.902-0.102,1.047-0.107c-0.032-0.468-2.35-1.721-2.698-1.692l-1.5-0.099c-0.658-0.235-3.177-0.469-3.177-0.469l-1.5,0.222c-0.522-0.447-1.633-0.299-1.633-0.299l-1.552-0.233c-0.022,0.004-0.045,0.008-0.067,0.014l-0.083-0.037l-0.103-0.016l-1.137-0.218c-0.185-0.009-0.447,0.005-0.758,0.036l-0.247,0.051l-0.132-0.008c-1.309,0.164-3.125,0.537-3.67,0.794c0,0,0.175-0.699-0.35-0.218c-0.524,0.479-0.962,0.611-1.704,0.611c-0.388,0-1.25,0.119-1.987,0.233c-0.066,0.035-0.135,0.067-0.201,0.103c-0.134,0.072-0.266,0.148-0.398,0.222c-0.195,0.109-0.389,0.219-0.58,0.333c-0.128,0.077-0.254,0.159-0.381,0.239c-0.19,0.12-0.38,0.238-0.567,0.363c-0.12,0.081-0.237,0.166-0.355,0.249c-0.188,0.131-0.376,0.262-0.56,0.398c-0.105,0.079-0.208,0.162-0.312,0.243c-0.191,0.148-0.384,0.294-0.571,0.448c-0.061,0.05-0.118,0.103-0.178,0.153c-0.478,0.403-0.941,0.823-1.384,1.263c-0.02,0.02-0.04,0.038-0.06,0.057c-0.158,0.158-0.31,0.323-0.463,0.486c-0.104,0.11-0.209,0.217-0.311,0.329c-0.137,0.151-0.268,0.308-0.401,0.463c-0.111,0.129-0.224,0.257-0.333,0.389c-0.124,0.151-0.242,0.306-0.361,0.46c-0.111,0.143-0.223,0.284-0.331,0.429c-0.113,0.153-0.221,0.309-0.33,0.464c-0.107,0.153-0.215,0.305-0.318,0.459c-0.103,0.155-0.202,0.313-0.301,0.47c-0.102,0.162-0.204,0.323-0.302,0.488c-0.093,0.156-0.183,0.314-0.272,0.473c-0.097,0.171-0.193,0.343-0.286,0.518c-0.083,0.157-0.163,0.315-0.243,0.474c-0.091,0.182-0.181,0.364-0.267,0.548c-0.073,0.156-0.144,0.314-0.214,0.473c-0.084,0.192-0.167,0.385-0.246,0.58c-0.063,0.156-0.125,0.313-0.186,0.471C8.256,33.48,8.182,33.684,8.11,33.89c-0.054,0.153-0.106,0.307-0.156,0.461c-0.07,0.216-0.136,0.434-0.2,0.652c-0.028,0.096-0.055,0.191-0.082,0.287c0.222,0.57-0.272,2.34-0.145,3.102c0.044,0.263,0.699-0.743,1.529-1.354c0.831-0.611,2.244-2.083,1.807-2.563c-0.437-0.481-0.32-0.977-0.32-0.977l-0.524,0.175c0,0-0.306-1.398,0.35-2.01c0,0-0.307,1.136-0.043,1.398c0.262,0.262,0.218-0.044,0.509,0.015l0.088,0.232c-0.101,0.342,0.204,0.816,0.815,0.67c1.336-0.317,1.166,0.175,1.166,0.394c0,0.114,0.216,1.331,0.216,1.331l0.833-0.151l-0.132,0.655c-0.094,0.411,0.568,4.414,0.568,4.414l0.48,0.568c1.268-1.092,1.197-3.211,1.197-3.211l0.638-0.154c0,0,2.344-1.858,2.579-1.967c0.235-0.107,2.286-0.402,2.403,1.355C21.773,38.521,22.473,37.625,22.866,37.779z M13.121,27.379c-0.131,0.174-0.279,0.594-0.699,1.485c-0.35,0.742-0.961,0.786-0.874,0.437c0.088-0.35,0.722-0.719,0.874-1.267c0.219-0.787,0.263-0.787,1.354-1.748C14.694,25.762,13.252,27.203,13.121,27.379z M7.659,38.959c-0.238-0.089-0.435-0.741-0.536-1.151c-0.001,0.006-0.002,0.012-0.003,0.018c-0.082,0.522-0.141,1.051-0.187,1.583c-0.01,0.112-0.018,0.226-0.026,0.339c-0.038,0.532-0.063,1.068-0.063,1.611c0,0.002,0,0.006,0,0.009c0,0.543,0.025,1.08,0.063,1.612c0.008,0.109,0.016,0.22,0.025,0.328c0.045,0.537,0.104,1.07,0.187,1.597c0.07-0.53,0.271-1.952,0.584-3.237c0.394-1.616,0.918-1.529,0.787-2.709C8.359,37.779,8.008,39.09,7.659,38.959z M40.288,58.313c-0.429,0.85,0.621,0.295,0.935,0.047C41.452,58.176,40.288,58.313,40.288,58.313z M32.105,48.527c0.533-0.036,1.107-0.394,0.705-0.409c-0.403-0.017-1.768-0.065-2.399,0.125C30.021,48.361,31.573,48.566,32.105,48.527z M31.825,42.077c-1.082,1.034-3.89,2.301-3.89,2.301l0.743,1.485c0,0,3.417,0.996,3.192,0.131c-0.216-0.822,1.332-1.824,0.604-2.284c-0.258-0.163-0.264-0.528-0.065-0.651C33.225,42.542,32.229,41.691,31.825,42.077z M28.71,36.888c0.308-0.399,0.23-0.988,0.23-0.988s-0.669,0.181-0.769,0.248s0.032,0.191-0.106,0.407C27.816,36.945,28.499,37.163,28.71,36.888z M16.272,40.928c-0.117-0.053-0.164-0.925-0.399-0.541c-0.206,0.333-0.378,0.768-0.048,1.291c0.33,0.523,0.354,0.506,0.566-0.121C16.602,40.928,16.39,40.979,16.272,40.928z M45.898,45.689c-0.209,0.229-0.938,0.606-0.938,0.606s0.787,0.021,1.022-0.346c0.236-0.367,0.283-0.88,0.283-0.88S46.107,45.459,45.898,45.689z M44.641,46.876c0.813-0.245-0.474-0.668-0.474-0.668l-0.069-0.403c0,0-1.048,0.012-1.021-0.205c0.025-0.219-2.148-0.887-2.248-0.609s-0.814,1.063-1.131,0.265c-0.317-0.798-0.697-1.009-1.383-0.378l0.61,0.484c0,0,0.138,0.589,0.459,0.734c0.324,0.146,1.287,0.206,1.703,0.133c0,0-0.229,0.979,0.065,1.346c0,0,0.691-0.333,0.854,0.037c0.16,0.371,1.06,0.32,1.397-0.305c0.177-0.326,0.726-0.311,0.996,0.272c0.273,0.582,0.119,0.307,1.015,0.207C45.415,47.786,44.229,47,44.641,46.876z M27.014,47.414l0.003-1.596l-0.336-0.203c0,0-0.137,0.474-0.473-0.057c-0.584-0.922-3.085-2.461-3.88-3.156c-0.43-0.375-0.162,0.509-0.162,0.509c0.811,0.979,1.802,1.929,2.4,2.948c0.533,0.906,2.174,1.482,2.174,1.482l0.03,0.403c1.26,0.723,3.64,0.497,3.64,0.497C31.212,47.438,27.014,47.414,27.014,47.414z M38.23,45.975c-0.444-0.302-1.256-0.339-1.383-0.129C36.593,46.271,38.689,46.283,38.23,45.975z M32.846,48.566l0.627,0.315l0.03-0.452c0,0,1.14,0.008,1.381-0.324l-1.733,0.078L32.846,48.566z M39.079,26.767c0,0,0.183,0.438-0.271,0.749c-0.453,0.312,0.795,0.053,1.213-0.167C40.438,27.129,39.779,26.779,39.079,26.767z M36.846,44.008c-0.039,0.207-0.101,1.039-0.101,1.039c0.346-0.219,0.688-0.395,0.728-0.6c0.039-0.206-0.359-0.276-0.019-0.611C37.798,43.5,36.884,43.803,36.846,44.008z M35.271,46.701c-0.763-0.578-1.363-1.344-0.41-1.497c1.188-0.193-1.504-0.435-1.705-0.249c-0.563,0.52-0.105,1.803-0.105,1.803s0.227,0.125,0.521,0.271c0.156,0.078-0.061-1.227,0.137-1.154C34.027,46.518,34.848,47.203,35.271,46.701z M33.055,35.341c0.661,0.059,0.545-0.505,0.582-1.074C33.637,34.267,32.782,34.652,33.055,35.341z M38.544,30.122c0.358,0.097,1.08-0.031,1.233-0.516c0.154-0.483,0.093-0.71,0.188-0.956c0.099-0.244-0.682-1.02-0.713-0.529c-0.043,0.699,0.246,1.14-0.262,1.268c-0.431,0.108-0.793,0.579-0.793,0.579l-0.828,0.096l-0.904,0.913l0.421,0.57l0.34-0.195l-0.06-0.476l0.856-0.192l-0.002-0.456C38.021,30.228,38.313,30.061,38.544,30.122z"/>
</svg>