<?xml version="1.0" encoding="UTF-8"?>
<!DOCTYPE svg PUBLIC "-//W3C//DTD SVG 1.1 Tiny//EN" "http://www.w3.org/Graphics/SVG/1.1/DTD/svg11-tiny.dtd">
<svg width="100%" height="100%" viewBox="0 0 88 88">
<linearGradient id="_12" gradientUnits="userSpaceOnUse" x1="40.82" y1="47.01" x2="58.43" y2="81.69">
<stop stop-color="#A2C2DD" offset="0.1"/>
<stop stop-color="#6C83BB" offset="0.71"/>
<stop stop-color="#003D6D" offset="0.99"/>
</linearGradient>
<path fill="url(#_12)" d="M25.514,10.915c0,0,0,24.675,0,26.134c-10.331-1.149-12.903,11.307-6.848,16.199 c-1.047,0.636-3.509,2.13-3.509,2.13l0.404,5.723l2.017,0.938l0.39,5.972l-2.362,1.484l0.219,6.455l13.184,4.358l5.215-4.794 l0.466-5.693l-2.241-0.608l0.01-0.676l35.667,7.97l3.086-3.029l0.747-43.316l-14.585-14.82l-28.01-5.618L25.514,10.915z"/>
<linearGradient id="_13" gradientUnits="userSpaceOnUse" x1="59.3" y1="9.51" x2="40.64" y2="61.51">
<stop stop-color="#FFFFFF" offset="0.05"/>
<stop stop-color="#A2C2DD" offset="1"/>
</linearGradient>
<polygon fill="url(#_13)" points="67.986,32.34 67.986,75.693 26.214,66.359 26.214,11.324 53.73,17.473 "/>
<linearGradient id="_14" gradientUnits="userSpaceOnUse" x1="33.86" y1="30.68" x2="47.2" y2="64.01">
<stop stop-color="#E6EEF4" offset="0"/>
<stop stop-color="#9646AC" offset="0.44"/>
<stop stop-color="#3D013F" offset="0.94"/>
</linearGradient>
<path fill="url(#_14)" d="M53.614,58.68c0,9.869-10.149,8.211-12.022,7.35 c-2.881-0.682-11.616-5.004-11.616-13.557V42.404c0-10.297,11.059-7.697,11.285-7.729c0,0,11.985,2.594,12.354,13.936 V58.68z"/>
<path fill="url(#_13)" d="M49.746,47.475l3.818,1.004l0.333-1.48l-4.151-1.092v-8.988l-1.53-0.061V48.85 c-0.937-0.701-2.028-1.332-3.222-1.857V35.127l-1.529-0.061v11.332c-0.48-0.166-3.066-0.803-3.815-0.891V34.266 l-1.53-0.061V45.42c-1.056-0.01-2.012,0.115-2.824,0.373v-12.67l-1.53-0.061v8.646l-3.821-1.002l-0.333,1.482 l4.154,1.086V64.34l1.53,0.061V53.227c0.814,0.654,1.771,1.254,2.824,1.775v10.482l1.53,0.061v-9.869 c0.68,0.264,3.253,0.949,3.815,1.039v10.176l1.529,0.059V56.893c1.197,0.072,2.289-0.016,3.222-0.256v11.5l1.53,0.061 v-8.152l3.818,1.004l0.333-1.48l-4.151-1.092V47.475z M35.295,51.457v-3.754c2.981-1.502,9.644-0.107,12.921,2.846 v4.227C44.768,56.148,38.002,54.207,35.295,51.457z"/>
<linearGradient id="_16" gradientUnits="userSpaceOnUse" x1="69.22" y1="23.27" x2="69.86" y2="86.79">
<stop stop-color="#FFFFFF" offset="0"/>
<stop stop-color="#A2C2DD" offset="0.35"/>
<stop stop-color="#6C83BB" offset="0.7"/>
<stop stop-color="#003D6D" offset="1"/>
</linearGradient>
<polygon fill="url(#_16)" points="67.793,75.785 70.515,73.113 71.252,30.377 67.929,32.396 "/>
<linearGradient id="_17" gradientUnits="userSpaceOnUse" x1="40.58" y1="16.36" x2="42.82" y2="10.28">
<stop stop-color="#FFFFFF" offset="0.05"/>
<stop stop-color="#A2C2DD" offset="1"/>
</linearGradient>
<polygon fill="url(#_17)" points="57.023,15.92 29.399,10.379 26.131,11.391 53.987,17.74 "/>
<linearGradient id="_18" gradientUnits="userSpaceOnUse" x1="56.38" y1="-1.63" x2="64.48" y2="31.73">
<stop stop-color="#FFFFFF" offset="0.15"/>
<stop stop-color="#A2C2DD" offset="1"/>
</linearGradient>
<polygon fill="url(#_18)" points="53.987,17.74 67.929,32.396 71.252,30.377 57.023,15.92 "/>
<polygon fill="#CEDFF2" points="16.318,69.809 28.977,73.826 33.943,70.279 21.115,66.793 "/>
<linearGradient id="_19" gradientUnits="userSpaceOnUse" x1="31.08" y1="37.85" x2="28.47" y2="70.28">
<stop stop-color="#E6EEF4" offset="0"/>
<stop stop-color="#337CE5" offset="0.44"/>
<stop stop-color="#003D6D" offset="0.94"/>
</linearGradient>
<polygon fill="url(#_19)" points="26.431,73.096 31.739,69.684 31.963,54.744 26.18,58.738 "/>
<polygon fill="#CEDFF2" points="15.886,55.688 26.253,58.738 32.009,54.744 21.284,52.41 "/>
<polygon fill="url(#_19)" points="28.833,79.453 33.547,75.119 33.967,70.264 28.869,73.863 "/>
<linearGradient id="_21" gradientUnits="userSpaceOnUse" x1="32.43" y1="51.14" x2="18.77" y2="73.48">
<stop stop-color="#D6E4F3" offset="0"/>
<stop stop-color="#337CE5" offset="1"/>
</linearGradient>
<polygon fill="url(#_21)" points="15.886,55.688 26.18,58.738 26.433,73.037 28.887,73.818 28.871,79.461 16.507,75.373 16.318,69.809 18.846,70.641 18.25,61.514 16.23,60.574 "/>
<radialGradient id="_22" gradientUnits="userSpaceOnUse" cx="22.31" cy="41.55" r="10.11">
<stop stop-color="#D6E4F3" offset="0"/>
<stop stop-color="#337CE5" offset="1"/>
</radialGradient>
<path fill="url(#_22)" d="M32.572,46.043c0,11.291-16.436,11.291-16.436,0C16.137,34.721,32.572,34.721,32.572,46.043z "/>
</svg>