<?xml version="1.0" encoding="UTF-8"?>
<!DOCTYPE svg PUBLIC "-//W3C//DTD SVG 1.1 Tiny//EN" "http://www.w3.org/Graphics/SVG/1.1/DTD/svg11-tiny.dtd">
<svg width="84" height="72" viewBox="0 0 84 72">
<linearGradient id="_37" gradientUnits="userSpaceOnUse" x1="44.05" y1="38.49" x2="50.24" y2="55.3">
<stop stop-color="#87A8CB" offset="0"/>
<stop stop-color="#235487" offset="1"/>
</linearGradient>
<path fill="url(#_37)" d="M50.492,10.587c-10.709,0.853-16.465,7.126-21.879,13.006 C23.146,29.531,17.25,35.667,6.232,36.852c0,0,0.009,2.349,0.053,2.405c0,0,17.819,24.265,17.945,24.25 c14.437-1.762,21.536-10.317,28.084-18.548c6.264-7.873,12.494-15.266,24.666-16.375l0.471-2.684 C77.451,25.901,50.561,10.581,50.492,10.587z"/>
<linearGradient id="_38" gradientUnits="userSpaceOnUse" x1="50.48" y1="-1.98" x2="36.05" y2="53.95">
<stop stop-color="#FFFFFF" offset="0"/>
<stop stop-color="#496DA2" offset="0.71"/>
<stop stop-color="#235487" offset="0.99"/>
</linearGradient>
<path fill="url(#_38)" d="M6.862,37.204c21.987-2.362,22.393-24.141,43.416-25.815l26.505,14.549 c-26.675,3.561-24.47,30.393-51.552,34.201L6.862,37.204z"/>
<linearGradient id="_39" gradientUnits="userSpaceOnUse" x1="22.04" y1="48.77" x2="44.84" y2="18.58">
<stop stop-color="#DEE9F3" offset="0"/>
<stop stop-color="#235487" offset="1"/>
</linearGradient>
<path fill="url(#_39)" d="M10.57,41.909c3.348-0.218,11.604-1.711,18.685-9.76l12.987,11.914 c-4.887,6.108-13.32,11.045-20.693,11.672L10.57,41.909z"/>
<linearGradient id="_40" gradientUnits="userSpaceOnUse" x1="45.26" y1="29.9" x2="32.05" y2="50.45">
<stop stop-color="#DEE9F3" offset="0"/>
<stop stop-color="#235487" offset="1"/>
</linearGradient>
<path fill="url(#_40)" d="M30.881,30.486c3.589-4.176,8.126-10.296,16.238-14.082l14.92,9.187 c-4.744,2.45-9.445,5.506-17.955,16.515L30.881,30.486z"/>
<path fill="#D6E4F3" d="M49.619,15.378c0,0,5.129-1.183,5.889-1.12l16.105,8.863c0,0-3.096-0.043-6.824,1.368L49.619,15.378z"/>
<polygon fill="#FFFFFF" points="7.932,38.661 10.402,38.366 12.099,40.544 9.844,41.021 "/>
<polygon fill="#FFFFFF" points="12.942,37.734 14.834,39.954 17.41,39.098 15.487,36.925 "/>
<polygon fill="#FFFFFF" points="17.605,35.971 19.57,38.146 21.768,36.907 19.751,34.792 "/>
<polygon fill="#FFFFFF" points="21.519,33.58 23.563,35.646 25.435,34.167 23.324,32.113 "/>
<polygon fill="#FFFFFF" points="24.912,30.75 27.012,32.726 28.665,31.023 26.516,29.083 "/>
<polygon fill="#FFFFFF" points="27.923,27.573 30.117,29.511 31.644,27.708 29.485,25.868 "/>
<polygon fill="#FFFFFF" points="30.897,24.322 33.061,26.13 34.625,24.398 32.412,22.615 "/>
<polygon fill="#FFFFFF" points="33.863,21.136 36.102,22.87 37.81,21.255 35.478,19.546 "/>
<polygon fill="#FFFFFF" points="37.111,18.187 39.451,19.832 41.314,18.382 39.021,16.772 "/>
<polygon fill="#FFFFFF" points="40.894,15.617 43.201,17.161 45.496,16.032 43.119,14.504 "/>
<polygon fill="#FFFFFF" points="45.221,13.681 47.658,15.112 50.436,14.365 47.943,12.914 "/>
<polygon fill="#FFFFFF" points="50.357,12.453 52.9,13.907 54.389,13.645 51.734,12.2 "/>
<polygon fill="#FFFFFF" points="22.347,56.663 25.111,56.18 26.959,58.473 24.12,58.945 "/>
<polygon fill="#FFFFFF" points="28.039,55.438 29.935,57.688 32.957,56.548 30.976,54.341 "/>
<polygon fill="#FFFFFF" points="33.407,53.188 35.867,51.673 37.954,53.807 35.414,55.35 "/>
<polygon fill="#FFFFFF" points="37.917,50.182 39.991,52.286 42.123,50.421 40.021,48.366 "/>
<polygon fill="#FFFFFF" points="41.779,46.611 43.914,48.634 45.766,46.589 43.609,44.636 "/>
<polygon fill="#FFFFFF" points="45.236,42.743 47.434,44.671 49.174,42.511 46.947,40.65 "/>
<polygon fill="#FFFFFF" points="48.545,38.747 50.762,40.585 52.504,38.415 50.256,36.634 "/>
<polygon fill="#FFFFFF" points="51.914,34.802 54.176,36.54 56.102,34.534 53.811,32.815 "/>
<polygon fill="#FFFFFF" points="55.615,31.138 57.979,32.776 60.141,31.01 57.756,29.402 "/>
<polygon fill="#FFFFFF" points="59.914,27.971 62.32,29.525 64.871,28.063 62.436,26.539 "/>
<polygon fill="#FFFFFF" points="64.961,25.447 67.475,26.931 70.59,25.945 68.074,24.477 "/>
<polygon fill="#FFFFFF" points="71.166,23.84 73.746,25.254 75.201,25.094 72.555,23.643 "/>
<linearGradient id="_41" gradientUnits="userSpaceOnUse" x1="27.63" y1="-4.18" x2="54.09" y2="51.45">
<stop stop-color="#FFFFFF" offset="0"/>
<stop stop-color="#496DA2" offset="0.71"/>
<stop stop-color="#235487" offset="0.99"/>
</linearGradient>
<path fill="url(#_41)" d="M25.359,59.9c25.561-3.396,26.547-32.375,51.403-33.989l-0.473,2.361 c-24.906,2.271-23.859,31.196-51.601,34.58L25.359,59.9z"/>
<polygon fill="url(#_38)" points="25.359,59.9 6.862,37.204 6.917,39.025 24.688,62.852 "/>
<polygon fill="#7D97C6" points="24.529,58.893 23.929,61.825 22.325,59.624 22.693,56.585 "/>
<polygon fill="#7D97C6" points="8.043,38.63 8.225,40.7 9.984,43.143 9.929,41.021 "/>
</svg>