<?xml version="1.0" encoding="UTF-8"?>
<!DOCTYPE svg PUBLIC "-//W3C//DTD SVG 1.1 Tiny//EN" "http://www.w3.org/Graphics/SVG/1.1/DTD/svg11-tiny.dtd">
<svg baseProfile="tiny" height="12" version="1.1" viewBox="0 0 12 12" width="12" xmlns="http://www.w3.org/2000/svg" xmlns:xlink="http://www.w3.org/1999/xlink">
<g>
<rect fill="none" height="12" width="12"/>
<linearGradient gradientTransform="matrix(1 0 0 -1 0 2.6816)" gradientUnits="userSpaceOnUse" id="XMLID_4_" x1="1.2334" x2="11.0176" y1="-2.1558" y2="-2.1558">
<stop offset="0" style="stop-color:#788FB8"/>
<stop offset="1" style="stop-color:#235487"/>
</linearGradient>
<path d="M10.708,2.431v0.002L7.01,8.534V8.532v0.002C6.694,9.017,6.343,9.123,6.101,9.126   C5.858,9.123,5.509,9.017,5.192,8.534l0.001-0.002L5.192,8.534L1.541,2.431L1.54,2.429c-0.224-0.41-0.418-0.861-0.232-1.276   c0.187-0.417,0.562-0.604,0.963-0.604h0.09h7.618H9.98c0.403,0,0.776,0.187,0.963,0.604C11.129,1.565,10.934,2.021,10.708,2.431z" fill="url(#XMLID_4_)" fill-opacity="0.8" stroke-opacity="0.8"/>
<path d="M5.37,1.067H2.31c-0.392,0-0.654,0.483-0.415,0.921l3.74,6.169c0.147,0.227,0.277,0.34,0.479,0.34   c0.198,0,0.303-0.113,0.452-0.34l3.79-6.169c0.238-0.438-0.021-0.921-0.416-0.921H5.37z" fill="#A2C2DD"/>
<linearGradient gradientTransform="matrix(1 0 0 -1 0 2.6816)" gradientUnits="userSpaceOnUse" id="XMLID_5_" x1="-12.6802" x2="26.8059" y1="-2.0786" y2="-2.0786">
<stop offset="0" style="stop-color:#FFFFFF"/>
<stop offset="0.1142" style="stop-color:#E0EAF3"/>
<stop offset="0.35" style="stop-color:#A2C2DD"/>
<stop offset="0.4825" style="stop-color:#8CA9CF"/>
<stop offset="0.7" style="stop-color:#6C83BB"/>
<stop offset="0.7458" style="stop-color:#637DB5"/>
<stop offset="0.8189" style="stop-color:#4C6EA4"/>
<stop offset="0.9097" style="stop-color:#265689"/>
<stop offset="0.9888" style="stop-color:#003D6D"/>
<stop offset="1" style="stop-color:#003D6D"/>
</linearGradient>
<path d="M5.873,8.031C5.866,8.02,2.136,1.868,2.136,1.868C1.971,1.565,2.144,1.317,2.31,1.317   h7.63c0.145,0,0.361,0.209,0.169,0.56L6.325,8.035C6.154,8.294,5.998,8.223,5.873,8.031z" fill="url(#XMLID_5_)" fill-opacity="0.6" stroke-opacity="0.6"/>
<linearGradient gradientTransform="matrix(1 0 0 -1 0 2.6816)" gradientUnits="userSpaceOnUse" id="XMLID_6_" x1="2.1646" x2="11.1758" y1="-1.9902" y2="-1.9902">
<stop offset="0" style="stop-color:#E1EBF4"/>
<stop offset="0.4944" style="stop-color:#CEE1EF"/>
<stop offset="1" style="stop-color:#C5CEEF"/>
</linearGradient>
<path d="M2.5,1.665l3.582,6.014c0.003-0.003,3.664-6.014,3.664-6.014H2.5z" fill="url(#XMLID_6_)"/>
<g fill-opacity="0.5" stroke-opacity="0.5">
<path d="M5.873,8.031C5.866,8.02,2.136,1.868,2.136,1.868C1.991,1.603,2.121,1.317,2.31,1.317h3.768v6.885    C6.037,8.191,5.977,8.191,5.873,8.031z" fill="#FFFFFF"/>
</g>
</g>
</svg>
