<?xml version="1.0" encoding="UTF-8"?>
<!DOCTYPE svg PUBLIC "-//W3C//DTD SVG 1.1 Tiny//EN" "http://www.w3.org/Graphics/SVG/1.1/DTD/svg11-tiny.dtd">
<svg width="10" height="20" viewBox="-0.334 -0.098 10 20">
<path fill="#496DA2" d="M5.665,19.805c0.804,0,1.558-0.407,2.125-1.154s0.876-1.737,0.876-2.794V5.04 c0-2.181-2.551-5.039-3.996-5.039c-1.455,0-4.004,2.859-4.004,5.039v10.816c0,1.057,0.313,2.047,0.878,2.794 c0.564,0.747,1.321,1.154,2.121,1.154H5.665z"/>
<path fill="#FFFFFF" d="M1.665,6.317v9.54c0,0.705,0.21,1.365,0.587,1.863c0.376,0.496,0.88,0.77,1.414,0.77h1V6.317H1.665z"/>
<path fill="#FFFFFF" d="M1.665,6.356V5.04c0-0.703,0.21-1.367,0.587-1.863c0.375-0.498,1.564-1.857,2.414-1.857v5.036L1.665,6.356 L1.665,6.356z"/>
<linearGradient id="_3" gradientUnits="userSpaceOnUse" x1="4.67" y1="3.84" x2="7.67" y2="3.84">
<stop stop-color="#FFFFFF" offset="0.05"/>
<stop stop-color="#A2C2DD" offset="1"/>
</linearGradient>
<path fill="url(#_3)" d="M4.666,1.319c0.85,0,2.037,1.357,2.414,1.855C7.459,3.673,7.666,4.337,7.666,5.04v1.315h-3V1.319z"/>
<linearGradient id="_4" gradientUnits="userSpaceOnUse" x1="4.67" y1="12.39" x2="7.67" y2="12.39">
<stop stop-color="#FFFFFF" offset="0.05"/>
<stop stop-color="#A2C2DD" offset="1"/>
</linearGradient>
<path fill="url(#_4)" d="M7.666,6.288v9.568c0,1.453-0.895,2.633-2.001,2.633H4.666V6.288H7.666z"/>
<path fill="#CADCEC" d="M2.665,5.04c0-0.728,1.286-2.134,2.005-2.134c0.713,0,1.999,1.406,1.999,2.134v10.816 c0,0.728-0.448,1.317-1.004,1.317h-2c-0.551,0-1-0.59-1-1.317V5.04z"/>
</svg>