<?xml version="1.0" encoding="UTF-8"?>
<!DOCTYPE svg PUBLIC "-//W3C//DTD SVG 1.1 Tiny//EN" "http://www.w3.org/Graphics/SVG/1.1/DTD/svg11-tiny.dtd">
<svg width="20" height="20" viewBox="0 0 20 20">
<path fill="#536376" d="M11.13,15.234c-1.306,0-2.288-0.416-2.945-1.248c-0.658-0.832-0.986-2.198-0.986-4.101 c0-1.704,0.331-2.984,0.993-3.839s1.655-1.282,2.979-1.282c0.541,0,1.084,0.073,1.63,0.22v1.203 c-0.541-0.16-1.024-0.24-1.451-0.24c-0.729,0-1.273,0.324-1.636,0.973S9.171,8.539,9.171,9.831c0,1.503,0.187,2.582,0.561,3.237 c0.373,0.655,0.934,0.983,1.681,0.983c0.435,0,0.897-0.068,1.389-0.206v1.168C12.255,15.161,11.698,15.234,11.13,15.234z"/>
</svg>