<?xml version="1.0" encoding="UTF-8"?>
<!DOCTYPE svg PUBLIC "-//W3C//DTD SVG 1.1 Tiny//EN" "http://www.w3.org/Graphics/SVG/1.1/DTD/svg11-tiny.dtd">
<svg baseProfile="tiny" height="32px" version="1.1" viewBox="0 0 32 32" width="32px" x="0px" xmlns="http://www.w3.org/2000/svg" xmlns:xlink="http://www.w3.org/1999/xlink" y="0px">
<g>
<rect fill="none" height="32" width="32"/>
<path d="M31.998,20.126v-3.455L32,5.503H1.353H0v1.353v3.533v1.351h0.002v0.05v3.455l0,0v1.35v3.531v0.142v1.208v0.143v3.528v1.35   H1.35h4.781h0.021h1.329h0.021h16.995h0.021h1.329h0.021h4.778h1.35v-1.35v-3.528v-1.35l0,0V20.126z M6.152,25.149h-4.8v-3.531h4.8   V25.149z M6.152,20.126h-4.8v-3.531h4.8V20.126z M6.152,15.324h-4.8v-3.531h4.8V15.324z M6.152,10.387h-4.8V6.856h4.8V10.387z    M13.588,6.856h4.799v3.531h-4.799V6.856z M13.588,11.793h4.799v3.531h-4.799V11.793z M13.588,16.595h4.799v3.531h-4.799V16.595z    M7.481,6.856h4.799v3.531H7.481V6.856z M7.481,11.793h4.799v3.531H7.481V11.793z M7.481,16.595h4.799v3.531H7.481V16.595z    M24.519,25.149H7.481v-3.531h17.038V25.149z M24.519,20.126H19.72v-3.531h4.799V20.126z M24.519,15.324H19.72v-3.531h4.799V15.324   z M24.519,10.387H19.72V6.856h4.799V10.387z M30.647,25.149h-4.8v-3.531h4.8V25.149z M30.647,20.126h-4.8v-3.531h4.8V20.126z    M30.647,15.324h-4.8v-3.531h4.8V15.324z M30.647,10.387h-4.8V6.856h4.8V10.387z"/>
</g>
</svg>
