<?xml version="1.0" encoding="UTF-8"?>
<!DOCTYPE svg PUBLIC "-//W3C//DTD SVG 1.1 Tiny//EN" "http://www.w3.org/Graphics/SVG/1.1/DTD/svg11-tiny.dtd">
<svg width="84" height="58" viewBox="0 0 84 58">
<linearGradient id="_14" gradientUnits="userSpaceOnUse" x1="42.85" y1="35.57" x2="53.33" y2="56.21">
<stop stop-color="#A2C2DD" offset="0.1"/>
<stop stop-color="#6C83BB" offset="0.71"/>
<stop stop-color="#003D6D" offset="0.99"/>
</linearGradient>
<path fill="url(#_14)" d="M52.851,4.515C41.81,9.174,28.345,20.32,19.345,32.25c-0.344,0.606-3.117,5.686-3.717,11.319 l0.513,2.666l0.063,0.071c0.17,0.192,4.268,4.748,13.221,6.29c0.034,0.006,6.21-2.875,10.238-10.75c0.568,0.863,7,9.875,7,9.875 l3.813-3.063l0.875-2l-1.375-1.875l16.438,4.625l2.688-2.625l0.125-4.688l-1.563-0.438l1.563-1.125l-9.84-14.931l-3.317,0.928 l-3.736,2.844c0,0,1.119,1.499,1.747,2.341c-1.641-0.461-11.75-3.3-12.763-3.584c0.774-0.734,6.9-6.543,7.277-6.901 c1.45,1.171,4.572,2.96,7.657,3.648l0.121,0.027l0.11-0.055c2.146-1.063,6.06-5.527,6.439-7.041 c0.322-1.292,0.425-2.209,0.343-3.064c-0.458-4.837-3.236-7.98-3.551-8.322l-0.04-0.043L59.554,6.31 c-2.717-1.477-6.383-1.809-6.537-1.822L52.93,4.481L52.851,4.515z"/>
<linearGradient id="_15" gradientUnits="userSpaceOnUse" x1="71.89" y1="7.82" x2="42.56" y2="29.86">
<stop stop-color="#FFFFFF" offset="0"/>
<stop stop-color="#A2C2DD" offset="0.35"/>
<stop stop-color="#6C83BB" offset="0.7"/>
<stop stop-color="#003D6D" offset="1"/>
</linearGradient>
<path fill="url(#_15)" d="M62.588,14.413l-13.305,5.456l-0.854,0.815c1.283,1.113,5.227,3.174,7.732,3.738 c2.139-0.917,5.787-5.357,6.137-6.757C62.689,16.097,62.715,15.207,62.588,14.413z"/>
<linearGradient id="_16" gradientUnits="userSpaceOnUse" x1="63.87" y1="18.99" x2="43.28" y2="17.3">
<stop stop-color="#FFFFFF" offset="0"/>
<stop stop-color="#A2C2DD" offset="0.35"/>
<stop stop-color="#6C83BB" offset="0.7"/>
<stop stop-color="#003D6D" offset="1"/>
</linearGradient>
<path fill="url(#_16)" d="M54.787,13.582l-5.853,6.036c2.339,1.631,5.146,2.858,7.067,3.384L54.787,13.582z"/>
<linearGradient id="_17" gradientUnits="userSpaceOnUse" x1="65.67" y1="35.17" x2="9.55" y2="50.72">
<stop stop-color="#FFFFFF" offset="0"/>
<stop stop-color="#A2C2DD" offset="0.35"/>
<stop stop-color="#6C83BB" offset="0.7"/>
<stop stop-color="#003D6D" offset="1"/>
</linearGradient>
<path fill="url(#_17)" d="M40.796,35.303l-24.579,8.009l0.488,2.442c0,0,4.071,4.636,12.998,6.137 c5.971-3.993,9.822-9.814,10.861-13.349L40.796,35.303z"/>
<linearGradient id="_18" gradientUnits="userSpaceOnUse" x1="40.18" y1="57.51" x2="8.85" y2="25.26">
<stop stop-color="#FFFFFF" offset="0"/>
<stop stop-color="#A2C2DD" offset="0.35"/>
<stop stop-color="#6C83BB" offset="0.7"/>
<stop stop-color="#003D6D" offset="1"/>
</linearGradient>
<path fill="url(#_18)" d="M16.188,43.312c0.618-5.775,3.611-11.034,3.611-11.034l9.068,3.089l0.257,14.191 C22.171,48.517,18.438,45.503,16.188,43.312z"/>
<linearGradient id="_19" gradientUnits="userSpaceOnUse" x1="66.53" y1="9.94" x2="6.05" y2="34.17">
<stop stop-color="#FFFFFF" offset="0.05"/>
<stop stop-color="#A2C2DD" offset="1"/>
</linearGradient>
<path fill="url(#_19)" d="M19.799,32.277c1.369,1.297,5.07,3.657,8.924,3.317L59.213,6.74 c-2.656-1.477-6.406-1.799-6.406-1.799C42.432,9.317,28.945,20.148,19.799,32.277z"/>
<linearGradient id="_20" gradientUnits="userSpaceOnUse" x1="73.48" y1="-10.34" x2="38.02" y2="35.33">
<stop stop-color="#FFFFFF" offset="0.05"/>
<stop stop-color="#A2C2DD" offset="1"/>
</linearGradient>
<path fill="url(#_20)" d="M29.124,49.558c-0.791-2.932-1.118-10.75-0.396-14.053c8.354-12.221,20.379-23.137,30.43-28.817 c0,0,2.84,2.96,3.436,7.71c-0.698,3.003-4.182,6.813-6.598,8.592c-0.321-0.727-1.416-8.895-1.416-8.895 c-2.776,3.634-7.158,7.583-14.335,14.384c0.474,2.521,0.55,6.791,0.55,6.791C38.494,40.826,34.401,46.27,29.124,49.558z"/>
<polygon fill="#334EA2" points="45.238,42.507 49.828,48.267 50.589,46.86 47.356,41.922 "/>
<linearGradient id="_21" gradientUnits="userSpaceOnUse" x1="30.76" y1="17.86" x2="97" y2="93.21">
<stop stop-color="#E6EEF4" offset="0"/>
<stop stop-color="#575AC6" offset="0.44"/>
<stop stop-color="#003D6D" offset="0.94"/>
</linearGradient>
<polygon fill="url(#_21)" points="49.828,48.267 45.992,43.124 66.387,48.649 66.499,43.944 35.84,35.591 46.738,50.603 "/>
<linearGradient id="_22" gradientUnits="userSpaceOnUse" x1="50.25" y1="43.01" x2="53.53" y2="36.45">
<stop stop-color="#FFFFFF" offset="0"/>
<stop stop-color="#C0C6E8" offset="1"/>
</linearGradient>
<polygon fill="url(#_22)" points="68.614,42.485 39.814,34.621 35.848,35.599 66.465,44.122 "/>
<polygon fill-opacity="0.4" fill="#7B7FD1" points="67.392,42.189 39.814,34.621 37.772,35.081 66.243,43.085 "/>
<linearGradient id="_23" gradientUnits="userSpaceOnUse" x1="54.91" y1="12.66" x2="73.29" y2="60.69">
<stop stop-color="#E6EEF4" offset="0"/>
<stop stop-color="#575AC6" offset="0.44"/>
<stop stop-color="#003D6D" offset="0.94"/>
</linearGradient>
<polygon fill="url(#_23)" points="66.502,44.113 68.619,42.467 68.541,46.765 66.38,48.647 "/>
<linearGradient id="_24" gradientUnits="userSpaceOnUse" x1="45.94" y1="34.04" x2="48.08" y2="29.76">
<stop stop-color="#FFFFFF" offset="0"/>
<stop stop-color="#C0C6E8" offset="1"/>
</linearGradient>
<polygon fill="url(#_24)" points="55.683,32.579 39.768,28.108 36.309,29.093 57.484,35.165 "/>
<polygon fill="url(#_23)" points="59.185,26.154 56.316,26.845 65.975,42.28 68.299,40.489 "/>
<polygon fill="url(#_21)" points="52.865,29.475 56.701,34.618 36.309,29.093 36.195,33.795 65.964,42.267 56.316,26.845 "/>
</svg>