<?xml version="1.0" encoding="UTF-8"?>
<!DOCTYPE svg PUBLIC "-//W3C//DTD SVG 1.1 Tiny//EN" "http://www.w3.org/Graphics/SVG/1.1/DTD/svg11-tiny.dtd">
<svg width="96" height="96" viewBox="0 0 96 96">
<path d="M81.951,81.929L60.819,60.798c-0.844,0.843-6.581,5.673-12.816,5.673c-6.206,0-12.007-4.775-12.851-5.617 L14.079,81.954C23.136,91.012,35.18,96,47.993,96C60.819,96,72.88,91.003,81.951,81.929z" fill-opacity="0.01" />
<path d="M80.416,80.394L60.819,60.798c-1.254,1.253-6.934,5.673-12.816,5.673c-5.821,0-11.597-4.366-12.851-5.617 L15.615,80.419c8.646,8.647,20.145,13.41,32.378,13.41C60.239,93.829,71.755,89.058,80.416,80.394z" fill-opacity="0.02" />
<path d="M78.881,78.858L60.819,60.798c-1.664,1.663-7.296,5.673-12.816,5.673c-5.402,0-11.187-3.958-12.851-5.617 L17.15,78.884c8.236,8.237,19.19,12.773,30.843,12.773C59.659,91.657,70.628,87.112,78.881,78.858z" fill-opacity="0.04" />
<path d="M77.346,77.323L60.819,60.798c-2.074,2.072-7.771,5.673-12.816,5.673c-5.02,0-10.777-3.549-12.851-5.617 L18.686,77.349c7.825,7.826,18.235,12.138,29.308,12.138C59.079,89.486,69.504,85.167,77.346,77.323z" fill-opacity="0.07" />
<path d="M75.81,75.788l-14.99-14.99c-2.484,2.482-8.279,5.673-12.816,5.673c-4.498,0-10.367-3.141-12.851-5.617 L20.221,75.813c7.416,7.417,17.28,11.502,27.772,11.502C58.5,87.314,68.378,83.222,75.81,75.788z" fill-opacity="0.11" />
<path d="M47.993,85.144c9.926,0,19.26-3.867,26.281-10.891L60.819,60.798c-2.895,2.893-8.724,5.673-12.816,5.673 c-3.934,0-9.958-2.73-12.851-5.617L21.755,74.277C28.762,81.285,38.08,85.144,47.993,85.144z" fill-opacity="0.13" />
<path d="M48.001,65.492c4.824,0,9.191-1.953,12.356-5.111l12.356,12.382 c-13.648,13.649-35.788,13.639-49.45-0.024l12.369-12.369C38.798,63.535,43.171,65.492,48.001,65.492z" fill="#235487"/>
<linearGradient id="_3" gradientUnits="userSpaceOnUse" x1="48.03" y1="66.3" x2="48.03" y2="82.34">
<stop stop-color="#CADCEC" offset="0"/>
<stop stop-color="#87A8CB" offset="1"/>
</linearGradient>
<path d="M48.142,82.106c8.748,0,17.042-3.295,23.367-9.118c-1.029-1.041-10.65-10.519-11.587-11.469 c-3.341,3.1-7.106,4.778-11.667,4.778c-4.553,0-8.82-1.714-12.162-4.805c-0.937,0.95-10.521,10.449-11.549,11.49 C30.896,78.991,39.406,82.106,48.142,82.106z" fill="url(#_3)"/>
<path d="M24.443,72.984c13.22,12.265,33.886,12.253,47.093,0H70.49c-12.761,11.332-32.229,11.346-45.001,0 H24.443z" fill="#235487"/>
<linearGradient id="_4" gradientUnits="userSpaceOnUse" x1="47.99" y1="75.5" x2="47.99" y2="61.57">
<stop stop-color="#235487" offset="0.18"/>
<stop stop-color="#496DA2" offset="0.4"/>
<stop stop-color="#496DA2" offset="0.64"/>
<stop stop-color="#87A8CB" offset="0.9"/>
</linearGradient>
<path d="M25.515,73.006c0.896-0.881,9.974-9.879,10.69-10.588c3.435,2.605,7.591,4.072,11.821,4.072 c4.225,0,8.378-1.463,11.807-4.062c0.558,0.551,9.721,9.608,10.684,10.56h0.992c-1.32-1.306-10.482-10.375-11.587-11.469 c-3.36,2.725-7.522,4.271-11.896,4.271c-4.38,0-8.57-1.564-11.934-4.297c-1.105,1.093-10.301,10.208-11.623,11.513H25.515z" fill="url(#_4)"/>
<polygon fill="#235487" points="49.461,67.733 49.461,78.75 56.966,73.154 "/>
<polygon fill="#033275" points="49.461,67.733 49.882,68.57 56.587,73.447 56.966,73.154 "/>
<polygon fill="#033275" points="49.468,78.746 49.882,78.454 49.882,68.57 49.461,67.733 "/>
<rect fill="#235487" height="11.017" width="2.81" x="42.863" y="67.735"/>
<rect fill="#033275" height="0.443" width="2.81" x="42.863" y="67.731"/>
<polygon fill="#033275" points="45.237,78.75 45.675,78.75 45.675,67.737 45.23,67.737 "/>
</svg>