<?xml version="1.0" encoding="UTF-8"?>
<!DOCTYPE svg PUBLIC "-//W3C//DTD SVG 1.1 Tiny//EN" "http://www.w3.org/Graphics/SVG/1.1/DTD/svg11-tiny.dtd">
<svg baseProfile="tiny" height="44px" viewBox="-3.133 -3.611 44 44" width="44px" xmlns="http://www.w3.org/2000/svg" xmlns:xlink="http://www.w3.org/1999/xlink">
<path d="M33.639,36.776H16.971c-1.824,0-3.375-1.2-3.904-2.851C5.486,32.053,0,25.211,0,17.219 C0,7.725,7.723,0,17.217,0c9.102,0,16.574,7.098,17.178,16.048c1.9,0.354,3.342,2.027,3.342,4.027v12.602 C37.736,34.937,35.898,36.776,33.639,36.776L33.639,36.776z" fill="#FFFFFF" fill-opacity="0.6"/>
<linearGradient gradientUnits="userSpaceOnUse" id="SVGID_1" x1="17.22" x2="17.22" y1="-10.22" y2="22.42">
<stop offset="0" stop-color="#CCCCCC"/>
<stop offset="1" stop-color="#000000"/>
</linearGradient>
<path d="M17.219,32.639c-8.504,0-15.42-6.917-15.42-15.418c0-8.503,6.916-15.42,15.42-15.42 c8.502,0,15.418,6.917,15.418,15.42C32.637,25.722,25.721,32.639,17.219,32.639L17.219,32.639z" fill="url(#SVGID_1)" fill-opacity="0.7"/>
<radialGradient cx="17.16" cy="11.42" gradientUnits="userSpaceOnUse" id="SVGID_2" r="20.41">
<stop offset="0" stop-color="#E3F5FF"/>
<stop offset="0.34" stop-color="#13A9FF"/>
<stop offset="0.47" stop-color="#00A2FF"/>
<stop offset="0.9" stop-color="#004BB5"/>
<stop offset="1" stop-color="#004BB5"/>
</radialGradient>
<circle cx="17.217" cy="17.219" fill="url(#SVGID_2)" r="14.619"/>
<linearGradient gradientUnits="userSpaceOnUse" id="SVGID_3" x1="17.3" x2="17.3" y1="3.04" y2="38.38">
<stop offset="0" stop-color="#E3F5FF"/>
<stop offset="0.07" stop-color="#E3F5FF"/>
<stop offset="0.23" stop-color="#74CCFF"/>
<stop offset="0.47" stop-color="#00A2FF"/>
<stop offset="0.9" stop-color="#004BB5"/>
<stop offset="1" stop-color="#004BB5"/>
</linearGradient>
<path d="M28.107,10.93c0,4.311-4.799,7.782-10.703,7.782c-5.906,0-10.914-3.269-10.914-7.578 c0-4.312,5.008-8.034,10.914-8.034C23.309,3.1,28.107,6.618,28.107,10.93z" fill="url(#SVGID_3)"/>
<radialGradient cx="17.23" cy="6.12" gradientUnits="userSpaceOnUse" id="SVGID_4" r="22.88">
<stop offset="0" stop-color="#FFFFFF"/>
<stop offset="0.15" stop-color="#FFFFFF"/>
<stop offset="1" stop-color="#A7C1E5"/>
</radialGradient>
<path d="M13.055,3.201c1.32-0.39,2.717-0.602,4.162-0.602c1.123,0,2.217,0.128,3.268,0.368 c-1.41,0.301-2.953-0.061-2.953-0.061c-0.139,0.225-0.777,0.106-0.947,0.106s-1.043,0.723-1.863,0.651 c-0.395,0.253-0.744,0.536-1.17,0.396c-0.424-0.14-1.234,0.563-1.547,0.593c-0.42,0.132-0.619,0.102-0.68-0.022 C12.291,4.039,12.686,3.557,13.055,3.201z M28.938,21.867l-0.477,0.756c0,0-0.717,0.225-0.742,0.451 c-0.014,0.097-0.553,1.294-0.553,1.294s-0.211,0.663,0.395,0.468C28.818,24.422,29.643,21.728,28.938,21.867z M6.174,23.354 c0.207,0,0.738,0.064,0.803-0.129c0.006-0.082,0.08-2.081,0.08-2.081l0.795-1.059V19.24L5.779,17.9l-0.898-0.975 c0,0.004-0.348-1.052-0.674-1.35c-0.273-0.249-0.254-0.797-0.543-1.199c-0.264-0.364-0.477-0.57-0.645-0.649 c-1.336,5.409,0.736,10.01,2.674,12.489c0.279-0.397,0.5-0.84,0.668-1.231C6.537,24.581,5.482,24.013,6.174,23.354z M7.768,6.6 c0-0.263,0.432-0.394,0.432-0.394l0.057,0.207L8.648,6.58c0,0,0.469-0.508,0.564-0.638c0.092-0.131,0.262-0.636,0.262-0.636 l0.818-0.964c-1.838,0.988-3.438,2.36-4.697,4.009C6.1,7.952,7.768,6.862,7.768,6.6z M15.502,4.285 c0.184-0.035,0.605-0.232,0.605-0.232s-0.211-0.089-0.447-0.054c-0.238,0.035-0.58-0.144-0.766-0.056 C15.053,4.141,15.316,4.32,15.502,4.285z M31.338,13.425l-0.289-0.143L30.605,12.4l-0.703-0.056l-1.432-1.205 c0,0,0.379,0.971,1.01,1.429c0.408,0.029,0.686-0.026,0.705-0.006c0.449,1.183-0.51,2.634-1.623,2.902 c-0.141-0.604-0.262-0.843-0.441-1.358l-1.947-2.653l-0.113,0.282l0.9,1.368c0,0,0.637,1.069,0.898,1.686 c0.508,0.45,0.605,0.64,0.656,1.098c0.18,0.058,0.318,0.065,0.881-0.142c0.852-0.312,0.365,1.001,0.227,1.369 c-0.51,1.244-0.623,1.144-1.426,1.96c-1.242,0.876-0.576,2.405-0.631,3.642c0,0-1.252,0.842-1.715,1.024 c-0.432,0.613-0.01,1.195-0.225,1.21c-0.66,0.217-1.658,1.236-1.828,1.377c-0.594,0.764-0.957,0.872-1.654,0.814 c-1.943-0.549-1.359-2.567-1.443-2.793c-0.24-0.773-0.994-0.888-0.01-2.361c0.412-0.489,0.035-1.571-0.713-2.62 c-0.346-0.483,0.242-1.608,0.195-1.616c-1.256-0.234-1.516-0.8-1.572-0.942c0,0-2.561,0.513-3.443,0.438 c-0.678-0.053-2.141-1.807-2.424-2.457c-0.283-0.649,0.533-2.839,0.563-3.008c0.027-0.172,1.932-1.49,1.932-1.49l1.293-1.26 l-0.773-0.384c0,0,0.16-1.58,0.871-1.183c0.076,0.043,0.479,0.128,0.932,0.086c0.482-0.301-0.527-0.698-0.418-1.107 c0.029-0.097,0.398-0.142,0.025-0.48c-0.6-0.544-0.17-0.938,0.207-1.031c0.41,0.151,0.672,0.521,0.672,1.031 c0,0.508,1.344-0.234,1.424-0.32c-0.598-0.43-0.896-1.112-0.672-1.143c0.227-0.028,1.221-0.289,1.475-0.544 c0.254-0.253,2.141,0.235,2.367,0.263c0.227,0.028,0.158,0.245,0.412,0.245c0.086,0,0.457-0.099,0.906-0.223 C27.545,6.109,30.266,9.429,31.338,13.425z M20.855,5.563c0.146,0.13,0.637,0.399,0.709-0.04c0.072-0.442-0.389-1.115-0.389-1.115 s-0.465,0.114-0.348,0.415C20.947,5.121,20.709,5.433,20.855,5.563z M25.922,9.815c-0.313-0.263-2.023-0.151-2.508-1.274 l-0.246,0.033c0,0,0.162,0.793-0.033,0.78C22.67,9.319,22.189,8.49,22.189,8.49L22.102,8.14l-1.205-0.683 c0,0-0.006,0.202,0.932,1.026c0,0-0.316,0.54-0.738,0.57c0.107-0.139,0.186-0.563,0.186-0.563l-1.156-0.925 c0,0-1.012-0.132-1.266,0.083c-0.299,0.254-1.131,1.036-1.131,1.036l-1.156,0.412l1.043,0.165l1.072-0.319l1.678,0.112l0.273,0.791 c0,0,1.84,0.91,2.016,0.728c0.273-0.283,0.42-0.688,0.83-0.404c0.408,0.28,1.076,0.283,1.557,0.283 C25.236,10.508,25.941,10.978,25.922,9.815z M25.617,7.932c-0.205-0.111-0.502-0.272-0.344-0.479 c-0.135-0.22-0.432-0.066-0.641,0.164c-0.207,0.228-0.662-0.104-0.801,0.318s0.555,0.619,0.652,0.427c0,0,0.441-0.081,0.873,0.086 C26.578,8.693,26.195,8.245,25.617,7.932z M28.139,9.254c-0.395-0.528-0.809-0.942-0.9-1.074c-0.174-0.243,0.1-0.758-0.361-0.536 c-0.27,0.48-0.012,0.67,0.459,1.107c0.328,0.306,0.188,0.536,0.404,0.73C27.959,9.674,28.465,9.696,28.139,9.254z" fill="url(#SVGID_4)"/>
<linearGradient gradientUnits="userSpaceOnUse" id="SVGID_5" x1="18.32" x2="18.32" y1="7.71" y2="26.38">
<stop offset="0" stop-color="#FFFFFF"/>
<stop offset="0.15" stop-color="#FFFFFF"/>
<stop offset="1" stop-color="#A7C1E5"/>
</linearGradient>
<path d="M13.551,4.061c0.502,0.185,1.17-0.396,1.17-0.396c0.681,0.071,1.588-0.523,1.588-0.523 c-1.574,0.117-3.041,0.489-4.338,1.05c0,0-0.395,0.285-0.646,0.439c0,0,0.093,0.2,0.68,0.022 C12.316,4.623,13.131,3.906,13.551,4.061z M8.648,6.58c0,0,0.375-0.374,0.609-0.724c-0.374,0.299-0.715,0.68-0.715,0.68L8.648,6.58z M27.635,8.637c-0.131-0.313-0.471-0.909-0.471-0.909s-0.016,0.328,0.074,0.452L27.635,8.637z M27.559,13.341 c0,0,0.88-1.698,0.373-3.756L27.74,9.481c-0.217-0.194-0.076-0.425-0.404-0.73c0,0-0.845-0.597-0.459-1.107l0.201-0.045 c-0.834-1.297-2.135-2.403-3.756-3.192l-0.279,0.058c-0.254,0-0.186-0.217-0.412-0.245c0,0-2.104-0.506-2.367-0.263 C19.896,4.297,18.789,4.5,18.789,4.5s-0.383,0.242,0.672,1.143c0,0-1.386,0.844-1.424,0.32c0,0,0.025-0.801-0.672-1.031 c0,0-0.996,0.294-0.207,1.031c0.345,0.281-0.025,0.48-0.025,0.48c-0.109,0.409,0.9,0.807,0.418,1.107 c-0.469,0.043-0.932-0.086-0.932-0.086c-0.711-0.397-0.871,1.183-0.871,1.183l0.773,0.384l-1.293,1.26c0,0-1.8,1.237-1.932,1.49 c0,0-0.846,2.358-0.563,3.008c0,0,1.178,2.086,2.424,2.457c0.883,0.075,3.443-0.438,3.443-0.438s0.264,0.729,1.572,0.942 l-0.234,0.73c3.389-0.602,6.141-2.38,7.404-4.71c-0.203-0.461-1.283-2.036-1.283-2.036l0.113-0.282L27.559,13.341z M20.828,4.823 c-0.117-0.301,0.348-0.415,0.348-0.415s0.461,0.673,0.389,1.115c-0.072,0.439-0.563,0.17-0.709,0.04 C20.709,5.433,20.947,5.121,20.828,4.823z M25.035,10.452c-0.48,0-1.148-0.003-1.557-0.283c-0.41-0.283-0.557,0.121-0.83,0.404 c-0.176,0.183-2.016-0.728-2.016-0.728l-0.273-0.791l-1.678-0.112l-1.072,0.319l-1.043-0.165l1.156-0.412 c0,0,0.832-0.782,1.131-1.036c0.254-0.215,1.266-0.083,1.266-0.083l1.156,0.925c0,0-0.078,0.425-0.186,0.563 c0.422-0.03,0.738-0.57,0.738-0.57c-0.938-0.824-0.932-1.026-0.932-1.026l1.205,0.683l0.088,0.351c0,0,0.48,0.829,0.945,0.864 c0.195,0.013,0.033-0.78,0.033-0.78l0.246-0.033c0.484,1.123,2.195,1.012,2.508,1.274C25.941,10.978,25.236,10.508,25.035,10.452z M25.357,8.447c-0.432-0.167-0.873-0.086-0.873-0.086c-0.098,0.192-0.791-0.005-0.652-0.427s0.594-0.091,0.801-0.318 c0.209-0.23,0.506-0.384,0.641-0.164c-0.158,0.207,0.139,0.368,0.344,0.479C26.195,8.245,26.578,8.693,25.357,8.447z M14.895,3.943 c0.228,0.328,0.622,0.354,0.622,0.354l0.591-0.244L15.66,3.999C15.422,4.034,15.08,3.855,14.895,3.943z" fill="url(#SVGID_5)"/>
<linearGradient gradientUnits="userSpaceOnUse" id="SVGID_6" x1="25.3" x2="25.3" y1="11.07" y2="29.28">
<stop offset="0" stop-color="#CCCCCC"/>
<stop offset="1" stop-color="#000000"/>
</linearGradient>
<path d="M33.637,34.977H16.971c-1.268,0-2.299-1.031-2.299-2.3V20.074 c0-1.269,1.031-2.3,2.299-2.3h16.666c1.27,0,2.301,1.031,2.301,2.3v12.603C35.938,33.945,34.906,34.977,33.637,34.977L33.637,34.977 z" fill="url(#SVGID_6)" fill-opacity="0.7"/>
<linearGradient gradientUnits="userSpaceOnUse" id="SVGID_7" x1="25.3" x2="25.3" y1="38.91" y2="20.41">
<stop offset="0" stop-color="#FFFFD6"/>
<stop offset="1" stop-color="#FFB700"/>
</linearGradient>
<path d="M35.137,32.677c0,0.824-0.674,1.499-1.5,1.499H16.971c-0.824,0-1.5-0.675-1.5-1.499V20.074 c0-0.824,0.676-1.499,1.5-1.499h16.666c0.826,0,1.5,0.675,1.5,1.499V32.677z" fill="url(#SVGID_7)"/>
<linearGradient gradientUnits="userSpaceOnUse" id="SVGID_8" x1="25.34" x2="25.34" y1="36.58" y2="23.19">
<stop offset="0" stop-color="#FFFFFF"/>
<stop offset="0.51" stop-color="#FFB700"/>
<stop offset="1" stop-color="#CC4B00"/>
</linearGradient>
<path d="M35.131,31.736l-5.268-6.647l-9.115,0.005l-5.201,6.643c0,0-0.425,2.364,1.5,2.425h16.602 C35.568,34.161,35.131,31.736,35.131,31.736z" fill="url(#SVGID_8)"/>
<linearGradient gradientUnits="userSpaceOnUse" id="SVGID_9" x1="18.12" x2="18.12" y1="43.64" y2="22.59">
<stop offset="0" stop-color="#FFFFFF"/>
<stop offset="0.51" stop-color="#FFB700"/>
<stop offset="1" stop-color="#CC4B00"/>
</linearGradient>
<polygon fill="url(#SVGID_9)" points="15.444,31.114 20.023,25.269 20.793,25.87 15.479,32.675 "/>
<polygon fill="url(#SVGID_9)" points="30.022,26.071 30.789,25.464 35.137,30.978 35.17,32.573 "/>
<linearGradient gradientUnits="userSpaceOnUse" id="SVGID_11" x1="25.31" x2="25.31" y1="15.29" y2="30.91">
<stop offset="0" stop-color="#FFFFFF"/>
<stop offset="0.51" stop-color="#FFB700"/>
<stop offset="1" stop-color="#CC4B00"/>
</linearGradient>
<path d="M35.121,21.268l-5.98,6.051c-0.578,0.589-1.727,1.069-2.553,1.069H24.42 c-0.826,0-1.986-0.47-2.58-1.041l-6.352-6.09c0.041-0.55-0.495-2.691,1.498-2.691h16.645C35.67,18.565,35.085,20.759,35.121,21.268z " fill="url(#SVGID_11)"/>
<linearGradient gradientUnits="userSpaceOnUse" id="SVGID_12" x1="25.34" x2="25.34" y1="18.99" y2="23">
<stop offset="0" stop-color="#FFFFFF"/>
<stop offset="1" stop-color="#FFBB0F"/>
</linearGradient>
<polygon fill="url(#SVGID_12)" points="31.605,22.563 19.179,22.563 16.215,19.551 34.465,19.551 "/>
<linearGradient gradientUnits="userSpaceOnUse" id="SVGID_13" x1="25.32" x2="25.32" y1="13.15" y2="29.72">
<stop offset="0" stop-color="#FFFFFF"/>
<stop offset="0.51" stop-color="#FFB700"/>
<stop offset="1" stop-color="#CC4B00"/>
</linearGradient>
<path d="M24.42,28.876c-1.002-0.018-2.19-0.496-2.919-1.178l0,0l-6.069-5.807l0.029-1.353l6.717,6.455 c0.458,0.463,1.59,0.919,2.242,0.904l0,0h2.167c0.646,0.017,1.764-0.451,2.206-0.923l0,0l6.411-6.522l-0.037,1.457l-5.679,5.75 c-0.716,0.704-1.896,1.198-2.901,1.216l0,0H24.42L24.42,28.876z" fill="url(#SVGID_13)"/>
<rect fill="none" height="44" width="44" x="-3.133" y="-3.611"/>
</svg>
