<?xml version="1.0" encoding="UTF-8"?>
<!DOCTYPE svg PUBLIC "-//W3C//DTD SVG 1.1 Tiny//EN" "http://www.w3.org/Graphics/SVG/1.1/DTD/svg11-tiny.dtd">
<svg width="42" height="29" viewBox="0 0 42 29">
<linearGradient id="_4" gradientUnits="userSpaceOnUse" x1="18.29" y1="8.77" x2="27.4" y2="19.73">
<stop stop-color="#B3DDFF" offset="0"/>
<stop stop-color="#084296" offset="1"/>
</linearGradient>
<path fill="url(#_4)" d="M17.147,24.949l-0.135-1.293l-1.81,2.516 C5.537,21.361,6.861,12.358,9.95,9.4l2.25,0.84l-0.521-2.13c3.567-4.138,9.945-7.926,18.263-5.638 c8.826,2.428,9.745,13.212,3.134,19.197C26.544,27.584,18.869,25.877,17.147,24.949z"/>
<path fill="#5AA7E0" d="M28.986,2.951c-5.739-1.839-13.241,0.591-16.639,5.466l10.446,3.406 C22.793,11.823,29.018,2.961,28.986,2.951z"/>
<polygon fill="#3366CC" points="22.939,14.576 29.213,5.095 28.962,2.919 22.759,11.799 "/>
<polygon fill="#0046B7" points="22.759,11.799 12.347,8.417 12.902,10.99 22.939,14.576 "/>
<path fill="#CFECFF" d="M14.354,22.2c-5.739-1.839-7.636-7.282-4.237-12.157l10.446,3.406L14.354,22.2z"/>
<path fill="#0046B7" d="M14.354,22.2c-2.814-0.89-4.872-2.862-5.767-5.726 c0.269,2.059,1.92,6.195,6.382,8.229L14.354,22.2z"/>
<polygon fill="#5AA7E0" points="20.711,16.202 14.97,24.703 14.354,22.2 20.531,13.424 "/>
<path fill="#5AA7E0" d="M33.902,15.383c3.38-4.848,1.523-10.258-4.142-12.126l-6.193,8.872L33.902,15.383z "/>
<polygon fill="#0046B7" points="33.902,15.383 23.567,12.129 23.715,14.881 34.169,18.355 "/>
<path fill="#B3DDFF" d="M33.902,15.383c0,0,2.795-3.928,1.056-7.826c1.896,3.688,1.106,6.321,1.106,6.321 s-0.21,1.948-1.896,4.478L33.902,15.383z"/>
<linearGradient id="_5" gradientUnits="userSpaceOnUse" x1="19.33" y1="22.76" x2="25.74" y2="16.9">
<stop stop-color="#B3DDFF" offset="0"/>
<stop stop-color="#5AA7E0" offset="1"/>
</linearGradient>
<path fill="url(#_5)" d="M16.826,21.572c5.738,1.841,13.146-0.62,16.544-5.496l-10.334-3.254 L16.826,21.572z"/>
<linearGradient id="_6" gradientUnits="userSpaceOnUse" x1="35.83" y1="18.39" x2="14.82" y2="24.27">
<stop stop-color="#B3DDFF" offset="0"/>
<stop stop-color="#5AA7E0" offset="0.53"/>
<stop stop-color="#0046B7" offset="1"/>
</linearGradient>
<path fill="url(#_6)" d="M17.441,24.076l-0.615-2.504c4.537,1.586,12.908-0.092,16.544-5.496 l0.267,2.973C31.114,22.545,24.945,26.214,17.441,24.076z"/>
<path fill="#FFFFFF" d="M6.896,17.179c-1.388,0-3.288,0.329-3.77,3.176l-0.072,0.43c0,0,3.196,0,3.575,0 c0.115,0.206,0.286,0.514,0.394,0.711c-0.107,0.196-0.279,0.503-0.394,0.709c-0.379,0-3.575,0-3.575,0l0.072,0.43 c0.481,2.847,2.382,3.176,3.77,3.176c1.094,0,2.069-0.917,2.852-1.655c0.423-0.399,0.823-0.775,1.035-0.775h9.791l0.109-0.119 c0.21-0.231,0.698-0.863,0.709-1.75v-0.031c-0.011-0.887-0.499-1.519-0.709-1.75l-0.109-0.119h-9.791 c-0.211,0-0.611-0.376-1.033-0.773C8.966,18.097,7.991,17.179,6.896,17.179z"/>
<path fill="#0046B7" d="M21.025,21.495c0-0.004,0.001-0.009,0.001-0.011h-0.002c-0.009-0.771-0.452-1.33-0.614-1.508 c-0.207,0-9.627,0-9.627,0c-0.358,0-0.747-0.365-1.287-0.874c-0.735-0.693-1.651-1.556-2.6-1.556 c-1.54,0-2.997,0.452-3.406,2.869c0.579,0,3.357,0,3.357,0l0.597,1.079l-0.597,1.077c0,0-2.778,0-3.357,0 c0.409,2.417,1.866,2.869,3.406,2.869c0.949,0,1.865-0.862,2.6-1.556c0.541-0.507,0.929-0.874,1.287-0.874c0,0,9.42,0,9.627,0 c0.162-0.178,0.605-0.734,0.614-1.506h0.002C21.026,21.502,21.025,21.498,21.025,21.495z"/>
</svg>