<?xml version="1.0" encoding="UTF-8"?>
<!DOCTYPE svg PUBLIC "-//W3C//DTD SVG 1.1 Tiny//EN" "http://www.w3.org/Graphics/SVG/1.1/DTD/svg11-tiny.dtd">
<svg width="100%" height="100%" viewBox="-0.462 -0.159 88 88">
<linearGradient id="_14" gradientUnits="userSpaceOnUse" x1="36.42" y1="70.63" x2="36.9" y2="81.69">
<stop stop-color="#A2C2DD" offset="0.1"/>
<stop stop-color="#6C83BB" offset="0.71"/>
<stop stop-color="#003D6D" offset="0.99"/>
</linearGradient>
<path fill="url(#_14)" d="M38.097,62.952l-4.231,5.515l-4.72-0.381c-0.676-0.058-0.979,0.812-0.521,1.221l3.867,3.429 c0,0-0.165,6.862-0.165,6.869c0,0.53,0.592,1.028,1.163,0.524l5.767-5.095l4.539,0.218c0.844,0.04,0.857-0.875,0.521-1.201 l-3.943-3.838l-1.029-6.938C39.263,62.72,38.447,62.496,38.097,62.952z"/>
<linearGradient id="_15" gradientUnits="userSpaceOnUse" x1="54.65" y1="54.05" x2="65.3" y2="66.45">
<stop stop-color="#A2C2DD" offset="0.1"/>
<stop stop-color="#6C83BB" offset="0.71"/>
<stop stop-color="#003D6D" offset="0.99"/>
</linearGradient>
<path fill="url(#_15)" d="M34.916,14.145l-3.325,11.297l-8.453-1.451l-7.789,2.845c0,0,4.328,18.699,4.416,19.078 c-0.117,0.347-2.736,8.148-2.953,8.794c-0.471,0.127-5.424,1.457-8.299,2.229c-0.757,0.203-0.729,1.074,0.006,1.369 c2.968,1.19,8.158,3.272,8.555,3.433c0.15,0.443,2.611,7.686,3.749,11.026c0.29,0.854,0.979,0.948,1.452,0.122 c1.926-3.354,6.334-11.029,6.541-11.389c0.447-0.137,3.652-1.113,4.002-1.221c0.404,0.123,31.684,9.713,31.684,9.713l14.831-45.45 c0,0-18.588-2.805-19.749-2.979c0.039-1.008,0.234-6.09,0.234-6.09l-19.93-2.92L34.916,14.145z"/>
<linearGradient id="_16" gradientUnits="userSpaceOnUse" x1="23.15" y1="41.71" x2="74.32" y2="41.71">
<stop stop-color="#FFFFFF" offset="0.15"/>
<stop stop-color="#A2C2DD" offset="1"/>
</linearGradient>
<polygon fill="url(#_16)" points="23.147,56.579 35.505,14.618 55.604,17.843 55.46,24.069 74.317,27.231 64.044,68.802 "/>
<linearGradient id="_17" gradientUnits="userSpaceOnUse" x1="51.42" y1="55.68" x2="14.06" y2="24.04">
<stop stop-color="#E2E6E4" offset="0"/>
<stop stop-color="#A3740A" offset="1"/>
</linearGradient>
<polygon fill="url(#_17)" points="64.046,68.407 22.946,56.56 16.169,27.28 57.083,35.479 "/>
<linearGradient id="_18" gradientUnits="userSpaceOnUse" x1="39.6" y1="30.59" x2="44.6" y2="19.26">
<stop stop-color="#E2E6E4" offset="0"/>
<stop stop-color="#A3740A" offset="1"/>
</linearGradient>
<polygon fill="url(#_18)" points="64.005,31.714 23.202,24.714 16.169,27.28 57.19,35.638 "/>
<linearGradient id="_19" gradientUnits="userSpaceOnUse" x1="46.26" y1="18.21" x2="48.63" y2="11.79">
<stop stop-color="#FFFFFF" offset="0.05"/>
<stop stop-color="#A2C2DD" offset="1"/>
</linearGradient>
<polygon fill="url(#_19)" points="59.095,16.073 39.942,13.267 35.542,14.638 55.604,17.843 "/>
<linearGradient id="_20" gradientUnits="userSpaceOnUse" x1="65.86" y1="27.51" x2="68.28" y2="20.94">
<stop stop-color="#FFFFFF" offset="0.05"/>
<stop stop-color="#A2C2DD" offset="1"/>
</linearGradient>
<polygon fill="url(#_20)" points="78.409,25.108 58.858,22.159 55.46,24.069 74.317,27.231 "/>
<linearGradient id="_21" gradientUnits="userSpaceOnUse" x1="74.1" y1="46.92" x2="57.6" y2="52.65">
<stop stop-color="#E6EEF4" offset="0"/>
<stop stop-color="#A3740A" offset="0.44"/>
<stop stop-color="#474105" offset="0.94"/>
</linearGradient>
<polygon fill="url(#_21)" points="64.005,31.714 64.048,69.12 57.085,35.694 "/>
<linearGradient id="_22" gradientUnits="userSpaceOnUse" x1="54" y1="30.54" x2="76.05" y2="51.58">
<stop stop-color="#A2C2DD" offset="0.1"/>
<stop stop-color="#6C83BB" offset="0.71"/>
<stop stop-color="#003D6D" offset="0.99"/>
</linearGradient>
<polygon fill="url(#_22)" points="78.409,25.108 64.062,68.866 74.317,27.231 "/>
<linearGradient id="_23" gradientUnits="userSpaceOnUse" x1="32.59" y1="7.04" x2="81.05" y2="32.62">
<stop stop-color="#FFFFFF" offset="0"/>
<stop stop-color="#A2C2DD" offset="0.35"/>
<stop stop-color="#6C83BB" offset="0.7"/>
<stop stop-color="#003D6D" offset="1"/>
</linearGradient>
<polygon fill="url(#_23)" points="55.604,17.843 55.46,24.069 58.858,22.159 59.095,16.073 "/>
<linearGradient id="_24" gradientUnits="userSpaceOnUse" x1="33.67" y1="63.92" x2="67.67" y2="28.59">
<stop stop-color="#E2E6E4" offset="0"/>
<stop stop-color="#A3740A" offset="1"/>
</linearGradient>
<polygon fill="url(#_24)" points="23.147,56.579 30.886,30.29 57.142,35.687 64.062,68.866 "/>
<polygon fill="#8B2E74" points="38.649,63.378 39.716,70.549 37.711,70.954 "/>
<polygon fill="#3D013F" points="36.745,74.214 33.026,79.602 39.06,74.274 "/>
<polygon fill="#E0D6E6" points="37.711,70.954 39.716,70.549 43.716,74.507 "/>
<linearGradient id="_25" gradientUnits="userSpaceOnUse" x1="34.02" y1="61.38" x2="37.69" y2="77.05">
<stop stop-color="#E4E6EF" offset="0"/>
<stop stop-color="#BA4C96" offset="1"/>
</linearGradient>
<polygon fill="url(#_25)" points="38.649,63.378 37.711,70.954 43.828,74.551 36.745,74.214 33.026,79.602 33.199,72.424 29.088,68.782 34.187,69.194 "/>
<polygon fill="#5E1B67" points="21.595,42.656 27.294,54.253 24.22,56.108 "/>
<polygon fill="#3D013F" points="24.554,62.065 21.552,72.739 28.414,60.792 "/>
<polygon fill="#D7CEE6" points="24.22,56.108 27.294,54.253 36.247,58.424 "/>
<linearGradient id="_26" gradientUnits="userSpaceOnUse" x1="15.73" y1="44.36" x2="25.16" y2="63.11">
<stop stop-color="#DEDEED" offset="0"/>
<stop stop-color="#9646AC" offset="1"/>
</linearGradient>
<polygon fill="url(#_26)" points="21.595,42.656 24.22,56.108 36.459,58.434 24.554,62.065 21.552,72.739 17.632,61.208 8.681,57.616 17.354,55.286 "/>
</svg>