<?xml version="1.0" encoding="utf-8"?>
<!DOCTYPE svg PUBLIC "-//W3C//DTD SVG 1.1 Tiny//EN" "http://www.w3.org/Graphics/SVG/1.1/DTD/svg11-tiny.dtd">
<svg width="100%" height="100%" viewBox="0 0 88 88">
<linearGradient id="_82" gradientUnits="userSpaceOnUse" x1="32.3" y1="29.94" x2="55.47" y2="57.79">
<stop stop-color="#DEE9F3" offset="0"/>
<stop stop-color="#235487" offset="1"/>
</linearGradient>
<circle fill="url(#_82)" cx="44" cy="44" r="30.997"/>
<radialGradient id="_83" gradientUnits="userSpaceOnUse" cx="49.9" cy="24.72" r="55.32">
<stop stop-color="#FFFFFF" offset="0"/>
<stop stop-color="#A2C2DD" offset="0.53"/>
<stop stop-color="#6C83BB" offset="0.87"/>
<stop stop-color="#003D6D" offset="1"/>
</radialGradient>
<circle fill="url(#_83)" cx="44" cy="43.998" r="29.9"/>
<radialGradient id="_84" gradientUnits="userSpaceOnUse" cx="50.31" cy="27.77" r="37.63">
<stop stop-color="#E6EEF4" offset="0"/>
<stop stop-color="#4A9900" offset="0.44"/>
<stop stop-color="#0E4E58" offset="0.94"/>
</radialGradient>
<path fill="url(#_84)" d="M64.252,43.602c-0.118-0.06-0.005-1.054-0.335-0.616c-0.286,0.381-0.556,0.875-0.294,1.471c0.261,0.598,0.29,0.576,0.641-0.139C64.611,43.602,64.37,43.661,64.252,43.602z M45.662,54.975l-1.673,1.697c0,0-1.217-0.089-1.192,0.354c0.009,0.188,0.09,1.008-0.03,1.414c-0.355,0.229-0.682,1.043-0.682,1.043s0.059,1.625,1.346,1.443c1.287-0.182,2.872-3.492,2.872-3.492S47.132,54.807,45.662,54.975z M70.073,42.86c0.61,1.644,0.834,3.299,1.647,3.9c-0.107-0.455-0.158-1.982-0.158-1.982c-0.35-0.952-0.434-0.045-1.021-1.798c-0.344-1.028,0.1-3.13,0.511-1.657c0.164,0.583,0.306,0.903,0.573,1.667c1.41-1.886,0.904-3.788-0.023-4.49c-0.44-1.965-0.154-2.116-0.154-2.116c0.004,0.021,0.005,0.036,0.006,0.047c0.005-0.078,0.063-0.368,0.512-0.679c0.268-1.117-0.052-2.36-0.208-2.865c-0.034-0.083-0.065-0.167-0.1-0.251c-0.244-0.595-0.507-1.181-0.788-1.756c-0.057-0.115-0.116-0.227-0.174-0.34c-0.248-0.49-0.51-0.972-0.782-1.446c-0.074-0.128-0.146-0.259-0.224-0.387c-0.32-0.54-0.66-1.069-1.015-1.586c-0.085-0.124-0.174-0.245-0.262-0.368c-0.302-0.427-0.615-0.845-0.938-1.255c-0.097-0.122-0.189-0.247-0.287-0.367c-0.39-0.477-0.793-0.94-1.209-1.392c-0.117-0.127-0.238-0.251-0.357-0.376c-0.348-0.363-0.702-0.716-1.064-1.062c-0.119-0.112-0.234-0.227-0.354-0.337c-0.444-0.408-0.902-0.8-1.371-1.181c-0.151-0.123-0.308-0.242-0.46-0.361c-0.381-0.297-0.77-0.585-1.164-0.863c-0.141-0.1-0.277-0.203-0.42-0.299c-0.492-0.334-0.996-0.651-1.508-0.956c-0.184-0.109-0.37-0.215-0.557-0.32c-0.412-0.233-0.828-0.456-1.25-0.669c-0.16-0.081-0.314-0.166-0.476-0.244c-0.532-0.257-1.075-0.495-1.624-0.72c-0.213-0.088-0.428-0.171-0.643-0.253c-0.439-0.169-0.885-0.328-1.334-0.477c-0.179-0.059-0.354-0.124-0.533-0.179c-0.559-0.173-1.127-0.325-1.699-0.466c-0.234-0.058-0.473-0.112-0.71-0.164c-0.474-0.104-0.952-0.197-1.435-0.278c-0.231-0.039-0.463-0.079-0.695-0.112c-0.538-0.078-1.081-0.14-1.629-0.188c-0.248-0.022-0.498-0.041-0.748-0.057c-0.521-0.034-1.047-0.054-1.575-0.061c-0.124-0.001-0.247-0.009-0.371-0.009c-0.165,0-0.327,0.01-0.491,0.012c-0.437,0.007-0.871,0.021-1.302,0.046c-0.269,0.016-0.535,0.038-0.801,0.061c-0.375,0.032-0.747,0.072-1.118,0.119c-0.242,0.03-0.486,0.056-0.726,0.092c-0.559,0.083-1.112,0.181-1.66,0.294c-0.22,0.045-0.437,0.101-0.655,0.151c-0.375,0.087-0.749,0.179-1.118,0.279c-0.113,0.031-0.226,0.064-0.338,0.096l7.653-0.353l3.333,0.116l4.258,0.437l1.896,0.689c0,0-1.332,0.208-2.263,0.603c0,0,0.24-0.789-0.583-0.509c-1.279,0.435-2.427,0.75-3.359,0.821c-0.49,0.038-1.511-0.15-3.742,0.178c-0.401-0.016,1.041-0.437,0.719-0.516c-0.321-0.081-4.858-0.749-6.015-0.049c-0.797,0.482-2.626,1.128-3.021,1.181c-0.391,0.053-1.284,0.309-1.285,1.969c-0.24,0.193-4.196,2.711-3.546,1.52c0.65-1.191,2.377-3.3,0.962-2.19c-1.017,0.797-1.654,0.273-1.67,1.22c-0.018,0.948-0.292,0.673-0.479,0.878c-0.477,0.521-0.729,0.772-1.426,2.302c-0.697,1.526-1.35,1.219-1.488,0.874c-0.369-0.922-1.25,0.461-1.459,0.809c-0.209,0.346-0.962,1.262-0.962,1.262l0.696,0.747l0.689-0.172l1.035-0.518c0,0,1.492-1.413,2.128-1.955c0.539-0.46,1.935-0.263,1.935-0.263l1.683,1.536c0,0-0.667,1.407-0.914,1.71c0.76-0.048,1.897-1.706,1.897-1.706c-1.325-1.825-1.036-1.968-1.036-1.968l1.7,1.379l0.017,0.019c0,0,0.479,2.475,0.833,2.48c0.351,0.007,0.958-1.521,0.958-1.521l0.92-0.172c0.148,0.78,0.186,2.386,0.847,1.989c0.378-0.228,1.12-0.16,1.725,0.16c0.606,0.318,1.123-0.143,1.568,0.438c-0.449,2.529-1.709,1.641-2.044,1.513c-1.463-0.018-3.727,0.093-4.338-0.535c-0.608-0.627-1.257,0.039-1.858,0.645c-0.391,0.395-1.564-0.195-1.822-0.816c-0.258-0.623-1.444-0.6-1.444-0.6l0.622-1.438l-3.001-0.358l-0.892,0.44L24.01,27.24l-2.588,2.473c0,0-3.109,2.987-3.162,3.335c-0.053,0.346-2.074,4.766-1.553,6.095c0.521,1.33,0.478,3.51,1.725,3.623c1.635,0.147,3.853-0.173,3.853-0.173c0.106,0.29,0.052,1.136,0.052,1.136s1.271,0.417,1.961,0.417c0.23,1.208-0.86,2.389-0.223,3.377c1.384,2.147,1.891,3.351,1.945,5.291c-1.346,2.237,0.285,4.047,0.63,4.783c0.242,0.454,1.385,3.051,2.822,4.373c1.264,2.521,1.579,1.391,2.719,1.805c1.333,0.119,2.438,0.473,3.277-1.063c0.271-0.282,0.523-0.149,0.789-0.453c0.402-0.46,0.385-0.942,0.518-1.553c0.236-0.126,0.805-0.215,1.212-0.44c0.402-0.031-0.603-1.195-0.014-2.431c0.806-0.368,3.114-1.786,3.114-1.786c-0.115-3.736-2.185-5.117,0.806-7.531c2.703-2.014,4.082-2.703,5.462-5.062c1.318-1.639,0.672-2.374-0.998-1.911c-1.57,0.436-2.97,0.531-3.084-0.101c-0.095-0.94-1.366-1.668-2.301-2.588c-0.483-1.265-0.92-3.048-0.92-3.048l-1.568-2.946l0.764-0.618l1.897,3.853l1.489,2.056c0.727,2.646,0.753,2.717,0.753,2.717c3.335-0.575,5.405-1.438,5.405-1.438s3.795-2.186,4.313-3.393c0.17-0.397-2.363-2.134-2.363-2.134c-1.649,1.007-1.901,0.671-1.901,0.671l-0.543-0.652l-1.237-1.019l-0.623-1.04l0.783-0.419l1.09,1.453l1.48,0.574c0,0,1.074-0.246,1.593,0.292c0.452,0.616,1.271,0.762,1.271,0.762s3.052-0.079,3.83-0.156c0,0,1.646,2.426,2.379,2.541l0.753-0.694l0.364,1.926c-0.008,1.542,1.75,4.163,1.75,4.163l0.572,1.43c2.01-1.234,1.307-4.47,1.307-4.47l1.166-0.427c0,0,0.545-2.149,1.67-2.283c1.035-0.115,1.554,0.229,1.904,1.428c-0.106,1.588,0.57,1.204,1.145,0.872l0.689,2.128L70.073,42.86z M36.407,20.221c-0.651,0.883-1.641,0.341-1.543,0.027c0.099-0.312,1.497-0.997,2.16-1.694c0.662-0.697,1.936-0.916,1.936-0.916s-0.803,0.718-0.978,1.093C37.806,19.108,37.063,19.338,36.407,20.221z M40.829,25.899c-0.961-0.366-2.31-0.163-2.31-0.163c-0.537,0.435-2.188,0.014-1.213-0.944c0.976-0.959,1.784-1.432,1.997-0.68c0.03,0.31,1.104,0.759,1.23,0.098s1.384-1.049,1.456-0.561c-0.728,0.476-0.136,0.834,0.283,1.077C43.448,25.412,43.879,26.414,40.829,25.899z M47.059,27.925c-0.468-0.47,0.512-0.865-0.168-1.604c-0.974-1.06-1.604-1.541,0.359-2.379c2.197-0.245,0.161,0.657,0.359,1.211c0.105,0.295,0.91,1.283,1.412,2.49C49.439,28.648,47.523,28.396,47.059,27.925z M73.887,43.445c-0.037,0.009-0.074,0.047-0.104,0.13c-0.577,1.682-1.438,2.551-1.438,2.551l0.336,1.956c0,0,0.646,0.408,0.911,0.186c0.007-0.051,0.013-0.102,0.019-0.15c0.08-0.564,0.139-1.135,0.186-1.708c0.012-0.152,0.023-0.304,0.034-0.456c0.042-0.646,0.069-1.296,0.069-1.952C73.9,43.814,73.891,43.63,73.887,43.445z M71.725,49.834l0.012-1.777l-0.154-0.207c0,0-0.121,0.586-0.219-0.031c-0.262-1.644-1.234-2.659-1.693-3.145c-0.24-0.255-0.077,0.576-0.077,0.576c0.708,1.111,0.735,1.91,1.007,3.01c0.241,0.977,1,1.514,1,1.514l0.012,0.449c0.568,0.709,1.523,0.34,1.563,0.323c0.017-0.073,0.034-0.146,0.05-0.219C73.248,49.634,71.725,49.834,71.725,49.834z M49.1,15.775c0.258,0.016,0.146-0.314-0.971-0.29c-0.941,0.021-2.042,1.09-0.299,1.32C46.934,16.422,47.675,15.446,49.1,15.775z M71.604,36.771c-0.115,0.448,0.233,0.735,0.334,0.422c0.144-0.456,0.088-1.152,0.088-1.152s-0.332,0.181-0.381,0.255C71.598,36.372,71.666,36.524,71.604,36.771z"/>
</svg>