<?xml version="1.0" encoding="UTF-8"?>
<!DOCTYPE svg PUBLIC "-//W3C//DTD SVG 1.1 Tiny//EN" "http://www.w3.org/Graphics/SVG/1.1/DTD/svg11-tiny.dtd">
<svg baseProfile="tiny" height="44" version="1.1" viewBox="0 0 44 44" width="44" xmlns="http://www.w3.org/2000/svg" xmlns:xlink="http://www.w3.org/1999/xlink">
<path d="M24.998,3C16.177,3,9.002,10.18,9.002,19c0,2.654,0.658,5.153,1.808,7.36l-8.638,8.638l6.83,6.83l8.636-8.64  c2.206,1.148,4.706,1.81,7.36,1.81C33.82,34.998,41,27.821,41,19C41,10.18,33.82,3,24.998,3z M24.998,8.998  c4.094,0,7.614,2.473,9.162,6.002h-18.32C17.388,11.471,20.908,8.998,24.998,8.998z M24.998,29c-4.09,0-7.611-2.476-9.159-6.002  H34.16C32.613,26.524,29.092,29,24.998,29z"/>
<rect fill="none" height="44" width="44" x="0" y="0"/>
<rect fill="#FFFFFF" height="4" width="16" x="17" y="17"/>
<path d="M25,5c-7.722,0-14,6.279-14,14c0,2.839,0.854,5.479,2.312,7.688L5,35l4,4l8.312-8.313  C19.521,32.145,22.16,33,25,33c7.721,0,14-6.278,14-14C39,11.279,32.721,5,25,5z M25,31c-6.618,0-12-5.386-12-12  c0-6.617,5.383-12,12-12c6.615,0,12,5.383,12,12C37,25.614,31.616,31,25,31z" fill="#FFFFFF"/>
</svg>
