<?xml version="1.0" encoding="UTF-8"?>
<!DOCTYPE svg PUBLIC "-//W3C//DTD SVG 1.1 Tiny//EN" "http://www.w3.org/Graphics/SVG/1.1/DTD/svg11-tiny.dtd">
<svg width="100%" height="100%" viewBox="0 0 88 88">
<linearGradient id="_20" gradientUnits="userSpaceOnUse" x1="46.99" y1="48.62" x2="57.59" y2="67.17">
<stop stop-color="#A2C2DD" offset="0.1"/>
<stop stop-color="#6C83BB" offset="0.71"/>
<stop stop-color="#003D6D" offset="0.99"/>
</linearGradient>
<path fill="url(#_20)" d="M37.755,14.563c-0.625-0.15-3.215-0.771-3.215-0.771l-6.344,9.318 C14.325,41.71,3.561,47.928,2.801,48.401l6.468,2.128l-1.694,2.4l1.111,3.48l41.153,18.198l14.238-26.409l16.804-2.157l2.899-4.356 l-1.079-7.683l-3.737-4.507l-5.312,0.944l0.463-0.857l0.251-6.262c0,0-4.423-1.069-4.374-1.063 c-0.755-3.548-4.226-3.896-6.26-1.475c-0.013-0.005-2.825-0.708-2.818-0.712c-0.742-3.492-4.2-3.939-6.269-1.469 c-0.004-0.012-2.582-0.668-2.595-0.661c-0.749-3.501-4.18-3.806-6.163-1.437c-0.027,0.008-2.09-0.508-2.088-0.523 C43.063,12.593,39.706,12.258,37.755,14.563z"/>
<polygon fill="#FFFFFF" points="35.11,15.12 8.336,53.049 48.798,69.047 72.646,28.459 73.573,25.04 "/>
<linearGradient id="_21" gradientUnits="userSpaceOnUse" x1="30.63" y1="59.56" x2="27.89" y2="65.83">
<stop stop-color="#FFFFFF" offset="0"/>
<stop stop-color="#496DA2" offset="0.71"/>
<stop stop-color="#235487" offset="0.99"/>
</linearGradient>
<polygon fill="url(#_21)" points="8.45,52.959 48.528,68.704 49.52,73.706 9.246,55.897 "/>
<linearGradient id="_22" gradientUnits="userSpaceOnUse" x1="56.86" y1="45.11" x2="69.16" y2="54.68">
<stop stop-color="#DEE9F3" offset="0"/>
<stop stop-color="#235487" offset="1"/>
</linearGradient>
<polygon fill="url(#_22)" points="48.528,68.704 73.633,23.86 73.411,29.393 49.52,73.706 "/>
<linearGradient id="_23" gradientUnits="userSpaceOnUse" x1="4.44" y1="38.62" x2="45.79" y2="38.62">
<stop stop-color="#CADCEC" offset="0"/>
<stop stop-color="#87A8CB" offset="1"/>
</linearGradient>
<path fill="url(#_23)" d="M34.894,14.715C18.737,39.471,4.443,48.209,4.443,48.209 c7.75,2.391,41.35,14.314,41.35,14.314L34.894,14.715z"/>
<linearGradient id="_24" gradientUnits="userSpaceOnUse" x1="15.64" y1="58.6" x2="44.93" y2="34.82">
<stop stop-color="#FFFFFF" offset="0.15"/>
<stop stop-color="#A2C2DD" offset="1"/>
</linearGradient>
<path fill="url(#_24)" d="M10.557,50.247c11.41,4.494,35.236,12.277,35.236,12.277 c15.358-11.682,27.74-38.658,27.74-38.658l-38.697-9.279L10.557,50.247z"/>
<linearGradient id="_25" gradientUnits="userSpaceOnUse" x1="68.03" y1="52.73" x2="41.63" y2="18.62">
<stop stop-color="#FFFFFF" offset="0"/>
<stop stop-color="#496DA2" offset="0.71"/>
<stop stop-color="#235487" offset="0.99"/>
</linearGradient>
<polygon fill="url(#_25)" points="33.619,23.77 33.263,24.6 64.586,33.327 64.445,31.303 "/>
<polygon fill="url(#_25)" points="30.349,28.944 29.959,29.764 60.965,39.577 60.895,37.549 "/>
<polygon fill="url(#_25)" points="26.981,34.229 26.567,35.036 57.195,45.958 57.195,43.926 "/>
<polyline fill="url(#_25)" points="37.03,44.815 23.809,40.569 23.396,41.375 34.393,45.297 37.03,44.815 "/>
<path fill="#3F5AA6" d="M37.265,17.37c-1.227,0.744-1.05,2.494,0.11,3.184c1.821,1.088,4.019-0.83,2.968-2.572 c0.449-1.01,1.511-1.695,1.794-1.643l1.055,0.223C42.339,13.018,37.265,17.37,37.265,17.37z"/>
<linearGradient id="_29" gradientUnits="userSpaceOnUse" x1="39.83" y1="18.64" x2="40.83" y2="14.3">
<stop stop-color="#87A8CB" offset="0"/>
<stop stop-color="#CADCEC" offset="0.5"/>
<stop stop-color="#87A8CB" offset="1"/>
</linearGradient>
<path fill="url(#_29)" d="M38.914,19.569c-0.589,0.107-1.317-0.102-1.613-0.867c-0.736-5.027,5.301-6.996,5.913-2.141 C42.121,14.176,39.059,15.401,38.914,19.569z"/>
<path fill="#3F5AA6" d="M45.395,19.34c-1.25,0.758-1.071,2.543,0.112,3.248c1.859,1.107,4.099-0.848,3.027-2.625 c0.458-1.031,1.542-1.729,1.83-1.676l1.076,0.227C50.57,14.901,45.395,19.34,45.395,19.34z"/>
<path fill="url(#_29)" d="M47.076,21.584c-0.601,0.107-1.342-0.105-1.645-0.887c-0.75-5.129,5.407-7.137,6.031-2.184 C50.348,16.081,47.225,17.331,47.076,21.584z"/>
<path fill="#3F5AA6" d="M54.135,21.483c-1.274,0.775-1.092,2.594,0.114,3.314c1.897,1.129,4.181-0.863,3.088-2.678 c0.468-1.051,1.574-1.762,1.867-1.709l1.099,0.232C59.414,16.956,54.135,21.483,54.135,21.483z"/>
<path fill="url(#_29)" d="M55.85,23.772c-0.611,0.111-1.367-0.107-1.676-0.902c-0.767-5.232,5.515-7.281,6.151-2.227 C59.188,18.161,56.002,19.436,55.85,23.772z"/>
<path fill="#3F5AA6" d="M63.214,23.67c-1.275,0.775-1.093,2.596,0.114,3.314c1.897,1.131,4.181-0.863,3.088-2.678 c0.467-1.051,1.573-1.762,1.867-1.709l1.098,0.23C68.493,19.143,63.214,23.67,63.214,23.67z"/>
<path fill="url(#_29)" d="M64.929,25.959c-0.612,0.111-1.368-0.105-1.677-0.902c-0.766-5.23,5.515-7.279,6.151-2.229 C68.267,20.348,65.081,21.624,64.929,25.959z"/>
<linearGradient id="_33" gradientUnits="userSpaceOnUse" x1="39.98" y1="48.02" x2="38.35" y2="40.21">
<stop stop-color="#81C7C8" offset="0"/>
<stop stop-color="#BFDAE1" offset="0.01"/>
<stop stop-color="#FFFFFF" offset="1"/>
</linearGradient>
<polygon fill="url(#_33)" points="44.766,36.286 32.146,45.174 47.337,49.641 "/>
<linearGradient id="_34" gradientUnits="userSpaceOnUse" x1="76.2" y1="30.96" x2="76.09" y2="43.23">
<stop stop-color="#D6E6EC" offset="0"/>
<stop stop-color="#298595" offset="1"/>
</linearGradient>
<polygon fill="url(#_34)" points="78.675,30.256 82.024,34.297 83.039,41.52 80.464,45.389 69.202,39.09 "/>
<linearGradient id="_35" gradientUnits="userSpaceOnUse" x1="32.44" y1="33.5" x2="65.81" y2="41.63">
<stop stop-color="#D6E6EC" offset="0"/>
<stop stop-color="#298595" offset="1"/>
</linearGradient>
<polygon fill="url(#_35)" points="76.59,34.737 77.632,41.426 45.104,46.104 44.105,39.893 "/>
<linearGradient id="_36" gradientUnits="userSpaceOnUse" x1="30.73" y1="46.42" x2="88.73" y2="44.8">
<stop stop-color="#E6EEF4" offset="0"/>
<stop stop-color="#2F8E9A" offset="0.44"/>
<stop stop-color="#003D6D" offset="0.94"/>
</linearGradient>
<polygon fill="url(#_36)" points="77.632,41.426 80.464,45.389 47.337,49.641 45.104,46.104 "/>
<linearGradient id="_37" gradientUnits="userSpaceOnUse" x1="45.63" y1="37.46" x2="101.75" y2="28.96">
<stop stop-color="#D6E6EC" offset="0"/>
<stop stop-color="#298595" offset="1"/>
</linearGradient>
<polygon fill="url(#_37)" points="76.59,34.737 78.675,30.256 44.766,36.286 44.105,39.893 "/>
<linearGradient id="_38" gradientUnits="userSpaceOnUse" x1="35.44" y1="45.89" x2="34.76" y2="40.93">
<stop stop-color="#235487" offset="0"/>
<stop stop-color="#496DA2" offset="0.5"/>
<stop stop-color="#235487" offset="1"/>
</linearGradient>
<path fill="url(#_38)" d="M38.261,40.885l-6.462,4.201l7.347,2.1C38.319,46.098,37.854,42.79,38.261,40.885z"/>
</svg>