<?xml version="1.0" encoding="utf-8"?>
<!DOCTYPE svg PUBLIC "-//W3C//DTD SVG 1.1 Tiny//EN" "http://www.w3.org/Graphics/SVG/1.1/DTD/svg11-tiny.dtd">
<svg width="60" height="80" viewBox="0 0 60 80">
<linearGradient id="_304" gradientUnits="userSpaceOnUse" x1="20.69" y1="30.75" x2="38.19" y2="51.79">
<stop stop-color="#DEE9F3" offset="0"/>
<stop stop-color="#235487" offset="1"/>
</linearGradient>
<circle fill="url(#_304)" cx="29.527" cy="41.367" r="23.417"/>
<radialGradient id="_305" gradientUnits="userSpaceOnUse" cx="34.05" cy="26.71" r="42.04">
<stop stop-color="#FFFFFF" offset="0"/>
<stop stop-color="#A2C2DD" offset="0.53"/>
<stop stop-color="#6C83BB" offset="0.87"/>
<stop stop-color="#003D6D" offset="1"/>
</radialGradient>
<circle fill="url(#_305)" cx="29.566" cy="41.367" r="22.724"/>
<radialGradient id="_306" gradientUnits="userSpaceOnUse" cx="34.36" cy="29.04" r="28.6">
<stop stop-color="#E6EEF4" offset="0"/>
<stop stop-color="#C6DCC1" offset="0.08"/>
<stop stop-color="#91C06F" offset="0.21"/>
<stop stop-color="#6BAB33" offset="0.32"/>
<stop stop-color="#539E0E" offset="0.4"/>
<stop stop-color="#4A9900" offset="0.44"/>
<stop stop-color="#398419" offset="0.55"/>
<stop stop-color="#22663B" offset="0.71"/>
<stop stop-color="#135550" offset="0.85"/>
<stop stop-color="#0E4E58" offset="0.94"/>
</radialGradient>
<path fill="url(#_306)" d="M27.557,46.211c-0.416-0.305-1.169-0.343-1.286-0.131C26.033,46.511,27.984,46.521,27.557,46.211z M28.093,31.471l0.364-0.663l1.05-0.151l0.013-0.462c0,0,0.348-0.097,0.637-0.08c0.291,0.018,1.157,0.032,1.362-0.448c0.205-0.481,0.289-0.723,0.414-0.967c0.127-0.241-0.32-1.048-0.465-0.568c-0.293,0.958-0.398,1.225-1.02,1.329c-0.524,0.087-0.708,0.482-0.708,0.482l-1.008,0.055l-1.13,0.877l0.069,0.776L28.093,31.471z M26.43,43.914c-0.036,0.208-0.093,1.051-0.093,1.051c0.321-0.223,0.639-0.398,0.675-0.605c0.036-0.209-0.333-0.279-0.015-0.619C27.316,43.4,26.465,43.706,26.43,43.914z M36.243,46.555c0,0,0.905,0.37,1.309,0.114c0.402-0.255,0.636-0.737,0.636-0.737s-0.318,0.312-0.644,0.443C37.223,46.508,36.243,46.555,36.243,46.555z M24.054,34.156c0,0-0.792,0.392-0.54,1.086C24.128,35.302,24.021,34.732,24.054,34.156z M32.741,27.328c0.514-0.202-0.023-0.63-0.873-0.679c0,0-0.048,0.494-0.604,0.787C30.704,27.728,32.229,27.528,32.741,27.328z M35.813,47.223c0.937-0.266-0.678-0.718-0.678-0.718l-0.152-0.437c0,0-1.254,0.018-1.26-0.219c-0.006-0.235-3.065-0.886-3.141-0.586c-0.074,0.297-0.465,1.081-0.975,0.223c-0.511-0.859-1.002-1.088-1.721-0.403l0.813,0.521c0,0,0.261,0.637,0.672,0.793c0.412,0.158,1.578,0.221,2.066,0.138c0,0-0.271,0.985,0.146,1.379c0,0,0.774-0.362,1.028,0.038c0.257,0.4,1.195,0.342,1.759-0.172c0.272-0.25,0.848-0.424,1.271,0.205c0.424,0.627,0.862,0.488,1.922,0.38C37.563,48.363,35.337,47.357,35.813,47.223z M23.098,37.998l0.736,1.936l0.444,0.925l0.368-0.728c0.053-0.301-1.036-0.823-0.854-1.497c0.182-0.674,0.884-1.055,0.087-1.67C23.084,36.349,23.627,37.089,23.098,37.998z M22.205,43.613c-0.239-0.165-0.2-0.478-0.063-0.661c0.449-0.601-0.167-1.379-0.542-0.99c-1.006,1.047-3.279,1.979-3.279,1.979l0.525,1.922c0,0,3.006,0.933,2.796,0.058C21.442,45.09,22.878,44.077,22.205,43.613z M19.084,36.963c0.287-0.403,0.525-0.722,0.525-0.722s-0.836-0.021-0.929,0.048c-0.092,0.068,0.029,0.193-0.099,0.413C18.35,37.095,18.887,37.242,19.084,36.963z M17.388,47.027l-0.25-1.385l-0.025-0.362c0,0-0.122,0.478-0.424-0.06c-0.524-0.932-1.997-2.314-2.711-3.018c-0.386-0.38-0.145,0.513-0.145,0.513c0.729,0.991,1.214,2.369,1.923,3.089c0.709,0.719,1.387,1.151,1.387,1.151l0.028,0.408c1.13,0.731,3.574,0.798,3.574,0.798C20.709,47.495,17.388,47.027,17.388,47.027z M22.265,48.453c0.478-0.038,0.992-0.396,0.632-0.414c-0.362-0.018-1.584-0.069-2.151,0.124C20.394,48.281,21.788,48.49,22.265,48.453z M28.225,20.052l0.074,0.248l1.383-0.016l7.575,0.03c0,0,2.695,1.747,3.613,1.835c0,0,2.313,1.967,1.428,0.408c0,0-0.038-0.032-0.082-0.068c-0.062-0.041-0.122-0.078-0.184-0.117c-0.337-0.222-0.681-0.434-1.03-0.638c-0.119-0.069-0.238-0.139-0.357-0.206c-0.41-0.229-0.826-0.45-1.25-0.654c-0.063-0.029-0.125-0.055-0.188-0.084c-0.379-0.178-0.766-0.344-1.154-0.501c-0.131-0.053-0.263-0.105-0.395-0.156c-0.441-0.168-0.889-0.328-1.344-0.469c-0.063-0.02-0.131-0.036-0.194-0.056c-0.404-0.122-0.813-0.23-1.228-0.33c-0.147-0.036-0.297-0.07-0.445-0.103c-0.444-0.098-0.895-0.186-1.348-0.256c-0.091-0.014-0.181-0.025-0.271-0.038c-0.425-0.061-0.853-0.108-1.282-0.146c-0.16-0.014-0.322-0.026-0.484-0.037c-0.443-0.029-0.891-0.048-1.339-0.051c-0.053,0-0.104-0.004-0.157-0.004c-0.034,0-0.068,0.002-0.102,0.002c-0.576,0.002-1.146,0.031-1.711,0.076c-0.121,0.009-0.242,0.016-0.361,0.027c-0.559,0.053-1.111,0.129-1.657,0.222c-0.138,0.023-0.275,0.048-0.413,0.074c-0.541,0.102-1.075,0.221-1.602,0.361c-0.119,0.031-0.236,0.067-0.354,0.101c-0.546,0.155-1.086,0.322-1.615,0.516c-0.009,0.003-0.018,0.007-0.026,0.01l2.561-0.267l0.729,0.355l0.264,0.09C26.872,19.817,28.225,20.052,28.225,20.052z M43.943,56.914c-0.577,0.131-0.112-0.473-0.76-0.273c-0.647,0.196-0.188,0.354-0.1,0.584C43.273,57.718,44.521,56.782,43.943,56.914z M41.564,58.426l-1.479,0.822c-0.334,0.423,1.18-0.146,1.783-0.686c0.549-0.49,1.029-0.916,1.029-0.916l-0.885-0.004L41.564,58.426z M14.3,37.707l0.291,2.038l-0.116,1.166c0.025,1.059,1.869,3.698,2.098,3.379c-0.151-0.392-0.233-1.688-0.233-1.688c-0.408-1.166-0.777-0.666-1.224-1.574c-0.447-0.906,0.357-2.722,0.932-1.455c0.22,0.479,0.365,0.984,0.947,1.664c2.584-2.205,1.733-2.889,0.685-3.879c-0.815-1.398,1.034-1.355,1.034-1.355c0.056,0.199,1.282-0.334,2.17-0.699c2.855-0.786,2.356-1.865,2.356-1.865c1.927-0.989,1.286-2.111,0.237-3.262l1.238-0.378l0.16-0.496l-1.209,0.132l-0.612-0.452l1.69-0.758c0,0-0.146,0.351-0.103,0.597c0.052,0.294,1.354-0.393,1.354-0.393l-0.109,0.809l0.518,0.153c-0.275,0.321-0.224,1.265-0.224,1.265c0.606-0.294,1.055-0.594,1.055-0.594c0.123-0.758-0.467-1.429-0.467-1.429c0.738-0.365,1.044-0.612,1.5-1.253c2.458,0.236,3.044-3.189,3.044-3.189l0.487,2.024c1.138-0.189-0.139-2.054-0.139-2.054l-2.299-0.222l1.996-1.177c1.791,0.072,2.826,0.248,3.102-0.627c0.654,0.291,2.125-0.255,1.441,0.278c-0.691,0.538-0.787,0.275-0.99,1.092l0.859,1.181c0,0,0.268,0.151,0.942-1.262c0.086-0.177-0.797-0.637-0.651-0.778c0.178-0.172,0.145-0.169,0.264-0.306c1.18,0.291,1.813-0.212,1.813-0.212L37.8,21.346c0,0,1.627-0.267-2.194-0.66l-2.051,0.035c-0.603-0.263-3.774-0.42-3.774-0.42l-1.494,0.288c-0.472-0.472-1.389-0.394-1.389-0.394l-1.441,0.079l-0.179-0.062c-0.018,0.005-0.035,0.01-0.053,0.014l-0.211-0.104l-0.476-0.162l-3.813,0.468c-0.034,0.014-0.067,0.03-0.101,0.045c-0.665,0.285-1.314,0.6-1.945,0.945c-0.07,0.039-0.138,0.081-0.208,0.12c-0.598,0.335-1.18,0.695-1.743,1.082c-0.082,0.056-0.161,0.115-0.242,0.172c-0.543,0.383-1.069,0.788-1.576,1.216c-0.083,0.07-0.165,0.143-0.248,0.214c-0.495,0.431-0.971,0.881-1.426,1.352c-0.077,0.08-0.154,0.161-0.23,0.242c-0.45,0.479-0.879,0.978-1.287,1.495c-0.065,0.083-0.131,0.166-0.195,0.249c-0.409,0.533-0.793,1.085-1.153,1.654c-0.048,0.076-0.099,0.15-0.146,0.227c-0.367,0.594-0.707,1.208-1.019,1.836c-0.028,0.058-0.06,0.114-0.088,0.172c-0.326,0.67-0.62,1.359-0.88,2.064c-0.005,0.014-0.011,0.027-0.016,0.041c0.424-0.139,0.489,0.638,0.572,0.7c0.088,0.065,0.021,1.268,0.021,1.268l0.263,0.021l-0.263,0.504c-0.087,0.415,0,4.282,0,4.282l0.153,0.479c0.786-0.786,0.918-3.015,0.918-3.015l0.218-0.044c0,0,1.661-1.857,1.88-1.967c0.219-0.108,1.923-0.219,1.507,1.465C13.076,38.93,13.928,37.379,14.3,37.707z M9.832,40.576c-0.063-0.045-0.087-0.772-0.213-0.451c-0.109,0.277-0.2,0.641-0.025,1.077c0.176,0.437,0.188,0.422,0.301-0.103C10.007,40.576,9.893,40.619,9.832,40.576z M33.648,58.93c0.828,1.635,1.347,0.41,1.271,0.035C34.848,58.591,33.648,58.93,33.648,58.93z M25.516,40.503c-0.476,0.177-1.079,0.722-1.079,0.722c0.584,0.108,0.078,0.891,0.816,0.969c0.789,0.084,0.41,0.18,0.517-0.426C25.877,41.161,25.992,40.328,25.516,40.503z M23.314,44.464l1.59,0.177c0,0,0.835-0.408,0.344-0.474C24.757,44.102,23.314,44.464,23.314,44.464z M25.721,48.529c1.46-0.905,0.171-0.605,0.171-0.605c-0.719,0.115-0.925,0.209-0.792,0.623C25.233,48.963,24.467,49.307,25.721,48.529z M36.675,53.205c-0.348-0.684-0.938-1.131-1.457-1.341l-0.403-1.607c0,0-0.367-0.041-0.597-0.146c-0.227-0.107-0.489-1.149-0.489-1.149s-0.851,0.028-0.666,0.438c0.524,1.185-0.84,2.106-0.84,2.106s-0.523-0.396-1.246-0.536c-0.704-0.138-0.404-0.009-0.146-0.693c0.313-0.83-0.011-0.785-0.916-0.742c-0.968,0.046-2.18,0.132-2.534,1.064c-0.091,0.242-0.391-0.49-0.926-0.349l-1.977,1.171c0,0-0.175,1.232-0.448,1.143c-0.658-0.215-2.739,0.815-2.739,0.815c0.176,2.214,1.981,4.138,1.981,4.138s1.949,0.004,2.972-0.291c0.853-0.248,2.797-0.584,2.797-0.584c0.382,0.303,1.258,0.563,1.625,0.768c0.24,0.133,0.359-0.281,0.588-0.184c0.059,0.35,0.586,0.709,0.811,0.774c2.047,0.606,3.531-0.058,3.531-0.058c0.23-0.797,1.891-1.95,2.041-2.889C37.788,54.115,37.141,53.648,36.675,53.205z M24.625,45.299c1.104-0.193-1.398-0.438-1.586-0.25c-0.523,0.523-0.058,1.688-0.058,1.688s0.211,0.128,0.484,0.275c0.146,0.078-0.097-1.105,0.087-1.035c0.298,0.648,1.06,1.342,1.453,0.836C24.298,46.229,23.739,45.455,24.625,45.299z M22.927,48.492l0.563,0.32l0.028-0.459c0,0,1.02,0.013,1.236-0.324L23.2,48.105L22.927,48.492z"/>
</svg>