<?xml version="1.0" encoding="UTF-8"?>
<!DOCTYPE svg PUBLIC "-//W3C//DTD SVG 1.1 Tiny//EN" "http://www.w3.org/Graphics/SVG/1.1/DTD/svg11-tiny.dtd">
<svg width="84" height="72" viewBox="0 0 84 72">
<linearGradient id="_87" gradientUnits="userSpaceOnUse" x1="36.48" y1="35.14" x2="48.97" y2="57.12">
<stop stop-color="#87A8CB" offset="0"/>
<stop stop-color="#235487" offset="1"/>
</linearGradient>
<path fill="url(#_87)" d="M23.395,12.717c0,0,0.6,9.418,0.673,10.464c-2.746-1.275-6.051,0.282-7.919,2.61 c-0.844,1.009-1.34,2.246-1.369,3.287c-0.703-0.145-4.755-0.982-4.755-0.982c-0.061-0.012-1.883,0.701-1.878,0.858l0.988,26.167 c0.005,0.156,20.404,5.561,20.404,5.561l1.598-1.848c0,0,0.01-7.141,0.004-8.006c0.843,0.268,9.515,3.078,9.515,3.078 c0.117,0.037,2.836-2.371,2.781-2.438c-0.896-1.084-1.91-3.113-1.91-4.884c0-1.272,0.39-2.543,1.292-3.584 c0.627-0.332,4.553,0.858,5.5,5.478c0.867,5.178-2.158,7.016-2.039,7.053l14.799,4.775c0.119,0.039,3.768-3.098,3.77-3.195 c0.229-8.34,0.228-8.303,0.248-9.043c3.836,0.845,10.265,0.386,10.632-8.646c0.113-3.208-1.904-7.713-10.173-8.137 c0.018-0.63,0.381-12.411,0.381-12.411l-17.15-3.127c-0.072-0.014-3.894,1.683-3.923,1.782c-0.008,0.031,2.179,3.356,2.154,5.788 c-0.021,2.044-1.042,4.091-2.05,4.785c-1.057,0.062-2.33-0.86-3.278-2.387c-1.583-2.551-2.042-7.244,1.054-11.282 c0.009-0.013-15.37-2.851-15.37-2.851C27.319,11.572,23.395,12.717,23.395,12.717z"/>
<linearGradient id="_88" gradientUnits="userSpaceOnUse" x1="61.14" y1="8.95" x2="65.14" y2="69.95">
<stop stop-color="#FFFFFF" offset="0"/>
<stop stop-color="#A2C2DD" offset="0.35"/>
<stop stop-color="#6C83BB" offset="0.7"/>
<stop stop-color="#003D6D" offset="1"/>
</linearGradient>
<polygon fill="url(#_88)" points="61.001,59.732 60.896,21.1 65.3,19.366 64.271,56.891 "/>
<linearGradient id="_89" gradientUnits="userSpaceOnUse" x1="31.42" y1="16.95" x2="37.37" y2="4.85">
<stop stop-color="#FFFFFF" offset="0.05"/>
<stop stop-color="#A2C2DD" offset="1"/>
</linearGradient>
<polygon fill="url(#_89)" points="23.89,13.231 27.457,12.168 41.851,14.747 38.599,16.329 "/>
<polygon fill="url(#_89)" points="45.576,17.709 48.654,16.292 65.248,19.383 61.307,21.1 "/>
<linearGradient id="_91" gradientUnits="userSpaceOnUse" x1="19.18" y1="26.47" x2="25.68" y2="23.97">
<stop stop-color="#FFFFFF" offset="0.05"/>
<stop stop-color="#A2C2DD" offset="1"/>
</linearGradient>
<path fill="url(#_91)" d="M16.38,26.51c1.555-2.254,5.271-4.551,8.256-2.647l0.231,2.957 C22.79,24.292,19.001,23.504,16.38,26.51z"/>
<linearGradient id="_92" gradientUnits="userSpaceOnUse" x1="44.61" y1="36" x2="37.98" y2="12.87">
<stop stop-color="#FFFFFF" offset="0"/>
<stop stop-color="#A2C2DD" offset="0.35"/>
<stop stop-color="#6C83BB" offset="0.7"/>
<stop stop-color="#003D6D" offset="1"/>
</linearGradient>
<path fill="url(#_92)" d="M38.177,16.395c-4.248,6.396,3.086,17.162,7.919,11.689c-3.014,2.496-9.262-5.703-4.243-13.338 L38.177,16.395z"/>
<linearGradient id="_93" gradientUnits="userSpaceOnUse" x1="44.51" y1="63.32" x2="39.13" y2="39.2">
<stop stop-color="#FFFFFF" offset="0"/>
<stop stop-color="#A2C2DD" offset="0.35"/>
<stop stop-color="#6C83BB" offset="0.7"/>
<stop stop-color="#003D6D" offset="1"/>
</linearGradient>
<path fill="url(#_93)" d="M40.492,53.273l2.349-2.006c-1.554-1.877-2.72-6.011-0.192-8.722 C36.966,42.734,37.961,50.945,40.492,53.273z"/>
<linearGradient id="_94" gradientUnits="userSpaceOnUse" x1="61.29" y1="22.87" x2="75.79" y2="49.74">
<stop stop-color="#FFFFFF" offset="0"/>
<stop stop-color="#A2C2DD" offset="0.35"/>
<stop stop-color="#6C83BB" offset="0.7"/>
<stop stop-color="#003D6D" offset="1"/>
</linearGradient>
<path fill="url(#_94)" d="M61.055,33.506l3.92-1.858c15.391,0.558,9.766,14.868,6.146,15.356 C71.238,46.891,61.055,33.506,61.055,33.506z"/>
<linearGradient id="_95" gradientUnits="userSpaceOnUse" x1="43.68" y1="9.94" x2="45.07" y2="56.35">
<stop stop-color="#FFFFFF" offset="0.05"/>
<stop stop-color="#A2C2DD" offset="1"/>
</linearGradient>
<path fill="url(#_95)" d="M15.399,29.577c-0.375-2.842,4.256-8.602,9.468-2.938L23.89,13.231l14.459,3.063 c-3.267,5.026-0.086,11.91,3.916,12.778c4.004,0.869,7.475-5.099,3.313-11.362l15.729,3.39l-0.205,12.365 c1.209-0.694,12.789-1.402,12.393,8.385c-0.42,10.375-12.51,4.409-12.51,4.409l0.019,13.474l-13.534-4.447 c3.215-2.986,1.471-11.391-3.598-12.6c-5.068-1.207-7.35,5.521-3.377,10.588l-11.441-3.633 C29.052,49.641,15.444,29.652,15.399,29.577z"/>
<linearGradient id="_96" gradientUnits="userSpaceOnUse" x1="24.61" y1="29.81" x2="18.52" y2="46.21">
<stop stop-color="#FFFFFF" offset="0"/>
<stop stop-color="#CEDFF2" offset="1"/>
</linearGradient>
<polygon fill="url(#_96)" points="9.634,54.637 8.832,29.013 23.172,32.298 29.341,40.447 29.477,59.98 "/>
<linearGradient id="_97" gradientUnits="userSpaceOnUse" x1="29.37" y1="37.41" x2="30.99" y2="66.99">
<stop stop-color="#FFFFFF" offset="0"/>
<stop stop-color="#A2C2DD" offset="0.35"/>
<stop stop-color="#6C83BB" offset="0.7"/>
<stop stop-color="#003D6D" offset="1"/>
</linearGradient>
<polygon fill="url(#_97)" points="29.477,59.98 29.25,40.629 30.651,40.129 30.768,58.605 "/>
<linearGradient id="_98" gradientUnits="userSpaceOnUse" x1="14.12" y1="34.69" x2="17.5" y2="28.38">
<stop stop-color="#FFFFFF" offset="0.05"/>
<stop stop-color="#A2C2DD" offset="1"/>
</linearGradient>
<polygon fill="url(#_98)" points="8.791,28.996 10.271,28.517 24.096,31.687 23.013,32.458 "/>
<linearGradient id="_99" gradientUnits="userSpaceOnUse" x1="19.59" y1="40.14" x2="26.66" y2="39.7">
<stop stop-color="#FFFFFF" offset="0.05"/>
<stop stop-color="#A2C2DD" offset="1"/>
</linearGradient>
<polygon fill="url(#_99)" points="23.326,38.389 21.98,40.303 30.578,40.977 30.556,40.088 "/>
<linearGradient id="_100" gradientUnits="userSpaceOnUse" x1="25.96" y1="35.01" x2="21.91" y2="35.37">
<stop stop-color="#FFFFFF" offset="0.05"/>
<stop stop-color="#A2C2DD" offset="1"/>
</linearGradient>
<path fill="url(#_100)" d="M23.013,32.458c0.669,1.831-0.111,4.526-0.492,6.347c0.783-2.333,2.032-6.159,1.577-7.118 L23.013,32.458z"/>
<linearGradient id="_101" gradientUnits="userSpaceOnUse" x1="27.62" y1="35.38" x2="25.05" y2="40.92">
<stop stop-color="#87A8CB" offset="0"/>
<stop stop-color="#235487" offset="1"/>
</linearGradient>
<path fill="url(#_101)" d="M30.651,40.129c-0.806-1.084-4.377-6.067-6.556-8.442c0.108,1.72-1.429,6.657-1.576,7.116 C23.23,38.844,29.998,40.059,30.651,40.129z"/>
<linearGradient id="_102" gradientUnits="userSpaceOnUse" x1="35.58" y1="45.06" x2="0.52" y2="29.94">
<stop stop-color="#E6EEF4" offset="0"/>
<stop stop-color="#575AC6" offset="0.44"/>
<stop stop-color="#003D6D" offset="0.94"/>
</linearGradient>
<polygon fill="url(#_102)" points="22.156,38.984 22.233,38.037 11.635,35.229 11.658,36.01 "/>
<polygon fill="url(#_102)" points="25.704,43.027 11.741,38.9 11.764,39.629 25.705,44.047 "/>
<polygon fill="url(#_102)" points="25.707,47.01 11.852,42.664 11.875,43.461 25.708,48.051 "/>
</svg>