<?xml version="1.0" encoding="UTF-8"?>
<!DOCTYPE svg PUBLIC "-//W3C//DTD SVG 1.1 Tiny//EN" "http://www.w3.org/Graphics/SVG/1.1/DTD/svg11-tiny.dtd">
<svg baseProfile="tiny" version="1.1" xmlns="http://www.w3.org/2000/svg" xmlns:xlink="http://www.w3.org/1999/xlink" width="16" height="16" viewBox="0 0 16 16">
<g>
<g>
<g>
<path fill="#FFFFFF" stroke="#FFFFFF" stroke-width="0.8503" d="M12.592,3.969c-0.754-0.482-1.881-0.331-2.655,0.881l-1.35,2.111     C8.51,6.887,8.417,6.838,8.301,6.834c-0.277,0-0.531,0.257-0.568,0.573C7.71,7.608,7.787,7.776,7.914,7.883L7.038,9.29     c-0.814,1.274-0.464,2.418,0.331,2.924c0.281,0.183,0.73,0.298,0.601,0.253c0.219,0.306,0.598,0.639,1.043,0.804l0.055,0.757     c0.148,0.106,0.685,0.143,1.033,0.092l0.074-0.787c0.026-0.006,0.051-0.015,0.078-0.022l0.446,0.612l0.24-0.095l-0.02-0.777     c0.707-0.41,0.887-1.065,0.887-1.862V9.248c0.197-0.061,0.352-0.31,0.352-0.623c0-0.157-0.045-0.298-0.106-0.41l0.914-1.428     C13.728,5.593,13.422,4.499,12.592,3.969z M11.086,11.145c0,0.658-0.074,1.409-0.601,1.778c-0.86,0.081-1.287-0.236-1.522-0.503     c-0.027,0.008,0.86-0.471,1.262-1.092l0.861-1.386V11.145L11.086,11.145z"/>
<g>
<polygon fill="#191E1C" points="10.217,14.157 10.939,13.797 10.92,12.955 10.191,13.158     "/>
<linearGradient id="XMLID_10_" gradientUnits="userSpaceOnUse" x1="-334.7925" y1="612.8096" x2="-337.5784" y2="611.5351" gradientTransform="matrix(1 0 0 1 346.5 -598.3438)">
<stop offset="0" style="stop-color:#989898"/>
<stop offset="0.2458" style="stop-color:#FFFFFF"/>
<stop offset="0.2682" style="stop-color:#FFFFFF"/>
<stop offset="1" style="stop-color:#343433"/>
</linearGradient>
<path fill="url(#XMLID_10_)" d="M8.995,13.007l0.071,0.991c0.148,0.106,0.808,0.208,1.158,0.155l-0.02-1.121      C9.896,13.108,9.312,13.113,8.995,13.007z"/>
<linearGradient id="XMLID_11_" gradientUnits="userSpaceOnUse" x1="-337.6743" y1="603.8105" x2="-338.4283" y2="606.2203" gradientTransform="matrix(1 0 0 1 346.5 -598.3438)">
<stop offset="0" style="stop-color:#989898"/>
<stop offset="0.2458" style="stop-color:#FFFFFF"/>
<stop offset="0.2682" style="stop-color:#FFFFFF"/>
<stop offset="1" style="stop-color:#343433"/>
</linearGradient>
<path fill="url(#XMLID_11_)" d="M8.023,7.418c0.031-0.283,0.219-0.513,0.418-0.513c0.178,0.002,0.306,0.195,0.301,0.446      C8.764,7.053,8.57,6.81,8.301,6.81C8.024,6.807,7.77,7.06,7.731,7.378c-0.036,0.316,0.161,0.578,0.441,0.58      c0.047,0,0.092-0.007,0.139-0.021C8.12,7.926,7.992,7.698,8.023,7.418z"/>
<path fill="#747373" d="M8.387,7.036c0.219,0,0.395,0.177,0.395,0.394S8.605,7.821,8.387,7.821      c-0.215,0-0.393-0.176-0.393-0.392S8.172,7.036,8.387,7.036z"/>
<linearGradient id="XMLID_12_" gradientUnits="userSpaceOnUse" x1="-338.0923" y1="602.7061" x2="-334.9002" y2="604.4959" gradientTransform="matrix(1 0 0 1 346.5 -598.3438)">
<stop offset="0" style="stop-color:#989898"/>
<stop offset="0.2458" style="stop-color:#FFFFFF"/>
<stop offset="0.2682" style="stop-color:#FFFFFF"/>
<stop offset="1" style="stop-color:#343433"/>
</linearGradient>
<path fill="url(#XMLID_12_)" d="M11.627,8.848l1.336-2.088c0.766-1.196,0.457-2.289-0.371-2.818      c-0.754-0.479-1.881-0.33-2.654,0.881L8.443,7.155C9.258,7.17,11.109,8.046,11.627,8.848z"/>
<linearGradient id="XMLID_13_" gradientUnits="userSpaceOnUse" x1="-340.5093" y1="606.5039" x2="-336.0952" y2="609.4266" gradientTransform="matrix(1 0 0 1 346.5 -598.3438)">
<stop offset="0" style="stop-color:#FFFFFF"/>
<stop offset="0.0056" style="stop-color:#FFFFFF"/>
<stop offset="0.24" style="stop-color:#FFFFFF"/>
<stop offset="1" style="stop-color:#4E4E4E"/>
</linearGradient>
<path fill="url(#XMLID_13_)" d="M11.65,9.008L10.223,11.3c-0.803,1.257-1.984,1.443-2.854,0.886      c-0.795-0.505-1.146-1.646-0.331-2.925l1.262-2.034C9.43,7.28,10.947,8.169,11.65,9.008z"/>
<linearGradient id="XMLID_14_" gradientUnits="userSpaceOnUse" x1="-338.9292" y1="605.5537" x2="-332.2513" y2="607.7203" gradientTransform="matrix(1 0 0 1 346.5 -598.3438)">
<stop offset="0" style="stop-color:#989898"/>
<stop offset="0.2458" style="stop-color:#FFFFFF"/>
<stop offset="0.2682" style="stop-color:#FFFFFF"/>
<stop offset="1" style="stop-color:#343433"/>
</linearGradient>
<path fill="url(#XMLID_14_)" d="M8.301,7.224c1.086,0.153,2.574,0.789,3.313,1.898l0.166-0.291      c-0.539-0.774-1.892-1.705-3.272-1.786L8.301,7.224z"/>
<path fill="#333332" d="M9.672,10.725c-0.763,1.194-1.824,1.49-2.681,1.129c0.109,0.123,0.23,0.232,0.365,0.318      c0.887,0.565,2.086,0.376,2.904-0.904l1.352-2.171C11.383,8.84,11.23,8.64,11.068,8.514L9.672,10.725z"/>
<path fill="#191E1C" d="M12.588,3.96L12.588,3.96c0.487,0.514,0.576,1.382-0.037,2.335l-1.369,2.096      c0.008,0.007,0.016,0.014,0.023,0.022c0.182,0.1,0.362,0.182,0.532,0.238l1.007-1.538l0.217-0.339      C13.724,5.579,13.417,4.489,12.588,3.96z"/>
<path fill="#333332" d="M11.258,8.468l0.549-0.276c0,0,0,1.907,0,2.966c0,1.063-0.32,1.874-1.771,2.186      c0.979-0.404,1.209-1.285,1.184-2.275L11.258,8.468z"/>
<linearGradient id="XMLID_15_" gradientUnits="userSpaceOnUse" x1="-740.5376" y1="80.6895" x2="-741.5806" y2="81.2303" gradientTransform="matrix(1.1364 0 0 -1.1364 851.5349 104.7676)">
<stop offset="0" style="stop-color:#989898"/>
<stop offset="0.2458" style="stop-color:#FFFFFF"/>
<stop offset="0.2682" style="stop-color:#FFFFFF"/>
<stop offset="1" style="stop-color:#343433"/>
</linearGradient>
<path fill="url(#XMLID_15_)" d="M8.172,12.479c0.694,0.907,1.715,0.771,2.494,0.398c-0.986,0.146-1.451-0.2-1.703-0.483      C8.842,12.421,8.508,12.474,8.172,12.479z"/>
<linearGradient id="XMLID_16_" gradientUnits="userSpaceOnUse" x1="-337.771" y1="611.9824" x2="-333.8264" y2="606.2284" gradientTransform="matrix(1 0 0 1 346.5 -598.3438)">
<stop offset="0" style="stop-color:#989898"/>
<stop offset="0.2458" style="stop-color:#FFFFFF"/>
<stop offset="0.2682" style="stop-color:#FFFFFF"/>
<stop offset="1" style="stop-color:#343433"/>
</linearGradient>
<path fill="url(#XMLID_16_)" d="M8.242,12.474c0.281,0.323,0.837,0.632,1.365,0.646c1.353,0.048,1.479-1.082,1.479-2.001      c0-0.924,0-2.694,0-2.694l0.172,0.044c0,0-0.006,1.341-0.006,2.635s-0.277,2.392-1.824,2.239      c-0.623-0.063-1.174-0.508-1.459-0.903C8.101,12.481,8.242,12.474,8.242,12.474z"/>
<linearGradient id="XMLID_17_" gradientUnits="userSpaceOnUse" x1="-710.5337" y1="91.8916" x2="-710.4689" y2="90.9749" gradientTransform="matrix(1.1031 0.0083 0.1333 -1.1697 783.1035 121.3659)">
<stop offset="0" style="stop-color:#989898"/>
<stop offset="0.2458" style="stop-color:#FFFFFF"/>
<stop offset="0.2682" style="stop-color:#FFFFFF"/>
<stop offset="1" style="stop-color:#343433"/>
</linearGradient>
<path fill="url(#XMLID_17_)" d="M11.292,8.606c0.037-0.347,0.256-0.631,0.487-0.628c0.211,0.001,0.361,0.238,0.356,0.546      c0.022-0.37-0.203-0.663-0.519-0.665c-0.325-0.003-0.627,0.31-0.67,0.697c-0.041,0.391,0.19,0.706,0.519,0.708      c0.055,0,0.108-0.009,0.162-0.025C11.404,9.227,11.252,8.947,11.292,8.606z"/>
<linearGradient id="XMLID_18_" gradientUnits="userSpaceOnUse" x1="-335.0649" y1="605.6768" x2="-334.6558" y2="607.5096" gradientTransform="matrix(1 0 0 1 346.5 -598.3438)">
<stop offset="0" style="stop-color:#989898"/>
<stop offset="0.2458" style="stop-color:#FFFFFF"/>
<stop offset="0.2682" style="stop-color:#FFFFFF"/>
<stop offset="1" style="stop-color:#343433"/>
</linearGradient>
<circle fill="url(#XMLID_18_)" cx="11.717" cy="8.597" r="0.649"/>
</g>
</g>
<g>
<polygon fill="#B92025" stroke="#F5E115" points="4.767,7.825 4.961,1.833 2.668,1.833 2.864,7.825    "/>
<path fill="#B92025" stroke="#F5E115" d="M4.678,9.55C4.44,9.334,4.157,9.226,3.821,9.226S3.2,9.334,2.956,9.55     c-0.238,0.215-0.359,0.474-0.359,0.774c0,0.303,0.121,0.56,0.359,0.771c0.244,0.212,0.529,0.313,0.865,0.313     s0.623-0.103,0.858-0.313c0.236-0.213,0.355-0.47,0.355-0.771C5.036,10.023,4.917,9.765,4.678,9.55z"/>
</g>
<g>
<polygon fill="#B92025" points="4.767,7.825 4.961,1.833 2.668,1.833 2.864,7.825    "/>
<path fill="#B92025" d="M4.678,9.55C4.44,9.334,4.157,9.226,3.821,9.226S3.2,9.334,2.956,9.55     c-0.238,0.215-0.359,0.474-0.359,0.774c0,0.303,0.121,0.56,0.359,0.771c0.244,0.212,0.529,0.313,0.865,0.313     s0.623-0.103,0.858-0.313c0.236-0.213,0.355-0.47,0.355-0.771C5.036,10.023,4.917,9.765,4.678,9.55z"/>
</g>
</g>
<rect fill="none" width="16" height="16"/>
</g>
</svg>
