<?xml version="1.0" encoding="UTF-8"?>
<!DOCTYPE svg PUBLIC "-//W3C//DTD SVG 1.1 Tiny//EN" "http://www.w3.org/Graphics/SVG/1.1/DTD/svg11-tiny.dtd">
<svg width="16" height="16" viewBox="0 0 16 16">
<polygon fill="#CEE1EF" points="14.436,4.929 8.967,3.837 6.599,4.954 12.041,6.013 "/>
<polygon fill="#496DA2" points="12.078,14.114 14.247,12.817 14.436,4.929 12.053,6.013 "/>
<polygon fill="#CEE1EF" points="8.177,2.169 4.202,1.558 2.056,2.327 5.966,3.121 "/>
<polygon fill="#496DA2" points="5.938,3.126 6.849,4.868 8.996,3.841 8.177,2.169 "/>
<polygon fill="#A2C2DD" points="12.078,14.114 2.749,11.482 2.107,2.304 5.938,3.126 6.854,4.881 12.11,5.996 "/>
<polygon fill="#CEE1EF" points="9.741,8.381 6.135,7.66 4.573,8.398 8.16,9.095 "/>
<polygon fill="#496DA2" points="8.186,14.435 9.616,13.581 9.741,8.381 8.168,9.095 "/>
<polygon fill="#CEE1EF" points="5.614,6.562 2.994,6.158 1.58,6.665 4.157,7.189 "/>
<polygon fill="#496DA2" points="4.139,7.193 4.739,8.34 6.154,7.664 5.614,6.562 "/>
<polygon fill="#A2C2DD" points="8.186,14.435 2.036,12.701 1.612,6.648 4.139,7.193 4.741,8.348 8.208,9.084 "/>
</svg>