<?xml version="1.0" encoding="UTF-8"?>
<!DOCTYPE svg PUBLIC "-//W3C//DTD SVG 1.1 Tiny//EN" "http://www.w3.org/Graphics/SVG/1.1/DTD/svg11-tiny.dtd">
<svg width="20" height="16" viewBox="0 0 20 16">
<path d="M18.453,12.941l-0.023-8.146l-6.477,0.021V0.825h-0.075V0.816H3.774v0.003L3.766,0.812L1.554,3.023H1.549v0.005 L1.547,3.03l0.002,0.002v8.147h6.5v4h8.155v-0.007l0.015,0.015l2.217-2.231l-0.014-0.015H18.453z M9.049,8.023h6.155v6.156 H9.049V8.023z M15.491,7.023H9.468l1.208-1.207h6.022L15.491,7.023z M10.274,4.816v0.003l-0.008-0.008L9.705,5.374v-1.65 l1.248-1.248v2.341H10.274z M4.176,1.816h6.021L8.991,3.023H2.968L4.176,1.816z M2.549,10.18V4.023h6.155v2.35l-0.65,0.65 H8.049v0.005L8.047,7.03l0.002,0.002v3.147H2.549z M16.205,13.784V7.724l1.237-1.236l0.01,6.041L16.205,13.784z"/>
<circle cx="5.598" cy="6.98" r="0.646"/>
<circle cx="12.098" cy="10.98" r="0.646"/>
<circle cx="13.839" cy="9.242" r="0.646"/>
<circle cx="13.839" cy="12.763" r="0.646"/>
<circle cx="10.446" cy="9.242" r="0.646"/>
<circle cx="10.446" cy="12.763" r="0.646"/>
</svg>