<?xml version="1.0" encoding="UTF-8"?>
<!DOCTYPE svg PUBLIC "-//W3C//DTD SVG 1.1 Tiny//EN" "http://www.w3.org/Graphics/SVG/1.1/DTD/svg11-tiny.dtd">
<svg width="84" height="72" viewBox="0 0 84 72">
<linearGradient id="_4" gradientUnits="userSpaceOnUse" x1="32.24" y1="23.91" x2="56.02" y2="50.73">
<stop stop-color="#B3DDFF" offset="0"/>
<stop stop-color="#084296" offset="1"/>
</linearGradient>
<polygon fill="url(#_4)" points="42.319,56.904 61.781,62.938 75.447,19.562 57.822,16.812 57.947,11.687 39.197,9.062 33.359,10.906 30.659,20.033 24.394,18.884 15.697,21.937 18.073,32.193 13.886,33.38 8.553,37.65 9.281,51.109 15.156,57.547 34.239,62.316 "/>
<polygon fill="#5AA7E0" points="24.602,48.611 35.421,11.875 53.02,14.695 52.892,20.148 69.403,22.917 60.407,59.314 "/>
<polygon fill="#3366CC" points="60.409,58.969 24.427,48.594 18.493,22.957 54.313,30.136 "/>
<polygon fill="#B3DDFF" points="60.372,26.841 24.651,20.71 18.493,22.957 54.313,30.136 "/>
<polygon fill="#CFECFF" points="56.073,13.146 39.306,10.689 35.323,11.814 53.02,14.695 "/>
<polygon fill="#B3DDFF" points="72.985,21.058 55.868,18.476 52.892,20.148 69.403,22.917 "/>
<polygon fill="#0046B7" points="60.372,26.841 60.411,59.592 54.313,30.136 "/>
<polygon fill="#0046B7" points="72.985,21.058 60.411,59.592 69.403,22.917 "/>
<polygon fill="#0046B7" points="53.02,14.695 52.892,20.148 55.868,18.476 56.073,13.146 "/>
<linearGradient id="_5" gradientUnits="userSpaceOnUse" x1="35.41" y1="60.4" x2="51.23" y2="33.57">
<stop stop-color="#5AA7E0" offset="0"/>
<stop stop-color="#3366CC" offset="1"/>
</linearGradient>
<polygon fill="url(#_5)" points="24.602,48.611 31.278,25.806 54.323,30.357 60.411,59.592 "/>
<polygon fill="#5AA7E0" points="15.803,56.152 10.681,50.5 10.042,37.822 14.771,34.193 34.385,38.02 39.226,44.182 38.862,57.377 34.116,60.66 "/>
<linearGradient id="_6" gradientUnits="userSpaceOnUse" x1="7.18" y1="33.28" x2="40.56" y2="59.71">
<stop stop-color="#5AA7E0" offset="0"/>
<stop stop-color="#3366CC" offset="1"/>
</linearGradient>
<path fill="url(#_6)" d="M12.591,39.789l0.424,10.223l4.264,4.566l14.878,3.664l4.161-2.723l0.258-10.594 l-4.062-4.893l-16.003-3.049L12.591,39.789z M17.448,38.797l13.885,2.684c0,0,3.046,3.668,3.269,3.936 c-0.01,0.35-0.2,8.494-0.214,8.953c-0.348,0.23-2.709,1.777-3.044,1.994c-0.466-0.127-12.644-3.063-12.949-3.145 c-0.201-0.207-3.223-3.49-3.468-3.74c-0.016-0.34-0.336-8.605-0.336-8.605L17.448,38.797z"/>
<polygon fill="#8CC2EA" points="34.353,38.01 36.948,37.004 41.78,42.842 39.257,44.189 "/>
<polygon fill="#0046B7" points="39.189,44.174 41.821,42.842 41.269,55.676 38.847,57.416 "/>
<polygon fill="#CFECFF" points="36.948,37.004 17.693,33.492 14.704,34.169 34.407,37.99 "/>
</svg>