<?xml version="1.0" encoding="UTF-8"?>
<!DOCTYPE svg PUBLIC "-//W3C//DTD SVG 1.1 Tiny//EN" "http://www.w3.org/Graphics/SVG/1.1/DTD/svg11-tiny.dtd">
<svg width="96" height="96" viewBox="0 0 96 96">
<path d="M14.07,81.954L35.2,60.821c-0.843-0.844-5.673-6.581-5.673-12.817c0-6.206,4.775-12.008,5.618-12.852 L14.044,14.078C4.988,23.135,0,35.18,0,47.994C0,60.821,4.996,72.882,14.07,81.954z" fill-opacity="0.01" />
<path d="M15.605,80.419L35.2,60.821c-1.253-1.254-5.673-6.935-5.673-12.817c0-5.821,4.366-11.598,5.618-12.852 L15.579,15.613C6.933,24.26,2.171,35.76,2.171,47.994C2.171,60.241,6.941,71.757,15.605,80.419z" fill-opacity="0.02" />
<path d="M17.141,78.884L35.2,60.821c-1.663-1.663-5.673-7.297-5.673-12.817c0-5.403,3.957-11.188,5.618-12.852 L17.114,17.148C8.878,25.386,4.342,36.341,4.342,47.994C4.343,59.661,8.887,70.632,17.141,78.884z" fill-opacity="0.04" />
<path d="M18.676,77.348L35.2,60.821c-2.073-2.074-5.673-7.771-5.673-12.817c0-5.019,3.548-10.777,5.618-12.852 L18.649,18.684C10.823,26.511,6.513,36.921,6.513,47.994C6.514,59.082,10.832,69.506,18.676,77.348z" fill-opacity="0.07" />
<path d="M20.21,75.813L35.2,60.821c-2.482-2.483-5.673-8.28-5.673-12.817c0-4.498,3.14-10.368,5.618-12.852 L20.185,20.219c-7.416,7.417-11.5,17.281-11.5,27.775C8.685,58.502,12.777,68.381,20.21,75.813z" fill-opacity="0.11" />
<path d="M10.855,47.994c0,9.927,3.867,19.262,10.89,26.283L35.2,60.821c-2.894-2.894-5.673-8.724-5.673-12.817 c0-3.933,2.731-9.958,5.618-12.852L21.721,21.754C14.714,28.762,10.855,38.081,10.855,47.994z" fill-opacity="0.13" />
<path d="M30.509,47.988c0-4.824,1.953-9.191,5.111-12.356L23.239,23.274C9.59,36.924,9.601,59.064,23.264,72.727 l12.368-12.368C32.466,57.192,30.509,52.819,30.509,47.988z" fill="#87A8CB"/>
<linearGradient id="_3" gradientUnits="userSpaceOnUse" x1="29.51" y1="48.04" x2="13.61" y2="48.04">
<stop stop-color="#FFFFFF" offset="0.15"/>
<stop stop-color="#DEE9F3" offset="0.38"/>
<stop stop-color="#CADCEC" offset="0.66"/>
<stop stop-color="#A2C2DD" offset="0.97"/>
</linearGradient>
<path d="M13.896,48.151c0,8.748,3.294,17.044,9.117,23.368C24.055,70.49,33.531,60.87,34.48,59.932 c-3.099-3.34-4.777-7.105-4.777-11.666c0-4.554,1.714-8.822,4.805-12.162c-0.95-0.938-10.448-10.523-11.49-11.552 C17.011,30.906,13.896,39.416,13.896,48.151z" fill="url(#_3)"/>
<path d="M23.017,24.452c-12.264,13.221-12.251,33.888,0,47.095v-1.046c-11.331-12.762-11.346-32.23,0-45.003 V24.452z" fill="#FFFFFF"/>
<linearGradient id="_4" gradientUnits="userSpaceOnUse" x1="41.95" y1="48" x2="17.64" y2="48">
<stop stop-color="#87A8CB" offset="0"/>
<stop stop-color="#FFFFFF" offset="1"/>
</linearGradient>
<path d="M22.995,25.523c0.881,0.896,9.879,9.974,10.588,10.69c-2.605,3.435-4.072,7.593-4.072,11.822 c0,4.225,1.463,8.378,4.062,11.808c-0.551,0.558-9.608,9.721-10.56,10.685v0.991C24.318,70.2,33.388,61.036,34.48,59.932 c-2.725-3.36-4.269-7.521-4.269-11.896c0-4.38,1.564-8.57,4.296-11.933C33.415,34.996,24.3,25.802,22.995,24.478V25.523z" fill="url(#_4)"/>
<path d="M27.928,30.887c0,0-4.487,5.097-4.487,17.141c0,10.98,4.487,17.075,4.487,17.075 c-6.681,9.487-12.962-7.315-12.962-17.029C14.966,38.36,21.185,21.145,27.928,30.887z" fill="#FFFFFF" fill-opacity="0.3" />
<rect fill="#CADCEC" height="2.812" width="11.017" x="17.293" y="45.288"/>
<rect fill="#A2C2DD" height="2.812" width="0.442" x="17.292" y="45.288"/>
<polygon fill="#A2C2DD" points="17.295,45.726 17.295,45.288 28.308,45.288 28.308,45.731 "/>
</svg>