<?xml version="1.0" encoding="UTF-8"?>
<!DOCTYPE svg PUBLIC "-//W3C//DTD SVG 1.1 Tiny//EN" "http://www.w3.org/Graphics/SVG/1.1/DTD/svg11-tiny.dtd">
<svg baseProfile="tiny" height="32" version="1.1" viewBox="0 0 44 32" width="44" xmlns="http://www.w3.org/2000/svg" xmlns:xlink="http://www.w3.org/1999/xlink">
<g>
<g>
<path d="M20.557,14.309v-2.011h-2.429l0.921-4.503h-2.021l-0.92,4.503H12.02l0.908-4.503h-2.021l-0.919,4.503H6.865v2.011h2.718    l-0.754,3.75H5.705v2h2.72l-0.909,4.48h2.032l0.888-4.48h4.111l-0.923,4.48h2.034l0.897-4.48h2.841v-2H16.97l0.753-3.75H20.557z     M14.938,18.059H10.85l0.765-3.75h4.088L14.938,18.059z"/>
<g>
<path d="M31.534,11.357l-4.431,4.431v1.161c0,0,1.28,0,1.821,0c0,0.844,0,3.645,0,3.645H35c0,0,0-2.801,0-3.645     c0.54,0,1.822,0,1.822,0v-1.161l-4.86-4.861L31.534,11.357z M31.963,12.736c0.544,0.543,2.143,2.142,2.998,2.998     c-0.294,0-1.229,0-1.229,0s0,2.721,0,3.54c-0.774,0-2.766,0-3.539,0c0-0.818,0-3.54,0-3.54s-0.935,0-1.229,0     C29.822,14.878,31.419,13.279,31.963,12.736z"/>
</g>
</g>
<g>
<rect fill="none" height="32" width="44"/>
</g>
</g>
</svg>
