<?xml version="1.0" encoding="UTF-8"?>
<!DOCTYPE svg PUBLIC "-//W3C//DTD SVG 1.1 Tiny//EN" "http://www.w3.org/Graphics/SVG/1.1/DTD/svg11-tiny.dtd">
<svg baseProfile="tiny" height="32" version="1.1" viewBox="-1 -1 38 32" width="38" xmlns="http://www.w3.org/2000/svg" xmlns:xlink="http://www.w3.org/1999/xlink">
<g>
<g>
<rect height="1.994" width="3.301" x="8.531" y="10.005"/>
<path d="M9.184,5.032v3.302h1.994V7.025c2.666,0,12.718,0,14.297,0c0,1.635,0,14.313,0,15.948c-1.579,0-11.631,0-14.297,0v-1.316    H9.184v3.302l18.285,0.009V5.032H9.184z"/>
<rect height="1.992" width="3.301" x="8.531" y="13.993"/>
<rect height="1.993" width="3.301" x="8.531" y="17.979"/>
<path d="M23.582,11.557c-0.309-0.464-0.676-0.747-0.926-0.937c-0.713-0.544-3.593-1.113-6.57,1.864    c-1.805,1.811-2.314,3.575-2.314,4.841c0,0.818,0.213,1.427,0.425,1.704c0.221,0.286,0.493,0.646,0.963,0.954    c0.139,0.094,0.377,0.176,0.635,0.221l0.059,0.005c0.47-0.03,0.984-0.393,1.675-1.168c0.227-0.256,0.967-1.142,0.967-1.762    c0,0-0.002-0.074-0.004-0.092c-0.006-0.018-0.013-0.032-0.013-0.032c-0.006-0.022-0.088-0.249-0.44-0.531    c-0.221-0.174-0.549-0.298-0.978-0.367l-0.199-0.034V16.02c0.009-1.025,1.735-2.75,2.755-2.756h0.205l0.033,0.201    c0.067,0.427,0.19,0.753,0.366,0.977c0.261,0.328,0.48,0.425,0.59,0.457c0.414,0.038,1.099-0.323,1.824-0.967    c0.779-0.688,1.139-1.206,1.17-1.682c0,0,0-0.015,0.003-0.028c-0.003-0.016-0.005-0.026-0.005-0.026    C23.775,12.044,23.703,11.739,23.582,11.557z"/>
</g>
<rect fill="none" height="32" width="38" x="-1" y="-1"/>
</g>
</svg>
