<?xml version="1.0" encoding="UTF-8"?>
<!DOCTYPE svg PUBLIC "-//W3C//DTD SVG 1.1 Tiny//EN" "http://www.w3.org/Graphics/SVG/1.1/DTD/svg11-tiny.dtd">
<svg width="100%" height="100%" viewBox="-0.653 -0.389 88 88">
<linearGradient id="_11" gradientUnits="userSpaceOnUse" x1="55.74" y1="53.97" x2="66.37" y2="66.33">
<stop stop-color="#A2C2DD" offset="0.1"/>
<stop stop-color="#6C83BB" offset="0.71"/>
<stop stop-color="#003D6D" offset="0.99"/>
</linearGradient>
<path fill="url(#_11)" d="M31.759,17.818L28.397,29.21l-8.493-1.474l-7.75,2.875l7.084,30.333l42.124,12.541l14.803-45.199 L56.392,25.33l0.273-6.074l-20-2.938L31.759,17.818z"/>
<linearGradient id="_12" gradientUnits="userSpaceOnUse" x1="19.96" y1="45.48" x2="71.13" y2="45.48">
<stop stop-color="#FFFFFF" offset="0.15"/>
<stop stop-color="#A2C2DD" offset="1"/>
</linearGradient>
<polygon fill="url(#_12)" points="19.956,60.347 32.313,18.388 52.413,21.611 52.269,27.839 71.126,31.001 60.853,72.572 "/>
<linearGradient id="_13" gradientUnits="userSpaceOnUse" x1="48.23" y1="59.45" x2="10.87" y2="27.81">
<stop stop-color="#E2E6E4" offset="0"/>
<stop stop-color="#A3740A" offset="1"/>
</linearGradient>
<polygon fill="url(#_13)" points="60.854,72.175 19.755,60.33 12.978,31.05 53.892,39.249 "/>
<linearGradient id="_14" gradientUnits="userSpaceOnUse" x1="36.41" y1="34.36" x2="41.41" y2="23.03">
<stop stop-color="#E2E6E4" offset="0"/>
<stop stop-color="#A3740A" offset="1"/>
</linearGradient>
<polygon fill="url(#_14)" points="60.813,35.482 20.011,28.482 12.978,31.05 53.999,39.406 "/>
<linearGradient id="_15" gradientUnits="userSpaceOnUse" x1="43.07" y1="21.98" x2="45.44" y2="15.56">
<stop stop-color="#FFFFFF" offset="0.05"/>
<stop stop-color="#A2C2DD" offset="1"/>
</linearGradient>
<polygon fill="url(#_15)" points="55.903,19.843 36.751,17.035 32.351,18.406 52.413,21.611 "/>
<linearGradient id="_16" gradientUnits="userSpaceOnUse" x1="62.67" y1="31.28" x2="65.09" y2="24.71">
<stop stop-color="#FFFFFF" offset="0.05"/>
<stop stop-color="#A2C2DD" offset="1"/>
</linearGradient>
<polygon fill="url(#_16)" points="75.218,28.878 55.667,25.929 52.269,27.839 71.126,31.001 "/>
<linearGradient id="_17" gradientUnits="userSpaceOnUse" x1="70.91" y1="50.69" x2="54.41" y2="56.41">
<stop stop-color="#E6EEF4" offset="0"/>
<stop stop-color="#A3740A" offset="0.44"/>
<stop stop-color="#474105" offset="0.94"/>
</linearGradient>
<polygon fill="url(#_17)" points="60.813,35.482 60.856,72.888 53.894,39.464 "/>
<linearGradient id="_18" gradientUnits="userSpaceOnUse" x1="50.81" y1="34.31" x2="72.86" y2="55.35">
<stop stop-color="#A2C2DD" offset="0.1"/>
<stop stop-color="#6C83BB" offset="0.71"/>
<stop stop-color="#003D6D" offset="0.99"/>
</linearGradient>
<polygon fill="url(#_18)" points="75.218,28.878 60.87,72.634 71.126,31.001 "/>
<linearGradient id="_19" gradientUnits="userSpaceOnUse" x1="29.39" y1="10.81" x2="77.86" y2="36.39">
<stop stop-color="#FFFFFF" offset="0"/>
<stop stop-color="#A2C2DD" offset="0.35"/>
<stop stop-color="#6C83BB" offset="0.7"/>
<stop stop-color="#003D6D" offset="1"/>
</linearGradient>
<polygon fill="url(#_19)" points="52.413,21.611 52.269,27.839 55.667,25.929 55.903,19.843 "/>
<linearGradient id="_20" gradientUnits="userSpaceOnUse" x1="30.48" y1="67.69" x2="64.48" y2="32.36">
<stop stop-color="#E2E6E4" offset="0"/>
<stop stop-color="#A3740A" offset="1"/>
</linearGradient>
<polygon fill="url(#_20)" points="19.956,60.347 27.694,34.059 53.95,39.455 60.87,72.634 "/>
</svg>