<?xml version="1.0" encoding="UTF-8"?>
<!DOCTYPE svg PUBLIC "-//W3C//DTD SVG 1.1 Tiny//EN" "http://www.w3.org/Graphics/SVG/1.1/DTD/svg11-tiny.dtd">
<svg width="100%" height="100%" viewBox="0 0 88 88">
<linearGradient id="_8" gradientUnits="userSpaceOnUse" x1="40.45" y1="54.67" x2="36.45" y2="70.87">
<stop stop-color="#A2C2DD" offset="0.1"/>
<stop stop-color="#6C83BB" offset="0.71"/>
<stop stop-color="#003D6D" offset="0.99"/>
</linearGradient>
<path fill="url(#_8)" d="M11.314,48.653c3.465,14.432,16.499,29.706,42.061,21.376c9.928-3.236,16.69-8.625,20.098-16.019 C77,46.358,79.645,23.46,59.54,16.373C34.888,7.691,5.51,28.663,11.314,48.653z"/>
<linearGradient id="_9" gradientUnits="userSpaceOnUse" x1="78.94" y1="44.87" x2="15.17" y2="61.48">
<stop stop-color="#FFFFFF" offset="0"/>
<stop stop-color="#A2C2DD" offset="0.53"/>
<stop stop-color="#6C83BB" offset="0.87"/>
<stop stop-color="#003D6D" offset="1"/>
</linearGradient>
<path fill="url(#_9)" d="M11.381,44.612c0.665,8.902,10.067,35.05,41.767,24.718 c32.039-10.44,19.794-40.063,19.794-40.063L11.381,44.612z"/>
<linearGradient id="_10" gradientUnits="userSpaceOnUse" x1="17.24" y1="83.84" x2="49.52" y2="27.67">
<stop stop-color="#FFFFFF" offset="0.1"/>
<stop stop-color="#D1E1EE" offset="0.7"/>
<stop stop-color="#A2C2DD" offset="1"/>
</linearGradient>
<path fill="url(#_10)" d="M69.312,48.933c-9.173,12.42-28.526,18.287-43.227,13.104 C11.381,56.857,6.896,42.592,16.069,30.17c9.171-12.417,28.524-18.282,43.227-13.104C73.998,22.248,78.482,36.514,69.312,48.933 z"/>
<linearGradient id="_11" gradientUnits="userSpaceOnUse" x1="48.49" y1="51.14" x2="31.82" y2="53.48">
<stop stop-color="#E6EEF4" offset="0"/>
<stop stop-color="#2F8E9A" offset="0.44"/>
<stop stop-color="#003D6D" offset="0.94"/>
</linearGradient>
<path fill="url(#_11)" d="M30.329,51.244c0.377,2.236,2.634,5.267,5.998,4.493c3.573-0.821,4.241-3.346,3.229-6.252 C39.6,49.653,30.329,51.244,30.329,51.244z"/>
<polygon fill="#115B7E" points="31.475,28.632 31.776,31.665 38.604,34.299 38.477,30.878 "/>
<polygon fill="#115B7E" points="34.547,42.933 34.758,46.322 41.316,49.193 41.395,45.474 "/>
<linearGradient id="_12" gradientUnits="userSpaceOnUse" x1="30.65" y1="32.88" x2="53.49" y2="28.68">
<stop stop-color="#E6EEF4" offset="0"/>
<stop stop-color="#2F8E9A" offset="0.44"/>
<stop stop-color="#003D6D" offset="0.94"/>
</linearGradient>
<path fill="url(#_12)" d="M38.57,34.299c2.481-4.045,8.433-5.287,12.364-2.233c0-4.155-8.681-7.12-12.458-1.188 L38.57,34.299z"/>
<linearGradient id="_13" gradientUnits="userSpaceOnUse" x1="72.18" y1="20.46" x2="40.18" y2="51.46">
<stop stop-color="#E6EEF4" offset="0"/>
<stop stop-color="#2F8E9A" offset="0.44"/>
<stop stop-color="#003D6D" offset="0.94"/>
</linearGradient>
<path fill="url(#_13)" d="M41.349,44.795c0.006-0.022,17.192-14.456,17.192-14.456c1.512,4.314,0.279,7.633-0.931,9.492 c-3.564,5.488-11.879,3.782-16.311,9.368L41.349,44.795z"/>
<linearGradient id="_14" gradientUnits="userSpaceOnUse" x1="28.88" y1="15.08" x2="65.88" y2="58.75">
<stop stop-color="#E6EEF4" offset="0"/>
<stop stop-color="#2F8E9A" offset="0.44"/>
<stop stop-color="#003D6D" offset="0.94"/>
</linearGradient>
<path fill="url(#_14)" d="M34.547,42.933c3.07-6.102,13.976-4.707,15.883-8.896c2.74-6.02-8.326-9.184-12.013-3.095 l-6.942-2.31c8.089-13.106,32.721-5.012,26.267,7.375c-3.591,6.893-12.047,4.108-16.409,9.494L34.547,42.933z"/>
<path fill="#5DA6B1" d="M35.037,53.631c-2.701,0.119-4.818-1.271-4.896-3.202c-0.086-2.057,1.896-3.924,4.599-4.043 c2.646-0.117,4.799,1.421,4.881,3.436C39.7,51.751,37.629,53.517,35.037,53.631z"/>
</svg>