<?xml version="1.0" encoding="UTF-8"?>
<!DOCTYPE svg PUBLIC "-//W3C//DTD SVG 1.1 Tiny//EN" "http://www.w3.org/Graphics/SVG/1.1/DTD/svg11-tiny.dtd">
<svg width="32" height="22" viewBox="0 0 32 22">
<polygon points="4,14 8,14 8,18 24,18 24,14 28,14 28,22 4,22 "/>
<path d="M23,8V6c0,0-2.111,0-3,0c0-1.389,0-6,0-6h-8c0,0,0,4.611,0,6c-0.889,0-3,0-3,0v2l7,7L23,8z M16,12 c-0.953-0.953-3.046-3.047-4-4c0.79,0,2,0,2,0s0-4.611,0-6c1.111,0,2.889,0,4,0c0,1.389,0,6,0,6s1.21,0,2,0 C19.046,8.953,16.953,11.047,16,12z"/>
</svg>