<?xml version="1.0" encoding="UTF-8"?>
<!DOCTYPE svg PUBLIC "-//W3C//DTD SVG 1.1 Tiny//EN" "http://www.w3.org/Graphics/SVG/1.1/DTD/svg11-tiny.dtd">
<svg width="8" height="20" viewBox="-0.014 0.159 8 20">
<path fill-opacity="0.15" fill="#3F3F3F" d="M0.986,17.159v0.711c0,0.711,0.668,1.289,1.488,1.289h5.512v-2 C3.476,17.159,0.986,17.159,0.986,17.159z"/>
<path fill-opacity="0.3" fill="#FFFFFF" d="M2.474,1.159c-0.82,0-1.488,0.578-1.488,1.289V17.87c0,0.711,0.668,1.289,1.488,1.289h0.512 c0,0,0-14.275,0-16c0.146,0,1.897,0,5,0v-2H2.474z"/>
<path fill="#496DA2" d="M2.474,19.159c-0.82,0-1.488-0.578-1.488-1.289V2.448c0-0.711,0.668-1.289,1.488-1.289h5.512v-1H2.474 c-1.372,0-2.488,1.026-2.488,2.289V17.87c0,1.263,1.116,2.289,2.488,2.289h5.512v-1H2.474z"/>
</svg>