<?xml version="1.0" encoding="UTF-8"?>
<!DOCTYPE svg PUBLIC "-//W3C//DTD SVG 1.1 Tiny//EN" "http://www.w3.org/Graphics/SVG/1.1/DTD/svg11-tiny.dtd">
<svg width="84" height="58" viewBox="0 0 84 58">
<linearGradient id="_15" gradientUnits="userSpaceOnUse" x1="40.89" y1="29.57" x2="52.05" y2="51.54">
<stop stop-color="#A2C2DD" offset="0.1"/>
<stop stop-color="#6C83BB" offset="0.71"/>
<stop stop-color="#003D6D" offset="0.99"/>
</linearGradient>
<path fill="url(#_15)" d="M33.875,5.345c0,0-2.415,8.374-2.58,8.934c-0.562-0.097-6.784-1.164-6.784-1.164l-5.921,2.16 c0,0,3.648,15.765,3.893,16.824c-0.769-0.204-2.825-0.752-2.825-0.752l-3.151,1.875c0,0,0.04,1.451,0.06,1.996 c-0.483-0.065-1.276-0.128-1.516,0.166c-1.049-1.344-1.399-1.909-1.484-2.121l-0.128-0.324l-2.64,1.034l0.128,0.326 c0.372,0.949,1.196,1.96,2.362,3c-2.04-0.354-3.824,0.217-3.824,0.217l1.126,2.855l0.325-0.127 c0.308-0.121,1.226-0.249,2.457-0.349c0.017,0.052,1.271,2.444,3.46,2.604c0.018,0.483,0.136,3.703,0.136,3.703l17.311,5.803 l2.828-2.57c0,0-3.782-7.023-4.041-7.504c0.14-0.11,0.21-0.166,0.314-0.249c0.347,0.106,23.535,7.221,23.535,7.221l11.601-35.397 c0,0-14.915-2.252-15.51-2.342c0.021-0.546,0.186-4.8,0.186-4.8L37.714,4.096L33.875,5.345z M15.896,42.279L15.896,42.279 C15.897,42.279,15.897,42.279,15.896,42.279z"/>
<linearGradient id="_16" gradientUnits="userSpaceOnUse" x1="24.53" y1="26.93" x2="64.7" y2="26.93">
<stop stop-color="#FFFFFF" offset="0.15"/>
<stop stop-color="#A2C2DD" offset="1"/>
</linearGradient>
<polygon fill="url(#_16)" points="24.53,38.598 34.231,5.655 50.013,8.186 49.899,13.074 64.704,15.557 56.638,48.195 "/>
<linearGradient id="_17" gradientUnits="userSpaceOnUse" x1="46.73" y1="37.89" x2="17.4" y2="13.05">
<stop stop-color="#CADCEC" offset="0"/>
<stop stop-color="#87A8CB" offset="1"/>
</linearGradient>
<polygon fill="url(#_17)" points="56.64,47.885 24.372,38.584 19.052,15.596 51.173,22.033 "/>
<linearGradient id="_18" gradientUnits="userSpaceOnUse" x1="34.63" y1="23.73" x2="39.92" y2="13.15">
<stop stop-color="#FFFFFF" offset="0.15"/>
<stop stop-color="#A2C2DD" offset="1"/>
</linearGradient>
<polygon fill="url(#_18)" points="56.606,19.076 24.573,13.579 19.052,15.596 51.258,22.158 "/>
<linearGradient id="_19" gradientUnits="userSpaceOnUse" x1="42.68" y1="8.48" x2="44.54" y2="3.43">
<stop stop-color="#FFFFFF" offset="0.05"/>
<stop stop-color="#A2C2DD" offset="1"/>
</linearGradient>
<polygon fill="url(#_19)" points="52.751,6.797 37.716,4.594 34.262,5.67 50.013,8.186 "/>
<linearGradient id="_20" gradientUnits="userSpaceOnUse" x1="58.06" y1="15.78" x2="59.96" y2="10.62">
<stop stop-color="#FFFFFF" offset="0.05"/>
<stop stop-color="#A2C2DD" offset="1"/>
</linearGradient>
<polygon fill="url(#_20)" points="67.917,13.891 52.567,11.574 49.899,13.074 64.704,15.557 "/>
<linearGradient id="_21" gradientUnits="userSpaceOnUse" x1="64.53" y1="31.02" x2="51.58" y2="35.51">
<stop stop-color="#A2C2DD" offset="0.1"/>
<stop stop-color="#6C83BB" offset="0.71"/>
<stop stop-color="#003D6D" offset="0.99"/>
</linearGradient>
<polygon fill="url(#_21)" points="56.606,19.076 56.642,48.445 51.175,22.201 "/>
<linearGradient id="_22" gradientUnits="userSpaceOnUse" x1="48.75" y1="18.15" x2="66.06" y2="34.67">
<stop stop-color="#A2C2DD" offset="0.1"/>
<stop stop-color="#6C83BB" offset="0.71"/>
<stop stop-color="#003D6D" offset="0.99"/>
</linearGradient>
<polygon fill="url(#_22)" points="67.917,13.891 56.652,48.244 64.704,15.557 "/>
<linearGradient id="_23" gradientUnits="userSpaceOnUse" x1="31.95" y1="-0.29" x2="69.99" y2="19.78">
<stop stop-color="#FFFFFF" offset="0"/>
<stop stop-color="#A2C2DD" offset="0.35"/>
<stop stop-color="#6C83BB" offset="0.7"/>
<stop stop-color="#003D6D" offset="1"/>
</linearGradient>
<polygon fill="url(#_23)" points="50.013,8.186 49.899,13.074 52.567,11.574 52.751,6.797 "/>
<linearGradient id="_24" gradientUnits="userSpaceOnUse" x1="17.62" y1="46.15" x2="47.88" y2="31.08">
<stop stop-color="#FFFFFF" offset="0.15"/>
<stop stop-color="#A2C2DD" offset="1"/>
</linearGradient>
<polygon fill="url(#_24)" points="24.53,38.598 30.604,17.959 51.22,22.195 56.642,48.445 "/>
<linearGradient id="_25" gradientUnits="userSpaceOnUse" x1="18.8" y1="32.77" x2="43.49" y2="39.27">
<stop stop-color="#E2E6E4" offset="0"/>
<stop stop-color="#A3740A" offset="1"/>
</linearGradient>
<polygon fill="url(#_25)" points="39.456,36.98 19.711,31.723 16.856,33.421 36.54,38.729 "/>
<linearGradient id="_26" gradientUnits="userSpaceOnUse" x1="26.92" y1="36.66" x2="38.79" y2="55.04">
<stop stop-color="#E6EEF4" offset="0"/>
<stop stop-color="#A3740A" offset="0.44"/>
<stop stop-color="#474105" offset="0.94"/>
</linearGradient>
<polygon fill="url(#_26)" points="34.198,51.607 36.671,49.359 32.537,41.682 29.977,43.938 "/>
<linearGradient id="_27" gradientUnits="userSpaceOnUse" x1="14.93" y1="47.84" x2="34.06" y2="38.22">
<stop stop-color="#E2E6E4" offset="0"/>
<stop stop-color="#A3740A" offset="1"/>
</linearGradient>
<polygon fill="url(#_27)" points="16.852,33.412 17.312,45.947 34.198,51.607 29.977,43.938 36.54,38.729 "/>
<linearGradient id="_28" gradientUnits="userSpaceOnUse" x1="8.86" y1="33.09" x2="19.11" y2="41.97">
<stop stop-color="#E6EEF4" offset="0"/>
<stop stop-color="#A3740A" offset="0.44"/>
<stop stop-color="#474105" offset="0.94"/>
</linearGradient>
<path fill="url(#_28)" d="M21.403,39.528c-0.995-1.436-2.562-3.052-3.177-3.4c-0.137-0.078-0.267-0.132-0.398-0.19 c-0.927-0.445-1.764-0.561-2.485-0.308c-0.125,0.045-0.258,0.104-0.396,0.19c-0.761-0.964-1.532-1.993-1.704-2.429l-1.989,0.779 c0.437,1.114,1.44,2.203,2.522,3.122c-0.012,0.024-0.024,0.041-0.033,0.067c-0.045,0.117-0.058,0.22-0.09,0.332 c-1.333-0.281-2.721-0.379-3.732,0.021l0.87,2.205c0.431-0.169,1.661-0.308,2.83-0.395c0.037,0.13,0.076,0.255,0.119,0.361 c0.381,0.895,1.148,1.594,2.292,2.071c0.099,0.045,0.263,0.082,0.427,0.123c0.931,0.218,2.736,0.349,4.1,0.19 c0.01,0.011,0.014,0.022,0.026,0.035c0,0,0.012-0.039,0.017-0.054c0.513,0.63,1.333,0.882,1.998,0.521 c0.767-0.412,1.009-1.444,0.545-2.301C22.771,39.782,22.065,39.434,21.403,39.528z M16.631,37.877L16.631,37.877L16.631,37.877 C16.626,37.875,16.631,37.875,16.631,37.877z M16.992,39.856h0.004l0.4-1.616c0.293,0.233,0.876,0.888,1.54,1.702 C18.128,39.946,17.41,39.918,16.992,39.856z"/>
</svg>