<?xml version="1.0" encoding="UTF-8" standalone="no"?>
<!DOCTYPE svg PUBLIC "-//W3C//DTD SVG 1.1 Tiny//EN" "http://www.w3.org/Graphics/SVG/1.1/DTD/svg11-tiny.dtd">
<svg xmlns="http://www.w3.org/2000/svg" xmlns:xlink="http://www.w3.org/1999/xlink" width="24" height="24" viewBox="0 0 24 24">
<rect fill="none" height="24" width="24"/>
<polygon points="17.954,18.817 23.985,9.465 23.985,7.723 15.045,7.723 15.045,9.72 20.371,9.745 14.538,19.032 14.538,20.764 24,20.749 24,18.79 "/>
<polygon points="16.494,2.985 19.305,6.539 21.498,6.539 24,2.985 21.914,2.985 20.247,5.146 18.606,3.013 "/>
<path d="M1.272,6.098v1.812c0,0,7.791-2.434,6.399,3.002c0,0-8.137-0.634-7.65,4.452c0,0-0.278,3.553,4.309,3.622 c0,0,2.085,0.069,3.614-2.018l0.35,1.81h1.736V8.606C10.03,8.606,9.544,3.799,1.272,6.098z M3.033,16.745 c-0.802-0.492-1.263-1.377-0.688-2.512c0.907-1.791,5.138-1.585,5.138-1.585C6.855,17.607,3.381,16.959,3.033,16.745z"/>
<polygon points="4.886,4.424 7.11,4.495 4.817,0.803 1.968,0.943 "/>
</svg>