<?xml version="1.0" encoding="UTF-8"?>
<!DOCTYPE svg PUBLIC "-//W3C//DTD SVG 1.1 Tiny//EN" "http://www.w3.org/Graphics/SVG/1.1/DTD/svg11-tiny.dtd">
<svg baseProfile="tiny" height="32" version="1.1" viewBox="0 0 44 32" width="44" xmlns="http://www.w3.org/2000/svg" xmlns:xlink="http://www.w3.org/1999/xlink">
<g>
<g>
<path d="M9.24,23.922c0.774,0.53,1.805,0.799,3.094,0.799c1.805,0,3.12-0.49,3.947-1.464c0.826-0.972,1.241-2.507,1.241-4.604    c0-1.524-0.365-2.754-1.095-3.682c-0.73-0.928-1.758-1.393-3.083-1.393c-0.772,0-1.443,0.12-2.017,0.359    c-0.573,0.238-1.02,0.572-1.341,0.998c0.005-1.041,0.097-1.955,0.269-2.738c0.172-0.788,0.492-1.375,0.96-1.766    c0.468-0.388,1.046-0.583,1.734-0.583c0.591,0,1.208,0.077,1.848,0.23c0.642,0.154,1.141,0.328,1.501,0.521V8.152    c-0.346-0.127-0.813-0.248-1.404-0.364c-0.592-0.116-1.136-0.174-1.628-0.174c-1.775,0-3.094,0.313-3.955,0.938    c-0.859,0.626-1.47,1.549-1.829,2.768c-0.359,1.222-0.538,2.744-0.538,4.57c0,2.552,0.188,4.398,0.564,5.532    C7.888,22.557,8.465,23.391,9.24,23.922z M10.565,16.561c0.385-0.5,0.93-0.748,1.633-0.748c0.721,0,1.264,0.278,1.635,0.83    c0.371,0.557,0.556,1.389,0.556,2.508c0,1.023-0.178,1.836-0.533,2.436c-0.354,0.6-0.87,0.898-1.545,0.898    c-0.794,0-1.38-0.297-1.758-0.894c-0.378-0.596-0.565-1.536-0.565-2.825C9.987,17.792,10.179,17.059,10.565,16.561z"/>
<g>
<path d="M28.15,25.043h-1.342v-3.838c0-0.71-0.244-1.064-0.732-1.064c-0.293,0-0.534,0.129-0.723,0.389     c-0.189,0.259-0.283,0.632-0.283,1.119v3.396h-1.338V21.21c0-0.354-0.064-0.621-0.193-0.801c-0.129-0.179-0.32-0.269-0.574-0.269     c-0.303,0-0.54,0.129-0.713,0.389c-0.172,0.259-0.258,0.631-0.258,1.115v3.398H20.67v-4.879c0-0.289-0.013-0.566-0.039-0.83     h1.275c0.035,0.16,0.064,0.426,0.088,0.797c0.208-0.586,0.658-0.879,1.352-0.879c0.752,0,1.266,0.307,1.539,0.922     c0.149-0.285,0.35-0.512,0.6-0.676c0.252-0.164,0.586-0.246,1.002-0.246c0.481,0,0.88,0.166,1.193,0.5     c0.314,0.334,0.471,0.782,0.471,1.346V25.043L28.15,25.043z"/>
<path d="M33.971,25.043h-1.318v-3.229c0-0.619-0.065-1.053-0.198-1.303c-0.134-0.252-0.36-0.378-0.681-0.378     c-0.314,0-0.553,0.128-0.713,0.38c-0.158,0.252-0.237,0.6-0.237,1.043v3.485h-1.324V20.16c0-0.297-0.013-0.572-0.039-0.826h1.289     c0.026,0.137,0.051,0.387,0.074,0.748c0.104-0.244,0.286-0.443,0.547-0.6c0.26-0.153,0.573-0.23,0.94-0.23     c0.524,0,0.933,0.17,1.225,0.51c0.291,0.34,0.438,0.881,0.438,1.623v3.658H33.971z"/>
<path d="M37.502,19.252c0.766,0,1.364,0.254,1.799,0.762c0.436,0.508,0.652,1.231,0.652,2.172c0,0.967-0.221,1.698-0.662,2.193     c-0.441,0.494-1.037,0.742-1.789,0.742s-1.352-0.248-1.795-0.742c-0.443-0.495-0.666-1.227-0.666-2.193     c0-0.957,0.217-1.685,0.65-2.185C36.127,19.502,36.73,19.252,37.502,19.252z M37.502,24.242c0.354,0,0.627-0.178,0.816-0.53     c0.19-0.353,0.287-0.862,0.287-1.526s-0.097-1.172-0.287-1.522c-0.189-0.351-0.463-0.526-0.816-0.526     c-0.352,0-0.625,0.176-0.82,0.526s-0.293,0.858-0.293,1.522C36.389,23.557,36.76,24.242,37.502,24.242z"/>
</g>
</g>
<g>
<rect fill="none" height="32" width="44"/>
</g>
</g>
</svg>
