<?xml version="1.0" encoding="UTF-8"?>
<!DOCTYPE svg PUBLIC "-//W3C//DTD SVG 1.1 Tiny//EN" "http://www.w3.org/Graphics/SVG/1.1/DTD/svg11-tiny.dtd">
<svg width="332" height="126" viewBox="-0.978 -0.176 332 126">
<g fill-opacity="0.7" stroke-opacity="0.7">
<path fill-opacity="0.01" fill="#656B6B" d="M11.022,10.824c-4.963,0-9,4.037-9,9v88c0,4.963,4.037,9,9,9h306c4.963,0,9-4.037,9-9v-88 c0-4.963-4.037-9-9-9H11.022z"/>
<path fill-opacity="0.03" fill="#656B6B" d="M11.022,11.824c-4.41,0-8,3.589-8,8v88c0,4.411,3.59,8,8,8h306c4.412,0,8-3.589,8-8v-88 c0-4.411-3.588-8-8-8H11.022z"/>
<path fill-opacity="0.05" fill="#656B6B" d="M11.022,12.824c-3.859,0-7,3.141-7,7v88c0,3.859,3.141,7,7,7h306c3.859,0,7-3.141,7-7v-88 c0-3.859-3.141-7-7-7H11.022z"/>
<path fill-opacity="0.07" fill="#656B6B" d="M11.022,13.824c-3.309,0-6,2.691-6,6v88c0,3.309,2.691,6,6,6h306c3.309,0,6-2.691,6-6v-88 c0-3.309-2.691-6-6-6H11.022z"/>
<path fill-opacity="0.11" fill="#656B6B" d="M322.022,107.824c0,2.762-2.238,5-5,5h-306c-2.762,0-5-2.238-5-5v-88c0-2.762,2.238-5,5-5 h306c2.762,0,5,2.238,5,5V107.824z"/>
<rect x="5.022" y="13.824" fill="#FFFFFF" width="316" height="98"/>
</g>
</svg>