<?xml version="1.0" encoding="UTF-8"?>
<!DOCTYPE svg PUBLIC "-//W3C//DTD SVG 1.1 Tiny//EN" "http://www.w3.org/Graphics/SVG/1.1/DTD/svg11-tiny.dtd">
<svg width="16" height="16" viewBox="0 0 16 16">
<path fill="#496DA2" d="M10.206,2.906C9.763,2.554,9.184,1.519,9.184,1.519v7.018c-0.048-0.01-0.092-0.024-0.144-0.033 C8.076,8.38,6.876,8.945,6.361,9.766c-0.514,0.82-0.146,1.585,0.821,1.706c0.965,0.124,2.164-0.44,2.679-1.258 c0.145-0.234,0.212-0.463,0.223-0.673c0.003-0.007,0.007-0.012,0.011-0.018c0-0.225,0-5.66,0-5.66s0.64,0.115,1.33,0.646 c0.48,0.37,0.68,0.764,0.68,1.477c0,1.403-1.67,2.384-1.67,2.384c1.796-0.528,2.914-2.174,1.82-3.969 C11.652,3.413,10.923,3.476,10.206,2.906z"/>
<path fill="#496DA2" d="M5.288,4.161c-1.131-0.489-2.55-0.374-2.55-0.374s3.181,3.389,1.772,7.039 c-0.99-1.46-2.699-0.742-2.908-0.011c-0.351,1.228,0.426,2.038,1.512,2.241c0.835,0.156,1.374-0.175,1.866-0.614 c0.001-0.003,0.001-0.006,0.003-0.01c0.567-0.614,1.886-3.025-0.565-7.3c0.521-0.052,1.057,0.006,1.616,0.364 C7.145,6.21,6.652,7.262,6.652,7.262S7.167,7.243,7.419,6.71C7.92,5.667,6.194,4.554,5.288,4.161z"/>
<path fill="#496DA2" d="M11.875,7.852l-0.006,4.48c-0.039-0.007-0.074-0.016-0.116-0.019c-0.771-0.057-1.727,0.385-2.138,0.989 c-0.411,0.601-0.117,1.136,0.65,1.192c0.772,0.056,1.729-0.387,2.138-0.988c0.12-0.17,0.172-0.335,0.181-0.487 c0.002-0.006,0.007-0.009,0.009-0.014c0-0.16,0.006-3.466,0.006-3.466l1.833,0.737l0.002-1.254L11.875,7.852z"/>
</svg>