<?xml version="1.0" encoding="UTF-8"?>
<!DOCTYPE svg PUBLIC "-//W3C//DTD SVG 1.1 Tiny//EN" "http://www.w3.org/Graphics/SVG/1.1/DTD/svg11-tiny.dtd">
<svg baseProfile="tiny" height="100" version="1.1" viewBox="-72.714 -20.963 100 100" width="100" xmlns="http://www.w3.org/2000/svg" xmlns:xlink="http://www.w3.org/1999/xlink">
<g>
<g>
<g>
<g>
<path d="M-59.187,29.035c0,20.109,16.361,36.471,36.473,36.471s36.472-16.361,36.472-36.471      c0-20.111-16.362-36.473-36.472-36.473C-42.824-7.438-59.187,8.923-59.187,29.035z" fill="url(#XMLID_9_)"/>
<radialGradient cx="-756.3331" cy="1087.0292" gradientTransform="matrix(1.1364 0 0 -1.1364 843.7981 1241.2885)" gradientUnits="userSpaceOnUse" id="XMLID_10_" r="58.0875">
<stop offset="0" style="stop-color:#FFFFFF"/>
<stop offset="0.5337" style="stop-color:#A2C2DD"/>
<stop offset="0.8652" style="stop-color:#6C83BB"/>
<stop offset="1" style="stop-color:#003D6D"/>
</radialGradient>
<circle cx="-22.714" cy="29.035" fill="url(#XMLID_10_)" r="35.676"/>
<g>
<radialGradient cx="-760.4039" cy="1079.4218" gradientTransform="matrix(1.1364 0 0 -1.1364 843.7981 1241.2885)" gradientUnits="userSpaceOnUse" id="XMLID_11_" r="41.0115">
<stop offset="0" style="stop-color:#A2C2DD"/>
<stop offset="0.1" style="stop-color:#A2C2DD"/>
<stop offset="0.7135" style="stop-color:#6C83BB"/>
<stop offset="0.9888" style="stop-color:#003D6D"/>
<stop offset="1" style="stop-color:#003D6D"/>
</radialGradient>
<path d="M-37.096-1.685c0.146,0.301,0.635,0.375,1.662,0.05c0.758-0.068,2.739-1.786,3.773-1.442       c1.038,0.344,1.889-0.35,2.852-0.969c2.005,0.176,4.14-1.586,4.553-1.586c0.412,0,1.97,0.286,2.313-0.263       c0,0,3.765,0.885,7.201,0.148c-2.563-0.586-5.231-0.896-7.972-0.896c-3.527,0-6.937,0.515-10.155,1.468       C-33.769-4.306-34.734-3.13-37.096-1.685z" fill="url(#XMLID_11_)"/>
<radialGradient cx="-760.4059" cy="1079.4296" gradientTransform="matrix(1.1364 0 0 -1.1364 843.7981 1241.2885)" gradientUnits="userSpaceOnUse" id="XMLID_12_" r="41.0028">
<stop offset="0" style="stop-color:#A2C2DD"/>
<stop offset="0.1" style="stop-color:#A2C2DD"/>
<stop offset="0.7135" style="stop-color:#6C83BB"/>
<stop offset="0.9888" style="stop-color:#003D6D"/>
<stop offset="1" style="stop-color:#003D6D"/>
</radialGradient>
<path d="M5.888,40.379l-1.164,1.844c0,0-1.743,0.549-1.812,1.102c-0.029,0.234-1.346,3.151-1.346,3.151       s-0.519,1.628,0.96,1.144C5.599,46.614,7.61,40.035,5.888,40.379z" fill="url(#XMLID_12_)"/>
<radialGradient cx="-760.4054" cy="1079.4296" gradientTransform="matrix(1.1364 0 0 -1.1364 843.7981 1241.2885)" gradientUnits="userSpaceOnUse" id="XMLID_13_" r="41.0029">
<stop offset="0" style="stop-color:#A2C2DD"/>
<stop offset="0.1" style="stop-color:#A2C2DD"/>
<stop offset="0.7135" style="stop-color:#6C83BB"/>
<stop offset="0.9888" style="stop-color:#003D6D"/>
<stop offset="1" style="stop-color:#003D6D"/>
</radialGradient>
<path d="M-49.661,44.008c0.503,0,1.801,0.158,1.958-0.314c0.011-0.204,0.192-5.084,0.192-5.084       l1.943-2.584v-2.059l-5.056-3.271l-2.193-2.377c0,0.01-0.851-2.566-1.646-3.293c-0.666-0.607-0.617-1.944-1.326-2.927       c-0.642-0.891-1.16-1.39-1.573-1.588c-3.26,13.205,1.795,24.428,6.53,30.482c0.677-0.968,1.213-2.049,1.629-3.006       C-48.776,47-51.354,45.608-49.661,44.008z" fill="url(#XMLID_13_)"/>
<radialGradient cx="-760.4025" cy="1079.4257" gradientTransform="matrix(1.1364 0 0 -1.1364 843.7981 1241.2885)" gradientUnits="userSpaceOnUse" id="XMLID_14_" r="41.0047">
<stop offset="0" style="stop-color:#A2C2DD"/>
<stop offset="0.1" style="stop-color:#A2C2DD"/>
<stop offset="0.7135" style="stop-color:#6C83BB"/>
<stop offset="0.9888" style="stop-color:#003D6D"/>
<stop offset="1" style="stop-color:#003D6D"/>
</radialGradient>
<path d="M-45.775,3.117c0-0.64,1.054-0.96,1.054-0.96l0.137,0.503l0.96,0.41       c0,0,1.144-1.235,1.373-1.556c0.228-0.319,0.64-1.553,0.64-1.553l1.998-2.355c-4.483,2.417-8.39,5.765-11.462,9.786       C-49.845,6.417-45.775,3.757-45.775,3.117z" fill="url(#XMLID_14_)"/>
<radialGradient cx="-765.5592" cy="1092.0995" gradientTransform="matrix(1.1364 0 0 -1.1364 843.7981 1241.2885)" gradientUnits="userSpaceOnUse" id="XMLID_15_" r="6.9387">
<stop offset="0" style="stop-color:#A2C2DD"/>
<stop offset="0.1" style="stop-color:#A2C2DD"/>
<stop offset="0.7135" style="stop-color:#6C83BB"/>
<stop offset="0.9888" style="stop-color:#003D6D"/>
<stop offset="1" style="stop-color:#003D6D"/>
</radialGradient>
<path d="M-26.9-2.529c0.45-0.088,1.48-0.569,1.48-0.569s-0.515-0.218-1.096-0.132       c-0.578,0.088-1.414-0.349-1.866-0.131C-27.996-2.879-27.352-2.443-26.9-2.529z" fill="url(#XMLID_15_)"/>
<radialGradient cx="-755.7804" cy="1084.3173" gradientTransform="matrix(1.1364 0 0 -1.1364 843.7981 1241.2885)" gradientUnits="userSpaceOnUse" id="XMLID_16_" r="37.3881">
<stop offset="0" style="stop-color:#E6EEF4"/>
<stop offset="0.4438" style="stop-color:#4A9900"/>
<stop offset="0.9382" style="stop-color:#0E4E58"/>
<stop offset="1" style="stop-color:#0E4E58"/>
</radialGradient>
<path d="M-6.284-2.639c-1.098,0.308-2,0.542-2.212,0.542c-0.621,0-0.453-0.526-1.007-0.594       c-0.555-0.069-5.155-1.258-5.775-0.64c-0.621,0.623-3.046,1.256-3.601,1.326c-0.549,0.071,0.183,1.739,1.646,2.79       c-0.202,0.208-3.477,2.018-3.477,0.778s-0.639-2.15-1.645-2.516c-0.915,0.228-1.967,1.188-0.504,2.516       c0.912,0.826,0.007,0.937-0.059,1.174c-0.269,0.999,2.193,1.968,1.02,2.704c-1.107,0.098-2.09-0.104-2.274-0.209       C-25.907,4.258-26.3,8.114-26.3,8.114l1.893,0.936l-3.161,3.076c0,0-4.642,3.221-4.711,3.638       c-0.072,0.413-2.062,5.753-1.373,7.34c0.689,1.586,4.263,5.865,5.914,6c2.159,0.176,8.404-1.071,8.404-1.071       c0.139,0.347,0.773,1.729,3.842,2.3c0.109,0.02-1.324,2.763-0.48,3.943c1.829,2.562,2.744,5.203,1.738,6.393       c-2.401,3.602-0.561,3.877,0.022,5.764c0.21,0.551-1.216,5.479,3.522,6.814c1.703,0.148,2.592-0.121,4.039-1.985       c0.417-0.343,2.854-2.831,4.46-3.361c0.527-0.035-0.505-1.454,0.548-2.951c1.132-0.445,4.187-2.505,4.187-2.505       c0.136-3.017-1.489-6.745,1.542-8.884c1.955-1.989,2.231-1.75,3.475-4.784c0.344-0.895,1.526-4.099-0.547-3.338       c-1.373,0.502-1.717,0.48-2.152,0.344c-0.123-1.121-0.364-1.578-1.6-2.676c-0.641-1.508-2.195-4.116-2.195-4.116l-2.196-3.339       l0.273-0.686l4.757,6.472c0.436,1.257,0.733,1.838,1.075,3.316c2.715-0.657,5.06-4.198,3.962-7.08       c-0.051-0.053-0.727,0.084-1.723,0.014c-1.539-1.122-2.465-3.492-2.465-3.492l3.496,2.944l1.715,0.137l1.082,2.149       c0.308,0.201,0.516,0.335,0.516,0.335s0.071,0.011,0.188,0.014C9.132,10.021,2.491,1.921-6.284-2.639z M-13.9-1.22       c-0.287-0.734,0.848-1.009,0.848-1.009s1.127,1.639,0.947,2.721c-0.178,1.071-1.373,0.415-1.732,0.094       C-14.191,0.267-13.612-0.487-13.9-1.22z M-3.634,12.519c-1.171,0-2.801-0.005-3.802-0.692       c-0.999-0.688-1.356,0.298-2.021,0.986c-0.433,0.449-4.922-1.772-4.922-1.772l-0.666-1.932l-4.095-0.274l-2.616,0.778       l-2.547-0.4l2.824-1.008c0,0,2.029-1.907,2.76-2.527c0.617-0.526,3.087-0.206,3.087-0.206l2.823,2.26       c0,0-0.194,1.033-0.453,1.375c1.028-0.07,1.802-1.393,1.802-1.393c-2.291-2.013-2.277-2.501-2.277-2.501l2.945,1.664       l0.213,0.857c0,0,1.174,2.02,2.304,2.104C-7.794,9.874-8.191,7.94-8.191,7.94l0.6-0.084c1.184,2.74,5.358,2.467,6.122,3.107       C-1.423,13.799-3.143,12.656-3.634,12.519z M-2.849,7.628C-3.9,7.218-4.982,7.418-4.982,7.418       c-0.237,0.466-1.927-0.013-1.588-1.043c0.338-1.029,1.446-0.217,1.954-0.777c0.511-0.561,1.231-0.934,1.563-0.403       C-3.437,5.703-2.716,6.1-2.213,6.371C-0.8,7.132,0.128,8.228-2.849,7.628z M2.968,10.147c-0.531-0.47-0.188-1.03-0.988-1.778       C0.831,7.299,0.203,6.834,0.863,5.663c1.122-0.535,0.456,0.717,0.88,1.313c0.224,0.317,1.234,1.328,2.195,2.622       C4.735,10.673,3.497,10.619,2.968,10.147z" fill="url(#XMLID_16_)"/>
</g>
<defs>
<linearGradient gradientTransform="matrix(1.1364 0 0 -1.1364 843.7981 1241.2885)" gradientUnits="userSpaceOnUse" id="XMLID_9_" x1="-762.4469" x2="-747.9164" y1="1066.618" y2="1037.9971">
<stop offset="0" style="stop-color:#A2C2DD"/>
<stop offset="0.1" style="stop-color:#A2C2DD"/>
<stop offset="0.7135" style="stop-color:#6C83BB"/>
<stop offset="0.9888" style="stop-color:#003D6D"/>
<stop offset="1" style="stop-color:#003D6D"/>
</linearGradient>
</defs>
</g>
</g>
<rect fill="none" height="100" width="100" x="-72.714" y="-20.963"/>
</g>
<g>
<path d="M-37.209,61.574c-2.054-7.71-11.082-47.825,16.907-68.157c0,0-1.063-0.148-1.9-0.076    c-15.561,12.021-19.106,30.084-19.309,43.27c-0.167,10.883,1.863,20.287,2.919,24.404C-38.344,61.131-37.579,61.407-37.209,61.574    z" fill="#FFFFFF"/>
<path d="M-5.553,60.316C-6.019,60.18-52.258,46.046-56.22,16.845c-0.145,0.299-0.687,1.64-0.792,2.407    c2.425,11.458,11.393,22.088,26.154,30.928c12.188,7.299,23.919,10.796,24.038,10.834L-5.553,60.316z" fill="#FFFFFF"/>
<path d="M12.654,24.096c-3.209-1.6-11.794-5.544-22.78-7.938c-12.52-2.727-30.741-3.935-47.448,5.339    c-0.115,0.325-0.17,0.94-0.284,1.534c29.83-17.287,65.551-0.148,70.679,2.489C12.819,25.212,12.724,24.432,12.654,24.096z" fill="#FFFFFF"/>
<path d="M-55.347,43.375c2.161-3.285,22.293-32.114,63.094-32.954C7.599,10.115,7.3,9.556,7.003,9.247    c-22.414,0.642-38.4,9.649-47.915,17.157c-8.313,6.559-13.253,13.143-14.966,15.623C-55.771,42.342-55.528,42.992-55.347,43.375z" fill="#FFFFFF"/>
<path d="M-47.621,54.519c6.241-2.547,29.958-13.256,37.771-31.862c3.604-8.586,3.398-17.728-0.605-27.196    c-0.844-0.349-1.553-0.516-1.553-0.516c4.449,9.648,4.706,18.562,1.061,27.248c-7.849,18.7-32.303,29.301-37.582,31.405    C-48.295,53.877-47.828,54.288-47.621,54.519z" fill="#FFFFFF"/>
<path d="M-38.754,60.975c7.709-1.125,34.063-6.11,50.679-23.218c0.143-0.279,0.469-2.246,0.469-2.246    C-5.146,54.94-35.547,59.396-40.39,59.994C-39.981,60.233-39.331,60.605-38.754,60.975z" fill="#FFFFFF"/>
<circle cx="-20.128" cy="15.135" fill="#FFFFFF" r="2.435"/>
<circle cx="-8.05" cy="10.961" fill="#FFFFFF" r="2.434"/>
<circle cx="-8.433" cy="17.443" fill="#FFFFFF" r="2.435"/>
<circle cx="-48.606" cy="34.52" fill="#FFFFFF" r="2.437"/>
</g>
</g>
</svg>
