<?xml version="1.0" encoding="UTF-8"?>
<!DOCTYPE svg PUBLIC "-//W3C//DTD SVG 1.1 Tiny//EN" "http://www.w3.org/Graphics/SVG/1.1/DTD/svg11-tiny.dtd">
<svg baseProfile="tiny" height="60px" viewBox="0 0 60 60" width="60px" xmlns="http://www.w3.org/2000/svg" xmlns:xlink="http://www.w3.org/1999/xlink">
<path d="M52.988,26.93c-0.711-1.056-1.523-1.68-2.246-2.229c-0.93-0.714-6.859-2.703-14.043,3.479 c-0.832,3.872-3.231,7.152-6.497,9.169c-1.291,4.064-0.223,6.999,0.261,7.631c0.551,0.723,1.174,1.535,2.23,2.246 c0.26,0.16,0.754,0.359,1.285,0.35c0.531-0.014,1.744-0.803,3.266-2.467c1.523-1.664,2.166-3.004,2.309-3.633l0.08-0.359 l-0.238-0.281c-0.15-0.18-0.328-0.348-0.541-0.514c-0.898-0.719-2.773-0.83-2.797-0.828l-0.287-0.02l-0.141-0.254 c-0.059-0.107-1.43-2.745,2.516-6.842c4.094-3.943,6.73-2.57,6.836-2.511l0.256,0.14l0.02,0.288c0,0.021,0.109,1.898,0.826,2.796 c0.168,0.213,0.338,0.389,0.516,0.541l0.281,0.238l0.359-0.082c0.629-0.143,1.971-0.783,3.633-2.308 c1.664-1.522,2.453-2.735,2.467-3.266C53.347,27.685,53.148,27.19,52.988,26.93z" fill="#47C30E"/>
<path d="M22.689,12.774c-6.666,0-12.072,5.545-12.072,12.387c0,6.836,5.406,12.383,12.072,12.383 c6.667,0,12.073-5.547,12.073-12.383C34.762,18.319,29.356,12.774,22.689,12.774z M22.689,16.511c1.739,0,3.354,0.54,4.694,1.465 L15.688,29.973c-0.901-1.375-1.428-3.033-1.428-4.813C14.26,20.381,18.033,16.511,22.689,16.511z M22.689,33.806 c-1.736,0-3.353-0.541-4.693-1.465l11.695-11.999c0.901,1.376,1.428,3.034,1.428,4.818C31.119,29.936,27.348,33.806,22.689,33.806z" fill="#BF111A"/>
<rect fill="none" height="60" width="60"/>
</svg>
