<?xml version="1.0" encoding="UTF-8"?>
<!DOCTYPE svg PUBLIC "-//W3C//DTD SVG 1.1 Tiny//EN" "http://www.w3.org/Graphics/SVG/1.1/DTD/svg11-tiny.dtd">
<svg baseProfile="tiny" height="88px" version="1.1" viewBox="0 0 88 88" width="88px" x="0px" xmlns="http://www.w3.org/2000/svg" xmlns:xlink="http://www.w3.org/1999/xlink" y="0px">
<g>
<rect fill="none" height="88" width="88"/>
<g>
<linearGradient gradientUnits="userSpaceOnUse" id="SVGID_1_" x1="7.2368" x2="54.8997" y1="17.895" y2="92.0602">
<stop offset="0" style="stop-color:#E8FFFF"/>
<stop offset="1" style="stop-color:#747F7F"/>
</linearGradient>
<path d="M44,86.593c-11.743,0-22.391-4.777-30.102-12.489l-0.996,0.995    C20.869,83.066,31.869,88,44,88s23.131-4.934,31.098-12.901l-0.995-0.996C66.391,81.816,55.743,86.593,44,86.593z" fill="url(#SVGID_1_)" fill-opacity="0.13" stroke-opacity="0.13"/>
<linearGradient gradientUnits="userSpaceOnUse" id="SVGID_2_" x1="-7.8325" x2="68.2577" y1="22.2705" y2="98.3608">
<stop offset="0" style="stop-color:#E8FFFF"/>
<stop offset="1" style="stop-color:#747F7F"/>
</linearGradient>
<path d="M44,85.184c-11.354,0-21.65-4.618-29.107-12.076l-0.996,0.996    C21.609,81.816,32.257,86.593,44,86.593c11.743,0,22.391-4.777,30.104-12.49l-0.996-0.995C65.651,80.566,55.355,85.184,44,85.184z    " fill="url(#SVGID_2_)" fill-opacity="0.33" stroke-opacity="0.33"/>
<linearGradient gradientUnits="userSpaceOnUse" id="SVGID_3_" x1="-9.23" x2="60.6469" y1="15.998" y2="90.9681">
<stop offset="0" style="stop-color:#E8FFFF"/>
<stop offset="1" style="stop-color:#747F7F"/>
</linearGradient>
<path d="M44,80.96c-10.206,0-19.446-4.137-26.135-10.825l-2.972,2.973    C22.35,80.566,32.646,85.184,44,85.184c11.355,0,21.651-4.618,29.108-12.076l-2.973-2.973C63.447,76.824,54.207,80.96,44,80.96z" fill="url(#SVGID_3_)" fill-opacity="0.33" stroke-opacity="0.33"/>
<linearGradient gradientUnits="userSpaceOnUse" id="SVGID_4_" x1="-9.9775" x2="47.1073" y1="16.1577" y2="73.2424">
<stop offset="0" style="stop-color:#E8FFFF"/>
<stop offset="1" style="stop-color:#747F7F"/>
</linearGradient>
<path d="M44,62.382c-5.076,0-9.672-2.057-12.998-5.383L17.865,70.135C24.554,76.824,33.794,80.96,44,80.96    c10.207,0,19.447-4.137,26.135-10.825L56.998,56.999C53.671,60.325,49.076,62.382,44,62.382z" fill="url(#SVGID_4_)"/>
</g>
<linearGradient gradientUnits="userSpaceOnUse" id="SVGID_5_" x1="-17.0088" x2="63.768" y1="12.3921" y2="93.1686">
<stop offset="0" style="stop-color:#E8FFFF"/>
<stop offset="1" style="stop-color:#747F7F"/>
</linearGradient>
<path d="M31.487,57.462L15.549,73.4C22.839,80.689,32.902,85.203,44,85.203   c11.097,0,21.161-4.514,28.448-11.803L56.511,57.462c-3.282,3.051-7.677,4.92-12.512,4.92   C39.165,62.382,34.769,60.513,31.487,57.462z" fill="url(#SVGID_5_)"/>
<linearGradient gradientUnits="userSpaceOnUse" id="SVGID_6_" x1="-3.3989" x2="129.189" y1="29.1377" y2="151.2582">
<stop offset="0" style="stop-color:#E8FFFF"/>
<stop offset="1" style="stop-color:#747F7F"/>
</linearGradient>
<path d="M31.959,57.885L16.448,73.397C23.887,80.606,33.645,84.57,44,84.57   c10.354,0,20.112-3.964,27.549-11.173L56.038,57.885c-3.226,2.799-7.433,4.497-12.039,4.497   C39.393,62.382,35.186,60.685,31.959,57.885z" fill="url(#SVGID_6_)"/>
<polygon fill="#FFFFFF" points="37.72,71.561 50.278,71.561 44,77.84  "/>
</g>
</svg>
