<?xml version="1.0" encoding="UTF-8"?>
<!DOCTYPE svg PUBLIC "-//W3C//DTD SVG 1.1 Tiny//EN" "http://www.w3.org/Graphics/SVG/1.1/DTD/svg11-tiny.dtd">
<svg baseProfile="tiny" height="88" version="1.1" viewBox="-17.658 -9.111 88 88" width="88" xmlns="http://www.w3.org/2000/svg" xmlns:xlink="http://www.w3.org/1999/xlink">
<g>
<rect fill="none" height="88" width="88" x="-17.658" y="-9.111"/>
<g>
<linearGradient gradientTransform="matrix(1 0 0 -1 0.1377 66.7039)" gradientUnits="userSpaceOnUse" id="XMLID_13_" x1="24.2319" x2="33.2055" y1="21.1576" y2="3.4821">
<stop offset="0" style="stop-color:#AABBD7"/>
<stop offset="0.2634" style="stop-color:#92A5CC"/>
<stop offset="0.7135" style="stop-color:#6C83BB"/>
<stop offset="0.7571" style="stop-color:#637DB5"/>
<stop offset="0.8268" style="stop-color:#4C6EA4"/>
<stop offset="0.9134" style="stop-color:#265689"/>
<stop offset="0.9888" style="stop-color:#003D6D"/>
<stop offset="1" style="stop-color:#003D6D"/>
</linearGradient>
<path d="M30.119,64.725l-0.076-0.022L-14.496,51.06c-0.112-0.077-3.537-3.334-0.268-7.971l0.033-0.049    l0.055-0.022l15.691-6.157l9.633-4.778l0.057-0.027l0.062,0.008l38.8,5.602c0.085-1.881,0.679-16.955,0.681-17.185    c0-0.765,0.713-1.364,1.624-1.364c0.893,0,1.619,0.614,1.619,1.366c0,0.203,0.42,16.085,0.472,17.774l1.578,0.24l0.185,0.029    l-0.016,0.184l-0.937,13.375l-0.006,0.111l-0.103,0.051L30.191,64.687L30.119,64.725L30.119,64.725z" fill="url(#XMLID_13_)"/>
<linearGradient gradientTransform="matrix(1 0 0 -1 0.1377 66.7039)" gradientUnits="userSpaceOnUse" id="XMLID_14_" x1="50.2168" x2="54.1966" y1="32.3295" y2="32.1722">
<stop offset="0" style="stop-color:#E6EEF4"/>
<stop offset="0.1492" style="stop-color:#9EC8D1"/>
<stop offset="0.2883" style="stop-color:#62A9B3"/>
<stop offset="0.3901" style="stop-color:#3D95A1"/>
<stop offset="0.4438" style="stop-color:#2F8E9A"/>
<stop offset="0.5242" style="stop-color:#247C90"/>
<stop offset="0.699" style="stop-color:#115A7D"/>
<stop offset="0.8433" style="stop-color:#044571"/>
<stop offset="0.9382" style="stop-color:#003D6D"/>
<stop offset="1" style="stop-color:#003D6D"/>
</linearGradient>
<path d="M50.697,20.311L49.73,47.654c0.75,0.906,2.5,1.906,4.002-0.594l-0.697-26.796L50.697,20.311z" fill="url(#XMLID_14_)"/>
<linearGradient gradientTransform="matrix(1 0 0 -1 0.1377 66.7039)" gradientUnits="userSpaceOnUse" id="XMLID_15_" x1="26.5107" x2="29.1773" y1="-2.4771" y2="51.6913">
<stop offset="0" style="stop-color:#FFFFFF"/>
<stop offset="0.15" style="stop-color:#FFFFFF"/>
<stop offset="1" style="stop-color:#A2C2DD"/>
</linearGradient>
<polygon fill="url(#XMLID_15_)" points="10.841,32.583 55.107,38.831 45.72,45.226 1.254,37.304   "/>
<linearGradient gradientTransform="matrix(1 0 0 -1 0.1377 66.7039)" gradientUnits="userSpaceOnUse" id="XMLID_16_" x1="58.6875" x2="26.3539" y1="36.2123" y2="-6.7878">
<stop offset="0" style="stop-color:#FFFFFF"/>
<stop offset="0.35" style="stop-color:#A2C2DD"/>
<stop offset="0.7" style="stop-color:#6C83BB"/>
<stop offset="1" style="stop-color:#003D6D"/>
</linearGradient>
<path d="M29.965,64.11c0,0-4.012-5.483,0.136-10.7l15.483-8.201l9.523-6.377l-0.832,13L29.965,64.11z" fill="url(#XMLID_16_)"/>
<linearGradient gradientTransform="matrix(6.7645 0.0012 0.0012 -6.7645 5438.5098 2851.3911)" gradientUnits="userSpaceOnUse" id="XMLID_17_" x1="-808.1445" x2="-797.9938" y1="413.8178" y2="415.1663">
<stop offset="0" style="stop-color:#FFFFFF"/>
<stop offset="0.05" style="stop-color:#FFFFFF"/>
<stop offset="1" style="stop-color:#A2C2DD"/>
</linearGradient>
<polygon fill="url(#XMLID_17_)" points="45.72,45.226 1.279,37.304 -14.092,43.448 30.051,53.499   "/>
<linearGradient gradientTransform="matrix(1 0 0 -1 0.1377 66.7039)" gradientUnits="userSpaceOnUse" id="XMLID_18_" x1="10.8305" x2="4.3308" y1="23.6615" y2="2.6625">
<stop offset="0" style="stop-color:#FFFFFF"/>
<stop offset="0.0918" style="stop-color:#E4EDF5"/>
<stop offset="0.2705" style="stop-color:#B4CEE4"/>
<stop offset="0.3596" style="stop-color:#A2C2DD"/>
<stop offset="0.4786" style="stop-color:#8CA9CF"/>
<stop offset="0.6742" style="stop-color:#6C83BB"/>
<stop offset="0.7196" style="stop-color:#637DB5"/>
<stop offset="0.7921" style="stop-color:#4C6EA4"/>
<stop offset="0.8823" style="stop-color:#265689"/>
<stop offset="0.9607" style="stop-color:#003D6D"/>
<stop offset="1" style="stop-color:#003D6D"/>
</linearGradient>
<path d="M30.265,53.277l-44.681-9.775c-2.887,4.901,0.301,7.011,0.301,7.011l44.117,13.542    C30.002,64.054,25.728,58.355,30.265,53.277z" fill="url(#XMLID_18_)"/>
<linearGradient gradientTransform="matrix(5.3277 0 0 2.8896 4549.9355 -1701.9379)" gradientUnits="userSpaceOnUse" id="XMLID_19_" x1="-844.4922" x2="-844.0605" y1="596.0004" y2="596.0004">
<stop offset="0" style="stop-color:#D6E6EC"/>
<stop offset="1" style="stop-color:#298595"/>
</linearGradient>
<ellipse cx="51.885" cy="20.265" fill="url(#XMLID_19_)" rx="1.15" ry="0.624"/>
<g>
<linearGradient gradientTransform="matrix(6.7626 -0.1608 -0.1608 -6.7626 5523.6724 2713.0239)" gradientUnits="userSpaceOnUse" id="XMLID_20_" x1="-805.5708" x2="-804.8149" y1="415.2074" y2="415.0138">
<stop offset="0" style="stop-color:#D6E6EC"/>
<stop offset="1" style="stop-color:#5DA6B1"/>
</linearGradient>
<polygon fill="url(#XMLID_20_)" points="15.588,34.861 12.879,36.598 8.709,35.874 11.709,34.293    "/>
<polygon fill="#003D6D" points="15.588,34.861 15.544,35.608 12.878,37.288 12.879,36.598    "/>
<polygon fill="#5DA6B1" points="12.879,36.598 12.878,37.288 8.791,36.542 8.709,35.874    "/>
<polygon fill="#003D6D" points="21.422,35.778 21.377,36.525 18.711,38.204 18.713,37.515    "/>
<polygon fill="#6C83BB" points="18.713,37.515 18.711,38.204 14.625,37.458 14.542,36.792    "/>
<polygon fill="#003D6D" points="27.13,36.82 27.086,37.567 24.42,39.247 24.421,38.557    "/>
<polygon fill="#6C83BB" points="24.421,38.557 24.42,39.247 20.334,38.501 20.25,37.833    "/>
</g>
</g>
<linearGradient gradientTransform="matrix(0 -1 -1 0 -208.9401 -423.649)" gradientUnits="userSpaceOnUse" id="XMLID_21_" x1="-449.1162" x2="-437.6162" y1="-252.5807" y2="-252.5807">
<stop offset="0" style="stop-color:#FFFFFF"/>
<stop offset="0.5506" style="stop-color:#58A015"/>
<stop offset="1" style="stop-color:#FFFFFF"/>
</linearGradient>
<path d="M44.337,19.372c0.005-2.317,0.964-4.407,2.503-5.905l-2.919-2.752   c-2.214,2.217-3.584,5.277-3.585,8.657c0.001,3.457,1.438,6.572,3.74,8.8l2.869-2.799C45.347,23.869,44.342,21.741,44.337,19.372z" fill="url(#XMLID_21_)"/>
<linearGradient gradientTransform="matrix(0 -1 -1 0 -208.9401 -423.649)" gradientUnits="userSpaceOnUse" id="XMLID_22_" x1="-453.4922" x2="-433.6172" y1="-247.3033" y2="-247.3033">
<stop offset="0" style="stop-color:#FFFFFF"/>
<stop offset="0.5506" style="stop-color:#58A015"/>
<stop offset="1" style="stop-color:#FFFFFF"/>
</linearGradient>
<path d="M38.186,19.373c0.007-3.952,1.602-7.526,4.178-10.127L39.451,6.5   c-3.253,3.318-5.265,7.858-5.266,12.873c0.001,5.127,2.103,9.76,5.485,13.097l2.869-2.8C39.862,27.056,38.193,23.413,38.186,19.373   z" fill="url(#XMLID_22_)"/>
<linearGradient gradientTransform="matrix(0 -1 1 0 -652.2162 -423.649)" gradientUnits="userSpaceOnUse" id="XMLID_23_" x1="-449.1162" x2="-437.6162" y1="711.7064" y2="711.7064">
<stop offset="0" style="stop-color:#FFFFFF"/>
<stop offset="0.5506" style="stop-color:#58A015"/>
<stop offset="1" style="stop-color:#FFFFFF"/>
</linearGradient>
<path d="M58.794,19.372c-0.005-2.317-0.964-4.407-2.503-5.905l2.919-2.752   c2.214,2.217,3.584,5.277,3.585,8.657c-0.001,3.457-1.438,6.572-3.739,8.8l-2.869-2.799C57.785,23.869,58.789,21.741,58.794,19.372   z" fill="url(#XMLID_23_)"/>
<linearGradient gradientTransform="matrix(0 -1 1 0 -652.2162 -423.649)" gradientUnits="userSpaceOnUse" id="XMLID_24_" x1="-453.4922" x2="-433.6172" y1="716.9847" y2="716.9847">
<stop offset="0" style="stop-color:#FFFFFF"/>
<stop offset="0.5506" style="stop-color:#58A015"/>
<stop offset="1" style="stop-color:#FFFFFF"/>
</linearGradient>
<path d="M64.945,19.373c-0.007-3.952-1.603-7.526-4.178-10.127L63.681,6.5   c3.253,3.318,5.265,7.858,5.266,12.873c-0.001,5.127-2.104,9.76-5.486,13.097l-2.869-2.8C63.27,27.056,64.938,23.413,64.945,19.373   z" fill="url(#XMLID_24_)"/>
</g>
</svg>
