<?xml version="1.0" encoding="UTF-8"?>
<!DOCTYPE svg PUBLIC "-//W3C//DTD SVG 1.1 Tiny//EN" "http://www.w3.org/Graphics/SVG/1.1/DTD/svg11-tiny.dtd">
<svg width="332" height="82" viewBox="-0.854 -0.277 332 82">
<g fill-opacity="0.7" stroke-opacity="0.7">
<path fill-opacity="0.01" fill="#656B6B" d="M305.04,0.723H22.271c-5.367,0-10.42,2.096-14.225,5.9c-3.805,3.807-5.9,8.857-5.9,14.225 v28.775c0,11.621,9.449,21.084,21.063,21.098c0,0,263.836,0.002,264.66,0.002c0.551,0.551,10.039,10,10.039,10h8.238 c0,0,0-8.826,0-10.26c11.279-1.09,20-10.463,20-21.84V21.838l-0.096-1.996C324.944,8.92,315.913,0.723,305.04,0.723z"/>
<path fill-opacity="0.03" fill="#656B6B" d="M22.271,1.723c-5.1,0-9.9,1.992-13.518,5.607c-3.615,3.617-5.607,8.418-5.607,13.518v28.775 c0,11.07,9,20.086,20.064,20.098c0,0,264.248,0.002,265.07,0.002c0.553,0.551,10.039,10,10.039,10h6.826c0,0,0-8.633,0-10.115 c11.107-0.592,20-9.758,20-20.984V21.838l-0.096-1.947c-1.051-10.379-9.652-18.168-20.01-18.168H22.271z"/>
<path fill-opacity="0.05" fill="#656B6B" d="M22.271,2.723c-9.994,0-18.125,8.131-18.125,18.125v28.775 c0,10.52,8.553,19.086,19.064,19.098c0,0,259.557,0.002,265.484,0.002c0.553,0.553,10.039,10,10.039,10h5.412c0,0,0-8.404,0-10.01 c11.037-0.059,20-9.043,20-20.09V21.838l-0.094-1.898c-0.998-9.836-9.17-17.217-19.012-17.217H22.271z"/>
<path fill-opacity="0.07" fill="#656B6B" d="M22.271,3.723c-9.875,0-17.125,8.125-17.125,17.125v28.775 c0,9.969,8.105,18.088,18.066,18.098c0,0,265.068,0.002,265.895,0.002c0.559,0.559,10.039,10,10.039,10h4c0,0,0-8.318,0-10 c0.445,0,0.895,0,0.895,0c10.535,0,19.105-8.568,19.105-19.1V21.838l-0.094-1.848c-0.941-9.275-8.686-16.268-18.012-16.268H22.271z "/>
<path fill-opacity="0.11" fill="#656B6B" d="M322.058,20.086c-0.877-8.627-8.162-15.363-17.018-15.363H23.253 c-9.449,0-17.107,7.666-17.107,17.115v27.785c0,9.439,7.637,17.088,17.066,17.098c0.014,0,0.027,0.002,0.041,0.002h266.268l10,10 h2.625c0,0,0-8.318,0-10c0.857,0,1.895,0,1.895,0c9.984,0,18.105-8.113,18.105-18.1V21.838 C322.146,21.246,322.112,20.664,322.058,20.086z"/>
<path fill="#FFFFFF" d="M22.253,65.723h264.895l12,12h1.998v-12h2.895c9.447,0,17.105-7.646,17.105-17.1V20.838 c0-9.449-7.658-17.115-17.105-17.115H22.253c-9.449,0-17.107,7.666-17.107,17.115v27.785C5.146,58.076,12.804,65.734,22.253,65.723 z"/>
</g>
</svg>