<?xml version="1.0" encoding="UTF-8"?>
<!DOCTYPE svg PUBLIC "-//W3C//DTD SVG 1.1 Tiny//EN" "http://www.w3.org/Graphics/SVG/1.1/DTD/svg11-tiny.dtd">
<svg width="84" height="58" viewBox="-1.264 -0.502 84 58">
<linearGradient id="_16" gradientUnits="userSpaceOnUse" x1="44.76" y1="5.22" x2="45.66" y2="7">
<stop stop-color="#A2C2DD" offset="0.1"/>
<stop stop-color="#6C83BB" offset="0.71"/>
<stop stop-color="#003D6D" offset="0.99"/>
</linearGradient>
<path fill="url(#_16)" d="M39.096,6.536c0.076,0.156,0.33,0.194,0.863,0.025c0.393-0.034,1.421-0.927,1.957-0.747 c0.538,0.178,0.979-0.182,1.479-0.503c1.04,0.092,2.147-0.822,2.361-0.822s1.022,0.148,1.2-0.137c0,0,1.952,0.459,3.735,0.076 c-1.33-0.304-2.714-0.465-4.135-0.465c-1.83,0-3.598,0.268-5.268,0.762C40.823,5.176,40.322,5.786,39.096,6.536z"/>
<radialGradient id="_17" gradientUnits="userSpaceOnUse" cx="47.81" cy="15.02" r="24.17">
<stop stop-color="#A2C2DD" offset="0.1"/>
<stop stop-color="#6C83BB" offset="0.71"/>
<stop stop-color="#003D6D" offset="0.99"/>
</radialGradient>
<path fill="url(#_17)" d="M34.596,9.026c0-0.333,0.546-0.498,0.546-0.498l0.071,0.261l0.498,0.214 c0,0,0.594-0.641,0.713-0.808c0.116-0.165,0.331-0.806,0.331-0.806l1.036-1.222c-2.325,1.254-4.352,2.99-5.945,5.076 C32.485,10.738,34.596,9.359,34.596,9.026z"/>
<radialGradient id="_18" gradientUnits="userSpaceOnUse" cx="44.77" cy="7.55" r="4.09">
<stop stop-color="#A2C2DD" offset="0.1"/>
<stop stop-color="#6C83BB" offset="0.71"/>
<stop stop-color="#003D6D" offset="0.99"/>
</radialGradient>
<path fill="url(#_18)" d="M44.386,6.098c0.234-0.045,0.768-0.295,0.768-0.295s-0.267-0.113-0.568-0.068 c-0.299,0.046-0.733-0.181-0.968-0.068C43.817,5.916,44.152,6.143,44.386,6.098z"/>
<linearGradient id="_19" gradientUnits="userSpaceOnUse" x1="42.95" y1="5.43" x2="56.33" y2="48.43">
<stop stop-color="#A2C2DD" offset="0.1"/>
<stop stop-color="#6C83BB" offset="0.71"/>
<stop stop-color="#003D6D" offset="0.99"/>
</linearGradient>
<path fill="url(#_19)" d="M70.306,25.296l0.006-0.001c-0.432-3.441-2.38-5.631-2.601-5.869c0,0-0.942-0.668-2.858-1.116 c-1.9-8.355-9.373-14.617-18.296-14.617c-10.354,0-18.777,8.423-18.777,18.776c0,7.126,3.992,13.337,9.856,16.517 c-0.646,1.268-2.062,4.365-2.424,7.752l0.468,2.078c0,0,3.05,3.592,9.979,4.688c4.79-3.193,7.496-7.404,8.308-10.166l0.185-2.477 c0-0.068-0.009-0.547-0.038-1.215c3.53-1.561,6.48-4.18,8.473-7.449c0.892,0.406,1.797,0.748,2.532,0.914l0.111,0.025l0.104-0.045 c1.696-0.727,4.463-4.09,4.751-5.248C70.355,26.759,70.42,26.021,70.306,25.296z"/>
<radialGradient id="_20" gradientUnits="userSpaceOnUse" cx="50.21" cy="10.54" r="34.24">
<stop stop-color="#FFFFFF" offset="0"/>
<stop stop-color="#A2C2DD" offset="0.53"/>
<stop stop-color="#6C83BB" offset="0.87"/>
<stop stop-color="#003D6D" offset="1"/>
</radialGradient>
<circle fill="url(#_20)" cx="46.557" cy="22.469" r="18.504"/>
<path fill="url(#_17)" d="M61.392,28.353l-0.604,0.958c0,0-0.905,0.285-0.94,0.57c-0.016,0.121-0.698,1.635-0.698,1.635 s-0.268,0.844,0.499,0.594C61.243,31.588,62.285,28.175,61.392,28.353z"/>
<path fill="url(#_17)" d="M32.58,30.236c0.262,0,0.935,0.082,1.016-0.164c0.006-0.105,0.1-2.636,0.1-2.636l1.008-1.341 v-1.067l-2.622-1.697l-1.138-1.232c0,0.004-0.441-1.331-0.854-1.708c-0.346-0.315-0.32-1.008-0.688-1.519 c-0.333-0.462-0.602-0.721-0.815-0.824c-1.691,6.849,0.931,12.671,3.387,15.812c0.352-0.504,0.63-1.064,0.846-1.561 C33.039,31.789,31.702,31.066,32.58,30.236z"/>
<radialGradient id="_23" gradientUnits="userSpaceOnUse" cx="50.54" cy="10.68" r="18.59">
<stop stop-color="#FFFFFF" offset="0"/>
<stop stop-color="#A2C2DD" offset="0.35"/>
<stop stop-color="#6C83BB" offset="0.7"/>
<stop stop-color="#003D6D" offset="1"/>
</radialGradient>
<path fill="url(#_23)" d="M55.078,6.04c-0.568,0.16-1.036,0.281-1.146,0.281c-0.322,0-0.235-0.272-0.522-0.309 c-0.288-0.035-2.674-0.652-2.995-0.331c-0.322,0.322-1.58,0.651-1.867,0.688c-0.285,0.036,0.095,0.902,0.854,1.447 c-0.104,0.107-1.804,1.047-1.804,0.403s-0.331-1.115-0.854-1.305c-0.475,0.118-1.02,0.616-0.261,1.305 c0.473,0.428,0.004,0.485-0.029,0.609c-0.141,0.518,1.136,1.021,0.526,1.401c-0.573,0.051-1.083-0.054-1.179-0.107 c-0.9-0.505-1.104,1.495-1.104,1.495l0.982,0.485L44.039,13.7c0,0-2.407,1.67-2.444,1.886c-0.036,0.214-1.068,2.984-0.711,3.808 s2.211,3.041,3.067,3.111c1.12,0.091,4.358-0.556,4.358-0.556c0.071,0.18,0.401,0.896,1.992,1.192 c0.057,0.01-0.687,1.434-0.25,2.046c0.95,1.328,0.903,3.315,0.903,3.315l9.074-9.109l-1.139-2.136l-1.14-1.731l0.143-0.356 l2.467,3.357c0.227,0.652,0.38,0.953,0.558,1.72c1.408-0.341,2.625-2.178,2.056-3.672c-0.026-0.027-0.377,0.043-0.894,0.007 c-0.799-0.582-1.279-1.812-1.279-1.812l1.814,1.526l0.889,0.071l0.563,1.115c0.159,0.104,0.267,0.174,0.267,0.174 s0.037,0.005,0.098,0.007C63.074,12.608,59.631,8.406,55.078,6.04z M51.13,6.776c-0.15-0.38,0.438-0.522,0.438-0.522 s0.585,0.85,0.491,1.41c-0.092,0.556-0.711,0.216-0.898,0.049C50.978,7.549,51.277,7.157,51.13,6.776z M56.454,13.902 c-0.608,0-1.453-0.002-1.973-0.358c-0.518-0.357-0.703,0.153-1.049,0.512c-0.223,0.232-2.553-0.92-2.553-0.92l-0.345-1.002 l-2.124-0.143l-1.356,0.404l-1.32-0.208l1.464-0.522c0,0,1.054-0.988,1.432-1.311c0.32-0.272,1.601-0.106,1.601-0.106l1.465,1.173 c0,0-0.101,0.535-0.235,0.713c0.534-0.036,0.936-0.723,0.936-0.723c-1.189-1.044-1.182-1.297-1.182-1.297l1.527,0.862l0.109,0.444 c0,0,0.609,1.048,1.195,1.092c0.25,0.019,0.045-0.984,0.045-0.984l0.312-0.044c0.613,1.421,2.778,1.279,3.174,1.611 C57.6,14.568,56.708,13.974,56.454,13.902z M56.86,11.366c-0.545-0.214-1.105-0.108-1.105-0.108c-0.123,0.241-1-0.007-0.824-0.541 c0.175-0.534,0.75-0.113,1.014-0.403c0.265-0.291,0.639-0.484,0.811-0.209c-0.199,0.263,0.175,0.47,0.436,0.61 C57.923,11.109,58.404,11.677,56.86,11.366z M59.877,12.672c-0.275-0.244-0.098-0.533-0.512-0.922 c-0.596-0.555-0.923-0.795-0.579-1.403c0.582-0.277,0.236,0.372,0.456,0.682c0.116,0.165,0.641,0.688,1.139,1.359 C60.795,12.946,60.152,12.917,59.877,12.672z"/>
<linearGradient id="_24" gradientUnits="userSpaceOnUse" x1="76.86" y1="20.46" x2="55.11" y2="36.8">
<stop stop-color="#E6EEF4" offset="0"/>
<stop stop-color="#4A9900" offset="0.44"/>
<stop stop-color="#0E4E58" offset="0.94"/>
</linearGradient>
<path fill="url(#_24)" d="M69.961,25.35l-9.865,4.044l-0.633,0.604c0.953,0.826,3.875,2.354,5.732,2.771 c1.586-0.68,4.291-3.972,4.549-5.01C70.035,26.597,70.053,25.938,69.961,25.35z"/>
<linearGradient id="_25" gradientUnits="userSpaceOnUse" x1="70.91" y1="28.74" x2="55.64" y2="27.49">
<stop stop-color="#E6EEF4" offset="0"/>
<stop stop-color="#4A9900" offset="0.44"/>
<stop stop-color="#0E4E58" offset="0.94"/>
</linearGradient>
<path fill="url(#_25)" d="M64.176,24.734l-4.338,4.473c1.732,1.211,3.814,2.121,5.238,2.51L64.176,24.734z"/>
<linearGradient id="_26" gradientUnits="userSpaceOnUse" x1="72.24" y1="40.74" x2="30.64" y2="52.26">
<stop stop-color="#E6EEF4" offset="0"/>
<stop stop-color="#4A9900" offset="0.44"/>
<stop stop-color="#0E4E58" offset="0.94"/>
</linearGradient>
<path fill="url(#_26)" d="M53.803,40.836l-18.221,5.939l0.361,1.811c0,0,3.02,3.436,9.637,4.549 c4.426-2.961,7.281-7.275,8.051-9.896L53.803,40.836z"/>
<linearGradient id="_27" gradientUnits="userSpaceOnUse" x1="28.29" y1="38.73" x2="56.64" y2="52.04">
<stop stop-color="#E6EEF4" offset="0"/>
<stop stop-color="#4A9900" offset="0.44"/>
<stop stop-color="#0E4E58" offset="0.94"/>
</linearGradient>
<path fill="url(#_27)" d="M35.56,46.775c0.459-4.283,2.678-8.182,2.678-8.182l6.721,2.291l0.191,10.521 C39.996,50.632,37.228,48.4,35.56,46.775z"/>
<linearGradient id="_28" gradientUnits="userSpaceOnUse" x1="61.67" y1="21.75" x2="30.82" y2="47.69">
<stop stop-color="#DCE8E4" offset="0"/>
<stop stop-color="#43910A" offset="1"/>
</linearGradient>
<path fill="url(#_28)" d="M38.238,38.593c1.014,0.961,3.758,2.711,6.615,2.459L67.459,19.66 c-1.971-1.095-4.752-1.334-4.752-1.334C55.015,21.57,45.017,29.601,38.238,38.593z"/>
<linearGradient id="_29" gradientUnits="userSpaceOnUse" x1="75.58" y1="15.87" x2="37.62" y2="52.6">
<stop stop-color="#DCE8E4" offset="0"/>
<stop stop-color="#43910A" offset="1"/>
</linearGradient>
<path fill="url(#_29)" d="M45.15,51.406c-0.586-2.174-0.828-7.971-0.293-10.42c6.193-9.059,15.107-17.154,22.561-21.364 c0,0,2.105,2.193,2.547,5.716c-0.52,2.227-3.102,5.05-4.893,6.371c-0.238-0.539-1.049-6.594-1.049-6.594 c-2.059,2.693-5.307,5.622-10.629,10.663c0.354,1.871,0.408,5.037,0.408,5.037C52.097,44.931,49.062,48.966,45.15,51.406z"/>
<path fill="#FFFFFF" d="M11.993,33.673c-2.879,0-6.823,0.684-7.823,6.592l-0.15,0.893c0,0,6.635,0,7.422,0 c0.238,0.428,0.592,1.066,0.818,1.475c-0.228,0.408-0.58,1.047-0.818,1.473c-0.787,0-7.422,0-7.422,0l0.15,0.893 c1,5.908,4.944,6.592,7.823,6.592c2.271,0,4.293-1.904,5.92-3.438c0.88-0.826,1.707-1.605,2.146-1.605h20.317l0.226-0.25 c0.438-0.48,1.452-1.791,1.475-3.631v-0.064c-0.021-1.842-1.034-3.15-1.475-3.633l-0.226-0.248H20.059 c-0.439,0-1.269-0.779-2.146-1.604C16.286,35.58,14.263,33.673,11.993,33.673z"/>
<linearGradient id="_30" gradientUnits="userSpaceOnUse" x1="10.6" y1="28.87" x2="32.51" y2="55.22">
<stop stop-color="#E6EDF3" offset="0"/>
<stop stop-color="#CABAD7" offset="0.12"/>
<stop stop-color="#AB7EB8" offset="0.27"/>
<stop stop-color="#9759A4" offset="0.38"/>
<stop stop-color="#8F4B9C" offset="0.44"/>
<stop stop-color="#73357C" offset="0.57"/>
<stop stop-color="#551D5A" offset="0.72"/>
<stop stop-color="#430E45" offset="0.85"/>
<stop stop-color="#3C093D" offset="0.94"/>
</linearGradient>
<path fill="url(#_30)" d="M41.313,42.632c0-0.01,0.004-0.016,0.004-0.023h-0.006c-0.019-1.602-0.937-2.758-1.271-3.127 c-0.431,0-19.98,0-19.98,0c-0.744,0-1.551-0.762-2.672-1.814c-1.525-1.438-3.426-3.229-5.396-3.229 c-3.194,0-6.221,0.939-7.067,5.955c1.201,0,6.967,0,6.967,0l1.238,2.238l-1.238,2.236c0,0-5.766,0-6.967,0 c0.848,5.018,3.873,5.955,7.067,5.955c1.97,0,3.869-1.791,5.396-3.229c1.121-1.053,1.928-1.814,2.672-1.814c0,0,19.551,0,19.98,0 c0.336-0.369,1.254-1.525,1.271-3.127h0.006C41.317,42.646,41.313,42.64,41.313,42.632z"/>
</svg>