<?xml version="1.0" encoding="UTF-8"?>
<!DOCTYPE svg PUBLIC "-//W3C//DTD SVG 1.1 Tiny//EN" "http://www.w3.org/Graphics/SVG/1.1/DTD/svg11-tiny.dtd">
<svg width="24.1" height="26.1" viewBox="19.785 -2.188 24.1 26.1">
<rect fill="none" height="26" stroke="#FFFFFF" stroke-opacity="0" stroke-width="0.1" width="24" x="19.835" y="-2.138"/>
<polygon fill="#87A8CB" points="24.094,9.787 20.303,6.409 26.717,20.905 "/>
<polygon fill="#CADCEC" points="27.491,5.198 24.268,1.534 28.922,0.059 36.797,2.245 40.022,5.911 35.36,7.439 "/>
<polygon fill="#496DA2" points="24.312,11.051 26.702,20.901 34.784,14 "/>
<polygon fill="#235487" points="34.784,14 26.702,20.901 40.842,12.61 "/>
<polygon fill="#87A8CB" points="27.406,5.153 24.312,11.051 34.784,14 35.36,7.439 "/>
<polygon fill="#496DA2" points="35.36,7.439 34.784,14 40.842,12.61 39.989,5.932 "/>
<polygon fill="#A2C2DD" points="24.289,1.566 20.317,6.418 24.312,11.051 27.406,5.153 "/>
<linearGradient id="_4" gradientUnits="userSpaceOnUse" x1="18.37" y1="9.21" x2="26.12" y2="7.46">
<stop stop-color="#CADCEC" offset="0"/>
<stop stop-color="#A2C2DD" offset="1"/>
</linearGradient>
<polygon fill="url(#_4)" points="26.567,4.184 27.403,5.15 24.309,11.046 20.316,6.414 "/>
<linearGradient id="_5" gradientUnits="userSpaceOnUse" x1="42.93" y1="19.4" x2="34.85" y2="9.48">
<stop stop-color="#87A8CB" offset="0"/>
<stop stop-color="#496DA2" offset="1"/>
</linearGradient>
<polygon fill="url(#_5)" points="40.809,12.648 34.805,14.028 35.376,7.463 36.624,7.06 "/>
<linearGradient id="_6" gradientUnits="userSpaceOnUse" x1="34.01" y1="-2.38" x2="32.05" y2="4.03">
<stop stop-color="#FFFFFF" offset="0"/>
<stop stop-color="#CEDFF2" offset="1"/>
</linearGradient>
<polygon fill="url(#_6)" points="36.614,6.965 35.367,7.371 27.501,5.132 26.595,4.107 28.927,-0.009 36.807,2.18 "/>
</svg>