<?xml version="1.0" encoding="UTF-8"?>
<!DOCTYPE svg PUBLIC "-//W3C//DTD SVG 1.1 Tiny//EN" "http://www.w3.org/Graphics/SVG/1.1/DTD/svg11-tiny.dtd">
<svg width="12" height="200" viewBox="-0.5 -0.03 12 200">
<path fill-opacity="0.5" fill="#87A8CB" d="M-0.5,91.431v73.127c0,2.908,2.804,5.412,6,5.412s6-2.504,6-5.412V91.431 c0-1.461-0.681-2.85-1.915-3.912C8.439,86.534,6.951,85.97,5.5,85.97C2.304,85.97-0.5,88.522-0.5,91.431z"/>
<path fill="#DEE9F3" d="M5.5,168.97c-2.484,0-5-1.951-5-4.412V91.431c0-2.463,2.516-4.461,5-4.461l0,0c2.487,0,5,1.998,5,4.461 v73.127C10.5,167.019,7.987,168.97,5.5,168.97L5.5,168.97z"/>
</svg>