<?xml version="1.0" encoding="UTF-8"?>
<!DOCTYPE svg PUBLIC "-//W3C//DTD SVG 1.1 Tiny//EN" "http://www.w3.org/Graphics/SVG/1.1/DTD/svg11-tiny.dtd">
<svg width="60" height="52" viewBox="-0.785 0.161 60 52">
<linearGradient id="_5" gradientUnits="userSpaceOnUse" x1="29.22" y1="44.96" x2="29.22" y2="6.56">
<stop stop-color="#698AB5" offset="0"/>
<stop stop-color="#41628E" offset="0.71"/>
<stop stop-color="#385985" offset="1"/>
</linearGradient>
<path d="M7.474,6.162c-1.245,0-2.259,1.014-2.259,2.259v35.481c0,1.246,1.014,2.26,2.259,2.26h43.481 c1.246,0,2.26-1.014,2.26-2.26V8.421c0-1.245-1.014-2.259-2.26-2.259H7.474z" fill="url(#_5)"/>
<g fill-opacity="0.9" stroke-opacity="0.9">
<linearGradient id="_6" gradientUnits="userSpaceOnUse" x1="29.21" y1="1.62" x2="29.21" y2="46.75">
<stop stop-color="#6694BF" offset="0"/>
<stop stop-color="#8CB3D2" offset="0.09"/>
<stop stop-color="#B3D3E6" offset="0.37"/>
<stop stop-color="#BDDBEB" offset="0.69"/>
</linearGradient>
<path d="M6.215,43.902V8.421c0-0.694,0.564-1.259,1.259-1.259h43.481c0.694,0,1.26,0.564,1.26,1.259 v35.481c0,0.694-0.565,1.26-1.26,1.26H7.474C6.779,45.162,6.215,44.597,6.215,43.902z" fill="url(#_6)"/>
</g>
<linearGradient id="_7" gradientUnits="userSpaceOnUse" x1="29.02" y1="42.95" x2="29.02" y2="10.54">
<stop stop-color="#ADCCED" offset="0"/>
<stop stop-color="#6385AD" offset="1"/>
</linearGradient>
<path d="M51.833,7.539c-0.243-0.252-0.529-0.377-0.878-0.377H7.474c-0.694,0-1.259,0.564-1.259,1.259 v35.481c0,0.346,0.143,0.652,0.372,0.873c0.003,0.013,0.628-0.628,0.628-0.628V8.162h43.999L51.833,7.539z" fill="url(#_7)"/>
<linearGradient id="_8" gradientUnits="userSpaceOnUse" x1="29.41" y1="40.41" x2="29.41" y2="0.94">
<stop stop-color="#DBF5FF" offset="0"/>
<stop stop-color="#5985B0" offset="1"/>
</linearGradient>
<path d="M6.597,44.784c0.243,0.252,0.529,0.377,0.878,0.377h43.481c0.694,0,1.259-0.564,1.259-1.259V8.421 c0-0.346-0.143-0.652-0.372-0.873c-0.003-0.013-0.628,0.628-0.628,0.628s0,35.206,0,35.985c-0.738,0-43.999,0-43.999,0 L6.597,44.784z" fill="url(#_8)"/>
<rect fill="#496DA2" height="20" transform="matrix(0.7072 0.707 -0.707 0.7072 27.0496 -12.9963)" width="3.771" x="27.331" y="16.162"/>
<circle cx="23.665" cy="20.611" fill="#496DA2" r="3.15"/>
<circle cx="34.766" cy="31.712" fill="#496DA2" r="3.15"/>
</svg>