<?xml version="1.0" encoding="UTF-8" standalone="no"?>
<!DOCTYPE svg PUBLIC "-//W3C//DTD SVG 1.1 Tiny//EN" "http://www.w3.org/Graphics/SVG/1.1/DTD/svg11-tiny.dtd">
<svg xmlns="http://www.w3.org/2000/svg" xmlns:xlink="http://www.w3.org/1999/xlink" width="40" height="50" viewBox="0 0 40 50">
<rect fill="none" height="50" width="40"/>
<path d="M38.198,49.5H1.801c-0.718,0-1.301-0.712-1.301-1.59L6.997,2.091C6.997,1.213,7.58,0.5,8.298,0.5h23.33 c0.72,0,1.302,0.713,1.302,1.591L39.5,47.91C39.5,48.788,38.915,49.5,38.198,49.5L38.198,49.5z" fill="#444444"/>
<path d="M39.421,48.438L32.939,3.234l-0.012-0.07V3.091c0-0.361-0.197-0.59-0.301-0.59H9.297 c-0.103,0-0.299,0.229-0.299,0.59v0.07l-0.01,0.07L2.502,48.966C2.521,49.294,2.704,49.5,2.801,49.5h35.397 C38.764,49.5,39.242,49.055,39.421,48.438z" fill="#6E99CC"/>
</svg>