<?xml version="1.0" encoding="UTF-8"?>
<!DOCTYPE svg PUBLIC "-//W3C//DTD SVG 1.1 Tiny//EN" "http://www.w3.org/Graphics/SVG/1.1/DTD/svg11-tiny.dtd">
<svg width="58" height="58" viewBox="0 0 58 58">
<path d="M3.729,29.968c0,14.468,11.772,26.237,26.238,26.237 c14.47,0,26.238-11.77,26.238-26.237S44.437,3.729,29.967,3.729C15.5,3.729,3.729,15.5,3.729,29.968z" fill-opacity="0.01" />
<path d="M4.875,29.968c0,13.835,11.256,25.092,25.092,25.092 c13.837,0,25.094-11.257,25.094-25.092c0-13.836-11.257-25.092-25.094-25.092C16.131,4.876,4.875,16.132,4.875,29.968z" fill-opacity="0.02" />
<path d="M6.018,29.968c0,13.203,10.746,23.945,23.949,23.945 c13.208,0,23.945-10.742,23.945-23.945c0-13.209-10.738-23.948-23.945-23.948C16.764,6.02,6.018,16.759,6.018,29.968z" fill-opacity="0.04" />
<path d="M6.984,29.968c0,12.672,10.31,22.979,22.982,22.979 c12.67,0,22.979-10.307,22.979-22.979S42.637,6.986,29.967,6.986C17.294,6.986,6.984,17.296,6.984,29.968z" fill-opacity="0.07" />
<linearGradient id="_3" gradientUnits="userSpaceOnUse" x1="29" y1="6.52" x2="29" y2="51.44">
<stop stop-color="#B3DDFF" offset="0"/>
<stop stop-color="#3366CC" offset="1"/>
</linearGradient>
<path d="M29,6.098c-12.631,0-22.905,10.274-22.905,22.903 c0,12.627,10.274,22.901,22.905,22.901s22.907-10.274,22.907-22.901C51.907,16.372,41.631,6.098,29,6.098z" fill="url(#_3)"/>
<linearGradient id="_4" gradientUnits="userSpaceOnUse" x1="29" y1="8.16" x2="29" y2="49.51">
<stop stop-color="#FFFFFF" offset="0"/>
<stop stop-color="#C4E0F4" offset="0.26"/>
<stop stop-color="#96C7EB" offset="0.5"/>
<stop stop-color="#75B6E5" offset="0.71"/>
<stop stop-color="#61ABE1" offset="0.88"/>
<stop stop-color="#5AA7E0" offset="1"/>
</linearGradient>
<path d="M50.657,29.001c0,11.963-9.695,21.655-21.657,21.655 c-11.963,0-21.656-9.692-21.656-21.655C7.344,17.04,17.037,7.344,29,7.344C40.962,7.344,50.657,17.04,50.657,29.001z" fill="url(#_4)"/>
<ellipse cx="29.001" cy="29.422" fill="#CFECFF" fill-opacity="0.3" rx="18.708" ry="15.271" />
<polygon fill="#2F6F5C" points="21.172,20.648 21.172,39.597 42.539,29.977 "/>
</svg>