<?xml version="1.0" encoding="UTF-8"?>
<!DOCTYPE svg PUBLIC "-//W3C//DTD SVG 1.1 Tiny//EN" "http://www.w3.org/Graphics/SVG/1.1/DTD/svg11-tiny.dtd">
<svg width="58" height="58" viewBox="0 0 58 58">
<path d="M1.762,29.002c0,15.019,12.219,27.236,27.237,27.236 c15.02,0,27.239-12.218,27.239-27.236c0-15.021-12.22-27.24-27.239-27.24C13.117,1.762,1.762,15.167,1.762,29.002z" fill="#1FFFEA" fill-opacity="0.2" />
<path d="M2.762,29.002c0,14.468,11.771,26.236,26.237,26.236 c14.47,0,26.239-11.769,26.239-26.236s-11.77-26.24-26.239-26.24C14.533,2.762,2.762,14.534,2.762,29.002z" fill="#1FFFEA" fill-opacity="0.4" />
<path d="M3.907,29c0,13.835,11.257,25.092,25.092,25.092 c13.838,0,25.094-11.257,25.094-25.092c0-13.836-11.256-25.092-25.094-25.092C15.164,3.908,3.907,15.164,3.907,29z" fill="#1FFFEA"/>
<radialGradient id="_4" gradientUnits="userSpaceOnUse" cx="29" cy="29" r="22.9">
<stop stop-color="#B3DDFF" offset="0"/>
<stop stop-color="#D3FFBF" offset="0.01"/>
<stop stop-color="#92F7DB" offset="0.41"/>
<stop stop-color="#56F0F5" offset="0.81"/>
<stop stop-color="#3FEDFF" offset="1"/>
</radialGradient>
<path d="M28.999,6.098c-12.628,0-22.901,10.274-22.901,22.903 c0,12.627,10.273,22.901,22.901,22.901c12.629,0,22.904-10.274,22.904-22.901C51.902,16.372,41.627,6.098,28.999,6.098z" fill="url(#_4)"/>
<linearGradient id="_5" gradientUnits="userSpaceOnUse" x1="29" y1="6.52" x2="29" y2="51.44">
<stop stop-color="#CFECFF" offset="0"/>
<stop stop-color="#8CC2EA" offset="1"/>
</linearGradient>
<path d="M28.999,6.098c-12.628,0-22.901,10.274-22.901,22.903 c0,12.627,10.273,22.901,22.901,22.901c12.629,0,22.903-10.274,22.903-22.901C51.902,16.372,41.628,6.098,28.999,6.098z M28.999,50.656c-11.961,0-21.651-9.692-21.651-21.655c0-11.961,9.69-21.657,21.651-21.657 c11.96,0,21.654,9.696,21.654,21.657C50.653,40.963,40.959,50.656,28.999,50.656z" fill="url(#_5)" fill-opacity="0.5" />
<linearGradient id="_6" gradientUnits="userSpaceOnUse" x1="29" y1="3.2" x2="29" y2="61.97">
<stop stop-color="#FFFFFF" offset="0"/>
<stop stop-color="#B3DDFF" offset="1"/>
</linearGradient>
<path d="M50.656,29c0,11.963-9.695,21.656-21.658,21.656 C17.034,50.657,7.343,40.963,7.343,29c0-11.96,9.691-21.657,21.655-21.657C40.961,7.343,50.656,17.041,50.656,29z" fill="url(#_6)" fill-opacity="0.5" />
<path d="M47.708,29.023c0,20.225-37.417,20.225-37.417,0 C10.292,8.82,47.708,8.82,47.708,29.023z" fill="#FFFFFF" fill-opacity="0.15" />
<path d="M21.473,21.384V38.86c0,0.346,0.351,0.542,0.638,0.412l19.861-8.896 c0.395-0.177,0.298-0.693-0.005-0.826l-19.861-8.58C21.838,20.853,21.473,21.081,21.473,21.384z" fill="#2F6F5C" fill-opacity="0.6" />
<path d="M18.263,23.458v13.329c0,3.585,3.771,5.528,6.613,4.325l16.5-6.77 c3.775-1.591,3.907-7.046-0.055-8.668l-16.491-6.56C21.67,17.812,18.263,20.231,18.263,23.458z" fill="#1FFFEA" fill-opacity="0.1" />
<path d="M19.263,23.458v13.329c0,2.542,2.855,4.406,5.224,3.404l16.499-6.769 c3.254-1.372,2.786-5.664-0.043-6.823l-16.493-6.56C21.961,19.014,19.263,20.902,19.263,23.458z" fill="#1FFFEA" fill-opacity="0.2" />
<path d="M20.263,23.458v13.329c0,1.608,1.821,3.335,3.834,2.483l16.498-6.769 c2.042-0.861,2.346-4.003-0.031-4.977l-16.494-6.561C22.508,20.32,20.263,21.401,20.263,23.458z" fill="#1FFFEA" fill-opacity="0.3" />
</svg>