<?xml version="1.0" encoding="UTF-8"?>
<!DOCTYPE svg PUBLIC "-//W3C//DTD SVG 1.1 Tiny//EN" "http://www.w3.org/Graphics/SVG/1.1/DTD/svg11-tiny.dtd">
<svg baseProfile="tiny" height="44" viewBox="-2.975 -2.998 44 44" width="44" xmlns="http://www.w3.org/2000/svg" xmlns:xlink="http://www.w3.org/1999/xlink">
<path d="M28.627,37c-0.777-0.223-1.479-1.021-1.479-1.021l-6.97-7.592 c-0.658-0.6-1.001-2.021-1.001-2.021C14.412,28.4,8.093,27.643,4.069,23.45C-4.95,14.056,2.238,0,13.785,0 c9.63,0,16.603,9.916,12.63,19.135c0,0,1.432,0.353,1.992,1.017l7.602,6.977c0,0,0.801,0.764,1.023,1.489 c1.395,1.673,1.479,4.676-1.115,7.274C32.962,38.848,30.025,38.182,28.627,37z M5.818,5.767L2.51,13.742l3.308,7.968l7.967,3.3 l7.972-3.303l3.3-7.97l-3.302-7.971l-7.964-3.3L5.818,5.767z" fill="#FFFFFF" fill-opacity="0.6"/>
<linearGradient gradientUnits="userSpaceOnUse" id="_78" x1="19.02" x2="19.02" y1="-11.59" y2="24.8">
<stop offset="0" stop-color="#CCCCCC"/>
<stop offset="1" stop-color="#000000"/>
</linearGradient>
<path d="M29.576,35.416c-0.49-0.091-1.096-0.646-1.096-0.646l-6.977-7.602 c0,0-0.635-0.652-0.592-1.611l-1.367-1.367c-4.522,2.492-10.405,1.791-14.205-2.01C0.688,17.525,0.688,9.95,5.346,5.295 c4.558-4.566,12.162-4.717,16.879,0c3.799,3.799,4.585,9.553,2.01,14.202l1.39,1.392c0.002,0,0.004,0,0.006,0 c0.93-0.025,1.563,0.594,1.563,0.594l7.599,6.975c0,0,0.438,0.336,0.651,1.105c0.585,0.439,1.673,2.58-0.801,5.061 C32.38,36.881,30.328,36.284,29.576,35.416z M6.139,6.087l-3.17,7.65l3.17,7.648l7.644,3.168l7.651-3.169l3.163-7.647l-3.166-7.65 l-7.646-3.161L6.139,6.087z" fill="url(#_78)" fill-opacity="0.7"/>
<radialGradient cx="30.21" cy="32.9" gradientUnits="userSpaceOnUse" id="_79" r="3.84">
<stop offset="0" stop-color="#FFFFFF"/>
<stop offset="0.1" stop-color="#F7F7F7"/>
<stop offset="0.25" stop-color="#E0E0E0"/>
<stop offset="0.43" stop-color="#BCBCBC"/>
<stop offset="0.65" stop-color="#898989"/>
<stop offset="0.88" stop-color="#494949"/>
<stop offset="1" stop-color="#262626"/>
</radialGradient>
<path d="M34.759,30.042c0.789,0.548,1.117,2.208-0.684,4.011c-1.877,1.879-3.433,1.477-4.019,0.674 L34.759,30.042z" fill="url(#_79)"/>
<linearGradient gradientUnits="userSpaceOnUse" id="_80" x1="34.97" x2="33.04" y1="31.18" y2="34.09">
<stop offset="0" stop-color="#FFFFFF"/>
<stop offset="1" stop-color="#808080"/>
</linearGradient>
<path d="M34.891,31.154c0.341,0.893-0.81,2.699-1.44,2.066c-0.213-0.215-0.175-0.564,0.379-1.176 C34.382,31.44,34.724,30.727,34.891,31.154z" fill="url(#_80)"/>
<linearGradient gradientUnits="userSpaceOnUse" id="_81" x1="24.35" x2="20.81" y1="20.77" y2="24.31">
<stop offset="0" stop-color="#666666"/>
<stop offset="0.27" stop-color="#F2F2F2"/>
<stop offset="1" stop-color="#999999"/>
</linearGradient>
<polygon fill="url(#_81)" points="26.035,22.428 22.473,25.988 19.129,22.645 22.69,19.083 "/>
<radialGradient cx="13.74" cy="13.72" gradientUnits="userSpaceOnUse" id="_82" r="8.31">
<stop offset="0" stop-color="#FFFFFF"/>
<stop offset="0.3" stop-color="#FFFFFF"/>
<stop offset="0.56" stop-color="#FDFDFD"/>
<stop offset="0.66" stop-color="#F6F6F6"/>
<stop offset="0.72" stop-color="#EBEBEB"/>
<stop offset="0.78" stop-color="#DADADA"/>
<stop offset="0.82" stop-color="#C4C4C4"/>
<stop offset="0.86" stop-color="#A8A8A8"/>
<stop offset="0.9" stop-color="#888888"/>
<stop offset="0.94" stop-color="#626262"/>
<stop offset="0.97" stop-color="#373737"/>
<stop offset="0.99" stop-color="#090909"/>
<stop offset="1" stop-color="#000000"/>
</radialGradient>
<circle cx="13.74" cy="13.72" fill="url(#_82)" fill-opacity="0.7" r="8.313"/>
<linearGradient gradientUnits="userSpaceOnUse" id="_83" x1="13.79" x2="13.79" y1="4.82" y2="24.89">
<stop offset="0" stop-color="#666666"/>
<stop offset="1" stop-color="#CCCCCC"/>
</linearGradient>
<path d="M5.91,5.86c-4.351,4.353-4.351,11.403-0.002,15.753c4.349,4.352,11.401,4.352,15.753,0 c4.351-4.351,4.351-11.402,0-15.753C17.309,1.511,10.256,1.511,5.91,5.86z M19.619,19.568c-3.223,3.223-8.446,3.223-11.665,0.002 c-3.222-3.221-3.225-8.443,0-11.667c3.219-3.221,8.442-3.221,11.663,0C22.836,11.126,22.839,16.348,19.619,19.568z" fill="url(#_83)"/>
<linearGradient gradientUnits="userSpaceOnUse" id="_84" x1="13.79" x2="13.79" y1="25.31" y2="5.3">
<stop offset="0" stop-color="#999999"/>
<stop offset="1" stop-color="#000000"/>
</linearGradient>
<polygon fill="url(#_84)" points="19.291,12.622 14.915,12.622 14.915,8.244 12.664,8.244 12.664,12.622 8.288,12.622 8.288,14.872 12.664,14.872 12.664,19.248 14.915,19.248 14.915,14.872 19.291,14.872 "/>
<linearGradient gradientUnits="userSpaceOnUse" id="_85" x1="13.83" x2="13.83" y1="-1.61" y2="9.22">
<stop offset="0" stop-color="#FFFFFF"/>
<stop offset="0.15" stop-color="#FAFAFA"/>
<stop offset="0.34" stop-color="#EBEBEB"/>
<stop offset="0.54" stop-color="#D3D3D3"/>
<stop offset="0.75" stop-color="#B2B2B2"/>
<stop offset="0.97" stop-color="#878787"/>
<stop offset="1" stop-color="#808080"/>
</linearGradient>
<path d="M22.528,9.94c0.304,0.659,0.627-0.064,0.386-0.611c-3.33-7.539-14.134-8.379-18.167,0 c-0.243,0.614,0.062,1.175,0.349,0.683C9.042,3.229,18.335,3,22.528,9.94z" fill="url(#_85)"/>
<linearGradient gradientUnits="userSpaceOnUse" id="_86" x1="13.76" x2="13.76" y1="23.07" y2="18.54">
<stop offset="0" stop-color="#FFFFFF"/>
<stop offset="0.21" stop-color="#FAFAFA"/>
<stop offset="0.45" stop-color="#EBEBEB"/>
<stop offset="0.72" stop-color="#D3D3D3"/>
<stop offset="1" stop-color="#B2B2B2"/>
</linearGradient>
<path d="M20.102,19.486c-3.534,3.459-9.062,3.391-12.66,0.001c-1.419-1.337-1.874-0.878,0,0.998 c3.497,3.496,9.164,3.496,12.66-0.002C21.977,18.609,21.436,18.181,20.102,19.486z" fill="url(#_86)"/>
<linearGradient gradientUnits="userSpaceOnUse" id="_87" x1="23.39" x2="28.89" y1="32.62" y2="27.12">
<stop offset="0" stop-color="#EBF7AB"/>
<stop offset="0.49" stop-color="#87B938"/>
<stop offset="1" stop-color="#006300"/>
</linearGradient>
<path d="M34.457,29.232c0.494,0.453,0.516,1.215,0.035,1.688l-3.543,3.546 c-0.477,0.478-1.236,0.462-1.691-0.034l-7.352-8.01c-0.453-0.494-0.437-1.289,0.038-1.764l2.74-2.739 c0.474-0.478,1.269-0.491,1.765-0.038L34.457,29.232z" fill="url(#_87)"/>
<linearGradient gradientUnits="userSpaceOnUse" id="_88" x1="28.11" x2="30" y1="27.86" y2="25.96">
<stop offset="0" stop-color="#3B8919"/>
<stop offset="1" stop-color="#E3F0B5"/>
</linearGradient>
<polygon fill="url(#_88)" points="31.576,32.246 23.882,24.229 25.712,22.516 33.793,30.012 "/>
<rect fill="none" height="44" width="44" x="-2.975" y="-2.998"/>
</svg>
