<?xml version="1.0" encoding="UTF-8"?>
<!DOCTYPE svg PUBLIC "-//W3C//DTD SVG 1.1 Tiny//EN" "http://www.w3.org/Graphics/SVG/1.1/DTD/svg11-tiny.dtd">
<svg width="16" height="16" viewBox="0 0 16 16">
<polygon fill="#496DA2" points="12.95,2.203 11.181,3.192 11.132,15.283 12.694,14.256 "/>
<polygon fill="#A2C2DD" points="11.132,15.283 3.027,13.014 2.613,1.237 11.261,3.072 "/>
<polygon fill="#CEE1EF" points="12.95,2.203 4.138,0.736 2.613,1.237 11.28,3.183 "/>
<polygon fill="#496DA2" points="4.165,10.432 10.44,12.151 10.438,11.506 4.132,9.813 "/>
<polygon fill="#496DA2" points="3.757,7.904 10.045,9.623 10.043,8.982 3.727,7.285 "/>
<path fill="#496DA2" d="M7.556,4.546C7.371,4.372,7.113,4.309,6.91,4.369L3.646,3.025c-0.061-0.022-0.359,0.819-0.3,0.838 c0,0,3.444,1.239,3.479,1.271C7.068,5.354,7.42,5.4,7.625,5.237C7.824,5.072,7.797,4.765,7.556,4.546z"/>
<radialGradient id="_2" gradientUnits="userSpaceOnUse" cx="2.53" cy="2.38" r="2.25">
<stop stop-color="#CEE1EF" offset="0"/>
<stop stop-color="#496DA2" offset="1"/>
</radialGradient>
<circle fill="url(#_2)" cx="2.884" cy="2.995" r="1.913"/>
<circle fill="#496DA2" cx="13.993" cy="12.36" r="0.954"/>
<path fill="#FFFFFF" d="M12.9,7.151c-0.348-0.41-0.938-1.024-2.141-1.121C9.94,5.969,9.172,6.292,8.473,6.994 c-0.719,0.715-1.046,1.493-0.977,2.31c0.098,1.167,0.987,2.024,1.379,2.351l0.057,1.813l1.551,1.545l2.26-2.279L12.9,7.151z"/>
<path fill="#496DA2" d="M14.204,7.994L12.81,8.044c-0.273-0.32-0.984-1.042-1.924-1.117c-0.637-0.049-1.236,0.203-1.785,0.75 c-0.559,0.56-0.814,1.166-0.762,1.805c0.076,0.908,0.771,1.578,1.076,1.834l0.045,1.412l1.051,1.053l4.742-4.721L14.204,7.994z"/>
</svg>