<?xml version="1.0" encoding="UTF-8"?>
<!DOCTYPE svg PUBLIC "-//W3C//DTD SVG 1.1 Tiny//EN" "http://www.w3.org/Graphics/SVG/1.1/DTD/svg11-tiny.dtd">
<svg width="84" height="58" viewBox="-0.183 -0.839 84 58">
<linearGradient id="_27" gradientUnits="userSpaceOnUse" x1="45.81" y1="32.58" x2="56.15" y2="52.96">
<stop stop-color="#A2C2DD" offset="0.1"/>
<stop stop-color="#6C83BB" offset="0.71"/>
<stop stop-color="#003D6D" offset="0.99"/>
</linearGradient>
<path fill="url(#_27)" d="M48.811,16.67l-6.129-3.846l-7.464-0.647l-18.775,22.15l0.86,2.247l7.091,2.435l6.64,4.473 l7.59,2.278l7.232,4.854l9.486,2.606l15.572-28.064l0.097-3.066c0,0-7.657-0.697-7.812-0.712c-0.133-0.079-6.916-4.096-6.916-4.096 L48.811,16.67z"/>
<linearGradient id="_28" gradientUnits="userSpaceOnUse" x1="59.67" y1="47.85" x2="2.44" y2="-22.03">
<stop stop-color="#FFFFFF" offset="0"/>
<stop stop-color="#A2C2DD" offset="0.35"/>
<stop stop-color="#6C83BB" offset="0.7"/>
<stop stop-color="#003D6D" offset="1"/>
</linearGradient>
<polygon fill="url(#_28)" points="70.646,22.409 63.089,21.72 56.174,17.625 48.697,17.012 42.568,13.166 35.368,12.542 16.844,34.396 24.501,36.84 30.988,41.559 38.696,43.62 46.178,48.496 54.8,50.275 "/>
<linearGradient id="_29" gradientUnits="userSpaceOnUse" x1="83.65" y1="56.61" x2="-7.83" y2="-7.75">
<stop stop-color="#FFFFFF" offset="0"/>
<stop stop-color="#A2C2DD" offset="0.35"/>
<stop stop-color="#6C83BB" offset="0.7"/>
<stop stop-color="#003D6D" offset="1"/>
</linearGradient>
<polygon fill="url(#_29)" points="68.995,22.899 62.738,22.329 55.635,18.397 48.241,17.674 41.88,13.959 35.885,13.711 18.494,34.178 24.938,36.196 31.602,40.71 39.204,42.832 46.605,47.461 54.172,49.105 "/>
<linearGradient id="_30" gradientUnits="userSpaceOnUse" x1="20" y1="37.6" x2="64.51" y2="10.76">
<stop stop-color="#FFFFFF" offset="0.05"/>
<stop stop-color="#A2C2DD" offset="1"/>
</linearGradient>
<polygon fill="url(#_30)" points="24.501,36.84 42.568,13.166 48.709,17.048 31.271,41.627 "/>
<linearGradient id="_31" gradientUnits="userSpaceOnUse" x1="33.53" y1="43.62" x2="79.84" y2="15.69">
<stop stop-color="#FFFFFF" offset="0.05"/>
<stop stop-color="#A2C2DD" offset="1"/>
</linearGradient>
<polygon fill="url(#_31)" points="56.174,17.625 38.696,43.62 45.944,48.479 63.089,21.72 "/>
<linearGradient id="_32" gradientUnits="userSpaceOnUse" x1="90.97" y1="59.41" x2="10.32" y2="36.31">
<stop stop-color="#FFFFFF" offset="0"/>
<stop stop-color="#A2C2DD" offset="0.35"/>
<stop stop-color="#6C83BB" offset="0.7"/>
<stop stop-color="#003D6D" offset="1"/>
</linearGradient>
<polygon fill="url(#_32)" points="54.8,50.275 46.06,48.391 38.839,43.605 31.215,41.605 24.501,36.826 16.844,34.399 17.571,36.297 24.508,38.678 31.229,43.191 38.724,45.425 46.049,50.324 55.203,52.82 "/>
<linearGradient id="_33" gradientUnits="userSpaceOnUse" x1="60.28" y1="35.57" x2="67.15" y2="40.92">
<stop stop-color="#DEE9F3" offset="0"/>
<stop stop-color="#235487" offset="1"/>
</linearGradient>
<polygon fill="url(#_33)" points="70.65,22.409 54.8,50.275 55.173,52.834 70.566,25.061 "/>
<linearGradient id="_34" gradientUnits="userSpaceOnUse" x1="79.25" y1="57.19" x2="-19.54" y2="24.17">
<stop stop-color="#FFFFFF" offset="0"/>
<stop stop-color="#A2C2DD" offset="0.35"/>
<stop stop-color="#6C83BB" offset="0.7"/>
<stop stop-color="#003D6D" offset="1"/>
</linearGradient>
<polygon fill="url(#_34)" points="24.501,36.84 24.508,38.678 31.199,43.18 31.234,41.629 "/>
<polygon fill="url(#_34)" points="38.696,43.62 38.724,45.425 46.049,50.324 46.06,48.391 "/>
<polygon fill="#FFFFFF" points="24.981,36.211 24.501,36.826 31.234,41.602 31.872,40.768 "/>
<linearGradient id="_36" gradientUnits="userSpaceOnUse" x1="41.93" y1="15.42" x2="48.71" y2="15.42">
<stop stop-color="#FFFFFF" offset="0.05"/>
<stop stop-color="#A2C2DD" offset="1"/>
</linearGradient>
<polygon fill="url(#_36)" points="48.266,17.665 48.709,17.033 42.568,13.166 41.927,13.985 "/>
<polygon fill="#FFFFFF" points="39.233,42.828 38.71,43.605 46.06,48.391 46.636,47.445 "/>
<linearGradient id="_37" gradientUnits="userSpaceOnUse" x1="55.66" y1="19.97" x2="63.11" y2="19.97">
<stop stop-color="#FFFFFF" offset="0.05"/>
<stop stop-color="#A2C2DD" offset="1"/>
</linearGradient>
<polygon fill="url(#_37)" points="62.714,22.31 63.105,21.72 56.186,17.625 55.663,18.407 "/>
<linearGradient id="_38" gradientUnits="userSpaceOnUse" x1="85.18" y1="44.02" x2="21.23" y2="6.28">
<stop stop-color="#E6EEF4" offset="0"/>
<stop stop-color="#4A9900" offset="0.44"/>
<stop stop-color="#0E4E58" offset="0.94"/>
</linearGradient>
<path fill="url(#_38)" d="M61.303,30.477l0.878,0.934l0.806-0.576l-1.059-1.502c0,0-1.326-0.202-1.355,0.204 C60.544,29.945,61.303,30.477,61.303,30.477z"/>
<linearGradient id="_39" gradientUnits="userSpaceOnUse" x1="77.79" y1="62.15" x2="6.25" y2="-18.19">
<stop stop-color="#E6EEF4" offset="0"/>
<stop stop-color="#4A9900" offset="0.44"/>
<stop stop-color="#0E4E58" offset="0.94"/>
</linearGradient>
<path fill="url(#_39)" d="M55.635,18.397l-7.373-0.722L36.34,34.481l2.852,0.818c0,0,1.879,1.268,3.6,2.231l3.545-5.277 c-0.041-0.071-0.08-0.135-0.131-0.172c-0.595-0.492-0.668-1.134-0.668-1.134s0.754,0.123,1.656,0.032l8.455-12.575L55.635,18.397z"/>
<linearGradient id="_40" gradientUnits="userSpaceOnUse" x1="72.52" y1="60.76" x2="0.78" y2="-1.32">
<stop stop-color="#E6EEF4" offset="0"/>
<stop stop-color="#4A9900" offset="0.44"/>
<stop stop-color="#0E4E58" offset="0.94"/>
</linearGradient>
<path fill="url(#_40)" d="M26.07,33.389c0.371,0.123,0.624,0.229,0.809,0.336l11.695-15.325l-2.689,0.184l-1.029,0.803 c0,0-1.946-0.846-2.806-1.163l-8.547,10.061c0.078,0.053,0.158,0.11,0.231,0.159C25.636,29.75,24.204,32.777,26.07,33.389z"/>
<path fill="url(#_38)" d="M62.712,22.313l-2.563,3.999c0.32-0.171,1.447-0.689,2.774-0.189 c1.563,0.591,3.618-0.271,3.843-0.443c0.223-0.173,0.15-1.717,0.15-1.717s0.178-0.536,0.465-1.213l-4.643-0.42L62.712,22.313z"/>
<linearGradient id="_42" gradientUnits="userSpaceOnUse" x1="11.82" y1="44.44" x2="64.13" y2="7.71">
<stop stop-color="#DCE8E4" offset="0"/>
<stop stop-color="#43910A" offset="1"/>
</linearGradient>
<path fill="url(#_42)" d="M48.241,17.672l-3.712-2.167c-1.15,0.768-3.039,1.994-2.91,1.702 c0.188-0.418-1.719,1.033-1.719,1.033l-0.599,0.11l-0.728,0.05L26.878,33.727c0.732,0.43,0.366,0.844,2.092,2.067 c2.164,1.53,2.65-0.972,2.65-0.972l3.582-0.666l1.136,0.325l11.923-16.805L48.241,17.672z"/>
<linearGradient id="_43" gradientUnits="userSpaceOnUse" x1="20.87" y1="49.1" x2="78.01" y2="17.85">
<stop stop-color="#DCE8E4" offset="0"/>
<stop stop-color="#43910A" offset="1"/>
</linearGradient>
<path fill="url(#_43)" d="M45.518,38.529c0.559-0.658,1.146-2.864,1.146-2.864s0.115-2.604-0.328-3.411l-3.545,5.279 C44.334,37.613,45.275,38.811,45.518,38.529z"/>
<linearGradient id="_44" gradientUnits="userSpaceOnUse" x1="23.79" y1="41.01" x2="79.1" y2="10.76">
<stop stop-color="#DCE8E4" offset="0"/>
<stop stop-color="#43910A" offset="1"/>
</linearGradient>
<path fill="url(#_44)" d="M55.648,18.407L47.193,30.98c0.839,0.186,2.301-0.504,2.795-1.734 c0.714-1.786,3.126-3.221,4.059-3.819c0.934-0.595,2.051,0.71,3.393,0.723c1.346,0.012,2.61,0.214,2.61,0.214 s0.041-0.021,0.097-0.055l2.565-3.999L55.648,18.407z"/>
<path fill="url(#_38)" d="M54.828,45.224c-2.221,0.263-4.523-0.634-4.523-0.634l-1.6-0.422l-2.106,3.287l0.007,0.006 l7.566,1.643l2.164-3.82C55.896,45.195,55.395,45.156,54.828,45.224z"/>
<linearGradient id="_46" gradientUnits="userSpaceOnUse" x1="30.32" y1="53.01" x2="58.68" y2="37.5">
<stop stop-color="#DCE8E4" offset="0"/>
<stop stop-color="#43910A" offset="1"/>
</linearGradient>
<path fill="url(#_46)" d="M46.691,43.637l-1.377,0.266l-1.054-0.51c0,0-0.876-0.936-2.644,0.086 c-0.254,0.149-0.484,0.289-0.699,0.426l5.681,3.551l2.106-3.287L46.691,43.637z"/>
<path fill="url(#_38)" d="M58.008,32.121l0.217-0.683l1.044-0.972l-0.763-0.531l-0.238-0.689l-2.069,3.226 c0.065,0.033,0.144,0.052,0.233,0.044C57.16,32.468,58.008,32.121,58.008,32.121z"/>
<linearGradient id="_48" gradientUnits="userSpaceOnUse" x1="31.13" y1="44.36" x2="72" y2="22.01">
<stop stop-color="#DCE8E4" offset="0"/>
<stop stop-color="#43910A" offset="1"/>
</linearGradient>
<path fill="url(#_48)" d="M58.254,29.197c0,0-1.83-0.345-2.468,0.161c-0.634,0.507-1.479,0.505-1.479,0.505 s-0.244,1.094-0.065,1.169c0.178,0.073,0.943-0.237,0.943-0.237l0.607,0.395c0,0-0.064,1.053,0.405,1.282l2.071-3.227 L58.254,29.197z"/>
<linearGradient id="_49" gradientUnits="userSpaceOnUse" x1="46.04" y1="14.98" x2="52.24" y2="23.48">
<stop stop-color="#E6EEF4" offset="0"/>
<stop stop-color="#C03A3A" offset="0.44"/>
<stop stop-color="#302D02" offset="0.94"/>
</linearGradient>
<path fill="url(#_49)" d="M52.958,20.655c0.343,0.939-0.416,1.977-1.7,2.319c-1.287,0.338-2.608-0.146-2.953-1.086 c-0.348-0.939,0.412-1.976,1.696-2.316C51.285,19.233,52.607,19.717,52.958,20.655z"/>
<linearGradient id="_50" gradientUnits="userSpaceOnUse" x1="49.29" y1="12.15" x2="50.73" y2="12.15">
<stop stop-color="#E3DFE4" offset="0"/>
<stop stop-color="#C03A3A" offset="1"/>
</linearGradient>
<polygon fill="url(#_50)" points="49.486,2.314 49.664,21.847 50.903,22.065 51.334,2.226 "/>
<polygon fill="#7B341F" points="50.899,2.445 50.903,22.065 51.73,21.089 51.763,2.071 "/>
<linearGradient id="_51" gradientUnits="userSpaceOnUse" x1="50.22" y1="20.72" x2="61.45" y2="-4.63">
<stop stop-color="#E6EEF4" offset="0"/>
<stop stop-color="#C03A3A" offset="0.44"/>
<stop stop-color="#302D02" offset="0.94"/>
</linearGradient>
<polygon fill="url(#_51)" points="50.771,3.626 50.813,13.026 62.267,9.377 "/>
<polygon fill="#E0CFD4" points="49.507,2.31 50.5,1.971 51.763,2.071 50.899,2.445 "/>
<polygon fill="#E0CFD4" points="50.875,3.715 62.267,9.377 51.75,3.266 "/>
<path fill="#FFFFFF" d="M13.525,33.66c-2.773,0-6.576,0.658-7.539,6.354L5.84,40.871c0,0,6.395,0,7.152,0 c0.229,0.412,0.57,1.027,0.787,1.422c-0.217,0.393-0.559,1.008-0.787,1.418c-0.759,0-7.152,0-7.152,0l0.146,0.859 c0.963,5.693,4.766,6.352,7.539,6.352c2.188,0,4.139-1.834,5.704-3.311c0.847-0.799,1.646-1.549,2.067-1.549h19.58l0.219-0.24 c0.421-0.463,1.396-1.727,1.419-3.5V42.26c-0.021-1.773-0.998-3.037-1.419-3.498l-0.219-0.24h-19.58 c-0.422,0-1.222-0.752-2.065-1.547C17.664,35.496,15.713,33.66,13.525,33.66z"/>
<linearGradient id="_52" gradientUnits="userSpaceOnUse" x1="12.19" y1="29.03" x2="33.3" y2="54.43">
<stop stop-color="#E6EDF3" offset="0"/>
<stop stop-color="#CABAD7" offset="0.12"/>
<stop stop-color="#AB7EB8" offset="0.27"/>
<stop stop-color="#9759A4" offset="0.38"/>
<stop stop-color="#8F4B9C" offset="0.44"/>
<stop stop-color="#73357C" offset="0.57"/>
<stop stop-color="#551D5A" offset="0.72"/>
<stop stop-color="#430E45" offset="0.85"/>
<stop stop-color="#3C093D" offset="0.94"/>
</linearGradient>
<path fill="url(#_52)" d="M41.782,42.293c0-0.008,0.002-0.018,0.002-0.023H41.78c-0.019-1.543-0.903-2.656-1.229-3.012 c-0.412,0-19.254,0-19.254,0c-0.717,0-1.492-0.734-2.574-1.748c-1.471-1.387-3.301-3.111-5.197-3.111 c-3.079,0-5.995,0.904-6.813,5.738c1.158,0,6.713,0,6.713,0l1.195,2.156l-1.195,2.154c0,0-5.555,0-6.713,0 c0.816,4.834,3.732,5.738,6.813,5.738c1.896,0,3.729-1.725,5.197-3.111c1.082-1.014,1.857-1.748,2.574-1.748c0,0,18.842,0,19.254,0 c0.326-0.354,1.211-1.469,1.229-3.012h0.004C41.784,42.307,41.782,42.301,41.782,42.293z"/>
</svg>