<?xml version="1.0" encoding="UTF-8"?>
<!DOCTYPE svg PUBLIC "-//W3C//DTD SVG 1.1 Tiny//EN" "http://www.w3.org/Graphics/SVG/1.1/DTD/svg11-tiny.dtd">
<svg width="12" height="200" viewBox="-0.5 -0.03 12 200">
<path fill-opacity="0.7" fill="#003184" d="M-0.5,35.431v129c0,2.91,2.804,5.539,6,5.539s6-2.629,6-5.539v-129 c0-1.461-0.681-2.852-1.915-3.912C8.439,30.534,6.951,29.97,5.5,29.97C2.304,29.97-0.5,32.521-0.5,35.431z"/>
<linearGradient id="_3" gradientUnits="userSpaceOnUse" x1="5.5" y1="30.97" x2="5.5" y2="168.97">
<stop stop-color="#E4E6EF" offset="0"/>
<stop stop-color="#BA4C96" offset="1"/>
</linearGradient>
<path fill="url(#_3)" d="M5.5,168.97c-2.484,0-5-2.076-5-4.539v-129c0-2.463,2.516-4.461,5-4.461l0,0 c2.487,0,5,1.998,5,4.461v129C10.5,166.894,7.987,168.97,5.5,168.97L5.5,168.97z"/>
<linearGradient id="_4" gradientUnits="userSpaceOnUse" x1="5.5" y1="30.97" x2="5.5" y2="99.89">
<stop stop-color="#FFFFFF" offset="0"/>
<stop stop-color="#CEDFF2" offset="1"/>
</linearGradient>
<path fill="url(#_4)" d="M5.5,30.97c-2.484,0-5,1.998-5,4.461v64.463h1V35.845c0-1.916,2.067-3.422,4-3.422 c1.935,0,4,1.506,4,3.422v64.049h1V35.431C10.5,32.968,7.987,30.97,5.5,30.97z"/>
<path fill="#CADCEC" d="M9.5,164.423c0,1.916-2.065,3.547-4,3.547c-1.933,0-4-1.631-4-3.547V99.894h-1v64.537 c0,2.463,2.516,4.539,5,4.539c2.487,0,5-2.076,5-4.539V99.894h-1V164.423z"/>
</svg>