<?xml version="1.0" encoding="UTF-8"?>
<!DOCTYPE svg PUBLIC "-//W3C//DTD SVG 1.1 Tiny//EN" "http://www.w3.org/Graphics/SVG/1.1/DTD/svg11-tiny.dtd">
<svg width="84" height="58" viewBox="-0.632 -0.701 84 58">
<g fill-opacity="0.8" stroke-opacity="0.8">
<linearGradient id="_11" gradientUnits="userSpaceOnUse" x1="34.55" y1="5.47" x2="14.88" y2="34.29">
<stop stop-color="#A2C2DD" offset="0.1"/>
<stop stop-color="#6C83BB" offset="0.71"/>
<stop stop-color="#003D6D" offset="0.99"/>
</linearGradient>
<path fill="url(#_11)" d="M27.094,8.416c-8.629,3.227-17.035,9.366-17.035,15.963 c0.215,4.914,3.531,10.465,8.252,12.719l-0.48-3.623c0,0-0.723-0.627-0.809-0.884c-0.188-0.76-0.285-1.485-0.285-2.174 c0-5.745,6.098-9.069,11.15-11.157c0.01,0.182,0.051,0.971,0.051,0.971L45.604,8.998L26.788,3.429 C26.788,3.429,27.067,7.968,27.094,8.416z"/>
<linearGradient id="_12" gradientUnits="userSpaceOnUse" x1="15.63" y1="41.25" x2="24.08" y2="16.19">
<stop stop-color="#FFFFFF" offset="0"/>
<stop stop-color="#A2C2DD" offset="0.35"/>
<stop stop-color="#6C83BB" offset="0.7"/>
<stop stop-color="#003D6D" offset="1"/>
</linearGradient>
<path fill="url(#_12)" d="M17.178,34.243c-3.744-9.36,6.648-13.8,12.1-15.925 c-0.684-1.657-0.453-1.881-1.139-3.539C15.969,19.521,11.467,26.451,17.178,34.243"/>
<path fill="#496DA2" d="M17.508,33.687c-4.707-2.646-7.328-6.672-7.021-9.78 c-0.262,4.508,3.186,10.516,7.393,12.587L17.508,33.687z"/>
<linearGradient id="_13" gradientUnits="userSpaceOnUse" x1="34.56" y1="-4.32" x2="25.77" y2="21.4">
<stop stop-color="#FFFFFF" offset="0.05"/>
<stop stop-color="#A2C2DD" offset="1"/>
</linearGradient>
<path fill="url(#_13)" d="M17.508,33.687C2.96,25.431,13.01,13.949,27.46,8.644l-0.291-4.737 l17.6,5.209l-16.51,10.499l-0.242-4.602C16.969,19.32,10.856,26.746,17.508,33.687z"/>
<linearGradient id="_14" gradientUnits="userSpaceOnUse" x1="43.68" y1="8.45" x2="56.4" y2="34.83">
<stop stop-color="#FFFFFF" offset="0"/>
<stop stop-color="#A2C2DD" offset="0.35"/>
<stop stop-color="#6C83BB" offset="0.7"/>
<stop stop-color="#003D6D" offset="1"/>
</linearGradient>
<path fill="url(#_14)" d="M33.288,10.435l4.541-2.408c-0.029,0.019,5.494-2.223,10.221-0.994 c4.566,1.189,7.303,3.673,9.93,7.732c2.629,4.055,3.246,11.162,1.51,14.947c-1.738,3.786-3.346,5.118-4.619,6.318L33.288,10.435z"/>
<radialGradient id="_15" gradientUnits="userSpaceOnUse" cx="33.08" cy="13.58" r="22.73">
<stop stop-color="#FFFFFF" offset="0.05"/>
<stop stop-color="#A2C2DD" offset="1"/>
</radialGradient>
<path fill="url(#_15)" d="M56.337,26.089c0.451,9.103-6.098,16.179-14.625,15.812 c-8.535-0.366-15.818-8.057-16.27-17.162c-0.453-9.1,6.096-16.182,14.627-15.814C48.604,9.299,55.885,16.988,56.337,26.089z"/>
<linearGradient id="_16" gradientUnits="userSpaceOnUse" x1="32.6" y1="5.02" x2="44.78" y2="33.91">
<stop stop-color="#FFFFFF" offset="0"/>
<stop stop-color="#A2C2DD" offset="0.35"/>
<stop stop-color="#6C83BB" offset="0.7"/>
<stop stop-color="#003D6D" offset="1"/>
</linearGradient>
<path fill="url(#_16)" d="M50.629,20.216l-11.484-9.805l-0.004,2.292 c0,0-0.01,6.183-0.016,9.392l-5.984-5.037l-1.375,1.734c0,0,2.93,2.428,6.588,5.549c-3.658,2.104-7.395,4.359-7.395,4.359 l1.377,2.121l6.789-4.012c0.006,3.717,0.02,11.682,0.02,11.682l11.484-6.576l-8.197-7L50.629,20.216z M41.504,15.334 c1.766,1.508,3.668,3.132,5.047,4.311c-0.754,0.432-2.664,1.525-5.059,2.898C41.497,20.314,41.503,17.601,41.504,15.334z M41.504,34.236c-0.002-2.271-0.008-4.983-0.012-7.209c2.396,2.043,4.307,3.672,5.059,4.316 C45.172,32.138,43.268,33.222,41.504,34.236z"/>
<linearGradient id="_17" gradientUnits="userSpaceOnUse" x1="54.96" y1="35.53" x2="62.35" y2="50.08">
<stop stop-color="#A2C2DD" offset="0.1"/>
<stop stop-color="#6C83BB" offset="0.71"/>
<stop stop-color="#003D6D" offset="0.99"/>
</linearGradient>
<path fill="url(#_17)" d="M60.198,14.549c-0.096,0.239,0.227,0.463,0.227,0.463 c4.404,2.811,7.193,6.906,6.557,10.752c-0.598,4.594-5.178,8.877-11.973,11.271c-0.039-0.771-0.246-4.722-0.246-4.722 L37.542,43.365l0.428,3.71l18.586,5.839l-0.076-3.952c0,0-0.035-0.178-0.068-0.353c2.115-0.857,16.266-7.051,16.266-19.207 c0-6.525-2.871-11.621-11.939-15.012C60.739,14.39,60.327,14.228,60.198,14.549z M72.407,26.47l-0.004-0.033 C72.403,26.441,72.407,26.463,72.407,26.47z"/>
<linearGradient id="_18" gradientUnits="userSpaceOnUse" x1="74.72" y1="28.93" x2="42.02" y2="51.2">
<stop stop-color="#FFFFFF" offset="0"/>
<stop stop-color="#A2C2DD" offset="0.35"/>
<stop stop-color="#6C83BB" offset="0.7"/>
<stop stop-color="#003D6D" offset="1"/>
</linearGradient>
<path fill="url(#_18)" d="M71.29,23.609c0,0-16.184,20.425-16.186,20.425 c0.002,0,0.82,4.389,0.82,4.389C56.399,48.287,77.135,40.199,71.29,23.609z"/>
<linearGradient id="_19" gradientUnits="userSpaceOnUse" x1="41.7" y1="37.99" x2="54.51" y2="61.01">
<stop stop-color="#FFFFFF" offset="0"/>
<stop stop-color="#A2C2DD" offset="0.35"/>
<stop stop-color="#6C83BB" offset="0.7"/>
<stop stop-color="#003D6D" offset="1"/>
</linearGradient>
<polygon fill="url(#_19)" points="56.129,48.968 56.196,52.433 38.292,46.808 37.913,43.542 "/>
<linearGradient id="_20" gradientUnits="userSpaceOnUse" x1="48.78" y1="54.45" x2="56.57" y2="31.9">
<stop stop-color="#FFFFFF" offset="0.05"/>
<stop stop-color="#A2C2DD" offset="1"/>
</linearGradient>
<path fill="url(#_20)" d="M60.616,14.718c20.027,7.487,11.043,25.285-5.373,29.829l0.887,4.421 l-18.217-5.427l16.531-10.608l0.24,4.602C67.337,33.292,72.706,22.673,60.616,14.718z"/>
<path fill-opacity="0.4" fill="#FFFFFF" d="M72.676,29.402c0-6.525-2.871-11.621-11.939-15.012 c0,0-0.412-0.162-0.539,0.158c-0.096,0.239,0.225,0.463,0.225,0.463c4.404,2.811,7.193,6.906,6.559,10.752 c-0.598,4.594-5.178,8.877-11.973,11.271c-0.012-0.195-0.031-0.595-0.059-1.08c1.262-1.183,2.834-2.535,4.537-6.241 c1.736-3.785,1.119-10.893-1.51-14.947c-2.627-4.06-5.363-6.543-9.93-7.732c-2.857-0.743-5.996-0.219-8.035,0.311L26.788,3.429 c0,0,0.279,4.539,0.307,4.986c-8.629,3.227-17.035,9.366-17.035,15.963c0.215,4.914,3.531,10.465,8.252,12.719l-0.48-3.623 c0,0-0.723-0.627-0.809-0.884c-0.188-0.76-0.285-1.485-0.285-2.174c0-4.981,4.584-8.142,9.098-10.255 c-0.326,1.445-0.475,2.977-0.395,4.576c0.422,8.518,6.824,15.795,14.637,16.998l-2.537,1.627l0.428,3.711l18.586,5.839 l-0.076-3.952c0,0-0.033-0.178-0.066-0.352C58.526,47.752,72.676,41.558,72.676,29.402z"/>
</g>
</svg>