<?xml version="1.0" encoding="UTF-8" standalone="no"?>
<!DOCTYPE svg PUBLIC "-//W3C//DTD SVG 1.1 Tiny//EN" "http://www.w3.org/Graphics/SVG/1.1/DTD/svg11-tiny.dtd">
<svg xmlns="http://www.w3.org/2000/svg" xmlns:xlink="http://www.w3.org/1999/xlink" width="42" height="29" viewBox="0.019 -0.113 42 29">
<rect fill="none" height="29" width="42" x="0.019" y="-0.113"/>
<linearGradient id="SVGID_1" gradientUnits="userSpaceOnUse" x1="3.34" y1="2.58" x2="33.6" y2="19.34">
<stop stop-color="#FFFFFF" offset="0"/>
<stop stop-color="#E4EDF5" offset="0.08"/>
<stop stop-color="#B4CEE4" offset="0.24"/>
<stop stop-color="#A2C2DD" offset="0.31"/>
<stop stop-color="#8EABD1" offset="0.45"/>
<stop stop-color="#6C83BB" offset="0.66"/>
<stop stop-color="#637DB5" offset="0.7"/>
<stop stop-color="#4C6EA4" offset="0.78"/>
<stop stop-color="#265689" offset="0.87"/>
<stop stop-color="#003D6D" offset="0.95"/>
</linearGradient>
<polygon fill="url(#SVGID_1)" points="29.071,15.842 29.092,15.292 28.471,15.105 29.063,14.639 29.254,10.721 28.653,10.551 29.254,10.096 29.44,6.202 25.826,5.279 25.277,5.629 25.3,5.089 21.628,4.219 20.985,4.605 21.001,4.055 17.655,3.211 15.382,4.287 15.456,8.061 16.122,8.254 15.464,8.627 15.541,12.4 16.203,12.608 15.551,12.972 15.626,16.743 19.106,17.926 19.747,17.413 19.749,18.041 20.444,18.285 19.753,18.67 19.764,22.507 23.134,23.783 24.594,22.448 24.599,24.263 30.185,26.377 33.688,23.24 33.794,17.477 "/>
<linearGradient id="SVGID_2" gradientUnits="userSpaceOnUse" x1="21.19" y1="4.14" x2="27.27" y2="26.55">
<stop stop-color="#AABBD7" offset="0"/>
<stop stop-color="#92A5CC" offset="0.26"/>
<stop stop-color="#6C83BB" offset="0.71"/>
<stop stop-color="#637DB5" offset="0.76"/>
<stop stop-color="#4C6EA4" offset="0.83"/>
<stop stop-color="#265689" offset="0.91"/>
<stop stop-color="#003D6D" offset="0.99"/>
</linearGradient>
<path d="M30.095,26.609l-5.586-2.113c-0.097-0.037-0.159-0.129-0.159-0.232l0,0l-0.005-1.252l-1.043,0.954 c-0.07,0.065-0.168,0.083-0.257,0.051l0,0l-3.371-1.276c-0.095-0.038-0.16-0.129-0.16-0.232l0,0l-0.01-3.838 c-0.002-0.092,0.048-0.176,0.128-0.219l0,0l0.205-0.115l-0.172-0.061c-0.099-0.035-0.166-0.13-0.166-0.234l0,0l-0.002-0.109 l-0.236,0.188c-0.066,0.055-0.155,0.07-0.234,0.043l0,0l-3.48-1.184c-0.1-0.034-0.168-0.127-0.17-0.23l0,0l-0.074-3.771 c-0.002-0.094,0.046-0.178,0.127-0.225l0,0l0.146-0.081l-0.108-0.032c-0.102-0.034-0.173-0.127-0.175-0.234l0,0l-0.077-3.771 c-0.002-0.094,0.047-0.178,0.126-0.225l0,0l0.144-0.081l-0.098-0.026c-0.104-0.032-0.178-0.125-0.18-0.234l0,0l-0.074-3.773 c-0.002-0.1,0.055-0.19,0.143-0.232l0,0l2.271-1.075l0.17-0.018l3.348,0.845c0.113,0.029,0.191,0.131,0.188,0.25l0,0l-0.004,0.092 l0.251-0.15l0.187-0.029l3.674,0.87c0.115,0.028,0.196,0.134,0.19,0.255l0,0L25.546,5.16l0.145-0.092l0.197-0.031l3.615,0.922 c0.113,0.028,0.191,0.135,0.188,0.255l0,0l-0.188,3.894l-0.098,0.188l-0.2,0.151l0.117,0.032c0.111,0.033,0.187,0.138,0.181,0.253 l0,0l-0.19,3.917l-0.095,0.187l-0.215,0.168l0.16,0.048c0.109,0.033,0.182,0.137,0.178,0.25l0,0l-0.014,0.365l4.547,1.574 c0.104,0.033,0.17,0.133,0.17,0.24l0,0l-0.106,5.764l-0.083,0.182l-3.505,3.137c-0.046,0.042-0.104,0.064-0.165,0.064l0,0 C30.155,26.627,30.124,26.621,30.095,26.609L30.095,26.609z" fill="url(#SVGID_2)"/>
<linearGradient id="SVGID_3" gradientUnits="userSpaceOnUse" x1="34.82" y1="5.97" x2="25.8" y2="18.56">
<stop stop-color="#FFFFFF" offset="0"/>
<stop stop-color="#A2C2DD" offset="0.35"/>
<stop stop-color="#6C83BB" offset="0.7"/>
<stop stop-color="#003D6D" offset="1"/>
</linearGradient>
<polygon fill="url(#SVGID_3)" points="23.19,19.879 24.956,18.697 24.892,22.176 23.134,23.783 "/>
<linearGradient id="SVGID_4" gradientUnits="userSpaceOnUse" x1="13.53" y1="12.45" x2="20.91" y2="17.66">
<stop stop-color="#FFFFFF" offset="0.05"/>
<stop stop-color="#A2C2DD" offset="1"/>
</linearGradient>
<polygon fill="url(#SVGID_4)" points="19.753,18.67 21.72,17.578 24.956,18.697 23.19,19.879 "/>
<linearGradient id="SVGID_5" gradientUnits="userSpaceOnUse" x1="32.59" y1="13.83" x2="18.14" y2="23.42">
<stop stop-color="#FFFFFF" offset="0.05"/>
<stop stop-color="#A2C2DD" offset="1"/>
</linearGradient>
<polygon fill="url(#SVGID_5)" points="23.19,19.879 23.134,23.783 19.764,22.507 19.753,18.67 "/>
<polygon fill="url(#SVGID_3)" points="19.095,14.089 20.885,12.891 20.862,16.521 19.106,17.926 "/>
<polygon fill="url(#SVGID_4)" points="15.551,12.972 17.55,11.858 20.885,12.891 19.095,14.089 "/>
<polygon fill="url(#SVGID_5)" points="19.095,14.089 19.106,17.926 15.626,16.743 15.551,12.972 "/>
<polygon fill="url(#SVGID_3)" points="23.245,15.346 25.047,14.129 24.961,17.821 23.187,19.252 "/>
<polygon fill="url(#SVGID_4)" points="19.739,14.203 21.747,13.072 25.047,14.129 23.245,15.346 "/>
<polygon fill="url(#SVGID_5)" points="23.245,15.346 23.187,19.252 19.749,18.041 19.739,14.203 "/>
<polygon fill="url(#SVGID_3)" points="27.278,16.628 29.092,15.292 28.956,19.047 27.15,20.6 "/>
<polygon fill="url(#SVGID_4)" points="23.817,15.462 25.835,14.315 29.092,15.292 27.278,16.628 "/>
<polygon fill="url(#SVGID_5)" points="27.278,16.628 27.15,20.6 23.759,19.367 23.817,15.462 "/>
<polygon fill="url(#SVGID_3)" points="19.075,9.677 20.901,8.444 20.877,12.075 19.085,13.516 "/>
<polygon fill="url(#SVGID_4)" points="15.464,8.627 17.501,7.475 20.901,8.444 19.075,9.677 "/>
<polygon fill="url(#SVGID_5)" points="19.075,9.677 19.085,13.516 15.541,12.4 15.464,8.627 "/>
<polygon fill="url(#SVGID_3)" points="23.302,10.859 25.14,9.608 25.051,13.303 23.243,14.766 "/>
<polygon fill="url(#SVGID_4)" points="19.728,9.785 21.774,8.615 25.14,9.608 23.302,10.859 "/>
<polygon fill="url(#SVGID_5)" points="23.302,10.859 23.243,14.766 19.737,13.623 19.728,9.785 "/>
<polygon fill="url(#SVGID_3)" points="27.415,12.066 29.254,10.721 29.063,14.639 27.286,16.039 "/>
<polygon fill="url(#SVGID_4)" points="23.882,10.967 25.939,9.781 29.254,10.721 27.415,12.066 "/>
<polygon fill="url(#SVGID_5)" points="27.415,12.066 27.286,16.039 23.823,14.873 23.882,10.967 "/>
<polygon fill="url(#SVGID_3)" points="19.058,5.271 21.001,4.055 20.894,7.635 19.067,9.111 "/>
<polygon fill="url(#SVGID_4)" points="15.382,4.287 17.655,3.211 21.001,4.055 19.058,5.271 "/>
<polygon fill="url(#SVGID_5)" points="19.058,5.271 19.067,9.111 15.456,8.061 15.382,4.287 "/>
<polygon fill="url(#SVGID_3)" points="23.359,6.378 25.3,5.089 25.144,8.787 23.299,10.285 "/>
<polygon fill="url(#SVGID_4)" points="19.718,5.369 21.628,4.219 25.3,5.089 23.359,6.378 "/>
<polygon fill="url(#SVGID_5)" points="23.359,6.378 23.299,10.285 19.726,9.21 19.718,5.369 "/>
<polygon fill="url(#SVGID_3)" points="27.552,7.508 29.44,6.202 29.254,10.096 27.421,11.484 "/>
<polygon fill="url(#SVGID_4)" points="23.948,6.476 25.826,5.279 29.44,6.202 27.552,7.508 "/>
<polygon fill="url(#SVGID_5)" points="27.552,7.508 27.421,11.484 23.89,10.385 23.948,6.476 "/>
<polygon fill="#17594C" points="30.277,19.907 33.794,17.477 33.688,23.24 30.185,26.377 "/>
<linearGradient id="SVGID_33" gradientUnits="userSpaceOnUse" x1="21.3" y1="18.66" x2="34.06" y2="17.24">
<stop stop-color="#FFFFFF" offset="0"/>
<stop stop-color="#F7FAF6" offset="0.04"/>
<stop stop-color="#DDEBDB" offset="0.18"/>
<stop stop-color="#CDE1CB" offset="0.3"/>
<stop stop-color="#C8DEC5" offset="0.4"/>
<stop stop-color="#58A015" offset="1"/>
</linearGradient>
<polygon fill="url(#SVGID_33)" points="24.581,17.902 28.431,15.621 33.794,17.477 30.277,19.907 "/>
<polygon fill="#58A015" points="30.277,19.907 30.185,26.377 24.599,24.263 24.581,17.902 "/>
<linearGradient id="SVGID_34" gradientUnits="userSpaceOnUse" x1="23.49" y1="26.91" x2="29.54" y2="23.74">
<stop stop-color="#C8DEC5" offset="0"/>
<stop stop-color="#58A015" offset="1"/>
</linearGradient>
<polygon fill="url(#SVGID_34)" points="28.69,21.281 30.161,26.313 24.628,24.247 "/>
<linearGradient id="SVGID_35" gradientUnits="userSpaceOnUse" x1="36.51" y1="26.31" x2="29.84" y2="23.78">
<stop stop-color="#E6EEF4" offset="0"/>
<stop stop-color="#C6DCC1" offset="0.08"/>
<stop stop-color="#91C06F" offset="0.21"/>
<stop stop-color="#6BAB33" offset="0.32"/>
<stop stop-color="#539E0E" offset="0.4"/>
<stop stop-color="#4A9900" offset="0.44"/>
<stop stop-color="#418E0D" offset="0.51"/>
<stop stop-color="#2A712F" offset="0.69"/>
<stop stop-color="#1C5F44" offset="0.84"/>
<stop stop-color="#17594C" offset="0.94"/>
</linearGradient>
<polygon fill="url(#SVGID_35)" points="30.321,21.715 30.274,26.189 33.554,23.214 "/>
<path d="M6.63,17.088c-1.439,0-3.412,0.342-3.912,3.295L2.644,20.83c0,0,3.317,0,3.711,0 c0.117,0.213,0.296,0.533,0.408,0.738c-0.113,0.203-0.291,0.523-0.408,0.736c-0.394,0-3.711,0-3.711,0l0.074,0.445 c0.5,2.955,2.473,3.295,3.912,3.295c1.135,0,2.146-0.949,2.959-1.717c0.439-0.414,0.854-0.805,1.073-0.805h10.159l0.112-0.125 c0.22-0.238,0.725-0.895,0.735-1.814v-0.031c-0.01-0.922-0.516-1.576-0.735-1.816l-0.112-0.125H10.662 c-0.22,0-0.634-0.389-1.072-0.803C8.776,18.041,7.765,17.088,6.63,17.088z" fill="#FFFFFF"/>
<linearGradient id="SVGID_36" gradientUnits="userSpaceOnUse" x1="5.93" y1="14.69" x2="16.89" y2="27.86">
<stop stop-color="#E6EDF3" offset="0"/>
<stop stop-color="#CABAD7" offset="0.12"/>
<stop stop-color="#AB7EB8" offset="0.27"/>
<stop stop-color="#9759A4" offset="0.38"/>
<stop stop-color="#8F4B9C" offset="0.44"/>
<stop stop-color="#73357C" offset="0.57"/>
<stop stop-color="#551D5A" offset="0.72"/>
<stop stop-color="#430E45" offset="0.85"/>
<stop stop-color="#3C093D" offset="0.94"/>
</linearGradient>
<path d="M21.289,21.566c0-0.004,0.002-0.008,0.002-0.01h-0.003c-0.01-0.803-0.468-1.381-0.635-1.564 c-0.215,0-9.99,0-9.99,0c-0.372,0-0.776-0.381-1.337-0.906c-0.761-0.719-1.713-1.615-2.697-1.615c-1.598,0-3.11,0.469-3.534,2.977 c0.601,0,3.483,0,3.483,0l0.619,1.119l-0.619,1.119c0,0-2.883,0-3.483,0c0.425,2.508,1.937,2.977,3.534,2.977 c0.984,0,1.935-0.895,2.697-1.613c0.561-0.527,0.965-0.908,1.337-0.908c0,0,9.775,0,9.99,0c0.168-0.184,0.627-0.762,0.635-1.563 h0.003C21.291,21.574,21.289,21.57,21.289,21.566z" fill="url(#SVGID_36)"/>
</svg>