<?xml version="1.0" encoding="UTF-8"?>
<!DOCTYPE svg PUBLIC "-//W3C//DTD SVG 1.1 Tiny//EN" "http://www.w3.org/Graphics/SVG/1.1/DTD/svg11-tiny.dtd">
<svg width="100%" height="100%" viewBox="-0.123 -0.389 88 88">
<linearGradient id="_30" gradientUnits="userSpaceOnUse" x1="43.41" y1="53.2" x2="39.62" y2="68.59">
<stop stop-color="#A2C2DD" offset="0.1"/>
<stop stop-color="#6C83BB" offset="0.71"/>
<stop stop-color="#003D6D" offset="0.99"/>
</linearGradient>
<path fill="url(#_30)" d="M21.18,28.364c-4.598,3.454-8.379,5.734-13.896,8.229c0,0,1.846,2.054,4.012,3.793l-6.334,7.698 l1.141,4.088L51.221,73.03l6.223-10.785l0.781,6.541c3.771,3.282,10.18,6.363,15.172,6.24c0,0,2.563-1.192,4.639-3.654 l0.229-1.063l1.467-1.242c1.896-8.242,3.559-25.541,2.604-32.167c0,0-2.02-2.167-5.037-3.24l0.846-5.696 c0-0.25-0.104-0.571-0.412-0.873l0.227-0.395l0.057-4.501c0,0-16.555-4.276-17.211-4.447c-0.156-0.387-0.576-1.425-0.576-1.425 L48.91,13.677c0,0-0.895,0.509-1.207,0.687c-0.525-0.135-12.375-3.196-12.375-3.196L21.18,28.364z"/>
<linearGradient id="_31" gradientUnits="userSpaceOnUse" x1="53.29" y1="82.17" x2="32.3" y2="-1.05">
<stop stop-color="#FFFFFF" offset="0.15"/>
<stop stop-color="#A2C2DD" offset="1"/>
</linearGradient>
<polygon fill="url(#_31)" points="35.58,11.958 77.303,22.736 50.5,67.859 5.729,48.254 "/>
<polygon fill="#FFFFFF" points="36.693,13.189 72.801,23.073 49.098,62.497 10.154,46.393 "/>
<linearGradient id="_32" gradientUnits="userSpaceOnUse" x1="58.36" y1="41.32" x2="65.64" y2="46.98">
<stop stop-color="#DEE9F3" offset="0"/>
<stop stop-color="#235487" offset="1"/>
</linearGradient>
<polygon fill="url(#_32)" points="72.977,22.722 49.098,62.034 49.332,64.26 73.076,25.271 "/>
<linearGradient id="_33" gradientUnits="userSpaceOnUse" x1="60.25" y1="44.42" x2="70.35" y2="52.27">
<stop stop-color="#DEE9F3" offset="0"/>
<stop stop-color="#235487" offset="1"/>
</linearGradient>
<polygon fill="url(#_33)" points="77.32,22.73 50.531,67.854 50.934,72.127 77.256,26.507 "/>
<linearGradient id="_34" gradientUnits="userSpaceOnUse" x1="30.72" y1="53.28" x2="29.23" y2="56.7">
<stop stop-color="#FFFFFF" offset="0"/>
<stop stop-color="#496DA2" offset="0.71"/>
<stop stop-color="#235487" offset="0.99"/>
</linearGradient>
<polygon fill="url(#_34)" points="49.098,62.034 10.307,46.424 10.645,47.702 49.332,64.26 "/>
<linearGradient id="_35" gradientUnits="userSpaceOnUse" x1="29.53" y1="57.41" x2="27.03" y2="63.11">
<stop stop-color="#FFFFFF" offset="0"/>
<stop stop-color="#496DA2" offset="0.71"/>
<stop stop-color="#235487" offset="0.99"/>
</linearGradient>
<polygon fill="url(#_35)" points="50.531,67.854 5.715,48.188 6.688,51.672 50.934,72.127 "/>
<linearGradient id="_36" gradientUnits="userSpaceOnUse" x1="35.75" y1="48.92" x2="7.25" y2="-2.58">
<stop stop-color="#D6E6EC" offset="0"/>
<stop stop-color="#298595" offset="1"/>
</linearGradient>
<path fill="url(#_36)" d="M36.531,13.105c0,0-8.9,14.995-28.08,23.725c5.654,6.148,17.949,12.787,35.326,18.936 L36.531,13.105z"/>
<linearGradient id="_37" gradientUnits="userSpaceOnUse" x1="24.72" y1="44.54" x2="68.72" y2="16.04">
<stop stop-color="#D6E6EC" offset="0"/>
<stop stop-color="#298595" offset="1"/>
</linearGradient>
<path fill="url(#_37)" d="M36.531,13.105l36.443,9.616c-9.326,15.438-22.598,30.585-29.359,33.044 c-11.768-4.164-23.813-9.656-29.674-14.142L36.531,13.105z"/>
<polygon fill="#003D6D" points="62.83,20.374 61,20.111 59.709,16.923 41.732,17.271 41.896,18.259 62.133,24.265 62.994,21.718 "/>
<polygon fill="#115B7E" points="62.83,20.374 61.824,22.86 41.732,17.271 43.83,15.313 47.133,15.49 49.014,14.423 59.709,16.923 59.855,19.093 "/>
<linearGradient id="_38" gradientUnits="userSpaceOnUse" x1="69.82" y1="27.81" x2="81.63" y2="44.64">
<stop stop-color="#A2C2DD" offset="0.1"/>
<stop stop-color="#6C83BB" offset="0.71"/>
<stop stop-color="#003D6D" offset="0.99"/>
</linearGradient>
<path fill="url(#_38)" d="M68.189,32.964c3.58-0.129,9.609,0.379,13.5,4.289l-2.301,1.063L68.189,32.964z"/>
<linearGradient id="_39" gradientUnits="userSpaceOnUse" x1="76.42" y1="29.43" x2="80.6" y2="62.36">
<stop stop-color="#FFFFFF" offset="0"/>
<stop stop-color="#A2C2DD" offset="0.35"/>
<stop stop-color="#6C83BB" offset="0.7"/>
<stop stop-color="#003D6D" offset="1"/>
</linearGradient>
<path fill="url(#_39)" d="M79.77,38.112l-2.43,32.209l1.854-1.567c1.451-6.396,3.426-22.173,2.488-31.55L79.77,38.112z"/>
<linearGradient id="_40" gradientUnits="userSpaceOnUse" x1="62.88" y1="40.82" x2="73.69" y2="32.12">
<stop stop-color="#FFFFFF" offset="0.15"/>
<stop stop-color="#A2C2DD" offset="1"/>
</linearGradient>
<path fill="url(#_40)" d="M57.016,35.085c6.816-2.44,16.258-3.929,23.031,2.37l-5.521,2.628L57.016,35.085z"/>
<linearGradient id="_41" gradientUnits="userSpaceOnUse" x1="76.53" y1="31.7" x2="77.05" y2="83.35">
<stop stop-color="#FFFFFF" offset="0"/>
<stop stop-color="#A2C2DD" offset="0.35"/>
<stop stop-color="#6C83BB" offset="0.7"/>
<stop stop-color="#003D6D" offset="1"/>
</linearGradient>
<path fill="url(#_41)" d="M74.525,40.083L73.301,74.42c2.586-1.191,4.229-3.396,4.229-3.396 c1.529-6.746,3.506-23.679,2.518-33.57L74.525,40.083z"/>
<linearGradient id="_42" gradientUnits="userSpaceOnUse" x1="71.33" y1="35.02" x2="78.85" y2="38.3">
<stop stop-color="#FFFFFF" offset="0"/>
<stop stop-color="#A2C2DD" offset="0.35"/>
<stop stop-color="#6C83BB" offset="0.7"/>
<stop stop-color="#003D6D" offset="1"/>
</linearGradient>
<path fill="url(#_42)" d="M77.004,36.314c0.279,1.739-4.445,2.005-4.408,0.097 C72.623,35.097,76.797,35.021,77.004,36.314z"/>
<linearGradient id="_43" gradientUnits="userSpaceOnUse" x1="72.87" y1="32.34" x2="78.56" y2="32.73">
<stop stop-color="#E6EEF4" offset="0"/>
<stop stop-color="#337CE5" offset="0.44"/>
<stop stop-color="#003D6D" offset="0.94"/>
</linearGradient>
<path fill="url(#_43)" d="M73.105,27.71c0,0,0.287,8.834,0.285,8.855c0.684,0.755,2.303,0.697,2.785,0.018l1.227-8.443 L73.105,27.71z"/>
<linearGradient id="_44" gradientUnits="userSpaceOnUse" x1="75.51" y1="33.56" x2="61.36" y2="62.54">
<stop stop-color="#FFFFFF" offset="0.05"/>
<stop stop-color="#A2C2DD" offset="1"/>
</linearGradient>
<path fill="url(#_44)" d="M57.016,35.085c3.791-1.238,11.822-0.207,17.51,5c0.666,9.333,0.127,25.542-1.225,34.335 c-4.586,0.113-11.063-2.969-14.479-5.936C57.697,60.637,56.305,44.471,57.016,35.085z"/>
<linearGradient id="_45" gradientUnits="userSpaceOnUse" x1="78.38" y1="56.04" x2="56.32" y2="43.83">
<stop stop-color="#FFFFFF" offset="0.05"/>
<stop stop-color="#A2C2DD" offset="1"/>
</linearGradient>
<polygon fill="url(#_45)" points="58.904,37.349 59.488,57.141 72.16,61.809 72.582,41.278 "/>
<linearGradient id="_46" gradientUnits="userSpaceOnUse" x1="60.59" y1="71.87" x2="59.42" y2="25.89">
<stop stop-color="#FFFFFF" offset="0"/>
<stop stop-color="#A2C2DD" offset="0.35"/>
<stop stop-color="#6C83BB" offset="0.7"/>
<stop stop-color="#003D6D" offset="1"/>
</linearGradient>
<polygon fill="url(#_46)" points="60.906,56.282 60.537,37.815 58.904,37.349 59.488,57.141 "/>
<linearGradient id="_47" gradientUnits="userSpaceOnUse" x1="73.12" y1="65.53" x2="55.29" y2="48.7">
<stop stop-color="#FFFFFF" offset="0.15"/>
<stop stop-color="#A2C2DD" offset="1"/>
</linearGradient>
<polygon fill="url(#_47)" points="59.488,57.141 60.906,56.282 72.209,60.196 72.16,61.809 "/>
<linearGradient id="_48" gradientUnits="userSpaceOnUse" x1="73.67" y1="28.41" x2="77.12" y2="27.29">
<stop stop-color="#D6E4F3" offset="0"/>
<stop stop-color="#337CE5" offset="1"/>
</linearGradient>
<path fill="url(#_48)" d="M77.4,28.138c-0.404,1.146-4.705,0.636-4.258-0.508C73.6,26.501,77.787,26.984,77.4,28.138z"/>
<linearGradient id="_49" gradientUnits="userSpaceOnUse" x1="62.26" y1="54.03" x2="72" y2="70.23">
<stop stop-color="#E6EEF4" offset="0"/>
<stop stop-color="#337CE5" offset="0.44"/>
<stop stop-color="#003D6D" offset="0.94"/>
</linearGradient>
<polygon fill="url(#_49)" points="68.072,66.995 71.328,68.368 71.455,66.025 68.141,64.653 "/>
<polygon fill="url(#_49)" points="71.488,65.413 71.615,63.075 68.227,61.813 68.16,64.049 "/>
<polygon fill="url(#_49)" points="68.053,67.604 67.992,69.723 71.182,71.143 71.295,68.98 "/>
<polygon fill="url(#_49)" points="63.574,62.811 60.713,61.676 60.861,64.041 63.662,65.172 "/>
<polygon fill="url(#_49)" points="67.523,63.829 67.547,61.604 64.26,60.4 64.301,62.536 "/>
<polygon fill="url(#_49)" points="63.471,60.071 60.539,59.02 60.672,61.068 63.549,62.198 "/>
<polygon fill="url(#_49)" points="64.408,68.196 67.461,69.527 67.482,67.402 64.369,66.107 "/>
<polygon fill="url(#_49)" points="63.682,65.786 60.902,64.652 61.031,66.715 63.758,67.879 "/>
<polygon fill="url(#_49)" points="64.313,63.145 64.355,65.495 67.492,66.793 67.516,64.439 "/>
<polygon fill="url(#_49)" points="64.42,68.816 64.459,70.961 67.43,72.348 67.455,70.145 "/>
</svg>