<?xml version="1.0" encoding="UTF-8"?>
<!DOCTYPE svg PUBLIC "-//W3C//DTD SVG 1.1 Tiny//EN" "http://www.w3.org/Graphics/SVG/1.1/DTD/svg11-tiny.dtd">
<svg width="84" height="58" viewBox="0 0 84 58">
<linearGradient id="_15" gradientUnits="userSpaceOnUse" x1="46.91" y1="28.6" x2="56.76" y2="48">
<stop stop-color="#A2C2DD" offset="0.1"/>
<stop stop-color="#6C83BB" offset="0.71"/>
<stop stop-color="#003D6D" offset="0.99"/>
</linearGradient>
<path fill="url(#_15)" d="M24.19,18.996c-5.494,8.243-4.292,14.359-2.321,18.047c4.947,13.223,19.511,15.613,30.936,12.209 c11.403-3.4,22.284-13.266,19.223-26.893l0.015,0.09c-0.455-6.604-5.481-12.014-13.446-14.472 C48.294,4.8,33.663,6.977,24.19,18.996z M46.538,24.861c1.218-0.199,2.731-0.03,3.569,0.923c-0.09,0.286-0.193,0.573-0.404,0.867 c-0.936,1.219-2.417,1.88-4.057,1.798c-1.135-0.057-2.129-0.5-2.672-1.138C43.506,25.959,45.088,25.102,46.538,24.861z"/>
<linearGradient id="_16" gradientUnits="userSpaceOnUse" x1="75.34" y1="32.14" x2="24.4" y2="45.41">
<stop stop-color="#FFFFFF" offset="0"/>
<stop stop-color="#A2C2DD" offset="0.53"/>
<stop stop-color="#6C83BB" offset="0.87"/>
<stop stop-color="#003D6D" offset="1"/>
</linearGradient>
<path fill="url(#_16)" d="M22.159,36.1c8.855,26.131,55.124,12.262,49.272-13.606L22.159,36.1z"/>
<linearGradient id="_17" gradientUnits="userSpaceOnUse" x1="25.75" y1="62.48" x2="51.68" y2="17.38">
<stop stop-color="#FFFFFF" offset="0.1"/>
<stop stop-color="#D1E1EE" offset="0.7"/>
<stop stop-color="#A2C2DD" offset="1"/>
</linearGradient>
<path fill="url(#_17)" d="M67.634,34.523C47.702,58.345,8.527,43.377,24.713,19.398 C44.189-4.35,83.977,10.083,67.634,34.523z M42.475,24.58c-3.147,4.108,4.575,6.729,7.729,2.621 C53.378,23.057,45.654,20.437,42.475,24.58z"/>
<polygon fill-opacity="0.3" fill="#FFFFFF" points="70.016,28.847 50.453,26.779 49.04,28.25 62.751,39.511 "/>
<linearGradient id="_18" gradientUnits="userSpaceOnUse" x1="88.55" y1="40.98" x2="-6.8" y2="4.54">
<stop stop-color="#FFFFFF" offset="0.05"/>
<stop stop-color="#A2C2DD" offset="1"/>
</linearGradient>
<polygon fill-opacity="0.8" fill="url(#_18)" points="49.879,27.511 67.299,34.359 68.848,31.945 50.24,27.122 "/>
<linearGradient id="_19" gradientUnits="userSpaceOnUse" x1="24.86" y1="9.59" x2="61.78" y2="39.74">
<stop stop-color="#CADCEC" offset="0"/>
<stop stop-color="#87A8CB" offset="1"/>
</linearGradient>
<path fill="url(#_19)" d="M67.598,34.532c-19.132,23.507-59.3,9.456-42.922-15.126 C43.273-4.197,84.204,9.93,67.598,34.532z M26.188,19.877c-15.064,22.661,21.744,36.1,39.916,14.066 C81.302,10.846,43.807-1.984,26.188,19.877z"/>
<linearGradient id="_20" gradientUnits="userSpaceOnUse" x1="32.97" y1="66.11" x2="72.46" y2="-27.06">
<stop stop-color="#FFFFFF" offset="0"/>
<stop stop-color="#A2C2DD" offset="0.35"/>
<stop stop-color="#6C83BB" offset="0.7"/>
<stop stop-color="#003D6D" offset="1"/>
</linearGradient>
<polygon fill="url(#_20)" points="53.359,21.406 66.383,12.791 57.214,8.354 47.018,7.455 46.639,19.629 "/>
<linearGradient id="_21" gradientUnits="userSpaceOnUse" x1="17.92" y1="14.27" x2="107.38" y2="57.03">
<stop stop-color="#FFFFFF" offset="0.05"/>
<stop stop-color="#A2C2DD" offset="1"/>
</linearGradient>
<path fill-opacity="0.6" fill="url(#_21)" d="M43.275,23.762l-12.51-10.276 c-3.691,2.635-7.023,6.797-8.382,9.84l19.561,2.241L43.275,23.762z"/>
<polygon fill="url(#_20)" points="42.932,28.717 25.157,40.346 34.582,45.113 45.646,46.367 46.1,29.4 "/>
<path fill-opacity="0.5" fill="#DEE9F3" d="M42.072,24.482c-3.343,4.576,4.963,7.489,8.5,2.882 C53.926,22.76,45.582,19.914,42.072,24.482z M55.016,29.116c-7.732,9.146-23.846,3.304-17.106-6.423 C45.602,13.328,62.02,19.476,55.016,29.116z"/>
<linearGradient id="_23" gradientUnits="userSpaceOnUse" x1="40.91" y1="72.53" x2="62.3" y2="-12.14">
<stop stop-color="#FFFFFF" offset="0"/>
<stop stop-color="#A2C2DD" offset="0.35"/>
<stop stop-color="#6C83BB" offset="0.7"/>
<stop stop-color="#003D6D" offset="1"/>
</linearGradient>
<path fill="url(#_23)" d="M64.923,13.723l1.408-0.932C61.868,8.574,54.37,6.744,47.014,7.465l-0.043,1.303 C55.604,7.926,61.743,10.865,64.923,13.723z"/>
<linearGradient id="_24" gradientUnits="userSpaceOnUse" x1="28.03" y1="59.26" x2="44.82" y2="23.04">
<stop stop-color="#FFFFFF" offset="0"/>
<stop stop-color="#A2C2DD" offset="0.35"/>
<stop stop-color="#6C83BB" offset="0.7"/>
<stop stop-color="#003D6D" offset="1"/>
</linearGradient>
<path fill="url(#_24)" d="M26.581,39.428l-1.441,0.954c4.104,4.188,12.008,6.958,20.491,6.021l0.042-1.377 C36.698,46.025,29.758,42.666,26.581,39.428z"/>
<linearGradient id="_25" gradientUnits="userSpaceOnUse" x1="60.79" y1="26.88" x2="43.12" y2="24.7">
<stop stop-color="#FFFFFF" offset="0"/>
<stop stop-color="#A2C2DD" offset="0.35"/>
<stop stop-color="#6C83BB" offset="0.7"/>
<stop stop-color="#003D6D" offset="1"/>
</linearGradient>
<path fill="url(#_25)" d="M50.863,25.77c0.755-5.97-11.469-3.848-8.679,1.85C42.887,24.207,49.094,22.918,50.863,25.77z "/>
<linearGradient id="_26" gradientUnits="userSpaceOnUse" x1="43.22" y1="36.54" x2="52.63" y2="5.73">
<stop stop-color="#E6EEF4" offset="0"/>
<stop stop-color="#2F8E9A" offset="0.44"/>
<stop stop-color="#003D6D" offset="0.94"/>
</linearGradient>
<path fill="url(#_26)" d="M54.284,28.762c-7.576,8.659-21.741,2.511-15.55-5.838 C45.488,14.512,60.531,19.896,54.284,28.762z M42.58,24.465c-2.935,4.061,4.47,6.672,7.604,2.578 C53.123,22.949,45.729,20.364,42.58,24.465z"/>
<polygon fill="#6D5607" points="13.624,4.97 16.832,27.025 18.821,28.32 18.269,24.343 15.476,5.132 "/>
<path fill="#B18E3B" d="M13.624,4.97c0.178,0.153,0.771,0.224,1.329,0.136l0.956-0.59c-0.42-0.184-1.076-0.143-1.413-0.039 L13.624,4.97z"/>
<path fill="#6D5607" d="M25.186,17.466c-1.809-4.713-6.186-5.476-8.64-8.604l-0.637-4.346L14.957,5.1l0.02,0.139 c-0.006-0.043-0.02-0.078-0.026-0.12l-0.164,0.022l1.436,9.215c0.021,0,0.052,0,0.077,0.002l2.481,17.107l0.787-1.96 l-2.199-15.022c8.218,1.828,7.585,7.345,5.797,12.326l0.838,0.416C25.468,23.988,26.01,19.749,25.186,17.466z"/>
<linearGradient id="_27" gradientUnits="userSpaceOnUse" x1="32.38" y1="32.17" x2="13.46" y2="5.91">
<stop stop-color="#E6EEF4" offset="0"/>
<stop stop-color="#A3740A" offset="0.44"/>
<stop stop-color="#474105" offset="0.94"/>
</linearGradient>
<path fill="url(#_27)" d="M24.55,26.761c1.521-3.225,2.113-7.457,1.316-9.75c-2.294-6.194-9.075-5.661-9.959-12.321 l-0.813,0.569c0.983,6.773,7.669,6.118,10.009,12.216c0.824,2.281,0.377,6.512-1.105,9.754L24.55,26.761z"/>
<radialGradient id="_28" gradientUnits="userSpaceOnUse" cx="15.07" cy="29.17" fx="15.22" fy="29.2" r="5.06">
<stop stop-color="#E6EEF4" offset="0"/>
<stop stop-color="#A3740A" offset="0.44"/>
<stop stop-color="#474105" offset="0.94"/>
</radialGradient>
<path fill="url(#_28)" d="M19.242,31.498c-1.014,2.693-3.974,4.875-6.615,4.87c-2.636,0-3.956-2.185-2.942-4.876 c1.012-2.696,3.975-4.879,6.615-4.877C18.939,26.619,20.257,28.801,19.242,31.498z"/>
</svg>