<?xml version="1.0" encoding="UTF-8"?>
<!DOCTYPE svg PUBLIC "-//W3C//DTD SVG 1.1 Tiny//EN" "http://www.w3.org/Graphics/SVG/1.1/DTD/svg11-tiny.dtd">
<svg baseProfile="tiny" height="33" version="1.1" viewBox="0 0 44 33" width="44" xmlns="http://www.w3.org/2000/svg" xmlns:xlink="http://www.w3.org/1999/xlink">
<g>
<g>
<path d="M11.221,22.889c-0.561,0-1.25-0.08-2.065-0.24c-0.815-0.162-1.396-0.332-1.74-0.512v2.459    c0.387,0.151,0.888,0.277,1.498,0.383c0.609,0.104,1.218,0.156,1.826,0.156c2.239,0,3.85-0.467,4.834-1.402    c0.984-0.937,1.479-2.428,1.479-4.471c0-1.707-0.382-3.014-1.141-3.921c-0.76-0.905-1.934-1.359-3.521-1.359    c-0.336,0-0.638,0.018-0.898,0.052c-0.264,0.033-0.517,0.088-0.763,0.163l0.112-3.695h5.423V8.198H8.122l-0.226,8.58    c0.384-0.134,0.907-0.262,1.573-0.381c0.667-0.12,1.25-0.18,1.751-0.18c0.876,0,1.545,0.269,2.006,0.809    c0.461,0.541,0.69,1.367,0.69,2.482c0,1.107-0.229,1.947-0.686,2.521S12.104,22.889,11.221,22.889z"/>
<g>
<path d="M23.064,25.41c0,0.609-0.135,1.066-0.404,1.373c-0.271,0.306-0.67,0.459-1.197,0.459c-0.244,0-0.461-0.018-0.651-0.053     c-0.19-0.033-0.338-0.08-0.442-0.14v-0.879c0.092,0.054,0.204,0.097,0.338,0.134c0.133,0.034,0.267,0.053,0.4,0.053     c0.25,0,0.418-0.084,0.505-0.254c0.086-0.17,0.13-0.44,0.13-0.814v-5.455h1.321V25.41L23.064,25.41z M23.064,19.004h-1.322     v-1.191h1.322V19.004z"/>
<path d="M29.109,25.543h-1.611l-1.732-3.18v3.18h-1.324v-7.73h1.324v4.537l1.563-2.516h1.483l-1.602,2.471L29.109,25.543z"/>
<path d="M31.088,25.543h-1.324v-7.73h1.324V25.543z"/>
</g>
</g>
<g>
<rect fill="none" height="33" width="44"/>
</g>
</g>
</svg>
