<?xml version="1.0" encoding="UTF-8"?>
<!DOCTYPE svg PUBLIC "-//W3C//DTD SVG 1.1 Tiny//EN" "http://www.w3.org/Graphics/SVG/1.1/DTD/svg11-tiny.dtd">
<svg baseProfile="tiny" version="1.1" xmlns="http://www.w3.org/2000/svg" xmlns:xlink="http://www.w3.org/1999/xlink" width="24" height="26" viewBox="-20.87 18.137 24 26">
<path fill="#496DA2" d="M-14.826,33.977l3.538-3.648l1.787,1.664l-3.431,3.861C-13.828,35.791-14.743,34.549-14.826,33.977z"/>
<linearGradient id="XMLID_3_" gradientUnits="userSpaceOnUse" x1="-127.9048" y1="-5280.4033" x2="-121.4027" y2="-5277.1523" gradientTransform="matrix(1.0098 -0.0698 -0.0153 0.9913 39.121 5250.4023)">
<stop offset="0" style="stop-color:#A2C2DD"/>
<stop offset="1" style="stop-color:#FFFFFF"/>
</linearGradient>
<path fill-opacity="0.51" stroke-opacity="0.51" fill="url(#XMLID_3_)" d="M-1.513,25.781c-0.404,2.648-3.063,4.938-5.938,5.107 c-2.876,0.172-4.881-1.84-4.478-4.488c0.403-2.65,3.188-5.252,6.063-5.422C-2.987,20.807-1.107,23.129-1.513,25.781z"/>
<linearGradient id="XMLID_4_" gradientUnits="userSpaceOnUse" x1="-7.4067" y1="-5211.3906" x2="-8.6686" y2="-5212.9517" gradientTransform="matrix(1 0 0 1 0 5236.79)">
<stop offset="0" style="stop-color:#A2C2DD"/>
<stop offset="1" style="stop-color:#FFFFFF"/>
</linearGradient>
<path fill-opacity="0.8" stroke-opacity="0.8" fill="url(#XMLID_4_)" d="M-10.219,29.221c-2.167-4.418,2.104-8.375,5.688-7.563 C-7.594,22.074-10.802,25.992-10.219,29.221z"/>
<path fill="#496DA2" d="M0.007,26.508c-0.311,3.236-3.139,6.457-7.605,6.332c-3.354-0.096-5.786-3.328-4.849-7.619 c0.711-3.254,4.667-5.521,6.896-5.334C-2.387,20.152,0.323,23.191,0.007,26.508z M-5.927,20.637c-2.876,0.17-5.597,3.055-6,5.703 c-0.405,2.648,1.6,4.66,4.478,4.486c2.875-0.17,5.532-2.457,5.938-5.105C-1.107,23.068-3.05,20.465-5.927,20.637z"/>
<path fill="#87A8CB" d="M-13.488,32.563c-0.052,0.791,1.095,1.447,2.041,1.629l0.196,0.332l-5.016,5.664 c-1.485,0.244-3.353-1.016-3.103-2.619l5.473-5.131L-13.488,32.563z"/>
<path fill="#CADCEC" d="M-13.896,32.438l0.563-0.006c0.126,0.723,0.965,1.516,2.047,1.576l0.035,0.52 C-12.137,34.795-13.89,33.857-13.896,32.438z"/>
<path fill="#496DA2" d="M-12.521,33.574l-0.257,0.641c0.074,0.08,0.938,0.49,1.527,0.313l-0.007-0.57 C-11.693,34.006-12.241,33.75-12.521,33.574z"/>
<path fill="#235487" d="M-12.777,34.215l-5.201,5.637c0.35,0.244,1.018,0.354,1.692,0.363l5.036-5.691 C-11.66,34.588-12.281,34.473-12.777,34.215z"/>
<path fill="#496DA2" d="M-19.369,37.568c-0.679,1.84,0.395,3.367,3.101,2.646C-17.247,40.213-19.301,39.752-19.369,37.568z"/>
<path fill="#235487" d="M-11.26,33.977l1.504-1.686c0,0,0.001-0.717-0.515-1.029l-2.25,2.314 C-12.396,33.662-11.712,34.01-11.26,33.977z"/>
<g>
<path fill="#235487" d="M-2.844,29.471c2.521-2.443,2.208-5.979,0.438-7.793c-2.152-2.203-5.295-2.006-7.816,0.439 c-2.521,2.445-2.825,5.895-0.684,8.104c0.942,0.975,2.25,1.123,3.688,1.146C-5.507,31.393-4.162,30.75-2.844,29.471z M-10.192,29.865c-1.759-1.813-1.46-4.967,0.666-7.029s5.287-2.264,7.048-0.449c1.757,1.813,1.456,4.967-0.669,7.027 c-1.131,1.098-2.61,1.713-4.061,1.689C-8.376,31.086-9.437,30.645-10.192,29.865z"/>
</g>
<g>
<path fill="none" d="M-2.844,22.066c-1.761-1.813-4.922-1.611-7.047,0.451c-2.127,2.063-2.426,5.215-0.668,7.029 c0.757,0.777,1.817,1.221,2.987,1.234c1.446,0.023,2.928-0.592,4.058-1.688C-1.387,27.035-1.088,23.881-2.844,22.066z"/>
<path fill="#87A8CB" d="M-2.127,21.371c-2.145-2.209-5.938-2.018-8.459,0.43c-2.522,2.449-2.83,6.232-0.688,8.441 c0.941,0.973,2.252,1.521,3.688,1.543c1.712,0.027,3.45-0.691,4.771-1.973C-0.295,27.369,0.015,23.582-2.127,21.371z M-3.514,29.096c-1.13,1.1-2.609,1.713-4.058,1.689c-1.17-0.02-2.23-0.459-2.987-1.238c-1.758-1.813-1.459-4.967,0.668-7.027 c2.125-2.064,5.286-2.266,7.047-0.449C-1.088,23.881-1.387,27.035-3.514,29.096z"/>
</g>
<rect x="-20.87" y="18.137" fill="none" width="24" height="26"/>
</svg>
