<?xml version="1.0" encoding="UTF-8"?>
<!DOCTYPE svg PUBLIC "-//W3C//DTD SVG 1.1 Tiny//EN" "http://www.w3.org/Graphics/SVG/1.1/DTD/svg11-tiny.dtd">
<svg width="60" height="80" viewBox="0 0 60 80">
<linearGradient id="_97" gradientUnits="userSpaceOnUse" x1="31.51" y1="39.6" x2="43.11" y2="62.45">
<stop stop-color="#A2C2DD" offset="0.1"/>
<stop stop-color="#6C83BB" offset="0.71"/>
<stop stop-color="#003D6D" offset="0.99"/>
</linearGradient>
<path fill="url(#_97)" d="M41.773,17.153c-2.047,1.889-4.104,4.033-6.28,6.527c-0.371-0.064-21.208-3.659-21.208-3.659 l-3.349,1.119c0,0,0.251,6.542,0.267,6.966c-0.374,0.185-5.109,2.529-5.109,2.529s6.06,13.745,6.114,13.869 c0.007,0.125,0.446,8.17,0.446,8.17s3.535,0.965,3.819,1.042c0.135,0.282,3.9,8.164,3.9,8.164l0.321-0.172l4.873-2.563 c0,0,0.906-2.181,1.095-2.636c0.575,0.156,18.102,4.927,18.102,4.927l2.514-2.306l0.135-33.394c0,0-2.896-0.5-3.736-0.645 c1.188-1.596,2.354-3.038,3.469-4.246l0.219-0.238l-2.479-2.662l-2.956-0.93L41.773,17.153z"/>
<linearGradient id="_98" gradientUnits="userSpaceOnUse" x1="4.17" y1="24.14" x2="55.75" y2="56.89">
<stop stop-color="#FFFFFF" offset="0.05"/>
<stop stop-color="#A2C2DD" offset="1"/>
</linearGradient>
<polygon fill="url(#_98)" points="12.99,52.402 11.296,21.389 45.038,27.427 44.669,61.048 "/>
<linearGradient id="_99" gradientUnits="userSpaceOnUse" x1="47.94" y1="22.39" x2="18.56" y2="50.14">
<stop stop-color="#FFFFFF" offset="0.05"/>
<stop stop-color="#A2C2DD" offset="1"/>
</linearGradient>
<polygon fill="url(#_99)" points="14.963,50.95 13.489,23.967 42.335,29.197 42.523,58.471 "/>
<linearGradient id="_100" gradientUnits="userSpaceOnUse" x1="45.79" y1="27.75" x2="45.79" y2="60.25">
<stop stop-color="#FFFFFF" offset="0"/>
<stop stop-color="#A2C2DD" offset="0.35"/>
<stop stop-color="#6C83BB" offset="0.7"/>
<stop stop-color="#003D6D" offset="1"/>
</linearGradient>
<polygon fill="url(#_100)" points="44.669,61.048 44.527,27.381 47.057,26.031 46.927,58.977 "/>
<linearGradient id="_101" gradientUnits="userSpaceOnUse" x1="40.21" y1="25.81" x2="13.34" y2="20.68">
<stop stop-color="#FFFFFF" offset="0.05"/>
<stop stop-color="#A2C2DD" offset="1"/>
</linearGradient>
<polygon fill="url(#_101)" points="44.527,27.381 47.057,26.031 14.313,20.381 11.348,21.389 "/>
<linearGradient id="_102" gradientUnits="userSpaceOnUse" x1="27.27" y1="27.44" x2="16.38" y2="43.95">
<stop stop-color="#FFFFFF" offset="0"/>
<stop stop-color="#A2C2DD" offset="0.35"/>
<stop stop-color="#6C83BB" offset="0.7"/>
<stop stop-color="#003D6D" offset="1"/>
</linearGradient>
<path fill="url(#_102)" d="M18.412,28.261L8.06,33.63l19.914,15.677L18.412,28.261z"/>
<linearGradient id="_103" gradientUnits="userSpaceOnUse" x1="42.89" y1="44.01" x2="21.56" y2="42.17">
<stop stop-color="#FFFFFF" offset="0"/>
<stop stop-color="#A2C2DD" offset="0.35"/>
<stop stop-color="#6C83BB" offset="0.7"/>
<stop stop-color="#003D6D" offset="1"/>
</linearGradient>
<polygon fill="url(#_103)" points="42.227,31.675 39.166,29.703 24.075,55.456 29.16,56.813 "/>
<polygon fill="#17594C" points="10.127,29.115 14.633,28.365 22.242,45.206 19.709,48.53 "/>
<path fill="#17594C" d="M20.531,61.398c2.394-13.692,21.782-43.01,21.782-43.01l4.565,2.222 C35.634,32.855,25.292,58.895,25.292,58.895L20.531,61.398"/>
<linearGradient id="_104" gradientUnits="userSpaceOnUse" x1="-2.2" y1="21.65" x2="46.06" y2="47.25">
<stop stop-color="#DCE8E4" offset="0"/>
<stop stop-color="#43910A" offset="1"/>
</linearGradient>
<path fill="url(#_104)" d="M43.893,19.94l-1.881-2.529C31.789,26.843,23.686,39.89,19.545,47.477L11,28.598L6.549,30.8 c6.258,14.744,13.485,29.577,13.958,30.543l0.025,0.056C26.66,44.172,33.838,30.513,43.893,19.94z"/>
<polygon fill="#C8DEC5" points="42.012,17.411 43.893,19.94 46.879,20.609 44.686,18.252 "/>
<polygon fill="#C8DEC5" points="11.562,28.319 6.549,30.8 11.647,30.185 14.729,28.342 "/>
</svg>