<?xml version="1.0" encoding="UTF-8"?>
<!DOCTYPE svg PUBLIC "-//W3C//DTD SVG 1.1 Tiny//EN" "http://www.w3.org/Graphics/SVG/1.1/DTD/svg11-tiny.dtd">
<svg baseProfile="tiny" height="32" version="1.1" viewBox="-1 -1 38 32" width="38" xmlns="http://www.w3.org/2000/svg" xmlns:xlink="http://www.w3.org/1999/xlink">
<g>
<path d="M16.391,24.124c-0.653,0-1.311-0.057-1.967-0.169c-0.658-0.112-1.197-0.25-1.614-0.411v-2.65   c0.371,0.193,0.995,0.377,1.874,0.552c0.88,0.173,1.621,0.26,2.228,0.26c0.951,0,1.674-0.309,2.166-0.926s0.738-1.522,0.738-2.717   c0-1.201-0.249-2.094-0.744-2.675c-0.496-0.581-1.218-0.871-2.16-0.871c-0.541,0-1.17,0.064-1.888,0.193   c-0.719,0.129-1.282,0.267-1.694,0.411l0.242-9.245h8.772v2.481H16.5l-0.121,3.979c0.266-0.081,0.539-0.139,0.822-0.175   c0.281-0.037,0.604-0.055,0.969-0.055c1.709,0,2.975,0.486,3.793,1.464c0.818,0.977,1.229,2.384,1.229,4.224   c0,2.202-0.531,3.809-1.593,4.816C20.539,23.62,18.803,24.124,16.391,24.124z"/>
<rect fill="none" height="32" width="38" x="-1" y="-1"/>
</g>
</svg>
