<?xml version="1.0" encoding="UTF-8"?>
<!DOCTYPE svg PUBLIC "-//W3C//DTD SVG 1.1 Tiny//EN" "http://www.w3.org/Graphics/SVG/1.1/DTD/svg11-tiny.dtd">
<svg width="84" height="72" viewBox="0 0 84 72">
<path fill="#3366CC" d="M34.779,50.148c4.894-0.727,8.119-1.73,13.664-8.201c5.547-6.47,10.32-7.759,13.361-7.863l16.498,9.054 C62.98,44.713,60.383,63.885,46.215,64.43L34.779,50.148z"/>
<linearGradient id="_18" gradientUnits="userSpaceOnUse" x1="44.23" y1="57.35" x2="58.42" y2="38.56">
<stop stop-color="#8CC2EA" offset="0"/>
<stop stop-color="#0046B7" offset="1"/>
</linearGradient>
<path fill="url(#_18)" d="M37.089,53.08c2.086-0.135,7.224-1.064,11.63-6.074l8.088,7.412 c-3.045,3.805-8.293,6.877-12.885,7.268L37.089,53.08z"/>
<linearGradient id="_19" gradientUnits="userSpaceOnUse" x1="58.68" y1="45.61" x2="50.46" y2="58.4">
<stop stop-color="#5AA7E0" offset="0"/>
<stop stop-color="#0046B7" offset="1"/>
</linearGradient>
<path fill="url(#_19)" d="M49.732,45.967c2.232-2.598,5.059-6.408,10.105-8.764l9.288,5.721 c-2.953,1.521-5.88,3.426-11.176,10.277L49.732,45.967z"/>
<path fill="#5AA7E0" d="M61.396,36.566c0,0,3.193-0.736,3.594-0.695l9.943,5.501c0,0-1.772-0.014-4.095,0.865L61.396,36.566z"/>
<polygon fill="#B3DDFF" points="35.447,51.061 36.982,50.875 38.042,52.232 36.641,52.527 "/>
<path fill="#B3DDFF" d="M38.564,50.48l1.179,1.381c0,0,1.217-0.324,1.604-0.529l-1.197-1.354 C39.641,50.189,38.564,50.48,38.564,50.48z"/>
<path fill="#B3DDFF" d="M41.471,49.385l1.221,1.355c0,0,1.156-0.623,1.369-0.773l-1.256-1.316 C42.589,48.844,41.471,49.385,41.471,49.385z"/>
<path fill="#B3DDFF" d="M43.906,47.896l1.27,1.285c0,0,1.084-0.793,1.167-0.92l-1.313-1.279 C44.668,47.322,43.906,47.896,43.906,47.896z"/>
<path fill="#B3DDFF" d="M46.018,46.135l1.307,1.229c0,0,0.978-0.971,1.027-1.059l-1.338-1.207 C46.829,45.383,46.018,46.135,46.018,46.135z"/>
<path fill="#B3DDFF" d="M47.893,44.154l1.363,1.211c0,0,0.9-1.035,0.951-1.123l-1.344-1.146 C48.714,43.301,47.893,44.154,47.893,44.154z"/>
<polygon fill="#B3DDFF" points="49.741,42.131 51.089,43.262 52.063,42.18 50.688,41.068 "/>
<polygon fill="#B3DDFF" points="51.589,40.15 52.982,41.229 54.045,40.225 52.592,39.16 "/>
<path fill="#B3DDFF" d="M53.609,38.313l1.457,1.023l1.16-0.9l-1.428-1.004C54.799,37.432,53.691,38.207,53.609,38.313z"/>
<path fill="#B3DDFF" d="M55.967,36.713l1.436,0.963c0,0,1.287-0.688,1.426-0.703l-1.475-0.951 C57.189,36.088,56.148,36.58,55.967,36.713z"/>
<path fill="#B3DDFF" d="M58.659,35.51l1.515,0.891c0,0,1.52-0.424,1.732-0.467l-1.555-0.902 C59.975,35.084,58.805,35.454,58.659,35.51z"/>
<polygon fill="#B3DDFF" points="61.855,34.745 63.438,35.651 64.311,35.522 62.659,34.624 "/>
<path fill="#B3DDFF" d="M44.419,62.264c0,0,1.562-0.248,1.724-0.301l1.148,1.428c0,0-1.691,0.301-1.768,0.295L44.419,62.264z"/>
<path fill="#B3DDFF" d="M47.961,61.504l1.184,1.396c0,0,1.508-0.502,1.881-0.707l-1.233-1.375 C49.423,61.006,48.105,61.457,47.961,61.504z"/>
<path fill="#B3DDFF" d="M51.305,60.1c0.228-0.105,1.467-0.855,1.53-0.941l1.299,1.328c0,0-1.294,0.844-1.577,0.963 L51.305,60.1z"/>
<path fill="#B3DDFF" d="M54.113,58.23l1.289,1.313c0,0,1.205-1.029,1.328-1.16L55.419,57.1 C55.121,57.398,54.195,58.18,54.113,58.23z"/>
<path fill="#B3DDFF" d="M56.516,56.008l1.33,1.258l1.152-1.275l-1.344-1.211C57.654,54.779,56.74,55.801,56.516,56.008z"/>
<path fill="#B3DDFF" d="M58.669,53.602l1.366,1.199c0,0,0.997-1.195,1.083-1.344l-1.386-1.16 C59.547,52.572,58.83,53.404,58.669,53.602z"/>
<path fill="#B3DDFF" d="M60.729,51.113l1.379,1.143l1.084-1.35l-1.397-1.107C61.793,49.799,60.98,50.826,60.729,51.113z"/>
<path fill="#B3DDFF" d="M62.825,48.656l1.407,1.082c0,0,1.109-1.158,1.197-1.248l-1.425-1.07 C64.006,47.418,62.918,48.59,62.825,48.656z"/>
<path fill="#B3DDFF" d="M65.13,46.373l1.472,1.023c0.135-0.152,1.233-1.051,1.346-1.104l-1.486-1.002 C66.25,45.439,65.337,46.17,65.13,46.373z"/>
<path fill="#B3DDFF" d="M67.807,44.404l1.496,0.969c0,0,1.1-0.658,1.588-0.91l-1.515-0.949 C68.953,43.688,67.914,44.307,67.807,44.404z"/>
<path fill="#B3DDFF" d="M70.945,42.832l1.565,0.926c0,0,1.654-0.557,1.938-0.613l-1.566-0.916 C72.439,42.297,70.945,42.832,70.945,42.832z"/>
<path fill="#B3DDFF" d="M74.811,41.832l1.604,0.883l0.818-0.1l-1.646-0.904C75.587,41.711,75.057,41.777,74.811,41.832z"/>
<path fill="#0046B7" d="M46.297,64.283C61.163,63,63.396,43.619,78.259,43.15l-0.364,1.564 c-14.238,1.242-15.433,20.467-32.018,21.402L46.297,64.283z"/>
<polygon fill="#3366CC" points="46.297,64.283 34.779,50.148 34.813,51.285 45.877,66.117 "/>
<polygon fill="#5AA7E0" points="45.777,63.65 45.402,65.479 44.404,64.109 44.637,62.217 "/>
<polygon fill="#5AA7E0" points="35.516,51.039 35.631,52.33 36.727,53.848 36.689,52.525 "/>
<linearGradient id="_20" gradientUnits="userSpaceOnUse" x1="43.84" y1="48.87" x2="43.84" y2="64.22">
<stop stop-color="#A2C2DD" offset="0.1"/>
<stop stop-color="#6C83BB" offset="0.71"/>
<stop stop-color="#003D6D" offset="0.99"/>
</linearGradient>
<path fill="url(#_20)" d="M45.969,4.542l-1.056,0.227c-0.258,0.055-0.434,0.273-0.434,0.516c0,0.036,0.003,0.073,0.014,0.108 c0,0,3.43,15.786,3.777,17.374c-1.634-0.48-18.891-5.539-18.891-5.539c-0.206-0.061-0.427,0-0.572,0.152L7.832,39.596 c-0.092,0.1-0.145,0.242-0.145,0.379c0,0.035,0.003,0.068,0.011,0.104l0.423,2.039c0.033,0.17,0.154,0.311,0.319,0.381 c0,0,27.351,11.645,27.612,11.756c0.169,0.219,9.013,11.547,9.013,11.547c0.118,0.152,0.314,0.23,0.512,0.207 c9.448-1.102,13.858-6.4,18.124-11.52c3.997-4.805,7.771-9.34,15.488-10.012c0.243-0.02,0.444-0.191,0.492-0.422l0.304-1.451 c0.006-0.033,0.01-0.066,0.01-0.1c0-0.197-0.114-0.393-0.299-0.488c0,0-9.752-5.115-10.702-5.613 c0.432-0.635,1.432-2.109,1.432-2.109c0.041-0.06,0.068-0.128,0.082-0.201l0.684-3.977c-0.014,0.074-0.044,0.146-0.087,0.21 c0.136-0.195-0.444-0.995-0.211-0.925c0,0-19.445-5.705-20.056-5.883c-0.114-0.537-1.742-8.24-2.022-9.568 c2.431,0.496,4.016,1.311,4.853,2.584c0.526,0.797,0.787,1.794,0.787,3.008c0,1.152-0.236,2.5-0.711,4.058 c-0.014,0.048-0.023,0.1-0.023,0.147c0,0.213,0.134,0.409,0.35,0.492l0.753,0.287c0.141,0.055,0.302,0.05,0.438-0.012 c0.142-0.063,0.246-0.177,0.293-0.314c3.096-9.002-0.925-11.669-4.472-14.022l-0.856-0.573c-1.587-1.079-2.96-2.012-3.597-4.662 C46.561,4.658,46.267,4.479,45.969,4.542z"/>
<linearGradient id="_21" gradientUnits="userSpaceOnUse" x1="58.49" y1="42.87" x2="62.24" y2="46">
<stop stop-color="#FFFFFF" offset="0"/>
<stop stop-color="#496DA2" offset="0.71"/>
<stop stop-color="#235487" offset="0.99"/>
</linearGradient>
<polygon fill="url(#_21)" points="70.666,29.905 51.713,56.939 51.961,60.547 69.959,34.006 "/>
<linearGradient id="_22" gradientUnits="userSpaceOnUse" x1="31.55" y1="46.91" x2="29.17" y2="52.36">
<stop stop-color="#FFFFFF" offset="0"/>
<stop stop-color="#496DA2" offset="0.71"/>
<stop stop-color="#235487" offset="0.99"/>
</linearGradient>
<polygon fill="url(#_22)" points="51.778,56.9 8.236,39.947 8.664,42.014 51.99,60.459 "/>
<linearGradient id="_23" gradientUnits="userSpaceOnUse" x1="-0.01" y1="4.25" x2="48.26" y2="41.76">
<stop stop-color="#FFFFFF" offset="0.15"/>
<stop stop-color="#A2C2DD" offset="1"/>
</linearGradient>
<polygon fill="url(#_23)" points="29.219,17.733 8.228,39.969 51.771,56.906 70.73,29.905 "/>
<linearGradient id="_24" gradientUnits="userSpaceOnUse" x1="46.94" y1="51.89" x2="31.35" y2="17.02">
<stop stop-color="#FFFFFF" offset="0.15"/>
<stop stop-color="#A2C2DD" offset="1"/>
</linearGradient>
<polygon fill="url(#_24)" points="50.915,54.41 11.615,39.342 29.852,19.743 67.356,31.088 "/>
<linearGradient id="_25" gradientUnits="userSpaceOnUse" x1="37.84" y1="68.99" x2="30.13" y2="43.25">
<stop stop-color="#FFFFFF" offset="0"/>
<stop stop-color="#A2C2DD" offset="0.35"/>
<stop stop-color="#6C83BB" offset="0.7"/>
<stop stop-color="#003D6D" offset="1"/>
</linearGradient>
<polygon fill="url(#_25)" points="14.48,36.368 46.973,50.682 50.881,54.461 11.579,39.381 "/>
<path fill="#FFFFFF" d="M24.089,25.922c4.582,3.636,15.475,5.209,15.475,5.209l4.03-3.695c1.353-3.884-4.75-4.2-7.044-2.955 c-1.417-2.623-6.167-1.369-6.431-0.377c-0.605-0.469-1.787-0.979-3.192-1.183L24.089,25.922z"/>
<path fill="#298595" d="M25.048,41.221l20.792,2.967c-8.594,7.58-23.81-1.533-24.372-2.664L25.048,41.221z"/>
<linearGradient id="_26" gradientUnits="userSpaceOnUse" x1="21.31" y1="39.27" x2="23.76" y2="41.76">
<stop stop-color="#D6E6EC" offset="0"/>
<stop stop-color="#298595" offset="1"/>
</linearGradient>
<path fill="url(#_26)" d="M22.213,38.025l2.835,3.195c-0.547,0.371-2.047,1.047-3.224,0.709 c-1.105-0.936-0.897-2.199-0.897-2.199S21.358,38.738,22.213,38.025z"/>
<path fill="#BFDAE1" d="M22.195,38.035l2.794,3.244c1.873,0.803,13.243,6.482,20.851,2.908 C41.83,42.637,25.994,38.252,22.195,38.035z"/>
<path fill="#115B7E" d="M25.746,40.986l-2.129-2.408c3.038,0.326,17.779,4.24,21.188,5.564 C38.852,46.262,29.826,42.836,25.746,40.986z"/>
<polygon fill="#BFDAE1" points="29.801,40.414 31.756,43.313 34.442,44.037 32.241,40.975 "/>
<polygon fill="#2F8E9A" points="29.622,40.729 31.147,43.096 31.756,43.313 29.804,40.412 "/>
<linearGradient id="_27" gradientUnits="userSpaceOnUse" x1="41.59" y1="33.56" x2="19.16" y2="33.86">
<stop stop-color="#2B98A0" offset="0"/>
<stop stop-color="#0A4A60" offset="1"/>
</linearGradient>
<polygon fill="url(#_27)" points="32.081,41.623 46.7,25.545 23.92,35.89 "/>
<polygon fill="#2F8E9A" points="32.869,42.869 44.219,28.789 40.497,43.801 "/>
<linearGradient id="_28" gradientUnits="userSpaceOnUse" x1="62.08" y1="25.02" x2="53.04" y2="60.04">
<stop stop-color="#FFFFFF" offset="0"/>
<stop stop-color="#496DA2" offset="0.71"/>
<stop stop-color="#235487" offset="0.99"/>
</linearGradient>
<path fill="url(#_28)" d="M33.876,49.523c14.329-1.471,14.596-15.034,28.296-16.076l17.272,9.06 C62.06,44.725,63.498,61.436,45.848,63.805L33.876,49.523z"/>
<linearGradient id="_29" gradientUnits="userSpaceOnUse" x1="43.86" y1="56.77" x2="58.19" y2="37.8">
<stop stop-color="#DEE9F3" offset="0"/>
<stop stop-color="#235487" offset="1"/>
</linearGradient>
<path fill="url(#_29)" d="M36.294,52.453c2.182-0.135,7.56-1.064,12.176-6.078l8.465,7.418 c-3.187,3.807-8.681,6.879-13.487,7.27L36.294,52.453z"/>
<linearGradient id="_30" gradientUnits="userSpaceOnUse" x1="58.99" y1="44.9" x2="50.6" y2="57.94">
<stop stop-color="#DEE9F3" offset="0"/>
<stop stop-color="#235487" offset="1"/>
</linearGradient>
<path fill="url(#_30)" d="M49.53,45.34c2.34-2.602,5.296-6.412,10.583-8.77l9.723,5.721 c-3.091,1.525-6.155,3.428-11.701,10.285L49.53,45.34z"/>
<path fill="#D6E4F3" d="M61.742,35.931c0,0,3.342-0.736,3.839-0.697l10.496,5.518c0,0-2.02-0.025-4.45,0.854L61.742,35.931z"/>
<polygon fill="#FFFFFF" points="34.574,50.43 36.182,50.246 37.29,51.604 35.821,51.9 "/>
<polygon fill="#FFFFFF" points="37.839,49.854 39.072,51.236 40.751,50.701 39.497,49.348 "/>
<polygon fill="#FFFFFF" points="40.879,48.756 42.159,50.109 43.591,49.338 42.277,48.021 "/>
<polygon fill="#FFFFFF" points="43.429,47.268 44.761,48.551 45.98,47.633 44.605,46.352 "/>
<polygon fill="#FFFFFF" points="45.64,45.504 47.009,46.734 48.085,45.674 46.686,44.465 "/>
<polygon fill="#FFFFFF" points="47.604,43.525 49.032,44.732 50.028,43.609 48.621,42.465 "/>
<polygon fill="#FFFFFF" points="49.539,41.5 50.95,42.629 51.97,41.549 50.528,40.438 "/>
<polygon fill="#FFFFFF" points="51.475,39.516 52.933,40.598 54.047,39.59 52.525,38.525 "/>
<polygon fill="#FFFFFF" points="53.591,37.68 55.115,38.705 56.329,37.803 54.835,36.799 "/>
<polygon fill="#FFFFFF" points="56.056,36.08 57.558,37.041 59.055,36.338 57.505,35.387 "/>
<polygon fill="#FFFFFF" points="58.876,34.875 60.463,35.766 62.274,35.3 60.649,34.396 "/>
<polygon fill="#FFFFFF" points="62.223,34.109 63.88,35.014 64.851,34.851 63.121,33.952 "/>
<polygon fill="#FFFFFF" points="43.969,61.643 45.771,61.34 46.975,62.766 45.124,63.063 "/>
<polygon fill="#FFFFFF" points="47.679,60.879 48.914,62.277 50.884,61.568 49.592,60.195 "/>
<polygon fill="#FFFFFF" points="51.176,59.477 52.78,58.533 54.139,59.861 52.484,60.824 "/>
<polygon fill="#FFFFFF" points="54.117,57.604 55.467,58.916 56.856,57.754 55.487,56.473 "/>
<polygon fill="#FFFFFF" points="56.633,55.381 58.024,56.641 59.231,55.367 57.825,54.15 "/>
<polygon fill="#FFFFFF" points="58.887,52.973 60.317,54.174 61.452,52.828 60.001,51.67 "/>
<polygon fill="#FFFFFF" points="61.042,50.484 62.486,51.629 63.622,50.277 62.156,49.17 "/>
<polygon fill="#FFFFFF" points="63.237,48.027 64.713,49.109 65.967,47.859 64.474,46.791 "/>
<polygon fill="#FFFFFF" points="65.65,45.746 67.189,46.766 68.599,45.666 67.044,44.664 "/>
<polygon fill="#FFFFFF" points="68.453,43.773 70.021,44.74 71.684,43.83 70.095,42.881 "/>
<polygon fill="#FFFFFF" points="71.74,42.203 73.38,43.127 75.411,42.51 73.77,41.598 "/>
<polygon fill="#FFFFFF" points="75.784,41.201 77.465,42.082 78.414,41.982 76.689,41.078 "/>
<linearGradient id="_31" gradientUnits="userSpaceOnUse" x1="48.68" y1="25.02" x2="64.47" y2="58.21">
<stop stop-color="#FFFFFF" offset="0"/>
<stop stop-color="#496DA2" offset="0.71"/>
<stop stop-color="#235487" offset="0.99"/>
</linearGradient>
<path fill="url(#_31)" d="M45.931,63.658c16.66-2.117,17.303-20.162,33.5-21.168l-0.308,1.471 c-16.229,1.416-15.548,19.426-33.63,21.533L45.931,63.658z"/>
<linearGradient id="_32" gradientUnits="userSpaceOnUse" x1="48.78" y1="22.28" x2="39.88" y2="56.75">
<stop stop-color="#FFFFFF" offset="0"/>
<stop stop-color="#496DA2" offset="0.71"/>
<stop stop-color="#235487" offset="0.99"/>
</linearGradient>
<polygon fill="url(#_32)" points="45.931,63.658 33.876,49.523 33.913,50.658 45.493,65.494 "/>
<polygon fill="#7D97C6" points="45.389,63.029 45,64.857 43.954,63.484 44.194,61.592 "/>
<polygon fill="#7D97C6" points="34.646,50.412 34.765,51.699 35.912,53.221 35.876,51.898 "/>
<linearGradient id="_33" gradientUnits="userSpaceOnUse" x1="46.99" y1="42.84" x2="48.15" y2="28.35">
<stop stop-color="#FFFFFF" offset="0.05"/>
<stop stop-color="#A2C2DD" offset="1"/>
</linearGradient>
<path fill="url(#_33)" d="M51.791,34.399c-0.781,2.05-3.268,3.822-5.554,3.958s-3.512-1.412-2.732-3.462 c0.781-2.051,3.267-3.826,5.555-3.964C51.348,30.796,52.569,32.345,51.791,34.399z"/>
<path fill="#6D5607" d="M49.529,25.954l-4.494-20.67l1.055-0.225c0.702,2.924,2.312,3.952,3.943,5.063 c3.713,2.519,8.168,4.685,4.995,13.912l-0.753-0.287c2.189-7.18-0.713-9.623-6.173-10.491l2.921,13.814L49.529,25.954z"/>
<radialGradient id="_34" gradientUnits="userSpaceOnUse" cx="47.94" cy="27.17" fx="47.2" fy="27.04" r="3.96">
<stop stop-color="#E6EEF4" offset="0"/>
<stop stop-color="#A3740A" offset="0.44"/>
<stop stop-color="#474105" offset="0.94"/>
</radialGradient>
<path fill="url(#_34)" d="M50.834,28.757c-0.801,2.259-3.371,4.206-5.743,4.345c-2.374,0.146-3.651-1.573-2.851-3.834 c0.798-2.256,3.37-4.205,5.742-4.348C50.354,24.78,51.634,26.497,50.834,28.757z"/>
<rect x="9.041" y="36.988" fill="#FFFFFF" width="17.439" height="17.439"/>
<path fill="#496DA2" d="M7.043,34.993v21.435h21.436V34.993H7.043z M26.48,36.988v17.439H9.041V36.988H26.48z"/>
<path fill="#496DA2" d="M11.639,39.75l10.944,3.184l-2.64,2.641c0,0,2.906,2.906,4.271,4.271 c-0.931,0.934-1.551,1.555-2.482,2.484c-1.367-1.365-4.274-4.273-4.274-4.273l-2.642,2.641L11.639,39.75z"/>
</svg>