<?xml version="1.0" encoding="UTF-8"?>
<!DOCTYPE svg PUBLIC "-//W3C//DTD SVG 1.1 Tiny//EN" "http://www.w3.org/Graphics/SVG/1.1/DTD/svg11-tiny.dtd">
<svg baseProfile="tiny" height="32" version="1.1" viewBox="0 0 44 32" width="44" xmlns="http://www.w3.org/2000/svg" xmlns:xlink="http://www.w3.org/1999/xlink">
<g>
<g>
<path d="M7.516,17.328C7.085,18.049,6.87,18.98,6.87,20.125c0,1.424,0.415,2.543,1.246,3.361c0.832,0.822,2.205,1.232,4.122,1.232    c1.916,0,3.289-0.41,4.115-1.232c0.826-0.818,1.243-1.938,1.243-3.361c0-1.212-0.213-2.17-0.635-2.869    c-0.426-0.699-1.162-1.169-2.22-1.41c0.914-0.275,1.589-0.736,2.021-1.381c0.436-0.644,0.653-1.467,0.653-2.472    c0-1.303-0.411-2.357-1.227-3.166s-2.133-1.213-3.952-1.213c-1.791,0-3.105,0.411-3.947,1.234    C7.448,9.673,7.026,10.71,7.026,11.96c0,1.963,0.911,3.257,2.729,3.886C8.693,16.115,7.946,16.609,7.516,17.328z M10.516,10.567    c0.324-0.479,0.898-0.719,1.723-0.719c0.823,0,1.396,0.239,1.72,0.719c0.319,0.479,0.481,1.074,0.481,1.784    c0,0.696-0.18,1.266-0.538,1.709c-0.36,0.442-0.916,0.662-1.663,0.662c-0.75,0-1.304-0.22-1.666-0.662    c-0.365-0.443-0.547-1.013-0.547-1.709C10.025,11.642,10.189,11.047,10.516,10.567z M10.403,17.699    c0.349-0.494,0.958-0.74,1.835-0.74c0.876,0,1.484,0.262,1.825,0.791s0.512,1.178,0.512,1.947c0,0.824-0.176,1.494-0.529,2.011    c-0.352,0.519-0.955,0.774-1.808,0.774c-0.845,0-1.451-0.258-1.813-0.774c-0.364-0.517-0.545-1.187-0.545-2.011    C9.88,18.859,10.056,18.191,10.403,17.699z"/>
<g>
<path d="M24.5,25.273c-0.109,0.041-0.253,0.082-0.427,0.121c-0.175,0.039-0.396,0.059-0.667,0.059     c-0.543,0-0.946-0.156-1.208-0.471c-0.263-0.314-0.394-0.769-0.394-1.359v-3.057h-0.762v-0.898h0.762v-0.762l1.324-0.689v1.451     h1.289v0.898h-1.289V23.5c0,0.395,0.045,0.671,0.138,0.83c0.09,0.16,0.256,0.24,0.498,0.24c0.133,0,0.266-0.021,0.396-0.057     c0.131-0.037,0.244-0.08,0.339-0.13L24.5,25.273L24.5,25.273z"/>
<path d="M29.74,25.375h-1.299c-0.026-0.143-0.049-0.391-0.068-0.742c-0.262,0.547-0.766,0.82-1.514,0.82     c-1.082,0-1.621-0.66-1.621-1.982v-3.803h1.322v3.686c0,0.812,0.282,1.217,0.85,1.217c0.316,0,0.557-0.123,0.723-0.368     c0.166-0.246,0.25-0.554,0.25-0.921v-3.612h1.318v4.867C29.701,24.838,29.714,25.118,29.74,25.375z"/>
<path d="M35.326,19.668l-1.705,5.707h-1.455l-1.703-5.707h1.328c0.501,1.92,0.87,3.518,1.107,4.789     c0.391-1.686,0.791-3.282,1.201-4.789H35.326z"/>
</g>
</g>
<g>
<rect fill="none" height="32" width="44"/>
</g>
</g>
</svg>
