<?xml version="1.0" encoding="UTF-8"?>
<!DOCTYPE svg PUBLIC "-//W3C//DTD SVG 1.1 Tiny//EN" "http://www.w3.org/Graphics/SVG/1.1/DTD/svg11-tiny.dtd">
<svg width="60" height="80" viewBox="1.365 -22.188 60 80">
<linearGradient id="_59" gradientUnits="userSpaceOnUse" x1="19.31" y1="32.6" x2="29.47" y2="52.62">
<stop stop-color="#A2C2DD" offset="0.1"/>
<stop stop-color="#6C83BB" offset="0.71"/>
<stop stop-color="#003D6D" offset="0.99"/>
</linearGradient>
<path fill="url(#_59)" d="M21.564,7.484c0,0,0.126,3.99,0.164,5.21c-1.208-0.152-4.458-0.56-4.458-0.56 c0.042,0.032-2.479,0.014-2.479,0.014c-1.084-0.034-9.626,2.306-9.626,2.306l-0.04,0.492c-0.718,9.519,0.676,26.085,1.848,34.288 l0.238,0.43c3.646,3.162,10.357,6.359,15.275,6.234l0.238-0.006l4.685-3.775l0.159-0.746c0.316-0.24,1.654-1.262,1.654-1.262 l0.056-0.246c1.129-4.982,2.715-16.996,2.715-26.684c0-2.16-0.286-6.285-0.286-6.285s-1.701-1.926-5.24-3.023 c0.134-0.901,0.886-5.92,0.886-5.92s0.106-1.894-2.472-1.894C21.834,6,21.564,7.484,21.564,7.484z"/>
<linearGradient id="_60" gradientUnits="userSpaceOnUse" x1="46.77" y1="2.06" x2="55.6" y2="19.45">
<stop stop-color="#A2C2DD" offset="0.1"/>
<stop stop-color="#6C83BB" offset="0.71"/>
<stop stop-color="#003D6D" offset="0.99"/>
</linearGradient>
<path fill="url(#_60)" d="M48.724-19.922c0,0,0.027,3.505,0.061,4.667c-2.732-0.526-5.9-0.458-5.896-0.458 c-0.926-0.025-8.406,2.017-8.406,2.017l-0.039,0.494c-0.625,8.243,0.586,22.56,1.602,29.64l0.238,0.428 c3.156,2.745,8.98,5.517,13.26,5.413l0.236-0.004l4.098-3.306c0,0,0.096-0.453,0.137-0.649c0.301-0.231,1.426-1.084,1.426-1.084 l0.059-0.25c0.979-4.315,2.35-14.716,2.35-23.092c0-1.862-0.244-5.454-0.244-5.454s-2.098-1.846-4.512-2.624 c0.131-0.876,0.746-4.994,0.746-4.994c-0.012-1.014-0.879-1.632-2.215-1.794C50.427-21.11,49.068-20.79,48.724-19.922z"/>
<linearGradient id="_61" gradientUnits="userSpaceOnUse" x1="61.98" y1="-7.06" x2="35.4" y2="-19.23">
<stop stop-color="#A2C2DD" offset="0.1"/>
<stop stop-color="#6C83BB" offset="0.71"/>
<stop stop-color="#003D6D" offset="0.99"/>
</linearGradient>
<path fill="url(#_61)" d="M45.006-15.026c0,0,8.484,0.334,11.918,3.788l-4.625,2.156L45.006-15.026z"/>
<linearGradient id="_62" gradientUnits="userSpaceOnUse" x1="54.06" y1="-20.09" x2="54.06" y2="17.39">
<stop stop-color="#FFFFFF" offset="0"/>
<stop stop-color="#A2C2DD" offset="0.35"/>
<stop stop-color="#6C83BB" offset="0.7"/>
<stop stop-color="#003D6D" offset="1"/>
</linearGradient>
<path fill="url(#_62)" d="M52.297-9.086l-1.322,28.832l3.836-2.917c1.277-5.644,2.938-19.832,2.109-28.115L52.297-9.086z"/>
<linearGradient id="_63" gradientUnits="userSpaceOnUse" x1="43.11" y1="-13.48" x2="49.45" y2="-11.09">
<stop stop-color="#FFFFFF" offset="0.15"/>
<stop stop-color="#A2C2DD" offset="1"/>
</linearGradient>
<path fill="url(#_63)" d="M35.142-13.15c0,0,6.832-1.886,7.77-1.862c3.336-0.118,8.543,0.216,12.566,3.954L50.603-8.74 L35.142-13.15z"/>
<linearGradient id="_64" gradientUnits="userSpaceOnUse" x1="52.61" y1="-16.81" x2="52.61" y2="25.35">
<stop stop-color="#FFFFFF" offset="0"/>
<stop stop-color="#A2C2DD" offset="0.35"/>
<stop stop-color="#6C83BB" offset="0.7"/>
<stop stop-color="#003D6D" offset="1"/>
</linearGradient>
<path fill="url(#_64)" d="M50.599-8.74l-1.078,30.316l3.719-2.998c1.348-5.957,3.109-20.904,2.232-29.637L50.599-8.74z"/>
<linearGradient id="_65" gradientUnits="userSpaceOnUse" x1="46.09" y1="-13.39" x2="53.35" y2="-10.93">
<stop stop-color="#FFFFFF" offset="0"/>
<stop stop-color="#A2C2DD" offset="0.35"/>
<stop stop-color="#6C83BB" offset="0.7"/>
<stop stop-color="#003D6D" offset="1"/>
</linearGradient>
<path fill="url(#_65)" d="M52.791-12.066c0.105,0.658-0.754,1.152-1.898,1.202c-1.146,0.052-2.146-0.338-2.133-1.122 c0.012-0.5,1.898-0.893,1.898-0.893S52.711-12.562,52.791-12.066z"/>
<linearGradient id="_66" gradientUnits="userSpaceOnUse" x1="48.76" y1="-15.56" x2="52.85" y2="-15.56">
<stop stop-color="#E6EEF4" offset="0"/>
<stop stop-color="#337CE5" offset="0.44"/>
<stop stop-color="#003D6D" offset="0.94"/>
</linearGradient>
<path fill="url(#_66)" d="M49.349-19.667l0.234,7.771c0.262,0.554,2.078,0.666,2.354-0.064l1.117-7.428L49.349-19.667z"/>
<linearGradient id="_67" gradientUnits="userSpaceOnUse" x1="52.29" y1="-18.8" x2="32.38" y2="27.23">
<stop stop-color="#FFFFFF" offset="0.05"/>
<stop stop-color="#A2C2DD" offset="1"/>
</linearGradient>
<path fill="url(#_67)" d="M35.142-13.15c3.348-1.094,10.438-0.184,15.457,4.412c0.586,8.24,0.109,22.552-1.078,30.315 c-4.057,0.102-9.77-2.621-12.787-5.243C35.744,9.404,34.513-4.866,35.142-13.15z"/>
<linearGradient id="_68" gradientUnits="userSpaceOnUse" x1="49" y1="11.77" x2="36.59" y2="-14.46">
<stop stop-color="#FFFFFF" offset="0.05"/>
<stop stop-color="#A2C2DD" offset="1"/>
</linearGradient>
<polygon fill="url(#_68)" points="36.81,-11.154 37.326,6.316 48.513,10.438 48.888,-7.686 "/>
<linearGradient id="_69" gradientUnits="userSpaceOnUse" x1="37.69" y1="9.42" x2="37.69" y2="-13.65">
<stop stop-color="#FFFFFF" offset="0"/>
<stop stop-color="#A2C2DD" offset="0.35"/>
<stop stop-color="#6C83BB" offset="0.7"/>
<stop stop-color="#003D6D" offset="1"/>
</linearGradient>
<polygon fill="url(#_69)" points="38.576,5.564 38.248,-10.742 36.81,-11.154 37.326,6.316 "/>
<linearGradient id="_70" gradientUnits="userSpaceOnUse" x1="52" y1="12.89" x2="30.68" y2="0.59">
<stop stop-color="#FFFFFF" offset="0.15"/>
<stop stop-color="#A2C2DD" offset="1"/>
</linearGradient>
<polygon fill="url(#_70)" points="37.326,6.316 38.576,5.564 48.56,9.016 48.513,10.438 "/>
<linearGradient id="_71" gradientUnits="userSpaceOnUse" x1="48.52" y1="-19.97" x2="56.13" y2="-18.68">
<stop stop-color="#D6E4F3" offset="0"/>
<stop stop-color="#337CE5" offset="1"/>
</linearGradient>
<path fill="url(#_71)" d="M53.142-19.284c-0.152,0.42-1.125,0.666-2.178,0.542c-1.045-0.124-1.752-0.566-1.586-0.992 c0.168-0.422,1.127-0.664,2.146-0.544C52.564-20.152,53.283-19.708,53.142-19.284z"/>
<linearGradient id="_72" gradientUnits="userSpaceOnUse" x1="35.32" y1="22.23" x2="14.47" y2="10.41">
<stop stop-color="#A2C2DD" offset="0.1"/>
<stop stop-color="#6C83BB" offset="0.71"/>
<stop stop-color="#003D6D" offset="0.99"/>
</linearGradient>
<path fill="url(#_72)" d="M17.241,12.83c0,0,9.819,0.387,13.792,4.383l-5.36,2.494L17.241,12.83z"/>
<linearGradient id="_73" gradientUnits="userSpaceOnUse" x1="33.56" y1="7.93" x2="24.54" y2="45.52">
<stop stop-color="#FFFFFF" offset="0"/>
<stop stop-color="#A2C2DD" offset="0.35"/>
<stop stop-color="#6C83BB" offset="0.7"/>
<stop stop-color="#003D6D" offset="1"/>
</linearGradient>
<path fill="url(#_73)" d="M25.677,19.71l-1.532,33.379l4.442-3.377c1.483-6.537,3.397-22.959,2.439-32.544L25.677,19.71z"/>
<linearGradient id="_74" gradientUnits="userSpaceOnUse" x1="6.92" y1="11.81" x2="31.75" y2="20.36">
<stop stop-color="#FFFFFF" offset="0.15"/>
<stop stop-color="#A2C2DD" offset="1"/>
</linearGradient>
<path fill="url(#_74)" d="M5.823,14.999c0,0,7.909-2.185,8.991-2.152c3.86-0.134,9.889,0.25,14.546,4.574l-5.644,2.685 L5.823,14.999z"/>
<linearGradient id="_75" gradientUnits="userSpaceOnUse" x1="27.56" y1="15.35" x2="22.88" y2="64.77">
<stop stop-color="#FFFFFF" offset="0"/>
<stop stop-color="#A2C2DD" offset="0.35"/>
<stop stop-color="#6C83BB" offset="0.7"/>
<stop stop-color="#003D6D" offset="1"/>
</linearGradient>
<path fill="url(#_75)" d="M23.713,20.105l-1.25,35.09l4.304-3.463c1.559-6.893,3.603-24.201,2.59-34.308L23.713,20.105z"/>
<linearGradient id="_76" gradientUnits="userSpaceOnUse" x1="18.74" y1="16.23" x2="27.88" y2="16.7">
<stop stop-color="#FFFFFF" offset="0"/>
<stop stop-color="#A2C2DD" offset="0.35"/>
<stop stop-color="#6C83BB" offset="0.7"/>
<stop stop-color="#003D6D" offset="1"/>
</linearGradient>
<path fill="url(#_76)" d="M26.249,16.258c0.124,0.76-0.874,1.334-2.202,1.392c-1.332,0.063-2.49-0.39-2.47-1.298 c0.016-0.58,2.203-1.034,2.203-1.034S26.159,15.688,26.249,16.258z"/>
<linearGradient id="_77" gradientUnits="userSpaceOnUse" x1="21.87" y1="12.19" x2="26.43" y2="12.31">
<stop stop-color="#E6EEF4" offset="0"/>
<stop stop-color="#337CE5" offset="0.44"/>
<stop stop-color="#003D6D" offset="0.94"/>
</linearGradient>
<path fill="url(#_77)" d="M22.264,7.462l0.28,9c0.302,0.64,2.406,0.77,2.729-0.078l1.29-8.601L22.264,7.462z"/>
<linearGradient id="_78" gradientUnits="userSpaceOnUse" x1="20.23" y1="12.95" x2="8.17" y2="56.86">
<stop stop-color="#FFFFFF" offset="0.05"/>
<stop stop-color="#A2C2DD" offset="1"/>
</linearGradient>
<path fill="url(#_78)" d="M5.823,14.999c3.871-1.265,12.081-0.215,17.892,5.106c0.682,9.541,0.13,26.111-1.25,35.094 c-4.688,0.119-11.302-3.035-14.798-6.063C6.516,41.113,5.093,24.589,5.823,14.999z"/>
<linearGradient id="_79" gradientUnits="userSpaceOnUse" x1="24.21" y1="44.83" x2="8.17" y2="17.9">
<stop stop-color="#FFFFFF" offset="0.05"/>
<stop stop-color="#A2C2DD" offset="1"/>
</linearGradient>
<polygon fill="url(#_79)" points="7.749,17.314 8.348,37.539 21.299,42.312 21.728,21.33 "/>
<linearGradient id="_80" gradientUnits="userSpaceOnUse" x1="8.77" y1="48.41" x2="8.77" y2="8.48">
<stop stop-color="#FFFFFF" offset="0"/>
<stop stop-color="#A2C2DD" offset="0.35"/>
<stop stop-color="#6C83BB" offset="0.7"/>
<stop stop-color="#003D6D" offset="1"/>
</linearGradient>
<polygon fill="url(#_80)" points="9.795,36.664 9.421,17.788 7.749,17.314 8.348,37.539 "/>
<linearGradient id="_81" gradientUnits="userSpaceOnUse" x1="22.81" y1="42.82" x2="-1.78" y2="31.34">
<stop stop-color="#FFFFFF" offset="0.15"/>
<stop stop-color="#A2C2DD" offset="1"/>
</linearGradient>
<polygon fill="url(#_81)" points="8.348,37.539 9.795,36.664 21.346,40.662 21.299,42.312 "/>
<linearGradient id="_82" gradientUnits="userSpaceOnUse" x1="22.2" y1="7.27" x2="27.94" y2="8.21">
<stop stop-color="#D6E4F3" offset="0"/>
<stop stop-color="#337CE5" offset="1"/>
</linearGradient>
<path fill="url(#_82)" d="M26.654,7.898c-0.172,0.49-1.298,0.772-2.512,0.63c-1.21-0.142-2.03-0.658-1.836-1.146 c0.196-0.49,1.304-0.771,2.492-0.628C25.986,6.896,26.818,7.41,26.654,7.898z"/>
<linearGradient id="_83" gradientUnits="userSpaceOnUse" x1="10.68" y1="33.41" x2="21.07" y2="50.69">
<stop stop-color="#E6EEF4" offset="0"/>
<stop stop-color="#337CE5" offset="0.44"/>
<stop stop-color="#003D6D" offset="0.94"/>
</linearGradient>
<polygon fill="url(#_83)" points="16.881,47.238 20.35,48.703 20.488,46.203 16.953,44.742 "/>
<polygon fill="url(#_83)" points="20.52,45.552 20.659,43.06 17.045,41.712 16.974,44.097 "/>
<polygon fill="url(#_83)" points="16.86,47.886 16.797,50.146 20.192,51.656 20.316,49.355 "/>
<polygon fill="url(#_83)" points="12.087,42.777 9.035,41.566 9.194,44.089 12.18,45.292 "/>
<polygon fill="url(#_83)" points="16.297,43.863 16.323,41.488 12.818,40.207 12.858,42.484 "/>
<polygon fill="url(#_83)" points="11.976,39.859 8.85,38.734 8.995,40.917 12.06,42.125 "/>
<polygon fill="url(#_83)" points="12.974,48.519 16.228,49.937 16.253,47.671 12.932,46.292 "/>
<polygon fill="url(#_83)" points="12.201,45.949 9.238,44.74 9.377,46.937 12.283,48.179 "/>
<polygon fill="url(#_83)" points="12.873,43.134 12.921,45.64 16.262,47.023 16.287,44.511 "/>
<polygon fill="url(#_83)" points="12.988,49.179 13.028,51.464 16.196,52.941 16.222,50.593 "/>
<linearGradient id="_93" gradientUnits="userSpaceOnUse" x1="39.54" y1="3.51" x2="48.13" y2="17.79">
<stop stop-color="#E6EEF4" offset="0"/>
<stop stop-color="#337CE5" offset="0.44"/>
<stop stop-color="#003D6D" offset="0.94"/>
</linearGradient>
<polygon fill="url(#_93)" points="44.666,14.938 47.535,16.148 47.648,14.084 44.724,12.875 "/>
<polygon fill="url(#_93)" points="47.677,13.543 47.789,11.482 44.801,10.368 44.744,12.342 "/>
<polygon fill="url(#_93)" points="44.65,15.474 44.595,17.342 47.404,18.593 47.506,16.688 "/>
<polygon fill="url(#_93)" points="40.701,11.249 38.177,10.249 38.31,12.334 40.779,13.33 "/>
<polygon fill="url(#_93)" points="44.181,12.148 44.203,10.184 41.306,9.124 41.342,11.008 "/>
<polygon fill="url(#_93)" points="40.607,8.836 38.025,7.906 38.142,9.712 40.677,10.709 "/>
<polygon fill="url(#_93)" points="41.435,15.999 44.127,17.17 44.146,15.298 41.4,14.156 "/>
<polygon fill="url(#_93)" points="40.795,13.874 38.345,12.874 38.461,14.69 40.861,15.718 "/>
<polygon fill="url(#_93)" points="41.349,11.543 41.39,13.616 44.154,14.76 44.174,12.684 "/>
<polygon fill="url(#_93)" points="41.447,16.543 41.48,18.434 44.099,19.656 44.121,17.714 "/>
</svg>