<?xml version="1.0" encoding="UTF-8"?>
<!DOCTYPE svg PUBLIC "-//W3C//DTD SVG 1.1 Tiny//EN" "http://www.w3.org/Graphics/SVG/1.1/DTD/svg11-tiny.dtd">
<svg width="96" height="96" viewBox="0 0 96 96">
<path d="M14.051,14.071l21.132,21.132c0.843-0.843,6.58-5.673,12.815-5.673c6.206,0,12.007,4.775,12.851,5.618 l21.073-21.101C72.866,4.988,60.822,0,48.008,0C35.182,0,23.122,4.998,14.051,14.071z" fill-opacity="0.01" />
<path d="M15.585,15.606l19.598,19.597c1.253-1.253,6.933-5.673,12.815-5.673c5.821,0,11.597,4.366,12.851,5.618 l19.538-19.566C71.74,6.933,60.241,2.171,48.008,2.171C35.763,2.171,24.248,6.943,15.585,15.606z" fill-opacity="0.02" />
<path d="M17.12,17.141l18.063,18.062c1.664-1.664,7.296-5.673,12.815-5.673c5.403,0,11.188,3.958,12.851,5.618 l18.003-18.031C70.615,8.878,59.662,4.342,48.008,4.342C36.343,4.343,25.373,8.888,17.12,17.141z" fill-opacity="0.04" />
<path d="M18.657,18.676l16.525,16.526c2.074-2.074,7.771-5.673,12.815-5.673c5.02,0,10.777,3.549,12.851,5.618 l16.468-16.496C69.49,10.824,59.082,6.514,48.008,6.514C36.923,6.514,26.498,10.833,18.657,18.676z" fill-opacity="0.07" />
<path d="M20.192,20.211l14.99,14.991c2.483-2.483,8.279-5.673,12.815-5.673c4.498,0,10.368,3.14,12.851,5.618 l14.933-14.96C68.365,12.77,58.502,8.685,48.008,8.685C37.502,8.685,27.623,12.778,20.192,20.211z" fill-opacity="0.11" />
<path d="M48.008,10.856c-9.926,0-19.259,3.868-26.28,10.891l13.455,13.456c2.894-2.894,8.723-5.673,12.815-5.673 c3.934,0,9.958,2.731,12.851,5.618l13.398-13.425C67.239,14.715,57.921,10.856,48.008,10.856z" fill-opacity="0.13" />
<path d="M48.001,30.508c4.824,0,9.191,1.953,12.356,5.111l12.356-12.381c-13.648-13.65-35.788-13.639-49.45,0.024 L35.633,35.63C38.798,32.465,43.171,30.508,48.001,30.508z" fill="#235487"/>
<linearGradient id="_3" gradientUnits="userSpaceOnUse" x1="47.95" y1="29.7" x2="47.95" y2="13.66">
<stop stop-color="#CADCEC" offset="0"/>
<stop stop-color="#87A8CB" offset="1"/>
</linearGradient>
<path d="M47.839,13.894c-8.748,0-17.044,3.294-23.367,9.118C25.5,24.053,35.12,33.53,36.059,34.479 c3.341-3.098,7.105-4.778,11.665-4.778c4.553,0,8.822,1.714,12.162,4.806c0.937-0.951,10.522-10.449,11.551-11.491 C65.082,17.009,56.572,13.894,47.839,13.894z" fill="url(#_3)"/>
<path d="M71.536,23.016c-13.22-12.265-33.886-12.252-47.093,0h1.046c12.762-11.333,32.229-11.346,45.001,0 H71.536z" fill="#235487"/>
<linearGradient id="_4" gradientUnits="userSpaceOnUse" x1="47.99" y1="20.5" x2="47.99" y2="34.43">
<stop stop-color="#235487" offset="0.18"/>
<stop stop-color="#496DA2" offset="0.4"/>
<stop stop-color="#496DA2" offset="0.64"/>
<stop stop-color="#87A8CB" offset="0.9"/>
</linearGradient>
<path d="M70.464,22.994c-0.896,0.882-9.973,9.88-10.689,10.588c-3.434-2.605-7.592-4.072-11.82-4.072 c-4.225,0-8.378,1.463-11.808,4.062c-0.558-0.55-9.72-9.609-10.684-10.56h-0.991c1.318,1.305,10.482,10.375,11.587,11.468 c3.359-2.725,7.521-4.27,11.896-4.27c4.378,0,8.569,1.564,11.932,4.297c1.106-1.093,10.301-10.208,11.625-11.513H70.464z" fill="url(#_4)"/>
<polygon fill="#235487" points="45.806,17.425 45.806,28.442 38.302,22.846 "/>
<polygon fill="#033275" points="45.806,17.425 45.385,18.262 38.68,23.14 38.302,22.846 "/>
<polygon fill="#033275" points="45.801,28.438 45.385,28.146 45.385,18.262 45.806,17.425 "/>
<rect fill="#235487" height="11.017" width="2.81" x="49.596" y="17.427"/>
<rect fill="#033275" height="0.443" width="2.81" x="49.596" y="17.423"/>
<polygon fill="#033275" points="50.031,28.442 49.594,28.442 49.594,17.429 50.038,17.429 "/>
</svg>