<?xml version="1.0" encoding="UTF-8"?>
<!DOCTYPE svg PUBLIC "-//W3C//DTD SVG 1.1 Tiny//EN" "http://www.w3.org/Graphics/SVG/1.1/DTD/svg11-tiny.dtd">
<svg width="60" height="52" viewBox="-0.785 0.161 60 52">
<linearGradient id="_4" gradientUnits="userSpaceOnUse" x1="29.21" y1="7.36" x2="29.21" y2="45.76">
<stop stop-color="#7D9CAD" offset="0"/>
<stop stop-color="#576F96" offset="0.73"/>
<stop stop-color="#4F6691" offset="1"/>
</linearGradient>
<path d="M50.955,6.162H7.475c-1.246,0-2.26,1.014-2.26,2.259v35.481c0,1.246,1.014,2.26,2.26,2.26h43.48 c1.246,0,2.26-1.014,2.26-2.26V8.421C53.215,7.176,52.201,6.162,50.955,6.162z M52.215,43.902c0,0.694-0.564,1.26-1.26,1.26 H7.475c-0.695,0-1.26-0.565-1.26-1.26V8.421c0-0.694,0.564-1.259,1.26-1.259h43.48c0.695,0,1.26,0.564,1.26,1.259V43.902z" fill="url(#_4)"/>
<g fill-opacity="0.7" stroke-opacity="0.7">
<linearGradient id="_5" gradientUnits="userSpaceOnUse" x1="29.22" y1="50.7" x2="29.22" y2="5.58">
<stop stop-color="#ADB5A8" offset="0.03"/>
<stop stop-color="#C7D9D9" offset="0.26"/>
<stop stop-color="#FFFFFF" offset="0.72"/>
</linearGradient>
<path d="M50.955,7.162H7.475c-0.695,0-1.26,0.564-1.26,1.259v35.481c0,0.694,0.564,1.26,1.26,1.26 h43.48c0.695,0,1.26-0.565,1.26-1.26V8.421C52.215,7.727,51.65,7.162,50.955,7.162z" fill="url(#_5)"/>
</g>
<path d="M51.834,7.539c-0.244-0.252-0.529-0.377-0.879-0.377H7.475c-0.695,0-1.26,0.564-1.26,1.259v35.481 c0,0.346,0.143,0.652,0.373,0.873c0.002,0.013,0.627-0.628,0.627-0.628V8.162h44L51.834,7.539z" fill="#FFFFFF"/>
<linearGradient id="_6" gradientUnits="userSpaceOnUse" x1="29.41" y1="12.3" x2="29.41" y2="51.77">
<stop stop-color="#CADCEC" offset="0"/>
<stop stop-color="#809CB3" offset="1"/>
</linearGradient>
<path d="M6.598,44.784c0.242,0.252,0.529,0.377,0.877,0.377h43.482c0.693,0,1.258-0.564,1.258-1.259 V8.421c0-0.346-0.143-0.652-0.371-0.873c-0.004-0.013-0.629,0.628-0.629,0.628s0,35.206,0,35.985c-0.738,0-43.998,0-43.998,0 L6.598,44.784z" fill="url(#_6)"/>
<rect fill="#496DA2" height="20" transform="matrix(0.7072 0.707 -0.707 0.7072 27.0496 -12.9963)" width="3.771" x="27.331" y="16.162"/>
<circle cx="23.665" cy="20.611" fill="#496DA2" r="3.15"/>
<circle cx="34.766" cy="31.712" fill="#496DA2" r="3.15"/>
</svg>