<?xml version="1.0" encoding="UTF-8"?>
<!DOCTYPE svg PUBLIC "-//W3C//DTD SVG 1.1 Tiny//EN" "http://www.w3.org/Graphics/SVG/1.1/DTD/svg11-tiny.dtd">
<svg width="70" height="22.001" viewBox="0 0 70 22.001">
<path d="M30.013,5c0,2.757,2.243,5,5,5s5-2.243,5-5s-2.243-5-5-5S30.013,2.243,30.013,5z M32.013,5 c0-1.654,1.346-3,3-3s3,1.346,3,3s-1.346,3-3,3S32.013,6.654,32.013,5z"/>
<path d="M18.013,9c0,2.757,2.243,5,5,5s5-2.243,5-5s-2.243-5-5-5S18.013,6.243,18.013,9z M20.013,9 c0-1.654,1.346-3,3-3s3,1.346,3,3s-1.346,3-3,3S20.013,10.654,20.013,9z"/>
<path d="M42.013,11c0,2.757,2.243,5,5,5s5-2.243,5-5s-2.243-5-5-5S42.013,8.243,42.013,11z M44.013,11 c0-1.654,1.346-3,3-3s3,1.346,3,3s-1.346,3-3,3S44.013,12.654,44.013,11z"/>
<path d="M52.787,20.562C51.281,17.003,50.457,17,50.013,17h-6c-0.286,0-0.806,0-1.725,1.459 C41.298,15.651,39.442,11,38.013,11h-6c-1.386,0-2.85,3.313-3.833,6.322C27.062,15.011,26.448,15,26.013,15h-6 c-1.085,0-2.326,1.86-3.688,5.528L16,22.001h2c0,0,1.921-4.59,2.31-5.001h5.387c0.231,0.291,0.78,1.214,1.609,3.385 c-0.188,0.784-0.294,1.374-0.294,1.615h2c0-1.714,2.438-7.995,3.317-9h5.305c0.69,0.935,2.491,5.15,3.376,7.943 c-0.125,0.315-0.248,0.704-0.248,1.057l1.999,0.001c0,0,1.324-2.664,1.598-3.001h5.344c0.22,0.27,1.563,3.001,1.563,3.001h1.997 C53.263,21.454,52.956,20.854,52.787,20.562z"/>
</svg>