<?xml version="1.0" encoding="UTF-8"?>
<!DOCTYPE svg PUBLIC "-//W3C//DTD SVG 1.1 Tiny//EN" "http://www.w3.org/Graphics/SVG/1.1/DTD/svg11-tiny.dtd">
<svg baseProfile="tiny" height="100%" version="1.1" viewBox="0 0 44 44" width="100%" xmlns="http://www.w3.org/2000/svg" xmlns:xlink="http://www.w3.org/1999/xlink">
<g>
<rect fill="none" height="44" width="44"/>
<rect fill="none" height="44" width="44"/>
<g>
<linearGradient gradientTransform="matrix(1 0 0 -1 0 33.2949)" gradientUnits="userSpaceOnUse" id="XMLID_18_" x1="27.0488" x2="30.3784" y1="3.7925" y2="-1.9586">
<stop offset="0" style="stop-color:#AABBD7"/>
<stop offset="0.2634" style="stop-color:#92A5CC"/>
<stop offset="0.7135" style="stop-color:#6C83BB"/>
<stop offset="0.7571" style="stop-color:#637DB5"/>
<stop offset="0.8268" style="stop-color:#4C6EA4"/>
<stop offset="0.9134" style="stop-color:#265689"/>
<stop offset="0.9888" style="stop-color:#003D6D"/>
<stop offset="1" style="stop-color:#003D6D"/>
</linearGradient>
<path d="M40.314,9.415c-1.332,1.579-3.471,3.102-6.391,4.428c-0.26-0.636-3.412-8.369-3.412-8.369    L13.63,13.002L3.071,25.235l0.625,1.584l3.434,1.658L7.057,38.903l19.49,0.021v-1.572l1.02,0.51l8.905-15.387l0.218-1.854    c0,0-0.926-2.303-1.014-2.52c1.551-1.615,4.582-6.428,5.24-8.357C41.016,9.331,40.512,9.16,40.314,9.415z" fill="url(#XMLID_18_)"/>
<g>
<g>
<g>
<g>
<linearGradient gradientUnits="userSpaceOnUse" id="XMLID_19_" x1="26.9658" x2="25.4658" y1="3.4946" y2="12.4946">
<stop offset="0" style="stop-color:#6C83BB"/>
<stop offset="0.2927" style="stop-color:#7F9AC7"/>
<stop offset="0.7432" style="stop-color:#99B7D7"/>
<stop offset="1" style="stop-color:#A2C2DD"/>
</linearGradient>
<polygon fill="url(#XMLID_19_)" points="30.326,5.944 13.952,13.219 12.755,15.363 35.508,21.908 36.334,20.675       "/>
<linearGradient gradientUnits="userSpaceOnUse" id="XMLID_20_" x1="26.8076" x2="23.1092" y1="10.0938" y2="20.6106">
<stop offset="0" style="stop-color:#FFFFFF"/>
<stop offset="1" style="stop-color:#A2C2DD"/>
</linearGradient>
<polygon fill="url(#XMLID_20_)" points="13.844,13.291 36.196,20.653 27.404,27.069 11.53,16.278       "/>
<linearGradient gradientTransform="matrix(1 0 0 -1 0 33.2949)" gradientUnits="userSpaceOnUse" id="XMLID_21_" x1="29.7451" x2="25.1348" y1="-6.0825" y2="15.8478">
<stop offset="0" style="stop-color:#FFFFFF"/>
<stop offset="0.0961" style="stop-color:#E4EDF5"/>
<stop offset="0.2832" style="stop-color:#B4CEE4"/>
<stop offset="0.3764" style="stop-color:#A2C2DD"/>
<stop offset="0.5762" style="stop-color:#8EABD1"/>
<stop offset="0.8652" style="stop-color:#6C83BB"/>
<stop offset="0.8865" style="stop-color:#637DB5"/>
<stop offset="0.9207" style="stop-color:#4C6EA4"/>
<stop offset="0.9631" style="stop-color:#265689"/>
<stop offset="1" style="stop-color:#003D6D"/>
</linearGradient>
<polygon fill="url(#XMLID_21_)" points="13.86,13.33 18.456,21.235 21.964,22.278 36.321,20.674 16.834,27.951       "/>
<linearGradient gradientTransform="matrix(1 0 0 -1 0 33.2949)" gradientUnits="userSpaceOnUse" id="XMLID_22_" x1="30.0537" x2="22.3797" y1="-5.7012" y2="6.4773">
<stop offset="0" style="stop-color:#FFFFFF"/>
<stop offset="0.1894" style="stop-color:#F4F8FB"/>
<stop offset="0.5232" style="stop-color:#D6E4F0"/>
<stop offset="0.9595" style="stop-color:#A7C5DF"/>
<stop offset="1" style="stop-color:#A2C2DD"/>
</linearGradient>
<polygon fill="url(#XMLID_22_)" points="3.523,25.233 13.849,13.292 18.192,21.937 22.06,23.239 36.365,20.674 27.383,35.704               "/>
<linearGradient gradientTransform="matrix(1 0 0 -1 0 33.2949)" gradientUnits="userSpaceOnUse" id="XMLID_23_" x1="14.7832" x2="10.2321" y1="-8.9595" y2="12.6889">
<stop offset="0" style="stop-color:#FFFFFF"/>
<stop offset="0.0961" style="stop-color:#E4EDF5"/>
<stop offset="0.2832" style="stop-color:#B4CEE4"/>
<stop offset="0.3764" style="stop-color:#A2C2DD"/>
<stop offset="0.5762" style="stop-color:#8EABD1"/>
<stop offset="0.8652" style="stop-color:#6C83BB"/>
<stop offset="0.8865" style="stop-color:#637DB5"/>
<stop offset="0.9207" style="stop-color:#4C6EA4"/>
<stop offset="0.9631" style="stop-color:#265689"/>
<stop offset="1" style="stop-color:#003D6D"/>
</linearGradient>
<polygon fill="url(#XMLID_23_)" points="3.523,25.233 17.68,20.829 18.192,21.937       "/>
<linearGradient gradientTransform="matrix(1 0 0 -1 0 33.2949)" gradientUnits="userSpaceOnUse" id="XMLID_24_" x1="26.9316" x2="22.307" y1="-6.7178" y2="15.2809">
<stop offset="0" style="stop-color:#FFFFFF"/>
<stop offset="0.0961" style="stop-color:#E4EDF5"/>
<stop offset="0.2832" style="stop-color:#B4CEE4"/>
<stop offset="0.3764" style="stop-color:#A2C2DD"/>
<stop offset="0.5762" style="stop-color:#8EABD1"/>
<stop offset="0.8652" style="stop-color:#6C83BB"/>
<stop offset="0.8865" style="stop-color:#637DB5"/>
<stop offset="0.9207" style="stop-color:#4C6EA4"/>
<stop offset="0.9631" style="stop-color:#265689"/>
<stop offset="1" style="stop-color:#003D6D"/>
</linearGradient>
<polygon fill="url(#XMLID_24_)" points="27.378,35.731 23.867,22.927 22.06,23.239       "/>
</g>
</g>
<linearGradient gradientTransform="matrix(1 0 0 -1 0 33.2949)" gradientUnits="userSpaceOnUse" id="XMLID_25_" x1="30.5654" x2="34.0229" y1="5.2905" y2="2.6014">
<stop offset="0" style="stop-color:#BFD5E8"/>
<stop offset="0.3034" style="stop-color:#B6C6DD"/>
<stop offset="0.7753" style="stop-color:#3F5AA6"/>
<stop offset="1" style="stop-color:#003D6D"/>
</linearGradient>
<polygon fill="url(#XMLID_25_)" points="36.334,20.675 27.362,35.685 27.448,37.395 36.135,22.365     "/>
<linearGradient gradientTransform="matrix(1 0 0 -1 0 33.2949)" gradientUnits="userSpaceOnUse" id="XMLID_26_" x1="15.9849" x2="14.979" y1="3.1021" y2="0.8031">
<stop offset="0" style="stop-color:#FFFFFF"/>
<stop offset="0.0527" style="stop-color:#ECF0F6"/>
<stop offset="0.1975" style="stop-color:#BCCAE0"/>
<stop offset="0.2697" style="stop-color:#AABBD7"/>
<stop offset="0.4226" style="stop-color:#95A8CE"/>
<stop offset="0.6685" style="stop-color:#6C83BB"/>
<stop offset="0.9551" style="stop-color:#003D6D"/>
<stop offset="1" style="stop-color:#003D6D"/>
</linearGradient>
<polygon fill="url(#XMLID_26_)" points="27.362,35.685 3.536,25.229 3.977,26.495 27.465,37.373     "/>
</g>
<g>
<g>
<g>
<g>
<linearGradient gradientUnits="userSpaceOnUse" id="XMLID_27_" x1="8.2822" x2="29.1694" y1="17.8047" y2="51.6884">
<stop offset="0" style="stop-color:#FFFFFF"/>
<stop offset="1" style="stop-color:#A2C2DD"/>
</linearGradient>
<polygon fill="url(#XMLID_27_)" points="7.577,24.507 7.505,38.531 26.044,38.498 26.005,24.566        "/>
</g>
</g>
</g>
<g>
<linearGradient gradientTransform="matrix(-33.5852 17.0622 -17.0622 -33.5852 -943.9559 18738.8945)" gradientUnits="userSpaceOnUse" id="XMLID_28_" x1="-247.9121" x2="-247.3825" y1="431.1846" y2="431.1846">
<stop offset="0" style="stop-color:#E6EEF4"/>
<stop offset="0.1531" style="stop-color:#D7A6A9"/>
<stop offset="0.2903" style="stop-color:#CA6C6D"/>
<stop offset="0.3908" style="stop-color:#C34848"/>
<stop offset="0.4438" style="stop-color:#C03A3A"/>
<stop offset="0.5273" style="stop-color:#9E372D"/>
<stop offset="0.6603" style="stop-color:#6F331B"/>
<stop offset="0.778" style="stop-color:#4D300D"/>
<stop offset="0.8747" style="stop-color:#382E05"/>
<stop offset="0.9382" style="stop-color:#302D02"/>
<stop offset="1" style="stop-color:#302D02"/>
</linearGradient>
<path d="M18.394,34.409L18.394,34.409c-1.658,0.92-4.235-0.273-4.253-2.691       c-0.017-2.736,3.518-4.277,5.431-1.853l0.024,3.554c2.439,0.484,2.826-5.627-2.459-5.957c-2.339-0.145-4.221,1.92-4.204,4.338       c0.022,3.56,4.508,5.16,6.525,3.436c0.003,0.296,0.009,1.361,0.009,1.361c-2.286,1.451-7.915-0.037-7.739-4.863       c0.264-7.271,10.364-7.023,10.803-0.678C22.737,34.065,20.233,35.313,18.394,34.409z M18.385,33.048       c-0.006-0.654-0.019-2.72-0.019-2.72c-1.065-0.976-3.027-0.282-3.015,1.38C15.362,33.372,17.333,34.04,18.385,33.048z" fill="url(#XMLID_28_)"/>
</g>
</g>
<g>
<g>
<g>
<linearGradient gradientTransform="matrix(1.1364 0 0 1.1364 38.1814 -803.7913)" gradientUnits="userSpaceOnUse" id="XMLID_29_" x1="0.4272" x2="-18.1072" y1="721.2686" y2="731.46">
<stop offset="0" style="stop-color:#E6EEF4"/>
<stop offset="0.4438" style="stop-color:#C03A3A"/>
<stop offset="0.9382" style="stop-color:#302D02"/>
<stop offset="1" style="stop-color:#302D02"/>
</linearGradient>
<path d="M21.924,22.219l12.868-1.438c0,0,0.864-0.793,1.29-1.225l-0.857-2.361        l1.095-2.094L21.924,22.219z" fill="url(#XMLID_29_)" fill-opacity="0.4"/>
<linearGradient gradientTransform="matrix(1.1364 0 0 1.1364 38.1814 -803.7913)" gradientUnits="userSpaceOnUse" id="XMLID_30_" x1="1.8359" x2="-18.5679" y1="720.5586" y2="731.778">
<stop offset="0" style="stop-color:#E6EEF4"/>
<stop offset="0.4438" style="stop-color:#C03A3A"/>
<stop offset="0.9382" style="stop-color:#302D02"/>
<stop offset="1" style="stop-color:#302D02"/>
</linearGradient>
<path d="M23.828,22.867l-1.417,0.246l-0.04-0.141c0,0-9.22,3.225-9.302,3.643        c1.093,0.186,4.755-1.096,5.77-1.488c1.271,0.674,3.185,1.053,4.438,1.006c0.454-0.016,0.926-0.064,1.407-0.139        c2.851-0.445,7.079-2.492,9.999-5.098L23.828,22.867z" fill="url(#XMLID_30_)" fill-opacity="0.4"/>
</g>
</g>
<g>
<linearGradient gradientTransform="matrix(1.1364 0 0 1.1364 38.1814 -803.7913)" gradientUnits="userSpaceOnUse" id="XMLID_31_" x1="-6.5938" x2="-9.0329" y1="712.2197" y2="732.0383">
<stop offset="0" style="stop-color:#E6EEF4"/>
<stop offset="0.4438" style="stop-color:#C03A3A"/>
<stop offset="0.9382" style="stop-color:#302D02"/>
<stop offset="1" style="stop-color:#302D02"/>
</linearGradient>
<path d="M22.713,19.191l0.018-0.637l-2.141,2.219l0.037-0.617l-2.6,4.16       c4.752,3.211,16.337-1.002,22.488-14.592C38.025,13.934,22.713,19.191,22.713,19.191z" fill="url(#XMLID_31_)"/>
<linearGradient gradientTransform="matrix(1.1364 0 0 1.1364 38.1814 -803.7913)" gradientUnits="userSpaceOnUse" id="XMLID_32_" x1="-15.3071" x2="-7.6781" y1="731.7285" y2="722.115">
<stop offset="0" style="stop-color:#E3DFE4"/>
<stop offset="1" style="stop-color:#C03A3A"/>
</linearGradient>
<path d="M40.545,9.584c-4.577,5.438-14.74,6.91-16.979,8.531c-1.83,1.76-3.01,3.811-3.01,3.811       c0.313-1.117,1.549-2.604,2.18-3.398c-0.414,0.271-0.799,0.555-1.155,0.854c-1.097,1.322-1.899,2.92-1.899,2.92       c0.229-0.752,0.641-1.584,0.956-2.164c-1.622,1.568-2.534,3.521-2.517,3.539C21.328,26.516,33.282,23.598,40.545,9.584z" fill="url(#XMLID_32_)"/>
<g>
<linearGradient gradientTransform="matrix(1.1364 0 0 1.1364 38.1814 -803.7913)" gradientUnits="userSpaceOnUse" id="XMLID_33_" x1="0.8398" x2="-20.0603" y1="714.9053" y2="731.4054">
<stop offset="0" style="stop-color:#E6EEF4"/>
<stop offset="0.4438" style="stop-color:#C03A3A"/>
<stop offset="0.9382" style="stop-color:#302D02"/>
<stop offset="1" style="stop-color:#302D02"/>
</linearGradient>
<path d="M15.957,25.447l-3.451,0.885c0,0,19.477-8.539,25.563-13.883        C30.626,19.643,21.183,23.143,15.957,25.447z" fill="url(#XMLID_33_)"/>
</g>
<g>
<linearGradient gradientTransform="matrix(0.1593 0.0557 -0.0557 0.1593 149.5415 -1799.4167)" gradientUnits="userSpaceOnUse" id="XMLID_34_" x1="2864.1934" x2="2866.5967" y1="10419.167" y2="10421.5703">
<stop offset="0" style="stop-color:#E3DFE4"/>
<stop offset="1" style="stop-color:#C03A3A"/>
</linearGradient>
<path d="M15.351,25.273c-0.948,0.357-1.876,0.662-2.743,0.826c6.672-3.541,18.221-7.672,25.461-13.65        C31.405,18.516,21.242,22.645,15.351,25.273z" fill="url(#XMLID_34_)"/>
</g>
<path d="M14.706,24.984c0.646-0.299,1.251,0.463,1.251,0.463s-3.436,1.318-3.638,0.809       C12.318,26.256,13.372,25.6,14.706,24.984z" fill="#334EA2"/>
</g>
</g>
</g>
</g>
</g>
</svg>
