<?xml version="1.0" encoding="UTF-8"?>
<!DOCTYPE svg PUBLIC "-//W3C//DTD SVG 1.1 Tiny//EN" "http://www.w3.org/Graphics/SVG/1.1/DTD/svg11-tiny.dtd">
<svg width="332" height="82" viewBox="-0.854 0.119 332 82">
<g fill-opacity="0.7" stroke-opacity="0.7">
<path fill-opacity="0.01" fill="#656B6B" d="M11.146,1.119c-4.963,0-9,4.037-9,9v52c0,4.963,4.037,9,9,9h306c4.963,0,9-4.037,9-9v-52 c0-4.963-4.037-9-9-9H11.146z"/>
<path fill-opacity="0.03" fill="#656B6B" d="M11.146,2.119c-4.41,0-8,3.59-8,8v52c0,4.412,3.59,8,8,8h306c4.412,0,8-3.588,8-8v-52 c0-4.41-3.588-8-8-8H11.146z"/>
<path fill-opacity="0.05" fill="#656B6B" d="M11.146,3.119c-3.859,0-7,3.141-7,7v52c0,3.859,3.141,7,7,7h306c3.859,0,7-3.141,7-7v-52 c0-3.859-3.141-7-7-7H11.146z"/>
<path fill-opacity="0.07" fill="#656B6B" d="M11.146,4.119c-3.309,0-6,2.691-6,6v52c0,3.309,2.691,6,6,6h306c3.309,0,6-2.691,6-6v-52 c0-3.309-2.691-6-6-6H11.146z"/>
<path fill-opacity="0.11" fill="#656B6B" d="M322.146,62.119c0,2.762-2.238,5-5,5h-306c-2.762,0-5-2.238-5-5v-52c0-2.762,2.238-5,5-5 h306c2.762,0,5,2.238,5,5V62.119z"/>
<rect x="5.146" y="4.119" fill="#FFFFFF" width="316" height="62"/>
</g>
</svg>