<?xml version="1.0" encoding="UTF-8"?>
<!DOCTYPE svg PUBLIC "-//W3C//DTD SVG 1.1 Tiny//EN" "http://www.w3.org/Graphics/SVG/1.1/DTD/svg11-tiny.dtd">
<svg baseProfile="tiny" height="44px" version="1.1" viewBox="-7.107 -8.102 44 44" width="44px" x="0px" xmlns="http://www.w3.org/2000/svg" xmlns:xlink="http://www.w3.org/1999/xlink" y="0px">
<path d="M29.042,13.867c-0.025-0.824-0.276-1.559-0.853-2.17L18.615,0.92l-0.042-0.04  C17.974,0.311,17.192,0.002,16.368,0c-0.501,0.002-0.991,0.111-1.455,0.361c-0.273,0.146-0.53,0.325-0.784,0.597  c-0.562,0.565-0.894,1.369-0.897,2.227c0.003,0-0.006,0.043,0.002,0.148l0.019,3.729c-3.245,0.397-9,1.101-9.806,1.211  C2.787,8.373,1.929,8.537,1.153,9.22C0.368,9.91-0.018,11.021,0,12.216v2.946c-0.019,1.203,0.367,2.319,1.16,3.012  c0.785,0.685,1.65,0.842,2.316,0.929c0.656,0.085,6.494,0.799,9.756,1.198v3.708c0.033,1.212,0.679,2.318,1.771,2.858  c0.401,0.205,0.881,0.324,1.356,0.322c0.007,0,0.015,0,0.021,0c0.822,0,1.609-0.366,2.166-0.927l9.589-10.09  c0.544-0.563,0.862-1.309,0.901-2.104l0.006-0.027L29.042,13.867z" fill="#FFFFFF" fill-opacity="0.6" stroke-opacity="0.6"/>
<linearGradient gradientTransform="matrix(1 0 0 1 63.5 0)" gradientUnits="userSpaceOnUse" id="SVGID_1_" x1="-49.1035" x2="-49.1035" y1="-7.9707" y2="17.6322">
<stop offset="0" style="stop-color:#CCCCCC"/>
<stop offset="1" style="stop-color:#000000"/>
</linearGradient>
<path d="M16.236,25.648c-0.24,0-0.475-0.057-0.696-0.17c-0.555-0.271-0.912-0.854-0.932-1.512v-5.035  c-2.611-0.318-10.32-1.262-11.07-1.357c-1.126-0.141-2.163-0.537-2.163-2.453v-2.945c0-1.896,1.031-2.301,2.152-2.457  c0.891-0.123,8.491-1.051,11.105-1.371l-0.024-5.152c-0.015-0.463,0.169-0.93,0.5-1.262c0.101-0.109,0.243-0.215,0.396-0.295  c0.216-0.117,0.476-0.18,0.738-0.18c0.437,0,0.86,0.17,1.169,0.465l9.535,10.732c0.273,0.254,0.467,0.707,0.473,1.188  c0.008,0.471-0.175,0.928-0.494,1.256l-9.558,10.057C17.042,25.479,16.648,25.648,16.236,25.648L16.236,25.648z" fill="url(#SVGID_1_)"/>
<linearGradient gradientUnits="userSpaceOnUse" id="SVGID_2_" x1="18.7876" x2="10.205" y1="25.4805" y2="4.391">
<stop offset="0" style="stop-color:#EBEFAD"/>
<stop offset="0.4945" style="stop-color:#88BA40"/>
<stop offset="1" style="stop-color:#196432"/>
</linearGradient>
<path d="M26.21,13.309L16.729,2.631c-0.197-0.189-0.535-0.248-0.768-0.123c-0.059,0.031-0.11,0.07-0.16,0.119  c-0.14,0.139-0.219,0.346-0.212,0.564l0.026,6.025c0,0-10.896,1.33-11.956,1.475c-0.906,0.127-1.307,0.305-1.307,1.484  c0,1.176,0,1.768,0,2.945c0,1.176,0.397,1.363,1.307,1.479c0.908,0.115,11.93,1.465,11.93,1.465v5.875  c0.008,0.287,0.156,0.547,0.393,0.664c0.231,0.117,0.481,0.066,0.672-0.123l9.562-10.063c0.003-0.002,0.003-0.004,0.006-0.006  c0.141-0.143,0.22-0.344,0.216-0.555C26.434,13.646,26.352,13.443,26.21,13.309z" fill="url(#SVGID_2_)"/>
<linearGradient gradientUnits="userSpaceOnUse" id="SVGID_3_" x1="4.7813" x2="28.7135" y1="11.7305" y2="7.4349">
<stop offset="0" style="stop-color:#62A243"/>
<stop offset="0.9121" style="stop-color:#E2ECB5"/>
<stop offset="1" style="stop-color:#E2ECB5"/>
</linearGradient>
<polygon fill="url(#SVGID_3_)" points="25.269,13.732 16.601,3.93 16.594,9.912 3.104,11.484 3.104,13.719 "/>
</svg>
