<?xml version="1.0" encoding="UTF-8" standalone="no"?>
<!DOCTYPE svg PUBLIC "-//W3C//DTD SVG 1.1 Tiny//EN" "http://www.w3.org/Graphics/SVG/1.1/DTD/svg11-tiny.dtd">
<svg xmlns="http://www.w3.org/2000/svg" xmlns:xlink="http://www.w3.org/1999/xlink" width="32" height="32" viewBox="0 0 32 32">
<rect fill="none" height="32" width="32"/>
<path d="M18.421,17.074l-1.375,2.913l-7.608,0.046L19.76,31.227L32,21.232v-1.328l-5.082,0.031l4.352-9.203 l-10.572-0.021l4.311-9.056H14.984l-7.105,15.49L18.421,17.074z" fill="#FFFFFF"/>
<polygon points="28.309,12.609 17.73,12.58 22.037,3.533 16.178,3.533 10.734,15.17 21.332,15.191 18.195,21.848 13.688,21.848 19.943,28.652 28.342,21.797 23.938,21.848 "/>
<path d="M0.356,20.563L0.109,21.08l0.262,0.515c1.982,3.886,7.119,6.208,10.938,6.208 c4.54,0,9.276-2.595,11.264-6.173l0.329-0.592l-0.354-0.579c-2.302-3.764-7.028-6.496-11.238-6.496 C7.537,13.963,2.416,16.274,0.356,20.563z" fill="#FFFFFF"/>
<path d="M11.327,15.649c-3.339,0-7.403,2.066-9.003,5.398c1.578,3.092,5.816,5.069,9.003,5.069c3.545,0,7.618-2.012,9.315-5.069 C18.767,17.979,14.872,15.649,11.327,15.649z M11.327,24.48c-2.354,0-5.538-1.367-7.083-3.464c1.565-2.346,4.682-3.732,7.083-3.732 c2.589,0,5.448,1.583,7.207,3.79C16.956,23.063,14.113,24.48,11.327,24.48z"/>
<path d="M14.483,20.883c0,1.659-1.343,2.999-2.999,2.999c-1.658,0-3.001-1.34-3.001-2.999c0-1.657,1.343-3.001,3.001-3.001 C13.141,17.882,14.483,19.226,14.483,20.883z"/>
</svg>