<?xml version="1.0" encoding="UTF-8"?>
<!DOCTYPE svg PUBLIC "-//W3C//DTD SVG 1.1 Tiny//EN" "http://www.w3.org/Graphics/SVG/1.1/DTD/svg11-tiny.dtd">
<svg baseProfile="tiny" height="20" version="1.1" viewBox="-0.239 -0.204 306 20" width="306" xmlns="http://www.w3.org/2000/svg" xmlns:xlink="http://www.w3.org/1999/xlink">
<g>
<g>
<g>
<g>
<linearGradient gradientTransform="matrix(1 0 0 -1 0.1577 18.8145)" gradientUnits="userSpaceOnUse" id="XMLID_26_" x1="17.6021" x2="17.6021" y1="18.0186" y2="0.0186">
<stop offset="0" style="stop-color:#FFFFFF"/>
<stop offset="0.1" style="stop-color:#FFFFFF"/>
<stop offset="0.5" style="stop-color:#D3D8DD"/>
<stop offset="1" style="stop-color:#9BA1A8"/>
</linearGradient>
<polygon fill="url(#XMLID_26_)" points="1.761,0.796 19.761,18.796 33.761,18.796 15.761,0.796 "/>
<linearGradient gradientTransform="matrix(1 0 0 -1 0.1577 18.8145)" gradientUnits="userSpaceOnUse" id="XMLID_27_" x1="45.6021" x2="45.6021" y1="18.0186" y2="0.0186">
<stop offset="0" style="stop-color:#FFFFFF"/>
<stop offset="0.1" style="stop-color:#FFFFFF"/>
<stop offset="0.5" style="stop-color:#D3D8DD"/>
<stop offset="1" style="stop-color:#9BA1A8"/>
</linearGradient>
<polygon fill="url(#XMLID_27_)" points="29.761,0.796 47.761,18.796 61.761,18.796 43.761,0.796 "/>
<linearGradient gradientTransform="matrix(1 0 0 -1 0.1577 18.8145)" gradientUnits="userSpaceOnUse" id="XMLID_28_" x1="73.6021" x2="73.6021" y1="18.0186" y2="0.0186">
<stop offset="0" style="stop-color:#FFFFFF"/>
<stop offset="0.1" style="stop-color:#FFFFFF"/>
<stop offset="0.5" style="stop-color:#D3D8DD"/>
<stop offset="1" style="stop-color:#9BA1A8"/>
</linearGradient>
<polygon fill="url(#XMLID_28_)" points="57.761,0.796 75.761,18.796 89.761,18.796 71.761,0.796 "/>
<linearGradient gradientTransform="matrix(1 0 0 -1 0.1577 18.8145)" gradientUnits="userSpaceOnUse" id="XMLID_29_" x1="101.6021" x2="101.6021" y1="18.0186" y2="0.0186">
<stop offset="0" style="stop-color:#FFFFFF"/>
<stop offset="0.1" style="stop-color:#FFFFFF"/>
<stop offset="0.5" style="stop-color:#D3D8DD"/>
<stop offset="1" style="stop-color:#9BA1A8"/>
</linearGradient>
<polygon fill="url(#XMLID_29_)" points="85.761,0.796 103.761,18.796 117.761,18.796 99.761,0.796 "/>
<linearGradient gradientTransform="matrix(1 0 0 -1 0.1577 18.8145)" gradientUnits="userSpaceOnUse" id="XMLID_30_" x1="129.6021" x2="129.6021" y1="18.0186" y2="0.0186">
<stop offset="0" style="stop-color:#FFFFFF"/>
<stop offset="0.1" style="stop-color:#FFFFFF"/>
<stop offset="0.5" style="stop-color:#D3D8DD"/>
<stop offset="1" style="stop-color:#9BA1A8"/>
</linearGradient>
<polygon fill="url(#XMLID_30_)" points="113.761,0.796 131.761,18.796 145.761,18.796 127.761,0.796 "/>
<linearGradient gradientTransform="matrix(1 0 0 -1 0.1577 18.8145)" gradientUnits="userSpaceOnUse" id="XMLID_31_" x1="157.6025" x2="157.6025" y1="18.0186" y2="0.0186">
<stop offset="0" style="stop-color:#FFFFFF"/>
<stop offset="0.1" style="stop-color:#FFFFFF"/>
<stop offset="0.5" style="stop-color:#D3D8DD"/>
<stop offset="1" style="stop-color:#9BA1A8"/>
</linearGradient>
<polygon fill="url(#XMLID_31_)" points="141.761,0.796 159.761,18.796 173.761,18.796 155.761,0.796 "/>
<linearGradient gradientTransform="matrix(1 0 0 -1 0.1577 18.8145)" gradientUnits="userSpaceOnUse" id="XMLID_32_" x1="185.6025" x2="185.6025" y1="18.0186" y2="0.0186">
<stop offset="0" style="stop-color:#FFFFFF"/>
<stop offset="0.1" style="stop-color:#FFFFFF"/>
<stop offset="0.5" style="stop-color:#D3D8DD"/>
<stop offset="1" style="stop-color:#9BA1A8"/>
</linearGradient>
<polygon fill="url(#XMLID_32_)" points="169.761,0.796 187.761,18.796 201.761,18.796 183.761,0.796 "/>
<linearGradient gradientTransform="matrix(1 0 0 -1 0.1577 18.8145)" gradientUnits="userSpaceOnUse" id="XMLID_33_" x1="213.6025" x2="213.6025" y1="18.0186" y2="0.0186">
<stop offset="0" style="stop-color:#FFFFFF"/>
<stop offset="0.1" style="stop-color:#FFFFFF"/>
<stop offset="0.5" style="stop-color:#D3D8DD"/>
<stop offset="1" style="stop-color:#9BA1A8"/>
</linearGradient>
<polygon fill="url(#XMLID_33_)" points="197.761,0.796 215.761,18.796 229.761,18.796 211.761,0.796 "/>
<linearGradient gradientTransform="matrix(1 0 0 -1 0.1577 18.8145)" gradientUnits="userSpaceOnUse" id="XMLID_34_" x1="241.6025" x2="241.6025" y1="18.0186" y2="0.0186">
<stop offset="0" style="stop-color:#FFFFFF"/>
<stop offset="0.1" style="stop-color:#FFFFFF"/>
<stop offset="0.5" style="stop-color:#D3D8DD"/>
<stop offset="1" style="stop-color:#9BA1A8"/>
</linearGradient>
<polygon fill="url(#XMLID_34_)" points="225.761,0.796 243.761,18.796 257.761,18.796 239.761,0.796 "/>
<linearGradient gradientTransform="matrix(1 0 0 -1 0.1577 18.8145)" gradientUnits="userSpaceOnUse" id="XMLID_35_" x1="269.6025" x2="269.6025" y1="18.0186" y2="0.0186">
<stop offset="0" style="stop-color:#FFFFFF"/>
<stop offset="0.1" style="stop-color:#FFFFFF"/>
<stop offset="0.5" style="stop-color:#D3D8DD"/>
<stop offset="1" style="stop-color:#9BA1A8"/>
</linearGradient>
<polygon fill="url(#XMLID_35_)" points="253.761,0.796 271.761,18.796 285.761,18.796 267.761,0.796 "/>
</g>
<g>
<linearGradient gradientTransform="matrix(1 0 0 -1 0.1577 18.8145)" gradientUnits="userSpaceOnUse" id="XMLID_36_" x1="31.6021" x2="31.6021" y1="18.0186" y2="0.7218">
<stop offset="0" style="stop-color:#CFECFF"/>
<stop offset="0.1" style="stop-color:#CFECFF"/>
<stop offset="0.5" style="stop-color:#87A8CB"/>
<stop offset="0.882" style="stop-color:#496DA2"/>
<stop offset="1" style="stop-color:#2B5473"/>
</linearGradient>
<polygon fill="url(#XMLID_36_)" points="15.761,0.796 33.761,18.796 47.761,18.796 29.761,0.796 "/>
<linearGradient gradientTransform="matrix(1 0 0 -1 0.1577 18.8145)" gradientUnits="userSpaceOnUse" id="XMLID_37_" x1="59.6021" x2="59.6021" y1="18.0186" y2="0.7218">
<stop offset="0" style="stop-color:#CFECFF"/>
<stop offset="0.1" style="stop-color:#CFECFF"/>
<stop offset="0.5" style="stop-color:#87A8CB"/>
<stop offset="0.882" style="stop-color:#496DA2"/>
<stop offset="1" style="stop-color:#2B5473"/>
</linearGradient>
<polygon fill="url(#XMLID_37_)" points="43.761,0.796 61.761,18.796 75.761,18.796 57.761,0.796 "/>
<linearGradient gradientTransform="matrix(1 0 0 -1 0.1577 18.8145)" gradientUnits="userSpaceOnUse" id="XMLID_38_" x1="87.6021" x2="87.6021" y1="18.0186" y2="0.7218">
<stop offset="0" style="stop-color:#CFECFF"/>
<stop offset="0.1" style="stop-color:#CFECFF"/>
<stop offset="0.5" style="stop-color:#87A8CB"/>
<stop offset="0.882" style="stop-color:#496DA2"/>
<stop offset="1" style="stop-color:#2B5473"/>
</linearGradient>
<polygon fill="url(#XMLID_38_)" points="71.761,0.796 89.761,18.796 103.761,18.796 85.761,0.796 "/>
<linearGradient gradientTransform="matrix(1 0 0 -1 0.1577 18.8145)" gradientUnits="userSpaceOnUse" id="XMLID_39_" x1="115.6021" x2="115.6021" y1="18.0186" y2="0.7218">
<stop offset="0" style="stop-color:#CFECFF"/>
<stop offset="0.1" style="stop-color:#CFECFF"/>
<stop offset="0.5" style="stop-color:#87A8CB"/>
<stop offset="0.882" style="stop-color:#496DA2"/>
<stop offset="1" style="stop-color:#2B5473"/>
</linearGradient>
<polygon fill="url(#XMLID_39_)" points="99.761,0.796 117.761,18.796 131.761,18.796 113.761,0.796 "/>
<linearGradient gradientTransform="matrix(1 0 0 -1 0.1577 18.8145)" gradientUnits="userSpaceOnUse" id="XMLID_40_" x1="143.6021" x2="143.6021" y1="18.0186" y2="0.7218">
<stop offset="0" style="stop-color:#CFECFF"/>
<stop offset="0.1" style="stop-color:#CFECFF"/>
<stop offset="0.5" style="stop-color:#87A8CB"/>
<stop offset="0.882" style="stop-color:#496DA2"/>
<stop offset="1" style="stop-color:#2B5473"/>
</linearGradient>
<polygon fill="url(#XMLID_40_)" points="127.761,0.796 145.761,18.796 159.761,18.796 141.761,0.796 "/>
<linearGradient gradientTransform="matrix(1 0 0 -1 0.1577 18.8145)" gradientUnits="userSpaceOnUse" id="XMLID_41_" x1="171.6025" x2="171.6025" y1="18.0186" y2="0.7218">
<stop offset="0" style="stop-color:#CFECFF"/>
<stop offset="0.1" style="stop-color:#CFECFF"/>
<stop offset="0.5" style="stop-color:#87A8CB"/>
<stop offset="0.882" style="stop-color:#496DA2"/>
<stop offset="1" style="stop-color:#2B5473"/>
</linearGradient>
<polygon fill="url(#XMLID_41_)" points="155.761,0.796 173.761,18.796 187.761,18.796 169.761,0.796 "/>
<linearGradient gradientTransform="matrix(1 0 0 -1 0.1577 18.8145)" gradientUnits="userSpaceOnUse" id="XMLID_42_" x1="199.6025" x2="199.6025" y1="18.0186" y2="0.7218">
<stop offset="0" style="stop-color:#CFECFF"/>
<stop offset="0.1" style="stop-color:#CFECFF"/>
<stop offset="0.5" style="stop-color:#87A8CB"/>
<stop offset="0.882" style="stop-color:#496DA2"/>
<stop offset="1" style="stop-color:#2B5473"/>
</linearGradient>
<polygon fill="url(#XMLID_42_)" points="183.761,0.796 201.761,18.796 215.761,18.796 197.761,0.796 "/>
<linearGradient gradientTransform="matrix(1 0 0 -1 0.1577 18.8145)" gradientUnits="userSpaceOnUse" id="XMLID_43_" x1="227.6025" x2="227.6025" y1="18.0186" y2="0.7218">
<stop offset="0" style="stop-color:#CFECFF"/>
<stop offset="0.1" style="stop-color:#CFECFF"/>
<stop offset="0.5" style="stop-color:#87A8CB"/>
<stop offset="0.882" style="stop-color:#496DA2"/>
<stop offset="1" style="stop-color:#2B5473"/>
</linearGradient>
<polygon fill="url(#XMLID_43_)" points="211.761,0.796 229.761,18.796 243.761,18.796 225.761,0.796 "/>
<linearGradient gradientTransform="matrix(1 0 0 -1 0.1577 18.8145)" gradientUnits="userSpaceOnUse" id="XMLID_44_" x1="255.6025" x2="255.6025" y1="18.0186" y2="0.7218">
<stop offset="0" style="stop-color:#CFECFF"/>
<stop offset="0.1" style="stop-color:#CFECFF"/>
<stop offset="0.5" style="stop-color:#87A8CB"/>
<stop offset="0.882" style="stop-color:#496DA2"/>
<stop offset="1" style="stop-color:#2B5473"/>
</linearGradient>
<polygon fill="url(#XMLID_44_)" points="239.761,0.796 257.761,18.796 271.761,18.796 253.761,0.796 "/>
<linearGradient gradientTransform="matrix(1 0 0 -1 0.1577 18.8145)" gradientUnits="userSpaceOnUse" id="XMLID_45_" x1="283.6025" x2="283.6025" y1="18.0186" y2="0.7218">
<stop offset="0" style="stop-color:#CFECFF"/>
<stop offset="0.1" style="stop-color:#CFECFF"/>
<stop offset="0.5" style="stop-color:#87A8CB"/>
<stop offset="0.882" style="stop-color:#496DA2"/>
<stop offset="1" style="stop-color:#2B5473"/>
</linearGradient>
<polygon fill="url(#XMLID_45_)" points="267.761,0.796 285.761,18.796 299.761,18.796 281.761,0.796 "/>
<g>
<path d="M2.248,0.796c-0.148,0-0.291,0.025-0.427,0.061l17.939,17.939h280l-18-18H2.248z" fill="none"/>
<linearGradient gradientTransform="matrix(1 0 0 -1 0.1577 18.8145)" gradientUnits="userSpaceOnUse" id="XMLID_46_" x1="3.1021" x2="3.1021" y1="18.9268" y2="0.0183">
<stop offset="0" style="stop-color:#FFFFFF"/>
<stop offset="0.1" style="stop-color:#FFFFFF"/>
<stop offset="0.5" style="stop-color:#D3D8DD"/>
<stop offset="1" style="stop-color:#9BA1A8"/>
</linearGradient>
<path d="M0.761,17.507c0,0.711,0.668,1.289,1.487,1.289h3.513l-5-5V17.507z" fill="url(#XMLID_46_)"/>
<linearGradient gradientTransform="matrix(1 0 0 -1 0.1577 18.8145)" gradientUnits="userSpaceOnUse" id="XMLID_47_" x1="10.1021" x2="10.102" y1="18.0195" y2="0.7236">
<stop offset="0" style="stop-color:#CFECFF"/>
<stop offset="0.1" style="stop-color:#CFECFF"/>
<stop offset="0.5" style="stop-color:#87A8CB"/>
<stop offset="0.882" style="stop-color:#496DA2"/>
<stop offset="1" style="stop-color:#2B5473"/>
</linearGradient>
<path d="M0.761,2.085v11.711l5,5h14L1.821,0.856C1.21,1.017,0.761,1.504,0.761,2.085z" fill="url(#XMLID_47_)"/>
<linearGradient gradientTransform="matrix(1 0 0 -1 0.1577 18.8145)" gradientUnits="userSpaceOnUse" id="XMLID_48_" x1="293.1025" x2="293.1025" y1="18.0186" y2="0.0186">
<stop offset="0" style="stop-color:#FFFFFF"/>
<stop offset="0.1" style="stop-color:#FFFFFF"/>
<stop offset="0.5" style="stop-color:#D3D8DD"/>
<stop offset="1" style="stop-color:#9BA1A8"/>
</linearGradient>
<path d="M281.761,0.796l18,18h3.513c0.819,0,1.487-0.578,1.487-1.289V9.796l-9-9H281.761z" fill="url(#XMLID_48_)"/>
<linearGradient gradientTransform="matrix(1 0 0 -1 0.1577 18.8145)" gradientUnits="userSpaceOnUse" id="XMLID_49_" x1="300.1025" x2="300.1025" y1="18.0186" y2="0.7224">
<stop offset="0" style="stop-color:#CFECFF"/>
<stop offset="0.1" style="stop-color:#CFECFF"/>
<stop offset="0.5" style="stop-color:#87A8CB"/>
<stop offset="0.882" style="stop-color:#496DA2"/>
<stop offset="1" style="stop-color:#2B5473"/>
</linearGradient>
<path d="M303.273,0.796h-7.513l9,9V2.085C304.761,1.374,304.093,0.796,303.273,0.796z" fill="url(#XMLID_49_)"/>
</g>
</g>
</g>
<linearGradient gradientTransform="matrix(1 0 0 -1 0.1577 18.8145)" gradientUnits="userSpaceOnUse" id="XMLID_50_" x1="152.6021" x2="152.6021" y1="20.2686" y2="9.0186">
<stop offset="0" style="stop-color:#FFFFFF"/>
<stop offset="1" style="stop-color:#DEE9F3"/>
</linearGradient>
<path d="M303.273,0.796H2.248c-0.819,0-1.487,0.578-1.487,1.289v7.711h304V2.085 C304.761,1.374,304.093,0.796,303.273,0.796z" fill="url(#XMLID_50_)" fill-opacity="0.2"/>
</g>
<rect fill="none" height="20" width="306" x="-0.239" y="-0.204"/>
</g>
</svg>
