<?xml version="1.0" encoding="UTF-8"?>
<!DOCTYPE svg PUBLIC "-//W3C//DTD SVG 1.1 Tiny//EN" "http://www.w3.org/Graphics/SVG/1.1/DTD/svg11-tiny.dtd">
<svg width="60" height="52" viewBox="-0.434 0.017 60 52">
<path d="M51.307,6.017H7.825c-1.245,0-2.259,1.014-2.259,2.259v35.481c0,1.246,1.014,2.26,2.259,2.26h43.481 c1.246,0,2.26-1.014,2.26-2.26V8.275C53.566,7.03,52.553,6.017,51.307,6.017z M52.566,43.757c0,0.694-0.565,1.26-1.26,1.26 H7.825c-0.694,0-1.259-0.565-1.259-1.26V8.275c0-0.694,0.564-1.259,1.259-1.259h43.481c0.694,0,1.26,0.564,1.26,1.259V43.757z" fill="#BACACC"/>
<g fill-opacity="0.5" stroke-opacity="0.5">
<linearGradient id="_2" gradientUnits="userSpaceOnUse" x1="29.57" y1="50.56" x2="29.57" y2="5.43">
<stop stop-color="#C7D9D9" offset="0.26"/>
<stop stop-color="#FFFFFF" offset="0.72"/>
</linearGradient>
<path d="M51.307,7.017H7.825c-0.694,0-1.259,0.564-1.259,1.259v35.481c0,0.694,0.564,1.26,1.259,1.26 h43.481c0.694,0,1.26-0.565,1.26-1.26V8.275C52.566,7.581,52.001,7.017,51.307,7.017z" fill="url(#_2)"/>
</g>
<path fill-opacity="0.3" d="M51.307,7.017H7.825c-0.694,0-1.259,0.564-1.259,1.259v35.481c0,0.694,0.564,1.26,1.259,1.26h43.481 c0.694,0,1.26-0.565,1.26-1.26V8.275C52.566,7.581,52.001,7.017,51.307,7.017z" fill="#FFFFFF"/>
<rect fill-opacity="0.3" fill="#496DA2" height="3.771" width="15.5" x="21.816" y="32.938"/>
<polygon fill="#496DA2" fill-opacity="0.3" points="37.316,19.438 31.203,19.438 31.203,13.324 27.432,13.324 27.432,19.438 21.816,19.438 21.816,23.21 27.432,23.21 27.432,29.323 31.203,29.323 31.203,23.21 37.316,23.21 " />
</svg>