<?xml version="1.0" encoding="UTF-8"?>
<!DOCTYPE svg PUBLIC "-//W3C//DTD SVG 1.1 Tiny//EN" "http://www.w3.org/Graphics/SVG/1.1/DTD/svg11-tiny.dtd">
<svg width="60" height="52" viewBox="-0.393 0.104 60 52">
<linearGradient id="_4" gradientUnits="userSpaceOnUse" x1="29.61" y1="7.31" x2="29.61" y2="45.71">
<stop stop-color="#7D9CAD" offset="0"/>
<stop stop-color="#576F96" offset="0.73"/>
<stop stop-color="#4F6691" offset="1"/>
</linearGradient>
<path d="M51.348,6.105H7.867c-1.246,0-2.26,1.014-2.26,2.258v35.482c0,1.246,1.014,2.26,2.26,2.26h43.48 c1.246,0,2.26-1.014,2.26-2.26V8.363C53.607,7.119,52.594,6.105,51.348,6.105z M52.607,43.846c0,0.693-0.564,1.26-1.26,1.26 H7.867c-0.695,0-1.26-0.566-1.26-1.26V8.363c0-0.693,0.564-1.258,1.26-1.258h43.48c0.695,0,1.26,0.564,1.26,1.258V43.846z" fill="url(#_4)"/>
<g fill-opacity="0.7" stroke-opacity="0.7">
<linearGradient id="_5" gradientUnits="userSpaceOnUse" x1="29.61" y1="50.65" x2="29.61" y2="5.52">
<stop stop-color="#ADB5A8" offset="0.03"/>
<stop stop-color="#C7D9D9" offset="0.26"/>
<stop stop-color="#FFFFFF" offset="0.72"/>
</linearGradient>
<path d="M51.348,7.105H7.867c-0.695,0-1.26,0.564-1.26,1.258v35.482c0,0.693,0.564,1.26,1.26,1.26 h43.48c0.695,0,1.26-0.566,1.26-1.26V8.363C52.607,7.67,52.043,7.105,51.348,7.105z" fill="url(#_5)"/>
</g>
<path d="M52.227,7.482c-0.244-0.252-0.529-0.377-0.879-0.377H7.867c-0.695,0-1.26,0.564-1.26,1.258v35.482 c0,0.346,0.143,0.652,0.373,0.873c0.002,0.012,0.627-0.629,0.627-0.629V8.105h44L52.227,7.482z" fill="#FFFFFF"/>
<linearGradient id="_6" gradientUnits="userSpaceOnUse" x1="29.8" y1="12.24" x2="29.8" y2="51.71">
<stop stop-color="#CADCEC" offset="0"/>
<stop stop-color="#809CB3" offset="1"/>
</linearGradient>
<path d="M6.99,44.727c0.242,0.252,0.529,0.377,0.877,0.377H51.35c0.693,0,1.258-0.564,1.258-1.258V8.363 c0-0.346-0.143-0.652-0.371-0.873c-0.004-0.012-0.629,0.629-0.629,0.629s0,35.205,0,35.984c-0.738,0-43.998,0-43.998,0 L6.99,44.727z" fill="url(#_6)"/>
<path d="M20.024,23.564l2.667,2.666c0,0,5.041-5.041,6.916-6.916c1.875,1.875,6.917,6.916,6.917,6.916 l2.667-2.666l-9.584-9.584L20.024,23.564z" fill="#496DA2"/>
<path d="M20.024,33.564l2.667,2.666c0,0,5.041-5.041,6.916-6.916c1.875,1.875,6.917,6.916,6.917,6.916 l2.667-2.666l-9.584-9.584L20.024,33.564z" fill="#496DA2"/>
</svg>