<?xml version="1.0" encoding="UTF-8"?>
<!DOCTYPE svg PUBLIC "-//W3C//DTD SVG 1.1 Tiny//EN" "http://www.w3.org/Graphics/SVG/1.1/DTD/svg11-tiny.dtd">
<svg width="100%" height="100%" viewBox="0 0 88 88">
<linearGradient id="_18" gradientUnits="userSpaceOnUse" x1="48.47" y1="56.35" x2="52.79" y2="70.95">
<stop stop-color="#A2C2DD" offset="0.1"/>
<stop stop-color="#6C83BB" offset="0.71"/>
<stop stop-color="#003D6D" offset="0.99"/>
</linearGradient>
<polygon fill="url(#_18)" points="48.005,12.422 38.108,36.769 37.566,36.784 27.548,40.859 24.339,40.359 7.599,50.203 8.505,58.953 10.256,59.443 4.786,61.953 5.63,64.109 39.88,75.484 45.184,73.021 51.286,74.859 76.942,61.453 78.131,43.026 75.43,42.477 82.797,21.339 82.423,17.859 64.358,16.195 "/>
<linearGradient id="_19" gradientUnits="userSpaceOnUse" x1="63.43" y1="65.05" x2="41.93" y2="18.55">
<stop stop-color="#FFFFFF" offset="0.15"/>
<stop stop-color="#A2C2DD" offset="1"/>
</linearGradient>
<polygon fill="url(#_19)" points="37.828,37.434 77.393,43.484 68.385,48.498 28.479,41.195 "/>
<polygon fill="#375082" points="40.87,37.751 38.169,41.129 34.047,40.492 "/>
<linearGradient id="_20" gradientUnits="userSpaceOnUse" x1="3.86" y1="35.26" x2="13.19" y2="54.26">
<stop stop-color="#A2C2DD" offset="0.1"/>
<stop stop-color="#6C83BB" offset="0.71"/>
<stop stop-color="#003D6D" offset="0.99"/>
</linearGradient>
<polygon fill="url(#_20)" points="18.665,52.977 13.932,59.798 9.167,58.489 8.376,50.566 "/>
<linearGradient id="_21" gradientUnits="userSpaceOnUse" x1="64.1" y1="38.85" x2="64.53" y2="81.39">
<stop stop-color="#FFFFFF" offset="0"/>
<stop stop-color="#A2C2DD" offset="0.35"/>
<stop stop-color="#6C83BB" offset="0.7"/>
<stop stop-color="#003D6D" offset="1"/>
</linearGradient>
<polygon fill="url(#_21)" points="51.216,74.14 51.262,64.481 68.385,48.498 77.393,43.484 76.264,61.027 "/>
<linearGradient id="_22" gradientUnits="userSpaceOnUse" x1="11.38" y1="40.39" x2="32.13" y2="53.64">
<stop stop-color="#FFFFFF" offset="0"/>
<stop stop-color="#A2C2DD" offset="0.35"/>
<stop stop-color="#6C83BB" offset="0.7"/>
<stop stop-color="#003D6D" offset="1"/>
</linearGradient>
<polygon fill="url(#_22)" points="33.939,42.695 24.59,40.981 8.376,50.566 18.665,52.977 "/>
<linearGradient id="_23" gradientUnits="userSpaceOnUse" x1="-3.49" y1="58.6" x2="64.26" y2="49.6">
<stop stop-color="#FFFFFF" offset="0.05"/>
<stop stop-color="#A2C2DD" offset="1"/>
</linearGradient>
<polygon fill="url(#_23)" points="68.385,48.498 28.479,41.195 10.294,53.8 51.262,64.481 "/>
<linearGradient id="_24" gradientUnits="userSpaceOnUse" x1="0.36" y1="41.57" x2="68.36" y2="51.9">
<stop stop-color="#FFFFFF" offset="0"/>
<stop stop-color="#A2C2DD" offset="0.35"/>
<stop stop-color="#6C83BB" offset="0.7"/>
<stop stop-color="#003D6D" offset="1"/>
</linearGradient>
<polygon fill="url(#_24)" points="30.154,43.691 26.488,46.132 58.354,52.787 61.631,49.795 "/>
<linearGradient id="_25" gradientUnits="userSpaceOnUse" x1="56.18" y1="43.05" x2="13.93" y2="77.8">
<stop stop-color="#FFFFFF" offset="0"/>
<stop stop-color="#A2C2DD" offset="0.35"/>
<stop stop-color="#6C83BB" offset="0.7"/>
<stop stop-color="#003D6D" offset="1"/>
</linearGradient>
<polygon fill="url(#_25)" points="51.262,64.481 10.294,53.8 10.836,61.746 51.216,74.14 "/>
<linearGradient id="_26" gradientUnits="userSpaceOnUse" x1="24.74" y1="63.97" x2="21.13" y2="72.23">
<stop stop-color="#FFFFFF" offset="0"/>
<stop stop-color="#496DA2" offset="0.71"/>
<stop stop-color="#235487" offset="0.99"/>
</linearGradient>
<polygon fill="url(#_26)" points="5.706,62.292 39.816,72.289 39.814,74.706 6.164,63.591 "/>
<linearGradient id="_27" gradientUnits="userSpaceOnUse" x1="37.87" y1="87.58" x2="16.29" y2="40.91">
<stop stop-color="#FFFFFF" offset="0.15"/>
<stop stop-color="#A2C2DD" offset="1"/>
</linearGradient>
<polygon fill="url(#_27)" points="13.9,58.543 5.706,62.292 39.816,72.289 49.287,67.988 "/>
<linearGradient id="_28" gradientUnits="userSpaceOnUse" x1="42.95" y1="67.53" x2="45.95" y2="74.7">
<stop stop-color="#DEE9F3" offset="0"/>
<stop stop-color="#235487" offset="1"/>
</linearGradient>
<polygon fill="url(#_28)" points="39.816,72.289 49.287,67.988 49.287,70.341 39.826,74.739 "/>
<polygon fill="#003D6D" points="41.351,50.515 41.512,51.437 38.146,54.108 37.976,53.202 "/>
<polygon fill="#6C83BB" points="37.976,53.202 38.146,54.108 33.256,53.034 33.079,52.15 "/>
<linearGradient id="_29" gradientUnits="userSpaceOnUse" x1="33.7" y1="50.43" x2="39.7" y2="51.97">
<stop stop-color="#FFFFFF" offset="0.15"/>
<stop stop-color="#A2C2DD" offset="1"/>
</linearGradient>
<polygon fill="url(#_29)" points="41.351,50.515 37.976,53.202 33.079,52.15 36.541,49.54 "/>
<polygon fill="#003D6D" points="36.882,54.039 37.06,54.939 33.451,57.593 33.26,56.71 "/>
<polygon fill="#6C83BB" points="33.26,56.71 33.451,57.593 28.445,56.415 28.252,55.555 "/>
<polygon fill="#003D6D" points="48.506,52.03 48.666,52.984 45.435,55.77 45.265,54.834 "/>
<polygon fill="#6C83BB" points="45.265,54.834 45.435,55.77 40.318,54.597 40.146,53.68 "/>
<polygon fill="#003D6D" points="55.938,53.68 56.093,54.664 53.009,57.579 52.844,56.608 "/>
<polygon fill="#6C83BB" points="52.844,56.608 53.009,57.579 47.651,56.292 47.48,55.346 "/>
<polygon fill="#003D6D" points="51.841,57.523 52.011,58.487 48.682,61.388 48.504,60.445 "/>
<polygon fill="#6C83BB" points="48.504,60.445 48.682,61.388 35.692,58.143 35.535,57.252 "/>
<linearGradient id="_30" gradientUnits="userSpaceOnUse" x1="88.19" y1="4.07" x2="58.52" y2="32.07">
<stop stop-color="#FFFFFF" offset="0.15"/>
<stop stop-color="#A2C2DD" offset="1"/>
</linearGradient>
<polygon fill="url(#_30)" points="49.247,15.512 81.846,18.502 72.722,43.975 71.722,44.473 "/>
<linearGradient id="_31" gradientUnits="userSpaceOnUse" x1="73.81" y1="28.49" x2="83.76" y2="36.23">
<stop stop-color="#DEE9F3" offset="0"/>
<stop stop-color="#235487" offset="1"/>
</linearGradient>
<polygon fill="url(#_31)" points="81.852,18.41 72.722,43.975 74.453,43.15 82.097,21.249 "/>
<path fill="#5DA6B1" d="M37.127,41.025l11.331-27.771l23.066,5.297c1.506,2.783,2.926,6.198,4.209,9.271l-6.341,17.697 l-1.423,0.577L37.127,41.025z"/>
<polygon fill="#115B7E" points="69.393,45.521 75.785,27.553 77.345,29.185 71.722,44.473 "/>
<linearGradient id="_32" gradientUnits="userSpaceOnUse" x1="48.38" y1="0.87" x2="57.88" y2="37.12">
<stop stop-color="#D6E6EC" offset="0"/>
<stop stop-color="#5DA6B1" offset="1"/>
</linearGradient>
<polygon fill="url(#_32)" points="71.657,18.556 64.563,16.926 49.191,15.518 39.928,39.782 69.265,45.521 "/>
<linearGradient id="_33" gradientUnits="userSpaceOnUse" x1="64.66" y1="28.45" x2="77.44" y2="28.62">
<stop stop-color="#5DA6B1" offset="0"/>
<stop stop-color="#4A90A3" offset="0.25"/>
<stop stop-color="#18587F" offset="0.77"/>
<stop stop-color="#003D6D" offset="1"/>
</linearGradient>
<polygon fill="url(#_33)" points="67.265,26.729 64.354,29.277 76.793,30.361 76.909,28.716 "/>
<linearGradient id="_34" gradientUnits="userSpaceOnUse" x1="80.44" y1="14.8" x2="71.26" y2="28.89">
<stop stop-color="#E6EEF4" offset="0"/>
<stop stop-color="#2F8E9A" offset="0.44"/>
<stop stop-color="#003D6D" offset="0.94"/>
</linearGradient>
<path fill="url(#_34)" d="M77.345,29.185c-0.713-1.526-3.416-7.286-5.63-10.633c-0.807,2.513-4.781,8.024-5.251,8.66 C67.565,27.281,76.354,29.07,77.345,29.185z"/>
</svg>