<?xml version="1.0" encoding="UTF-8"?>
<!DOCTYPE svg PUBLIC "-//W3C//DTD SVG 1.1 Tiny//EN" "http://www.w3.org/Graphics/SVG/1.1/DTD/svg11-tiny.dtd">
<svg baseProfile="tiny" height="32" version="1.1" viewBox="-1 -1 38 32" width="38" xmlns="http://www.w3.org/2000/svg" xmlns:xlink="http://www.w3.org/1999/xlink">
<g>
<path d="M16.887,24.215c-0.532,0-1.132-0.063-1.797-0.188c-0.666-0.126-1.185-0.256-1.556-0.394v-2.639   c0.388,0.211,0.938,0.398,1.658,0.563c0.718,0.167,1.396,0.248,2.033,0.248c0.74,0,1.364-0.209,1.868-0.629   c0.504-0.419,0.85-1.053,1.035-1.898c0.186-0.849,0.282-1.831,0.29-2.953c-0.347,0.46-0.829,0.819-1.446,1.076   c-0.616,0.26-1.342,0.389-2.172,0.389c-1.428,0-2.535-0.5-3.32-1.501c-0.787-1-1.182-2.323-1.182-3.969   c0-2.26,0.446-3.913,1.338-4.962s2.31-1.573,4.254-1.573c1.388,0,2.498,0.287,3.333,0.858c0.835,0.573,1.457,1.471,1.863,2.692   c0.407,1.223,0.611,3.209,0.611,5.96c0,1.97-0.193,3.61-0.581,4.925c-0.387,1.315-1.045,2.311-1.973,2.983   C20.218,23.879,18.799,24.215,16.887,24.215z M18.036,15.382c0.758,0,1.345-0.269,1.761-0.805c0.415-0.536,0.623-1.329,0.623-2.378   c0-1.388-0.204-2.402-0.611-3.044c-0.406-0.642-1.039-0.962-1.894-0.962c-0.727,0-1.281,0.323-1.664,0.969   s-0.574,1.521-0.574,2.625c0,1.203,0.199,2.103,0.6,2.699C16.675,15.084,17.263,15.382,18.036,15.382z"/>
<rect fill="none" height="32" width="38" x="-1" y="-1"/>
</g>
</svg>
