<?xml version="1.0" encoding="UTF-8"?>
<!DOCTYPE svg PUBLIC "-//W3C//DTD SVG 1.1 Tiny//EN" "http://www.w3.org/Graphics/SVG/1.1/DTD/svg11-tiny.dtd">
<svg baseProfile="tiny" height="44px" version="1.1" viewBox="0 0 44 44" width="44px" x="0px" xmlns="http://www.w3.org/2000/svg" xmlns:xlink="http://www.w3.org/1999/xlink" y="0px">
<g>
<path d="M28.963,39.875c-1.021-0.589-1.722-1.608-1.744-2.813V36.62   c-2.258,1.052-4.732,1.607-7.256,1.607c-9.495,0-17.218-7.724-17.218-17.217c0-9.494,7.723-17.218,17.218-17.218   c9.496,0,17.22,7.724,17.22,17.218c0,0.616-0.034,1.229-0.106,1.855l3.275,3.69c0.566,0.581,0.892,1.377,0.903,2.208   c0.022,0.834-0.313,1.689-0.917,2.308l-7.769,8.177C31.922,39.889,30.008,40.479,28.963,39.875z" fill="#FFFFFF" fill-opacity="0.6" stroke-opacity="0.6"/>
<g>
<linearGradient gradientUnits="userSpaceOnUse" id="SVGID_1_" x1="19.9624" x2="19.9624" y1="-6.4321" y2="26.2096">
<stop offset="0" style="stop-color:#CCCCCC"/>
<stop offset="1" style="stop-color:#000000"/>
</linearGradient>
<path d="M19.964,36.43c-8.501,0-15.421-6.917-15.421-15.419    c0-8.503,6.919-15.421,15.421-15.421c8.503,0,15.419,6.918,15.419,15.421C35.383,29.513,28.467,36.43,19.964,36.43L19.964,36.43z" fill="url(#SVGID_1_)" fill-opacity="0.7" stroke-opacity="0.7"/>
</g>
<radialGradient cx="19.5757" cy="13.8237" gradientTransform="matrix(0.8148 0 0 0.8148 3.9524 3.9524)" gradientUnits="userSpaceOnUse" id="SVGID_2_" r="25.0531">
<stop offset="0" style="stop-color:#E3F5FF"/>
<stop offset="0.3352" style="stop-color:#13A9FF"/>
<stop offset="0.4725" style="stop-color:#00A2FF"/>
<stop offset="0.8956" style="stop-color:#004BB5"/>
<stop offset="1" style="stop-color:#004BB5"/>
</radialGradient>
<circle cx="19.964" cy="21.01" fill="url(#SVGID_2_)" r="14.619"/>
<linearGradient gradientUnits="userSpaceOnUse" id="SVGID_3_" x1="20.1499" x2="20.1499" y1="6.8359" y2="42.1678">
<stop offset="0" style="stop-color:#E3F5FF"/>
<stop offset="0.0659" style="stop-color:#E3F5FF"/>
<stop offset="0.2308" style="stop-color:#74CCFF"/>
<stop offset="0.4725" style="stop-color:#00A2FF"/>
<stop offset="0.8956" style="stop-color:#004BB5"/>
<stop offset="1" style="stop-color:#004BB5"/>
</linearGradient>
<path d="M30.845,15.698c0,4.311-4.789,6.804-10.693,6.804c-5.906,0-10.695-2.494-10.695-6.804   c0-4.31,4.789-8.806,10.695-8.806C26.056,6.892,30.845,11.388,30.845,15.698z" fill="url(#SVGID_3_)"/>
<radialGradient cx="19.6616" cy="8.5024" gradientTransform="matrix(0.8148 0 0 0.8148 3.9524 3.9524)" gradientUnits="userSpaceOnUse" id="SVGID_4_" r="26.3593">
<stop offset="0" style="stop-color:#FFFFFF"/>
<stop offset="0.1484" style="stop-color:#FFFFFF"/>
<stop offset="1" style="stop-color:#A7C1E5"/>
</radialGradient>
<path d="M8.921,27.146c0.207,0,1.677-3.27,1.677-3.27v-0.844l-2.072-1.34c0,0-2.591-4.094-2.759-4.174   C4.431,22.929,6.502,27.528,8.44,30.009c0.279-0.399,0.5-0.84,0.668-1.233C9.284,28.371,8.229,27.803,8.921,27.146z M34.085,17.215   c-0.049,0-0.078-0.006-0.078-0.006s-0.084-0.054-0.211-0.136l-0.443-0.881l-0.703-0.057l-1.432-1.205c0,0,0.379,0.971,1.01,1.43   c0.408,0.03,0.686-0.028,0.705-0.005c0.449,1.181-0.51,2.632-1.624,2.902c-0.14-0.605-0.261-0.844-0.44-1.36l-1.947-2.651   l-0.113,0.281l0.9,1.37c0,0,0.637,1.068,0.898,1.686c0.508,0.449,0.605,0.638,0.656,1.097c0.18,0.056,0.318,0.064,0.881-0.143   c0.852-0.31,0.365,1.002,0.227,1.369c-0.51,1.245-0.694,5.072-0.694,5.072l-8.059,2.178c0,0-0.144-3.946-0.892-4.996   c-0.346-0.484,0.242-1.609,0.195-1.617c-1.256-0.234-1.515-0.799-1.573-0.941c0,0-2.561,0.511-3.443,0.438   c-0.678-0.053-2.141-1.807-2.424-2.457c-0.283-0.651,0.533-2.84,0.563-3.008c0.027-0.172,1.931-1.491,1.931-1.491l1.293-1.259   l-0.773-0.385c0,0,0.161-1.581,0.872-1.182c0.076,0.043,0.478,0.126,0.932,0.086c0.482-0.301-0.527-0.7-0.418-1.107   c0.029-0.099,0.398-0.143,0.025-0.48c-0.599-0.545-0.169-0.938,0.208-1.031c0.41,0.149,0.672,0.521,0.672,1.031   c0,0.507,1.344-0.235,1.423-0.321c-0.598-0.43-0.896-1.113-0.671-1.143c0.227-0.03,1.221-0.289,1.475-0.545   c0.254-0.251,2.141,0.237,2.367,0.265c0.227,0.027,0.158,0.243,0.412,0.243c0.086,0,0.457-0.097,0.906-0.223   C30.292,9.901,33.013,13.219,34.085,17.215z M28.669,13.606c-0.313-0.262-2.023-0.15-2.508-1.273l-0.246,0.033   c0,0,0.162,0.792-0.033,0.778c-0.465-0.035-0.945-0.863-0.945-0.863l-0.088-0.352l-1.205-0.681c0,0-0.006,0.201,0.932,1.025   c0,0-0.316,0.541-0.738,0.57c0.107-0.139,0.186-0.562,0.186-0.562l-1.156-0.926c0,0-1.012-0.13-1.266,0.084   c-0.298,0.254-1.131,1.035-1.131,1.035l-1.156,0.412l1.043,0.167l1.072-0.321l1.678,0.113l0.273,0.792c0,0,1.84,0.91,2.016,0.726   c0.273-0.283,0.42-0.688,0.83-0.404c0.408,0.282,1.076,0.283,1.557,0.283C27.983,14.3,28.688,14.768,28.669,13.606z M30.886,13.046   c-0.395-0.53-0.809-0.944-0.9-1.074c-0.174-0.245,0.1-0.758-0.361-0.538c-0.27,0.48-0.012,0.67,0.459,1.108   c0.328,0.307,0.188,0.538,0.404,0.73" fill="url(#SVGID_4_)"/>
<linearGradient gradientUnits="userSpaceOnUse" id="SVGID_5_" x1="23.1338" x2="23.1338" y1="12.0239" y2="29.7862">
<stop offset="0" style="stop-color:#FFFFFF"/>
<stop offset="0.1484" style="stop-color:#FFFFFF"/>
<stop offset="1" style="stop-color:#A7C1E5"/>
</linearGradient>
<path d="M30.382,12.428c-0.131-0.313-0.291-0.616-0.471-0.91c0.014,0.13-0.016,0.328,0.074,0.454   C30.036,12.043,30.19,12.209,30.382,12.428z M30.306,17.131c0.346-0.765,0.539-1.583,0.539-2.433c0-0.451-0.064-0.891-0.166-1.323   c-0.07-0.021-0.139-0.056-0.191-0.103c-0.217-0.193-0.076-0.423-0.404-0.73c-0.471-0.438-0.729-0.627-0.459-1.108   c0.098-0.046,0.158-0.054,0.201-0.044c-0.834-1.297-2.135-2.402-3.756-3.191c-0.137,0.035-0.24,0.056-0.279,0.056   c-0.254,0-0.186-0.216-0.412-0.243c-0.227-0.027-2.113-0.516-2.367-0.265c-0.254,0.256-1.248,0.516-1.475,0.545   c-0.225,0.029,0.074,0.713,0.671,1.143c-0.08,0.086-1.423,0.828-1.423,0.321c0-0.51-0.262-0.882-0.672-1.031   c-0.377,0.094-0.807,0.486-0.208,1.031c0.373,0.337,0.004,0.382-0.025,0.48c-0.109,0.407,0.901,0.806,0.418,1.107   c-0.454,0.041-0.855-0.043-0.932-0.086c-0.71-0.399-0.872,1.182-0.872,1.182l0.773,0.385l-1.293,1.259c0,0-1.904,1.319-1.931,1.491   c-0.029,0.167-0.846,2.356-0.563,3.008c0.283,0.65,1.746,2.404,2.424,2.457c0.882,0.074,3.443-0.438,3.443-0.438   c0.058,0.142,0.317,0.707,1.573,0.941c0.025,0.004-0.137,0.346-0.234,0.73c3.389-0.602,6.141-2.379,7.404-4.709   c-0.205-0.372-1.283-2.037-1.283-2.037l0.113-0.281L30.306,17.131z M27.782,14.243c-0.48,0-1.148-0.001-1.557-0.283   c-0.41-0.284-0.557,0.121-0.83,0.404c-0.176,0.184-2.016-0.726-2.016-0.726l-0.273-0.792l-1.678-0.113l-1.072,0.321l-1.043-0.167   l1.156-0.412c0,0,0.833-0.781,1.131-1.035c0.254-0.215,1.266-0.084,1.266-0.084l1.156,0.926c0,0-0.078,0.423-0.186,0.562   c0.422-0.029,0.738-0.57,0.738-0.57c-0.938-0.824-0.932-1.025-0.932-1.025l1.205,0.681l0.088,0.352c0,0,0.48,0.828,0.945,0.863   c0.195,0.014,0.033-0.778,0.033-0.778l0.246-0.033c0.484,1.123,2.195,1.011,2.508,1.273C28.688,14.768,27.983,14.3,27.782,14.243z" fill="url(#SVGID_5_)"/>
<g>
<g>
<g fill-opacity="0.7" stroke-opacity="0.7">
<linearGradient gradientTransform="matrix(1 0 0 1 63.5 0)" gradientUnits="userSpaceOnUse" id="SVGID_6_" x1="-34.623" x2="-34.623" y1="11.0283" y2="31.8477">
<stop offset="0" style="stop-color:#CCCCCC"/>
<stop offset="1" style="stop-color:#000000"/>
</linearGradient>
<path d="M29.018,37.037v-4.104c-2.128-0.26-8.409-1.027-9.021-1.105      c-0.917-0.115-1.762-0.438-1.762-1.999v-2.4c0-1.545,0.84-1.874,1.753-2.002c0.726-0.1,6.919-0.856,9.049-1.117l-0.02-4.198      c-0.012-0.378,0.138-0.758,0.407-1.028c0.082-0.089,0.443-0.402,0.924-0.387c0.355,0.011,0.701,0.139,0.952,0.379l7.77,8.745      c0.461,0.512,0.729,1.161-0.018,1.991l-7.787,8.194C30.288,38.798,29.015,38.199,29.018,37.037z" fill="url(#SVGID_6_)"/>
</g>
<g>
<linearGradient gradientUnits="userSpaceOnUse" id="SVGID_7_" x1="32.4385" x2="25.447" y1="38.2598" y2="21.0801">
<stop offset="0" style="stop-color:#EBF7AB"/>
<stop offset="0.4945" style="stop-color:#87B938"/>
<stop offset="1" style="stop-color:#006300"/>
</linearGradient>
<path d="M38.472,28.353l-7.726-8.702c-0.161-0.154-0.437-0.201-0.626-0.099      c-0.048,0.025-0.09,0.056-0.13,0.097c-0.114,0.113-0.179,0.282-0.173,0.459l0.021,4.911c0,0-8.878,1.083-9.742,1.201      c-0.738,0.104-1.065,0.247-1.065,1.209c0,0.959,0,1.44,0,2.4c0,0.958,0.324,1.11,1.065,1.205      c0.74,0.094,9.721,1.193,9.721,1.193v4.787c0,0.497,0.42,0.815,0.867,0.44l7.791-8.199c0.002-0.001,0.002-0.003,0.005-0.005      C38.831,28.893,38.768,28.676,38.472,28.353z" fill="url(#SVGID_7_)"/>
</g>
</g>
<linearGradient gradientUnits="userSpaceOnUse" id="SVGID_8_" x1="21.0107" x2="40.5107" y1="27.0654" y2="23.5654">
<stop offset="0" style="stop-color:#61A10D"/>
<stop offset="0.9121" style="stop-color:#E3F0B5"/>
<stop offset="1" style="stop-color:#E3F0B5"/>
</linearGradient>
<polygon fill="url(#SVGID_8_)" points="37.704,28.697 30.642,20.709 30.636,25.585 19.644,26.866 19.644,28.687   "/>
</g>
</g>
</svg>
