<?xml version="1.0" encoding="UTF-8"?>
<!DOCTYPE svg PUBLIC "-//W3C//DTD SVG 1.1 Tiny//EN" "http://www.w3.org/Graphics/SVG/1.1/DTD/svg11-tiny.dtd">
<svg width="100%" height="100%" viewBox="0 0 88 88">
<linearGradient id="_18" gradientUnits="userSpaceOnUse" x1="40.1" y1="52.7" x2="36.15" y2="68.71">
<stop stop-color="#A2C2DD" offset="0.1"/>
<stop stop-color="#6C83BB" offset="0.71"/>
<stop stop-color="#003D6D" offset="0.99"/>
</linearGradient>
<polygon fill="url(#_18)" points="21.417,29.854 8.004,41.801 10.565,43.05 5.816,48.832 7.004,53.051 53.989,74.754 81.807,26.499 81.879,21.848 63.903,17.216 63.301,15.754 51.583,13.004 50.334,13.71 37.441,10.395 "/>
<linearGradient id="_19" gradientUnits="userSpaceOnUse" x1="56.14" y1="84.31" x2="34.27" y2="-2.38">
<stop stop-color="#FFFFFF" offset="0.15"/>
<stop stop-color="#A2C2DD" offset="1"/>
</linearGradient>
<polygon fill="url(#_19)" points="37.692,11.167 81.153,22.396 53.235,69.397 6.596,48.977 "/>
<polygon fill="#FFFFFF" points="38.853,12.451 76.805,22.469 51.774,63.814 11.206,47.036 "/>
<linearGradient id="_20" gradientUnits="userSpaceOnUse" x1="61.59" y1="41.86" x2="68.97" y2="47.6">
<stop stop-color="#DEE9F3" offset="0"/>
<stop stop-color="#235487" offset="1"/>
</linearGradient>
<polygon fill="url(#_20)" points="76.815,22.469 51.774,63.33 52.018,65.649 76.752,25.034 "/>
<linearGradient id="_21" gradientUnits="userSpaceOnUse" x1="63.4" y1="44.98" x2="73.92" y2="53.16">
<stop stop-color="#DEE9F3" offset="0"/>
<stop stop-color="#235487" offset="1"/>
</linearGradient>
<polygon fill="url(#_21)" points="81.172,22.389 53.268,69.393 53.684,73.844 81.106,26.321 "/>
<linearGradient id="_22" gradientUnits="userSpaceOnUse" x1="32.63" y1="54.21" x2="31.07" y2="57.77">
<stop stop-color="#FFFFFF" offset="0"/>
<stop stop-color="#496DA2" offset="0.71"/>
<stop stop-color="#235487" offset="0.99"/>
</linearGradient>
<polygon fill="url(#_22)" points="51.774,63.33 11.364,47.07 11.718,48.401 52.018,65.649 "/>
<linearGradient id="_23" gradientUnits="userSpaceOnUse" x1="31.39" y1="58.51" x2="28.79" y2="64.45">
<stop stop-color="#FFFFFF" offset="0"/>
<stop stop-color="#496DA2" offset="0.71"/>
<stop stop-color="#235487" offset="0.99"/>
</linearGradient>
<polygon fill="url(#_23)" points="53.268,69.393 6.583,48.904 7.598,52.535 53.684,73.844 "/>
<linearGradient id="_24" gradientUnits="userSpaceOnUse" x1="9.22" y1="36.28" x2="76.81" y2="36.28">
<stop stop-color="#CADCEC" offset="0"/>
<stop stop-color="#87A8CB" offset="1"/>
</linearGradient>
<path fill="url(#_24)" d="M38.853,12.451C28.521,25.604,9.218,41.63,9.218,41.63l38.66,18.486l28.938-37.647 L38.853,12.451z"/>
<linearGradient id="_25" gradientUnits="userSpaceOnUse" x1="14.64" y1="54.05" x2="48.24" y2="33.42">
<stop stop-color="#FFFFFF" offset="0.15"/>
<stop stop-color="#A2C2DD" offset="1"/>
</linearGradient>
<path fill="url(#_25)" d="M38.853,12.583L13.848,43.822l34.03,16.426c0,0,19.223-21.567,28.938-37.647L38.853,12.583z"/>
<polygon fill="#003D6D" points="66.04,19.933 64.139,19.659 62.795,16.347 44.12,16.709 44.29,17.735 65.313,23.975 66.209,21.329 "/>
<polygon fill="#496DA2" points="66.04,19.933 64.995,22.515 44.12,16.709 46.299,14.675 49.731,14.857 51.684,13.749 62.795,16.347 62.948,18.602 "/>
<linearGradient id="_26" gradientUnits="userSpaceOnUse" x1="29.75" y1="41.24" x2="94" y2="-0.58">
<stop stop-color="#A2C2DD" offset="0.1"/>
<stop stop-color="#6C83BB" offset="0.71"/>
<stop stop-color="#003D6D" offset="0.99"/>
</linearGradient>
<polygon fill="url(#_26)" points="30.437,50 49.774,28.485 30.72,31.403 37.015,33.459 23.598,47.1 "/>
<polygon fill="url(#_26)" points="59.258,26.448 38.572,49.586 60.584,45.175 53.743,42.517 65.846,28.478 "/>
<linearGradient id="_28" gradientUnits="userSpaceOnUse" x1="20.56" y1="26.26" x2="27.2" y2="48.01">
<stop stop-color="#E6EEF4" offset="0"/>
<stop stop-color="#A3740A" offset="0.44"/>
<stop stop-color="#474105" offset="0.94"/>
</linearGradient>
<polygon fill="url(#_28)" points="29.03,42.625 22.191,39.727 22.5,44.021 29.16,47.145 "/>
<linearGradient id="_29" gradientUnits="userSpaceOnUse" x1="29.73" y1="22.57" x2="35.47" y2="30.69">
<stop stop-color="#E6EEF4" offset="0"/>
<stop stop-color="#A3740A" offset="0.44"/>
<stop stop-color="#474105" offset="0.94"/>
</linearGradient>
<polygon fill="url(#_29)" points="35.833,25.927 29.444,24.044 29.768,27.898 38.3,31.35 "/>
<linearGradient id="_30" gradientUnits="userSpaceOnUse" x1="31.75" y1="24.62" x2="38.83" y2="36.25">
<stop stop-color="#E2E6E4" offset="0"/>
<stop stop-color="#A3740A" offset="1"/>
</linearGradient>
<polygon fill="url(#_30)" points="29.03,42.625 48.368,21.111 29.313,24.03 35.608,26.084 22.191,39.727 "/>
<linearGradient id="_31" gradientUnits="userSpaceOnUse" x1="29.07" y1="19.13" x2="43.42" y2="41.41">
<stop stop-color="#E6EEF4" offset="0"/>
<stop stop-color="#A3740A" offset="0.44"/>
<stop stop-color="#474105" offset="0.94"/>
</linearGradient>
<polygon fill="url(#_31)" points="48.368,21.111 47.305,26.082 29.107,47.166 29.03,42.625 "/>
<linearGradient id="_32" gradientUnits="userSpaceOnUse" x1="49.08" y1="18.22" x2="61.84" y2="38.02">
<stop stop-color="#E6EEF4" offset="0"/>
<stop stop-color="#A3740A" offset="0.44"/>
<stop stop-color="#474105" offset="0.94"/>
</linearGradient>
<polygon fill="url(#_32)" points="64.475,21.111 63.731,26.258 50.874,42.001 50.475,37.286 "/>
<linearGradient id="_33" gradientUnits="userSpaceOnUse" x1="32.12" y1="29.37" x2="53.79" y2="45.87">
<stop stop-color="#E6EEF4" offset="0"/>
<stop stop-color="#A3740A" offset="0.44"/>
<stop stop-color="#474105" offset="0.94"/>
</linearGradient>
<polygon fill="url(#_33)" points="37.237,42.235 59.198,37.74 59.112,41.456 37.419,45.659 "/>
<linearGradient id="_34" gradientUnits="userSpaceOnUse" x1="48.1" y1="27.21" x2="55.61" y2="39.54">
<stop stop-color="#E2E6E4" offset="0"/>
<stop stop-color="#A3740A" offset="1"/>
</linearGradient>
<polygon fill="url(#_34)" points="57.85,19.074 37.165,42.211 59.178,37.801 52.334,35.143 64.44,21.104 "/>
</svg>