<?xml version="1.0" encoding="UTF-8"?>
<!DOCTYPE svg PUBLIC "-//W3C//DTD SVG 1.1 Tiny//EN" "http://www.w3.org/Graphics/SVG/1.1/DTD/svg11-tiny.dtd">
<svg width="58" height="58" viewBox="0 0 58 58">
<path d="M3.729,29.967c0,14.468,11.772,26.237,26.238,26.237 c14.469,0,26.238-11.77,26.238-26.237S44.436,3.728,29.967,3.728C15.5,3.728,3.729,15.5,3.729,29.967z" fill-opacity="0.01" />
<path d="M4.874,29.967c0,13.835,11.256,25.092,25.093,25.092 c13.836,0,25.093-11.257,25.093-25.092c0-13.836-11.257-25.092-25.093-25.092C16.13,4.875,4.874,16.131,4.874,29.967z" fill-opacity="0.02" />
<path d="M6.017,29.967c0,13.203,10.746,23.945,23.95,23.945 c13.207,0,23.945-10.743,23.945-23.945c0-13.208-10.739-23.948-23.945-23.948C16.763,6.02,6.017,16.759,6.017,29.967z" fill-opacity="0.04" />
<path d="M6.984,29.967c0,12.672,10.31,22.979,22.982,22.979 c12.67,0,22.979-10.307,22.979-22.979c0-12.671-10.309-22.981-22.979-22.981C17.294,6.986,6.984,17.296,6.984,29.967z" fill-opacity="0.07" />
<linearGradient id="_3" gradientUnits="userSpaceOnUse" x1="29" y1="6.52" x2="29" y2="51.44">
<stop stop-color="#CFECFF" offset="0"/>
<stop stop-color="#8CC2EA" offset="1"/>
</linearGradient>
<path d="M29,6.097c-12.632,0-22.906,10.275-22.906,22.904 c0,12.626,10.274,22.901,22.906,22.901c12.629,0,22.907-10.275,22.907-22.901C51.907,16.372,41.629,6.097,29,6.097z" fill="url(#_3)"/>
<linearGradient id="_4" gradientUnits="userSpaceOnUse" x1="29" y1="8.16" x2="29" y2="49.51">
<stop stop-color="#FFFFFF" offset="0"/>
<stop stop-color="#EAF7FF" offset="0.32"/>
<stop stop-color="#D6EFFF" offset="0.73"/>
<stop stop-color="#CFECFF" offset="1"/>
</linearGradient>
<path d="M50.656,29.001c0,11.962-9.695,21.654-21.656,21.654 c-11.964,0-21.656-9.692-21.656-21.654C7.344,17.041,17.036,7.343,29,7.343C40.961,7.343,50.656,17.041,50.656,29.001z" fill="url(#_4)"/>
<ellipse cx="29.001" cy="29.421" fill="#FFFFFF" fill-opacity="0.2" rx="18.708" ry="15.27" />
<rect fill="#B3DDFF" height="19.329" width="5.684" x="20.871" y="20.219"/>
<rect fill="#B3DDFF" height="19.329" width="5.683" x="32.397" y="20.219"/>
</svg>