<?xml version="1.0" encoding="UTF-8"?>
<!DOCTYPE svg PUBLIC "-//W3C//DTD SVG 1.1 Tiny//EN" "http://www.w3.org/Graphics/SVG/1.1/DTD/svg11-tiny.dtd">
<svg baseProfile="tiny" height="32" version="1.1" viewBox="0 0 44 32" width="44" xmlns="http://www.w3.org/2000/svg" xmlns:xlink="http://www.w3.org/1999/xlink">
<g>
<g>
<path d="M11.121,18.755c0.77,0,1.442-0.118,2.016-0.358c0.574-0.238,1.02-0.572,1.342-1c-0.008,1.041-0.097,1.955-0.27,2.74    c-0.172,0.786-0.492,1.375-0.96,1.764c-0.467,0.391-1.047,0.584-1.734,0.584c-0.593,0-1.222-0.075-1.888-0.23    c-0.667-0.15-1.18-0.324-1.538-0.521v2.449c0.344,0.129,0.824,0.25,1.442,0.365c0.617,0.115,1.175,0.174,1.669,0.174    c1.773,0,3.092-0.313,3.953-0.938c0.859-0.625,1.471-1.549,1.83-2.77c0.36-1.222,0.539-2.742,0.539-4.571    c0-2.555-0.189-4.396-0.567-5.532C16.577,9.776,16,8.943,15.226,8.412C14.45,7.88,13.42,7.614,12.132,7.614    c-1.806,0-3.12,0.487-3.948,1.459c-0.826,0.974-1.241,2.51-1.241,4.605c0,1.527,0.365,2.756,1.095,3.685    C8.767,18.291,9.795,18.755,11.121,18.755z M10.609,10.748c0.354-0.599,0.872-0.899,1.545-0.899c0.793,0,1.38,0.299,1.758,0.893    c0.378,0.596,0.566,1.538,0.566,2.825c0,0.974-0.192,1.71-0.579,2.208c-0.385,0.497-0.93,0.747-1.633,0.747    c-0.719,0-1.264-0.275-1.635-0.832c-0.371-0.554-0.556-1.389-0.556-2.505C10.076,12.16,10.254,11.348,10.609,10.748z"/>
<g>
<path d="M28.189,19.668l-1.572,5.707h-1.455c-0.53-2.35-0.85-3.861-0.957-4.535c-0.102,0.615-0.475,2.127-1.123,4.535h-1.455     l-1.533-5.707h1.314l0.98,4.574c0.111-0.68,0.499-2.205,1.162-4.574h1.433c0.504,2.076,0.819,3.613,0.947,4.609     c0.119-0.629,0.297-1.371,0.53-2.228l0.576-2.383L28.189,19.668L28.189,19.668z"/>
<path d="M33.391,25.375h-1.412l-1.117-2.23l-1.25,2.23h-1.27l1.748-3.027l-1.539-2.68h1.412l0.977,1.85l1.104-1.85h1.271     l-1.582,2.689L33.391,25.375z"/>
<path d="M38.332,19.668l-1.436,4.574c-0.28,0.922-0.539,1.854-0.777,2.793h-1.182l0.41-1.566l-1.88-5.801h1.343l1.147,4.086     l1.183-4.086H38.332z"/>
<path d="M42.805,25.375h-4.199v-1.137l2.793-3.697h-2.725v-0.873h4.131v0.957l-2.896,3.877h2.896V25.375z"/>
</g>
</g>
<g>
<rect fill="none" height="32" width="44"/>
</g>
</g>
</svg>
