<?xml version="1.0" encoding="UTF-8"?>
<!DOCTYPE svg PUBLIC "-//W3C//DTD SVG 1.1 Tiny//EN" "http://www.w3.org/Graphics/SVG/1.1/DTD/svg11-tiny.dtd">
<svg width="36" height="36" viewBox="0 0 36 36">
<path d="M1.658,18.602c0,9.341,7.602,16.939,16.941,16.939 c9.342,0,16.941-7.598,16.941-16.939c0-9.342-7.6-16.943-16.941-16.943C9.26,1.659,1.658,9.26,1.658,18.602z" fill-opacity="0.01" />
<path d="M2.397,18.602c0,8.932,7.269,16.2,16.202,16.2s16.203-7.268,16.203-16.2 c0-8.934-7.27-16.201-16.203-16.201S2.397,9.668,2.397,18.602z" fill-opacity="0.02" />
<path d="M3.137,18.602c0,8.524,6.938,15.458,15.463,15.458 c8.527,0,15.461-6.934,15.461-15.458c0-8.531-6.934-15.463-15.461-15.463C10.074,3.139,3.137,10.071,3.137,18.602z" fill-opacity="0.04" />
<path d="M3.761,18.602c0,8.181,6.657,14.837,14.839,14.837 c8.181,0,14.837-6.656,14.837-14.837c0-8.184-6.656-14.84-14.837-14.84C10.418,3.762,3.761,10.418,3.761,18.602z" fill-opacity="0.07" />
<linearGradient id="_3" gradientUnits="userSpaceOnUse" x1="18.01" y1="1.35" x2="18.01" y2="39.3">
<stop stop-color="#B3DDFF" offset="0"/>
<stop stop-color="#3366CC" offset="1"/>
</linearGradient>
<path d="M3.028,18.012c0,8.262,6.721,14.983,14.982,14.983 c8.263,0,14.985-6.722,14.985-14.983c0-8.262-6.723-14.984-14.985-14.984C9.749,3.027,3.028,9.75,3.028,18.012z" fill="url(#_3)"/>
<linearGradient id="_4" gradientUnits="userSpaceOnUse" x1="18.01" y1="4.61" x2="18.01" y2="35.86">
<stop stop-color="#FFFFFF" offset="0"/>
<stop stop-color="#C4E0F4" offset="0.26"/>
<stop stop-color="#96C7EB" offset="0.5"/>
<stop stop-color="#75B6E5" offset="0.71"/>
<stop stop-color="#61ABE1" offset="0.88"/>
<stop stop-color="#5AA7E0" offset="1"/>
</linearGradient>
<circle cx="18.012" cy="18.012" fill="url(#_4)" r="13.984"/>
<ellipse cx="18.011" cy="18.027" fill="#CFECFF" fill-opacity="0.3" rx="12.079" ry="9.86" />
<path d="M17.52,7.798c-4.991,0-9.368,4.065-9.368,9.365c0,5.167,4.203,9.372,9.368,9.372 c5.167,0,9.37-4.205,9.37-9.372C26.889,11.937,22.71,7.798,17.52,7.798z M10.258,14.023c7.438-2.281,6.875-3.438,6.316-4.731 c0.956-0.112,1.666-0.083,2.575,0.108c-0.045,0.667,1.241,2.018,0.953,2.436c-1.625-0.125-3.379,0.609-4.424,2.519 c-0.119,0.221-0.014,1.7-0.17,1.7c-0.657,0-1.688,1.281-0.15,1.542c1.389-1.32,0.994-1.542,3.352,0 c0.488,0.11,0.475-1.215,1.401-0.863c1.835,0.697,0.116,2.322-1.724,1.727c-4.101-2.437-5.879,1.689-4.963,3.143 c0.757,1.407,2.488,0.975,3.461,1.293c0.641,0.215,0.915,1.398,1.027,2.187C12.07,25.679,7.914,19.117,10.258,14.023z M21.768,23.857c0.057-0.144,1.804-3.227,1.929-4.528c0.109-1.083-0.896-2.388,0.758-1.841c0.3,0.098,0.581,0.875,0.888,0.958 C24.971,20.719,23.637,22.667,21.768,23.857z" fill="#3366CC"/>
</svg>