<?xml version="1.0" encoding="UTF-8"?>
<!DOCTYPE svg PUBLIC "-//W3C//DTD SVG 1.1 Tiny//EN" "http://www.w3.org/Graphics/SVG/1.1/DTD/svg11-tiny.dtd">
<svg width="44" height="44" viewBox="0 0 44 44">
<path d="M5.29,29.709l1.013,1.612c0,0,1.02-0.644,1.535-0.969c-0.012,0.181-0.292,2.299,1.048,4.03 c1.69,2.184,5.086,1.996,5.086,1.996l0.021-1.792c0,0-2.635,0.123-3.693-1.311c-0.436-0.59-0.686-1.395-0.696-2.345 c0.331,0.526,0.837,1.329,0.837,1.329l1.611-1.016l-2.615-4.153L5.29,29.709z" fill="#496DA2"/>
<path d="M21.326,7.319l0.386,1.753c0,0,2.687-0.699,3.903,0.424c0.508,0.469,0.882,1.176,1.117,2.03 c-0.406-0.401-1.026-1.012-1.026-1.012l-1.334,1.361l3.497,3.441l3.436-3.502l-1.358-1.336c0,0-0.841,0.857-1.269,1.292 c-0.201-1.221-0.707-2.659-1.945-3.677C24.575,6.32,21.326,7.319,21.326,7.319z" fill="#496DA2"/>
<linearGradient id="_3" gradientUnits="userSpaceOnUse" x1="5.55" y1="7.94" x2="18.32" y2="20.72">
<stop stop-color="#FFFFFF" offset="0"/>
<stop stop-color="#E0EAF3" offset="0.11"/>
<stop stop-color="#A2C2DD" offset="0.35"/>
<stop stop-color="#8CA9CF" offset="0.48"/>
<stop stop-color="#6C83BB" offset="0.7"/>
<stop stop-color="#637DB5" offset="0.75"/>
<stop stop-color="#4C6EA4" offset="0.82"/>
<stop stop-color="#265689" offset="0.91"/>
<stop stop-color="#003D6D" offset="0.99"/>
</linearGradient>
<path d="M7.936,11.188v10.557h12.269V11.188H7.936z M17.791,19.329c-2.351,0-5.091,0-7.442,0 c0-2.021,0-3.704,0-5.725c2.352,0,5.092,0,7.442,0C17.791,15.625,17.791,17.308,17.791,19.329z" fill="url(#_3)"/>
<linearGradient id="_4" gradientUnits="userSpaceOnUse" x1="10.7" y1="10.06" x2="34.07" y2="33.44">
<stop stop-color="#FFFFFF" offset="0"/>
<stop stop-color="#E0EAF3" offset="0.11"/>
<stop stop-color="#A2C2DD" offset="0.35"/>
<stop stop-color="#8CA9CF" offset="0.48"/>
<stop stop-color="#6C83BB" offset="0.7"/>
<stop stop-color="#637DB5" offset="0.75"/>
<stop stop-color="#4C6EA4" offset="0.82"/>
<stop stop-color="#265689" offset="0.91"/>
<stop stop-color="#003D6D" offset="0.99"/>
</linearGradient>
<path d="M22.584,16.32v2.416c6.488,0,10.881,0,12.793,0c0,3.121,0,10.752,0,13.873 c-3.412,0-14.73,0-18.142,0c0-1.855,0-5.301,0-8.449h-2.413v10.865H37.79V16.32H22.584z" fill="url(#_4)"/>
</svg>