<?xml version="1.0" encoding="UTF-8"?>
<!DOCTYPE svg PUBLIC "-//W3C//DTD SVG 1.1 Tiny//EN" "http://www.w3.org/Graphics/SVG/1.1/DTD/svg11-tiny.dtd">
<svg baseProfile="tiny" height="29px" version="1.1" viewBox="0 0 42 29" width="42px" x="0px" xmlns="http://www.w3.org/2000/svg" xmlns:xlink="http://www.w3.org/1999/xlink" y="0px">
<rect fill="none" height="29" width="42" x="0.001" y="0.003"/>
<g>
<g>
<linearGradient gradientTransform="matrix(1 0 0 -1 0 28)" gradientUnits="userSpaceOnUse" id="SVGID_1_" x1="27.4502" x2="30.973" y1="10.626" y2="6.5282">
<stop offset="0" style="stop-color:#AABBD7"/>
<stop offset="0.2634" style="stop-color:#92A5CC"/>
<stop offset="0.7135" style="stop-color:#6C83BB"/>
<stop offset="0.7571" style="stop-color:#637DB5"/>
<stop offset="0.8268" style="stop-color:#4C6EA4"/>
<stop offset="0.9134" style="stop-color:#265689"/>
<stop offset="0.9888" style="stop-color:#003D6D"/>
<stop offset="1" style="stop-color:#003D6D"/>
</linearGradient>
<path d="M20.562,3.511c0.003-0.001,0.008,0.01,0.01,0.009c-2.329,0.934-3.74,3.268-3.777,6.239l0.072,6.883    c-0.056,4.608,2.808,8.628,6.383,8.954c0.826,0.075,1.645-0.002,2.434-0.23c2.648-0.646,6.203-2.104,6.361-7.275l0.184-7.394    c-0.064-3.079-1.289-5.531-3.449-6.917C26.508,2.325,23.516,2.228,20.562,3.511z" fill="url(#SVGID_1_)"/>
<g>
<g>
<linearGradient gradientTransform="matrix(1 0 0 -1 0 28)" gradientUnits="userSpaceOnUse" id="SVGID_2_" x1="26.2949" x2="26.4317" y1="25.7432" y2="3.0017">
<stop offset="0" style="stop-color:#FFFFFF"/>
<stop offset="0.0804" style="stop-color:#E4EDF5"/>
<stop offset="0.2367" style="stop-color:#B4CEE4"/>
<stop offset="0.3146" style="stop-color:#A2C2DD"/>
<stop offset="0.4547" style="stop-color:#8EABD1"/>
<stop offset="0.6573" style="stop-color:#6C83BB"/>
<stop offset="0.7036" style="stop-color:#637DB5"/>
<stop offset="0.7776" style="stop-color:#4C6EA4"/>
<stop offset="0.8695" style="stop-color:#265689"/>
<stop offset="0.9494" style="stop-color:#003D6D"/>
<stop offset="1" style="stop-color:#003D6D"/>
</linearGradient>
<path d="M20.659,3.729c5.591-2.433,11.195,0.327,11.332,6.962l-0.182,7.392      c-0.15,4.824-3.279,6.462-6.813,7.194L20.659,3.729z" fill="url(#SVGID_2_)"/>
<linearGradient gradientTransform="matrix(1 0 0 -1 0 28)" gradientUnits="userSpaceOnUse" id="SVGID_3_" x1="15.2466" x2="24.8806" y1="30.8203" y2="11.159">
<stop offset="0" style="stop-color:#FFFFFF"/>
<stop offset="0.1745" style="stop-color:#F8FBFD"/>
<stop offset="0.4209" style="stop-color:#E6EFF6"/>
<stop offset="0.7103" style="stop-color:#C8DBEB"/>
<stop offset="1" style="stop-color:#A2C2DD"/>
</linearGradient>
<path d="M23.678,3.425c4.184,0.519,6.547,3.948,6.447,9.02l-0.209,6.577      c-0.051,4.282-3.219,6.649-6.645,6.338c-3.616-0.33-6.22-4.439-6.168-8.722l-0.07-6.876C17.084,5.483,20.075,2.853,23.678,3.425      z" fill="url(#SVGID_3_)"/>
<path d="M27.684,11.58l-3.295,3.074l3.277,4.427l-4.818,4.485l0.014-7.488l-2.333,2.174l-0.848-1.213      l2.951-2.747l-2.933-3.961l0.852-0.861l2.32,3.131l0.027-7.483L27.684,11.58z M24.104,8.758      c-0.004,1.459-0.008,2.738-0.016,4.171c0.83-0.768,1.604-1.494,1.838-1.711C25.494,10.636,24.885,9.815,24.104,8.758       M25.906,18.72c-0.23-0.315-1.002-1.357-1.826-2.467c-0.002,1.435-0.002,2.715-0.006,4.171      C24.861,19.692,25.473,19.121,25.906,18.72" fill="#FFFFFF"/>
</g>
</g>
</g>
</g>
<g>
<path d="M6.631,17.091c-1.439,0-3.412,0.342-3.912,3.295l-0.074,0.447c0,0,3.317,0,3.711,0   c0.117,0.213,0.296,0.533,0.408,0.738c-0.113,0.203-0.291,0.523-0.408,0.736c-0.394,0-3.711,0-3.711,0l0.074,0.445   c0.5,2.955,2.473,3.295,3.912,3.295c1.135,0,2.146-0.949,2.959-1.717c0.439-0.414,0.854-0.805,1.073-0.805h10.159l0.112-0.125   c0.22-0.238,0.725-0.895,0.735-1.814v-0.031c-0.01-0.922-0.515-1.576-0.735-1.816l-0.112-0.125H10.664   c-0.22,0-0.634-0.389-1.072-0.803C8.778,18.044,7.766,17.091,6.631,17.091z" fill="#FFFFFF"/>
<linearGradient gradientTransform="matrix(0.5 0 0 -0.5 -277.8506 -387.3223)" gradientUnits="userSpaceOnUse" id="SVGID_4_" x1="567.5723" x2="589.4796" y1="-804.021" y2="-830.376">
<stop offset="0" style="stop-color:#E6EDF3"/>
<stop offset="0.1196" style="stop-color:#CABAD7"/>
<stop offset="0.2719" style="stop-color:#AB7EB8"/>
<stop offset="0.3844" style="stop-color:#9759A4"/>
<stop offset="0.4438" style="stop-color:#8F4B9C"/>
<stop offset="0.5679" style="stop-color:#73357C"/>
<stop offset="0.7242" style="stop-color:#551D5A"/>
<stop offset="0.8533" style="stop-color:#430E45"/>
<stop offset="0.9382" style="stop-color:#3C093D"/>
<stop offset="1" style="stop-color:#3C093D"/>
</linearGradient>
<path d="M21.291,21.569c0-0.004,0.002-0.008,0.002-0.01H21.29c-0.01-0.803-0.468-1.381-0.635-1.564   c-0.215,0-9.99,0-9.99,0c-0.372,0-0.776-0.381-1.337-0.906c-0.761-0.719-1.713-1.615-2.697-1.615c-1.598,0-3.11,0.469-3.534,2.977   c0.601,0,3.483,0,3.483,0l0.619,1.119L6.58,22.688c0,0-2.883,0-3.483,0c0.425,2.508,1.937,2.977,3.534,2.977   c0.984,0,1.935-0.895,2.697-1.613c0.561-0.527,0.965-0.908,1.337-0.908c0,0,9.775,0,9.99,0c0.168-0.184,0.627-0.762,0.635-1.563   h0.003C21.292,21.577,21.291,21.573,21.291,21.569z" fill="url(#SVGID_4_)"/>
</g>
</svg>
