<?xml version="1.0" encoding="UTF-8"?>
<!DOCTYPE svg PUBLIC "-//W3C//DTD SVG 1.1 Tiny//EN" "http://www.w3.org/Graphics/SVG/1.1/DTD/svg11-tiny.dtd">
<svg baseProfile="tiny" height="44" version="1.1" viewBox="0.105 -0.176 44 44" width="44" xmlns="http://www.w3.org/2000/svg" xmlns:xlink="http://www.w3.org/1999/xlink">
<g>
<rect fill="none" height="44" width="44" x="0.105" y="-0.176"/>
<g>
<g>
<linearGradient gradientUnits="userSpaceOnUse" id="XMLID_4_" x1="19.3921" x2="19.3921" y1="8.792" y2="36.959">
<stop offset="0" style="stop-color:#B2B2B2"/>
<stop offset="1" style="stop-color:#000000"/>
</linearGradient>
<path d="M27.038,26.461h-0.15c-0.768,0-1.334-0.053-1.609-0.318l-0.09-0.088v-0.127l-0.016-8.631     c-2.021-2.531-4.607-2.912-5.979-2.912c-0.986,0-1.987,0.191-2.818,0.537c-2.906,1.211-4.713,3.881-4.713,6.967     c0,2.207,0.863,4.244,2.432,5.74c1.451,1.385,3.371,2.18,5.271,2.18c1.077,0,2.083-0.252,2.929-0.701l0.189-0.176l0.152-0.141     l0.186,0.092c0.618,0.31,1.078,0.441,1.602,0.5l2.698-2.93C27.094,26.456,27.062,26.461,27.038,26.461z M22.587,18.354v2.297     v4.771v0.131l-0.098,0.088c-0.867,0.809-2.025,1.254-3.258,1.254c-2.493,0-5.07-1.873-5.072-5.012     c0-3.127,2.577-4.998,5.068-4.998c1.23,0,2.391,0.443,3.262,1.25l0.098,0.088V18.354z" fill="url(#XMLID_4_)"/>
<linearGradient gradientUnits="userSpaceOnUse" id="XMLID_5_" x1="19.1055" x2="19.1055" y1="8.792" y2="36.9581">
<stop offset="0" style="stop-color:#B2B2B2"/>
<stop offset="1" style="stop-color:#000000"/>
</linearGradient>
<path d="M22.922,32.688c-1.073,0.25-2.207,0.304-3.265,0.304h-0.273h-0.229     c-6.445,0-11.124-4.582-11.124-10.893c0-6.775,4.698-11.693,11.173-11.693c7.5,0,11.09,6.217,11.348,9.547     c0.108,1.393-0.038,2.443-0.264,3.246h0.709h1.225h0.311c0.173-0.814,0.273-1.75,0.273-2.832c0-4.986-5.303-12.232-13.615-12.232     c-7.727,0-13.781,6.039-13.785,13.748c-0.005,3.648,1.391,7.057,3.932,9.6c2.598,2.6,6.1,4.033,9.865,4.033h0.039     c1.597-0.002,3.849-0.111,5.411-0.949l-1.253-1.359L22.922,32.688z" fill="url(#XMLID_5_)"/>
</g>
<linearGradient gradientUnits="userSpaceOnUse" id="XMLID_6_" x1="31.6201" x2="31.6201" y1="8.792" y2="36.958">
<stop offset="0" style="stop-color:#B2B2B2"/>
<stop offset="1" style="stop-color:#000000"/>
</linearGradient>
<polygon fill="url(#XMLID_6_)" points="38.37,28.883 38.37,34.816 32.222,34.816 32.222,38.5 30.995,38.5 24.87,31.852     30.995,25.199 32.222,25.199 32.222,28.883   "/>
</g>
</g>
</svg>
