<?xml version="1.0" encoding="UTF-8"?>
<!DOCTYPE svg PUBLIC "-//W3C//DTD SVG 1.1 Tiny//EN" "http://www.w3.org/Graphics/SVG/1.1/DTD/svg11-tiny.dtd">
<svg width="84.002" height="72" viewBox="0 0 84.002 72">
<linearGradient id="_11" gradientUnits="userSpaceOnUse" x1="34.48" y1="38.95" x2="53.04" y2="75.5">
<stop stop-color="#A2C2DD" offset="0.1"/>
<stop stop-color="#6C83BB" offset="0.71"/>
<stop stop-color="#003D6D" offset="0.99"/>
</linearGradient>
<path fill="url(#_11)" d="M5.537,7.413v50.522c0,0,29.304,0,29.671,0c1.72,2.9,6.189,5.771,6.189,5.771 s8.894,2.293,12.75-2.131c0.185-0.493,1.625-4.647,2.145-6.131c0.491,1.596,2.419,7.847,2.419,7.847 c1.213,3.666,10.564,3.462,10.564,3.462s8.891-2.879,9.234-8.607c-0.094-0.521-4.814-17.957-4.814-17.957 s-8.243,3.997-13.78,4.843c0.072-0.207,0.296-0.849,0.296-0.849s-2.915-0.106-4.811-0.652c0-0.597,0-36.118,0-36.118H5.537z"/>
<linearGradient id="_12" gradientUnits="userSpaceOnUse" x1="5.95" y1="7.7" x2="70.11" y2="73.04">
<stop stop-color="#FFFFFF" offset="0.05"/>
<stop stop-color="#A2C2DD" offset="1"/>
</linearGradient>
<rect x="5.887" y="7.763" fill="url(#_12)" width="49.164" height="49.823"/>
<linearGradient id="_13" gradientUnits="userSpaceOnUse" x1="56.85" y1="24.27" x2="-5.98" y2="39.77">
<stop stop-color="#FFFFFF" offset="0"/>
<stop stop-color="#A2C2DD" offset="0.35"/>
<stop stop-color="#6C83BB" offset="0.7"/>
<stop stop-color="#003D6D" offset="1"/>
</linearGradient>
<path fill-opacity="0.8" fill="url(#_13)" d="M55.051,35.879l-0.036-18.465c0,0-39.08-6.004-48.188,28.021 C6.827,45.435,38.263,15.414,55.051,35.879z"/>
<linearGradient id="_14" gradientUnits="userSpaceOnUse" x1="30.33" y1="2.17" x2="30.33" y2="61.67">
<stop stop-color="#FFFFFF" offset="0"/>
<stop stop-color="#A2C2DD" offset="0.35"/>
<stop stop-color="#6C83BB" offset="0.7"/>
<stop stop-color="#003D6D" offset="1"/>
</linearGradient>
<path fill-opacity="0.8" fill="url(#_14)" d="M44.48,7.765L19.566,7.738c0,0-15.224,16.773,18.915,48.376 C38.481,56.114,12.289,12.369,44.48,7.765z"/>
<linearGradient id="_15" gradientUnits="userSpaceOnUse" x1="12" y1="6.34" x2="28.5" y2="67.67">
<stop stop-color="#FFFFFF" offset="0"/>
<stop stop-color="#A2C2DD" offset="0.35"/>
<stop stop-color="#6C83BB" offset="0.7"/>
<stop stop-color="#003D6D" offset="1"/>
</linearGradient>
<path fill-opacity="0.8" fill="url(#_15)" d="M5.878,8.148L5.856,33.065c0,0,30.265,11.307-0.161,20.856 C5.694,53.922,78.367,38.212,5.878,8.148z"/>
<linearGradient id="_16" gradientUnits="userSpaceOnUse" x1="59.82" y1="62.3" x2="74.57" y2="38.73">
<stop stop-color="#D6E4F3" offset="0"/>
<stop stop-color="#337CE5" offset="1"/>
</linearGradient>
<path fill="url(#_16)" d="M69.22,66.421c0,0-9.016,0.238-10.161-3.223c-1.145-3.466-5.302-17.438-5.302-17.438 s9.124,0.893,19.732-5.03l4.687,17.436C78.176,58.165,78.215,62.862,69.22,66.421z"/>
<linearGradient id="_17" gradientUnits="userSpaceOnUse" x1="63.81" y1="50.32" x2="61.08" y2="52.85">
<stop stop-color="#E6EEF4" offset="0"/>
<stop stop-color="#575AC6" offset="0.44"/>
<stop stop-color="#003D6D" offset="0.94"/>
</linearGradient>
<path fill="url(#_17)" d="M59.208,53.381c0,0,1.261-4.403,5.01-1.421C64.22,51.96,61.427,51.207,59.208,53.381z"/>
<linearGradient id="_18" gradientUnits="userSpaceOnUse" x1="71.71" y1="47.46" x2="68.75" y2="51.5">
<stop stop-color="#E6EEF4" offset="0"/>
<stop stop-color="#575AC6" offset="0.44"/>
<stop stop-color="#003D6D" offset="0.94"/>
</linearGradient>
<path fill="url(#_18)" d="M67.232,51.08c0,0,1.262-4.403,5.011-1.425C72.243,49.655,69.451,48.906,67.232,51.08z"/>
<linearGradient id="_19" gradientUnits="userSpaceOnUse" x1="69.09" y1="63.93" x2="67.71" y2="58.49">
<stop stop-color="#E6EEF4" offset="0"/>
<stop stop-color="#575AC6" offset="0.44"/>
<stop stop-color="#003D6D" offset="0.94"/>
</linearGradient>
<path fill="url(#_19)" d="M62.477,60.005c0,0,8.398-1.132,10.276-3.809C72.753,56.196,71.183,65.805,62.477,60.005z"/>
<linearGradient id="_20" gradientUnits="userSpaceOnUse" x1="38.13" y1="38.12" x2="53.29" y2="58.97">
<stop stop-color="#E3DFE4" offset="0"/>
<stop stop-color="#C03A3A" offset="1"/>
</linearGradient>
<path fill="url(#_20)" d="M41.548,63.394c0,0-7.616-4.822-6.63-8.333c0.985-3.515,5.348-17.427,5.348-17.427 s7.37,5.881,19.481,6.877l-5.87,16.879C53.877,61.39,51.001,65.452,41.548,63.394z"/>
<path fill="#FFFFFF" d="M40.528,46.995c0,0,3.507-2.946,4.952,1.613C45.48,48.608,43.584,46.43,40.528,46.995z"/>
<path fill="#FFFFFF" d="M48.474,49.558c0,0,3.51-2.95,4.953,1.61C53.427,51.168,51.532,48.988,48.474,49.558z"/>
<path fill="#FFFFFF" d="M39.539,54.313c0,0,3.468,3.462,10.656,2.564C50.195,56.878,43.263,62.006,39.539,54.313z"/>
<path fill="#FFFFFF" d="M44.627,54.404l1.318-0.888l2.104-5.195c0,0,1.239-2.674,5.832,1.213c0,0-1.245-3.991-5.765-3.709 L44.627,54.404z"/>
</svg>