<?xml version="1.0" encoding="UTF-8"?>
<!DOCTYPE svg PUBLIC "-//W3C//DTD SVG 1.1 Tiny//EN" "http://www.w3.org/Graphics/SVG/1.1/DTD/svg11-tiny.dtd">
<svg width="20" height="20" viewBox="0 0 20 20">
<path d="M13.065,13.983v1.196H6.934v-0.749c0-0.715,0.124-1.35,0.371-1.904c0.248-0.555,0.553-1.027,0.915-1.42 c0.361-0.392,0.82-0.821,1.374-1.289c0.665-0.559,1.084-0.991,1.259-1.299c0.174-0.307,0.261-0.611,0.261-0.914 c0-0.531-0.141-0.932-0.423-1.199c-0.281-0.269-0.704-0.402-1.269-0.402c-0.596,0-1.317,0.153-2.165,0.461H7.243V5.239 C8.132,4.96,8.998,4.82,9.842,4.82c1.04,0,1.831,0.229,2.371,0.685c0.541,0.455,0.812,1.128,0.812,2.018 c0,0.499-0.121,0.99-0.364,1.474s-0.815,1.104-1.719,1.859c-0.504,0.427-0.898,0.782-1.183,1.065 c-0.284,0.285-0.523,0.598-0.718,0.938c-0.195,0.342-0.302,0.717-0.32,1.124H13.065z" fill="#536376"/>
</svg>