<?xml version="1.0" encoding="UTF-8"?>
<!DOCTYPE svg PUBLIC "-//W3C//DTD SVG 1.1 Tiny//EN" "http://www.w3.org/Graphics/SVG/1.1/DTD/svg11-tiny.dtd">
<svg width="84" height="58" viewBox="0 0 84 58">
<linearGradient id="_28" gradientUnits="userSpaceOnUse" x1="39.79" y1="33.21" x2="51.42" y2="56.12">
<stop stop-color="#A2C2DD" offset="0.1"/>
<stop stop-color="#6C83BB" offset="0.71"/>
<stop stop-color="#003D6D" offset="0.99"/>
</linearGradient>
<path fill="url(#_28)" d="M75.369,38.137l-8.793-8.865l-0.059-0.009c0,0-0.619-0.129-0.842-0.175 c-0.138-0.146-6.976-7.383-7.354-7.782c2.035-2.312,2.665-5.024,2.665-7.184c0-1.168-0.112-2.09-0.389-2.854 c-0.001-0.003-0.001-0.006-0.001-0.008c0,0-0.002-0.006-0.002-0.009c0,0-0.877-2.063-2.297-3.277 c-4.207-3.599-12.247-4.357-18.021-1.577c0,0-0.6,0.319-0.831,0.442c-0.866-0.273-1.76-0.413-2.67-0.36 c-3.8,0.221-5.533,2.784-6.329,4.985c-1.07,0.041-2.06,0.499-2.786,1.292c-0.01,0.004-17.931,8.012-17.931,8.012 c-1.113,0.651-1.579,1.729-1.742,2.895c-0.052,0.37,0.109,3.529,0.738,4.158c0,0,4.53,4.467,4.919,4.851 c-0.298,0.421-2.346,3.322-2.346,3.322c-0.203,0.51-0.301,1.018-0.301,1.521c0,0.09-0.687,3.245,0.323,4.759 c0.953,1.43,20.642,8.616,24.579,10.042c2.741,0.87,5.271,0.261,6.458-1.548c0,0,6.219-11.85,6.313-12.028 c4.516-2.561,4.735-2.775,4.825-2.864c0.999-0.999,1.138-3.991,1.149-4.329c0.005-0.074-0.068-2.06-0.898-2.484 c0.154-0.294,0.494-0.94,0.745-1.42c0.569,0.665,5.085,5.927,5.614,6.545c-0.694,0.296-3.783,1.611-3.783,1.611l0.645,3.095 l2.095,2.864l0.256-0.159c0,0,0.329-0.157,0.627-0.3c0.126,0.599,0.458,2.18,0.458,2.18l1.917,2.63 c0.124,0.258,0.145,0.252,5.41-2.332c0.284,0.326,1.642,1.882,1.642,1.882l0.128,0.019c2.927,0.425,5.527-1.792,6.28-3.557 l0.037-0.086L75.369,38.137z M35.196,12.861l-1.253-0.324c0.446-0.426,0.981-0.808,1.607-1.099 C35.37,11.907,35.248,12.383,35.196,12.861z M41.802,14.209c0.283-0.245,0.563-0.489,0.942-0.712 c0.477,0.414,0.873,0.839,1.213,1.269C43.125,14.551,42.438,14.373,41.802,14.209z M51.48,16.712 c-0.188-0.049-4.225-1.093-4.556-1.179c-0.13-0.385-0.589-1.604-1.405-3.071c3.126-0.701,6.527-0.191,8.418,1.368 c0,0.001,0.381,0.427,0.608,0.682C54.032,15.288,52.188,16.563,51.48,16.712z M61.74,42.528l0.216,0.255l0.003,0.012 L61.74,42.528z"/>
<linearGradient id="_29" gradientUnits="userSpaceOnUse" x1="62.6" y1="11.7" x2="56.66" y2="19.61">
<stop stop-color="#E6EEF4" offset="0"/>
<stop stop-color="#A3740A" offset="0.44"/>
<stop stop-color="#474105" offset="0.94"/>
</linearGradient>
<path fill="url(#_29)" d="M60.262,11.356c0.656,2.084,0.84,6.721-2.564,10.164l-2.027-2.176 C59.206,17.145,61.061,14.125,60.262,11.356z"/>
<linearGradient id="_30" gradientUnits="userSpaceOnUse" x1="50.37" y1="16.85" x2="66.12" y2="33.35">
<stop stop-color="#E2E6E4" offset="0"/>
<stop stop-color="#A3740A" offset="1"/>
</linearGradient>
<path fill="url(#_30)" d="M55.768,19.111l17.09,18.088l-4.079,2.341L51.26,20.576c1.444-0.181,2.155-0.361,3.395-0.958 C55.223,19.344,55.736,19.037,55.768,19.111z"/>
<linearGradient id="_31" gradientUnits="userSpaceOnUse" x1="59.42" y1="34.44" x2="61.25" y2="42.35">
<stop stop-color="#E6EEF4" offset="0"/>
<stop stop-color="#A3740A" offset="0.44"/>
<stop stop-color="#474105" offset="0.94"/>
</linearGradient>
<polygon fill="url(#_31)" points="58.424,38.146 61.834,36.882 62.432,39.718 59.159,41.285 "/>
<linearGradient id="_32" gradientUnits="userSpaceOnUse" x1="59.92" y1="34.47" x2="62.84" y2="40.89">
<stop stop-color="#E6EEF4" offset="0"/>
<stop stop-color="#A3740A" offset="0.44"/>
<stop stop-color="#474105" offset="0.94"/>
</linearGradient>
<polygon fill="url(#_32)" points="60.914,37.108 64.123,41.129 64.662,43.739 61.294,40.073 "/>
<linearGradient id="_33" gradientUnits="userSpaceOnUse" x1="53.01" y1="35.62" x2="67.1" y2="48.46">
<stop stop-color="#E6EEF4" offset="0"/>
<stop stop-color="#A3740A" offset="0.44"/>
<stop stop-color="#474105" offset="0.94"/>
</linearGradient>
<polygon fill="url(#_33)" points="60.156,40.596 62.023,42.873 62.604,45.9 60.73,43.331 "/>
<polygon fill="url(#_33)" points="56.726,36.007 58.591,38.284 59.174,41.314 57.296,38.746 "/>
<linearGradient id="_35" gradientUnits="userSpaceOnUse" x1="64.02" y1="11.35" x2="36.27" y2="12.02">
<stop stop-color="#E6EEF4" offset="0"/>
<stop stop-color="#A3740A" offset="0.44"/>
<stop stop-color="#474105" offset="0.94"/>
</linearGradient>
<path fill="url(#_35)" d="M43.332,12.748c-1.326,0.602-2.268,1.397-2.793,2.264c-0.939-1.851-0.596-4.528,2.87-5.742 c3.661-1.284,8.353-1.225,10.827,0.812c1.54,1.27,1.883,3.376,1.016,4.799c-0.234-0.461-0.594-0.91-1.092-1.319 C51.688,11.521,46.839,11.158,43.332,12.748z"/>
<linearGradient id="_36" gradientUnits="userSpaceOnUse" x1="43.88" y1="3.32" x2="52.3" y2="24.49">
<stop stop-color="#E2E6E4" offset="0"/>
<stop stop-color="#A3740A" offset="1"/>
</linearGradient>
<path fill="url(#_36)" d="M40.43,6.712c5.67-2.73,13.566-2.045,17.638,1.524c4.072,3.571,2.777,8.681-2.893,11.41 c-5.666,2.728-13.563,2.044-17.635-1.53C33.468,14.548,34.762,9.439,40.43,6.712z M41.561,16.01 c2.434,2.008,7.204,2.367,10.653,0.803c3.45-1.565,4.272-4.46,1.835-6.468c-2.436-2.005-7.208-2.363-10.654-0.8 C39.943,11.108,39.124,14.006,41.561,16.01z"/>
<linearGradient id="_37" gradientUnits="userSpaceOnUse" x1="62.06" y1="11.54" x2="64.56" y2="49.13">
<stop stop-color="#E6EEF4" offset="0"/>
<stop stop-color="#A3740A" offset="0.44"/>
<stop stop-color="#474105" offset="0.94"/>
</linearGradient>
<path fill="url(#_37)" d="M75.035,38.297l-2.116-0.591l-4.14,1.834L51.293,20.571l0.728,3.65l9.813,11.438l0.26,1.118 l3.744,4.292l-3.889,1.68l0.655,3.152l5.214-2.56l1.732,1.986c2.74,0.398,5.201-1.689,5.908-3.348L75.035,38.297z"/>
<linearGradient id="_38" gradientUnits="userSpaceOnUse" x1="70.75" y1="32.29" x2="67.5" y2="35.7">
<stop stop-color="#E2E6E4" offset="0"/>
<stop stop-color="#A3740A" offset="1"/>
</linearGradient>
<path fill="url(#_38)" d="M75.035,38.297l-8.634-8.704c-2.257-0.795-4.563,0.895-5.319,2.837l7.961,9.033 C70.088,39.265,73.104,37.64,75.035,38.297z"/>
<linearGradient id="_39" gradientUnits="userSpaceOnUse" x1="18.35" y1="7.8" x2="43.77" y2="49.47">
<stop stop-color="#E6EEF4" offset="0"/>
<stop stop-color="#C03A3A" offset="0.44"/>
<stop stop-color="#302D02" offset="0.94"/>
</linearGradient>
<path fill="url(#_39)" d="M54.297,31.532c0,0-0.117,3.164-1.047,4.094c-0.693,0.693-22.972,12.938-22.972,12.938 S9.534,28.133,8.975,27.573c-0.82-0.82-0.631-3.729-0.631-3.729L54.297,31.532z"/>
<linearGradient id="_40" gradientUnits="userSpaceOnUse" x1="2.83" y1="15.43" x2="50.66" y2="37.77">
<stop stop-color="#E3DFE4" offset="0"/>
<stop stop-color="#C03A3A" offset="1"/>
</linearGradient>
<path fill="url(#_40)" d="M9.874,21.087c-1.624,0.954-2.034,2.923-0.918,4.402L28.44,44.384l4.96,0.946l19.352-11.483 c1.623-0.956,2.031-2.929,0.92-4.404L34.02,13.459c-1.112-1.479-3.333-1.902-4.956-0.946L9.874,21.087z"/>
<linearGradient id="_41" gradientUnits="userSpaceOnUse" x1="12.56" y1="14.35" x2="20.56" y2="23.1">
<stop stop-color="#E6EEF4" offset="0"/>
<stop stop-color="#C03A3A" offset="0.44"/>
<stop stop-color="#302D02" offset="0.94"/>
</linearGradient>
<polygon fill="url(#_41)" points="17.719,17.579 25.904,24.899 22.233,27.554 13.531,19.454 "/>
<linearGradient id="_42" gradientUnits="userSpaceOnUse" x1="23.9" y1="2.37" x2="41.23" y2="54.21">
<stop stop-color="#FFFFFF" offset="0"/>
<stop stop-color="#A2C2DD" offset="0.35"/>
<stop stop-color="#6C83BB" offset="0.7"/>
<stop stop-color="#003D6D" offset="1"/>
</linearGradient>
<path fill="url(#_42)" d="M40.475,48.553c-0.858,1.348-2.934,1.414-5.121,0.79l-0.004,0.032l-20.499-8.197 c0,0-3.415-1.109-3.512-3.321c0,0-0.664,2.817,0.274,4.222c0.938,1.406,24.407,9.907,24.407,9.907 c2.284,0.725,4.818,0.46,6.046-1.411l13.725-26.162l0.186-2.819C55.977,21.593,41.331,47.205,40.475,48.553z"/>
<linearGradient id="_43" gradientUnits="userSpaceOnUse" x1="11.34" y1="30.91" x2="55.95" y2="30.91">
<stop stop-color="#FFFFFF" offset="0.05"/>
<stop stop-color="#A2C2DD" offset="1"/>
</linearGradient>
<path fill="url(#_43)" d="M53.602,17.622c1.896,0.732,2.836,2.863,2.104,4.756L41.062,47.692 c-0.734,1.895-2.861,2.835-4.755,2.103l-22.618-8.846c-1.894-0.731-2.836-2.859-2.103-4.754l15.586-22.078 c0.732-1.895,2.861-2.836,4.756-2.102L53.602,17.622z"/>
<linearGradient id="_44" gradientUnits="userSpaceOnUse" x1="39.29" y1="29.55" x2="53.46" y2="20.05">
<stop stop-color="#E6EEF4" offset="0"/>
<stop stop-color="#A3740A" offset="0.44"/>
<stop stop-color="#474105" offset="0.94"/>
</linearGradient>
<polygon fill="url(#_44)" points="52.311,20.985 46.475,31.322 39.738,28.862 45.326,18.922 "/>
<linearGradient id="_45" gradientUnits="userSpaceOnUse" x1="46.82" y1="10.04" x2="26.77" y2="46.91">
<stop stop-color="#FFFFFF" offset="0"/>
<stop stop-color="#A2C2DD" offset="0.35"/>
<stop stop-color="#6C83BB" offset="0.7"/>
<stop stop-color="#003D6D" offset="1"/>
</linearGradient>
<polygon fill="url(#_45)" points="26.835,43.34 41.596,17.872 44.008,18.652 29.085,44.304 "/>
<linearGradient id="_46" gradientUnits="userSpaceOnUse" x1="27.69" y1="24.95" x2="40.52" y2="17.79">
<stop stop-color="#E6EEF4" offset="0"/>
<stop stop-color="#A3740A" offset="0.44"/>
<stop stop-color="#474105" offset="0.94"/>
</linearGradient>
<path fill="url(#_46)" d="M38.62,16.912c1.024,0.284,1.436,1.292,0.915,2.253l-3.774,6.956 c-0.52,0.959-1.775,1.506-2.8,1.223l-3.942-1.771c-1.027-0.283-1.438-1.29-0.916-2.252l3.894-6.445 c0.52-0.96,1.776-1.509,2.801-1.225L38.62,16.912z"/>
<linearGradient id="_47" gradientUnits="userSpaceOnUse" x1="29.75" y1="12.97" x2="33" y2="18.72">
<stop stop-color="#E6EEF4" offset="0"/>
<stop stop-color="#9646AC" offset="0.44"/>
<stop stop-color="#3D013F" offset="0.94"/>
</linearGradient>
<path fill="url(#_47)" d="M29.65,16.529c-1.089-0.543-1.413-1.663-0.722-2.511c0.686-0.849,2.127-1.099,3.217-0.563 c1.092,0.543,1.416,1.662,0.723,2.512C32.18,16.814,30.738,17.064,29.65,16.529z"/>
<linearGradient id="_48" gradientUnits="userSpaceOnUse" x1="33.9" y1="24.71" x2="35.51" y2="19.42">
<stop stop-color="#FFFFFF" offset="0.05"/>
<stop stop-color="#A2C2DD" offset="1"/>
</linearGradient>
<polygon fill-opacity="0.6" fill="url(#_48)" points="32.393,24.38 32.393,24.382 34.522,24.462 36.692,20.8 35.53,19.419 "/>
<linearGradient id="_49" gradientUnits="userSpaceOnUse" x1="31.72" y1="22.14" x2="32.31" y2="20.18">
<stop stop-color="#FFFFFF" offset="0.05"/>
<stop stop-color="#A2C2DD" offset="1"/>
</linearGradient>
<polygon fill-opacity="0.6" fill="url(#_49)" points="29.701,21.625 33.142,22.452 34.355,20.624 "/>
<polygon fill="url(#_45)" points="35.595,46.834 44.201,31.183 45.417,31.629 36.729,47.304 "/>
<polygon fill="url(#_45)" points="31.855,45.367 40.461,29.716 41.678,30.161 32.989,45.836 "/>
<linearGradient id="_52" gradientUnits="userSpaceOnUse" x1="60.5" y1="29.93" x2="63.16" y2="42.52">
<stop stop-color="#E2E6E4" offset="0"/>
<stop stop-color="#A3740A" offset="1"/>
</linearGradient>
<polygon fill="url(#_52)" points="62.023,33.75 56.726,36.007 58.535,38.267 60.941,37.236 62.654,39.494 60.127,40.625 62.006,42.841 67.733,40.211 "/>
<linearGradient id="_53" gradientUnits="userSpaceOnUse" x1="29.64" y1="10.82" x2="51.98" y2="13.65">
<stop stop-color="#E6EEF4" offset="0"/>
<stop stop-color="#9646AC" offset="0.44"/>
<stop stop-color="#3D013F" offset="0.94"/>
</linearGradient>
<path fill="url(#_53)" d="M30.051,15.43c0,0-0.044-8.207,6.746-8.602c6.933-0.407,9.859,9.001,9.859,9.001l-1.266-0.328 c0,0-3.34-6.382-8.49-6.156c-5.007,0.216-5.35,6.324-5.35,6.324S30.642,16.531,30.051,15.43z"/>
<linearGradient id="_54" gradientUnits="userSpaceOnUse" x1="47.38" y1="8.82" x2="24.88" y2="20.57">
<stop stop-color="#E6EEF4" offset="0"/>
<stop stop-color="#9646AC" offset="0.44"/>
<stop stop-color="#3D013F" offset="0.94"/>
</linearGradient>
<path fill="url(#_54)" d="M31.057,15.95c-0.229-0.929,1.25-6.947,6.479-6.938c6.505,0.015,7.98,6.505,7.98,6.505 c-0.373,0.061-0.719-0.203-0.719-0.203c-1.406-2.391-4.783-4.454-6.813-4.424c-4.18,0.058-5.839,3.966-5.972,4.954 C32.012,15.843,31.48,15.914,31.057,15.95z"/>
</svg>