<?xml version="1.0" encoding="UTF-8"?>
<!DOCTYPE svg PUBLIC "-//W3C//DTD SVG 1.1 Tiny//EN" "http://www.w3.org/Graphics/SVG/1.1/DTD/svg11-tiny.dtd">
<svg width="100%" height="100%" viewBox="0 0 88 88">
<linearGradient id="_16" gradientUnits="userSpaceOnUse" x1="43.93" y1="54.61" x2="39.9" y2="70.94">
<stop stop-color="#A2C2DD" offset="0.1"/>
<stop stop-color="#6C83BB" offset="0.71"/>
<stop stop-color="#003D6D" offset="0.99"/>
</linearGradient>
<path fill="url(#_16)" d="M31.05,17.75c-3.204-0.604-6.145,2.372-4.667,5.827c-0.268,0.317-0.653,0.812-1.197,1.519 c-2.96-0.581-6.443,2.18-4.81,5.983c-0.262,0.316-0.64,0.81-1.174,1.518c-3.268-0.615-6.483,2.468-4.899,6.154 c-0.301,0.352-0.754,0.928-1.41,1.771c-3.34-0.644-6.754,2.523-5.078,6.375c-0.421,0.479-2.425,3.01-2.425,3.01l1.716,6.201 L46.526,74.24c0,0,4.932-8.635,6.736-11.795c0,1.375,0,3.309,0,3.309l24.699,5.6l2.034-1.998l0.432-25.023l-8.495-8.631 c0,0-1.979-0.396-3.046-0.611c0.561-0.98,1.643-2.875,1.643-2.875l-0.112-6.077c0,0-2.466-0.657-3.559-0.948 c0.814-1.258,4.707-7.276,4.707-7.276s-16.245,1.853-37.154-1.857l-1.64-0.466C32.771,15.59,31.055,17.75,31.05,17.75z"/>
<path fill="none" stroke="#3366CC" stroke-width="0.5824" d="M7.493,50.441c-0.188-0.057-0.386-0.117-0.552-0.158l0.515,0.207 L7.493,50.441z"/>
<polygon fill="#FFFFFF" points="33.216,16.955 69.796,26.609 45.67,66.461 7.17,50.861 "/>
<linearGradient id="_17" gradientUnits="userSpaceOnUse" x1="53.91" y1="46.68" x2="64.71" y2="55.08">
<stop stop-color="#DEE9F3" offset="0"/>
<stop stop-color="#235487" offset="1"/>
</linearGradient>
<polygon fill="url(#_17)" points="69.793,26.532 45.67,65.992 46.305,73.268 69.895,31.966 "/>
<linearGradient id="_18" gradientUnits="userSpaceOnUse" x1="28.52" y1="56.48" x2="24.32" y2="66.08">
<stop stop-color="#FFFFFF" offset="0"/>
<stop stop-color="#496DA2" offset="0.71"/>
<stop stop-color="#235487" offset="0.99"/>
</linearGradient>
<polygon fill="url(#_18)" points="45.67,65.992 6.228,49.992 7.762,55.537 46.305,73.268 "/>
<linearGradient id="_19" gradientUnits="userSpaceOnUse" x1="69.64" y1="33.09" x2="48.05" y2="36.09">
<stop stop-color="#CADCEC" offset="0"/>
<stop stop-color="#87A8CB" offset="1"/>
</linearGradient>
<path fill="url(#_19)" d="M33.134,16.469c22.262,3.907,37.11,2.235,37.11,2.235L44.661,58.252L33.134,16.469z"/>
<linearGradient id="_20" gradientUnits="userSpaceOnUse" x1="66.86" y1="37.82" x2="32.74" y2="37.19">
<stop stop-color="#FFFFFF" offset="0.15"/>
<stop stop-color="#A2C2DD" offset="1"/>
</linearGradient>
<path fill="url(#_20)" d="M65.885,25.567L44.662,58.254c-20.769,0.271-34.617-7.664-38.51-8.133L33.098,16.32 L65.885,25.567z"/>
<linearGradient id="_21" gradientUnits="userSpaceOnUse" x1="53.33" y1="31.25" x2="22.74" y2="45.64">
<stop stop-color="#E6EEF4" offset="0"/>
<stop stop-color="#4A9900" offset="0.44"/>
<stop stop-color="#0E4E58" offset="0.94"/>
</linearGradient>
<path fill="url(#_21)" d="M40.97,35.473c0,0,1.585-0.861,1.717,0.553c0.133,1.414,1.321,2.928,3.108,2.189 c0,0,7.285-3.289,5.468-5.648c-4.485-5.298-9.559-1.727-14.862,1.542c-6.351,3.911-10.846,6.801-8.229,12.816 c1.457,2.336,5.354-1.02,7.487-2.41c1.451-1.277,0.622-3.006-0.587-3.752c-1.211-0.744,0.265-1.787,0.265-1.787L40.97,35.473z"/>
<path fill="#3F5AA6" d="M27.877,27.844c0,0-7.938-2.729-6.64,3.235l1.508-1.831c0.221-0.226,1.583-0.016,2.352,0.624 c-0.726,1.955,1.23,3.416,3.349,1.787C29.905,30.538,30.151,27.872,27.877,27.844z"/>
<linearGradient id="_22" gradientUnits="userSpaceOnUse" x1="28.62" y1="28.49" x2="24.17" y2="28.4">
<stop stop-color="#FFFFFF" offset="0.05"/>
<stop stop-color="#A2C2DD" offset="1"/>
</linearGradient>
<path fill="url(#_22)" d="M26.903,31.28c0.893-0.251,1.511-0.606,1.543-1.74c-1.686-7.162-9.854-3.348-7.214,1.569 C20.989,28.281,25.176,25.41,26.903,31.28z"/>
<path fill="#3F5AA6" d="M33.685,20.442c0,0-7.7-2.647-6.441,3.139l1.464-1.778c0.215-0.218,1.536-0.012,2.28,0.605 c-0.701,1.896,1.194,3.314,3.25,1.735C35.652,23.054,35.891,20.47,33.685,20.442z"/>
<linearGradient id="_23" gradientUnits="userSpaceOnUse" x1="34.41" y1="21.06" x2="30.08" y2="20.98">
<stop stop-color="#FFFFFF" offset="0.05"/>
<stop stop-color="#A2C2DD" offset="1"/>
</linearGradient>
<path fill="url(#_23)" d="M32.74,23.773c0.865-0.242,1.467-0.588,1.498-1.687c-1.635-6.947-9.56-3.246-6.999,1.521 C27.005,20.867,31.064,18.083,32.74,23.773z"/>
<path fill="#3F5AA6" d="M22.006,35.42c0,0-8.178-2.813-6.84,3.332l1.555-1.889c0.228-0.23,1.631-0.014,2.421,0.643 c-0.746,2.016,1.266,3.521,3.449,1.844C24.095,38.192,24.348,35.446,22.006,35.42z"/>
<linearGradient id="_24" gradientUnits="userSpaceOnUse" x1="22.77" y1="36.08" x2="18.18" y2="36">
<stop stop-color="#FFFFFF" offset="0.05"/>
<stop stop-color="#A2C2DD" offset="1"/>
</linearGradient>
<path fill="url(#_24)" d="M21.002,38.958c0.92-0.256,1.558-0.623,1.591-1.791c-1.736-7.375-10.151-3.449-7.432,1.619 C14.911,35.868,19.222,32.913,21.002,38.958z"/>
<path fill="#3F5AA6" d="M15.789,43.428c0,0-8.503-2.922-7.111,3.468l1.615-1.967c0.236-0.24,1.695-0.01,2.518,0.672 c-0.775,2.096,1.318,3.66,3.588,1.912C17.962,46.313,18.226,43.461,15.789,43.428z"/>
<linearGradient id="_25" gradientUnits="userSpaceOnUse" x1="16.59" y1="44.12" x2="11.81" y2="44.03">
<stop stop-color="#FFFFFF" offset="0.05"/>
<stop stop-color="#A2C2DD" offset="1"/>
</linearGradient>
<path fill="url(#_25)" d="M14.745,47.105c0.957-0.262,1.62-0.646,1.655-1.861c-1.806-7.667-10.554-3.58-7.729,1.686 C8.413,43.899,12.896,40.827,14.745,47.105z"/>
<linearGradient id="_26" gradientUnits="userSpaceOnUse" x1="73.4" y1="37.69" x2="63.07" y2="57.69">
<stop stop-color="#FFFFFF" offset="0.05"/>
<stop stop-color="#A2C2DD" offset="1"/>
</linearGradient>
<polygon fill="url(#_26)" points="77.924,45.666 77.924,70.463 54.031,65.125 54.031,33.647 69.77,37.165 "/>
<linearGradient id="_27" gradientUnits="userSpaceOnUse" x1="58.35" y1="41.04" x2="67.56" y2="64.09">
<stop stop-color="#E6EEF4" offset="0"/>
<stop stop-color="#9646AC" offset="0.44"/>
<stop stop-color="#3D013F" offset="0.94"/>
</linearGradient>
<path fill="url(#_27)" d="M72.105,60.336c0.231,6.746-6.747,5.611-8.049,5.025c-1.984-0.465-8.056-3.42-8.256-9.268 l-0.236-6.883c-0.241-7.037,7.379-5.259,7.533-5.281c0,0,8.254,1.771,8.771,9.525L72.105,60.336z"/>
<path fill="url(#_26)" d="M69.197,52.678l2.634,0.686l0.193-1.014l-2.863-0.746l-0.211-6.143l-1.046-0.041l0.281,8.197 c-0.657-0.479-1.42-0.91-2.248-1.271l-0.277-8.107l-1.047-0.043l0.266,7.746c-0.333-0.113-2.114-0.549-2.629-0.609 l-0.263-7.683l-1.048-0.043l0.263,7.666c-0.722-0.006-1.374,0.08-1.922,0.256l-0.297-8.662l-1.047-0.039l0.201,5.91 l-2.636-0.686l-0.191,1.012l2.864,0.744l0.492,14.398l1.049,0.043l-0.261-7.639c0.571,0.445,1.238,0.857,1.972,1.213 l0.245,7.166l1.047,0.041l-0.23-6.746c0.47,0.18,2.247,0.648,2.633,0.711l0.237,6.953l1.046,0.043l-0.235-6.875 c0.821,0.049,1.566-0.012,2.198-0.176l0.269,7.861l1.047,0.041l-0.19-5.572l2.634,0.686l0.192-1.01l-2.862-0.748 L69.197,52.678z M59.412,55.398l-0.087-2.566c2.003-1.023,6.59-0.072,8.899,1.947l0.1,2.887 C65.999,58.605,61.327,57.279,59.412,55.398z"/>
<linearGradient id="_29" gradientUnits="userSpaceOnUse" x1="78.63" y1="40.48" x2="79" y2="76.81">
<stop stop-color="#FFFFFF" offset="0"/>
<stop stop-color="#A2C2DD" offset="0.35"/>
<stop stop-color="#6C83BB" offset="0.7"/>
<stop stop-color="#003D6D" offset="1"/>
</linearGradient>
<polygon fill="url(#_29)" points="77.813,70.516 79.369,68.988 79.791,44.545 77.89,45.699 "/>
<polygon fill="#FFFFFF" points="71.652,36.276 55.854,33.107 53.983,33.686 69.916,37.317 "/>
<linearGradient id="_30" gradientUnits="userSpaceOnUse" x1="71.29" y1="26.24" x2="75.92" y2="45.32">
<stop stop-color="#FFFFFF" offset="0.15"/>
<stop stop-color="#A2C2DD" offset="1"/>
</linearGradient>
<polygon fill="url(#_30)" points="69.916,37.317 77.89,45.699 79.791,44.545 71.652,36.276 "/>
</svg>