<?xml version="1.0" encoding="UTF-8" standalone="no"?>
<!DOCTYPE svg PUBLIC "-//W3C//DTD SVG 1.1 Tiny//EN" "http://www.w3.org/Graphics/SVG/1.1/DTD/svg11-tiny.dtd">
<svg xmlns="http://www.w3.org/2000/svg" xmlns:xlink="http://www.w3.org/1999/xlink" width="24" height="24" viewBox="0 0 24 24">
<rect fill="none" height="24" width="24"/>
<path d="M23,22h-9.904v-1.54l1.709-1.8c3.438-3.534,5.343-5.788,5.343-8.239c0-1.583-0.759-2.968-2.813-2.968 c-1.256,0-2.379,0.672-3.136,1.277l-0.756-1.799c0.994-0.824,2.573-1.517,4.39-1.517c3.352,0,4.821,2.275,4.821,4.749 c0,2.99-2.031,5.484-4.866,8.343l-1.342,1.411H23V22z"/>
<path d="M4.352,18.326V4.3H4.309L1.561,5.817L1,3.974L4.676,2h2.12v16.326H4.352z"/>
</svg>