<?xml version="1.0" encoding="UTF-8"?>
<!DOCTYPE svg PUBLIC "-//W3C//DTD SVG 1.1 Tiny//EN" "http://www.w3.org/Graphics/SVG/1.1/DTD/svg11-tiny.dtd">
<svg baseProfile="tiny" height="32" version="1.1" viewBox="0 0 44 32" width="44" xmlns="http://www.w3.org/2000/svg" xmlns:xlink="http://www.w3.org/1999/xlink">
<g>
<g>
<path d="M10.491,24.725c2.329,0,4.008-0.404,5.038-1.213c1.028-0.81,1.545-2.037,1.545-3.685c0-1.087-0.31-1.999-0.928-2.739    c-0.617-0.741-1.364-1.206-2.239-1.394c0.889-0.27,1.618-0.744,2.183-1.42c0.566-0.68,0.85-1.443,0.85-2.297    c0-1.49-0.474-2.592-1.415-3.303c-0.944-0.711-2.452-1.066-4.526-1.066c-0.577,0-1.175,0.061-1.792,0.184    C8.588,7.917,8.138,8.035,7.853,8.146v2.451c0.315-0.172,0.821-0.342,1.521-0.506c0.702-0.166,1.31-0.246,1.827-0.246    c0.854,0,1.501,0.174,1.942,0.521c0.442,0.348,0.662,0.92,0.662,1.711c0,0.442-0.072,0.852-0.218,1.23s-0.459,0.691-0.938,0.943    c-0.48,0.252-1.459,0.376-2.942,0.376v2.19c1.227,0.065,2.118,0.203,2.673,0.41c0.554,0.207,0.953,0.498,1.195,0.875    c0.245,0.379,0.366,0.854,0.366,1.432c0,0.922-0.255,1.645-0.763,2.168c-0.51,0.523-1.208,0.787-2.091,0.787    c-0.434,0-1.029-0.066-1.785-0.203c-0.756-0.135-1.393-0.316-1.909-0.549v2.447c0.591,0.201,1.153,0.342,1.684,0.422    C9.609,24.686,10.08,24.725,10.491,24.725z"/>
<g>
<path d="M25.084,25.359h-1.23l-0.059-0.67c-0.152,0.244-0.352,0.431-0.596,0.558s-0.545,0.19-0.902,0.19     c-0.573,0-1.034-0.237-1.383-0.713c-0.348-0.476-0.521-1.16-0.521-2.057c0-1.115,0.162-1.912,0.488-2.387     c0.325-0.477,0.792-0.713,1.4-0.713c0.356,0,0.665,0.078,0.928,0.236c0.264,0.157,0.448,0.352,0.553,0.584v-2.761h1.322V25.359z      M22.736,24.555c0.356,0,0.625-0.175,0.803-0.525c0.178-0.35,0.266-0.881,0.266-1.594c0-0.582-0.086-1.06-0.258-1.429     c-0.173-0.368-0.438-0.555-0.791-0.555c-0.385,0-0.65,0.188-0.799,0.565c-0.148,0.379-0.223,0.889-0.223,1.533     c0,0.684,0.078,1.188,0.234,1.514C22.125,24.393,22.381,24.555,22.736,24.555z"/>
<path d="M28.557,25.438c-0.781,0-1.373-0.244-1.772-0.734c-0.4-0.489-0.601-1.21-0.601-2.161c0-0.94,0.193-1.671,0.584-2.19     c0.389-0.521,0.957-0.781,1.705-0.781c0.766,0,1.324,0.24,1.676,0.725c0.353,0.484,0.527,1.212,0.527,2.186v0.404h-3.141     c0,0.531,0.109,0.939,0.328,1.227c0.218,0.287,0.533,0.431,0.947,0.431c0.363,0,0.678-0.026,0.938-0.078     c0.263-0.053,0.494-0.124,0.694-0.215v0.918c-0.197,0.091-0.436,0.159-0.709,0.205C29.46,25.415,29.066,25.438,28.557,25.438z      M29.342,21.991c0-0.443-0.082-0.812-0.248-1.103s-0.373-0.438-0.621-0.438c-0.257,0-0.475,0.146-0.654,0.438     c-0.178,0.291-0.268,0.658-0.268,1.103H29.342z"/>
<path d="M33.219,25.359h-1.293v-4.81h-0.68v-0.897h0.68v-0.219c0-0.672,0.129-1.152,0.389-1.443     c0.259-0.291,0.672-0.438,1.242-0.438c0.23,0,0.451,0.024,0.661,0.075c0.21,0.052,0.362,0.099,0.456,0.146v0.873     c-0.098-0.063-0.219-0.111-0.363-0.15c-0.144-0.039-0.293-0.059-0.447-0.059c-0.161,0-0.288,0.022-0.377,0.071     c-0.09,0.05-0.156,0.14-0.2,0.271c-0.044,0.132-0.065,0.373-0.065,0.726v0.146h0.991v0.898h-0.991v4.811H33.219z"/>
</g>
</g>
<g>
<rect fill="none" height="32" width="44"/>
</g>
</g>
</svg>
