<?xml version="1.0" encoding="UTF-8"?>
<!DOCTYPE svg PUBLIC "-//W3C//DTD SVG 1.1 Tiny//EN" "http://www.w3.org/Graphics/SVG/1.1/DTD/svg11-tiny.dtd">
<svg width="100%" height="100%" viewBox="0 0 88 87.999">
<linearGradient id="_20" gradientUnits="userSpaceOnUse" x1="48.95" y1="45.85" x2="64.26" y2="76">
<stop stop-color="#A2C2DD" offset="0.1"/>
<stop stop-color="#6C83BB" offset="0.71"/>
<stop stop-color="#003D6D" offset="0.99"/>
</linearGradient>
<path fill="url(#_20)" d="M40.434,12.089c-6.54,2.845-14.952,10.916-10.555,20.583l-5.244,3.213 c-0.374-0.092-1.488-0.364-1.488-0.364l-17.56,9.372c0,0-2.91,3.687-0.887,7.441s8.104,2.994,8.104,2.994L29.52,44.092 c0,0,0.269-1.124,0.356-1.488c0.269-0.175,1.547-1.005,2.823-1.835c-1.806,2.501-9.085,12.581-9.085,12.581 s1.102,1.359,1.279,1.579c0.063,0.33,1.406,7.415,1.406,7.415L60.463,77.7l21.422-37.593l-0.13-9.045c0,0-1.227-0.39-1.894-0.601 c0.521-0.806,1.398-2.164,1.398-2.164l0.174-2.903c0,0-1.011-0.168-1.376-0.229c0.81-1.184,3.404-4.981,3.404-4.981 s-10.05,0.325-19.643,0.272C60.383,9.174,48.282,8.677,40.434,12.089z M31.821,30.841l2.333-11.166l17.5-7.334l9.833,8.5 L36.46,38.224L31.821,30.841z"/>
<polygon fill="#FFFFFF" points="48.207,21.146 81.063,31.577 59.413,68.174 26.219,55.115 "/>
<polygon fill="#FFFFFF" points="24.495,53.325 48.148,20.568 80.697,25.981 57.548,60.942 "/>
<linearGradient id="_21" gradientUnits="userSpaceOnUse" x1="66.02" y1="50.61" x2="78.01" y2="59.94">
<stop stop-color="#DEE9F3" offset="0"/>
<stop stop-color="#235487" offset="1"/>
</linearGradient>
<polygon fill="url(#_21)" points="81.063,31.577 59.413,68.174 60.17,76.801 81.182,39.927 "/>
<linearGradient id="_22" gradientUnits="userSpaceOnUse" x1="45.49" y1="59.7" x2="40.51" y2="71.08">
<stop stop-color="#FFFFFF" offset="0"/>
<stop stop-color="#496DA2" offset="0.71"/>
<stop stop-color="#235487" offset="0.99"/>
</linearGradient>
<polygon fill="url(#_22)" points="59.413,68.174 25.549,54.625 26.92,61.854 60.17,76.801 "/>
<linearGradient id="_23" gradientUnits="userSpaceOnUse" x1="67.31" y1="43.07" x2="72.44" y2="47.06">
<stop stop-color="#DEE9F3" offset="0"/>
<stop stop-color="#235487" offset="1"/>
</linearGradient>
<polygon fill="url(#_23)" points="80.697,25.981 57.548,60.942 57.852,63.213 80.572,28.072 "/>
<linearGradient id="_24" gradientUnits="userSpaceOnUse" x1="43.63" y1="52.65" x2="39.02" y2="63.19">
<stop stop-color="#FFFFFF" offset="0"/>
<stop stop-color="#496DA2" offset="0.71"/>
<stop stop-color="#235487" offset="0.99"/>
</linearGradient>
<polygon fill="url(#_24)" points="57.548,60.942 24.495,53.325 25.549,54.625 57.852,63.213 "/>
<linearGradient id="_25" gradientUnits="userSpaceOnUse" x1="81.49" y1="33.75" x2="61.58" y2="36.51">
<stop stop-color="#CADCEC" offset="0"/>
<stop stop-color="#87A8CB" offset="1"/>
</linearGradient>
<path fill="url(#_25)" d="M48.148,20.669c13.545,0.938,33.959,0.256,33.959,0.256 C77.815,27.093,59.521,54.51,59.521,54.51C59.521,54.41,48.148,20.669,48.148,20.669z"/>
<linearGradient id="_26" gradientUnits="userSpaceOnUse" x1="80.2" y1="37.84" x2="48.61" y2="38.43">
<stop stop-color="#FFFFFF" offset="0.15"/>
<stop stop-color="#A2C2DD" offset="1"/>
</linearGradient>
<path fill="url(#_26)" d="M78.866,25.66c-6.196,9.388-19.345,28.75-19.345,28.75c-9.914,4.64-31.675-0.683-35.026-1.085 l23.653-32.757L78.866,25.66z"/>
<path fill="#A2C2DD" d="M44.645,17.821c5.281,0.366,11.071,0.63,16.955,0.672l0.504,4.661L44.645,17.821z"/>
<linearGradient id="_27" gradientUnits="userSpaceOnUse" x1="62.96" y1="28.76" x2="44.75" y2="28.42">
<stop stop-color="#FFFFFF" offset="0.05"/>
<stop stop-color="#A2C2DD" offset="1"/>
</linearGradient>
<path fill="url(#_27)" d="M62.228,20.448l-17.583-2.742L30.537,36.794C41.286,41.833,64.81,39.475,62.228,20.448z"/>
<linearGradient id="_28" gradientUnits="userSpaceOnUse" x1="63.5" y1="19.78" x2="43.23" y2="32.17">
<stop stop-color="#E6EEF4" offset="0"/>
<stop stop-color="#9646AC" offset="0.44"/>
<stop stop-color="#3D013F" offset="0.94"/>
</linearGradient>
<path fill="url(#_28)" d="M37.738,33.853l7.098-9.21l5.604,0.014l2.463-3.193l2.11,0.004l-2.415,3.134l5.713,0.014 l-7.109,9.225l-2.042-0.005l0.421-0.548l-3.745-0.009l-3.773,4.894l-1.982-0.004l3.801-4.932l-3.646-0.009l-0.479,0.622 L37.738,33.853z M49.125,26.413l-3.46-0.008l-3.593,4.662l3.459,0.008L49.125,26.413z M54.716,26.428l-3.462-0.008l-3.593,4.66 l3.462,0.009L54.716,26.428z"/>
<linearGradient id="_29" gradientUnits="userSpaceOnUse" x1="72.8" y1="35.55" x2="41.47" y2="57.88">
<stop stop-color="#E6EEF4" offset="0"/>
<stop stop-color="#9646AC" offset="0.44"/>
<stop stop-color="#3D013F" offset="0.94"/>
</linearGradient>
<path fill="url(#_29)" d="M57.438,51.169l1.545-3.517l-6.335-0.015l-3.892,3.511l-2.753-0.006l17.355-15.326l3.166,0.006 l-6.576,15.354L57.438,51.169z M59.643,46.15l3.509-7.995l-8.843,7.981L59.643,46.15z"/>
<linearGradient id="_30" gradientUnits="userSpaceOnUse" x1="23.7" y1="32.62" x2="30.04" y2="43.12">
<stop stop-color="#E6EEF4" offset="0"/>
<stop stop-color="#337CE5" offset="0.44"/>
<stop stop-color="#003D6D" offset="0.94"/>
</linearGradient>
<polygon fill="url(#_30)" points="19.695,39.752 31.675,32.391 35.322,38.067 23.486,46.074 "/>
<linearGradient id="_31" gradientUnits="userSpaceOnUse" x1="12.79" y1="41.05" x2="22.46" y2="52.39">
<stop stop-color="#E6EEF4" offset="0"/>
<stop stop-color="#337CE5" offset="0.44"/>
<stop stop-color="#003D6D" offset="0.94"/>
</linearGradient>
<path fill="url(#_31)" d="M26.338,42.783L12.592,54.572c-4.15-0.359-8.293-5.011-6.524-9.143l17.173-9.166L26.338,42.783 z"/>
<linearGradient id="_32" gradientUnits="userSpaceOnUse" x1="-2.47" y1="44.56" x2="28.53" y2="49.89">
<stop stop-color="#E6EEF4" offset="0"/>
<stop stop-color="#337CE5" offset="0.44"/>
<stop stop-color="#003D6D" offset="0.94"/>
</linearGradient>
<polygon fill="url(#_32)" points="25.019,41.788 7.562,52.993 12.563,54.646 28.902,43.663 "/>
<path fill="#2065B8" d="M6.067,45.43c-3.076,4.471-1.151,9.879,6.496,9.217C10.372,54.078,4.641,51.85,6.067,45.43z"/>
<linearGradient id="_33" gradientUnits="userSpaceOnUse" x1="22.25" y1="31.52" x2="31.42" y2="40.02">
<stop stop-color="#E6EEF4" offset="0"/>
<stop stop-color="#337CE5" offset="0.44"/>
<stop stop-color="#003D6D" offset="0.94"/>
</linearGradient>
<polygon fill="url(#_33)" points="28.587,42.584 34.85,38.54 32.812,36.123 26.145,40.249 "/>
<linearGradient id="_34" gradientUnits="userSpaceOnUse" x1="25.22" y1="34.12" x2="26.55" y2="42.79">
<stop stop-color="#D6E4F3" offset="0"/>
<stop stop-color="#337CE5" offset="1"/>
</linearGradient>
<path fill="url(#_34)" d="M23.24,36.264l1.512,0.37c-0.153,2.018,1.552,4.713,4.406,5.625l-0.256,1.404 C26.34,43.782,22.281,40.072,23.24,36.264z"/>
<path fill="#2065B8" d="M26.145,40.249l-1.126,1.539c0.145,0.262,2.179,1.955,3.884,1.875l0.366-1.532 C28.064,41.973,26.778,40.909,26.145,40.249z"/>
<linearGradient id="_35" gradientUnits="userSpaceOnUse" x1="45.4" y1="21.55" x2="50.73" y2="41.22">
<stop stop-color="#D6E4F3" offset="0"/>
<stop stop-color="#337CE5" offset="1"/>
</linearGradient>
<path fill-opacity="0.51" fill="url(#_35)" d="M60.657,21.482c-6.897-11.147-29.142-5.058-27.768,10.3 C41.13,43.887,63.241,34.698,60.657,21.482z"/>
<linearGradient id="_36" gradientUnits="userSpaceOnUse" x1="63.38" y1="20.84" x2="37.12" y2="38.94">
<stop stop-color="#E6EEF4" offset="0"/>
<stop stop-color="#337CE5" offset="0.44"/>
<stop stop-color="#003D6D" offset="0.94"/>
</linearGradient>
<path fill="url(#_36)" d="M30.748,29.462c-2.073,22.581,42.641,14.907,31.66-10.852 C63.78,38.437,35.679,46.467,30.748,29.462z"/>
<linearGradient id="_37" gradientUnits="userSpaceOnUse" x1="26.59" y1="38.22" x2="58.59" y2="11.22">
<stop stop-color="#E6EEF4" offset="0"/>
<stop stop-color="#337CE5" offset="0.44"/>
<stop stop-color="#003D6D" offset="0.94"/>
</linearGradient>
<path fill="url(#_37)" d="M60.725,21.541C55.294,4.202,25.53,16.614,33.14,31.554 C31.49,16.705,53.436,10.341,60.725,21.541z"/>
<linearGradient id="_38" gradientUnits="userSpaceOnUse" x1="4.04" y1="19.8" x2="62.04" y2="27.3">
<stop stop-color="#D6E4F3" offset="0"/>
<stop stop-color="#337CE5" offset="1"/>
</linearGradient>
<path fill="url(#_38)" d="M60.719,31.323c-5.233,7.219-16.193,10.267-24.259,6.9c-7.34-3.057-9.348-12.279-4.317-18.798 c5.352-7.165,15.768-10.452,23.479-7.246C63.426,15.435,65.805,24.047,60.719,31.323z M54.183,14.293 c-6.502-2.703-15.286,0.04-19.772,6.063c-4.202,5.485-2.649,12.835,3.498,15.396c6.748,2.813,15.909,0.235,20.314-5.827 C62.52,23.825,60.753,17.03,54.183,14.293z"/>
</svg>