<?xml version="1.0" encoding="UTF-8"?>
<!DOCTYPE svg PUBLIC "-//W3C//DTD SVG 1.1 Tiny//EN" "http://www.w3.org/Graphics/SVG/1.1/DTD/svg11-tiny.dtd">
<svg width="170" height="20" viewBox="-0.89 0.076 170 20">
<linearGradient id="_2" gradientUnits="userSpaceOnUse" x1="84.15" y1="28.44" x2="84.15" y2="1.11">
<stop stop-color="#D6E6EC" offset="0"/>
<stop stop-color="#298595" offset="1"/>
</linearGradient>
<polygon fill-opacity="0.7" fill="url(#_2)" points="169.062,17.463 167.27,19.588 1.32,19.588 -0.756,17.629 -0.756,2.796 1.82,0.159 166.562,0.159 169.062,2.448 "/>
<path fill-opacity="0.15" fill="#3F3F3F" d="M7.11,17.076v2h153.991v-2C158.321,17.076,9.656,17.076,7.11,17.076z"/>
<path fill-opacity="0.3" fill="#FFFFFF" d="M7.11,1.076v2c2.54,0,151.199,0,153.991,0v-2H7.11z"/>
<rect x="7.11" y="0.076" fill="#496DA2" width="153.991" height="1"/>
<rect x="7.11" y="19.076" fill="#496DA2" width="153.991" height="1"/>
<path fill-opacity="0.15" fill="#3F3F3F" d="M0.11,17.076v0.711c0,0.711,0.668,1.289,1.488,1.289H7.11v-2 C2.601,17.076,0.11,17.076,0.11,17.076z"/>
<path fill-opacity="0.3" fill="#FFFFFF" d="M1.599,1.076c-0.82,0-1.488,0.578-1.488,1.289v15.422c0,0.711,0.668,1.289,1.488,1.289H2.11 c0,0,0-14.275,0-16c0.145,0,1.896,0,5,0v-2H1.599z"/>
<path fill="#496DA2" d="M1.599,19.076c-0.82,0-1.488-0.578-1.488-1.289V2.365c0-0.711,0.668-1.289,1.488-1.289H7.11v-1H1.599 c-1.373,0-2.488,1.026-2.488,2.289v15.422c0,1.263,1.115,2.289,2.488,2.289H7.11v-1H1.599z"/>
<path fill-opacity="0.15" fill="#3F3F3F" d="M168.102,17.787V2.365c0-0.711-0.668-1.289-1.488-1.289h-0.512c0,0,0,14.275,0,16 c-0.146,0-1.898,0-5,0v2h5.512C167.434,19.076,168.102,18.498,168.102,17.787z"/>
<path fill-opacity="0.3" fill="#FFFFFF" d="M168.102,2.365c0-0.711-0.668-1.289-1.488-1.289h-5.512v2c4.51,0,7,0,7,0V2.365z"/>
<path fill="#496DA2" d="M166.613,0.076h-5.512v1h5.512c0.82,0,1.488,0.578,1.488,1.289v15.422c0,0.711-0.668,1.289-1.488,1.289 h-5.512v1h5.512c1.371,0,2.488-1.026,2.488-2.289V2.365C169.102,1.103,167.984,0.076,166.613,0.076z"/>
</svg>