<?xml version="1.0" encoding="UTF-8"?>
<!DOCTYPE svg PUBLIC "-//W3C//DTD SVG 1.1 Tiny//EN" "http://www.w3.org/Graphics/SVG/1.1/DTD/svg11-tiny.dtd">
<svg baseProfile="tiny" height="32" version="1.1" viewBox="-1 -1 38 32" width="38" xmlns="http://www.w3.org/2000/svg" xmlns:xlink="http://www.w3.org/1999/xlink">
<g>
<path d="M19.766,23.877c-2.475,0-4.344-0.775-5.611-2.324c-1.266-1.549-1.897-3.803-1.897-6.762c0-2.672,0.686-4.783,2.056-6.338   c1.37-1.554,3.344-2.33,5.916-2.33c1.196,0,2.329,0.174,3.397,0.52v2.168c-1.068-0.348-2.162-0.52-3.279-0.52   c-1.563,0-2.744,0.57-3.541,1.713c-0.797,1.145-1.194,2.76-1.194,4.848c0,2.166,0.399,3.854,1.203,5.062   c0.801,1.207,1.979,1.813,3.532,1.813c1.336,0,2.47-0.163,3.398-0.489v2.032C22.35,23.674,21.023,23.877,19.766,23.877z"/>
<rect fill="none" height="32" width="38" x="-1" y="-1"/>
</g>
</svg>
