<?xml version="1.0" encoding="UTF-8"?>
<!DOCTYPE svg PUBLIC "-//W3C//DTD SVG 1.1 Tiny//EN" "http://www.w3.org/Graphics/SVG/1.1/DTD/svg11-tiny.dtd">
<svg baseProfile="tiny" height="32" version="1.1" viewBox="-1 -1 38 32" width="38" xmlns="http://www.w3.org/2000/svg" xmlns:xlink="http://www.w3.org/1999/xlink">
<g>
<path d="M12.603,24.117v-2.928l5.846-6.861c0.912-1.064,1.368-2.255,1.368-3.57c0-0.692-0.23-1.277-0.69-1.754   c-0.459-0.476-1.064-0.714-1.813-0.714c-0.774,0-1.535,0.117-2.281,0.351c-0.746,0.234-1.395,0.509-1.942,0.823V6.838   c0.484-0.259,1.103-0.482,1.857-0.672c0.754-0.19,1.583-0.284,2.486-0.284c1.798,0,3.208,0.433,4.229,1.295   s1.531,2.041,1.531,3.533c0,2.121-0.926,4.162-2.771,6.123l-4.55,4.804h7.527v2.48H12.603z"/>
<rect fill="none" height="32" width="38" x="-1" y="-1"/>
</g>
</svg>
