<?xml version="1.0" encoding="UTF-8"?>
<!DOCTYPE svg PUBLIC "-//W3C//DTD SVG 1.1 Tiny//EN" "http://www.w3.org/Graphics/SVG/1.1/DTD/svg11-tiny.dtd">
<svg baseProfile="tiny" height="60" version="1.1" viewBox="0 0 60 60" width="60" xmlns="http://www.w3.org/2000/svg" xmlns:xlink="http://www.w3.org/1999/xlink">
<path d="M33.313,46.391c-0.203-0.344,0.467,0.967-4.457,0.973c-4.924,0.006-10.483-3.446-12.945-8.155l2.675-0.664  c0.813-0.202,0.907-0.75,0.215-1.216l-4.471-3.012l-0.7-0.473c-0.191-0.129-0.395-0.199-0.598-0.225  c-0.416-0.055-0.822,0.102-1.106,0.432c-0.081,0.094-0.155,0.195-0.212,0.316l-0.462,0.971l-2.063,4.33  c-0.36,0.755,0.009,1.207,0.821,1.005l2.708-0.672c2.932,6.249,9.263,10.586,16.624,10.586c2.649,0,5.938-0.823,8.797-2.12  C37.725,48.527,34.125,47.625,33.313,46.391z"/>
<path d="M49.486,26.108l-2.693,0.4c-2.249-6.875-8.432-11.966-15.896-12.593l0.006,0.045l0.022,0.153l-0.008,0.155  c0,0-0.008,0.124-0.008,0.135c-0.056,0.882-0.384,1.75-1.002,2.661c6.282,0.234,11.586,4.3,13.661,9.922l-2.822,0.42  c-0.829,0.124-0.977,0.66-0.331,1.191l4.087,3.363l0.665,0.548l0.063,0.053c0.467,0.381,1.054,0.404,1.506,0.121  c0.175-0.109,0.332-0.261,0.451-0.461l0.488-0.814l2.533-4.219C50.639,26.47,50.314,25.985,49.486,26.108z"/>
<path d="M26.408,10.368c-0.988-0.759-7.633-2.963-15.426,4.756l-0.096,0.096c-7.719,7.793-5.515,14.438-4.757,15.426  c0.551,0.725,1.173,1.537,2.23,2.248c0.261,0.16,0.754,0.358,1.286,0.35c0.531-0.014,1.745-0.803,3.266-2.469  c1.523-1.663,2.165-3.003,2.308-3.632l0.081-0.359l-0.239-0.28c-0.15-0.181-0.329-0.349-0.541-0.515  c-0.899-0.719-2.775-0.83-2.797-0.829l-0.288-0.018l-0.14-0.255c-0.059-0.107-1.43-2.746,2.514-6.84  c4.095-3.944,6.731-2.57,6.837-2.512l0.255,0.14l0.02,0.289c0,0.021,0.108,1.898,0.826,2.796c0.167,0.214,0.337,0.39,0.516,0.541  l0.28,0.239l0.359-0.083c0.629-0.142,1.971-0.784,3.634-2.308c1.664-1.522,2.453-2.735,2.465-3.266  c0.01-0.531-0.189-1.025-0.349-1.285C27.944,11.541,27.13,10.917,26.408,10.368z" fill="#47C30E"/>
<path d="M28.569,39.234c0.158,1.199,3.208,7.279,13.865,7.33h0.131c10.656-0.051,13.707-6.131,13.865-7.33  c0.117-0.875,0.247-1.859,0.01-3.074c-0.067-0.288-0.271-0.766-0.643-1.123c-0.374-0.354-1.75-0.646-3.938-0.551  c-2.188,0.098-3.551,0.578-4.08,0.912l-0.303,0.189l-0.027,0.355c-0.022,0.229-0.016,0.468,0.017,0.727  c0.124,1.111,1.337,2.475,1.353,2.49l0.187,0.209l-0.08,0.271c-0.032,0.114-0.903,2.868-6.426,2.971  c-5.521-0.103-6.39-2.856-6.421-2.971l-0.081-0.271l0.187-0.212c0.014-0.016,1.229-1.381,1.354-2.487  c0.031-0.263,0.035-0.5,0.016-0.728l-0.027-0.356l-0.303-0.19c-0.531-0.334-1.894-0.813-4.082-0.91  c-2.188-0.098-3.563,0.193-3.938,0.55c-0.371,0.358-0.574,0.835-0.642,1.123C28.321,37.375,28.451,38.359,28.569,39.234z" fill="#F0B11D"/>
<rect fill="none" height="60" width="60"/>
</svg>
