<?xml version="1.0" encoding="UTF-8"?>
<!DOCTYPE svg PUBLIC "-//W3C//DTD SVG 1.1 Tiny//EN" "http://www.w3.org/Graphics/SVG/1.1/DTD/svg11-tiny.dtd">
<svg width="32" height="22.144" viewBox="0 0 32 22.144">
<path d="M14.308,0H4.941v9.906h9.91V0H14.308z M12.519,2.299c0,0.904,0,4.327,0,5.23c-0.934,0-4.364,0-5.298,0 c0-0.903,0-4.326,0-5.23C8.154,2.299,11.585,2.299,12.519,2.299z"/>
<path d="M26.517,4.7H17.15v7.538H9.483v9.905h7.667h2.243h7.666v-7.538v-2.367V4.7H26.517z M17.061,19.767 c-0.934,0-4.364,0-5.298,0c0-0.902,0-4.325,0-5.229c0.934,0,4.364,0,5.298,0C17.061,15.441,17.061,18.864,17.061,19.767z M19.429,6.999c0.934,0,4.364,0,5.298,0c0,0.903,0,4.327,0,5.229c-0.934,0-4.364,0-5.298,0 C19.429,11.326,19.429,7.902,19.429,6.999z M24.727,19.767c-0.934,0-4.364,0-5.298,0c0-0.886,0-4.182,0-5.161h5.298 C24.727,15.585,24.727,18.881,24.727,19.767z"/>
</svg>