<?xml version="1.0" encoding="UTF-8"?>
<!DOCTYPE svg PUBLIC "-//W3C//DTD SVG 1.1 Tiny//EN" "http://www.w3.org/Graphics/SVG/1.1/DTD/svg11-tiny.dtd">
<svg baseProfile="tiny" height="32" version="1.1" viewBox="0 0 44 32" width="44" xmlns="http://www.w3.org/2000/svg" xmlns:xlink="http://www.w3.org/1999/xlink">
<g>
<g>
<polygon points="9.131,24.531 12.587,24.531 17.355,10.056 17.355,7.801 7.111,7.801 7.111,10.102 14.281,10.102   "/>
<g>
<path d="M23.486,20.336c0.156-0.247,0.356-0.434,0.602-0.561s0.531-0.191,0.859-0.191c0.531,0,0.972,0.232,1.322,0.695     c0.352,0.465,0.527,1.158,0.527,2.084c0,1.037-0.173,1.813-0.518,2.324c-0.346,0.51-0.83,0.766-1.455,0.766     c-0.254,0-0.514-0.078-0.776-0.236s-0.446-0.354-0.552-0.588v2.406h-1.323V20.57c0-0.313-0.014-0.613-0.039-0.902h1.289     C23.449,19.816,23.471,20.04,23.486,20.336z M24.482,24.521c0.291,0,0.524-0.168,0.703-0.502c0.18-0.332,0.27-0.873,0.27-1.617     c0-1.254-0.314-1.881-0.941-1.881c-0.703,0-1.056,0.656-1.056,1.969c0,0.705,0.099,1.221,0.298,1.545     S24.197,24.521,24.482,24.521z"/>
<path d="M32.35,19.668c-0.024,0.289-0.039,0.59-0.039,0.902v6.461h-1.332v-2.383c-0.375,0.537-0.824,0.805-1.349,0.805     c-0.579,0-1.054-0.23-1.421-0.695c-0.367-0.464-0.552-1.176-0.552-2.137c0-1.061,0.175-1.832,0.524-2.314     c0.35-0.48,0.809-0.723,1.375-0.723c0.321,0,0.604,0.064,0.85,0.191c0.244,0.127,0.443,0.314,0.601,0.565     c0.017-0.307,0.038-0.53,0.063-0.674L32.35,19.668L32.35,19.668z M30.04,24.525c0.329,0,0.575-0.16,0.739-0.48     s0.246-0.867,0.246-1.643c0-1.258-0.321-1.885-0.967-1.885c-0.705,0-1.06,0.645-1.06,1.934c0,0.783,0.078,1.326,0.235,1.625     C29.395,24.376,29.662,24.525,30.04,24.525z"/>
<path d="M36.627,20.6c-0.141-0.035-0.277-0.053-0.41-0.053c-0.459,0-0.77,0.131-0.933,0.393     c-0.163,0.263-0.244,0.694-0.244,1.297v3.14h-1.323v-4.629c0-0.257-0.01-0.616-0.029-1.078h1.271     c0.045,0.325,0.073,0.586,0.083,0.781c0.088-0.272,0.229-0.486,0.425-0.638c0.196-0.152,0.418-0.229,0.669-0.229     c0.17,0,0.333,0.023,0.493,0.068L36.627,20.6L36.627,20.6z"/>
<path d="M38.741,25.453c-0.403,0-0.735-0.025-0.993-0.08c-0.26-0.055-0.473-0.118-0.639-0.193v-0.938     c0.18,0.102,0.404,0.189,0.675,0.267s0.56,0.114,0.868,0.114c0.277,0,0.488-0.063,0.631-0.188s0.215-0.313,0.215-0.564     c0-0.117-0.021-0.225-0.066-0.324c-0.043-0.1-0.117-0.193-0.222-0.283s-0.312-0.213-0.62-0.369     c-0.455-0.225-0.767-0.416-0.933-0.578c-0.166-0.16-0.279-0.33-0.339-0.51c-0.062-0.18-0.092-0.393-0.092-0.641     c0-0.498,0.176-0.887,0.524-1.164s0.804-0.418,1.354-0.418c0.349,0,0.646,0.027,0.895,0.081s0.459,0.12,0.635,0.198v0.932     c-0.186-0.102-0.408-0.189-0.669-0.268c-0.26-0.08-0.495-0.117-0.708-0.117c-0.236,0-0.423,0.063-0.554,0.186     c-0.134,0.123-0.198,0.286-0.198,0.488c0,0.12,0.026,0.221,0.078,0.3c0.053,0.08,0.118,0.152,0.2,0.218     c0.082,0.064,0.271,0.172,0.565,0.322c0.42,0.208,0.726,0.389,0.916,0.539c0.189,0.15,0.33,0.328,0.418,0.529     s0.131,0.461,0.131,0.777c0,0.568-0.17,0.992-0.51,1.27C39.966,25.314,39.443,25.453,38.741,25.453z"/>
</g>
</g>
<g>
<rect fill="none" height="32" width="44"/>
</g>
</g>
</svg>
