<?xml version="1.0" encoding="UTF-8"?>
<!DOCTYPE svg PUBLIC "-//W3C//DTD SVG 1.1 Tiny//EN" "http://www.w3.org/Graphics/SVG/1.1/DTD/svg11-tiny.dtd">
<svg width="84" height="72" viewBox="0 0 84 72">
<linearGradient id="_3" gradientUnits="userSpaceOnUse" x1="30.6" y1="23.94" x2="54.37" y2="50.76">
<stop stop-color="#B3DDFF" offset="0"/>
<stop stop-color="#084296" offset="1"/>
</linearGradient>
<polygon fill="url(#_3)" points="41.184,56.007 61.063,62.122 74.729,18.747 57.104,15.997 57.229,10.872 38.479,8.247 32.641,10.091 29.941,19.218 23.676,18.069 14.979,21.122 17.332,30.759 13.689,30.165 9.271,31.581 10.584,56.337 37.334,63.753 41.084,60.337 "/>
<polygon fill="#5AA7E0" points="23.883,47.796 34.703,11.06 52.301,13.88 52.174,19.333 68.686,22.103 59.689,58.499 "/>
<polygon fill="#3366CC" points="59.691,58.153 23.709,47.778 17.775,22.142 53.594,29.321 "/>
<polygon fill="#B3DDFF" points="59.654,26.026 23.934,19.896 17.775,22.142 53.594,29.321 "/>
<polygon fill="#CFECFF" points="55.355,12.331 38.588,9.874 34.605,10.999 52.301,13.88 "/>
<polygon fill="#B3DDFF" points="72.268,20.243 55.15,17.661 52.174,19.333 68.686,22.103 "/>
<polygon fill="#0046B7" points="59.654,26.026 59.693,58.776 53.594,29.321 "/>
<polygon fill="#0046B7" points="72.268,20.243 59.693,58.776 68.686,22.103 "/>
<polygon fill="#0046B7" points="52.301,13.88 52.174,19.333 55.15,17.661 55.355,12.331 "/>
<linearGradient id="_4" gradientUnits="userSpaceOnUse" x1="34.69" y1="59.58" x2="50.51" y2="32.76">
<stop stop-color="#5AA7E0" offset="0"/>
<stop stop-color="#3366CC" offset="1"/>
</linearGradient>
<polygon fill="url(#_4)" points="23.883,47.796 30.561,24.991 53.605,29.542 59.693,58.776 "/>
<polygon fill="#B3DDFF" points="10.695,32.253 37.375,37.616 37.094,62.192 11.754,55.067 "/>
<polygon fill="#5AA7E0" points="37.119,58.405 37.316,41.61 10.945,36.294 11.617,51.718 "/>
<polygon fill="#B3DDFF" points="40.086,36.536 13.551,31.394 10.738,32.233 37.434,37.749 "/>
<path fill="#0046B7" d="M10.713,32.231l26.662,5.465l-0.279,24.492l-25.338-7L10.713,32.231z M35.576,40.806l1.801,0.389 l0.008-2.162l-1.811-0.381L35.576,40.806z M32.76,40.151l1.486,0.344l-0.008-2.146l-1.494-0.336L32.76,40.151z M29.932,39.511l1.492,0.34l-0.021-2.133l-1.5-0.332L29.932,39.511z M27.096,38.878l1.498,0.334l-0.037-2.117l-1.506-0.324 L27.096,38.878z M24.25,38.253l1.504,0.326l-0.053-2.1l-1.51-0.318L24.25,38.253z M21.398,37.64l1.508,0.322l-0.068-2.086 l-1.514-0.316L21.398,37.64z M18.535,37.034l1.512,0.316l-0.08-2.068l-1.518-0.313L18.535,37.034z M15.664,36.435 l1.518,0.314l-0.094-2.057l-1.525-0.305L15.664,36.435z M10.848,35.458l0.711,0.143l-0.123-2.025l-0.658-0.127L10.848,35.458 z M12.787,35.849l1.52,0.307l-0.109-2.039l-1.529-0.301L12.787,35.849z M35.561,60.405l1.566,0.432l0.006-2.162l-1.574-0.424 L35.561,60.405z M32.861,59.634l1.426,0.406l-0.01-2.148l-1.432-0.398L32.861,59.634z M30.15,58.872l1.432,0.402 l-0.021-2.133l-1.439-0.395L30.15,58.872z M27.434,58.118l1.436,0.396l-0.037-2.115l-1.441-0.391L27.434,58.118z M24.707,57.374l1.441,0.393l-0.053-2.104l-1.447-0.383L24.707,57.374z M21.969,56.64l1.447,0.389l-0.066-2.09l-1.451-0.377 L21.969,56.64z M19.225,55.915l1.451,0.381l-0.08-2.07l-1.457-0.375L19.225,55.915z M16.469,55.198l1.457,0.377l-0.094-2.059 l-1.463-0.369L16.469,55.198z M13.707,54.487l1.457,0.375l-0.107-2.043l-1.465-0.365L13.707,54.487z M11.684,53.974 l0.715,0.184l-0.121-2.027l-0.65-0.146L11.684,53.974z M30.725,55.503l6.479,1.674l0.131-14.383l-6.742-1.527L30.725,55.503z M15.896,51.78l13.025,3.355L28.775,40.88l-13.463-2.922L15.896,51.78z M11.598,50.706l2.471,0.643l-0.66-13.783 l-2.465-0.498L11.598,50.706z"/>
<polygon fill="#0046B7" points="37.08,62.212 39.322,60.255 40.08,36.478 37.375,37.696 "/>
<polygon fill="#3366CC" points="37.355,39.046 40.035,37.632 39.959,39.706 37.338,41.192 "/>
<polygon fill="#3366CC" points="37.131,58.694 37.102,60.837 39.348,59.073 39.42,57.13 "/>
<polygon fill="#3366CC" points="37.334,42.794 37.156,57.194 39.457,55.679 39.902,41.276 "/>
</svg>