<?xml version="1.0" encoding="UTF-8"?>
<!DOCTYPE svg PUBLIC "-//W3C//DTD SVG 1.1 Tiny//EN" "http://www.w3.org/Graphics/SVG/1.1/DTD/svg11-tiny.dtd">
<svg width="84" height="58" viewBox="0 0 84 58">
<linearGradient id="_30" gradientUnits="userSpaceOnUse" x1="78.72" y1="28.95" x2="55.55" y2="44.16">
<stop stop-color="#B3DDFF" offset="0"/>
<stop stop-color="#B0DBFE" offset="0.13"/>
<stop stop-color="#A5D5FA" offset="0.25"/>
<stop stop-color="#94CAF4" offset="0.35"/>
<stop stop-color="#7CBBEC" offset="0.45"/>
<stop stop-color="#5CA8E1" offset="0.54"/>
<stop stop-color="#5AA7E0" offset="0.55"/>
<stop stop-color="#0046B7" offset="1"/>
</linearGradient>
<path fill="url(#_30)" d="M73.641,24.684c2.71,7.693-15.801,20.063-15.801,20.063l0.691,4.338 C58.531,49.086,79.389,40.999,73.641,24.684z"/>
<polyline fill="#0046B7" points="58.52,48.463 57.84,44.748 57.869,48.718 "/>
<polygon fill="#3366CC" points="58.732,49.62 58.799,53.03 41.188,47.499 40.835,44.181 "/>
<linearGradient id="_31" gradientUnits="userSpaceOnUse" x1="39.8" y1="51.74" x2="59.83" y2="33.77">
<stop stop-color="#D6E4F3" offset="0"/>
<stop stop-color="#337CE5" offset="1"/>
</linearGradient>
<path fill="url(#_31)" d="M63.144,15.941c19.693,7.362,10.858,24.864-5.28,29.334l0.869,4.347l-17.897-5.441l16.241-10.327 l0.238,4.526C69.753,34.205,75.033,23.763,63.144,15.941z"/>
<linearGradient id="_32" gradientUnits="userSpaceOnUse" x1="62.68" y1="13.07" x2="59.11" y2="6.25">
<stop stop-color="#E6EEF4" offset="0"/>
<stop stop-color="#4A9900" offset="0.44"/>
<stop stop-color="#0E4E58" offset="0.94"/>
</linearGradient>
<polygon fill="url(#_32)" points="59.754,13.942 58.48,11.216 63.768,8.69 65.041,11.414 "/>
<linearGradient id="_33" gradientUnits="userSpaceOnUse" x1="58.16" y1="6.52" x2="51.46" y2="6.57">
<stop stop-color="#E6EEF4" offset="0"/>
<stop stop-color="#4A9900" offset="0.44"/>
<stop stop-color="#0E4E58" offset="0.94"/>
</linearGradient>
<polygon fill="url(#_33)" points="57.967,9.396 55.033,9.351 55.121,3.672 58.057,3.719 "/>
<linearGradient id="_34" gradientUnits="userSpaceOnUse" x1="-0.03" y1="48.34" x2="27.17" y2="16.32">
<stop stop-color="#B3DDFF" offset="0"/>
<stop stop-color="#AEDAFD" offset="0.1"/>
<stop stop-color="#9FD1F8" offset="0.21"/>
<stop stop-color="#87C3F0" offset="0.33"/>
<stop stop-color="#66AEE4" offset="0.46"/>
<stop stop-color="#5AA7E0" offset="0.5"/>
<stop stop-color="#0046B7" offset="1"/>
</linearGradient>
<path fill="url(#_34)" d="M16.436,35.142c-3.681-9.206,6.539-13.571,11.898-15.659c-0.673-1.632-0.445-1.852-1.118-3.481 C15.248,20.664,10.822,27.48,16.436,35.142"/>
<polygon fill="#3366CC" points="43.581,10.429 43.123,13.474 27.416,20.647 "/>
<path fill="#0046B7" d="M16.761,34.559c-4.626-2.605-7.204-6.527-6.903-9.583c-0.258,4.433,3.213,10.345,7.35,12.382 L16.761,34.559z"/>
<linearGradient id="_35" gradientUnits="userSpaceOnUse" x1="17.36" y1="44.53" x2="26" y2="19.27">
<stop stop-color="#D6E4F3" offset="0"/>
<stop stop-color="#337CE5" offset="1"/>
</linearGradient>
<path fill="url(#_35)" d="M16.761,34.559c-14.306-8.121-4.421-19.374,9.784-24.593l-0.287-4.658l17.311,5.121 L27.33,20.754l-0.241-4.523C16.23,20.466,10.222,27.729,16.761,34.559z"/>
<linearGradient id="_36" gradientUnits="userSpaceOnUse" x1="42.79" y1="29.22" x2="56.03" y2="55.3">
<stop stop-color="#A2C2DD" offset="0.1"/>
<stop stop-color="#6C83BB" offset="0.71"/>
<stop stop-color="#003D6D" offset="0.99"/>
</linearGradient>
<path fill="url(#_36)" d="M74.992,30.29c0-0.898-0.08-1.829-0.249-2.792c-0.304-3.582-2.542-8.544-11.478-11.885 c0,0-0.279-0.143-0.453,0.153c-0.156,0.266,0.139,0.467,0.139,0.467c4.283,2.817,6.514,6.092,6.514,9.527 c0,0.345-0.021,0.691-0.066,1.039c-0.586,4.514-5.085,8.723-11.76,11.08c-0.04-0.77-0.244-4.644-0.244-4.644l-14.789,9.404 c0.043-0.442,0.158-1.612,0.178-1.822c0.344-0.203,12.172-7.196,12.172-7.196l0.933-12.454c0.001-0.041,0.001-0.082,0.001-0.123 c0-2.819-1.192-5.378-3.281-7.055c-1.719-1.38-3.789-1.916-5.682-1.474c0,0-2.185,0.431-3.405,0.671 c0.08-0.533,0.452-3.008,0.452-3.008l-0.305-0.087L25.878,4.83c0,0,0.275,4.461,0.302,4.907 c-8.487,3.175-16.748,9.206-16.748,15.68c0,0.668,0.088,1.34,0.272,2.014c0.812,4.227,3.905,8.545,7.349,10.24l0.607,0.3 l-0.457-3.563c0,0-0.75-0.625-0.931-0.951c-0.174-0.725-0.265-1.419-0.265-2.077c0-5.646,5.99-8.912,10.953-10.963 c0.008,0.153,0.017,0.321,0.017,0.321c-0.233,0.781-0.358,1.693-0.372,2.677c0,0,0.072,2.868,0.089,3.546 c-0.725-0.123-5.621-0.955-5.621-0.955l-1.345,0.393c0,0,0.686,11.714,0.713,12.175c-0.334,0.119-0.948,0.34-0.948,0.34 c-1.904,0.742-3.083,2.14-3.083,3.554c0,0.211,0.027,0.424,0.081,0.634c0.146,1.609,1.13,2.988,2.763,3.828 c3.229,1.665,7.309,1.733,12.126,0.204l10.534-4.053l-1.452,0.923l0.4,3.763l18.294,5.745l-0.076-3.896 c-0.004-0.035-0.035-0.197-0.065-0.351C61.554,48.197,74.992,42.001,74.992,30.29z"/>
<linearGradient id="_37" gradientUnits="userSpaceOnUse" x1="15.06" y1="41.9" x2="23.31" y2="17.43">
<stop stop-color="#E6EEF4" offset="0"/>
<stop stop-color="#4A9900" offset="0.44"/>
<stop stop-color="#0E4E58" offset="0.94"/>
</linearGradient>
<path fill="url(#_37)" d="M16.571,35.054c-3.656-9.138,6.489-13.471,11.812-15.547c-0.668-1.618-0.442-1.836-1.11-3.455 C15.39,20.68,10.997,27.447,16.571,35.054"/>
<linearGradient id="_38" gradientUnits="userSpaceOnUse" x1="27.41" y1="17.31" x2="43.52" y2="17.31">
<stop stop-color="#E6EEF4" offset="0"/>
<stop stop-color="#4A9900" offset="0.44"/>
<stop stop-color="#0E4E58" offset="0.94"/>
</linearGradient>
<polygon fill="url(#_38)" points="43.518,10.521 43.064,13.542 27.919,24.104 27.408,20.75 "/>
<path fill="#17594C" d="M16.894,34.511c0,0-7.153-6.516-6.853-9.549c-0.257,4.399,3.107,10.264,7.213,12.288L16.894,34.511z"/>
<linearGradient id="_39" gradientUnits="userSpaceOnUse" x1="17.48" y1="44.42" x2="26.06" y2="19.31">
<stop stop-color="#DCE8E4" offset="0"/>
<stop stop-color="#43910A" offset="1"/>
</linearGradient>
<path fill="url(#_39)" d="M16.894,34.511c-14.202-8.062-4.391-19.27,9.713-24.45l-0.285-4.623l17.183,5.083 L27.385,20.771l-0.239-4.491C16.367,20.485,10.402,27.733,16.894,34.511z"/>
<linearGradient id="_40" gradientUnits="userSpaceOnUse" x1="11.24" y1="51.61" x2="41.79" y2="36.33">
<stop stop-color="#FFFFFF" offset="0"/>
<stop stop-color="#A2C2DD" offset="0.35"/>
<stop stop-color="#6C83BB" offset="0.7"/>
<stop stop-color="#003D6D" offset="1"/>
</linearGradient>
<path fill="url(#_40)" d="M42.45,40.631l-11.444,4.366c-4.04,1.444-12.609,0.468-14.191-2.647 c-0.09,1.888,0.919,3.402,2.6,4.267c2.969,1.531,6.903,1.756,11.86,0.182l10.984-4.227L42.45,40.631z"/>
<linearGradient id="_41" gradientUnits="userSpaceOnUse" x1="41.75" y1="11.47" x2="46.37" y2="25.92">
<stop stop-color="#FFFFFF" offset="0.05"/>
<stop stop-color="#A2C2DD" offset="1"/>
</linearGradient>
<path fill="url(#_41)" d="M42.712,26.32l-0.384,14.36l12.292-7.267l0.919-12.272c0.064-5.402-4.515-9.225-8.533-8.284 l-15.045,2.967C36.592,14.852,41.962,18.412,42.712,26.32z"/>
<linearGradient id="_42" gradientUnits="userSpaceOnUse" x1="21.22" y1="16.49" x2="53.42" y2="45.14">
<stop stop-color="#FFFFFF" offset="0.05"/>
<stop stop-color="#A2C2DD" offset="1"/>
</linearGradient>
<path fill="url(#_42)" d="M27.285,36.49l-0.329-13.071c0.095-7.196,6.012-8.857,9.404-7.479 c3.01,1.222,6.161,5.173,6.397,10.11l-0.33,14.624L27.285,36.49z"/>
<linearGradient id="_43" gradientUnits="userSpaceOnUse" x1="46.96" y1="60.33" x2="29.93" y2="17.24">
<stop stop-color="#FFFFFF" offset="0"/>
<stop stop-color="#A2C2DD" offset="0.35"/>
<stop stop-color="#6C83BB" offset="0.7"/>
<stop stop-color="#003D6D" offset="1"/>
</linearGradient>
<path fill="url(#_43)" d="M28.464,35.332L28.186,23.98c0.079-6.063,5.066-7.461,7.923-6.3 c2.536,1.031,5.158,4.334,5.355,8.495l-0.243,12.346L28.464,35.332z"/>
<linearGradient id="_44" gradientUnits="userSpaceOnUse" x1="44.21" y1="21.84" x2="50.81" y2="30.2">
<stop stop-color="#E6EEF4" offset="0"/>
<stop stop-color="#C03A3A" offset="0.44"/>
<stop stop-color="#302D02" offset="0.94"/>
</linearGradient>
<path fill="url(#_44)" d="M52.365,28.905c-0.498,0.587-1.055,0.885-1.463,1.002c-0.475,0.134-0.809,0.152-1.204,0.042 l0,0c-1.548,1.322-3.787,0.764-3.644-1.646c0.078-1.285,0.824-2.514,1.867-3.267c0.838-0.604,2.264-1.003,3.133,0.086 l-0.211,3.541c0.074,0.066,0.256,0.002,0.403-0.04c0.137-0.037,0.488-0.358,0.712-0.718c0.187-0.305,0.506-0.661,0.588-2.017 c0.08-1.355-1.305-3.144-3.615-2.496c-2.106,0.591-3.826,2.877-3.968,5.288c-0.132,2.187,1.449,3.669,3.558,3.079 c0.477-0.135,1.436-0.552,2.078-1.251c-0.018,0.294-0.08,1.356-0.08,1.356c-0.568,0.529-1.41,0.908-2.07,1.096 c-2.719,0.767-4.763-1.259-4.566-4.272c0.202-3.117,2.258-5.746,5.217-6.575c2.68-0.753,4.521,1.566,4.407,3.473 C53.409,27.246,52.941,28.224,52.365,28.905z M49.78,28.591c0.038-0.652,0.069-1.176,0.108-1.831 c0.02-0.35,0.053-0.88,0.053-0.88c-0.893-0.715-2.699,0.458-2.801,2.116C47.042,29.654,48.77,29.838,49.78,28.591z"/>
<linearGradient id="_45" gradientUnits="userSpaceOnUse" x1="58.95" y1="57" x2="35.58" y2="33.86">
<stop stop-color="#FFFFFF" offset="0"/>
<stop stop-color="#A2C2DD" offset="0.35"/>
<stop stop-color="#6C83BB" offset="0.7"/>
<stop stop-color="#003D6D" offset="1"/>
</linearGradient>
<polygon fill="url(#_45)" points="28.485,35.308 41.221,38.521 41.365,31.127 "/>
<linearGradient id="_46" gradientUnits="userSpaceOnUse" x1="10.43" y1="37.19" x2="37.54" y2="45">
<stop stop-color="#FFFFFF" offset="0.05"/>
<stop stop-color="#A2C2DD" offset="1"/>
</linearGradient>
<path fill="url(#_46)" d="M27.285,36.49l-7.672,2.751c-2.85,1.111-4.207,3.952-1.012,5.757 c3.104,1.756,7.247,1.82,12.374,0.18l11.452-4.503L27.285,36.49z"/>
<linearGradient id="_47" gradientUnits="userSpaceOnUse" x1="15.76" y1="45.33" x2="23.22" y2="42.72">
<stop stop-color="#FFFFFF" offset="0.05"/>
<stop stop-color="#A2C2DD" offset="1"/>
</linearGradient>
<path fill="url(#_47)" d="M27.13,37.544l-6.568,2.196c-3.04,1.148-3.108,3.007-0.72,4.312 c2.56,1.402,6.41,1.283,10.357,0.139l9.414-3.307L27.13,37.544z"/>
<linearGradient id="_48" gradientUnits="userSpaceOnUse" x1="13.67" y1="43.28" x2="27.76" y2="38.43">
<stop stop-color="#FFFFFF" offset="0"/>
<stop stop-color="#A2C2DD" offset="0.35"/>
<stop stop-color="#6C83BB" offset="0.7"/>
<stop stop-color="#003D6D" offset="1"/>
</linearGradient>
<path fill="url(#_48)" d="M27.204,37.543l-6.567,2.197c-2.192,0.801-2.785,1.917-2.262,3.061 c0.168-0.786,0.941-1.375,2.411-1.912l6.396-2.064L27.204,37.543z"/>
<linearGradient id="_49" gradientUnits="userSpaceOnUse" x1="25.37" y1="36.9" x2="38.47" y2="41.69">
<stop stop-color="#FFFFFF" offset="0"/>
<stop stop-color="#A2C2DD" offset="0.35"/>
<stop stop-color="#6C83BB" offset="0.7"/>
<stop stop-color="#003D6D" offset="1"/>
</linearGradient>
<polygon fill="url(#_49)" points="27.204,37.543 39.632,40.851 37.372,41.64 27.181,38.824 "/>
<linearGradient id="_50" gradientUnits="userSpaceOnUse" x1="77.11" y1="29.95" x2="44.96" y2="51.86">
<stop stop-color="#E6EEF4" offset="0"/>
<stop stop-color="#2F8E9A" offset="0.44"/>
<stop stop-color="#003D6D" offset="0.94"/>
</linearGradient>
<path fill="url(#_50)" d="M73.74,24.721L57.938,44.784l0.692,4.338C59.098,48.988,79.487,41.033,73.74,24.721z"/>
<linearGradient id="_51" gradientUnits="userSpaceOnUse" x1="44.56" y1="38.7" x2="57.27" y2="61.55">
<stop stop-color="#E6EEF4" offset="0"/>
<stop stop-color="#2F8E9A" offset="0.44"/>
<stop stop-color="#003D6D" offset="0.94"/>
</linearGradient>
<polygon fill="url(#_51)" points="58.832,49.657 58.898,53.065 41.286,47.533 40.844,44.188 "/>
<linearGradient id="_52" gradientUnits="userSpaceOnUse" x1="51.6" y1="54.93" x2="59.24" y2="32.81">
<stop stop-color="#D6E6EC" offset="0"/>
<stop stop-color="#298595" offset="1"/>
</linearGradient>
<path fill="url(#_52)" d="M63.244,15.975c19.693,7.363,10.859,24.866-5.283,29.335l0.871,4.348l-17.973-5.453 l16.316-10.315l0.237,4.525C69.854,34.241,75.133,23.798,63.244,15.975z"/>
<linearGradient id="_53" gradientUnits="userSpaceOnUse" x1="22.47" y1="23.67" x2="38.27" y2="50.31">
<stop stop-color="#D6E4F3" offset="0"/>
<stop stop-color="#337CE5" offset="1"/>
</linearGradient>
<polygon fill="url(#_53)" points="20.095,26.655 20.807,38.791 36.649,43.016 36.872,30.029 "/>
<linearGradient id="_54" gradientUnits="userSpaceOnUse" x1="17.65" y1="41.1" x2="32.79" y2="29.42">
<stop stop-color="#E6EEF4" offset="0"/>
<stop stop-color="#337CE5" offset="0.44"/>
<stop stop-color="#003D6D" offset="0.94"/>
</linearGradient>
<polygon fill="url(#_54)" points="20.813,38.787 26.555,33.668 27.156,34.329 "/>
<linearGradient id="_55" gradientUnits="userSpaceOnUse" x1="36.55" y1="44.2" x2="25.98" y2="27.82">
<stop stop-color="#E6EEF4" offset="0"/>
<stop stop-color="#337CE5" offset="0.44"/>
<stop stop-color="#003D6D" offset="0.94"/>
</linearGradient>
<polygon fill="url(#_55)" points="36.657,43.003 30.612,34.447 29.721,34.993 "/>
<linearGradient id="_56" gradientUnits="userSpaceOnUse" x1="21.79" y1="25.71" x2="45.41" y2="32.99">
<stop stop-color="#D6E4F3" offset="0"/>
<stop stop-color="#337CE5" offset="1"/>
</linearGradient>
<polygon fill="url(#_56)" points="38.068,29.248 21.096,26.363 20.089,26.657 36.866,29.861 "/>
<linearGradient id="_57" gradientUnits="userSpaceOnUse" x1="29.09" y1="25.58" x2="29.09" y2="45.65">
<stop stop-color="#E6EEF4" offset="0"/>
<stop stop-color="#337CE5" offset="0.44"/>
<stop stop-color="#003D6D" offset="0.94"/>
</linearGradient>
<polygon fill="url(#_57)" points="36.866,29.861 20.12,26.764 27.354,38.878 36.857,30.347 36.649,43.016 37.576,42.063 38.068,29.248 "/>
<linearGradient id="_58" gradientUnits="userSpaceOnUse" x1="28.45" y1="27.37" x2="28.81" y2="39.98">
<stop stop-color="#D6E4F3" offset="0"/>
<stop stop-color="#337CE5" offset="1"/>
</linearGradient>
<polygon fill="url(#_58)" points="20.089,26.657 27.028,37.143 36.866,29.861 "/>
</svg>