<?xml version="1.0" encoding="UTF-8"?>
<!DOCTYPE svg PUBLIC "-//W3C//DTD SVG 1.1 Tiny//EN" "http://www.w3.org/Graphics/SVG/1.1/DTD/svg11-tiny.dtd">
<svg width="96" height="96" viewBox="0 0 96 96">
<path d="M81.93,14.046L60.799,35.179c0.845,0.844,5.673,6.581,5.673,12.817c0,6.206-4.774,12.008-5.616,12.852 l21.099,21.074C91.012,72.865,96,60.82,96,48.006C96,35.179,91.003,23.118,81.93,14.046z" fill-opacity="0.01" />
<path d="M80.395,15.581L60.799,35.179c1.254,1.254,5.673,6.935,5.673,12.817c0,5.821-4.365,11.598-5.616,12.852 L80.42,80.387c8.646-8.646,13.409-20.146,13.409-32.381C93.829,35.759,89.058,24.243,80.395,15.581z" fill-opacity="0.02" />
<path d="M78.859,17.116L60.799,35.179c1.664,1.663,5.673,7.297,5.673,12.817c0,5.403-3.957,11.188-5.616,12.852 l18.029,18.004c8.236-8.237,12.772-19.192,12.772-30.846C91.657,36.339,87.112,25.368,78.859,17.116z" fill-opacity="0.04" />
<path d="M77.324,18.652L60.799,35.179c2.074,2.074,5.673,7.771,5.673,12.817c0,5.019-3.548,10.777-5.616,12.852 L77.35,77.316c7.827-7.827,12.138-18.237,12.138-29.311C89.487,36.918,85.167,26.494,77.324,18.652z" fill-opacity="0.07" />
<path d="M75.789,20.188l-14.99,14.991c2.484,2.483,5.673,8.28,5.673,12.817c0,4.499-3.139,10.368-5.616,12.852 l14.959,14.934c7.417-7.417,11.501-17.281,11.501-27.775C87.315,37.498,83.222,27.619,75.789,20.188z" fill-opacity="0.11" />
<path d="M85.145,48.006c0-9.927-3.867-19.261-10.891-26.283L60.799,35.179c2.894,2.894,5.674,8.724,5.674,12.817 c0,3.933-2.73,9.958-5.617,12.852l13.424,13.398C81.286,67.238,85.145,57.919,85.145,48.006z" fill-opacity="0.13" />
<path d="M65.491,47.988c0-4.824-1.953-9.191-5.111-12.356l12.381-12.357c13.649,13.649,13.638,35.79-0.023,49.452 L60.368,60.358C63.534,57.192,65.491,52.819,65.491,47.988z" fill="#235487"/>
<linearGradient id="_3" gradientUnits="userSpaceOnUse" x1="66.3" y1="48.04" x2="82.34" y2="48.04">
<stop stop-color="#CADCEC" offset="0"/>
<stop stop-color="#87A8CB" offset="1"/>
</linearGradient>
<path d="M82.104,48.151c0,8.748-3.294,17.044-9.117,23.369c-1.041-1.029-10.519-10.65-11.468-11.588 c3.099-3.341,4.777-7.106,4.777-11.667c0-4.554-1.713-8.822-4.805-12.162c0.95-0.938,10.448-10.523,11.49-11.551 C78.989,30.906,82.104,39.417,82.104,48.151z" fill="url(#_3)"/>
<path d="M72.982,25.498c11.346,12.772,11.332,32.242,0,45.004v1.045c12.252-13.207,12.265-33.874,0-47.094 V25.498z" fill="#235487"/>
<linearGradient id="_4" gradientUnits="userSpaceOnUse" x1="75.5" y1="48" x2="61.57" y2="48">
<stop stop-color="#235487" offset="0.18"/>
<stop stop-color="#496DA2" offset="0.4"/>
<stop stop-color="#496DA2" offset="0.64"/>
<stop stop-color="#87A8CB" offset="0.9"/>
</linearGradient>
<path d="M73.005,24.479c-1.305,1.323-10.42,10.518-11.513,11.625c2.732,3.362,4.297,7.554,4.297,11.933 c0,4.374-1.545,8.535-4.27,11.896c1.093,1.104,10.162,10.268,11.468,11.588v-0.992c-0.951-0.964-10.009-10.127-10.56-10.684 c2.599-3.43,4.062-7.584,4.062-11.809c0-4.229-1.467-8.388-4.071-11.821c0.708-0.718,9.705-9.794,10.587-10.69V24.479z" fill="url(#_4)"/>
<polygon fill="#235487" points="78.713,45.285 74.609,45.285 74.609,41.183 71.802,41.183 71.802,45.285 67.697,45.285 67.697,48.095 71.802,48.095 71.802,52.202 74.609,52.202 74.609,48.095 78.713,48.095 "/>
<polygon fill="#033275" points="74.609,41.18 71.802,41.18 71.802,41.188 71.799,41.188 71.799,45.301 67.706,45.294 67.706,45.301 67.7,45.301 67.7,48.1 67.706,48.1 67.706,48.106 68.148,48.1 68.148,45.745 72.238,45.745 72.238,41.625 74.609,41.625 "/>
<rect fill="#033275" height="4.121" width="0.439" x="71.8" y="48.073"/>
<polygon fill="#033275" points="74.609,45.301 78.705,45.301 78.712,45.301 78.705,45.745 74.609,45.745 "/>
</svg>