<?xml version="1.0" encoding="UTF-8"?>
<!DOCTYPE svg PUBLIC "-//W3C//DTD SVG 1.1 Tiny//EN" "http://www.w3.org/Graphics/SVG/1.1/DTD/svg11-tiny.dtd">
<svg width="16" height="16" viewBox="0 0 16 16">
<path fill="#496DA2" d="M13.021,2.888c-0.117-0.011-0.291-0.012-0.471,0.004l0.107,0.013 c0.104-0.017,0.207-0.023,0.303-0.015c-0.75,0.354-0.736,1.675-0.752,1.957v0.651l1.066,0.181 C14.018,4.534,13.711,2.95,13.021,2.888z"/>
<path fill="#A2C2DD" d="M10.928,11.834l0.014-7.059c-0.004-0.324,0.111-0.626,0.287-0.895 c0.031-0.054,0.064-0.105,0.104-0.153c0.348-0.438,0.863-0.75,1.326-0.823l-0.107-0.013L4.336,1.908 C3.854,1.844,2.723,2.13,2.74,4.135C2.732,5.254,2.711,7.66,2.676,8.497c-0.127,2.945-0.383,3.405-0.383,3.405l6.873,2.859 c0.391,0.158,0.701,0.166,0.949,0.087c-0.145,0.022-0.285,0.032-0.412,0.022C10.799,14.846,10.926,13.195,10.928,11.834z"/>
<path fill="#496DA2" d="M12.961,2.89c-0.096-0.009-0.199-0.002-0.303,0.015c-0.463,0.073-0.979,0.385-1.326,0.823 c-0.039,0.048-0.072,0.1-0.104,0.153c-0.176,0.269-0.291,0.57-0.287,0.895l-0.014,7.059 c-0.002,1.36-0.129,3.012-1.225,3.036c0.127,0.01,0.268,0,0.412-0.022c0.893-0.14,2.031-0.938,2.088-3.014l0.006-6.336 V4.847C12.225,4.565,12.211,3.245,12.961,2.89z"/>
<path fill="#496DA2" d="M6.699,4.06v5.163C6.662,9.214,6.63,9.202,6.59,9.197c-0.736-0.102-1.652,0.363-2.045,1.04 c-0.393,0.675-0.109,1.305,0.627,1.404c0.736,0.103,1.65-0.362,2.043-1.036c0.111-0.192,0.162-0.38,0.17-0.553 c0.004-0.007,0.006-0.011,0.01-0.017c0-0.183,0-3.997,0-3.997l1.752,0.938V5.53L6.699,4.06z"/>
</svg>