<?xml version="1.0" encoding="UTF-8"?>
<!DOCTYPE svg PUBLIC "-//W3C//DTD SVG 1.1 Tiny//EN" "http://www.w3.org/Graphics/SVG/1.1/DTD/svg11-tiny.dtd">
<svg width="84" height="72" viewBox="0 0 84 72">
<linearGradient id="_24" gradientUnits="userSpaceOnUse" x1="42.63" y1="35.75" x2="59.16" y2="68.31">
<stop stop-color="#A2C2DD" offset="0.1"/>
<stop stop-color="#6C83BB" offset="0.71"/>
<stop stop-color="#003D6D" offset="0.99"/>
</linearGradient>
<path fill="url(#_24)" d="M74.66,36.809c0,0-5.904-0.38-6.447-0.415c-0.33-12.977-8.398-20.158-12.16-22.801 c0.291-0.506,3.195-5.57,3.195-5.57l0.297-0.545c0.256-0.432,0.381-0.885,0.381-1.331c0-0.619-0.242-1.225-0.719-1.744 c-0.714-0.777-1.763-1.116-2.44-0.79l-1.412,0.664c-0.606,0.124-0.949,0.706-1.033,0.978l0.007-0.033 c0,0-2.291,5.342-2.539,5.918c-0.454-0.193-1.57-0.667-1.57-0.667c-9.347-3.466-16.873,0.129-16.948,0.166 c0,0-1.379,0.689-1.847,0.923c-0.756-1.636-3.155-6.823-3.365-7.204c-0.35-0.638-1.303-1.441-2.492-1.033l-1.684,0.75 c-0.506,0.244-0.893,0.684-1.062,1.215c-0.055,0.173-0.098,0.388-0.098,0.638c0,0.367,0.092,0.809,0.374,1.303 c0,0,3.561,6.154,3.852,6.658c-5.69,3.693-9.391,10.339-9.979,17.922c-0.588-0.084-3.608-0.517-3.608-0.517 c-0.001-0.002-0.856-0.208-1.542,0.182l-1.258,0.571c-0.691,0.276-1.114,1.016-1.114,1.904c0,0.14,0.011,0.284,0.032,0.43 c0.175,1.178,0.986,2,2.066,2.094c0,0,4.884,0.029,5.432,0.032c0.694,8.172,4.793,15.983,11.039,21.024 c-0.251,0.443-2.547,4.502-2.547,4.502c-0.13,0.291-0.25,0.73-0.25,1.209c0,0.619,0.2,1.306,0.836,1.82 c0.975,0.791,1.881,0.631,2.459,0.381c1.922-0.734,2.125-1.447,2.146-1.494c0,0,1.329-3.07,1.572-3.631 c2.906,1.538,5.941,2.447,9.033,2.672c3.62,0.262,7.051-0.414,10.217-1.978c0.291,0.499,3.792,6.529,3.792,6.529 c0.257,0.507,1.104,1.417,2.399,1.104l1.999-0.845c0.081-0.047,0.979-0.614,0.979-1.735c0-0.391-0.108-0.848-0.398-1.375 c-0.177-0.313-2.291-3.314-4.125-5.908c3.998-2.283,10.447-7.479,11.83-17.607c0.585,0.098,4.83,0.807,4.83,0.807 c0.498,0.045,1.078-0.185,1.143-0.211l1.585-0.711l0.048-0.052c0.031-0.033,0.756-0.819,0.756-2.099v-0.046 C76.302,37.434,75.227,36.895,74.66,36.809z M51.979,22.381c0,0,2.313,2.104,4.146,5.958s2.406,7.292,2.406,7.292l-7.572-0.083 c0,0,0.104-1.792-0.793-4c-0.895-2.208-2.02-3.167-2.02-3.167L51.979,22.381z M41.016,16.116 c4.016,0.719,6.531,2.641,6.531,2.641l-2.891,7.375c0,0-2.116-0.8-3.938-0.25c-0.828,0.25-1.844,0.688-1.844,0.688l-4.563-10.188 C34.313,16.381,37,15.397,41.016,16.116z M25.438,32.569c0,0-0.125-1.875,0.813-5.625s3.344-6.5,3.344-6.5l5.469,7.969 c0,0-1.469,1.688-1.938,2.875s-0.75,2.906-0.75,2.906L25.438,32.569z M31.708,48.986c0,0-2.333-2.136-3.99-5.761 s-1.688-5.563-1.688-5.563l6.719,0.063c0,0,0.281,1.375,1,2.656s1.875,2.531,1.875,2.531L31.708,48.986z M40.906,55.163 c-2.813-0.938-4.469-2.063-4.469-2.063l3.344-8.375c0,0,0.656,0.219,1.906,0.094s2.063-0.531,2.063-0.531l3.813,11.5 C47.563,55.788,43.719,56.1,40.906,55.163z M57.25,47.131c-1.313,3.219-3,5.156-3,5.156L47.625,42.6c0,0,0.844-0.594,1.563-1.531 s1.094-1.813,1.094-1.813l8.375,1.313C58.656,40.569,58.563,43.913,57.25,47.131z"/>
<linearGradient id="_25" gradientUnits="userSpaceOnUse" x1="47.38" y1="10.22" x2="54.71" y2="54.56">
<stop stop-color="#FFFFFF" offset="0"/>
<stop stop-color="#A2C2DD" offset="0.35"/>
<stop stop-color="#6C83BB" offset="0.7"/>
<stop stop-color="#003D6D" offset="1"/>
</linearGradient>
<path fill="url(#_25)" d="M31.208,12.062l2.216-1.108c0,0,7.358-3.606,16.673-0.152 c8.396,3.115,18.034,12.545,17.801,26.886c-0.304,18.101-15.963,22.621-15.963,22.621s14.535-6.614,10.363-27.125 c-2.702-13.292-14.156-19.903-17.234-20.729C41.984,11.629,37.444,10.409,31.208,12.062z"/>
<linearGradient id="_26" gradientUnits="userSpaceOnUse" x1="16.36" y1="15.67" x2="49.19" y2="69.67">
<stop stop-color="#FFFFFF" offset="0"/>
<stop stop-color="#A2C2DD" offset="0.35"/>
<stop stop-color="#6C83BB" offset="0.7"/>
<stop stop-color="#003D6D" offset="1"/>
</linearGradient>
<path fill="url(#_26)" d="M24.786,33.259c0,0,0.047-9.107,4.957-13.669l-1.002-1.288 c-6.459,4.505-7.644,12.092-7.718,15.996s2.422,19.751,16.785,23.603c7.286,1.951,11.774-1.128,11.774-1.128l-0.613-0.906 c-2.402,1.05-11.094,1.265-18.176-6.911C26.214,43.922,25.086,37.389,24.786,33.259z"/>
<linearGradient id="_27" gradientUnits="userSpaceOnUse" x1="17.81" y1="27.54" x2="68.94" y2="60.66">
<stop stop-color="#FFFFFF" offset="0.05"/>
<stop stop-color="#A2C2DD" offset="1"/>
</linearGradient>
<polygon fill="url(#_27)" points="22.092,33.399 23.954,32.775 34.244,35.098 33.556,35.597 "/>
<linearGradient id="_28" gradientUnits="userSpaceOnUse" x1="41.74" y1="40.43" x2="33.74" y2="54.6">
<stop stop-color="#FFFFFF" offset="0"/>
<stop stop-color="#A2C2DD" offset="0.35"/>
<stop stop-color="#6C83BB" offset="0.7"/>
<stop stop-color="#003D6D" offset="1"/>
</linearGradient>
<polygon fill="url(#_28)" points="38.597,43.592 39.835,43.312 35.557,53.788 32.966,54.69 "/>
<linearGradient id="_29" gradientUnits="userSpaceOnUse" x1="40.98" y1="31.81" x2="30.65" y2="14.65">
<stop stop-color="#FFFFFF" offset="0"/>
<stop stop-color="#A2C2DD" offset="0.35"/>
<stop stop-color="#6C83BB" offset="0.7"/>
<stop stop-color="#003D6D" offset="1"/>
</linearGradient>
<polygon fill="url(#_29)" points="31.52,16.217 33.383,15.593 41.468,33.314 40.174,34.077 "/>
<linearGradient id="_30" gradientUnits="userSpaceOnUse" x1="25.18" y1="3.26" x2="31.43" y2="13.88">
<stop stop-color="#FFFFFF" offset="0"/>
<stop stop-color="#A2C2DD" offset="0.35"/>
<stop stop-color="#6C83BB" offset="0.7"/>
<stop stop-color="#003D6D" offset="1"/>
</linearGradient>
<path fill="url(#_30)" d="M24.026,4.396l1.655-0.738c1.052-0.361,1.833,0.437,2.072,0.872 c0.242,0.437,3.691,7.914,3.691,7.914l-1.542,0.683L24.026,4.396z"/>
<linearGradient id="_31" gradientUnits="userSpaceOnUse" x1="58.29" y1="3.37" x2="53.79" y2="16.24">
<stop stop-color="#FFFFFF" offset="0"/>
<stop stop-color="#A2C2DD" offset="0.35"/>
<stop stop-color="#6C83BB" offset="0.7"/>
<stop stop-color="#003D6D" offset="1"/>
</linearGradient>
<path fill="url(#_31)" d="M55.482,4.604l1.436-0.675c1.1-0.529,3.546,1.308,2.326,3.372 c-0.263,0.443-1.744,3.39-4.299,7.432l-1.51,0.678L55.482,4.604z"/>
<linearGradient id="_32" gradientUnits="userSpaceOnUse" x1="51.07" y1="10" x2="57.87" y2="10">
<stop stop-color="#FFFFFF" offset="0.05"/>
<stop stop-color="#A2C2DD" offset="1"/>
</linearGradient>
<path fill="url(#_32)" d="M56.857,4.989c1.559,1.067,0.844,2.615,0.844,2.615l-4.27,7.83l-2.357-1.737l3.576-8.335 C54.65,5.359,55.199,3.857,56.857,4.989z"/>
<linearGradient id="_33" gradientUnits="userSpaceOnUse" x1="64.58" y1="39.47" x2="74.87" y2="39.47">
<stop stop-color="#FFFFFF" offset="0.05"/>
<stop stop-color="#A2C2DD" offset="1"/>
</linearGradient>
<path fill="url(#_33)" d="M74.855,38.014c0,0,0.271,3.825-2.007,3.624l-8.144-1.361l-0.123-2.981L74.855,38.014z"/>
<linearGradient id="_34" gradientUnits="userSpaceOnUse" x1="70.4" y1="35.86" x2="70.15" y2="40.49">
<stop stop-color="#FFFFFF" offset="0"/>
<stop stop-color="#A2C2DD" offset="0.35"/>
<stop stop-color="#6C83BB" offset="0.7"/>
<stop stop-color="#003D6D" offset="1"/>
</linearGradient>
<path fill="url(#_34)" d="M64.582,37.307l1.52-0.697l8.507,0.545c0,0,1.343,0.203,1.364,1.715 c0.016,1.18-0.661,1.9-0.661,1.9l-1.509,0.678c0,0,0.527-0.898,0.527-1.691c0-1.494-1.178-1.781-1.178-1.781L64.582,37.307z"/>
<linearGradient id="_35" gradientUnits="userSpaceOnUse" x1="53.74" y1="52.64" x2="58.24" y2="66.51">
<stop stop-color="#FFFFFF" offset="0"/>
<stop stop-color="#A2C2DD" offset="0.35"/>
<stop stop-color="#6C83BB" offset="0.7"/>
<stop stop-color="#003D6D" offset="1"/>
</linearGradient>
<path fill="url(#_35)" d="M57.605,68.335l1.928-0.853c0.176-0.108,1.339-0.948,0.416-2.621 c-0.254-0.451-5.186-7.404-5.186-7.404l-1.543,0.688L57.605,68.335z"/>
<path fill="url(#_27)" d="M19.291,32.498l-1.542,0.683l-7.055-0.809l1.299-0.591c0.572-0.325,1.319-0.139,1.319-0.139 L19.291,32.498z"/>
<linearGradient id="_37" gradientUnits="userSpaceOnUse" x1="33.15" y1="53.86" x2="29.68" y2="64.37">
<stop stop-color="#FFFFFF" offset="0"/>
<stop stop-color="#A2C2DD" offset="0.35"/>
<stop stop-color="#6C83BB" offset="0.7"/>
<stop stop-color="#003D6D" offset="1"/>
</linearGradient>
<path fill="url(#_37)" d="M33.545,56.409l-1.542,0.685c0,0-3.406,7.86-3.816,8.041l1.607-0.708 c0.386-0.254,0.549-0.619,0.549-0.619L33.545,56.409z"/>
<linearGradient id="_38" gradientUnits="userSpaceOnUse" x1="40.64" y1="23.63" x2="47.98" y2="41.47">
<stop stop-color="#FFFFFF" offset="0"/>
<stop stop-color="#A2C2DD" offset="0.35"/>
<stop stop-color="#6C83BB" offset="0.7"/>
<stop stop-color="#003D6D" offset="1"/>
</linearGradient>
<path fill="url(#_38)" d="M37.334,27.459l3.195-1.214c0.579-0.271,5.602-1.232,8.641,4.21 c3.59,6.425-0.627,11.531-2.61,12.37l-3.36,1.165c0,0,7.091-3.045,3.014-12.368C44.24,27.111,38.683,26.744,37.334,27.459z"/>
<linearGradient id="_39" gradientUnits="userSpaceOnUse" x1="44.31" y1="39.14" x2="52.06" y2="17.76">
<stop stop-color="#FFFFFF" offset="0"/>
<stop stop-color="#A2C2DD" offset="0.35"/>
<stop stop-color="#6C83BB" offset="0.7"/>
<stop stop-color="#003D6D" offset="1"/>
</linearGradient>
<polygon fill="url(#_39)" points="50.188,20.491 53.496,19.062 47.456,28.833 46.019,29.15 "/>
<polygon fill="url(#_27)" points="48.305,36.5 50.085,35.909 61.467,36.103 59.408,36.926 "/>
<linearGradient id="_41" gradientUnits="userSpaceOnUse" x1="42.04" y1="37.88" x2="53.71" y2="55.88">
<stop stop-color="#FFFFFF" offset="0"/>
<stop stop-color="#A2C2DD" offset="0.35"/>
<stop stop-color="#6C83BB" offset="0.7"/>
<stop stop-color="#003D6D" offset="1"/>
</linearGradient>
<polygon fill="url(#_41)" points="45.2,43.12 46.951,42.264 54.654,53.689 51.271,55.756 "/>
<linearGradient id="_42" gradientUnits="userSpaceOnUse" x1="19.24" y1="13.29" x2="50.87" y2="61.19">
<stop stop-color="#FFFFFF" offset="0.05"/>
<stop stop-color="#A2C2DD" offset="1"/>
</linearGradient>
<path fill="url(#_42)" d="M40.028,27.05c-1.674-0.148-2.695,0.36-2.695,0.36L31.52,16.218l-3.034,1.708l7.16,10.44 c0,0-2.992,2.637-2.881,6.94L22.091,33.4c0,0-0.493,2.323,0.197,3.576l10.751,0.345c0,0,0.616,3.408,3.287,5.417l-6.235,9.755 l2.873,2.197l5.438-10.716c0,0,1.231,0.406,1.881,0.465c4.088,0.372,7.348-3.222,7.278-8.021 C47.49,31.614,44.115,27.411,40.028,27.05z"/>
<linearGradient id="_43" gradientUnits="userSpaceOnUse" x1="34.82" y1="31.39" x2="43.45" y2="39.64">
<stop stop-color="#DCE8E4" offset="0"/>
<stop stop-color="#43910A" offset="1"/>
</linearGradient>
<path fill="url(#_43)" d="M39.4,30.54c2.408,0.284,4.369,2.855,4.381,5.753c0.01,2.893-1.932,5.01-4.344,4.73 c-2.408-0.282-4.366-2.854-4.376-5.751C35.049,32.375,36.992,30.256,39.4,30.54z"/>
<linearGradient id="_44" gradientUnits="userSpaceOnUse" x1="40.27" y1="28.72" x2="42.52" y2="37.85">
<stop stop-color="#E6EEF4" offset="0"/>
<stop stop-color="#4A9900" offset="0.44"/>
<stop stop-color="#0E4E58" offset="0.94"/>
</linearGradient>
<path fill="url(#_44)" d="M38.104,30.622l0.624-0.217c0,0,1.137-0.37,2.512,0.129c0,0,2.432,0.996,3.084,3.955 c0.414,1.879-0.115,4.446-1.346,5.331l-1.737,0.941c0,0,3.183-1.533,2.35-5.794c-0.375-1.938-1.224-2.832-2.35-3.697 C40.258,30.511,38.646,30.404,38.104,30.622z"/>
<linearGradient id="_45" gradientUnits="userSpaceOnUse" x1="44.35" y1="27.25" x2="57.85" y2="42.17">
<stop stop-color="#FFFFFF" offset="0.05"/>
<stop stop-color="#A2C2DD" offset="1"/>
</linearGradient>
<polygon fill="url(#_45)" points="48.305,36.5 48.295,38.579 59.269,40.213 59.408,36.926 "/>
<linearGradient id="_46" gradientUnits="userSpaceOnUse" x1="14.48" y1="17.82" x2="64.83" y2="64.16">
<stop stop-color="#FFFFFF" offset="0.05"/>
<stop stop-color="#A2C2DD" offset="1"/>
</linearGradient>
<path fill="url(#_46)" d="M53.939,59.17c5.928-4.188,9.633-11.742,9.262-20.621c-0.594-14.2-11.389-26.5-24.063-27.417 c-3.39-0.246-6.571,0.354-9.408,1.625l-3.479-7.475c-0.386-0.673-0.915-0.985-1.427-1.029c-1.198-0.105-2.328,1.217-1.423,2.805 l4.009,6.929c-5.968,3.726-9.925,10.72-10.188,19.118l-5.809-0.834c-2.235-0.198-2.121,3.657,0.164,3.855l5.71,0.033 c0.634,8.599,4.984,16.413,11.175,21.298l-2.686,4.748c0,0-0.712,1.602,0.502,2.586c1.665,1.35,2.519-0.291,2.519-0.291 l2.265-5.228c3.127,1.905,6.601,3.106,10.231,3.368c3.764,0.273,7.274-0.497,10.338-2.074l3.948,6.8c0,0,0.697,1.409,2.198,0.903 c1.757-0.591,0.652-2.685,0.652-2.685L53.939,59.17z M41.106,58.229C30.664,57.475,21.768,47.28,21.272,35.511 c-0.49-11.768,7.606-20.725,18.048-19.971c3.11,0.226,6.074,1.303,8.729,2.995l-3.756,9.151l1.726,1.465l4.76-8.55 c4.799,4.23,8.08,10.654,8.373,17.655c0.315,7.516-2.882,13.871-7.946,17.3L45.2,43.12l-1.143,0.528l4.478,13.369 C46.279,57.975,43.771,58.422,41.106,58.229z"/>
</svg>