<?xml version="1.0" encoding="UTF-8"?>
<!DOCTYPE svg PUBLIC "-//W3C//DTD SVG 1.1 Tiny//EN" "http://www.w3.org/Graphics/SVG/1.1/DTD/svg11-tiny.dtd">
<svg width="60" height="80" viewBox="0 0 60 80">
<linearGradient id="_127" gradientUnits="userSpaceOnUse" x1="26.17" y1="38.77" x2="38.32" y2="62.7">
<stop stop-color="#A2C2DD" offset="0.1"/>
<stop stop-color="#6C83BB" offset="0.71"/>
<stop stop-color="#003D6D" offset="0.99"/>
</linearGradient>
<path fill="url(#_127)" d="M3.784,19.87l0.159,30.653c0,0,15.196,4.408,15.821,4.59c-0.156,0.604-2.196,8.545-2.196,8.545 s10.514-5.492,10.768-5.625c0.272,0.088,11.507,3.712,11.507,3.712l5.916-3.955l1.788-32.466L10.491,18.35L3.784,19.87z"/>
<linearGradient id="_128" gradientUnits="userSpaceOnUse" x1="43.48" y1="24.58" x2="43.48" y2="65.77">
<stop stop-color="#FFFFFF" offset="0"/>
<stop stop-color="#A2C2DD" offset="0.35"/>
<stop stop-color="#6C83BB" offset="0.7"/>
<stop stop-color="#003D6D" offset="1"/>
</linearGradient>
<polygon fill="url(#_128)" points="39.779,61.338 45.419,57.596 47.182,25.611 40.686,27.304 "/>
<linearGradient id="_129" gradientUnits="userSpaceOnUse" x1="35.73" y1="22.47" x2="3.06" y2="65.86">
<stop stop-color="#FFFFFF" offset="0.05"/>
<stop stop-color="#A2C2DD" offset="1"/>
</linearGradient>
<polygon fill="url(#_129)" points="20.188,54.872 4.292,50.26 4.136,20.149 40.936,27.343 39.79,61.359 28.304,57.655 18.103,62.984 "/>
<linearGradient id="_130" gradientUnits="userSpaceOnUse" x1="7.61" y1="19.04" x2="50.17" y2="28.1">
<stop stop-color="#FFFFFF" offset="0.05"/>
<stop stop-color="#A2C2DD" offset="1"/>
</linearGradient>
<polygon fill="url(#_130)" points="47.129,25.611 10.498,18.707 4.136,20.149 40.936,27.343 "/>
<linearGradient id="_131" gradientUnits="userSpaceOnUse" x1="41.8" y1="36.66" x2="-2.96" y2="27.05">
<stop stop-color="#E6EEF4" offset="0"/>
<stop stop-color="#337CE5" offset="0.44"/>
<stop stop-color="#003D6D" offset="0.94"/>
</linearGradient>
<polygon fill="url(#_131)" points="8.339,28.333 8.3,29.871 38.293,37.047 37.928,34.776 "/>
<polygon fill="url(#_131)" points="8.507,35.279 8.413,36.813 38.123,45.077 37.844,42.795 "/>
<linearGradient id="_133" gradientUnits="userSpaceOnUse" x1="45.11" y1="14.51" x2="47.32" y2="14.88">
<stop stop-color="#3366CC" offset="0"/>
<stop stop-color="#0046B7" offset="1"/>
</linearGradient>
<polygon fill="url(#_133)" points="43.402,18.093 47.302,18.769 48.611,11.227 44.714,10.549 "/>
<linearGradient id="_134" gradientUnits="userSpaceOnUse" x1="53.4" y1="18.72" x2="54.67" y2="20.57">
<stop stop-color="#3366CC" offset="0"/>
<stop stop-color="#0046B7" offset="1"/>
</linearGradient>
<polygon fill="url(#_134)" points="49.641,19.964 51.846,23.249 58.201,18.979 55.995,15.695 "/>
</svg>