<?xml version="1.0" encoding="UTF-8"?>
<!DOCTYPE svg PUBLIC "-//W3C//DTD SVG 1.1 Tiny//EN" "http://www.w3.org/Graphics/SVG/1.1/DTD/svg11-tiny.dtd">
<svg width="36" height="36" viewBox="0 0 36 36">
<path d="M1.658,18.602c0,9.341,7.602,16.941,16.941,16.941 c9.342,0,16.941-7.6,16.941-16.941c0-9.341-7.6-16.941-16.941-16.941C9.26,1.661,1.658,9.261,1.658,18.602z" fill-opacity="0.01" />
<path d="M2.397,18.602c0,8.934,7.269,16.199,16.202,16.199s16.203-7.265,16.203-16.199 c0-8.934-7.27-16.201-16.203-16.201S2.397,9.668,2.397,18.602z" fill-opacity="0.02" />
<path d="M3.137,18.602c0,8.522,6.938,15.459,15.463,15.459 c8.527,0,15.461-6.937,15.461-15.459c0-8.529-6.934-15.463-15.461-15.463C10.074,3.139,3.137,10.073,3.137,18.602z" fill-opacity="0.04" />
<path d="M3.761,18.602c0,8.182,6.657,14.836,14.839,14.836 c8.181,0,14.837-6.654,14.837-14.836c0-8.184-6.656-14.839-14.837-14.839C10.418,3.763,3.761,10.418,3.761,18.602z" fill-opacity="0.07" />
<linearGradient id="_3" gradientUnits="userSpaceOnUse" x1="18.01" y1="1.35" x2="18.01" y2="39.3">
<stop stop-color="#CFECFF" offset="0"/>
<stop stop-color="#8CC2EA" offset="1"/>
</linearGradient>
<path d="M3.028,18.012c0,8.262,6.721,14.983,14.982,14.983 c8.263,0,14.985-6.722,14.985-14.983c0-8.262-6.723-14.984-14.985-14.984C9.749,3.027,3.028,9.75,3.028,18.012z" fill="url(#_3)"/>
<linearGradient id="_4" gradientUnits="userSpaceOnUse" x1="18.01" y1="1.35" x2="18.01" y2="39.3">
<stop stop-color="#FFFFFF" offset="0"/>
<stop stop-color="#EAF7FF" offset="0.32"/>
<stop stop-color="#D6EFFF" offset="0.73"/>
<stop stop-color="#CFECFF" offset="1"/>
</linearGradient>
<circle cx="18.012" cy="18.012" fill="url(#_4)" r="13.984"/>
<ellipse cx="18.011" cy="18.027" fill="#FFFFFF" fill-opacity="0.35" rx="12.079" ry="9.86" />
<path d="M17.045,14.141l0.019,5.117c-1.863-0.412-3.827,2.473-1.661,2.874 c1.393,0.193,2.627-1.104,2.627-1.913c0-0.217-0.006-3.739-0.006-3.739l2.076,1.105l-0.004-1.711L17.045,14.141z" fill="#B3DDFF"/>
<path d="M10.221,10.66l-1.764,2.009L8.48,24.474h18.481V12.156l-8.759,0.017l-1.357-1.53 L10.221,10.66z M16.154,12.197l1.354,1.52h7.882l0.023,9.225H9.992v-9.688l0.928-1.057H16.154z" fill="#B3DDFF"/>
</svg>