<?xml version="1.0" encoding="UTF-8" standalone="no"?>
<!DOCTYPE svg PUBLIC "-//W3C//DTD SVG 1.1 Tiny//EN" "http://www.w3.org/Graphics/SVG/1.1/DTD/svg11-tiny.dtd">
<svg xmlns="http://www.w3.org/2000/svg" xmlns:xlink="http://www.w3.org/1999/xlink" width="54" height="54" viewBox="0 0 54 54">
<rect fill="none" height="54" width="54"/>
<path d="M26.687,46.193L7.614,46.191V6.437v-1.98L29.32,4.453 c2.221-0.002,5.598,1.445,5.598,1.445c4.295,2.115,6.619,6.436,6.619,6.436c0.912,1.48,1.521,3.252,1.516,5.434l0,0v13.619 c3.997,1.926,6.762,6.016,6.764,10.744l0,0c-0.002,6.578-5.346,11.922-11.924,11.924l0,0C32.741,54.051,28.354,50.773,26.687,46.193 L26.687,46.193z" fill="#FFFFFF" fill-opacity="0.6"/>
<linearGradient id="_36" gradientUnits="userSpaceOnUse" x1="25.33" y1="-10.16" x2="25.33" y2="31.9">
<stop stop-color="#CCCCCC" offset="0"/>
<stop stop-color="#000000" offset="1"/>
</linearGradient>
<path d="M42.053,45.068h-0.98H9.597H8.615v-0.982V6.312V5.33h0.982H29.32 c3.972,0,6.467,1.945,8.568,4.047c2.276,2.279,4.164,4.475,4.164,8.266v26.443V45.068L42.053,45.068z" fill="url(#_36)" fill-opacity="0.7"/>
<path d="M41.04,15.338c0-4.959-4.034-8.992-8.991-8.992c-0.645,0-1.271,0.07-1.879,0.203l10.68,10.633 C40.973,16.586,41.04,15.969,41.04,15.338z" fill-opacity="0.02"/>
<path d="M40.87,15.338c0-4.865-3.958-8.824-8.821-8.824c-0.595,0-1.176,0.063-1.736,0.176l10.391,10.348 C40.811,16.486,40.87,15.918,40.87,15.338z" fill-opacity="0.02"/>
<path d="M40.705,15.338c0-4.773-3.887-8.654-8.656-8.654c-0.543,0-1.072,0.057-1.589,0.152l10.097,10.055 C40.648,16.387,40.705,15.867,40.705,15.338z" fill-opacity="0.02"/>
<path d="M40.537,15.338c0-4.682-3.811-8.488-8.488-8.488c-0.492,0-0.972,0.051-1.441,0.133l9.804,9.762 C40.486,16.287,40.537,15.816,40.537,15.338z" fill-opacity="0.02"/>
<path d="M40.369,15.338c0-4.588-3.734-8.32-8.32-8.32c-0.441,0-0.871,0.045-1.294,0.113l9.509,9.467 C40.326,16.185,40.369,15.767,40.369,15.338z" fill-opacity="0.02"/>
<path d="M40.201,15.336c0-4.494-3.658-8.148-8.152-8.148c-0.39,0-0.771,0.037-1.146,0.09l9.213,9.175 C40.166,16.086,40.201,15.715,40.201,15.336z" fill-opacity="0.02"/>
<path d="M40.033,15.336c0-4.402-3.581-7.982-7.984-7.982c-0.339,0-0.671,0.029-0.999,0.068l8.919,8.885 C40.007,15.988,40.033,15.664,40.033,15.336z" fill-opacity="0.02"/>
<path d="M39.865,15.336c0-4.311-3.508-7.813-7.816-7.813c-0.287,0-0.57,0.018-0.851,0.049l8.622,8.588 C39.85,15.889,39.865,15.613,39.865,15.336z" fill-opacity="0.02"/>
<path d="M39.7,15.336c0-4.217-3.435-7.645-7.651-7.645c-0.234,0-0.466,0.014-0.695,0.033l8.313,8.279 C39.686,15.783,39.7,15.56,39.7,15.336z" fill-opacity="0.02"/>
<path d="M39.529,15.336c0-4.123-3.355-7.479-7.48-7.479c-0.182,0-0.359,0.014-0.537,0.025l7.992,7.961 C39.516,15.676,39.529,15.508,39.529,15.336z" fill-opacity="0.02"/>
<path d="M39.361,15.336c0-4.033-3.28-7.314-7.313-7.314c-0.127,0-0.252,0.016-0.379,0.02l7.674,7.645 C39.35,15.568,39.361,15.453,39.361,15.336z" fill-opacity="0.02"/>
<linearGradient id="_37" gradientUnits="userSpaceOnUse" x1="37.99" y1="12.54" x2="39.03" y2="11.5">
<stop stop-color="#F2F2F2" offset="0"/>
<stop stop-color="#EDEDED" offset="0.19"/>
<stop stop-color="#DFDFDF" offset="0.42"/>
<stop stop-color="#C8C8C8" offset="0.66"/>
<stop stop-color="#A8A8A8" offset="0.9"/>
<stop stop-color="#999999" offset="1"/>
</linearGradient>
<path d="M41.07,17.644c0,3.09,0,26.441,0,26.441H9.597V6.312c0,0,17.647,0,19.723,0 c3.412,0,5.609,1.496,7.875,3.76C39.456,12.334,41.07,14.287,41.07,17.644z" fill="url(#_37)"/>
<linearGradient id="_38" gradientUnits="userSpaceOnUse" x1="30.44" y1="20.1" x2="38.95" y2="11.6">
<stop stop-color="#F2F2F2" offset="0"/>
<stop stop-color="#EDEDED" offset="0.19"/>
<stop stop-color="#DFDFDF" offset="0.42"/>
<stop stop-color="#C8C8C8" offset="0.66"/>
<stop stop-color="#A8A8A8" offset="0.9"/>
<stop stop-color="#999999" offset="1"/>
</linearGradient>
<path d="M41.07,17.644c0,3.09,0,26.441,0,26.441H9.597V6.312c0,0,17.647,0,19.723,0 c4.199,0,5.701,2.801,6.093,5.539C38.279,12.244,41.07,13.547,41.07,17.644z" fill="url(#_38)"/>
<linearGradient id="_39" gradientUnits="userSpaceOnUse" x1="25.33" y1="44.09" x2="25.33" y2="16.93">
<stop stop-color="#F2F2F2" offset="0"/>
<stop stop-color="#FFFFFF" offset="1"/>
</linearGradient>
<polygon fill="url(#_39)" fill-opacity="0.85" points="41.07,34.434 41.07,44.086 9.597,44.086 9.597,16.805 "/>
<linearGradient id="_40" gradientUnits="userSpaceOnUse" x1="25.33" y1="39.62" x2="25.33" y2="10.33">
<stop stop-color="#808080" offset="0"/>
<stop stop-color="#7B7B7B" offset="0.21"/>
<stop stop-color="#6D6D6D" offset="0.45"/>
<stop stop-color="#555555" offset="0.71"/>
<stop stop-color="#353535" offset="0.99"/>
<stop stop-color="#333333" offset="1"/>
</linearGradient>
<path d="M35.387,11.879c-0.392-2.74-1.867-5.566-6.066-5.566c-2.075,0-19.723,0-19.723,0 v37.773H41.07c0,0,0-23.352,0-26.441C41.07,13.547,38.254,12.269,35.387,11.879z M40.232,43.248H10.438V7.152H29.32 c3.285,0,5.445,0.836,6.055,4.738c3.771,0.662,4.857,1.719,4.857,5.754V43.248z" fill="url(#_40)" fill-opacity="0.4"/>
<linearGradient id="_41" gradientUnits="userSpaceOnUse" x1="25.03" y1="14.18" x2="25.03" y2="55.89">
<stop stop-color="#FB9E3A" offset="0.06"/>
<stop stop-color="#E6742B" offset="1"/>
</linearGradient>
<rect fill="url(#_41)" height="2.243" width="20.082" x="14.985" y="26.267"/>
<linearGradient id="_42" gradientUnits="userSpaceOnUse" x1="25" y1="8.02" x2="25" y2="37.15">
<stop stop-color="#FB9E3A" offset="0.06"/>
<stop stop-color="#E6742B" offset="1"/>
</linearGradient>
<rect fill="url(#_42)" height="10.779" width="20.041" x="14.985" y="12.517"/>
<rect fill="url(#_41)" height="2.244" width="20.125" x="14.941" y="36.637"/>
<rect fill="url(#_41)" height="2.244" width="20.125" x="14.941" y="31.441"/>
<path d="M20.741,18.32l1.992,3.961h-1.846l-1.693-3.709h-0.768v3.709h-1.611v-8.736h2.836 c1.083,0,2.189,0.336,2.519,1.484C22.551,16.355,22.104,17.824,20.741,18.32 M18.427,17.588h0.861c1.267,0,1.712-1.475,1.185-2.496 c-0.373-0.721-1.328-0.563-2.003-0.563C18.383,14.529,18.427,17.254,18.427,17.588" fill="#FFFFFF"/>
<path d="M25.182,22.375c-0.222,0-1.881-0.057-1.881-0.285c0-0.332,0-0.664,0-0.998 c1.126,0.307,3.688,0.688,3.359-1.281c-0.237-1.418-2.516-1.602-3.119-2.898c-0.642-1.383,0.032-2.896,1.48-3.313 c0.812-0.232,1.721-0.18,2.543-0.037c0.521,0.092,0.317,0.613,0.317,1.084c-0.859-0.195-2.678-0.543-2.929,0.705 c-0.263,1.307,1.492,1.779,2.292,2.385c0.989,0.748,1.325,1.99,0.864,3.156C27.643,22.076,26.332,22.375,25.182,22.375" fill="#FFFFFF"/>
<path d="M30.966,22.375c-0.222,0-1.881-0.057-1.881-0.285c0-0.332,0-0.664,0-0.998 c1.126,0.307,3.688,0.688,3.358-1.281c-0.236-1.418-2.516-1.602-3.118-2.898c-0.642-1.383,0.032-2.896,1.479-3.313 c0.813-0.232,1.721-0.18,2.545-0.037c0.52,0.092,0.316,0.613,0.316,1.084c-0.859-0.195-2.678-0.543-2.93,0.705 c-0.262,1.307,1.492,1.779,2.293,2.385c0.988,0.748,1.324,1.99,0.863,3.156C33.425,22.076,32.115,22.375,30.966,22.375" fill="#FFFFFF"/>
<polygon fill="url(#_39)" fill-opacity="0.3" points="41.07,34.434 41.07,44.086 9.597,44.086 9.597,16.805 "/>
<linearGradient id="_46" gradientUnits="userSpaceOnUse" x1="37.89" y1="22.56" x2="37.89" y2="45.69">
<stop stop-color="#CCCCCC" offset="0"/>
<stop stop-color="#000000" offset="1"/>
</linearGradient>
<path d="M37.893,52.93c-6.023,0-10.926-4.898-10.926-10.924 c0-6.023,4.902-10.924,10.926-10.924s10.924,4.9,10.924,10.924C48.816,48.031,43.917,52.93,37.893,52.93L37.893,52.93z" fill="url(#_46)" fill-opacity="0.7"/>
<radialGradient id="_47" gradientUnits="userSpaceOnUse" cx="37.85" cy="37.9" r="14.46">
<stop stop-color="#E3F5FF" offset="0"/>
<stop stop-color="#13A9FF" offset="0.34"/>
<stop stop-color="#00A2FF" offset="0.47"/>
<stop stop-color="#004BB5" offset="0.9"/>
</radialGradient>
<circle cx="37.893" cy="42.006" fill="url(#_47)" r="10.357"/>
<linearGradient id="_48" gradientUnits="userSpaceOnUse" x1="38.02" y1="31.96" x2="38.02" y2="56.99">
<stop stop-color="#E3F5FF" offset="0.07"/>
<stop stop-color="#74CCFF" offset="0.23"/>
<stop stop-color="#00A2FF" offset="0.47"/>
<stop stop-color="#004BB5" offset="0.9"/>
</linearGradient>
<path d="M45.602,38.242c0,3.055-3.394,4.82-7.576,4.82c-4.185,0-7.577-1.767-7.577-4.82 c0-3.053,3.393-6.238,7.577-6.238C42.208,32.004,45.602,35.189,45.602,38.242z" fill="url(#_48)"/>
<radialGradient id="_49" gradientUnits="userSpaceOnUse" cx="37.9" cy="34.14" r="16.21">
<stop stop-color="#FFFFFF" offset="0.15"/>
<stop stop-color="#A7C1E5" offset="1"/>
</radialGradient>
<path d="M34.943,32.076c0.936-0.277,1.925-0.428,2.949-0.428c0.795,0,1.57,0.09,2.314,0.26 c-0.999,0.213-2.092-0.043-2.092-0.043c-0.098,0.16-0.551,0.078-0.672,0.078c-0.12,0-0.738,0.512-1.319,0.459 c-0.278,0.182-0.526,0.381-0.829,0.281c-0.3-0.101-0.875,0.397-1.096,0.42c-0.299,0.094-0.439,0.071-0.481-0.017 C34.402,32.668,34.682,32.328,34.943,32.076z M46.197,45.299l-0.338,0.537c0,0-0.508,0.158-0.526,0.318 c-0.01,0.068-0.392,0.916-0.392,0.916s-0.149,0.471,0.279,0.332C46.111,47.109,46.695,45.199,46.197,45.299z M30.068,46.354 c0.146,0,0.523,0.045,0.57-0.092c0.004-0.06,0.057-1.478,0.057-1.478l0.563-0.748v-0.599l-1.468-0.949l-0.638-0.69 c0,0.002-0.245-0.745-0.478-0.957c-0.192-0.178-0.18-0.563-0.384-0.85c-0.188-0.259-0.338-0.404-0.457-0.462 c-0.947,3.834,0.521,7.093,1.895,8.851c0.197-0.282,0.354-0.594,0.474-0.873C30.326,47.221,29.579,46.818,30.068,46.354z M31.198,34.482c0-0.188,0.306-0.279,0.306-0.279l0.04,0.146l0.278,0.119c0,0,0.332-0.359,0.4-0.453 c0.064-0.093,0.185-0.449,0.185-0.449l0.579-0.685c-1.301,0.701-2.435,1.675-3.327,2.843C30.016,35.439,31.198,34.668,31.198,34.482 z M36.677,32.844c0.13-0.025,0.429-0.166,0.429-0.166s-0.148-0.063-0.316-0.039c-0.169,0.025-0.411-0.1-0.542-0.037 C36.359,32.74,36.546,32.869,36.677,32.844z M47.896,39.318c-0.035,0-0.055-0.006-0.055-0.006s-0.06-0.037-0.148-0.097l-0.314-0.625 l-0.499-0.038l-1.014-0.854c0,0,0.269,0.688,0.715,1.012c0.289,0.021,0.485-0.02,0.5-0.004c0.317,0.838-0.36,1.865-1.149,2.057 c-0.1-0.43-0.186-0.598-0.313-0.963l-1.38-1.879l-0.08,0.199l0.638,0.971c0,0,0.451,0.756,0.636,1.193 c0.36,0.318,0.43,0.451,0.465,0.777c0.127,0.039,0.227,0.045,0.625-0.103c0.603-0.22,0.258,0.711,0.16,0.972 c-0.361,0.881-0.441,0.811-1.011,1.389c-0.88,0.619-0.407,1.703-0.446,2.58c0,0-0.888,0.596-1.216,0.727 c-0.306,0.434-0.007,0.846-0.159,0.855c-0.468,0.154-1.174,0.877-1.295,0.977c-0.421,0.541-0.678,0.619-1.172,0.576 c-1.376-0.389-0.963-1.818-1.021-1.979c-0.17-0.55-0.704-0.627-0.008-1.675c0.293-0.346,0.025-1.11-0.504-1.854 c-0.246-0.342,0.17-1.139,0.137-1.146c-0.889-0.166-1.072-0.565-1.113-0.668c0,0-1.814,0.363-2.439,0.312 c-0.479-0.037-1.516-1.279-1.717-1.74s0.377-2.012,0.398-2.131c0.019-0.121,1.367-1.057,1.367-1.057l0.916-0.894l-0.547-0.271 c0,0,0.113-1.121,0.616-0.838c0.054,0.03,0.339,0.09,0.66,0.061c0.343-0.213-0.374-0.496-0.296-0.783 c0.021-0.07,0.281-0.102,0.018-0.342c-0.425-0.385-0.119-0.664,0.147-0.73c0.291,0.107,0.476,0.369,0.476,0.73 s0.952-0.166,1.008-0.227c-0.422-0.306-0.635-0.789-0.476-0.81c0.161-0.021,0.865-0.205,1.044-0.388 c0.18-0.178,1.518,0.168,1.678,0.188c0.16,0.019,0.111,0.173,0.291,0.173c0.062,0,0.323-0.068,0.643-0.158 C45.21,34.135,47.137,36.486,47.896,39.318z M40.471,33.748c0.104,0.094,0.45,0.283,0.502-0.027 c0.051-0.314-0.275-0.791-0.275-0.791s-0.33,0.08-0.247,0.293C40.535,33.436,40.366,33.656,40.471,33.748z M44.061,36.76 c-0.223-0.186-1.435-0.105-1.777-0.9l-0.174,0.023c0,0,0.115,0.561-0.023,0.551c-0.33-0.024-0.67-0.611-0.67-0.611l-0.063-0.247 L40.5,35.091c0,0-0.004,0.144,0.66,0.728c0,0-0.225,0.383-0.521,0.404c0.074-0.099,0.131-0.398,0.131-0.398l-0.819-0.656 c0,0-0.718-0.092-0.897,0.061c-0.211,0.181-0.801,0.732-0.801,0.732l-0.818,0.291l0.738,0.119l0.76-0.227l1.188,0.08l0.192,0.561 c0,0,1.304,0.645,1.429,0.514c0.194-0.201,0.298-0.486,0.588-0.285c0.29,0.199,0.763,0.199,1.104,0.199 C43.574,37.252,44.073,37.584,44.061,36.76z M43.844,35.426c-0.146-0.078-0.355-0.193-0.244-0.34 c-0.095-0.154-0.306-0.047-0.453,0.117c-0.147,0.162-0.47-0.074-0.567,0.225c-0.099,0.299,0.394,0.439,0.462,0.303 c0,0,0.313-0.059,0.618,0.062C44.525,35.967,44.254,35.648,43.844,35.426z M45.63,36.363c-0.278-0.375-0.573-0.668-0.638-0.76 c-0.123-0.174,0.07-0.539-0.256-0.383c-0.19,0.342-0.008,0.475,0.326,0.784c0.231,0.22,0.133,0.382,0.285,0.519 C45.503,36.662,45.861,36.676,45.63,36.363z" fill="url(#_49)"/>
<linearGradient id="_50" gradientUnits="userSpaceOnUse" x1="38.67" y1="35.27" x2="38.67" y2="48.49">
<stop stop-color="#FFFFFF" offset="0.15"/>
<stop stop-color="#A7C1E5" offset="1"/>
</linearGradient>
<path d="M35.295,32.684c0.303,0.1,0.549-0.101,0.829-0.281c0.425,0.039,0.871-0.228,1.125-0.369 c-1.116,0.082-2.155,0.346-3.074,0.744c-0.13,0.098-0.278,0.201-0.458,0.311c0.042,0.088,0.184,0.109,0.481,0.016 C34.421,33.082,34.995,32.584,35.295,32.684z M31.822,34.469c0,0,0.332-0.359,0.4-0.453c0.008-0.012,0.021-0.037,0.031-0.061 c-0.18,0.156-0.352,0.314-0.506,0.482L31.822,34.469z M45.273,35.926c-0.092-0.221-0.207-0.436-0.334-0.645 c0.011,0.092-0.01,0.232,0.054,0.322C45.027,35.652,45.137,35.771,45.273,35.926z M45.219,39.258 c0.245-0.543,0.381-1.121,0.381-1.725c0-0.318-0.045-0.631-0.117-0.936c-0.049-0.017-0.098-0.041-0.135-0.074 c-0.154-0.137-0.055-0.299-0.287-0.519c-0.332-0.312-0.516-0.442-0.326-0.784c0.07-0.031,0.113-0.037,0.144-0.031 c-0.59-0.918-1.512-1.701-2.661-2.26c-0.097,0.022-0.17,0.039-0.197,0.039c-0.181,0-0.131-0.154-0.293-0.173 c-0.16-0.021-1.498-0.364-1.677-0.188c-0.18,0.183-0.884,0.365-1.044,0.388c-0.158,0.021,0.053,0.504,0.477,0.81 c-0.057,0.061-1.008,0.588-1.008,0.227s-0.187-0.623-0.477-0.73c-0.268,0.066-0.572,0.346-0.146,0.73 c0.264,0.24,0.002,0.271-0.019,0.342c-0.077,0.287,0.638,0.57,0.296,0.783c-0.32,0.029-0.605-0.029-0.66-0.061 c-0.503-0.283-0.617,0.838-0.617,0.838l0.549,0.271l-0.916,0.894c0,0-1.35,0.936-1.368,1.057c-0.021,0.119-0.599,1.67-0.398,2.131 c0.201,0.461,1.237,1.703,1.718,1.74c0.625,0.053,2.438-0.312,2.438-0.312c0.041,0.103,0.226,0.502,1.114,0.668 c0.018,0.002-0.098,0.246-0.166,0.519c2.4-0.426,4.351-1.687,5.246-3.336c-0.146-0.265-0.271-0.474-0.271-0.474l-0.638-0.971 l0.081-0.199L45.219,39.258z M40.45,33.223c-0.083-0.213,0.247-0.293,0.247-0.293s0.326,0.477,0.275,0.791 c-0.052,0.311-0.399,0.121-0.502,0.027C40.366,33.656,40.535,33.436,40.45,33.223z M43.432,37.211c-0.341,0-0.813,0-1.104-0.199 c-0.29-0.201-0.395,0.084-0.588,0.285c-0.125,0.131-1.428-0.514-1.428-0.514l-0.193-0.561l-1.189-0.08l-0.759,0.227l-0.739-0.119 l0.819-0.291c0,0,0.59-0.553,0.801-0.732c0.181-0.151,0.897-0.061,0.897-0.061l0.818,0.656c0,0-0.056,0.301-0.131,0.398 c0.299-0.021,0.522-0.404,0.522-0.404c-0.664-0.584-0.66-0.728-0.66-0.728l0.854,0.483l0.062,0.248c0,0,0.34,0.586,0.67,0.611 c0.14,0.01,0.022-0.551,0.022-0.551l0.175-0.023c0.343,0.795,1.555,0.715,1.776,0.9C44.073,37.584,43.574,37.252,43.432,37.211z M43.66,35.791c-0.307-0.119-0.618-0.061-0.618-0.061c-0.069,0.137-0.562-0.004-0.462-0.303c0.098-0.3,0.42-0.064,0.566-0.226 c0.148-0.164,0.358-0.271,0.455-0.117c-0.113,0.146,0.098,0.263,0.244,0.34C44.254,35.648,44.525,35.967,43.66,35.791z M36.247,32.602c0.112,0.139,0.299,0.268,0.43,0.242c0.13-0.025,0.429-0.166,0.429-0.166s-0.148-0.064-0.316-0.039 C36.62,32.664,36.379,32.539,36.247,32.602z" fill="url(#_50)"/>
</svg>