<?xml version="1.0" encoding="UTF-8"?>
<!DOCTYPE svg PUBLIC "-//W3C//DTD SVG 1.1 Tiny//EN" "http://www.w3.org/Graphics/SVG/1.1/DTD/svg11-tiny.dtd">
<svg width="84" height="58" viewBox="-1.803 -0.528 84 58">
<linearGradient id="_18" gradientUnits="userSpaceOnUse" x1="29.75" y1="28.57" x2="38.98" y2="46.76">
<stop stop-color="#A2C2DD" offset="0.1"/>
<stop stop-color="#6C83BB" offset="0.71"/>
<stop stop-color="#003D6D" offset="0.99"/>
</linearGradient>
<path fill="url(#_18)" d="M29.31,5.802L16.501,19.276l4.193,6.417l2.706-1.004l0.563,24.076l6.419,2.22l3.059-2.995 L33.314,3.989L29.31,5.802z"/>
<linearGradient id="_19" gradientUnits="userSpaceOnUse" x1="46.1" y1="33.35" x2="59.23" y2="59.21">
<stop stop-color="#A2C2DD" offset="0.1"/>
<stop stop-color="#6C83BB" offset="0.71"/>
<stop stop-color="#003D6D" offset="0.99"/>
</linearGradient>
<path fill="url(#_19)" d="M33.852,7.041l0.155,45.972l4.17-2.578c0,0,5.697-5.397,7.366-6.979 c0.085,1.731,0.253,5.155,0.253,5.155l20.977,6.572l1.806-1.906l-0.109-19.339l-6.968-8.967l-14.843-3.336l-2.151,0.717 c0,0,0.419,8.548,0.464,9.451c-0.384,0.148-0.688,0.267-1.093,0.424c0.013-2.36,0.14-25.643,0.14-25.643L37.05,5.24L33.852,7.041 z"/>
<path fill="#235487" d="M24.036,21.837c0,0,2.564,0.81,2.488,0.889l-5.493,2.112C21.111,24.759,22.623,23.249,24.036,21.837"/>
<linearGradient id="_20" gradientUnits="userSpaceOnUse" x1="31.23" y1="-3.23" x2="31.23" y2="45.83">
<stop stop-color="#FFFFFF" offset="0"/>
<stop stop-color="#A2C2DD" offset="0.35"/>
<stop stop-color="#6C83BB" offset="0.7"/>
<stop stop-color="#003D6D" offset="1"/>
</linearGradient>
<polygon fill="url(#_20)" points="29.725,6.369 32.619,5.06 32.743,47.684 30.185,50.189 "/>
<linearGradient id="_21" gradientUnits="userSpaceOnUse" x1="23.83" y1="3.81" x2="23.83" y2="43.32">
<stop stop-color="#FFFFFF" offset="0.05"/>
<stop stop-color="#A2C2DD" offset="1"/>
</linearGradient>
<path fill="url(#_21)" d="M29.725,6.369l0.536,43.819l-5.607-1.939l-0.617-26.412c0,0-2.925,2.922-3.006,2.999 l-3.634-5.498L29.725,6.369z"/>
<linearGradient id="_22" gradientUnits="userSpaceOnUse" x1="41.93" y1="-0.24" x2="41.93" y2="33.2">
<stop stop-color="#FFFFFF" offset="0"/>
<stop stop-color="#A2C2DD" offset="0.35"/>
<stop stop-color="#6C83BB" offset="0.7"/>
<stop stop-color="#003D6D" offset="1"/>
</linearGradient>
<polygon fill="url(#_22)" points="43.317,7.149 43.164,35.252 40.603,36.093 40.542,8.794 "/>
<linearGradient id="_23" gradientUnits="userSpaceOnUse" x1="42.1" y1="28.31" x2="51.49" y2="40.86">
<stop stop-color="#FFFFFF" offset="0.05"/>
<stop stop-color="#A2C2DD" offset="1"/>
</linearGradient>
<polygon fill="url(#_23)" points="43.624,33.065 46.924,31.784 50.991,37.318 47.712,38.8 "/>
<polygon fill="#235487" points="47.712,38.8 50.991,37.318 37.75,49.863 34.706,51.746 "/>
<linearGradient id="_24" gradientUnits="userSpaceOnUse" x1="41.13" y1="1.46" x2="41.13" y2="46.48">
<stop stop-color="#FFFFFF" offset="0.05"/>
<stop stop-color="#A2C2DD" offset="1"/>
</linearGradient>
<polygon fill="url(#_24)" points="40.563,8.755 40.603,36.093 43.624,33.065 47.712,38.8 34.706,51.746 34.555,7.436 "/>
<linearGradient id="_25" gradientUnits="userSpaceOnUse" x1="34.65" y1="6.51" x2="44.04" y2="8.38">
<stop stop-color="#FFFFFF" offset="0.05"/>
<stop stop-color="#A2C2DD" offset="1"/>
</linearGradient>
<polygon fill="url(#_25)" points="34.555,7.436 37.171,5.963 43.248,7.151 40.563,8.755 "/>
<linearGradient id="_26" gradientUnits="userSpaceOnUse" x1="49.87" y1="17.35" x2="58.98" y2="49.39">
<stop stop-color="#D6E4F3" offset="0"/>
<stop stop-color="#337CE5" offset="1"/>
</linearGradient>
<path fill="url(#_26)" d="M46.473,48.075l-1.238-25.24l16.397,3.661c1.625,2.025,3.343,4.509,4.895,6.745l0.038,21.13 L46.473,48.075z"/>
<linearGradient id="_27" gradientUnits="userSpaceOnUse" x1="67.71" y1="23.91" x2="66.9" y2="50.76">
<stop stop-color="#E6EEF4" offset="0"/>
<stop stop-color="#337CE5" offset="0.44"/>
<stop stop-color="#003D6D" offset="0.94"/>
</linearGradient>
<polygon fill="url(#_27)" points="66.567,54.371 66.376,33.593 67.759,34.228 67.879,52.986 "/>
<polygon fill="#CEDFF2" points="45.194,22.819 46.697,22.348 61.105,25.586 60.003,26.359 "/>
<linearGradient id="_28" gradientUnits="userSpaceOnUse" x1="80.09" y1="35.14" x2="43.15" y2="28.45">
<stop stop-color="#E6EEF4" offset="0"/>
<stop stop-color="#337CE5" offset="0.44"/>
<stop stop-color="#003D6D" offset="0.94"/>
</linearGradient>
<polygon fill="url(#_28)" points="63.215,33.207 63.215,32.159 49.005,28.39 49.027,29.218 "/>
<polygon fill="url(#_28)" points="63.217,36.286 49.115,32.283 49.137,33.058 63.217,37.325 "/>
<polygon fill="url(#_28)" points="63.217,40.358 49.227,36.274 49.25,37.118 63.219,41.42 "/>
<linearGradient id="_31" gradientUnits="userSpaceOnUse" x1="60.53" y1="24.58" x2="59.84" y2="38.76">
<stop stop-color="#E6EEF4" offset="0"/>
<stop stop-color="#337CE5" offset="0.44"/>
<stop stop-color="#003D6D" offset="0.94"/>
</linearGradient>
<polygon fill="url(#_31)" points="60.003,26.359 59.505,32.796 61.105,25.586 "/>
<linearGradient id="_32" gradientUnits="userSpaceOnUse" x1="56.18" y1="31.17" x2="70.18" y2="37.17">
<stop stop-color="#E6EEF4" offset="0"/>
<stop stop-color="#337CE5" offset="0.44"/>
<stop stop-color="#003D6D" offset="0.94"/>
</linearGradient>
<polygon fill="url(#_32)" points="60.323,32.382 58.955,34.31 67.755,35.089 67.755,34.167 "/>
<linearGradient id="_33" gradientUnits="userSpaceOnUse" x1="59.19" y1="22.27" x2="66.48" y2="40.57">
<stop stop-color="#E6EEF4" offset="0"/>
<stop stop-color="#337CE5" offset="0.44"/>
<stop stop-color="#003D6D" offset="0.94"/>
</linearGradient>
<polygon fill="url(#_33)" points="67.773,34.167 61.105,25.598 59.519,32.735 "/>
<path fill="#FFFFFF" d="M11.904,33.971c-2.773,0-6.577,0.658-7.54,6.354l-0.146,0.856c0,0,6.394,0,7.151,0 c0.229,0.412,0.57,1.027,0.787,1.423c-0.216,0.391-0.555,1.006-0.786,1.418c-0.758,0-7.15,0-7.15,0l0.145,0.858 c0.963,5.694,4.766,6.353,7.54,6.353c2.188,0,4.14-1.834,5.705-3.312c0.847-0.799,1.646-1.549,2.067-1.549h19.582l0.219-0.24 c0.42-0.463,1.395-1.728,1.418-3.5v-0.063c-0.021-1.772-0.998-3.037-1.418-3.498l-0.219-0.239H19.677 c-0.422,0-1.223-0.752-2.065-1.548C16.042,35.807,14.093,33.971,11.904,33.971z"/>
<linearGradient id="_34" gradientUnits="userSpaceOnUse" x1="10.57" y1="29.34" x2="31.68" y2="54.74">
<stop stop-color="#E6EEF4" offset="0"/>
<stop stop-color="#9646AC" offset="0.44"/>
<stop stop-color="#3D013F" offset="0.94"/>
</linearGradient>
<path fill="url(#_34)" d="M40.163,42.605c0-0.009,0.003-0.019,0.003-0.023h-0.005c-0.019-1.543-0.901-2.656-1.229-3.012 c-0.411,0-19.254,0-19.254,0c-0.717,0-1.494-0.734-2.573-1.748c-1.472-1.388-3.302-3.112-5.2-3.112 c-3.079,0-5.995,0.903-6.811,5.737c1.156,0,6.713,0,6.713,0L13,42.603l-1.193,2.154c0,0-5.557,0-6.713,0 c0.813,4.835,3.729,5.738,6.811,5.738c1.898,0,3.729-1.725,5.199-3.111c1.08-1.014,1.857-1.748,2.574-1.748 c0,0,18.842,0,19.254,0c0.324-0.354,1.211-1.469,1.229-3.012h0.004C40.166,42.616,40.163,42.61,40.163,42.605z"/>
</svg>