<?xml version="1.0" encoding="UTF-8"?>
<!DOCTYPE svg PUBLIC "-//W3C//DTD SVG 1.1 Tiny//EN" "http://www.w3.org/Graphics/SVG/1.1/DTD/svg11-tiny.dtd">
<svg width="32" height="22" viewBox="0 0 32 22">
<path d="M30,8.586l-2-2V1.994c0,0-11.036,0-11.869,0C15.72,1.527,14.373,0,14.373,0H6.3L4,2.61V16h12v6h10v-4h4 V8.586z M6,14c0-1.623,0-9.986,0-10.634C6.294,3.032,6.863,2.386,7.204,2c0.739,0,5.526,0,6.267,0 c0.411,0.467,1.758,1.994,1.758,1.994s9.109,0,10.771,0C26,4.61,26,5.417,26,6h-6v4h-4v4C13.664,14,7.36,14,6,14z M18,20 c0-1.439,0-6.561,0-8c1.022,0,2.963,0,4,0v2h2c0,1.43,0,4.79,0,6C22.688,20,19.313,20,18,20z M26,16v-3.414L23.414,10H22 c0-0.623,0-1.412,0-2c1.022,0,2.963,0,4,0v2h2c0,1.43,0,4.79,0,6C27.412,16,26.623,16,26,16z"/>
</svg>