<?xml version="1.0" encoding="UTF-8"?>
<!DOCTYPE svg PUBLIC "-//W3C//DTD SVG 1.1 Tiny//EN" "http://www.w3.org/Graphics/SVG/1.1/DTD/svg11-tiny.dtd">
<svg baseProfile="tiny" height="44" version="1.1" viewBox="0.105 -0.575 44 44" width="44" xmlns="http://www.w3.org/2000/svg" xmlns:xlink="http://www.w3.org/1999/xlink">
<g>
<rect fill="none" height="44" width="44" x="0.105" y="-0.575"/>
<g>
<g>
<linearGradient gradientUnits="userSpaceOnUse" id="XMLID_4_" x1="16.4463" x2="16.4463" y1="7.958" y2="34.125">
<stop offset="0" style="stop-color:#B2B2B2"/>
<stop offset="1" style="stop-color:#000000"/>
</linearGradient>
<path d="M19.705,8.752c-7.508,0-13.389,5.866-13.391,13.356c-0.006,3.543,1.351,6.855,3.821,9.328     c2.521,2.525,5.926,3.918,9.582,3.914h0.035c1.606,0,3.904-0.107,5.436-1.014c0.021-0.404,0.1-1.867,0.125-2.719     c-1.492,0.98-3.432,1.119-5.157,1.119h-0.265h-0.223c-6.168,0-10.645-4.381-10.645-10.42c0-6.488,4.497-11.195,10.693-11.195     c2.025,0,3.743,0.484,5.185,1.236l1.676-1.676C24.646,9.507,22.334,8.752,19.705,8.752z" fill="url(#XMLID_4_)"/>
<linearGradient gradientUnits="userSpaceOnUse" id="XMLID_5_" x1="22.6387" x2="22.6387" y1="7.958" y2="34.125">
<stop offset="0" style="stop-color:#B2B2B2"/>
<stop offset="1" style="stop-color:#000000"/>
</linearGradient>
<path d="M30.381,19.15c0.099,0.39,0.168,0.765,0.194,1.103c0.24,3.104-0.811,4.506-1.154,4.967     c-0.65,0.859-1.718,1.217-2.146,1.217h-0.149c-0.72,0-1.246-0.049-1.485-0.281l-0.063-0.061v-0.084l-0.005-3.173l-2.684,0.895     v1.79v0.086l-0.065,0.061c-0.82,0.764-1.914,1.186-3.081,1.186c-2.359-0.002-4.802-1.775-4.805-4.746     c0-2.962,2.441-4.732,4.803-4.732c0.319,0,0.631,0.038,0.936,0.1l0.296-0.889l0.15-0.447l0.334-0.334l0.624-0.624     c-0.925-0.308-1.772-0.396-2.375-0.396c-0.964,0-1.94,0.186-2.751,0.521c-2.84,1.182-4.604,3.791-4.604,6.807     c0,2.152,0.843,4.143,2.372,5.602c1.416,1.354,3.294,2.129,5.148,2.129c1.054,0,2.04-0.246,2.886-0.699l0.184-0.17l0.102-0.098     l0.125,0.064c1.078,0.539,1.658,0.539,2.973,0.539c0.656,0,2.342-0.143,3.843-1.461c1.374-1.217,2.948-3.15,2.945-7.375     c0-1.042-0.251-2.186-0.704-3.339L30.381,19.15z" fill="url(#XMLID_5_)"/>
</g>
<linearGradient gradientUnits="userSpaceOnUse" id="XMLID_6_" x1="29.6572" x2="29.6572" y1="7.958" y2="34.125">
<stop offset="0" style="stop-color:#B2B2B2"/>
<stop offset="1" style="stop-color:#000000"/>
</linearGradient>
<polygon fill="url(#XMLID_6_)" points="21.216,22.181 22.869,17.22 34.791,5.296 38.099,8.603 26.177,20.526   "/>
</g>
</g>
</svg>
