<?xml version="1.0" encoding="UTF-8"?>
<!DOCTYPE svg PUBLIC "-//W3C//DTD SVG 1.1 Tiny//EN" "http://www.w3.org/Graphics/SVG/1.1/DTD/svg11-tiny.dtd">
<svg baseProfile="tiny" height="72" version="1.1" viewBox="-0.015 -0.028 84 72" width="84" xmlns="http://www.w3.org/2000/svg" xmlns:xlink="http://www.w3.org/1999/xlink">
<g>
<linearGradient gradientUnits="userSpaceOnUse" id="XMLID_11_" x1="28.0641" x2="54.282" y1="12.1165" y2="65.8712">
<stop offset="0" style="stop-color:#A2C2DD"/>
<stop offset="0.1" style="stop-color:#A2C2DD"/>
<stop offset="0.7135" style="stop-color:#6C83BB"/>
<stop offset="0.9888" style="stop-color:#003D6D"/>
<stop offset="1" style="stop-color:#003D6D"/>
</linearGradient>
<path d="M18.526,16.768c0,0,0.092,4.218,0.113,5.191c-0.583,0.345-2.035,1.205-2.035,1.205l0.41,13.822   l1.834,0.64c0,0,0.078-0.056,0.133-0.096c0.053,2.398,0.144,6.561,0.163,7.379c-0.517,0.35-1.777,1.205-1.777,1.205l0.036,8.852   l0.587,0.25c0,0.849,0.149,1.698,0.444,2.521c1.234,3.447,4.571,5.64,9.651,7.029c4.656,1.274,10.438,1.029,14.31-0.44   c0.54,0.162,9.304,2.806,9.304,2.806l19.695-21.569l0.208-9.651c0,0-17.913-3.88-19.476-4.217c0-1.624,0-23.992,0-23.992   L41.395,6.321L18.526,16.768z" fill="url(#XMLID_11_)"/>
<g>
<linearGradient gradientUnits="userSpaceOnUse" id="XMLID_12_" x1="38.9337" x2="-2.2706" y1="25.8904" y2="50.8671">
<stop offset="0" style="stop-color:#FFFFFF"/>
<stop offset="0.35" style="stop-color:#A2C2DD"/>
<stop offset="0.7" style="stop-color:#6C83BB"/>
<stop offset="1" style="stop-color:#003D6D"/>
</linearGradient>
<polygon fill="url(#XMLID_12_)" points="30.73,50.999 30.73,20.165 19.625,17.457 20.302,48.29   "/>
<polygon fill="#496DA2" points="23.417,34.899 23.146,20.886 20.709,20.329 21.221,34.342   "/>
<polygon fill="#496DA2" points="27.661,31.468 27.525,21.925 25.088,21.368 25.464,30.912   "/>
<polygon fill="#496DA2" points="23.688,46.139 23.552,36.596 21.114,36.039 21.491,45.582   "/>
<linearGradient gradientUnits="userSpaceOnUse" id="XMLID_13_" x1="64.5319" x2="17.414" y1="29.8265" y2="29.8265">
<stop offset="0" style="stop-color:#FFFFFF"/>
<stop offset="0.35" style="stop-color:#A2C2DD"/>
<stop offset="0.7" style="stop-color:#6C83BB"/>
<stop offset="1" style="stop-color:#003D6D"/>
</linearGradient>
<polygon fill="url(#XMLID_13_)" points="51.045,8.654 30.73,20.165 30.73,50.999 51.045,33.122   "/>
<linearGradient gradientUnits="userSpaceOnUse" id="XMLID_14_" x1="28.569" x2="14.0743" y1="35.096" y2="24.2002">
<stop offset="0" style="stop-color:#E6EEF4"/>
<stop offset="0.1438" style="stop-color:#A2C3EE"/>
<stop offset="0.2855" style="stop-color:#669DE9"/>
<stop offset="0.3891" style="stop-color:#4185E6"/>
<stop offset="0.4438" style="stop-color:#337CE5"/>
<stop offset="0.4716" style="stop-color:#2F77DB"/>
<stop offset="0.6228" style="stop-color:#1B5EAC"/>
<stop offset="0.7563" style="stop-color:#0C4C8A"/>
<stop offset="0.866" style="stop-color:#034175"/>
<stop offset="0.9382" style="stop-color:#003D6D"/>
<stop offset="1" style="stop-color:#003D6D"/>
</linearGradient>
<polygon fill="url(#XMLID_14_)" points="22.417,21.712 18.369,24.15 18.676,36.418 22.74,33.528   "/>
<polygon fill="#CEDFF2" points="22.417,21.712 21.597,21.468 17.707,23.77 18.076,36.209 18.676,36.418 18.369,24.15   "/>
<linearGradient gradientUnits="userSpaceOnUse" id="XMLID_15_" x1="18.1329" x2="72.5595" y1="13.8001" y2="13.8001">
<stop offset="0" style="stop-color:#FFFFFF"/>
<stop offset="0.15" style="stop-color:#FFFFFF"/>
<stop offset="1" style="stop-color:#A2C2DD"/>
</linearGradient>
<polygon fill="url(#XMLID_15_)" points="19.625,17.457 41.565,7.435 51.045,8.654 30.73,20.165   "/>
</g>
<g>
<linearGradient gradientUnits="userSpaceOnUse" id="XMLID_16_" x1="15.9806" x2="106.1403" y1="42.7376" y2="42.7376">
<stop offset="0" style="stop-color:#FFFFFF"/>
<stop offset="0.15" style="stop-color:#FFFFFF"/>
<stop offset="1" style="stop-color:#A2C2DD"/>
</linearGradient>
<polygon fill="url(#XMLID_16_)" points="18.451,46.688 42.151,30.639 70.5,36.779 51.361,54.835   "/>
<linearGradient gradientUnits="userSpaceOnUse" id="XMLID_17_" x1="83.2057" x2="38.816" y1="51.3372" y2="51.3372">
<stop offset="0" style="stop-color:#FFFFFF"/>
<stop offset="0.35" style="stop-color:#A2C2DD"/>
<stop offset="0.7" style="stop-color:#6C83BB"/>
<stop offset="1" style="stop-color:#003D6D"/>
</linearGradient>
<polygon fill="url(#XMLID_17_)" points="70.5,36.779 51.361,54.835 51.361,65.896 70.321,45.13   "/>
<linearGradient gradientUnits="userSpaceOnUse" id="XMLID_18_" x1="58.319" x2="-35.5931" y1="56.2913" y2="56.2913">
<stop offset="0" style="stop-color:#FFFFFF"/>
<stop offset="0.35" style="stop-color:#A2C2DD"/>
<stop offset="0.7" style="stop-color:#6C83BB"/>
<stop offset="1" style="stop-color:#003D6D"/>
</linearGradient>
<polygon fill="url(#XMLID_18_)" points="51.361,65.896 51.361,54.835 18.451,46.688 18.451,55.964   "/>
<path d="M19.714,51.054c-0.944,1.299-1.43,2.708-1.43,4.125c0,0.722,0.127,1.446,0.381,2.155    c1.115,3.114,4.467,5.659,9.193,6.985c8.172,2.291,17.966,0.13,21.828-4.814c0.176-0.226,0.037-1.751,0.185-1.983L19.805,49.87    C19.752,49.94,19.765,50.984,19.714,51.054z" fill="#496DA2"/>
<linearGradient gradientUnits="userSpaceOnUse" id="XMLID_19_" x1="18.65" x2="49.4556" y1="57.6458" y2="57.6458">
<stop offset="0" style="stop-color:#FFFFFF"/>
<stop offset="0.5" style="stop-color:#8BBFC7"/>
<stop offset="1" style="stop-color:#FFFFFF"/>
</linearGradient>
<path d="M40.477,56.268c-1.776,2.037-5.742,2.863-9.109,1.921c-3.272-0.917-4.782-3.166-3.552-5.256    l-7.748-2.039c-3.585,4.767-0.146,10.384,7.766,12.6c7.984,2.24,17.489,0.168,21.234-4.627c0.075-0.094,0.128-0.19,0.195-0.286    L40.477,56.268z" fill="url(#XMLID_19_)"/>
<path d="M37.766,55.508c-1.07,1.141-3.259,1.577-5.127,1.053c-1.812-0.508-2.664-1.733-2.041-2.938l-2.762-0.729    c-1.271,2.1,0.24,4.371,3.532,5.295c3.387,0.948,7.387,0.108,9.145-1.957L37.766,55.508z" fill="#5DA6B1"/>
<linearGradient gradientUnits="userSpaceOnUse" id="XMLID_20_" x1="5.8766" x2="76.515" y1="42.3919" y2="42.3919">
<stop offset="0" style="stop-color:#FFFFFF"/>
<stop offset="0.15" style="stop-color:#FFFFFF"/>
<stop offset="1" style="stop-color:#A2C2DD"/>
</linearGradient>
<path d="M46.569,31.517l-22.31,16.492l2.693,0.668l21.82-16.683L46.569,31.517z M63.201,35.256    L42.589,52.616l2.63,0.65l20.01-17.571L63.201,35.256z" fill="url(#XMLID_20_)"/>
</g>
</g>
<rect fill="none" height="72" width="84" x="-0.015" y="-0.028"/>
</svg>
