<?xml version="1.0" encoding="UTF-8"?>
<!DOCTYPE svg PUBLIC "-//W3C//DTD SVG 1.1 Tiny//EN" "http://www.w3.org/Graphics/SVG/1.1/DTD/svg11-tiny.dtd">
<svg baseProfile="tiny" height="44.001" version="1.1" viewBox="-0.178 -0.186 44 44.001" width="44" xmlns="http://www.w3.org/2000/svg" xmlns:xlink="http://www.w3.org/1999/xlink">
<g>
<rect fill="none" height="44.001" width="44" x="-0.178" y="-0.186"/>
<g>
<g>
<g>
<linearGradient gradientUnits="userSpaceOnUse" id="XMLID_5_" x1="25.8223" x2="25.8223" y1="9.2915" y2="32.6252">
<stop offset="0" style="stop-color:#B2B2B2"/>
<stop offset="1" style="stop-color:#000000"/>
</linearGradient>
<path d="M14.822,16.814v18.001h22V16.814H14.822z M34.857,18.786c0,1.646,0,12.41,0,14.056      c-1.719,0-16.354,0-18.069,0c0-1.646,0-12.41,0-14.056C18.504,18.786,33.139,18.786,34.857,18.786z" fill="url(#XMLID_5_)"/>
</g>
<linearGradient gradientUnits="userSpaceOnUse" id="XMLID_6_" x1="25.8223" x2="25.8223" y1="9.291" y2="32.6251">
<stop offset="0" style="stop-color:#B2B2B2"/>
<stop offset="1" style="stop-color:#000000"/>
</linearGradient>
<path d="M33.313,27.458h-1.647l-4.944-4.947v-1.648h-1.648v1.648l-4.938,4.947h-1.803l3.348,3.31v-0.014     h8.336L33.313,27.458z M25.072,27.458h-3.299l3.299-3.299V27.458z M26.721,24.16l3.295,3.299h-3.295V24.16z" fill="url(#XMLID_6_)"/>
</g>
<g>
<linearGradient gradientUnits="userSpaceOnUse" id="XMLID_7_" x1="21.8223" x2="21.8223" y1="9.2915" y2="32.6245">
<stop offset="0" style="stop-color:#B2B2B2"/>
<stop offset="1" style="stop-color:#000000"/>
</linearGradient>
<path d="M32.822,12.814h-22v18.001l1.967,0.039c0-1.646,0-14.423,0-16.068c1.715,0,18.27,0,19.988,0     L32.822,12.814z" fill="url(#XMLID_7_)"/>
</g>
<g>
<linearGradient gradientUnits="userSpaceOnUse" id="XMLID_8_" x1="17.8223" x2="17.8223" y1="9.2915" y2="32.6245">
<stop offset="0" style="stop-color:#B2B2B2"/>
<stop offset="1" style="stop-color:#000000"/>
</linearGradient>
<path d="M28.822,8.814h-22v18.001l1.967,0.039c0-1.646,0-14.423,0-16.068c1.715,0,18.27,0,19.988,0     L28.822,8.814z" fill="url(#XMLID_8_)"/>
</g>
</g>
</g>
</svg>
