<?xml version="1.0" encoding="UTF-8"?>
<!DOCTYPE svg PUBLIC "-//W3C//DTD SVG 1.1 Tiny//EN" "http://www.w3.org/Graphics/SVG/1.1/DTD/svg11-tiny.dtd">
<svg width="13" height="13" viewBox="0 0 13 13">
<circle cx="10.326" cy="10.247" r="1.319"/>
<path d="M10.618,4.208L8.69,4.278c-0.377-0.443-1.361-1.44-2.66-1.543C5.15,2.666,4.32,3.015,3.562,3.772 C2.789,4.545,2.435,5.384,2.509,6.265c0.106,1.256,1.066,2.183,1.489,2.536l0.061,1.955l1.453,1.454l6.559-6.528L10.618,4.208z M5.046,10.329L4.983,8.291c0,0-1.386-1.002-1.478-2.115c-0.047-0.572,0.21-1.143,0.764-1.696 c0.548-0.547,1.097-0.792,1.678-0.748c1.173,0.09,2.265,1.563,2.265,1.563c0.001,0.001,2.002-0.072,2.002-0.072l0.445,0.452 l-5.146,5.122L5.046,10.329z"/>
</svg>