<?xml version="1.0" encoding="UTF-8"?>
<!DOCTYPE svg PUBLIC "-//W3C//DTD SVG 1.1 Tiny//EN" "http://www.w3.org/Graphics/SVG/1.1/DTD/svg11-tiny.dtd">
<svg baseProfile="tiny" height="32" version="1.1" viewBox="-1 -1 38 32" width="38" xmlns="http://www.w3.org/2000/svg" xmlns:xlink="http://www.w3.org/1999/xlink">
<g>
<rect fill="none" height="32" width="38" x="-1" y="-1"/>
<g>
<path d="M23.35,24.094H12.664v-2.479h3.727V9.924c-1.241,0.889-2.487,1.332-3.737,1.332V8.92c1.442-0.273,2.791-1.278,4.04-3.014    h3.158v15.707h3.498V24.094z"/>
<path d="M33.438,2.796c-1.589,0-2.883,1.291-2.883,2.879c0,0.646,0.221,1.232,0.577,1.713h-3.119    c0.357-0.479,0.577-1.067,0.577-1.713c0-1.59-1.296-2.879-2.881-2.879c-1.59,0-2.88,1.291-2.88,2.879    c0,1.59,1.29,2.883,2.88,2.883c0.06,0,7.648,0,7.729,0c1.589,0,2.88-1.293,2.88-2.883C36.319,4.087,35.028,2.796,33.438,2.796z     M25.707,7.386c-0.943,0-1.712-0.766-1.712-1.711c0-0.943,0.769-1.711,1.712-1.711c0.942,0,1.713,0.768,1.713,1.711    C27.42,6.62,26.651,7.386,25.707,7.386z M33.438,7.386c-0.944,0-1.713-0.766-1.713-1.711c0-0.943,0.769-1.711,1.713-1.711    c0.943,0,1.713,0.768,1.713,1.711C35.149,6.62,34.382,7.386,33.438,7.386z"/>
</g>
</g>
</svg>
