<?xml version="1.0" encoding="UTF-8" standalone="no"?>
<!DOCTYPE svg PUBLIC "-//W3C//DTD SVG 1.1 Tiny//EN" "http://www.w3.org/Graphics/SVG/1.1/DTD/svg11-tiny.dtd">
<svg xmlns="http://www.w3.org/2000/svg" xmlns:xlink="http://www.w3.org/1999/xlink" width="44" height="44" viewBox="0 0 44 44">
<rect fill="none" height="44" width="44"/>
<linearGradient id="SVGID_1" gradientUnits="userSpaceOnUse" x1="11.64" y1="-13.51" x2="11.64" y2="49.41">
<stop stop-color="#B2B2B2" offset="0"/>
<stop stop-color="#000000" offset="1"/>
</linearGradient>
<path d="M4.605,34.31c0-2.168,0.754-4.138,2.124-5.546c1.407-1.449,3.419-2.246,5.667-2.245h0.703v1.755 l-0.701,0.002c-3.602,0.007-6.026,2.433-6.035,6.036c0.028,4.055,1.848,5.874,5.899,5.895c4.063-0.013,4.618-2.498,4.647-4.662 c-0.006-1.396-0.923-2.912-2.924-2.913c-2.661,0.023-2.982,1.485-2.992,2.584c0.007,0.686,0.228,0.812,0.889,0.835 c0.209,0,1.063-0.188,1.063-0.188l0.409,1.714c0,0-1.135,0.231-1.498,0.231c-0.647-0.001-1.197-0.157-1.637-0.466 c-0.633-0.44-0.983-1.193-0.983-2.119c0-1.361,0.448-2.47,1.296-3.227c0.831-0.744,1.994-1.121,3.454-1.121 c3.034,0.005,4.675,2.414,4.681,4.678c-0.002,1.613-0.334,2.903-1.016,3.947c-0.733,1.127-2.265,2.47-5.395,2.464 c-2.643,0.002-4.641-0.74-5.936-2.206C5.183,38.468,4.605,36.635,4.605,34.31L4.605,34.31z" fill="url(#SVGID_1)"/>
<path d="M15.762,17.368L15.38,29.934l11.654-1.817l11.951-15.078L37.86,7.097l-4.743-4.633l-6.198-0.337 L15.762,17.368z M20.871,27.1c0.006-1.68-1.659-3.188-3.26-2.86c-0.015,0.004-0.027,0.021-0.04,0.021l0.089-5.4l3.928-0.262 l3.74,3.246l0.772,4.194C26.101,26.039,20.871,27.119,20.871,27.1z M24.034,17.467l9.107-12.262l2.447,2l-9.483,12.107 L24.034,17.467z M27.851,24.097l-0.656-3.214l9.146-11.79l0.68,3.362L27.851,24.097z M28.386,4.072l3.076,0.214l-9.166,12.152 l-3.427,0.189L28.386,4.072z" fill="url(#SVGID_1)"/>
</svg>