<?xml version="1.0" encoding="UTF-8"?>
<!DOCTYPE svg PUBLIC "-//W3C//DTD SVG 1.1 Tiny//EN" "http://www.w3.org/Graphics/SVG/1.1/DTD/svg11-tiny.dtd">
<svg width="16" height="16" viewBox="0 0 16 16">
<linearGradient id="_2" gradientUnits="userSpaceOnUse" x1="7.67" y1="4" x2="12" y2="9.17">
<stop stop-color="#CEE1EF" offset="0"/>
<stop stop-color="#A2C2DD" offset="0.5"/>
<stop stop-color="#496DA2" offset="1"/>
</linearGradient>
<path fill="url(#_2)" d="M4.498,2.976l1.646-0.873C6.134,2.108,8.138,1.296,9.852,1.741 c1.656,0.432,2.648,1.333,3.602,2.805c0.953,1.47,1.178,4.048,0.547,5.421s-1.052,1.695-1.514,2.131l-2.151,1.555 c1.738-3.027,1.381-6.348,0.315-7.819C9.584,4.362,7.371,2.426,4.498,2.976z"/>
<path fill="#CEE1EF" d="M12.857,8.652c0.164,3.301-2.211,5.867-5.305,5.734c-3.096-0.133-5.737-2.921-5.9-6.224 C1.488,4.861,3.863,2.294,6.958,2.426C10.053,2.563,12.693,5.352,12.857,8.652z"/>
<path fill="#496DA2" d="M7.389,14.147c-0.68-0.123-1.205-0.771-1.205-1.408c0-0.68,0.525-1.109,1.205-0.984 c0.666,0.121,1.189,0.756,1.189,1.42C8.578,13.813,8.039,14.266,7.389,14.147z"/>
<path fill="#496DA2" d="M6.432,10.467c0-1.205,0.594-1.789,1.416-2.404c0.48-0.352,0.947-0.648,0.947-1.355 c0-0.807-0.664-1.635-1.473-1.783c-0.934-0.17-1.541,0.439-1.557,1.342L3.939,5.934C3.91,4.018,5.398,2.733,7.338,3.086 c1.783,0.324,3.311,2.119,3.311,3.918c0,2.35-2.137,1.859-2.434,3.787L6.432,10.467z"/>
</svg>