<?xml version="1.0" encoding="UTF-8"?>
<!DOCTYPE svg PUBLIC "-//W3C//DTD SVG 1.1 Tiny//EN" "http://www.w3.org/Graphics/SVG/1.1/DTD/svg11-tiny.dtd">
<svg width="84" height="58" viewBox="-0.051 -0.38 84 58">
<linearGradient id="_10" gradientUnits="userSpaceOnUse" x1="28.31" y1="10" x2="63.07" y2="57.6">
<stop stop-color="#A2C2DD" offset="0.1"/>
<stop stop-color="#6C83BB" offset="0.71"/>
<stop stop-color="#003D6D" offset="0.99"/>
</linearGradient>
<path fill="url(#_10)" d="M17.812,28.672c0,13.31,10.829,24.139,24.137,24.139s24.135-10.829,24.135-24.139 c0-13.311-10.826-24.139-24.135-24.139S17.812,15.361,17.812,28.672z"/>
<linearGradient id="_11" gradientUnits="userSpaceOnUse" x1="42.01" y1="28.8" x2="52.94" y2="50.32">
<stop stop-color="#A2C2DD" offset="0.1"/>
<stop stop-color="#6C83BB" offset="0.71"/>
<stop stop-color="#003D6D" offset="0.99"/>
</linearGradient>
<path fill="url(#_11)" d="M17.812,28.672c0,13.31,10.829,24.139,24.137,24.139s24.135-10.829,24.135-24.139 c0-13.311-10.826-24.139-24.135-24.139S17.812,15.361,17.812,28.672z"/>
<radialGradient id="_12" gradientUnits="userSpaceOnUse" cx="46.64" cy="13.33" r="44.01">
<stop stop-color="#FFFFFF" offset="0"/>
<stop stop-color="#A2C2DD" offset="0.53"/>
<stop stop-color="#6C83BB" offset="0.87"/>
<stop stop-color="#003D6D" offset="1"/>
</radialGradient>
<circle fill="url(#_12)" cx="41.948" cy="28.672" r="23.786"/>
<radialGradient id="_13" gradientUnits="userSpaceOnUse" cx="43.56" cy="19.1" r="31.07">
<stop stop-color="#A2C2DD" offset="0.1"/>
<stop stop-color="#6C83BB" offset="0.71"/>
<stop stop-color="#003D6D" offset="0.99"/>
</radialGradient>
<path fill="url(#_13)" d="M32.359,8.189c0.098,0.201,0.424,0.25,1.109,0.033c0.505-0.045,1.826-1.191,2.516-0.961 c0.691,0.229,1.259-0.233,1.9-0.646c1.337,0.118,2.76-1.058,3.035-1.058s1.314,0.191,1.543-0.175c0,0,2.509,0.59,4.801,0.098 c-1.709-0.391-3.488-0.597-5.314-0.597c-2.353,0-4.625,0.343-6.771,0.979C34.578,6.44,33.935,7.225,32.359,8.189z"/>
<path fill="url(#_13)" d="M61.019,36.236l-0.776,1.23c0,0-1.163,0.365-1.208,0.733c-0.021,0.156-0.897,2.102-0.897,2.102 s-0.345,1.085,0.641,0.763C60.826,40.395,62.166,36.007,61.019,36.236z"/>
<path fill="url(#_13)" d="M23.982,38.656c0.336,0,1.201,0.105,1.306-0.209c0.007-0.137,0.128-3.391,0.128-3.391l1.296-1.723 v-1.373l-3.371-2.182l-1.462-1.585c0,0.006-0.567-1.71-1.098-2.195c-0.444-0.405-0.412-1.296-0.885-1.953 c-0.428-0.594-0.773-0.926-1.049-1.059c-2.174,8.805,1.197,16.288,4.354,20.326c0.452-0.646,0.811-1.366,1.087-2.005 C24.572,40.652,22.854,39.723,23.982,38.656z"/>
<path fill="url(#_13)" d="M26.574,11.39c0-0.427,0.702-0.64,0.702-0.64l0.092,0.336l0.64,0.274c0,0,0.764-0.824,0.916-1.038 c0.15-0.213,0.426-1.036,0.426-1.036l1.332-1.57c-2.988,1.611-5.594,3.844-7.643,6.525C23.86,13.591,26.574,11.817,26.574,11.39z"/>
<radialGradient id="_17" gradientUnits="userSpaceOnUse" cx="39.65" cy="9.49" r="5.26">
<stop stop-color="#A2C2DD" offset="0.1"/>
<stop stop-color="#6C83BB" offset="0.71"/>
<stop stop-color="#003D6D" offset="0.99"/>
</radialGradient>
<path fill="url(#_17)" d="M39.158,7.626c0.301-0.059,0.986-0.38,0.986-0.38s-0.343-0.146-0.73-0.088 c-0.385,0.059-0.943-0.232-1.244-0.087C38.427,7.392,38.857,7.684,39.158,7.626z"/>
<radialGradient id="_18" gradientUnits="userSpaceOnUse" cx="47.06" cy="15.39" r="28.33">
<stop stop-color="#E6EEF4" offset="0"/>
<stop stop-color="#4A9900" offset="0.44"/>
<stop stop-color="#0E4E58" offset="0.94"/>
</radialGradient>
<path fill="url(#_18)" d="M52.902,7.552c-0.731,0.205-1.333,0.361-1.475,0.361c-0.414,0-0.303-0.351-0.671-0.396 c-0.37-0.046-3.438-0.839-3.851-0.426c-0.414,0.415-2.031,0.837-2.4,0.884c-0.366,0.046,0.122,1.159,1.098,1.86 c-0.135,0.139-2.318,1.346-2.318,0.519s-0.426-1.434-1.097-1.678c-0.61,0.152-1.312,0.792-0.336,1.678 c0.607,0.55,0.005,0.625-0.038,0.783c-0.18,0.666,1.461,1.313,0.678,1.803c-0.737,0.065-1.393-0.07-1.516-0.139 c-1.157-0.649-1.419,1.922-1.419,1.922l1.263,0.625l-2.108,2.052c0,0-3.095,2.147-3.142,2.424 c-0.047,0.275-1.374,3.837-0.914,4.896c0.459,1.058,2.842,3.91,3.942,4c1.44,0.118,5.603-0.714,5.603-0.714 c0.092,0.231,0.516,1.153,2.561,1.534c0.073,0.013-0.882,1.842-0.32,2.629c1.221,1.709,1.83,3.47,1.16,4.263 c-1.602,2.401-0.373,2.585,0.015,3.843c0.14,0.368-0.812,3.654,2.349,4.545c1.135,0.098,1.728-0.082,2.692-1.324 c0.278-0.229,1.901-1.888,2.974-2.241c0.352-0.023-0.337-0.97,0.365-1.968c0.755-0.297,2.791-1.67,2.791-1.67 c0.091-2.012-0.992-4.498,1.028-5.924c1.304-1.326,1.487-1.167,2.316-3.19c0.229-0.597,1.018-2.733-0.365-2.226 c-0.915,0.334-1.144,0.32-1.435,0.228c-0.082-0.748-0.243-1.052-1.066-1.783c-0.428-1.006-1.463-2.746-1.463-2.746l-1.465-2.226 l0.183-0.458l3.171,4.315c0.291,0.838,0.488,1.226,0.717,2.211c1.811-0.438,3.375-2.799,2.643-4.72 c-0.034-0.036-0.484,0.056-1.148,0.008c-1.027-0.748-1.645-2.329-1.645-2.329l2.332,1.962l1.143,0.092l0.723,1.434 c0.205,0.133,0.344,0.223,0.344,0.223s0.047,0.006,0.125,0.009C63.18,15.994,58.754,10.593,52.902,7.552z M47.826,8.498 c-0.192-0.489,0.564-0.672,0.564-0.672s0.752,1.093,0.631,1.813c-0.117,0.715-0.914,0.277-1.154,0.063 C47.632,9.491,48.017,8.987,47.826,8.498z M54.67,17.659c-0.781,0-1.867-0.002-2.535-0.461c-0.665-0.46-0.903,0.197-1.348,0.658 c-0.287,0.299-3.281-1.182-3.281-1.182l-0.443-1.289l-2.73-0.183l-1.744,0.519l-1.697-0.267l1.883-0.672 c0,0,1.354-1.271,1.84-1.685c0.411-0.351,2.058-0.137,2.058-0.137l1.883,1.507c0,0-0.13,0.689-0.303,0.917 c0.687-0.047,1.202-0.929,1.202-0.929c-1.528-1.342-1.519-1.668-1.519-1.668l1.963,1.109l0.142,0.571c0,0,0.783,1.347,1.536,1.403 c0.321,0.024,0.058-1.266,0.058-1.266l0.4-0.056c0.788,1.827,3.571,1.645,4.08,2.072C56.145,18.514,54.997,17.751,54.67,17.659z M55.192,14.398c-0.7-0.274-1.421-0.139-1.421-0.139c-0.158,0.311-1.285-0.009-1.06-0.695c0.226-0.687,0.965-0.145,1.303-0.518 c0.341-0.375,0.821-0.623,1.042-0.27c-0.256,0.339,0.225,0.604,0.561,0.785C56.559,14.068,57.178,14.798,55.192,14.398z M59.07,16.078c-0.354-0.314-0.125-0.687-0.658-1.186c-0.766-0.713-1.186-1.022-0.744-1.804c0.748-0.357,0.304,0.478,0.586,0.876 c0.15,0.211,0.824,0.885,1.464,1.748C60.25,16.429,59.424,16.392,59.07,16.078z"/>
</svg>