<?xml version="1.0" encoding="UTF-8"?>
<!DOCTYPE svg PUBLIC "-//W3C//DTD SVG 1.1 Tiny//EN" "http://www.w3.org/Graphics/SVG/1.1/DTD/svg11-tiny.dtd">
<svg width="13" height="13" viewBox="0 0 13 13">
<polygon fill="#A2C2DD" points="8.284,6.814 8.278,6.811 8.289,6.814 "/>
<polygon fill="#496DA2" points="5.584,12.905 3.97,12.84 4.003,8.59 5.617,8.647 "/>
<polygon fill="#CEE1EF" points="0.156,8.441 6.658,1.549 8.273,1.615 1.771,8.505 "/>
<circle fill="#496DA2" cx="8.482" cy="5.604" r="0.905"/>
<path fill="#A2C2DD" d="M8.273,1.615l3.816,4.397l-6.505,6.893l0.033-4.258L4.003,8.59L1.771,8.505L8.273,1.615z M7.982,6.217 C8.016,6.254,8.051,6.282,8.09,6.31c0.03,0.021,0.06,0.043,0.093,0.061C8.216,6.389,8.25,6.401,8.287,6.415 c0.035,0.01,0.071,0.018,0.108,0.028c0.032,0.005,0.063,0.01,0.094,0.012c0.002-0.001,0.004,0.004,0.006,0.004 c0.002,0,0.004,0,0.005-0.001c0.027-0.002,0.055-0.007,0.082-0.011c0.025-0.001,0.05-0.002,0.075-0.004 C8.665,6.44,8.673,6.439,8.682,6.438c0.007-0.003,0.013-0.004,0.021-0.011c0.033-0.01,0.066-0.02,0.097-0.032 C8.81,6.393,8.821,6.392,8.833,6.385C8.854,6.372,8.87,6.357,8.891,6.344c0.042-0.025,0.084-0.049,0.121-0.083 c0.001-0.002,0.003-0.006,0.006-0.005C9.074,6.2,9.123,6.133,9.162,6.06c0.015-0.023,0.021-0.049,0.034-0.074 c0.025-0.055,0.045-0.109,0.059-0.17c0.002-0.014,0.002-0.026,0.005-0.04C9.268,5.725,9.28,5.681,9.28,5.629l0.001-0.004 c0-0.04-0.005-0.079-0.01-0.117c-0.001-0.014,0-0.027-0.002-0.04C9.266,5.456,9.264,5.443,9.262,5.434 C9.259,5.42,9.255,5.412,9.252,5.397C9.243,5.362,9.236,5.325,9.223,5.292l0-0.002c0-0.002-0.003-0.009-0.004-0.012 C9.207,5.245,9.189,5.216,9.173,5.185C9.169,5.174,9.166,5.167,9.162,5.157c-0.01-0.017-0.02-0.032-0.031-0.047 C9.121,5.093,9.11,5.081,9.099,5.064C9.093,5.056,9.087,5.047,9.081,5.039C9.06,5.013,9.038,4.986,9.016,4.967 C8.998,4.946,8.981,4.934,8.964,4.916C8.938,4.896,8.911,4.873,8.883,4.857C8.864,4.845,8.848,4.831,8.827,4.82 c-0.031-0.016-0.066-0.028-0.1-0.041C8.71,4.773,8.692,4.764,8.674,4.76C8.62,4.742,8.565,4.733,8.508,4.731 c-0.12-0.005-0.232,0.024-0.333,0.071c-0.099,0.05-0.179,0.125-0.25,0.212C7.894,5.052,7.864,5.087,7.84,5.13 C7.821,5.16,7.809,5.197,7.795,5.234c-0.014,0.032-0.031,0.063-0.042,0.1C7.745,5.368,7.745,5.405,7.74,5.443 C7.733,5.482,7.722,5.52,7.722,5.562c0,0.002-0.001,0.005-0.001,0.007c0,0.05,0.006,0.098,0.013,0.144 C7.763,5.907,7.853,6.084,7.982,6.217z"/>
<path fill="#496DA2" d="M8.84,2.589c0.323-0.52,0.699-0.813,1.12-0.881c0.256-0.037,0.65-0.005,1.084,0.372 c0.435,0.377,0.559,0.797,0.584,1.079c0.044,0.471-0.123,0.947-0.5,1.417C10.79,5,8.813,6.225,8.387,5.852 C7.961,5.479,8.548,3.054,8.84,2.589z M10.342,3.806c0.172-0.217,0.264-0.42,0.251-0.553c-0.008-0.088-0.07-0.179-0.181-0.28 c-0.111-0.095-0.208-0.138-0.285-0.127c-0.121,0.021-0.276,0.17-0.425,0.407C9.63,3.385,9.521,3.842,9.417,4.386 C9.867,4.146,10.244,3.915,10.342,3.806z"/>
<path fill="#496DA2" d="M10.445,3.739c-0.133,0.188-0.217,0.16-0.217,0.16L9.68,3.298c0,0,0.034-0.135,0.118-0.241 c0.14-0.128,0.129-0.088,0.129-0.088s0.47-2.228,0.414-2.703l1.031-0.125c0.085,0.703-0.194,1.591-0.527,2.336 c0.572-0.54,1.28-1.052,1.916-1.129l0.139,1.145c-0.461,0.056-2.351,0.946-2.374,1.045"/>
</svg>