<?xml version="1.0" encoding="UTF-8"?>
<!DOCTYPE svg PUBLIC "-//W3C//DTD SVG 1.1 Tiny//EN" "http://www.w3.org/Graphics/SVG/1.1/DTD/svg11-tiny.dtd">
<svg width="12" height="200" viewBox="-0.5 -0.03 12 200">
<path fill-opacity="0.7" fill="#003184" d="M-0.5,91.431v73.125c0,2.91,2.804,5.414,6,5.414s6-2.504,6-5.414V91.431 c0-1.461-0.681-2.852-1.915-3.912C8.439,86.534,6.951,85.97,5.5,85.97C2.304,85.97-0.5,88.521-0.5,91.431z"/>
<linearGradient id="_3" gradientUnits="userSpaceOnUse" x1="5.5" y1="86.97" x2="5.5" y2="168.97">
<stop stop-color="#DEE6F1" offset="0"/>
<stop stop-color="#7579D0" offset="1"/>
</linearGradient>
<path fill="url(#_3)" d="M5.5,168.97c-2.484,0-5-1.951-5-4.414V91.431c0-2.463,2.516-4.461,5-4.461l0,0 c2.487,0,5,1.998,5,4.461v73.125C10.5,167.019,7.987,168.97,5.5,168.97L5.5,168.97z"/>
<linearGradient id="_4" gradientUnits="userSpaceOnUse" x1="5.5" y1="86.97" x2="5.5" y2="128.32">
<stop stop-color="#FFFFFF" offset="0"/>
<stop stop-color="#CEDFF2" offset="1"/>
</linearGradient>
<path fill="url(#_4)" d="M5.5,86.97c-2.484,0-5,1.998-5,4.461v36.885h1V91.845c0-1.916,2.067-3.422,4-3.422 c1.935,0,4,1.506,4,3.422v36.471h1V91.431C10.5,88.968,7.987,86.97,5.5,86.97z"/>
<path fill="#CADCEC" d="M9.5,164.548c0,1.916-2.065,3.422-4,3.422c-1.933,0-4-1.506-4-3.422v-36.279h-1v36.287 c0,2.463,2.516,4.414,5,4.414c2.487,0,5-1.951,5-4.414v-36.287h-1V164.548z"/>
</svg>