<?xml version="1.0" encoding="UTF-8"?>
<!DOCTYPE svg PUBLIC "-//W3C//DTD SVG 1.1 Tiny//EN" "http://www.w3.org/Graphics/SVG/1.1/DTD/svg11-tiny.dtd">
<svg baseProfile="tiny" height="32" version="1.1" viewBox="0 0 44 32" width="44" xmlns="http://www.w3.org/2000/svg" xmlns:xlink="http://www.w3.org/1999/xlink">
<g>
<g>
<path d="M16.282,8.507c-0.809-0.597-1.858-0.894-3.146-0.894c-1.288,0-2.339,0.297-3.151,0.894c-0.813,0.594-1.378,1.475-1.7,2.64    c-0.321,1.164-0.483,2.839-0.483,5.025c0,2.208,0.169,3.896,0.507,5.061c0.336,1.164,0.903,2.037,1.699,2.617    c0.799,0.58,1.841,0.869,3.129,0.869c1.28,0,2.315-0.283,3.104-0.848c0.791-0.564,1.357-1.438,1.703-2.617    c0.343-1.18,0.518-2.874,0.518-5.082c0-2.187-0.164-3.861-0.483-5.025C17.654,9.981,17.091,9.101,16.282,8.507z M14.923,21.287    c-0.271,0.828-0.864,1.24-1.786,1.24c-0.921,0-1.519-0.412-1.791-1.24c-0.274-0.826-0.411-2.532-0.411-5.115    c0-2.591,0.137-4.299,0.411-5.127c0.272-0.826,0.87-1.241,1.791-1.241c0.922,0,1.516,0.415,1.786,1.241    c0.27,0.828,0.404,2.536,0.404,5.127C15.327,18.755,15.192,20.461,14.923,21.287z"/>
<path d="M30.988,10.474c0.77,0,1.412-0.345,1.412-0.817c0-0.471-0.644-0.854-1.412-0.854c-0.814,0-1.418,0.385-1.418,0.854    C29.57,10.129,30.174,10.474,30.988,10.474z"/>
<path d="M33.561,9.357c-0.084-0.086-0.084,0-0.215,0c0,0,0,0.173,0.131,0.173c1.283,1.328,1.111,3.516-1.633,4.544    c-1.587-0.472-1.501-2.357,0.088-2.528c0.127,0,0.127,0,0.127-0.13c0-0.086,0-0.172-0.127-0.172    c-1.416-0.472-4.332,0.473-3.858,2.745c-2.272-0.943-2.058-3.516,0.298-4.718c0.087-0.086,0.087-0.086,0-0.215    c0-0.086-0.084-0.086-0.084-0.086c-1.887,0.56-3.217,1.716-3.217,3.045c0,1.888,2.359,3.389,5.361,3.389    c3.045,0,5.485-1.501,5.485-3.389C35.917,10.858,34.891,9.829,33.561,9.357z"/>
<g>
<path d="M33.816,20.555c0,0,0,0.893,0,1.625c-1.215,0-5.41,0-6.625,0c0-0.697,0-1.514,0-1.514H25.49v3.213h10.025v-3.324H33.816z     "/>
</g>
</g>
<g>
<rect fill="none" height="32" width="44"/>
</g>
</g>
</svg>
