<?xml version="1.0" encoding="UTF-8"?>
<!DOCTYPE svg PUBLIC "-//W3C//DTD SVG 1.1 Tiny//EN" "http://www.w3.org/Graphics/SVG/1.1/DTD/svg11-tiny.dtd">
<svg width="16" height="16" viewBox="0 0 16 16">
<polygon fill="#A2C2DD" points="10.533,14.414 4.599,12.521 6.349,8.896 10.508,9.636 "/>
<polygon fill="#496DA2" points="10.533,14.414 13.326,12.673 11.536,8.021 10.416,9.359 "/>
<path fill="#496DA2" d="M9.003,8.022C6.244,9.085,3.605,9.177,2.419,8.365c1.809,2.125,4.871,2.885,7.555,1.851 c2.644-1.019,4.208-3.735,4.177-6.479C13.72,5.105,11.67,6.996,9.003,8.022z"/>
<linearGradient id="_2" gradientUnits="userSpaceOnUse" x1="7.94" y1="9.51" x2="7.98" y2="3.97">
<stop stop-color="#CEE1EF" offset="0"/>
<stop stop-color="#A2C2DD" offset="1"/>
</linearGradient>
<path fill="url(#_2)" d="M14.077,2.978c0.573,1.486-1.7,3.744-5.074,5.044c-3.377,1.3-6.576,1.15-7.147-0.335 c-0.572-1.486,1.7-3.744,5.075-5.044C10.306,1.343,13.506,1.493,14.077,2.978z"/>
<polygon fill="#496DA2" points="6.523,5.959 8.874,6.287 5.485,1.577 "/>
<polygon fill="#CEE1EF" points="5.485,1.577 8.874,6.287 9.629,4.967 "/>
</svg>