<?xml version="1.0" encoding="UTF-8"?>
<!DOCTYPE svg PUBLIC "-//W3C//DTD SVG 1.1 Tiny//EN" "http://www.w3.org/Graphics/SVG/1.1/DTD/svg11-tiny.dtd">
<svg width="50" height="46" viewBox="0 0 50 46">
<linearGradient id="_10" gradientUnits="userSpaceOnUse" x1="24.79" y1="21.99" x2="32.19" y2="36.57">
<stop stop-color="#A2C2DD" offset="0.1"/>
<stop stop-color="#6C83BB" offset="0.71"/>
<stop stop-color="#003D6D" offset="0.99"/>
</linearGradient>
<path fill="url(#_10)" d="M24.047,4.013c-5.985,6.107-13.718,16.181-16.746,26.754c-0.075,1.968,0.353,5.439,1.378,7.039 c1.109,1.616,2.672,3.772,6.368,5.785l2.074,0.522c5.886-2.941,8.719-9.581,8.719-9.581c-1.396-3.235-3.039-5.844-4.6-7.544 c0.691-1.044,3.893-6.16,4.986-7.845c1.937,0.195,7.138,0.906,7.138,0.906c5.278-2.774,8.174-9.378,8.818-11.186 c-1.562-4.005-3.645-5.901-6.901-7.18c-0.826-0.241-1.91-0.491-2.773-0.6C28.496,1.694,25.726,2.944,24.047,4.013z"/>
<linearGradient id="_11" gradientUnits="userSpaceOnUse" x1="21.27" y1="33.9" x2="17.55" y2="27.9">
<stop stop-color="#45B595" offset="0"/>
<stop stop-color="#3C977B" offset="1"/>
</linearGradient>
<path fill="url(#_11)" d="M23.577,33.704c0.319-0.367-3.81-7.281-3.81-7.281l-3.401,4.624 C16.366,31.047,23.257,34.068,23.577,33.704z"/>
<linearGradient id="_12" gradientUnits="userSpaceOnUse" x1="35.47" y1="11.97" x2="29.53" y2="1.65">
<stop stop-color="#C7F9D4" offset="0"/>
<stop stop-color="#BAF1CD" offset="0.43"/>
<stop stop-color="#ADEAC7" offset="1"/>
</linearGradient>
<path fill="url(#_12)" d="M32.514,1.793c-4.377,0.53-8.01,2.773-8.01,2.773c2.092,3.053,2.414,4.482,2.414,4.482 L39.691,8.45C38.354,2.456,34.499,2.354,32.514,1.793z"/>
<linearGradient id="_13" gradientUnits="userSpaceOnUse" x1="38.26" y1="7.66" x2="35.71" y2="2.82">
<stop stop-color="#7ACCA5" offset="0"/>
<stop stop-color="#ADEAC7" offset="1"/>
</linearGradient>
<path fill="url(#_13)" d="M39.51,8.364c-1.865-4.195-4.613-5.599-6.996-6.571c0,0,2.047,0.324,2.521,0.539 c1.733,0.785,4.646,1.943,6.418,6.576C41.452,8.908,39.501,8.375,39.51,8.364z"/>
<linearGradient id="_14" gradientUnits="userSpaceOnUse" x1="9.78" y1="34.88" x2="25.95" y2="1.96">
<stop stop-color="#45B595" offset="0"/>
<stop stop-color="#C7F9D4" offset="1"/>
</linearGradient>
<path fill="url(#_14)" d="M24.504,4.566c0.859-0.06,2.694,1.361,2.67,4.041c-6.779,6.816-14.939,18.559-18.242,28.26 c-1-2.934-0.933-5.926-0.933-5.926C9.959,23.154,17.079,11.909,24.504,4.566z"/>
<linearGradient id="_15" gradientUnits="userSpaceOnUse" x1="42.03" y1="8.63" x2="28.65" y2="21.83">
<stop stop-color="#45B595" offset="0"/>
<stop stop-color="#3C977B" offset="1"/>
</linearGradient>
<path fill="url(#_15)" d="M39.51,8.364c-2.427,5.522-4.838,8.266-8.455,10.629l2.211,0.336 c2.619-1.226,6.629-5.757,8.188-10.421C40.811,8.657,39.51,8.364,39.51,8.364z"/>
<linearGradient id="_16" gradientUnits="userSpaceOnUse" x1="23.8" y1="33.23" x2="21.05" y2="28.44">
<stop stop-color="#3C977B" offset="0"/>
<stop stop-color="#2F6F5C" offset="1"/>
</linearGradient>
<path fill="url(#_16)" d="M25.098,34.521c-1.338-3.179-3.881-7.035-5.438-8.03l-0.004,0.878 c1.308,1.568,2.797,3.699,3.871,6.285L25.098,34.521z"/>
<linearGradient id="_17" gradientUnits="userSpaceOnUse" x1="24.5" y1="-11.01" x2="24.25" y2="16.51">
<stop stop-color="#ADEAC7" offset="0"/>
<stop stop-color="#45B595" offset="1"/>
</linearGradient>
<path fill="url(#_17)" d="M39.51,8.364c-4.048-1.214-9.865-0.688-12.336,0.243c-7.855,7.578-16.373,20.778-18.287,28.22 c0,0,2.086,3.937,6.348,6.1c4.016-2.094,6.804-5.665,8.308-9.269c-1.478-0.824-5.785-3.252-5.785-3.252 c2.538-2.725,4.034-5.705,8.134-11.993c1.979,0.172,5.166,0.581,5.166,0.581C35.172,16.471,38.104,12.253,39.51,8.364z"/>
<linearGradient id="_18" gradientUnits="userSpaceOnUse" x1="17.12" y1="40.3" x2="23.91" y2="36.53">
<stop stop-color="#45B595" offset="0"/>
<stop stop-color="#3C977B" offset="1"/>
</linearGradient>
<path fill="url(#_18)" d="M23.527,33.652c0,0-4.123,7.385-8.293,9.272l1.834,0.45c3.345-1.422,6.933-6.213,8.029-8.855 L23.527,33.652z"/>
</svg>