<?xml version="1.0" encoding="UTF-8"?>
<!DOCTYPE svg PUBLIC "-//W3C//DTD SVG 1.1 Tiny//EN" "http://www.w3.org/Graphics/SVG/1.1/DTD/svg11-tiny.dtd">
<svg width="352" height="126" viewBox="-0.604 0.132 352 126">
<g fill-opacity="0.7" stroke-opacity="0.7">
<path fill-opacity="0.01" fill="#656B6B" d="M22.396,1.132c0,0,0,8.344,0,10.009c-11.037,0.06-20,9.048-20,20.101v65.775 c0,10.312,7.691,18.869,17.908,19.982c0.016,0.004,0.467,0.008,2.098,0.13l303.888,0.003c12.189,0,22.106-9.921,22.106-22.115 V31.241c0-5.377-2.094-10.43-5.896-14.228c-3.799-3.794-8.846-5.879-14.214-5.872H42.013l-9.992-10.01H22.396z"/>
<path fill-opacity="0.03" fill="#656B6B" d="M23.396,2.132c0,0,0,8.318,0,9.998c-0.445,0-0.894,0-0.894,0 c-10.535,0-19.106,8.573-19.106,19.111v65.775c0,9.846,7.374,18.021,17.152,19.016c0.002,0.001,1.904,0.098,1.904,0.098 l303.837,0.002c11.638,0,21.106-9.473,21.106-21.115V31.241c0-5.109-1.99-9.911-5.604-13.52c-3.608-3.604-8.404-5.586-13.506-5.58 H41.599l-9.953-10.01H23.396z"/>
<path fill-opacity="0.05" fill="#656B6B" d="M24.396,3.132c0,0,0,8.318,0,9.998c-0.856,0-1.894,0-1.894,0 c-9.983,0-18.106,8.125-18.106,18.111v65.775c0,9.33,6.988,17.078,16.254,18.021c0.005,0,1.853,0.094,1.853,0.094h303.787 c11.087,0,20.106-9.023,20.106-20.115V31.241c0-4.842-1.886-9.393-5.31-12.813c-3.42-3.416-7.965-5.293-12.798-5.287H41.185 L31.146,3.132H24.396z"/>
<path fill-opacity="0.07" fill="#656B6B" d="M328.289,14.142H40.771l-10-10.01h-5.375v9.998h-2.894c-9.447,0-17.106,7.659-17.106,17.111 v65.775c0,8.859,6.73,16.148,15.355,17.026c0.576,0.056,1.16,0.089,1.751,0.089h303.787c10.535,0,19.106-8.575,19.106-19.115 V31.241C345.396,21.789,337.737,14.13,328.289,14.142z"/>
<path fill-opacity="0.11" fill="#656B6B" d="M327.289,15.132H40.396l-10-10h-5v8.998h-1.894c-9.447,0-17.106,7.659-17.106,17.111v64.775 c0,8.859,6.73,16.148,15.355,17.026c0.576,0.056,1.16,0.089,1.751,0.089h302.787c9.983,0,18.106-8.127,18.106-18.115V31.241 C344.396,21.789,336.737,15.12,327.289,15.132z"/>
<path fill="#FFFFFF" d="M326.289,14.132H39.395l-12-12h-1.999V14.12h-2.894c-9.447,0-17.106,7.659-17.106,17.111v63.785 c0,9.45,7.659,17.115,17.106,17.115h303.787c9.448,0,17.106-7.665,17.106-17.115V31.231 C343.396,21.779,335.737,14.12,326.289,14.132z"/>
</g>
</svg>