<?xml version="1.0" encoding="utf-8"?>
<!-- Generator: Adobe Illustrator 13.0.2, SVG Export Plug-In . SVG Version: 6.00 Build 14948)  -->
<!DOCTYPE svg PUBLIC "-//W3C//DTD SVG 1.1//EN" "http://www.w3.org/Graphics/SVG/1.1/DTD/svg11.dtd">
<svg version="1.1" id="Layer_1" xmlns="http://www.w3.org/2000/svg" xmlns:xlink="http://www.w3.org/1999/xlink" x="0px" y="0px"
	 width="44.316px" height="16.235px" viewBox="0 -3.7 44.316 16.235" enable-background="new 0 -3.7 44.316 16.235"
	 xml:space="preserve">
<path d="M20.443,0.74h-1.414l1.229,1.25c-2.567,0.458-4.591,2.53-5.022,5.147L8.947,0.74H7.533l8.01,8.141H22V2.322L20.443,0.74z
	 M16.275,7.863c0.154-2.59,2.18-4.655,4.725-4.824v3.066c-0.01,0-0.018-0.011-0.027-0.011c-0.947,0-1.715,0.78-1.715,1.744
	c0,0.009,0.008,0.017,0.008,0.024H16.275z"/>
<g>
	<path d="M28.519,0.735l-3.14,8.141h1.547l0.549-1.628h2.691l0.572,1.628h1.547l-3.156-8.141H28.519z M27.873,6.162l0.951-2.968
		l0.938,2.968H27.873z"/>
	<path d="M37.486,3.623c-0.516-0.541-1.195-0.811-2.037-0.811c-0.424,0-1.172,0-1.172,0V0.74h-1.345v8.141h0.759
		c0,0,1.143,0,1.678,0c0.889,0,1.593-0.285,2.113-0.855c0.52-0.569,0.778-1.344,0.778-2.324C38.262,4.857,38.003,4.164,37.486,3.623
		z M36.464,7.252c-0.272,0.313-0.733,0.469-1.384,0.469c-0.338,0-0.803,0-0.803,0v-3.75c0,0,0.512,0,0.91,0
		c1.122,0,1.684,0.593,1.684,1.779C36.871,6.439,36.734,6.939,36.464,7.252z"/>
	<path d="M43.477,7.256c-0.379,0.333-0.816,0.5-1.314,0.5c-1.148,0-1.724-0.604-1.724-1.809c0-0.598,0.147-1.065,0.442-1.403
		s0.695-0.507,1.203-0.507c0.529,0,0.951,0.146,1.266,0.438l0.574-1c-0.493-0.375-1.073-0.563-1.741-0.563
		c-0.968,0-1.731,0.279-2.293,0.838s-0.841,1.292-0.841,2.197c0,0.92,0.256,1.64,0.77,2.156c0.512,0.519,1.213,0.777,2.1,0.777
		c0.396,0,0.74-0.031,1.031-0.098c0.291-0.064,0.631-0.219,1.021-0.465L43.477,7.256z"/>
</g>
</svg>
