<?xml version="1.0" encoding="UTF-8"?>
<!DOCTYPE svg PUBLIC "-//W3C//DTD SVG 1.1 Tiny//EN" "http://www.w3.org/Graphics/SVG/1.1/DTD/svg11-tiny.dtd">
<svg baseProfile="tiny" height="20" version="1.1" viewBox="-0.239 -0.204 306 20" width="306" xmlns="http://www.w3.org/2000/svg" xmlns:xlink="http://www.w3.org/1999/xlink">
<g>
<g>
<g>
<g>
<linearGradient gradientTransform="matrix(1 0 0 -1 0.1577 18.8145)" gradientUnits="userSpaceOnUse" id="XMLID_25_" x1="41.6021" x2="41.6021" y1="18.0186" y2="0.0186">
<stop offset="0" style="stop-color:#FFFFFF"/>
<stop offset="0.1" style="stop-color:#FFFFFF"/>
<stop offset="0.5" style="stop-color:#D3D8DD"/>
<stop offset="1" style="stop-color:#9BA1A8"/>
</linearGradient>
<polygon fill="url(#XMLID_25_)" points="25.761,0.796 43.761,18.796 57.761,18.796 39.761,0.796 "/>
<linearGradient gradientTransform="matrix(1 0 0 -1 0.1577 18.8145)" gradientUnits="userSpaceOnUse" id="XMLID_26_" x1="69.6021" x2="69.6021" y1="18.0186" y2="0.0186">
<stop offset="0" style="stop-color:#FFFFFF"/>
<stop offset="0.1" style="stop-color:#FFFFFF"/>
<stop offset="0.5" style="stop-color:#D3D8DD"/>
<stop offset="1" style="stop-color:#9BA1A8"/>
</linearGradient>
<polygon fill="url(#XMLID_26_)" points="53.761,0.796 71.761,18.796 85.761,18.796 67.761,0.796 "/>
<linearGradient gradientTransform="matrix(1 0 0 -1 0.1577 18.8145)" gradientUnits="userSpaceOnUse" id="XMLID_27_" x1="97.6021" x2="97.6021" y1="18.0186" y2="0.0186">
<stop offset="0" style="stop-color:#FFFFFF"/>
<stop offset="0.1" style="stop-color:#FFFFFF"/>
<stop offset="0.5" style="stop-color:#D3D8DD"/>
<stop offset="1" style="stop-color:#9BA1A8"/>
</linearGradient>
<polygon fill="url(#XMLID_27_)" points="81.761,0.796 99.761,18.796 113.761,18.796 95.761,0.796 "/>
<linearGradient gradientTransform="matrix(1 0 0 -1 0.1577 18.8145)" gradientUnits="userSpaceOnUse" id="XMLID_28_" x1="125.6021" x2="125.6021" y1="18.0186" y2="0.0186">
<stop offset="0" style="stop-color:#FFFFFF"/>
<stop offset="0.1" style="stop-color:#FFFFFF"/>
<stop offset="0.5" style="stop-color:#D3D8DD"/>
<stop offset="1" style="stop-color:#9BA1A8"/>
</linearGradient>
<polygon fill="url(#XMLID_28_)" points="109.761,0.796 127.761,18.796 141.761,18.796 123.761,0.796 "/>
<linearGradient gradientTransform="matrix(1 0 0 -1 0.1577 18.8145)" gradientUnits="userSpaceOnUse" id="XMLID_29_" x1="153.6025" x2="153.6025" y1="18.0186" y2="0.0186">
<stop offset="0" style="stop-color:#FFFFFF"/>
<stop offset="0.1" style="stop-color:#FFFFFF"/>
<stop offset="0.5" style="stop-color:#D3D8DD"/>
<stop offset="1" style="stop-color:#9BA1A8"/>
</linearGradient>
<polygon fill="url(#XMLID_29_)" points="137.761,0.796 155.761,18.796 169.761,18.796 151.761,0.796 "/>
<linearGradient gradientTransform="matrix(1 0 0 -1 0.1577 18.8145)" gradientUnits="userSpaceOnUse" id="XMLID_30_" x1="181.6025" x2="181.6025" y1="18.0186" y2="0.0186">
<stop offset="0" style="stop-color:#FFFFFF"/>
<stop offset="0.1" style="stop-color:#FFFFFF"/>
<stop offset="0.5" style="stop-color:#D3D8DD"/>
<stop offset="1" style="stop-color:#9BA1A8"/>
</linearGradient>
<polygon fill="url(#XMLID_30_)" points="165.761,0.796 183.761,18.796 197.761,18.796 179.761,0.796 "/>
<linearGradient gradientTransform="matrix(1 0 0 -1 0.1577 18.8145)" gradientUnits="userSpaceOnUse" id="XMLID_31_" x1="209.6025" x2="209.6025" y1="18.0186" y2="0.0186">
<stop offset="0" style="stop-color:#FFFFFF"/>
<stop offset="0.1" style="stop-color:#FFFFFF"/>
<stop offset="0.5" style="stop-color:#D3D8DD"/>
<stop offset="1" style="stop-color:#9BA1A8"/>
</linearGradient>
<polygon fill="url(#XMLID_31_)" points="193.761,0.796 211.761,18.796 225.761,18.796 207.761,0.796 "/>
<linearGradient gradientTransform="matrix(1 0 0 -1 0.1577 18.8145)" gradientUnits="userSpaceOnUse" id="XMLID_32_" x1="237.6025" x2="237.6025" y1="18.0186" y2="0.0186">
<stop offset="0" style="stop-color:#FFFFFF"/>
<stop offset="0.1" style="stop-color:#FFFFFF"/>
<stop offset="0.5" style="stop-color:#D3D8DD"/>
<stop offset="1" style="stop-color:#9BA1A8"/>
</linearGradient>
<polygon fill="url(#XMLID_32_)" points="221.761,0.796 239.761,18.796 253.761,18.796 235.761,0.796 "/>
<linearGradient gradientTransform="matrix(1 0 0 -1 0.1577 18.8145)" gradientUnits="userSpaceOnUse" id="XMLID_33_" x1="265.6025" x2="265.6025" y1="18.0186" y2="0.0186">
<stop offset="0" style="stop-color:#FFFFFF"/>
<stop offset="0.1" style="stop-color:#FFFFFF"/>
<stop offset="0.5" style="stop-color:#D3D8DD"/>
<stop offset="1" style="stop-color:#9BA1A8"/>
</linearGradient>
<polygon fill="url(#XMLID_33_)" points="249.761,0.796 267.761,18.796 281.761,18.796 263.761,0.796 "/>
</g>
<g>
<linearGradient gradientTransform="matrix(1 0 0 -1 0.1577 18.8145)" gradientUnits="userSpaceOnUse" id="XMLID_34_" x1="27.6021" x2="27.6021" y1="18.0186" y2="0.7218">
<stop offset="0" style="stop-color:#CFECFF"/>
<stop offset="0.1" style="stop-color:#CFECFF"/>
<stop offset="0.5" style="stop-color:#87A8CB"/>
<stop offset="0.882" style="stop-color:#496DA2"/>
<stop offset="1" style="stop-color:#2B5473"/>
</linearGradient>
<polygon fill="url(#XMLID_34_)" points="11.761,0.796 29.761,18.796 43.761,18.796 25.761,0.796 "/>
<linearGradient gradientTransform="matrix(1 0 0 -1 0.1577 18.8145)" gradientUnits="userSpaceOnUse" id="XMLID_35_" x1="55.6021" x2="55.6021" y1="18.0186" y2="0.7218">
<stop offset="0" style="stop-color:#CFECFF"/>
<stop offset="0.1" style="stop-color:#CFECFF"/>
<stop offset="0.5" style="stop-color:#87A8CB"/>
<stop offset="0.882" style="stop-color:#496DA2"/>
<stop offset="1" style="stop-color:#2B5473"/>
</linearGradient>
<polygon fill="url(#XMLID_35_)" points="39.761,0.796 57.761,18.796 71.761,18.796 53.761,0.796 "/>
<linearGradient gradientTransform="matrix(1 0 0 -1 0.1577 18.8145)" gradientUnits="userSpaceOnUse" id="XMLID_36_" x1="83.6021" x2="83.6021" y1="18.0186" y2="0.7218">
<stop offset="0" style="stop-color:#CFECFF"/>
<stop offset="0.1" style="stop-color:#CFECFF"/>
<stop offset="0.5" style="stop-color:#87A8CB"/>
<stop offset="0.882" style="stop-color:#496DA2"/>
<stop offset="1" style="stop-color:#2B5473"/>
</linearGradient>
<polygon fill="url(#XMLID_36_)" points="67.761,0.796 85.761,18.796 99.761,18.796 81.761,0.796 "/>
<linearGradient gradientTransform="matrix(1 0 0 -1 0.1577 18.8145)" gradientUnits="userSpaceOnUse" id="XMLID_37_" x1="111.6021" x2="111.6021" y1="18.0186" y2="0.7218">
<stop offset="0" style="stop-color:#CFECFF"/>
<stop offset="0.1" style="stop-color:#CFECFF"/>
<stop offset="0.5" style="stop-color:#87A8CB"/>
<stop offset="0.882" style="stop-color:#496DA2"/>
<stop offset="1" style="stop-color:#2B5473"/>
</linearGradient>
<polygon fill="url(#XMLID_37_)" points="95.761,0.796 113.761,18.796 127.761,18.796 109.761,0.796 "/>
<linearGradient gradientTransform="matrix(1 0 0 -1 0.1577 18.8145)" gradientUnits="userSpaceOnUse" id="XMLID_38_" x1="139.6021" x2="139.6021" y1="18.0186" y2="0.7218">
<stop offset="0" style="stop-color:#CFECFF"/>
<stop offset="0.1" style="stop-color:#CFECFF"/>
<stop offset="0.5" style="stop-color:#87A8CB"/>
<stop offset="0.882" style="stop-color:#496DA2"/>
<stop offset="1" style="stop-color:#2B5473"/>
</linearGradient>
<polygon fill="url(#XMLID_38_)" points="123.761,0.796 141.761,18.796 155.761,18.796 137.761,0.796 "/>
<linearGradient gradientTransform="matrix(1 0 0 -1 0.1577 18.8145)" gradientUnits="userSpaceOnUse" id="XMLID_39_" x1="167.6025" x2="167.6025" y1="18.0186" y2="0.7218">
<stop offset="0" style="stop-color:#CFECFF"/>
<stop offset="0.1" style="stop-color:#CFECFF"/>
<stop offset="0.5" style="stop-color:#87A8CB"/>
<stop offset="0.882" style="stop-color:#496DA2"/>
<stop offset="1" style="stop-color:#2B5473"/>
</linearGradient>
<polygon fill="url(#XMLID_39_)" points="151.761,0.796 169.761,18.796 183.761,18.796 165.761,0.796 "/>
<linearGradient gradientTransform="matrix(1 0 0 -1 0.1577 18.8145)" gradientUnits="userSpaceOnUse" id="XMLID_40_" x1="195.6025" x2="195.6025" y1="18.0186" y2="0.7218">
<stop offset="0" style="stop-color:#CFECFF"/>
<stop offset="0.1" style="stop-color:#CFECFF"/>
<stop offset="0.5" style="stop-color:#87A8CB"/>
<stop offset="0.882" style="stop-color:#496DA2"/>
<stop offset="1" style="stop-color:#2B5473"/>
</linearGradient>
<polygon fill="url(#XMLID_40_)" points="179.761,0.796 197.761,18.796 211.761,18.796 193.761,0.796 "/>
<linearGradient gradientTransform="matrix(1 0 0 -1 0.1577 18.8145)" gradientUnits="userSpaceOnUse" id="XMLID_41_" x1="223.6025" x2="223.6025" y1="18.0186" y2="0.7218">
<stop offset="0" style="stop-color:#CFECFF"/>
<stop offset="0.1" style="stop-color:#CFECFF"/>
<stop offset="0.5" style="stop-color:#87A8CB"/>
<stop offset="0.882" style="stop-color:#496DA2"/>
<stop offset="1" style="stop-color:#2B5473"/>
</linearGradient>
<polygon fill="url(#XMLID_41_)" points="207.761,0.796 225.761,18.796 239.761,18.796 221.761,0.796 "/>
<linearGradient gradientTransform="matrix(1 0 0 -1 0.1577 18.8145)" gradientUnits="userSpaceOnUse" id="XMLID_42_" x1="251.6025" x2="251.6025" y1="18.0186" y2="0.7218">
<stop offset="0" style="stop-color:#CFECFF"/>
<stop offset="0.1" style="stop-color:#CFECFF"/>
<stop offset="0.5" style="stop-color:#87A8CB"/>
<stop offset="0.882" style="stop-color:#496DA2"/>
<stop offset="1" style="stop-color:#2B5473"/>
</linearGradient>
<polygon fill="url(#XMLID_42_)" points="235.761,0.796 253.761,18.796 267.761,18.796 249.761,0.796 "/>
<linearGradient gradientTransform="matrix(1 0 0 -1 0.1577 18.8145)" gradientUnits="userSpaceOnUse" id="XMLID_43_" x1="279.6025" x2="279.6025" y1="18.0186" y2="0.7218">
<stop offset="0" style="stop-color:#CFECFF"/>
<stop offset="0.1" style="stop-color:#CFECFF"/>
<stop offset="0.5" style="stop-color:#87A8CB"/>
<stop offset="0.882" style="stop-color:#496DA2"/>
<stop offset="1" style="stop-color:#2B5473"/>
</linearGradient>
<polygon fill="url(#XMLID_43_)" points="263.761,0.796 281.761,18.796 295.761,18.796 277.761,0.796 "/>
<g>
<polygon fill="none" points="11.761,0.796 29.761,18.796 295.761,18.796 277.761,0.796 "/>
<linearGradient gradientTransform="matrix(1 0 0 -1 0.1577 18.8145)" gradientUnits="userSpaceOnUse" id="XMLID_44_" x1="15.1021" x2="15.102" y1="18.0186" y2="0.0186">
<stop offset="0" style="stop-color:#FFFFFF"/>
<stop offset="0.1" style="stop-color:#FFFFFF"/>
<stop offset="0.5" style="stop-color:#D3D8DD"/>
<stop offset="1" style="stop-color:#9BA1A8"/>
</linearGradient>
<path d="M2.248,0.796c-0.819,0-1.487,0.578-1.487,1.289v1.711l15,15h14l-18-18H2.248z" fill="url(#XMLID_44_)"/>
<linearGradient gradientTransform="matrix(1 0 0 -1 0.1577 18.8145)" gradientUnits="userSpaceOnUse" id="XMLID_45_" x1="8.1021" x2="8.102" y1="18.0186" y2="0.7215">
<stop offset="0" style="stop-color:#CFECFF"/>
<stop offset="0.1" style="stop-color:#CFECFF"/>
<stop offset="0.5" style="stop-color:#87A8CB"/>
<stop offset="0.882" style="stop-color:#496DA2"/>
<stop offset="1" style="stop-color:#2B5473"/>
</linearGradient>
<path d="M0.761,17.507c0,0.711,0.668,1.289,1.487,1.289h13.513l-15-15V17.507z" fill="url(#XMLID_45_)"/>
<linearGradient gradientTransform="matrix(1 0 0 -1 0.1577 18.8145)" gradientUnits="userSpaceOnUse" id="XMLID_46_" x1="291.1025" x2="291.1025" y1="18.0186" y2="0.0186">
<stop offset="0" style="stop-color:#FFFFFF"/>
<stop offset="0.1" style="stop-color:#FFFFFF"/>
<stop offset="0.5" style="stop-color:#D3D8DD"/>
<stop offset="1" style="stop-color:#9BA1A8"/>
</linearGradient>
<path d="M277.761,0.796l18,18h7.513c0.819,0,1.487-0.578,1.487-1.289v-3.711l-13-13H277.761z" fill="url(#XMLID_46_)"/>
<linearGradient gradientTransform="matrix(1 0 0 -1 0.1577 18.8145)" gradientUnits="userSpaceOnUse" id="XMLID_47_" x1="298.1025" x2="298.1025" y1="18.0186" y2="0.7214">
<stop offset="0" style="stop-color:#CFECFF"/>
<stop offset="0.1" style="stop-color:#CFECFF"/>
<stop offset="0.5" style="stop-color:#87A8CB"/>
<stop offset="0.882" style="stop-color:#496DA2"/>
<stop offset="1" style="stop-color:#2B5473"/>
</linearGradient>
<path d="M303.273,0.796h-11.513l13,13V2.085C304.761,1.374,304.093,0.796,303.273,0.796z" fill="url(#XMLID_47_)"/>
</g>
</g>
</g>
<linearGradient gradientTransform="matrix(1 0 0 -1 0.1577 18.8145)" gradientUnits="userSpaceOnUse" id="XMLID_48_" x1="152.6021" x2="152.6021" y1="20.2686" y2="9.0186">
<stop offset="0" style="stop-color:#FFFFFF"/>
<stop offset="1" style="stop-color:#DEE9F3"/>
</linearGradient>
<path d="M303.273,0.796H2.248c-0.819,0-1.487,0.578-1.487,1.289v7.711h304V2.085 C304.761,1.374,304.093,0.796,303.273,0.796z" fill="url(#XMLID_48_)" fill-opacity="0.2"/>
</g>
<rect fill="none" height="20" width="306" x="-0.239" y="-0.204"/>
</g>
</svg>
