<?xml version="1.0" encoding="utf-8"?>
<!DOCTYPE svg PUBLIC "-//W3C//DTD SVG 1.1 Tiny//EN" "http://www.w3.org/Graphics/SVG/1.1/DTD/svg11-tiny.dtd">
<svg width="100%" height="100%" viewBox="0 0 88 88">
<linearGradient id="_40" gradientUnits="userSpaceOnUse" x1="32.3" y1="29.94" x2="55.47" y2="57.79">
<stop stop-color="#DEE9F3" offset="0"/>
<stop stop-color="#235487" offset="1"/>
</linearGradient>
<circle fill="url(#_40)" cx="44" cy="44" r="30.996"/>
<radialGradient id="_41" gradientUnits="userSpaceOnUse" cx="49.9" cy="24.71" r="55.32">
<stop stop-color="#FFFFFF" offset="0"/>
<stop stop-color="#A2C2DD" offset="0.53"/>
<stop stop-color="#6C83BB" offset="0.87"/>
<stop stop-color="#003D6D" offset="1"/>
</radialGradient>
<circle fill="url(#_41)" cx="44" cy="43.993" r="29.9"/>
<radialGradient id="_42" gradientUnits="userSpaceOnUse" cx="50.31" cy="27.77" r="37.64">
<stop stop-color="#E6EEF4" offset="0"/>
<stop stop-color="#C6DCC1" offset="0.08"/>
<stop stop-color="#91C06F" offset="0.21"/>
<stop stop-color="#6BAB33" offset="0.32"/>
<stop stop-color="#539E0E" offset="0.4"/>
<stop stop-color="#4A9900" offset="0.44"/>
<stop stop-color="#398419" offset="0.55"/>
<stop stop-color="#22663B" offset="0.71"/>
<stop stop-color="#135550" offset="0.85"/>
<stop stop-color="#0E4E58" offset="0.94"/>
</radialGradient>
<path fill="url(#_42)" d="M48.755,14.487c-0.409-0.065-0.821-0.119-1.235-0.167c-0.205-0.024-0.41-0.051-0.619-0.071c-0.401-0.039-0.807-0.07-1.213-0.092c-0.199-0.011-0.401-0.016-0.604-0.023c-0.359-0.013-0.721-0.027-1.085-0.027c-0.982,0-1.953,0.051-2.912,0.144c-0.102,0.01-0.203,0.02-0.304,0.031c-1.425,0.153-2.821,0.404-4.179,0.749c-0.033,0.008-0.066,0.016-0.1,0.024c-0.428,0.11-0.851,0.232-1.271,0.361c-0.098,0.03-0.195,0.061-0.292,0.092c-1.285,0.408-2.532,0.9-3.735,1.471c-0.077,0.037-0.155,0.071-0.232,0.109c-0.372,0.18-0.738,0.369-1.101,0.563c-0.11,0.059-0.218,0.12-0.328,0.18c-1.11,0.614-2.176,1.298-3.194,2.043c-0.117,0.086-0.235,0.17-0.351,0.258c-0.301,0.227-0.597,0.46-0.889,0.699c-0.129,0.105-0.256,0.213-0.383,0.321c-0.912,0.769-1.775,1.592-2.588,2.463c-0.141,0.151-0.282,0.302-0.42,0.457c-0.226,0.252-0.447,0.507-0.665,0.767c-0.145,0.173-0.284,0.349-0.425,0.525c-0.335,0.42-0.659,0.85-0.972,1.288c-0.161,0.225-0.324,0.447-0.479,0.677c-0.17,0.253-0.331,0.512-0.494,0.77c-0.143,0.227-0.284,0.455-0.421,0.686c-0.085,0.144-0.167,0.291-0.25,0.437l0.295,0.296l0.498,3.26c0,0-0.498,1.303-0.536,1.801s1.303,1.188,1.303,1.188s0.997-1.34,1.074-0.152c0.001,0.025,0.004,0.051,0.007,0.076c0.142,1.125,1.757,1.42,1.757,1.42c0.135,0.402,0.606,1.744,1.092,2.471c0.307,0.461,1.093,0.633,1.782,0.441c0.575,0.652,0.959,0.686,0.759,1.586c-0.069,0.311-0.126,0.629-0.251,0.943c-0.734,1.836-1.658,1.85-1.658,3.634c0,1.108,1.192,3.389,2.39,5.836c4.328,3.512,2.868,3.071,3.599,6.797c-0.293,10.004,3.548,12.317,3.943,11.246c1.021-2.775,1.532-4.894,1.533-4.894c3.14-1.461,5.203-3.646,6.061-5.623c0.358-0.825,1.118-0.666,1.923-1.737c0.422,0,3.128-0.486,3.259-0.884c0.01-0.17,0.85-1.469,0.844-1.647c-0.059-1.781,0.109-2.375,0.109-2.375l0.46-0.346l2.242-2.129v-1.726l-1.782-1.361l-5.867-1.653l-1.839-1.995c0,0.008-0.118-1.277-0.421-1.533c-1.118-0.943-2.979-0.441-3.309-0.797c-0.965-1.037-2.393-2.541-5.039-2.41c-2.316-0.58-2.776-2.305-5.422,0.531c-0.172,0.186-1.377-0.266-1.456-0.037c-0.499-0.385-1.284-0.518-1.457-0.23c-0.402-1.094-0.153-1.629,0.422-2.723c0.575-1.092-1.879-0.785-1.879-0.785c0.23-0.461,1.044-2.029,1.419-2.664c0.498-0.844-1.38,0.363-2.07,1.111l-1.38,0.154c-0.038-0.691,0.191-2.377,1.073-3.949c0.882-1.572,2.377-1.303,2.377-1.303s1.436-0.861,2.596-0.201c0.321,0.184-0.378,1.566,0.062,2.463c0.103,0.207,0.489-2.187,0.806-2.607s2.606-1.879,2.606-1.879l2.051-2.529c0,0,2.561-1.498,3.514-1.609c0.812-0.096,1.438-0.613,1.438-1.15s0.911-1.15,1.322-1.111c0.412,0.037-1.84,1.053,1.841,0.248c0.472-0.104-0.403,0.92-0.403,0.92s1.584,0.072,1.841-0.344c0.276-0.451-0.288-1.84-1.726-2.014c-0.669-0.08-0.466-0.977-0.466-0.977c-0.236,0-1.892,0.287-1.892-0.174c-1.035-1.609-2.587,0.059-2.587,0.059s-0.461,0.977-1.035,1.207c-0.575,0.23-1.323,0.979-1.323,0.979s0-0.691,0-1.094c0-0.403-1.438-0.574-1.438-0.574s2.588-1.84,3.048-1.496c0.46,0.346,1.495-0.172,1.495-0.172s0.46-0.459,1.15-0.863c0.689-0.402,1.667-0.516,0.689,0.115c-0.978,0.633,0.862,1.322,1.38,1.266s0.23-0.863,0.402-0.92c0.173-0.057,1.783-0.287,1.208-0.461c-0.575-0.172-1.15-0.689-1.15-0.689s1.15-0.518,2.243-0.574c1.092-0.059,2.017,0.793,2.017,0.793c0.405,0.002,0.257,0.504,0.283,0.625c0.191,0.883-0.537,0.652-0.075,1.611c0.121,0.252,0.532,0.314,1.393,0.041c0.636-0.055,2.296-1.496,3.161-1.207c0.854,0.283,1.462-0.289,2.268-0.791C51.078,15.281,50.17,14.815,48.755,14.487z M52.96,16.94c-0.485,0.109-1.188-0.432-1.565-0.162c0.324,0.594,0.863,1.135,1.242,1.025c0.377-0.107,1.24-0.701,1.24-0.701S53.445,16.833,52.96,16.94z M73.896,43.949c0-0.587-0.022-1.168-0.058-1.747c-0.012-0.203-0.028-0.405-0.046-0.606c-0.031-0.399-0.07-0.796-0.118-1.191c-0.026-0.219-0.053-0.439-0.083-0.657c-0.06-0.418-0.131-0.832-0.207-1.244c-0.031-0.168-0.057-0.338-0.091-0.505c-0.108-0.537-0.235-1.068-0.374-1.594c-0.061-0.232-0.13-0.461-0.195-0.692c-0.093-0.319-0.188-0.638-0.289-0.953c-0.082-0.251-0.166-0.502-0.254-0.75c-0.105-0.296-0.219-0.589-0.332-0.881c-0.095-0.241-0.186-0.484-0.285-0.722c-0.195-0.466-0.403-0.926-0.623-1.38c-0.125-0.261-0.262-0.516-0.396-0.773c-0.122-0.235-0.243-0.469-0.371-0.7c-0.069-0.124-0.142-0.246-0.212-0.369c-0.294-0.048-0.421,1.099-0.421,1.099l-2.069-2.242l-1.467-0.893l-2.224,0.652l-0.806-0.383l0.23-0.26l0.699-0.613c0,0-0.334-1.27,0.302-1.789c0.539-0.439,1.078,0.295,1.078,0.295l2.241,2.07c0,0,0.748,0.516,1.955,1.264c0.004,0,0.009,0,0.013,0.001c-0.06-0.095-0.122-0.188-0.183-0.283c-0.34-0.541-0.697-1.069-1.07-1.586c-0.124-0.172-0.246-0.345-0.373-0.514c-0.389-0.515-0.799-1.013-1.219-1.5c-0.152-0.177-0.303-0.356-0.459-0.53c-0.436-0.482-0.889-0.946-1.354-1.399c-0.187-0.181-0.372-0.361-0.563-0.537c-0.469-0.434-0.951-0.852-1.448-1.254c-0.247-0.201-0.498-0.398-0.752-0.592c-0.456-0.346-0.921-0.682-1.396-1.002c-0.251-0.169-0.509-0.329-0.765-0.491c-0.353-0.222-0.708-0.435-1.069-0.642c-0.188-0.107-0.371-0.219-0.562-0.323c-0.804,0.683,1.188,1.835,2.288,2.831c0.764,0.693,0.076,1.668-0.02,1.85c-0.242,0.461,1.283,0.451,1.691,1.426c0.275,0.658-0.081,0.184-0.352,0.52c-0.928,0.082-0.92-0.92-1.494,0.059c-0.513,0.869,0.633,0.801,0.401,1.15c-0.229,0.346,0.115,0.92,0.115,0.92l1.84,0.977l-0.688,2.818c-2.002,1.559-2.067,3.088-2.129,3.449c-0.059,0.346,0.461,2.588,0.461,3.91c0,1.449,2.855,5.336,4.24,5.449c1.811,0.148,2.774-0.504,2.774-0.504c0.116,0.289,2.185-0.115,2.185-0.115s1.031,1.494,1.15,1.725c0.04,0.084-1.098,1.549-0.391,2.538c1.533,2.146,0.851,3.441,0.768,5.513c-2.014,3.019-1.643,4.024-2.219,6.209c-1.047,1.99-2.057,2.933-1.563,4.215c1.271-1.585,2.382-3.303,3.312-5.127c0.015-0.028,0.029-0.057,0.043-0.085c0.168-0.333,0.33-0.67,0.486-1.01c0.025-0.059,0.053-0.117,0.08-0.178c0.147-0.33,0.293-0.662,0.43-0.998c0.022-0.057,0.045-0.114,0.066-0.172c0.441-1.102,0.82-2.233,1.131-3.396c0.004-0.019,0.01-0.035,0.016-0.054c0.072-0.278,0.138-0.563,0.203-0.844c0.039-0.17,0.082-0.341,0.119-0.513c0.053-0.252,0.102-0.506,0.148-0.76c0.039-0.208,0.077-0.416,0.111-0.625c0.039-0.237,0.076-0.476,0.109-0.715c0.032-0.235,0.063-0.474,0.09-0.71c0.025-0.223,0.051-0.443,0.072-0.666c0.025-0.275,0.045-0.553,0.063-0.831c0.014-0.19,0.029-0.38,0.037-0.571c0.021-0.441,0.033-0.886,0.035-1.333c0-0.029,0.002-0.059,0.002-0.088C73.898,43.983,73.898,43.966,73.896,43.949z M29.785,34.692c0,0,1.342-0.076,0.23-0.574c-1.112-0.5-1.879,0.463-1.61,0.498C28.712,34.653,29.785,34.692,29.785,34.692z M27.063,32.2c-0.613,0.23-0.46,0.498-0.46,0.498c0.383,0,0.729-0.115,0.843,0.805c0.115,0.922,0.959,0.5,0.997,0.23C28.481,33.466,27.677,31.97,27.063,32.2z"/>
</svg>