<?xml version="1.0" encoding="UTF-8"?>
<!DOCTYPE svg PUBLIC "-//W3C//DTD SVG 1.1 Tiny//EN" "http://www.w3.org/Graphics/SVG/1.1/DTD/svg11-tiny.dtd">
<svg baseProfile="tiny" height="26px" version="1.1" viewBox="0 0 26 26" width="26px" x="0px" xmlns="http://www.w3.org/2000/svg" xmlns:xlink="http://www.w3.org/1999/xlink" y="0px">
<g>
<path d="M17.466,15.336c0.711-1.092,1.129-2.382,1.129-3.781c0-3.834-3.12-6.953-6.958-6.953   c-3.836,0-6.958,3.119-6.958,6.953s3.122,6.953,6.958,6.953c1.287,0,2.488-0.357,3.523-0.971l3.527,3.5l2.303-2.211L17.466,15.336z    M11.636,16.775c-2.881,0-5.227-2.342-5.227-5.221s2.346-5.221,5.227-5.221c2.881,0,5.228,2.342,5.228,5.221   S14.518,16.775,11.636,16.775z M7.767,12.374h7.763v-1.646H7.767V12.374z" fill="#FFFFFF" fill-opacity="0.3" stroke-opacity="0.3"/>
<rect fill="none" height="26" width="26"/>
<path d="M18.493,15.204c0.603-1.125,0.918-2.374,0.918-3.649c0-4.284-3.487-7.77-7.775-7.77   c-4.286,0-7.773,3.485-7.773,7.77c0,4.285,3.487,7.77,7.773,7.77c1.168,0,2.324-0.269,3.377-0.78l3.664,3.635l3.482-3.343   L18.493,15.204z M15.159,17.537c-1.035,0.613-2.236,0.971-3.523,0.971c-3.836,0-6.958-3.119-6.958-6.953S7.8,4.602,11.636,4.602   c3.838,0,6.958,3.119,6.958,6.953c0,1.399-0.418,2.689-1.129,3.781l3.523,3.49l-2.303,2.211L15.159,17.537z M11.636,6.334   c-2.881,0-5.227,2.342-5.227,5.221s2.346,5.221,5.227,5.221c2.881,0,5.228-2.342,5.228-5.221S14.518,6.334,11.636,6.334z    M11.636,15.958c-1.853,0-3.441-1.146-4.093-2.767h8.189C15.079,14.812,13.489,15.958,11.636,15.958z M7.767,12.374v-1.646h7.763   v1.646H7.767z M7.545,9.911C8.197,8.294,9.786,7.15,11.636,7.15c1.851,0,3.439,1.144,4.093,2.761H7.545z" fill-opacity="0.3" stroke-opacity="0.3"/>
</g>
</svg>
