<?xml version="1.0" encoding="UTF-8"?>
<!DOCTYPE svg PUBLIC "-//W3C//DTD SVG 1.1 Tiny//EN" "http://www.w3.org/Graphics/SVG/1.1/DTD/svg11-tiny.dtd">
<svg width="270" height="194" viewBox="0 0 270 194">
<linearGradient id="_1" gradientUnits="userSpaceOnUse" x1="135" y1="-0.6" x2="135" y2="194.41">
<stop stop-color="#B3DDFF" offset="0"/>
<stop stop-color="#5AA7E0" offset="0.52"/>
<stop stop-color="#CFECFF" offset="1"/>
</linearGradient>
<rect fill="url(#_1)" height="194" width="270"/>
<g xlink:href="#shape39">
<g id="shape39">
<path d="M61.757,136.241c-2.694-3.047-5.39-6.095-8.085-9.143c-1.469-1.662-2.94-3.324-4.409-4.986 c-0.849-0.959-2.693-3.981-3.917-4.291c-1.741-0.442-4.735,1.763-6.33,2.369c-3.672,1.393-7.575,2.392-11.442,3.067 c-3.183,0.556-5.492-0.27-6.494,3.432c-0.758,2.794-0.744,5.927-0.277,8.77c0.625,3.795,1.469,7.579,0.195,11.346 c-1.214,3.587-3.211,6.885-5.615,9.797c-2.832-4.081-5.877-8.1-6.175-13.254c-0.344-5.936,0.204-11.891,1.14-17.751 c0.75-4.685,2.07-9.696,6.074-12.667c3.861-2.867,9.033-3.537,13.715-3.455c-5.27-4.022-10.539-8.043-15.808-12.065 c2.228-1.278,4.268-3.087,6.779-3.802c2.256-0.642,5.058,0.023,7.349,0.297c1.518,0.181,3.69,0.766,5.141,0.062 c1.762-0.855,2.84-4.064,3.916-5.606c-0.285,2.866-1.927,7.301,1.076,9.02c4.322,2.476,8.594,5.045,12.889,7.57 c-3.067-3.853-5.77-7.984-8.22-12.25c-2.189-3.813-4.73-8.482-3.372-13.011c-7.878,0.179-10.733,7.037-11.065,13.949 c-2.717-5.201-3.153-12.019-0.426-17.309c1.278-2.482,3.167-3.421,5.024-5.261c1.77-1.753-0.445-5.538-0.972-7.494 c-1.722-6.406-2.766-12.965-4.547-19.354c-0.851-3.055,0.171-6.055,0.622-9.092c0.539-3.619,1.077-7.237,1.614-10.855 c6.008,3.803,11.053,8.937,14.4,15.235c3.826,7.202,6.092,15.095,8.524,22.841c1.253-12.445,2.181-24.967,3.607-37.387 c0.328-2.853,4.013-10.545,6.612-4.649c2.2,4.991,1.487,11.498,1.109,16.776c0.103-3.607,0.276-7.213,0.583-10.808 c0.021-0.25,0.84-6.235,1.525-4.271c0.894-1.87,2.79-10.095,5.561-6.116c1.653,2.374,1.876,4.968,2.306,7.748 c0.568,3.66,1.741,7.23,2.671,10.809c0.791-2.891,1.58-5.782,2.371-8.672c3.824,11.768,2.882,24.377,1.978,36.515 c-5.184-0.513-13.644-1.581-16.851,3.739c-0.998,1.653-1.076,3.682-1.31,5.546c-0.306,2.44-0.766,4.868-1.153,7.295 c-0.742,4.662-1.609,9.303-2.378,13.959c-0.342,2.076,0.884,1.723,1.896,3.088c1.314,1.778,1.582,4.112,1.656,6.255 c0.166,4.755-0.98,9.483-0.514,14.237c0.43,4.37,3.706,7.676,4.09,11.915c0.141,1.559,0.472,4.443-0.484,5.794 C65.347,135.523,63.228,135.657,61.757,136.241z" fill="#3366CC"/>
<linearGradient id="shape42_2" gradientUnits="userSpaceOnUse" x1="36.15" y1="37.35" x2="36.15" y2="96.4">
<stop stop-color="#5AA7E0" offset="0"/>
<stop stop-color="#0046B7" offset="1"/>
</linearGradient>
<path d="M25.735,31.742c0.853,0.46,0.03,3.552-0.098,4.247 c-0.405,2.198-0.761,4.281-0.911,6.532c-0.442,6.616,0.077,13.353,2.683,19.44c2.504,5.853,6.802,9.705,11.069,14.01 c4.562,4.605,7.396,10.235,9.227,16.641c0.244,0.853,1.289,3.1,0.636,3.921c-0.762,0.957-1.337-2.537-1.407-2.877 c-0.679-3.267-2.088-6.571-3.662-9.443c-2.956-5.395-7.497-9.001-11.493-13.407c-8.123-8.953-8.983-21.864-7.347-33.664 C24.499,36.658,25.291,31.509,25.735,31.742z" fill="url(#shape42_2)"/>
<linearGradient id="shape43_2" gradientUnits="userSpaceOnUse" x1="24.28" y1="29.79" x2="27.37" y2="36.09">
<stop stop-color="#B3DDFF" offset="0"/>
<stop stop-color="#5AA7E0" offset="0.5"/>
<stop stop-color="#0046B7" offset="1"/>
</linearGradient>
<path d="M23.419,34.447c0.387,1.676,2.032,3.848,3.517,1.932 c1.247-1.607,1.25-4.028,0.801-5.96c-0.387-1.678-2.03-3.841-3.515-1.928C22.974,30.095,22.971,32.517,23.419,34.447z" fill="url(#shape43_2)"/>
<path d=" M36.389,49.361c-0.387,4.129,0.299,8.375,2.341,11.934c1.972,3.435,4.115,6.783,4.825,10.828 c1.475,8.402,0.626,17.456,4.743,25.118" fill="none" stroke="#0046B7" stroke-linecap="round" stroke-linejoin="round" stroke-width="1.698"/>
<linearGradient id="shape45_2" gradientUnits="userSpaceOnUse" x1="34.13" y1="40.05" x2="33.13" y2="96.6">
<stop stop-color="#5AA7E0" offset="0"/>
<stop stop-color="#0046B7" offset="1"/>
</linearGradient>
<path d="M18.577,37.57c1.039,0.014,1.168,7.967,1.229,8.925 c0.355,5.535,1.611,11.328,3.33,16.545c1.852,5.623,4.72,10.309,9.182,13.902c4.544,3.659,10.37,5.742,13.514,11.127 c1.406,2.409,2.524,5.369,3.141,8.137c0.25,1.121-0.123,3.132-0.892,1.073c-0.613-1.643-0.791-3.423-1.438-5.059 c-2.07-5.238-6.354-8.401-10.785-11.133c-8.92-5.5-13.563-14.776-15.494-25.412C20.05,53.952,17.259,37.562,18.577,37.57z" fill="url(#shape45_2)"/>
<radialGradient id="shape46_2" gradientUnits="userSpaceOnUse" cx="16.75" cy="35.29" r="6.54">
<stop stop-color="#B3DDFF" offset="0"/>
<stop stop-color="#5AA7E0" offset="0.5"/>
<stop stop-color="#0046B7" offset="1"/>
</radialGradient>
<path d="M20.844,35.456c0.479,2.067,0.416,4.582-0.891,6.302 c-1.497,1.972-3.261-0.417-3.644-2.075c-0.479-2.064-0.415-4.58,0.89-6.299C18.696,31.412,20.459,33.796,20.844,35.456z" fill="url(#shape46_2)"/>
<path d="M44.442,48.703c0.501-1.648,1.924,2.894,2.042,3.509 c0.917,4.814,0.861,9.979,1.063,14.877c0.41,9.877,0.265,19.775,0.865,29.646" fill="none" stroke="#0046B7" stroke-width="1.337"/>
<path d="M45.773,45.63c0.4,1.724,0.056,3.721-1.021,5.09c-1.157,1.47-2.904,0.632-3.296-1.068 c-0.4-1.724-0.06-3.723,1.021-5.092C43.634,43.091,45.38,43.932,45.773,45.63z" fill="#0046B7"/>
<path d="M37.645,45.693c0.397,1.725,0.058,3.725-1.021,5.096c-1.158,1.469-2.906,0.63-3.298-1.071 c-0.398-1.723-0.057-3.72,1.021-5.089C35.503,43.161,37.251,43.992,37.645,45.693z" fill="#0046B7"/>
</g>
</g>
<g xlink:href="#shape39">
<path d="M150.05,160.185c3.208-3.888,6.419-7.777,9.63-11.667 c1.749-2.121,3.501-4.242,5.25-6.362c1.012-1.224,3.208-5.08,4.666-5.476c2.073-0.563,5.639,2.25,7.539,3.023 c4.373,1.778,9.021,3.052,13.627,3.914c3.791,0.709,6.541-0.344,7.734,4.379c0.902,3.565,0.887,7.563,0.33,11.19 c-0.744,4.842-1.75,9.671-0.232,14.478c1.445,4.577,3.824,8.785,6.688,12.501c3.373-5.208,7-10.335,7.354-16.912 c0.409-7.574-0.243-15.173-1.358-22.65c-0.893-5.978-2.465-12.372-7.233-16.163c-4.599-3.658-10.759-4.513-16.335-4.409 c6.277-5.132,12.553-10.263,18.828-15.395c-2.654-1.631-5.084-3.939-8.074-4.852c-2.688-0.819-6.023,0.029-8.752,0.379 c-1.809,0.231-4.396,0.978-6.123,0.079c-2.1-1.091-3.383-5.186-4.664-7.153c0.339,3.657,2.295,9.316-1.282,11.51 c-5.147,3.159-10.235,6.438-15.351,9.659c3.652-4.917,6.872-10.188,9.79-15.631c2.606-4.865,5.634-10.823,4.017-16.602 c9.383,0.229,12.782,8.979,13.178,17.799c3.236-6.636,3.756-15.336,0.508-22.086c-1.522-3.167-3.772-4.365-5.984-6.713 c-2.107-2.237,0.53-7.066,1.158-9.563c2.051-8.174,3.295-16.543,5.416-24.695c1.013-3.898-0.204-7.727-0.741-11.602 c-0.642-4.618-1.282-9.234-1.923-13.851c-7.155,4.853-13.164,11.404-17.15,19.44c-4.557,9.189-7.256,19.261-10.152,29.145 c-1.492-15.88-2.598-31.858-4.295-47.706c-0.391-3.641-4.779-13.456-7.875-5.932c-2.621,6.368-1.771,14.671-1.321,21.406 c-0.122-4.603-0.329-9.204-0.694-13.791c-0.025-0.319-1-7.956-1.816-5.45c-1.064-2.386-3.322-12.881-6.623-7.804 c-1.969,3.029-2.234,6.339-2.746,9.886c-0.677,4.67-2.074,9.226-3.182,13.792c-0.941-3.689-1.881-7.378-2.824-11.065 c-4.554,15.016-3.432,31.105-2.355,46.593c6.174-0.654,16.25-2.017,20.07,4.771c1.188,2.109,1.281,4.698,1.56,7.077 c0.364,3.114,0.913,6.212,1.374,9.309c0.883,5.949,1.916,11.871,2.832,17.812c0.406,2.649-1.053,2.199-2.259,3.94 c-1.565,2.269-1.884,5.247-1.972,7.981c-0.198,6.067,1.167,12.1,0.611,18.167c-0.512,5.576-4.414,9.794-4.871,15.203 c-0.168,1.99-0.563,5.669,0.576,7.394C145.775,159.268,148.299,159.439,150.05,160.185z" fill="#3366CC"/>
<linearGradient id="shape42_3" gradientUnits="userSpaceOnUse" x1="180.55" y1="34" x2="180.55" y2="109.35">
<stop stop-color="#5AA7E0" offset="0"/>
<stop stop-color="#0046B7" offset="1"/>
</linearGradient>
<path d="M192.952,26.843c-1.015,0.587-0.036,4.533,0.116,5.419 c0.482,2.805,0.906,5.463,1.086,8.335c0.525,8.442-0.092,17.038-3.195,24.806c-2.982,7.469-8.102,12.384-13.184,17.877 c-5.433,5.876-8.809,13.06-10.988,21.233c-0.291,1.088-1.535,3.956-0.758,5.003c0.908,1.221,1.593-3.237,1.677-3.672 c0.809-4.168,2.486-8.384,4.36-12.049c3.52-6.884,8.929-11.486,13.688-17.107c9.674-11.424,10.698-27.898,8.749-42.955 C194.426,33.116,193.481,26.547,192.952,26.843z" fill="url(#shape42_3)"/>
<linearGradient id="shape43_3" gradientUnits="userSpaceOnUse" x1="194.68" y1="24.36" x2="191" y2="32.4">
<stop stop-color="#B3DDFF" offset="0"/>
<stop stop-color="#5AA7E0" offset="0.5"/>
<stop stop-color="#0046B7" offset="1"/>
</linearGradient>
<path d="M195.711,30.296c-0.461,2.139-2.42,4.91-4.189,2.465 c-1.484-2.051-1.488-5.14-0.953-7.606c0.461-2.141,2.418-4.901,4.188-2.46C196.241,24.743,196.244,27.832,195.711,30.296z" fill="url(#shape43_3)"/>
<path d=" M180.264,49.326c0.461,5.268-0.355,10.687-2.788,15.228c-2.349,4.382-4.901,8.655-5.746,13.816 c-1.757,10.722-0.745,22.273-5.648,32.051" fill="none" stroke="#0046B7" stroke-linecap="round" stroke-linejoin="round" stroke-width="1.698"/>
<linearGradient id="shape45_3" gradientUnits="userSpaceOnUse" x1="182.95" y1="37.44" x2="184.14" y2="109.61">
<stop stop-color="#5AA7E0" offset="0"/>
<stop stop-color="#0046B7" offset="1"/>
</linearGradient>
<path d="M201.479,34.281c-1.237,0.018-1.391,10.166-1.465,11.389 c-0.422,7.062-1.918,14.454-3.965,21.111c-2.206,7.175-5.622,13.154-10.936,17.738c-5.412,4.669-12.352,7.328-16.096,14.198 c-1.674,3.074-3.006,6.851-3.74,10.383c-0.298,1.431,0.146,3.997,1.062,1.37c0.73-2.096,0.942-4.368,1.712-6.455 c2.467-6.684,7.567-10.72,12.846-14.206c10.624-7.019,16.153-18.854,18.453-32.425 C199.723,55.184,203.047,34.271,201.479,34.281z" fill="url(#shape45_3)"/>
<radialGradient id="shape46_3" gradientUnits="userSpaceOnUse" cx="203.65" cy="31.37" r="8.34">
<stop stop-color="#B3DDFF" offset="0"/>
<stop stop-color="#5AA7E0" offset="0.5"/>
<stop stop-color="#0046B7" offset="1"/>
</radialGradient>
<path d="M198.778,31.582c-0.569,2.637-0.495,5.847,1.062,8.042 c1.783,2.517,3.883-0.533,4.34-2.648c0.57-2.634,0.494-5.843-1.06-8.038C201.336,26.422,199.236,29.465,198.778,31.582z" fill="url(#shape46_3)"/>
<path d="M170.673,48.486 c-0.597-2.103-2.292,3.692-2.432,4.477c-1.093,6.143-1.026,12.734-1.267,18.983c-0.488,12.603-0.315,25.233-1.03,37.828" fill="none" stroke="#0046B7" stroke-width="1.337"/>
<path d="M169.087,44.565c-0.477,2.199-0.066,4.748,1.216,6.495 c1.379,1.875,3.459,0.806,3.926-1.363c0.477-2.199,0.072-4.75-1.215-6.498C171.635,41.325,169.555,42.397,169.087,44.565z" fill="#0046B7"/>
<path d="M178.769,44.646c-0.474,2.2-0.069,4.752,1.216,6.501 c1.379,1.875,3.461,0.804,3.928-1.366c0.475-2.199,0.068-4.748-1.216-6.495C181.318,41.415,179.237,42.475,178.769,44.646z" fill="#0046B7"/>
</g>
<path d="M266.316,97.647c-1.26-0.258-0.398-1.66,0.12-2.2c-1.345-0.187-3.211,0.117-3.549,1.694 c-0.052-3.713-0.272-9.268-3.675-11.664c-2.334-1.645-3.616,3.137-5.092,3.997c-0.869,0.507-2.951-0.317-3.957-0.34 c-1.449-0.032-2.932,0.369-3.531,1.827c-1.633,3.965,1.363,8.574,5.252,9.563c-1.361,2.315-2.793,5.078-3.156,7.763 c-0.695,5.136,7.333-1.294,8.6-2.175c-0.433,2.613-0.839,5.537-0.017,8.117c0.303,0.955,1.935,3.885,3.245,3.392 c0.898-0.337,1.165-2.898,1.378-3.693c0.554-2.083,1.022-4.187,1.549-6.276c0.716-2.837,0.556-4.82-1.069-7.296 c1.752,0.643,4.256,1.058,6.055,0.437c0.848-0.291,1.578-1.226,1.08-2.152C269.006,97.633,267.256,97.838,266.316,97.647z" fill="#3366CC"/>
<g xlink:href="#shape28">
<g id="shape28">
<path d="M211.805,151.08c-0.961-6.074-8.891-4.047-12.749-2.473 c2.216-4.39,5.653-11.263,4.172-16.275c-0.978-3.298-5.001-2.589-7.243-1.074c-3.568,2.414-5.613,6.551-7.822,10.113 c-0.322-3.387-1.432-12.548-6.396-12.14c-3.155,0.26-5.038,3.917-6.045,6.504c-1.68,4.314-1.848,9.058-1.787,13.633 c-3.15-0.976-7.363-0.247-8.658,3.177c-1.706,4.513,1.01,9.107,4.426,11.958c-2.387,1.626-8.084,6.866-4.477,9.8 c4.412,3.588,11.342-1.389,14.514-4.509c-1.131,4.775-2.232,12.843,2.498,16.13c4.412,3.067,6.077-5.967,6.276-8.659 c3.419,1.946,8.266,2.808,11.163-0.519c2.615-3.001,1.43-7.486-0.85-10.3C204.446,163.399,212.289,158.459,211.805,151.08z" fill="#5AA7E0"/>
<path d="M195.244,163.372c1.866-1.317,4.18-3.27,4.254-5.758c0.076-2.52-2.711-2.645-4.559-2.145 c1.463-2.142,2.788-4.379,3.956-6.695c-1.978,0.824-3.862,1.865-5.651,3.041c0.547-1.341,2.971-7.351-0.402-7.223 c-1.948,0.074-3.645,2.621-4.652,4.043c0.152-2.332,0.146-4.676-0.072-7.004c-1.34,2.175-2.553,4.43-3.599,6.76 c-0.407-1.909-1.71-5.246-4.128-3.372c-1.887,1.461-2.169,4.405-2.361,6.599c-1.203-0.918-2.553-1.653-3.994-2.12 c0.029,2.028,0.975,4.282,0.428,6.293c-0.258,0.946-1.574,1.202-1.846,2.374c-0.342,1.474,0.319,3.101,1.278,4.207 c-1.421,0.554-2.772,1.284-4.034,2.14c0.982,0.804,2.061,1.495,3.215,2.021c-1.527,1.933-0.287,4.354,2.274,3.385 c1.573-0.595,2.997-1.594,4.644-2.007c2.15-0.538,1.518,4.122,1.578,5.373c0.117,2.366,2.508,5.095,3.774,1.626 c0.917,0.888,1.96,1.642,3.075,2.259c0.119-1.656,0.086-3.324-0.108-4.972c0.97,0.323,2.088,0.345,3.04-0.057 c1.414-0.6,1.277-1.609,1.807-2.803c0.834-1.877,3.912-2.065,5.519-2.925C197.709,165.222,196.541,164.194,195.244,163.372z" fill="#3366CC"/>
<path d="M176.476,161.58c0.683-0.161,1.375-0.271,2.073-0.331c-0.395-1.565-0.547-3.18-0.614-4.791 c1.33,0.656,2.512,1.593,3.509,2.687c0.063-1.102,0.245-2.192,0.491-3.266c0.433,0.679,0.825,1.384,1.164,2.115 c0.549-1.451,1.22-2.853,1.946-4.224c0.031,2.093-0.088,4.195-0.48,6.254c0.623-1.147,1.458-2.164,2.381-3.081 c-0.34,1.291-0.738,2.582-1.398,3.751c1.488-1.338,3.179-2.437,4.939-3.379c-0.766,1.306-1.59,2.582-2.494,3.798 c0.764,0.024,1.523,0.125,2.272,0.274c-0.695,0.746-1.396,1.498-2.229,2.092c1.223,0.537,2.366,1.267,3.334,2.191 c-1.341,0.666-2.734,1.256-4.207,1.563c0.264,0.709,0.469,1.439,0.646,2.174c-0.72-0.094-1.45-0.211-2.112-0.528 c0.078,0.708,0.123,1.418,0.135,2.131c-1.732-1.09-4.201-3.095-3.432-5.449c-0.468,1.532-1.434,2.867-2.546,3.998 c0.396-1.594,1.019-3.187,2.137-4.418c-1.661,1.836-4.437,0.305-6.003-0.852c0.588-0.316,1.191-0.597,1.813-0.84 C177.254,162.907,176.83,162.258,176.476,161.58z" fill="#0046B7"/>
</g>
</g>
<g xlink:href="#shape28">
<path d="M57.302,175.711c3.792-2.796,7.467-7.687,6.223-12.49c-1.124-4.332-5.852-5.227-9.738-4.105 c0.636-7.649,0.908-18.661-5.994-21.738c-6.017-1.918-8.951,7.765-9.853,12.764c-2.606-4.576-6.705-11.705-12.083-12.531 c-3.541-0.542-5.315,4.215-5.301,7.413c0.025,5.092,2.507,9.356,4.375,13.52c-3.228-1.303-12.1-4.567-14.708,1.073 c-1.657,3.585,0.492,7.438,2.207,9.806c2.859,3.951,7.01,6.454,11.145,8.625c-2.761,2.975-4.631,7.949-2.339,11.042 c3.022,4.077,8.764,3.348,13.366,0.997c0.007,0.923,0.144,2.443,0.379,3.824h9.773c1.521-4.237,1.191-8.938,0.6-12.237 c3.601,3.575,10.17,8.727,15.949,5.15C66.692,183.488,59.595,177.246,57.302,175.711z" fill="#5AA7E0"/>
<path d="M48.886,161.54c-0.062-2.69-0.425-6.181-2.61-7.479 c-2.213-1.314-3.995,1.679-4.653,3.948c-1.043-2.651-2.253-5.197-3.629-7.61c-0.447,2.571-0.643,5.145-0.661,7.681 c-0.874-1.255-4.807-6.851-6.713-3.09c-1.101,2.171,0.166,5.275,0.836,7.076c-1.999-1.307-4.102-2.447-6.319-3.345 c1.147,2.531,2.44,4.963,3.902,7.249c-1.955-0.487-5.725-0.691-5.494,2.875c0.179,2.781,2.647,4.531,4.499,5.814 c-1.544,0.871-3.01,1.99-4.292,3.342c1.835,0.959,4.42,1.025,5.895,2.608c0.693,0.745,0.134,2.313,1.021,3.184 c1.117,1.095,2.97,1.166,4.536,0.655c-0.354,1.829-0.51,3.666-0.499,5.468c1.309-0.683,2.574-1.526,3.738-2.535 c0.817,2.619,3.729,2.443,4.395-0.837c0.41-2.016,0.367-4.064,0.983-6.071c0.806-2.62,4.602,0.353,5.759,0.898 c2.19,1.028,6.068-0.257,3.718-3.341c1.345-0.571,2.645-1.345,3.867-2.267c-1.413-0.939-2.927-1.72-4.521-2.312 c0.87-0.904,1.56-2.12,1.77-3.36c0.31-1.843-0.676-2.188-1.429-3.351c-1.183-1.831,0.493-5.297,0.685-7.478 C52.02,159.743,50.399,160.521,48.886,161.54z" fill="#3366CC"/>
<path d="M36.038,181.233c0.265-0.827,0.581-1.64,0.946-2.435 c-1.639-0.332-3.177-0.955-4.661-1.668c1.384-1.137,2.932-1.974,4.509-2.532c-0.95-0.606-1.817-1.34-2.632-2.135 c0.868-0.143,1.735-0.229,2.592-0.241c-0.971-1.312-1.825-2.732-2.618-4.2c1.893,0.991,3.705,2.149,5.315,3.585 c-0.655-1.244-1.065-2.656-1.334-4.116c0.953,1.004,1.871,2.073,2.523,3.368c-0.307-2.286-0.279-4.676-0.068-7.066 c0.711,1.478,1.361,3.005,1.908,4.591c0.479-0.825,1.025-1.609,1.607-2.357c0.252,1.126,0.507,2.261,0.539,3.467 c1.214-1.079,2.553-1.975,3.96-2.584c-0.207,1.795-0.513,3.612-1.12,5.375c0.793,0.059,1.57,0.191,2.334,0.356 c-0.516,0.743-1.058,1.486-1.738,2.057c0.681,0.261,1.344,0.559,1.99,0.894c-2.015,1.366-5.29,3.092-6.938,1.097 c1.092,1.262,1.71,2.973,2.057,4.746c-1.191-1.212-2.246-2.674-2.678-4.502c0.65,2.718-2.384,5.011-4.359,6.163 c0.068-0.798,0.179-1.599,0.333-2.398C37.693,181.03,36.858,181.176,36.038,181.233z" fill="#0046B7"/>
</g>
<g xlink:href="#shape32">
<g id="shape32">
<path d="M104.445,87.26c-0.586-2.396-2.552-3.894-4.92-4.305c-0.453-0.078-2.238,0.118-2.168-0.394 c0.109-0.813,0.412-1.619,0.662-2.396c1.331-4.136,2.824-8.033,2.25-12.506c-0.551-4.27-3.516-7.895-7.43-4.457 c-2.611,2.292-4.583,5.572-6.053,8.693c-0.868-4.043-1.429-8.797-4.311-11.997c-1.8-1.999-4.901-3.152-6.625-0.497 c-2.822,4.343-2.301,11.621-1.703,16.551c-3.278-2.633-11.618-6.92-13.403-0.346c-1.029,3.795,1.098,9.19,3.475,12.162 c1.135,1.416,2.882,2.727,3.455,4.509c0.371,1.151-0.897,1.496-1.594,2.136c-1.215,1.117-2.157,2.607-2.532,4.222 c-1.503,6.466,6.083,7.856,10.694,6.74c-0.711,2.459-1.477,5.588-0.613,8.093c0.863,2.505,3.682,2.222,5.341,0.735 c3.482-3.119,5.491-9.325,5.988-13.875c1.808,3.668,6.231,9.116,10.872,8.469c5.731-0.8,2.498-8.015,0.299-10.746 C100.406,96.217,105.045,92.432,104.445,87.26z" fill="#8CC2EA"/>
<path d="M97.52,82.729c-1.559,0.068-3.095,0.42-4.55,0.971c0.629-2.125,1.527-5.989-0.777-7.52 c-1.649-1.098-3.501,1.654-4.282,2.741c-0.182-2.468-0.556-4.919-1.088-7.335c-1.014,2.125-1.845,4.336-2.527,6.59 c-0.475-1.65-1.488-5.323-3.902-4.636c-2.498,0.718-2.016,4.507-2.058,6.46c-1.29-1.567-2.725-3.019-4.317-4.279 c0.296,2.484,0.765,4.949,1.408,7.367c-1.656-0.992-4.137-1.279-4.961,0.881c-0.864,2.263,0.599,4.87,1.932,6.627 c-1.518,0.472-2.969,1.16-4.287,2.051c1.029,1.033,4.369,2.719,4.177,4.325c-0.28,2.358,1.164,3.958,3.615,3.841 c-0.74,1.508-1.347,3.081-1.803,4.697c1.311-0.303,2.587-0.762,3.786-1.371c-0.028,1.938,1.39,2.677,2.896,1.428 c1.782-1.477,2.559-4.015,3.137-6.153c0.698-2.584,4.041,1.561,4.967,2.27c2.105,1.611,4.512,0.251,3.637-2.448 c1.296-0.223,2.562-0.619,3.767-1.144c-0.894-1.137-1.918-2.171-3.06-3.057c2.127-1.366,3.299-3.558,1.981-5.885 C94.415,87.742,96.976,84.166,97.52,82.729z" fill="#5AA7E0"/>
<path d="M94.697,88.767c-0.959-0.684-2.199-0.646-3.302-0.448c0.656-1.504,1.194-3.059,1.617-4.645 c-1.885,0.715-3.641,1.753-5.207,3.018c0.342-2.596,0.33-5.228,0.123-7.834c-0.964,1.552-1.733,3.217-2.399,4.916 c-0.282-1.905-0.681-3.792-1.228-5.639c-0.799,2.69-1.399,5.44-1.75,8.224c-1.171-2.285-2.59-4.445-4.233-6.419 c0.062,1.986,0.313,3.965,0.673,5.918c-1.081-1.068-2.259-2.049-3.579-2.809c0.624,2.361,1.408,4.683,2.403,6.914 c-1.827-0.134-3.674,0.09-5.424,0.629c0.864,1.136,1.826,2.195,2.869,3.171c-0.822,0.43-2.611,1.261-2.658,2.354 c-0.061,1.429,3.825,1.982,4.783,2.157c-0.539,0.828-1.018,1.692-1.508,2.55c0.939-0.06,1.871-0.228,2.778-0.477 c-0.461,1.23-0.809,2.521-0.841,3.842c1.719-0.895,3.34-2.072,4.604-3.553c0.383-0.449,2.133-4.22,1.84-4.294 c0.96,0.243,1.617,1.734,2.516,2.227c1.741,0.953,3.854,0.995,5.766,0.667c-0.415-1.119-1.153-2.084-1.983-2.929 c0.941-0.314,1.843-0.739,2.679-1.273c-0.685-0.533-1.416-1.007-2.177-1.421C92.513,92.197,93.689,90.522,94.697,88.767z" fill="#3366CC"/>
<path d="M90.897,93.635c-0.594-0.323-1.208-0.6-1.844-0.83c0.904-1.368,1.607-2.856,2.232-4.369 c-1.499,0.289-2.93,0.879-4.238,1.66c0.318-1.045,0.519-2.123,0.663-3.205c-0.642,0.532-1.257,1.099-1.832,1.703 c-0.018-1.497-0.163-2.99-0.381-4.472c-0.743,1.953-1.357,3.962-1.702,6.025c-0.19-1.225-0.638-2.393-1.182-3.502 c-0.136,1.291-0.197,2.605,0.026,3.89c-0.946-1.634-2.163-3.096-3.5-4.423c0.274,1.42,0.613,2.83,1.049,4.21 c-0.737-0.17-1.488-0.263-2.241-0.31c0.395,0.875,0.797,1.76,1.383,2.53c-1.355,0.202-2.683,0.613-3.904,1.239 c1.041,0.969,2.162,1.875,3.435,2.522c-0.494,0.602-0.937,1.241-1.359,1.894c0.724,0.125,1.449,0.133,2.176,0.028 c-0.319,0.646-0.606,1.306-0.862,1.978c2.039-0.603,4.982-1.784,5.122-4.289c-0.094,1.532,0.358,3.049,1.024,4.412 c0.168-1.574,0.152-3.234-0.493-4.708c1.054,2.236,4.195,1.354,5.963,0.693c-0.447-0.447-0.92-0.861-1.422-1.246 C89.708,94.689,90.329,94.186,90.897,93.635z" fill="#0046B7"/>
</g>
</g>
<g xlink:href="#shape32">
<path d="M249.991,109.125c-0.706-2.976-3.075-4.836-5.929-5.347 c-0.546-0.097-2.697,0.146-2.612-0.489c0.132-1.01,0.497-2.011,0.798-2.976c1.604-5.137,3.404-9.977,2.711-15.532 c-0.662-5.304-4.235-9.806-8.953-5.536c-3.146,2.847-5.522,6.92-7.294,10.796c-1.046-5.021-1.722-10.926-5.194-14.9 c-2.17-2.483-5.906-3.915-7.983-0.618c-3.4,5.394-2.772,14.434-2.052,20.557c-3.95-3.27-14-8.595-16.15-0.43 c-1.24,4.713,1.322,11.414,4.188,15.105c1.367,1.759,3.473,3.387,4.162,5.6c0.447,1.43-1.08,1.858-1.92,2.653 c-1.465,1.388-2.6,3.238-3.051,5.244c-1.812,8.031,7.33,9.757,12.886,8.371c-0.856,3.054-1.78,6.94-0.739,10.051 s4.438,2.76,6.437,0.913c4.196-3.874,6.616-11.582,7.216-17.233c2.178,4.556,7.508,11.322,13.1,10.519 c6.906-0.994,3.011-9.955,0.361-13.347C245.124,120.249,250.715,115.548,249.991,109.125z" fill="#8CC2EA"/>
<path d="M241.646,103.497c-1.878,0.084-3.729,0.521-5.483,1.206 c0.758-2.639,1.84-7.438-0.936-9.34c-1.987-1.364-4.219,2.054-5.16,3.404c-0.219-3.065-0.67-6.109-1.311-9.11 c-1.223,2.639-2.224,5.385-3.045,8.185c-0.572-2.049-1.793-6.611-4.703-5.758c-3.01,0.892-2.429,5.598-2.479,8.023 c-1.555-1.946-3.284-3.75-5.203-5.314c0.357,3.085,0.922,6.147,1.697,9.15c-1.996-1.232-4.985-1.588-5.979,1.094 c-1.041,2.811,0.723,6.048,2.328,8.231c-1.829,0.586-3.577,1.44-5.166,2.547c1.24,1.283,5.266,3.377,5.033,5.372 c-0.337,2.929,1.403,4.916,4.356,4.771c-0.892,1.873-1.623,3.826-2.173,5.833c1.58-0.376,3.117-0.946,4.563-1.703 c-0.033,2.407,1.675,3.325,3.49,1.773c2.146-1.834,3.083-4.987,3.779-7.642c0.842-3.209,4.869,1.939,5.985,2.819 c2.536,2.001,5.437,0.312,4.383-3.041c1.562-0.277,3.086-0.769,4.538-1.421c-1.076-1.412-2.312-2.696-3.686-3.796 c2.563-1.697,3.975-4.419,2.388-7.31C237.904,109.723,240.99,105.282,241.646,103.497z" fill="#5AA7E0"/>
<path d="M238.244,110.996c-1.154-0.85-2.648-0.802-3.979-0.556 c0.791-1.868,1.439-3.799,1.949-5.769c-2.271,0.888-4.388,2.177-6.275,3.748c0.412-3.224,0.398-6.493,0.148-9.73 c-1.161,1.928-2.088,3.996-2.891,6.106c-0.34-2.366-0.82-4.709-1.479-7.003c-0.963,3.341-1.687,6.756-2.108,10.214 c-1.412-2.838-3.121-5.521-5.102-7.972c0.075,2.466,0.377,4.924,0.812,7.35c-1.303-1.327-2.722-2.545-4.313-3.489 c0.752,2.932,1.697,5.816,2.896,8.587c-2.201-0.167-4.428,0.112-6.536,0.781c1.041,1.411,2.2,2.727,3.457,3.938 c-0.991,0.534-3.146,1.566-3.202,2.925c-0.074,1.775,4.608,2.462,5.763,2.679c-0.649,1.028-1.227,2.102-1.817,3.167 c1.132-0.074,2.255-0.283,3.348-0.592c-0.555,1.528-0.975,3.131-1.014,4.771c2.072-1.111,4.025-2.573,5.549-4.413 c0.461-0.558,2.57-5.241,2.217-5.333c1.156,0.302,1.948,2.153,3.031,2.766c2.098,1.184,4.645,1.236,6.948,0.829 c-0.5-1.39-1.39-2.588-2.39-3.638c1.135-0.39,2.221-0.918,3.229-1.581c-0.826-0.662-1.707-1.251-2.623-1.765 C235.611,115.256,237.03,113.176,238.244,110.996z" fill="#3366CC"/>
<path d="M233.666,117.042c-0.716-0.401-1.455-0.746-2.223-1.031 c1.09-1.699,1.938-3.547,2.689-5.426c-1.806,0.359-3.53,1.092-5.106,2.062c0.384-1.298,0.626-2.637,0.8-3.981 c-0.774,0.661-1.516,1.365-2.208,2.115c-0.022-1.859-0.196-3.713-0.46-5.554c-0.895,2.426-1.635,4.921-2.051,7.483 c-0.229-1.521-0.768-2.972-1.424-4.349c-0.164,1.604-0.237,3.235,0.031,4.831c-1.14-2.029-2.606-3.845-4.217-5.493 c0.33,1.764,0.738,3.515,1.264,5.229c-0.889-0.211-1.793-0.326-2.701-0.385c0.477,1.087,0.961,2.186,1.667,3.142 c-1.633,0.251-3.233,0.762-4.704,1.539c1.254,1.204,2.605,2.329,4.139,3.132c-0.595,0.748-1.129,1.541-1.637,2.353 c0.872,0.155,1.746,0.165,2.621,0.035c-0.384,0.802-0.73,1.622-1.038,2.457c2.457-0.749,6.003-2.216,6.172-5.327 c-0.113,1.903,0.431,3.787,1.233,5.48c0.203-1.955,0.184-4.017-0.594-5.847c1.27,2.777,5.055,1.68,7.186,0.86 c-0.539-0.555-1.108-1.069-1.713-1.547C232.232,118.351,232.98,117.727,233.666,117.042z" fill="#0046B7"/>
</g>
<g xlink:href="#shape37">
<g id="shape37">
<path d="M132.474,144.215c-1.142-4.183-5.282-6.417-9.386-6.646c1.873-5.016,3.481-10.297,3.449-15.701 c-0.021-3.608-0.647-8.244-3.752-10.58c-5.838-4.393-11.967,6.705-13.898,10.798c-1.479-6.077-2.867-16.566-9.965-18.825 c-4.026-1.281-5.923,3.554-6.605,6.596c-1.154,5.151-0.513,10.511,0.272,15.665c-3.612-3.166-13.764-10.418-16.912-3.055 c-3.507,8.199,4.769,18.198,9.886,23.609c-4.251,2.372-7.659,7.653-4.935,12.397c2.615,4.557,8.447,5.355,13.203,4.731 c-0.897,3.3-2.728,12.767,2.875,13.058c3.074,0.159,5.344-3.335,6.701-5.629c2.238-3.779,3.842-7.997,4.202-12.398 c2.427,4.806,9.397,13.92,15.923,12.193c5.922-1.568,0.672-10.818-1.453-13.56C127.543,155.129,133.436,150.633,132.474,144.215 M112.066,129.565c3.421-3.543,5.868,1.34,5.889,4.496c0.008,1.299,0.057,3.272-1.088,4.173 c-1.723,1.356-4.332,1.839-6.195,3.181C111.027,138,109.475,132.246,112.066,129.565 M109.945,145.42 c1.702-0.828,3.551-1.371,5.439-1.527c-0.566,1.387-0.947,2.896-1.832,4.129c-1.432,1.998-3.158-0.17-4.947,0.474 C109.211,147.549,109.633,146.496,109.945,145.42 M107.221,149.701c-0.244,0.362-0.506,0.616-0.76,0.792 C106.594,150.227,106.854,149.914,107.221,149.701 M106.447,150.481c-0.878-1.559,0.615-3.233,1.813-4.078 C108.084,147.934,107.055,149.118,106.447,150.481 M107.869,149.48c1.254-0.152,2.344,0.759,3.303,1.422 c-1.391,1.27-3.631,1.458-4.678-0.339C107.021,150.288,107.479,149.928,107.869,149.48 M108.35,143.343 c-1.816,1.515-2.328,4.13-2.27,6.38c-1.563-3.877,0.237-8.49,1.603-12.156C108.018,139.477,108.271,141.405,108.35,143.343 M98.301,128.323c0.322-4.428,3.97-6.133,6.301-1.727c2.302,4.354-0.166,9.313-0.576,13.807 C101.992,136.471,97.976,132.901,98.301,128.323 M99.976,147.489c0.681,0.923,1.504,1.754,2.474,2.372 c-1.251,0.377-2.119,1.43-2.945,2.374c-1.689-1.014-3.176-2.326-4.567-3.71C96.537,147.881,98.254,147.556,99.976,147.489 M99.479,139.223c2.36,2.486,4.192,5.338,5.414,8.545c-0.823-1.25-2.286-1.8-3.386-2.744 C99.883,143.631,99.906,141.155,99.479,139.223 M103.459,150.706c0.594-0.53,1.426,0.16,2.058,0.127 c-0.286,1.919-2.196,2.833-3.972,2.331C102.088,152.278,102.681,151.405,103.459,150.706 M104.209,150.287 c0.377-0.102,1.41-0.205,1.315,0.481C105.047,150.713,104.608,150.553,104.209,150.287 M103.504,149.721 c-0.616-0.605-1.035-1.374-1.394-2.152c1.571,0.198,3.622,0.918,3.457,2.864C104.976,149.993,104.242,149.743,103.504,149.721 M88.382,135.04c1.188-2.124,4.761-1.626,6.198,0.033c0.817,0.941,0.979,2.365,1.302,3.521c0.521,1.857,1.367,3.676,2.177,5.422 c-1.323-0.22-2.666-0.305-4.006-0.257c-1.148,0.042-2.737,0.706-3.541-0.443C88.872,140.975,87.394,137.94,88.382,135.04 M96.023,157.482c-3.114-0.139-6.103-2.975-4.515-6.17c1.92,1.356,4.01,2.521,6.287,3.149 C97.14,155.428,96.551,156.44,96.023,157.482 M102.246,164.469c-1.967,1.824-5.103-1.232-2.601-3.107 c2.944-2.206,5.748-3.569,6.519-7.574C106.623,157.557,105.031,161.889,102.246,164.469 M106.777,153.95 c-0.361-0.824-0.393-1.723-0.484-2.602C106.689,152.155,106.777,153.065,106.777,153.95 M106.28,151.208 c0.661,0.992-0.548,2.73-1.187,3.445c-1.396,1.56-3.512,2.203-5.504,2.568c0.66-1.771,1.688-2.193,3.287-2.988 c1.762-0.874,2.664-2.645,2.941-4.525c0.999,1.469,2.295,2.759,4.166,2.878c1.916,0.12,3.15-0.265,4.598,1.272 C111.207,154.747,108.33,154.203,106.28,151.208 M117.474,160.723c-1.181,2.295-4.076,0.287-5.419-0.732 c-2.258-1.714-4.028-3.807-4.803-6.577c1.551,2.448,4.254,3.84,7.074,4.159C116.344,157.801,118.281,158.206,117.474,160.723 M119.758,151.374c-0.528,0.495-1.159,0.865-1.799,1.197c-0.906-0.762-1.862-1.465-2.869-2.09 c1.853-1.594,3.326-3.58,4.574-5.668C121.799,146.436,121.629,149.619,119.758,151.374" fill="#3366CC"/>
</g>
</g>
<g xlink:href="#shape37">
<path d="M265.717,60.743c0.444-4.941-3.365-9.186-7.971-11.295c4.248-4.45,8.303-9.3,10.531-15.027 c1.486-3.824,2.711-9.009,0.133-12.89c-4.85-7.3-16.523,1.642-20.453,5.089c0.852-7.096,3.656-18.815-3.531-24.432 c-4.078-3.186-8.277,1.062-10.334,3.967c-3.48,4.919-4.992,10.876-6.252,16.682c-2.813-4.99-11.408-17.274-18.101-10.924 c-7.454,7.071-2.159,21.405,1.437,29.453c-5.865,0.573-11.983,4.604-10.85,10.858c1.088,6.007,7.438,9.504,13.148,11.008 c-2.41,3.08-8.476,12.253-2.176,15.11c3.455,1.567,7.52-1.094,10.037-2.901c4.148-2.976,7.753-6.705,10.011-11.193 c0.767,6.184,4.937,18.989,13.139,20.133c7.444,1.037,5.303-11.129,4.017-14.994C255.492,70.036,264.129,67.964,265.717,60.743 M248.469,35.973c5.404-2.188,6.162,4.086,4.863,7.432c-0.535,1.376-1.306,3.484-2.994,3.916 c-2.543,0.649-5.736-0.028-8.434,0.543C243.743,44.416,244.375,37.627,248.469,35.973 M239.395,51.767 c2.297-0.101,4.644,0.167,6.873,0.861c-1.23,1.208-2.299,2.63-3.83,3.531c-2.479,1.46-3.548-1.617-5.867-1.75 C237.66,53.683,238.586,52.762,239.395,51.767 M234.478,55.052c-0.431,0.271-0.837,0.421-1.202,0.491 C233.54,55.323,233.969,55.11,234.478,55.052 M233.266,55.524c-0.354-2.047,2.059-3.138,3.785-3.486 C236.208,53.577,234.531,54.36,233.266,55.524 M235.313,55.113c1.501,0.41,2.369,1.869,3.189,3.006 c-2.125,0.71-4.771-0.111-5.217-2.486C234.004,55.582,234.68,55.41,235.313,55.113 M238.436,48.845 c-2.717,0.775-4.398,3.306-5.273,5.711c-0.167-4.809,3.828-8.866,6.93-12.12C239.675,44.607,239.156,46.76,238.436,48.845 M233.214,28.397c2.224-4.534,7.118-4.677,7.943,1.041c0.813,5.649-4.093,9.769-6.445,14.332 C234.028,38.688,230.922,33.087,233.214,28.397 M227.102,49.417c0.395,1.286,0.988,2.539,1.842,3.633 c-1.592-0.17-3.027,0.547-4.37,1.169c-1.512-1.841-2.665-3.904-3.681-6C222.996,48.267,225.102,48.705,227.102,49.417 M229.996,40.454c1.664,3.702,2.569,7.55,2.625,11.496c-0.42-1.696-1.865-2.943-2.73-4.441 C228.613,45.297,229.677,42.691,229.996,40.454 M229.746,54.403c0.902-0.291,1.566,0.817,2.305,1.07 c-1.132,1.898-3.704,1.996-5.527,0.657C227.516,55.44,228.561,54.787,229.746,54.403 M230.781,54.301 c0.474,0.063,1.701,0.424,1.306,1.106C231.563,55.133,231.127,54.764,230.781,54.301 M230.211,53.382 c-0.453-0.92-0.611-1.923-0.696-2.909c1.718,0.924,3.767,2.618,2.762,4.6C231.783,54.339,231.046,53.741,230.211,53.382 M219.032,30.984c2.251-1.705,6.138,0.447,7.089,2.854c0.542,1.367,0.131,2.945,0.018,4.315c-0.181,2.2,0.027,4.507,0.223,6.721 c-1.424-0.834-2.928-1.536-4.483-2.095c-1.333-0.478-3.433-0.499-3.872-2.079C217.105,37.479,216.684,33.599,219.032,30.984 M218.386,58.182c-3.511-1.564-5.747-5.921-2.589-8.576c1.632,2.307,3.539,4.489,5.885,6.189 C220.525,56.518,219.428,57.32,218.386,58.182 M222.59,68.398c-3.019,1.033-5.332-3.625-1.68-4.468 c4.3-0.992,8.083-1.157,10.645-5.04C230.5,63.083,226.862,66.938,222.59,68.398 M232.189,59.341 c-0.069-1.036,0.271-2,0.535-2.971C232.841,57.404,232.561,58.406,232.189,59.341 M232.77,56.217 c0.342,1.349-1.772,2.636-2.803,3.102c-2.254,1.014-4.948,0.73-7.385,0.209c1.499-1.571,2.854-1.55,5.02-1.663 c2.385-0.123,4.16-1.584,5.267-3.444c0.529,2.007,1.474,3.96,3.568,4.938c2.146,0.999,3.721,1.153,4.736,3.437 C236.932,62.199,233.863,60.315,232.77,56.217 M241.609,71.367c-2.314,1.888-4.791-1.551-5.903-3.24 c-1.868-2.838-3.021-5.856-2.747-9.137c0.75,3.293,3.265,5.994,6.363,7.615C241.539,67.764,243.59,69.074,241.609,71.367 M248.145,62.525c-0.813,0.282-1.691,0.386-2.563,0.446c-0.72-1.218-1.521-2.396-2.411-3.514c2.79-0.842,5.311-2.271,7.617-3.91 C252.553,58.234,251.025,61.521,248.145,62.525" fill="#3366CC"/>
</g>
<g xlink:href="#shape50">
<g id="shape50">
<path d="M115.547,43.334c-2.278,2.08-2.246,5.846-2.313,8.682c-0.101,4.308,0.767,8.59,2.134,12.658 c-1.496-2.221-4.477,0.001-5.828,1.233c4.861,1.226-2.539,6.189-3.465,7.851c-1.332,2.392,2.163,1.786,3.383,1.351 c3.227-1.153,6.088-3.745,8.172-6.394c-0.416,2.031-1.332,4.196-0.731,6.285c0.562,1.953,1.989,3.67,3.074,5.358 c1.293,2.01,2.676,3.961,4.141,5.85c0.89,1.148,2.734,4.499,4.353,4.595c2.149,0.125,3.182-4.437,3.264-5.97 c0.236-4.446-1.87-9.469-4.089-13.207c2.923-0.065,12.931,1.4,13.678-2.982c0.335-1.968-1.528-3.925-2.435-5.495 c-1.631-2.82-3.734-3.3-6.373-4.908c2.72-2.901,4.843-6.492,4.988-10.555c0.096-2.703-0.084-6.962-2.613-8.621 c-3.071-2.016-6.581,1.334-8.506,3.451c-1.018,1.12-1.901,3.049-3.657,2.168C120.283,43.459,118.33,42.779,115.547,43.334z" fill="#0046B7"/>
</g>
</g>
<g xlink:href="#shape50">
<path d="M239.547,142.668c-2.278,2.08-2.246,5.846-2.313,8.682 c-0.101,4.308,0.767,8.59,2.134,12.658c-1.496-2.221-4.477,0.001-5.828,1.233c4.861,1.226-2.539,6.189-3.465,7.851 c-1.332,2.392,2.163,1.786,3.383,1.351c3.227-1.153,6.088-3.745,8.172-6.394c-0.416,2.031-1.332,4.196-0.731,6.285 c0.562,1.953,1.989,3.67,3.074,5.358c1.293,2.01,2.676,3.961,4.141,5.85c0.89,1.148,2.734,4.499,4.353,4.595 c2.149,0.125,3.182-4.437,3.264-5.97c0.236-4.446-1.87-9.469-4.089-13.207c2.923-0.065,12.931,1.4,13.678-2.982 c0.335-1.968-1.528-3.925-2.435-5.495c-1.631-2.82-3.734-3.3-6.373-4.908c2.72-2.901,4.843-6.492,4.988-10.555 c0.096-2.703-0.084-6.962-2.613-8.621c-3.071-2.016-6.581,1.334-8.506,3.451c-1.018,1.12-1.901,3.049-3.657,2.168 C244.283,142.793,242.33,142.113,239.547,142.668z" fill="#0046B7"/>
</g>
<g xlink:href="#shape50">
<path d="M100.207,11.52c2.021,1.481,1.992,4.163,2.052,6.182c0.09,3.067-0.679,6.116-1.893,9.013 c1.327-1.582,3.972,0,5.17,0.878c-4.313,0.873,2.251,4.406,3.073,5.59c1.182,1.703-1.919,1.271-3,0.962 c-2.863-0.821-5.401-2.667-7.249-4.553c0.369,1.446,1.182,2.988,0.648,4.475c-0.499,1.391-1.765,2.613-2.727,3.815 c-1.147,1.431-2.374,2.82-3.673,4.165c-0.79,0.817-2.425,3.204-3.86,3.272c-1.907,0.089-2.822-3.159-2.895-4.251 c-0.209-3.166,1.659-6.742,3.627-9.403c-2.593-0.046-11.47,0.997-12.132-2.123c-0.297-1.401,1.355-2.795,2.16-3.913 c1.446-2.008,3.312-2.35,5.653-3.495c-2.413-2.065-4.296-4.622-4.424-7.515c-0.086-1.924,0.074-4.957,2.318-6.138 c2.724-1.435,5.837,0.95,7.544,2.457c0.903,0.798,1.687,2.171,3.245,1.544C96.006,11.609,97.738,11.125,100.207,11.52z" fill="#0046B7"/>
</g>
<g xlink:href="#shape50">
<path d="M29.104,94.998c-1.66,0.351-2.494,2.438-3.17,3.976c-1.026,2.338-1.542,5-1.747,7.72 c-0.279-1.746-2.337-1.562-3.322-1.355c2.261,2.373-2.723,2.524-3.583,3.117c-1.236,0.853,0.726,1.739,1.46,1.925 c1.945,0.491,4.024,0.062,5.71-0.671c-0.676,0.974-1.644,1.847-1.802,3.208c-0.148,1.272,0.209,2.716,0.394,4.025 c0.221,1.559,0.502,3.116,0.84,4.668c0.205,0.943,0.41,3.433,1.233,4.051c1.094,0.819,2.664-1.334,3.053-2.15 c1.128-2.367,1.164-5.87,0.85-8.704c1.541,0.984,6.434,5.284,7.814,3.13c0.62-0.967,0.089-2.696-0.029-3.877 c-0.213-2.123-1.203-3.122-2.217-4.929c2.075-0.649,3.995-1.887,4.989-4.075c0.662-1.456,1.53-3.865,0.584-5.662 c-1.147-2.183-3.737-1.562-5.22-1.067c-0.785,0.262-1.682,1.016-2.399-0.082C31.548,96.72,30.682,95.664,29.104,94.998z" fill="#0046B7"/>
</g>
<path d="M163.207,2.166c4.791,0.687,4.547,9.136,4.594,12.618c0.357-1.655,2.318-1.973,3.729-1.777 c-2.32,2.346,1.948,2.519,3.361,3.136c1.589,0.694,0.132,1.651-0.82,2.023c-2.199,0.859-4.557,0.809-6.765-0.006 c0.772,1.18,1.843,2.229,1.849,3.735c0.008,1.41-0.531,2.887-0.806,4.263c-0.347,1.739-0.751,3.466-1.212,5.179 c-0.354,1.314-0.596,3.458-1.447,4.544c-1.004,1.279-3.166-1.283-3.43-2.187c-0.899-3.073-0.813-6.358-0.295-9.489 c-1.225,0.852-9.469,7.455-9.029,2.574c0.259-2.888,1.863-5.971,3.316-8.441c-3.984-1.012-8.236-6.803-5.174-10.816 c1.889-2.473,4.537-0.734,6.832-0.503c1.062,0.107,1.514-1.014,1.91-1.79C160.545,3.812,161.803,2.857,163.207,2.166z" fill="#5AA7E0"/>
<path d="M147.818,94.161c-4.563,0.666-4.333,8.699-4.379,12.021c-0.337-1.577-2.205-1.881-3.548-1.694 c2.709,2.811-3.095,1.878-3.894,3.452c-1.293,2.551,6.822,1.859,7.914,1.457c-2.984,4.56-0.477,10.672,0.998,15.426 c0.744,2.396,2.486,1.821,3.608-0.145c1.47-2.578,0.94-6.75,0.481-9.525c1.291,0.896,9.266,7.277,8.541,2.122 c-0.373-2.657-1.75-5.413-3.102-7.71c3.893-0.988,8.422-7.276,4.531-10.74c-1.883-1.676-4.159-0.321-6.25-0.23 c-0.875,0.038-1.426-1.364-1.879-1.921C150.008,95.651,149.01,94.749,147.818,94.161z" fill="#8CC2EA"/>
</svg>