<?xml version="1.0" encoding="UTF-8"?>
<!DOCTYPE svg PUBLIC "-//W3C//DTD SVG 1.1 Tiny//EN" "http://www.w3.org/Graphics/SVG/1.1/DTD/svg11-tiny.dtd">
<svg baseProfile="tiny" height="44" viewBox="-3.072 -3.562 44 44" width="44" xmlns="http://www.w3.org/2000/svg" xmlns:xlink="http://www.w3.org/1999/xlink">
<path d="M31.592,37.774c-0.006-0.007-0.746-0.206-1.203-0.9l-4.43-4.828 c-2.638,1.555-5.652,2.391-8.74,2.391C7.723,34.436,0,26.711,0,17.218C0,7.723,7.723,0,17.219,0s17.219,7.723,17.219,17.218 c0,2.608-0.584,5.146-1.703,7.463c0.033,0.028,5.141,4.713,5.141,4.713c0.679,0.536,0.896,1.201,0.896,1.203 c1.422,1.421,1.674,4.188-0.658,6.521C35.832,39.396,32.967,39.148,31.592,37.774z" fill="#FFFFFF" fill-opacity="0.6"/>
<linearGradient gradientUnits="userSpaceOnUse" id="_50" x1="17.22" x2="17.22" y1="-10.22" y2="22.42">
<stop offset="0" stop-color="#CCCCCC"/>
<stop offset="1" stop-color="#000000"/>
</linearGradient>
<path d="M17.219,32.638c-8.504,0-15.42-6.918-15.42-15.419 c0-8.504,6.916-15.42,15.42-15.42c8.502,0,15.42,6.916,15.42,15.42C32.639,25.72,25.721,32.638,17.219,32.638L17.219,32.638z" fill="url(#_50)" fill-opacity="0.7"/>
<radialGradient cx="17.16" cy="11.42" gradientUnits="userSpaceOnUse" id="_51" r="20.41">
<stop offset="0" stop-color="#E3F5FF"/>
<stop offset="0.34" stop-color="#13A9FF"/>
<stop offset="0.47" stop-color="#00A2FF"/>
<stop offset="0.9" stop-color="#004BB5"/>
<stop offset="1" stop-color="#004BB5"/>
</radialGradient>
<circle cx="17.219" cy="17.218" fill="url(#_51)" r="14.619"/>
<linearGradient gradientUnits="userSpaceOnUse" id="_52" x1="17.41" x2="17.41" y1="3.04" y2="38.38">
<stop offset="0" stop-color="#E3F5FF"/>
<stop offset="0.07" stop-color="#E3F5FF"/>
<stop offset="0.23" stop-color="#74CCFF"/>
<stop offset="0.47" stop-color="#00A2FF"/>
<stop offset="0.9" stop-color="#004BB5"/>
<stop offset="1" stop-color="#004BB5"/>
</linearGradient>
<path d="M28.1,11.905c0,4.311-4.789,6.805-10.693,6.805c-5.906,0-10.695-2.494-10.695-6.805 c0-4.311,4.788-8.806,10.694-8.806C23.311,3.099,28.1,7.595,28.1,11.905z" fill="url(#_52)"/>
<radialGradient cx="17.23" cy="6.12" gradientUnits="userSpaceOnUse" id="_53" r="22.88">
<stop offset="0" stop-color="#FFFFFF"/>
<stop offset="0.15" stop-color="#FFFFFF"/>
<stop offset="1" stop-color="#A7C1E5"/>
</radialGradient>
<path d="M13.057,3.2c1.32-0.391,2.717-0.602,4.162-0.602c1.123,0,2.217,0.127,3.268,0.367 c-1.41,0.301-2.953-0.061-2.953-0.061c-0.139,0.226-0.777,0.107-0.947,0.107s-1.043,0.723-1.863,0.651 c-0.395,0.253-0.744,0.536-1.17,0.396c-0.424-0.141-1.234,0.563-1.547,0.593c-0.42,0.132-0.619,0.101-0.68-0.022 C12.293,4.037,12.688,3.556,13.057,3.2z M6.176,23.353c0.207,0,0.738,0.063,0.803-0.129c0.006-0.082,0.08-2.082,0.08-2.082 l0.795-1.06v-0.844l-2.072-1.34l-0.898-0.975c0,0.003-0.348-1.053-0.674-1.35c-0.273-0.25-0.254-0.797-0.543-1.199 c-0.264-0.365-0.477-0.57-0.645-0.65c-1.336,5.41,0.736,10.01,2.674,12.49c0.279-0.397,0.5-0.84,0.668-1.232 C6.539,24.579,5.484,24.011,6.176,23.353z M7.77,6.599c0-0.264,0.432-0.395,0.432-0.395l0.057,0.207L8.65,6.579 c0,0,0.469-0.508,0.564-0.638C9.307,5.81,9.477,5.306,9.477,5.306l0.818-0.965c-1.838,0.988-3.438,2.36-4.697,4.01 C6.102,7.95,7.77,6.86,7.77,6.599z M15.504,4.284c0.184-0.035,0.605-0.232,0.605-0.232s-0.211-0.09-0.447-0.055 c-0.238,0.036-0.58-0.143-0.766-0.055C15.055,4.14,15.318,4.319,15.504,4.284z M31.34,13.423c-0.049,0-0.078-0.005-0.078-0.005 s-0.084-0.057-0.211-0.138l-0.443-0.881l-0.703-0.056l-1.432-1.206c0,0,0.379,0.971,1.01,1.43c0.408,0.029,0.686-0.026,0.705-0.006 c0.449,1.183-0.51,2.633-1.623,2.902c-0.141-0.605-0.262-0.843-0.441-1.358l-1.947-2.653l-0.112,0.281l0.899,1.369 c0,0,1.504,2.324,1.556,2.783c0.181,0.057,0.317,0.063,0.881-0.143c0.853-0.311,0.365,1.002,0.228,1.37 c-0.51,1.243-0.623,1.144-1.426,1.96c-1.242,0.876-0.576,2.405-0.632,3.642c0,0-1.252,0.842-1.715,1.024 c-0.433,0.613-0.01,1.195-0.226,1.209c-0.659,0.218-1.657,1.236-1.828,1.377c-0.594,0.765-0.956,0.872-1.653,0.814 c-1.942-0.548-1.358-2.566-1.442-2.793c-0.24-0.773-0.994-0.888-0.011-2.361c0.412-0.487,0.035-1.569-0.713-2.619 c-0.346-0.484,0.242-1.608,0.194-1.617c-1.255-0.234-1.515-0.799-1.571-0.941c0,0-2.561,0.512-3.443,0.438 c-0.678-0.053-2.141-1.807-2.424-2.457c-0.283-0.65,0.533-2.84,0.563-3.008c0.027-0.172,1.932-1.49,1.932-1.49l1.293-1.26 L15.75,8.646c0,0,0.16-1.58,0.871-1.182c0.076,0.043,0.479,0.127,0.932,0.086c0.482-0.301-0.527-0.699-0.418-1.107 c0.029-0.098,0.398-0.143,0.025-0.48c-0.6-0.545-0.17-0.938,0.207-1.031c0.41,0.151,0.672,0.521,0.672,1.031 c0,0.508,1.344-0.234,1.424-0.32c-0.598-0.43-0.896-1.113-0.672-1.143c0.227-0.029,1.221-0.29,1.475-0.545 c0.254-0.252,2.141,0.236,2.367,0.264c0.226,0.028,0.158,0.245,0.412,0.245c0.086,0,0.457-0.099,0.906-0.224 C27.547,6.108,30.268,9.427,31.34,13.423z M20.857,5.562c0.146,0.131,0.638,0.4,0.709-0.039c0.072-0.443-0.39-1.115-0.39-1.115 s-0.465,0.113-0.348,0.414C20.949,5.12,20.711,5.431,20.857,5.562z M25.924,9.813c-0.313-0.262-2.023-0.15-2.508-1.273L23.17,8.573 c0,0,0.162,0.792-0.033,0.779c-0.465-0.034-0.945-0.863-0.945-0.863l-0.088-0.352l-1.205-0.682c0,0-0.006,0.201,0.932,1.025 c0,0-0.315,0.54-0.738,0.57c0.107-0.139,0.187-0.563,0.187-0.563l-1.155-0.926c0,0-1.013-0.132-1.267,0.083 c-0.299,0.255-1.131,1.036-1.131,1.036L16.57,9.092l1.043,0.166l1.072-0.32l1.678,0.113l0.273,0.791c0,0,1.84,0.91,2.016,0.727 c0.272-0.283,0.42-0.688,0.83-0.404c0.408,0.281,1.076,0.283,1.558,0.283C25.238,10.507,25.943,10.976,25.924,9.813z M25.619,7.931 c-0.205-0.112-0.502-0.273-0.345-0.48c-0.135-0.219-0.433-0.065-0.642,0.164c-0.207,0.229-0.661-0.104-0.801,0.318 c-0.139,0.422,0.556,0.619,0.652,0.428c0,0,0.441-0.082,0.873,0.086C26.58,8.692,26.197,8.244,25.619,7.931z M28.141,9.253 c-0.395-0.529-0.809-0.943-0.9-1.074c-0.174-0.244,0.1-0.758-0.361-0.536c-0.27,0.479-0.012,0.669,0.459,1.106 c0.328,0.307,0.188,0.537,0.404,0.73C27.961,9.673,28.467,9.694,28.141,9.253z" fill="url(#_53)"/>
<linearGradient gradientUnits="userSpaceOnUse" id="_54" x1="18.32" x2="18.32" y1="7.71" y2="26.38">
<stop offset="0" stop-color="#FFFFFF"/>
<stop offset="0.15" stop-color="#FFFFFF"/>
<stop offset="1" stop-color="#A7C1E5"/>
</linearGradient>
<path d="M13.553,4.06c0.426,0.141,0.775-0.143,1.17-0.396c0.6,0.052,1.229-0.321,1.588-0.524 c-1.574,0.117-3.041,0.49-4.338,1.051c-0.184,0.139-0.395,0.285-0.646,0.439c0.061,0.123,0.26,0.154,0.68,0.022 C12.318,4.622,13.129,3.919,13.553,4.06z M8.65,6.579c0,0,0.469-0.508,0.564-0.638c0.013-0.017,0.03-0.056,0.046-0.086 C9.006,6.073,8.764,6.298,8.545,6.534L8.65,6.579z M27.637,8.635c-0.131-0.313-0.291-0.614-0.471-0.909 c0.014,0.132-0.017,0.328,0.074,0.453C27.291,8.251,27.445,8.417,27.637,8.635z M27.561,13.339c0.346-0.766,0.539-1.584,0.539-2.434 c0-0.451-0.064-0.891-0.166-1.322c-0.07-0.021-0.139-0.057-0.191-0.104c-0.217-0.193-0.076-0.424-0.404-0.73 c-0.471-0.438-0.729-0.627-0.459-1.106c0.099-0.048,0.158-0.056,0.201-0.046c-0.834-1.297-2.135-2.402-3.756-3.191 c-0.137,0.035-0.24,0.058-0.279,0.058c-0.254,0-0.186-0.218-0.412-0.245c-0.225-0.027-2.112-0.516-2.366-0.264 C20.013,4.21,19.019,4.471,18.792,4.5c-0.225,0.029,0.074,0.713,0.671,1.143c-0.08,0.086-1.423,0.828-1.423,0.32 c0-0.51-0.262-0.88-0.672-1.031c-0.377,0.094-0.807,0.486-0.207,1.031c0.373,0.338,0.004,0.383-0.025,0.48 c-0.109,0.408,0.9,0.807,0.418,1.107c-0.453,0.041-0.855-0.043-0.932-0.086C15.91,7.065,15.75,8.646,15.75,8.646l0.773,0.385 l-1.293,1.26c0,0-1.904,1.318-1.932,1.49c-0.029,0.168-0.846,2.357-0.563,3.008c0.283,0.651,1.746,2.404,2.424,2.457 c0.883,0.074,3.443-0.438,3.443-0.438c0.057,0.143,0.316,0.707,1.572,0.941c0.025,0.004-0.137,0.346-0.234,0.73 c3.389-0.602,6.141-2.379,7.404-4.709c-0.205-0.37-0.383-0.668-0.383-0.668l-0.9-1.369l0.113-0.281L27.561,13.339z M20.83,4.821 c-0.117-0.301,0.348-0.414,0.348-0.414s0.461,0.672,0.389,1.115c-0.072,0.439-0.563,0.17-0.709,0.039S20.949,5.12,20.83,4.821z M25.037,10.45c-0.48,0-1.148-0.002-1.558-0.283c-0.41-0.283-0.558,0.121-0.83,0.404c-0.176,0.184-2.017-0.727-2.017-0.727 l-0.272-0.791L18.684,8.94l-1.072,0.32l-1.043-0.166l1.156-0.412c0,0,0.832-0.781,1.131-1.036c0.254-0.215,1.266-0.083,1.266-0.083 l1.156,0.926c0,0-0.078,0.424-0.186,0.563c0.422-0.03,0.738-0.57,0.738-0.57c-0.938-0.824-0.933-1.025-0.933-1.025l1.205,0.682 l0.088,0.352c0,0,0.479,0.829,0.945,0.863c0.194,0.013,0.032-0.779,0.032-0.779l0.246-0.033c0.484,1.123,2.195,1.012,2.508,1.273 C25.943,10.976,25.238,10.507,25.037,10.45z M25.359,8.446c-0.433-0.168-0.873-0.086-0.873-0.086 c-0.098,0.191-0.791-0.006-0.651-0.428c0.139-0.422,0.594-0.09,0.801-0.318c0.209-0.229,0.506-0.383,0.641-0.164 c-0.158,0.207,0.139,0.368,0.344,0.48C26.197,8.244,26.58,8.692,25.359,8.446z M14.896,3.942c0.158,0.197,0.422,0.377,0.607,0.342 c0.184-0.035,0.605-0.232,0.605-0.232s-0.211-0.09-0.447-0.055C15.424,4.033,15.082,3.854,14.896,3.942z" fill="url(#_54)"/>
<linearGradient gradientUnits="userSpaceOnUse" id="_55" x1="25.15" x2="25.15" y1="1.13" y2="28.51">
<stop offset="0" stop-color="#CCCCCC"/>
<stop offset="1" stop-color="#000000"/>
</linearGradient>
<path d="M34.344,37.079c-0.574,0-1.115-0.211-1.48-0.578 c-0.078-0.078-0.148-0.16-0.211-0.25c-0.361-0.117-0.682-0.315-0.932-0.588l-4.629-5.045c-0.344-0.373-0.553-0.853-0.596-1.373 l-1.006-1.005c-1.3,0.687-2.748,1.048-4.232,1.048c-2.41,0-4.676-0.938-6.381-2.644c-3.521-3.524-3.521-9.26,0.002-12.783 c1.705-1.707,3.975-2.646,6.391-2.646c2.412,0,4.682,0.938,6.389,2.646c2.838,2.835,3.453,7.119,1.596,10.614l1.021,1.021 c0.504,0.053,0.973,0.258,1.34,0.594l5.043,4.629c0.281,0.262,0.482,0.583,0.598,0.945c0.086,0.061,0.166,0.127,0.242,0.203 c0.668,0.666,1.043,2.273-0.653,3.975C35.822,36.864,34.92,37.079,34.344,37.079L34.344,37.079z M21.27,13.364 c-1.842,0-3.572,0.715-4.875,2.015c-2.686,2.688-2.684,7.059,0,9.749c1.303,1.301,3.033,2.015,4.875,2.015 c1.838,0,3.57-0.714,4.871-2.015c2.686-2.687,2.686-7.062,0-9.749C24.84,14.079,23.107,13.364,21.27,13.364L21.27,13.364z" fill="url(#_55)" fill-opacity="0.7"/>
<radialGradient cx="32.58" cy="33.6" gradientUnits="userSpaceOnUse" id="_56" r="3.3">
<stop offset="0" stop-color="#FFFFFF"/>
<stop offset="0.1" stop-color="#F7F7F7"/>
<stop offset="0.25" stop-color="#E0E0E0"/>
<stop offset="0.43" stop-color="#BCBCBC"/>
<stop offset="0.65" stop-color="#898989"/>
<stop offset="0.88" stop-color="#494949"/>
<stop offset="1" stop-color="#262626"/>
</radialGradient>
<path d="M36.934,32.434c0.383,0.384,0.674,1.513-0.656,2.845c-1.391,1.39-2.465,1.042-2.846,0.659 c-0.789-0.788,0.088-1.479,1.055-2.445C35.457,32.523,36.248,31.749,36.934,32.434z" fill="url(#_56)"/>
<linearGradient gradientUnits="userSpaceOnUse" id="_57" x1="36.94" x2="35.52" y1="33.16" y2="35.31">
<stop offset="0" stop-color="#FFFFFF"/>
<stop offset="1" stop-color="#808080"/>
</linearGradient>
<path d="M36.879,33.133c0.061,0.156,0.09,0.76-0.303,1.259c-0.312,0.396-0.593,0.442-0.763,0.272 c-0.158-0.156-0.129-0.418,0.278-0.869C36.504,33.346,36.756,32.818,36.879,33.133z" fill="url(#_57)"/>
<linearGradient gradientUnits="userSpaceOnUse" id="_58" x1="29.08" x2="26.46" y1="25.46" y2="28.07">
<stop offset="0" stop-color="#666666"/>
<stop offset="0.27" stop-color="#F2F2F2"/>
<stop offset="1" stop-color="#999999"/>
</linearGradient>
<polygon fill="url(#_58)" points="30.328,26.68 27.695,29.313 25.223,26.84 27.855,24.208 "/>
<radialGradient cx="21.27" cy="20.24" gradientUnits="userSpaceOnUse" id="_59" r="6.16">
<stop offset="0" stop-color="#FFFFFF"/>
<stop offset="0.3" stop-color="#FFFFFF"/>
<stop offset="0.56" stop-color="#FDFDFD"/>
<stop offset="0.66" stop-color="#F6F6F6"/>
<stop offset="0.72" stop-color="#EBEBEB"/>
<stop offset="0.78" stop-color="#DADADA"/>
<stop offset="0.82" stop-color="#C4C4C4"/>
<stop offset="0.86" stop-color="#A8A8A8"/>
<stop offset="0.9" stop-color="#888888"/>
<stop offset="0.94" stop-color="#626262"/>
<stop offset="0.97" stop-color="#373737"/>
<stop offset="0.99" stop-color="#090909"/>
<stop offset="1" stop-color="#000000"/>
</radialGradient>
<circle cx="21.272" cy="20.241" fill="url(#_59)" fill-opacity="0.7" r="6.156"/>
<linearGradient gradientUnits="userSpaceOnUse" id="_60" x1="21.27" x2="21.27" y1="13.66" y2="28.5">
<stop offset="0" stop-color="#666666"/>
<stop offset="1" stop-color="#CCCCCC"/>
</linearGradient>
<path d="M15.443,14.427c-3.217,3.219-3.217,8.435-0.002,11.651c3.219,3.219,8.437,3.219,11.651,0 c3.217-3.218,3.218-8.435,0-11.651C23.877,11.211,18.66,11.211,15.443,14.427z M25.582,24.566c-2.383,2.383-6.247,2.383-8.627,0.001 c-2.381-2.383-2.383-6.245,0-8.628c2.381-2.382,6.245-2.382,8.625,0C27.963,18.32,27.965,22.184,25.582,24.566z" fill="url(#_60)"/>
<linearGradient gradientUnits="userSpaceOnUse" id="_61" x1="21.29" x2="21.29" y1="8.89" y2="16.91">
<stop offset="0" stop-color="#FFFFFF"/>
<stop offset="0.15" stop-color="#FAFAFA"/>
<stop offset="0.34" stop-color="#EBEBEB"/>
<stop offset="0.54" stop-color="#D3D3D3"/>
<stop offset="0.75" stop-color="#B2B2B2"/>
<stop offset="0.97" stop-color="#878787"/>
<stop offset="1" stop-color="#808080"/>
</linearGradient>
<path d="M26.709,16.073c0.395,0.424,0.735,0.885,1.024,1.372c0.228,0.486,0.445-0.041,0.285-0.451 c-0.289-0.742-0.754-1.415-1.312-2.014c-2.985-3.217-7.826-3.217-10.811,0c-0.566,0.611-0.965,1.286-1.314,2.014 c-0.182,0.453,0.02,0.852,0.26,0.503c0.326-0.48,0.646-0.982,1.055-1.424C18.883,12.856,23.723,12.856,26.709,16.073z" fill="url(#_61)"/>
<linearGradient gradientUnits="userSpaceOnUse" id="_62" x1="21.25" x2="21.25" y1="27.15" y2="23.81">
<stop offset="0" stop-color="#FFFFFF"/>
<stop offset="0.21" stop-color="#FAFAFA"/>
<stop offset="0.45" stop-color="#EBEBEB"/>
<stop offset="0.72" stop-color="#D3D3D3"/>
<stop offset="1" stop-color="#B2B2B2"/>
</linearGradient>
<path d="M25.941,24.504c-2.614,2.559-6.703,2.509-9.363,0.002c-1.051-0.99-1.387-0.649,0,0.738 c2.586,2.584,6.775,2.584,9.363-0.002C27.328,23.856,26.928,23.54,25.941,24.504z" fill="url(#_62)"/>
<linearGradient gradientUnits="userSpaceOnUse" id="_63" x1="28.4" x2="32.44" y1="34.19" y2="30.15">
<stop offset="0" stop-color="#EBF7AB"/>
<stop offset="0.49" stop-color="#87B938"/>
<stop offset="1" stop-color="#006300"/>
</linearGradient>
<path d="M36.117,31.31c0.606,0.56,0.627,1.492,0.045,2.075l-1.779,1.777 c-0.584,0.584-1.518,0.563-2.076-0.045l-4.627-5.041c-0.559-0.608-0.537-1.584,0.047-2.166l1.182-1.185 c0.584-0.583,1.559-0.604,2.166-0.046L36.117,31.31z" fill="url(#_63)"/>
<linearGradient gradientUnits="userSpaceOnUse" id="_64" x1="31.86" x2="33.26" y1="30.7" y2="29.3">
<stop offset="0" stop-color="#3B8919"/>
<stop offset="1" stop-color="#E3F0B5"/>
</linearGradient>
<polygon fill="url(#_64)" points="34.428,33.941 28.738,28.013 30.092,26.745 36.066,32.29 "/>
<rect fill="none" height="44" width="44" x="-3.072" y="-3.562"/>
</svg>
