<?xml version="1.0" encoding="UTF-8" standalone="no"?>
<!DOCTYPE svg PUBLIC "-//W3C//DTD SVG 1.1 Tiny//EN" "http://www.w3.org/Graphics/SVG/1.1/DTD/svg11-tiny.dtd">
<svg xmlns="http://www.w3.org/2000/svg" xmlns:xlink="http://www.w3.org/1999/xlink" width="54" height="54" viewBox="0 0 54 54">
<rect fill="none" height="54" width="54"/>
<path d="M51.564,21.896c-0.435-4.54-3.896-8.137-8.392-9.44 c-1.422-1.766-3.588-2.831-5.914-2.826c-2.936,0.004-5.479,1.66-6.752,4.092c-1.272-2.432-3.822-4.088-6.758-4.092 c-2.311-0.005-4.465,1.049-5.887,2.799c-4.295,1.21-7.68,4.494-8.393,8.775c-0.438,0.962-0.713,1.951-0.861,2.932l-6.146,6.92 c-0.678,0.713-1.031,1.614-1.07,2.549c-0.004,0.031-0.006,0.084-0.006,0.158c0.008,1.03,0.383,1.995,1.135,2.754l7.633,8.035 c0.721,0.725,1.678,1.157,2.689,1.157c0.006,0,0.01,0,0.016,0c0.592,0.002,1.172-0.149,1.654-0.39 c1.342-0.668,2.125-2.034,2.15-3.411l0.002-0.056v-1.822c2.65-0.321,6.227-0.762,6.697-0.817c0.617-0.09,1.588-0.235,2.549-1.063 c0.979-0.842,1.4-2.207,1.373-3.387v-0.658c0.109-0.1,0.219-0.205,0.325-0.313c0.847-0.844,1.545-1.813,2.078-2.869 c0.273-0.213,0.535-0.436,0.785-0.668c0.154,0.141,0.312,0.279,0.473,0.412c0.548,1.162,1.291,2.219,2.195,3.125 c2.105,2.111,4.957,3.291,7.938,3.287c2.976,0.004,5.825-1.174,7.93-3.287c2.146-2.146,3.271-5.031,3.271-7.948 C52.281,24.516,52.047,23.177,51.564,21.896z" fill="#FFFFFF" fill-opacity="0.6"/>
<linearGradient id="_15" gradientUnits="userSpaceOnUse" x1="30.26" y1="3.42" x2="30.26" y2="27.18">
<stop stop-color="#CCCCCC" offset="0"/>
<stop stop-color="#000000" offset="1"/>
</linearGradient>
<path d="M40.971,34.625c-2.33,0-4.52-0.906-6.166-2.553 c-0.836-0.838-1.484-1.824-1.926-2.936c-0.998-0.734-1.797-1.615-2.377-2.616c-0.055-0.063-0.111-0.127-0.162-0.189 c-0.633,1.16-1.574,2.189-2.752,2.998c-0.438,1.025-1.057,1.947-1.852,2.742c-1.646,1.646-3.836,2.553-6.164,2.553 c-2.33,0-4.52-0.906-6.166-2.553c-2.682-2.68-3.322-6.716-1.623-10.089c0.408-3.548,3.434-6.491,7.475-7.302 c0.92-1.557,2.566-2.508,4.385-2.508c2.76,0,5.014,2.188,5.119,4.918c0.484-0.286,1.039-0.44,1.604-0.44 c0.592,0,1.17,0.171,1.67,0.481c0.086-2.751,2.351-4.959,5.116-4.959c1.83,0,3.48,0.958,4.402,2.524 c4.205,0.876,7.279,4.091,7.438,7.809c1.37,3.245,0.639,7.071-1.859,9.564C45.488,33.719,43.297,34.625,40.971,34.625L40.971,34.625 z" fill="url(#_15)" fill-opacity="0.7"/>
<path d="M27.941,17.293c0,2.373-1.922,4.297-4.297,4.297c-2.369,0-4.293-1.924-4.293-4.297 c0-2.371,1.924-4.295,4.293-4.295C26.02,12.998,27.941,14.922,27.941,17.293z" fill="#0D0D0D"/>
<path d="M41.449,17.293c0,2.373-1.922,4.297-4.297,4.297c-2.369,0-4.293-1.924-4.293-4.297c0-2.371,1.924-4.295,4.293-4.295 C39.527,12.998,41.449,14.922,41.449,17.293z"/>
<linearGradient id="_16" gradientUnits="userSpaceOnUse" x1="30.37" y1="16.21" x2="30.37" y2="21.11">
<stop stop-color="#004A6E" offset="0"/>
<stop stop-color="#000000" offset="1"/>
</linearGradient>
<path d="M39.238,15.286c-2.908,0-5.486,1.171-7.117,2.982c-0.434-0.481-1.057-0.792-1.756-0.792 s-1.32,0.31-1.754,0.792c-1.631-1.812-4.209-2.982-7.117-2.982c-4.938,0-8.939,3.368-8.939,7.522c0,4.156,4.002,7.523,8.939,7.523 c4.578,0,8.346-2.898,8.871-6.631c0.525,3.732,4.297,6.631,8.873,6.631c4.938,0,8.938-3.367,8.938-7.523 C48.178,18.654,44.176,15.286,39.238,15.286z" fill="url(#_16)"/>
<linearGradient id="_17" gradientUnits="userSpaceOnUse" x1="29.85" y1="20.86" x2="30.1" y2="29.12">
<stop stop-color="#004A6E" offset="0"/>
<stop stop-color="#000000" offset="1"/>
</linearGradient>
<path d="M37.984,16.908c-2.646,0-4.994,0.919-6.479,2.339c-0.396-0.378-0.963-0.62-1.601-0.62 c-0.637,0-1.202,0.242-1.598,0.62c-1.483-1.42-3.833-2.339-6.479-2.339c-4.496,0-8.141,2.643-8.141,5.9c0,3.26,3.645,5.9,8.141,5.9 c4.168,0,7.6-2.271,8.077-5.199c0.479,2.928,3.912,5.199,8.078,5.199c4.496,0,8.144-2.641,8.144-5.9 C46.127,19.551,42.48,16.908,37.984,16.908z" fill="url(#_17)"/>
<radialGradient id="_18" gradientUnits="userSpaceOnUse" cx="19.57" cy="25.91" r="6.02">
<stop stop-color="#D4F1FF" offset="0.3"/>
<stop stop-color="#D2EFFD" offset="0.56"/>
<stop stop-color="#CDE9F6" offset="0.66"/>
<stop stop-color="#C3DEEB" offset="0.72"/>
<stop stop-color="#B5CEDA" offset="0.78"/>
<stop stop-color="#A3B9C4" offset="0.82"/>
<stop stop-color="#8C9FA8" offset="0.86"/>
<stop stop-color="#718088" offset="0.9"/>
<stop stop-color="#525D62" offset="0.94"/>
<stop stop-color="#2E3437" offset="0.97"/>
<stop stop-color="#080909" offset="0.99"/>
<stop stop-color="#000000" offset="1"/>
</radialGradient>
<path d="M23.828,30.162c-2.352,2.35-6.162,2.35-8.514,0c-2.35-2.35-2.352-6.162,0-8.514 c2.352-2.35,6.162-2.348,8.512,0C26.176,23.999,26.178,27.813,23.828,30.162z" fill="url(#_18)"/>
<ellipse cx="19.525" cy="22.869" fill="#FFFFFF" rx="3.404" ry="2.463"/>
<linearGradient id="_19" gradientUnits="userSpaceOnUse" x1="19.57" y1="31.08" x2="19.57" y2="15.7">
<stop stop-color="#004A6E" offset="0"/>
<stop stop-color="#000000" offset="1"/>
</linearGradient>
<path d="M13.99,20.324c-3.082,3.084-3.082,8.081,0,11.165c3.082,3.082,8.08,3.082,11.16,0 c3.084-3.084,3.084-8.08,0-11.165C22.07,17.243,17.072,17.243,13.99,20.324z M23.703,30.039c-2.283,2.281-5.982,2.281-8.266,0 c-2.279-2.281-2.281-5.981,0-8.266c2.283-2.281,5.982-2.281,8.266,0C25.984,24.056,25.986,27.756,23.703,30.039z" fill="url(#_19)"/>
<linearGradient id="_20" gradientUnits="userSpaceOnUse" x1="19.6" y1="15.35" x2="19.6" y2="22.56">
<stop stop-color="#FFFFFF" offset="0"/>
<stop stop-color="#004A6E" offset="1"/>
</linearGradient>
<path d="M24.783,21.902c0.377,0.406,0.705,0.848,0.982,1.313c0.215,0.466,0.428-0.038,0.273-0.433 c-0.275-0.709-0.725-1.354-1.256-1.929c-2.861-3.081-7.498-3.081-10.357,0c-0.543,0.585-0.924,1.231-1.258,1.929 c-0.174,0.438,0.02,0.816,0.246,0.482c0.316-0.461,0.623-0.941,1.012-1.363C17.285,18.82,21.922,18.82,24.783,21.902z" fill="url(#_20)"/>
<linearGradient id="_21" gradientUnits="userSpaceOnUse" x1="19.55" y1="30.35" x2="19.55" y2="32.33">
<stop stop-color="#004A6E" offset="0"/>
<stop stop-color="#000000" offset="1"/>
</linearGradient>
<path d="M24.049,29.979c-2.506,2.451-6.422,2.404-8.971,0.002c-1.006-0.946-1.328-0.623,0,0.707 c2.477,2.478,6.492,2.478,8.971-0.002C25.375,29.357,24.994,29.055,24.049,29.979z" fill="url(#_21)"/>
<radialGradient id="_22" gradientUnits="userSpaceOnUse" cx="40.97" cy="25.91" r="6.02">
<stop stop-color="#D4F1FF" offset="0.3"/>
<stop stop-color="#D2EFFD" offset="0.56"/>
<stop stop-color="#CDE9F6" offset="0.66"/>
<stop stop-color="#C3DEEB" offset="0.72"/>
<stop stop-color="#B5CEDA" offset="0.78"/>
<stop stop-color="#A3B9C4" offset="0.82"/>
<stop stop-color="#8C9FA8" offset="0.86"/>
<stop stop-color="#718088" offset="0.9"/>
<stop stop-color="#525D62" offset="0.94"/>
<stop stop-color="#2E3437" offset="0.97"/>
<stop stop-color="#080909" offset="0.99"/>
<stop stop-color="#000000" offset="1"/>
</radialGradient>
<path d="M45.227,30.162c-2.352,2.35-6.162,2.35-8.514,0c-2.35-2.35-2.352-6.162,0-8.514 c2.352-2.35,6.162-2.348,8.514,0C47.576,23.999,47.578,27.813,45.227,30.162z" fill="url(#_22)"/>
<ellipse cx="40.925" cy="22.869" fill="#FFFFFF" rx="3.405" ry="2.463"/>
<path d="M35.391,20.324c-3.082,3.084-3.082,8.081,0,11.165c3.08,3.082,8.078,3.082,11.16,0 c3.082-3.084,3.082-8.08,0-11.165C43.469,17.243,38.471,17.243,35.391,20.324z M45.104,30.039c-2.283,2.281-5.981,2.281-8.266,0 c-2.281-2.281-2.283-5.981,0-8.266c2.283-2.281,5.982-2.281,8.264,0C47.385,24.056,47.387,27.756,45.104,30.039z" fill="url(#_19)"/>
<path d="M46.184,21.902c0.377,0.406,0.705,0.848,0.982,1.313c0.215,0.466,0.426-0.038,0.273-0.433 c-0.277-0.709-0.726-1.354-1.256-1.929c-2.861-3.081-7.498-3.081-10.359,0c-0.541,0.585-0.924,1.231-1.258,1.929 c-0.174,0.438,0.02,0.816,0.246,0.482c0.315-0.461,0.621-0.941,1.012-1.363C38.686,18.82,43.322,18.82,46.184,21.902z" fill="url(#_20)"/>
<path d="M45.447,29.979c-2.504,2.451-6.422,2.404-8.971,0.002c-1.006-0.946-1.328-0.623,0,0.707 c2.477,2.478,6.494,2.478,8.971-0.002C46.775,29.357,46.393,29.055,45.447,29.979z" fill="url(#_21)"/>
<circle cx="29.926" cy="20.865" r="1.738"/>
<linearGradient id="_26" gradientUnits="userSpaceOnUse" x1="14.23" y1="16.28" x2="14.23" y2="36.82">
<stop stop-color="#CCCCCC" offset="0"/>
<stop stop-color="#000000" offset="1"/>
</linearGradient>
<path d="M12.752,43.254c-0.33,0-0.646-0.135-0.893-0.381l-7.684-8.086 c-0.252-0.248-0.4-0.617-0.395-1.002c0.006-0.383,0.158-0.746,0.42-0.998l7.566-8.521c0.287-0.282,0.629-0.417,0.977-0.417 c0.217,0,0.422,0.05,0.604,0.148c0.107,0.058,0.217,0.136,0.309,0.231c0.271,0.268,0.416,0.646,0.4,1.038l-0.018,4.11 c2.102,0.254,8.193,0.998,8.908,1.099c0.9,0.127,1.73,0.448,1.73,1.969v2.365c0,1.535-0.838,1.854-1.738,1.967 c-0.604,0.078-6.781,0.832-8.881,1.088v4.02c-0.016,0.547-0.303,1.012-0.75,1.236C13.129,43.207,12.943,43.254,12.752,43.254 L12.752,43.254z" fill="url(#_26)" fill-opacity="0.7"/>
<linearGradient id="_27" gradientUnits="userSpaceOnUse" x1="10.7" y1="43.12" x2="17.59" y2="26.2">
<stop stop-color="#EBF7AB" offset="0"/>
<stop stop-color="#87B938" offset="0.49"/>
<stop stop-color="#006300" offset="1"/>
</linearGradient>
<path d="M4.75,33.354l7.607-8.565c0.158-0.152,0.428-0.197,0.615-0.098c0.045,0.025,0.088,0.056,0.129,0.096 c0.111,0.111,0.174,0.277,0.168,0.451l-0.021,4.835c0,0,8.742,1.066,9.592,1.183c0.727,0.104,1.047,0.244,1.047,1.188 c0,0.945,0,1.42,0,2.363c0,0.945-0.316,1.096-1.047,1.188c-0.727,0.092-9.57,1.176-9.57,1.176v4.713 c-0.004,0.229-0.123,0.438-0.313,0.531c-0.186,0.097-0.387,0.056-0.541-0.099l-7.67-8.071c0-0.002,0-0.005-0.004-0.007 c-0.113-0.112-0.178-0.272-0.174-0.442C4.57,33.625,4.637,33.461,4.75,33.354z" fill="url(#_27)"/>
<linearGradient id="_28" gradientUnits="userSpaceOnUse" x1="21.94" y1="32.09" x2="2.74" y2="28.64">
<stop stop-color="#61A10D" offset="0"/>
<stop stop-color="#E3F0B5" offset="0.91"/>
</linearGradient>
<polygon fill="url(#_28)" points="5.506,33.695 12.459,25.829 12.465,30.629 23.287,31.891 23.287,33.684 "/>
</svg>