<?xml version="1.0" encoding="UTF-8"?>
<!DOCTYPE svg PUBLIC "-//W3C//DTD SVG 1.1 Tiny//EN" "http://www.w3.org/Graphics/SVG/1.1/DTD/svg11-tiny.dtd">
<svg width="84" height="72" viewBox="0 0 84 72">
<linearGradient id="_24" gradientUnits="userSpaceOnUse" x1="44.38" y1="37.97" x2="54.29" y2="59.76">
<stop stop-color="#A2C2DD" offset="0.1"/>
<stop stop-color="#6C83BB" offset="0.71"/>
<stop stop-color="#003D6D" offset="0.99"/>
</linearGradient>
<path fill="url(#_24)" d="M34.907,11.709c0,0-1.986,6.055-2.158,6.577c-0.571-0.089-15.596-2.423-15.596-2.423 c-1.469-0.01-3.143,0.285-3.906,0.676c-0.119,0.062,1.478,35.172,1.478,35.172c0.006,0.153,22.338,6.16,22.557,6.218 c2.329,3.814,6.09,6.111,11.208,6.804c3.973,0.515,6.892-1.291,6.892-1.291c1.448-0.828,3.166-1.959,6.546-4.636 c3.119-2.471,3.425-13.888,3.425-13.888s-3.064-4.328-3.835-5.396c-0.624-0.796-1.43-1.354-1.471-1.385 c1.357-2.873,4.654-11.898,4.654-11.898s2.031,0.375,2.188,0.281c0.281,0,4.077-8.784,3.11-11.146 c-0.269-0.652-0.729-1.081-1.377-1.276l-32.807-3.303C35.2,10.677,34.907,11.709,34.907,11.709z"/>
<linearGradient id="_25" gradientUnits="userSpaceOnUse" x1="59.75" y1="31.97" x2="71.29" y2="14.07">
<stop stop-color="#FFFFFF" offset="0"/>
<stop stop-color="#A2C2DD" offset="0.35"/>
<stop stop-color="#6C83BB" offset="0.7"/>
<stop stop-color="#003D6D" offset="1"/>
</linearGradient>
<path fill="url(#_25)" d="M68.021,14.544c3.211,0.652,0.854,7.251-1.463,11.493l-2.951-0.341 C63.607,25.697,67.857,14.447,68.021,14.544z"/>
<linearGradient id="_26" gradientUnits="userSpaceOnUse" x1="49.88" y1="14.36" x2="45.76" y2="55.68">
<stop stop-color="#FFFFFF" offset="0"/>
<stop stop-color="#BFDAE1" offset="1"/>
</linearGradient>
<polygon fill="url(#_26)" points="56.732,39.322 32.857,19.697 35.785,11.349 66.322,14.838 "/>
<linearGradient id="_27" gradientUnits="userSpaceOnUse" x1="49.5" y1="10.08" x2="49.95" y2="28.24">
<stop stop-color="#FFFFFF" offset="0.15"/>
<stop stop-color="#A2C2DD" offset="1"/>
</linearGradient>
<path fill="url(#_27)" d="M56.232,41.072l-23.375-21.75l2.578-7.781l31.075,3.953L56.232,41.072z M37.781,13.488 c-0.621-0.088-1.293,0.354-1.498,0.979c-0.209,0.626,0.125,1.207,0.738,1.294c0.615,0.088,1.287-0.354,1.5-0.979 C38.732,14.152,38.4,13.574,37.781,13.488z M36.394,17.613c-0.609-0.084-1.277,0.352-1.48,0.979 c-0.209,0.628,0.115,1.209,0.723,1.296c0.609,0.086,1.271-0.354,1.48-0.98C37.332,18.277,37.007,17.699,36.394,17.613z M62.336,17.287c-0.645-0.072-1.355,0.404-1.586,1.057c-0.232,0.654,0.098,1.244,0.736,1.314 c0.637,0.07,1.346-0.401,1.58-1.057C63.309,17.945,62.979,17.355,62.336,17.287z M60.783,21.587 c-0.631-0.07-1.336,0.4-1.568,1.057c-0.234,0.656,0.09,1.246,0.717,1.315c0.631,0.071,1.334-0.399,1.57-1.06 C61.74,22.25,61.418,21.66,60.783,21.587z M59.232,25.892c-0.625-0.07-1.322,0.401-1.556,1.057 c-0.229,0.656,0.082,1.242,0.703,1.316c0.615,0.071,1.313-0.402,1.552-1.058C60.168,26.554,59.855,25.964,59.232,25.892z M57.678,30.195c-0.617-0.07-1.309,0.402-1.537,1.057c-0.233,0.654,0.072,1.242,0.687,1.314 c0.608,0.074,1.295-0.397,1.528-1.055C58.598,30.857,58.293,30.269,57.678,30.195z M56.125,34.499 c-0.611-0.073-1.291,0.399-1.523,1.054c-0.233,0.654,0.064,1.247,0.668,1.321c0.601,0.069,1.279-0.399,1.519-1.055 C57.027,35.161,56.729,34.572,56.125,34.499z"/>
<linearGradient id="_28" gradientUnits="userSpaceOnUse" x1="64.1" y1="16.73" x2="58.98" y2="38.52">
<stop stop-color="#87A8CB" offset="0"/>
<stop stop-color="#235487" offset="1"/>
</linearGradient>
<path fill="url(#_28)" d="M65.537,15.498c0,0-9.129,27.334-11.186,27.301c3.506,5.898,13.096-27.395,13.881-28.233 C67.074,14.613,66.342,14.949,65.537,15.498z"/>
<linearGradient id="_29" gradientUnits="userSpaceOnUse" x1="51.38" y1="15.06" x2="52.14" y2="11.37">
<stop stop-color="#FFFFFF" offset="0.05"/>
<stop stop-color="#A2C2DD" offset="1"/>
</linearGradient>
<path fill="url(#_29)" d="M65.537,15.498c0.83-0.508,1.494-0.811,2.695-0.932L38.05,11.558 c-1.295,0.07-1.929,0.104-2.813,0.504L65.537,15.498z"/>
<linearGradient id="_30" gradientUnits="userSpaceOnUse" x1="43.35" y1="50.82" x2="57.04" y2="23.53">
<stop stop-color="#FFFFFF" offset="0"/>
<stop stop-color="#A2C2DD" offset="0.35"/>
<stop stop-color="#6C83BB" offset="0.7"/>
<stop stop-color="#003D6D" offset="1"/>
</linearGradient>
<path fill="url(#_30)" d="M50.857,21.947c8.625-2,1.281,15.875,3.494,20.852l-4.619-7.352 C49.732,35.447,50.832,22.189,50.857,21.947z"/>
<linearGradient id="_31" gradientUnits="userSpaceOnUse" x1="50.33" y1="23.52" x2="49.31" y2="41.52">
<stop stop-color="#87A8CB" offset="0"/>
<stop stop-color="#235487" offset="1"/>
</linearGradient>
<path fill="url(#_31)" d="M48.078,35.197l0.07-10.404c-0.029-2.371,2.031-2.902,4.401-2.947 c-1.604,1.102-2.108,1.639-1.907,5.973l0.039,8.006L48.078,35.197z"/>
<linearGradient id="_32" gradientUnits="userSpaceOnUse" x1="30.83" y1="17.23" x2="33" y2="79.33">
<stop stop-color="#FFFFFF" offset="0.05"/>
<stop stop-color="#A2C2DD" offset="1"/>
</linearGradient>
<polygon fill="url(#_32)" points="47.553,60.15 15.482,51.283 14.173,16.99 47.68,23.043 "/>
<linearGradient id="_33" gradientUnits="userSpaceOnUse" x1="35.49" y1="10.8" x2="29.84" y2="45.11">
<stop stop-color="#FFFFFF" offset="0.05"/>
<stop stop-color="#A2C2DD" offset="1"/>
</linearGradient>
<path fill="url(#_33)" d="M47.906,60.201l-32.672-8.969L13.925,16.94l34.259,6.608L47.906,60.201z M17.169,19.271 c-0.688-0.141-1.217,0.299-1.186,0.98c0.033,0.684,0.611,1.352,1.295,1.488c0.682,0.142,1.211-0.299,1.184-0.982 C18.435,20.078,17.853,19.411,17.169,19.271z M17.359,23.752c-0.678-0.142-1.201,0.299-1.168,0.981 c0.033,0.682,0.605,1.351,1.277,1.49c0.676,0.139,1.196-0.303,1.168-0.984C18.609,24.56,18.037,23.892,17.359,23.752z M17.548,28.236c-0.668-0.141-1.186,0.301-1.151,0.981c0.034,0.685,0.598,1.353,1.262,1.488 c0.664,0.142,1.179-0.302,1.149-0.983C18.781,29.041,18.218,28.376,17.548,28.236z M17.738,32.72 c-0.66-0.144-1.17,0.299-1.139,0.979c0.033,0.685,0.592,1.352,1.246,1.49c0.654,0.14,1.162-0.299,1.135-0.981 S18.394,32.857,17.738,32.72z M17.923,37.203c-0.649-0.141-1.153,0.301-1.121,0.982c0.031,0.682,0.584,1.348,1.228,1.485 c0.646,0.142,1.147-0.301,1.121-0.981C19.125,38.008,18.572,37.338,17.923,37.203z M18.107,41.684 c-0.641-0.141-1.135,0.301-1.104,0.98c0.028,0.684,0.573,1.354,1.209,1.49c0.637,0.141,1.129-0.301,1.104-0.982 C19.289,42.49,18.748,41.822,18.107,41.684z M18.08,46.293c-0.648-0.139-1.152,0.301-1.119,0.982 c0.031,0.684,0.582,1.35,1.228,1.488c0.646,0.141,1.147-0.302,1.118-0.982C19.279,47.098,18.732,46.432,18.08,46.293z M44.508,25.24c-0.705-0.122-1.262,0.354-1.246,1.064c0.018,0.709,0.602,1.387,1.301,1.51c0.697,0.125,1.252-0.351,1.242-1.06 C45.793,26.043,45.213,25.367,44.508,25.24z M44.594,29.911c-0.695-0.128-1.244,0.349-1.229,1.06 c0.015,0.711,0.59,1.389,1.279,1.512c0.688,0.125,1.239-0.351,1.227-1.063C45.861,30.709,45.289,30.033,44.594,29.911z M44.68,34.576c-0.688-0.123-1.229,0.354-1.211,1.064c0.016,0.711,0.58,1.385,1.262,1.51c0.683,0.125,1.224-0.354,1.211-1.063 C45.93,35.377,45.365,34.701,44.68,34.576z M18.265,50.775c-0.641-0.144-1.135,0.301-1.104,0.979c0,0.009,0,0.013,0,0.019 l2.306,0.617c0.004-0.041,0.01-0.082,0.008-0.127C19.449,51.582,18.906,50.914,18.265,50.775z"/>
<linearGradient id="_34" gradientUnits="userSpaceOnUse" x1="32.57" y1="21.87" x2="33.54" y2="18.23">
<stop stop-color="#FFFFFF" offset="0.05"/>
<stop stop-color="#A2C2DD" offset="1"/>
</linearGradient>
<path fill="url(#_34)" d="M48.379,23.533c0.467-1.004,2.801-1.893,4.172-1.688l-35.26-5.479 c-1.303-0.006-2.656,0.205-3.393,0.605L48.379,23.533z"/>
<linearGradient id="_35" gradientUnits="userSpaceOnUse" x1="50.03" y1="30.73" x2="45.09" y2="64.55">
<stop stop-color="#FFFFFF" offset="0.05"/>
<stop stop-color="#A2C2DD" offset="1"/>
</linearGradient>
<path fill="url(#_35)" d="M35.304,43.215l6.756-6.076l10.6,1.082l7.209,9.221c0,0,1.49,18.365-11.451,16.617 C31.857,61.822,35.304,43.215,35.304,43.215z"/>
<linearGradient id="_36" gradientUnits="userSpaceOnUse" x1="42.02" y1="36.75" x2="57.84" y2="36.75">
<stop stop-color="#FFFFFF" offset="0.05"/>
<stop stop-color="#A2C2DD" offset="1"/>
</linearGradient>
<polygon fill="url(#_36)" points="42.023,37.102 47.107,35.271 57.836,36.215 52.594,38.225 "/>
<linearGradient id="_37" gradientUnits="userSpaceOnUse" x1="52.59" y1="41.79" x2="64.62" y2="41.79">
<stop stop-color="#FFFFFF" offset="0.05"/>
<stop stop-color="#A2C2DD" offset="1"/>
</linearGradient>
<polygon fill="url(#_37)" points="52.594,38.225 57.836,36.215 64.619,44.895 59.814,47.367 "/>
<linearGradient id="_38" gradientUnits="userSpaceOnUse" x1="55.34" y1="36.38" x2="43.06" y2="60.83">
<stop stop-color="#FFFFFF" offset="0.15"/>
<stop stop-color="#A2C2DD" offset="1"/>
</linearGradient>
<path fill="url(#_38)" d="M57.07,49.936c1.424,5.445-1.603,10.568-6.754,11.441 c-5.154,0.871-10.485-2.838-11.909-8.279c-1.424-5.447,1.602-10.567,6.754-11.442 C50.316,40.785,55.646,44.488,57.07,49.936z"/>
<linearGradient id="_39" gradientUnits="userSpaceOnUse" x1="48.29" y1="45.19" x2="43.3" y2="64.49">
<stop stop-color="#87A8CB" offset="0"/>
<stop stop-color="#235487" offset="1"/>
</linearGradient>
<path fill="url(#_39)" d="M47.467,41.525c-17.717-0.265-7.818,27.506,6.475,18.381 C37.982,62.531,36.625,42.387,47.467,41.525z"/>
<linearGradient id="_40" gradientUnits="userSpaceOnUse" x1="57.93" y1="41.63" x2="61.19" y2="62.23">
<stop stop-color="#FFFFFF" offset="0"/>
<stop stop-color="#A2C2DD" offset="0.35"/>
<stop stop-color="#6C83BB" offset="0.7"/>
<stop stop-color="#003D6D" offset="1"/>
</linearGradient>
<path fill="url(#_40)" d="M64.619,44.895l-4.805,2.474l-0.002,0.004l0.057,0.069c0,0,0.623,10.556-4.762,15.382 c1.295-0.787,2.953-1.867,6.352-4.56C64.857,55.572,64.619,44.895,64.619,44.895z"/>
<linearGradient id="_41" gradientUnits="userSpaceOnUse" x1="57.86" y1="37.28" x2="60.79" y2="42.91">
<stop stop-color="#E6EEF4" offset="0"/>
<stop stop-color="#C03A3A" offset="0.44"/>
<stop stop-color="#302D02" offset="0.94"/>
</linearGradient>
<path fill="url(#_41)" d="M61.34,40.07c0.777,1.27,0.664,2.617-0.252,3.004c-0.918,0.391-2.291-0.326-3.07-1.6 c-0.776-1.271-0.664-2.615,0.254-3.005C59.188,38.08,60.561,38.797,61.34,40.07z"/>
<linearGradient id="_42" gradientUnits="userSpaceOnUse" x1="57.56" y1="38.65" x2="60.66" y2="41">
<stop stop-color="#E3DFE4" offset="0"/>
<stop stop-color="#C03A3A" offset="1"/>
</linearGradient>
<path fill="url(#_42)" d="M61.313,39.959c0.758,1.166,0.783,2.35,0.062,2.648c-0.726,0.297-1.929-0.404-2.685-1.566 c-0.756-1.166-0.782-2.35-0.061-2.65C59.354,38.092,60.553,38.793,61.313,39.959z"/>
<linearGradient id="_43" gradientUnits="userSpaceOnUse" x1="43.31" y1="32.2" x2="57.17" y2="39.39">
<stop stop-color="#E6EEF4" offset="0"/>
<stop stop-color="#C03A3A" offset="0.44"/>
<stop stop-color="#302D02" offset="0.94"/>
</linearGradient>
<path fill="url(#_43)" d="M50.76,34.345c2.068,0.137,3.438,0.913,3.063,1.719c-0.375,0.797-2.354,1.252-4.429,1.034 c-2.063-0.199-3.438-0.927-3.063-1.64C46.709,34.734,48.693,34.228,50.76,34.345z"/>
<linearGradient id="_44" gradientUnits="userSpaceOnUse" x1="47.09" y1="36.34" x2="51.53" y2="34.58">
<stop stop-color="#E3DFE4" offset="0"/>
<stop stop-color="#C03A3A" offset="1"/>
</linearGradient>
<path fill="url(#_44)" d="M50.59,34.394c1.768,0.104,2.988,0.535,2.725,0.945c-0.262,0.41-1.78,0.729-3.549,0.581 c-1.77-0.138-3.108-0.655-2.848-1.024C47.184,34.527,48.826,34.295,50.59,34.394z"/>
<linearGradient id="_45" gradientUnits="userSpaceOnUse" x1="48.98" y1="39.74" x2="46.78" y2="60.94">
<stop stop-color="#E6EEF4" offset="0"/>
<stop stop-color="#C03A3A" offset="0.44"/>
<stop stop-color="#302D02" offset="0.94"/>
</linearGradient>
<path fill="url(#_45)" d="M48.598,52.797l0.062,1.332l-1.582-0.381l0.028-1.104c-1.461-0.588-1.145-2.552,0.104-2.843 l0.258-7.262l0.584,0.103l0.394,7.287C49.383,50.389,49.973,51.951,48.598,52.797z M47.635,50.57 c-0.436,0.072-0.688,0.502-0.566,0.959c0.119,0.457,0.566,0.768,1,0.693c0.433-0.07,0.687-0.503,0.566-0.955 C48.516,50.809,48.068,50.496,47.635,50.57z"/>
<linearGradient id="_46" gradientUnits="userSpaceOnUse" x1="35.77" y1="21.41" x2="26.91" y2="43.09">
<stop stop-color="#E6EEF4" offset="0"/>
<stop stop-color="#A3740A" offset="0.44"/>
<stop stop-color="#474105" offset="0.94"/>
</linearGradient>
<polygon fill="url(#_46)" points="26.656,34.341 26.365,26.507 34.49,28.048 33.906,36.007 38.761,37.271 30.273,47.637 21.49,33.173 "/>
</svg>