<?xml version="1.0" encoding="UTF-8"?>
<!DOCTYPE svg PUBLIC "-//W3C//DTD SVG 1.1 Tiny//EN" "http://www.w3.org/Graphics/SVG/1.1/DTD/svg11-tiny.dtd">
<svg baseProfile="tiny" height="32" version="1.1" viewBox="0 0 44 32" width="44" xmlns="http://www.w3.org/2000/svg" xmlns:xlink="http://www.w3.org/1999/xlink">
<g>
<g>
<polygon points="19.726,11.41 10.623,11.41 10.623,16.871 7.893,16.871 7.893,18.693 15.175,25.975 22.455,18.693 22.455,16.871     19.726,16.871   "/>
<g>
<path d="M28.184,6.673l-6.638,6.638v1.74c0,0,1.92,0,2.729,0c0,1.264,0,5.46,0,5.46h9.102c0,0,0-4.197,0-5.46     c0.811,0,2.73,0,2.73,0v-1.74l-7.281-7.282L28.184,6.673z M28.826,8.604c0.84,0.838,3.305,3.305,4.627,4.627     c-0.455,0-1.896,0-1.896,0s0,4.197,0,5.46c-1.193,0-4.267,0-5.461,0c0-1.264,0-5.46,0-5.46s-1.441,0-1.896,0     C25.521,11.908,27.986,9.441,28.826,8.604z"/>
</g>
</g>
<rect fill="none" height="32" width="44"/>
</g>
</svg>
