<?xml version="1.0" encoding="UTF-8"?>
<!DOCTYPE svg PUBLIC "-//W3C//DTD SVG 1.1 Tiny//EN" "http://www.w3.org/Graphics/SVG/1.1/DTD/svg11-tiny.dtd">
<svg baseProfile="tiny" height="44" viewBox="0 0 44 44" width="44" xmlns="http://www.w3.org/2000/svg" xmlns:xlink="http://www.w3.org/1999/xlink">
<path d="M23.658,41.306H9.006C5.915,41.306,3.4,38.79,3.4,35.7V21.05 c0-3.091,2.514-5.605,5.606-5.605h1.6V7.596c0-2.605,2.117-4.724,4.721-4.724h10.349c2.605,0,4.724,2.119,4.724,4.724v1.489h5.187 c2.873,0,5.207,2.336,5.207,5.208v12.705c0,2.871-2.334,5.205-5.207,5.205h-6.32v3.5C29.264,38.79,26.75,41.306,23.658,41.306 L23.658,41.306z" fill="#FFFFFF" fill-opacity="0.6"/>
<linearGradient gradientUnits="userSpaceOnUse" id="_26" x1="20.5" x2="20.5" y1="-1.64" y2="15.5">
<stop offset="0" stop-color="#CCCCCC"/>
<stop offset="1" stop-color="#000000"/>
</linearGradient>
<path d="M25.676,20.864H15.325c-1.61,0-2.92-1.312-2.92-2.92 V7.596c0-1.612,1.31-2.923,2.92-2.923h10.351c1.611,0,2.923,1.311,2.923,2.923v10.348C28.599,19.552,27.287,20.864,25.676,20.864 L25.676,20.864z" fill="url(#_26)" fill-opacity="0.7"/>
<path d="M25.676,5.473c1.166,0,2.123,0.955,2.123,2.123v10.348c0,1.168-0.957,2.121-2.123,2.121H15.327 c-1.168,0-2.123-0.953-2.123-2.121V7.596c0-1.168,0.954-2.123,2.123-2.123H25.676" fill="#E07029"/>
<linearGradient gradientUnits="userSpaceOnUse" id="_27" x1="20.5" x2="20.5" y1="19.8" y2="5.74">
<stop offset="0" stop-color="#FB9E3A"/>
<stop offset="0.06" stop-color="#FB9E3A"/>
<stop offset="1" stop-color="#E6742B"/>
</linearGradient>
<path d="M25.676,6.001H15.327c-0.879,0-1.593,0.715-1.593,1.593v10.348c0,0.877,0.714,1.591,1.593,1.591 h10.349c0.877,0,1.593-0.714,1.593-1.591V7.596C27.269,6.717,26.553,6.001,25.676,6.001z" fill="url(#_27)"/>
<linearGradient gradientUnits="userSpaceOnUse" id="_28" x1="20.5" x2="20.5" y1="6" y2="11.3">
<stop offset="0" stop-color="#FFFFFF"/>
<stop offset="1" stop-color="#FF9F61"/>
</linearGradient>
<path d="M27.269,11.299H13.734V7.594c0-0.875,0.716-1.592,1.593-1.592h10.349 c0.877,0,1.593,0.716,1.593,1.592V11.299z" fill="url(#_28)"/>
<path d="M18.396,16.147c0,0.717-0.584,1.303-1.303,1.303c-0.722,0-1.304-0.586-1.304-1.303 c0-0.723,0.582-1.307,1.304-1.307C17.813,14.842,18.396,15.426,18.396,16.147z M15.793,12.861c2.52,0,4.571,2.048,4.571,4.596 h1.881c0-3.57-2.895-6.478-6.452-6.478V12.861z M15.793,9.525c4.352,0,7.892,3.562,7.892,7.937h1.88 c0-5.414-4.383-9.818-9.772-9.818V9.525z" fill="#FFFFFF"/>
<linearGradient gradientUnits="userSpaceOnUse" id="_29" x1="29.23" x2="29.23" y1="3.28" y2="23.93">
<stop offset="0" stop-color="#CCCCCC"/>
<stop offset="1" stop-color="#000000"/>
</linearGradient>
<path d="M35.584,30.403H22.88c-1.878,0-3.41-1.527-3.41-3.408 V14.292c0-1.878,1.53-3.407,3.41-3.407h12.704c1.879,0,3.409,1.529,3.409,3.407v12.704C38.993,28.876,37.463,30.403,35.584,30.403 L35.584,30.403z" fill="url(#_29)" fill-opacity="0.7"/>
<path d="M35.584,11.687c1.434,0,2.608,1.171,2.608,2.605v12.706c0,1.434-1.176,2.605-2.608,2.605H22.88 c-1.436,0-2.606-1.172-2.606-2.605V14.292c0-1.434,1.171-2.605,2.606-2.605H35.584" fill="#E07029"/>
<linearGradient gradientUnits="userSpaceOnUse" id="_30" x1="29.23" x2="29.23" y1="29.27" y2="12.01">
<stop offset="0" stop-color="#FB9E3A"/>
<stop offset="0.06" stop-color="#FB9E3A"/>
<stop offset="1" stop-color="#E6742B"/>
</linearGradient>
<path d="M35.584,12.337H22.88c-1.08,0-1.957,0.878-1.957,1.954v12.706c0,1.076,0.877,1.953,1.957,1.953 h12.704c1.078,0,1.957-0.877,1.957-1.953V14.292C37.541,13.216,36.662,12.337,35.584,12.337z" fill="url(#_30)"/>
<linearGradient gradientUnits="userSpaceOnUse" id="_31" x1="29.23" x2="29.23" y1="12.34" y2="18.84">
<stop offset="0" stop-color="#FFFFFF"/>
<stop offset="1" stop-color="#FF9F61"/>
</linearGradient>
<path d="M37.541,18.838H20.923v-4.547c0-1.074,0.88-1.954,1.957-1.954h12.706 c1.074,0,1.955,0.88,1.955,1.954V18.838z" fill="url(#_31)"/>
<path d="M23.451,18.449c4.366,0,7.92,3.568,7.92,7.955h-2.31c0-3.381-2.777-5.646-5.61-5.646V18.449z M23.452,16.662c5.343,0,9.689,4.374,9.689,9.746h2.308c0-6.648-5.382-12.054-11.997-12.054V16.662z" fill="#FFFFFF"/>
<linearGradient gradientUnits="userSpaceOnUse" id="_32" x1="16.33" x2="16.33" y1="8.56" y2="32.13">
<stop offset="0" stop-color="#CCCCCC"/>
<stop offset="1" stop-color="#000000"/>
</linearGradient>
<path d="M23.656,39.509H9.006c-2.1,0-3.807-1.709-3.807-3.811 V21.05c0-2.099,1.707-3.807,3.807-3.807h14.65c2.102,0,3.809,1.708,3.809,3.807v14.648C27.465,37.8,25.758,39.509,23.656,39.509 L23.656,39.509z" fill="url(#_32)" fill-opacity="0.7"/>
<path d="M23.656,18.043c1.654,0,3.008,1.351,3.008,3.006V35.7c0,1.654-1.354,3.004-3.008,3.004H9.006 C7.351,38.704,6,37.354,6,35.7V21.05c0-1.655,1.352-3.006,3.007-3.006H23.656" fill="#E07029"/>
<linearGradient gradientUnits="userSpaceOnUse" id="_33" x1="16.33" x2="16.33" y1="38.33" y2="18.42">
<stop offset="0" stop-color="#FB9E3A"/>
<stop offset="0.06" stop-color="#FB9E3A"/>
<stop offset="1" stop-color="#E6742B"/>
</linearGradient>
<path d="M23.656,18.795H9.006c-1.244,0-2.258,1.01-2.258,2.253V35.7c0,1.242,1.014,2.254,2.258,2.254h14.65 c1.244,0,2.256-1.012,2.256-2.254V21.05C25.912,19.807,24.9,18.795,23.656,18.795z" fill="url(#_33)"/>
<linearGradient gradientUnits="userSpaceOnUse" id="_34" x1="16.33" x2="16.33" y1="18.79" y2="26.29">
<stop offset="0" stop-color="#FFFFFF"/>
<stop offset="1" stop-color="#FF9F61"/>
</linearGradient>
<path d="M25.912,26.294H6.751v-5.246c0-1.238,1.014-2.252,2.255-2.252h14.653 c1.239,0,2.253,1.014,2.253,2.252V26.294z" fill="url(#_34)"/>
<path d="M13.352,33.157c0,1.021-0.827,1.846-1.845,1.846c-1.02,0-1.844-0.824-1.844-1.846 c0-1.02,0.824-1.846,1.844-1.846S13.352,32.138,13.352,33.157z M9.666,28.507c3.501,0,6.471,2.83,6.471,6.51h2.663 c0-5.059-4.099-9.172-9.134-9.172V28.507z M9.667,23.784c6.16,0,11.173,5.041,11.173,11.236h2.662c0-7.668-6.206-13.9-13.834-13.9 V23.784z" fill="#FFFFFF"/>
<rect fill="none" height="44" width="44"/>
</svg>
