<?xml version="1.0" encoding="UTF-8"?>
<!DOCTYPE svg PUBLIC "-//W3C//DTD SVG 1.1 Tiny//EN" "http://www.w3.org/Graphics/SVG/1.1/DTD/svg11-tiny.dtd">
<svg width="84" height="58" viewBox="0 0 84 58">
<linearGradient id="_52" gradientUnits="userSpaceOnUse" x1="42.82" y1="28.7" x2="55.2" y2="53.08">
<stop stop-color="#A2C2DD" offset="0.1"/>
<stop stop-color="#6C83BB" offset="0.71"/>
<stop stop-color="#003D6D" offset="0.99"/>
</linearGradient>
<path fill="url(#_52)" d="M35.72,11.165c-0.367,0.299-0.584,0.721-0.584,1.163c0,0.012,0,0.024,0.001,0.037 c0,0,0.247,4.18,0.286,4.843c-0.739-0.126-22.212-3.773-22.212-3.773c-1.158-0.108-2.264,0.451-3.402,1.706 c-0.369,0.298-0.588,0.721-0.588,1.167c0,0.01,0,0.02,0.001,0.03l1.323,22.322c0.03,1.104,1.317,2.361,2.753,2.682l29.819,7.121 c0.003,0.001,2.988,0.514,4.341-0.909c0.51-0.537,0.892-1.072,0.922-1.745c0,0,0.115-5.541,0.129-6.219 c0.716,0.171,20.956,4.991,20.956,4.991c0.031,0.003,0.056,0.004,0.094,0.002c1.146,0.127,2.818-0.194,3.809-1.002 c0.575-0.468,0.896-1.072,0.927-1.748l0.484-23.343c0.022-2.027-1.974-3.381-3.862-3.628l0.012,0.001l-31.804-5.4 C37.982,9.351,36.844,9.926,35.72,11.165z"/>
<linearGradient id="_53" gradientUnits="userSpaceOnUse" x1="35.73" y1="9.07" x2="82.81" y2="53.95">
<stop stop-color="#E3DFE4" offset="0"/>
<stop stop-color="#C03A3A" offset="1"/>
</linearGradient>
<path fill="url(#_53)" d="M71.346,42.879c0.023,0.979-0.947,1.598-2.244,1.311l-29.822-7.123 c-1.296-0.29-2.487-1.418-2.512-2.399l-1.323-22.312c-0.025-0.98,1.293-1.711,2.589-1.422l31.335,5.511 c1.297,0.289,2.366,1.482,2.391,2.463L71.346,42.879z"/>
<linearGradient id="_54" gradientUnits="userSpaceOnUse" x1="55.07" y1="12.23" x2="55.8" y2="56.96">
<stop stop-color="#E6EEF4" offset="0"/>
<stop stop-color="#C03A3A" offset="0.44"/>
<stop stop-color="#302D02" offset="0.94"/>
</linearGradient>
<path fill="url(#_54)" d="M35.753,11.589c0.937-1.1,2.058-1.944,3.319-1.825l31.803,5.4 c1.857,0.243,3.614,1.542,3.596,3.317l-0.484,23.336c-0.094,2.042-3.108,2.676-4.561,2.447c0,0,1.927,0.272,1.901-1.533 l0.425-23.735c-0.028-1.167-1.048-2.281-2.534-2.558l-31.333-5.531C36.355,10.756,35.753,11.589,35.753,11.589z"/>
<linearGradient id="_55" gradientUnits="userSpaceOnUse" x1="30.32" y1="28.24" x2="63.1" y2="33.96">
<stop stop-color="#E6EEF4" offset="0"/>
<stop stop-color="#C03A3A" offset="0.44"/>
<stop stop-color="#302D02" offset="0.94"/>
</linearGradient>
<polygon fill="url(#_55)" points="36.451,26.736 71.483,33.946 71.391,37.971 36.48,30.428 "/>
<linearGradient id="_56" gradientUnits="userSpaceOnUse" x1="18.61" y1="18.87" x2="47.39" y2="53.91">
<stop stop-color="#FFFFFF" offset="0.05"/>
<stop stop-color="#A2C2DD" offset="1"/>
</linearGradient>
<path fill="url(#_56)" d="M45.431,46.854c0.024,0.98-0.946,1.598-2.243,1.309L13.365,41.04 c-1.295-0.289-2.486-1.416-2.512-2.398L9.53,16.332c-0.023-0.979,1.296-1.711,2.59-1.422l31.336,5.514 c1.295,0.289,2.366,1.482,2.391,2.461L45.431,46.854z"/>
<linearGradient id="_57" gradientUnits="userSpaceOnUse" x1="29.2" y1="12.57" x2="29.2" y2="48.64">
<stop stop-color="#FFFFFF" offset="0"/>
<stop stop-color="#A2C2DD" offset="0.35"/>
<stop stop-color="#6C83BB" offset="0.7"/>
<stop stop-color="#003D6D" offset="1"/>
</linearGradient>
<path fill="url(#_57)" d="M9.839,15.565c0.938-1.099,2.059-1.944,3.319-1.827l31.803,5.403 c1.857,0.24,3.614,1.54,3.594,3.314L48.07,45.794c-0.091,2.04-3.105,2.675-4.56,2.446c0,0,1.93,0.271,1.901-1.532l0.424-23.734 c-0.025-1.167-1.046-2.281-2.531-2.561l-31.334-5.529C10.441,14.729,9.839,15.565,9.839,15.565z"/>
<linearGradient id="_58" gradientUnits="userSpaceOnUse" x1="51.03" y1="47.68" x2="3.29" y2="35.25">
<stop stop-color="#FFFFFF" offset="0"/>
<stop stop-color="#A2C2DD" offset="0.35"/>
<stop stop-color="#6C83BB" offset="0.7"/>
<stop stop-color="#003D6D" offset="1"/>
</linearGradient>
<polygon fill="url(#_58)" points="12.939,37.722 30.688,41.531 30.889,42.785 13.075,38.644 "/>
<polygon fill="url(#_58)" points="12.939,33.143 30.688,36.952 30.889,38.205 13.075,34.066 "/>
<polygon fill="url(#_58)" points="12.871,27.147 42.513,33.584 42.783,36.08 13.045,29.208 "/>
<linearGradient id="_61" gradientUnits="userSpaceOnUse" x1="31.6" y1="40.59" x2="43.36" y2="41.13">
<stop stop-color="#E6EEF4" offset="0"/>
<stop stop-color="#A3740A" offset="0.44"/>
<stop stop-color="#474105" offset="0.94"/>
</linearGradient>
<polygon fill="url(#_61)" points="43.593,45.806 32.179,43.171 32.179,35.951 43.593,38.618 "/>
<linearGradient id="_62" gradientUnits="userSpaceOnUse" x1="31.96" y1="26.12" x2="43.6" y2="26.12">
<stop stop-color="#E6EEF4" offset="0"/>
<stop stop-color="#A3740A" offset="0.44"/>
<stop stop-color="#474105" offset="0.94"/>
</linearGradient>
<path fill="url(#_62)" d="M43.479,29.238c0.018,1.05-0.824,1.72-1.878,1.495l-7.639-1.626 c-1.055-0.227-1.923-1.26-1.94-2.31l-0.065-3.805c-0.019-1.05,0.824-1.719,1.877-1.494l7.825,1.46 c1.054,0.227,1.924,1.26,1.94,2.31L43.479,29.238z"/>
<linearGradient id="_63" gradientUnits="userSpaceOnUse" x1="34.41" y1="27.34" x2="40.14" y2="27.34">
<stop stop-color="#FFFFFF" offset="0.05"/>
<stop stop-color="#A2C2DD" offset="1"/>
</linearGradient>
<polygon fill="url(#_63)" fill-opacity="0.6" points="34.407,26.025 34.406,26.025 34.841,27.752 37.079,28.225 39.036,28.659 40.139,27.411 "/>
<linearGradient id="_64" gradientUnits="userSpaceOnUse" x1="36.52" y1="24.99" x2="38.64" y2="24.99">
<stop stop-color="#FFFFFF" offset="0.05"/>
<stop stop-color="#A2C2DD" offset="1"/>
</linearGradient>
<polygon fill="url(#_64)" fill-opacity="0.6" points="36.519,23.236 36.519,26.187 38.645,26.746 "/>
</svg>