<?xml version="1.0" encoding="UTF-8"?>
<!DOCTYPE svg PUBLIC "-//W3C//DTD SVG 1.1 Tiny//EN" "http://www.w3.org/Graphics/SVG/1.1/DTD/svg11-tiny.dtd">
<svg width="180" height="20" viewBox="0 0 180 20">
<linearGradient id="_2" gradientUnits="userSpaceOnUse" x1="90.19" y1="16.51" x2="90.19" y2="0.4">
<stop stop-color="#CFECFF" offset="0"/>
<stop stop-color="#0046B7" offset="1"/>
</linearGradient>
<rect x="1.404" y="1.101" fill="url(#_2)" width="177.576" height="17.395"/>
<path fill-opacity="0.15" fill="#0046B7" d="M177.46,1.101h-0.524c0,0,0,13.796,0,15.462c-2.028,0-175.532,0-175.532,0v0.687 c0,0.688,0.683,1.246,1.521,1.246H177.46c0.838,0,1.52-0.558,1.52-1.246V2.347C178.98,1.659,178.298,1.101,177.46,1.101z"/>
<path fill-opacity="0.3" fill="#FFFFFF" d="M177.46,1.101H2.924c-0.837,0-1.521,0.558-1.521,1.246V17.25 c0,0.688,0.683,1.246,1.521,1.246h0.522c0,0,0-13.796,0-15.461c2.03,0,175.534,0,175.534,0V2.347 C178.98,1.659,178.298,1.101,177.46,1.101z"/>
<path fill="#084296" d="M2.924,0.134c-1.401,0-2.542,0.992-2.542,2.212V17.25c0,1.221,1.141,2.212,2.542,2.212H177.46 c1.399,0,2.54-0.992,2.54-2.212V2.347c0-1.22-1.14-2.212-2.54-2.212H2.924z M1.404,17.25V2.347 c0-0.688,0.683-1.246,1.521-1.246H177.46c0.838,0,1.52,0.558,1.52,1.246V17.25c0,0.688-0.682,1.246-1.52,1.246H2.924 C2.087,18.496,1.404,17.938,1.404,17.25z"/>
</svg>