<?xml version="1.0" encoding="UTF-8"?>
<!DOCTYPE svg PUBLIC "-//W3C//DTD SVG 1.1 Tiny//EN" "http://www.w3.org/Graphics/SVG/1.1/DTD/svg11-tiny.dtd">
<svg baseProfile="tiny" height="54px" version="1.1" viewBox="0 0 54 54" width="54px" x="0px" xmlns="http://www.w3.org/2000/svg" xmlns:xlink="http://www.w3.org/1999/xlink" y="0px">
<g>
<rect fill="none" height="54" width="54"/>
</g>
<g>
<path d="M31.773,45.451l17.416-14.386l-8.333,0.06l5.522-11.677l-13.417-0.027l5.47-11.49H25.715L16.449,27.46   c3.119,0.003,9.177,0.018,13.566,0.018c-0.836,1.775-1.268,2.692-1.74,3.691h-9.812L31.773,45.451z" fill="#FFFFFF"/>
<polygon points="42.62,21.827 29.198,21.791 34.664,10.311 27.229,10.311 20.321,25.078 33.769,25.104 29.788,33.549    24.068,33.549 32.008,42.185 42.662,33.485 37.074,33.549  "/>
</g>
<polygon fill="#FFFFFF" points="16.085,24.459 13.113,24.459 5.275,44.019 11.523,44.019 12.695,40.677 16.076,40.677   17.169,44.019 23.355,44.019 "/>
<g>
<path d="M18.438,42.269l-1.092-3.342h-5.893l-1.17,3.342H7.861l6.436-16.06h0.571l5.971,16.06H18.438z M14.48,30.363l-2.456,6.974   h4.705L14.48,30.363z"/>
</g>
</svg>
