<?xml version="1.0" encoding="UTF-8" standalone="no"?>
<!DOCTYPE svg PUBLIC "-//W3C//DTD SVG 1.1 Tiny//EN" "http://www.w3.org/Graphics/SVG/1.1/DTD/svg11-tiny.dtd">
<svg xmlns="http://www.w3.org/2000/svg" xmlns:xlink="http://www.w3.org/1999/xlink" width="54" height="54" viewBox="0 0 54 54">
<rect fill="none" height="54" width="54"/>
<path d="M11.741,46.102c-1.027-0.031-2.072-0.272-3.011-0.855l0,0 c-0.933-0.571-1.76-1.572-2.067-2.898l0,0l-0.011-0.043L3.919,26.928c-0.061-0.309-0.103-0.637-0.108-0.988l0,0 c-0.007-0.09-0.007-0.159-0.007-0.196l0,0c0.075-1.764,1.06-2.959,2.359-3.384l0,0v-0.002c0.339-0.113,0.665-0.18,0.973-0.22l0,0 v-3.225c0.035-2.968,2.303-5.126,4.841-5.121l0,0l0.948-0.003c0.037-0.144,0.078-0.29,0.124-0.438l0,0 c0.227-0.768,0.615-1.663,1.311-2.446l0,0c0.684-0.783,1.754-1.417,3.039-1.413l0,0c2.429,0,4.021-0.002,6.322-0.002l0,0 c0.029-0.001,0.046-0.001,0.056,0l0,0c0.012,0,0.015,0,0.015,0l0,0c1.272,0.006,2.325,0.65,2.999,1.484l0,0 c0.652,0.791,0.988,1.667,1.205,2.403l0,0c0.04,0.137,0.074,0.272,0.107,0.404l0,0l1.849,0.001l0.556-1.422 c0.737-1.884,2.403-3.013,4.152-3.011l0,0c0.001,0,0.002,0,0.004,0l0,0l0,0c0.602,0,1.209,0.134,1.786,0.407l0,0 c0,0,10.795,5.397,11.626,6.016c0.832,0.619,1.191,2.13,1.189,3.379l0,0h-0.002c0,0.652-0.113,1.325-0.365,1.969l0,0l-1.176,3.005 c0.275,0.529,0.447,1.147,0.452,1.836l0,0c0,0.047,0,0.099-0.002,0.156l0,0c0,0.187-0.012,0.362-0.028,0.565l0,0l-0.01,0.088 l-2.56,15.492l-0.011,0.051c-0.291,1.336-1.114,2.352-2.047,2.928l0,0c-0.938,0.588-1.985,0.83-3.05,0.863l0,0L11.741,46.102 L11.741,46.102z" fill="#FFFFFF" fill-opacity="0.6"/>
<linearGradient id="_58" gradientUnits="userSpaceOnUse" x1="28.33" y1="-11.86" x2="28.2" y2="33.88">
<stop stop-color="#CCCCCC" offset="0"/>
<stop stop-color="#000000" offset="1"/>
</linearGradient>
<path d="M12.028,40.57c-1.87-0.002-3.474-1.564-3.489-3.633l0,0V19.019 c0.015-2.066,1.619-3.628,3.486-3.632l0,0l2.038-0.007c0.059-0.419,0.158-0.937,0.324-1.474l0,0 c0.348-1.193,1.257-2.808,3.055-2.818l0,0c2.444,0,4.042-0.001,6.365-0.001l0,0c0.842-0.01,1.569,0.429,2.023,0.996l0,0 c0.466,0.563,0.731,1.223,0.913,1.845l0,0c0.151,0.527,0.241,1.036,0.294,1.45l0,0l3.852,0.002l0.91-2.329 c0.518-1.32,1.686-2.109,2.909-2.107l0,0c0.417,0,0.845,0.094,1.246,0.285l0,0l10.091,4.807l0,0 c1.193,0.571,1.906,1.857,1.906,3.209l0,0c0,0.457-0.081,0.929-0.256,1.375l0,0l-3.485,8.903v7.412 c-0.013,2.066-1.614,3.631-3.489,3.635l0,0H12.028L12.028,40.57z" fill="url(#_58)" fill-opacity="0.7"/>
<linearGradient id="_59" gradientUnits="userSpaceOnUse" x1="26.25" y1="37.25" x2="26.58" y2="12.3">
<stop stop-color="#FFFFD6" offset="0"/>
<stop stop-color="#FFB700" offset="1"/>
</linearGradient>
<path d="M43.305,36.938c0,1.449-1.16,2.633-2.584,2.633H12.029c-1.419,0-2.582-1.184-2.582-2.633V19.02 c0-1.447,1.163-2.633,2.582-2.633l2.85-0.011c0,0,0.12-4.288,2.563-4.288s4.041-0.001,6.364-0.001c2.324,0,2.404,4.288,2.404,4.288 l14.511,0.012c1.424,0,2.584,1.186,2.584,2.633V36.938z" fill="url(#_59)"/>
<linearGradient id="_60" gradientUnits="userSpaceOnUse" x1="26.18" y1="13.5" x2="26.18" y2="24">
<stop stop-color="#FFFFFF" offset="0"/>
<stop stop-color="#FFBB0F" offset="1"/>
</linearGradient>
<path d="M42.076,25.882l-31.799,0.085l0.011-6.173c0-1.247,1.002-2.268,2.227-2.268l3.501-0.051 c0,0-0.107-4.267,1.999-4.267c2.107,0,3.349,0.002,5.352,0.002c2.003,0,1.956,4.264,1.956,4.264l14.538-0.033 c1.228,0,2.227,1.021,2.227,2.268L42.076,25.882z" fill="url(#_60)"/>
<path d="M45.686,16.954c1.138,0.542,1.668,2.013,1.176,3.271l-4.354,11.13c-0.492,1.258-1.826,1.84-2.963,1.299 l-10.089-4.807c-1.14-0.543-1.669-2.014-1.177-3.271l4.354-11.131c0.492-1.257,1.825-1.841,2.965-1.298L45.686,16.954" fill="#E07029"/>
<linearGradient id="_61" gradientUnits="userSpaceOnUse" x1="34.27" y1="30.05" x2="40.87" y2="14.75">
<stop stop-color="#FB9E3A" offset="0.06"/>
<stop stop-color="#E6742B" offset="1"/>
</linearGradient>
<path d="M45.463,17.524l-10.089-4.807c-0.856-0.408-1.854,0.029-2.226,0.975l-4.354,11.131 c-0.369,0.945,0.026,2.045,0.884,2.454l10.09,4.807c0.854,0.407,1.854-0.029,2.224-0.975l4.354-11.13 C46.715,19.033,46.318,17.932,45.463,17.524z" fill="url(#_61)"/>
<linearGradient id="_62" gradientUnits="userSpaceOnUse" x1="40.56" y1="14.95" x2="37.13" y2="22.91">
<stop stop-color="#FFFFFF" offset="0"/>
<stop stop-color="#FF9F61" offset="1"/>
</linearGradient>
<path d="M46.346,19.978l-15.707,0.129l2.512-6.416c0.369-0.943,1.369-1.381,2.223-0.974l10.09,4.807 C46.316,17.931,46.715,19.035,46.346,19.978L46.346,19.978z" fill="url(#_62)"/>
<path d="M34.096,25.057c-0.303,0.774-1.117,1.13-1.818,0.796c-0.702-0.334-1.024-1.232-0.721-2.006 c0.303-0.777,1.115-1.133,1.817-0.798C34.075,23.383,34.4,24.28,34.096,25.057z" fill="#FFFFFF"/>
<path d="M32.941,20.313c1.188,0.566,2.107,1.612,2.582,2.944c0.477,1.336,0.455,2.801-0.063,4.125l1.833,0.874 c1.503-3.843-0.095-8.314-3.562-9.966L32.941,20.313z" fill="#FFFFFF"/>
<path d="M34.346,16.726c4.241,2.021,6.194,7.496,4.354,12.204l1.833,0.873c2.278-5.825-0.142-12.597-5.396-15.1 L34.346,16.726z" fill="#FFFFFF"/>
<path d="M11.82,44.697c-1.7-0.049-3.37-0.834-3.798-2.637l0,0L5.291,26.709 c-0.05-0.256-0.08-0.504-0.08-0.75l0,0c-0.064-1.008,0.696-1.908,1.392-2.072l0,0c0.687-0.231,1.381-0.215,2.097-0.221l0,0 c0.085,0,0.162,0.002,0.23,0.002l0,0h34.227c0.808,0.008,1.559-0.014,2.299,0.264l0,0c0.769,0.226,1.467,1.217,1.401,2.263l0,0 c0,0.134-0.008,0.266-0.019,0.396l0,0l-0.006,0.051l-2.546,15.407c-0.405,1.811-2.075,2.604-3.775,2.651l0,0L11.82,44.697 L11.82,44.697z" fill="url(#_58)" fill-opacity="0.7"/>
<linearGradient id="_64" gradientUnits="userSpaceOnUse" x1="23.43" y1="10.52" x2="29.53" y2="46.89">
<stop stop-color="#FFFFD6" offset="0"/>
<stop stop-color="#FFB700" offset="1"/>
</linearGradient>
<path d="M43.396,41.869c-0.166,1.007-1.461,1.83-2.885,1.83H11.82c-1.419,0-2.729-0.823-2.908-1.83 L6.177,26.497c-0.367-1.875,1.061-1.83,2.754-1.83h34.227c1.697,0,2.945,0.047,2.779,1.83L43.396,41.869z" fill="url(#_64)"/>
</svg>