<?xml version="1.0" encoding="UTF-8"?>
<!DOCTYPE svg PUBLIC "-//W3C//DTD SVG 1.1 Tiny//EN" "http://www.w3.org/Graphics/SVG/1.1/DTD/svg11-tiny.dtd">
<svg width="84" height="72" viewBox="0 0 84 72">
<linearGradient id="_21" gradientUnits="userSpaceOnUse" x1="49.7" y1="47.53" x2="59.44" y2="58.85">
<stop stop-color="#A2C2DD" offset="0.1"/>
<stop stop-color="#6C83BB" offset="0.71"/>
<stop stop-color="#003D6D" offset="0.99"/>
</linearGradient>
<path fill="url(#_21)" d="M33.631,10.03l-3.095,10.298l-7.657-1.314l-7.055,2.577l2.167,9.361 c-4.448-2.337-5.269-2.252-6.545-5.361l-1.966,0.807l4.487,11.445l-2.444,0.549l0.325,6.188 c-1.553,2.277-1.419,4.555,0.288,5.549l0.538,10.355l24.363,7.034l2.319-2.13l0.339-11.04l20.648,6.332l13.434-41.168 l-17.889-2.698l0.214-5.515L38.05,8.653L33.631,10.03z M14.807,33.644c3.096,0.266,4.483,0.888,4.889,4.872l-3.251-0.626 L14.807,33.644z"/>
<linearGradient id="_22" gradientUnits="userSpaceOnUse" x1="50.86" y1="24.93" x2="70.83" y2="43.99">
<stop stop-color="#A2C2DD" offset="0.1"/>
<stop stop-color="#6C83BB" offset="0.71"/>
<stop stop-color="#003D6D" offset="0.99"/>
</linearGradient>
<polygon fill="url(#_22)" points="72.969,20.019 59.973,59.653 69.263,21.942 "/>
<linearGradient id="_23" gradientUnits="userSpaceOnUse" x1="22.91" y1="35.06" x2="69.26" y2="35.06">
<stop stop-color="#FFFFFF" offset="0.15"/>
<stop stop-color="#A2C2DD" offset="1"/>
</linearGradient>
<polygon fill="url(#_23)" points="22.915,48.523 34.106,10.517 52.313,13.437 52.182,19.078 69.263,21.942 59.955,59.595 "/>
<linearGradient id="_24" gradientUnits="userSpaceOnUse" x1="48.53" y1="47.71" x2="14.69" y2="19.05">
<stop stop-color="#CADCEC" offset="0"/>
<stop stop-color="#87A8CB" offset="1"/>
</linearGradient>
<polygon fill="url(#_24)" points="59.959,59.238 22.732,48.505 16.594,21.986 53.65,29.413 "/>
<linearGradient id="_25" gradientUnits="userSpaceOnUse" x1="34.57" y1="31.36" x2="40.67" y2="19.17">
<stop stop-color="#FFFFFF" offset="0.15"/>
<stop stop-color="#A2C2DD" offset="1"/>
</linearGradient>
<polygon fill="url(#_25)" points="59.92,26.002 22.964,19.66 16.594,21.986 53.75,29.556 "/>
<linearGradient id="_26" gradientUnits="userSpaceOnUse" x1="43.85" y1="13.77" x2="46" y2="7.96">
<stop stop-color="#FFFFFF" offset="0.05"/>
<stop stop-color="#A2C2DD" offset="1"/>
</linearGradient>
<polygon fill="url(#_26)" points="55.473,11.835 38.126,9.293 34.141,10.535 52.313,13.437 "/>
<linearGradient id="_27" gradientUnits="userSpaceOnUse" x1="61.6" y1="22.2" x2="63.79" y2="16.24">
<stop stop-color="#FFFFFF" offset="0.05"/>
<stop stop-color="#A2C2DD" offset="1"/>
</linearGradient>
<polygon fill="url(#_27)" points="72.969,20.019 55.26,17.348 52.182,19.078 69.263,21.942 "/>
<linearGradient id="_28" gradientUnits="userSpaceOnUse" x1="69.06" y1="39.78" x2="54.12" y2="44.96">
<stop stop-color="#A2C2DD" offset="0.1"/>
<stop stop-color="#6C83BB" offset="0.71"/>
<stop stop-color="#003D6D" offset="0.99"/>
</linearGradient>
<polygon fill="url(#_28)" points="59.92,26.002 59.961,59.882 53.654,29.607 "/>
<linearGradient id="_29" gradientUnits="userSpaceOnUse" x1="31.46" y1="3.65" x2="75.36" y2="26.82">
<stop stop-color="#FFFFFF" offset="0"/>
<stop stop-color="#A2C2DD" offset="0.35"/>
<stop stop-color="#6C83BB" offset="0.7"/>
<stop stop-color="#003D6D" offset="1"/>
</linearGradient>
<polygon fill="url(#_29)" points="52.313,13.437 52.182,19.078 55.26,17.348 55.473,11.835 "/>
<linearGradient id="_30" gradientUnits="userSpaceOnUse" x1="14.94" y1="57.23" x2="49.85" y2="39.85">
<stop stop-color="#FFFFFF" offset="0.15"/>
<stop stop-color="#A2C2DD" offset="1"/>
</linearGradient>
<polygon fill="url(#_30)" points="22.915,48.523 29.923,24.712 53.705,29.6 59.961,59.882 "/>
<linearGradient id="_31" gradientUnits="userSpaceOnUse" x1="46.58" y1="51.97" x2="32.8" y2="56.75">
<stop stop-color="#A2C2DD" offset="0.1"/>
<stop stop-color="#6C83BB" offset="0.71"/>
<stop stop-color="#003D6D" offset="0.99"/>
</linearGradient>
<polygon fill="url(#_31)" points="36.898,66.803 38.757,65.094 39.436,42.968 37.151,44.012 "/>
<linearGradient id="_32" gradientUnits="userSpaceOnUse" x1="25.17" y1="43.63" x2="26.19" y2="39.44">
<stop stop-color="#FFFFFF" offset="0.15"/>
<stop stop-color="#A2C2DD" offset="1"/>
</linearGradient>
<polygon fill="url(#_32)" points="39.456,42.949 15.041,38.251 12.21,38.885 37.236,44.021 "/>
<linearGradient id="_33" gradientUnits="userSpaceOnUse" x1="68.07" y1="53.55" x2="11.91" y2="52.64">
<stop stop-color="#FFFFFF" offset="0.15"/>
<stop stop-color="#A2C2DD" offset="1"/>
</linearGradient>
<polygon fill="url(#_33)" points="12.215,38.894 13.309,59.992 36.898,66.803 37.232,44.019 "/>
<linearGradient id="_34" gradientUnits="userSpaceOnUse" x1="22.95" y1="34.82" x2="27.59" y2="71.29">
<stop stop-color="#FFFFFF" offset="0.05"/>
<stop stop-color="#A2C2DD" offset="1"/>
</linearGradient>
<polygon fill="url(#_34)" points="35.098,64.48 14.837,58.556 13.768,41.195 35.449,45.576 "/>
<linearGradient id="_35" gradientUnits="userSpaceOnUse" x1="45.32" y1="75.91" x2="23.13" y2="58.25">
<stop stop-color="#FFFFFF" offset="0"/>
<stop stop-color="#A2C2DD" offset="0.35"/>
<stop stop-color="#6C83BB" offset="0.7"/>
<stop stop-color="#003D6D" offset="1"/>
</linearGradient>
<path fill="url(#_35)" d="M14.63,55.511l6.075,3.176l7.506,1.099c3.635-0.834,6.068,0.407,6.937,0.992l-0.051,3.82 l-20.261-5.923L14.63,55.511z"/>
<path fill="#298595" d="M20.881,58.046l9.562-0.709c-0.943,6.377-9.843,2.516-10.847,1.465L20.881,58.046z"/>
<linearGradient id="_36" gradientUnits="userSpaceOnUse" x1="18.29" y1="56.62" x2="20.17" y2="58.37">
<stop stop-color="#D6E6EC" offset="0"/>
<stop stop-color="#298595" offset="1"/>
</linearGradient>
<path fill="url(#_36)" d="M18.443,56.081l2.438,1.966l-0.985,1.001c-0.812-0.526-1.249-1.497-1.249-1.497 S18.402,56.741,18.443,56.081z"/>
<path fill="#BFDAE1" d="M18.443,56.093l2.437,2c2.793,0.957,7.937,2.23,9.563-0.756 C28.244,56.748,20.065,55.708,18.443,56.093z"/>
<path fill="#115B7E" d="M21.065,57.766l-1.828-1.476c1.358-0.197,8.887,0.645,10.759,1.146 C28.247,59.703,23.713,58.601,21.065,57.766z"/>
<linearGradient id="_37" gradientUnits="userSpaceOnUse" x1="23.52" y1="50.54" x2="16.01" y2="50.22">
<stop stop-color="#2B98A0" offset="0"/>
<stop stop-color="#0A4A60" offset="1"/>
</linearGradient>
<polygon fill="url(#_37)" points="23.858,57.33 24.002,43.792 18.231,54.232 "/>
<polygon fill="#2F8E9A" points="24.642,58.125 24.161,46.358 28.089,57.752 "/>
<polygon fill="#BFDAE1" points="22.41,56.794 24.252,58.595 25.632,58.771 23.618,56.865 "/>
<polygon fill="#2F8E9A" points="22.46,57.053 23.94,58.521 24.234,58.572 22.41,56.794 "/>
<path fill="#6D5607" d="M16.811,43.286l-6.485-16.546l0.804-0.33c0.972,2.333,2.393,2.968,3.843,3.668 c3.302,1.589,7.141,2.783,5.93,10.871l-0.638-0.137c0.72-6.255-1.927-7.89-6.379-7.874l4.27,11.071L16.811,43.286z"/>
<radialGradient id="_38" gradientUnits="userSpaceOnUse" cx="15.72" cy="44.51" fx="15.11" fy="44.5" r="3.31">
<stop stop-color="#E6EEF4" offset="0"/>
<stop stop-color="#A3740A" offset="0.44"/>
<stop stop-color="#474105" offset="0.94"/>
</radialGradient>
<path fill="url(#_38)" d="M18.243,45.437c-0.316,1.982-2.079,3.946-3.941,4.381c-1.862,0.44-3.117-0.811-2.803-2.797 c0.315-1.98,2.077-3.945,3.941-4.384C17.3,42.201,18.558,43.453,18.243,45.437z"/>
<rect x="53.219" y="45.544" fill="#FFFFFF" width="18.311" height="18.311"/>
<linearGradient id="_39" gradientUnits="userSpaceOnUse" x1="45.24" y1="36.96" x2="77.11" y2="69.96">
<stop stop-color="#E6EEF4" offset="0"/>
<stop stop-color="#9646AC" offset="0.44"/>
<stop stop-color="#3D013F" offset="0.94"/>
</linearGradient>
<path fill="url(#_39)" d="M51.121,43.448v22.505h22.507V43.448H51.121z M71.529,45.544v18.311H53.219V45.544H71.529z"/>
<linearGradient id="_40" gradientUnits="userSpaceOnUse" x1="51.49" y1="42.53" x2="69.74" y2="63.03">
<stop stop-color="#E6EEF4" offset="0"/>
<stop stop-color="#9646AC" offset="0.44"/>
<stop stop-color="#3D013F" offset="0.94"/>
</linearGradient>
<path fill="url(#_40)" d="M55.945,48.446l11.492,3.341l-2.771,2.773c0,0,3.051,3.051,4.484,4.484 c-0.977,0.98-1.628,1.633-2.605,2.61c-1.436-1.436-4.488-4.489-4.488-4.489l-2.773,2.773L55.945,48.446z"/>
</svg>