<?xml version="1.0" encoding="UTF-8"?>
<!DOCTYPE svg PUBLIC "-//W3C//DTD SVG 1.1 Tiny//EN" "http://www.w3.org/Graphics/SVG/1.1/DTD/svg11-tiny.dtd">
<svg width="100%" height="100%" viewBox="0 0 88 88">
<linearGradient id="_11" gradientUnits="userSpaceOnUse" x1="40.95" y1="45.95" x2="61.31" y2="86.03">
<stop stop-color="#A2C2DD" offset="0.1"/>
<stop stop-color="#6C83BB" offset="0.71"/>
<stop stop-color="#003D6D" offset="0.99"/>
</linearGradient>
<path d="M16.58,7.616l1.941,61.975l48.061,13.461l3.477-3.667L69.775,34.89l-15.873-20.61L20.568,6.284 L16.58,7.616z" fill="url(#_11)"/>
<linearGradient id="_12" gradientUnits="userSpaceOnUse" x1="62.33" y1="6.18" x2="31.22" y2="65.28">
<stop stop-color="#FFFFFF" offset="0.05"/>
<stop stop-color="#A2C2DD" offset="1"/>
</linearGradient>
<path d="M19.079,69.157L17.163,8.022l37.647,8.904c3.817,4.758,7.851,10.59,11.498,15.842l0.096,49.638 L19.079,69.157z" fill="url(#_12)"/>
<linearGradient id="_13" gradientUnits="userSpaceOnUse" x1="53.64" y1="20.92" x2="22.8" y2="85.13">
<stop stop-color="#FFFFFF" offset="0"/>
<stop stop-color="#A2C2DD" offset="1"/>
</linearGradient>
<path d="M38.895,24.538C49.916,24.31,60.137,33.58,61.72,45.237 c1.585,11.662-6.064,21.297-17.086,21.522c-11.021,0.229-21.24-9.042-22.826-20.702C20.225,34.398,27.874,24.766,38.895,24.538 z" fill="url(#_13)"/>
<linearGradient id="_14" gradientUnits="userSpaceOnUse" x1="25.78" y1="18.93" x2="47.18" y2="47.43">
<stop stop-color="#DCE8E4" offset="0"/>
<stop stop-color="#43910A" offset="1"/>
</linearGradient>
<path d="M29.813,28.138c-0.83,0.589-3.008,2.457-2.945,3.169c0.065,0.713,0.583-0.851,1.306-0.6 c0.132-0.005,0.8-1.261,2.248-2.082c0.583-0.694,1.85-0.326,1.85-0.326s3.41-1.498,3.258-1.137 c0.868-2.037-6.021,3.115-3.639,1.823c-0.408,0.223-2.602,1.985-0.673,1.268c0.367-0.044,1.406-0.1,1.936,0.068 c0.533,0.166,1.228-0.785,2.253-0.584c0.376-0.225,1.122-0.704,1.323-0.707c0.2-0.005,0.935-0.093,0.772-1.017 c0,0,0.37-1.315,0.462-1.833c0.437-0.141,0.856-0.908,0.856-0.908c-1.444-0.183-4.717,0.85-5.201,0.997 C33.527,26.379,30.854,27.832,29.813,28.138z" fill="url(#_14)"/>
<linearGradient id="_15" gradientUnits="userSpaceOnUse" x1="23.88" y1="19.35" x2="45.21" y2="47.74">
<stop stop-color="#DCE8E4" offset="0"/>
<stop stop-color="#43910A" offset="1"/>
</linearGradient>
<path d="M49.463,27.622l1.368,2.367l2.549,0.875c0,0,0.714,0.771,0.939,0.95 c0.495,1.416,1.38,2.936,1.522,3.003c0.143,0.066,0.78,0.268,0.979,0.229c0.239,0.782,0.039,0.786,0.039,0.786l-1.045-0.48 l0.639,1.743l2.349,3.346c-0.163,0.538-0.644,3.727-0.644,3.727s1.336,1.119,1.336,2.37c-1.553,0.362-1.576,0.854-1.576,0.854 s-1.427-0.826-1.576-1.186c-0.876-1.194-1.763-0.784-1.951-0.173c-0.904,2.971-1.016,2.675-0.563,4.553 c0.859,1.089,0.49,1.38,0.233,1.207c-0.26-0.172-0.651-0.306-0.986-0.3c-0.338,0.009-0.86-1.088-1.264-1.834 c-0.403-0.741-2.015-1.887-2.364-2.451c-0.345-0.563-1.322-0.542-1.322-0.542s-2.771,0.233-2.54,0.439 c1.482,0.972,1.041,1.698,1.041,1.698l-1.853,2.037c0,0-1.669,0.894-2.188,1.045c-0.891,0.665,0.221,0.891,1.26,0.584 c1.039-0.309,1.002,0.158,0.896,0.627c-0.394,1.578-1.334,2.598-2.004,2.897c-1.329,1.14-1.446,2.783-0.648,3.444 c0,0,0.288,1.605-0.215,1.65c-0.498,0.046-1.129,0.632-1.096,0.879c0.035,0.252-0.363,1.295-0.543,1.476 c-0.577,0.977-1.501,0.889-1.935,0.683c-1.802,0.424-3.78-2.708-3.92-2.991c-0.137-0.282-1.584-0.968-1.318-2.26 c0.259-1.293-2.229-4.432-3.681-7.182c-0.155-0.119-1.65-0.465-2.458-0.699c-0.809-0.233-1.415-2.184-1.862-2.999 c-0.446-0.812,0.032-4.003,0.036-4.218c0.006-0.215,3.389-3.179,3.389-3.179l-0.308-1.248c0,0,0.978-1.769,1.286-1.202 c0.314,0.564,1.481,0.431,1.267-0.381c-0.213-0.818,0.005-1.22,0.301-1.258c0.301-0.044-0.06-0.716-0.5-1.207 c-0.436-0.491,0.487-0.655,1.012-1.274c0.527-0.615,0.347,1.317,0.436,1.961c0.086,0.642,1.909-1.113,1.994-1.222 c-0.404-1.244,0.496-1.583,0.759-1.626c0.267-0.041,1.377-0.813,1.636-1.142c0.257-0.326,1.102-0.342,1.377-0.313 c0.274,0.027,1.625,1.036,1.929,1.03c0.305-0.007,2.604-0.734,2.61-1.195c0.003-0.465,0.203-0.721,0.619-0.906 c0.414-0.185,0.278-1.688,0.278-1.688s1.954-0.539,2.24-0.653c0.29-0.114-0.066-0.748-0.205-1.03 c0.252-0.863-1.783-1.664-1.068-1.624C46.945,25.779,49.09,27.13,49.463,27.622z M28.805,40.697l0.318,0.35 c0,0,1.412,0.124,2.867,0.664c0.241,0.216,0.131,1.278,0.131,1.278s1.773,2.108,2.023,1.71 c0.249-0.398,0.604-0.765,1.125-0.415c0.52,0.343,1.723,0.751,2.297,0.738c0.248,0.065,1.475,0.433,1.185-1.453 c-0.555-0.671-1.727-0.539-1.952-0.709c-0.228-0.178-0.806-1.451-0.806-1.451l-0.388,0.114c0,0,0.055,0.894-0.183,0.896 c-0.233,0.005-0.924-1.336-0.924-1.336l-0.027-0.714l-0.909-0.98c0,0-0.474,0.256,0.682,1.554c0,0-0.573,0.763-1.072,0.807 c0.11-0.179,0.305-1.004,0.305-1.004s-1.816-1.984-2.094-1.708c-0.324,0.325-1.324,0.954-1.324,0.954l-0.62,0.657 L28.805,40.697z M36.058,33.901c-0.556,1.251-1.564,1.625-1.412,2.065c0.063,0.178,1.106,0.408,1.205-0.095 c0.103-0.502,0.694-0.621,0.664-0.837C36.485,34.822,36.129,33.739,36.058,33.901z M38.265,39.967 c-0.176-0.067-0.602-0.703-0.942-0.231c-0.339,0.469-0.707,1.517-0.189,1.575c0.515,0.063,1.214-0.24,1.402-0.098 c0.19,0.141,1.557,0.674,1.655-0.035C40.356,39.977,38.265,39.967,38.265,39.967z M38.469,46.432 c0.015,0.217,1.163,2.336,1.163,2.336s0.026,0.713,0.231,0.963c0.202,0.245,0.987,1.549,1.691,1.751 c0.81-1.207-1.281-2.726-1.281-2.726l-0.152-0.604C40.121,48.151,38.399,45.434,38.469,46.432z M42.895,45.697l0.117,0.606 l1.407,1.398c0,0,1.098-0.129,0.779-0.978l-1.026-0.338L42.895,45.697z" fill="url(#_15)"/>
<linearGradient id="_16" gradientUnits="userSpaceOnUse" x1="67.72" y1="22.49" x2="67.72" y2="83.25">
<stop stop-color="#FFFFFF" offset="0"/>
<stop stop-color="#A2C2DD" offset="0.35"/>
<stop stop-color="#6C83BB" offset="0.7"/>
<stop stop-color="#003D6D" offset="1"/>
</linearGradient>
<polygon fill="url(#_16)" points="66.405,82.406 65.956,33.595 69.203,35.088 69.483,79.152 "/>
<linearGradient id="_17" gradientUnits="userSpaceOnUse" x1="34.35" y1="14.01" x2="36.52" y2="8.11">
<stop stop-color="#FFFFFF" offset="0.05"/>
<stop stop-color="#A2C2DD" offset="1"/>
</linearGradient>
<polygon fill="url(#_17)" points="17.065,7.987 20.593,6.879 53.571,14.788 50.988,16.604 "/>
<linearGradient id="_18" gradientUnits="userSpaceOnUse" x1="57.76" y1="-0.3" x2="46.03" y2="38.71">
<stop stop-color="#FFFFFF" offset="0"/>
<stop stop-color="#A2C2DD" offset="0.35"/>
<stop stop-color="#6C83BB" offset="0.7"/>
<stop stop-color="#003D6D" offset="1"/>
</linearGradient>
<polygon fill="url(#_18)" points="50.988,16.604 49.814,31.724 53.571,14.788 "/>
<linearGradient id="_19" gradientUnits="userSpaceOnUse" x1="61.22" y1="20.62" x2="56.81" y2="49.69">
<stop stop-color="#FFFFFF" offset="0"/>
<stop stop-color="#A2C2DD" offset="0.35"/>
<stop stop-color="#6C83BB" offset="0.7"/>
<stop stop-color="#003D6D" offset="1"/>
</linearGradient>
<polygon fill="url(#_19)" points="51.732,30.751 48.521,35.283 69.193,37.113 69.193,34.949 "/>
<linearGradient id="_20" gradientUnits="userSpaceOnUse" x1="65.73" y1="7.25" x2="58.93" y2="34.91">
<stop stop-color="#FFFFFF" offset="0.05"/>
<stop stop-color="#A2C2DD" offset="1"/>
</linearGradient>
<polygon fill="url(#_20)" points="69.203,35.088 53.571,14.788 49.814,31.724 "/>
</svg>