<?xml version="1.0" encoding="UTF-8"?>
<!DOCTYPE svg PUBLIC "-//W3C//DTD SVG 1.1 Tiny//EN" "http://www.w3.org/Graphics/SVG/1.1/DTD/svg11-tiny.dtd">
<svg baseProfile="tiny" height="44" version="1.1" viewBox="0 0 44 44" width="44" xmlns="http://www.w3.org/2000/svg" xmlns:xlink="http://www.w3.org/1999/xlink">
<path d="M24.999,3C16.177,3,9.002,10.18,9.002,19.001c0,2.654,0.658,5.153,1.807,7.359l-8.637,8.64l6.83,6.83l8.637-8.64  c2.205,1.149,4.705,1.81,7.36,1.81c8.82,0,16-7.177,16-15.999C40.999,10.18,33.82,3,24.999,3z M34.159,15.001h-5.16V9.84  C31.3,10.849,33.152,12.698,34.159,15.001z M15.841,22.999H21v5.16C18.699,27.15,16.85,25.301,15.841,22.999z M21,9.84v5.161h-5.16  C16.85,12.699,18.699,10.849,21,9.84z M28.999,28.16v-5.16h5.16C33.15,25.301,31.3,27.15,28.999,28.16z"/>
<path d="M24.999,5c-7.72,0-14,6.28-14,14c0,2.839,0.854,5.479,2.312,7.688L5,34.999l4,4l8.312-8.313  c2.209,1.459,4.85,2.313,7.688,2.313c7.722,0,14-6.278,14-14C38.999,11.28,32.72,5,24.999,5z M24.999,30.999  c-6.617,0-12-5.383-12-12c0-6.616,5.383-12,12-12c6.617,0,12,5.384,12,12C36.999,25.617,31.616,30.999,24.999,30.999z" fill="#FFFFFF"/>
<rect fill="none" height="44" width="44" x="0" y="0"/>
<polygon fill="#FFFFFF" points="32.999,17 26.999,17 26.999,11 22.999,11 22.999,17 17,17 17,21 22.999,21 22.999,26.999   26.999,26.999 26.999,21 32.999,21 "/>
</svg>
