<?xml version="1.0" encoding="UTF-8"?>
<!DOCTYPE svg PUBLIC "-//W3C//DTD SVG 1.1 Tiny//EN" "http://www.w3.org/Graphics/SVG/1.1/DTD/svg11-tiny.dtd">
<svg width="84" height="72" viewBox="0 0 84 72">
<linearGradient id="_16" gradientUnits="userSpaceOnUse" x1="43.98" y1="31.19" x2="58.91" y2="60.59">
<stop stop-color="#A2C2DD" offset="0.1"/>
<stop stop-color="#6C83BB" offset="0.71"/>
<stop stop-color="#003D6D" offset="0.99"/>
</linearGradient>
<path fill="url(#_16)" d="M33.291,5.153c-0.172,0.442-1.803,5.654-1.979,6.165c-0.558-0.087-14.762-2.247-14.762-2.247 c-1.417-0.008-3.658,0.704-3.658,0.704l1.257,33.908c0,0,20.564,5.67,21.529,5.936l-0.001,0.002 c-0.31,0.549-2.748,5.054-3.272,9.963l0.453,2.363l0.063,0.071c0.149,0.17,3.759,4.18,11.635,5.537l0.139,0.023l0.215-0.101 c5.172-3.487,8.868-8.677,9.847-12l0.188-2.972c-0.004-0.178-0.073-3.665-0.463-5.918c0.242-0.229,6.532-6.196,6.92-6.565 c1.289,1.034,4.012,2.59,6.71,3.19l0.121,0.026l0.11-0.055c1.896-0.94,5.093-4.75,5.469-6.072c0.168-0.59,0.37-1.236,0.359-2.593 c-0.019-2.289-1.643-6.446-3.094-7.556s-5.584-1.604-6.019-1.719c-2.122,0.666-5.81,2.979-5.81,2.979l3.344-9.875l2.406,0.063 c1.291-2.365,3.38-6.859,3.38-9.604c0-0.685-0.38-2.284-1.446-2.512L36.641,4.087C36.641,4.087,34.281,4.011,33.291,5.153z"/>
<linearGradient id="_17" gradientUnits="userSpaceOnUse" x1="56.68" y1="-3.42" x2="40.94" y2="26.48">
<stop stop-color="#FFFFFF" offset="0.05"/>
<stop stop-color="#A2C2DD" offset="1"/>
</linearGradient>
<path fill="url(#_17)" d="M63.438,7.578L33.961,5.09l-5.896,19.81l25.447,9.528 C58.969,33.541,63.438,7.578,63.438,7.578z"/>
<linearGradient id="_18" gradientUnits="userSpaceOnUse" x1="74.98" y1="-3.48" x2="55.84" y2="26.82">
<stop stop-color="#FFFFFF" offset="0"/>
<stop stop-color="#496DA2" offset="0.71"/>
<stop stop-color="#235487" offset="0.99"/>
</linearGradient>
<path fill="url(#_18)" d="M63.449,7.646l-5.472,17.112c-2.119,6.574-2.629,9.639-4.622,9.665 c1.923,0.334,4.38-2.273,5.667-6.887l3.136-9.757l2.565,0.051C70.131,6.929,66.979,5.247,63.449,7.646z"/>
<linearGradient id="_19" gradientUnits="userSpaceOnUse" x1="48.5" y1="9.97" x2="51.86" y2="0.83">
<stop stop-color="#FFFFFF" offset="0.05"/>
<stop stop-color="#A2C2DD" offset="1"/>
</linearGradient>
<path fill="url(#_19)" d="M63.438,7.637c0.793-0.515,1.428-0.826,2.588-0.979L36.675,4.583 c-1.257,0.106-1.869,0.154-2.714,0.569L63.438,7.637z"/>
<path fill="#FFFFFF" d="M36.523,6.254c-0.604-0.066-1.243,0.378-1.425,0.992c-0.184,0.613,0.154,1.168,0.754,1.233 c0.599,0.066,1.237-0.376,1.425-0.994C37.465,6.87,37.128,6.319,36.523,6.254z"/>
<path fill="#FFFFFF" d="M35.296,10.294c-0.594-0.067-1.23,0.375-1.412,0.989c-0.182,0.612,0.148,1.17,0.738,1.239 c0.595,0.063,1.224-0.38,1.41-0.995C36.222,10.911,35.892,10.357,35.296,10.294z"/>
<path fill="#FFFFFF" d="M58.936,10.321c-0.497,1.531,1.754,1.719,2.254,0.186C61.707,8.962,59.432,8.772,58.936,10.321z"/>
<path fill="#FFFFFF" d="M57.564,14.534c-0.494,1.524,1.726,1.711,2.226,0.188C60.298,13.188,58.063,12.999,57.564,14.534z"/>
<path fill="#FFFFFF" d="M56.195,18.752c-0.492,1.538,1.688,1.726,2.191,0.188C58.894,17.41,56.692,17.219,56.195,18.752z"/>
<path fill="#FFFFFF" d="M54.825,22.966c-0.497,1.529,1.658,1.722,2.155,0.192C57.496,21.623,55.316,21.429,54.825,22.966z"/>
<path fill="#FFFFFF" d="M53.45,27.181c-0.499,1.548,1.618,1.744,2.129,0.194C56.094,25.823,53.957,25.626,53.45,27.181z"/>
<path fill="#FFFFFF" d="M52.651,30.606l0.09,2.049c0.58,0.06,1.216-0.416,1.43-1.057 C54.541,30.483,53.471,29.997,52.651,30.606z"/>
<linearGradient id="_20" gradientUnits="userSpaceOnUse" x1="59.15" y1="52.84" x2="48" y2="17.28">
<stop stop-color="#FFFFFF" offset="0"/>
<stop stop-color="#496DA2" offset="0.71"/>
<stop stop-color="#235487" offset="0.99"/>
</linearGradient>
<path fill="url(#_20)" d="M50.163,15.023c6.762-0.157,0.607,15.44,3.349,19.404l-5.703-1.46 C47.809,32.968,45.377,14.152,50.163,15.023z"/>
<linearGradient id="_21" gradientUnits="userSpaceOnUse" x1="54.33" y1="54.36" x2="43.18" y2="18.8">
<stop stop-color="#A2C2DD" offset="0.1"/>
<stop stop-color="#6C83BB" offset="0.71"/>
<stop stop-color="#003D6D" offset="0.99"/>
</linearGradient>
<polygon fill="url(#_21)" points="46.387,52.229 46.522,15.87 49.312,15.154 49.188,49.65 "/>
<linearGradient id="_22" gradientUnits="userSpaceOnUse" x1="43.39" y1="5.72" x2="24.25" y2="42.08">
<stop stop-color="#FFFFFF" offset="0.05"/>
<stop stop-color="#A2C2DD" offset="1"/>
</linearGradient>
<polygon fill="url(#_22)" points="46.381,52.231 14.724,43.386 13.604,10.114 46.999,16.66 "/>
<linearGradient id="_23" gradientUnits="userSpaceOnUse" x1="31.02" y1="16.11" x2="33.93" y2="8.2">
<stop stop-color="#FFFFFF" offset="0.05"/>
<stop stop-color="#A2C2DD" offset="1"/>
</linearGradient>
<path fill="url(#_23)" d="M46.999,16.66c0.459-0.971,2.726-1.824,4.056-1.622L16.874,9.571 c-1.266-0.01-2.579,0.188-3.296,0.573L46.999,16.66z"/>
<path fill="#FFFFFF" d="M15.588,13.335c0.067,1.586,2.458,2.09,2.402,0.503C17.93,12.25,15.518,11.745,15.588,13.335z"/>
<path fill="#FFFFFF" d="M15.769,17.685c0.07,1.579,2.429,2.082,2.369,0.501C18.079,16.607,15.696,16.105,15.769,17.685z"/>
<path fill="#FFFFFF" d="M15.948,22.036c0.072,1.586,2.393,2.088,2.338,0.501C18.23,20.935,15.882,20.434,15.948,22.036z"/>
<path fill="#FFFFFF" d="M16.125,26.386c0.069,1.581,2.364,2.085,2.308,0.502C18.376,25.307,16.057,24.806,16.125,26.386z"/>
<path fill="#FFFFFF" d="M16.305,30.735c0.063,1.589,2.328,2.088,2.272,0.502C18.521,29.649,16.232,29.149,16.305,30.735z"/>
<path fill="#FFFFFF" d="M16.477,35.083c0.065,1.581,2.293,2.084,2.243,0.502C18.66,33.989,16.413,33.487,16.477,35.083z"/>
<path fill="#FFFFFF" d="M42.024,19.327c0.034,1.642,2.484,2.091,2.463,0.447C44.473,18.116,41.996,17.667,42.024,19.327z"/>
<path fill="#FFFFFF" d="M42.105,23.853c0.029,1.645,2.449,2.094,2.43,0.448C44.511,22.66,42.071,22.212,42.105,23.853z"/>
<path fill="#FFFFFF" d="M42.184,28.384c0.03,1.638,2.418,2.084,2.396,0.445C44.558,27.174,42.155,26.728,42.184,28.384z"/>
<path fill="#FFFFFF" d="M42.261,32.91c0.027,1.654,2.383,2.104,2.362,0.449C44.605,31.714,42.226,31.267,42.261,32.91z"/>
<path fill="#FFFFFF" d="M42.335,37.443c0.03,1.645,2.352,2.094,2.33,0.443C44.647,36.234,42.305,35.786,42.335,37.443z"/>
<linearGradient id="_24" gradientUnits="userSpaceOnUse" x1="81.96" y1="28.19" x2="56.16" y2="47.58">
<stop stop-color="#E6EEF4" offset="0"/>
<stop stop-color="#4A9900" offset="0.44"/>
<stop stop-color="#0E4E58" offset="0.94"/>
</linearGradient>
<path fill="url(#_24)" d="M73.78,33.991l-11.702,4.798l-0.751,0.717c1.131,0.979,4.598,2.793,6.803,3.289 c1.88-0.807,5.089-4.713,5.396-5.944C73.872,35.471,73.891,34.688,73.78,33.991z"/>
<linearGradient id="_25" gradientUnits="userSpaceOnUse" x1="74.91" y1="38.01" x2="56.79" y2="36.53">
<stop stop-color="#E6EEF4" offset="0"/>
<stop stop-color="#4A9900" offset="0.44"/>
<stop stop-color="#0E4E58" offset="0.94"/>
</linearGradient>
<path fill="url(#_25)" d="M66.918,33.259l-5.147,5.309c2.058,1.435,4.526,2.514,6.217,2.977L66.918,33.259z"/>
<linearGradient id="_26" gradientUnits="userSpaceOnUse" x1="76.49" y1="52.25" x2="27.14" y2="65.92">
<stop stop-color="#E6EEF4" offset="0"/>
<stop stop-color="#4A9900" offset="0.44"/>
<stop stop-color="#0E4E58" offset="0.94"/>
</linearGradient>
<path fill="url(#_26)" d="M54.613,52.364l-21.616,7.044l0.429,2.147c0,0,3.579,4.076,11.433,5.396 c5.249-3.512,8.639-8.631,9.55-11.739L54.613,52.364z"/>
<linearGradient id="_27" gradientUnits="userSpaceOnUse" x1="54.08" y1="71.89" x2="26.52" y2="43.53">
<stop stop-color="#DCE8E4" offset="0"/>
<stop stop-color="#43910A" offset="1"/>
</linearGradient>
<path fill="url(#_27)" d="M32.971,59.408c0.543-5.081,3.177-9.705,3.177-9.705l7.974,2.716l0.227,12.482 C38.233,63.984,34.949,61.333,32.971,59.408z"/>
<linearGradient id="_28" gradientUnits="userSpaceOnUse" x1="77.25" y1="30.06" x2="24.06" y2="51.37">
<stop stop-color="#DCE8E4" offset="0"/>
<stop stop-color="#43910A" offset="1"/>
</linearGradient>
<path fill="url(#_28)" d="M36.147,49.703c1.203,1.14,4.459,3.216,7.848,2.917l26.817-25.377 c-2.338-1.298-5.635-1.583-5.635-1.583C56.053,29.509,44.191,39.035,36.147,49.703z"/>
<linearGradient id="_29" gradientUnits="userSpaceOnUse" x1="83.37" y1="12.22" x2="52.17" y2="52.38">
<stop stop-color="#DCE8E4" offset="0"/>
<stop stop-color="#43910A" offset="1"/>
</linearGradient>
<path fill="url(#_29)" d="M44.348,64.901c-0.695-2.58-0.982-9.455-0.346-12.36c7.346-10.748,17.922-20.35,26.764-25.345 c0,0,2.494,2.603,3.021,6.781c-0.616,2.642-3.678,5.993-5.805,7.556c-0.282-0.639-1.245-7.821-1.245-7.821 c-2.439,3.196-6.295,6.67-12.607,12.651c0.418,2.217,0.483,5.974,0.483,5.974C52.589,57.221,48.99,62.008,44.348,64.901z"/>
<path fill="#FFFFFF" d="M17.545,38.703c-0.634-0.139-1.124,0.291-1.091,0.955c0.028,0.666,0.566,1.316,1.195,1.451 c0.632,0.135,1.118-0.293,1.092-0.957C18.712,39.484,18.179,38.833,17.545,38.703z"/>
<path fill="#FFFFFF" d="M17.726,42.947c-0.623-0.139-1.107,0.291-1.079,0.955c0,0.008,0.003,0.01,0.003,0.016l2.249,0.604 c0-0.041,0.009-0.082,0.007-0.123C18.878,43.732,18.352,43.082,17.726,42.947z"/>
<linearGradient id="_30" gradientUnits="userSpaceOnUse" x1="29.71" y1="15.7" x2="29.71" y2="38.84">
<stop stop-color="#E6EEF4" offset="0"/>
<stop stop-color="#A3740A" offset="0.44"/>
<stop stop-color="#474105" offset="0.94"/>
</linearGradient>
<polygon fill="url(#_30)" points="26.484,27.981 26.215,20.706 33.761,22.138 33.218,29.528 37.728,30.703 29.844,40.328 21.688,26.896 "/>
</svg>