<?xml version="1.0" encoding="UTF-8"?>
<!DOCTYPE svg PUBLIC "-//W3C//DTD SVG 1.1 Tiny//EN" "http://www.w3.org/Graphics/SVG/1.1/DTD/svg11-tiny.dtd">
<svg width="84" height="58" viewBox="1 0 84 58">
<path fill="#3366CC" d="M36.445,42.003c4.271-0.636,7.086-1.511,11.926-7.159c4.84-5.646,9.007-6.772,11.661-6.862 l14.399,7.903c-13.373,1.374-15.64,18.106-28.006,18.583L36.445,42.003z"/>
<linearGradient id="_18" gradientUnits="userSpaceOnUse" x1="44.69" y1="48.29" x2="57.07" y2="31.89">
<stop stop-color="#8CC2EA" offset="0"/>
<stop stop-color="#0046B7" offset="1"/>
</linearGradient>
<path fill="url(#_18)" d="M38.46,44.562c1.821-0.117,6.305-0.929,10.15-5.302l7.06,6.47 c-2.657,3.32-7.238,6.001-11.244,6.344L38.46,44.562z"/>
<linearGradient id="_19" gradientUnits="userSpaceOnUse" x1="57.31" y1="38.04" x2="50.13" y2="49.2">
<stop stop-color="#5AA7E0" offset="0"/>
<stop stop-color="#0046B7" offset="1"/>
</linearGradient>
<path fill="url(#_19)" d="M49.495,38.354c1.948-2.269,4.416-5.594,8.82-7.649l8.107,4.992 c-2.578,1.328-5.132,2.991-9.756,8.971L49.495,38.354z"/>
<path fill="#5AA7E0" d="M59.676,30.147c0,0,2.787-0.642,3.137-0.605l8.681,4.801c0,0-1.547-0.013-3.576,0.754L59.676,30.147z"/>
<polygon fill="#B3DDFF" points="37.028,42.8 38.367,42.638 39.292,43.821 38.069,44.078 "/>
<path fill="#B3DDFF" d="M39.749,42.293l1.028,1.205c0,0,1.063-0.283,1.401-0.463l-1.045-1.18 C40.687,42.039,39.749,42.293,39.749,42.293z"/>
<path fill="#B3DDFF" d="M42.285,41.336l1.065,1.184c0,0,1.009-0.543,1.195-0.676l-1.097-1.148 C43.261,40.864,42.285,41.336,42.285,41.336z"/>
<path fill="#B3DDFF" d="M44.411,40.037l1.107,1.122c0,0,0.946-0.692,1.021-0.805l-1.148-1.114 C45.076,39.536,44.411,40.037,44.411,40.037z"/>
<path fill="#B3DDFF" d="M46.252,38.5l1.143,1.072c0,0,0.854-0.849,0.896-0.924l-1.167-1.055 C46.963,37.844,46.252,38.5,46.252,38.5z"/>
<path fill="#B3DDFF" d="M47.891,36.771l1.188,1.058c0,0,0.786-0.903,0.83-0.98l-1.173-1.001 C48.606,36.026,47.891,36.771,47.891,36.771z"/>
<polygon fill="#B3DDFF" points="49.504,35.005 50.68,35.992 51.529,35.048 50.329,34.077 "/>
<polygon fill="#B3DDFF" points="51.116,33.275 52.331,34.217 53.26,33.34 51.991,32.412 "/>
<path fill="#B3DDFF" d="M52.88,31.672l1.271,0.895l1.012-0.787l-1.245-0.876C53.918,30.903,52.95,31.58,52.88,31.672z"/>
<path fill="#B3DDFF" d="M54.937,30.276l1.254,0.841c0,0,1.123-0.601,1.246-0.615l-1.289-0.83 C56.004,29.73,55.096,30.16,54.937,30.276z"/>
<path fill="#B3DDFF" d="M57.288,29.227l1.321,0.776c0,0,1.325-0.369,1.512-0.407l-1.356-0.787 C58.435,28.854,57.414,29.177,57.288,29.227z"/>
<polygon fill="#B3DDFF" points="60.076,28.558 61.458,29.35 62.22,29.236 60.779,28.452 "/>
<path fill="#B3DDFF" d="M44.857,52.577c0,0,1.363-0.217,1.505-0.263l1.001,1.246c0,0-1.475,0.264-1.541,0.258L44.857,52.577z "/>
<path fill="#B3DDFF" d="M47.948,51.914l1.034,1.219c0,0,1.316-0.438,1.642-0.617l-1.075-1.2 C49.227,51.479,48.075,51.873,47.948,51.914z"/>
<path fill="#B3DDFF" d="M50.867,50.688c0.2-0.092,1.281-0.745,1.337-0.82l1.134,1.158c0,0-1.13,0.736-1.377,0.842 L50.867,50.688z"/>
<path fill="#B3DDFF" d="M53.319,49.057l1.124,1.146c0,0,1.053-0.898,1.16-1.012l-1.144-1.12 C54.199,48.33,53.391,49.013,53.319,49.057z"/>
<path fill="#B3DDFF" d="M55.415,47.117l1.162,1.098l1.005-1.112l-1.172-1.057C56.41,46.045,55.612,46.937,55.415,47.117z"/>
<path fill="#B3DDFF" d="M57.296,45.017l1.192,1.046c0,0,0.871-1.042,0.945-1.172l-1.21-1.013 C58.062,44.118,57.437,44.845,57.296,45.017z"/>
<path fill="#B3DDFF" d="M59.093,42.845l1.203,0.998l0.947-1.179l-1.219-0.966C60.022,41.698,59.313,42.595,59.093,42.845z"/>
<path fill="#B3DDFF" d="M60.924,40.7l1.229,0.944c0,0,0.968-1.011,1.043-1.09l-1.242-0.933 C61.954,39.62,61.004,40.642,60.924,40.7z"/>
<path fill="#B3DDFF" d="M62.936,38.707l1.284,0.894c0.118-0.133,1.078-0.918,1.176-0.963l-1.298-0.876 C63.912,37.893,63.116,38.53,62.936,38.707z"/>
<path fill="#B3DDFF" d="M65.271,36.989l1.306,0.846c0,0,0.96-0.574,1.386-0.795l-1.32-0.827 C66.271,36.363,65.364,36.903,65.271,36.989z"/>
<path fill="#B3DDFF" d="M68.012,35.617l1.365,0.808c0,0,1.442-0.485,1.691-0.535l-1.366-0.799 C69.315,35.149,68.012,35.617,68.012,35.617z"/>
<path fill="#B3DDFF" d="M71.384,34.744l1.401,0.771l0.713-0.087l-1.435-0.788C72.063,34.64,71.6,34.695,71.384,34.744z"/>
<path fill="#0046B7" d="M46.497,54.34c12.976-1.119,14.925-18.036,27.898-18.445l-0.319,1.365 c-12.426,1.084-13.47,17.864-27.945,18.68L46.497,54.34z"/>
<polygon fill="#3366CC" points="46.497,54.34 36.445,42.003 36.474,42.995 46.131,55.94 "/>
<polygon fill="#5AA7E0" points="46.043,53.787 45.717,55.383 44.846,54.188 45.048,52.536 "/>
<polygon fill="#5AA7E0" points="37.087,42.78 37.188,43.907 38.145,45.231 38.112,44.077 "/>
<linearGradient id="_20" gradientUnits="userSpaceOnUse" x1="44.35" y1="40.88" x2="44.35" y2="54.28">
<stop stop-color="#A2C2DD" offset="0.1"/>
<stop stop-color="#6C83BB" offset="0.71"/>
<stop stop-color="#003D6D" offset="0.99"/>
</linearGradient>
<path fill="url(#_20)" d="M46.21,2.196l-0.92,0.198c-0.226,0.048-0.38,0.237-0.38,0.451c0,0.03,0.004,0.063,0.012,0.093 c0,0,2.995,13.779,3.297,15.166c-1.426-0.42-16.488-4.836-16.488-4.836c-0.179-0.053-0.372,0-0.499,0.133L12.924,32.792 c-0.08,0.087-0.126,0.212-0.126,0.33c0,0.031,0.002,0.061,0.01,0.093l0.369,1.779c0.028,0.148,0.134,0.272,0.278,0.331 c0,0,23.873,10.165,24.1,10.262c0.147,0.191,7.866,10.078,7.866,10.078c0.104,0.133,0.274,0.202,0.448,0.181 c8.246-0.962,12.095-5.585,15.817-10.054c3.49-4.195,6.785-8.153,13.521-8.74c0.21-0.016,0.387-0.166,0.428-0.367l0.267-1.268 c0.005-0.028,0.009-0.057,0.009-0.086c0-0.173-0.1-0.343-0.262-0.427c0,0-8.511-4.465-9.341-4.899 c0.377-0.555,1.25-1.841,1.25-1.841c0.036-0.052,0.06-0.111,0.072-0.176l0.596-3.471c-0.012,0.064-0.038,0.127-0.074,0.184 c0.119-0.17-0.388-0.869-0.186-0.809c0,0-16.972-4.979-17.506-5.134c-0.099-0.47-1.521-7.191-1.764-8.351 c2.122,0.432,3.504,1.144,4.235,2.256c0.459,0.695,0.688,1.564,0.688,2.624c0,1.006-0.206,2.183-0.62,3.542 c-0.014,0.044-0.021,0.088-0.021,0.129c0,0.187,0.117,0.356,0.307,0.43l0.656,0.25c0.123,0.048,0.264,0.044,0.383-0.011 c0.123-0.055,0.214-0.155,0.256-0.272c2.702-7.858-0.809-10.186-3.904-12.239l-0.746-0.501c-1.387-0.941-2.584-1.756-3.14-4.067 C46.727,2.299,46.471,2.142,46.21,2.196z"/>
<linearGradient id="_21" gradientUnits="userSpaceOnUse" x1="57.14" y1="35.65" x2="60.41" y2="38.38">
<stop stop-color="#FFFFFF" offset="0"/>
<stop stop-color="#A2C2DD" offset="0.35"/>
<stop stop-color="#6C83BB" offset="0.7"/>
<stop stop-color="#003D6D" offset="1"/>
</linearGradient>
<polygon fill="url(#_21)" points="67.769,24.334 51.224,47.931 51.44,51.079 67.15,27.914 "/>
<linearGradient id="_22" gradientUnits="userSpaceOnUse" x1="33.63" y1="39.18" x2="31.55" y2="43.94">
<stop stop-color="#FFFFFF" offset="0"/>
<stop stop-color="#A2C2DD" offset="0.35"/>
<stop stop-color="#6C83BB" offset="0.7"/>
<stop stop-color="#003D6D" offset="1"/>
</linearGradient>
<polygon fill="url(#_22)" points="51.28,47.896 13.277,33.1 13.65,34.902 51.467,51.002 "/>
<linearGradient id="_23" gradientUnits="userSpaceOnUse" x1="6.08" y1="1.94" x2="48.21" y2="34.68">
<stop stop-color="#FFFFFF" offset="0.15"/>
<stop stop-color="#A2C2DD" offset="1"/>
</linearGradient>
<polygon fill="url(#_23)" points="31.591,13.709 13.27,33.118 51.275,47.901 67.822,24.334 "/>
<linearGradient id="_24" gradientUnits="userSpaceOnUse" x1="47.06" y1="43.53" x2="33.45" y2="13.09">
<stop stop-color="#FFFFFF" offset="0.15"/>
<stop stop-color="#A2C2DD" offset="1"/>
</linearGradient>
<polygon fill="url(#_24)" points="50.528,45.723 16.227,32.571 32.144,15.466 64.878,25.366 "/>
<linearGradient id="_25" gradientUnits="userSpaceOnUse" x1="39.11" y1="58.45" x2="32.39" y2="35.99">
<stop stop-color="#FFFFFF" offset="0"/>
<stop stop-color="#A2C2DD" offset="0.35"/>
<stop stop-color="#6C83BB" offset="0.7"/>
<stop stop-color="#003D6D" offset="1"/>
</linearGradient>
<polygon fill="url(#_25)" points="18.728,29.975 47.086,42.468 50.497,45.767 16.195,32.604 "/>
<path fill="#FFFFFF" d="M27.113,20.857c4,3.175,13.508,4.547,13.508,4.547l3.518-3.227c1.18-3.389-4.146-3.665-6.149-2.579 c-1.237-2.289-5.383-1.194-5.613-0.33c-0.528-0.407-1.56-0.853-2.785-1.03L27.113,20.857z"/>
<path fill="#298595" d="M27.95,34.211L46.098,36.8c-7.5,6.616-20.782-1.337-21.271-2.326L27.95,34.211z"/>
<linearGradient id="_26" gradientUnits="userSpaceOnUse" x1="24.69" y1="32.51" x2="26.83" y2="34.68">
<stop stop-color="#D6E6EC" offset="0"/>
<stop stop-color="#298595" offset="1"/>
</linearGradient>
<path fill="url(#_26)" d="M25.477,31.421l2.474,2.789c-0.477,0.323-1.786,0.914-2.813,0.62 c-0.965-0.818-0.783-1.92-0.783-1.92S24.73,32.044,25.477,31.421z"/>
<path fill="#BFDAE1" d="M25.461,31.431l2.438,2.831c1.635,0.701,11.56,5.657,18.199,2.538 C42.598,35.446,28.777,31.619,25.461,31.431z"/>
<path fill="#115B7E" d="M28.56,34.007l-1.858-2.103c2.651,0.284,15.519,3.7,18.494,4.856 C39.999,38.611,32.121,35.621,28.56,34.007z"/>
<polygon fill="#BFDAE1" points="32.099,33.507 33.805,36.036 36.149,36.668 34.229,33.995 "/>
<polygon fill="#2F8E9A" points="31.943,33.78 33.273,35.847 33.805,36.036 32.103,33.505 "/>
<linearGradient id="_27" gradientUnits="userSpaceOnUse" x1="42.39" y1="27.52" x2="22.81" y2="27.79">
<stop stop-color="#2B98A0" offset="0"/>
<stop stop-color="#0A4A60" offset="1"/>
</linearGradient>
<polygon fill="url(#_27)" points="34.089,34.562 46.85,20.528 26.966,29.558 "/>
<polygon fill="#2F8E9A" points="34.777,35.649 44.684,23.359 41.435,36.462 "/>
<linearGradient id="_28" gradientUnits="userSpaceOnUse" x1="60.27" y1="20.07" x2="52.38" y2="50.63">
<stop stop-color="#FFFFFF" offset="0"/>
<stop stop-color="#A2C2DD" offset="0.35"/>
<stop stop-color="#6C83BB" offset="0.7"/>
<stop stop-color="#003D6D" offset="1"/>
</linearGradient>
<path fill="url(#_28)" d="M35.656,41.457c12.506-1.285,12.739-13.122,24.696-14.032l15.076,7.909 c-15.173,1.935-13.918,16.521-29.325,18.589L35.656,41.457z"/>
<linearGradient id="_29" gradientUnits="userSpaceOnUse" x1="44.37" y1="47.78" x2="56.88" y2="31.22">
<stop stop-color="#D6E6EC" offset="0"/>
<stop stop-color="#298595" offset="1"/>
</linearGradient>
<path fill="url(#_29)" d="M37.767,44.014c1.905-0.116,6.599-0.928,10.627-5.305l7.39,6.475 c-2.782,3.323-7.578,6.004-11.772,6.345L37.767,44.014z"/>
<linearGradient id="_30" gradientUnits="userSpaceOnUse" x1="57.57" y1="37.42" x2="50.26" y2="48.8">
<stop stop-color="#D6E6EC" offset="0"/>
<stop stop-color="#298595" offset="1"/>
</linearGradient>
<path fill="url(#_30)" d="M49.319,37.806c2.043-2.271,4.621-5.597,9.236-7.654l8.487,4.994 c-2.698,1.33-5.372,2.991-10.214,8.977L49.319,37.806z"/>
<path fill="#D6E4F3" d="M59.978,29.594c0,0,2.917-0.642,3.354-0.608l9.16,4.816c0,0-1.764-0.023-3.886,0.745L59.978,29.594z"/>
<polygon fill="#FFFFFF" points="36.265,42.248 37.668,42.088 38.636,43.273 37.353,43.532 "/>
<polygon fill="#FFFFFF" points="39.115,41.745 40.192,42.953 41.656,42.485 40.562,41.304 "/>
<polygon fill="#FFFFFF" points="41.77,40.788 42.885,41.968 44.135,41.295 42.988,40.146 "/>
<polygon fill="#FFFFFF" points="43.994,39.488 45.158,40.608 46.221,39.808 45.021,38.688 "/>
<polygon fill="#FFFFFF" points="45.924,37.949 47.119,39.022 48.06,38.097 46.836,37.042 "/>
<polygon fill="#FFFFFF" points="47.637,36.223 48.885,37.275 49.754,36.296 48.525,35.296 "/>
<polygon fill="#FFFFFF" points="49.327,34.454 50.56,35.439 51.449,34.497 50.189,33.527 "/>
<polygon fill="#FFFFFF" points="51.017,32.722 52.29,33.667 53.262,32.788 51.934,31.858 "/>
<polygon fill="#FFFFFF" points="52.864,31.119 54.194,32.015 55.254,31.228 53.95,30.351 "/>
<polygon fill="#FFFFFF" points="55.016,29.723 56.326,30.563 57.633,29.949 56.28,29.119 "/>
<polygon fill="#FFFFFF" points="57.478,28.672 58.861,29.449 60.441,29.043 59.023,28.255 "/>
<polygon fill="#FFFFFF" points="60.397,28.004 61.845,28.793 62.692,28.651 61.182,27.866 "/>
<polygon fill="#FFFFFF" points="44.465,52.035 46.039,51.771 47.088,53.016 45.475,53.274 "/>
<polygon fill="#FFFFFF" points="47.703,51.369 48.781,52.59 50.501,51.971 49.373,50.772 "/>
<polygon fill="#FFFFFF" points="50.755,50.145 52.154,49.321 53.341,50.48 51.897,51.32 "/>
<polygon fill="#FFFFFF" points="53.322,48.51 54.5,49.654 55.713,48.641 54.518,47.523 "/>
<polygon fill="#FFFFFF" points="55.519,46.569 56.731,47.669 57.785,46.558 56.561,45.496 "/>
<polygon fill="#FFFFFF" points="57.485,44.468 58.733,45.516 59.726,44.342 58.459,43.331 "/>
<polygon fill="#FFFFFF" points="59.368,42.296 60.628,43.294 61.62,42.115 60.34,41.148 "/>
<polygon fill="#FFFFFF" points="61.282,40.151 62.571,41.097 63.665,40.005 62.363,39.072 "/>
<polygon fill="#FFFFFF" points="63.39,38.159 64.732,39.05 65.963,38.09 64.606,37.215 "/>
<polygon fill="#FFFFFF" points="65.835,36.438 67.205,37.283 68.655,36.488 67.271,35.659 "/>
<polygon fill="#FFFFFF" points="68.704,35.067 70.137,35.874 71.909,35.336 70.477,34.539 "/>
<polygon fill="#FFFFFF" points="72.234,34.193 73.701,34.963 74.53,34.875 73.025,34.086 "/>
<linearGradient id="_31" gradientUnits="userSpaceOnUse" x1="48.58" y1="20.07" x2="62.36" y2="49.04">
<stop stop-color="#FFFFFF" offset="0"/>
<stop stop-color="#A2C2DD" offset="0.35"/>
<stop stop-color="#6C83BB" offset="0.7"/>
<stop stop-color="#003D6D" offset="1"/>
</linearGradient>
<path fill="url(#_31)" d="M46.179,53.795C60.72,51.946,61.28,36.196,75.417,35.318l-0.269,1.284 c-14.165,1.235-13.57,16.954-29.352,18.795L46.179,53.795z"/>
<polygon fill="url(#_28)" points="46.179,53.795 35.656,41.457 35.688,42.448 45.797,55.397 "/>
<polygon fill="#7D97C6" points="45.704,53.245 45.364,54.841 44.452,53.643 44.661,51.991 "/>
<polygon fill="#7D97C6" points="36.329,42.233 36.433,43.355 37.434,44.685 37.402,43.53 "/>
<linearGradient id="_33" gradientUnits="userSpaceOnUse" x1="47.1" y1="35.62" x2="48.12" y2="22.97">
<stop stop-color="#FFFFFF" offset="0"/>
<stop stop-color="#E1EBF4" offset="0.32"/>
<stop stop-color="#A2C2DD" offset="0.9"/>
</linearGradient>
<path fill="url(#_33)" d="M51.291,28.257c-0.681,1.79-2.851,3.336-4.848,3.455c-1.993,0.118-3.064-1.234-2.385-3.022 c0.684-1.79,2.852-3.339,4.851-3.459C50.905,25.111,51.971,26.463,51.291,28.257z"/>
<path fill="#6D5607" d="M49.319,20.886L45.396,2.845l0.921-0.197c0.613,2.553,2.018,3.449,3.441,4.419 c3.241,2.199,7.129,4.09,4.358,12.144l-0.656-0.251c1.912-6.267-0.621-8.398-5.388-9.157l2.55,12.059L49.319,20.886z"/>
<radialGradient id="_34" gradientUnits="userSpaceOnUse" cx="47.93" cy="21.95" fx="47.17" fy="22.15" r="3.46">
<stop stop-color="#E6EEF4" offset="0"/>
<stop stop-color="#A3740A" offset="0.44"/>
<stop stop-color="#474105" offset="0.94"/>
</radialGradient>
<path fill="url(#_34)" d="M50.457,23.331c-0.699,1.973-2.943,3.672-5.012,3.793c-2.072,0.128-3.188-1.372-2.488-3.346 c0.695-1.97,2.939-3.671,5.011-3.796C50.038,19.86,51.155,21.359,50.457,23.331z"/>
</svg>