<?xml version="1.0" encoding="UTF-8"?>
<!DOCTYPE svg PUBLIC "-//W3C//DTD SVG 1.1 Tiny//EN" "http://www.w3.org/Graphics/SVG/1.1/DTD/svg11-tiny.dtd">
<svg baseProfile="tiny" height="54px" version="1.1" viewBox="0 0 54 54" width="54px" x="0px" xmlns="http://www.w3.org/2000/svg" xmlns:xlink="http://www.w3.org/1999/xlink" y="0px">
<g>
<g>
<rect fill="none" height="54" width="54"/>
</g>
<path d="M26.636,17.072c-4.706,0-9.453,2.416-9.453,7.814c0,2.479,2.118,6.445,3.817,9.631c0.807,1.508,1.678,3.064,2.585,4.262   l0.644,0.852l-0.015,0.744h0.245h4.275h0.438v-0.426l0.334-0.67c0.004-0.004,0.115-0.209,0.328-0.547   c0.43-0.688,1.563-2.482,2.258-3.609c1.231-1.994,4.502-7.301,4.502-10.236C36.594,19.516,31.433,17.072,26.636,17.072   L26.636,17.072z"/>
<g>
<path d="M40.286,22.92c-0.217-1.152-0.365-2.432-0.365-2.432l6.185-6.221l-4.637-4.646l-6.025,6.072    c-1.5-1.012-3.28-1.742-5.266-2.143V4.529h-6.562v8.938c-2.028,0.357-3.828,1.08-5.339,2.098l-5.904-5.939L7.744,14.27l6.18,6.219    c0,0-0.25,1.389-0.432,2.432h-8.55v6.564h9.265c0.801,2.223,2.008,4.498,3.134,6.607c0.716,1.336,1.49,2.73,2.358,3.967v9.42    h14.033v-9.457c0,0,1.414-2.252,1.949-3.117c1.646-2.67,4.087-7.42,4.087-7.42h9.288V22.92H40.286z" fill="#FFFFFF"/>
<path d="M26.669,15.055c-6.484,0-11.513,3.832-11.513,10.021c0,2.938,1.97,6.67,3.823,10.141c0.829,1.555,1.671,3.045,2.602,4.271    c-0.011,0-0.023,0-0.023,0v8.131h10.317v-8.131c0.002-0.008,1.424-2.264,2.227-3.559c2.211-3.584,4.538-7.76,4.538-10.854    C38.64,18.887,33.155,15.055,26.669,15.055z M24.684,44.367v-2.281h3.898v2.281H24.684z"/>
<path d="M26.669,17.953c-4.29,0-8.617,2.201-8.617,7.121c0,2.258,1.931,5.875,3.479,8.777    c0.735,1.375,2.93,5.34,2.93,5.34h4.518c0,0,2.028-3.76,2.662-4.787c1.122-1.816,4.104-6.654,4.104-9.33    C35.745,20.178,31.039,17.953,26.669,17.953L26.669,17.953z" fill="#FFFFFF"/>
<rect height="5.57" width="2.845" x="25.475" y="6.387"/>
<rect height="2.848" width="5.572" x="41.627" y="24.779"/>
<rect height="2.848" width="5.573" x="6.8" y="24.779"/>
<polygon points="39.92,17.855 37.912,15.842 41.475,12.258 43.484,14.27   "/>
<polygon points="12.371,12.258 10.365,14.271 13.929,17.857 15.938,15.846   "/>
</g>
</g>
</svg>
