<?xml version="1.0" encoding="utf-8"?>
<!DOCTYPE svg PUBLIC "-//W3C//DTD SVG 1.1 Tiny//EN" "http://www.w3.org/Graphics/SVG/1.1/DTD/svg11-tiny.dtd">
<svg width="100%" height="100%" viewBox="0 0 88 88">
<linearGradient id="_10" gradientUnits="userSpaceOnUse" x1="32.3" y1="29.94" x2="55.47" y2="57.79">
<stop stop-color="#AABBD7" offset="0"/>
<stop stop-color="#92A5CC" offset="0.26"/>
<stop stop-color="#6C83BB" offset="0.71"/>
<stop stop-color="#637DB5" offset="0.76"/>
<stop stop-color="#4C6EA4" offset="0.83"/>
<stop stop-color="#265689" offset="0.91"/>
<stop stop-color="#003D6D" offset="0.99"/>
</linearGradient>
<circle fill="url(#_10)" cx="44" cy="44" r="30.997"/>
<radialGradient id="_11" gradientUnits="userSpaceOnUse" cx="49.9" cy="24.72" r="55.32">
<stop stop-color="#FFFFFF" offset="0"/>
<stop stop-color="#A2C2DD" offset="0.53"/>
<stop stop-color="#6C83BB" offset="0.87"/>
<stop stop-color="#003D6D" offset="1"/>
</radialGradient>
<circle fill="url(#_11)" cx="44" cy="43.998" r="29.9"/>
<radialGradient id="_12" gradientUnits="userSpaceOnUse" cx="47.82" cy="26.17" r="43.78">
<stop stop-color="#E6EEF4" offset="0"/>
<stop stop-color="#C6DCC1" offset="0.08"/>
<stop stop-color="#91C06F" offset="0.21"/>
<stop stop-color="#6BAB33" offset="0.32"/>
<stop stop-color="#539E0E" offset="0.4"/>
<stop stop-color="#4A9900" offset="0.44"/>
<stop stop-color="#398419" offset="0.55"/>
<stop stop-color="#22663B" offset="0.71"/>
<stop stop-color="#135550" offset="0.85"/>
<stop stop-color="#0E4E58" offset="0.94"/>
</radialGradient>
<path fill="url(#_12)" d="M41.47,60.207c-0.613-0.92-2.07-1.84-2.76-2.146l-1.074-2.453c0,0-0.46-0.074-0.767-0.229c-0.306-0.152-0.536-1.303-0.536-1.303s-1.15,0.074-0.69,0.535c0.46,0.459-0.44,2.723-0.44,2.723s-0.747-0.557-1.668-0.785c-0.896-0.225-0.816-0.342-0.689-1.229c0.153-1.072-0.23-1.034-1.322-1.034c-1.168,0-2.301,0.346-2.473,1.553c-0.045,0.313-0.613-0.671-1.227-0.519l-1.648,1.207c0,0,0.129,1.611-0.23,1.478c-0.862-0.325-2.473,0.595-2.473,0.595c0.844,2.301,3.335,5.979,3.335,5.979s2.07,0,2.933-0.46c0.866-0.462,3.623-0.174,3.623-0.174c4.063,3.222,8.107,2.474,8.107,2.474c0.058-1.035,1.763-2.453,1.687-3.68C43.082,61.511,42.159,60.82,41.47,60.207z M18.93,48.534c0,0,0,0.461-0.402-0.114c-0.402-0.574-1.604-3.184-2.243-4.141c-0.345-0.518-0.172,0.633-0.172,0.633c0.632,1.322,0.689,2.415,1.322,3.393c0.633,0.979,1.265,2.188,1.265,2.188v0.518c1.035,1.035,3.335,1.035,3.335,1.035c-2.012-1.32-3.104-1.438-3.104-1.438L18.93,48.534L18.93,48.534z M20.08,49.225c0,0,2.472,1.268,2.242,0.115c-0.219-1.095,1.499-2.113,0.689-2.76c-0.287-0.23-0.229-0.633-0.057-0.863c0.565-0.754-0.219-1.858-0.633-1.322c-1.378,1.782-2.703,2.3-2.703,2.3L20.08,49.225z M24.104,52.1c-0.345-0.058-1.514-0.242-2.07-0.058c-0.345,0.115,0.978,0.519,1.438,0.519S24.449,52.157,24.104,52.1z M20.528,37.907c0.376-0.53,0.479-1.283,0.479-1.283s-0.419-0.044-0.541,0.046c-0.121,0.091,0.04,0.255-0.13,0.543C20.032,37.731,20.269,38.274,20.528,37.907z M54.547,65.902c-0.701-0.066,0.029-0.896-0.771-0.879c-0.799,0.017-0.33,0.526-0.309,0.979C53.516,66.98,55.248,65.973,54.547,65.902z M51.335,67.35l-1.957,0.688c-0.521,0.579,1.392,0.354,2.261-0.288c0.787-0.585,1.475-1.087,1.475-1.087l-1.004-0.468L51.335,67.35z M64.111,21.876c-0.549-0.499-1.123-0.972-1.707-1.429c-0.122-0.096-0.242-0.194-0.365-0.287c-0.572-0.434-1.162-0.843-1.766-1.235c-0.146-0.094-0.289-0.188-0.438-0.279c-0.605-0.381-1.229-0.741-1.865-1.079c-0.146-0.077-0.295-0.15-0.438-0.224c-0.657-0.334-1.326-0.65-2.011-0.936c-0.043-0.018-0.088-0.034-0.131-0.052l-1.965,0.038l-1.205-0.633c0,0,0.295-0.113,0.784-0.273c-0.028-0.009-0.062-0.021-0.091-0.03c-0.583-0.182-1.178-0.341-1.771-0.488c-0.219-0.053-0.437-0.103-0.651-0.151c-0.498-0.11-1.001-0.208-1.509-0.293c-0.193-0.033-0.387-0.067-0.582-0.096c-0.564-0.083-1.137-0.147-1.711-0.199c-0.244-0.022-0.49-0.04-0.736-0.056c-0.525-0.034-1.055-0.055-1.587-0.061c-0.123-0.001-0.244-0.009-0.367-0.009c-4.059,0-7.926,0.813-11.455,2.277l4.324-0.505l1.323,0.402c0.683-0.026,1.353-0.049,2.006-0.068c0.041-0.005,0.063-0.009,0.063-0.009l0.035,0.007c6.073-0.18,10.719-0.103,10.719-0.103l0.604,1.006l1.062,0.432l-0.113,0.402c0,0,1.343,1.038,3.295,0.844c0.93-0.092-0.42,0.939-0.42,0.939l0.634,0.287c0,0,0.633-0.23,1.321-1.322l2.008,0.186c1.559,1.137,3.494,2.132,4.488,2.861c0.082,0.06,0.164,0.114,0.248,0.166C64.131,21.896,64.121,21.886,64.111,21.876z M37.387,16.507c-1.438,0.115-4.944,0.058-4.944,0.058c-0.165,0.021-0.328,0.046-0.491,0.073c-0.141,0.062-0.28,0.126-0.419,0.19c-0.307,0.141-0.61,0.286-0.912,0.437c-0.202,0.102-0.404,0.203-0.604,0.309c-0.318,0.169-0.632,0.346-0.943,0.525c-0.166,0.096-0.335,0.188-0.5,0.287c-0.453,0.273-0.899,0.558-1.336,0.854c-0.145,0.098-0.285,0.204-0.428,0.304c-0.306,0.216-0.61,0.434-0.907,0.661c-0.176,0.134-0.348,0.271-0.52,0.409c-0.264,0.21-0.523,0.424-0.78,0.643c-0.167,0.143-0.333,0.285-0.497,0.43c-0.278,0.248-0.549,0.502-0.817,0.76c-0.127,0.122-0.258,0.241-0.383,0.365c-0.375,0.373-0.739,0.756-1.094,1.148c-0.119,0.132-0.232,0.269-0.349,0.403c-0.244,0.281-0.486,0.564-0.72,0.853c-0.135,0.167-0.267,0.336-0.398,0.506c-0.212,0.274-0.419,0.553-0.623,0.834c-0.123,0.17-0.246,0.34-0.365,0.513c-0.229,0.333-0.449,0.672-0.665,1.014c-0.078,0.123-0.16,0.243-0.235,0.367c-0.281,0.46-0.549,0.93-0.806,1.407c-0.08,0.149-0.153,0.301-0.231,0.451c-0.179,0.346-0.353,0.694-0.518,1.048c-0.085,0.183-0.167,0.367-0.249,0.551c-0.152,0.343-0.297,0.69-0.436,1.04c-0.07,0.176-0.142,0.351-0.208,0.528c-0.167,0.444-0.324,0.895-0.47,1.349c-0.026,0.08-0.056,0.158-0.081,0.238c-0.168,0.539-0.32,1.085-0.458,1.636c-0.037,0.146-0.067,0.295-0.102,0.443c-0.097,0.414-0.188,0.831-0.267,1.251c-0.015,0.079-0.028,0.158-0.042,0.237c0.549-0.688,1.32-1.646,1.637-1.999c0.517-0.574,0.287,2.301,0.287,2.301l0.287-0.058l0.058,4.887c0,1.381,0.862,3.393,1.15,2.99c-0.173-0.518-0.058-2.357-0.058-2.357c-0.69-0.575-0.287-0.575-0.805-1.782c-0.518-1.208,0.574-2.415,0.574-1.726c0,0.69,0.058,1.438,0.748,2.358c2.473-3.221,1.38-4.428,0.633-4.888c0.057-1.38,1.265-1.84,1.265-1.84h0.862l1.782-0.806c1.917-0.767,2.128-2.357,2.128-2.357c2.645-0.575,1.073-4.255,1.073-4.255l0.997-0.115l0.632-0.632l-1.609-0.173l1.897-1.322c0,0-0.346,0.46-0.173,0.805c0.173,0.345,0.978-0.518,0.978-0.518l-0.173,1.093l0.575,0.172c-0.345,0.403-0.402,1.381-0.402,1.381c0.747-0.346,1.438-0.92,1.438-0.92c0.173-0.978-0.518-1.553-0.518-1.553c0.748-0.115,1.438-0.69,2.013-1.495c2.99,0.46,5.463-4.37,5.463-4.37l-0.346,2.588c1.782-0.652,0.806-2.741,0.806-2.741l-2.358-0.191l2.99-1.495c4.141,0.287,4.601-0.92,4.601-0.92c0.402,0.076,2.17-0.189,1.322,0.46c-1.019,0.779-0.699,0.25-1.668,1.322l0.115,1.61c0,0,1.489-0.646,2.837-1.994c0.173-0.173-0.564-0.783-0.383-0.958c0.221-0.211,0.504,0.076,0.65-0.096c0.939-0.179,1.088-0.219,1.101-0.228c0.116,0.034,1.634,0.446,2.407-1.268c1.955-0.345,0.978-1.093-2.817-1.035l-4.197,0.058l-2.093-0.357c-0.033,0-0.065,0.001-0.099,0.002C39.926,16.246,38.79,16.395,37.387,16.507z M39.553,67.146c1.463,2.203,1.756,0.625,1.561,0.127C40.918,66.773,39.553,67.146,39.553,67.146z M24.047,39.507l0.59,2.377l0.435,1.265l0.528-0.881c0.1-0.384-1.162-1.228-0.863-2.07c0.299-0.844,1.194-1.227,0.299-2.146C24.139,37.131,24.795,38.415,24.047,39.507z M26.613,42.88c-0.598,0.154-1.394,0.768-1.394,0.768c0.696,0.229-0.191,0.935,0.696,1.149c0.948,0.23,0.462-0.038,0.661-0.805C26.775,43.225,27.211,42.727,26.613,42.88z M26.988,52.177c-0.696,0.076-0.9,0.173-0.801,0.709c0.1,0.537-0.656,0.896,0.598,0.038C28.244,51.927,26.988,52.177,26.988,52.177z M25.197,47.96c0,0,1.029-0.479,0.432-0.595c-0.597-0.114-1.697,0.135-1.697,0.135L25.197,47.96z M27.411,46.887c-0.05,0.271-0.144,1.36-0.144,1.36c0.398-0.269,0.79-0.479,0.84-0.747c0.05-0.27-0.398-0.384,0-0.807C28.506,46.273,27.461,46.618,27.411,46.887z M24.104,52.675l0.518,0.46l0.058-0.574c0,0,0.978,0.114,1.207-0.287l-1.494-0.059L24.104,52.675z M23.826,48.438c-0.142,0.31-0.271,1.604-0.271,1.604s0.222,0.183,0.55,0.394c0.177,0.11,0.066-0.854,0.288-0.748c0.345,0.86,1.154,1.037,1.535,0.979c-0.846-0.807-1.261-1.533-0.421-1.993C26.713,48.01,23.966,48.132,23.826,48.438z M37.157,25.649c0.633-0.229,0.862-0.978-0.173-1.092c0,0-0.575,0.747-1.265,1.092C35.029,25.995,36.524,25.88,37.157,25.649z M33.896,28.545c-0.645,0.06-0.762,0.597-0.762,0.597l-1.231-0.06l-1.642,1.192l-0.176,0.896l0.527-0.18l0.88-0.896l1.289-0.06l0.06-0.597c0,0,0.744-0.284,1.097-0.225c0.352,0.06,1.23-0.299,1.524-0.896c0.293-0.596,0.527-0.716,0.703-1.014c0.176-0.298-0.158-1.326-0.393-0.729C35.537,27.173,34.541,28.485,33.896,28.545z M25.542,34.39c0,0-0.978,0.46-0.689,1.38C25.6,35.885,25.484,35.137,25.542,34.39z M27.555,49.568c-0.303,0.546,2.074,0.684,1.563,0.25C28.62,49.396,27.704,49.301,27.555,49.568z M41.585,50.395c0,0-0.398,0.383-0.797,0.537c-0.397,0.152-1.593,0.152-1.593,0.152s1.095,0.536,1.593,0.229C41.286,51.006,41.585,50.395,41.585,50.395z M29.05,48.648l0.977,0.729c0,0,0.299,0.846,0.796,1.073c0.498,0.229,1.919,0.383,2.516,0.307c0,0-0.358,1.267,0.14,1.804c0,0,0.955-0.422,1.254,0.113c0.299,0.536,1.448,0.52,2.147-0.113c0.342-0.311,1.046-0.498,1.543,0.346c0.498,0.844,1.038,0.688,2.332,0.611c0,0-2.686-1.442-2.102-1.592c1.149-0.285-0.806-0.978-0.806-0.978l-0.172-0.574c0,0-1.53-0.06-1.53-0.364c0-0.304-3.714-1.342-3.813-0.959c-0.1,0.385-0.597,1.383-1.194,0.23C30.541,48.131,29.946,47.807,29.05,48.648z"/>
</svg>