<?xml version="1.0" encoding="UTF-8"?>
<!DOCTYPE svg PUBLIC "-//W3C//DTD SVG 1.1 Tiny//EN" "http://www.w3.org/Graphics/SVG/1.1/DTD/svg11-tiny.dtd">
<svg width="43.939" height="43.945" viewBox="0 0 43.939 43.945">
<linearGradient id="_4" gradientUnits="userSpaceOnUse" x1="-2.72" y1="-4.11" x2="31.11" y2="31.56">
<stop stop-color="#FFFFFF" offset="0"/>
<stop stop-color="#E0EAF3" offset="0.11"/>
<stop stop-color="#A2C2DD" offset="0.35"/>
<stop stop-color="#8CA9CF" offset="0.48"/>
<stop stop-color="#6C83BB" offset="0.7"/>
<stop stop-color="#637DB5" offset="0.75"/>
<stop stop-color="#4C6EA4" offset="0.82"/>
<stop stop-color="#265689" offset="0.91"/>
<stop stop-color="#003D6D" offset="0.99"/>
</linearGradient>
<path d="M8.501,7.299V36.35h26.75V7.299H8.501z M10.819,33.973V14.525h22.002v19.447H10.819z" fill="url(#_4)"/>
<path d="M13.288,30.635l1.328-2.063c0.795,0.844,1.658,1.266,2.591,1.266c1.699,0,2.55-0.797,2.55-2.393 c0-0.725-0.247-1.314-0.739-1.77c-0.493-0.455-1.157-0.682-1.992-0.682h-0.472v-2.188h0.4c1.535,0,2.303-0.639,2.303-1.916 c0-1.338-0.717-2.006-2.151-2.006c-0.741,0-1.462,0.348-2.161,1.047l-1.25-1.828c0.321-0.398,0.825-0.746,1.51-1.041 c0.685-0.297,1.369-0.443,2.054-0.443c1.499,0,2.668,0.34,3.507,1.023c0.838,0.682,1.258,1.637,1.258,2.865 c0,1.461-0.631,2.572-1.891,3.338c1.594,0.766,2.391,2.018,2.391,3.754c0,1.43-0.474,2.537-1.421,3.324 c-0.947,0.785-2.256,1.18-3.925,1.18C15.658,32.104,14.361,31.613,13.288,30.635z" fill="url(#_4)"/>
<path d="M27.577,31.9V21.082l-3.063,1.834v-2.563c1.969-0.951,3.526-2.129,4.672-3.531h1.063V31.9H27.577z" fill="url(#_4)"/>
</svg>