<?xml version="1.0" encoding="UTF-8"?>
<!DOCTYPE svg PUBLIC "-//W3C//DTD SVG 1.1 Tiny//EN" "http://www.w3.org/Graphics/SVG/1.1/DTD/svg11-tiny.dtd">
<svg baseProfile="tiny" height="60" version="1.1" viewBox="0 0 60 60" width="60" xmlns="http://www.w3.org/2000/svg" xmlns:xlink="http://www.w3.org/1999/xlink">
<path d="M9.97,10.539l1.585-1.585c2.977,2.977,16.236,16.238,38.757,38.756l0.746,0.748l-1.584,1.585l-1.586,1.584L8.386,12.123  L9.97,10.539z"/>
<path d="M21.445,28.991l8.717,8.719C25.682,37.262,22.083,33.619,21.445,28.991z"/>
<path d="M36.667,27.523v-9.769c0-3.324-2.5-6.037-5.563-6.037c-3.067,0-5.563,2.713-5.563,6.037v1.377l-3.896-3.896  c1.074-4.427,4.898-7.721,9.449-7.721c5.393,0,9.77,4.595,9.77,10.24v9.769c0.002,1.995-0.555,3.854-1.5,5.43l-3.125-3.123  C36.512,29.119,36.667,28.339,36.667,27.523z"/>
<path d="M18.294,27.642c0,7.604,5.74,13.793,12.789,13.793c0.865,0,1.713-0.096,2.53-0.273l3.289,3.289  c-1.18,0.453-2.414,0.793-3.699,0.965v7.841h-4.201v-7.841c-8.377-1.107-14.908-8.607-14.908-17.773V21.64l4.2,4.201V27.642z"/>
<path d="M43.898,27.642v-6.519h4.203v6.519c0,4.012-1.254,7.706-3.367,10.684l-3.01-3.01C43.098,33.12,43.898,30.479,43.898,27.642z  "/>
<rect fill="none" height="60" width="60"/>
</svg>
