<?xml version="1.0" encoding="utf-8"?>
<!DOCTYPE svg PUBLIC "-//W3C//DTD SVG 1.1 Tiny//EN" "http://www.w3.org/Graphics/SVG/1.1/DTD/svg11-tiny.dtd">
<svg width="60" height="80" viewBox="0 0 60 80">
<linearGradient id="_352" gradientUnits="userSpaceOnUse" x1="20.69" y1="30.75" x2="38.19" y2="51.79">
<stop stop-color="#DEE9F3" offset="0"/>
<stop stop-color="#235487" offset="1"/>
</linearGradient>
<circle fill="url(#_352)" cx="29.527" cy="41.367" r="23.417"/>
<radialGradient id="_353" gradientUnits="userSpaceOnUse" cx="34.05" cy="26.71" r="42.04">
<stop stop-color="#FFFFFF" offset="0"/>
<stop stop-color="#A2C2DD" offset="0.53"/>
<stop stop-color="#6C83BB" offset="0.87"/>
<stop stop-color="#003D6D" offset="1"/>
</radialGradient>
<circle fill="url(#_353)" cx="29.566" cy="41.367" r="22.724"/>
<radialGradient id="_354" gradientUnits="userSpaceOnUse" cx="34.36" cy="29.04" r="28.6">
<stop stop-color="#E6EEF4" offset="0"/>
<stop stop-color="#C6DCC1" offset="0.08"/>
<stop stop-color="#91C06F" offset="0.21"/>
<stop stop-color="#6BAB33" offset="0.32"/>
<stop stop-color="#539E0E" offset="0.4"/>
<stop stop-color="#4A9900" offset="0.44"/>
<stop stop-color="#398419" offset="0.55"/>
<stop stop-color="#22663B" offset="0.71"/>
<stop stop-color="#135550" offset="0.85"/>
<stop stop-color="#0E4E58" offset="0.94"/>
</radialGradient>
<path fill="url(#_354)" d="M52.289,41.335c-0.001-0.446-0.018-0.89-0.044-1.33c-0.009-0.153-0.022-0.306-0.035-0.459c-0.022-0.303-0.054-0.605-0.09-0.906c-0.021-0.167-0.04-0.334-0.063-0.5c-0.045-0.318-0.1-0.632-0.156-0.946c-0.023-0.127-0.043-0.256-0.068-0.382c-0.083-0.408-0.18-0.812-0.284-1.212c-0.046-0.176-0.099-0.35-0.149-0.524c-0.068-0.244-0.143-0.486-0.221-0.726c-0.062-0.19-0.125-0.38-0.191-0.569c-0.08-0.225-0.166-0.448-0.252-0.67c-0.071-0.184-0.142-0.368-0.217-0.549c-0.149-0.355-0.309-0.706-0.475-1.051c-0.095-0.195-0.195-0.385-0.295-0.576c-0.096-0.183-0.189-0.366-0.29-0.546c-0.052-0.093-0.104-0.184-0.158-0.276c-0.223-0.036-0.319,0.836-0.319,0.836l-1.573-1.704l-1.113-0.679l-1.688,0.496l-0.611-0.291l0.174-0.197l0.531-0.467c0,0-0.254-0.965,0.23-1.359c0.407-0.334,0.817,0.225,0.817,0.225l1.705,1.573c0,0,0.567,0.392,1.483,0.96c0.004,0,0.008,0,0.01,0.001c-0.047-0.076-0.098-0.15-0.146-0.226c-0.256-0.407-0.524-0.804-0.806-1.193c-0.094-0.13-0.188-0.261-0.283-0.389c-0.297-0.393-0.609-0.773-0.932-1.146c-0.113-0.132-0.227-0.267-0.344-0.396c-0.33-0.368-0.678-0.721-1.031-1.066c-0.143-0.138-0.283-0.274-0.428-0.408c-0.354-0.328-0.72-0.644-1.095-0.948c-0.19-0.156-0.386-0.308-0.582-0.458c-0.344-0.262-0.694-0.516-1.054-0.757c-0.194-0.132-0.395-0.256-0.594-0.381c-0.256-0.16-0.514-0.314-0.773-0.464c-0.15-0.087-0.301-0.178-0.454-0.261c-0.608,0.52,0.9,1.394,1.738,2.15c0.58,0.527,0.06,1.268-0.017,1.406c-0.184,0.35,0.978,0.343,1.287,1.083c0.209,0.501-0.063,0.14-0.268,0.396c-0.705,0.062-0.699-0.699-1.137,0.044c-0.389,0.661,0.482,0.608,0.307,0.874c-0.176,0.264,0.088,0.699,0.088,0.699l1.398,0.742l-0.525,2.143c-1.52,1.185-1.57,2.347-1.617,2.621c-0.043,0.263,0.35,1.967,0.35,2.972c0,1.102,2.173,4.056,3.224,4.142c1.377,0.112,2.108-0.383,2.108-0.383c0.089,0.221,1.66-0.088,1.66-0.088s0.785,1.137,0.875,1.311c0.031,0.064-0.834,1.179-0.297,1.931c1.166,1.632,0.646,2.614,0.584,4.188c-1.531,2.293-1.25,3.06-1.686,4.72c-0.797,1.513-1.564,2.228-1.189,3.202c1.159-1.445,2.145-3.039,2.924-4.742c0.016-0.03,0.028-0.063,0.043-0.094c0.252-0.557,0.483-1.123,0.691-1.703c0.001-0.004,0.002-0.008,0.004-0.01c0.211-0.59,0.396-1.188,0.559-1.8c0.003-0.01,0.006-0.02,0.009-0.028c0.151-0.574,0.276-1.158,0.383-1.75c0.015-0.08,0.03-0.162,0.044-0.242c0.098-0.572,0.174-1.15,0.227-1.736c0.009-0.086,0.014-0.172,0.021-0.259c0.048-0.604,0.079-1.212,0.079-1.827C52.29,41.359,52.289,41.348,52.289,41.335z M33.193,18.945c-0.332-0.054-0.668-0.098-1.006-0.137c-0.133-0.016-0.268-0.033-0.4-0.046c-0.314-0.03-0.633-0.055-0.95-0.072c-0.137-0.007-0.274-0.01-0.413-0.016c-0.285-0.01-0.57-0.021-0.858-0.021c-0.751,0-1.493,0.039-2.226,0.11c-0.068,0.006-0.136,0.014-0.205,0.021c-1.098,0.117-2.172,0.31-3.218,0.577c-0.013,0.004-0.026,0.006-0.04,0.01c-0.331,0.085-0.658,0.18-0.983,0.279c-0.066,0.021-0.132,0.042-0.198,0.063c-0.989,0.313-1.949,0.692-2.874,1.132c-0.049,0.023-0.098,0.045-0.146,0.069c-0.288,0.139-0.571,0.285-0.852,0.436c-0.077,0.042-0.153,0.084-0.229,0.126c-0.852,0.471-1.668,0.995-2.449,1.566c-0.084,0.062-0.169,0.123-0.253,0.186c-0.232,0.175-0.459,0.354-0.685,0.538c-0.094,0.077-0.187,0.156-0.279,0.234c-0.697,0.588-1.358,1.217-1.979,1.883c-0.104,0.112-0.209,0.225-0.312,0.339c-0.173,0.193-0.343,0.389-0.51,0.588c-0.107,0.129-0.211,0.26-0.316,0.391c-0.264,0.33-0.518,0.668-0.764,1.013c-0.115,0.161-0.232,0.32-0.342,0.484c-0.131,0.194-0.255,0.394-0.38,0.592c-0.106,0.169-0.212,0.34-0.314,0.512c-0.066,0.111-0.129,0.224-0.193,0.336l0.224,0.224l0.379,2.478c0,0-0.379,0.99-0.407,1.369c-0.029,0.378,0.989,0.902,0.989,0.902s0.758-1.019,0.816-0.116c0.001,0.02,0.003,0.039,0.006,0.059c0.107,0.854,1.335,1.079,1.335,1.079c0.103,0.306,0.461,1.325,0.83,1.877c0.232,0.351,0.83,0.481,1.354,0.336c0.437,0.496,0.729,0.521,0.576,1.205c-0.053,0.236-0.096,0.479-0.19,0.717c-0.559,1.396-1.261,1.406-1.261,2.761c0,0.844,0.906,2.576,1.816,4.436c3.289,2.669,2.18,2.335,2.735,5.166c-0.223,7.604,2.696,9.362,2.997,8.547c0.775-2.109,1.164-3.719,1.165-3.719c2.386-1.109,3.954-2.77,4.605-4.273c0.272-0.627,0.85-0.506,1.462-1.319c0.32,0,2.376-0.37,2.477-0.671c0.008-0.131,0.645-1.116,0.641-1.254c-0.043-1.354,0.084-1.806,0.084-1.806l0.35-0.263l1.705-1.617v-1.313L33.15,43.91l-4.458-1.258l-1.397-1.516c0,0.006-0.09-0.972-0.319-1.166c-0.85-0.717-2.264-0.335-2.515-0.605c-0.733-0.788-1.818-1.931-3.83-1.831c-1.76-0.441-2.109-1.752-4.12,0.403c-0.131,0.141-1.047-0.202-1.106-0.028c-0.38-0.292-0.977-0.394-1.107-0.175c-0.306-0.831-0.117-1.238,0.32-2.069c0.438-0.83-1.428-0.597-1.428-0.597c0.175-0.351,0.793-1.542,1.078-2.024c0.379-0.642-1.049,0.275-1.573,0.844l-1.049,0.117c-0.029-0.525,0.146-1.806,0.815-3.001c0.671-1.195,1.807-0.99,1.807-0.99s1.091-0.654,1.973-0.152c0.244,0.14-0.287,1.19,0.047,1.871c0.078,0.157,0.372-1.661,0.612-1.981c0.24-0.32,1.98-1.428,1.98-1.428l1.559-1.922c0,0,1.946-1.139,2.671-1.224c0.617-0.072,1.093-0.466,1.093-0.874c0-0.408,0.692-0.875,1.005-0.845c0.313,0.028-1.398,0.8,1.398,0.188c0.358-0.079-0.307,0.699-0.307,0.699s1.204,0.055,1.399-0.262c0.21-0.343-0.219-1.398-1.312-1.53c-0.508-0.061-0.354-0.742-0.354-0.742c-0.18,0-1.438,0.219-1.438-0.132c-0.786-1.224-1.966,0.045-1.966,0.045s-0.35,0.742-0.786,0.917c-0.438,0.175-1.006,0.743-1.006,0.743s0-0.525,0-0.831c0-0.306-1.093-0.437-1.093-0.437s1.967-1.398,2.316-1.137c0.35,0.263,1.137-0.131,1.137-0.131s0.35-0.349,0.874-0.656c0.523-0.306,1.267-0.392,0.523,0.088c-0.742,0.481,0.656,1.005,1.049,0.962c0.394-0.043,0.176-0.656,0.306-0.699c0.132-0.043,1.355-0.218,0.919-0.351c-0.438-0.13-0.875-0.523-0.875-0.523s0.875-0.394,1.705-0.437c0.83-0.045,1.532,0.603,1.532,0.603c0.309,0.002,0.195,0.383,0.216,0.475c0.146,0.672-0.408,0.496-0.058,1.225c0.093,0.192,0.405,0.239,1.058,0.031c0.485-0.041,1.747-1.137,2.405-0.917c0.647,0.215,1.108-0.22,1.723-0.602C34.943,19.547,34.262,19.194,33.193,18.945z M18.763,34.298c0,0,1.02-0.058,0.176-0.436c-0.846-0.381-1.429,0.352-1.225,0.378C17.948,34.269,18.763,34.298,18.763,34.298z M16.695,32.404c-0.466,0.175-0.35,0.378-0.35,0.378c0.291,0,0.554-0.087,0.641,0.612c0.088,0.7,0.729,0.38,0.758,0.175C17.773,33.366,17.161,32.229,16.695,32.404z M36.376,20.807c-0.369,0.083-0.901-0.328-1.188-0.123c0.246,0.451,0.655,0.862,0.942,0.779c0.287-0.082,0.943-0.533,0.943-0.533S36.745,20.726,36.376,20.807z"/>
</svg>