<?xml version="1.0" encoding="UTF-8"?>
<!DOCTYPE svg PUBLIC "-//W3C//DTD SVG 1.1 Tiny//EN" "http://www.w3.org/Graphics/SVG/1.1/DTD/svg11-tiny.dtd">
<svg width="84" height="72" viewBox="-0.015 -0.028 84 72">
<linearGradient id="_13" gradientUnits="userSpaceOnUse" x1="42.11" y1="35.96" x2="53.48" y2="58.35">
<stop stop-color="#A2C2DD" offset="0.1"/>
<stop stop-color="#6C83BB" offset="0.71"/>
<stop stop-color="#003D6D" offset="0.99"/>
</linearGradient>
<path fill="url(#_13)" d="M15.887,24.871c-6.341,9.514-4.954,16.573-2.68,20.829c5.71,15.264,22.52,18.023,35.705,14.093 c13.164-3.925,25.723-15.313,22.189-31.041l0.016,0.105c-0.525-7.623-6.327-13.868-15.521-16.705 C43.707,8.485,26.819,10.998,15.887,24.871z M41.681,31.641c1.406-0.23,3.153-0.035,4.119,1.064 c-0.104,0.331-0.223,0.662-0.466,1.002c-1.079,1.406-2.79,2.17-4.681,2.075c-1.313-0.065-2.458-0.578-3.084-1.314 C38.18,32.908,40.007,31.916,41.681,31.641z"/>
<linearGradient id="_14" gradientUnits="userSpaceOnUse" x1="74.93" y1="40.04" x2="16.13" y2="55.36">
<stop stop-color="#FFFFFF" offset="0"/>
<stop stop-color="#A2C2DD" offset="0.53"/>
<stop stop-color="#6C83BB" offset="0.87"/>
<stop stop-color="#003D6D" offset="1"/>
</linearGradient>
<path fill="url(#_14)" d="M13.541,44.61c10.222,30.163,63.626,14.155,56.874-15.704L13.541,44.61z"/>
<linearGradient id="_15" gradientUnits="userSpaceOnUse" x1="17.69" y1="75.06" x2="47.61" y2="23">
<stop stop-color="#FFFFFF" offset="0.1"/>
<stop stop-color="#D1E1EE" offset="0.7"/>
<stop stop-color="#A2C2DD" offset="1"/>
</linearGradient>
<path fill="url(#_15)" d="M66.03,42.793c-23.007,27.495-68.223,10.22-49.542-17.46 C38.971-2.076,84.892,14.583,66.03,42.793z M36.99,31.315c-3.633,4.742,5.281,7.767,8.92,3.025 C49.576,29.558,40.661,26.533,36.99,31.315z"/>
<polygon fill-opacity="0.3" fill="#FFFFFF" points="68.777,36.241 46.199,33.854 44.568,35.552 60.395,48.55 "/>
<linearGradient id="_16" gradientUnits="userSpaceOnUse" x1="90.17" y1="50.24" x2="-19.88" y2="8.19">
<stop stop-color="#FFFFFF" offset="0.05"/>
<stop stop-color="#A2C2DD" offset="1"/>
</linearGradient>
<polygon fill-opacity="0.8" fill="url(#_16)" points="45.537,34.698 65.643,42.604 67.43,39.817 45.953,34.25 "/>
<linearGradient id="_17" gradientUnits="userSpaceOnUse" x1="16.66" y1="14.01" x2="59.27" y2="48.82">
<stop stop-color="#CADCEC" offset="0"/>
<stop stop-color="#87A8CB" offset="1"/>
</linearGradient>
<path fill="url(#_17)" d="M65.989,42.803C43.905,69.935-2.458,53.718,16.445,25.343 C37.912-1.9,85.155,14.406,65.989,42.803z M18.192,25.888C0.804,52.044,43.288,67.555,64.265,42.124 C81.807,15.463,38.528,0.655,18.192,25.888z"/>
<linearGradient id="_18" gradientUnits="userSpaceOnUse" x1="26.02" y1="79.25" x2="71.6" y2="-28.28">
<stop stop-color="#FFFFFF" offset="0"/>
<stop stop-color="#A2C2DD" offset="0.35"/>
<stop stop-color="#6C83BB" offset="0.7"/>
<stop stop-color="#003D6D" offset="1"/>
</linearGradient>
<polygon fill="url(#_18)" points="49.554,27.653 64.587,17.709 54.002,12.587 42.233,11.549 41.796,25.601 "/>
<linearGradient id="_19" gradientUnits="userSpaceOnUse" x1="8.64" y1="19.41" x2="111.9" y2="68.78">
<stop stop-color="#FFFFFF" offset="0.05"/>
<stop stop-color="#A2C2DD" offset="1"/>
</linearGradient>
<path fill-opacity="0.6" fill="url(#_19)" d="M37.914,30.372l-14.44-11.86 c-4.26,3.04-8.105,7.844-9.675,11.356l22.579,2.587L37.914,30.372z"/>
<polygon fill="url(#_18)" points="37.517,36.092 17.002,49.514 27.88,55.017 40.653,56.464 41.175,36.88 "/>
<path fill-opacity="0.5" fill="#DEE9F3" d="M36.526,31.204c-3.859,5.281,5.729,8.644,9.811,3.325 C50.207,29.215,40.576,25.932,36.526,31.204z M51.464,36.552c-8.924,10.556-27.522,3.813-19.743-7.414 C40.6,18.329,59.551,25.424,51.464,36.552z"/>
<linearGradient id="_21" gradientUnits="userSpaceOnUse" x1="35.19" y1="86.66" x2="59.87" y2="-11.07">
<stop stop-color="#FFFFFF" offset="0"/>
<stop stop-color="#A2C2DD" offset="0.35"/>
<stop stop-color="#6C83BB" offset="0.7"/>
<stop stop-color="#003D6D" offset="1"/>
</linearGradient>
<path fill="url(#_21)" d="M62.901,18.784l1.625-1.075c-5.151-4.867-13.806-6.98-22.299-6.148l-0.047,1.504 C52.146,12.092,59.23,15.486,62.901,18.784z"/>
<linearGradient id="_22" gradientUnits="userSpaceOnUse" x1="20.31" y1="71.34" x2="39.7" y2="29.54">
<stop stop-color="#FFFFFF" offset="0"/>
<stop stop-color="#A2C2DD" offset="0.35"/>
<stop stop-color="#6C83BB" offset="0.7"/>
<stop stop-color="#003D6D" offset="1"/>
</linearGradient>
<path fill="url(#_22)" d="M18.646,48.453l-1.663,1.102c4.735,4.834,13.858,8.032,23.651,6.95l0.049-1.591 C30.324,56.069,22.313,52.191,18.646,48.453z"/>
<linearGradient id="_23" gradientUnits="userSpaceOnUse" x1="58.13" y1="33.97" x2="37.73" y2="31.45">
<stop stop-color="#FFFFFF" offset="0"/>
<stop stop-color="#A2C2DD" offset="0.35"/>
<stop stop-color="#6C83BB" offset="0.7"/>
<stop stop-color="#003D6D" offset="1"/>
</linearGradient>
<path fill="url(#_23)" d="M46.674,32.688c0.871-6.89-13.239-4.439-10.018,2.137 C37.464,30.886,44.631,29.398,46.674,32.688z"/>
<linearGradient id="_24" gradientUnits="userSpaceOnUse" x1="34.71" y1="55.37" x2="54.3" y2="-8.69">
<stop stop-color="#E6EEF4" offset="0"/>
<stop stop-color="#2F8E9A" offset="0.44"/>
<stop stop-color="#003D6D" offset="0.94"/>
</linearGradient>
<path fill="url(#_24)" d="M50.621,36.143c-8.744,9.995-25.094,2.9-17.948-6.738 C40.468,19.694,57.831,25.909,50.621,36.143z M37.112,31.184c-3.387,4.686,5.159,7.699,8.778,2.976 C49.281,29.434,40.747,26.45,37.112,31.184z"/>
</svg>