<?xml version="1.0" encoding="UTF-8"?>
<!DOCTYPE svg PUBLIC "-//W3C//DTD SVG 1.1 Tiny//EN" "http://www.w3.org/Graphics/SVG/1.1/DTD/svg11-tiny.dtd">
<svg width="332" height="82" viewBox="-0.858 0.506 332 82">
<path fill-opacity="0.01" fill="#656B6B" d="M22.267,0.506c-5.635,0-10.938,2.199-14.932,6.193s-6.193,9.297-6.193,14.932v28.775 c0,12.17,9.896,22.084,22.063,22.098c0,0,263.424,0.002,264.246,0.002c0.553,0.551,10.039,10,10.039,10h9.652c0,0,0-9.045,0-10.438 c11.453-1.557,20-11.105,20-22.662V22.621l-0.098-2.045c-1.158-11.465-10.619-20.07-22.008-20.07H22.267z"/>
<path fill-opacity="0.02" fill="#656B6B" d="M305.036,1.506H22.267c-5.367,0-10.42,2.096-14.225,5.9c-3.805,3.807-5.9,8.857-5.9,14.225 v28.775c0,11.621,9.449,21.084,21.063,21.098c0,0,263.836,0.002,264.66,0.002c0.551,0.551,10.039,10,10.039,10h8.238 c0,0,0-8.826,0-10.26c11.279-1.09,20-10.463,20-21.84V22.621l-0.096-1.996C324.94,9.703,315.909,1.506,305.036,1.506z"/>
<path fill-opacity="0.04" fill="#656B6B" d="M22.267,2.506c-5.1,0-9.9,1.992-13.518,5.607c-3.615,3.617-5.607,8.418-5.607,13.518v28.775 c0,11.07,9,20.086,20.064,20.098c0,0,264.248,0.002,265.07,0.002c0.553,0.551,10.039,10,10.039,10h6.826c0,0,0-8.633,0-10.115 c11.107-0.592,20-9.758,20-20.984V22.621l-0.096-1.947c-1.051-10.379-9.652-18.168-20.01-18.168H22.267z"/>
<path fill-opacity="0.07" fill="#656B6B" d="M22.267,3.506c-9.994,0-18.125,8.131-18.125,18.125v28.775 c0,10.52,8.553,19.086,19.064,19.098c0,0,259.557,0.002,265.484,0.002c0.553,0.553,10.039,10,10.039,10h5.412c0,0,0-8.404,0-10.01 c11.037-0.059,20-9.043,20-20.09V22.621l-0.094-1.898c-0.998-9.836-9.17-17.217-19.012-17.217H22.267z"/>
<path fill-opacity="0.11" fill="#656B6B" d="M22.267,4.506c-9.875,0-17.125,8.125-17.125,17.125v28.775 c0,9.969,8.105,18.088,18.066,18.098c0,0,265.068,0.002,265.895,0.002c0.559,0.559,10.039,10,10.039,10h4c0,0,0-8.318,0-10 c0.445,0,0.895,0,0.895,0c10.535,0,19.105-8.568,19.105-19.1V22.621l-0.094-1.848c-0.941-9.275-8.686-16.268-18.012-16.268H22.267z "/>
<path fill-opacity="0.13" fill="#656B6B" d="M322.054,20.869c-0.877-8.627-8.162-15.363-17.018-15.363H23.249 c-9.449,0-17.107,7.666-17.107,17.115v27.785c0,9.439,7.637,17.088,17.066,17.098c0.014,0,0.027,0.002,0.041,0.002h266.268l10,10 h2.625c0,0,0-8.318,0-10c0.857,0,1.895,0,1.895,0c9.984,0,18.105-8.113,18.105-18.1V22.621 C322.142,22.029,322.108,21.447,322.054,20.869z"/>
<linearGradient id="_2" gradientUnits="userSpaceOnUse" x1="163.14" y1="70.28" x2="163.14" y2="21.8">
<stop stop-color="#D9F4E0" offset="0"/>
<stop stop-color="#FFFFFF" offset="1"/>
</linearGradient>
<path fill="url(#_2)" d="M22.249,66.506h264.895l12,12h1.998v-12h2.895c9.447,0,17.105-7.646,17.105-17.1V21.621 c0-9.449-7.658-17.115-17.105-17.115H22.249c-9.449,0-17.107,7.666-17.107,17.115v27.785C5.142,58.859,12.8,66.518,22.249,66.506z"/>
</svg>