<?xml version="1.0" encoding="UTF-8"?>
<!DOCTYPE svg PUBLIC "-//W3C//DTD SVG 1.1 Tiny//EN" "http://www.w3.org/Graphics/SVG/1.1/DTD/svg11-tiny.dtd">
<svg width="13" height="13" viewBox="0 0 13 13">
<polygon fill="#CEE1EF" points="11.318,12.88 0.747,9.939 0.086,0.895 11.386,2.958 "/>
<polygon fill="#A2C2DD" points="0.747,9.939 0.086,0.895 4.999,7.048 1.691,10.052 "/>
<polygon fill="#A2C2DD" points="11.299,12.876 11.364,2.954 6.062,7.173 10.457,12.39 "/>
<polygon fill="#A2C2DD" points="0.747,9.939 11.277,12.876 6.413,6.843 4.601,6.628 "/>
<polygon fill="#496DA2" points="11.277,12.876 12.566,11.841 12.842,2.038 11.364,2.954 "/>
<polygon fill="#CEE1EF" points="12.842,2.038 1.612,0.359 0.09,0.893 11.403,2.954 "/>
<polygon fill="#496DA2" points="1.311,10.096 0.747,9.939 3.986,6.812 4.616,7.51 "/>
<polygon fill="#496DA2" points="10.329,12.596 11.277,12.876 7.253,7.003 6.322,7.518 "/>
<polygon fill="#496DA2" points="0.153,1.522 0.107,0.898 4.701,7.94 11.403,2.954 11.432,3.644 4.736,9.473 "/>
<polygon fill="#A2C2DD" points="0.09,0.893 4.703,8.068 11.403,2.954 "/>
</svg>