<?xml version="1.0" encoding="UTF-8"?>
<!DOCTYPE svg PUBLIC "-//W3C//DTD SVG 1.1 Tiny//EN" "http://www.w3.org/Graphics/SVG/1.1/DTD/svg11-tiny.dtd">
<svg baseProfile="tiny" height="32" version="1.1" viewBox="-1 -1 38 32" width="38" xmlns="http://www.w3.org/2000/svg" xmlns:xlink="http://www.w3.org/1999/xlink">
<g>
<path d="M16.124,24.221c-0.443,0-0.952-0.043-1.524-0.127c-0.572-0.086-1.179-0.235-1.814-0.455v-2.637   c0.557,0.25,1.242,0.447,2.058,0.592c0.814,0.146,1.456,0.219,1.925,0.219c0.95,0,1.701-0.283,2.25-0.848   c0.549-0.563,0.822-1.344,0.822-2.336c0-0.621-0.131-1.135-0.393-1.543c-0.264-0.406-0.692-0.721-1.289-0.943   c-0.599-0.221-1.558-0.368-2.88-0.44v-2.359c1.598,0,2.652-0.135,3.17-0.406c0.517-0.27,0.854-0.606,1.011-1.016   s0.236-0.85,0.236-1.326c0-0.854-0.238-1.469-0.714-1.844c-0.478-0.375-1.175-0.563-2.095-0.563c-0.557,0-1.213,0.087-1.967,0.266   c-0.755,0.178-1.301,0.359-1.64,0.545V6.358c0.307-0.121,0.793-0.248,1.458-0.381c0.666-0.133,1.309-0.198,1.931-0.198   c2.234,0,3.86,0.383,4.877,1.147c1.017,0.767,1.524,1.953,1.524,3.56c0,0.92-0.306,1.744-0.914,2.475   c-0.609,0.729-1.395,1.24-2.354,1.529c0.944,0.202,1.749,0.703,2.414,1.502c0.666,0.799,0.999,1.78,0.999,2.951   c0,1.774-0.556,3.1-1.664,3.971C20.441,23.785,18.633,24.221,16.124,24.221z"/>
<rect fill="none" height="32" width="38" x="-1" y="-1"/>
</g>
</svg>
