<?xml version="1.0" encoding="UTF-8"?>
<!DOCTYPE svg PUBLIC "-//W3C//DTD SVG 1.1 Tiny//EN" "http://www.w3.org/Graphics/SVG/1.1/DTD/svg11-tiny.dtd">
<svg width="13" height="13" viewBox="0 0 13 13">
<path d="M8.281,4.588c1.734,1.734,0.058,3.769-0.014,3.854L9.029,9.09c0.822-0.965,1.872-3.296-0.041-5.209L8.281,4.588z"/>
<path d="M10.963,1.783L10.256,2.49c3.661,3.663,0.153,7.872,0.002,8.049l0.761,0.648C11.063,11.137,15.269,6.091,10.963,1.783z"/>
<path d="M3.671,1.718l-1.599,2.57H0.094v4.345h2.022l1.596,2.652h2.763V1.719L3.671,1.718z M2.827,7.875L2.681,7.633H2.398 H1.094V5.288H2.35h0.278l0.146-0.236l1.457-2.341l1.244-0.016v7.589H4.277L2.827,7.875z"/>
</svg>