<?xml version="1.0" encoding="UTF-8"?>
<!DOCTYPE svg PUBLIC "-//W3C//DTD SVG 1.1 Tiny//EN" "http://www.w3.org/Graphics/SVG/1.1/DTD/svg11-tiny.dtd">
<svg width="16" height="16" viewBox="0 0 16 16">
<path fill="#496DA2" d="M13.39,9.211c-1.865,2.529-5.711,3.672-8.701,2.618C3.299,11.34,2.27,10.541,1.848,9.478 c0.468,1.427,1.419,3.133,3.146,3.744c2.987,1.053,6.826-0.112,8.691-2.636c0.998-1.349,0.792-3.63,0.592-4.642 C14.43,6.979,14.181,8.145,13.39,9.211z"/>
<path fill="#A2C2DD" d="M13.352,9.256c-1.865,2.524-5.801,3.715-8.79,2.662c-2.989-1.052-3.9-3.952-2.035-6.478 c1.865-2.524,5.8-3.719,8.789-2.667C14.304,3.827,15.218,6.728,13.352,9.256z M8.586,6.286C8.05,6.102,7.343,6.31,7.005,6.744 C6.669,7.182,6.835,7.687,7.374,7.87C7.91,8.051,8.618,7.845,8.955,7.408C9.292,6.97,9.125,6.467,8.586,6.286z"/>
<path fill="#A2C2DD" d="M6.995,6.771c0.058-0.075,0.126-0.138,0.201-0.197L5.588,3.091C4.21,3.635,2.93,4.788,2.515,5.465 c-0.214,0.349-0.438,0.662-0.586,1l4.933,0.564C6.89,6.942,6.931,6.857,6.995,6.771z"/>
<path fill="#A2C2DD" d="M13.341,9.287c0.309-0.465,0.573-0.911,0.732-1.371l-5.065-0.58C8.986,7.371,8.97,7.406,8.944,7.439 c-0.079,0.102-0.179,0.19-0.294,0.264l2.141,3.655C11.937,10.833,12.961,9.855,13.341,9.287z"/>
<path fill="#496DA2" d="M9.99,7.84c-0.7,0.902-2.147,1.3-3.233,0.894c-1.082-0.405-1.39-1.465-0.69-2.368 c0.699-0.903,2.146-1.306,3.231-0.898C10.381,5.875,10.688,6.936,9.99,7.84z M8.594,6.301c-0.53-0.182-1.225,0.023-1.557,0.451 C6.706,7.183,6.87,7.677,7.398,7.86c0.531,0.177,1.226-0.022,1.557-0.455C9.286,6.974,9.124,6.479,8.594,6.301z"/>
</svg>