<?xml version="1.0" encoding="UTF-8"?>
<!DOCTYPE svg PUBLIC "-//W3C//DTD SVG 1.1 Tiny//EN" "http://www.w3.org/Graphics/SVG/1.1/DTD/svg11-tiny.dtd">
<svg width="84" height="58" viewBox="-2.241 0.396 84 58">
<linearGradient id="_34" gradientUnits="userSpaceOnUse" x1="46.92" y1="28.01" x2="58.6" y2="51.03">
<stop stop-color="#A2C2DD" offset="0.1"/>
<stop stop-color="#6C83BB" offset="0.71"/>
<stop stop-color="#003D6D" offset="0.99"/>
</linearGradient>
<path fill="url(#_34)" d="M62.974,25.444l0.314-9.976l-10.611-4.285c0,0-6.018,3.255-6.938,3.752 c0.031-0.99,0.184-5.852,0.184-5.852L35.312,4.799l-7.994,4.325l0.453,9.582c0,0,0.467,0.245,0.752,0.395 c-0.262,0.194-0.686,0.508-0.686,0.508l0.221,2.275c0,0,1.863,0.993,2.592,1.381c-0.709,0.424-2.545,1.521-2.545,1.521l0.494,9.37 c0,0,0.344,0.187,0.492,0.267c-0.127,0.073-0.469,0.27-0.469,0.27l0.115,2.3l9.75,5.476c0,0,4.314-4.012,5.223-4.857 c0.043,1.213,0.223,6.365,0.223,6.365s0.365,0.207,0.547,0.312c-0.164,0.091-0.535,0.296-0.535,0.296l0.088,2.434l10.236,6.033 l8.33-7.536l0.01-2.583c0,0-0.211-0.057-0.242-0.064c0.068-0.061,0.299-0.26,0.299-0.26l0.057-9.106c0,0-3.377-1.624-4.158-1.999 c0.703-0.576,4.377-3.583,4.377-3.583l0.086-2.381c0,0-0.061-0.021-0.121-0.042C62.939,25.47,62.974,25.444,62.974,25.444z M43.882,22.92c0.361-0.295,0.652-0.533,1.055-0.862c0.041,0.521,0.072,0.901,0.109,1.378C44.62,23.246,44.3,23.105,43.882,22.92z M46.481,32.285c-0.104-0.053-0.15-0.076-0.262-0.132c-0.004-0.327-0.029-2.632-0.037-3.456c0.697,0.37,2.65,1.405,3.393,1.799 C48.814,30.935,46.735,32.137,46.481,32.285z"/>
<linearGradient id="_35" gradientUnits="userSpaceOnUse" x1="42.08" y1="31.74" x2="42.2" y2="44.16">
<stop stop-color="#FFFFFF" offset="0"/>
<stop stop-color="#A2C2DD" offset="0.35"/>
<stop stop-color="#6C83BB" offset="0.7"/>
<stop stop-color="#003D6D" offset="1"/>
</linearGradient>
<polygon fill="url(#_35)" points="38.435,42.038 45.86,35.132 45.86,33.093 38.388,39.886 "/>
<linearGradient id="_36" gradientUnits="userSpaceOnUse" x1="34.24" y1="37.45" x2="32.54" y2="40.69">
<stop stop-color="#FFFFFF" offset="0"/>
<stop stop-color="#A2C2DD" offset="0.35"/>
<stop stop-color="#6C83BB" offset="0.7"/>
<stop stop-color="#003D6D" offset="1"/>
</linearGradient>
<polygon fill="url(#_36)" points="38.435,42.038 29.077,36.783 28.981,34.89 38.405,39.888 "/>
<linearGradient id="_37" gradientUnits="userSpaceOnUse" x1="36" y1="29.1" x2="38.67" y2="38.31">
<stop stop-color="#FFFFFF" offset="0"/>
<stop stop-color="#A2C2DD" offset="0.35"/>
<stop stop-color="#6C83BB" offset="0.7"/>
<stop stop-color="#003D6D" offset="1"/>
</linearGradient>
<polygon fill="url(#_37)" points="45.86,33.124 36.198,30.753 28.981,34.89 38.388,39.886 "/>
<polygon fill="#235487" points="35.278,39.183 35.286,38.925 37.653,40.224 37.632,40.499 "/>
<linearGradient id="_38" gradientUnits="userSpaceOnUse" x1="25.26" y1="22.77" x2="44.72" y2="26.39">
<stop stop-color="#FFFFFF" offset="0.15"/>
<stop stop-color="#A2C2DD" offset="1"/>
</linearGradient>
<polygon fill="url(#_38)" points="36.64,20.094 28.464,24.979 38.388,30.011 45.928,24.209 "/>
<linearGradient id="_39" gradientUnits="userSpaceOnUse" x1="35.62" y1="27.85" x2="28.71" y2="41.08">
<stop stop-color="#FFFFFF" offset="0"/>
<stop stop-color="#A2C2DD" offset="0.35"/>
<stop stop-color="#6C83BB" offset="0.7"/>
<stop stop-color="#003D6D" offset="1"/>
</linearGradient>
<polygon fill="url(#_39)" points="38.276,29.981 28.464,24.979 28.937,33.943 38.413,39.076 "/>
<linearGradient id="_40" gradientUnits="userSpaceOnUse" x1="41.98" y1="22" x2="42.19" y2="42.62">
<stop stop-color="#FFFFFF" offset="0"/>
<stop stop-color="#A2C2DD" offset="0.35"/>
<stop stop-color="#6C83BB" offset="0.7"/>
<stop stop-color="#003D6D" offset="1"/>
</linearGradient>
<polygon fill="url(#_40)" points="45.784,24.269 38.276,29.981 38.413,39.076 45.872,32.415 "/>
<linearGradient id="_41" gradientUnits="userSpaceOnUse" x1="33.77" y1="28.55" x2="32.74" y2="36.67">
<stop stop-color="#FFFFFF" offset="0.05"/>
<stop stop-color="#A2C2DD" offset="1"/>
</linearGradient>
<polygon fill="url(#_41)" points="37.2,30.663 29.378,26.57 29.647,33.238 37.29,37.372 "/>
<polygon fill="#496DA2" points="30.138,32.923 29.929,26.838 29.378,26.57 29.647,33.238 "/>
<polygon fill="#DEE9F3" points="29.647,33.238 30.116,32.927 37.282,36.708 37.29,37.372 "/>
<linearGradient id="_42" gradientUnits="userSpaceOnUse" x1="33.86" y1="22.28" x2="32.2" y2="25.45">
<stop stop-color="#D6E6EC" offset="0"/>
<stop stop-color="#298595" offset="1"/>
</linearGradient>
<polygon fill="url(#_42)" points="38.368,26.979 28.388,21.664 28.204,19.775 38.335,24.799 "/>
<linearGradient id="_43" gradientUnits="userSpaceOnUse" x1="28.76" y1="13.09" x2="42.36" y2="24.13">
<stop stop-color="#E6EEF4" offset="0"/>
<stop stop-color="#2F8E9A" offset="0.44"/>
<stop stop-color="#003D6D" offset="0.94"/>
</linearGradient>
<polygon fill="url(#_43)" points="45.333,19.409 34.466,15.127 28.204,19.772 38.321,24.799 "/>
<linearGradient id="_44" gradientUnits="userSpaceOnUse" x1="46.2" y1="19.06" x2="32.91" y2="31.15">
<stop stop-color="#E6EEF4" offset="0"/>
<stop stop-color="#2F8E9A" offset="0.44"/>
<stop stop-color="#003D6D" offset="0.94"/>
</linearGradient>
<polygon fill="url(#_44)" points="38.368,26.979 45.231,21.363 45.331,19.377 38.321,24.799 "/>
<polygon fill="#115B7E" points="37.017,23.365 30.485,19.923 30.491,18.463 37.062,21.799 "/>
<polygon fill="#235487" points="34.989,24.232 34.985,23.974 37.403,25.169 37.396,25.443 "/>
<linearGradient id="_45" gradientUnits="userSpaceOnUse" x1="42.08" y1="10.03" x2="41.4" y2="28.62">
<stop stop-color="#E6EEF4" offset="0"/>
<stop stop-color="#2F8E9A" offset="0.44"/>
<stop stop-color="#003D6D" offset="0.94"/>
</linearGradient>
<polygon fill="url(#_45)" points="38.425,14.301 38.425,23.906 45.265,18.879 45.565,9.317 "/>
<linearGradient id="_46" gradientUnits="userSpaceOnUse" x1="31.35" y1="7.31" x2="48.35" y2="14.49">
<stop stop-color="#D6E6EC" offset="0"/>
<stop stop-color="#298595" offset="1"/>
</linearGradient>
<polygon fill="url(#_46)" points="27.677,9.327 35.333,5.185 45.565,9.317 38.425,14.301 "/>
<linearGradient id="_47" gradientUnits="userSpaceOnUse" x1="35.48" y1="11.97" x2="28.12" y2="26.06">
<stop stop-color="#D6E6EC" offset="0"/>
<stop stop-color="#298595" offset="1"/>
</linearGradient>
<polygon fill="url(#_47)" points="27.677,9.327 28.12,18.489 38.425,23.906 38.425,14.301 "/>
<linearGradient id="_48" gradientUnits="userSpaceOnUse" x1="33.45" y1="12.97" x2="32.37" y2="21.5">
<stop stop-color="#FFFFFF" offset="0.05"/>
<stop stop-color="#A2C2DD" offset="1"/>
</linearGradient>
<polygon fill="url(#_48)" points="28.644,10.868 29.003,17.871 37.351,22.259 37.351,14.896 "/>
<polygon fill="#115B7E" points="29.433,17.566 29.126,11.046 28.64,10.852 28.997,17.891 "/>
<polygon fill="#BFDAE1" points="28.997,17.891 29.439,17.566 37.362,21.637 37.366,22.265 "/>
<linearGradient id="_49" gradientUnits="userSpaceOnUse" x1="45.02" y1="30.41" x2="44.15" y2="32.68">
<stop stop-color="#FFFFFF" offset="0"/>
<stop stop-color="#A2C2DD" offset="0.35"/>
<stop stop-color="#6C83BB" offset="0.7"/>
<stop stop-color="#003D6D" offset="1"/>
</linearGradient>
<path fill="url(#_49)" d="M47.401,33.142l-5.35-2.704c-0.561-0.05-1.041,0.989-0.57,1.415l4.951,2.95L47.401,33.142z"/>
<linearGradient id="_50" gradientUnits="userSpaceOnUse" x1="46.75" y1="15.06" x2="45.92" y2="17.24">
<stop stop-color="#FFFFFF" offset="0"/>
<stop stop-color="#A2C2DD" offset="0.35"/>
<stop stop-color="#6C83BB" offset="0.7"/>
<stop stop-color="#003D6D" offset="1"/>
</linearGradient>
<path fill="url(#_50)" d="M50.845,18.013l-8.594-3.554c-0.732-0.059-1.057,1.221-0.527,1.629l8.23,3.897L50.845,18.013z"/>
<linearGradient id="_51" gradientUnits="userSpaceOnUse" x1="49.9" y1="47.49" x2="47.87" y2="51.37">
<stop stop-color="#D6E6EC" offset="0"/>
<stop stop-color="#298595" offset="1"/>
</linearGradient>
<polygon fill="url(#_51)" points="54.224,52.618 44.374,46.814 44.302,44.786 54.233,50.312 "/>
<linearGradient id="_52" gradientUnits="userSpaceOnUse" x1="45.35" y1="37.55" x2="58.84" y2="48.5">
<stop stop-color="#E6EEF4" offset="0"/>
<stop stop-color="#2F8E9A" offset="0.44"/>
<stop stop-color="#003D6D" offset="0.94"/>
</linearGradient>
<polygon fill="url(#_52)" points="62.286,43.208 52.054,40.486 44.302,44.786 54.216,50.312 "/>
<linearGradient id="_53" gradientUnits="userSpaceOnUse" x1="63.54" y1="43.01" x2="47.58" y2="57.52">
<stop stop-color="#E6EEF4" offset="0"/>
<stop stop-color="#2F8E9A" offset="0.44"/>
<stop stop-color="#003D6D" offset="0.94"/>
</linearGradient>
<polygon fill="url(#_53)" points="54.224,52.618 62.249,45.359 62.286,43.175 54.216,50.312 "/>
<polygon fill="#235487" points="50.923,49.503 50.933,49.226 53.425,50.661 53.397,50.954 "/>
<linearGradient id="_54" gradientUnits="userSpaceOnUse" x1="47.75" y1="31.95" x2="65.09" y2="39.28">
<stop stop-color="#D6E6EC" offset="0"/>
<stop stop-color="#298595" offset="1"/>
</linearGradient>
<polygon fill="url(#_54)" points="52.72,29.081 43.939,34.16 54.399,39.734 62.37,33.72 "/>
<linearGradient id="_55" gradientUnits="userSpaceOnUse" x1="51.46" y1="37.28" x2="43.88" y2="51.78">
<stop stop-color="#FFFFFF" offset="0"/>
<stop stop-color="#A2C2DD" offset="0.35"/>
<stop stop-color="#6C83BB" offset="0.7"/>
<stop stop-color="#003D6D" offset="1"/>
</linearGradient>
<polygon fill="url(#_55)" points="54.278,39.699 43.939,34.16 44.274,43.769 54.257,49.443 "/>
<linearGradient id="_56" gradientUnits="userSpaceOnUse" x1="58.54" y1="34.49" x2="57.8" y2="54.54">
<stop stop-color="#E6EEF4" offset="0"/>
<stop stop-color="#2F8E9A" offset="0.44"/>
<stop stop-color="#003D6D" offset="0.94"/>
</linearGradient>
<polygon fill="url(#_56)" points="62.37,33.72 54.278,39.699 54.257,49.443 62.315,42.447 "/>
<linearGradient id="_57" gradientUnits="userSpaceOnUse" x1="49.46" y1="38.01" x2="48.34" y2="46.86">
<stop stop-color="#FFFFFF" offset="0.05"/>
<stop stop-color="#A2C2DD" offset="1"/>
</linearGradient>
<polygon fill="url(#_57)" points="53.122,40.408 44.88,35.88 45.042,43.029 53.093,47.601 "/>
<polygon fill="#115B7E" points="45.571,42.699 45.46,36.177 44.88,35.88 45.042,43.029 "/>
<polygon fill="#BFDAE1" points="45.042,43.029 45.548,42.704 53.097,46.888 53.093,47.601 "/>
<linearGradient id="_58" gradientUnits="userSpaceOnUse" x1="50.31" y1="31.62" x2="53.19" y2="31.68">
<stop stop-color="#FFFFFF" offset="0"/>
<stop stop-color="#A2C2DD" offset="0.35"/>
<stop stop-color="#6C83BB" offset="0.7"/>
<stop stop-color="#003D6D" offset="1"/>
</linearGradient>
<path fill="url(#_58)" d="M51.864,28.474l0.377,6.064c0.223,0.469,1.328,0.393,1.449-0.021l0.02-5.921L51.864,28.474z"/>
<path fill="#FFFFFF" d="M11.017,34.572c-2.879,0-6.824,0.684-7.824,6.592l-0.148,0.893c0,0,6.635,0,7.422,0 c0.236,0.426,0.592,1.066,0.816,1.475c-0.227,0.408-0.58,1.047-0.816,1.473c-0.787,0-7.422,0-7.422,0l0.148,0.893 c1,5.908,4.945,6.59,7.824,6.59c2.271,0,4.293-1.902,5.92-3.436c0.879-0.828,1.707-1.607,2.146-1.607h20.318l0.225-0.25 c0.439-0.479,1.449-1.791,1.471-3.631v-0.063c-0.02-1.844-1.031-3.152-1.471-3.633l-0.225-0.248H19.083 c-0.439,0-1.268-0.779-2.145-1.605C15.31,36.478,13.288,34.572,11.017,34.572z"/>
<linearGradient id="_59" gradientUnits="userSpaceOnUse" x1="9.63" y1="29.77" x2="31.54" y2="56.12">
<stop stop-color="#E6EDF3" offset="0"/>
<stop stop-color="#CABAD7" offset="0.12"/>
<stop stop-color="#AB7EB8" offset="0.27"/>
<stop stop-color="#9759A4" offset="0.38"/>
<stop stop-color="#8F4B9C" offset="0.44"/>
<stop stop-color="#73357C" offset="0.57"/>
<stop stop-color="#551D5A" offset="0.72"/>
<stop stop-color="#430E45" offset="0.85"/>
<stop stop-color="#3C093D" offset="0.94"/>
</linearGradient>
<path fill="url(#_59)" d="M40.337,43.529c0-0.008,0.004-0.016,0.004-0.021h-0.006c-0.02-1.602-0.936-2.758-1.271-3.127 c-0.43,0-19.979,0-19.979,0c-0.744,0-1.553-0.762-2.674-1.814c-1.523-1.438-3.426-3.229-5.395-3.229 c-3.195,0-6.221,0.938-7.068,5.955c1.201,0,6.967,0,6.967,0l1.238,2.236l-1.238,2.238c0,0-5.766,0-6.967,0 c0.85,5.018,3.873,5.955,7.068,5.955c1.969,0,3.869-1.791,5.395-3.229c1.121-1.053,1.93-1.814,2.674-1.814c0,0,19.549,0,19.979,0 c0.336-0.369,1.254-1.525,1.271-3.127h0.006C40.341,43.544,40.337,43.538,40.337,43.529z"/>
<linearGradient id="_60" gradientUnits="userSpaceOnUse" x1="51.22" y1="28.67" x2="49.57" y2="31.84">
<stop stop-color="#FFFFFF" offset="0"/>
<stop stop-color="#A2C2DD" offset="0.35"/>
<stop stop-color="#6C83BB" offset="0.7"/>
<stop stop-color="#003D6D" offset="1"/>
</linearGradient>
<polygon fill="url(#_60)" points="55.732,33.364 45.604,27.994 45.568,26.16 55.699,31.183 "/>
<linearGradient id="_61" gradientUnits="userSpaceOnUse" x1="52.44" y1="20.11" x2="55.23" y2="29.75">
<stop stop-color="#FFFFFF" offset="0"/>
<stop stop-color="#A2C2DD" offset="0.35"/>
<stop stop-color="#6C83BB" offset="0.7"/>
<stop stop-color="#003D6D" offset="1"/>
</linearGradient>
<polygon fill="url(#_61)" points="62.697,25.793 51.93,22.048 45.568,26.157 55.686,31.183 "/>
<linearGradient id="_62" gradientUnits="userSpaceOnUse" x1="59.15" y1="24.61" x2="59.26" y2="35.16">
<stop stop-color="#FFFFFF" offset="0"/>
<stop stop-color="#A2C2DD" offset="0.35"/>
<stop stop-color="#6C83BB" offset="0.7"/>
<stop stop-color="#003D6D" offset="1"/>
</linearGradient>
<polygon fill="url(#_62)" points="55.732,33.364 62.596,27.747 62.695,25.761 55.686,31.183 "/>
<polygon fill="#235487" points="54.381,29.749 47.85,26.307 47.855,24.847 54.426,28.183 "/>
<polygon fill="#235487" points="52.354,30.617 52.35,30.359 54.768,31.553 54.76,31.827 "/>
<linearGradient id="_63" gradientUnits="userSpaceOnUse" x1="59.26" y1="13.46" x2="59.47" y2="33.78">
<stop stop-color="#FFFFFF" offset="0"/>
<stop stop-color="#A2C2DD" offset="0.35"/>
<stop stop-color="#6C83BB" offset="0.7"/>
<stop stop-color="#003D6D" offset="1"/>
</linearGradient>
<polygon fill="url(#_63)" points="55.789,20.685 55.789,30.29 62.629,25.263 62.93,15.702 "/>
<linearGradient id="_64" gradientUnits="userSpaceOnUse" x1="41.67" y1="13.79" x2="61.76" y2="17.53">
<stop stop-color="#FFFFFF" offset="0.15"/>
<stop stop-color="#A2C2DD" offset="1"/>
</linearGradient>
<polygon fill="url(#_64)" points="45.041,15.711 52.697,11.57 62.93,15.702 55.789,20.685 "/>
<linearGradient id="_65" gradientUnits="userSpaceOnUse" x1="52.84" y1="18.36" x2="45.48" y2="32.44">
<stop stop-color="#FFFFFF" offset="0"/>
<stop stop-color="#A2C2DD" offset="0.35"/>
<stop stop-color="#6C83BB" offset="0.7"/>
<stop stop-color="#003D6D" offset="1"/>
</linearGradient>
<polygon fill="url(#_65)" points="45.041,15.711 45.484,24.873 55.789,30.29 55.789,20.685 "/>
<linearGradient id="_66" gradientUnits="userSpaceOnUse" x1="50.82" y1="19.35" x2="49.74" y2="27.88">
<stop stop-color="#FFFFFF" offset="0.05"/>
<stop stop-color="#A2C2DD" offset="1"/>
</linearGradient>
<polygon fill="url(#_66)" points="46.008,17.252 46.367,24.255 54.715,28.643 54.715,21.281 "/>
<polygon fill="#496DA2" points="46.797,23.951 46.49,17.43 46.004,17.237 46.361,24.276 "/>
<polygon fill="#DEE9F3" points="46.361,24.276 46.803,23.951 54.727,28.021 54.73,28.65 "/>
</svg>