<?xml version="1.0" encoding="UTF-8"?>
<!DOCTYPE svg PUBLIC "-//W3C//DTD SVG 1.1 Tiny//EN" "http://www.w3.org/Graphics/SVG/1.1/DTD/svg11-tiny.dtd">
<svg width="100%" height="100%" viewBox="0 0 88 87.999">
<linearGradient id="_30" gradientUnits="userSpaceOnUse" x1="54" y1="51.2" x2="65.98" y2="63.7">
<stop stop-color="#A2C2DD" offset="0.1"/>
<stop stop-color="#6C83BB" offset="0.71"/>
<stop stop-color="#003D6D" offset="0.99"/>
</linearGradient>
<path fill="url(#_30)" d="M48.837,8.335c0.034,2.172,0.22,7.431,0.22,7.431c-10.282-1.612-20.949,1.68-24.271,2.982 c-1.053,17.781,1.197,40.197,2.78,50.739c3.07,3.149,13.561,9.582,22.534,9.224c3.134-1.183,6.681-5.416,6.681-5.416 s0.244-1.145,0.318-1.49c0.306-0.259,2.148-1.819,2.148-1.819c2.09-10.979,5.152-29.416,3.768-47.806 c-1.506-1.704-4.688-3.731-7.601-4.833l1.215-8.381C57.228,6.054,48.79,5.397,48.837,8.335z"/>
<linearGradient id="_31" gradientUnits="userSpaceOnUse" x1="11.89" y1="45.25" x2="36.15" y2="25.28">
<stop stop-color="#E6EEF4" offset="0"/>
<stop stop-color="#C03A3A" offset="0.44"/>
<stop stop-color="#302D02" offset="0.94"/>
</linearGradient>
<path fill="url(#_31)" d="M26.488,21.729c-10.49,2.037-21.186,22.078-12.523,35.215c-3.387-8,1.17-22.264,13.594-25.092 L26.488,21.729z"/>
<linearGradient id="_32" gradientUnits="userSpaceOnUse" x1="74.08" y1="42.14" x2="48.84" y2="62.93">
<stop stop-color="#E6EEF4" offset="0"/>
<stop stop-color="#C03A3A" offset="0.44"/>
<stop stop-color="#302D02" offset="0.94"/>
</linearGradient>
<path fill="url(#_32)" d="M58.572,66.239c10.49-2.037,22.359-22.721,13.695-35.857c3.389,8-1.168,22.264-13.592,25.092 L58.572,66.239z"/>
<linearGradient id="_33" gradientUnits="userSpaceOnUse" x1="44.6" y1="8.38" x2="62.26" y2="33.54">
<stop stop-color="#A2C2DD" offset="0.1"/>
<stop stop-color="#6C83BB" offset="0.71"/>
<stop stop-color="#003D6D" offset="0.99"/>
</linearGradient>
<path fill="url(#_33)" d="M42.16,16.08c5.354-0.193,14.372,0.566,20.189,6.415l-3.441,1.59L42.16,16.08z"/>
<linearGradient id="_34" gradientUnits="userSpaceOnUse" x1="54.47" y1="10.8" x2="60.72" y2="60.05">
<stop stop-color="#FFFFFF" offset="0"/>
<stop stop-color="#A2C2DD" offset="0.35"/>
<stop stop-color="#6C83BB" offset="0.7"/>
<stop stop-color="#003D6D" offset="1"/>
</linearGradient>
<path fill="url(#_34)" d="M59.478,23.78l-3.632,48.167l2.771-2.345c2.169-9.563,5.122-33.156,3.72-47.181L59.478,23.78z"/>
<linearGradient id="_35" gradientUnits="userSpaceOnUse" x1="34.22" y1="27.83" x2="50.38" y2="14.82">
<stop stop-color="#FFFFFF" offset="0.15"/>
<stop stop-color="#A2C2DD" offset="1"/>
</linearGradient>
<path fill="url(#_35)" d="M25.45,19.254c10.196-3.651,24.313-5.875,34.443,3.544l-8.258,3.931L25.45,19.254z"/>
<linearGradient id="_36" gradientUnits="userSpaceOnUse" x1="54.64" y1="14.19" x2="55.42" y2="91.43">
<stop stop-color="#FFFFFF" offset="0"/>
<stop stop-color="#A2C2DD" offset="0.35"/>
<stop stop-color="#6C83BB" offset="0.7"/>
<stop stop-color="#003D6D" offset="1"/>
</linearGradient>
<path fill="url(#_36)" d="M51.636,26.729l-1.829,51.347c3.867-1.783,6.321-5.076,6.321-5.076 c2.287-10.088,5.245-35.407,3.766-50.201L51.636,26.729z"/>
<linearGradient id="_37" gradientUnits="userSpaceOnUse" x1="46.86" y1="19.16" x2="58.1" y2="24.06">
<stop stop-color="#FFFFFF" offset="0"/>
<stop stop-color="#A2C2DD" offset="0.35"/>
<stop stop-color="#6C83BB" offset="0.7"/>
<stop stop-color="#003D6D" offset="1"/>
</linearGradient>
<path fill="url(#_37)" d="M55.343,21.093c0.418,2.6-6.647,2.998-6.592,0.145C48.793,19.272,55.034,19.159,55.343,21.093z "/>
<linearGradient id="_38" gradientUnits="userSpaceOnUse" x1="49.17" y1="15.15" x2="57.67" y2="15.73">
<stop stop-color="#E6EEF4" offset="0"/>
<stop stop-color="#337CE5" offset="0.44"/>
<stop stop-color="#003D6D" offset="0.94"/>
</linearGradient>
<path fill="url(#_38)" d="M49.514,8.225c0,0,0.427,13.209,0.425,13.242c1.021,1.13,3.444,1.045,4.166,0.026l1.832-12.628 L49.514,8.225z"/>
<linearGradient id="_39" gradientUnits="userSpaceOnUse" x1="53.11" y1="16.97" x2="31.94" y2="60.31">
<stop stop-color="#FFFFFF" offset="0.05"/>
<stop stop-color="#A2C2DD" offset="1"/>
</linearGradient>
<path fill="url(#_39)" d="M25.45,19.254c5.67-1.853,17.683-0.311,26.186,7.475c0.996,13.957,0.189,38.198-1.829,51.347 c-6.859,0.169-16.543-4.438-21.653-8.877C26.472,57.464,24.389,33.289,25.45,19.254z"/>
<linearGradient id="_40" gradientUnits="userSpaceOnUse" x1="57.41" y1="50.59" x2="24.41" y2="32.34">
<stop stop-color="#FFFFFF" offset="0.05"/>
<stop stop-color="#A2C2DD" offset="1"/>
</linearGradient>
<polygon fill="url(#_40)" points="28.277,22.641 29.151,52.234 48.1,59.215 48.73,28.516 "/>
<linearGradient id="_41" gradientUnits="userSpaceOnUse" x1="30.8" y1="74.26" x2="29.05" y2="5.51">
<stop stop-color="#FFFFFF" offset="0"/>
<stop stop-color="#A2C2DD" offset="0.35"/>
<stop stop-color="#6C83BB" offset="0.7"/>
<stop stop-color="#003D6D" offset="1"/>
</linearGradient>
<polygon fill="url(#_41)" points="31.27,50.953 30.72,23.336 28.277,22.641 29.151,52.234 "/>
<linearGradient id="_42" gradientUnits="userSpaceOnUse" x1="49.54" y1="64.79" x2="22.87" y2="39.62">
<stop stop-color="#FFFFFF" offset="0.15"/>
<stop stop-color="#A2C2DD" offset="1"/>
</linearGradient>
<polygon fill="url(#_42)" points="29.151,52.234 31.27,50.953 48.173,56.805 48.1,59.215 "/>
<linearGradient id="_43" gradientUnits="userSpaceOnUse" x1="50.35" y1="9.27" x2="55.52" y2="7.6">
<stop stop-color="#D6E4F3" offset="0"/>
<stop stop-color="#337CE5" offset="1"/>
</linearGradient>
<path fill="url(#_43)" d="M55.937,8.865c-0.605,1.713-7.037,0.95-6.367-0.759C50.25,6.415,56.516,7.14,55.937,8.865z"/>
<linearGradient id="_44" gradientUnits="userSpaceOnUse" x1="33.3" y1="47.59" x2="47.86" y2="71.81">
<stop stop-color="#E6EEF4" offset="0"/>
<stop stop-color="#337CE5" offset="0.44"/>
<stop stop-color="#003D6D" offset="0.94"/>
</linearGradient>
<polygon fill="url(#_44)" points="41.985,66.975 46.854,69.026 47.046,65.521 42.089,63.473 "/>
<polygon fill="url(#_44)" points="47.094,64.608 47.284,61.111 42.215,59.221 42.117,62.566 "/>
<polygon fill="url(#_44)" points="41.957,67.883 41.868,71.051 46.635,73.173 46.807,69.941 "/>
<polygon fill="url(#_44)" points="35.26,60.713 30.98,59.018 31.203,62.554 35.392,64.245 "/>
<polygon fill="url(#_44)" points="41.167,62.239 41.202,58.908 36.286,57.109 36.346,60.307 "/>
<polygon fill="url(#_44)" points="35.104,56.619 30.722,55.044 30.921,58.107 35.224,59.801 "/>
<polygon fill="url(#_44)" points="36.507,68.77 41.071,70.758 41.104,67.582 36.449,65.644 "/>
<polygon fill="url(#_44)" points="35.421,65.166 31.264,63.469 31.457,66.553 35.536,68.294 "/>
<polygon fill="url(#_44)" points="36.363,61.215 36.429,64.731 41.119,66.67 41.154,63.151 "/>
<polygon fill="url(#_44)" points="36.524,69.694 36.582,72.901 41.025,74.976 41.063,71.681 "/>
<linearGradient id="_54" gradientUnits="userSpaceOnUse" x1="8.92" y1="54.98" x2="25.36" y2="73">
<stop stop-color="#A2C2DD" offset="0.1"/>
<stop stop-color="#6C83BB" offset="0.71"/>
<stop stop-color="#003D6D" offset="0.99"/>
</linearGradient>
<path fill="url(#_54)" d="M11.438,69.079c0,13.643,20.633,13.643,20.633,0C32.07,55.312,11.438,55.312,11.438,69.079z"/>
<radialGradient id="_55" gradientUnits="userSpaceOnUse" cx="19.38" cy="63.41" r="12.57">
<stop stop-color="#FFFFFF" offset="0.15"/>
<stop stop-color="#A2C2DD" offset="1"/>
</radialGradient>
<path fill="url(#_55)" d="M13.65,69.079c0-10.832,16.211-10.832,16.211,0C29.861,79.835,13.65,79.835,13.65,69.079z"/>
<path fill="url(#_54)" d="M24.35,67.101l2.347-0.547c-1.507-5.311-10.165-4.896-10.192,2.633 c-0.026,7.371,8.563,7.836,10.24,2.25l-2.317-0.738c-0.466,3.096-5.401,4.15-5.5-1.52C18.84,64.153,23.614,64.22,24.35,67.101z"/>
<linearGradient id="_57" gradientUnits="userSpaceOnUse" x1="60.11" y1="2.96" x2="68.04" y2="25.02">
<stop stop-color="#A2C2DD" offset="0.1"/>
<stop stop-color="#6C83BB" offset="0.71"/>
<stop stop-color="#003D6D" offset="0.99"/>
</linearGradient>
<polygon fill="url(#_57)" points="63.157,24.979 63.157,15.526 59.809,15.526 59.809,13.604 68.803,13.604 68.803,15.526 65.454,15.526 65.454,24.979 "/>
<polygon fill="url(#_57)" points="70.274,24.979 70.274,13.604 73.715,13.604 75.763,21.362 77.796,13.604 81.252,13.604 81.252,24.979 79.123,24.979 79.111,16.024 76.849,24.979 74.645,24.979 72.414,16.024 72.403,24.979 "/>
</svg>