<?xml version="1.0" encoding="UTF-8"?>
<!DOCTYPE svg PUBLIC "-//W3C//DTD SVG 1.1 Tiny//EN" "http://www.w3.org/Graphics/SVG/1.1/DTD/svg11-tiny.dtd">
<svg width="60" height="52" viewBox="-0.97 1.13 60 52">
<linearGradient id="_5" gradientUnits="userSpaceOnUse" x1="29.03" y1="45.93" x2="29.03" y2="7.53">
<stop stop-color="#698AB5" offset="0"/>
<stop stop-color="#41628E" offset="0.71"/>
<stop stop-color="#385985" offset="1"/>
</linearGradient>
<path d="M7.289,7.131c-1.245,0-2.259,1.014-2.259,2.259v35.481c0,1.246,1.014,2.26,2.259,2.26H50.77 c1.246,0,2.26-1.014,2.26-2.26V9.39c0-1.245-1.014-2.259-2.26-2.259H7.289z" fill="url(#_5)"/>
<g fill-opacity="0.9" stroke-opacity="0.9">
<linearGradient id="_6" gradientUnits="userSpaceOnUse" x1="29.03" y1="2.59" x2="29.03" y2="47.72">
<stop stop-color="#6694BF" offset="0"/>
<stop stop-color="#8CB3D2" offset="0.09"/>
<stop stop-color="#B3D3E6" offset="0.37"/>
<stop stop-color="#BDDBEB" offset="0.69"/>
</linearGradient>
<path d="M6.03,44.871V9.39c0-0.694,0.564-1.259,1.259-1.259H50.77c0.694,0,1.26,0.564,1.26,1.259v35.481 c0,0.694-0.565,1.26-1.26,1.26H7.289C6.595,46.131,6.03,45.565,6.03,44.871z" fill="url(#_6)"/>
</g>
<linearGradient id="_7" gradientUnits="userSpaceOnUse" x1="28.84" y1="43.92" x2="28.84" y2="11.51">
<stop stop-color="#ADCCED" offset="0"/>
<stop stop-color="#6385AD" offset="1"/>
</linearGradient>
<path d="M51.648,8.508c-0.243-0.252-0.529-0.377-0.878-0.377H7.289c-0.694,0-1.259,0.564-1.259,1.259 v35.481c0,0.346,0.143,0.652,0.372,0.873c0.003,0.013,0.628-0.628,0.628-0.628V9.131h43.999L51.648,8.508z" fill="url(#_7)"/>
<linearGradient id="_8" gradientUnits="userSpaceOnUse" x1="29.22" y1="41.38" x2="29.22" y2="1.91">
<stop stop-color="#DBF5FF" offset="0"/>
<stop stop-color="#5985B0" offset="1"/>
</linearGradient>
<path d="M6.412,45.753c0.243,0.252,0.529,0.377,0.878,0.377h43.481c0.694,0,1.259-0.564,1.259-1.259V9.39 c0-0.346-0.143-0.652-0.372-0.873c-0.003-0.013-0.628,0.628-0.628,0.628s0,35.206,0,35.985c-0.738,0-43.999,0-43.999,0 L6.412,45.753z" fill="url(#_8)"/>
<polygon fill="#496DA2" points="24.018,29.72 22.477,29.72 20.06,25.325 20.06,35.844 16.918,35.844 16.918,18.407 18.513,18.407 23.246,26.952 27.982,18.407 29.575,18.407 29.575,35.844 26.419,35.844 26.419,25.419 "/>
<path d="M42.884,35.844h-3.631l-2.949-7.375h-0.678v7.375H32.47V18.407h4.405c4.077,0,5.188,1.671,5.188,4.935 c0,2.151-0.712,3.951-2.646,4.69L42.884,35.844z M35.626,26.875h1.121c1.433,0,2.16-0.909,2.16-3.53 c0-2.414-0.628-3.345-2.16-3.345h-1.121V26.875z" fill="#496DA2"/>
</svg>