<?xml version="1.0" encoding="UTF-8"?>
<!DOCTYPE svg PUBLIC "-//W3C//DTD SVG 1.1 Tiny//EN" "http://www.w3.org/Graphics/SVG/1.1/DTD/svg11-tiny.dtd">
<svg width="29" height="25" viewBox="0 0 29 25">
<linearGradient id="_23" gradientUnits="userSpaceOnUse" x1="14.53" y1="12.56" x2="19.71" y2="22.76">
<stop stop-color="#A2C2DD" offset="0.1"/>
<stop stop-color="#6C83BB" offset="0.71"/>
<stop stop-color="#003D6D" offset="0.99"/>
</linearGradient>
<path fill="url(#_23)" d="M3.06,12.498c0,6.311,5.132,11.443,11.44,11.443c6.309,0,11.439-5.133,11.439-11.443 c0-6.308-5.131-11.439-11.439-11.439C8.192,1.059,3.06,6.19,3.06,12.498z M3.76,12.498c0-5.921,4.818-10.739,10.74-10.739 c5.923,0,10.741,4.817,10.741,10.739c0,5.924-4.818,10.744-10.741,10.744C8.578,23.242,3.76,18.422,3.76,12.498z"/>
<radialGradient id="_24" gradientUnits="userSpaceOnUse" cx="16.69" cy="5.35" r="20.52">
<stop stop-color="#FFFFFF" offset="0"/>
<stop stop-color="#A2C2DD" offset="0.53"/>
<stop stop-color="#6C83BB" offset="0.87"/>
<stop stop-color="#003D6D" offset="1"/>
</radialGradient>
<path fill="url(#_24)" d="M25.591,12.498c0,6.126-4.967,11.094-11.091,11.094S3.41,18.624,3.41,12.498 c0-6.124,4.967-11.089,11.09-11.089S25.591,6.374,25.591,12.498z"/>
<radialGradient id="_25" gradientUnits="userSpaceOnUse" cx="12.93" cy="6.64" r="15.77">
<stop stop-color="#E6EEF4" offset="0"/>
<stop stop-color="#4A9900" offset="0.44"/>
<stop stop-color="#0E4E58" offset="0.94"/>
</radialGradient>
<path fill="url(#_25)" d="M19.999,3.295l0.574,1.242l1.333,0.481c0,0,0.335,0.406,0.445,0.5 c0.168,0.741,0.537,1.538,0.609,1.575c0.074,0.036,0.408,0.148,0.521,0.129c0.074,0.408-0.037,0.408-0.037,0.408l-0.536-0.26 l0.221,0.909l1.038,1.759c-0.13,0.277-0.63,1.926-0.63,1.926s0.649,0.594,0.558,1.242c-0.094,0.647-0.445,0.259-0.539,0.204 c-0.092-0.057-0.39,0.222-0.39,0.222s-0.722-0.444-0.776-0.631c-0.391-0.629-0.908-0.425-1.058-0.11 c-0.717,1.53-0.755,1.376-0.647,2.354c0.392,0.575,0.166,0.722,0.037,0.628c-0.129-0.092-0.334-0.166-0.519-0.166 c-0.187,0-0.39-0.575-0.556-0.963c-0.168-0.391-0.965-1.001-1.113-1.299c-0.146-0.295-0.686-0.295-0.686-0.295 s-1.537,0.092-1.428,0.203c0.742,0.52,0.445,0.89,0.445,0.89L15.7,15.281c0,0-0.982,0.445-1.278,0.519 c-0.538,0.333,0.055,0.464,0.646,0.314c0.594-0.149,0.539,0.093,0.445,0.333c-0.332,0.813-0.926,1.333-1.313,1.482 c-0.815,0.572-1.001,1.426-0.613,1.775c0,0,0.038,0.835-0.24,0.854c-0.278,0.02-0.667,0.313-0.667,0.443 c0,0.131-0.295,0.667-0.408,0.76c-0.389,0.502-0.889,0.444-1.111,0.334c-1.022,0.199-1.871-1.443-1.927-1.594 C9.18,20.357,8.438,19.986,8.68,19.32c0.239-0.668-0.354-1.631-0.389-1.705c-0.04-0.075-0.375-1.436-1.095-2.059 c-0.076-0.063-0.87-0.26-1.296-0.391c-0.426-0.129-0.612-1.146-0.797-1.574c-0.185-0.427,0.315-2.074,0.334-2.186 c0.018-0.111,0.685-0.688,0.685-0.688L7.53,9.796L7.457,9.149c0,0,0.204-0.24,0.278-0.351c0.074-0.111,0.39-0.556,0.518-0.259 c0.131,0.296,0.78,0.24,0.724-0.186c-0.058-0.426,0.092-0.63,0.258-0.648c0.167-0.019,0.019-0.37-0.185-0.63 C8.846,6.816,9.364,6.741,9.699,6.426c0.334-0.315,0.093,0.686,0.093,1.02c0,0.333,1.13-0.557,1.185-0.611 C10.848,6.186,11.366,6.02,11.513,6c0.15-0.018,0.816-0.407,0.982-0.575c0.167-0.167,0.629-0.167,0.778-0.147 c0.148,0.018,0.814,0.556,0.981,0.556c0.168,0,1.482-0.352,1.52-0.593c0.037-0.24,0.166-0.371,0.408-0.464 c0.24-0.091,0.277-0.871,0.277-0.871s0.286-0.116,0.409-0.073c0.571,0.198,0.704-0.185,0.87-0.241 c0.166-0.055,0.02-0.388-0.036-0.537c0.204-0.444-0.853-0.88-0.464-0.853C18.758,2.314,19.831,3.036,19.999,3.295z M7.697,9.854 l0.149,0.185c0,0,0.765,0.078,1.523,0.373c0.116,0.116-0.023,0.665-0.023,0.665s0.816,1.111,0.982,0.908 c0.167-0.204,0.389-0.389,0.648-0.204c0.259,0.185,0.889,0.407,1.205,0.407c0.13,0.037,0.777,0.241,0.759-0.741 c-0.256-0.354-0.908-0.296-1.02-0.388c-0.11-0.094-0.333-0.761-0.333-0.761l-0.222,0.056c0,0-0.037,0.463-0.167,0.463 c-0.129,0-0.408-0.704-0.408-0.704l0.038-0.37l-0.426-0.519c0,0-0.278,0.13,0.259,0.814c0,0-0.372,0.388-0.648,0.407 c0.073-0.092,0.241-0.518,0.241-0.518L9.902,9.409c0,0-0.495-0.529-0.667-0.388c-0.203,0.166-0.797,0.48-0.797,0.48L8.05,9.835 L7.697,9.854z M12.181,6.408c-0.398,0.643-0.978,0.825-0.927,1.055c0.02,0.093,0.576,0.224,0.667-0.036 c0.094-0.259,0.427-0.315,0.427-0.426C12.348,6.889,12.232,6.325,12.181,6.408z M12.94,9.576c-0.092-0.037-0.278-0.371-0.5-0.13 c-0.221,0.241-0.5,0.778-0.221,0.816c0.276,0.036,0.684-0.112,0.776-0.038c0.093,0.074,0.802,0.366,0.909,0 C14.085,9.603,12.94,9.576,12.94,9.576z M12.569,12.928c-0.007,0.113,0.465,1.225,0.465,1.225s-0.039,0.371,0.054,0.5 c0.094,0.132,0.426,0.814,0.797,0.928c0.535-0.617-0.5-1.428-0.5-1.428l-0.038-0.313C13.348,13.836,12.606,12.41,12.569,12.928z M15.052,12.596l0.019,0.314l0.666,0.74c0,0,0.613-0.057,0.5-0.5L15.7,12.966l-0.372-0.354L15.052,12.596z"/>
<radialGradient id="_26" gradientUnits="userSpaceOnUse" cx="18" cy="1.38" r="26.82">
<stop stop-color="#A2C2DD" offset="0.1"/>
<stop stop-color="#6C83BB" offset="0.71"/>
<stop stop-color="#003D6D" offset="0.99"/>
</radialGradient>
<path fill="url(#_26)" d="M8.924,2.891C8.34,3.243,7.398,3.922,7.077,4.433c-0.229,0.363,0.26,0.109,0.362-0.026 C7.61,4.179,7.991,4.112,8.227,3.885c0.303-0.291,0.694-0.439,1-0.729c0.346-0.33,0.672-0.097,1.047-0.153 c0.374-0.056,1.502-0.932,1.891-0.603c0.178,0.151-2.081,0.917-2.221,0.996C9.677,3.546,9.395,3.724,9.18,3.942 c-0.273,0.28,0.616,0.061,0.747,0.061c0.224,0,0.47,0,0.684,0.072c0.397,0.128,0.604-0.222,0.951-0.209 c0.437,0.014,0.777-0.382,1.206-0.435c0.396-0.049,0.438-0.445,0.524-0.763c0.077-0.284-0.044-0.579,0.296-0.708 c0.218-0.085,0.4-0.292,0.544-0.47C11.8,1.391,9.733,2.474,8.924,2.891"/>
</svg>