<?xml version="1.0" encoding="UTF-8"?>
<!DOCTYPE svg PUBLIC "-//W3C//DTD SVG 1.1 Tiny//EN" "http://www.w3.org/Graphics/SVG/1.1/DTD/svg11-tiny.dtd">
<svg baseProfile="tiny" height="32" version="1.1" viewBox="-1 -1 38 32" width="38" xmlns="http://www.w3.org/2000/svg" xmlns:xlink="http://www.w3.org/1999/xlink">
<g>
<rect fill="none" height="32" width="38" x="-1" y="-1"/>
<g>
<path d="M18.006,5.785c1.388,0,2.518,0.319,3.389,0.962c0.871,0.641,1.479,1.589,1.827,2.844c0.347,1.255,0.521,3.061,0.521,5.415    c0,2.38-0.188,4.205-0.558,5.476c-0.372,1.271-0.981,2.211-1.833,2.819c-0.853,0.609-1.967,0.914-3.347,0.914    c-1.388,0-2.511-0.313-3.37-0.938c-0.858-0.625-1.47-1.564-1.833-2.819c-0.362-1.254-0.545-3.071-0.545-5.451    c0-2.355,0.174-4.161,0.521-5.415c0.347-1.255,0.957-2.203,1.833-2.844C15.486,6.104,16.618,5.785,18.006,5.785z M18.006,21.854    c0.992,0,1.635-0.445,1.924-1.338c0.291-0.891,0.437-2.729,0.437-5.512c0-2.791-0.146-4.633-0.437-5.523    c-0.289-0.892-0.932-1.337-1.924-1.337s-1.636,0.445-1.93,1.337c-0.295,0.892-0.442,2.732-0.442,5.523    c0,2.783,0.147,4.621,0.442,5.512C16.37,21.409,17.014,21.854,18.006,21.854z"/>
<g>
<path d="M31.167,3.398c0.83,0,1.522-0.372,1.522-0.881s-0.692-0.924-1.522-0.924c-0.877,0-1.525,0.415-1.525,0.924     S30.29,3.398,31.167,3.398z"/>
<path d="M33.938,2.195c-0.09-0.093-0.09,0-0.229,0c0,0,0,0.186,0.14,0.186c1.387,1.433,1.2,3.789-1.757,4.896     c-1.71-0.507-1.617-2.54,0.095-2.725c0.137,0,0.137,0,0.137-0.14c0-0.093,0-0.185-0.137-0.185     c-1.526-0.509-4.668,0.507-4.159,2.956c-2.448-1.016-2.218-3.786,0.321-5.081c0.094-0.095,0.094-0.095,0-0.232     c0-0.092-0.091-0.092-0.091-0.092c-2.032,0.602-3.465,1.848-3.465,3.278c0,2.035,2.541,3.651,5.776,3.651     c3.279,0,5.91-1.616,5.91-3.651C36.479,3.813,35.371,2.703,33.938,2.195z"/>
</g>
</g>
</g>
</svg>
