<?xml version="1.0" encoding="UTF-8"?>
<!DOCTYPE svg PUBLIC "-//W3C//DTD SVG 1.1 Tiny//EN" "http://www.w3.org/Graphics/SVG/1.1/DTD/svg11-tiny.dtd">
<svg width="44" height="44.001" viewBox="0 0 44 44.001">
<linearGradient id="_2" gradientUnits="userSpaceOnUse" x1="16.13" y1="4.11" x2="28.18" y2="34.93">
<stop stop-color="#FFFFFF" offset="0"/>
<stop stop-color="#E0EAF3" offset="0.11"/>
<stop stop-color="#A2C2DD" offset="0.35"/>
<stop stop-color="#8CA9CF" offset="0.48"/>
<stop stop-color="#6C83BB" offset="0.7"/>
<stop stop-color="#637DB5" offset="0.75"/>
<stop stop-color="#4C6EA4" offset="0.82"/>
<stop stop-color="#265689" offset="0.91"/>
<stop stop-color="#003D6D" offset="0.99"/>
</linearGradient>
<path d="M34.021,20.552L33.201,7.488l-11.58,2.463L9.98,26.402l1.516,6.15l5.225,4.574h6.5L34.021,20.552z M28.124,10.664c0.09,1.759,1.915,3.238,3.571,2.807c0.016-0.004,0.027-0.022,0.041-0.024l0.215,5.652l-4.094,0.499l-4.095-3.182 l-1.048-4.343C22.715,12.073,28.123,10.646,28.124,10.664z M25.364,20.919l-8.827,13.343l-2.672-1.954l9.228-13.202L25.364,20.919z M20.996,14.201l0.867,3.325l-8.893,12.852l-0.901-3.476L20.996,14.201z M21.577,35.177l-3.231-0.049l8.895-13.231l3.574-0.393 L21.577,35.177z" fill="url(#_2)"/>
</svg>