<?xml version="1.0" encoding="utf-8"?>
<!DOCTYPE svg PUBLIC "-//W3C//DTD SVG 1.1 Tiny//EN" "http://www.w3.org/Graphics/SVG/1.1/DTD/svg11-tiny.dtd">
<svg width="60" height="80" viewBox="0 0 60 80">
<linearGradient id="_310" gradientUnits="userSpaceOnUse" x1="20.69" y1="30.75" x2="38.19" y2="51.79">
<stop stop-color="#DEE9F3" offset="0"/>
<stop stop-color="#235487" offset="1"/>
</linearGradient>
<circle fill="url(#_310)" cx="29.527" cy="41.367" r="23.417"/>
<radialGradient id="_311" gradientUnits="userSpaceOnUse" cx="34.05" cy="26.71" r="42.04">
<stop stop-color="#FFFFFF" offset="0"/>
<stop stop-color="#A2C2DD" offset="0.53"/>
<stop stop-color="#6C83BB" offset="0.87"/>
<stop stop-color="#003D6D" offset="1"/>
</radialGradient>
<circle fill="url(#_311)" cx="29.567" cy="41.367" r="22.725"/>
<radialGradient id="_312" gradientUnits="userSpaceOnUse" cx="34.36" cy="29.04" r="28.6">
<stop stop-color="#E6EEF4" offset="0"/>
<stop stop-color="#C6DCC1" offset="0.08"/>
<stop stop-color="#91C06F" offset="0.21"/>
<stop stop-color="#6BAB33" offset="0.32"/>
<stop stop-color="#539E0E" offset="0.4"/>
<stop stop-color="#4A9900" offset="0.44"/>
<stop stop-color="#398419" offset="0.55"/>
<stop stop-color="#22663B" offset="0.71"/>
<stop stop-color="#135550" offset="0.85"/>
<stop stop-color="#0E4E58" offset="0.94"/>
</radialGradient>
<path fill="url(#_312)" d="M14.446,47.523c-0.262-0.043-1.15-0.186-1.573-0.043c-0.262,0.086,0.743,0.393,1.093,0.393C14.316,47.873,14.708,47.566,14.446,47.523z M10.513,44.814c0,0,0,0.35-0.306-0.088s-1.22-2.42-1.705-3.146c-0.262-0.393-0.13,0.48-0.13,0.48c0.479,1.006,0.523,1.836,1.005,2.578c0.48,0.743,0.961,1.66,0.961,1.66v0.395c0.786,0.787,2.534,0.787,2.534,0.787c-1.528-1.006-2.359-1.094-2.359-1.094V44.814z M27.644,53.686c-0.466-0.699-1.573-1.397-2.098-1.631l-0.816-1.865c0,0-0.35-0.059-0.583-0.174c-0.231-0.117-0.407-0.99-0.407-0.99s-0.874,0.058-0.524,0.406c0.35,0.35-0.335,2.069-0.335,2.069s-0.567-0.423-1.268-0.597c-0.681-0.172-0.62-0.26-0.524-0.935c0.117-0.814-0.175-0.786-1.005-0.786c-0.888,0-1.748,0.264-1.879,1.181c-0.034,0.237-0.466-0.511-0.932-0.395l-1.253,0.919c0,0,0.098,1.225-0.176,1.121c-0.655-0.248-1.879,0.451-1.879,0.451c0.642,1.748,2.534,4.545,2.534,4.545s1.574,0,2.229-0.35c0.658-0.352,2.753-0.131,2.753-0.131c3.089,2.447,6.162,1.879,6.162,1.879c0.044-0.787,1.34-1.864,1.281-2.797C28.868,54.677,28.167,54.15,27.644,53.686z M11.728,36.737c0.286-0.402,0.365-0.975,0.365-0.975s-0.319-0.033-0.412,0.034c-0.092,0.069,0.031,0.194-0.099,0.413C11.351,36.604,11.531,37.017,11.728,36.737z M11.388,45.339c0,0,1.878,0.961,1.703,0.088c-0.166-0.832,1.14-1.606,0.524-2.098c-0.218-0.175-0.175-0.481-0.043-0.656c0.43-0.573-0.166-1.412-0.481-1.005c-1.047,1.354-2.054,1.748-2.054,1.748L11.388,45.339z M14.403,37.953l0.448,1.807l0.33,0.961l0.401-0.669c0.076-0.292-0.883-0.934-0.656-1.573c0.228-0.642,0.908-0.933,0.228-1.632C14.472,36.147,14.971,37.124,14.403,37.953z M36.995,57.348c-0.606,0.012-0.25,0.4-0.233,0.745c0.036,0.741,1.354-0.026,0.821-0.077C37.05,57.964,37.604,57.335,36.995,57.348z M35.143,59.114l-1.488,0.521c-0.396,0.44,1.059,0.271,1.719-0.219c0.598-0.444,1.121-0.826,1.121-0.826l-0.764-0.354L35.143,59.114z M26.187,58.959c1.111,1.675,1.334,0.475,1.186,0.098C27.224,58.676,26.187,58.959,26.187,58.959z M24.541,20.474c-1.092,0.087-3.758,0.044-3.758,0.044c-0.124,0.016-0.247,0.035-0.37,0.054c-0.119,0.052-0.236,0.104-0.353,0.16c-0.214,0.099-0.426,0.2-0.636,0.305c-0.168,0.084-0.336,0.169-0.501,0.257c-0.223,0.119-0.443,0.243-0.662,0.369c-0.143,0.082-0.287,0.161-0.428,0.246c-0.338,0.205-0.671,0.417-0.997,0.638c-0.123,0.083-0.242,0.172-0.363,0.258c-0.22,0.155-0.438,0.312-0.652,0.475c-0.139,0.104-0.275,0.215-0.412,0.324c-0.194,0.155-0.386,0.313-0.575,0.474c-0.131,0.111-0.262,0.223-0.39,0.337c-0.207,0.185-0.409,0.375-0.609,0.567c-0.1,0.096-0.202,0.188-0.3,0.286c-0.284,0.283-0.561,0.573-0.83,0.871c-0.091,0.101-0.178,0.206-0.268,0.309c-0.185,0.213-0.369,0.427-0.546,0.646c-0.102,0.127-0.202,0.255-0.302,0.384c-0.162,0.209-0.32,0.422-0.475,0.637c-0.092,0.128-0.185,0.256-0.274,0.387c-0.176,0.255-0.344,0.514-0.509,0.776c-0.058,0.092-0.119,0.181-0.176,0.274c-0.214,0.351-0.417,0.708-0.613,1.07c-0.061,0.112-0.116,0.228-0.174,0.341C9.232,31.225,9.1,31.491,8.974,31.76c-0.064,0.138-0.126,0.277-0.188,0.417c-0.116,0.262-0.227,0.526-0.333,0.792C8.4,33.102,8.346,33.235,8.295,33.37c-0.126,0.336-0.245,0.677-0.355,1.021c-0.021,0.063-0.043,0.124-0.063,0.187c-0.127,0.409-0.243,0.823-0.348,1.241c-0.029,0.112-0.053,0.227-0.08,0.341c-0.073,0.312-0.141,0.626-0.201,0.942c-0.012,0.062-0.021,0.123-0.033,0.185c0.417-0.523,1.003-1.251,1.244-1.519c0.393-0.437,0.219,1.748,0.219,1.748l0.218-0.043l0.044,3.714c0,1.049,0.655,2.578,0.874,2.271c-0.131-0.395-0.044-1.792-0.044-1.792c-0.524-0.438-0.218-0.438-0.611-1.354c-0.394-0.918,0.437-1.835,0.437-1.312c0,0.524,0.044,1.093,0.568,1.793c1.88-2.448,1.049-3.365,0.481-3.715c0.043-1.049,0.961-1.398,0.961-1.398h0.655l1.354-0.612c1.457-0.583,1.617-1.792,1.617-1.792c2.01-0.437,0.815-3.233,0.815-3.233l0.758-0.088l0.48-0.479l-1.223-0.132l1.441-1.005c0,0-0.263,0.35-0.131,0.611c0.131,0.263,0.742-0.394,0.742-0.394l-0.131,0.831l0.438,0.131c-0.263,0.307-0.307,1.049-0.307,1.049c0.568-0.263,1.093-0.699,1.093-0.699c0.132-0.742-0.394-1.18-0.394-1.18c0.569-0.088,1.093-0.524,1.53-1.137c2.272,0.35,4.151-3.321,4.151-3.321l-0.263,1.967c1.354-0.495,0.612-2.083,0.612-2.083l-1.792-0.146l2.272-1.136c3.146,0.218,3.496-0.699,3.496-0.699c0.306,0.058,1.65-0.145,1.005,0.35c-0.773,0.592-0.531,0.189-1.268,1.005l0.088,1.224c0,0,1.132-0.491,2.157-1.516c0.131-0.132-0.43-0.596-0.291-0.729c0.166-0.16,0.383,0.059,0.494-0.072c0.715-0.136,0.826-0.166,0.836-0.173c0.088,0.025,1.242,0.339,1.83-0.964c1.484-0.262,0.742-0.83-2.143-0.786l-3.189,0.044l-1.591-0.272c-0.025,0-0.05,0.001-0.075,0.002C26.47,20.275,25.607,20.388,24.541,20.474z M44.841,24.545c-0.411-0.375-0.843-0.73-1.282-1.074c-0.095-0.074-0.188-0.15-0.283-0.222c-0.436-0.33-0.885-0.642-1.344-0.94c-0.106-0.07-0.216-0.14-0.324-0.208c-0.465-0.291-0.938-0.566-1.426-0.823c-0.107-0.057-0.219-0.112-0.326-0.167c-0.5-0.254-1.008-0.493-1.525-0.711c-0.035-0.014-0.07-0.027-0.105-0.041l-1.49,0.029l-0.918-0.481c0,0,0.225-0.086,0.599-0.208c-0.024-0.008-0.05-0.018-0.075-0.025c-0.438-0.136-0.882-0.255-1.328-0.365c-0.174-0.042-0.349-0.082-0.521-0.121c-0.365-0.081-0.733-0.152-1.105-0.215c-0.168-0.028-0.336-0.058-0.506-0.083c-0.415-0.061-0.834-0.108-1.256-0.146c-0.191-0.017-0.383-0.031-0.575-0.043c-0.392-0.025-0.786-0.041-1.184-0.046c-0.098-0.001-0.196-0.007-0.294-0.007c-3.084,0-6.023,0.617-8.704,1.73l3.284-0.383l1.006,0.306c0.519-0.02,1.028-0.037,1.524-0.052c0.031-0.004,0.049-0.007,0.049-0.007l0.026,0.005c4.616-0.136,8.146-0.077,8.146-0.077l0.461,0.764l0.807,0.328l-0.088,0.306c0,0,1.02,0.789,2.506,0.642c0.705-0.069-0.32,0.714-0.32,0.714l0.48,0.219c0,0,0.48-0.176,1.006-1.005l1.525,0.141c1.184,0.864,2.656,1.62,3.412,2.175c0.061,0.045,0.123,0.085,0.187,0.124C44.861,24.564,44.852,24.555,44.841,24.545z M14.446,47.961l0.394,0.35l0.044-0.438c0,0,0.743,0.088,0.917-0.218l-1.135-0.044L14.446,47.961z M16.353,40.518c-0.454,0.116-1.06,0.584-1.06,0.584c0.529,0.174-0.146,0.709,0.529,0.873c0.721,0.176,0.352-0.029,0.503-0.611C16.476,40.78,16.807,40.4,16.353,40.518z M16.03,48.121c0.075,0.408-0.499,0.68,0.454,0.029c1.108-0.758,0.154-0.567,0.154-0.567C16.109,47.641,15.954,47.714,16.03,48.121z M15.539,34.064c0,0-0.743,0.35-0.523,1.049C15.583,35.2,15.495,34.632,15.539,34.064z M14.029,45.959c0,0,0.168,0.139,0.417,0.298c0.135,0.086,0.051-0.647,0.22-0.567c0.262,0.654,0.877,0.787,1.166,0.742c-0.643-0.611-0.958-1.164-0.319-1.515c0.916-0.501-1.171-0.408-1.277-0.176C14.127,44.975,14.029,45.959,14.029,45.959z M15.277,44.378c0,0,0.782-0.364,0.328-0.452c-0.454-0.087-1.29,0.104-1.29,0.104L15.277,44.378z M16.959,43.563c-0.038,0.203-0.109,1.033-0.109,1.033c0.303-0.203,0.601-0.363,0.639-0.566c0.037-0.204-0.303-0.293,0-0.612C17.792,43.098,16.998,43.357,16.959,43.563z M24.367,27.422c0.48-0.175,0.655-0.743-0.132-0.83c0,0-0.438,0.568-0.961,0.83C22.75,27.685,23.885,27.597,24.367,27.422z M17.069,45.602c-0.23,0.414,1.576,0.52,1.188,0.188C17.878,45.47,17.182,45.396,17.069,45.602z M21.887,29.622c-0.489,0.046-0.579,0.454-0.579,0.454l-0.936-0.046l-1.247,0.906l-0.134,0.681l0.4-0.137l0.669-0.68l0.979-0.045l0.045-0.454c0,0,0.566-0.216,0.834-0.17c0.268,0.045,0.936-0.228,1.158-0.681c0.222-0.453,0.401-0.544,0.534-0.771c0.134-0.227-0.12-1.008-0.298-0.555C23.135,28.579,22.378,29.577,21.887,29.622z M27.731,46.229c0,0-0.303,0.291-0.605,0.407c-0.302,0.116-1.21,0.116-1.21,0.116s0.832,0.407,1.21,0.175C27.504,46.693,27.731,46.229,27.731,46.229z M18.205,44.9l0.742,0.555c0,0,0.228,0.643,0.605,0.816c0.377,0.174,1.458,0.291,1.911,0.231c0,0-0.272,0.962,0.106,1.369c0,0,0.726-0.32,0.953,0.088c0.227,0.407,1.101,0.394,1.632-0.088c0.26-0.233,0.795-0.378,1.173,0.263s0.789,0.524,1.772,0.467c0,0-2.041-1.099-1.598-1.209c0.874-0.219-0.612-0.744-0.612-0.744l-0.131-0.437c0,0-1.162-0.044-1.162-0.276s-2.823-1.02-2.898-0.729c-0.076,0.291-0.454,1.049-0.908,0.175S18.886,44.262,18.205,44.9z"/>
</svg>