<?xml version="1.0" encoding="UTF-8"?>
<!DOCTYPE svg PUBLIC "-//W3C//DTD SVG 1.1 Tiny//EN" "http://www.w3.org/Graphics/SVG/1.1/DTD/svg11-tiny.dtd">
<svg width="84" height="72" viewBox="0 0 84 72">
<linearGradient id="_12" gradientUnits="userSpaceOnUse" x1="50.28" y1="36.22" x2="63.12" y2="61.52">
<stop stop-color="#AABBD7" offset="0"/>
<stop stop-color="#92A5CC" offset="0.26"/>
<stop stop-color="#6C83BB" offset="0.71"/>
<stop stop-color="#637DB5" offset="0.76"/>
<stop stop-color="#4C6EA4" offset="0.83"/>
<stop stop-color="#265689" offset="0.91"/>
<stop stop-color="#003D6D" offset="0.99"/>
</linearGradient>
<path d="M35.834,11.554c0,0-2.867,9.746-3.059,10.39c-0.646-0.111-7.797-1.337-7.797-1.337l-6.807,2.482 l6.352,27.369l37.76,11.296L75.564,21.05c0,0-17.146-2.582-17.826-2.687c0.021-0.628,0.209-5.519,0.209-5.519l-17.799-2.608 L35.834,11.554z" fill="url(#_12)"/>
<linearGradient id="_13" gradientUnits="userSpaceOnUse" x1="25.05" y1="36.45" x2="71.23" y2="36.45">
<stop stop-color="#FFFFFF" offset="0"/>
<stop stop-color="#F4F8FB" offset="0.19"/>
<stop stop-color="#D6E4F0" offset="0.52"/>
<stop stop-color="#A7C5DF" offset="0.96"/>
<stop stop-color="#A2C2DD" offset="1"/>
</linearGradient>
<polygon fill="url(#_13)" points="25.047,49.873 36.199,12.004 54.34,14.913 54.209,20.531 71.227,23.386 61.953,60.903 "/>
<linearGradient id="_14" gradientUnits="userSpaceOnUse" x1="50.57" y1="49.06" x2="16.85" y2="20.51">
<stop stop-color="#BFD5E8" offset="0"/>
<stop stop-color="#B4CEE4" offset="0.47"/>
<stop stop-color="#A2C2DD" offset="1"/>
</linearGradient>
<polygon fill="url(#_14)" points="61.957,60.548 24.865,49.854 18.75,23.431 55.674,30.832 "/>
<linearGradient id="_15" gradientUnits="userSpaceOnUse" x1="36.66" y1="32.77" x2="42.74" y2="20.62">
<stop stop-color="#FFFFFF" offset="0"/>
<stop stop-color="#F9FBFD" offset="0.18"/>
<stop stop-color="#E8F0F7" offset="0.41"/>
<stop stop-color="#CCDDEC" offset="0.68"/>
<stop stop-color="#A5C4DE" offset="0.98"/>
<stop stop-color="#A2C2DD" offset="1"/>
</linearGradient>
<polygon fill="url(#_15)" points="61.918,27.431 25.098,21.112 18.75,23.431 55.77,30.974 "/>
<linearGradient id="_16" gradientUnits="userSpaceOnUse" x1="45.91" y1="15.25" x2="48.05" y2="9.45">
<stop stop-color="#FFFFFF" offset="0"/>
<stop stop-color="#E6EEF6" offset="0.31"/>
<stop stop-color="#A5C4DE" offset="0.97"/>
<stop stop-color="#A2C2DD" offset="1"/>
</linearGradient>
<polygon fill="url(#_16)" points="57.486,13.317 40.203,10.783 36.234,12.021 54.34,14.913 "/>
<linearGradient id="_17" gradientUnits="userSpaceOnUse" x1="63.59" y1="23.64" x2="65.78" y2="17.7">
<stop stop-color="#FFFFFF" offset="0"/>
<stop stop-color="#E6EEF6" offset="0.31"/>
<stop stop-color="#A5C4DE" offset="0.97"/>
<stop stop-color="#A2C2DD" offset="1"/>
</linearGradient>
<polygon fill="url(#_17)" points="74.92,21.472 57.275,18.808 54.209,20.531 71.227,23.386 "/>
<linearGradient id="_18" gradientUnits="userSpaceOnUse" x1="71.03" y1="41.16" x2="56.14" y2="46.32">
<stop stop-color="#A2C2DD" offset="0"/>
<stop stop-color="#8CA9CF" offset="0.26"/>
<stop stop-color="#6C83BB" offset="0.67"/>
<stop stop-color="#637DB5" offset="0.72"/>
<stop stop-color="#4C6EA4" offset="0.79"/>
<stop stop-color="#265689" offset="0.88"/>
<stop stop-color="#003D6D" offset="0.96"/>
</linearGradient>
<polygon fill="url(#_18)" points="61.918,27.431 61.959,61.188 55.676,31.024 "/>
<linearGradient id="_19" gradientUnits="userSpaceOnUse" x1="52.89" y1="26.37" x2="72.79" y2="45.36">
<stop stop-color="#A2C2DD" offset="0"/>
<stop stop-color="#8CA9CF" offset="0.26"/>
<stop stop-color="#6C83BB" offset="0.67"/>
<stop stop-color="#637DB5" offset="0.72"/>
<stop stop-color="#4C6EA4" offset="0.79"/>
<stop stop-color="#265689" offset="0.88"/>
<stop stop-color="#003D6D" offset="0.96"/>
</linearGradient>
<polygon fill="url(#_19)" points="74.92,21.472 61.971,60.959 71.227,23.386 "/>
<linearGradient id="_20" gradientUnits="userSpaceOnUse" x1="33.58" y1="5.17" x2="77.29" y2="28.24">
<stop stop-color="#FFFFFF" offset="0"/>
<stop stop-color="#E4EDF5" offset="0.1"/>
<stop stop-color="#B4CEE4" offset="0.28"/>
<stop stop-color="#A2C2DD" offset="0.38"/>
<stop stop-color="#8CA9CF" offset="0.5"/>
<stop stop-color="#6C83BB" offset="0.71"/>
<stop stop-color="#637DB5" offset="0.76"/>
<stop stop-color="#4C6EA4" offset="0.83"/>
<stop stop-color="#265689" offset="0.91"/>
<stop stop-color="#003D6D" offset="0.99"/>
</linearGradient>
<polygon fill="url(#_20)" points="54.34,14.913 54.209,20.531 57.275,18.808 57.486,13.317 "/>
<linearGradient id="_21" gradientUnits="userSpaceOnUse" x1="17.11" y1="58.55" x2="51.89" y2="41.23">
<stop stop-color="#FFFFFF" offset="0"/>
<stop stop-color="#F4F8FB" offset="0.19"/>
<stop stop-color="#D6E4F0" offset="0.52"/>
<stop stop-color="#A7C5DF" offset="0.96"/>
<stop stop-color="#A2C2DD" offset="1"/>
</linearGradient>
<polygon fill="url(#_21)" points="25.047,49.873 32.029,26.146 55.727,31.017 61.959,61.188 "/>
<radialGradient id="_22" gradientUnits="userSpaceOnUse" cx="15.41" cy="46.6" r="22.04">
<stop stop-color="#DCE8E4" offset="0"/>
<stop stop-color="#43910A" offset="1"/>
</radialGradient>
<path d="M18.672,42.451c-5.336,0-9.654,4.322-9.654,9.655c0,0.669,0.068,1.326,0.199,1.96 c0,0,1.51,0.32,1.92,0.442c-0.533,1.002-0.438,2.401-0.133,3.174c0.965,2.47,3.639,4.08,7.668,4.08 c5.332,0,9.656-4.324,9.656-9.655C28.328,46.773,24.004,42.451,18.672,42.451z" fill="url(#_22)"/>
<circle cx="15.41" cy="50.965" fill="#17594C" r="1.525"/>
<path d="M10.609,50.265c-0.195,0.823-0.893,1.39-1.564,1.267c-0.104-0.565,0.279-2.345,0.699-2.987 C10.414,48.669,10.801,49.436,10.609,50.265z" fill="#17594C"/>
<path d="M9.205,54.066l1.832,0.375c0,0-1.166,3.538,1.238,4.509c4.875,1.97,10.428-3.117,10.428-3.117 L9.205,54.066z" fill="#17594C"/>
</svg>