<?xml version="1.0" encoding="UTF-8"?>
<!DOCTYPE svg PUBLIC "-//W3C//DTD SVG 1.1 Tiny//EN" "http://www.w3.org/Graphics/SVG/1.1/DTD/svg11-tiny.dtd">
<svg width="352" height="200" viewBox="-0.603 0.385 352 200">
<path fill-opacity="0.01" fill="#656B6B" d="M22.397,0.386h-1c0,0,0,8.623,0,10.111 c-5.224,0.271-10.105,2.356-13.817,6.064c-3.985,3.984-6.183,9.284-6.183,14.924v141.774c0,10.876,8.875,21.125,20.847,21.125 c0.653,0,302.047,0,302.047,0c13.844,0,25.105-11.267,25.105-25.114V31.485c0-5.639-2.197-10.939-6.189-14.926 c-3.994-3.988-9.299-6.182-14.941-6.174H42.423l-10.076-10L22.397,0.386L22.397,0.386z"/>
<path fill-opacity="0.02" fill="#656B6B" d="M22.397,1.386c0,0,0,8.404,0,10.01 c-5.33,0.029-10.339,2.105-14.11,5.873c-3.798,3.795-5.89,8.844-5.89,14.217V173.26c0,10.75,8.875,20.125,19.897,20.125 c3.228,0,301.996,0,301.996,0c13.293,0,24.105-10.818,24.105-24.115V31.485c0-5.371-2.095-10.42-5.896-14.219 c-3.805-3.799-8.859-5.888-14.232-5.881H42.012l-10.077-10L22.397,1.386L22.397,1.386z"/>
<path fill-opacity="0.03" fill="#656B6B" d="M23.397,2.386c0,0,0,8.348,0,10c-0.445,0-0.894,0-0.894,0 c-5.104,0-9.901,1.985-13.511,5.59c-3.608,3.607-5.597,8.404-5.597,13.51V173.26c0,10.125,8.25,19.125,18.949,19.125 c0.551,0,301.944,0,301.944,0c12.74,0,23.104-10.369,23.104-23.115V31.485c0-5.104-1.989-9.902-5.604-13.511 c-3.615-3.61-8.418-5.595-13.523-5.589H41.599l-10.077-10L23.397,2.386L23.397,2.386z"/>
<path fill-opacity="0.06" fill="#656B6B" d="M24.397,3.386c0,0,0,8.319,0,10c-0.856,0-1.894,0-1.894,0 c-4.838,0-9.385,1.881-12.804,5.298c-3.42,3.417-5.304,7.964-5.304,12.802V173.26c0,9.33,7.5,18.125,18.125,18.121 c0.625,0,301.769,0.004,301.769,0.004c12.188,0,22.104-9.921,22.104-22.115V31.485c0-4.836-1.885-9.383-5.311-12.803 c-3.426-3.422-7.977-5.303-12.816-5.297H41.186l-10.039-10L24.397,3.386L24.397,3.386z"/>
<path fill-opacity="0.05" fill="#656B6B" d="M328.271,14.386h-287.5l-10-10h-5.375v10h-2.77 c-9.447,0-17.23,7.647-17.23,17.1L5.398,173.26c0,8.859,7.373,17.125,17.123,17.125h300.774h0.994 c11.639,0,21.104-9.473,21.104-21.115V31.485C345.396,22.033,337.719,14.374,328.271,14.386z"/>
<path fill-opacity="0.1" fill="#656B6B" d="M327.646,15.386H40.397l-10-10h-4v10h-3.77 c-9.447,0-16.23,6.647-16.23,16.1L6.398,172.26c-0.001,9.125,6.499,17.125,17.078,17.123l300.814,0.002 c11.086,0,20.105-9.023,20.105-20.115V31.485C344.396,22.033,336.646,15.386,327.646,15.386z"/>
<path fill-opacity="0.1" fill="#656B6B" d="M326.646,16.386H40.022l-10-10h-2.625v10h-4.77 c-9.447,0-15.23,5.647-15.23,15.1L7.398,171.26c-0.001,9,5.124,17.125,17.105,17.125c0.519,0,299.787,0,299.787,0 c10.535,0,19.105-8.574,19.105-19.115V31.485C343.396,22.033,335.646,16.386,326.646,16.386z"/>
<path fill-opacity="0.1" fill="#656B6B" d="M325.771,17.386H39.522l-10-10h-1.125v10h-4.75 c-9.448,0-15.25,4.647-15.25,14.1L8.398,170.27c-0.001,8.865,3.874,17.115,17.124,17.115h298.769 c9.984,0,18.105-8.127,18.105-18.115V31.485C342.396,22.033,334.396,17.386,325.771,17.386z"/>
<linearGradient id="_12" gradientUnits="userSpaceOnUse" x1="173.4" y1="165.94" x2="173.4" y2="45.39">
<stop stop-color="#D9F4E0" offset="0"/>
<stop stop-color="#FFFFFF" offset="1"/>
</linearGradient>
<path fill="url(#_12)" d="M324.291,14.386H39.397l-12.001-12h-1.999v12h-2.895c-9.447,0-17.105,7.647-17.105,17.1V169.27 c0,9.451,7.658,17.115,17.105,17.115h301.788c9.447,0,17.105-7.664,17.105-17.115V31.485 C341.396,22.033,333.738,14.374,324.291,14.386z"/>
</svg>