<?xml version="1.0" encoding="UTF-8"?>
<!DOCTYPE svg PUBLIC "-//W3C//DTD SVG 1.1 Tiny//EN" "http://www.w3.org/Graphics/SVG/1.1/DTD/svg11-tiny.dtd">
<svg baseProfile="tiny" height="32" version="1.1" viewBox="0 0 38 32" width="38" xmlns="http://www.w3.org/2000/svg" xmlns:xlink="http://www.w3.org/1999/xlink">
<g>
<g>
<rect height="1.994" width="3.301" x="10.711" y="13.817"/>
<rect height="1.991" width="3.301" x="10.711" y="17.807"/>
<rect height="1.994" width="3.301" x="10.711" y="21.792"/>
<path d="M25.762,15.369c-0.309-0.464-0.676-0.747-0.926-0.937c-0.713-0.544-3.592-1.113-6.57,1.865    c-1.805,1.811-2.314,3.574-2.314,4.84c0,0.818,0.213,1.428,0.424,1.704c0.221,0.286,0.494,0.646,0.963,0.955    c0.139,0.093,0.377,0.175,0.635,0.22l0.059,0.006c0.469-0.03,0.984-0.393,1.674-1.168c0.227-0.256,0.967-1.143,0.967-1.763    c0,0-0.002-0.073-0.004-0.092c-0.006-0.017-0.012-0.032-0.012-0.032c-0.006-0.021-0.088-0.248-0.441-0.531    c-0.221-0.174-0.549-0.297-0.977-0.367l-0.199-0.033v-0.203c0.008-1.025,1.734-2.751,2.754-2.757H22l0.033,0.202    c0.068,0.426,0.191,0.752,0.367,0.976c0.26,0.328,0.479,0.425,0.59,0.457c0.414,0.039,1.098-0.323,1.824-0.967    c0.778-0.688,1.139-1.206,1.17-1.681c0,0,0-0.015,0.002-0.029c-0.002-0.015-0.004-0.026-0.004-0.026    C25.955,15.856,25.883,15.552,25.762,15.369z"/>
<g>
<path d="M20.816,8.901l-2.282,2.365c-0.209-2-0.911-4.637-3.065-6.338c-1.702-1.341-3.94-2.017-7.116-1.574v1.878     c2.777-0.433,4.625,0.125,5.955,1.17c1.29,1.017,2.115,2.805,2.358,5.007L14.189,9.01l-1.426,1.475l4.842,4.686l4.687-4.84     L20.816,8.901z"/>
</g>
<g>
<path d="M22.586,8.845l2,1.993c1.77,0,2.448,0,3.068,0c0,1.635,0,14.313,0,15.949c-1.58,0-11.631,0-14.297,0v-1.316h-1.994v3.301     l18.286,0.01V8.845H22.586z"/>
</g>
</g>
<rect fill="none" height="32" width="38"/>
</g>
</svg>
