<?xml version="1.0" encoding="UTF-8"?>
<!DOCTYPE svg PUBLIC "-//W3C//DTD SVG 1.1 Tiny//EN" "http://www.w3.org/Graphics/SVG/1.1/DTD/svg11-tiny.dtd">
<svg baseProfile="tiny" height="32" version="1.1" viewBox="0 0 44 32" width="44" xmlns="http://www.w3.org/2000/svg" xmlns:xlink="http://www.w3.org/1999/xlink">
<g>
<g>
<path d="M10.739,22.305H7.28v2.303h9.917v-2.303h-3.246V7.726H11.02c-1.16,1.61-2.412,2.544-3.751,2.797v2.17    c1.16,0,2.316-0.412,3.47-1.236V22.305z"/>
<path d="M34.387,18.139c-1.726,0-3.13,1.4-3.13,3.125c0,0.699,0.24,1.338,0.626,1.859h-3.387c0.389-0.521,0.627-1.16,0.627-1.859    c0-1.727-1.408-3.125-3.129-3.125c-1.727,0-3.127,1.4-3.127,3.125c0,1.727,1.4,3.131,3.127,3.131c0.064,0,8.308,0,8.395,0    c1.725,0,3.127-1.404,3.127-3.131C37.516,19.539,36.113,18.139,34.387,18.139z M25.992,23.12c-1.026,0-1.86-0.831-1.86-1.856    s0.834-1.857,1.86-1.857c1.021,0,1.857,0.832,1.857,1.857C27.852,22.289,27.018,23.12,25.992,23.12z M34.387,23.12    c-1.027,0-1.859-0.831-1.859-1.856s0.832-1.857,1.859-1.857c1.024,0,1.858,0.832,1.858,1.857S35.411,23.12,34.387,23.12z"/>
</g>
<g>
<rect fill="none" height="32" width="44"/>
</g>
</g>
</svg>
