<?xml version="1.0" encoding="UTF-8"?>
<!DOCTYPE svg PUBLIC "-//W3C//DTD SVG 1.1 Tiny//EN" "http://www.w3.org/Graphics/SVG/1.1/DTD/svg11-tiny.dtd">
<svg width="100%" height="100%" viewBox="0 0 88 88">
<linearGradient id="_20" gradientUnits="userSpaceOnUse" x1="44.27" y1="43.92" x2="60.44" y2="75.77">
<stop stop-color="#A2C2DD" offset="0.1"/>
<stop stop-color="#6C83BB" offset="0.71"/>
<stop stop-color="#003D6D" offset="0.99"/>
</linearGradient>
<path fill="url(#_20)" d="M25.388,19.715l-3.034,1.232l-2.596,0.574c0,0,0.016,0.64,0.017,0.666 C-6.955,35.706,8.711,52.372,15.26,55.457l-0.648-4.939c0,0-0.832-0.962-1.007-1.165c-0.819-3.377-0.406-8.149,6.529-12.587 l0.414,16.472l16.476,4.372l9.916-5.402c1.237,0.928,2.6,1.59,4.019,2.059L38.19,62.384l0.533,5.016l23.303,7.32 c0,0-0.21-4.648-0.246-5.45c24.515-9.98,27.015-35.146,5.155-42.318c0,0-0.626-0.193-0.892,0.322s0.262,0.918,0.262,0.918 c14.331,9.43,7.455,21.354-6.223,26.332c-0.019-0.351-0.024-0.474-0.037-0.705c4.23-2.314,10.198-5.626,10.198-13.919 c0-6.553-5.762-16.141-17.016-13.601l0.147-7.174l-13.453-1.286l-14.922-4.415L25.388,19.715z"/>
<linearGradient id="_21" gradientUnits="userSpaceOnUse" x1="11.65" y1="60.08" x2="21.98" y2="29.41">
<stop stop-color="#E6EEF4" offset="0"/>
<stop stop-color="#4A9900" offset="0.44"/>
<stop stop-color="#0E4E58" offset="0.94"/>
</linearGradient>
<path fill="url(#_21)" d="M13.54,51.496c-4.582-11.451,8.133-16.883,14.803-19.483c-0.837-2.028-0.554-2.302-1.391-4.331 C12.06,33.482,6.555,41.964,13.54,51.496"/>
<polygon fill="#3366CC" points="47.313,20.75 46.744,24.537 27.791,37.748 27.202,33.463 "/>
<path fill="#17594C" d="M13.944,50.816c0,0-8.965-8.166-8.589-11.968c-0.322,5.515,3.895,12.864,9.04,15.401L13.944,50.816z"/>
<linearGradient id="_22" gradientUnits="userSpaceOnUse" x1="14.67" y1="63.23" x2="25.43" y2="31.76">
<stop stop-color="#DCE8E4" offset="0"/>
<stop stop-color="#43910A" offset="1"/>
</linearGradient>
<path fill="url(#_22)" d="M13.944,50.816c-17.799-10.104-5.503-24.15,12.173-30.643l-0.356-5.795l21.535,6.371 L27.094,33.597l-0.3-5.628C13.285,33.238,5.809,42.322,13.944,50.816z"/>
<linearGradient id="_23" gradientUnits="userSpaceOnUse" x1="15.68" y1="15.84" x2="28.46" y2="37.36">
<stop stop-color="#FFFFFF" offset="0.05"/>
<stop stop-color="#A2C2DD" offset="1"/>
</linearGradient>
<polygon fill="url(#_23)" points="21.216,52.302 20.472,22.08 37.266,25.057 36.979,56.336 "/>
<linearGradient id="_24" gradientUnits="userSpaceOnUse" x1="14.82" y1="16.87" x2="50.5" y2="23.51">
<stop stop-color="#FFFFFF" offset="0.15"/>
<stop stop-color="#A2C2DD" offset="1"/>
</linearGradient>
<polygon fill="url(#_24)" points="52.663,19.76 37.532,18.313 20.472,22.08 37.266,25.057 "/>
<linearGradient id="_25" gradientUnits="userSpaceOnUse" x1="48.73" y1="12.08" x2="42.08" y2="51.63">
<stop stop-color="#FFFFFF" offset="0"/>
<stop stop-color="#A2C2DD" offset="0.35"/>
<stop stop-color="#6C83BB" offset="0.7"/>
<stop stop-color="#003D6D" offset="1"/>
</linearGradient>
<polygon fill="url(#_25)" points="36.975,56.326 52.08,48.105 52.663,19.76 37.148,25.039 "/>
<linearGradient id="_26" gradientUnits="userSpaceOnUse" x1="14.21" y1="14.43" x2="36.13" y2="40.03">
<stop stop-color="#FFFFFF" offset="0"/>
<stop stop-color="#A2C2DD" offset="0.35"/>
<stop stop-color="#6C83BB" offset="0.7"/>
<stop stop-color="#003D6D" offset="1"/>
</linearGradient>
<polygon fill="url(#_26)" points="34.788,31.291 34.788,34.62 23.244,32.157 23.207,29.003 "/>
<polygon fill="url(#_26)" points="34.741,35.562 34.757,37.141 23.224,34.542 23.19,33.101 "/>
<polygon fill="url(#_26)" points="23.207,27.951 23.16,25.026 34.833,27.141 34.833,30.201 "/>
<linearGradient id="_29" gradientUnits="userSpaceOnUse" x1="6.57" y1="32.3" x2="46.48" y2="64.15">
<stop stop-color="#FFFFFF" offset="0"/>
<stop stop-color="#A2C2DD" offset="0.35"/>
<stop stop-color="#6C83BB" offset="0.7"/>
<stop stop-color="#003D6D" offset="1"/>
</linearGradient>
<polygon fill="url(#_29)" points="37.091,47.973 36.934,56.861 21.234,52.695 20.992,44.61 "/>
<linearGradient id="_30" gradientUnits="userSpaceOnUse" x1="73.92" y1="67.83" x2="39.1" y2="45.08">
<stop stop-color="#FFFFFF" offset="0"/>
<stop stop-color="#A2C2DD" offset="0.35"/>
<stop stop-color="#6C83BB" offset="0.7"/>
<stop stop-color="#003D6D" offset="1"/>
</linearGradient>
<polygon fill="url(#_30)" points="52.455,40.617 52.267,48.514 36.927,56.853 37.057,47.973 "/>
<linearGradient id="_31" gradientUnits="userSpaceOnUse" x1="56.09" y1="27.74" x2="66.57" y2="49.47">
<stop stop-color="#FFFFFF" offset="0"/>
<stop stop-color="#A2C2DD" offset="0.35"/>
<stop stop-color="#6C83BB" offset="0.7"/>
<stop stop-color="#003D6D" offset="1"/>
</linearGradient>
<path fill="url(#_31)" d="M47.708,29.193c1.107-0.691,12.657-7.293,19.716,3.458c4.145,6.312,2.438,16.255-6.863,20.055 L47.708,29.193z"/>
<radialGradient id="_32" gradientUnits="userSpaceOnUse" cx="47.55" cy="31.71" r="18.15">
<stop stop-color="#FFFFFF" offset="0.05"/>
<stop stop-color="#A2C2DD" offset="1"/>
</radialGradient>
<path fill="url(#_32)" d="M66.113,41.694c0.362,7.269-4.867,12.919-11.679,12.626 c-6.816-0.293-12.633-6.434-12.992-13.705c-0.36-7.267,4.868-12.922,11.682-12.629 C59.938,28.286,65.752,34.426,66.113,41.694z"/>
<linearGradient id="_33" gradientUnits="userSpaceOnUse" x1="41.73" y1="29.94" x2="59.48" y2="48.45">
<stop stop-color="#E6EEF4" offset="0"/>
<stop stop-color="#4A9900" offset="0.44"/>
<stop stop-color="#0E4E58" offset="0.94"/>
</linearGradient>
<path fill="url(#_33)" d="M49.929,36.234c2.95,0.38,6.308,1.518,6.305,5.41c-0.007,4.167-3.657,3.436-6.309,2.322 L49.929,36.234z M51.184,43.136c0.609,0.305,3.769,1.224,3.771-1.815c0.002-2.875-2.692-3.391-3.767-3.524L51.184,43.136z"/>
<polygon fill="url(#_33)" points="49.314,43.676 47.068,39.013 49.308,35.658 47.798,35.246 46.326,37.471 44.857,34.422 43.348,33.984 45.582,38.594 43.33,41.996 44.799,42.412 46.323,40.127 47.846,43.268 "/>
<polygon fill="url(#_33)" points="62.688,47.904 63.958,48.239 63.434,40.072 62.151,39.749 60.318,44.951 58.491,38.722 57.167,38.313 56.631,46.18 57.901,46.561 58.219,41.897 59.773,47.05 60.861,47.369 62.384,43.173 "/>
<linearGradient id="_36" gradientUnits="userSpaceOnUse" x1="83.94" y1="45" x2="43.94" y2="72.25">
<stop stop-color="#E6EEF4" offset="0"/>
<stop stop-color="#2F8E9A" offset="0.44"/>
<stop stop-color="#003D6D" offset="0.94"/>
</linearGradient>
<path fill="url(#_36)" d="M79.747,38.486L60.089,63.449l0.861,5.396C61.53,68.68,86.898,58.782,79.747,38.486z"/>
<polygon fill="#0046B7" points="60.934,68.069 60.089,63.449 60.123,68.389 60.896,73.509 "/>
<linearGradient id="_37" gradientUnits="userSpaceOnUse" x1="43.55" y1="56.08" x2="59.22" y2="84.24">
<stop stop-color="#E6EEF4" offset="0"/>
<stop stop-color="#2F8E9A" offset="0.44"/>
<stop stop-color="#003D6D" offset="0.94"/>
</linearGradient>
<polygon fill="url(#_37)" points="61.2,69.512 61.282,73.752 39.371,66.869 38.908,62.871 "/>
<linearGradient id="_38" gradientUnits="userSpaceOnUse" x1="52.25" y1="76.06" x2="61.75" y2="48.56">
<stop stop-color="#D6E6EC" offset="0"/>
<stop stop-color="#298595" offset="1"/>
</linearGradient>
<path fill="url(#_38)" d="M66.69,27.606c24.5,9.161,13.508,30.937-6.573,36.497l1.083,5.408l-22.268-6.771l20.206-12.847 l0.296,5.629C74.911,50.332,81.48,37.34,66.69,27.606z"/>
</svg>