<?xml version="1.0" encoding="UTF-8"?>
<!DOCTYPE svg PUBLIC "-//W3C//DTD SVG 1.1 Tiny//EN" "http://www.w3.org/Graphics/SVG/1.1/DTD/svg11-tiny.dtd">
<svg baseProfile="tiny" height="32" version="1.1" viewBox="0 0 38 32" width="38" xmlns="http://www.w3.org/2000/svg" xmlns:xlink="http://www.w3.org/1999/xlink">
<g>
<rect fill="none" height="32" width="38"/>
<g>
<g>
<path d="M26.188,21.563c-2.777,4.42-5.162,5.56-7.875,2.688c-3.197-3.38-0.936-9.86,3.188-13.406     c3.961-3.406,9.525-5.164,12.843-1.154c2.261,2.733-0.428,5.314-2.995,6.916c-2.313,1.44-3.934,0.197-4.505-1.822     c-1.239,0.574-2.028,1.21-2.655,2.656C26.404,18.219,27.186,19.874,26.188,21.563z M21.807,19.236     c-0.551-4.181,3.557-7.326,6.816-6.814c0.371,2.356,0.436,3.155,1.938,2.079c1.438-1.032,2.655-2.344,2.375-2.97     c-0.371-0.821-1.715-2.417-4.793-1.796c-5.133,1.035-9.574,6.69-9.129,10.908c0.095,1.719,1.391,2.606,1.891,2.855     c1.074,0.538,2.984-2.41,3.345-2.969C25.047,19.505,21.92,19.236,21.807,19.236z"/>
</g>
<g>
<path d="M2.436,20.133v2.495h12.873c-0.317-0.769-0.466-1.61-0.466-2.495H2.436z"/>
<path d="M7.07,15.854v2.496h7.956c0.166-0.83,0.439-1.672,0.805-2.496H7.07z"/>
</g>
</g>
</g>
</svg>
