<?xml version="1.0" encoding="UTF-8"?>
<!DOCTYPE svg PUBLIC "-//W3C//DTD SVG 1.1 Tiny//EN" "http://www.w3.org/Graphics/SVG/1.1/DTD/svg11-tiny.dtd">
<svg baseProfile="tiny" height="60" version="1.1" viewBox="0 0 60 60" width="60" xmlns="http://www.w3.org/2000/svg" xmlns:xlink="http://www.w3.org/1999/xlink">
<path d="M25.13,29.997v10.481h0.5h10.011V29.997H25.13z M32.141,36.979c-1.298,0-2.215,0-3.511,0c0-1.287,0-2.197,0-3.481  c1.296,0,2.213,0,3.511,0C32.139,34.781,32.139,35.689,32.141,36.979z"/>
<path d="M54.012,32.533L30.387,11.277l-0.332,0.301L6.764,32.533h1.307c0,0,5.382,0,7.103,0c-0.001,3.869-0.001,13.892-0.001,13.895  v0.498h30.425v-0.498c-0.002-0.003-0.002-2.746,0-5.916c-0.002-2.892-0.002-6.134-0.002-7.979H54.012z M42.096,29.035v14.389H18.674  V29.035h-2.786l14.499-13.05l14.501,13.048L42.096,29.035z"/>
<rect fill="none" height="60" width="60"/>
</svg>
