<?xml version="1.0" encoding="UTF-8"?>
<!DOCTYPE svg PUBLIC "-//W3C//DTD SVG 1.1 Tiny//EN" "http://www.w3.org/Graphics/SVG/1.1/DTD/svg11-tiny.dtd">
<svg width="24" height="26" viewBox="-10.193 12.811 24 26">
<radialGradient id="_5" gradientUnits="userSpaceOnUse" cx="2.57" cy="19.24" r="18.51">
<stop stop-color="#FFFFFF" offset="0"/>
<stop stop-color="#A2C2DD" offset="0.53"/>
<stop stop-color="#6C83BB" offset="0.87"/>
<stop stop-color="#003D6D" offset="1"/>
</radialGradient>
<circle fill="url(#_5)" cx="0.597" cy="25.67" r="10.005"/>
<radialGradient id="_6" gradientUnits="userSpaceOnUse" cx="0.93" cy="17.76" r="10.94">
<stop stop-color="#A2C2DD" offset="0.1"/>
<stop stop-color="#6C83BB" offset="0.71"/>
<stop stop-color="#003D6D" offset="0.99"/>
</radialGradient>
<path fill="url(#_6)" d="M-4.433,17.007c-0.455,0.27-1.671,1.131-1.688,1.469c-0.016,0.336,0.355-0.085,0.39-0.17 c0.034-0.084,0.641-0.389,0.81-0.539c0.17-0.153,0.423-0.203,0.76-0.525c0.337-0.32,1.387-0.354,1.571-0.438 c0.187-0.085,1.183-0.373,1.08-0.203c-0.102,0.169-0.456,0.439-1.453,0.642c-0.067,0-1.926,1.099-0.912,0.777 c0.186-0.017,0.709-0.033,0.962,0.051c0.255,0.084,2.35-0.608,2.331-1.048l0.845-1.283c-0.709-0.101-2.416,0.356-2.668,0.422 c-0.051,0.051-0.643,0.287-0.643,0.287S-3.892,16.872-4.433,17.007z"/>
<radialGradient id="_7" gradientUnits="userSpaceOnUse" cx="1.63" cy="21.15" r="14.62">
<stop stop-color="#E6EEF4" offset="0"/>
<stop stop-color="#4A9900" offset="0.44"/>
<stop stop-color="#0E4E58" offset="0.94"/>
</radialGradient>
<path fill="url(#_7)" d="M5.723,17.259l0.523,1.132l1.213,0.438c0,0,0.896,1.856,0.963,1.891 c0.066,0.033,0.371,0.135,0.473,0.117c0.066,0.371-0.033,0.371-0.033,0.371l-0.49-0.236L8.575,21.8l0.945,1.603 c-0.117,0.253-0.574,1.754-0.574,1.754s0.592,0.541,0.508,1.132c-0.086,0.59-0.405,0.236-0.492,0.187 c-0.082-0.051-6.598-0.152-6.495-0.051c0.676,0.473,0.405,0.811,0.405,0.811l-1.065,0.944c0,0-0.895,0.405-1.165,0.473 c-0.49,0.304,0.05,0.423,0.59,0.287c0.54-0.135,0.49,0.084,0.404,0.304c-0.125,0.312-0.471,0.782-0.471,0.782l-2.111,3.37 c0,0-0.269,0.606-0.372,0.691c-0.354,0.454-0.81,0.403-1.012,0.304c-0.931,0.182-1.705-1.315-1.756-1.452 c-0.05-0.134-0.726-0.474-0.505-1.079c0.218-0.607-0.322-1.485-0.354-1.553c-0.036-0.068-0.341-1.309-0.998-1.875 c-0.069-0.061-0.792-0.235-1.181-0.354c-0.388-0.116-0.558-1.045-0.727-1.434c-0.169-0.39,0.287-1.89,0.304-1.991 c0.016-0.101,0.624-0.625,0.624-0.625l1.283-0.843l-0.066-0.593c0,0,0.609-0.825,0.725-0.556c0.119,0.271,0.71,0.22,0.659-0.169 c-0.051-0.389,0.085-0.574,0.236-0.591c0.152-0.017,0.017-0.336-0.168-0.574c-0.186-0.235,0.286-0.304,0.591-0.591 c0.304-0.287,0.084,0.625,0.084,0.93c0,0.304,1.03-0.508,1.08-0.558c-0.117-0.591,0.355-0.743,0.489-0.76 c0.136-0.017,0.827-0.635,1.604-0.658c0.135,0.017,0.742,0.506,0.894,0.506c0.153,0,1.351-0.319,1.385-0.54 c0.033-0.219,0.151-0.338,0.372-0.422c0.219-0.083,0.251-0.793,0.251-0.793s0.262-0.105,0.373-0.066 c0.521,0.181,0.642-0.169,0.793-0.221c0.151-0.05,0.018-0.354-0.033-0.488c0.186-0.405-0.777-0.803-0.422-0.777 C4.592,16.364,5.571,17.021,5.723,17.259z M-5.485,23.233l0.136,0.168c0,0,0.697,0.071,1.388,0.34 c0.105,0.106-0.021,0.605-0.021,0.605s0.743,1.012,0.895,0.827c0.151-0.187,0.354-0.354,0.59-0.187 c0.237,0.168,0.81,0.371,1.098,0.371c0.118,0.034,0.708,0.22,0.692-0.675c-0.233-0.321-0.827-0.271-0.929-0.354 c-0.1-0.085-0.303-0.692-0.303-0.692l-0.202,0.051c0,0-0.033,0.422-0.152,0.422c-0.118,0-0.372-0.641-0.372-0.641l0.035-0.337 l-0.39-0.473c0,0-0.253,0.119,0.236,0.742c0,0-0.337,0.354-0.59,0.371c0.067-0.084,0.22-0.472,0.22-0.472 s-0.773-0.955-0.929-0.826c-0.185,0.151-0.726,0.437-0.726,0.437l-0.354,0.305L-5.485,23.233z M-1.4,20.094 c-0.362,0.586-0.891,0.752-0.844,0.962c0.018,0.085,0.525,0.203,0.607-0.034c0.085-0.236,0.389-0.287,0.389-0.388 C-1.248,20.532-1.353,20.019-1.4,20.094z M-0.708,22.979c-0.084-0.034-0.254-0.338-0.456-0.119 c-0.201,0.221-0.456,0.709-0.201,0.744c0.252,0.033,0.902,0.08,1.536-0.035C0.148,23.038-0.708,22.979-0.708,22.979z M-1.047,26.034c-0.006,0.104,0.424,1.115,0.424,1.115s-0.035,0.337,0.049,0.456c0.085,0.118,0.388,0.742,0.727,0.844 c0.488-0.563-0.455-1.299-0.455-1.299l-0.034-0.288C-0.337,26.861-1.012,25.562-1.047,26.034z M1.216,25.731l0.018,0.286 l0.606,0.675c0,0,0.558-0.05,0.456-0.455l-0.489-0.169l-0.339-0.321L1.216,25.731z"/>
<linearGradient id="_8" gradientUnits="userSpaceOnUse" x1="3.95" y1="30.02" x2="5.97" y2="33.99">
<stop stop-color="#A2C2DD" offset="0.1"/>
<stop stop-color="#6C83BB" offset="0.71"/>
<stop stop-color="#003D6D" offset="0.99"/>
</linearGradient>
<path fill="url(#_8)" d="M10.371,27.792l-4.027-4.027l-2.721,2.721l3.209,3.298h-8.606l-0.019,3.716l8.584,0.021 C6.791,33.519,9.541,31.644,10.371,27.792z"/>
<polygon fill="#235487" points="6.414,24.782 4.63,26.566 8.504,30.442 -1.101,30.442 -1.101,32.836 8.506,32.836 4.63,36.712 6.414,38.498 13.271,31.642 "/>
</svg>