<?xml version="1.0" encoding="UTF-8"?>
<!DOCTYPE svg PUBLIC "-//W3C//DTD SVG 1.1 Tiny//EN" "http://www.w3.org/Graphics/SVG/1.1/DTD/svg11-tiny.dtd">
<svg baseProfile="tiny" height="44" version="1.1" viewBox="0 0.334 44 44" width="44" xmlns="http://www.w3.org/2000/svg" xmlns:xlink="http://www.w3.org/1999/xlink">
<g>
<rect fill="none" height="44" width="44" y="0.334"/>
<g>
<g>
<linearGradient gradientUnits="userSpaceOnUse" id="XMLID_5_" x1="25.5273" x2="25.5273" y1="7.958" y2="35.2909">
<stop offset="0" style="stop-color:#B2B2B2"/>
<stop offset="1" style="stop-color:#000000"/>
</linearGradient>
<polygon fill="url(#XMLID_5_)" points="33.257,20.784 33.257,35.439 17.711,35.439 17.711,16.265 28.816,16.265 28.816,14.401      15.859,14.401 15.859,37.334 35.195,37.334 35.195,20.784    "/>
<linearGradient gradientUnits="userSpaceOnUse" id="XMLID_6_" x1="32.0059" x2="32.0059" y1="7.958" y2="35.291">
<stop offset="0" style="stop-color:#B2B2B2"/>
<stop offset="1" style="stop-color:#000000"/>
</linearGradient>
<polygon fill="url(#XMLID_6_)" points="28.816,14.401 28.816,20.784 35.195,20.784    "/>
</g>
<g>
<linearGradient gradientUnits="userSpaceOnUse" id="XMLID_7_" x1="21.0049" x2="21.0049" y1="7.958" y2="35.291">
<stop offset="0" style="stop-color:#B2B2B2"/>
<stop offset="1" style="stop-color:#000000"/>
</linearGradient>
<polygon fill="url(#XMLID_7_)" points="14.182,33.779 14.182,12.731 29.68,12.731 28.085,10.867 12.33,10.867 12.33,33.801         "/>
</g>
<g>
<linearGradient gradientUnits="userSpaceOnUse" id="XMLID_8_" x1="17.4795" x2="17.4795" y1="7.958" y2="35.2909">
<stop offset="0" style="stop-color:#B2B2B2"/>
<stop offset="1" style="stop-color:#000000"/>
</linearGradient>
<polygon fill="url(#XMLID_8_)" points="10.654,30.255 10.654,9.194 26.154,9.194 24.561,7.334 8.805,7.334 8.805,30.266    "/>
</g>
</g>
</g>
</svg>
