<?xml version="1.0" encoding="UTF-8"?>
<!DOCTYPE svg PUBLIC "-//W3C//DTD SVG 1.1 Tiny//EN" "http://www.w3.org/Graphics/SVG/1.1/DTD/svg11-tiny.dtd">
<svg width="332" height="126" viewBox="-0.604 0.257 332 126">
<g fill-opacity="0.7" stroke-opacity="0.7">
<path fill-opacity="0.01" fill="#656B6B" d="M2.394,31.367v65.775c0,10.361,7.762,18.963,18.053,20.012 c0.031,0.002,1.953,0.102,1.953,0.102c0.049,0.002,261.219,0.002,265.756,0.002c0.549,0.549,9.115,8.998,9.115,8.998l1.404-0.018 l1.158-0.139c3.896-0.773,6.564-3.992,6.564-7.842c0,0,0-0.652,0-1.26c11.279-1.09,20-10.471,20-21.855V31.367 c0-5.377-2.094-10.428-5.895-14.227c-3.799-3.793-8.848-5.879-14.215-5.873L22.501,11.256C11.413,11.256,2.394,20.277,2.394,31.367 z"/>
<path fill-opacity="0.03" fill="#656B6B" d="M3.394,31.367v65.775c0,9.846,7.375,18.021,17.154,19.018 c0.055,0.004,1.902,0.098,1.902,0.098s265.293,0,266.119,0c0.549,0.549,9.111,9.111,9.111,9.111l0.855-0.121l1.178-0.141 c3.379-0.674,5.684-3.484,5.684-6.85c0,0,0-1.232,0-2.115c11.107-0.592,20-9.766,20-21V31.367c0-5.109-1.99-9.91-5.602-13.52 c-3.609-3.604-8.406-5.586-13.506-5.58L22.501,12.256C11.966,12.256,3.394,20.83,3.394,31.367z"/>
<path fill-opacity="0.05" fill="#656B6B" d="M4.394,31.367v65.775c0,9.33,6.988,17.078,16.254,18.021l1.854,0.094 c0,0,265.656,0,266.482,0c0.549,0.549,9.051,9.051,9.051,9.051l0.363-0.051l1.197-0.145c2.828-0.564,4.803-2.973,4.803-5.855 c0,0,0-1.889,0-3.01c11.037-0.061,20-9.051,20-20.105V31.367c0-4.842-1.885-9.393-5.309-12.813 c-3.42-3.414-7.965-5.293-12.799-5.287L22.501,13.256C12.517,13.256,4.394,21.381,4.394,31.367z"/>
<path fill-opacity="0.07" fill="#656B6B" d="M306.292,14.268L22.501,14.256c-9.447,0-17.107,7.66-17.107,17.111v65.775 c0,8.859,6.73,16.148,15.355,17.027c0.576,0.055,1.16,0.088,1.752,0.088h266.896l9,9c0,0,0.375,0,1-0.125c2.5-0.5,4-2.625,4-4.875 c0-1,0-4,0-4h0.895c10.535,0,19.105-8.574,19.105-19.115V31.367C323.397,21.916,315.739,14.256,306.292,14.268z"/>
<path fill-opacity="0.11" fill="#656B6B" d="M305.292,15.258H23.501c-9.447,0-17.107,6.658-17.107,16.109v64.775 c0,8.859,6.73,16.148,15.355,17.027c0.576,0.055,1.16,0.088,1.752,0.088h266.271l9,9c0,0,0.504-0.098,0.625-0.125 c1.125-0.25,3-1.5,3-3.875c0-1,0-5,0-5h1.895c9.982,0,18.105-8.127,18.105-18.115V31.367 C322.397,21.916,314.739,15.246,305.292,15.258z"/>
<path fill="#FFFFFF" d="M22.501,112.258h264.898l12,12h1.998V112.27h2.895c9.447,0,17.105-7.658,17.105-17.111V31.373 c0-9.449-7.658-17.115-17.105-17.115H22.501c-9.449,0-17.107,7.666-17.107,17.115v63.785 C5.394,104.611,13.052,112.27,22.501,112.258z"/>
</g>
</svg>