<?xml version="1.0" encoding="UTF-8"?>
<!DOCTYPE svg PUBLIC "-//W3C//DTD SVG 1.1 Tiny//EN" "http://www.w3.org/Graphics/SVG/1.1/DTD/svg11-tiny.dtd">
<svg width="90" height="90" viewBox="0 0 90 90">
<path fill="#FFFFFF" d="M44.951,0.917c-24.162,0-43.75,19.588-43.75,43.75c0,24.163,19.588,43.75,43.75,43.75 s43.75-19.587,43.75-43.75C88.701,20.505,69.113,0.917,44.951,0.917z M44.951,86.667c-23.195,0-42-18.803-42-42 c0-23.195,18.805-42,42-42s42,18.805,42,42C86.951,67.864,68.146,86.667,44.951,86.667z"/>
<linearGradient id="_4" gradientUnits="userSpaceOnUse" x1="13.85" y1="-13.56" x2="97.33" y2="143.41">
<stop stop-color="#FFFFFF" offset="0"/>
<stop stop-color="#A2C2DD" offset="0.35"/>
<stop stop-color="#6C83BB" offset="0.7"/>
<stop stop-color="#003D6D" offset="1"/>
</linearGradient>
<path fill="url(#_4)" d="M1.89,44.773c0,23.7,19.281,42.98,42.979,42.98c23.699,0,42.98-19.28,42.98-42.98 c0-23.699-19.281-42.979-42.98-42.979S1.89,21.075,1.89,44.773z M4.39,44.773c0-22.32,18.159-40.479,40.479-40.479 s40.48,18.159,40.48,40.479c0,22.321-18.16,40.48-40.48,40.48C22.548,85.254,4.39,67.095,4.39,44.773z"/>
<path fill="#FFFFFF" d="M44.951,15.504c-16.106,0-29.164,13.057-29.164,29.163c0,16.106,13.058,29.164,29.164,29.164 c16.107,0,29.164-13.058,29.164-29.164C74.115,28.561,61.059,15.504,44.951,15.504z M44.951,71.498 c-14.818,0-26.831-12.014-26.831-26.831c0-14.817,12.013-26.83,26.831-26.83s26.831,12.013,26.831,26.83 C71.782,59.484,59.77,71.498,44.951,71.498z"/>
<linearGradient id="_5" gradientUnits="userSpaceOnUse" x1="21.59" y1="4.02" x2="75.74" y2="98.78">
<stop stop-color="#FFFFFF" offset="0"/>
<stop stop-color="#A2C2DD" offset="0.35"/>
<stop stop-color="#6C83BB" offset="0.7"/>
<stop stop-color="#003D6D" offset="1"/>
</linearGradient>
<path fill="url(#_5)" d="M14.651,44.683c0,16.637,13.534,30.172,30.171,30.172c16.637,0,30.171-13.535,30.171-30.172 S61.459,14.511,44.822,14.511C28.185,14.511,14.651,28.046,14.651,44.683z M17.151,44.683c0-15.258,12.413-27.671,27.671-27.671 c15.258,0,27.671,12.413,27.671,27.671S60.08,72.355,44.822,72.355C29.563,72.354,17.151,59.939,17.151,44.683z"/>
<linearGradient id="_6" gradientUnits="userSpaceOnUse" x1="39.95" y1="16.82" x2="46.38" y2="30.47">
<stop stop-color="#FFFFFF" offset="0.05"/>
<stop stop-color="#A2C2DD" offset="1"/>
</linearGradient>
<path fill="url(#_6)" d="M37.125,27.01l2.142,2.142c0,0,5.151-5.151,5.482-5.482c0.331,0.331,5.481,5.482,5.481,5.482 l2.144-2.142l-7.625-7.625L37.125,27.01z"/>
<path fill="#FFFFFF" d="M44.75,19.033l-7.978,7.978l2.495,2.496l5.483-5.482l5.482,5.482l2.494-2.496L44.75,19.033L44.75,19.033z M37.479,27.011l7.271-7.271l7.271,7.271l0,0l0,0L50.232,28.8l-5.481-5.482L39.268,28.8L37.479,27.011L37.479,27.011 L37.479,27.011z"/>
</svg>