<?xml version="1.0" encoding="UTF-8"?>
<!DOCTYPE svg PUBLIC "-//W3C//DTD SVG 1.1 Tiny//EN" "http://www.w3.org/Graphics/SVG/1.1/DTD/svg11-tiny.dtd">
<svg baseProfile="tiny" height="54px" version="1.1" viewBox="0 0 54 54" width="54px" x="0px" xmlns="http://www.w3.org/2000/svg" xmlns:xlink="http://www.w3.org/1999/xlink" y="0px">
<g>
<g>
<rect fill="none" height="54" width="54"/>
</g>
<g>
<path d="M8.479,21.569h7.209v-6.101h6.052V8.257H8.477L8.479,21.569z M15.797,38.424v-6.103H8.588L8.583,45.634    h13.269v-7.21H15.797z M45.854,32.54h-7.21v6.101h-6.052v7.212h13.266L45.854,32.54z M30.74,34.169v-3.025h3.025v-7.21H30.74    v-3.031h-7.211v3.031h-3.027v7.21h3.027v3.025H30.74z M32.592,8.147v7.21h6.052v6.104h7.21l0.004-13.314H32.592z" fill="#FFFFFF"/>
<path d="M10.762,10.868l0.003,8.092v0.325h2.638v-6.104h6.055v-2.64h-8.695V10.868z M34.877,10.432v2.642h6.053v6.101h2.64v-0.325    l0.003-8.09v-0.327H34.877z M13.512,34.605h-2.639v0.327l-0.006,8.091v0.326h8.697v-2.642h-6.053V34.605z M43.569,34.826h-2.64    v6.1h-6.053v2.641h8.695v-0.325l-0.003-8.092V34.826z M28.455,23.188h-2.641v3.029h-3.027v2.642h3.027v3.024h2.641v-3.024h3.026    v-2.642h-3.026V23.188z"/>
</g>
</g>
</svg>
