<?xml version="1.0" encoding="UTF-8"?>
<!DOCTYPE svg PUBLIC "-//W3C//DTD SVG 1.1 Tiny//EN" "http://www.w3.org/Graphics/SVG/1.1/DTD/svg11-tiny.dtd">
<svg width="60" height="80" viewBox="0 0 60 80">
<linearGradient id="_145" gradientUnits="userSpaceOnUse" x1="29" y1="40.83" x2="40.99" y2="64.44">
<stop stop-color="#A2C2DD" offset="0.1"/>
<stop stop-color="#6C83BB" offset="0.71"/>
<stop stop-color="#003D6D" offset="0.99"/>
</linearGradient>
<path fill="url(#_145)" d="M55.032,50.156c0.218-0.049,0.723-0.162,0.723-0.162l0.063-0.028l2.504-1.96l-0.11-2.979 l-0.235-0.104c0,0-2.795-0.919-2.973-0.979c-0.314-0.991-0.757-1.945-1.322-2.848c0.166-0.301,1.664-2.994,1.664-2.994 l-0.263-0.16l-2.2-1.896c0,0-2.479,1.342-2.689,1.457c-0.896-0.603-1.813-1.044-2.732-1.286c-0.104-0.337-0.35-1.142-0.975-3.179 l-0.073-0.255l-2.998,0.092l-2.996,1.588c0,0-0.144,1.577-0.192,2.234c-0.604-0.316-2.68-1.403-2.68-1.403 s-0.021,0.013-0.029,0.02c0.002-0.437,0.006-1.182,0.006-1.182l-0.271-0.07c0,0-2.197-0.542-2.58-0.637 c-0.042-0.273-0.143-0.906-0.188-1.239c0.373-0.176,2.207-1.037,2.207-1.037l-2.416-5.362l-0.322,0.065 c0,0-1.768,0.622-2.176,0.765c-0.182-0.263-0.51-0.747-0.666-0.977c0.205-0.328,1.551-2.478,1.551-2.478l-0.26-0.214l-4.479-3.376 c0,0-2.119,0.877-2.765,1.144c-0.052-0.634-0.197-2.389-0.197-2.389l-0.304-0.042l-5.618-0.513c0,0-1.857,0.725-2.251,0.878 c-0.163-0.21-0.565-0.726-0.565-0.726l-5.79,2.476l-4.53,2.424c0,0,0.316,0.607,0.45,0.863c-0.48,0.251-2.384,1.247-2.384,1.247 l-0.056,0.089l-2.466,4.479c0,0,1.487,1.215,2.031,1.659C2.817,31.512,0.81,32.57,0.81,32.57L0.805,32.8l0.184,5.885 c0,0,2.831,0.375,3.247,0.43c0.063,0.291,0.19,0.877,0.255,1.18c-0.377,0.211-2.683,1.501-2.683,1.501l2.809,5.615 c0,0,2.23-1.257,2.64-1.488c0.219,0.259,0.611,0.72,0.796,0.938c-0.188,0.354-1.535,2.932-1.535,2.932l4.591,3.438l0.203-0.109 c0,0,1.633-1.016,2.334-1.445c0.01,0.771,0.036,2.645,0.036,2.645l5.172,0.518l0.105-0.084c0,0,1.741-1.072,2.241-1.38 c0.155,0.317,0.514,1.049,0.514,1.049l4.511-2.356c0,0,5.087-3.1,5.326-3.243c0.248,0.063,2.633,0.677,2.903,0.741 c0.122,0.252,1.264,2.588,1.389,2.847c-0.122,0.271-1.397,3.095-1.397,3.095l2.334,2.283c0,0,2.268-1.611,2.563-1.822 c0.313,0.153,2.406,1.188,2.643,1.305c0.08,0.271,1.092,3.656,1.092,3.656l2.834,0.455l0.131-0.074l2.654-2.018 c0,0,0.242-1.947,0.313-2.529c0.518,0.354,2.764,1.893,2.764,1.893c0.252,0.129,0.252,0.129,3.371-2.576l0.945-1.459l0.116-0.186 c0,0-1.572-2.631-1.729-2.89C54.587,51.246,54.92,50.432,55.032,50.156z M21.898,44.625l-0.11,0.107l-0.154-0.01 c-3.152-0.187-6.354-2.543-7.965-5.875c-1.622-3.352-1.372-6.957,0.686-9.89l0.094-0.134l0.163-0.014 c3.714-0.316,7.505,2.352,9.013,6.343C24.933,38.616,24.255,42.333,21.898,44.625z M48.281,51.566l-0.073,0.119L48.07,51.72 c-2.03,0.522-4.512-0.544-6.172-2.653c-1.75-2.225-2.086-4.887-0.897-7.123l0.037-0.148c0,0,1.685-0.188,1.687-0.188 c3.17,0.106,6.021,2.938,6.354,6.303C49.208,49.25,48.934,50.518,48.281,51.566z"/>
<linearGradient id="_146" gradientUnits="userSpaceOnUse" x1="23.05" y1="45.45" x2="13.47" y2="36.7">
<stop stop-color="#FFFFFF" offset="0"/>
<stop stop-color="#A2C2DD" offset="0.35"/>
<stop stop-color="#6C83BB" offset="0.7"/>
<stop stop-color="#003D6D" offset="1"/>
</linearGradient>
<path fill="url(#_146)" d="M14.767,28.976c-4.838,6.583,0.897,15.186,7.032,15.41C11.944,52.671,1.193,32.021,14.767,28.976z "/>
<linearGradient id="_147" gradientUnits="userSpaceOnUse" x1="27.62" y1="15.86" x2="1.29" y2="40.54">
<stop stop-color="#FFFFFF" offset="0"/>
<stop stop-color="#A2C2DD" offset="0.35"/>
<stop stop-color="#6C83BB" offset="0.7"/>
<stop stop-color="#003D6D" offset="1"/>
</linearGradient>
<polygon fill="url(#_147)" points="18.579,21.12 24.633,18.657 24.88,21.65 18.622,24.656 "/>
<polygon fill="url(#_147)" points="12.652,49.936 17.155,49.086 11.127,52.818 "/>
<linearGradient id="_149" gradientUnits="userSpaceOnUse" x1="19.68" y1="8.11" x2="-1.82" y2="41.78">
<stop stop-color="#FFFFFF" offset="0.05"/>
<stop stop-color="#A2C2DD" offset="1"/>
</linearGradient>
<polygon fill="url(#_149)" points="1.15,32.789 7.401,29.493 6.22,33.542 "/>
<polygon fill="url(#_147)" points="18.778,49.977 22.998,51.846 18.775,54.445 "/>
<polygon fill="url(#_147)" points="4.215,25.205 7.657,23.405 8.871,28.665 "/>
<polygon fill="url(#_147)" points="24.063,47.646 30.455,44.882 32.053,48.098 26.063,51.729 "/>
<polygon fill="url(#_147)" points="10.563,20.731 16.109,18.36 18.452,21.368 12.261,24.118 "/>
<polygon fill="url(#_147)" points="27.827,43.171 33.887,39.761 36.244,42.605 30.773,45.354 "/>
<polygon fill="url(#_147)" points="28.237,36.397 34.354,33.72 37.161,34.414 31.706,36.832 "/>
<polygon fill="url(#_147)" points="26.202,25.805 32.186,23.261 30.686,25.661 24.485,28.734 "/>
<linearGradient id="_157" gradientUnits="userSpaceOnUse" x1="19.29" y1="20.35" x2="26.42" y2="53.01">
<stop stop-color="#FFFFFF" offset="0.05"/>
<stop stop-color="#A2C2DD" offset="1"/>
</linearGradient>
<polygon fill="url(#_157)" points="13.581,20.284 18.563,21.116 24.622,18.642 19.086,18.136 "/>
<polygon fill="url(#_157)" points="21.833,22.478 26.2,25.803 32.186,23.236 27.869,19.98 "/>
<polygon fill="url(#_157)" points="31.706,36.821 31.643,42.173 37.139,39.495 37.163,34.417 "/>
<polygon fill="url(#_157)" points="30.779,45.361 28.269,49.543 33.707,46.68 36.238,42.604 "/>
<path fill="url(#_149)" d="M18.631,24.658c0.16,0.049,1.356,0.591,1.541,0.709l1.169-2.035L18.631,24.658z"/>
<path fill="url(#_149)" d="M24.513,28.744c0.115,0.131,0.887,1.102,0.965,1.233l6.105-2.945 c-0.185-0.254-0.796-1.276-0.899-1.368L24.513,28.744z"/>
<path fill="url(#_149)" d="M27.906,34.925c0,0,0.319,1.317,0.344,1.466l6.104-2.668c0,0-0.227-1.718-0.311-1.903 L27.906,34.925z"/>
<path fill="url(#_149)" d="M27.822,43.137c0.092-0.183,0.368-1.342,0.368-1.342l1.714,0.184 C29.904,41.979,28.177,42.988,27.822,43.137z"/>
<linearGradient id="_165" gradientUnits="userSpaceOnUse" x1="45.33" y1="18.49" x2="-10.58" y2="53.91">
<stop stop-color="#FFFFFF" offset="0"/>
<stop stop-color="#A2C2DD" offset="0.35"/>
<stop stop-color="#6C83BB" offset="0.7"/>
<stop stop-color="#003D6D" offset="1"/>
</linearGradient>
<polyline fill="url(#_165)" points="28.442,28.562 31.631,27.048 34.098,26.229 "/>
<linearGradient id="_166" gradientUnits="userSpaceOnUse" x1="29.75" y1="17.97" x2="36.95" y2="50.96">
<stop stop-color="#FFFFFF" offset="0.05"/>
<stop stop-color="#A2C2DD" offset="1"/>
</linearGradient>
<polygon fill="url(#_166)" points="28.437,28.565 30.907,33.487 36.223,30.99 34.061,26.194 "/>
<linearGradient id="_167" gradientUnits="userSpaceOnUse" x1="19.26" y1="61.84" x2="15.26" y2="26.47">
<stop stop-color="#FFFFFF" offset="0.05"/>
<stop stop-color="#A2C2DD" offset="1"/>
</linearGradient>
<path fill="url(#_167)" d="M31.71,36.823l-0.067,5.372l-3.438-0.4l-0.374,1.367l2.946,2.177l-2.531,4.245L25.4,47.473 l-0.946,0.979l1.612,3.296l-4.193,2.189l-1.578-3.225l-1.502,0.313l-0.019,3.438l-4.743-0.475l-0.05-3.462l-1.317-0.578 l-1.535,2.854l-4.161-3.115l1.506-2.877l-1.136-1.338l-2.571,1.446l-2.495-4.985l2.618-1.461L4.528,38.8L1.33,38.377L1.154,32.78 l3.222,0.456l0.271-1.565l-2.755-2.25l2.326-4.224l2.7,2.021l1.114-1.061l-1.66-3.185l4.195-2.248l1.724,3.391l1.343-0.238 l-0.048-3.589l4.995,0.822l0.045,3.544l1.566,0.714l1.652-2.896l4.361,3.324l-1.72,2.927l0.986,1.256l2.971-1.419l2.516,4.91 l-3.023,1.46l0.304,1.457L31.71,36.823z M13.151,29.464c-3.886,1.315-5.594,6.158-3.84,10.762 c1.736,4.565,6.222,7.049,10.051,5.607c3.835-1.42,5.612-6.122,3.936-10.557C21.605,30.799,17.051,28.174,13.151,29.464z"/>
<linearGradient id="_168" gradientUnits="userSpaceOnUse" x1="39.17" y1="30.09" x2="33.83" y2="53.03">
<stop stop-color="#E2E6E4" offset="0"/>
<stop stop-color="#A3740A" offset="1"/>
</linearGradient>
<polygon fill="url(#_168)" points="34.546,37.45 37.548,35.705 40.398,37.331 37.62,39.266 "/>
<linearGradient id="_169" gradientUnits="userSpaceOnUse" x1="39.21" y1="32.81" x2="52.06" y2="54.9">
<stop stop-color="#E2E6E4" offset="0"/>
<stop stop-color="#A3740A" offset="1"/>
</linearGradient>
<path fill="url(#_169)" d="M35.116,41.705c2.737-3.494,7.021-6.35,12.06-5.206c5.405,1.254,10.285,8.908,6.898,15.081 l-2.783,2.004c1.466-3.636,0.128-10.592-3.816-13.447C43.48,37.314,39.657,38.594,35.116,41.705z"/>
<polygon fill="url(#_168)" points="31.184,45.637 33.902,43.875 35.12,43.643 34.206,45.145 "/>
<polygon fill="url(#_168)" points="46.166,57.219 48.828,55.32 48.355,59.087 45.818,61.016 "/>
<polygon fill="url(#_168)" points="43.189,34.728 46.15,33.153 47.176,36.499 44.495,38.336 "/>
<polygon fill="url(#_168)" points="52.066,46.161 54.8,44.252 57.893,45.268 55.387,47.119 "/>
<polygon fill="url(#_168)" points="52.13,39.808 54.9,38.192 53.391,41.03 50.637,42.932 "/>
<linearGradient id="_175" gradientUnits="userSpaceOnUse" x1="44.7" y1="37.05" x2="54.06" y2="60.36">
<stop stop-color="#E2E6E4" offset="0"/>
<stop stop-color="#A3740A" offset="1"/>
</linearGradient>
<polygon fill="url(#_175)" points="40.75,34.706 43.502,33.234 46.15,33.153 43.262,34.732 "/>
<polygon fill="url(#_175)" points="50.243,37.886 52.107,39.868 54.874,38.235 52.837,36.481 "/>
<polygon fill="url(#_175)" points="55.329,47.061 55.604,49.689 57.966,47.841 57.87,45.257 "/>
<polygon fill="url(#_168)" points="55.787,54.411 54.085,51.564 51.4,53.477 53.432,56.609 53.409,56.631 51.961,58.348 54.904,55.794 "/>
<linearGradient id="_179" gradientUnits="userSpaceOnUse" x1="43.88" y1="54.82" x2="41.19" y2="40.34">
<stop stop-color="#E6EEF4" offset="0"/>
<stop stop-color="#A3740A" offset="0.44"/>
<stop stop-color="#474105" offset="0.94"/>
</linearGradient>
<path fill="url(#_179)" d="M41.475,41.777c-2.955,4.813,2.491,10.713,6.57,9.595c-2.557,3.78-6.961,2.459-9.428-1.527 C36.113,45.887,39.014,42.061,41.475,41.777z"/>
<linearGradient id="_180" gradientUnits="userSpaceOnUse" x1="46.87" y1="30.87" x2="38.68" y2="70.37">
<stop stop-color="#E2E6E4" offset="0"/>
<stop stop-color="#A3740A" offset="1"/>
</linearGradient>
<path fill="url(#_180)" d="M52.352,50.4l3.26-0.732l-0.234-2.662l-3.331-0.882L50.6,42.968l1.531-3.16l-1.943-1.911 l-2.668,1.887L44.49,38.36l-1.229-3.627l-2.521-0.037l-0.308,3.456l-2.809,1.138l-3.093-1.836l-1.407,1.472l1.911,3.315 l-0.804,2.832l-3.063,0.581l0.165,2.744l3.354,0.854l1.53,3.141l-1.364,3.021l1.948,1.907l2.489-1.773l2.965,1.462l1.069,3.595 L45.805,61l0.357-3.688l2.714-1.072l3.08,2.104l1.507-1.789l-2.059-3.113L52.352,50.4z M43.979,53.466 c-2.936-0.147-5.631-2.823-6.015-5.983c-0.388-3.151,1.743-5.631,4.747-5.528c3.008,0.104,5.699,2.78,6.016,5.981 C49.041,51.141,46.913,53.614,43.979,53.466z"/>
</svg>