<?xml version="1.0" encoding="UTF-8"?>
<!DOCTYPE svg PUBLIC "-//W3C//DTD SVG 1.1 Tiny//EN" "http://www.w3.org/Graphics/SVG/1.1/DTD/svg11-tiny.dtd">
<svg baseProfile="tiny" height="29px" version="1.1" viewBox="0 0 42 29" width="42px" x="0px" xmlns="http://www.w3.org/2000/svg" xmlns:xlink="http://www.w3.org/1999/xlink" y="0px">
<rect fill="none" height="29" width="42" x="0.028" y="0.019"/>
<g>
<linearGradient gradientTransform="matrix(0.4091 0 0 -0.4091 -273.7014 -394.0007)" gradientUnits="userSpaceOnUse" id="SVGID_1_" x1="729.9199" x2="740.403" y1="-999.7827" y2="-1020.4314">
<stop offset="0" style="stop-color:#A2C2DD"/>
<stop offset="0.1" style="stop-color:#A2C2DD"/>
<stop offset="0.7135" style="stop-color:#6C83BB"/>
<stop offset="0.9888" style="stop-color:#003D6D"/>
<stop offset="1" style="stop-color:#003D6D"/>
</linearGradient>
<path d="M29.375,3.53c0,0-0.745,1.021-0.87,1.195c-2.548-0.33-5.899,0.168-7.789,2.05l-4.609,6.069   c0,0,0.32,2.982,0.338,3.144c-0.094,0.135-2.175,3.121-2.175,3.121l0.505,3.192l8.771,3.962c0,0,3.07-4.718,3.268-5.021   c0.292,0.126,1.906,0.822,1.906,0.822l4.254-7.488c0.568-1.374,0.364-1.51,0.635-5.014c0.124-0.921-0.097-2.122-1.213-3.158   c0.139-0.188,0.396-0.539,0.396-0.539c0.727-0.975,0.492-2.268-0.43-2.892C31.409,2.333,30.07,2.583,29.375,3.53z" fill="url(#SVGID_1_)"/>
<g>
<g>
<g>
<g>
<linearGradient gradientTransform="matrix(0.4091 0 0 -0.4091 -273.7014 -394.0007)" gradientUnits="userSpaceOnUse" id="SVGID_2_" x1="738.6543" x2="748.8841" y1="-972.2881" y2="-976.9015">
<stop offset="0" style="stop-color:#FFFFFF"/>
<stop offset="0.35" style="stop-color:#A2C2DD"/>
<stop offset="0.7" style="stop-color:#6C83BB"/>
<stop offset="1" style="stop-color:#003D6D"/>
</linearGradient>
<path d="M29.563,3.666c0.624-0.849,1.824-1.073,2.672-0.503c0.841,0.57,1.004,1.718,0.373,2.565       l-1.072,1.464l-3.566-1.34L29.563,3.666z" fill="url(#SVGID_2_)"/>
<linearGradient gradientTransform="matrix(0.4091 0 0 -0.4091 -273.7014 -394.0007)" gradientUnits="userSpaceOnUse" id="SVGID_3_" x1="744.6895" x2="705.1152" y1="-1020.0557" y2="-990.642">
<stop offset="0" style="stop-color:#FFFFFF"/>
<stop offset="0.35" style="stop-color:#A2C2DD"/>
<stop offset="0.7" style="stop-color:#6C83BB"/>
<stop offset="1" style="stop-color:#003D6D"/>
</linearGradient>
<polygon fill="url(#SVGID_3_)" points="28.624,21.789 16.739,16.553 16.349,12.912 28.602,17.745      "/>
<linearGradient gradientTransform="matrix(0.4091 0 0 -0.4091 -273.7014 -394.0007)" gradientUnits="userSpaceOnUse" id="SVGID_4_" x1="753.6455" x2="734.9947" y1="-983.48" y2="-1020.3806">
<stop offset="0" style="stop-color:#FFFFFF"/>
<stop offset="0.35" style="stop-color:#A2C2DD"/>
<stop offset="0.7" style="stop-color:#6C83BB"/>
<stop offset="1" style="stop-color:#003D6D"/>
</linearGradient>
<path d="M28.607,17.745l4.787-8.411l-0.217,3.574c-0.032,0.53-0.186,1.059-0.402,1.554l-4.161,7.327       L28.607,17.745z" fill="url(#SVGID_4_)"/>
<linearGradient gradientTransform="matrix(0.4091 0 0 -0.4091 -273.7014 -394.0007)" gradientUnits="userSpaceOnUse" id="SVGID_5_" x1="733.8906" x2="729.1246" y1="-1010.3491" y2="-985.8132">
<stop offset="0" style="stop-color:#FFFFFF"/>
<stop offset="0.15" style="stop-color:#FFFFFF"/>
<stop offset="1" style="stop-color:#A2C2DD"/>
</linearGradient>
<path d="M29.55,5.148c-2.278-0.607-6.486-0.385-8.668,1.79l-4.533,5.974l12.253,4.833l4.385-6.858       C34.463,7.604,31.837,5.763,29.55,5.148z" fill="url(#SVGID_5_)"/>
<linearGradient gradientUnits="userSpaceOnUse" id="SVGID_6_" x1="30.6797" x2="13.9257" y1="13.6958" y2="4.3052">
<stop offset="0" style="stop-color:#FFFFFF"/>
<stop offset="0.35" style="stop-color:#A2C2DD"/>
<stop offset="0.7" style="stop-color:#6C83BB"/>
<stop offset="1" style="stop-color:#003D6D"/>
</linearGradient>
<polygon fill="url(#SVGID_6_)" points="31.279,9.348 27.45,15.099 19.376,12.045 23.26,6.766      "/>
<linearGradient gradientTransform="matrix(0.4091 0 0 -0.4091 -273.7014 -394.0007)" gradientUnits="userSpaceOnUse" id="SVGID_7_" x1="752.2275" x2="715.5961" y1="-1024.7061" y2="-965.6235">
<stop offset="0" style="stop-color:#FFFFFF"/>
<stop offset="0.35" style="stop-color:#A2C2DD"/>
<stop offset="0.7" style="stop-color:#6C83BB"/>
<stop offset="1" style="stop-color:#003D6D"/>
</linearGradient>
<path d="M25.763,8.557L25.41,9.021l2.145,0.703l-1.344,1.772l0.761,0.251l0.396-0.525l1.666,0.55       l-1.181,1.557l-1.654-0.549l0.392-0.526l-3.879-1.277l-0.387,0.534c-0.276-0.42-0.582-0.844-0.866-1.219       c0.615-0.08,1.305-0.18,1.97-0.291l-0.344,0.468l2.582,0.848l0.953-1.267l-1.593-0.522l-0.35,0.466       c-0.271-0.419-0.574-0.842-0.856-1.216C24.443,8.696,25.145,8.598,25.763,8.557z" fill="url(#SVGID_7_)"/>
</g>
<g>
<linearGradient gradientTransform="matrix(0.4091 0 0 -0.4091 -273.7014 -394.0007)" gradientUnits="userSpaceOnUse" id="SVGID_8_" x1="722.3789" x2="718.8881" y1="-1022.1436" y2="-1004.1724">
<stop offset="0" style="stop-color:#FFFFFF"/>
<stop offset="0.15" style="stop-color:#FFFFFF"/>
<stop offset="1" style="stop-color:#A2C2DD"/>
</linearGradient>
<polygon fill="url(#SVGID_8_)" points="26.922,17.764 23.419,22.979 14.514,19.164 17.966,14.211      "/>
<polygon fill="#87A8CB" points="20.032,17.729 19.251,18.949 16.958,17.966 17.745,16.776      "/>
<polygon fill="#87A8CB" points="24.365,19.55 23.589,20.825 21.349,19.853 22.127,18.604      "/>
<linearGradient gradientTransform="matrix(0.4091 0 0 -0.4091 -273.7014 -394.0007)" gradientUnits="userSpaceOnUse" id="SVGID_9_" x1="735.4131" x2="727.1234" y1="-990.7583" y2="-1033.274">
<stop offset="0" style="stop-color:#FFFFFF"/>
<stop offset="0.35" style="stop-color:#A2C2DD"/>
<stop offset="0.7" style="stop-color:#6C83BB"/>
<stop offset="1" style="stop-color:#003D6D"/>
</linearGradient>
<polygon fill="url(#SVGID_9_)" points="23.43,22.979 26.922,17.764 26.729,20.955 23.458,25.98      "/>
<linearGradient gradientTransform="matrix(0.4091 0 0 -0.4091 -273.7014 -394.0007)" gradientUnits="userSpaceOnUse" id="SVGID_10_" x1="728.6514" x2="699.5632" y1="-1039.2661" y2="-990.9196">
<stop offset="0" style="stop-color:#FFFFFF"/>
<stop offset="0.35" style="stop-color:#A2C2DD"/>
<stop offset="0.7" style="stop-color:#6C83BB"/>
<stop offset="1" style="stop-color:#003D6D"/>
</linearGradient>
<polygon fill="url(#SVGID_10_)" points="23.464,25.98 14.985,22.143 14.514,19.164 23.435,22.966      "/>
<linearGradient gradientTransform="matrix(0.4091 0 0 -0.4091 -273.7014 -394.0007)" gradientUnits="userSpaceOnUse" id="SVGID_11_" x1="725.4629" x2="702.7155" y1="-1023.2856" y2="-1013.9736">
<stop offset="0" style="stop-color:#FFFFFF"/>
<stop offset="0.05" style="stop-color:#FFFFFF"/>
<stop offset="1" style="stop-color:#A2C2DD"/>
</linearGradient>
<polygon fill="url(#SVGID_11_)" points="22.896,25.119 15.449,21.753 15.282,20.859 22.853,24.189      "/>
</g>
</g>
</g>
</g>
</g>
<path d="M29.365,3.532c0,0-0.745,1.021-0.87,1.195  c-2.548-0.33-5.899,0.168-7.789,2.05l-4.609,6.069c0,0,0.32,2.982,0.338,3.144c-0.094,0.135-2.175,3.121-2.175,3.121l0.505,3.192  l8.771,3.962c0,0,3.07-4.718,3.268-5.021c0.292,0.126,1.906,0.822,1.906,0.822l4.254-7.488c0.568-1.374,0.364-1.51,0.635-5.014  c0.124-0.921-0.097-2.122-1.213-3.158c0.139-0.188,0.396-0.539,0.396-0.539c0.727-0.975,0.492-2.268-0.43-2.892  C31.399,2.335,30.061,2.585,29.365,3.532z" fill="#FFFFFF" fill-opacity="0.6" stroke-opacity="0.6"/>
<g>
<path d="M6.658,17.106c-1.439,0-3.412,0.342-3.912,3.295l-0.074,0.447c0,0,3.317,0,3.711,0   c0.117,0.213,0.296,0.533,0.408,0.738C6.678,21.79,6.5,22.11,6.383,22.323c-0.394,0-3.711,0-3.711,0l0.074,0.445   c0.5,2.955,2.473,3.295,3.912,3.295c1.135,0,2.146-0.949,2.959-1.717c0.439-0.414,0.854-0.805,1.073-0.805H20.85l0.112-0.125   c0.22-0.238,0.725-0.895,0.735-1.814v-0.031c-0.01-0.922-0.516-1.576-0.735-1.816L20.85,19.63H10.69   c-0.22,0-0.634-0.389-1.072-0.803C8.805,18.06,7.793,17.106,6.658,17.106z" fill="#FFFFFF" fill-opacity="0.4" stroke-opacity="0.4"/>
<linearGradient gradientTransform="matrix(0.5 0 0 -0.5 -277.8506 -387.3223)" gradientUnits="userSpaceOnUse" id="SVGID_12_" x1="567.626" x2="589.5333" y1="-804.0522" y2="-830.4073">
<stop offset="0" style="stop-color:#E6EDF3"/>
<stop offset="0.1196" style="stop-color:#CABAD7"/>
<stop offset="0.2719" style="stop-color:#AB7EB8"/>
<stop offset="0.3844" style="stop-color:#9759A4"/>
<stop offset="0.4438" style="stop-color:#8F4B9C"/>
<stop offset="0.5679" style="stop-color:#73357C"/>
<stop offset="0.7242" style="stop-color:#551D5A"/>
<stop offset="0.8533" style="stop-color:#430E45"/>
<stop offset="0.9382" style="stop-color:#3C093D"/>
<stop offset="1" style="stop-color:#3C093D"/>
</linearGradient>
<path d="M21.317,21.585c0-0.004,0.002-0.008,0.002-0.01h-0.003c-0.01-0.803-0.468-1.381-0.635-1.564   c-0.215,0-9.99,0-9.99,0c-0.372,0-0.776-0.381-1.337-0.906c-0.761-0.719-1.713-1.615-2.697-1.615c-1.598,0-3.11,0.469-3.534,2.977   c0.601,0,3.483,0,3.483,0l0.619,1.119l-0.619,1.119c0,0-2.883,0-3.483,0c0.425,2.508,1.937,2.977,3.534,2.977   c0.984,0,1.935-0.895,2.697-1.613c0.561-0.527,0.965-0.908,1.337-0.908c0,0,9.775,0,9.99,0c0.168-0.184,0.627-0.762,0.635-1.563   h0.003C21.319,21.593,21.317,21.589,21.317,21.585z" fill="url(#SVGID_12_)"/>
</g>
<g>
<path d="M32.705,18.255c-0.655-0.653-3.648-3.634-3.648-3.634l-2.03,2.039c0,0,2.98,2.97,3.64,3.627   c-0.659,0.656-3.64,3.627-3.64,3.627l2.031,2.039c0,0,2.991-2.98,3.647-3.635c0.657,0.654,3.648,3.635,3.648,3.635l2.031-2.039   c0,0-2.979-2.971-3.639-3.627c0.66-0.657,3.639-3.627,3.639-3.627l-2.031-2.04C36.354,14.621,33.361,17.602,32.705,18.255z" fill="#FFFFFF"/>
<linearGradient gradientTransform="matrix(0.5 0 0 -0.5 -276.73 -391.0195)" gradientUnits="userSpaceOnUse" id="SVGID_13_" x1="625.9336" x2="612.2861" y1="-801.1196" y2="-842.6556">
<stop offset="0" style="stop-color:#E6EEF4"/>
<stop offset="0.4438" style="stop-color:#C03A3A"/>
<stop offset="0.9382" style="stop-color:#302D02"/>
<stop offset="1" style="stop-color:#302D02"/>
</linearGradient>
<polygon fill="url(#SVGID_13_)" points="37.546,16.658 36.353,15.46 32.705,19.094 29.059,15.46 27.865,16.658 31.507,20.287    27.865,23.915 29.059,25.113 32.705,21.481 36.352,25.113 37.546,23.915 33.904,20.287  "/>
</g>
</svg>
