<?xml version="1.0" encoding="UTF-8"?>
<!DOCTYPE svg PUBLIC "-//W3C//DTD SVG 1.1 Tiny//EN" "http://www.w3.org/Graphics/SVG/1.1/DTD/svg11-tiny.dtd">
<svg width="332" height="82" viewBox="-0.604 -0.193 332 82">
<g fill-opacity="0.7" stroke-opacity="0.7">
<path fill-opacity="0.01" fill="#656B6B" d="M22.396,0.807c0,0,0,8.344,0,10.01c-11.037,0.059-20,9.047-20,20.1v29.775 c0,10.313,7.691,18.869,17.908,19.982c0.016,0.004,0.032,0.008,0.053,0.012c0.031,0.002,0.06,0.014,0.091,0.018 c0,0-0.042-0.01-0.077-0.018c0.164,0.023,0.563,0.043,2.031,0.119l281.888,0.002c12.189,0,22.106-9.92,22.106-22.115V30.916 c0-5.377-2.094-10.43-5.896-14.227c-3.799-3.795-8.846-5.879-14.214-5.873H42.013l-9.992-10.01H22.396z"/>
<path fill-opacity="0.03" fill="#656B6B" d="M23.396,1.807c0,0,0,8.318,0,9.998c-0.445,0-0.894,0-0.894,0 c-10.535,0-19.106,8.574-19.106,19.111v29.775c0,9.846,7.374,18.021,17.152,19.016c0.002,0.002,1.904,0.098,1.904,0.098 l281.837,0.002c11.638,0,21.106-9.473,21.106-21.115V30.916c0-5.109-1.99-9.91-5.604-13.52c-3.608-3.604-8.404-5.586-13.506-5.58 H41.599l-9.953-10.01H23.396z"/>
<path fill-opacity="0.05" fill="#656B6B" d="M24.396,2.807c0,0,0,8.318,0,9.998c-0.856,0-1.894,0-1.894,0 c-9.983,0-18.106,8.125-18.106,18.111v29.775c0,9.33,6.988,17.078,16.254,18.021c0.005,0,1.853,0.094,1.853,0.094h281.787 c11.087,0,20.106-9.023,20.106-20.115V30.916c0-4.842-1.886-9.393-5.31-12.813c-3.42-3.416-7.965-5.293-12.798-5.287H41.185 L31.146,2.807H24.396z"/>
<path fill-opacity="0.07" fill="#656B6B" d="M306.289,13.816H40.771l-10-10.01h-5.375v9.998h-2.894c-9.447,0-17.106,7.66-17.106,17.111 v29.775c0,8.859,6.73,16.148,15.355,17.027c0.576,0.055,1.16,0.088,1.751,0.088h281.787c10.535,0,19.106-8.574,19.106-19.115 V30.916C323.396,21.465,315.737,13.805,306.289,13.816z"/>
<path fill-opacity="0.11" fill="#656B6B" d="M305.289,14.807H40.396l-10-10h-5v8.998h-1.894c-9.447,0-17.106,7.66-17.106,17.111v28.775 c0,8.859,6.73,16.148,15.355,17.027c0.576,0.055,1.16,0.088,1.751,0.088h280.787c9.983,0,18.106-8.127,18.106-18.115V30.916 C322.396,21.465,314.737,14.795,305.289,14.807z"/>
<path fill="#FFFFFF" d="M304.289,13.807H39.395l-12-12h-1.999v11.988h-2.894c-9.447,0-17.106,7.66-17.106,17.111v27.785 c0,9.451,7.659,17.115,17.106,17.115h281.787c9.448,0,17.106-7.664,17.106-17.115V30.906 C321.396,21.455,313.737,13.795,304.289,13.807z"/>
</g>
</svg>