<?xml version="1.0" encoding="UTF-8" standalone="no"?>
<!DOCTYPE svg PUBLIC "-//W3C//DTD SVG 1.1 Tiny//EN" "http://www.w3.org/Graphics/SVG/1.1/DTD/svg11-tiny.dtd">
<svg xmlns="http://www.w3.org/2000/svg" xmlns:xlink="http://www.w3.org/1999/xlink" width="40" height="50" viewBox="0 0 40 50">
<rect fill="none" height="50" width="40"/>
<path d="M38.199,49.5H1.801c-0.719,0-1.301-0.712-1.301-1.591L0.542,2.09c0-0.878,0.581-1.59,1.3-1.59h29.859 c0.716,0,1.3,0.712,1.3,1.59L39.5,47.909C39.5,48.788,38.916,49.5,38.199,49.5L38.199,49.5z" fill="#444444"/>
<path d="M39.422,48.434L33.012,3.23l-0.011-0.07V3.09c0-0.382-0.212-0.588-0.299-0.588H2.842 c-0.103,0-0.299,0.229-0.299,0.588L2.5,48.91c0,0.361,0.198,0.59,0.301,0.59h35.398C38.766,49.5,39.243,49.055,39.422,48.434z" fill="#6E99CC"/>
</svg>