<?xml version="1.0" encoding="UTF-8"?>
<!DOCTYPE svg PUBLIC "-//W3C//DTD SVG 1.1 Tiny//EN" "http://www.w3.org/Graphics/SVG/1.1/DTD/svg11-tiny.dtd">
<svg baseProfile="tiny" height="32" version="1.1" viewBox="-1 -1 38 32" width="38" xmlns="http://www.w3.org/2000/svg" xmlns:xlink="http://www.w3.org/1999/xlink">
<g>
<rect fill="none" height="32" width="38" x="-1" y="-1"/>
<g>
<g>
<path d="M28.37,14.926V13.29h-1.438c1.237-0.661,2.092-1.95,2.092-3.449c0-2.166-1.763-3.926-3.927-3.926     c-1.657,0-3.071,1.036-3.646,2.492c-0.174-0.88-0.605-1.689-1.254-2.337c-0.865-0.866-2.017-1.342-3.238-1.342     c-1.226,0-2.375,0.476-3.238,1.342c-0.864,0.863-1.342,2.015-1.342,3.238c0,0.097,0.012,0.188,0.021,0.281     c0.69-0.149,1.344-0.211,1.949-0.208c0-0.024-0.006-0.049-0.006-0.073c0-0.699,0.271-1.356,0.766-1.852s1.151-0.768,1.852-0.768     s1.355,0.272,1.853,0.768c0.493,0.494,0.766,1.15,0.766,1.852c0,0.699-0.271,1.355-0.766,1.852     c-0.011,0.009-0.021,0.014-0.029,0.022c0.233,0.24,0.473,0.516,0.701,0.858c0.17,0.252,0.286,0.529,0.377,0.791     c0.115-0.091,0.231-0.181,0.338-0.285c0.512-0.513,0.869-1.13,1.09-1.799c0.266,1.105,0.996,2.021,1.975,2.541h-3.268     c0.031,0.125,0.051,0.237,0.066,0.327l0.012,0.074l0.021,0.242l-0.01,0.169c-0.027,0.406-0.133,0.789-0.291,1.149     c2.59,0,5.68,0,6.613,0c0,1.251,0,4.188,0,5.438c-1.514,0-8.709,0-10.224,0c0-0.445,0-1.11,0-1.834     c-0.7,0.379-1.354,0.563-1.965,0.553v3.245h14.15v-2.101h3.437V13.93L28.37,14.926z M25.099,11.804     c-1.082,0-1.963-0.881-1.963-1.963s0.881-1.963,1.963-1.963c1.083,0,1.964,0.881,1.964,1.963S26.182,11.804,25.099,11.804z      M29.843,18.592c-0.459,0-1.008,0-1.473,0v-1.623c0.414-0.12,0.961-0.276,1.473-0.426C29.843,17.405,29.843,17.874,29.843,18.592     z"/>
</g>
<radialGradient cx="-170.1172" cy="282.3154" gradientTransform="matrix(2.6316 0 0 -2.6316 456.1647 749.7325)" gradientUnits="userSpaceOnUse" id="XMLID_2_" r="8.0338">
<stop offset="0" style="stop-color:#E6EEF4"/>
<stop offset="0.0772" style="stop-color:#C6DCC1"/>
<stop offset="0.211" style="stop-color:#91C06F"/>
<stop offset="0.321" style="stop-color:#6BAB33"/>
<stop offset="0.4014" style="stop-color:#539E0E"/>
<stop offset="0.4438" style="stop-color:#4A9900"/>
<stop offset="0.5605" style="stop-color:#398419"/>
<stop offset="0.746" style="stop-color:#22663B"/>
<stop offset="0.8992" style="stop-color:#135550"/>
<stop offset="1" style="stop-color:#0E4E58"/>
</radialGradient>
<path d="M18.157,12.955c-0.439-0.661-0.963-1.062-1.318-1.333c-1.014-0.775-5.111-1.584-9.35,2.652    c-2.57,2.579-3.295,5.091-3.295,6.891c0,1.166,0.303,2.033,0.604,2.428c0.314,0.408,0.703,0.917,1.369,1.358    c0.195,0.132,0.537,0.249,0.904,0.314l0.084,0.004c0.666-0.041,1.399-0.555,2.381-1.662c0.324-0.364,1.377-1.624,1.377-2.508    c0,0-0.004-0.105-0.006-0.131c-0.009-0.021-0.017-0.043-0.017-0.043c-0.012-0.035-0.125-0.357-0.629-0.758    c-0.313-0.249-0.78-0.426-1.389-0.523l-0.287-0.047l0.002-0.291c0.014-1.461,2.467-3.915,3.922-3.923l0.291-0.001l0.047,0.288    c0.097,0.604,0.271,1.072,0.523,1.389c0.369,0.467,0.682,0.604,0.838,0.649c0.592,0.056,1.561-0.459,2.598-1.376    c1.107-0.979,1.622-1.715,1.664-2.391c0,0,0-0.021,0.002-0.042c-0.002-0.021-0.004-0.04-0.004-0.04    C18.433,13.647,18.329,13.215,18.157,12.955z" fill="url(#XMLID_2_)"/>
</g>
</g>
</svg>
