<?xml version="1.0" encoding="UTF-8"?>
<!DOCTYPE svg PUBLIC "-//W3C//DTD SVG 1.1 Tiny//EN" "http://www.w3.org/Graphics/SVG/1.1/DTD/svg11-tiny.dtd">
<svg width="60" height="80" viewBox="0 0 60 80">
<linearGradient id="_54" gradientUnits="userSpaceOnUse" x1="30.95" y1="40.67" x2="43.03" y2="64.47">
<stop stop-color="#A2C2DD" offset="0.1"/>
<stop stop-color="#6C83BB" offset="0.71"/>
<stop stop-color="#003D6D" offset="0.99"/>
</linearGradient>
<path fill="url(#_54)" d="M30.412,11.515c-0.827,0.05-1.588,0.625-1.968,0.963c-0.683,0.542-1.109,1.907-1.173,2.48 c-0.255,1.901,0.566,3.018,0.566,3.018l2.276,0.784l0.153-0.118c1.187-0.522,3.968,0.172,4.981,1.482 c0.008,0.261,0.146,4.736,0.146,4.736s0.481,0.339,0.676,0.476c0.002,0.31,0.043,2.401,0.043,2.773c0,1.19-0.133,2.595-0.776,5.209 c-0.091,0.092-1.013,1.018-1.013,1.018s-0.098,0.505-0.153,0.818c-0.622-0.119-8.916-1.699-9.427-1.797 c-0.007-0.455-0.033-2.37-0.033-2.37c0-1.095,0.839-2.565,1.2-3.146c0,0.002,0.812-1.019,0.812-1.019 c1.271-1.385,1.606-3.085,0.984-5.046c-0.861-3.417-5.066-4.887-5.066-4.887l-2.356,0.729c0,0,1.342,4.973,1.422,5.268 c-0.232,0.481-0.537,0.88-0.913,1.181c-0.766,0.017-1.859-0.447-2.319-0.99c-0.06-0.189-1.531-4.889-1.531-4.889l-2.305,0.665 c-1.812,1.274-2.441,3.314-2.441,5.107c0,1.243,0.303,2.368,0.723,3.036l1.333,1.636c0.901,0.998,1.816,2.029,1.999,3.106 c-0.726-0.138-4.084-0.778-4.084-0.778l-2.208,0.405c0,0-0.061,2.908-0.075,3.57c-0.663-0.143-3.589-0.774-3.589-0.774l-1.73,0.579 L9.46,55.111l14.43,15.951l19.252-6.834l8.994-25.648c0,0-10.395-1.979-10.994-2.095c0.037-0.296,0.096-0.769,0.096-0.769 s-0.6-1.396-0.613-1.429c-0.141-3.584,2.077-7.074,2.139-7.195c0.123-0.1,0.94-0.818,0.94-0.818s0.325-0.99,0.491-1.477 c0.779,0.51,3.043,2.464,5.68,9.205l0.107,0.294l0.416-0.077c0.355-0.099,2.432-3.844,2.432-3.844 c-0.877-8.067-4.516-12.758-12.391-16.128c-0.561-0.179-1.14-0.333-1.806-0.332c-0.012,0.012-1.188,0.188-1.188,0.188 c-0.963,0.25-2.489,0.213-4.353-1.29c-0.013-0.07-0.026-0.139-0.026-0.139C33,12.468,30.412,11.515,30.412,11.515z"/>
<linearGradient id="_55" gradientUnits="userSpaceOnUse" x1="32.94" y1="21.61" x2="26.87" y2="49.88">
<stop stop-color="#FFFFFF" offset="0"/>
<stop stop-color="#A2C2DD" offset="0.35"/>
<stop stop-color="#6C83BB" offset="0.7"/>
<stop stop-color="#003D6D" offset="1"/>
</linearGradient>
<polygon fill="url(#_55)" points="10.299,31.717 49.419,40.228 42.908,63.896 9.805,54.881 "/>
<linearGradient id="_56" gradientUnits="userSpaceOnUse" x1="41.98" y1="25.41" x2="14.59" y2="49.94">
<stop stop-color="#FFFFFF" offset="0.05"/>
<stop stop-color="#A2C2DD" offset="1"/>
</linearGradient>
<polygon fill="url(#_56)" points="10.299,31.66 49.419,40.171 51.672,38.848 12.163,31.318 "/>
<linearGradient id="_57" gradientUnits="userSpaceOnUse" x1="47.73" y1="36.57" x2="47.07" y2="58.9">
<stop stop-color="#FFFFFF" offset="0"/>
<stop stop-color="#A2C2DD" offset="0.35"/>
<stop stop-color="#6C83BB" offset="0.7"/>
<stop stop-color="#003D6D" offset="1"/>
</linearGradient>
<polygon fill="url(#_57)" points="42.908,63.896 49.419,40.171 51.672,38.848 "/>
<linearGradient id="_58" gradientUnits="userSpaceOnUse" x1="38.21" y1="2.67" x2="40.96" y2="36.67">
<stop stop-color="#FFFFFF" offset="0"/>
<stop stop-color="#A2C2DD" offset="0.35"/>
<stop stop-color="#6C83BB" offset="0.7"/>
<stop stop-color="#003D6D" offset="1"/>
</linearGradient>
<path fill="url(#_58)" d="M40.234,35.435c0.072-5.381,1.072-6.079,2.373-8.817L40.3,26.585c0,0-2.442,6.667-1.842,8.994 L40.234,35.435z"/>
<linearGradient id="_59" gradientUnits="userSpaceOnUse" x1="33.4" y1="13.99" x2="41.91" y2="43.49">
<stop stop-color="#FFFFFF" offset="0"/>
<stop stop-color="#A2C2DD" offset="0.35"/>
<stop stop-color="#6C83BB" offset="0.7"/>
<stop stop-color="#003D6D" offset="1"/>
</linearGradient>
<path fill="url(#_59)" d="M38.857,35.697c-0.438-4.703,2.018-8.805,2.018-8.805l-4.454-1.916 c-0.11,3.023,0.521,3.642-0.946,9.227L38.857,35.697z"/>
<linearGradient id="_60" gradientUnits="userSpaceOnUse" x1="32.71" y1="1.02" x2="42.21" y2="34.02">
<stop stop-color="#FFFFFF" offset="0.15"/>
<stop stop-color="#A2C2DD" offset="1"/>
</linearGradient>
<path fill="url(#_60)" d="M40.053,14.641c-0.684-0.212-1.012-0.588-2.521-0.196c-1.113,0.289-2.794,0.209-4.761-1.428 l-0.051-0.277l-2.058-0.748c-1.058-0.164-4.136,2.08-2.355,5.757l1.764,0.601l0.677-0.372c1.929-0.722,4.394,1.164,4.838,2 l0.146,4.701c1.14,0.948,5.08,2.888,6.014,2.538c0.936-0.353,1.641-1.119,1.641-1.119l0.61-1.813c0,0,2.823,0.952,6.192,9.596 c0,0,0.123-0.112,0.787-1.55C50.98,32.331,48.258,19.313,40.053,14.641z"/>
<path fill="#7D97C6" d="M41.408,27.245c0.439,0.036,0.992-0.166,1.976-1.149l0.613-1.813c-0.858-0.255-1.597-0.372-1.858,0.684 C41.879,26.022,41.408,27.245,41.408,27.245z"/>
<linearGradient id="_61" gradientUnits="userSpaceOnUse" x1="44.4" y1="21.11" x2="48.2" y2="31.04">
<stop stop-color="#FFFFFF" offset="0.15"/>
<stop stop-color="#A2C2DD" offset="1"/>
</linearGradient>
<path fill="url(#_61)" d="M50.193,33.878c0,0,0.328,0.226,0.99-1.212c0,0,0.438-3.741-2.188-9.01 c1.205,2.13,2.424,3.87,2.771,8.081l0.698-1.319c-0.765-6.716-3.384-12.084-12.174-15.846c-0.442-0.141-1.021-0.305-1.666-0.303 l-1.543,1.747C48.823,20.733,50.137,30.578,50.193,33.878"/>
<path fill="#88A4CD" d="M35.52,17.46c0,0-2.965-1.655-5.5-1.685l0.068,2.56c1.33-0.623,4.406,0.113,5.51,1.642L35.52,17.46z"/>
<path fill="#B1CCE2" d="M35.535,17.461c-1.094-0.574-3.555-1.66-5.499-1.697l-2.44-0.665c0.133-0.772,0.435-1.73,1.081-2.352 l2.304,0.68c0.728,0.622,3.271,2.137,6.111,2.588L35.535,17.461z"/>
<linearGradient id="_62" gradientUnits="userSpaceOnUse" x1="28.68" y1="12.64" x2="32.63" y2="12.64">
<stop stop-color="#FFFFFF" offset="0.15"/>
<stop stop-color="#A2C2DD" offset="1"/>
</linearGradient>
<path fill="url(#_62)" d="M32.635,12.706l-1.656,0.706l-2.302-0.672c0.51-0.454,1.16-0.839,1.756-0.875L32.635,12.706z"/>
<path fill="#CBDDEC" d="M30.979,13.412c0,0-0.385,1.521-0.952,2.347l-2.42-0.653c0.012-0.46,0.434-1.86,1.07-2.366L30.979,13.412z"/>
<path fill="#B1CCE2" d="M27.607,15.105l2.42,0.653c0.139,0.49,0.019,1.557,0.072,2.627l-2.03-0.699 C27.554,16.867,27.535,15.728,27.607,15.105z"/>
<linearGradient id="_63" gradientUnits="userSpaceOnUse" x1="31.2" y1="25.91" x2="33.7" y2="41.65">
<stop stop-color="#FFFFFF" offset="0"/>
<stop stop-color="#A2C2DD" offset="0.35"/>
<stop stop-color="#6C83BB" offset="0.7"/>
<stop stop-color="#003D6D" offset="1"/>
</linearGradient>
<path fill="url(#_63)" d="M35.634,33.515c0.901,1.435,2.563,1.718,4.515,1.006l0.731,1.246l-3.62,28.946l-8.197-1.21 l5.583-28.994L35.634,33.515z"/>
<linearGradient id="_64" gradientUnits="userSpaceOnUse" x1="34.65" y1="34.97" x2="40.87" y2="34.97">
<stop stop-color="#FFFFFF" offset="0.15"/>
<stop stop-color="#A2C2DD" offset="1"/>
</linearGradient>
<path fill="url(#_64)" d="M34.646,34.509l0.979-0.993c1.146,1.12,2.646,1.663,4.664,0.892l0.583,1.361 C40.318,36.653,36.445,36.98,34.646,34.509z"/>
<path fill="#315A79" d="M22.799,52.732l1.854-0.627c-0.005,0.006-0.02,0.021-0.04,0.047l-1.857,0.631 C22.78,52.759,22.792,52.742,22.799,52.732"/>
<polygon fill="#AFCBEF" points="14.841,19.134 16.708,18.618 18.178,23.314 16.322,23.944 "/>
<linearGradient id="_65" gradientUnits="userSpaceOnUse" x1="23.17" y1="11.78" x2="25" y2="27.97">
<stop stop-color="#E6EEF4" offset="0"/>
<stop stop-color="#337CE5" offset="0.44"/>
<stop stop-color="#003D6D" offset="0.94"/>
</linearGradient>
<path fill="url(#_65)" d="M25.734,27.438c0.416-0.459,2.688-2.313,1.636-5.554c-0.984-3.105-3.859-4.241-4.838-4.658 l-1.854,0.628c2.646,0.988,4.629,3.19,4.98,5.706c0.35,2.517-1.586,4.038-2.002,4.565L25.734,27.438z"/>
<linearGradient id="_66" gradientUnits="userSpaceOnUse" x1="24.05" y1="18.25" x2="24.05" y2="31.25">
<stop stop-color="#E6EEF4" offset="0"/>
<stop stop-color="#337CE5" offset="0.44"/>
<stop stop-color="#003D6D" offset="0.94"/>
</linearGradient>
<path fill="url(#_66)" d="M24.357,30.994c0-1.532,1.429-3.602,1.416-3.596l-2.006,0.637 c-0.088,0.087-1.532,1.977-1.432,3.635c0,0,0.45,20.069,0.464,21.063l1.854-0.627C24.639,51.107,24.357,30.994,24.357,30.994z"/>
<path fill="#D6E4F3" d="M16.322,23.944l1.85-0.663c0.577,0.71,1.962,1.231,2.815,1.129C20.299,25.299,17.666,25.671,16.322,23.944z "/>
<linearGradient id="_67" gradientUnits="userSpaceOnUse" x1="19.18" y1="6.25" x2="19.18" y2="38.25">
<stop stop-color="#D6E4F3" offset="0"/>
<stop stop-color="#337CE5" offset="1"/>
</linearGradient>
<path fill="url(#_67)" d="M20.694,17.841c4.886,1.749,6.269,6.759,4.171,9.042c-2.098,2.287-2.382,3.614-2.366,4.747 c0.017,1.14,0.296,21.112,0.296,21.112l-5.879-0.245l-0.29-20.698c-0.231-1.868-2.479-3.509-3.413-4.987 c-0.934-1.485-1.289-5.623,1.623-7.67l1.484,4.809c0.613,0.607,1.412,0.988,2.229,1.09c1.366,0.167,2.792-0.442,3.534-2.088 L20.694,17.841z"/>
<linearGradient id="_68" gradientUnits="userSpaceOnUse" x1="34.97" y1="7.26" x2="19.22" y2="67.26">
<stop stop-color="#FFFFFF" offset="0.05"/>
<stop stop-color="#A2C2DD" offset="1"/>
</linearGradient>
<polygon fill="url(#_68)" points="9.777,54.939 23.994,70.655 42.867,63.956 42.874,43.747 4.926,34.934 "/>
<polygon fill="url(#_56)" points="4.979,34.971 42.874,43.747 44.718,42.813 6.312,34.525 "/>
<polygon fill="url(#_57)" points="42.874,43.747 42.867,63.923 44.718,42.813 "/>
<linearGradient id="_71" gradientUnits="userSpaceOnUse" x1="-2.08" y1="12.13" x2="27.04" y2="80.99">
<stop stop-color="#E6EEF4" offset="0"/>
<stop stop-color="#A3740A" offset="0.44"/>
<stop stop-color="#474105" offset="0.94"/>
</linearGradient>
<polygon fill="url(#_71)" points="8.125,37.836 7.809,39.051 10.266,39.631 10.529,38.39 "/>
<polygon fill="url(#_71)" points="13.12,38.919 12.804,40.134 15.261,40.714 15.524,39.474 "/>
<polygon fill="url(#_71)" points="18.061,40.056 17.745,41.271 20.202,41.852 20.465,40.609 "/>
<polygon fill="url(#_71)" points="22.977,41.191 22.66,42.406 25.118,42.988 25.382,41.746 "/>
<polygon fill="url(#_71)" points="27.972,42.302 27.654,43.516 30.112,44.098 30.376,42.855 "/>
<polygon fill="url(#_71)" points="32.887,43.464 32.568,44.682 35.027,45.261 35.291,44.018 "/>
<polygon fill="url(#_71)" points="37.83,44.547 37.512,45.764 39.971,46.346 40.234,45.102 "/>
<linearGradient id="_78" gradientUnits="userSpaceOnUse" x1="13.32" y1="5.8" x2="42.36" y2="74.48">
<stop stop-color="#E6EEF4" offset="0"/>
<stop stop-color="#A3740A" offset="0.44"/>
<stop stop-color="#474105" offset="0.94"/>
</linearGradient>
<polygon fill="url(#_78)" points="35.73,61.945 36.18,63.119 38.518,62.161 38.009,60.996 "/>
<polygon fill="url(#_71)" points="31.025,63.822 31.477,64.995 33.813,64.038 33.305,62.873 "/>
<polygon fill="url(#_71)" points="26.323,65.697 26.772,66.87 29.108,65.912 28.6,64.747 "/>
<polygon fill="url(#_71)" points="24.658,66.352 23.771,67.241 22.022,65.42 22.958,64.561 "/>
<polygon fill="url(#_71)" points="21.197,62.65 20.31,63.541 18.56,61.721 19.497,60.861 "/>
<polygon fill="url(#_71)" points="17.707,58.979 16.821,59.868 15.073,58.048 16.008,57.188 "/>
<polygon fill="url(#_71)" points="14.219,55.279 13.333,56.169 11.583,54.348 12.521,53.488 "/>
<polygon fill="url(#_71)" points="40.012,50.236 41.266,50.318 41.372,47.794 40.104,47.77 "/>
<polygon fill="url(#_71)" points="39.826,55.283 41.08,55.363 41.188,52.841 39.917,52.814 "/>
<polygon fill="url(#_71)" points="11.461,51.563 10.236,51.848 9.722,49.375 10.968,49.145 "/>
<polygon fill="url(#_71)" points="10.402,46.646 9.178,46.934 8.664,44.459 9.914,44.229 "/>
<polygon fill="url(#_71)" points="9.346,41.652 8.123,41.938 7.606,39.465 8.855,39.234 "/>
<polygon fill="url(#_71)" points="39.668,60.355 40.922,60.438 41.027,57.914 39.758,57.891 "/>
</svg>