<?xml version="1.0" encoding="UTF-8"?>
<!DOCTYPE svg PUBLIC "-//W3C//DTD SVG 1.1 Tiny//EN" "http://www.w3.org/Graphics/SVG/1.1/DTD/svg11-tiny.dtd">
<svg baseProfile="tiny" height="29px" version="1.1" viewBox="0 0 42 29" width="42px" x="0px" xmlns="http://www.w3.org/2000/svg" xmlns:xlink="http://www.w3.org/1999/xlink" y="0px">
<rect fill="none" height="29" width="42" x="0.012" y="0.004"/>
<g>
<g>
<linearGradient gradientTransform="matrix(1 0 0 -1 0 28)" gradientUnits="userSpaceOnUse" id="SVGID_1_" x1="27.083" x2="30.6058" y1="10.8193" y2="6.7216">
<stop offset="0" style="stop-color:#AABBD7"/>
<stop offset="0.2634" style="stop-color:#92A5CC"/>
<stop offset="0.7135" style="stop-color:#6C83BB"/>
<stop offset="0.7571" style="stop-color:#637DB5"/>
<stop offset="0.8268" style="stop-color:#4C6EA4"/>
<stop offset="0.9134" style="stop-color:#265689"/>
<stop offset="0.9888" style="stop-color:#003D6D"/>
<stop offset="1" style="stop-color:#003D6D"/>
</linearGradient>
<path d="M20.195,3.317c0.004-0.001,0.008,0.01,0.01,0.009c-2.329,0.934-3.74,3.268-3.777,6.239l0.072,6.882    c-0.056,4.609,2.808,8.629,6.385,8.955c0.824,0.074,1.645-0.002,2.432-0.23c2.648-0.646,6.203-2.105,6.363-7.275l0.182-7.394    c-0.063-3.079-1.289-5.531-3.449-6.917C26.143,2.131,23.148,2.034,20.195,3.317z" fill="url(#SVGID_1_)"/>
<g>
<g>
<linearGradient gradientTransform="matrix(1 0 0 -1 0 28)" gradientUnits="userSpaceOnUse" id="SVGID_2_" x1="25.9287" x2="26.0655" y1="25.9365" y2="3.1941">
<stop offset="0" style="stop-color:#FFFFFF"/>
<stop offset="0.0804" style="stop-color:#E4EDF5"/>
<stop offset="0.2367" style="stop-color:#B4CEE4"/>
<stop offset="0.3146" style="stop-color:#A2C2DD"/>
<stop offset="0.4547" style="stop-color:#8EABD1"/>
<stop offset="0.6573" style="stop-color:#6C83BB"/>
<stop offset="0.7036" style="stop-color:#637DB5"/>
<stop offset="0.7776" style="stop-color:#4C6EA4"/>
<stop offset="0.8695" style="stop-color:#265689"/>
<stop offset="0.9494" style="stop-color:#003D6D"/>
<stop offset="1" style="stop-color:#003D6D"/>
</linearGradient>
<path d="M20.292,3.536c5.592-2.433,11.194,0.327,11.331,6.962l-0.182,7.391      c-0.148,4.824-3.279,6.463-6.813,7.195L20.292,3.536z" fill="url(#SVGID_2_)"/>
<linearGradient gradientTransform="matrix(1 0 0 -1 0 28)" gradientUnits="userSpaceOnUse" id="SVGID_3_" x1="14.8799" x2="24.5137" y1="31.0137" y2="11.3528">
<stop offset="0" style="stop-color:#FFFFFF"/>
<stop offset="0.1745" style="stop-color:#F8FBFD"/>
<stop offset="0.4209" style="stop-color:#E6EFF6"/>
<stop offset="0.7103" style="stop-color:#C8DBEB"/>
<stop offset="1" style="stop-color:#A2C2DD"/>
</linearGradient>
<path d="M23.313,3.231c4.184,0.519,6.547,3.948,6.447,9.02l-0.209,6.578      c-0.053,4.281-3.221,6.648-6.646,6.338c-3.615-0.33-6.22-4.439-6.168-8.723l-0.07-6.875C16.718,5.29,19.708,2.659,23.313,3.231z      " fill="url(#SVGID_3_)"/>
<path d="M27.318,11.386l-3.295,3.074l3.275,4.426l-4.816,4.486l0.014-7.488l-2.334,2.174l-0.848-1.213      l2.95-2.748l-2.933-3.961l0.852-0.861l2.321,3.131l0.025-7.483L27.318,11.386z M23.738,8.564      c-0.004,1.459-0.01,2.738-0.018,4.171c0.83-0.768,1.605-1.494,1.838-1.711C25.127,10.442,24.52,9.622,23.738,8.564       M25.541,18.525c-0.232-0.314-1.004-1.357-1.826-2.467c-0.002,1.436-0.002,2.715-0.006,4.172      C24.496,19.498,25.105,18.928,25.541,18.525" fill="#FFFFFF"/>
</g>
</g>
</g>
</g>
<path d="M20.212,3.317c0.004-0.001,0.008,0.01,0.01,0.009c-2.329,0.934-3.74,3.268-3.777,6.239  l0.072,6.882c-0.056,4.609,2.808,8.629,6.385,8.955c0.824,0.074,1.645-0.002,2.432-0.23c2.648-0.646,6.203-2.105,6.363-7.275  l0.182-7.394c-0.063-3.079-1.289-5.531-3.449-6.917C26.16,2.131,23.166,2.034,20.212,3.317z" fill="#FFFFFF" fill-opacity="0.4" stroke-opacity="0.4"/>
<g>
<path d="M6.642,17.092c-1.439,0-3.412,0.342-3.912,3.295l-0.074,0.447c0,0,3.317,0,3.711,0   c0.117,0.213,0.296,0.533,0.408,0.738c-0.113,0.203-0.291,0.523-0.408,0.736c-0.394,0-3.711,0-3.711,0l0.074,0.445   c0.5,2.955,2.473,3.295,3.912,3.295c1.135,0,2.146-0.949,2.959-1.717c0.439-0.414,0.854-0.805,1.073-0.805h10.159l0.112-0.125   c0.22-0.238,0.724-0.895,0.736-1.814v-0.031c-0.01-0.922-0.516-1.576-0.736-1.816l-0.112-0.125H10.674   c-0.22,0-0.634-0.389-1.072-0.803C8.789,18.045,7.777,17.092,6.642,17.092z" fill="#FFFFFF" fill-opacity="0.4" stroke-opacity="0.4"/>
<linearGradient gradientTransform="matrix(0.5 0 0 -0.5 -277.8506 -387.3223)" gradientUnits="userSpaceOnUse" id="SVGID_4_" x1="567.5947" x2="589.5021" y1="-804.0225" y2="-830.3775">
<stop offset="0" style="stop-color:#E6EDF3"/>
<stop offset="0.1196" style="stop-color:#CABAD7"/>
<stop offset="0.2719" style="stop-color:#AB7EB8"/>
<stop offset="0.3844" style="stop-color:#9759A4"/>
<stop offset="0.4438" style="stop-color:#8F4B9C"/>
<stop offset="0.5679" style="stop-color:#73357C"/>
<stop offset="0.7242" style="stop-color:#551D5A"/>
<stop offset="0.8533" style="stop-color:#430E45"/>
<stop offset="0.9382" style="stop-color:#3C093D"/>
<stop offset="1" style="stop-color:#3C093D"/>
</linearGradient>
<path d="M21.301,21.57c0-0.004,0.002-0.008,0.002-0.01H21.3c-0.01-0.803-0.468-1.381-0.635-1.564   c-0.215,0-9.99,0-9.99,0c-0.372,0-0.776-0.381-1.337-0.906c-0.761-0.719-1.713-1.615-2.697-1.615c-1.598,0-3.11,0.469-3.534,2.977   c0.601,0,3.483,0,3.483,0l0.619,1.119L6.59,22.689c0,0-2.883,0-3.483,0c0.425,2.508,1.937,2.977,3.534,2.977   c0.984,0,1.935-0.895,2.697-1.613c0.561-0.527,0.965-0.908,1.337-0.908c0,0,9.775,0,9.99,0c0.168-0.184,0.627-0.762,0.635-1.563   h0.003C21.303,21.578,21.301,21.574,21.301,21.57z" fill="url(#SVGID_4_)"/>
</g>
<g>
<path d="M32.664,19.408c-0.656-0.652-3.648-3.633-3.648-3.633l-2.031,2.039c0,0,2.98,2.969,3.641,3.627   c-0.66,0.656-3.641,3.627-3.641,3.627l2.031,2.039c0,0,2.992-2.98,3.648-3.635c0.656,0.654,3.648,3.635,3.648,3.635l2.031-2.039   c0,0-2.979-2.971-3.639-3.627c0.66-0.658,3.639-3.627,3.639-3.627l-2.031-2.041C36.313,15.775,33.32,18.756,32.664,19.408z" fill="#FFFFFF"/>
<linearGradient gradientTransform="matrix(0.5 0 0 -0.5 -276.73 -391.0195)" gradientUnits="userSpaceOnUse" id="SVGID_5_" x1="625.8506" x2="612.2025" y1="-803.4268" y2="-844.9645">
<stop offset="0" style="stop-color:#E6EEF4"/>
<stop offset="0.4438" style="stop-color:#C03A3A"/>
<stop offset="0.9382" style="stop-color:#302D02"/>
<stop offset="1" style="stop-color:#302D02"/>
</linearGradient>
<polygon fill="url(#SVGID_5_)" points="37.504,17.813 36.311,16.613 32.664,20.248 29.018,16.613 27.824,17.813 31.465,21.441    27.824,25.068 29.018,26.268 32.664,22.635 36.311,26.268 37.504,25.068 33.863,21.441  "/>
</g>
</svg>
