<?xml version="1.0" encoding="UTF-8"?>
<!DOCTYPE svg PUBLIC "-//W3C//DTD SVG 1.1 Tiny//EN" "http://www.w3.org/Graphics/SVG/1.1/DTD/svg11-tiny.dtd">
<svg width="84" height="58" viewBox="-1.41 0.183 84 58">
<linearGradient id="_15" gradientUnits="userSpaceOnUse" x1="48.14" y1="29.82" x2="57.99" y2="49.22">
<stop stop-color="#A2C2DD" offset="0.1"/>
<stop stop-color="#6C83BB" offset="0.71"/>
<stop stop-color="#003D6D" offset="0.99"/>
</linearGradient>
<path fill="url(#_15)" d="M44.982,9.094c0,0-5.714,8.958-6.188,9.701c-2.576-1.451-6.047,2.287-3.693,5.149 c-0.311,0.502-4.009,6.477-4.009,6.477c-4.685,7.346-1.648,14.376,4.591,15.944c1.217,1.638,2.982,3.012,4.812,3.767 c0.036,0.489,0.265,3.566,0.265,3.566c1.109,0.853,4.454,1.229,6.125,0.972l3.82-1.896c0,0-0.081-3.327-0.092-3.784 c3.721-2.331,4.232-6.119,4.232-9.191c0,0,0-8.675,0-9.156c1.515-1.055,2.041-3.663,1.361-5.273 c0.018-0.012,4.097-6.357,4.097-6.357c3.159-4.953,3.147-11.042-1.923-14.295C54.756,2.39,49.019,2.769,44.982,9.094z M50.408,35.709c0,1.661,0,3.89,0,3.89c0,3.078-0.312,6.426-2.532,8.074c-3.548,0.304-5.443-0.96-6.327-1.862 C45.853,43.835,47.741,40.029,50.408,35.709z"/>
<linearGradient id="_16" gradientUnits="userSpaceOnUse" x1="40.68" y1="45.16" x2="49.76" y2="52.12">
<stop stop-color="#A2C2DD" offset="0.1"/>
<stop stop-color="#6C83BB" offset="0.71"/>
<stop stop-color="#003D6D" offset="0.99"/>
</linearGradient>
<polygon fill="url(#_16)" points="46.747,53.97 50.205,52.242 50.106,48.223 46.622,49.193 "/>
<linearGradient id="_17" gradientUnits="userSpaceOnUse" x1="36.89" y1="49.62" x2="52.58" y2="52.68">
<stop stop-color="#FFFFFF" offset="0"/>
<stop stop-color="#A2C2DD" offset="0.35"/>
<stop stop-color="#6C83BB" offset="0.7"/>
<stop stop-color="#003D6D" offset="1"/>
</linearGradient>
<path fill="url(#_17)" d="M40.905,48.462l0.352,4.739c0.71,0.52,3.853,0.997,5.533,0.747l-0.096-5.362L40.905,48.462z"/>
<linearGradient id="_18" gradientUnits="userSpaceOnUse" x1="38.42" y1="18.39" x2="33.6" y2="24.76">
<stop stop-color="#E6EEF4" offset="0"/>
<stop stop-color="#C03A3A" offset="0.44"/>
<stop stop-color="#302D02" offset="0.94"/>
</linearGradient>
<path fill="url(#_18)" d="M39.097,19.485c-2.401-2.325-6.06,2.161-3.229,4.505L39.097,19.485z"/>
<path fill="#7B341F" d="M39.081,19.545l-2.752,3.77C35.372,21.193,37.517,18.48,39.081,19.545z"/>
<linearGradient id="_19" gradientUnits="userSpaceOnUse" x1="44.88" y1="10.12" x2="55.33" y2="18.53">
<stop stop-color="#FFFFFF" offset="0.05"/>
<stop stop-color="#A2C2DD" offset="1"/>
</linearGradient>
<path fill="url(#_19)" d="M53.486,28.587l6.396-9.994c3.65-5.706,2.181-10.927-1.779-13.462 c-3.6-2.302-8.985-1.579-12.689,4.209l-7.141,11.163L53.486,28.587z"/>
<linearGradient id="_20" gradientUnits="userSpaceOnUse" x1="37.27" y1="18.19" x2="53.19" y2="28.92">
<stop stop-color="#FFFFFF" offset="0"/>
<stop stop-color="#A2C2DD" offset="0.35"/>
<stop stop-color="#6C83BB" offset="0.7"/>
<stop stop-color="#003D6D" offset="1"/>
</linearGradient>
<path fill="url(#_20)" d="M37.589,20.83l15.848,9.06l0.785-1.371c-2.574-3.72-9.046-8.174-15.642-8.563L37.589,20.83z"/>
<linearGradient id="_21" gradientUnits="userSpaceOnUse" x1="34.2" y1="28.15" x2="48.23" y2="41.83">
<stop stop-color="#A2C2DD" offset="0.1"/>
<stop stop-color="#6C83BB" offset="0.71"/>
<stop stop-color="#003D6D" offset="0.99"/>
</linearGradient>
<path fill="url(#_21)" d="M53.472,29.386l-6.688,10.92c-3.846,6.01-9.484,6.908-13.653,4.241 c-3.79-2.425-5.478-7.893-1.579-13.987l6.035-9.72C43.319,21.359,50.044,25.273,53.472,29.386z"/>
<linearGradient id="_22" gradientUnits="userSpaceOnUse" x1="34.07" y1="17.59" x2="45.98" y2="44.48">
<stop stop-color="#A2C2DD" offset="0.1"/>
<stop stop-color="#6C83BB" offset="0.71"/>
<stop stop-color="#003D6D" offset="0.99"/>
</linearGradient>
<path fill="url(#_22)" d="M44.148,37.56c-3.65,5.703-8.715,7.121-12.807,5.408c4.858,5.126,11.713,3.307,15.623-2.806 l6.47-10.391l-2.604-2.767L44.148,37.56z"/>
<path fill="#A2C2DD" d="M58.091,5.215V5.213c2.324,2.459,2.75,6.614-0.178,11.173l-6.55,10.02l2.661,1.245l5.848-8.977 C63.523,12.967,62.053,7.749,58.091,5.215z"/>
<linearGradient id="_23" gradientUnits="userSpaceOnUse" x1="50.12" y1="25.88" x2="50.12" y2="49">
<stop stop-color="#FFFFFF" offset="0"/>
<stop stop-color="#A2C2DD" offset="0.35"/>
<stop stop-color="#6C83BB" offset="0.7"/>
<stop stop-color="#003D6D" offset="1"/>
</linearGradient>
<path fill="url(#_23)" d="M51.735,26.77l2.609-1.329c0,0,0,9.123,0,14.19c0,5.073-1.527,8.943-8.46,10.435 c4.681-1.946,5.777-6.152,5.663-10.875L51.735,26.77z"/>
<linearGradient id="_24" gradientUnits="userSpaceOnUse" x1="54.26" y1="47.57" x2="39.28" y2="47.33">
<stop stop-color="#A2C2DD" offset="0.1"/>
<stop stop-color="#6C83BB" offset="0.71"/>
<stop stop-color="#003D6D" offset="0.99"/>
</linearGradient>
<path fill="url(#_24)" d="M36.975,45.946c3.319,4.329,8.195,3.672,11.925,1.909c-4.723,0.703-6.943-0.961-8.14-2.312 C40.189,45.665,38.582,45.913,36.975,45.946z"/>
<linearGradient id="_25" gradientUnits="userSpaceOnUse" x1="37.25" y1="24.15" x2="47.63" y2="43.13">
<stop stop-color="#FFFFFF" offset="0.15"/>
<stop stop-color="#A2C2DD" offset="1"/>
</linearGradient>
<path fill="url(#_25)" d="M37.311,45.913c1.356,1.548,4.007,3.022,6.536,3.104c6.455,0.209,7.061-5.175,7.061-9.584 c0-4.41,0-12.872,0-12.872l0.828,0.208c0,0-0.036,6.414-0.036,12.595c0,6.18-1.329,11.429-8.729,10.701 c-2.971-0.293-5.605-2.428-6.966-4.32C36.64,45.962,37.311,45.913,37.311,45.913z"/>
<linearGradient id="_26" gradientUnits="userSpaceOnUse" x1="53.11" y1="24.03" x2="51.34" y2="31.02">
<stop stop-color="#E6EEF4" offset="0"/>
<stop stop-color="#C03A3A" offset="0.44"/>
<stop stop-color="#302D02" offset="0.94"/>
</linearGradient>
<path fill="url(#_26)" d="M55.071,24.545c-1.689-1.696-4.523-0.072-4.818,2.65c-0.241,2.205,1.366,3.843,3.236,3.265 L55.071,24.545"/>
<linearGradient id="_27" gradientUnits="userSpaceOnUse" x1="53.63" y1="24.32" x2="54.03" y2="28.52">
<stop stop-color="#E3DFE4" offset="0"/>
<stop stop-color="#C03A3A" offset="1"/>
</linearGradient>
<path fill="url(#_27)" d="M56.026,27.396c-0.19,1.704-1.287,3.08-2.449,3.071c-1.162-0.01-1.947-1.398-1.756-3.103 c0.189-1.705,1.283-3.079,2.445-3.069C55.43,24.303,56.218,25.692,56.026,27.396z"/>
<path fill="#FFFFFF" d="M12.298,34.683c-2.774,0-6.576,0.658-7.539,6.354l-0.146,0.857c0,0,6.394,0,7.151,0 c0.229,0.412,0.57,1.027,0.787,1.422c-0.217,0.393-0.558,1.008-0.787,1.418c-0.759,0-7.151,0-7.151,0l0.146,0.859 c0.963,5.693,4.765,6.352,7.539,6.352c2.188,0,4.138-1.834,5.705-3.311c0.847-0.799,1.646-1.549,2.068-1.549h19.58l0.219-0.24 c0.42-0.463,1.396-1.727,1.418-3.5v-0.063c-0.021-1.773-0.998-3.037-1.418-3.498l-0.219-0.24h-19.58 c-0.422,0-1.223-0.752-2.066-1.547C16.436,36.519,14.487,34.683,12.298,34.683z"/>
<linearGradient id="_28" gradientUnits="userSpaceOnUse" x1="10.96" y1="30.05" x2="32.07" y2="55.45">
<stop stop-color="#E6EDF3" offset="0"/>
<stop stop-color="#CABAD7" offset="0.12"/>
<stop stop-color="#AB7EB8" offset="0.27"/>
<stop stop-color="#9759A4" offset="0.38"/>
<stop stop-color="#8F4B9C" offset="0.44"/>
<stop stop-color="#73357C" offset="0.57"/>
<stop stop-color="#551D5A" offset="0.72"/>
<stop stop-color="#430E45" offset="0.85"/>
<stop stop-color="#3C093D" offset="0.94"/>
</linearGradient>
<path fill="url(#_28)" d="M40.556,43.315c0-0.008,0.002-0.018,0.002-0.023h-0.004c-0.018-1.543-0.902-2.656-1.229-3.012 c-0.412,0-19.254,0-19.254,0c-0.717,0-1.494-0.734-2.575-1.748c-1.471-1.387-3.301-3.111-5.198-3.111 c-3.079,0-5.995,0.904-6.812,5.738c1.156,0,6.713,0,6.713,0l1.193,2.156L12.2,45.47c0,0-5.557,0-6.713,0 c0.815,4.834,3.731,5.738,6.812,5.738c1.897,0,3.728-1.725,5.198-3.111c1.081-1.014,1.858-1.748,2.575-1.748c0,0,18.842,0,19.254,0 c0.324-0.354,1.211-1.469,1.229-3.012h0.004C40.558,43.329,40.556,43.323,40.556,43.315z"/>
</svg>