<?xml version="1.0" encoding="UTF-8"?>
<!DOCTYPE svg PUBLIC "-//W3C//DTD SVG 1.1 Tiny//EN" "http://www.w3.org/Graphics/SVG/1.1/DTD/svg11-tiny.dtd">
<svg width="84" height="72" viewBox="0 0 84 72">
<linearGradient id="_21" gradientUnits="userSpaceOnUse" x1="34.52" y1="38.91" x2="53.05" y2="75.41">
<stop stop-color="#A2C2DD" offset="0.1"/>
<stop stop-color="#6C83BB" offset="0.71"/>
<stop stop-color="#003D6D" offset="0.99"/>
</linearGradient>
<path fill="url(#_21)" d="M5.514,7.481l0.054,50.287c0,0,29.106-0.097,29.49-0.098c1.606,2.995,6.087,5.876,6.282,6 l0.052,0.033l0.061,0.013c9.576,2.088,12.634-1.843,12.746-2.01c0,0,1.607-4.619,2.135-6.148c0.5,1.625,2.373,7.73,2.373,7.73 c1.213,3.668,10.124,3.474,10.503,3.463l0.062-0.001l0.059-0.023c9.309-3.684,9.178-8.601,9.169-8.647l-4.808-17.894 l-0.392,0.219c-5.38,3.004-9.99,4.188-13.386,4.671c0.091-0.264,0.32-0.933,0.32-0.933s-4.012-0.488-4.506-0.555 c-0.001-0.601-0.059-36.107-0.059-36.107H5.514z"/>
<linearGradient id="_22" gradientUnits="userSpaceOnUse" x1="14.77" y1="-0.45" x2="77.1" y2="64.22">
<stop stop-color="#FFFFFF" offset="0.05"/>
<stop stop-color="#A2C2DD" offset="1"/>
</linearGradient>
<rect x="5.865" y="7.831" fill="url(#_22)" width="49.455" height="16.272"/>
<linearGradient id="_23" gradientUnits="userSpaceOnUse" x1="57.35" y1="61.76" x2="0.02" y2="-7.41">
<stop stop-color="#FFFFFF" offset="0"/>
<stop stop-color="#A2C2DD" offset="0.35"/>
<stop stop-color="#6C83BB" offset="0.7"/>
<stop stop-color="#003D6D" offset="1"/>
</linearGradient>
<path fill="url(#_23)" d="M5.865,15.653v-2.084c0,0,8.987-0.95,20.463,4.7c20.355,10.023,29.021-0.945,29.021-0.945v24.51 l-49.36-0.021L5.865,15.653z"/>
<linearGradient id="_24" gradientUnits="userSpaceOnUse" x1="38.54" y1="27.81" x2="16.71" y2="48.64">
<stop stop-color="#FFFFFF" offset="0.05"/>
<stop stop-color="#A2C2DD" offset="1"/>
</linearGradient>
<path fill="url(#_24)" d="M5.865,23.162v-7.819c0,0,14.76-0.219,27.975,15.123c5.316,7.152,20,7.014,21.494,7.014 l0.115,16.512l-2.221,3.462l-21.044-0.267L5.865,23.162z"/>
<path fill="url(#_23)" d="M5.918,57.417V20.14c0,0,14.391,0.894,17.481,15.25c2.788,12.946,12.305,21.883,26.478,21.883 L5.918,57.417z"/>
<path fill="url(#_22)" d="M5.918,57.417V26.499c0,0,6.832,3.625,8.401,18.675c1.493,8.241,4.105,12.205,7.46,12.205 L5.918,57.417z"/>
<linearGradient id="_27" gradientUnits="userSpaceOnUse" x1="59.82" y1="62.3" x2="74.57" y2="38.73">
<stop stop-color="#D6E4F3" offset="0"/>
<stop stop-color="#337CE5" offset="1"/>
</linearGradient>
<path fill="url(#_27)" d="M69.22,66.421c0,0-9.016,0.238-10.161-3.223c-1.145-3.466-5.302-17.438-5.302-17.438 s9.124,0.893,19.732-5.03l4.687,17.436C78.176,58.165,78.215,62.862,69.22,66.421z"/>
<linearGradient id="_28" gradientUnits="userSpaceOnUse" x1="63.81" y1="50.32" x2="61.08" y2="52.85">
<stop stop-color="#E6EEF4" offset="0"/>
<stop stop-color="#575AC6" offset="0.44"/>
<stop stop-color="#003D6D" offset="0.94"/>
</linearGradient>
<path fill="url(#_28)" d="M59.208,53.381c0,0,1.261-4.403,5.01-1.421C64.22,51.96,61.427,51.207,59.208,53.381z"/>
<linearGradient id="_29" gradientUnits="userSpaceOnUse" x1="71.72" y1="47.46" x2="68.75" y2="51.5">
<stop stop-color="#E6EEF4" offset="0"/>
<stop stop-color="#575AC6" offset="0.44"/>
<stop stop-color="#003D6D" offset="0.94"/>
</linearGradient>
<path fill="url(#_29)" d="M67.233,51.08c0,0,1.262-4.403,5.011-1.425C72.244,49.655,69.452,48.906,67.233,51.08z"/>
<linearGradient id="_30" gradientUnits="userSpaceOnUse" x1="69.09" y1="63.93" x2="67.71" y2="58.49">
<stop stop-color="#E6EEF4" offset="0"/>
<stop stop-color="#575AC6" offset="0.44"/>
<stop stop-color="#003D6D" offset="0.94"/>
</linearGradient>
<path fill="url(#_30)" d="M62.477,60.005c0,0,8.398-1.132,10.276-3.809C72.753,56.196,71.183,65.805,62.477,60.005z"/>
<linearGradient id="_31" gradientUnits="userSpaceOnUse" x1="38.13" y1="38.12" x2="53.29" y2="58.97">
<stop stop-color="#E3DFE4" offset="0"/>
<stop stop-color="#C03A3A" offset="1"/>
</linearGradient>
<path fill="url(#_31)" d="M41.548,63.394c0,0-7.616-4.822-6.63-8.333c0.985-3.515,5.348-17.427,5.348-17.427 s7.37,5.881,19.481,6.877l-5.87,16.879C53.877,61.39,51.001,65.452,41.548,63.394z"/>
<path fill="#FFFFFF" d="M40.529,46.995c0,0,3.507-2.946,4.952,1.613C45.481,48.608,43.584,46.43,40.529,46.995z"/>
<path fill="#FFFFFF" d="M48.474,49.558c0,0,3.51-2.95,4.953,1.61C53.427,51.168,51.533,48.988,48.474,49.558z"/>
<path fill="#FFFFFF" d="M39.54,54.313c0,0,3.468,3.462,10.656,2.564C50.196,56.878,43.263,62.006,39.54,54.313z"/>
<path fill="#FFFFFF" d="M44.627,54.404l1.318-0.888l2.104-5.195c0,0,1.239-2.674,5.832,1.213c0,0-1.245-3.991-5.765-3.709 L44.627,54.404z"/>
<linearGradient id="_32" gradientUnits="userSpaceOnUse" x1="32.83" y1="32.46" x2="35.88" y2="35.65">
<stop stop-color="#A2C2DD" offset="0.1"/>
<stop stop-color="#6C83BB" offset="0.71"/>
<stop stop-color="#003D6D" offset="0.99"/>
</linearGradient>
<path fill="url(#_32)" d="M30.648,19.155c-4.879,4.805-9.456,12.109-10.696,17.032c-0.002,0.026-0.004,0.1-0.004,0.213 c0,0.566,0.064,2.129,0.589,3.702c0.063,0.183,1.29,2.326,3.675,3.771c0.334,0.22,1.906,0.706,1.906,0.706l0.107-0.046 c3.43-1.534,5.375-5.976,5.375-5.976s-1.992-3.753-2.972-4.783c0.24-0.374,1.393-2.171,1.393-2.171s1.676-2.632,1.88-2.953 c0.366,0.041,3.081,0.347,3.081,0.347l1.512,0.23l0.096-0.045c1.787-0.835,4.39-3.788,5.416-6.855l0.04-0.119l-0.046-0.118 c-1.142-2.972-3.023-3.82-4.147-4.328l-0.135-0.061c-0.333-0.148-1.476-0.336-1.702-0.372 C33.06,17.673,30.67,19.141,30.648,19.155z"/>
<linearGradient id="_33" gradientUnits="userSpaceOnUse" x1="33.33" y1="36.85" x2="25.77" y2="34.91">
<stop stop-color="#FFFFFF" offset="0"/>
<stop stop-color="#A2C2DD" offset="0.35"/>
<stop stop-color="#6C83BB" offset="0.7"/>
<stop stop-color="#003D6D" offset="1"/>
</linearGradient>
<path fill="url(#_33)" d="M30.249,38.037c0.203-0.233-2.434-4.646-2.434-4.646l-2.174,2.952 C25.641,36.344,30.042,38.271,30.249,38.037z"/>
<linearGradient id="_34" gradientUnits="userSpaceOnUse" x1="31.56" y1="16.95" x2="43.55" y2="27.61">
<stop stop-color="#FFFFFF" offset="0.05"/>
<stop stop-color="#A2C2DD" offset="1"/>
</linearGradient>
<path fill="url(#_34)" d="M35.96,17.675c-2.797,0.339-5.119,1.772-5.119,1.772c1.336,1.945,1.542,2.86,1.542,2.86 l8.162-0.382C39.693,18.1,37.228,18.033,35.96,17.675z"/>
<linearGradient id="_35" gradientUnits="userSpaceOnUse" x1="37.65" y1="16.78" x2="41.06" y2="26.03">
<stop stop-color="#FFFFFF" offset="0"/>
<stop stop-color="#A2C2DD" offset="0.35"/>
<stop stop-color="#6C83BB" offset="0.7"/>
<stop stop-color="#003D6D" offset="1"/>
</linearGradient>
<path fill="url(#_35)" d="M40.431,21.868c-1.193-2.676-2.949-3.57-4.471-4.193c0,0,1.306,0.209,1.612,0.345 c1.105,0.503,2.965,1.24,4.101,4.196C41.672,22.216,40.427,21.875,40.431,21.868z"/>
<linearGradient id="_36" gradientUnits="userSpaceOnUse" x1="24.36" y1="45.24" x2="29.2" y2="7.41">
<stop stop-color="#FFFFFF" offset="0.05"/>
<stop stop-color="#A2C2DD" offset="1"/>
</linearGradient>
<path fill="url(#_36)" d="M30.841,19.446c0.547-0.04,1.723,0.869,1.706,2.579c-4.335,4.351-9.549,11.838-11.66,18.029 c-0.639-1.871-0.596-3.781-0.596-3.781C21.543,31.309,26.095,24.131,30.841,19.446z"/>
<linearGradient id="_37" gradientUnits="userSpaceOnUse" x1="41.57" y1="20" x2="35.15" y2="31.25">
<stop stop-color="#FFFFFF" offset="0"/>
<stop stop-color="#A2C2DD" offset="0.35"/>
<stop stop-color="#6C83BB" offset="0.7"/>
<stop stop-color="#003D6D" offset="1"/>
</linearGradient>
<path fill="url(#_37)" d="M40.431,21.868c-1.55,3.525-3.089,5.277-5.404,6.781l1.415,0.216 c1.673-0.781,4.237-3.675,5.231-6.649C41.261,22.055,40.431,21.868,40.431,21.868z"/>
<linearGradient id="_38" gradientUnits="userSpaceOnUse" x1="31.26" y1="40.99" x2="28.57" y2="33.86">
<stop stop-color="#FFFFFF" offset="0"/>
<stop stop-color="#A2C2DD" offset="0.35"/>
<stop stop-color="#6C83BB" offset="0.7"/>
<stop stop-color="#003D6D" offset="1"/>
</linearGradient>
<path fill="url(#_38)" d="M31.22,38.559c-0.856-2.026-2.48-4.488-3.477-5.122l-0.002,0.561 c0.837,0.998,1.789,2.358,2.475,4.008L31.22,38.559z"/>
<linearGradient id="_39" gradientUnits="userSpaceOnUse" x1="31.46" y1="17.11" x2="29.38" y2="52.36">
<stop stop-color="#FFFFFF" offset="0.05"/>
<stop stop-color="#A2C2DD" offset="1"/>
</linearGradient>
<path fill="url(#_39)" d="M40.431,21.868c-2.586-0.771-6.306-0.437-7.883,0.157 c-5.024,4.833-10.466,13.259-11.689,18.004c0,0,1.334,2.512,4.056,3.893c2.566-1.335,4.349-3.615,5.311-5.915 c-0.943-0.525-3.698-2.076-3.698-2.076c1.622-1.738,2.578-3.636,5.197-7.652c1.267,0.111,3.303,0.372,3.303,0.372 C37.66,27.043,39.532,24.351,40.431,21.868z"/>
<linearGradient id="_40" gradientUnits="userSpaceOnUse" x1="30.39" y1="36.06" x2="25.47" y2="47.06">
<stop stop-color="#FFFFFF" offset="0"/>
<stop stop-color="#A2C2DD" offset="0.35"/>
<stop stop-color="#6C83BB" offset="0.7"/>
<stop stop-color="#003D6D" offset="1"/>
</linearGradient>
<path fill="url(#_40)" d="M30.216,38.006c0,0-2.635,4.71-5.3,5.918l1.173,0.287c2.136-0.91,4.43-3.964,5.132-5.652 L30.216,38.006z"/>
</svg>