<?xml version="1.0" encoding="UTF-8"?>
<!DOCTYPE svg PUBLIC "-//W3C//DTD SVG 1.1 Tiny//EN" "http://www.w3.org/Graphics/SVG/1.1/DTD/svg11-tiny.dtd">
<svg baseProfile="tiny" height="12" version="1.1" viewBox="0 0 36 12" width="36" xmlns="http://www.w3.org/2000/svg" xmlns:xlink="http://www.w3.org/1999/xlink">
<g>
<path d="M34.574,9.582V2.42c0-1.335-1.029-2.42-2.295-2.42H3.721C2.455,0,1.426,1.085,1.426,2.42v7.161   C1.426,10.917,2.455,12,3.721,12h28.559C33.545,12,34.574,10.917,34.574,9.582z" fill="#496DA2"/>
<path d="M33.656,9.582V2.42c0-0.802-0.617-1.452-1.377-1.452H3.721c-0.758,0-1.377,0.65-1.377,1.452v7.161   c0,0.802,0.619,1.452,1.377,1.452h28.559C33.039,11.034,33.656,10.383,33.656,9.582z" fill="#A2C2DD"/>
<path d="M32.738,9.583V2.42c0-0.267-0.205-0.484-0.459-0.484H3.721   c-0.252,0-0.459,0.218-0.459,0.484v7.163c0,0.267,0.207,0.484,0.459,0.484h28.559C32.533,10.068,32.738,9.85,32.738,9.583z" fill="#6C8EB7"/>
</g>
<rect fill="none" height="12" width="36"/>
</svg>
