<?xml version="1.0" encoding="UTF-8"?>
<!DOCTYPE svg PUBLIC "-//W3C//DTD SVG 1.1 Tiny//EN" "http://www.w3.org/Graphics/SVG/1.1/DTD/svg11-tiny.dtd">
<svg width="43.939" height="43.945" viewBox="0 0 43.939 43.945">
<linearGradient id="_3" gradientUnits="userSpaceOnUse" x1="2.62" y1="2.09" x2="33.75" y2="38.46">
<stop stop-color="#FFFFFF" offset="0"/>
<stop stop-color="#E0EAF3" offset="0.11"/>
<stop stop-color="#A2C2DD" offset="0.35"/>
<stop stop-color="#8CA9CF" offset="0.48"/>
<stop stop-color="#6C83BB" offset="0.7"/>
<stop stop-color="#637DB5" offset="0.75"/>
<stop stop-color="#4C6EA4" offset="0.82"/>
<stop stop-color="#265689" offset="0.91"/>
<stop stop-color="#003D6D" offset="0.99"/>
</linearGradient>
<path d="M31.401,23.123v-2.43h-2.133c1.838-0.981,3.105-2.896,3.105-5.122c0-3.215-2.613-5.817-5.83-5.829 c-4.077-0.015-5.369,3.59-5.412,3.694c0.018-0.297-1.337-5.495-6.691-5.495c-3.77,0-6.824,3.055-6.824,6.825 c0,2.557,1.422,4.758,3.5,5.927l-0.715-0.006v0.006L10.392,34.6h8.209h12.801V31.48h5.102v-9.834L31.401,23.123z M29.919,15.571 c0,1.86-1.516,3.375-3.375,3.375s-3.375-1.515-3.375-3.375s1.516-3.375,3.375-3.375S29.919,13.711,29.919,15.571z M20.888,16.918 v0.003c0.391,1.641,1.479,2.998,2.932,3.772h-6.055C19.229,19.871,20.347,18.537,20.888,16.918z M9.96,14.767 c0-2.475,2.008-4.481,4.48-4.481c2.477,0,4.48,2.007,4.48,4.481s-2.004,4.48-4.48,4.48C11.968,19.247,9.96,17.241,9.96,14.767z M29.372,32.32c0,0-4.465,0-8.068,0c-3.875,0-7.844,0-9.193,0c0-0.197,0-5.386,0-9.349c4.844,0,17.262,0,17.262,0V32.32z M34.589,28.94l-3.182,0.004l-0.006-3.287l3.188-0.963V28.94z" fill="url(#_3)"/>
<path d="M19.959,19.405c-1.796,0-5.368,0.559-9.103,4.294c-3.756,3.767-4.316,7.338-4.316,9.133 c0,1.473,0.357,2.82,0.954,3.604c0.408,0.531,0.965,1.259,1.924,1.896c0.986,0.615,1.868,0.565,1.868,0.565 c1.132-0.072,2.218-0.783,3.633-2.382c0.642-0.722,1.665-2.034,1.898-3.274c0.057-0.239,0.099-0.599-0.02-0.99l0,0 c0,0-0.002-0.005-0.004-0.012c0.002,0.004,0.004,0.008,0.004,0.008c-0.002-0.004-0.004-0.01-0.006-0.016 c0,0-0.333-0.826-1.128-1.458c-0.388-0.308-0.889-0.546-1.496-0.71c0.442-1.073,1.97-2.602,3.036-3.043 c0.163,0.605,0.402,1.109,0.713,1.501c0.475,0.599,0.999,0.987,1.558,1.154c0,0,1.086,0.678,4.181-1.896 c1.253-1.106,1.962-2.016,2.243-2.909c0.162-0.626,0.125-1.082,0.125-1.082c-0.036-0.219-0.185-0.977-0.546-1.523 c-0.629-0.947-1.382-1.526-1.833-1.872v-0.001l-0.01-0.007C22.835,19.772,21.461,19.405,19.959,19.405L19.959,19.405z" fill="#FFFFFF"/>
<radialGradient id="_4" gradientUnits="userSpaceOnUse" cx="12.84" cy="15.39" r="25.63">
<stop stop-color="#E6EEF4" offset="0"/>
<stop stop-color="#C6DCC1" offset="0.08"/>
<stop stop-color="#91C06F" offset="0.21"/>
<stop stop-color="#6BAB33" offset="0.32"/>
<stop stop-color="#539E0E" offset="0.4"/>
<stop stop-color="#4A9900" offset="0.44"/>
<stop stop-color="#398419" offset="0.56"/>
<stop stop-color="#22663B" offset="0.75"/>
<stop stop-color="#135550" offset="0.9"/>
<stop stop-color="#0E4E58" offset="1"/>
</radialGradient>
<path d="M22.977,21.199c-1.282-0.87-6.208-1.923-11.354,3.223c-3.12,3.129-3.999,6.179-3.999,8.365 c0,1.414,0.34,2.387,0.65,2.901c0.145,0.241,0.692,1.126,1.746,1.694c0.778,0.42,1.2,0.388,1.2,0.388 c0.808-0.051,1.701-0.674,2.892-2.019c0.392-0.442,1.672-1.972,1.672-3.045c0,0,0.007-0.56-0.791-1.131 c-0.396-0.283-0.948-0.517-1.685-0.636l-0.352-0.056l0.005-0.355c0.015-1.772,2.996-4.754,4.761-4.762l0.354-0.002l0.057,0.351 c0.116,0.734,0.33,1.302,0.635,1.687c0.448,0.565,0.829,0.732,1.02,0.788c0.718,0.067,1.895-0.558,3.153-1.671 c1.346-1.187,1.968-2.082,2.019-2.902C24.957,24.018,25.045,22.603,22.977,21.199z" fill="url(#_4)"/>
</svg>