<?xml version="1.0" encoding="UTF-8"?>
<!DOCTYPE svg PUBLIC "-//W3C//DTD SVG 1.1 Tiny//EN" "http://www.w3.org/Graphics/SVG/1.1/DTD/svg11-tiny.dtd">
<svg width="12" height="32" viewBox="-0.5 0.11 12 32">
<linearGradient id="_3" gradientUnits="userSpaceOnUse" x1="6" y1="18.61" x2="6" y2="30.61">
<stop stop-color="#E6EEF4" offset="0"/>
<stop stop-color="#2F8E9A" offset="0.44"/>
<stop stop-color="#003D6D" offset="0.94"/>
</linearGradient>
<path fill="url(#_3)" d="M6,27.159c-2.484,0-4.5-0.727-4.5-1.576v-0.672c0-1.375,2.016-1.801,4.5-1.801l0,0 c2.486,0,4.5,0.426,4.5,1.801v0.672C10.5,26.433,8.486,27.159,6,27.159L6,27.159z"/>
<linearGradient id="_4" gradientUnits="userSpaceOnUse" x1="6" y1="23.11" x2="6" y2="25.11">
<stop stop-color="#FFFFFF" offset="0"/>
<stop stop-color="#CEDFF2" offset="1"/>
</linearGradient>
<path fill="url(#_4)" d="M10.49,24.86c-0.053-1.33-2.037-1.75-4.49-1.75c-2.452,0-4.438,0.42-4.49,1.75H1.5v0.25h1 c0-0.607,1.568-0.875,3.5-0.875c1.936,0,3.5,0.25,3.5,0.875h1v-0.25H10.49z"/>
<path fill-opacity="0.7" fill="#235487" d="M0.5,24.911v0.672c0,1.395,2.467,2.527,5.5,2.527c3.031,0,5.5-1.133,5.5-2.527v-0.672 c0-1.922-2.469-2.801-5.5-2.801C2.967,22.11,0.5,22.989,0.5,24.911z M1.5,25.583v-0.672c0-1.367,2.017-1.801,4.5-1.801 c2.482,0,4.5,0.434,4.5,1.801v0.672c0,0.846-2.018,1.576-4.5,1.576S1.5,26.429,1.5,25.583z"/>
<path fill="#CADCEC" d="M9.5,25.409c0,0.299-1.564,0.75-3.5,0.75c-1.932,0-3.5-0.451-3.5-0.75V25.11h-1v0.473 c0,0.85,2.016,1.576,4.5,1.576c2.486,0,4.5-0.727,4.5-1.576V25.11h-1V25.409z"/>
</svg>