<?xml version="1.0" encoding="UTF-8"?>
<!DOCTYPE svg PUBLIC "-//W3C//DTD SVG 1.1 Tiny//EN" "http://www.w3.org/Graphics/SVG/1.1/DTD/svg11-tiny.dtd">
<svg width="13" height="13" viewBox="0 0 13 13">
<rect x="4.099" y="0.224" fill="#A2C2DD" width="4.803" height="2.954"/>
<rect x="4.099" y="9.903" fill="#A2C2DD" width="4.803" height="2.867"/>
<rect x="4.099" y="4.14" fill="#A2C2DD" width="4.803" height="4.803"/>
<path fill="#496DA2" d="M10.822,0.217v1.041H9.863V0.217H8.901v0.007v2.954H4.099V0.224V0.217H3.138v1.041H2.178V0.217H1.217 v12.567h0.961v-0.96h0.959v0.96h0.961v-0.014V9.903h4.803v2.867v0.014h0.961v-0.96h0.959v0.96h0.961V0.217H10.822z M9.863,7.981 h0.959v0.961H9.863V7.981z M10.822,5.1H9.863V4.14h0.959V5.1z M10.822,6.061v0.961H9.863V6.061H10.822z M10.822,2.218v0.96 H9.863v-0.96H10.822z M4.099,4.14h4.803v4.803H4.099V4.14z M3.138,2.218v0.96H2.178v-0.96H3.138z M2.178,7.021V6.061h0.959 v0.961H2.178z M3.138,7.981v0.961H2.178V7.981H3.138z M2.178,5.1V4.14h0.959V5.1H2.178z M2.178,10.863v-0.96h0.959v0.96H2.178z M9.863,10.863v-0.96h0.959v0.96H9.863z"/>
</svg>