<?xml version="1.0" encoding="UTF-8" standalone="no"?>
<!DOCTYPE svg PUBLIC "-//W3C//DTD SVG 1.1 Tiny//EN" "http://www.w3.org/Graphics/SVG/1.1/DTD/svg11-tiny.dtd">
<svg xmlns="http://www.w3.org/2000/svg" xmlns:xlink="http://www.w3.org/1999/xlink" width="40" height="50" viewBox="0 0 40 50">
<rect fill="none" height="50" width="40"/>
<path d="M38.198,0.5H1.801C1.083,0.5,0.5,1.212,0.5,2.09l6.497,45.819c0,0.877,0.583,1.591,1.301,1.591h23.33 c0.72,0,1.302-0.713,1.302-1.591L39.5,2.09C39.5,1.212,38.915,0.5,38.198,0.5L38.198,0.5z" fill="#444444"/>
<path d="M32.93,47.909l6.48-45.193c-0.069-0.136-0.16-0.215-0.212-0.215H2.801c-0.097,0-0.281,0.206-0.299,0.532 L8.988,48.77l0.01,0.07v0.07c0,0.384,0.212,0.59,0.299,0.59h22.331C32.348,49.5,32.93,48.787,32.93,47.909z" fill="#6E99CC"/>
</svg>