<?xml version="1.0" encoding="UTF-8"?>
<!DOCTYPE svg PUBLIC "-//W3C//DTD SVG 1.1 Tiny//EN" "http://www.w3.org/Graphics/SVG/1.1/DTD/svg11-tiny.dtd">
<svg width="16" height="16" viewBox="0 0 16 16">
<path fill="#CEE1EF" d="M13.884,10.922L11.636,6.69L6.878,4.819L4.133,4.521L1.547,4.344l0.005,6.489h0.5 c0.945,0,3.811,0.922,5.418,1.788c0.156,0.214,6.341-0.795,6.341-0.795S13.954,11.103,13.884,10.922z"/>
<path fill="#A2C2DD" d="M14.547,4.524h-0.709l-1.943-0.343c-0.021-0.004-3.978-0.515-3.978-0.515L4.531,5.369 c0,0,0.258,1.203,1.591,1.461C7.13,7.025,8.383,6.537,8.873,6.141l1.99,1.082c0,0,2.121,2.381,2.642,3.172 c0.037-0.036,1.042-0.041,1.042-0.041V4.524z"/>
<path fill="#496DA2" d="M9.621,11.651c0.076-0.247,0.007-0.805,0.007-0.805L7.422,9.75l-5.87-0.904v1.987l1.307,0.136 c0.247,0.05,0.575,0.129,0.949,0.232c0.268,1.038,1.524,1.398,1.77,1.535c0.264,0.146,1.771,0.621,2.151,0.655 c0.222,0.021,0.429-0.066,0.619-0.183c0.449,0.243,0.953,0.46,1.224,0.45c0.508-0.019,2.244-0.41,2.6-0.598 c0.297-0.156,1.734-0.517,1.719-1.703C13.46,11.473,11.376,12.122,9.621,11.651z"/>
<polygon fill="#496DA2" points="13.693,8.691 12.844,9.542 13.884,10.922 14.547,10.756 14.547,8.516 "/>
<path fill="#A2C2DD" d="M4.114,7.948c0,0-0.79,2.517-0.317,3.224c0.473,0.707,2.973,1.531,4.264,0.922 c1.291-0.608,1.422-0.944,1.567-1.246c0.146-0.301-1.541-1.784-1.713-1.957C7.743,8.719,6.701,8.214,6.054,7.893 C5.722,7.728,5.242,7.219,4.3,7.476C4.183,7.508,4.114,7.948,4.114,7.948z"/>
</svg>