<?xml version="1.0" encoding="UTF-8"?>
<!DOCTYPE svg PUBLIC "-//W3C//DTD SVG 1.1 Tiny//EN" "http://www.w3.org/Graphics/SVG/1.1/DTD/svg11-tiny.dtd">
<svg baseProfile="tiny" height="416" preserveAspectRatio="xMidYMid meet" viewBox="-176 -208 352 416" width="352" xmlns="http://www.w3.org/2000/svg" xmlns:xlink="http://www.w3.org/1999/xlink">
<defs>
<linearGradient id="shape6grad" gradientUnits="userSpaceOnUse" x1="279.5" y1="-0.59" x2="279.5" y2="194.41">
<stop stop-color="#B3DDFF" offset="0"/>
<stop stop-color="#5AA7E0" offset="0.52"/>
<stop stop-color="#CFECFF" offset="1"/>
</linearGradient>
<linearGradient id="shape25grad" gradientUnits="userSpaceOnUse" x1="77.5" y1="197.41" x2="318.5" y2="406.41">
<stop stop-color="#B3DDFF" offset="0"/>
<stop stop-color="#5AA7E0" offset="0.5"/>
<stop stop-color="#0046B7" offset="1"/>
</linearGradient>
<linearGradient id="shape26grad" gradientUnits="userSpaceOnUse" x1="-3.5" y1="4.41" x2="221.39" y2="350.71">
<stop stop-color="#B3DDFF" offset="0"/>
<stop stop-color="#5AA7E0" offset="0.53"/>
<stop stop-color="#0046B7" offset="1"/>
</linearGradient>
<linearGradient id="shape42grad" gradientUnits="userSpaceOnUse" x1="273.1" y1="35" x2="273.1" y2="107.46">
<stop stop-color="#5AA7E0" offset="0"/>
<stop stop-color="#0046B7" offset="1"/>
</linearGradient>
<linearGradient id="shape43grad" gradientUnits="userSpaceOnUse" x1="279.67" y1="25.91" x2="275.58" y2="33.64">
<stop stop-color="#B3DDFF" offset="0"/>
<stop stop-color="#5AA7E0" offset="0.5"/>
<stop stop-color="#0046B7" offset="1"/>
</linearGradient>
<linearGradient id="shape45grad" gradientUnits="userSpaceOnUse" x1="278.38" y1="38.07" x2="279.7" y2="107.46">
<stop stop-color="#5AA7E0" offset="0"/>
<stop stop-color="#0046B7" offset="1"/>
</linearGradient>
<radialGradient id="shape46grad" gradientUnits="userSpaceOnUse" cx="289.25" cy="32.47" r="8.02">
<stop stop-color="#B3DDFF" offset="0"/>
<stop stop-color="#5AA7E0" offset="0.5"/>
<stop stop-color="#0046B7" offset="1"/>
</radialGradient>
<g id="shape28">
<path d="M293.699,151.087C292.739,145.013,284.809,147.040,280.950,148.614C283.166,144.224,286.604,137.351,285.122,132.339C284.145,129.041,280.121,129.75,277.879,131.265C274.31,133.679,272.265,137.816,270.056,141.378C269.734,137.991,268.625,128.83,263.66,129.238C260.505,129.498,258.622,133.155,257.615,135.742C255.935,140.056,255.768,144.8,255.828,149.375C252.678,148.399,248.465,149.128,247.17,152.552C245.464,157.065,248.179,161.659,251.596,164.51C249.209,166.136,243.512,171.376,247.119,174.31C251.531,177.898,258.461,172.921,261.633,169.801C260.502,174.576,259.401,182.644,264.131,185.931C268.543,188.998,270.208,179.964,270.407,177.272C273.826,179.218,278.673,180.08,281.571,176.753C284.185,173.752,283,169.267,280.721,166.453C286.341,163.406,294.184,158.466,293.699,151.087z" fill="#5AA7E0" />
<path d="M277.138,163.379C279.005,162.062,281.319,160.109,281.393,157.621C281.468,155.101,278.681,154.976,276.834,155.476C278.297,153.334,279.622,151.097,280.79,148.781C278.812,149.605,276.928,150.646,275.139,151.822C275.686,150.481,278.110,144.471,274.736,144.599C272.788,144.673,271.092,147.22,270.084,148.642C270.236,146.31,270.230,143.966,270.011,141.638C268.672,143.813,267.459,146.068,266.413,148.398C266.006,146.489,264.703,143.152,262.285,145.026C260.399,146.487,260.116,149.431,259.924,151.625C258.72,150.707,257.371,149.972,255.929,149.505C255.959,151.533,256.904,153.787,256.357,155.798C256.099,156.744,254.783,157,254.511,158.172C254.17,159.646,254.831,161.273,255.79,162.379C254.369,162.933,253.018,163.663,251.756,164.519C252.738,165.323,253.816,166.014,254.971,166.541C253.444,168.474,254.684,170.894,257.245,169.926C258.819,169.331,260.242,168.332,261.889,167.919C264.039,167.381,263.406,172.041,263.467,173.292C263.584,175.658,265.975,178.387,267.241,174.918C268.158,175.806,269.201,176.56,270.317,177.177C270.435,175.521,270.403,173.853,270.208,172.205C271.177,172.528,272.296,172.55,273.248,172.148C274.662,171.548,274.526,170.539,275.055,169.345C275.888,167.468,278.967,167.28,280.573,166.42C279.603,165.229,278.435,164.201,277.138,163.379z" fill="#3366CC" />
<path d="M258.37,161.587C259.053,161.426,259.745,161.316,260.444,161.256C260.049,159.691,259.897,158.076,259.829,156.465C261.159,157.121,262.341,158.058,263.338,159.152C263.4,158.05,263.583,156.960,263.829,155.886C264.262,156.565,264.655,157.27,264.993,158.001C265.542,156.55,266.213,155.148,266.94,153.777C266.97,155.87,266.851,157.972,266.459,160.031C267.082,158.884,267.917,157.867,268.84,156.95C268.5,158.241,268.101,159.532,267.441,160.701C268.93,159.363,270.62,158.264,272.381,157.322C271.615,158.628,270.791,159.904,269.886,161.12C270.65,161.144,271.41,161.245,272.159,161.394C271.464,162.14,270.764,162.892,269.929,163.486C271.153,164.023,272.296,164.753,273.264,165.677C271.923,166.343,270.529,166.933,269.057,167.24C269.32,167.949,269.525,168.679,269.702,169.414C268.982,169.32,268.252,169.203,267.59,168.886C267.668,169.594,267.713,170.304,267.725,171.017C265.992,169.927,263.523,167.922,264.293,165.568C263.825,167.1,262.860,168.435,261.747,169.566C262.142,167.972,262.765,166.379,263.884,165.148C262.223,166.984,259.448,165.453,257.881,164.296C258.468,163.98,259.073,163.699,259.694,163.456C259.148,162.914,258.725,162.265,258.37,161.587z" fill="#0046B7" />
</g>
<g id="shape32">
<path d="M186.34,87.267C185.754,84.871,183.788,83.373,181.42,82.962C180.967,82.884,179.182,83.08,179.252,82.568C179.362,81.755,179.664,80.949,179.914,80.172C181.245,76.036,182.739,72.139,182.164,67.666C181.614,63.396,178.649,59.771,174.734,63.209C172.123,65.501,170.151,68.781,168.681,71.902C167.813,67.859,167.252,63.105,164.37,59.905C162.570,57.906,159.469,56.753,157.745,59.408C154.923,63.751,155.444,71.029,156.042,75.959C152.764,73.326,144.424,69.039,142.639,75.613C141.61,79.408,143.737,84.803,146.114,87.775C147.249,89.191,148.996,90.502,149.569,92.284C149.94,93.435,148.672,93.78,147.975,94.42C146.760,95.537,145.818,97.027,145.443,98.642C143.94,105.108,151.526,106.498,156.137,105.382C155.426,107.841,154.66,110.97,155.524,113.475C156.387,115.98,159.206,115.697,160.865,114.21C164.347,111.091,166.356,104.885,166.853,100.335C168.661,104.003,173.084,109.451,177.725,108.804C183.456,108.004,180.223,100.789,178.024,98.058C182.301,96.224,186.94,92.439,186.34,87.267z" fill="#8CC2EA" />
<path d="M179.414,82.736C177.856,82.804,176.319,83.156,174.864,83.707C175.493,81.582,176.391,77.718,174.087,76.187C172.438,75.089,170.586,77.841,169.805,78.928C169.623,76.46,169.249,74.009,168.717,71.593C167.703,73.718,166.872,75.929,166.19,78.183C165.715,76.533,164.702,72.86,162.288,73.547C159.790,74.265,160.272,78.054,160.23,80.007C158.94,78.44,157.505,76.988,155.913,75.728C156.209,78.212,156.678,80.677,157.321,83.095C155.665,82.103,153.184,81.816,152.36,83.976C151.496,86.239,152.959,88.846,154.292,90.603C152.774,91.075,151.323,91.763,150.005,92.654C151.034,93.687,154.374,95.373,154.182,96.979C153.902,99.337,155.346,100.937,157.797,100.82C157.057,102.328,156.45,103.901,155.994,105.517C157.305,105.214,158.581,104.755,159.78,104.146C159.752,106.084,161.17,106.823,162.676,105.574C164.458,104.097,165.235,101.559,165.813,99.421C166.511,96.837,169.854,100.982,170.78,101.691C172.885,103.302,175.292,101.942,174.417,99.243C175.713,99.02,176.978,98.624,178.183,98.099C177.29,96.962,176.265,95.928,175.124,95.042C177.251,93.676,178.423,91.484,177.106,89.157C176.309,87.749,178.87,84.173,179.414,82.736z" fill="#5AA7E0" />
<path d="M176.592,88.774C175.633,88.09,174.393,88.128,173.29,88.326C173.946,86.822,174.484,85.267,174.907,83.681C173.022,84.396,171.266,85.434,169.7,86.699C170.042,84.103,170.03,81.471,169.823,78.865C168.859,80.417,168.09,82.082,167.424,83.781C167.142,81.876,166.743,79.989,166.196,78.142C165.397,80.832,164.797,83.582,164.446,86.366C163.275,84.081,161.856,81.921,160.213,79.947C160.275,81.933,160.526,83.912,160.886,85.865C159.805,84.797,158.627,83.816,157.307,83.056C157.931,85.417,158.715,87.739,159.710,89.97C157.883,89.836,156.036,90.06,154.286,90.599C155.150,91.735,156.112,92.794,157.155,93.77C156.333,94.2,154.544,95.031,154.497,96.125C154.436,97.554,158.322,98.107,159.28,98.282C158.741,99.11,158.262,99.974,157.772,100.832C158.711,100.772,159.643,100.604,160.55,100.355C160.089,101.585,159.741,102.876,159.709,104.197C161.428,103.302,163.049,102.125,164.313,100.644C164.696,100.195,166.446,96.424,166.153,96.35C167.113,96.593,167.77,98.084,168.669,98.577C170.41,99.53,172.523,99.572,174.435,99.244C174.02,98.125,173.282,97.16,172.452,96.315C173.393,96.001,174.295,95.576,175.131,95.042C174.446,94.509,173.715,94.035,172.954,93.621C174.407,92.204,175.584,90.529,176.592,88.774z" fill="#3366CC" />
<path d="M172.792,93.642C172.198,93.319,171.584,93.042,170.948,92.812C171.852,91.444,172.555,89.956,173.18,88.443C171.681,88.732,170.25,89.322,168.942,90.103C169.26,89.058,169.461,87.98,169.605,86.898C168.963,87.43,168.348,87.997,167.773,88.601C167.755,87.104,167.61,85.611,167.392,84.129C166.649,86.082,166.035,88.091,165.69,90.154C165.5,88.929,165.052,87.761,164.508,86.652C164.372,87.943,164.311,89.257,164.534,90.542C163.588,88.908,162.371,87.446,161.034,86.119C161.308,87.539,161.647,88.949,162.083,90.329C161.346,90.159,160.595,90.066,159.842,90.019C160.237,90.894,160.639,91.779,161.225,92.549C159.87,92.751,158.542,93.162,157.321,93.788C158.362,94.757,159.483,95.663,160.756,96.31C160.262,96.912,159.819,97.551,159.397,98.204C160.121,98.329,160.846,98.337,161.573,98.232C161.254,98.878,160.967,99.538,160.711,100.21C162.75,99.607,165.693,98.426,165.833,95.921C165.739,97.453,166.191,98.97,166.857,100.333C167.025,98.759,167.009,97.099,166.364,95.625C167.418,97.861,170.559,96.978,172.327,96.318C171.88,95.871,171.407,95.457,170.905,95.072C171.603,94.696,172.223,94.193,172.792,93.642z" fill="#0046B7" />
</g>
<g id="shape37">
<path d="M214.368,144.222C213.227,140.039,209.086,137.805,204.983,137.576C206.856,132.56,208.464,127.279,208.432,121.875C208.41,118.267,207.784,113.631,204.68,111.295C198.842,106.902,192.713,118,190.781,122.093C189.302,116.016,187.914,105.527,180.816,103.268C176.79,101.987,174.893,106.822,174.211,109.864C173.057,115.015,173.698,120.375,174.483,125.529C170.871,122.363,160.719,115.111,157.571,122.474C154.064,130.673,162.34,140.672,167.457,146.083C163.206,148.455,159.798,153.736,162.522,158.48C165.137,163.037,170.969,163.835,175.725,163.211C174.828,166.511,172.997,175.978,178.6,176.269C181.674,176.428,183.943,172.934,185.301,170.64C187.539,166.861,189.142,162.643,189.503,158.242C191.929,163.048,198.9,172.162,205.426,170.435C211.348,168.867,206.098,159.617,203.973,156.875C209.437,155.136,215.33,150.64,214.368,144.222M193.961,129.572C197.382,126.029,199.829,130.912,199.849,134.068C199.857,135.367,199.906,137.34,198.762,138.241C197.039,139.597,194.429,140.08,192.566,141.422C192.922,138.007,191.369,132.253,193.961,129.572M191.84,145.427C193.542,144.599,195.391,144.056,197.28,143.9C196.713,145.287,196.332,146.796,195.447,148.029C194.015,150.027,192.289,147.859,190.5,148.503C191.105,147.556,191.528,146.503,191.84,145.427M189.115,149.708C188.871,150.070,188.61,150.324,188.355,150.5C188.489,150.234,188.749,149.921,189.115,149.708M188.342,150.488C187.464,148.929,188.957,147.255,190.154,146.41C189.979,147.941,188.949,149.125,188.342,150.488M189.763,149.487C191.017,149.335,192.108,150.246,193.066,150.909C191.676,152.179,189.435,152.367,188.389,150.570C188.916,150.295,189.374,149.935,189.763,149.487M190.244,143.350C188.427,144.865,187.916,147.48,187.975,149.73C186.412,145.853,188.212,141.240,189.577,137.574C189.912,139.484,190.165,141.412,190.244,143.350M180.196,128.33C180.518,123.902,184.165,122.197,186.496,126.603C188.798,130.957,186.33,135.916,185.92,140.41C183.886,136.478,179.87,132.908,180.196,128.33M181.87,147.496C182.551,148.419,183.374,149.25,184.344,149.868C183.093,150.245,182.225,151.298,181.399,152.242C179.709,151.228,178.223,149.916,176.831,148.532C178.431,147.888,180.149,147.563,181.87,147.496M181.374,139.23C183.734,141.716,185.567,144.568,186.788,147.775C185.965,146.525,184.502,145.975,183.402,145.031C181.778,143.638,181.801,141.162,181.374,139.23M185.354,150.713C185.947,150.183,186.779,150.873,187.411,150.84C187.125,152.759,185.215,153.673,183.44,153.171C183.982,152.285,184.575,151.412,185.354,150.713M186.104,150.294C186.48,150.192,187.513,150.089,187.419,150.775C186.942,150.72,186.503,150.56,186.104,150.294M185.399,149.728C184.782,149.123,184.363,148.354,184.005,147.576C185.576,147.774,187.627,148.494,187.462,150.44C186.87,150,186.136,149.75,185.399,149.728M170.277,135.047C171.465,132.923,175.038,133.421,176.475,135.08C177.292,136.021,177.454,137.445,177.778,138.601C178.299,140.458,179.145,142.277,179.954,144.023C178.631,143.803,177.288,143.718,175.948,143.766C174.8,143.808,173.211,144.472,172.407,143.323C170.766,140.982,169.288,137.947,170.277,135.047M177.918,157.489C174.804,157.350,171.815,154.514,173.403,151.319C175.323,152.675,177.413,153.84,179.69,154.468C179.034,155.435,178.446,156.447,177.918,157.489M184.141,164.476C182.174,166.3,179.038,163.244,181.54,161.369C184.485,159.163,187.288,157.8,188.059,153.795C188.517,157.564,186.926,161.896,184.141,164.476M188.672,153.957C188.31,153.133,188.279,152.234,188.187,151.355C188.584,152.162,188.672,153.072,188.672,153.957M188.175,151.215C188.836,152.207,187.627,153.945,186.989,154.66C185.593,156.22,183.477,156.863,181.484,157.228C182.145,155.457,183.173,155.035,184.772,154.240C186.533,153.366,187.435,151.595,187.713,149.715C188.712,151.184,190.008,152.474,191.879,152.593C193.795,152.713,195.029,152.328,196.477,153.865C193.101,154.754,190.225,154.210,188.175,151.215M199.368,160.73C198.187,163.025,195.292,161.017,193.949,159.998C191.692,158.284,189.921,156.191,189.147,153.421C190.697,155.869,193.4,157.261,196.221,157.58C198.238,157.808,200.176,158.213,199.368,160.73M201.653,151.381C201.124,151.876,200.493,152.246,199.853,152.578C198.947,151.816,197.991,151.113,196.985,150.488C198.837,148.894,200.31,146.908,201.559,144.820C203.694,146.443,203.524,149.626,201.653,151.381" fill="#3366CC" />
</g>
<g id="shape39">
<path d="M143.652,136.248C140.958,133.201,138.262,130.153,135.567,127.105C134.098,125.443,132.627,123.781,131.158,122.119C130.309,121.16,128.465,118.138,127.241,117.828C125.5,117.386,122.506,119.591,120.911,120.197C117.239,121.59,113.336,122.589,109.469,123.264C106.286,123.82,103.977,122.994,102.975,126.696C102.217,129.490,102.231,132.623,102.698,135.466C103.323,139.261,104.167,143.045,102.893,146.812C101.679,150.399,99.682,153.697,97.278,156.609C94.446,152.528,91.401,148.509,91.103,143.355C90.759,137.419,91.307,131.464,92.243,125.604C92.993,120.919,94.313,115.908,98.317,112.937C102.178,110.07,107.35,109.4,112.032,109.482C106.762,105.46,101.493,101.439,96.224,97.417C98.452,96.139,100.492,94.33,103.003,93.615C105.259,92.973,108.061,93.638,110.352,93.912C111.87,94.093,114.042,94.678,115.493,93.974C117.255,93.119,118.333,89.91,119.409,88.368C119.124,91.234,117.482,95.669,120.485,97.388C124.807,99.864,129.079,102.433,133.374,104.958C130.307,101.105,127.604,96.974,125.154,92.708C122.965,88.895,120.424,84.226,121.782,79.697C113.904,79.876,111.049,86.734,110.717,93.646C108,88.445,107.564,81.627,110.291,76.337C111.569,73.855,113.458,72.916,115.315,71.076C117.085,69.323,114.87,65.538,114.343,63.582C112.621,57.176,111.577,50.617,109.796,44.228C108.945,41.173,109.967,38.173,110.418,35.136C110.957,31.517,111.495,27.899,112.032,24.281C118.04,28.084,123.085,33.218,126.432,39.516C130.258,46.718,132.524,54.611,134.956,62.357C136.209,49.912,137.137,37.39,138.563,24.97C138.891,22.117,142.576,14.425,145.175,20.321C147.375,25.312,146.662,31.819,146.284,37.097C146.387,33.490,146.56,29.884,146.867,26.289C146.888,26.039,147.707,20.054,148.392,22.018C149.286,20.148,151.182,11.923,153.953,15.902C155.606,18.276,155.829,20.87,156.259,23.65C156.827,27.31,158,30.88,158.930,34.459C159.721,31.568,160.510,28.677,161.301,25.787C165.125,37.555,164.183,50.164,163.279,62.302C158.095,61.789,149.635,60.721,146.428,66.041C145.430,67.694,145.352,69.723,145.118,71.587C144.812,74.027,144.352,76.455,143.965,78.882C143.223,83.544,142.356,88.185,141.587,92.841C141.245,94.917,142.471,94.564,143.483,95.929C144.797,97.707,145.065,100.041,145.139,102.184C145.305,106.939,144.159,111.667,144.625,116.421C145.055,120.791,148.331,124.097,148.715,128.336C148.856,129.895,149.187,132.779,148.231,134.13C147.241,135.53,145.122,135.664,143.652,136.248z" fill="#3366CC" />
<g transform="translate(230.177,6.799) scale(-0.757,0.815)">
<path d="M277.385,28.113C276.259,28.678,277.345,32.472,277.514,33.324C278.049,36.021,278.519,38.577,278.718,41.339C279.302,49.457,278.616,57.722,275.174,65.192C271.866,72.374,266.188,77.1,260.552,82.382C254.526,88.033,250.781,94.94,248.364,102.8C248.042,103.846,246.661,106.604,247.524,107.611C248.531,108.785,249.29,104.498,249.383,104.08C250.28,100.072,252.141,96.018,254.22,92.494C258.124,85.874,264.123,81.449,269.402,76.044C280.132,65.059,281.268,49.217,279.107,34.739C279.019,34.145,277.972,27.828,277.385,28.113z" fill="url(#shape42grad)" transform="translate(-115.5,2.5)"/>
<path d="M280.445,31.433C279.934,33.490,277.761,36.154,275.799,33.804C274.152,31.832,274.147,28.861,274.741,26.49C275.252,24.431,277.423,21.777,279.385,24.124C281.033,26.093,281.037,29.064,280.445,31.433z" fill="url(#shape43grad)" transform="translate(-115.5,2.5)"/>
<path d="M263.312,49.732C263.823,54.798,262.917,60.008,260.219,64.375C257.614,68.589,254.783,72.697,253.846,77.660C251.898,87.97,253.019,99.078,247.581,108.48" fill="none" stroke="#0046B7" stroke-linecap="round" stroke-linejoin="round" stroke-width="1.698" transform="translate(-115.5,2.5)"/>
<path d="M286.842,35.265C285.47,35.282,285.299,45.04,285.218,46.216C284.749,53.007,283.09,60.115,280.819,66.517C278.373,73.416,274.584,79.166,268.69,83.574C262.687,88.064,254.991,90.62,250.838,97.227C248.981,100.183,247.504,103.814,246.689,107.211C246.359,108.587,246.851,111.054,247.867,108.528C248.677,106.512,248.912,104.328,249.766,102.321C252.501,95.894,258.159,92.013,264.013,88.661C275.797,81.912,281.93,70.531,284.481,57.481C284.895,55.365,288.582,35.255,286.842,35.265z" fill="url(#shape45grad)" transform="translate(-115.5,2.5)"/>
<path d="M283.847,32.670C283.215,35.206,283.298,38.292,285.024,40.403C287.002,42.823,289.332,39.891,289.838,37.857C290.471,35.324,290.386,32.238,288.663,30.128C286.684,27.708,284.355,30.634,283.847,32.670z" fill="url(#shape46grad)" transform="translate(-115.5,2.5)"/>
<path d="M252.674,48.925C252.012,46.903,250.132,52.475,249.977,53.23C248.765,59.137,248.839,65.475,248.572,71.484C248.031,83.603,248.222,95.748,247.429,107.859" fill="none" stroke="#0046B7" stroke-width="1.337" transform="translate(-115.5,2.5)"/>
<path d="M250.915,45.154C250.386,47.269,250.841,49.72,252.264,51.4C253.792,53.203,256.1,52.175,256.618,50.089C257.147,47.974,256.697,45.521,255.27,43.841C253.741,42.039,251.434,43.07,250.915,45.154z" fill="#0046B7" transform="translate(-115.5,2.5)"/>
<path d="M261.653,45.232C261.128,47.348,261.577,49.802,263.002,51.484C264.532,53.287,266.841,52.257,267.359,50.17C267.885,48.056,267.434,45.605,266.01,43.925C264.482,42.125,262.173,43.144,261.653,45.232z" fill="#0046B7" transform="translate(-115.5,2.5)"/>
</g>
</g>
<g id="shape50">
<path d="M197.442,43.341C195.163,45.421,195.196,49.187,195.128,52.023C195.027,56.331,195.894,60.613,197.262,64.681C195.766,62.46,192.785,64.682,191.433,65.914C196.295,67.14,188.895,72.103,187.969,73.765C186.636,76.157,190.132,75.551,191.351,75.116C194.578,73.963,197.44,71.371,199.523,68.722C199.107,70.753,198.191,72.918,198.792,75.007C199.354,76.96,200.781,78.677,201.866,80.365C203.159,82.375,204.542,84.326,206.007,86.215C206.897,87.363,208.741,90.714,210.359,90.81C212.509,90.935,213.541,86.373,213.623,84.84C213.859,80.394,211.753,75.371,209.534,71.633C212.457,71.568,222.465,73.033,223.212,68.651C223.547,66.683,221.684,64.726,220.777,63.156C219.147,60.336,217.043,59.856,214.404,58.248C217.124,55.347,219.247,51.756,219.392,47.693C219.489,44.99,219.309,40.731,216.779,39.072C213.708,37.056,210.198,40.406,208.274,42.523C207.256,43.643,206.372,45.572,204.616,44.691C202.178,43.466,200.225,42.786,197.442,43.341z" fill="#0046B7" />
</g>
</defs>
<g transform="translate(-176,-207.907)">
<rect fill="white" height="416" width="352" x="0" y="0"/>
<rect fill="url(#shape6grad)" height="194" width="270" x="81.895" y="0.007"/>
<use xlink:href="#shape39"/>
<use transform="translate(403.034,-13.661) scale(-1.191,1.276)" xlink:href="#shape39"/>
<path d="M348.211,97.654C346.951,97.396,347.812,95.994,348.331,95.454C346.987,95.267,345.12,95.571,344.782,97.148C344.73,93.435,344.51,87.88,341.107,85.484C338.774,83.839,337.491,88.621,336.015,89.481C335.146,89.988,333.064,89.164,332.059,89.141C330.609,89.109,329.127,89.51,328.527,90.968C326.895,94.933,329.89,99.542,333.78,100.531C332.418,102.846,330.986,105.609,330.623,108.294C329.928,113.43,337.956,107,339.223,106.119C338.79,108.732,338.384,111.656,339.206,114.236C339.509,115.191,341.141,118.121,342.451,117.628C343.349,117.291,343.616,114.73,343.829,113.935C344.383,111.852,344.852,109.748,345.378,107.659C346.093,104.822,345.934,102.839,344.308,100.363C346.06,101.006,348.565,101.421,350.364,100.8C351.211,100.509,351.942,99.574,351.444,98.648C350.901,97.64,349.15,97.845,348.211,97.654z" fill="#3366CC" />
<use xlink:href="#shape28"/>
<use transform="matrix(0.599 -1.096 0.896 0.489 -181.613 385.398)" xlink:href="#shape28"/>
<use xlink:href="#shape32"/>
<use transform="translate(107.346,0.746) scale(1.205,1.242)" xlink:href="#shape32"/>
<use xlink:href="#shape37"/>
<use transform="matrix(1.146 0.455 -0.419 1.057 162.374 -189.23)" xlink:href="#shape37"/>
<use xlink:href="#shape50"/>
<use transform="translate(124,99.334)" xlink:href="#shape50"/>
<use transform="translate(357.232,-19.332) scale(-0.887,0.712)" xlink:href="#shape50"/>
<use transform="matrix(0.522 0.349 -0.226 0.551 17.729 2.217)" xlink:href="#shape50"/>
<path d="M245.101,2.173C249.892,2.86,249.648,11.309,249.696,14.791C250.053,13.136,252.013,12.818,253.424,13.014C251.104,15.36,255.372,15.533,256.785,16.15C258.374,16.844,256.917,17.801,255.965,18.173C253.766,19.032,251.408,18.982,249.2,18.167C249.973,19.347,251.043,20.395,251.049,21.902C251.056,23.312,250.517,24.789,250.243,26.165C249.897,27.904,249.492,29.631,249.031,31.344C248.677,32.658,248.436,34.802,247.584,35.888C246.58,37.167,244.418,34.605,244.154,33.701C243.255,30.628,243.341,27.343,243.86,24.212C242.635,25.064,234.39,31.667,234.83,26.786C235.089,23.898,236.693,20.815,238.147,18.345C234.162,17.333,229.91,11.542,232.973,7.529C234.861,5.056,237.51,6.795,239.804,7.026C240.866,7.133,241.319,6.012,241.715,5.236C242.44,3.819,243.697,2.864,245.101,2.173z" fill="#5AA7E0" />
<path d="M229.713,94.168C225.151,94.834,225.38,102.867,225.334,106.189C224.997,104.612,223.129,104.308,221.786,104.495C224.495,107.306,218.691,106.373,217.892,107.947C216.6,110.498,224.715,109.806,225.807,109.404C222.822,113.964,225.33,120.076,226.805,124.83C227.549,127.226,229.291,126.651,230.413,124.685C231.883,122.107,231.354,117.935,230.894,115.16C232.186,116.056,240.16,122.437,239.435,117.282C239.062,114.625,237.686,111.869,236.334,109.572C240.226,108.584,244.756,102.296,240.865,98.832C238.983,97.156,236.706,98.511,234.615,98.602C233.74,98.64,233.19,97.238,232.736,96.681C231.902,95.658,230.905,94.756,229.713,94.168z" fill="#8CC2EA" />
<path d="M141.904,0L78.5,0L78.5,193.678L81.895,193.664C86.284,136.163,90.046,48.761,141.904,0z" fill="white" />
<path d="M0,416L352,416L352,194.006C219.334,194.006,149.701,132.48,81.975,194.012C53.741,221.596,0,290.303,0,290.303L0,416z" fill="url(#shape25grad)" />
<path d="M81.776,194.012C86.187,136.517,89.867,48.857,141.925,0L0,0L0,416L352,416C173.173,368.893,220.94,191.221,81.776,194.012z" fill="url(#shape26grad)" fill-opacity="0.5" />
</g>
</svg>