<?xml version="1.0" encoding="UTF-8"?>
<!DOCTYPE svg PUBLIC "-//W3C//DTD SVG 1.1 Tiny//EN" "http://www.w3.org/Graphics/SVG/1.1/DTD/svg11-tiny.dtd">
<svg width="84" height="58" viewBox="-0.656 -0.388 84 58">
<linearGradient id="_9" gradientUnits="userSpaceOnUse" x1="43.01" y1="30.25" x2="54.32" y2="52.54">
<stop stop-color="#A2C2DD" offset="0.1"/>
<stop stop-color="#6C83BB" offset="0.71"/>
<stop stop-color="#003D6D" offset="0.99"/>
</linearGradient>
<path fill="url(#_9)" d="M30.365,13.56c0,0.151,0.021,5.872,0.021,5.872l-8.326,3.165l0.612,18.535 c0.154,4.683,4.769,10.025,8.978,10.393l18.088,2.008c2.324,0.454,6.324-2.108,10.989-4.559c4.253-2.545,4.656-6.291,4.656-7.623 c0-0.276,0.28-19.262,0.28-19.262l-7.678-0.768c-0.024-1.038-0.161-6.751-0.161-6.762c0-2.963-3.065-9.388-11.496-10.848 C40.613,2.718,30.365,6.204,30.365,13.56z M37.647,12.055C38.731,8.38,47.681,8.319,50.4,14.108 c0.104,0.224,0.438,1.392,0.548,6.57l-13.509-1.191C37.439,19.486,37.295,13.25,37.647,12.055z"/>
<linearGradient id="_10" gradientUnits="userSpaceOnUse" x1="42.01" y1="29.98" x2="45.01" y2="18.98">
<stop stop-color="#FFFFFF" offset="0.05"/>
<stop stop-color="#A2C2DD" offset="1"/>
</linearGradient>
<polygon fill="url(#_10)" points="22.776,23.073 31.667,19.694 65.115,22.644 57.547,26.237 "/>
<linearGradient id="_11" gradientUnits="userSpaceOnUse" x1="60.53" y1="17.38" x2="58.53" y2="53.63">
<stop stop-color="#FFFFFF" offset="0"/>
<stop stop-color="#A2C2DD" offset="0.35"/>
<stop stop-color="#6C83BB" offset="0.7"/>
<stop stop-color="#003D6D" offset="1"/>
</linearGradient>
<path fill="url(#_11)" d="M64.955,22.662l-7.449,3.588l0.004,18.359c0,0,0.548,4.654-4.381,7.511l7.276-3.769 c4.772-2.857,4.262-7.408,4.262-7.408L64.955,22.662z"/>
<path fill="#3366CC" d="M36.176,20.899c2.012,0.355,2.653,1.136,1.43,1.743c-1.223,0.607-3.846,0.809-5.859,0.454 c-2.012-0.357-2.652-1.133-1.43-1.741C31.539,20.745,34.162,20.544,36.176,20.899z"/>
<path fill="#496DA2" d="M56.535,22.539c2.033,0.275,2.727,1.039,1.547,1.705c-1.182,0.668-3.784,0.989-5.821,0.714 c-2.033-0.273-2.727-1.039-1.544-1.705C51.896,22.584,54.501,22.264,56.535,22.539z"/>
<path fill="#496DA2" d="M35.973,20.83c2.024,0.293,2.689,1.052,1.485,1.697c-1.203,0.646-3.818,0.931-5.842,0.638 c-2.022-0.292-2.688-1.049-1.485-1.694C31.336,20.822,33.95,20.539,35.973,20.83z"/>
<linearGradient id="_12" gradientUnits="userSpaceOnUse" x1="65.59" y1="11.34" x2="33.92" y2="41.67">
<stop stop-color="#FFFFFF" offset="0.05"/>
<stop stop-color="#A2C2DD" offset="1"/>
</linearGradient>
<path fill="url(#_12)" d="M22.776,23.073l34.771,3.167c0.022,0.676-0.136,13.774,0.012,18.286 c0.15,4.504-3.72,8.662-7.743,8.311l-18.104-2.01c-3.767-0.329-8.19-5.213-8.339-9.719 C23.221,36.596,22.798,23.748,22.776,23.073z"/>
<linearGradient id="_13" gradientUnits="userSpaceOnUse" x1="27.47" y1="10.26" x2="86.47" y2="25.76">
<stop stop-color="#FFFFFF" offset="0"/>
<stop stop-color="#A2C2DD" offset="0.35"/>
<stop stop-color="#6C83BB" offset="0.7"/>
<stop stop-color="#003D6D" offset="1"/>
</linearGradient>
<path fill="url(#_13)" d="M36.795,21.394c-0.563,0.424-0.745,0.921-2.378,1.05c-2.465,0.195-3.327-0.498-3.327-0.498 l-0.011-7.979c-0.192-2.813,1.637-5.315,3.525-6.667c2.468-1.764,7.028-3.694,11.605-2.9c5.964,1.033,8.382,4.223,9.594,6.114 c1.354,2.116,1.321,4.081,1.321,4.081l0.208,8.682c0,0-0.5,0.75-2.482,0.885c-2.462,0.273-3.1-0.385-3.1-0.385 s0.037-8.48-0.649-9.947c-0.615-1.309-2.82-4.792-8.339-5.036c-5.118-0.227-6.062,3.971-6.062,3.971 C36.713,11.958,36.795,21.394,36.795,21.394z"/>
<linearGradient id="_14" gradientUnits="userSpaceOnUse" x1="38.47" y1="6.84" x2="34.72" y2="25.34">
<stop stop-color="#FFFFFF" offset="0"/>
<stop stop-color="#A2C2DD" offset="0.35"/>
<stop stop-color="#6C83BB" offset="0.7"/>
<stop stop-color="#003D6D" offset="1"/>
</linearGradient>
<path fill="url(#_14)" d="M34.417,22.444c0,0-0.194-8.187,0.108-9.077c1.378-4.045,6.149-4.455,6.149-4.455 c-3.172,0.985-3.66,2.705-3.814,3.759c-0.154,1.056-0.026,9.064-0.026,9.064C36.044,22.409,35.431,22.442,34.417,22.444z"/>
<linearGradient id="_15" gradientUnits="userSpaceOnUse" x1="50.98" y1="46.88" x2="21.98" y2="17.88">
<stop stop-color="#E6EEF4" offset="0"/>
<stop stop-color="#575AC6" offset="0.44"/>
<stop stop-color="#003D6D" offset="0.94"/>
</linearGradient>
<path fill="url(#_15)" d="M43.229,37.791c0,0,1.456-0.565,1.973-3.008c0.33-0.753,0.188-5.733-4.7-6.157 c-1.825-0.158-3.854,1.833-3.854,4.277c0,2.821,2.303,4.466,2.303,4.466l0.262,7.37l4.222,0.372L43.229,37.791z"/>
<path fill="#FFFFFF" d="M11.864,34.334c-2.915,0-6.905,0.691-7.916,6.67l-0.152,0.901c0,0,6.712,0,7.508,0 c0.24,0.433,0.601,1.077,0.827,1.493c-0.227,0.411-0.587,1.059-0.827,1.49c-0.797,0-7.508,0-7.508,0l0.152,0.9 c1.011,5.979,5.001,6.67,7.916,6.67c2.297,0,4.345-1.926,5.989-3.477c0.889-0.839,1.728-1.627,2.173-1.627h20.559l0.229-0.252 c0.441-0.485,1.467-1.813,1.489-3.674v-0.065c-0.022-1.862-1.048-3.19-1.489-3.675l-0.229-0.252H20.023 c-0.442,0-1.282-0.788-2.168-1.623C16.207,36.262,14.161,34.334,11.864,34.334z"/>
<linearGradient id="_16" gradientUnits="userSpaceOnUse" x1="9.71" y1="28.82" x2="33.86" y2="57.43">
<stop stop-color="#E6EEF4" offset="0"/>
<stop stop-color="#9646AC" offset="0.44"/>
<stop stop-color="#3D013F" offset="0.94"/>
</linearGradient>
<path fill="url(#_16)" d="M41.532,43.398c0-0.008,0.002-0.019,0.002-0.025H41.53c-0.019-1.619-0.947-2.789-1.29-3.162 c-0.433,0-20.217,0-20.217,0c-0.75,0-1.566-0.771-2.701-1.836c-1.546-1.455-3.467-3.268-5.459-3.268 c-3.234,0-6.295,0.95-7.152,6.025c1.216,0,7.048,0,7.048,0l1.256,2.266l-1.256,2.262c0,0-5.832,0-7.048,0 c0.857,5.076,3.918,6.025,7.152,6.025c1.992,0,3.915-1.811,5.459-3.268c1.135-1.064,1.951-1.835,2.701-1.835 c0,0,19.784,0,20.217,0c0.343-0.373,1.271-1.543,1.29-3.163h0.004C41.534,43.414,41.532,43.405,41.532,43.398z"/>
</svg>