<?xml version="1.0" encoding="UTF-8"?>
<!DOCTYPE svg PUBLIC "-//W3C//DTD SVG 1.1 Tiny//EN" "http://www.w3.org/Graphics/SVG/1.1/DTD/svg11-tiny.dtd">
<svg width="352" height="126" viewBox="-0.604 0.382 352 126">
<path fill-opacity="0.01" fill="#656B6B" d="M13.396,10.382c-6.617,0-12,5.383-12,12v86c0,6.617,5.383,12,12,12h324 c6.617,0,12-5.383,12-12v-86c0-6.617-5.383-12-12-12H13.396z"/>
<path fill-opacity="0.03" fill="#656B6B" d="M13.396,11.382c-6.064,0-11,4.934-11,11v86c0,6.064,4.936,11,11,11h324 c6.066,0,11-4.936,11-11v-86c0-6.066-4.934-11-11-11H13.396z"/>
<path fill-opacity="0.04" fill="#656B6B" d="M13.396,12.382c-5.514,0-10,4.486-10,10v86c0,5.514,4.486,10,10,10h324 c5.514,0,10-4.486,10-10v-86c0-5.514-4.486-10-10-10H13.396z"/>
<path fill-opacity="0.09" fill="#656B6B" d="M13.396,13.382c-4.963,0-9,4.037-9,9v86c0,4.963,4.037,9,9,9h324c4.963,0,9-4.037,9-9v-86 c0-4.963-4.037-9-9-9H13.396z"/>
<path fill-opacity="0.08" fill="#656B6B" d="M13.396,14.382c-4.41,0-8,3.588-8,8v86c0,4.41,3.59,8,8,8h324c4.412,0,8-3.59,8-8v-86 c0-4.412-3.588-8-8-8H13.396z"/>
<path fill-opacity="0.1" fill="#656B6B" d="M13.396,15.382c-3.859,0-7,3.141-7,7v86c0,3.859,3.141,7,7,7h324c3.859,0,7-3.141,7-7v-86 c0-3.859-3.141-7-7-7H13.396z"/>
<path fill-opacity="0.11" fill="#656B6B" d="M13.396,16.382c-3.309,0-6,2.691-6,6v86c0,3.309,2.691,6,6,6h324c3.309,0,6-2.691,6-6v-86 c0-3.309-2.691-6-6-6H13.396z"/>
<path fill-opacity="0.1" fill="#656B6B" d="M342.396,108.382c0,2.762-2.238,5-5,5h-324c-2.762,0-5-2.238-5-5v-86c0-2.762,2.238-5,5-5 h324c2.762,0,5,2.238,5,5V108.382z"/>
<polygon fill-opacity="0.03" fill="#656B6B" points="341.396,13.382 4.396,13.382 4.396,113.382 342.396,113.382 342.396,13.382 "/>
<linearGradient id="_2" gradientUnits="userSpaceOnUse" x1="173.4" y1="101.49" x2="173.4" y2="37.29">
<stop stop-color="#D9F4E0" offset="0"/>
<stop stop-color="#FFFFFF" offset="1"/>
</linearGradient>
<rect x="5.396" y="14.382" fill="url(#_2)" width="336" height="98"/>
</svg>