<?xml version="1.0" encoding="utf-8"?>
<!DOCTYPE svg PUBLIC "-//W3C//DTD SVG 1.1 Tiny//EN" "http://www.w3.org/Graphics/SVG/1.1/DTD/svg11-tiny.dtd">
<svg width="60" height="80" viewBox="0 0 60 80">
<linearGradient id="_364" gradientUnits="userSpaceOnUse" x1="20.69" y1="30.75" x2="38.19" y2="51.79">
<stop stop-color="#DEE9F3" offset="0"/>
<stop stop-color="#235487" offset="1"/>
</linearGradient>
<circle fill="url(#_364)" cx="29.527" cy="41.367" r="23.417"/>
<radialGradient id="_365" gradientUnits="userSpaceOnUse" cx="34.05" cy="26.71" r="42.04">
<stop stop-color="#FFFFFF" offset="0"/>
<stop stop-color="#A2C2DD" offset="0.53"/>
<stop stop-color="#6C83BB" offset="0.87"/>
<stop stop-color="#003D6D" offset="1"/>
</radialGradient>
<circle fill="url(#_365)" cx="29.566" cy="41.366" r="22.724"/>
<radialGradient id="_366" gradientUnits="userSpaceOnUse" cx="34.36" cy="29.04" r="28.6">
<stop stop-color="#E6EEF4" offset="0"/>
<stop stop-color="#C6DCC1" offset="0.08"/>
<stop stop-color="#91C06F" offset="0.21"/>
<stop stop-color="#6BAB33" offset="0.32"/>
<stop stop-color="#539E0E" offset="0.4"/>
<stop stop-color="#4A9900" offset="0.44"/>
<stop stop-color="#398419" offset="0.55"/>
<stop stop-color="#22663B" offset="0.71"/>
<stop stop-color="#135550" offset="0.85"/>
<stop stop-color="#0E4E58" offset="0.94"/>
</radialGradient>
<path fill="url(#_366)" d="M11.79,42.425l-1.397-1.514c0,0.006,0.168-0.966-0.028-1.195c-0.175-0.203-0.671-0.786-1.021-0.902c-0.32-0.106-0.393-1.238-0.844-1.865c-0.409-0.565-0.737-0.882-0.999-1.01c-0.017,0.068-0.031,0.138-0.047,0.207c-0.074,0.314-0.143,0.631-0.204,0.95c-0.024,0.126-0.046,0.252-0.068,0.379c-0.05,0.292-0.095,0.587-0.135,0.884c-0.018,0.139-0.037,0.278-0.053,0.417c-0.034,0.3-0.061,0.602-0.083,0.904c-0.01,0.131-0.022,0.261-0.03,0.392c-0.024,0.423-0.039,0.848-0.039,1.275c0,0.006,0,0.014,0,0.021c0,0.6,0.03,1.19,0.076,1.778c0.007,0.098,0.013,0.194,0.022,0.293c0.051,0.565,0.123,1.127,0.215,1.681c0.015,0.092,0.033,0.185,0.049,0.274c0.208,1.16,0.501,2.289,0.877,3.379c0.021,0.063,0.041,0.125,0.063,0.187c0.19,0.535,0.4,1.062,0.628,1.577c0.029,0.064,0.059,0.13,0.088,0.193c0.485,1.07,1.048,2.098,1.686,3.07c0.02,0.03,0.038,0.061,0.058,0.092c0.316,0.478,0.652,0.941,1.002,1.394c0.017,0.021,0.034,0.043,0.051,0.065c0.431-0.617,0.772-1.305,1.035-1.912c0.272-0.629-1.369-1.516-0.291-2.535c0.321,0,1.147,0.102,1.247-0.199c0.007-0.13,0.214-1.18,0.209-1.314c-0.043-1.355-0.087-1.924-0.087-1.924l0.35-0.262l0.889-1.385v-1.313l-1.354-1.033L11.79,42.425z M16.799,22.571c-0.063,0.043-0.125,0.09-0.188,0.133c-0.586,0.408-1.152,0.841-1.696,1.301c-0.074,0.062-0.146,0.126-0.219,0.189c-0.53,0.459-1.039,0.942-1.524,1.448c-0.063,0.066-0.127,0.132-0.19,0.199c-0.492,0.526-0.96,1.075-1.401,1.646c-0.021,0.027-0.042,0.053-0.063,0.081c0.787-0.623,2.214-1.751,2.34-1.836c0.176-0.116,1.021-0.466,1.021-0.874c0-0.408,0.67-0.612,0.67-0.612l0.088,0.321l0.611,0.262c0,0,0.729-0.787,0.874-0.991s0.407-0.989,0.407-0.989l1.265-1.49c-0.016,0.008-0.032,0.016-0.047,0.024C18.077,21.747,17.427,22.144,16.799,22.571z M47.784,48.593l-0.742,1.175c0,0-1.108,0.351-1.151,0.701c-0.021,0.149-0.072,0.801-0.218,1.135c-0.291,0.203-0.641,0.873-0.641,0.873s-0.354,0.948,0.61,0.729c0.967-0.221,2.215-2.913,2.215-2.913S48.882,48.374,47.784,48.593z M23.869,20.914c0.66,0.219,1.202-0.223,1.816-0.616c0.219-0.045,0.526,0.086,1.056-0.178c0.527-0.264,1.581-0.834,1.844-0.834s1.255,0.183,1.473-0.167c0,0,0.656,0.087,1.049,0.131c0.545,0.061,2.621,0.312,3.19,0.092c0.08-0.031,0.196-0.074,0.327-0.123c-0.107-0.025-0.216-0.052-0.326-0.075c-0.131-0.028-0.263-0.053-0.395-0.079c-0.256-0.049-0.512-0.097-0.771-0.137c-0.127-0.021-0.255-0.037-0.383-0.054c-0.271-0.038-0.539-0.075-0.812-0.103c-0.1-0.011-0.198-0.017-0.299-0.025c-0.684-0.062-1.375-0.099-2.076-0.099c-0.118,0-0.234,0.007-0.352,0.009c-0.351,0.005-0.699,0.017-1.046,0.038c-0.2,0.012-0.398,0.028-0.597,0.045c-0.318,0.028-0.635,0.063-0.949,0.104c-0.16,0.021-0.32,0.037-0.479,0.061c-0.439,0.067-0.873,0.147-1.304,0.239c-0.169,0.036-0.336,0.077-0.503,0.116c-0.306,0.072-0.609,0.15-0.91,0.234c-0.113,0.032-0.227,0.063-0.34,0.097c-0.571,0.552-1.187,1.296-2.681,2.211c0.093,0.191,0.404,0.238,1.059,0.031C21.948,21.789,23.209,20.694,23.869,20.914z M51.422,35.153c-0.066-0.237-0.135-0.473-0.21-0.707c-0.049-0.152-0.103-0.302-0.153-0.453c-0.072-0.211-0.146-0.421-0.224-0.63c-0.062-0.163-0.127-0.324-0.19-0.486c-0.078-0.19-0.156-0.38-0.236-0.568c-0.074-0.169-0.15-0.337-0.229-0.505c-0.082-0.176-0.166-0.35-0.252-0.523c-0.085-0.172-0.173-0.344-0.263-0.514c-0.086-0.163-0.174-0.323-0.265-0.483c-0.098-0.174-0.195-0.348-0.299-0.519c-0.088-0.149-0.181-0.297-0.271-0.444c-0.109-0.176-0.221-0.351-0.336-0.523c-0.092-0.137-0.186-0.271-0.279-0.406c-0.123-0.176-0.246-0.353-0.374-0.526c-0.09-0.122-0.185-0.242-0.276-0.362c-0.14-0.179-0.276-0.359-0.42-0.534c-0.084-0.103-0.172-0.202-0.258-0.303c-0.158-0.187-0.316-0.374-0.482-0.556c-0.061-0.067-0.125-0.131-0.187-0.198c-0.885-0.953-1.851-1.831-2.887-2.621c-0.063-0.049-0.127-0.101-0.192-0.149c-0.213-0.159-0.432-0.311-0.65-0.462c-0.09-0.063-0.178-0.127-0.271-0.188c-0.211-0.142-0.427-0.277-0.643-0.412c-0.104-0.064-0.205-0.13-0.31-0.193c-0.215-0.128-0.433-0.251-0.65-0.374c-0.11-0.062-0.221-0.124-0.331-0.183c-0.089-0.047-0.177-0.09-0.267-0.136c-0.691,0.194-1.261,0.342-1.396,0.342c-0.396,0-0.289-0.336-0.642-0.379c-0.354-0.044-3.282-0.802-3.678-0.407c-0.396,0.396-1.941,0.8-2.295,0.845c-0.35,0.044,0.117,1.107,1.049,1.776c-0.129,0.132-2.213,1.286-2.213,0.496c0-0.791-0.408-1.369-1.049-1.603c-0.583,0.146-1.253,0.757-0.32,1.603c0.581,0.525,0.036,0.608-0.037,0.747c-0.186,0.351,0.782,0.316,0.915,1.327c0.07,0.537-0.063,0.14-0.266,0.395c-0.706,0.063-1.395-0.009-1.45-0.132c-0.312-0.7-0.966,0.372-1.142,0.637c-0.176,0.263-0.213,1.199-0.213,1.199l1.206,0.597l-2.015,1.96c0,0-2.956,2.051-3.001,2.316c-0.044,0.263-1.313,3.665-0.874,4.676c0.439,1.011,2.715,3.735,3.767,3.82c1.376,0.111,5.352-0.682,5.352-0.682c0.09,0.221,0.678,1.092,0.678,1.092s1.681,0.195,1.771,0.371c0.03,0.063-0.842,1.762-0.306,2.514c1.164,1.631,1.748,3.313,1.107,4.07c-1.531,2.295-0.357,2.471,0.014,3.672c0.133,0.352-0.408,1.807,0.263,2.943c0.67,1.95,1.1,1.076,1.981,1.396c1.084,0.095,1.65-0.077,2.572-1.266c0.266-0.217,0.721-0.041,0.721-0.35c0-0.173,0.785-0.677,0.986-1.146c0.215-0.099,0.762-0.469,1.133-0.645c0.336-0.021-0.322-0.926,0.35-1.88c0.722-0.283,2.666-1.595,2.666-1.595c0.086-1.922-0.946-4.297,0.982-5.659c1.246-1.267,1.422-1.114,2.213-3.047c0.219-0.57,0.973-2.611-0.35-2.127c-0.873,0.32-1.092,0.306-1.369,0.219c-0.08-0.714-0.232-1.005-1.02-1.704c-0.408-0.961-1.398-2.622-1.398-2.622l-1.398-2.127l0.174-0.437l1.662,2.446l1.369,1.676c0.275,0.801,0.232,1.268,0.685,2.112c0.922-0.324,1.676-0.933,1.676-0.933l0.61-0.859c0,0,0.938-0.883,0.238-2.718c-0.033-0.033-1.098,0.008-1.098,0.008l-0.758-0.641l-0.85-1.2l0.037-0.383l0.959,1.088l1.268,0.786l1.092,0.088l0.689,1.369c0.197,0.128,0.328,0.213,0.328,0.213s0.043,0.006,0.114,0.009C51.482,35.361,51.451,35.258,51.422,35.153z M35.182,22.096c-0.183-0.467,0.541-0.643,0.541-0.643s0.1,0.483,0.329,0.73c0.232,0.248-0.092,0.416,0.273,1.002c0.366,0.587-0.875,0.265-1.104,0.061C34.995,23.044,35.363,22.563,35.182,22.096z M41.721,30.847c-0.746,0-1.783-0.002-2.423-0.44c-0.635-0.438-0.862,0.189-1.286,0.628c-0.275,0.286-1.447-0.144-1.775-0.582c-0.33-0.441-1.359-0.547-1.359-0.547l-0.424-1.23l-2.61-0.176l-1.666,0.495l-1.622-0.255l1.161-0.232l0.638-0.408c0,0,1.292-1.215,1.757-1.61c0.394-0.335,1.966-0.131,1.966-0.131l1.799,1.44c0,0-0.123,0.657-0.289,0.876c0.656-0.045,1.147-0.888,1.147-0.888c-1.459-1.281-1.448-1.593-1.448-1.593l1.875,1.06l0.135,0.546l0.369,0.218c0,0,0.379,1.068,1.099,1.122c0.309,0.023,0.055-1.209,0.055-1.209l0.383-0.054c0.262,0.554,0.895,1.729,1.404,1.438c0.293-0.166,0.473,0.031,1.053,0.251c0.582,0.219,0.955-0.117,1.441,0.291C43.128,31.663,42.032,30.935,41.721,30.847z M42.221,27.731c-0.671-0.262-1.357-0.133-1.357-0.133c-0.152,0.297-1.229-0.009-1.014-0.665c0.217-0.655,0.506-0.977,0.889-0.454c0.125,0.216,0.639,0.403,0.727,0.079c0.127-0.467,0.414-0.715,0.625-0.376c-0.244,0.323,0.215,0.576,0.535,0.748C43.523,27.416,44.116,28.114,42.221,27.731z M45.925,29.337c-0.338-0.301-0.118-0.656-0.631-1.133c-0.729-0.683-1.131-0.978-0.711-1.724c0.717-0.341,0.291,0.456,0.562,0.837c0.145,0.202,0.787,0.846,1.397,1.67C47.052,29.672,46.262,29.637,45.925,29.337z M25.957,20.732c0.246,0.308,0.656,0.586,0.943,0.53c0.287-0.056,0.943-0.362,0.943-0.362s-0.328-0.14-0.697-0.084S26.244,20.594,25.957,20.732z"/>
</svg>