<?xml version="1.0" encoding="utf-8"?>
<!DOCTYPE svg PUBLIC "-//W3C//DTD SVG 1.1 Tiny//EN" "http://www.w3.org/Graphics/SVG/1.1/DTD/svg11-tiny.dtd">
<svg width="60" height="80" viewBox="0 0 60 80">
<linearGradient id="_274" gradientUnits="userSpaceOnUse" x1="20.83" y1="28.97" x2="39" y2="50.81">
<stop stop-color="#DEE9F3" offset="0"/>
<stop stop-color="#235487" offset="1"/>
</linearGradient>
<circle fill="url(#_274)" cx="30" cy="39.999" r="24.304"/>
<radialGradient id="_275" gradientUnits="userSpaceOnUse" cx="34.63" cy="24.88" r="43.38">
<stop stop-color="#FFFFFF" offset="0"/>
<stop stop-color="#A2C2DD" offset="0.53"/>
<stop stop-color="#6C83BB" offset="0.87"/>
<stop stop-color="#003D6D" offset="1"/>
</radialGradient>
<circle fill="url(#_275)" cx="30" cy="39.998" r="23.444"/>
<radialGradient id="_276" gradientUnits="userSpaceOnUse" cx="34.94" cy="27.28" r="29.51">
<stop stop-color="#E6EEF4" offset="0"/>
<stop stop-color="#C6DCC1" offset="0.08"/>
<stop stop-color="#91C06F" offset="0.21"/>
<stop stop-color="#6BAB33" offset="0.32"/>
<stop stop-color="#539E0E" offset="0.4"/>
<stop stop-color="#4A9900" offset="0.44"/>
<stop stop-color="#398419" offset="0.55"/>
<stop stop-color="#22663B" offset="0.71"/>
<stop stop-color="#135550" offset="0.85"/>
<stop stop-color="#0E4E58" offset="0.94"/>
</radialGradient>
<path fill="url(#_276)" d="M41.777,48.004l-1.504,1.503c0,0-0.904,0-0.947,0.362c-0.021,0.154-0.074,0.826-0.225,1.171c-0.3,0.209-0.662,0.901-0.662,0.901s-0.185,1.338,0.813,1.111C40.25,52.826,43.32,48.732,41.777,48.004z M6.556,39.998c0,0.001,0,0.001,0,0.002c0,0.007,0.001,0.013,0.001,0.019c0,0.724,0.044,1.438,0.107,2.145c0.021,0.232,0.054,0.464,0.082,0.695c0.06,0.484,0.133,0.966,0.22,1.439c0.048,0.252,0.095,0.504,0.148,0.753c0.108,0.49,0.236,0.974,0.374,1.453C7.546,46.7,7.592,46.9,7.652,47.092c0.007,0.021,0.016,0.04,0.021,0.061c0.018-0.187,0.025-0.379,0.019-0.576c-0.045-1.396-0.27-1.217-0.27-1.217L9,43.241v-1.354l-1.849-1.848C7.152,40.039,6.557,39.945,6.556,39.998z M52.982,35.371c-0.024-0.117-0.057-0.23-0.08-0.346c-0.125-0.58-0.273-1.15-0.44-1.712c-0.045-0.153-0.089-0.308-0.137-0.46c-0.205-0.639-0.433-1.268-0.688-1.88c-0.045-0.109-0.097-0.214-0.144-0.321c-0.235-0.539-0.49-1.068-0.765-1.586c-0.064-0.124-0.127-0.249-0.194-0.371c-0.323-0.584-0.668-1.155-1.037-1.708c-0.063-0.096-0.134-0.188-0.198-0.283c-0.339-0.489-0.693-0.965-1.066-1.426c-0.074-0.093-0.147-0.188-0.225-0.281c-0.429-0.514-0.879-1.01-1.351-1.486c-0.081-0.082-0.166-0.161-0.25-0.242c-0.431-0.423-0.878-0.83-1.341-1.218c-0.078-0.065-0.152-0.135-0.231-0.199c-0.521-0.427-1.063-0.831-1.622-1.213c-0.098-0.067-0.197-0.13-0.297-0.195c-0.516-0.342-1.046-0.665-1.589-0.965c-0.073-0.041-0.144-0.085-0.218-0.125c-0.604-0.325-1.221-0.621-1.854-0.893c-0.112-0.047-0.226-0.092-0.337-0.139c-0.246-0.101-0.502-0.181-0.751-0.274c-0.298,0.188-1.674,0.967-1.674,0.967s-5.979-0.816-6.388-0.409c-0.408,0.409-2.001,0.826-2.365,0.872c-0.36,0.046-1.111,0.24-0.211,1.352c-0.134,0.137-2.704,1.928-2.704,1.112c0-0.815,0.574-2.272-0.232-1.491c-0.58,0.56-0.926,1.32-1.001,1.462c-0.19,0.362-0.306,0.537-0.168,1.579c0.136,1.042-1.665,1.036-1.785,0.766c-0.321-0.723-2.104,1.623-2.104,1.623l0.752,0.961c0,0-5.245,4.041-5.29,4.313c-0.046,0.271-1.354,3.78-0.901,4.823c0.452,1.044,1.599,3.674,2.683,3.762c1.42,0.116,4.868-0.65,4.868-0.65c0.093,0.228,0.741,1.384,0.741,1.384s1.691-0.056,1.785,0.127c0.031,0.063,2.036,5.959,1.374,6.739c-1.578,2.367,0.902,5.83,1.593,7.003c0.691,2.014,1.136,1.112,2.044,1.442c1.119,0.098,2.062,0.51,3.013-0.713c0.275-0.226,0.744-0.046,0.744-0.362c0-0.177,0.813-0.697,1.02-1.184c0.221-0.102,0.785-0.483,1.168-0.666c0.348-0.022-0.331-0.953,0.359-1.938c0.744-0.294,2.75-1.646,2.75-1.646c0.091-1.982-0.977-4.434,1.016-5.838c1.284-1.309,2.969-2.054,3.785-4.046c0.227-0.589,0.73-1.794-0.721-1.433c-1.363,0.343-2.885,0.422-2.164-0.18c-0.082-0.736-0.99-1.082-1.803-1.804c-0.42-0.992-1.082-2.766-1.082-2.766l-1.442-2.192l0.181-0.452l1.713,2.525l1.715,2.073c0.631,2.074,1.172,2.255,1.172,2.255c0.949-0.335,3.201-1.262,3.201-1.262l2.209-2.12c0,0-0.227-0.676-1.125-1.532l-0.68-0.407c-0.146,0.416-0.932,0.572-0.932,0.572l-1.908-2.283l0.71-0.144l0.547,1.041l1.313,0.454c0,0,0.363-0.266,1.037,0.431c0.551-0.044,2.697,0.105,3.199,0.741c0.098,0.125,2.659,6.522,3.164,6.53c0.221,0.002,0.383,0.09,0.309-0.298c-0.09-0.181,0-4.198,0.136-5.059c0.343-0.73,0.399-0.003,1.209,1.383C52.991,35.438,52.988,35.404,52.982,35.371z M30.448,19.872c0.181-0.533,1.217-0.715,1.217-0.715s-0.297,0.55-0.229,0.834c0.069,0.286-0.475,0.468-0.535,1.141c-0.058,0.672-1.299,0.279-1.402,0.043C29.399,20.939,30.265,20.405,30.448,19.872z M34.895,28.947c-0.77,0-3.076,0.228-3.711-0.226c-0.635-0.452-1.127,0.046-1.585,0.5c-0.3,0.295-1.389-0.302-1.707-0.755c-0.316-0.454-1.381-0.42-1.381-0.42l0.24-1.292l-3.066-0.15l-1.744,0.51l-1.641,0.049l0.92-0.439l1.143-0.271c0,0,1.665-1.366,2.164-1.773c0.422-0.345,2.104-0.15,2.104-0.15l1.849,1.333c0,0-0.41,1.043-0.591,1.268c0.678-0.045,1.477-1.279,1.477-1.279c-1.442-1.323-1.383-1.773-1.383-1.773l1.899,1.333l0.018,0.012c0,0,0.77,1.812,1.089,1.812c0.316,0,0.72-1.249,0.72-1.249l0.542-0.135c0.24,0.571,0.691,1.864,1.232,1.562c0.31-0.171,0.824-0.015,1.412,0.211c0.592,0.225,0.992-0.121,1.474,0.3C36.307,29.79,35.213,29.037,34.895,28.947z M36.102,25.828c-0.793-0.302-3.472,0.682-2.873-0.927c0.32-0.866,1.141-1.047,1.422-0.47c0.072,0.236,0.966,0.604,0.959,0.104c-0.008-0.5,0.896-0.766,1.027-0.394C36.154,24.488,38.521,26.292,36.102,25.828z M41.148,27.352c-0.438-0.354,0.197-0.657-0.45-1.211c-0.929-0.795-1.652-1.138-0.388-1.781c1.559-0.196,0.252,0.497,0.512,0.913c0.139,0.222,0.927,0.963,1.541,1.873C42.875,27.901,41.585,27.704,41.148,27.352z M21.399,19.03c0.682,0.225,1.24-0.231,1.875-0.637c0.226-0.046,2.72-1.043,2.99-1.043s1.176-0.034,1.401-0.395c0,0,3.905,0.679,4.493,0.452c0.322-0.124,1.666-0.232,2.82-0.306c-0.063-0.014-0.123-0.035-0.187-0.048c-0.063-0.013-0.124-0.022-0.188-0.036c-0.725-0.145-1.457-0.261-2.203-0.336c-0.006,0-0.012,0-0.018-0.002c-0.783-0.079-1.58-0.12-2.386-0.12c-0.748,0-1.487,0.043-2.217,0.112c-0.129,0.012-0.258,0.026-0.386,0.041c-0.707,0.078-1.407,0.18-2.094,0.319c-0.013,0.003-0.025,0.005-0.037,0.007c-0.711,0.146-1.41,0.33-2.096,0.539c-0.118,0.036-0.232,0.075-0.35,0.112c-0.608,0.196-1.208,0.414-1.796,0.657c-0.069,0.029-0.14,0.054-0.21,0.083c-0.647,0.276-1.279,0.583-1.895,0.913c-0.093,0.049-0.182,0.103-0.273,0.154c-0.264,0.146-0.512,0.311-0.768,0.467C19.143,20.387,20.727,18.804,21.399,19.03z"/>
<path fill="#DEE9F3" d="M6.694,42.491c0.141-0.107,2.081-2.021,3.225-2.969c-0.337,2.296-0.499,4.66-0.462,7.063c-1.031-1.219-2.53-3.354-2.719-3.688c0.073,0.694,0.247,1.695,0.365,2.185c0.214,0.337,1.532,2.019,2.407,2.987c0.063,1.311,0.18,2.629,0.355,3.955c0.263,0.58,1.626,2.588,1.748,2.521c1.032-0.557,2.042-1.143,3.016-1.76c2.441,1.906,5.165,3.626,8.113,5.1c-2.052,0.6-4.101,1.057-6.122,1.368c0.287,0.201,0.722,0.505,1.129,0.75c2.062-0.36,4.144-0.871,6.223-1.524c1.432,0.67,2.907,1.285,4.425,1.834c2.691,0.972,5.482,1.711,8.184,2.213c0.53-0.156,1.392-0.42,1.854-0.619c-3.22-0.479-6.494-1.303-9.724-2.467c-1.175-0.424-2.319-0.894-3.441-1.391c1.767-0.607,3.526-1.31,5.264-2.126c8.053-3.782,14.717-9.376,18.848-15.631c1.355,0.813,2.666,1.668,3.918,2.565c0.055-0.31,0.098-0.83,0.105-1.062c-1.137-0.796-2.314-1.56-3.53-2.288c1.104-1.78,2.017-3.604,2.683-5.455c0.03-0.083,0.061-0.166,0.088-0.25l-0.483-1.553c-0.138,0.496-0.295,0.991-0.474,1.488c-0.649,1.797-1.535,3.568-2.609,5.298c-3.139-1.815-6.516-3.398-10.078-4.684c-2.497-0.901-5.001-1.621-7.48-2.183c0.293-1.085,0.483-2.154,0.602-3.211c7.07-1.399,13.777-1.009,19.093,1.023l-0.586-1.173c-5.256-1.78-11.678-2.091-18.42-0.802c0.183-2.914-0.304-5.687-1.483-8.2c-0.546-1.16-1.226-2.233-2.02-3.215c-0.256,0-0.874,0.05-1.141,0.082c0.93,1.059,1.712,2.235,2.319,3.528c1.146,2.438,1.604,5.144,1.389,7.994c-2.831,0.599-5.709,1.483-8.573,2.653c-3.322-0.234-6.544-0.164-9.604,0.196c2.09-5.315,5.351-9.926,9.66-13.344c-0.746,0.26-2.116,0.774-2.561,0.998c-3.583,3.399-6.328,7.671-8.145,12.487c-1.4,0.196-2.764,0.457-4.084,0.777c-0.126,0.343-0.3,0.862-0.326,1.013c1.309-0.336,2.665-0.609,4.061-0.822c-0.667,1.93-1.189,3.938-1.562,6.008c-1.256,0.997-2.437,2.029-3.545,3.11C6.594,41.273,6.637,42.159,6.694,42.491z M31.161,29.163c-0.12,0.923-0.289,1.857-0.546,2.803c-1.968-0.414-3.918-0.721-5.842-0.929C26.913,30.251,29.05,29.629,31.161,29.163z M12.72,32.016c2.584-0.332,5.289-0.453,8.081-0.348c-0.199,0.092-0.398,0.176-0.596,0.268c-3.242,1.522-6.255,3.342-8.973,5.377C11.607,35.489,12.106,33.719,12.72,32.016z M11.07,53.779c-0.249-1.496-0.471-3.238-0.572-4.676c1.039,1.064,2.156,2.094,3.354,3.07C13.03,52.688,11.972,53.287,11.07,53.779z M10.421,47.686c-0.123-3.084,0.068-6.106,0.563-9.013c4.222-3.424,11.117-6.575,11.871-6.887c2.448,0.186,4.949,0.538,7.478,1.067c-0.093,0.297-0.171,0.591-0.279,0.887c-2.417,6.703-7.982,13.099-15.378,17.906C13.124,50.396,11.7,49.073,10.421,47.686z M30.141,55.087c-2.009,0.94-4.046,1.741-6.088,2.401c-3.136-1.491-6.034-3.26-8.608-5.239c7.43-4.899,13.027-11.388,15.481-18.194c0.12-0.335,0.213-0.665,0.316-0.997c2.467,0.557,4.956,1.272,7.443,2.169c3.502,1.263,6.817,2.817,9.899,4.595C44.55,45.919,38.027,51.381,30.141,55.087z"/>
<circle fill="#DEE9F3" cx="22.699" cy="31.345" r="1.601"/>
<circle fill="#DEE9F3" cx="31.52" cy="28.404" r="1.601"/>
</svg>