<?xml version="1.0" encoding="UTF-8"?>
<!DOCTYPE svg PUBLIC "-//W3C//DTD SVG 1.1 Tiny//EN" "http://www.w3.org/Graphics/SVG/1.1/DTD/svg11-tiny.dtd">
<svg width="96" height="96" viewBox="0 0 96 96">
<path d="M81.949,81.929L60.817,60.798c-0.844,0.843-6.581,5.673-12.816,5.673c-6.206,0-12.007-4.775-12.851-5.617 L14.077,81.954C23.134,91.012,35.178,96,47.991,96C60.817,96,72.877,91.003,81.949,81.929z" fill-opacity="0.01" />
<path d="M80.414,80.394L60.817,60.798c-1.254,1.253-6.935,5.673-12.816,5.673c-5.821,0-11.597-4.366-12.851-5.617 L15.613,80.419c8.646,8.647,20.145,13.41,32.378,13.41C60.237,93.829,71.753,89.058,80.414,80.394z" fill-opacity="0.02" />
<path d="M78.879,78.858L60.817,60.798c-1.663,1.663-7.295,5.673-12.816,5.673c-5.402,0-11.187-3.958-12.851-5.617 l-18.002,18.03c8.236,8.237,19.19,12.773,30.843,12.773C59.658,91.657,70.627,87.112,78.879,78.858z" fill-opacity="0.04" />
<path d="M77.344,77.323L60.817,60.798c-2.073,2.072-7.771,5.673-12.816,5.673c-5.019,0-10.776-3.549-12.851-5.617 L18.684,77.349c7.826,7.826,18.235,12.138,29.308,12.138C59.078,89.486,69.502,85.167,77.344,77.323z" fill-opacity="0.07" />
<path d="M75.808,75.788l-14.99-14.99c-2.483,2.482-8.279,5.673-12.816,5.673c-4.498,0-10.366-3.141-12.851-5.617 L20.218,75.813c7.417,7.417,17.28,11.502,27.773,11.502C58.498,87.314,68.376,83.222,75.808,75.788z" fill-opacity="0.11" />
<path d="M47.991,85.144c9.926,0,19.261-3.867,26.281-10.891L60.817,60.798c-2.894,2.893-8.724,5.673-12.816,5.673 c-3.933,0-9.958-2.73-12.851-5.617L21.753,74.277C28.76,81.285,38.078,85.144,47.991,85.144z" fill-opacity="0.13" />
<path d="M47.999,65.492c4.824,0,9.192-1.953,12.356-5.111l12.356,12.382 c-13.649,13.649-35.788,13.639-49.45-0.024l12.369-12.369C38.796,63.535,43.169,65.492,47.999,65.492z" fill="#496DA2"/>
<linearGradient id="_3" gradientUnits="userSpaceOnUse" x1="47.95" y1="66.07" x2="47.95" y2="82.61">
<stop stop-color="#FFFFFF" offset="0.15"/>
<stop stop-color="#DEE9F3" offset="0.38"/>
<stop stop-color="#CADCEC" offset="0.66"/>
<stop stop-color="#A2C2DD" offset="0.97"/>
</linearGradient>
<path d="M47.837,82.106c-8.748,0-17.043-3.295-23.367-9.118c1.028-1.041,10.648-10.519,11.587-11.469 c3.341,3.1,7.106,4.778,11.665,4.778c4.554,0,8.823-1.714,12.162-4.805c0.937,0.95,10.522,10.449,11.551,11.49 C65.08,78.991,56.57,82.106,47.837,82.106z" fill="url(#_3)"/>
<path d="M70.488,72.984c-12.771,11.346-32.239,11.332-45,0h-1.046c13.207,12.253,33.872,12.265,47.092,0 H70.488z" fill="#FFFFFF"/>
<linearGradient id="_4" gradientUnits="userSpaceOnUse" x1="47.99" y1="54.05" x2="47.99" y2="78.36">
<stop stop-color="#87A8CB" offset="0"/>
<stop stop-color="#FFFFFF" offset="1"/>
</linearGradient>
<path d="M71.509,73.006c-1.324-1.305-10.519-10.42-11.625-11.513 c-3.361,2.732-7.554,4.297-11.932,4.297c-4.374,0-8.536-1.546-11.896-4.271c-1.104,1.094-10.268,10.163-11.587,11.469h0.991 c0.964-0.951,10.126-10.009,10.684-10.56c3.43,2.599,7.584,4.062,11.808,4.062c4.229,0,8.387-1.467,11.82-4.072 c0.718,0.709,9.794,9.707,10.69,10.588H71.509z" fill="url(#_4)"/>
<path d="M64.981,67.944c0,0-5.096,4.487-17.14,4.487c-10.979,0-17.074-4.487-17.074-4.487 c-9.486,6.681,7.315,12.963,17.029,12.963C57.508,80.907,74.723,74.688,64.981,67.944z" fill="#FFFFFF" fill-opacity="0.3" />
<polygon fill="#496DA2" points="49.459,67.733 49.459,78.75 56.965,73.154 "/>
<polygon fill="#235487" points="49.459,67.733 49.881,68.57 56.586,73.447 56.965,73.154 "/>
<polygon fill="#235487" points="49.466,78.746 49.881,78.454 49.881,68.57 49.459,67.733 "/>
<rect fill="#496DA2" height="11.017" width="2.81" x="42.861" y="67.735"/>
<rect fill="#235487" height="0.443" width="2.81" x="42.861" y="67.731"/>
<polygon fill="#235487" points="45.235,78.75 45.674,78.75 45.674,67.737 45.229,67.737 "/>
</svg>