<?xml version="1.0" encoding="UTF-8"?>
<!DOCTYPE svg PUBLIC "-//W3C//DTD SVG 1.1 Tiny//EN" "http://www.w3.org/Graphics/SVG/1.1/DTD/svg11-tiny.dtd">
<svg width="332" height="126" viewBox="-1.164 -0.488 332 126">
<path fill-opacity="0.01" fill="#656B6B" d="M20.836,9.512C15.613,9.783,10.73,11.981,7.02,15.688 c-3.986,3.984-6.184,9.285-6.184,14.924v67.775c0,10.877,8.875,21.125,20.848,21.125c0.652,0,282.047,0,282.047,0 c13.844,0,25.105-11.266,25.105-25.115V30.611c0-5.639-2.197-10.939-6.189-14.926c-3.994-3.988-9.299-6.182-14.941-6.174H20.836z"/>
<path fill-opacity="0.02" fill="#656B6B" d="M21.836,10.522c-5.33,0.029-10.338,2.105-14.109,5.873 c-3.799,3.795-5.891,8.844-5.891,14.217v67.775c0,10.75,8.875,20.125,19.898,20.125c3.227,0,281.996,0,281.996,0 c13.293,0,24.105-10.818,24.105-24.115V30.611c0-5.371-2.094-10.42-5.896-14.219c-3.805-3.799-8.859-5.887-14.232-5.881 L21.836,10.522z"/>
<path fill-opacity="0.03" fill="#656B6B" d="M21.943,11.512c-5.105,0-9.902,1.986-13.51,5.59c-3.609,3.607-5.598,8.404-5.598,13.51 v67.775c0,10.125,8.25,19.125,18.949,19.125c0.551,0,281.945,0,281.945,0c12.74,0,23.105-10.369,23.105-23.115V30.611 c0-5.104-1.99-9.902-5.604-13.51c-3.615-3.611-8.418-5.596-13.523-5.59H21.943z"/>
<path fill-opacity="0.06" fill="#656B6B" d="M21.943,12.512c-4.838,0-9.385,1.881-12.803,5.299c-3.42,3.416-5.305,7.963-5.305,12.801 v67.775c0,9.33,7.5,18.125,18.125,18.121c0.625,0,281.77,0.004,281.77,0.004c12.189,0,22.105-9.92,22.105-22.115V30.611 c0-4.836-1.885-9.383-5.311-12.803c-3.426-3.422-7.977-5.303-12.816-5.297H21.943z"/>
<path fill-opacity="0.05" fill="#656B6B" d="M307.711,13.512h-267.5H22.068c-9.449,0-17.232,7.648-17.232,17.1l0.002,67.775 c0,8.859,7.373,17.125,17.123,17.125h280.775h0.994c11.639,0,21.105-9.473,21.105-21.115V30.611 C324.836,21.16,317.158,13.5,307.711,13.512z"/>
<path fill-opacity="0.1" fill="#656B6B" d="M307.086,14.512H22.068c-9.449,0-16.232,6.648-16.232,16.1l0.002,66.775 c-0.002,9.125,6.498,17.125,17.078,17.123l280.814,0.002c11.086,0,20.105-9.023,20.105-20.115V30.611 C323.836,21.16,316.086,14.512,307.086,14.512z"/>
<path fill-opacity="0.1" fill="#656B6B" d="M306.086,15.512H22.068c-9.449,0-15.232,5.648-15.232,15.1l0.002,65.775 c-0.002,9,5.123,17.125,17.105,17.125c0.518,0,279.787,0,279.787,0c10.535,0,19.105-8.574,19.105-19.115V30.611 C322.836,21.16,315.086,15.512,306.086,15.512z"/>
<path fill-opacity="0.1" fill="#656B6B" d="M305.211,16.512H23.086c-9.447,0-15.25,4.648-15.25,14.1l0.002,64.785 c-0.002,8.865,3.873,17.115,17.123,17.115h278.77c9.984,0,18.105-8.127,18.105-18.115V30.611 C321.836,21.16,313.836,16.512,305.211,16.512z"/>
<linearGradient id="_2" gradientUnits="userSpaceOnUse" x1="162.84" y1="100.62" x2="162.84" y2="36.42">
<stop stop-color="#D9F4E0" offset="0"/>
<stop stop-color="#FFFFFF" offset="1"/>
</linearGradient>
<path fill="url(#_2)" d="M303.73,13.512H21.943c-9.449,0-17.107,7.648-17.107,17.1v63.785 c0,9.451,7.658,17.115,17.107,17.115H303.73c9.447,0,17.105-7.664,17.105-17.115V30.611C320.836,21.16,313.178,13.5,303.73,13.512z "/>
</svg>