<?xml version="1.0" encoding="UTF-8"?>
<!DOCTYPE svg PUBLIC "-//W3C//DTD SVG 1.1 Tiny//EN" "http://www.w3.org/Graphics/SVG/1.1/DTD/svg11-tiny.dtd">
<svg baseProfile="tiny" height="60px" viewBox="0 0 60 60" width="60px" xmlns="http://www.w3.org/2000/svg" xmlns:xlink="http://www.w3.org/1999/xlink">
<path d="M33.747,24.251c-17.042,0.016-22.084,10.132-22.42,12.636c-0.173,1.312-0.411,3.067,0.016,5.205 c0.212,1.056,0.986,2.196,1.22,2.521l0.116,0.164l0.149,0.133c1.463,1.289,3.901,1.756,7.893,1.507 c1.72-0.106,5.798-0.543,7.536-2.28c0.076-0.074,0.142-0.151,0.21-0.231l0.125-0.155l0.089-0.178 c0.127-0.251,0.527-1.215,0.323-2.982c-0.168-1.483-1.022-2.894-1.703-3.843c0.739-0.73,2.501-1.831,6.456-1.894l-0.039-0.018 c3.951,0.063,5.715,1.173,6.449,1.902c-0.686,0.952-1.543,2.366-1.713,3.852c-0.197,1.768,0.197,2.731,0.326,2.982l0.086,0.18 l0.129,0.153c1.598,1.931,5.949,2.399,7.746,2.512c3.992,0.245,6.432-0.224,7.908-1.524l0.15-0.132l0.113-0.163 c0.234-0.325,1.008-1.468,1.217-2.521c0.43-2.143,0.193-3.899,0.037-5.063C55.7,33.501,49.549,24.251,33.747,24.251 M14.766,41.404 c-0.312-1.564-0.138-2.86,0-3.907c0.087-0.654,0.839-2.353,2.636-4.148c2.685-2.686,7.702-5.593,16.329-5.593 c14.416-0.014,18.76,8.089,18.959,9.581c0.156,1.185,0.334,2.481,0.023,4.052c-0.041,0.171-0.266,0.594-0.506,0.963 c-0.482,0.343-1.746,0.796-5.25,0.582c-2.734-0.173-4.465-0.752-5.053-1.123c-0.016-0.189-0.023-0.454,0.021-0.829 c0.113-0.972,1.176-2.436,1.676-2.994l0.641-0.722l-0.262-0.932c-0.146-0.497-1.658-4.848-10.201-4.987H33.75l-0.049,0.016 c-4.953,0.081-7.55,1.572-8.882,2.905c-0.964,0.967-1.271,1.849-1.333,2.055l-0.279,0.938l0.655,0.728 c0.499,0.557,1.561,2.021,1.671,2.994c0.044,0.373,0.038,0.64,0.022,0.829c-0.588,0.371-2.314,0.952-5.054,1.123 c-3.503,0.214-4.757-0.229-5.231-0.564C15.031,41.998,14.805,41.578,14.766,41.404" fill="#BF111A"/>
<path d="M9.393,32.572c-0.239-0.371-0.466-0.79-0.504-0.964c-0.312-1.565-0.138-2.861,0-3.908 c0.087-0.654,0.839-2.353,2.636-4.148c2.684-2.685,7.701-5.592,16.329-5.592c7.487-0.008,12.252,2.174,15.135,4.482 c2.502,0.657,4.691,1.561,6.576,2.616c-2.057-4.173-8.518-10.604-21.696-10.604C10.827,14.471,5.785,24.587,5.449,27.09 c-0.173,1.311-0.411,3.067,0.016,5.205c0.212,1.057,0.986,2.197,1.22,2.522l0.116,0.164l0.149,0.132 c0.428,0.377,0.953,0.676,1.563,0.915c0.209-0.993,0.625-2.036,1.299-3.241C9.634,32.716,9.491,32.642,9.393,32.572z" fill="#BF111A"/>
<rect fill="none" height="60" width="60"/>
</svg>
