<?xml version="1.0" encoding="UTF-8"?>
<!DOCTYPE svg PUBLIC "-//W3C//DTD SVG 1.1 Tiny//EN" "http://www.w3.org/Graphics/SVG/1.1/DTD/svg11-tiny.dtd">
<svg width="44" height="44" viewBox="0 0 44 44">
<linearGradient id="_3" gradientUnits="userSpaceOnUse" x1="-10.42" y1="4.22" x2="22.09" y2="43.63">
<stop stop-color="#FFFFFF" offset="0"/>
<stop stop-color="#E0EAF3" offset="0.11"/>
<stop stop-color="#A2C2DD" offset="0.35"/>
<stop stop-color="#8CA9CF" offset="0.48"/>
<stop stop-color="#6C83BB" offset="0.7"/>
<stop stop-color="#637DB5" offset="0.75"/>
<stop stop-color="#4C6EA4" offset="0.82"/>
<stop stop-color="#265689" offset="0.91"/>
<stop stop-color="#003D6D" offset="0.99"/>
</linearGradient>
<path d="M8.926,32.898V21.056c-0.156-0.018-1.505-0.163-2.099-0.745v14.748h14.597v-2.16H8.926z" fill="url(#_3)"/>
<linearGradient id="_4" gradientUnits="userSpaceOnUse" x1="7.53" y1="-10.45" x2="39.85" y2="28.73">
<stop stop-color="#FFFFFF" offset="0"/>
<stop stop-color="#E0EAF3" offset="0.11"/>
<stop stop-color="#A2C2DD" offset="0.35"/>
<stop stop-color="#8CA9CF" offset="0.48"/>
<stop stop-color="#6C83BB" offset="0.7"/>
<stop stop-color="#637DB5" offset="0.75"/>
<stop stop-color="#4C6EA4" offset="0.82"/>
<stop stop-color="#265689" offset="0.91"/>
<stop stop-color="#003D6D" offset="0.99"/>
</linearGradient>
<path d="M36.229,11.113H16.192c0,0.814,0,1.568-0.003,2.16h17.938v4.547h2.102V11.113z" fill="url(#_4)"/>
<path d="M32.954,20.28v2.103h-5.772V20.28h-3.3v14.812h3.3v-2.096h5.772v2.096h3.328V20.28H32.954z M26.154,34.199 h-1.36v-2.08h1.36V34.199z M26.154,30.408h-1.36v-2.08h1.36V30.408z M26.154,26.908h-1.36v-2.08h1.36V26.908z M26.154,23.118 h-1.36v-2.08h1.36V23.118z M32.982,30.894h-5.801v-6.409h5.801V30.894z M35.343,34.199h-1.36v-2.08h1.36V34.199z M35.343,30.408 h-1.36v-2.08h1.36V30.408z M35.343,26.908h-1.36v-2.08h1.36V26.908z M35.343,23.118h-1.36v-2.08h1.36V23.118z" fill="#496DA2"/>
<path d="M22.353,18.278V16.27H19.99v2.368l-7.078,7.101h-2.585l4.8,4.751v-0.02h6.297V18.278H22.353z M19.99,25.739h-4.729l4.729-4.735V25.739z" fill="#496DA2"/>
<path d="M12.597,3.858v8.868c-1.074-0.134-2.391,0.17-3.513,0.904c-1.92,1.259-2.533,3.282-1.652,4.625 c0.877,1.34,3.191,1.242,5.111-0.019c1.119-0.8,1.91-1.999,1.752-3.6l-0.004-8.142l3.837,1.919l0.667-1.451L12.597,3.858z" fill="#496DA2"/>
</svg>