<?xml version="1.0" encoding="UTF-8"?>
<!DOCTYPE svg PUBLIC "-//W3C//DTD SVG 1.1 Tiny//EN" "http://www.w3.org/Graphics/SVG/1.1/DTD/svg11-tiny.dtd">
<svg baseProfile="tiny" height="69.047" version="1.1" viewBox="0 0 100 69.047" width="100" xmlns="http://www.w3.org/2000/svg" xmlns:xlink="http://www.w3.org/1999/xlink">
<g>
<g>
<rect fill="none" fill-opacity="0.4" height="69.047" stroke-opacity="0.4" width="100"/>
</g>
<g>
<g>
<linearGradient gradientTransform="matrix(1 0 0 -1 0 68.0938)" gradientUnits="userSpaceOnUse" id="XMLID_19_" x1="45.1899" x2="41.7179" y1="25.3784" y2="11.315">
<stop offset="0" style="stop-color:#AABBD7"/>
<stop offset="0.2634" style="stop-color:#92A5CC"/>
<stop offset="0.7135" style="stop-color:#6C83BB"/>
<stop offset="0.7571" style="stop-color:#637DB5"/>
<stop offset="0.8268" style="stop-color:#4C6EA4"/>
<stop offset="0.9134" style="stop-color:#265689"/>
<stop offset="0.9888" style="stop-color:#003D6D"/>
<stop offset="1" style="stop-color:#003D6D"/>
</linearGradient>
<polygon fill="url(#XMLID_19_)" points="28.781,22.646 16.999,33.14 19.245,34.237 15.076,39.318 16.118,43.021 57.392,62.086      81.824,19.698 81.89,15.615 66.1,11.544 65.572,10.261 55.276,7.845 54.179,8.466 42.855,5.555    "/>
<g>
<g>
<g>
<linearGradient gradientTransform="matrix(1 0 0 -1 0 68.0938)" gradientUnits="userSpaceOnUse" id="XMLID_20_" x1="59.2773" x2="40.0693" y1="-2.3843" y2="73.7638">
<stop offset="0" style="stop-color:#FFFFFF"/>
<stop offset="0.1894" style="stop-color:#F4F8FB"/>
<stop offset="0.5232" style="stop-color:#D6E4F0"/>
<stop offset="0.9595" style="stop-color:#A7C5DF"/>
<stop offset="1" style="stop-color:#A2C2DD"/>
</linearGradient>
<polygon fill="url(#XMLID_20_)" points="43.076,6.231 81.25,16.095 56.727,57.38 15.76,39.443       "/>
<polygon fill="#FFFFFF" points="44.095,7.358 77.433,16.159 55.446,52.476 19.813,37.739       "/>
<linearGradient gradientTransform="matrix(1 0 0 -1 0 68.0938)" gradientUnits="userSpaceOnUse" id="XMLID_21_" x1="64.0654" x2="70.5435" y1="34.9014" y2="29.8629">
<stop offset="0" style="stop-color:#BFD5E8"/>
<stop offset="0.3034" style="stop-color:#B6C6DD"/>
<stop offset="0.7753" style="stop-color:#3F5AA6"/>
<stop offset="1" style="stop-color:#003D6D"/>
</linearGradient>
<polygon fill="url(#XMLID_21_)" points="77.439,16.159 55.446,52.051 55.657,54.087 77.384,18.412       "/>
<linearGradient gradientTransform="matrix(1 0 0 -1 0 68.0938)" gradientUnits="userSpaceOnUse" id="XMLID_22_" x1="65.6523" x2="74.8931" y1="32.1616" y2="24.9744">
<stop offset="0" style="stop-color:#BFD5E8"/>
<stop offset="0.3034" style="stop-color:#B6C6DD"/>
<stop offset="0.7753" style="stop-color:#3F5AA6"/>
<stop offset="1" style="stop-color:#003D6D"/>
</linearGradient>
<polygon fill="url(#XMLID_22_)" points="81.269,16.088 56.757,57.377 57.122,61.286 81.211,19.543       "/>
<linearGradient gradientTransform="matrix(1 0 0 -1 0 68.0938)" gradientUnits="userSpaceOnUse" id="XMLID_23_" x1="38.6294" x2="37.2613" y1="24.0547" y2="20.9276">
<stop offset="0" style="stop-color:#FFFFFF"/>
<stop offset="0.0812" style="stop-color:#ECF0F6"/>
<stop offset="0.3045" style="stop-color:#BCCAE0"/>
<stop offset="0.4157" style="stop-color:#AABBD7"/>
<stop offset="0.545" style="stop-color:#95A8CE"/>
<stop offset="0.7528" style="stop-color:#6C83BB"/>
<stop offset="1" style="stop-color:#003D6D"/>
</linearGradient>
<polygon fill="url(#XMLID_23_)" points="55.446,52.051 19.948,37.77 20.262,38.937 55.657,54.087       "/>
<linearGradient gradientTransform="matrix(1 0 0 -1 0 68.0938)" gradientUnits="userSpaceOnUse" id="XMLID_24_" x1="37.5347" x2="35.2521" y1="20.2729" y2="15.0557">
<stop offset="0" style="stop-color:#FFFFFF"/>
<stop offset="0.0812" style="stop-color:#ECF0F6"/>
<stop offset="0.3045" style="stop-color:#BCCAE0"/>
<stop offset="0.4157" style="stop-color:#AABBD7"/>
<stop offset="0.545" style="stop-color:#95A8CE"/>
<stop offset="0.7528" style="stop-color:#6C83BB"/>
<stop offset="1" style="stop-color:#003D6D"/>
</linearGradient>
<polygon fill="url(#XMLID_24_)" points="56.757,57.377 15.749,39.381 16.642,42.568 57.122,61.286       "/>
<linearGradient gradientTransform="matrix(1 0 0 -1 0 68.0938)" gradientUnits="userSpaceOnUse" id="XMLID_25_" x1="18.0645" x2="77.4414" y1="39.7988" y2="39.7988">
<stop offset="0" style="stop-color:#BFD5E8"/>
<stop offset="0.4704" style="stop-color:#B4CEE4"/>
<stop offset="1" style="stop-color:#A2C2DD"/>
</linearGradient>
<path d="M44.095,7.358c-9.075,11.554-26.03,25.633-26.03,25.633L52.025,49.23l25.416-33.071        L44.095,7.358z" fill="url(#XMLID_25_)"/>
<linearGradient gradientTransform="matrix(1 0 0 -1 0 68.0938)" gradientUnits="userSpaceOnUse" id="XMLID_26_" x1="22.8301" x2="52.3419" y1="24.1895" y2="42.3148">
<stop offset="0" style="stop-color:#FFFFFF"/>
<stop offset="0.1894" style="stop-color:#F4F8FB"/>
<stop offset="0.5232" style="stop-color:#D6E4F0"/>
<stop offset="0.9595" style="stop-color:#A7C5DF"/>
<stop offset="1" style="stop-color:#A2C2DD"/>
</linearGradient>
<path d="M44.095,7.475L22.131,34.916l29.895,14.428c0,0,16.886-18.945,25.416-33.07L44.095,7.475z" fill="url(#XMLID_26_)"/>
</g>
<g>
<polygon fill="#003D6D" points="67.976,13.932 66.305,13.69 65.125,10.781 48.724,11.098 48.873,12 67.339,17.48         68.125,15.157       "/>
<polygon fill="#496DA2" points="67.976,13.932 67.06,16.199 48.724,11.098 50.635,9.314 53.65,9.475 55.367,8.5         65.125,10.781 65.263,12.763       "/>
</g>
<g>
<linearGradient gradientTransform="matrix(1 0 0 -1 0 68.0938)" gradientUnits="userSpaceOnUse" id="XMLID_27_" x1="36.0957" x2="92.5379" y1="35.4434" y2="72.1756">
<stop offset="0" style="stop-color:#A2C2DD"/>
<stop offset="0.0056" style="stop-color:#A2C2DD"/>
<stop offset="0.1949" style="stop-color:#8CA9CF"/>
<stop offset="0.5056" style="stop-color:#6C83BB"/>
<stop offset="0.5777" style="stop-color:#637DB5"/>
<stop offset="0.693" style="stop-color:#4C6EA4"/>
<stop offset="0.8362" style="stop-color:#265689"/>
<stop offset="0.9607" style="stop-color:#003D6D"/>
<stop offset="1" style="stop-color:#003D6D"/>
</linearGradient>
<polygon fill="url(#XMLID_27_)" points="36.705,40.341 53.688,21.444 36.949,24.007 42.483,25.812 30.697,37.795       "/>
<linearGradient gradientTransform="matrix(1 0 0 -1 0 68.0938)" gradientUnits="userSpaceOnUse" id="XMLID_28_" x1="41.7998" x2="98.2436" y1="26.6768" y2="63.41">
<stop offset="0" style="stop-color:#A2C2DD"/>
<stop offset="0.0056" style="stop-color:#A2C2DD"/>
<stop offset="0.1949" style="stop-color:#8CA9CF"/>
<stop offset="0.5056" style="stop-color:#6C83BB"/>
<stop offset="0.5777" style="stop-color:#637DB5"/>
<stop offset="0.693" style="stop-color:#4C6EA4"/>
<stop offset="0.8362" style="stop-color:#265689"/>
<stop offset="0.9607" style="stop-color:#003D6D"/>
<stop offset="1" style="stop-color:#003D6D"/>
</linearGradient>
<polygon fill="url(#XMLID_28_)" points="62.019,19.654 43.848,39.979 63.182,36.104 57.174,33.768 67.804,21.438       "/>
<g>
<linearGradient gradientTransform="matrix(1 0 0 -1 0 68.0938)" gradientUnits="userSpaceOnUse" id="XMLID_29_" x1="28.0249" x2="33.8549" y1="48.5986" y2="29.503">
<stop offset="0" style="stop-color:#E6EEF4"/>
<stop offset="0.0946" style="stop-color:#DAD9CB"/>
<stop offset="0.298" style="stop-color:#C3AE79"/>
<stop offset="0.465" style="stop-color:#B28F3D"/>
<stop offset="0.5872" style="stop-color:#A77B18"/>
<stop offset="0.6517" style="stop-color:#A3740A"/>
<stop offset="0.7331" style="stop-color:#866408"/>
<stop offset="0.8458" style="stop-color:#645107"/>
<stop offset="0.9388" style="stop-color:#4F4505"/>
<stop offset="1" style="stop-color:#474105"/>
</linearGradient>
<polygon fill="url(#XMLID_29_)" points="35.466,33.863 29.46,31.319 29.732,35.091 35.582,37.834        "/>
<linearGradient gradientTransform="matrix(1 0 0 -1 0 68.0938)" gradientUnits="userSpaceOnUse" id="XMLID_30_" x1="36.082" x2="41.1199" y1="51.8477" y2="44.7164">
<stop offset="0" style="stop-color:#E6EEF4"/>
<stop offset="0.0644" style="stop-color:#DAD9CB"/>
<stop offset="0.2029" style="stop-color:#C3AE79"/>
<stop offset="0.3167" style="stop-color:#B28F3D"/>
<stop offset="0.3999" style="stop-color:#A77B18"/>
<stop offset="0.4438" style="stop-color:#A3740A"/>
<stop offset="0.5739" style="stop-color:#866408"/>
<stop offset="0.7538" style="stop-color:#645107"/>
<stop offset="0.9023" style="stop-color:#4F4505"/>
<stop offset="1" style="stop-color:#474105"/>
</linearGradient>
<polygon fill="url(#XMLID_30_)" points="41.443,19.198 35.828,17.543 36.114,20.929 43.61,23.96        "/>
<linearGradient gradientTransform="matrix(1 0 0 -1 0 68.0938)" gradientUnits="userSpaceOnUse" id="XMLID_31_" x1="37.855" x2="44.076" y1="50.0469" y2="39.8323">
<stop offset="0" style="stop-color:#F0F2E6"/>
<stop offset="0.1066" style="stop-color:#E7E3CC"/>
<stop offset="0.5491" style="stop-color:#C3A865"/>
<stop offset="0.8561" style="stop-color:#AC8323"/>
<stop offset="1" style="stop-color:#A3740A"/>
</linearGradient>
<polygon fill="url(#XMLID_31_)" points="35.466,33.863 52.453,14.965 35.715,17.531 41.244,19.333 29.46,31.319        "/>
<linearGradient gradientTransform="matrix(1 0 0 -1 0 68.0938)" gradientUnits="userSpaceOnUse" id="XMLID_32_" x1="35.5" x2="48.1084" y1="54.873" y2="35.2945">
<stop offset="0" style="stop-color:#E6EEF4"/>
<stop offset="0.0774" style="stop-color:#DAD9CB"/>
<stop offset="0.244" style="stop-color:#C3AE79"/>
<stop offset="0.3808" style="stop-color:#B28F3D"/>
<stop offset="0.4809" style="stop-color:#A77B18"/>
<stop offset="0.5337" style="stop-color:#A3740A"/>
<stop offset="0.6428" style="stop-color:#866408"/>
<stop offset="0.7936" style="stop-color:#645107"/>
<stop offset="0.9181" style="stop-color:#4F4505"/>
<stop offset="1" style="stop-color:#474105"/>
</linearGradient>
<polygon fill="url(#XMLID_32_)" points="52.453,14.965 51.519,19.333 35.533,37.854 35.466,33.863        "/>
<linearGradient gradientTransform="matrix(1 0 0 -1 0 68.0938)" gradientUnits="userSpaceOnUse" id="XMLID_33_" x1="53.0791" x2="64.2847" y1="55.6748" y2="38.2744">
<stop offset="0" style="stop-color:#E6EEF4"/>
<stop offset="0.0774" style="stop-color:#DAD9CB"/>
<stop offset="0.244" style="stop-color:#C3AE79"/>
<stop offset="0.3808" style="stop-color:#B28F3D"/>
<stop offset="0.4809" style="stop-color:#A77B18"/>
<stop offset="0.5337" style="stop-color:#A3740A"/>
<stop offset="0.6428" style="stop-color:#866408"/>
<stop offset="0.7936" style="stop-color:#645107"/>
<stop offset="0.9181" style="stop-color:#4F4505"/>
<stop offset="1" style="stop-color:#474105"/>
</linearGradient>
<polygon fill="url(#XMLID_33_)" points="66.6,14.965 65.948,19.486 54.655,33.316 54.302,29.176        "/>
</g>
<g>
<linearGradient gradientTransform="matrix(1 0 0 -1 0 68.0938)" gradientUnits="userSpaceOnUse" id="XMLID_34_" x1="38.1826" x2="57.2128" y1="45.8701" y2="31.3782">
<stop offset="0" style="stop-color:#E6EEF4"/>
<stop offset="0.0774" style="stop-color:#DAD9CB"/>
<stop offset="0.244" style="stop-color:#C3AE79"/>
<stop offset="0.3808" style="stop-color:#B28F3D"/>
<stop offset="0.4809" style="stop-color:#A77B18"/>
<stop offset="0.5337" style="stop-color:#A3740A"/>
<stop offset="0.6428" style="stop-color:#866408"/>
<stop offset="0.7936" style="stop-color:#645107"/>
<stop offset="0.9181" style="stop-color:#4F4505"/>
<stop offset="1" style="stop-color:#474105"/>
</linearGradient>
<polygon fill="url(#XMLID_34_)" points="42.674,33.523 61.968,29.573 61.889,32.838 42.834,36.53        "/>
<linearGradient gradientTransform="matrix(1 0 0 -1 0 68.0938)" gradientUnits="userSpaceOnUse" id="XMLID_35_" x1="52.2119" x2="58.8102" y1="47.7705" y2="36.9366">
<stop offset="0" style="stop-color:#F0F2E6"/>
<stop offset="0.2409" style="stop-color:#D9CDA5"/>
<stop offset="0.5075" style="stop-color:#C2A763"/>
<stop offset="0.7322" style="stop-color:#B18B33"/>
<stop offset="0.9031" style="stop-color:#A77A15"/>
<stop offset="1" style="stop-color:#A3740A"/>
</linearGradient>
<polygon fill="url(#XMLID_35_)" points="60.779,13.176 42.611,33.5 61.947,29.627 55.935,27.292 66.569,14.96        "/>
</g>
</g>
</g>
</g>
</g>
</g>
<g>
<path d="M15.088,41.385c-3.467,0-8.222,0.826-9.424,7.943l-0.182,1.074c0,0,7.992,0,8.94,0    c0.286,0.514,0.714,1.283,0.983,1.773c-0.27,0.493-0.697,1.261-0.983,1.776c-0.948,0-8.94,0-8.94,0l0.182,1.072    c1.202,7.117,5.957,7.94,9.424,7.94c2.734,0,5.174-2.295,7.131-4.142c1.059-0.997,2.059-1.935,2.586-1.935h24.477l0.272-0.305    c0.523-0.574,1.744-2.155,1.771-4.371v-0.076c-0.025-2.219-1.248-3.797-1.771-4.376l-0.272-0.3H24.805    c-0.527,0-1.527-0.938-2.583-1.933C20.262,43.685,17.824,41.385,15.088,41.385z" fill="#FFFFFF"/>
<linearGradient gradientTransform="matrix(1.1905 0 0 -1.1905 48.9564 165.2897)" gradientUnits="userSpaceOnUse" id="XMLID_36_" x1="-29.8545" x2="-7.6888" y1="108.9375" y2="82.2719">
<stop offset="0" style="stop-color:#E6EEF4"/>
<stop offset="0.4438" style="stop-color:#9646AC"/>
<stop offset="0.9382" style="stop-color:#3D013F"/>
<stop offset="1" style="stop-color:#3D013F"/>
</linearGradient>
<path d="M50.407,52.176c0-0.009,0.002-0.021,0.002-0.025h-0.005c-0.022-1.93-1.125-3.322-1.534-3.767    c-0.517,0-24.065,0-24.065,0c-0.899,0-1.867-0.919-3.218-2.186c-1.84-1.732-4.127-3.89-6.499-3.89    c-3.851,0-7.494,1.13-8.515,7.173c1.446,0,8.392,0,8.392,0l1.492,2.694l-1.492,2.695c0,0-6.945,0-8.392,0    c1.021,6.043,4.664,7.173,8.515,7.173c2.372,0,4.662-2.157,6.499-3.89c1.351-1.268,2.318-2.186,3.218-2.186c0,0,23.549,0,24.065,0    c0.407-0.444,1.512-1.837,1.534-3.768h0.005C50.409,52.194,50.407,52.186,50.407,52.176z" fill="url(#XMLID_36_)"/>
</g>
</g>
</svg>
