<?xml version="1.0" encoding="UTF-8"?>
<!DOCTYPE svg PUBLIC "-//W3C//DTD SVG 1.1 Tiny//EN" "http://www.w3.org/Graphics/SVG/1.1/DTD/svg11-tiny.dtd">
<svg width="16" height="15.964" viewBox="0 0 16 15.964">
<polygon fill="#A2C2DD" points="11.689,14.466 3.631,12.263 3.36,2.103 11.697,3.506 "/>
<polygon fill="#496DA2" points="11.682,14.498 12.92,13.614 13.118,2.767 11.673,3.533 "/>
<polygon fill="#CEE1EF" points="13.098,2.769 4.767,1.569 3.365,2.111 11.68,3.535 "/>
<polygon fill="#496DA2" points="7.769,10.498 7.369,11.125 10.839,11.882 10.839,11.173 "/>
<path fill="#496DA2" d="M5.55,11.136c-0.449-0.375-1.19-0.991-1.19-0.991L3.789,10.83l1.994,1.657l1.755-2.952L6.77,9.082 C6.77,9.082,5.909,10.529,5.55,11.136z"/>
<polygon fill="#496DA2" points="7.769,7.06 7.369,7.687 10.839,8.447 10.839,7.737 "/>
<path fill="#496DA2" d="M5.55,7.699C5.101,7.325,4.36,6.708,4.36,6.708L3.788,7.393l1.994,1.658l1.755-2.952L6.77,5.646 C6.77,5.646,5.909,7.092,5.55,7.699z"/>
<path fill="#496DA2" d="M7.713,4.401C7.557,4.256,7.338,4.203,7.167,4.253L4.412,3.12l-0.25,0.706l2.865,0.982 C7.05,4.838,7.438,5.28,7.771,4.982C7.932,4.837,7.915,4.586,7.713,4.401z"/>
<radialGradient id="_2" gradientUnits="userSpaceOnUse" cx="3.98" cy="2.87" r="1.89">
<stop stop-color="#CEE1EF" offset="0"/>
<stop stop-color="#496DA2" offset="1"/>
</radialGradient>
<circle fill="url(#_2)" cx="4.282" cy="3.384" r="1.614"/>
</svg>