<?xml version="1.0" encoding="UTF-8"?>
<!DOCTYPE svg PUBLIC "-//W3C//DTD SVG 1.1 Tiny//EN" "http://www.w3.org/Graphics/SVG/1.1/DTD/svg11-tiny.dtd">
<svg width="8" height="8" viewBox="-1 0.625 8 8">
<linearGradient id="_5" gradientUnits="userSpaceOnUse" x1="3" y1="43.3" x2="3" y2="1.07">
<stop stop-color="#698AB5" offset="0"/>
<stop stop-color="#41628E" offset="0.71"/>
<stop stop-color="#385985" offset="1"/>
</linearGradient>
<path d="M4.74,0.625H-1v8h8V2.884C7,1.639,5.986,0.625,4.74,0.625z" fill="url(#_5)"/>
<g fill-opacity="0.9" stroke-opacity="0.9">
<linearGradient id="_6" gradientUnits="userSpaceOnUse" x1="2.32" y1="-7.08" x2="3.15" y2="51.59">
<stop stop-color="#6694BF" offset="0"/>
<stop stop-color="#8CB3D2" offset="0.09"/>
<stop stop-color="#B3D3E6" offset="0.37"/>
<stop stop-color="#BDDBEB" offset="0.69"/>
</linearGradient>
<path d="M6,8.625V2.884c0-0.694-0.564-1.259-1.26-1.259H-1v7H6z" fill="url(#_6)"/>
</g>
<linearGradient id="_7" gradientUnits="userSpaceOnUse" x1="2.31" y1="41.21" x2="2.31" y2="5.36">
<stop stop-color="#ADCCED" offset="0"/>
<stop stop-color="#6385AD" offset="1"/>
</linearGradient>
<path d="M5,2.625l0.619-0.623C5.375,1.75,5.09,1.625,4.74,1.625H-1v1H5z" fill="url(#_7)"/>
<linearGradient id="_8" gradientUnits="userSpaceOnUse" x1="5.5" y1="38.37" x2="5.5" y2="-5.3">
<stop stop-color="#DBF5FF" offset="0"/>
<stop stop-color="#5985B0" offset="1"/>
</linearGradient>
<path d="M6,2.884c0-0.346-0.143-0.652-0.371-0.873C5.625,1.998,5,2.639,5,2.639s0,2.385,0,5.986h1V2.884z" fill="url(#_8)"/>
</svg>