<?xml version="1.0" encoding="UTF-8"?>
<!DOCTYPE svg PUBLIC "-//W3C//DTD SVG 1.1 Tiny//EN" "http://www.w3.org/Graphics/SVG/1.1/DTD/svg11-tiny.dtd">
<svg width="44" height="32" viewBox="-1 -1 44 32">
<g fill-opacity="0.7" stroke-opacity="0.7">
<path fill="#656B6B" fill-opacity="0.01" d="M43,10H22.104C11.018,10,1.998,19.021,1.998,30.109V31H43V10z"/>
<path fill="#656B6B" fill-opacity="0.03" d="M43,11H22.104C11.568,11,2.998,19.573,2.998,30.109V31H43V11z"/>
<path fill="#656B6B" fill-opacity="0.05" d="M43,12H22.104c-9.982,0-18.105,8.124-18.105,18.109V31H43V12z"/>
<path fill="#656B6B" fill-opacity="0.07" d="M43,13l-20.896-0.001c-9.446,0-17.105,7.66-17.105,17.11V31H43V13z"/>
<path fill="#656B6B" fill-opacity="0.11" d="M43,14.001H23.104c-9.446,0-17.105,6.658-17.105,16.108V31H43V14.001z"/>
<path fill="#FFFFFF" d="M43,13.001L22.104,13c-9.447,0-17.105,7.667-17.105,17.116V31H43V13.001z"/>
</g>
</svg>