<?xml version="1.0" encoding="UTF-8"?>
<!DOCTYPE svg PUBLIC "-//W3C//DTD SVG 1.1 Tiny//EN" "http://www.w3.org/Graphics/SVG/1.1/DTD/svg11-tiny.dtd">
<svg width="24" height="24" viewBox="-1 0 24 24">
<g fill-opacity="0.7" stroke-opacity="0.7">
<path fill="#656B6B" fill-opacity="0.01" d="M23,0H11C6.037,0,2,4.037,2,9v15h21V0z"/>
<path fill="#656B6B" fill-opacity="0.03" d="M23,1H11C6.589,1,3,4.59,3,9v15h20V1z"/>
<path fill="#656B6B" fill-opacity="0.05" d="M23,2H11C7.141,2,4,5.141,4,9v15h19V2z"/>
<path fill="#656B6B" fill-opacity="0.07" d="M23,3H11C7.691,3,5,5.691,5,9v15h18V3z"/>
<path fill="#656B6B" fill-opacity="0.11" d="M23,4H11C8.238,4,6,6.238,6,9v15h17V4z"/>
<rect x="5" y="3" fill="#FFFFFF" width="18" height="21"/>
</g>
</svg>