<?xml version="1.0" encoding="UTF-8" standalone="no"?>
<!DOCTYPE svg PUBLIC "-//W3C//DTD SVG 1.1 Tiny//EN" "http://www.w3.org/Graphics/SVG/1.1/DTD/svg11-tiny.dtd">
<svg xmlns="http://www.w3.org/2000/svg" xmlns:xlink="http://www.w3.org/1999/xlink" width="3" height="3" viewBox="0 0 3 3">
<rect fill="none" height="3" width="3"/>
<linearGradient id="_3" gradientUnits="userSpaceOnUse" x1="1.25" y1="2.31" x2="1.25" y2="-20.61">
<stop stop-color="#373D41" offset="0"/>
<stop stop-color="#8C959F" offset="0.69"/>
</linearGradient>
<path d="M2,0v0.5C2,1.326,1.327,2,0.5,2H0v0.5h0.5c1.104,0,2-0.896,2-2V0H2z" fill="url(#_3)" fill-opacity="0.8" />
<path d="M1.5,0v0.5c0,0.551-0.448,1-1,1H0V2h0.5C1.327,2,2,1.326,2,0.5V0H1.5z" fill="#FFFFFF" fill-opacity="0.7" />
<linearGradient id="_4" gradientUnits="userSpaceOnUse" x1="0.75" y1="-15.47" x2="0.75" y2="1.46">
<stop stop-color="#B5B9BE" offset="0"/>
<stop stop-color="#EFF0F3" offset="1"/>
</linearGradient>
<path d="M0,1.5h0.5c0.552,0,1-0.449,1-1V0H0V1.5z" fill="url(#_4)" fill-opacity="0.7" />
<path d="M2.5,0.5c0,1.104-0.896,2-2,2H0V3h0.5C1.879,3,3,1.879,3,0.5V0H2.5V0.5z" fill-opacity="0.4" />
</svg>