<?xml version="1.0" encoding="UTF-8"?>
<!DOCTYPE svg PUBLIC "-//W3C//DTD SVG 1.1 Tiny//EN" "http://www.w3.org/Graphics/SVG/1.1/DTD/svg11-tiny.dtd">
<svg width="44" height="32" viewBox="-1 -1 44 32">
<g fill-opacity="0.7" stroke-opacity="0.7">
<path fill="#656B6B" fill-opacity="0.01" d="M10.875,30.999l1.404-0.019l1.158-0.139c3.896-0.773,6.563-3.992,6.563-7.842 c0,0,0-0.652,0-1.26c11.278-1.09,20-10.472,20-21.855V-1H-1v23.001c1.57,0,2.521,0,2.76,0 C2.309,22.55,10.875,30.999,10.875,30.999z"/>
<path fill="#656B6B" fill-opacity="0.03" d="M11.284,30.111l0.856-0.12l1.178-0.142c3.377-0.674,5.684-3.483,5.684-6.85 c0,0,0-1.232,0-2.115c11.105-0.592,20-9.766,20-21V-1H-1v22.001c2.018,0,3.121,0,3.174,0C2.723,21.55,11.284,30.111,11.284,30.111 z"/>
<path fill="#656B6B" fill-opacity="0.05" d="M11.639,29.052l0.363-0.051l1.196-0.146c2.827-0.563,4.804-2.973,4.804-5.854 c0,0,0-1.89,0-3.01c11.037-0.062,20-9.051,20-20.105V-1H-1v21.001c2.275,0,3.532,0,3.588,0 C3.137,20.55,11.639,29.052,11.639,29.052z"/>
<path fill="#656B6B" fill-opacity="0.07" d="M12.002,28.001c0,0,0.375,0,1-0.125c2.5-0.5,4-2.625,4-4.875c0-1,0-4,0-4h0.895 c10.535,0,19.105-8.574,19.105-19.115V-1H-1v20.001h4.002L12.002,28.001z"/>
<path fill="#656B6B" fill-opacity="0.11" d="M12.377,27.001c0,0,0.504-0.099,0.625-0.125c1.125-0.25,3-1.5,3-3.875c0-1,0-5,0-5 h1.895c9.982,0,18.105-8.127,18.105-18.115V-1H-1v19.001h4.377L12.377,27.001z"/>
<path fill="#FFFFFF" d="M13.003,29.001h1.999V17.014h2.895c9.446,0,17.105-7.659,17.105-17.112V-1H-1v18.001h2.003L13.003,29.001z "/>
</g>
</svg>