<?xml version="1.0" encoding="UTF-8"?>
<!DOCTYPE svg PUBLIC "-//W3C//DTD SVG 1.1 Tiny//EN" "http://www.w3.org/Graphics/SVG/1.1/DTD/svg11-tiny.dtd">
<svg width="8" height="8" viewBox="-0.75 0.75 8 8">
<linearGradient id="_4" gradientUnits="userSpaceOnUse" x1="3.25" y1="-33.93" x2="3.25" y2="8.31">
<stop stop-color="#7D9CAD" offset="0"/>
<stop stop-color="#576F96" offset="0.73"/>
<stop stop-color="#4F6691" offset="1"/>
</linearGradient>
<path d="M6.25,6.49c0,0.694-0.565,1.26-1.26,1.26h-5.74v1h5.74c1.246,0,2.26-1.014,2.26-2.26V0.75h-1V6.49z" fill="url(#_4)"/>
<g fill-opacity="0.7" stroke-opacity="0.7">
<linearGradient id="_5" gradientUnits="userSpaceOnUse" x1="2.75" y1="14.53" x2="2.75" y2="-36.3">
<stop stop-color="#ADB5A8" offset="0.03"/>
<stop stop-color="#C7D9D9" offset="0.26"/>
<stop stop-color="#FFFFFF" offset="0.72"/>
</linearGradient>
<path d="M-0.75,7.75h5.74c0.694,0,1.26-0.565,1.26-1.26V0.75h-7V7.75z" fill="url(#_5)"/>
</g>
<linearGradient id="_6" gradientUnits="userSpaceOnUse" x1="2.75" y1="-28.61" x2="2.75" y2="15.06">
<stop stop-color="#CADCEC" offset="0"/>
<stop stop-color="#809CB3" offset="1"/>
</linearGradient>
<path d="M5.25,6.749c-0.198,0-2.603,0-6,0v1h5.741c0.694,0,1.259-0.564,1.259-1.259V0.75h-1 C5.25,4.219,5.25,6.564,5.25,6.749z" fill="url(#_6)"/>
</svg>