<?xml version="1.0" encoding="UTF-8"?>
<!DOCTYPE svg PUBLIC "-//W3C//DTD SVG 1.1 Tiny//EN" "http://www.w3.org/Graphics/SVG/1.1/DTD/svg11-tiny.dtd">
<svg width="34" height="86" viewBox="-0.389 0.065 34 86">
<path fill-opacity="0.03" fill="#DEE9F3" d="M18.75,8.655c0.076-0.076-2.021,2.02-2.021,2.02c-1.528,1.529-2.404,3.643-2.404,5.799 v19.837c0,1.681,0.583,3.349,1.577,4.739c-0.994,1.393-1.577,3.06-1.577,4.738v21.805c0,2.156,0.875,4.27,2.4,5.797l2.026,2.025 c2.355,2.354,5.862,3.051,8.936,1.779c3.077-1.277,5.064-4.252,5.064-7.578V43.765c0-0.852-0.232-1.754-0.621-2.715 c0.389-0.961,0.621-1.865,0.621-2.715V14.45c0-3.328-1.987-6.303-5.063-7.576C24.611,5.599,21.103,6.296,18.75,8.655z"/>
<path fill-opacity="0.05" fill="#DEE9F3" d="M19.6,9.503c0.078-0.078-2.021,2.02-2.021,2.02c-1.305,1.307-2.053,3.11-2.053,4.951v19.837 c0,1.751,0.692,3.454,1.879,4.739c-1.187,1.287-1.879,2.989-1.879,4.738v21.805c0,1.84,0.747,3.645,2.049,4.949l2.026,2.025 c2.011,2.008,5.005,2.604,7.628,1.518c2.627-1.09,4.323-3.629,4.323-6.469V43.765c0-0.896-0.265-1.794-0.692-2.715 c0.428-0.922,0.692-1.82,0.692-2.715V14.45c0-2.842-1.696-5.38-4.321-6.467C24.604,6.894,21.608,7.489,19.6,9.503z"/>
<path fill-opacity="0.07" fill="#DEE9F3" d="M20.449,10.351c0.076-0.078-2.023,2.021-2.023,2.021c-1.08,1.081-1.7,2.576-1.7,4.102 v19.837c0,1.525,0.619,3.02,1.698,4.101c0,0,0.326,0.326,0.639,0.639c-0.297,0.297-0.637,0.637-0.637,0.637 c-1.08,1.081-1.7,2.576-1.7,4.102v21.805c0,1.525,0.619,3.02,1.698,4.1l2.025,2.025c1.666,1.664,4.146,2.158,6.32,1.258 c2.176-0.902,3.582-3.006,3.582-5.359V43.765c0-0.961-0.315-1.868-0.787-2.715c0.472-0.848,0.787-1.756,0.787-2.715V14.45 c0-2.354-1.405-4.457-3.58-5.357C24.596,8.189,22.113,8.683,20.449,10.351z"/>
<path fill-opacity="0.09" fill="#DEE9F3" d="M21.298,11.198c0.083-0.084-2.022,2.021-2.022,2.021c-0.857,0.858-1.35,2.044-1.35,3.254 v19.837c0,1.21,0.491,2.396,1.348,3.252c0,0,0.926,0.926,1.501,1.501c-0.165,0.16-0.293,0.265-0.487,0.459l-1.012,1.012 c-0.857,0.858-1.35,2.044-1.35,3.254v21.805c0,1.209,0.491,2.395,1.348,3.252l2.024,2.025c1.321,1.32,3.289,1.711,5.013,0.996 c1.727-0.715,2.841-2.383,2.841-4.25V43.765c0-1.002-0.343-1.936-0.931-2.715c0.588-0.78,0.931-1.715,0.931-2.715V14.45 c0-1.867-1.114-3.535-2.839-4.25C24.586,9.485,22.618,9.876,21.298,11.198z"/>
<path fill-opacity="0.11" fill="#DEE9F3" d="M22.146,12.046C22.146,12.046,22.146,12.046,22.146,12.046l-2.023,2.023 c-0.634,0.634-0.997,1.51-0.997,2.404v19.837c0,0.894,0.363,1.771,0.996,2.404l2.024,2.024c0.137,0.136,0.313,0.201,0.466,0.311 c-0.153,0.109-0.329,0.174-0.466,0.311c0,0,0,0,0.001,0l-2.024,2.023c-0.634,0.634-0.997,1.51-0.997,2.404v21.805 c0,0.895,0.363,1.771,0.996,2.404l2.024,2.023c0.977,0.977,2.432,1.266,3.705,0.738c1.275-0.529,2.1-1.762,2.1-3.143V43.765 c0-1.098-0.535-2.084-1.389-2.715c0.854-0.631,1.389-1.619,1.389-2.715V14.45c0-1.38-0.824-2.613-2.099-3.141 C24.577,10.78,23.122,11.069,22.146,12.046z"/>
<path fill-opacity="0.13" fill="#DEE9F3" d="M22.996,12.894l-2.025,2.023c-0.409,0.41-0.645,0.978-0.645,1.557v19.837 c0,0.579,0.235,1.146,0.645,1.556l2.024,2.023c0.632,0.632,1.573,0.818,2.397,0.477c0.825-0.342,1.358-1.139,1.358-2.031V14.45 c0-0.894-0.533-1.691-1.358-2.033C24.568,12.075,23.627,12.263,22.996,12.894z M22.996,42.208l-2.025,2.023 c-0.409,0.41-0.645,0.978-0.645,1.557v21.805c0,0.58,0.235,1.146,0.645,1.557l2.024,2.023c0.632,0.631,1.573,0.818,2.397,0.477 c0.825-0.342,1.358-1.139,1.358-2.033V43.765c0-0.894-0.533-1.691-1.358-2.033C24.568,41.39,23.627,41.577,22.996,42.208z"/>
<linearGradient id="_2" gradientUnits="userSpaceOnUse" x1="23.54" y1="4.33" x2="23.54" y2="66.34">
<stop stop-color="#87A8CB" offset="0"/>
<stop stop-color="#235487" offset="1"/>
</linearGradient>
<path fill="url(#_2)" d="M21.526,16.06l4.024-4.023v28.712l-4.024-4.023V16.06z M21.526,45.374l4.024-4.023v30.68 l-4.024-4.023V45.374z"/>
</svg>