<?xml version="1.0" encoding="UTF-8"?>
<!DOCTYPE svg PUBLIC "-//W3C//DTD SVG 1.1 Tiny//EN" "http://www.w3.org/Graphics/SVG/1.1/DTD/svg11-tiny.dtd">
<svg width="34" height="86" viewBox="-1 0 34 86">
<path fill="#DEE9F3" fill-opacity="0.03" d="M9.764,4.745c-3.328,0-6.303,1.988-7.577,5.064C2.184,9.818,2.11,10.027,2.11,10.027 L1.972,10.48c0.003-0.009-0.06,0.239-0.06,0.239c0.002-0.008-0.057,0.284-0.103,0.516c-1.272,1.488-1.993,3.291-1.993,5.14v21.929 c0,0.791,0.231,1.658,0.614,2.596c-0.383,0.938-0.614,1.805-0.614,2.596v23.99c0,1.844,0.717,3.643,1.984,5.129 c0.049,0.248,0.113,0.57,0.113,0.57l0.059,0.229l0.137,0.453c0-0.003,0.084,0.229,0.084,0.229c1.27,3.063,4.242,5.049,7.569,5.049 h12.489c3.328,0,6.301-1.986,7.576-5.063c0.018-0.043,0.032-0.095,0.047-0.14l0.137-0.483c0.013-0.047,0.111-0.494,0.177-0.789 c1.297-1.496,2.028-3.313,2.028-5.187V43.495c0-0.791-0.229-1.658-0.612-2.596c0.383-0.938,0.612-1.805,0.612-2.596V16.374 c0-1.865-0.729-3.678-2.019-5.169c-0.047-0.23-0.102-0.503-0.102-0.503c0-0.006-0.059-0.235-0.059-0.235l-0.133-0.437 c0.002,0.005-0.076-0.213-0.076-0.213c-1.275-3.085-4.25-5.073-7.579-5.073L9.764,4.745L9.764,4.745z M16.018,40.806 c0.125,0,0.252,0.048,0.378,0.085c0,0.003,0.003,0.006,0.003,0.006c0,0.006-0.002,0.008-0.002,0.008 c-0.127,0.039-0.254,0.087-0.38,0.087l0,0c-0.126,0-0.252-0.048-0.378-0.085c0,0-0.002-0.005-0.002-0.008 c0,0,0.002-0.005,0.002-0.008C15.765,40.854,15.891,40.806,16.018,40.806z"/>
<path fill="#DEE9F3" fill-opacity="0.05" d="M9.764,5.945c-2.842,0-5.381,1.697-6.469,4.323c-0.014,0.037-0.029,0.078-0.041,0.115 L3.12,10.827c-0.012,0.038-0.021,0.076-0.028,0.114c0,0-0.096,0.48-0.159,0.798c-1.222,1.304-1.915,2.924-1.915,4.635v21.929 c0,0.824,0.263,1.688,0.688,2.596c-0.425,0.908-0.688,1.771-0.688,2.596v23.989c0,1.707,0.689,3.324,1.906,4.625 c0.064,0.326,0.167,0.84,0.167,0.84c0.008,0.037,0.021,0.085,0.031,0.123l0.136,0.443c0.012,0.037,0.024,0.076,0.039,0.111 c1.088,2.623,3.626,4.318,6.466,4.318h12.489c2.842,0,5.379-1.697,6.467-4.322l0.139-0.492c0,0,0.133-0.605,0.215-0.979 c1.24-1.309,1.945-2.939,1.945-4.668v-23.99c0-0.824-0.264-1.688-0.688-2.596c0.426-0.908,0.688-1.772,0.688-2.596V16.374 c0-1.727-0.703-3.356-1.94-4.661c-0.063-0.314-0.154-0.775-0.154-0.775c-0.008-0.038-0.021-0.09-0.032-0.128l-0.132-0.43 c-0.012-0.038-0.024-0.075-0.039-0.112c-1.088-2.626-3.626-4.323-6.468-4.323H9.764z M16.018,39.885 c0.217,0.359,0.471,0.694,0.753,1.014c-0.283,0.318-0.537,0.654-0.753,1.014c-0.218-0.359-0.472-0.695-0.754-1.014 C15.546,40.58,15.8,40.245,16.018,39.885z"/>
<path fill="#DEE9F3" fill-opacity="0.07" d="M9.764,7.145c-2.354,0-4.458,1.406-5.359,3.582l-0.137,0.449c0,0-0.16,0.809-0.219,1.1 c-1.152,1.095-1.832,2.55-1.832,4.099v21.929c0,0.869,0.312,1.737,0.789,2.596c-0.478,0.858-0.789,1.727-0.789,2.596v23.99 c0,1.545,0.677,2.998,1.824,4.09c0.05,0.254,0.227,1.139,0.227,1.139c0-0.002,0.139,0.455,0.139,0.455 c0.9,2.17,3.003,3.576,5.356,3.576h12.489c2.354,0,4.457-1.404,5.357-3.58c0.026-0.064,0.061-0.219,0.076-0.289 c0,0,0.223-1.018,0.278-1.271c1.164-1.096,1.853-2.559,1.853-4.119V43.497c0-0.869-0.312-1.737-0.787-2.596 c0.477-0.859,0.787-1.727,0.787-2.596V16.374c0-1.563-0.688-3.026-1.855-4.122c-0.063-0.309-0.217-1.08-0.217-1.08l-0.135-0.445 c-0.9-2.176-3.004-3.582-5.358-3.582H9.764z M16.192,20.768c0,2.067,0,15.512,0,15.512c0,1.549,0.604,3.006,1.699,4.102 c0,0,0.246,0.244,0.52,0.518c-0.244,0.244-0.52,0.518-0.52,0.518c-1.096,1.097-1.699,2.553-1.699,4.102c0,0,0,15.498,0,17.603 c-0.172,0-0.178,0-0.35,0c0-2.104,0-17.603,0-17.603c0-1.549-0.604-3.005-1.699-4.102c0,0-0.244-0.244-0.518-0.518 c0.244-0.244,0.518-0.518,0.518-0.518c1.096-1.097,1.699-2.553,1.699-4.102c0,0,0-13.444,0-15.512 C16.014,20.768,16.02,20.768,16.192,20.768z M4.129,71.663c0.096,0.088,0.172,0.192,0.275,0.274 C4.284,71.84,4.198,71.758,4.129,71.663z"/>
<path fill="#DEE9F3" fill-opacity="0.09" d="M9.764,8.345c-1.867,0-3.535,1.115-4.25,2.841c-0.03,0.072-0.054,0.151-0.069,0.229 l-0.259,1.301c-0.018,0.084-0.027,0.102-0.029,0.141c-1.074,0.863-1.738,2.133-1.738,3.519v21.929c0,0.962,0.388,1.828,0.934,2.596 c-0.546,0.768-0.934,1.634-0.934,2.596v23.989c0,1.388,0.664,2.654,1.738,3.519c-0.001,0.009-0.002,0.021-0.002,0.021 c0,0.049,0.012,0.063,0.03,0.154l0.26,1.303c0.015,0.078,0.038,0.151,0.068,0.225c0.716,1.727,2.384,2.842,4.25,2.842h12.489 c1.867,0,3.535-1.115,4.248-2.84c0,0.004-0.002,0.004-0.002,0.004c0-0.072,0.332-1.531,0.332-1.531 c0.02-0.094,0.031-0.104,0.031-0.143c0,0,0-0.014-0.002-0.018c1.086-0.863,1.758-2.138,1.758-3.533v-23.99 c0-0.963-0.389-1.828-0.934-2.596c0.545-0.769,0.934-1.635,0.934-2.596V16.374c0-1.399-0.676-2.676-1.764-3.538 c-0.004-0.031-0.011-0.05-0.025-0.123l-0.26-1.305c-0.017-0.077-0.039-0.152-0.068-0.225c-0.713-1.725-2.381-2.839-4.249-2.839 L9.764,8.345L9.764,8.345z M17.393,19.568c0,2.042,0,16.712,0,16.712c0,1.229,0.479,2.383,1.348,3.252c0,0,0.768,0.768,1.365,1.367 c-0.599,0.6-1.365,1.366-1.365,1.366c-0.868,0.87-1.348,2.024-1.348,3.252c0,0,0,16.774,0,18.803c-0.986,0-1.765,0-2.75,0 c0-2.027,0-18.803,0-18.803c0-1.229-0.479-2.383-1.348-3.251c0,0-0.768-0.768-1.367-1.367c0.6-0.6,1.367-1.366,1.367-1.366 c0.869-0.87,1.348-2.024,1.348-3.253c0,0,0-14.67,0-16.712C15.627,19.568,16.409,19.568,17.393,19.568z"/>
<path fill="#DEE9F3" fill-opacity="0.11" d="M9.764,9.545c-1.38,0-2.613,0.824-3.142,2.1L6.363,12.95 c0,0.152,0.052,0.301,0.075,0.451c-1.104,0.588-1.82,1.705-1.82,2.974v21.929c0,1.023,0.457,1.961,1.211,2.596 c-0.754,0.635-1.211,1.573-1.211,2.596v23.99c0,1.27,0.72,2.391,1.827,2.977c-0.026,0.16-0.083,0.32-0.083,0.48l0.26,1.303 c0.529,1.275,1.762,2.1,3.142,2.1h12.489c1.379,0,2.612-0.824,3.142-2.098c0-0.002,0.26-1.305,0.26-1.305 c0-0.156-0.055-0.313-0.08-0.469c1.117-0.584,1.844-1.711,1.844-2.988v-23.99c0-1.023-0.457-1.962-1.209-2.596 c0.752-0.635,1.209-1.573,1.209-2.596v-21.93c0-1.275-0.723-2.4-1.838-2.983c0.023-0.148,0.074-0.294,0.074-0.443l-0.262-1.305 c-0.527-1.273-1.761-2.098-3.141-2.098H9.764z M18.598,18.368c0,0.01-0.006,0.021-0.006,0.031V36.28 c0,0.908,0.354,1.762,0.996,2.404l2.023,2.023c0.084,0.084,0.195,0.117,0.287,0.191c-0.092,0.074-0.203,0.107-0.289,0.192 l-2.021,2.022c-0.643,0.643-0.996,1.496-0.996,2.404v19.943c0,0.02,0.01,0.039,0.012,0.059c-1.609,0-3.555,0-5.171,0 c0-0.02,0.01-0.039,0.01-0.059V45.518c0-0.908-0.354-1.762-0.996-2.404l-2.023-2.023c-0.084-0.084-0.196-0.117-0.287-0.191 c0.092-0.074,0.204-0.107,0.289-0.192l2.021-2.022c0.643-0.643,0.996-1.496,0.996-2.404V18.399c0-0.011-0.005-0.021-0.005-0.031 C15.045,18.368,16.99,18.368,18.598,18.368z"/>
<path fill="#DEE9F3" fill-opacity="0.13" d="M9.764,10.746c-0.893,0-1.691,0.534-2.033,1.358c-0.113,0.274-0.168,0.56-0.168,0.846 c0,0.443,0.172,0.859,0.43,1.229c-0.273,0.003-0.551,0.054-0.816,0.163l0,0c-0.824,0.342-1.357,1.139-1.357,2.032v21.929 c0,0.893,0.533,1.69,1.357,2.032c0.826,0.343,1.768,0.154,2.398-0.478l2.023-2.022c0.415-0.415,0.645-0.968,0.645-1.556v-17.88 c0-0.454-0.174-0.866-0.428-1.231c0.055,0,8.389,0,8.405,0c-0.254,0.364-0.427,0.777-0.427,1.231V36.28 c0,0.588,0.229,1.141,0.645,1.556l2.022,2.023c0.632,0.632,1.573,0.818,2.397,0.478c0.826-0.343,1.358-1.141,1.358-2.033v-21.93 c0-0.894-0.534-1.69-1.358-2.032c-0.271-0.112-0.554-0.166-0.834-0.167c0.256-0.37,0.429-0.785,0.429-1.228 c0-0.283-0.056-0.57-0.169-0.844c-0.342-0.824-1.139-1.358-2.032-1.358L9.764,10.746L9.764,10.746z M22.459,41.94l-2.021,2.022 c-0.416,0.415-0.645,0.968-0.645,1.556v19.943c0,0.467,0.18,0.891,0.447,1.262c-0.004,0-0.008-0.002-0.012-0.002 c0,0-8.417,0-8.435,0c0.268-0.371,0.447-0.795,0.447-1.26V45.518c0-0.588-0.229-1.141-0.645-1.556l-2.023-2.023 c-0.632-0.632-1.572-0.818-2.398-0.478c0,0,0,0,0,0.001c-0.824,0.342-1.357,1.14-1.357,2.032v23.99 c0,0.893,0.533,1.688,1.357,2.031c0.271,0.112,0.555,0.166,0.835,0.168c-0.271,0.375-0.449,0.803-0.449,1.258 c0,0.283,0.056,0.57,0.169,0.844c0.342,0.826,1.139,1.359,2.032,1.359h12.489c0.894,0,1.69-0.533,2.032-1.359 c0.113-0.273,0.169-0.559,0.169-0.844c0-0.455-0.179-0.883-0.449-1.258c0.287,0,0.576-0.054,0.854-0.168 c0.826-0.343,1.358-1.14,1.358-2.031v-23.99c0-0.893-0.532-1.69-1.358-2.032C24.033,41.12,23.09,41.308,22.459,41.94z"/>
<linearGradient id="_2" gradientUnits="userSpaceOnUse" x1="16.02" y1="4.26" x2="16.02" y2="66.28">
<stop stop-color="#87A8CB" offset="0"/>
<stop stop-color="#235487" offset="1"/>
</linearGradient>
<path fill="url(#_2)" d="M11.041,36.694l-4.023,4.023V13.959l4.023,4.025V36.694z M11.041,65.875l-4.023,4.023V41.08 l4.023,4.023V65.875z M11.373,15.967l-4.025-4.021h17.318l-4.023,4.021H11.373z M20.643,67.92l4.023,4.023H7.348l4.025-4.023 H20.643z M20.992,17.985l4.023-4.025v26.758l-4.023-4.023V17.985z M20.992,45.104l4.023-4.022v28.817l-4.023-4.022V45.104z"/>
</svg>