<?xml version="1.0" encoding="UTF-8"?>
<!DOCTYPE svg PUBLIC "-//W3C//DTD SVG 1.1 Tiny//EN" "http://www.w3.org/Graphics/SVG/1.1/DTD/svg11-tiny.dtd">
<svg baseProfile="tiny" version="1.1" xmlns="http://www.w3.org/2000/svg" xmlns:xlink="http://www.w3.org/1999/xlink" width="44" height="32" viewBox="-0.5 0.5 44 32">
<g>
<g>
<path fill="#656B6B" fill-opacity="0.01" d="M41.5,32.5v-3.025c0-6.006-2.198-11.651-6.189-15.897 C31.316,9.328,26.012,7.492,20.369,7.5H-0.5v25H41.5z"/>
<path fill="#656B6B" fill-opacity="0.02" d="M40.5,32.5v-3.025c0-5.721-2.094-11.099-5.896-15.145 c-3.805-4.047-8.859-5.837-14.232-5.83H-0.5v24H40.5z"/>
<path fill="#656B6B" fill-opacity="0.03" d="M39.5,32.5v-3.025c0-5.436-1.99-10.547-5.604-14.391 c-3.615-3.847-8.418-5.59-13.524-5.584H-0.5v23H39.5z"/>
<path fill="#656B6B" fill-opacity="0.06" d="M38.5,32.5v-3.025c0-5.149-1.887-9.994-5.311-13.637 c-3.426-3.646-7.977-5.344-12.816-5.338H-0.5v22H38.5z"/>
<path fill="#656B6B" fill-opacity="0.05" d="M37.5,32.5v-3.025c0-10.067-7.678-17.987-17.125-17.975H-0.5v21H37.5z"/>
<path fill="#656B6B" fill-opacity="0.1" d="M36.5,32.5v-3.025c0-10.067-7.75-16.975-16.75-16.975H-0.5v20H36.5z"/>
<path fill="#656B6B" fill-opacity="0.1" d="M35.5,32.5v-3.025c0-10.067-7.75-15.975-16.75-15.975H-0.5v19H35.5z"/>
<path fill="#656B6B" fill-opacity="0.1" d="M34.5,32.5v-3.025c0-10.067-8-14.975-16.625-14.975H-0.5v18H34.5z"/>
<path fill="#FFFFFF" fill-opacity="0.8" d="M33.5,32.5v-3.025c0-10.067-7.658-17.987-17.105-17.975H-0.5v21H33.5z"/>
<rect x="-0.5" y="0.5" fill="none" width="44" height="32"/>
</g>
</g>
</svg>
