<?xml version="1.0" encoding="UTF-8"?>
<!DOCTYPE svg PUBLIC "-//W3C//DTD SVG 1.1 Tiny//EN" "http://www.w3.org/Graphics/SVG/1.1/DTD/svg11-tiny.dtd">
<svg width="12" height="86" viewBox="0 0 12 86">
<rect width="12" height="86"/>
<path fill="#FFFFFF" d="M4.041,50.086c-0.279,0-0.525-0.104-0.738-0.314c-0.213-0.209-0.318-0.451-0.318-0.725v-3.951 c0-0.285,0.105-0.531,0.318-0.736c0.213-0.201,0.459-0.305,0.738-0.305h3.92c0.277,0,0.523,0.104,0.736,0.305 c0.213,0.205,0.318,0.451,0.318,0.736v3.951c0,0.273-0.105,0.516-0.318,0.725c-0.213,0.211-0.459,0.314-0.736,0.314H4.041z M4.041,72.021c-0.279,0-0.525-0.104-0.738-0.314c-0.213-0.209-0.318-0.451-0.318-0.727v-3.949c0-0.273,0.104-0.516,0.309-0.727 c0.205-0.209,0.455-0.314,0.748-0.314h3.92c0.277,0,0.523,0.105,0.736,0.314c0.213,0.211,0.318,0.453,0.318,0.727v3.949 c0,0.275-0.105,0.518-0.318,0.727c-0.213,0.211-0.459,0.314-0.736,0.314H4.041z"/>
</svg>