<?xml version="1.0" encoding="UTF-8"?>
<!DOCTYPE svg PUBLIC "-//W3C//DTD SVG 1.1 Tiny//EN" "http://www.w3.org/Graphics/SVG/1.1/DTD/svg11-tiny.dtd">
<svg width="44" height="32" viewBox="-0.501 -0.5 44 32">
<path fill="#656B6B" fill-opacity="0.01" d="M1.499-0.5v4.875c0,10.877,8.875,21.125,20.848,21.125c0.104,0,7.996,0,21.152,0v-26 H1.499z"/>
<path fill="#656B6B" fill-opacity="0.02" d="M2.499-0.5v4.875c0,10.75,8.875,20.125,19.898,20.125c0.506,0,8.311,0,21.102,0v-25 H2.499z"/>
<path fill="#656B6B" fill-opacity="0.03" d="M3.499-0.5v4.875c0,10.125,8.25,19.125,18.949,19.125c0.088,0,7.941,0,21.051,0v-24 H3.499z"/>
<path fill="#656B6B" fill-opacity="0.06" d="M4.499-0.5v4.875c0,9.33,7.5,18.125,18.125,18.121c0.1,0,7.883,0,20.875,0V-0.5H4.499 z"/>
<path fill="#656B6B" fill-opacity="0.05" d="M5.501-0.5v4.875c0,8.858,7.373,17.125,17.123,17.125h20.875v-22H5.501z"/>
<path fill="#656B6B" fill-opacity="0.1" d="M6.5-0.5v3.875C6.499,12.5,12.999,20.5,23.578,20.498h19.921V-0.5H6.5z"/>
<path fill="#656B6B" fill-opacity="0.1" d="M7.5-0.5v2.875c-0.001,9,5.124,17.125,17.106,17.125c0.078,0,7.084,0,18.893,0v-20H7.5 z"/>
<path fill="#656B6B" fill-opacity="0.1" d="M8.5-0.5v1.885C8.499,10.25,12.374,18.5,25.624,18.5h17.875v-19H8.5z"/>
<linearGradient id="_2" gradientUnits="userSpaceOnUse" x1="24.5" y1="9" x2="24.5" y2="-71">
<stop stop-color="#D9F4E0" offset="0"/>
<stop stop-color="#FFFFFF" offset="1"/>
</linearGradient>
<path fill="url(#_2)" d="M5.499-0.5v0.885c0,9.451,7.658,17.115,17.105,17.115h20.895v-18H5.499z"/>
</svg>