<?xml version="1.0" encoding="UTF-8"?>
<!DOCTYPE svg PUBLIC "-//W3C//DTD SVG 1.1 Tiny//EN" "http://www.w3.org/Graphics/SVG/1.1/DTD/svg11-tiny.dtd">
<svg width="8" height="8" viewBox="-0.75 0.75 8 8">
<linearGradient id="_4" gradientUnits="userSpaceOnUse" x1="3.25" y1="2.07" x2="3.25" y2="44.31">
<stop stop-color="#7D9CAD" offset="0"/>
<stop stop-color="#576F96" offset="0.73"/>
<stop stop-color="#4F6691" offset="1"/>
</linearGradient>
<path d="M4.99,0.75h-5.74v1h5.74c0.694,0,1.26,0.564,1.26,1.259V8.75h1V3.009 C7.25,1.764,6.236,0.75,4.99,0.75z" fill="url(#_4)"/>
<g fill-opacity="0.7" stroke-opacity="0.7">
<linearGradient id="_5" gradientUnits="userSpaceOnUse" x1="2.75" y1="50.52" x2="2.75" y2="-0.31">
<stop stop-color="#ADB5A8" offset="0.03"/>
<stop stop-color="#C7D9D9" offset="0.26"/>
<stop stop-color="#FFFFFF" offset="0.72"/>
</linearGradient>
<path d="M6.25,8.75V3.009c0-0.694-0.565-1.259-1.26-1.259h-5.74v7H6.25z" fill="url(#_5)"/>
</g>
<path d="M5.249,2.75l0.619-0.623C5.625,1.875,5.339,1.75,4.99,1.75h-5.74v1H5.249z" fill="#FFFFFF"/>
<linearGradient id="_6" gradientUnits="userSpaceOnUse" x1="5.75" y1="7.39" x2="5.75" y2="51.06">
<stop stop-color="#CADCEC" offset="0"/>
<stop stop-color="#809CB3" offset="1"/>
</linearGradient>
<path d="M6.25,3.009c0-0.346-0.143-0.652-0.372-0.873C5.875,2.123,5.25,2.764,5.25,2.764s0,2.385,0,5.986h1 V3.009z" fill="url(#_6)"/>
</svg>