<?xml version="1.0" encoding="UTF-8"?>
<!DOCTYPE svg PUBLIC "-//W3C//DTD SVG 1.1 Tiny//EN" "http://www.w3.org/Graphics/SVG/1.1/DTD/svg11-tiny.dtd">
<svg width="34" height="86" viewBox="-0.433 0.065 34 86">
<path fill-opacity="0.03" fill="#DEE9F3" d="M10.294,4.854c-3.33,0-6.307,1.99-7.58,5.068c-0.01,0.028-0.217,0.69-0.217,0.69 C2.46,10.735,2.44,10.859,2.44,10.981c0,0.018,0.012,0.03,0.014,0.047c-0.025,0.086-0.031,0.108-0.053,0.178 c-1.338,1.508-2.094,3.354-2.094,5.258v21.891c0,2.682,1.383,5.127,3.67,6.668c0.377,0.749,0.777,1.363,1.232,1.818l1.012,1.013 c1.549,1.551,3.609,2.405,5.799,2.405c0,0,1.277,0,2.32,0c0,1.773,0,8.777,0,10.552c-0.945,0-2.023,0-2.023,0 c-2.189,0-4.25,0.854-5.797,2.403l-2.023,2.021c-1.551,1.555-2.404,3.613-2.404,5.797l0.012,0.236l0.047,0.479 c0.002,0.004,0.037,0.236,0.037,0.236l0.258,1.291c-0.004-0.014,0.059,0.234,0.059,0.234l0.127,0.424 c0,0.004,0.084,0.236,0.084,0.236c1.271,3.076,4.246,5.068,7.578,5.068h12.488c3.33,0,6.303-1.988,7.576-5.066l0.076-0.213 l0.139-0.447c0.004-0.012,0.043-0.201,0.082-0.383c1.35-1.506,2.113-3.354,2.113-5.27V43.655c0-0.812-0.242-1.695-0.643-2.65 c0.4-0.954,0.643-1.838,0.643-2.65V16.464c0-1.884-0.74-3.708-2.049-5.205c-0.041-0.209-0.088-0.441-0.088-0.441 c0.002,0.012-0.195-0.678-0.195-0.678c0.002,0.002-0.076-0.217-0.076-0.217c-1.277-3.082-4.25-5.068-7.578-5.068H10.294z"/>
<path fill-opacity="0.05" fill="#DEE9F3" d="M10.294,6.055c-2.844,0-5.383,1.698-6.471,4.327c-0.004,0.013-0.178,0.582-0.178,0.582 c0.02-0.067,0.084-0.102,0.115-0.163c-0.113,0.266-0.199,0.595-0.275,0.966c-1.262,1.311-1.977,2.953-1.977,4.697v21.891 c0,2.426,1.314,4.619,3.408,5.893c0.334,0.713,0.703,1.307,1.143,1.746l1.012,1.012c1.322,1.324,3.08,2.054,4.949,2.054 c0,0,2.186,0,3.521,0c0,1.866,0,11.086,0,12.952c-1.275,0-3.225,0-3.225,0c-1.869,0-3.627,0.729-4.949,2.053l-2.023,2.021 c-1.324,1.326-2.053,3.084-2.053,4.947c0,0.041,0.002,0.082,0.006,0.121l0.049,0.473c0.004,0.039,0.01,0.076,0.018,0.113 l0.258,1.301c0.008,0.037,0.021,0.09,0.033,0.127l0.125,0.422c0.012,0.039,0.025,0.078,0.041,0.115 c1.088,2.631,3.629,4.332,6.473,4.332h12.488c2.842,0,5.381-1.697,6.467-4.324c0.016-0.035,0.031-0.082,0.043-0.119l0.133-0.434 c0.004-0.014,0.064-0.309,0.115-0.555c1.293-1.314,2.029-2.973,2.029-4.746V43.655c0-0.846-0.275-1.727-0.721-2.65 c0.445-0.924,0.721-1.805,0.721-2.65V16.464c0-1.744-0.715-3.385-1.971-4.693c-0.061-0.303-0.145-0.719-0.145-0.719 c-0.004-0.026-0.166-0.568-0.166-0.568c-0.012-0.04-0.023-0.07-0.039-0.109c-1.088-2.623-3.625-4.319-6.467-4.319H10.294z"/>
<path fill-opacity="0.07" fill="#DEE9F3" d="M10.294,7.255c-2.355,0-4.461,1.408-5.361,3.586c-0.002,0.004-0.137,0.463-0.137,0.463 c0-0.006-0.123,0.613-0.203,1.014c-1.186,1.098-1.885,2.569-1.885,4.146v21.891c0,2.181,1.24,4.104,3.148,5.099 c0.283,0.677,0.617,1.257,1.051,1.692l1.012,1.012c1.096,1.097,2.553,1.701,4.102,1.701c0,0,3.195,0,4.721,0 c0,1.936,0,13.418,0,15.354c-1.484,0-4.424,0-4.424,0c-1.549,0-3.006,0.604-4.1,1.699l-2.025,2.023 c-1.096,1.098-1.699,2.555-1.699,4.098l0.047,0.473l0.26,1.301c-0.002-0.01,0.131,0.439,0.131,0.439 c0.902,2.186,3.006,3.592,5.363,3.592h12.488c2.354,0,4.457-1.406,5.359-3.584l0.137-0.445c0-0.004,0.086-0.43,0.15-0.756 c1.221-1.102,1.939-2.588,1.939-4.193V43.655c0-0.894-0.326-1.778-0.826-2.65c0.5-0.871,0.826-1.756,0.826-2.65V16.464 c0-1.58-0.699-3.053-1.885-4.149c-0.078-0.386-0.205-1.028-0.205-1.028c-0.002-0.005-0.139-0.453-0.139-0.453 c-0.9-2.173-3.004-3.578-5.357-3.578H10.294z M16.743,20.88c0,1.788,0,11.707-0.002,13.354c-0.199,0-0.207,0-0.408,0 c0-1.646-0.002-11.566-0.002-13.354C16.532,20.88,16.542,20.88,16.743,20.88z"/>
<path fill-opacity="0.09" fill="#DEE9F3" d="M10.294,8.455c-1.869,0-3.537,1.116-4.252,2.844c-0.029,0.071-0.053,0.153-0.068,0.23 c0,0-0.27,1.354-0.275,1.376c-1.104,0.863-1.789,2.146-1.789,3.559v21.891c0,1.865,1.113,3.533,2.838,4.249 c0,0,0.037,0.009,0.043,0.011c0.219,0.645,0.514,1.23,0.967,1.683l1.012,1.013c0.869,0.869,2.023,1.349,3.252,1.349 c0,0,4.225,0,5.922,0c0,1.657,0,15.744,0,17.753c-1.631,0-5.625,0-5.625,0c-1.229,0-2.383,0.479-3.252,1.348l-2.023,2.023 c-0.871,0.873-1.35,2.025-1.35,3.25c0,0.08,0.008,0.158,0.023,0.234l0.26,1.305c0.016,0.076,0.039,0.152,0.068,0.225 c0.713,1.725,2.381,2.84,4.25,2.84h12.488c1.867,0,3.535-1.115,4.25-2.842c0.031-0.072,0.055-0.15,0.07-0.227 c0,0,0.166-0.838,0.221-1.113c1.137-0.861,1.846-2.162,1.846-3.596V43.655c0-0.99-0.408-1.872-0.982-2.65 c0.574-0.777,0.982-1.659,0.982-2.65V16.464c0-1.415-0.686-2.699-1.793-3.561c-0.004-0.021-0.275-1.384-0.275-1.384 c-0.016-0.077-0.037-0.152-0.068-0.226c-0.715-1.725-2.383-2.839-4.25-2.839H10.294z M17.944,19.68 c0,1.976-0.002,14.251-0.002,15.754c-1.014,0-1.795,0-2.809,0c0-1.504-0.002-13.778-0.002-15.754 C16.128,19.68,16.946,19.68,17.944,19.68z M15.134,36.331"/>
<path fill-opacity="0.11" fill="#DEE9F3" d="M10.294,9.655c-1.381,0-2.615,0.825-3.143,2.102l-0.26,1.303 c0,0.139,0.049,0.275,0.068,0.412c-1.123,0.584-1.852,1.713-1.852,2.992v21.891c0,1.379,0.824,2.611,2.098,3.141 c0.158,0.065,0.342,0.061,0.512,0.099c0.115,0.692,0.381,1.348,0.887,1.854l1.012,1.013c0.643,0.644,1.496,0.997,2.404,0.997 c0,0,4.932,0,7.162,0c-0.004,0.075-0.041,0.145-0.041,0.221c0,0,0,19.496,0,19.934c-1.979,0-6.824,0-6.824,0 c-0.908,0-1.762,0.354-2.402,0.994L7.89,68.632c-0.643,0.643-0.996,1.496-0.996,2.4l0.26,1.305c0.525,1.275,1.76,2.1,3.141,2.1 h12.488c1.381,0,2.613-0.826,3.143-2.102l0.26-1.303c0-0.063-0.047-0.127-0.051-0.191c1.111-0.584,1.834-1.707,1.834-2.982V43.655 c0-1.055-0.484-2.016-1.279-2.65c0.795-0.634,1.279-1.596,1.279-2.65V16.464c0-1.281-0.729-2.412-1.852-2.993 c0.02-0.138,0.068-0.274,0.068-0.413l-0.26-1.304c-0.529-1.274-1.762-2.099-3.143-2.099H10.294z M19.144,18.479 c0,0.003-0.002,17.852-0.002,17.852c0,0.104,0.049,0.199,0.059,0.303c-1.693,0-3.633,0-5.326,0c0.01-0.104,0.059-0.198,0.059-0.303 c0,0-0.002-17.849-0.002-17.852C15.544,18.479,17.532,18.479,19.144,18.479z"/>
<path fill-opacity="0.13" fill="#DEE9F3" d="M10.294,10.855c-0.893,0-1.691,0.534-2.033,1.359c-0.113,0.273-0.168,0.56-0.168,0.845 c0,0.433,0.168,0.84,0.414,1.205c-0.281,0-0.566,0.055-0.84,0.167v0.001c-0.824,0.342-1.357,1.139-1.357,2.031v21.891 c0,0.893,0.533,1.689,1.357,2.032c0.41,0.17,0.84,0.169,1.256,0.088c-0.051,0.187-0.113,0.372-0.113,0.571 c0,0.587,0.229,1.139,0.645,1.555l1.012,1.012c0.416,0.416,0.967,0.646,1.555,0.646c0,0,8.574,0,8.877,0 c-0.346,0.399-0.555,0.89-0.555,1.421v20.156c0,0.35,0.104,0.674,0.256,0.977c-0.307,0-8.281,0-8.281,0 c-0.586,0-1.139,0.229-1.555,0.645l-2.023,2.023c-0.422,0.422-0.646,0.982-0.646,1.553c0,0.285,0.057,0.572,0.17,0.846 c0.34,0.824,1.139,1.357,2.031,1.357h12.488c0.895,0,1.691-0.533,2.033-1.359c0.113-0.273,0.17-0.561,0.17-0.844 c0-0.352-0.113-0.688-0.277-1c0.236-0.016,0.475-0.047,0.701-0.141c0.826-0.342,1.359-1.139,1.359-2.033V43.655 c0-0.894-0.533-1.691-1.359-2.033c-0.404-0.168-0.83-0.167-1.24-0.09c0.039-0.162,0.098-0.319,0.098-0.486 c0-0.199-0.063-0.385-0.113-0.571c0.416,0.081,0.846,0.083,1.256-0.087c0.826-0.342,1.359-1.139,1.359-2.033V16.464 c0-0.893-0.533-1.69-1.357-2.033c-0.273-0.112-0.559-0.166-0.84-0.167c0.246-0.365,0.412-0.772,0.412-1.206 c0-0.284-0.055-0.571-0.168-0.846c-0.342-0.822-1.139-1.356-2.033-1.356H10.294z M20.757,17.279 c-0.244,0.36-0.414,0.77-0.414,1.209v17.843c0,0.566,0.223,1.094,0.609,1.503c-0.197,0-8.633,0-8.83,0 c0.383-0.405,0.611-0.946,0.611-1.503V18.488c0-0.438-0.172-0.847-0.414-1.209C12.319,17.279,20.749,17.279,20.757,17.279z"/>
<linearGradient id="_2" gradientUnits="userSpaceOnUse" x1="16.54" y1="4.33" x2="16.54" y2="66.34">
<stop stop-color="#87A8CB" offset="0"/>
<stop stop-color="#235487" offset="1"/>
</linearGradient>
<path fill="url(#_2)" d="M11.532,36.745l-4.023,4.023V14.05l4.023,4.024V36.745z M11.903,16.079L7.88,12.056h17.316 l-4.023,4.023H11.903z M21.173,68.013l4.023,4.023H7.88l4.023-4.023H21.173z M11.606,43.058l-2.012-2.013l2.012-2.011h9.861 l2.014,2.011l-2.014,2.013H11.606z M21.542,18.074l4.025-4.024v26.719l-4.025-4.023V18.074z M21.542,45.265l4.025-4.023v29.031 l-4.025-4.023V45.265z"/>
</svg>