<?xml version="1.0" encoding="UTF-8"?>
<!DOCTYPE svg PUBLIC "-//W3C//DTD SVG 1.1 Tiny//EN" "http://www.w3.org/Graphics/SVG/1.1/DTD/svg11-tiny.dtd">
<svg width="8" height="8" viewBox="-1.75 0.625 8 8">
<linearGradient id="_4" gradientUnits="userSpaceOnUse" x1="2.25" y1="-34.06" x2="2.25" y2="8.18">
<stop stop-color="#7D9CAD" offset="0"/>
<stop stop-color="#576F96" offset="0.73"/>
<stop stop-color="#4F6691" offset="1"/>
</linearGradient>
<path d="M0.509,7.625c-0.694,0-1.259-0.565-1.259-1.26v-5.74h-1v5.74c0,1.246,1.014,2.26,2.259,2.26H6.25v-1 H0.509z" fill="url(#_4)"/>
<g fill-opacity="0.7" stroke-opacity="0.7">
<linearGradient id="_5" gradientUnits="userSpaceOnUse" x1="2.75" y1="14.4" x2="2.75" y2="-36.43">
<stop stop-color="#ADB5A8" offset="0.03"/>
<stop stop-color="#C7D9D9" offset="0.26"/>
<stop stop-color="#FFFFFF" offset="0.72"/>
</linearGradient>
<path d="M-0.75,0.625v5.74c0,0.694,0.564,1.26,1.259,1.26H6.25v-7H-0.75z" fill="url(#_5)"/>
</g>
<path d="M-0.75,6.365c0,0.346,0.143,0.652,0.372,0.873C-0.375,7.251,0.25,6.61,0.25,6.61V0.625h-1V6.365z" fill="#FFFFFF"/>
<linearGradient id="_6" gradientUnits="userSpaceOnUse" x1="2.94" y1="-28.74" x2="2.94" y2="14.93">
<stop stop-color="#CADCEC" offset="0"/>
<stop stop-color="#809CB3" offset="1"/>
</linearGradient>
<path d="M0.251,6.624l-0.619,0.623c0.243,0.252,0.529,0.377,0.878,0.377h5.74v-1 C2.704,6.624,0.251,6.624,0.251,6.624z" fill="url(#_6)"/>
</svg>