<?xml version="1.0" encoding="UTF-8"?>
<!DOCTYPE svg PUBLIC "-//W3C//DTD SVG 1.1 Tiny//EN" "http://www.w3.org/Graphics/SVG/1.1/DTD/svg11-tiny.dtd">
<svg baseProfile="tiny" height="12" version="1.1" viewBox="0 0 12 12" width="12" xmlns="http://www.w3.org/2000/svg" xmlns:xlink="http://www.w3.org/1999/xlink">
<g>
<rect fill="none" height="12" width="12"/>
<g>
<linearGradient gradientUnits="userSpaceOnUse" id="XMLID_4_" x1="2" x2="10" y1="3.9375" y2="3.9375">
<stop offset="0" style="stop-color:#788FB8"/>
<stop offset="1" style="stop-color:#235487"/>
</linearGradient>
<path d="M2,6.676c0,0.662,0.547,1.199,1.219,1.199h5.561C9.451,7.875,10,7.338,10,6.676V0H2    V6.676z" fill="url(#XMLID_4_)" fill-opacity="0.7" stroke-opacity="0.7"/>
<path d="M8.779,7.875H3.219C2.547,7.875,2,7.338,2,6.676v0.563C2,7.9,2.547,8.438,3.219,8.438h5.561    C9.451,8.438,10,7.9,10,7.238V6.676C10,7.338,9.451,7.875,8.779,7.875z" fill-opacity="0.2" stroke-opacity="0.2"/>
<path d="M8.779,8.438H3.219C2.547,8.438,2,7.9,2,7.238v0.563C2,8.463,2.547,9,3.219,9h5.561    C9.451,9,10,8.463,10,7.801V7.238C10,7.9,9.451,8.438,8.779,8.438z" fill-opacity="0.09" stroke-opacity="0.09"/>
<path d="M2.5,6.453c0,0.457,0.377,0.826,0.844,0.826h5.311C9.121,7.279,9.5,6.91,9.5,6.453V0h-7V6.453z" fill="#A2C2DD"/>
<linearGradient gradientUnits="userSpaceOnUse" id="XMLID_5_" x1="-9.0625" x2="22.5625" y1="3.5146" y2="3.5146">
<stop offset="0" style="stop-color:#FFFFFF"/>
<stop offset="0.1142" style="stop-color:#E0EAF3"/>
<stop offset="0.35" style="stop-color:#A2C2DD"/>
<stop offset="0.4825" style="stop-color:#8CA9CF"/>
<stop offset="0.7" style="stop-color:#6C83BB"/>
<stop offset="0.7458" style="stop-color:#637DB5"/>
<stop offset="0.8189" style="stop-color:#4C6EA4"/>
<stop offset="0.9097" style="stop-color:#265689"/>
<stop offset="0.9888" style="stop-color:#003D6D"/>
<stop offset="1" style="stop-color:#003D6D"/>
</linearGradient>
<path d="M2.75,6.453c0,0.152,0.061,0.297,0.172,0.404c0.111,0.111,0.262,0.172,0.422,0.172    h5.311c0.16,0,0.311-0.061,0.422-0.172C9.188,6.75,9.25,6.605,9.25,6.453V0h-6.5V6.453z" fill="url(#XMLID_5_)" fill-opacity="0.6" stroke-opacity="0.6"/>
<linearGradient gradientUnits="userSpaceOnUse" id="XMLID_6_" x1="2.9951" x2="9.8349" y1="3.3887" y2="3.3887">
<stop offset="0" style="stop-color:#E1EBF4"/>
<stop offset="0.4944" style="stop-color:#CEE1EF"/>
<stop offset="1" style="stop-color:#C5CEEF"/>
</linearGradient>
<path d="M3.25,6.203c0,0.152,0.061,0.297,0.172,0.404c0.111,0.109,0.262,0.17,0.42,0.17h4.313    c0.16,0,0.311-0.061,0.422-0.17C8.688,6.5,8.75,6.355,8.75,6.203V0h-5.5V6.203z" fill="url(#XMLID_6_)"/>
<path d="M2.75,6.453c0,0.152,0.061,0.297,0.172,0.404c0.111,0.111,0.262,0.172,0.422,0.172H6V0H2.75    V6.453z" fill="#FFFFFF" fill-opacity="0.5" stroke-opacity="0.5"/>
</g>
</g>
</svg>
