<?xml version="1.0" encoding="UTF-8" standalone="no"?>
<!DOCTYPE svg PUBLIC "-//W3C//DTD SVG 1.1 Tiny//EN" "http://www.w3.org/Graphics/SVG/1.1/DTD/svg11-tiny.dtd">
<svg xmlns="http://www.w3.org/2000/svg" xmlns:xlink="http://www.w3.org/1999/xlink" width="12" height="12" viewBox="-0.609 -1.391 12 12">
<rect fill="none" height="12" width="12" x="-0.609" y="-1.391"/>
<linearGradient id="_4" gradientUnits="userSpaceOnUse" x1="6.89" y1="0.61" x2="6.89" y2="8.61">
<stop stop-color="#788FB8" offset="0"/>
<stop stop-color="#235487" offset="1"/>
</linearGradient>
<path d="M3.591,8.609h7.8v-8h-7.8c-0.662,0-1.2,0.547-1.2,1.219v5.56 C2.391,8.061,2.929,8.609,3.591,8.609z" fill="url(#_4)" fill-opacity="0.7"/>
<path d="M3.72,8.109h7.671v-7H3.72c-0.457,0-0.829,0.377-0.829,0.844v5.31C2.891,7.73,3.263,8.109,3.72,8.109z" fill="#A2C2DD"/>
<linearGradient id="_5" gradientUnits="userSpaceOnUse" x1="7.27" y1="-10.45" x2="7.27" y2="21.17">
<stop stop-color="#FFFFFF" offset="0"/>
<stop stop-color="#E0EAF3" offset="0.11"/>
<stop stop-color="#A2C2DD" offset="0.35"/>
<stop stop-color="#8CA9CF" offset="0.48"/>
<stop stop-color="#6C83BB" offset="0.7"/>
<stop stop-color="#637DB5" offset="0.75"/>
<stop stop-color="#4C6EA4" offset="0.82"/>
<stop stop-color="#265689" offset="0.91"/>
<stop stop-color="#003D6D" offset="0.99"/>
</linearGradient>
<path d="M3.72,7.859h7.671v-6.5H3.72c-0.319,0-0.579,0.266-0.579,0.594v5.31 C3.141,7.592,3.4,7.859,3.72,7.859z" fill="url(#_5)" fill-opacity="0.6"/>
<linearGradient id="_6" gradientUnits="userSpaceOnUse" x1="7.39" y1="1.6" x2="7.39" y2="8.44">
<stop stop-color="#E1EBF4" offset="0"/>
<stop stop-color="#CEE1EF" offset="0.49"/>
<stop stop-color="#C5CEEF" offset="1"/>
</linearGradient>
<path d="M3.969,7.359h7.422v-5.5H3.969c-0.318,0-0.578,0.266-0.578,0.592v4.313 C3.391,7.092,3.65,7.359,3.969,7.359z" fill="url(#_6)"/>
<path d="M3.141,4.609h8.25v-3.25H3.72c-0.319,0-0.579,0.266-0.579,0.594V4.609z" fill="#FFFFFF" fill-opacity="0.5"/>
<path d="M3.591,8.609h7.8v-8h-7.8c-0.662,0-1.2,0.547-1.2,1.219v5.56 C2.391,8.061,2.929,8.609,3.591,8.609z" fill="#13203F" fill-opacity="0.3" />
</svg>