<?xml version="1.0" encoding="UTF-8"?>
<!DOCTYPE svg PUBLIC "-//W3C//DTD SVG 1.1 Tiny//EN" "http://www.w3.org/Graphics/SVG/1.1/DTD/svg11-tiny.dtd">
<svg width="24" height="24" viewBox="-0.5 -0.5 24 24">
<path fill="#656B6B" fill-opacity="0.01" d="M1.5-0.5v6c0,6.617,5.383,12,12,12h10v-18H1.5z"/>
<path fill="#656B6B" fill-opacity="0.03" d="M2.5-0.5v6c0,6.065,4.936,11,11,11h10v-17H2.5z"/>
<path fill="#656B6B" fill-opacity="0.04" d="M3.5-0.5v6c0,5.515,4.486,10,10,10h10v-16H3.5z"/>
<path fill="#656B6B" fill-opacity="0.09" d="M4.5-0.5v6c0,4.963,4.037,9,9,9h10v-15H4.5z"/>
<path fill="#656B6B" fill-opacity="0.08" d="M5.5-0.5v6c0,4.412,3.589,8,8,8h10v-14H5.5z"/>
<path fill="#656B6B" fill-opacity="0.1" d="M6.5-0.5v6c0,3.858,3.141,7,7,7h10v-13H6.5z"/>
<path fill="#656B6B" fill-opacity="0.11" d="M7.5-0.5v6c0,3.31,2.691,6,6,6h10v-12H7.5z"/>
<path fill="#656B6B" fill-opacity="0.1" d="M8.5-0.5v6c0,2.763,2.238,5,5,5h10v-11H8.5z"/>
<rect x="4.5" y="-0.5" fill="#656B6B" fill-opacity="0.03" width="19" height="11"/>
<linearGradient id="_2" gradientUnits="userSpaceOnUse" x1="14.5" y1="5" x2="14.5" y2="-83.5">
<stop stop-color="#D9F4E0" offset="0"/>
<stop stop-color="#FFFFFF" offset="1"/>
</linearGradient>
<rect x="5.5" y="-0.5" fill="url(#_2)" width="18" height="10"/>
</svg>