<?xml version="1.0" encoding="UTF-8"?>
<!DOCTYPE svg PUBLIC "-//W3C//DTD SVG 1.1 Tiny//EN" "http://www.w3.org/Graphics/SVG/1.1/DTD/svg11-tiny.dtd">
<svg width="24" height="24" viewBox="-1 0 24 24">
<g fill-opacity="0.7" stroke-opacity="0.7">
<path fill="#656B6B" fill-opacity="0.01" d="M2,0v6c0,4.963,4.037,9,9,9h12V0H2z"/>
<path fill="#656B6B" fill-opacity="0.03" d="M3,0v6c0,4.412,3.589,8,8,8h12V0H3z"/>
<path fill="#656B6B" fill-opacity="0.05" d="M4,0v6c0,3.859,3.141,7,7,7h12V0H4z"/>
<path fill="#656B6B" fill-opacity="0.07" d="M5,0v6c0,3.309,2.691,6,6,6h12V0H5z"/>
<path fill="#656B6B" fill-opacity="0.11" d="M6,0v6c0,2.762,2.238,5,5,5h12V0H6z"/>
<rect x="5" fill="#FFFFFF" width="18" height="10"/>
</g>
</svg>