<?xml version="1.0" encoding="UTF-8"?>
<!DOCTYPE svg PUBLIC "-//W3C//DTD SVG 1.1 Tiny//EN" "http://www.w3.org/Graphics/SVG/1.1/DTD/svg11-tiny.dtd">
<svg width="24" height="24" viewBox="-1 0 24 24">
<g fill-opacity="0.7" stroke-opacity="0.7">
<path fill="#656B6B" fill-opacity="0.01" d="M-1,15H9c4.963,0,9-4.037,9-9V0H-1V15z"/>
<path fill="#656B6B" fill-opacity="0.03" d="M-1,14H9c4.411,0,8-3.588,8-8V0H-1V14z"/>
<path fill="#656B6B" fill-opacity="0.05" d="M-1,13H9c3.859,0,7-3.141,7-7V0H-1V13z"/>
<path fill="#656B6B" fill-opacity="0.07" d="M-1,12H9c3.309,0,6-2.691,6-6V0H-1V12z"/>
<path fill="#656B6B" fill-opacity="0.11" d="M-1,11H9c2.762,0,5-2.238,5-5V0H-1V11z"/>
<rect x="-1" fill="#FFFFFF" width="14" height="10"/>
</g>
</svg>