<?xml version="1.0" encoding="UTF-8"?>
<!DOCTYPE svg PUBLIC "-//W3C//DTD SVG 1.1 Tiny//EN" "http://www.w3.org/Graphics/SVG/1.1/DTD/svg11-tiny.dtd">
<svg width="34" height="86" viewBox="-0.641 0.065 34 86">
<path fill-opacity="0.03" fill="#DEE9F3" d="M10.066,4.814c-3.329,0-6.303,1.988-7.578,5.065c-1.275,3.08-0.573,6.59,1.79,8.943 l2.016,2.015c1.546,1.548,3.604,2.401,5.796,2.401c0,0,1.079,0,2.025,0c0,1.676,0,6.988,0,8.663c-0.951,0-2.041,0-2.041,0 c-2.19,0-4.25,0.854-5.799,2.402l-1.01,1.009c0,0-0.561,0.764-0.864,1.178c-2.634,1.453-4.282,4.115-4.282,7.094V67.53 c0,1.842,0.715,3.639,1.979,5.125c0.051,0.258,0.12,0.604,0.12,0.604c0.001,0.006,0.062,0.238,0.062,0.238l0.13,0.432 c0.003,0.01,0.081,0.229,0.081,0.229c1.272,3.07,4.246,5.059,7.575,5.059h12.489c3.328,0,6.302-1.986,7.575-5.063 c1.276-3.078,0.576-6.588-1.782-8.941l-2.018-2.02c-1.551-1.549-3.611-2.402-5.799-2.402c0,0-1.054,0-1.986,0 c0-1.77,0-8.691,0-10.462c1.113,0,2.563,0,2.563,0c2.185,0,4.242-0.852,5.791-2.397l1.021-1.021 c0.539-0.54,0.988-1.267,1.388-2.158c2.043-1.573,3.234-3.846,3.234-6.328V16.397c0-1.886-0.743-3.712-2.057-5.209 c-0.039-0.197-0.081-0.41-0.081-0.41c0.003,0.014-0.059-0.233-0.059-0.233l-0.138-0.452l-0.083-0.229 c-1.271-3.063-4.243-5.049-7.569-5.049H10.066z"/>
<path fill-opacity="0.05" fill="#DEE9F3" d="M10.066,6.015c-2.842,0-5.381,1.697-6.469,4.324c-1.09,2.629-0.49,5.626,1.527,7.635 l2.018,2.016c1.319,1.321,3.076,2.05,4.947,2.05c0,0,1.951,0,3.226,0c0,1.796,0,9.267,0,11.063c-1.278,0-3.241,0-3.241,0 c-1.87,0-3.628,0.729-4.95,2.051l-1.011,1.009c-0.311,0.312-0.59,0.713-0.865,1.192c-2.382,1.177-3.929,3.548-3.929,6.23V67.53 c0,1.705,0.688,3.32,1.901,4.621c0.066,0.332,0.174,0.871,0.174,0.871c0.008,0.039,0.021,0.09,0.033,0.127l0.13,0.432 c0.012,0.037,0.024,0.076,0.04,0.111c1.088,2.627,3.626,4.324,6.468,4.324h12.489c2.842,0,5.379-1.697,6.467-4.322 c1.089-2.629,0.492-5.625-1.521-7.633l-2.019-2.02c-1.324-1.323-3.082-2.052-4.95-2.052c0,0-1.92,0-3.187,0 c0-1.863,0-10.999,0-12.862c1.38,0,3.763,0,3.763,0c1.865,0,3.621-0.727,4.943-2.047l1.02-1.02c0.514-0.516,0.92-1.207,1.267-2.043 c1.87-1.32,3.004-3.363,3.004-5.595V16.397c0-1.746-0.716-3.388-1.978-4.697c-0.059-0.295-0.137-0.688-0.137-0.688 c-0.008-0.039-0.021-0.09-0.033-0.129l-0.135-0.441c-0.011-0.037-0.023-0.074-0.039-0.109c-1.088-2.623-3.625-4.318-6.465-4.318 H10.066z"/>
<path fill-opacity="0.07" fill="#DEE9F3" d="M10.066,7.215c-2.355,0-4.459,1.406-5.359,3.583c-0.902,2.178-0.407,4.66,1.265,6.325 L7.99,19.14c1.094,1.096,2.55,1.699,4.1,1.699c0,0,2.94,0,4.426,0c0,1.883,0,11.581,0,13.464c-1.487,0-4.441,0-4.441,0 c-1.549,0-3.006,0.604-4.102,1.699l-1.011,1.009c-0.324,0.324-0.589,0.738-0.835,1.207c-0.009,0.004-0.018,0.005-0.025,0.008 c-2.176,0.902-3.582,3.006-3.582,5.359V67.53c0,1.545,0.674,2.994,1.818,4.086c0.041,0.209,0.233,1.172,0.233,1.172 c0-0.002,0.136,0.445,0.136,0.445c0.9,2.176,3.004,3.582,5.358,3.582h12.489c2.354,0,4.457-1.404,5.357-3.58 c0.902-2.178,0.408-4.66-1.26-6.324l-2.02-2.021c-1.098-1.096-2.554-1.699-4.102-1.699c0,0-2.907,0-4.387,0 c0-1.933,0-13.33,0-15.263c1.557,0,4.963,0,4.963,0c1.545,0,3-0.603,4.097-1.696l1.018-1.018c0.497-0.499,0.858-1.162,1.146-1.943 c1.703-1.059,2.773-2.849,2.773-4.847V16.397c0-1.582-0.701-3.056-1.893-4.153c-0.075-0.378-0.198-0.997-0.198-0.997l-0.139-0.455 c-0.9-2.172-3.003-3.577-5.356-3.577H10.066z"/>
<path fill-opacity="0.09" fill="#DEE9F3" d="M10.066,8.415c-1.867,0-3.536,1.115-4.251,2.842c-0.716,1.727-0.322,3.697,1.003,5.016 l2.02,2.02c0.868,0.868,2.023,1.347,3.252,1.347c0,0,3.996,0,5.626,0c0,1.978,0,14.358,0,15.864c-1.683,0-5.642,0-5.642,0 c-1.229,0-2.384,0.479-3.253,1.348l-1.011,1.01c-0.377,0.376-0.645,0.854-0.865,1.387c-0.184,0.041-0.385,0.088-0.385,0.088 c-1.726,0.715-2.841,2.384-2.841,4.25V67.53c0,1.389,0.665,2.658,1.741,3.521c-0.002,0.016-0.005,0.035-0.005,0.045 c0,0.045,0.013,0.059,0.031,0.15l0.261,1.305c0.016,0.078,0.038,0.152,0.068,0.225c0.713,1.725,2.381,2.84,4.249,2.84h12.489 c1.867,0,3.535-1.115,4.249-2.84c0.716-1.727,0.323-3.695-0.999-5.016l-2.021-2.021c-0.87-0.869-2.024-1.348-3.253-1.348 c0,0-3.947,0-5.587,0c0-1.869,0-15.789,0-17.664c1.694,0,6.163,0,6.163,0c1.226,0,2.38-0.479,3.25-1.346l1.016-1.016 c0.498-0.5,0.808-1.15,1.021-1.869c1.543-0.78,2.546-2.324,2.546-4.073V16.397c0-1.416-0.688-2.702-1.798-3.564 c-0.005-0.018-0.27-1.353-0.27-1.353c-0.016-0.077-0.039-0.152-0.068-0.225c-0.716-1.726-2.385-2.841-4.25-2.841H10.066z"/>
<path fill-opacity="0.11" fill="#DEE9F3" d="M10.066,9.615c-1.381,0-2.613,0.824-3.143,2.101s-0.238,2.732,0.741,3.707l2.021,2.02 c0.642,0.643,1.495,0.996,2.403,0.996c0,0,4.73,0,6.826,0c0,0.033,0,17.962,0,17.962c0,0.104,0.049,0.2,0.059,0.303 c-2.228,0-6.9,0-6.9,0c-0.908,0-1.762,0.354-2.404,0.996L8.658,38.71c-0.438,0.437-0.684,0.99-0.833,1.575 c-0.272,0.036-0.55,0.053-0.806,0.158c-1.275,0.529-2.1,1.763-2.1,3.142V67.53c0,1.273,0.722,2.395,1.832,2.98 c-0.029,0.168-0.088,0.334-0.088,0.502l0.261,1.305c0.527,1.273,1.761,2.098,3.141,2.098h12.489c1.379,0,2.612-0.824,3.141-2.098 c0.529-1.277,0.239-2.732-0.738-3.707l-2.021-2.023c-0.643-0.643-1.496-0.996-2.404-0.996c0,0-4.673,0-6.802,0 c0.001-0.029,0.015-0.057,0.015-0.084V45.608c0-0.027-0.014-0.054-0.014-0.081c2.201,0,7.377,0,7.377,0 c0.906,0,1.76-0.354,2.402-0.995l1.014-1.015c0.52-0.521,0.789-1.196,0.896-1.91c0.069-0.022,0.152-0.014,0.221-0.042 c1.275-0.529,2.1-1.762,2.1-3.142V16.397c0-1.279-0.729-2.408-1.848-2.99c0.018-0.13,0.063-0.26,0.063-0.39l-0.26-1.302 c-0.529-1.277-1.762-2.101-3.141-2.101H10.066z"/>
<path fill-opacity="0.13" fill="#DEE9F3" d="M10.066,10.815c-0.894,0-1.691,0.533-2.033,1.359C7.691,13,7.879,13.942,8.512,14.573 l2.023,2.021c0.414,0.414,0.967,0.644,1.555,0.644c0,0,8.383,0,8.422,0c-0.233,0.354-0.396,0.749-0.396,1.184V36.4 c0,0.565,0.223,1.093,0.609,1.503c-0.699,0-8.651,0-8.651,0c-0.588,0-1.141,0.229-1.557,0.645l-1.012,1.011 c-0.414,0.414-0.644,0.966-0.645,1.554c0,0.136,0.054,0.262,0.078,0.394c-0.473-0.141-0.982-0.151-1.461,0.046v0.001 c-0.825,0.342-1.358,1.14-1.358,2.032V67.53c0,0.893,0.533,1.689,1.358,2.031c0.275,0.115,0.564,0.168,0.852,0.168 c-0.282,0.381-0.466,0.818-0.466,1.283c0,0.283,0.056,0.57,0.169,0.844c0.342,0.824,1.139,1.359,2.032,1.359h12.489 c0.893,0,1.69-0.533,2.032-1.359c0.343-0.826,0.154-1.768-0.478-2.398l-2.022-2.021c-0.415-0.416-0.968-0.645-1.556-0.645H12.09 c-0.004,0-0.007,0.002-0.011,0.002c0.279-0.377,0.465-0.811,0.465-1.287V45.608c0-0.475-0.185-0.906-0.461-1.281 c0.018,0,9.024,0,9.024,0c0.586,0,1.139-0.229,1.555-0.645l1.013-1.014c0.428-0.429,0.642-0.992,0.642-1.555 c0-0.174-0.059-0.343-0.1-0.514c0.324,0.019,0.65-0.014,0.965-0.145c0.825-0.342,1.358-1.139,1.358-2.032V16.397 c0-0.893-0.533-1.689-1.358-2.031c-0.268-0.111-0.547-0.163-0.824-0.166c0.236-0.359,0.398-0.758,0.398-1.183 c0-0.284-0.056-0.569-0.169-0.844c-0.343-0.825-1.14-1.358-2.032-1.358H10.066z"/>
<linearGradient id="_2" gradientUnits="userSpaceOnUse" x1="16.33" y1="4.33" x2="16.33" y2="66.34">
<stop stop-color="#87A8CB" offset="0"/>
<stop stop-color="#235487" offset="1"/>
</linearGradient>
<path fill="url(#_2)" d="M11.344,65.921L7.32,69.944V41.171l4.023,4.023V65.921z M11.676,16.038L7.65,12.016h17.318 l-4.023,4.022H11.676z M20.945,67.991l4.023,4.023H7.65l4.025-4.023H20.945z M11.66,43.127l-2.014-2.013l2.014-2.011h9.861 l2.01,2.011l-2.01,2.013H11.66z M21.316,18.008l4.023-4.024v26.854l-4.023-4.023V18.008z"/>
</svg>