<?xml version="1.0" encoding="UTF-8"?>
<!DOCTYPE svg PUBLIC "-//W3C//DTD SVG 1.1 Tiny//EN" "http://www.w3.org/Graphics/SVG/1.1/DTD/svg11-tiny.dtd">
<svg width="24" height="24" viewBox="-0.5 -0.5 24 24">
<path fill="#656B6B" fill-opacity="0.01" d="M21.5,23.5v-2c0-6.617-5.383-12-12-12h-10v14H21.5z"/>
<path fill="#656B6B" fill-opacity="0.03" d="M20.5,23.5v-2c0-6.064-4.936-11-11-11h-10v13H20.5z"/>
<path fill="#656B6B" fill-opacity="0.04" d="M19.5,23.5v-2c0-5.514-4.486-10-10-10h-10v12H19.5z"/>
<path fill="#656B6B" fill-opacity="0.09" d="M18.5,23.5v-2c0-4.963-4.037-9-9-9h-10v11H18.5z"/>
<path fill="#656B6B" fill-opacity="0.08" d="M17.5,23.5v-2c0-4.411-3.589-8-8-8h-10v10H17.5z"/>
<path fill="#656B6B" fill-opacity="0.1" d="M16.5,23.5v-2c0-3.859-3.141-7-7-7h-10v9H16.5z"/>
<path fill="#656B6B" fill-opacity="0.11" d="M15.5,23.5v-2c0-3.309-2.691-6-6-6h-10v8H15.5z"/>
<path fill="#656B6B" fill-opacity="0.1" d="M14.5,23.5v-2c0-2.762-2.238-5-5-5h-10v7H14.5z"/>
<polygon fill="#656B6B" fill-opacity="0.03" points="14.5,23.5 14.5,12.5 13.5,12.5 -0.5,12.5 -0.5,23.5 "/>
<linearGradient id="_2" gradientUnits="userSpaceOnUse" x1="6.5" y1="107" x2="6.5" y2="18.5">
<stop stop-color="#D9F4E0" offset="0"/>
<stop stop-color="#FFFFFF" offset="1"/>
</linearGradient>
<rect x="-0.5" y="13.5" fill="url(#_2)" width="14" height="10"/>
</svg>