<?xml version="1.0" encoding="UTF-8" standalone="no"?>
<!DOCTYPE svg PUBLIC "-//W3C//DTD SVG 1.1 Tiny//EN" "http://www.w3.org/Graphics/SVG/1.1/DTD/svg11-tiny.dtd">
<svg xmlns="http://www.w3.org/2000/svg" xmlns:xlink="http://www.w3.org/1999/xlink" width="5" height="5" viewBox="0 0 5 5">
<rect fill="none" height="5" width="5"/>
<linearGradient id="_3" gradientUnits="userSpaceOnUse" x1="2.25" y1="41.14" x2="2.25" y2="-0.1">
<stop stop-color="#373D41" offset="0"/>
<stop stop-color="#8C959F" offset="0.69"/>
</linearGradient>
<path d="M2.5,0H0v0.5h2.5C3.328,0.5,4,1.173,4,2v3h0.5V2C4.5,0.895,3.605,0,2.5,0z" fill="url(#_3)" fill-opacity="0.8" />
<path d="M2.5,0.5H0V1h2.5c0.553,0,1,0.449,1,1v3H4V2C4,1.173,3.328,0.5,2.5,0.5z" fill="#FFFFFF" fill-opacity="0.7" />
<linearGradient id="_4" gradientUnits="userSpaceOnUse" x1="1.75" y1="0.9" x2="1.75" y2="40.4">
<stop stop-color="#B5B9BE" offset="0"/>
<stop stop-color="#EFF0F3" offset="1"/>
</linearGradient>
<path d="M3.5,5V2c0-0.551-0.447-1-1-1H0v4H3.5z" fill="url(#_4)" fill-opacity="0.7" />
<path d="M4.141,0.86C4.367,1.184,4.5,1.576,4.5,2v3H5V2.5C5,1.82,4.66,1.223,4.141,0.86z" fill-opacity="0.4" />
</svg>