<?xml version="1.0" encoding="UTF-8"?>
<!DOCTYPE svg PUBLIC "-//W3C//DTD SVG 1.1 Tiny//EN" "http://www.w3.org/Graphics/SVG/1.1/DTD/svg11-tiny.dtd">
<svg width="34" height="86" viewBox="-0.685 0.065 34 86">
<path fill-opacity="0.03" fill="#DEE9F3" d="M10.026,4.87c-3.328,0-6.301,1.987-7.575,5.062c-1.271,3.072-0.577,6.576,1.77,8.93 l2.03,2.031c1.551,1.549,3.61,2.402,5.799,2.402c0,0,1.079,0,2.025,0c0,1.668,0,6.875,0,8.543c-1.043,0-2.32,0-2.32,0 c-2.189,0-4.248,0.854-5.798,2.402l-1.011,1.011c-1.551,1.546-2.404,3.605-2.404,5.799c0,2.189,0.854,4.248,2.402,5.799 l1.012,1.012c1.551,1.551,3.61,2.403,5.799,2.403c0,0,1.277,0,2.32,0c0,1.773,0,8.769,0,10.542c-0.946,0-2.025,0-2.025,0 c-2.189,0-4.249,0.854-5.799,2.403l-2.023,2.023c-1.551,1.554-2.404,3.61-2.404,5.794c0,1.083,0.212,2.142,0.629,3.146 c1.275,3.074,4.248,5.061,7.574,5.061h12.49c3.328,0,6.301-1.987,7.575-5.063c-0.001,0.002,0.077-0.215,0.077-0.215l0.136-0.445 l0,0c0-0.002,0.059-0.229,0.059-0.229s0.058-0.291,0.104-0.523c1.299-1.495,2.033-3.314,2.033-5.188V43.61 c0-0.803-0.236-1.68-0.627-2.625c0.391-0.947,0.627-1.824,0.627-2.626V16.466c0-1.884-0.741-3.708-2.051-5.206 c-0.041-0.203-0.085-0.426-0.085-0.426c-0.001-0.007-0.063-0.246-0.063-0.246l-0.134-0.438c-0.003-0.013-0.08-0.227-0.08-0.227 c-1.272-3.068-4.246-5.054-7.572-5.054H10.026z"/>
<path fill-opacity="0.05" fill="#DEE9F3" d="M10.026,6.07c-2.841,0-5.379,1.696-6.467,4.321c-1.084,2.621-0.492,5.613,1.512,7.623 L7.1,20.044c1.323,1.322,3.081,2.051,4.95,2.051c0,0,1.951,0,3.226,0c0,1.791,0,9.152,0,10.943c-1.335,0-3.521,0-3.521,0 c-1.869,0-3.627,0.729-4.949,2.051L5.794,36.1c-1.322,1.319-2.052,3.077-2.052,4.95c0,1.87,0.729,3.627,2.051,4.95l1.013,1.013 c1.322,1.322,3.081,2.051,4.949,2.051c0,0,2.186,0,3.521,0c0,1.866,0,11.076,0,12.942c-1.274,0-3.226,0-3.226,0 c-1.869,0-3.627,0.729-4.949,2.052l-2.024,2.023c-1.323,1.326-2.052,3.082-2.052,4.945c0,0.924,0.18,1.828,0.536,2.686 c1.088,2.623,3.626,4.32,6.466,4.32h12.49c2.842,0,5.379-1.697,6.467-4.322c0.014-0.035,0.031-0.086,0.043-0.121l0.131-0.43 c0.012-0.037,0.021-0.076,0.029-0.115c0,0,0.095-0.477,0.158-0.797c1.248-1.309,1.956-2.943,1.956-4.68V43.61 c0-0.836-0.269-1.709-0.703-2.625c0.435-0.918,0.703-1.791,0.703-2.626V16.466c0-1.744-0.714-3.385-1.972-4.694 c-0.061-0.298-0.141-0.703-0.141-0.703c-0.008-0.038-0.021-0.09-0.033-0.128l-0.134-0.441c-0.012-0.037-0.024-0.075-0.04-0.111 c-1.088-2.623-3.625-4.317-6.465-4.317H10.026z"/>
<path fill-opacity="0.07" fill="#DEE9F3" d="M10.026,7.271c-2.354,0-4.457,1.405-5.357,3.58c-0.899,2.173-0.407,4.652,1.252,6.317 l2.027,2.027c1.097,1.096,2.553,1.699,4.102,1.699c0,0,2.94,0,4.426,0c0,1.879,0,11.465,0,13.344c-1.525,0-4.721,0-4.721,0 c-1.549,0-3.006,0.604-4.102,1.699l-1.01,1.011c-1.097,1.093-1.701,2.551-1.701,4.102c0,1.549,0.604,3.006,1.699,4.102l1.012,1.012 c1.098,1.097,2.554,1.7,4.102,1.7c0,0,3.195,0,4.721,0c0,1.935,0,13.408,0,15.343c-1.485,0-4.426,0-4.426,0 c-1.549,0-3.006,0.604-4.102,1.699l-2.023,2.023c-1.097,1.1-1.701,2.555-1.701,4.098c0,0.766,0.15,1.516,0.445,2.227 c0.901,2.174,3.004,3.578,5.357,3.578h12.49c2.354,0,4.457-1.404,5.357-3.58l0.136-0.443c0,0,0.162-0.811,0.22-1.104 c1.178-1.096,1.871-2.563,1.871-4.137V43.61c0-0.883-0.318-1.76-0.805-2.625c0.486-0.867,0.805-1.744,0.805-2.626V16.466 c0-1.58-0.699-3.053-1.887-4.15c-0.076-0.377-0.202-1.013-0.202-1.013l-0.139-0.455c-0.9-2.171-3.003-3.577-5.356-3.577H10.026z"/>
<path fill-opacity="0.09" fill="#DEE9F3" d="M10.026,8.471c-1.866,0-3.534,1.114-4.248,2.839c-0.714,1.724-0.324,3.689,0.992,5.012 l2.026,2.025c0.87,0.869,2.024,1.348,3.253,1.348c0,0,3.996,0,5.626,0c0,1.975,0,14.24,0,15.744c-1.712,0-5.921,0-5.921,0 c-1.229,0-2.383,0.479-3.252,1.348l-1.012,1.011c-0.869,0.866-1.349,2.022-1.349,3.253c0,1.229,0.479,2.384,1.348,3.253 l1.013,1.013c0.869,0.869,2.024,1.348,3.252,1.348c0,0,4.233,0,5.921,0c0,1.739,0,15.832,0,17.744c-1.64,0-5.626,0-5.626,0 c-1.229,0-2.383,0.479-3.252,1.348l-2.024,2.023c-0.87,0.871-1.349,2.025-1.349,3.248c0,0.607,0.119,1.203,0.353,1.766 c0.715,1.725,2.383,2.84,4.249,2.84h12.49c1.867,0,3.535-1.115,4.249-2.84c0.03-0.072,0.053-0.148,0.068-0.225l0.261-1.305 c0.018-0.088,0.029-0.104,0.029-0.145c1.098-0.861,1.776-2.141,1.776-3.551V43.61c0-0.979-0.397-1.853-0.954-2.625 c0.557-0.773,0.954-1.648,0.954-2.626V16.466c0-1.415-0.687-2.699-1.793-3.562c-0.005-0.02-0.272-1.368-0.272-1.368 c-0.016-0.076-0.039-0.152-0.068-0.225c-0.716-1.726-2.385-2.841-4.25-2.841H10.026z"/>
<path fill-opacity="0.11" fill="#DEE9F3" d="M10.026,9.671c-1.379,0-2.611,0.824-3.141,2.099c-0.527,1.274-0.238,2.728,0.735,3.704 l2.024,2.024c0.643,0.642,1.496,0.996,2.404,0.996c0,0,4.724,0,6.826,0c0,0.009,0,17.842,0,17.842c0,0.104,0.049,0.2,0.059,0.303 c-2.263,0-7.18,0-7.18,0c-0.908,0-1.762,0.354-2.404,0.996L8.34,38.646c-0.642,0.641-0.997,1.494-0.997,2.404 c0,0.908,0.354,1.762,0.996,2.404l1.012,1.013c0.643,0.642,1.496,0.996,2.404,0.996c0,0,4.941,0,7.152,0 c-0.004,0.058-0.031,0.112-0.031,0.171v19.91c0,0.021,0.01,0.041,0.011,0.063c-2.106,0-6.837,0-6.837,0 c-0.908,0-1.762,0.354-2.404,0.996l-2.023,2.023c-0.652,0.652-0.998,1.518-0.998,2.4c0,0.439,0.086,0.883,0.262,1.307 c0.528,1.273,1.761,2.098,3.141,2.098h12.49c1.379,0,2.612-0.824,3.141-2.098l0.261-1.305c0-0.154-0.056-0.309-0.08-0.463 c1.13-0.58,1.862-1.713,1.862-2.998V43.61c0-1.037-0.467-1.991-1.24-2.625c0.773-0.635,1.24-1.589,1.24-2.626V16.466 c0-1.28-0.729-2.409-1.848-2.99c0.018-0.135,0.064-0.268,0.064-0.402l-0.26-1.303c-0.529-1.275-1.762-2.1-3.141-2.1H10.026z"/>
<path fill-opacity="0.13" fill="#DEE9F3" d="M10.026,10.871c-0.893,0-1.689,0.533-2.031,1.358c-0.342,0.824-0.154,1.765,0.476,2.396 l2.023,2.023c0.415,0.416,0.968,0.645,1.556,0.645c0,0,8.402,0,8.43,0c-0.238,0.357-0.403,0.756-0.403,1.195v17.847 c0,0.565,0.223,1.093,0.609,1.503c-0.2,0-8.931,0-8.931,0c-0.588,0-1.141,0.229-1.556,0.645l-1.011,1.011 c-0.416,0.415-0.646,0.968-0.646,1.556s0.229,1.141,0.645,1.557l1.013,1.012c0.415,0.416,0.968,0.645,1.555,0.645 c0,0,8.478,0,8.842,0c-0.318,0.391-0.521,0.859-0.521,1.371v19.91c0,0.471,0.183,0.896,0.453,1.27 c-0.013,0-0.023-0.006-0.036-0.006H12.05c-0.588,0-1.141,0.229-1.556,0.645l-2.023,2.023c-0.632,0.631-0.819,1.572-0.477,2.396 c0.342,0.826,1.14,1.359,2.032,1.359h12.49c0.893,0,1.69-0.533,2.032-1.359c0.114-0.273,0.169-0.561,0.169-0.844 c0-0.459-0.18-0.889-0.454-1.266c0.295,0.004,0.593-0.045,0.878-0.162c0.825-0.342,1.358-1.141,1.358-2.033V43.61 c0-0.893-0.533-1.69-1.358-2.032c-0.4-0.166-0.82-0.167-1.228-0.093C23.944,41.34,24,41.202,24,41.05 c0-0.199-0.062-0.383-0.113-0.57c0.415,0.08,0.845,0.082,1.255-0.088c0.825-0.342,1.358-1.139,1.358-2.032V16.466 c0-0.894-0.533-1.691-1.358-2.033c-0.27-0.111-0.551-0.164-0.83-0.166c0.241-0.361,0.406-0.764,0.406-1.193 c0-0.283-0.056-0.57-0.169-0.844c-0.343-0.825-1.14-1.358-2.032-1.358H10.026z M22.743,42.055L22.743,42.055L22.743,42.055z"/>
<linearGradient id="_2" gradientUnits="userSpaceOnUse" x1="16.46" y1="4.33" x2="16.46" y2="66.34">
<stop stop-color="#87A8CB" offset="0"/>
<stop stop-color="#235487" offset="1"/>
</linearGradient>
<path fill="url(#_2)" d="M11.636,16.094l-4.023-4.022h17.318l-4.023,4.022H11.636z M20.907,68.007l4.023,4.023H7.612 l4.023-4.023H20.907z M11.341,43.063L9.329,41.05l2.012-2.011h9.861l2.012,2.011l-2.012,2.013H11.341z M21.276,18.075l4.023-4.024 v26.723l-4.023-4.023V18.075z M21.276,45.22l4.023-4.023v28.785l-4.023-4.023V45.22z"/>
</svg>