<?xml version="1.0" encoding="UTF-8"?>
<!DOCTYPE svg PUBLIC "-//W3C//DTD SVG 1.1 Tiny//EN" "http://www.w3.org/Graphics/SVG/1.1/DTD/svg11-tiny.dtd">
<svg width="34" height="86" viewBox="-0.015 0.065 34 86">
<path fill-opacity="0.03" fill="#DEE9F3" d="M10.782,4.872c-3.328,0-6.303,1.988-7.577,5.064l-0.083,0.236L2.989,10.61l-0.055,0.219 c-0.001,0.004-0.053,0.264-0.096,0.479c-1.305,1.496-2.043,3.318-2.043,5.197v21.846c0,2.682,1.383,5.127,3.669,6.666 c0.377,0.752,0.778,1.367,1.231,1.822l1.014,1.014c1.552,1.549,3.611,2.402,5.799,2.402c0,0,1.252,0,2.283,0 c0,1.774,0,8.787,0,10.563c-0.933,0-1.985-0.001-1.985-0.001c-2.19,0-4.249,0.854-5.799,2.403l-2.024,2.021 c-2.354,2.354-3.051,5.861-1.779,8.938c1.274,3.076,4.248,5.064,7.577,5.064h12.489c3.328,0,6.302-1.988,7.575-5.063 c-0.001,0.002,0.08-0.227,0.08-0.227l0.132-0.434c0.001-0.002,0.06-0.232,0.06-0.232s0.067-0.34,0.118-0.594 c1.266-1.486,1.982-3.285,1.982-5.129V43.611c0-2.702-1.396-5.157-3.705-6.693c-0.367-0.694-0.748-1.265-1.17-1.685l-1.005-1.004 c-1.546-1.547-3.604-2.4-5.796-2.4c0,0-1.277,0-2.32,0c0-1.668,0-6.865,0-8.533c0.946,0,2.025,0,2.025,0 c2.188,0,4.248-0.854,5.797-2.402l2.021-2.021c1.552-1.551,2.406-3.609,2.406-5.795c0-1.08-0.211-2.137-0.625-3.139 c-1.274-3.078-4.248-5.066-7.577-5.066H10.782z"/>
<path fill-opacity="0.05" fill="#DEE9F3" d="M10.782,6.072c-2.842,0-5.381,1.697-6.469,4.323c-0.015,0.037-0.029,0.079-0.041,0.117 l-0.135,0.445c-0.011,0.037-0.02,0.074-0.027,0.112c0,0-0.088,0.438-0.149,0.748c-1.253,1.309-1.965,2.946-1.965,4.687v21.846 c0,2.426,1.315,4.619,3.409,5.891c0.332,0.715,0.701,1.31,1.141,1.749l1.014,1.014c1.323,1.322,3.081,2.051,4.949,2.051 c0,0,2.156,0,3.483,0c0,1.866,0,11.096,0,12.963c-1.267-0.001-3.187-0.001-3.187-0.001c-1.869,0-3.627,0.729-4.949,2.051 l-2.023,2.023c-2.01,2.008-2.605,5.004-1.52,7.629c1.088,2.625,3.626,4.322,6.468,4.322h12.489c2.842,0,5.379-1.695,6.467-4.32 c0.014-0.035,0.031-0.086,0.043-0.123l0.131-0.428c0.012-0.039,0.021-0.078,0.029-0.117c0,0,0.106-0.533,0.172-0.863 c1.215-1.303,1.905-2.92,1.905-4.625V43.611c0-2.44-1.325-4.642-3.437-5.91c-0.326-0.661-0.678-1.212-1.086-1.617l-1.006-1.005 c-1.319-1.321-3.076-2.05-4.947-2.05c0,0-2.186,0-3.521,0c0-1.79,0-9.144,0-10.934c1.274,0,3.226,0,3.226,0 c1.869,0,3.626-0.729,4.949-2.051l2.021-2.021c1.324-1.324,2.054-3.082,2.054-4.947c0-0.922-0.18-1.824-0.534-2.681 c-1.088-2.627-3.626-4.324-6.468-4.324H10.782z"/>
<path fill-opacity="0.07" fill="#DEE9F3" d="M10.782,7.272c-2.354,0-4.458,1.406-5.359,3.582l-0.137,0.451c0,0-0.126,0.633-0.21,1.056 c-1.183,1.097-1.88,2.567-1.88,4.144v21.846c0,2.182,1.239,4.104,3.146,5.098c0.283,0.679,0.617,1.26,1.052,1.693l1.013,1.014 c1.098,1.096,2.554,1.699,4.102,1.699c0,0,3.163,0,4.684,0c0,1.936,0,13.428,0,15.363c-1.479,0-4.387,0-4.387,0 c-1.549,0-3.006,0.604-4.102,1.699l-2.023,2.021c-1.664,1.666-2.158,4.146-1.258,6.322s3.004,3.582,5.358,3.582h12.489 c2.354,0,4.457-1.406,5.357-3.58l0.136-0.445c0,0,0.187-0.934,0.232-1.162c1.146-1.094,1.821-2.545,1.821-4.09V43.611 c0-2.188-1.246-4.118-3.166-5.108c-0.279-0.629-0.601-1.168-1.003-1.568l-1.007-1.006c-1.094-1.096-2.55-1.699-4.1-1.699 c0,0-3.195,0-4.721,0c0-1.879,0-11.455,0-13.334c1.485,0,4.426,0,4.426,0c1.549,0,3.004-0.604,4.101-1.699l2.022-2.021 c1.097-1.097,1.701-2.553,1.701-4.098c0-0.765-0.149-1.512-0.443-2.223c-0.9-2.176-3.004-3.582-5.358-3.582H10.782z"/>
<path fill-opacity="0.09" fill="#DEE9F3" d="M10.782,8.473c-1.867,0-3.535,1.115-4.25,2.841c-0.03,0.072-0.053,0.148-0.068,0.225 c0,0-0.277,1.384-0.281,1.41c-1.104,0.863-1.786,2.145-1.786,3.557v21.846c0,1.867,1.114,3.535,2.839,4.249 c0,0,0.037,0.009,0.042,0.011c0.22,0.645,0.515,1.23,0.966,1.684l1.014,1.013c0.869,0.869,2.024,1.348,3.252,1.348 c0,0,4.198,0,5.884,0c0,1.726,0,15.871,0,17.765c-1.638,0-5.587-0.002-5.587-0.002c-1.229,0-2.383,0.479-3.252,1.348l-2.024,2.023 c-1.32,1.32-1.712,3.287-0.998,5.014c0.714,1.725,2.382,2.84,4.25,2.84h12.489c1.867,0,3.535-1.115,4.249-2.84 c0.03-0.072,0.053-0.146,0.068-0.223l0.261-1.305c0.018-0.092,0.031-0.105,0.031-0.15c0-0.01-0.002-0.025-0.004-0.037 c1.076-0.863,1.741-2.133,1.741-3.521V43.611c0-1.866-1.114-3.534-2.839-4.249c0,0-0.041-0.01-0.048-0.012 c-0.224-0.602-0.509-1.148-0.929-1.566l-1.008-1.008c-0.867-0.867-2.022-1.347-3.252-1.347c0,0-4.209,0-5.921,0 c0-1.507,0-13.808,0-15.734c1.636,0,5.626,0,5.626,0c1.229,0,2.383-0.479,3.252-1.348l2.022-2.021c0.87-0.871,1.35-2.025,1.35-3.25 c0-0.606-0.118-1.199-0.352-1.764c-0.714-1.726-2.382-2.841-4.25-2.841H10.782z"/>
<path fill-opacity="0.11" fill="#DEE9F3" d="M10.782,9.673c-1.38,0-2.613,0.824-3.142,2.1l-0.26,1.303c0,0.146,0.052,0.289,0.073,0.435 c-1.127,0.581-1.857,1.714-1.857,2.995v21.846c0,1.379,0.824,2.612,2.099,3.141c0.158,0.066,0.341,0.061,0.51,0.099 c0.115,0.693,0.381,1.349,0.888,1.856l1.012,1.012c0.643,0.643,1.496,0.996,2.404,0.996c0,0,4.906,0,7.117,0 c-0.004,0.062-0.033,0.119-0.033,0.181v19.907c0,0.025,0.013,0.051,0.014,0.076c-2.133,0-6.801,0-6.801,0 c-0.908,0-1.762,0.354-2.404,0.996l-2.023,2.021c-0.977,0.977-1.266,2.432-0.738,3.707c0.528,1.275,1.762,2.1,3.142,2.1h12.489 c1.379,0,2.612-0.824,3.141-2.1l0.261-1.305c0-0.164-0.058-0.328-0.085-0.492c1.109-0.586,1.83-1.709,1.83-2.98V43.611 c0-1.38-0.824-2.612-2.099-3.141c-0.155-0.064-0.333-0.06-0.497-0.097c-0.131-0.648-0.387-1.262-0.867-1.74l-1.009-1.008 c-0.642-0.643-1.495-0.996-2.403-0.996c0,0-4.917,0-7.18,0c0.01-0.104,0.059-0.198,0.059-0.303V18.529 c0-0.012-0.006-0.022-0.006-0.034c2.108,0,6.832,0,6.832,0c0.908,0,1.762-0.354,2.404-0.996l2.021-2.021 c0.652-0.652,0.998-1.518,0.998-2.4c0-0.439-0.086-0.882-0.26-1.305c-0.528-1.275-1.762-2.1-3.142-2.1H10.782z"/>
<path fill-opacity="0.13" fill="#DEE9F3" d="M10.782,10.873c-0.893,0-1.691,0.534-2.033,1.358c-0.113,0.273-0.168,0.561-0.168,0.844 c0,0.443,0.173,0.861,0.432,1.232c-0.289-0.002-0.58,0.051-0.857,0.165v0.001c-0.825,0.342-1.358,1.139-1.358,2.031v21.846 c0,0.893,0.533,1.69,1.358,2.032c0.41,0.17,0.84,0.169,1.254,0.088c-0.051,0.187-0.112,0.372-0.112,0.571 c0,0.587,0.229,1.14,0.645,1.555l1.013,1.013c0.415,0.415,0.968,0.645,1.555,0.645c0,0,8.392,0,8.813,0 c-0.324,0.393-0.528,0.865-0.528,1.381v19.907c0,0.473,0.183,0.902,0.458,1.277c-0.002,0-8.445-0.002-8.445-0.002 c-0.588,0-1.141,0.229-1.556,0.645l-2.024,2.023c-0.631,0.631-0.818,1.572-0.477,2.398c0.342,0.824,1.139,1.357,2.032,1.357h12.489 c0.893,0,1.69-0.533,2.032-1.357c0.114-0.275,0.169-0.561,0.169-0.846c0-0.459-0.182-0.893-0.458-1.271 c0.284,0,0.57-0.055,0.845-0.168c0.825-0.342,1.358-1.141,1.358-2.033V43.611c0-0.894-0.533-1.69-1.358-2.032 c-0.389-0.161-0.795-0.165-1.191-0.1c0.03-0.146,0.087-0.285,0.087-0.438c0-0.59-0.229-1.143-0.646-1.558l-1.011-1.01 c-0.414-0.415-0.967-0.645-1.555-0.645c0,0-8.73,0-8.931,0c0.387-0.409,0.609-0.937,0.609-1.503V18.529 c0-0.456-0.175-0.872-0.432-1.237c0.006,0,0.011,0.003,0.017,0.003h8.441c0.588,0,1.141-0.229,1.556-0.645l2.022-2.021 c0.631-0.633,0.818-1.573,0.477-2.398c-0.342-0.824-1.139-1.358-2.032-1.358H10.782z M23.46,42.056L23.46,42.056L23.46,42.056z"/>
<linearGradient id="_2" gradientUnits="userSpaceOnUse" x1="17.01" y1="4.33" x2="17.01" y2="66.34">
<stop stop-color="#87A8CB" offset="0"/>
<stop stop-color="#235487" offset="1"/>
</linearGradient>
<path fill="url(#_2)" d="M12.021,36.741l-4.023,4.023V14.091l4.023,4.024V36.741z M12.392,16.095l-4.025-4.021h17.318 l-4.023,4.021H12.392z M21.661,68.019l4.023,4.023H8.366l4.025-4.023H21.661z M12.095,43.054l-2.012-2.013l2.012-2.011h9.861 l2.012,2.011l-2.012,2.013H12.095z M21.993,45.221l4.023-4.023v28.782l-4.023-4.023V45.221z"/>
</svg>