<?xml version="1.0" encoding="UTF-8"?>
<!DOCTYPE svg PUBLIC "-//W3C//DTD SVG 1.1 Tiny//EN" "http://www.w3.org/Graphics/SVG/1.1/DTD/svg11-tiny.dtd">
<svg width="12" height="86" viewBox="-0.491 0.065 12 86">
<path fill-opacity="0.03" fill="#DEE9F3" d="M3.549,62.964c-1.081,0-2.067,0.414-2.848,1.199c-0.779,0.775-1.192,1.762-1.192,2.854 v3.928c0,1.088,0.413,2.074,1.192,2.855c0.781,0.783,1.765,1.195,2.848,1.195h3.92c1.081,0,2.064-0.412,2.844-1.191 c0.783-0.785,1.196-1.773,1.196-2.859v-3.928c0-1.082-0.411-2.068-1.19-2.852c-0.787-0.787-1.772-1.201-2.85-1.201H3.549z"/>
<path fill-opacity="0.05" fill="#DEE9F3" d="M3.549,63.464c-0.946,0-1.81,0.363-2.495,1.053c-0.684,0.68-1.046,1.545-1.046,2.5v3.928 c0,0.951,0.362,1.816,1.046,2.502c0.686,0.688,1.549,1.049,2.495,1.049h3.92c0.946,0,1.808-0.361,2.493-1.047 c0.686-0.688,1.048-1.555,1.048-2.504v-3.928c0-0.947-0.36-1.813-1.044-2.498c-0.691-0.691-1.555-1.055-2.497-1.055H3.549z"/>
<path fill-opacity="0.07" fill="#DEE9F3" d="M3.549,63.964c-0.81,0-1.552,0.313-2.143,0.906c-0.588,0.584-0.9,1.328-0.9,2.146v3.928 c0,0.816,0.312,1.559,0.9,2.148s1.331,0.902,2.143,0.902h3.92c0.811,0,1.551-0.311,2.141-0.9c0.59-0.592,0.902-1.336,0.902-2.15 v-3.928c0-0.813-0.311-1.555-0.898-2.146c-0.594-0.594-1.336-0.906-2.145-0.906H3.549z"/>
<path fill-opacity="0.09" fill="#DEE9F3" d="M3.549,64.464c-0.676,0-1.295,0.262-1.79,0.758c-0.493,0.49-0.754,1.111-0.754,1.795v3.928 c0,0.68,0.261,1.301,0.754,1.795s1.112,0.756,1.79,0.756h3.92c0.676,0,1.295-0.26,1.788-0.754c0.495-0.496,0.756-1.119,0.756-1.797 v-3.928c0-0.678-0.259-1.297-0.752-1.793c-0.499-0.498-1.118-0.76-1.792-0.76H3.549z"/>
<path fill-opacity="0.11" fill="#DEE9F3" d="M3.549,64.964c-0.542,0-1.038,0.213-1.438,0.611c-0.397,0.396-0.608,0.895-0.608,1.441 v3.928c0,0.545,0.21,1.043,0.608,1.441s0.896,0.609,1.438,0.609h3.92c0.541,0,1.038-0.211,1.436-0.607 c0.399-0.402,0.609-0.9,0.609-1.443v-3.928c0-0.541-0.21-1.039-0.607-1.439c-0.401-0.402-0.898-0.613-1.438-0.613H3.549z"/>
<path fill-opacity="0.13" fill="#DEE9F3" d="M3.549,65.464c-0.405,0-0.781,0.162-1.083,0.465c-0.302,0.301-0.463,0.678-0.463,1.088 v3.928c0,0.41,0.16,0.785,0.461,1.088c0.306,0.307,0.672,0.463,1.085,0.463h3.92c0.407,0,0.781-0.16,1.083-0.461 c0.304-0.307,0.464-0.682,0.464-1.09v-3.928c0-0.406-0.16-0.783-0.462-1.086c-0.306-0.307-0.68-0.467-1.085-0.467H3.549z"/>
<linearGradient id="_2" gradientUnits="userSpaceOnUse" x1="5.51" y1="4.33" x2="5.51" y2="66.34">
<stop stop-color="#87A8CB" offset="0"/>
<stop stop-color="#235487" offset="1"/>
</linearGradient>
<path fill="url(#_2)" d="M3.549,71.995c-0.276,0-0.522-0.104-0.732-0.316c-0.21-0.211-0.315-0.457-0.315-0.734v-3.928 c0-0.277,0.105-0.523,0.315-0.734c0.21-0.211,0.456-0.318,0.732-0.318h3.92c0.276,0,0.52,0.107,0.732,0.318 c0.21,0.211,0.315,0.457,0.315,0.734v3.928c0,0.277-0.105,0.523-0.315,0.734c-0.213,0.213-0.456,0.316-0.732,0.316H3.549z"/>
</svg>