<?xml version="1.0" encoding="UTF-8"?>
<!DOCTYPE svg PUBLIC "-//W3C//DTD SVG 1.1 Tiny//EN" "http://www.w3.org/Graphics/SVG/1.1/DTD/svg11-tiny.dtd">
<svg width="44" height="32" viewBox="-1 -1 44 32">
<g fill-opacity="0.7" stroke-opacity="0.7">
<path fill="#656B6B" fill-opacity="0.01" d="M2-1v2.885c0,10.313,7.691,18.869,17.908,19.982c0.016,0.004,0.467,0.008,2.098,0.13 H43V-1H2z"/>
<path fill="#656B6B" fill-opacity="0.03" d="M3-1v2.885c0,9.845,7.374,18.021,17.152,19.016l1.904,0.098H43V-1H3z"/>
<path fill="#656B6B" fill-opacity="0.05" d="M4-1v2.885c0,9.33,6.988,17.078,16.254,18.021c0.005,0,1.854,0.094,1.854,0.094H43V-1 H4z"/>
<path fill="#656B6B" fill-opacity="0.07" d="M5-1v2.885c0,8.859,6.73,16.148,15.355,17.026c0.576,0.056,1.16,0.089,1.75,0.089H43 V-1H5z"/>
<path fill="#656B6B" fill-opacity="0.11" d="M6-1v1.885c0,8.859,6.73,16.148,15.355,17.026c0.576,0.056,1.16,0.089,1.75,0.089H43 V-1H6z"/>
<path fill="#FFFFFF" d="M5-1v0.885C5,9.335,12.659,17,22.105,17H43V-1H5z"/>
</g>
</svg>