<?xml version="1.0" encoding="UTF-8"?>
<!DOCTYPE svg PUBLIC "-//W3C//DTD SVG 1.1 Tiny//EN" "http://www.w3.org/Graphics/SVG/1.1/DTD/svg11-tiny.dtd">
<svg width="34" height="86" viewBox="-0.598 0.065 34 86">
<path fill-opacity="0.03" fill="#DEE9F3" d="M10.113,4.852c-3.332,0-6.307,1.989-7.58,5.069c-1.271,3.072-0.572,6.578,1.781,8.93 l2.023,2.023c1.547,1.549,3.607,2.402,5.797,2.402c0,0,1.088,0,2.037,0c0,2.043,0,14.338,0,14.338c0,1.42,0.457,2.775,1.18,4.02 c-0.717,1.248-1.18,2.62-1.18,3.994v19.967c0,2.156,0.877,4.27,2.404,5.797l2.021,2.023c2.35,2.354,5.857,3.053,8.936,1.779 c3.076-1.279,5.064-4.252,5.064-7.576V43.604c0-0.701-0.188-1.479-0.498-2.328c0.311-0.853,0.498-1.637,0.498-2.346V16.422 c0-1.895-0.748-3.727-2.072-5.228c-0.037-0.187-0.076-0.381-0.076-0.381c-0.006-0.035-0.041-0.053-0.051-0.086 c-0.057-0.236-0.123-0.521-0.123-0.521c-0.014-0.062-0.072-0.229-0.096-0.288V9.918c-1.281-3.081-4.254-5.066-7.578-5.066H10.113z"/>
<path fill-opacity="0.05" fill="#DEE9F3" d="M10.113,6.052c-2.844,0-5.385,1.699-6.471,4.327c-1.086,2.622-0.49,5.615,1.52,7.624 l2.023,2.023c1.322,1.321,3.08,2.05,4.949,2.05c0,0,1.961,0,3.238,0c0,2.067,0,15.538,0,15.538c0,1.456,0.471,2.842,1.309,4.018 c-0.83,1.178-1.309,2.58-1.309,3.996v19.967c0,1.84,0.748,3.645,2.051,4.949l2.023,2.023c2.006,2.008,5,2.605,7.627,1.518 c2.627-1.092,4.324-3.629,4.324-6.467V43.604c0-0.727-0.213-1.503-0.559-2.326c0.346-0.828,0.559-1.61,0.559-2.348V16.422 c0-1.755-0.723-3.401-1.994-4.714c-0.057-0.289-0.131-0.66-0.131-0.66c-0.004-0.014,0.025,0.248,0.023,0.235l-0.189-0.802 c-0.016-0.063-0.016-0.052-0.039-0.111c-1.092-2.623-3.629-4.318-6.467-4.318H10.113z"/>
<path fill-opacity="0.07" fill="#DEE9F3" d="M10.113,7.252c-2.357,0-4.461,1.407-5.361,3.585c-0.9,2.172-0.406,4.652,1.26,6.316 l2.023,2.023c1.094,1.096,2.551,1.699,4.1,1.699c0,0,2.951,0,4.438,0c0,2.09,0,16.738,0,16.738c0,1.523,0.602,2.945,1.633,4.014 c-1.027,1.074-1.633,2.516-1.633,4v19.967c0,1.525,0.621,3.02,1.701,4.102l2.021,2.023c1.662,1.664,4.145,2.156,6.32,1.258 c2.178-0.906,3.582-3.01,3.582-5.359V43.604c0-0.769-0.248-1.539-0.637-2.324c0.389-0.791,0.637-1.568,0.637-2.35V16.422 c0-1.59-0.707-3.069-1.908-4.167c-0.074-0.376-0.193-0.972-0.193-0.972l-0.137-0.453c-0.902-2.173-3.006-3.578-5.357-3.578H10.113z "/>
<path fill-opacity="0.09" fill="#DEE9F3" d="M10.113,8.452c-1.869,0-3.539,1.116-4.252,2.844c-0.715,1.723-0.322,3.688,0.998,5.01 l2.023,2.023c0.869,0.868,2.023,1.347,3.252,1.347c0,0,4.006,0,5.639,0c0,2.108,0,17.938,0,17.938c0,1.564,0.783,3.006,2.096,3.857 c0,0,0.063,0.042,0.094,0.063c-0.416,0.415-0.842,0.84-0.842,0.84c-0.855,0.857-1.348,2.043-1.348,3.254v19.967 c0,1.209,0.492,2.396,1.348,3.252l2.023,2.023c1.318,1.32,3.285,1.711,5.012,0.998c1.727-0.719,2.842-2.387,2.842-4.25V43.604 c0-0.83-0.311-1.607-0.754-2.323c0.443-0.718,0.754-1.501,0.754-2.351V16.422c0-1.423-0.695-2.714-1.814-3.576 c-0.002-0.011-0.264-1.329-0.264-1.329c-0.016-0.077-0.039-0.152-0.068-0.226c-0.717-1.725-2.385-2.839-4.25-2.839H10.113z"/>
<path fill-opacity="0.11" fill="#DEE9F3" d="M10.113,9.652c-1.383,0-2.615,0.825-3.143,2.102c-0.527,1.272-0.238,2.726,0.738,3.702 l2.023,2.023c0.641,0.643,1.494,0.996,2.402,0.996c0,0,4.746,0,6.838,0c0,0.059,0,19.139,0,19.139c0,1.156,0.58,2.222,1.549,2.852 c0,0,0.738,0.48,1.336,0.869c-0.232,0.234-1.887,1.889-1.887,1.889c-0.635,0.633-0.998,1.51-0.998,2.404v19.967 c0,0.895,0.363,1.77,0.998,2.404l2.021,2.023c0.975,0.975,2.43,1.264,3.705,0.736c1.275-0.529,2.1-1.764,2.1-3.141V43.604 c0-0.894-0.373-1.703-0.963-2.322c0.602-0.625,0.963-1.457,0.963-2.352V16.422c0-1.282-0.73-2.413-1.854-2.995 c0.016-0.123,0.059-0.247,0.059-0.371l-0.26-1.305c-0.529-1.275-1.764-2.099-3.141-2.099H10.113z"/>
<path fill-opacity="0.13" fill="#DEE9F3" d="M10.113,10.853c-0.895,0-1.693,0.533-2.033,1.359c-0.342,0.822-0.154,1.764,0.477,2.396 l2.023,2.023c0.416,0.414,0.969,0.644,1.555,0.644c0,0,8.395,0,8.428,0c-0.229,0.354-0.389,0.748-0.389,1.171v19.168 c0,0.748,0.375,1.438,1.002,1.846l2.021,1.314c0.676,0.441,1.539,0.476,2.248,0.09c0.711-0.385,1.152-1.125,1.152-1.934V16.422 c0-0.893-0.533-1.69-1.357-2.032c-0.27-0.111-0.549-0.162-0.828-0.165c0.232-0.356,0.391-0.751,0.391-1.169 c0-0.285-0.057-0.572-0.17-0.846c-0.342-0.824-1.141-1.357-2.031-1.357H10.113z M22.842,14.867l-0.002,0.001 C22.84,14.868,22.84,14.868,22.842,14.867z M22.84,42.05c-0.002,0.002-2.021,2.021-2.021,2.021c-0.41,0.41-0.645,0.979-0.645,1.557 v19.967c0,0.578,0.234,1.145,0.645,1.555l2.023,2.023c0.631,0.631,1.572,0.818,2.396,0.477c0.826-0.342,1.359-1.139,1.359-2.031 V43.604c0-0.893-0.533-1.689-1.357-2.032C24.412,41.229,23.471,41.418,22.84,42.05z"/>
<linearGradient id="_2" gradientUnits="userSpaceOnUse" x1="16.55" y1="4.33" x2="16.55" y2="66.34">
<stop stop-color="#87A8CB" offset="0"/>
<stop stop-color="#235487" offset="1"/>
</linearGradient>
<path fill="url(#_2)" d="M11.721,16.075l-4.023-4.022h17.318l-4.023,4.022H11.721z M21.373,18.032l4.023-4.025v26.768 l-4.023-2.617V18.032z M21.373,45.214l4.023-4.023v28.842l-4.023-4.023V45.214z"/>
</svg>