<?xml version="1.0" encoding="UTF-8"?>
<!DOCTYPE svg PUBLIC "-//W3C//DTD SVG 1.1 Tiny//EN" "http://www.w3.org/Graphics/SVG/1.1/DTD/svg11-tiny.dtd">
<svg baseProfile="tiny" height="12" version="1.1" viewBox="0 0 12 12" width="12" xmlns="http://www.w3.org/2000/svg" xmlns:xlink="http://www.w3.org/1999/xlink">
<g>
<g>
<linearGradient gradientTransform="matrix(0 1 1 0 318.2246 -318.2256)" gradientUnits="userSpaceOnUse" id="XMLID_3_" x1="330.5381" x2="315.4765" y1="-310.7241" y2="-310.7241">
<stop offset="0" style="stop-color:#DEE9F3"/>
<stop offset="1" style="stop-color:#556180"/>
</linearGradient>
<path d="M3,8.779V3.219C3,2.547,3.537,2,4.199,2H12v0.75H4.578c-0.457,0-0.828,0.379-0.828,0.848v4.807    c0,0.47,0.371,0.85,0.828,0.85H12V10H4.199C3.537,10,3,9.452,3,8.779z" fill="url(#XMLID_3_)"/>
<linearGradient gradientTransform="matrix(0 1 1 0 318.2246 -318.2256)" gradientUnits="userSpaceOnUse" id="XMLID_4_" x1="320.9756" x2="327.4795" y1="-310.3496" y2="-310.3496">
<stop offset="0" style="stop-color:#B8C4C4"/>
<stop offset="0.1143" style="stop-color:#C1CCCC"/>
<stop offset="0.7025" style="stop-color:#EEF1F1"/>
<stop offset="1" style="stop-color:#FFFFFF"/>
</linearGradient>
<path d="M3.75,8.404V3.598c0-0.469,0.371-0.848,0.828-0.848H12v6.504H4.578    C4.121,9.254,3.75,8.874,3.75,8.404z" fill="url(#XMLID_4_)" fill-opacity="0.6" stroke-opacity="0.6"/>
</g>
<rect fill="none" height="12" width="12"/>
</g>
</svg>
