<?xml version="1.0" encoding="UTF-8"?>
<!DOCTYPE svg PUBLIC "-//W3C//DTD SVG 1.1 Tiny//EN" "http://www.w3.org/Graphics/SVG/1.1/DTD/svg11-tiny.dtd">
<svg width="6" height="6" viewBox="-0.167 0.167 6 6">
<linearGradient id="_4" gradientUnits="userSpaceOnUse" x1="2.34" y1="75.69" x2="2.34" y2="12.7">
<stop stop-color="#929699" offset="0"/>
<stop stop-color="#989C9F" offset="0.08"/>
<stop stop-color="#C3C7CC" offset="0.69"/>
<stop stop-color="#D3D8DD" offset="1"/>
</linearGradient>
<path fill="url(#_4)" d="M4.838,6.167v-2c0-2.209-1.791-4-4-4h-1.005v6H4.838z"/>
<path fill="#FFFFFF" d="M3.838,6.167v-2c0-1.654-1.346-3-3-3h-1.005v5H3.838z"/>
<linearGradient id="_5" gradientUnits="userSpaceOnUse" x1="1.34" y1="93.8" x2="1.34" y2="12.72">
<stop stop-color="#D9DDDF" offset="0.24"/>
<stop stop-color="#FFFFFF" offset="1"/>
</linearGradient>
<path fill="url(#_5)" d="M2.838,6.167v-2c0-1.103-0.896-2-2-2h-1.005v4H2.838z"/>
<path fill="#FFFFFF" d="M0.838,6.167v-1c0-0.552-0.449-1-1-1h-0.005v2H0.838z"/>
<linearGradient id="_6" gradientUnits="userSpaceOnUse" x1="2.33" y1="7.38" x2="2.33" y2="86.94">
<stop stop-color="#FFFFFF" offset="0"/>
<stop stop-color="#C1C7CD" offset="0.38"/>
<stop stop-color="#B0B8BF" offset="0.52"/>
<stop stop-color="#D3D8DD" offset="1"/>
</linearGradient>
<rect x="1.833" y="4.167" fill-opacity="0.5" fill="url(#_6)" width="1" height="2"/>
<path fill-opacity="0.12" d="M4.114,1.887c0.451,0.647,0.719,1.432,0.719,2.28v2h1v-1C5.833,3.807,5.151,2.609,4.114,1.887z"/>
</svg>