<?xml version="1.0" encoding="UTF-8" standalone="no"?>
<!DOCTYPE svg PUBLIC "-//W3C//DTD SVG 1.1 Tiny//EN" "http://www.w3.org/Graphics/SVG/1.1/DTD/svg11-tiny.dtd">
<svg baseProfile="tiny" xmlns="http://www.w3.org/2000/svg" xmlns:xlink="http://www.w3.org/1999/xlink" width="100%" height="100%" viewBox="0 0 100 8">
  <g
     id="g4">
    <g
       id="g6">
      <path
         d="M85.048,0.496l-3.14,7.84h1.547l0.549-1.568h2.691l0.572,1.568h1.547l-3.156-7.84H85.048z M84.402,5.723l0.951-2.859      l0.938,2.859H84.402z"
         id="path8" />
      <path
         d="M94.016,3.277C93.5,2.755,92.82,2.496,91.979,2.496c-0.424,0-1.172,0-1.172,0V0.5h-1.345V8.34h0.759      c0,0,1.143,0,1.678,0c0.889,0,1.593-0.274,2.113-0.823c0.52-0.549,0.778-1.294,0.778-2.238      C94.791,4.465,94.532,3.798,94.016,3.277z M92.993,6.771c-0.272,0.301-0.733,0.451-1.384,0.451c-0.338,0-0.803,0-0.803,0V3.611      c0,0,0.512,0,0.91,0c1.122,0,1.684,0.571,1.684,1.714C93.4,5.989,93.264,6.47,92.993,6.771z"
         id="path10" />
      <path
         d="M100.006,6.775c-0.379,0.32-0.816,0.481-1.314,0.481c-1.148,0-1.724-0.582-1.724-1.742c0-0.575,0.147-1.026,0.442-1.351      s0.695-0.488,1.203-0.488c0.529,0,0.951,0.14,1.266,0.421l0.574-0.963c-0.493-0.361-1.073-0.542-1.741-0.542      c-0.968,0-1.731,0.269-2.293,0.807c-0.562,0.538-0.841,1.244-0.841,2.115c0,0.887,0.256,1.579,0.77,2.076      c0.512,0.5,1.213,0.749,2.1,0.749c0.396,0,0.74-0.03,1.031-0.095c0.291-0.061,0.631-0.21,1.021-0.447L100.006,6.775z"
         id="path12" />
    </g>
  </g>
  <g
     id="g1318"
     transform="translate(57.1203,-0.56015)">
    <rect
       id="rect1320"
       height="9"
       width="22"
       x="0"
       y="0"
       style="fill:none;fill-opacity:0;stroke-opacity:0" />
    <path
       id="path1322"
       d="M 20.444,0.859 L 19.03,0.859 L 20.259,2.109 C 17.691,2.567 15.668,4.639 15.237,7.256 L 8.947,0.859 L 7.533,0.859 L 15.543,9 L 22,9 L 22,2.441 L 20.444,0.859 z M 16.275,7.983 C 16.429,5.393 18.455,3.327 21,3.158 L 21,6.225 C 20.99,6.224 20.982,6.214 20.972,6.214 C 20.025,6.214 19.258,6.994 19.258,7.958 C 19.258,7.967 19.265,7.974 19.266,7.983 L 16.275,7.983 z " />
  </g>
</svg>
